<?xml version="1.0" encoding="utf-8"?>
<!-- Generator: Adobe Illustrator 16.0.0, SVG Export Plug-In . SVG Version: 6.00 Build 0)  -->
<!DOCTYPE svg PUBLIC "-//W3C//DTD SVG 1.1//EN" "http://www.w3.org/Graphics/SVG/1.1/DTD/svg11.dtd">
<svg version="1.1" xmlns="http://www.w3.org/2000/svg" xmlns:xlink="http://www.w3.org/1999/xlink" x="0px" y="0px" width="32px"
	 height="32px" viewBox="0 0 32 32" enable-background="new 0 0 32 32" xml:space="preserve">
<symbol  id="dude-transit" viewBox="0 -25.1 21.25 25.118">
	<path fill-rule="evenodd" clip-rule="evenodd" fill="#FFFFFF" d="M15.5-4.2l0.75-1.05l1-3.1l3.9-2.65v-0.05
		c0.067-0.1,0.1-0.233,0.1-0.4c0-0.2-0.05-0.383-0.15-0.55c-0.167-0.233-0.383-0.35-0.65-0.35l-4.3,1.8l-1.2,1.65l-1.5-3.95
		l2.25-5.05l-3.25-6.9c-0.267-0.2-0.633-0.3-1.1-0.3c-0.3,0-0.55,0.15-0.75,0.45c-0.1,0.133-0.15,0.25-0.15,0.35
		c0,0.067,0.017,0.15,0.05,0.25c0.033,0.1,0.067,0.184,0.1,0.25l2.55,5.6L10.7-14l-3.05-4.9L0.8-18.7
		c-0.367,0.033-0.6,0.184-0.7,0.45c-0.067,0.3-0.1,0.467-0.1,0.5c0,0.5,0.2,0.767,0.6,0.8l5.7,0.15l2.15,5.4l3.1,5.65L9.4-5.6
		c-1.367-2-2.1-3.033-2.2-3.1C7.1-8.8,6.95-8.85,6.75-8.85C6.35-8.85,6.1-8.667,6-8.3C5.9-8,5.9-7.8,6-7.7H5.95l2.5,4.4l3.7,0.3
		L14-3.5L15.5-4.2z M14.55-2.9c-0.333,0.4-0.45,0.85-0.35,1.35c0.033,0.5,0.25,0.9,0.65,1.2S15.7,0.066,16.2,0
		c0.5-0.067,0.9-0.3,1.2-0.7c0.333-0.4,0.467-0.85,0.4-1.35c-0.066-0.5-0.3-0.9-0.7-1.2c-0.4-0.333-0.85-0.45-1.35-0.35
		C15.25-3.533,14.85-3.3,14.55-2.9z"/>
</symbol>
<g id="Layer_1">
	<g>
		<g>
			<path fill-rule="evenodd" clip-rule="evenodd" fill="#FFFFFF" d="M18.304,7.498c-0.034-1.102-0.067-2.202-0.101-3.303V3.911
				c0-0.287,0.026-0.849-0.083-1.034c-0.109-0.184-0.454-0.478-0.835-0.383c-0.281,0.069-0.482,0.281-0.55,0.566
				c-0.005,0.328-0.011,0.656-0.017,0.983c-0.057,0.264-0.033,0.622-0.033,0.901v0.317c-0.037,0.173,0.025,0.423-0.017,0.616
				c-0.038,0.173,0.024,0.424-0.017,0.618c-0.06,0.275-0.036,0.697-0.034,1.001H18.304z M11.097,6.78
				c0.115,0.221,0.304,0.462,0.367,0.718h1.902c-0.039-0.115-0.125-0.206-0.184-0.301c-0.126-0.203-0.245-0.405-0.367-0.601
				c-0.355-0.564-0.684-1.144-1.034-1.701c-0.211-0.334-0.343-0.695-0.884-0.7c-0.052,0.036-0.127,0.032-0.184,0.066
				c-0.147,0.087-0.332,0.219-0.401,0.384c-0.158,0.38,0.074,0.732,0.218,0.968C10.755,5.983,10.896,6.396,11.097,6.78z
				 M23.774,4.195c-0.146,0.114-0.327,0.163-0.434,0.316c-0.176,0.254-0.303,0.523-0.467,0.784
				c-0.259,0.409-0.543,0.824-0.801,1.234c-0.153,0.242-0.302,0.482-0.45,0.717c-0.049,0.077-0.066,0.161-0.134,0.217v0.034
				c0.647,0.002,1.396-0.053,1.835,0.149c0.177-0.363,0.377-0.728,0.584-1.067c0.119-0.195,0.181-0.404,0.301-0.6
				c0.146-0.241,0.347-0.521,0.433-0.802C24.814,4.622,24.266,4.182,23.774,4.195z M26.627,11.802
				c0.592-0.367,1.198-0.708,1.785-1.067c0.248-0.153,0.524-0.258,0.75-0.435c0.273-0.213,0.293-0.813,0.084-1.101
				c-0.134-0.185-0.408-0.204-0.734-0.2c-0.043,0.032-0.097,0.025-0.149,0.05c-0.144,0.064-0.301,0.155-0.45,0.233
				c-0.488,0.254-0.994,0.483-1.485,0.751c-0.283,0.154-0.587,0.296-0.884,0.45c-0.111,0.058-0.22,0.152-0.351,0.184v1.985
				c0.183-0.051,0.336-0.191,0.484-0.284C25.992,12.172,26.317,11.994,26.627,11.802z M23.241,22.828
				c0.262-0.394,0.2-1.128,0.2-1.785v-9.241c0-0.824,0.093-1.753-0.367-2.118c-0.48-0.383-1.046-0.301-1.885-0.301H2.123
				C2.011,9.416,1.9,9.449,1.789,9.482c-0.283,0.123-0.547,0.415-0.668,0.701c-0.145,0.344-0.065,1.299-0.065,1.785v10.358
				c0.079,0.325,0.281,0.613,0.517,0.784c0.424,0.308,0.901,0.25,1.617,0.25h18.083C22.267,23.361,22.829,23.446,23.241,22.828z
				 M3.907,20.309c0.151,0.361,0.742,0.809,1.386,0.667c0.088-0.02,0.237-0.016,0.333-0.05c0.065-0.023,0.115-0.069,0.2-0.084
				c0.001,0.186,0.015,0.375,0.05,0.534c0.025,0.12-0.022,0.276,0.033,0.367c-0.005,0.223-0.188,0.175-0.367,0.217
				c-0.218,0.052-0.778,0.146-1.066,0.084c-0.188-0.04-0.392-0.043-0.568-0.101c-0.584-0.188-1.001-0.53-1.234-1.067
				c-0.084-0.194-0.116-0.427-0.166-0.65c-0.095-0.42,0.019-0.947,0.134-1.234c0.276-0.694,0.738-1.096,1.484-1.318
				c0.2-0.06,0.387-0.017,0.616-0.066c0.136-0.029,0.533-0.032,0.684,0c0.192,0.041,0.384,0.089,0.551,0.134
				c-0.078,0.321-0.155,0.645-0.233,0.967c-0.31-0.074-0.781-0.188-1.15-0.066C4.073,18.812,3.608,19.592,3.907,20.309z
				 M10.83,20.626h-0.751v1.317H8.845v-1.317H7.128c-0.241,0-0.596,0.051-0.802-0.018v-0.867c0.031-0.09,0.134-0.188,0.184-0.267
				c0.121-0.191,0.234-0.382,0.351-0.567c0.358-0.57,0.675-1.147,1.034-1.718c0.189-0.302,0.433-0.604,0.584-0.935h1.601v3.37h0.768
				C10.848,19.896,10.904,20.402,10.83,20.626z M14.149,21.91c-0.081,0.202-0.797,0.134-1.101,0.134
				c-0.117,0-0.277,0.019-0.367-0.018s-0.235-0.155-0.267-0.25v-1.25c0.063-0.063,0.111-0.149,0.184-0.201
				c0.041-0.03,0.095-0.035,0.133-0.066c0.339-0.005,1.259-0.068,1.402,0.1c0.136,0.162,0.083,0.596,0.083,0.884
				C14.217,21.46,14.26,21.795,14.149,21.91z M14.217,18.941c0,0.123,0.022,0.312-0.033,0.383c-0.098,0.292-0.688,0.201-1.067,0.201
				h-0.4c-0.388-0.124-0.301-0.529-0.301-1.018v-0.484c0.053-0.166,0.202-0.193,0.334-0.283h0.917c0.16,0,0.333-0.01,0.417,0.066
				C14.287,17.888,14.217,18.634,14.217,18.941z M16.369,19.525h-0.435c-0.435,0-0.938,0.074-1.085-0.218
				c-0.047-0.095-0.016-0.308-0.016-0.433v-0.869c0.024-0.077,0.106-0.149,0.149-0.216c0.05-0.017,0.101-0.033,0.151-0.05h0.917
				c0.165,0,0.331-0.014,0.417,0.066c0.169,0.063,0.149,0.332,0.149,0.566C16.618,18.822,16.712,19.411,16.369,19.525z
				 M16.552,21.893c-0.09,0.243-0.772,0.151-1.102,0.151h-0.35c-0.353-0.098-0.267-0.61-0.267-1.051v-0.467
				c0.032-0.115,0.149-0.169,0.217-0.251c0.033-0.007,0.031-0.004,0.05-0.017c0.389-0.006,1.298-0.081,1.451,0.134
				c0.117,0.162,0.066,0.567,0.066,0.834C16.618,21.442,16.661,21.778,16.552,21.893z M19.004,21.359v0.401
				c-0.024,0.096-0.086,0.162-0.134,0.233c-0.303,0.08-1.431,0.126-1.585-0.084c-0.124-0.169-0.066-0.775-0.066-1.068
				c0-0.111-0.023-0.284,0.017-0.367c0.053-0.105,0.178-0.146,0.267-0.216h0.936c0.121,0,0.296-0.021,0.366,0.033
				C19.091,20.393,19.004,20.978,19.004,21.359z M18.771,19.525h-0.434c-0.435,0-0.954,0.074-1.102-0.218
				c-0.046-0.092-0.017-0.295-0.017-0.417v-0.885c0.022-0.069,0.096-0.137,0.134-0.199c0.062-0.022,0.122-0.045,0.184-0.066h0.917
				c0.14,0,0.309-0.017,0.384,0.05c0.178,0.063,0.167,0.322,0.167,0.566C19.004,18.788,19.098,19.415,18.771,19.525z M21.339,21.877
				c-0.091,0.261-0.739,0.167-1.083,0.167h-0.351c-0.384-0.096-0.301-0.566-0.301-1.035c0-0.152-0.036-0.396,0.017-0.517
				c0.048-0.109,0.183-0.157,0.267-0.233h0.935c0.121,0,0.296-0.021,0.367,0.033c0.296,0.103,0.199,0.728,0.199,1.118
				C21.389,21.572,21.413,21.785,21.339,21.877z M21.389,18.891v0.367c-0.027,0.103-0.113,0.155-0.167,0.233
				c-0.256,0.061-0.64,0.034-0.95,0.034h-0.384c-0.059-0.018-0.135-0.079-0.184-0.117c-0.179-0.143-0.1-0.743-0.1-1.052v-0.333
				c0.026-0.094,0.114-0.163,0.167-0.233l0.149-0.05h0.901c0.148,0,0.316-0.015,0.399,0.05
				C21.483,17.882,21.389,18.544,21.389,18.891z M21.489,16.839c-0.09,0.251-0.532,0.184-0.867,0.184h-6.605
				c-0.437,0-1.315,0.085-1.568-0.1c-0.217-0.159-0.134-1.09-0.134-1.485v-3.069c0-0.278-0.056-1.109,0.034-1.284
				c0.065-0.128,0.218-0.152,0.333-0.233h7.89c0.424,0,0.64-0.037,0.901,0.134c0.106,0.412,0.066,1.052,0.066,1.567v3.854
				C21.539,16.562,21.558,16.75,21.489,16.839z M14.566,14.037V14.02c0.101-0.055,0.201-0.11,0.301-0.166
				c0.023-0.053-0.047-0.147-0.067-0.217c-0.115,0.056-0.274,0.115-0.366,0.199H14.4c0.03-0.087,0.019-0.24,0.066-0.315v-0.034
				h-0.268v0.35c-0.108-0.03-0.257-0.126-0.333-0.199c-0.05,0.051-0.069,0.131-0.117,0.183c0.034,0.087,0.201,0.163,0.283,0.2
				c-0.057,0.074-0.195,0.144-0.283,0.184c0.023,0.084,0.066,0.159,0.101,0.233c0.113-0.018,0.261-0.098,0.334-0.166h0.016v0.367
				h0.268c-0.011-0.09-0.021-0.264-0.066-0.334v-0.017c0.122,0.017,0.305,0.094,0.384,0.167H14.8
				c0.028-0.084,0.056-0.167,0.084-0.251c-0.098-0.046-0.224-0.095-0.3-0.166H14.566z M16.218,14.02
				c0.105-0.027,0.261-0.097,0.334-0.166c0.013-0.018,0.006-0.005,0.017-0.034c-0.04-0.04-0.083-0.124-0.1-0.183
				c-0.114,0.036-0.284,0.121-0.367,0.199h-0.033c0.027-0.116,0.056-0.233,0.083-0.35h-0.301v0.35
				c-0.103-0.053-0.177-0.132-0.283-0.184v-0.016h-0.016c-0.038,0.061-0.095,0.111-0.117,0.183h-0.017
				c0.032,0.085,0.228,0.176,0.316,0.2v0.018c-0.121,0.033-0.208,0.115-0.316,0.166c0.021,0.085,0.078,0.178,0.134,0.233
				c0.013,0.019,0.232-0.113,0.266-0.149h0.033v0.351h0.301c-0.011-0.095-0.034-0.248-0.083-0.317v-0.05
				c0.128,0.062,0.255,0.122,0.383,0.184c0.061-0.063,0.075-0.17,0.134-0.233c-0.087-0.085-0.243-0.103-0.333-0.184
				C16.223,14.026,16.235,14.033,16.218,14.02z M18.153,13.652c-0.018-0.013-0.294,0.145-0.334,0.184h-0.032
				c0.01-0.116,0.021-0.233,0.032-0.35h-0.267v0.35c-0.127-0.036-0.226-0.137-0.334-0.199c-0.027,0.06-0.057,0.151-0.1,0.199
				c0.066,0.07,0.182,0.136,0.267,0.184c-0.048,0.07-0.181,0.158-0.267,0.184c0.031,0.074,0.066,0.148,0.084,0.233
				c0.115-0.018,0.26-0.097,0.333-0.166h0.017v0.367h0.267c0-0.083,0.005-0.242-0.032-0.301v-0.066
				c0.121,0.062,0.243,0.122,0.366,0.184c0.025-0.064,0.043-0.149,0.083-0.2c-0.028-0.128-0.231-0.143-0.317-0.217
				c-0.028-0.011-0.015-0.004-0.032-0.018c0.116-0.055,0.233-0.11,0.35-0.166C18.227,13.781,18.194,13.697,18.153,13.652z
				 M30.58,15.455c-0.283-0.006-0.566-0.012-0.851-0.018c-0.434-0.017-0.867-0.032-1.301-0.05h-0.45
				c-0.253-0.055-0.596-0.033-0.868-0.033h-0.3c-0.162-0.035-0.401,0.023-0.584-0.017c-0.27-0.059-0.729-0.036-1.034-0.034v1.686
				c0.32,0,0.774,0.029,1.068-0.033c0.22-0.048,0.5,0.026,0.7-0.018h0.351c0.314,0,0.762,0.029,1.051-0.033h0.35
				c0.314,0,0.762,0.029,1.051-0.032h0.701c0.414-0.09,0.623-0.181,0.717-0.584C31.276,15.884,30.831,15.523,30.58,15.455z
				 M8.444,18.157c-0.132,0.213-0.282,0.446-0.417,0.666c-0.139,0.231-0.238,0.583-0.417,0.768v0.034h1.234v-1.619
				c0.05-0.228,0.052-0.48,0.051-0.75H8.845C8.709,17.539,8.612,17.887,8.444,18.157z M28.479,21.677
				c-0.625-0.395-1.269-0.769-1.901-1.168c-0.311-0.196-0.634-0.383-0.95-0.584c-0.131-0.083-0.271-0.225-0.435-0.267v1.918
				c0.027,0.056,0.146,0.068,0.2,0.101c0.213,0.13,0.447,0.232,0.667,0.367c0.44,0.268,0.921,0.478,1.368,0.75
				c0.283,0.173,0.599,0.379,0.901,0.518c0.283,0.13,0.768,0.071,0.917-0.133c0.237-0.326,0.158-0.924-0.134-1.135
				C28.913,21.898,28.688,21.81,28.479,21.677z M23.541,25.013h-0.184c-0.118,0.077-0.345,0.01-0.467,0.083h-1.218
				c0.084,0.257,0.372,0.604,0.518,0.835c0.386,0.614,0.729,1.237,1.117,1.851c0.107,0.171,0.458,0.507,0.801,0.367
				c0.301-0.122,0.691-0.476,0.533-0.983C24.274,26.447,23.908,25.729,23.541,25.013z M11.03,25.613
				c-0.166,0.378-0.334,0.723-0.5,1.102c-0.072,0.164-0.192,0.319-0.251,0.5c-0.158,0.492,0.253,0.863,0.567,0.951
				c0.448,0.124,0.73-0.381,0.868-0.602c0.325-0.522,0.658-1.062,0.983-1.584c0.16-0.259,0.321-0.654,0.518-0.867v-0.018H11.28
				C11.228,25.285,11.104,25.446,11.03,25.613z M18.304,25.096h-1.686c-0.001,0.292-0.022,0.687,0.034,0.951
				c0.038,0.184-0.019,0.422,0.017,0.584c0.039,0.184-0.019,0.422,0.017,0.584v0.3c0,0.271-0.021,0.614,0.033,0.867
				c0.006,0.307,0.012,0.612,0.017,0.918c0.076,0.325,0.292,0.524,0.617,0.601c0.334,0.078,0.702-0.267,0.784-0.45
				c0.098-0.222,0.066-0.646,0.066-0.935v-0.283C18.236,27.188,18.27,26.142,18.304,25.096z"/>
		</g>
	</g>
</g>
<g id="Layer_2">
</g>
</svg>
