<?xml version="1.0" encoding="utf-8"?>
<!-- Generator: Adobe Illustrator 16.0.0, SVG Export Plug-In . SVG Version: 6.00 Build 0)  -->
<!DOCTYPE svg PUBLIC "-//W3C//DTD SVG 1.1//EN" "http://www.w3.org/Graphics/SVG/1.1/DTD/svg11.dtd">
<svg version="1.1" xmlns="http://www.w3.org/2000/svg" xmlns:xlink="http://www.w3.org/1999/xlink" x="0px" y="0px" width="32px"
	 height="32px" viewBox="0 0 32 32" enable-background="new 0 0 32 32" xml:space="preserve">
<symbol  id="dude-transit" viewBox="0 -25.1 21.25 25.118">
	<path fill-rule="evenodd" clip-rule="evenodd" fill="#FFFFFF" d="M15.5-4.2l0.75-1.05l1-3.1l3.9-2.65v-0.05
		c0.067-0.1,0.1-0.233,0.1-0.4c0-0.2-0.05-0.383-0.15-0.55c-0.167-0.233-0.383-0.35-0.65-0.35l-4.3,1.8l-1.2,1.65l-1.5-3.95
		l2.25-5.05l-3.25-6.9c-0.267-0.2-0.633-0.3-1.1-0.3c-0.3,0-0.55,0.15-0.75,0.45c-0.1,0.133-0.15,0.25-0.15,0.35
		c0,0.067,0.017,0.15,0.05,0.25c0.033,0.1,0.067,0.184,0.1,0.25l2.55,5.6L10.7-14l-3.05-4.9L0.8-18.7
		c-0.367,0.033-0.6,0.184-0.7,0.45c-0.067,0.3-0.1,0.467-0.1,0.5c0,0.5,0.2,0.767,0.6,0.8l5.7,0.15l2.15,5.4l3.1,5.65L9.4-5.6
		c-1.367-2-2.1-3.033-2.2-3.1C7.1-8.8,6.95-8.85,6.75-8.85C6.35-8.85,6.1-8.667,6-8.3C5.9-8,5.9-7.8,6-7.7H5.95l2.5,4.4l3.7,0.3
		L14-3.5L15.5-4.2z M14.55-2.9c-0.333,0.4-0.45,0.85-0.35,1.35c0.033,0.5,0.25,0.9,0.65,1.2S15.7,0.066,16.2,0
		c0.5-0.067,0.9-0.3,1.2-0.7c0.333-0.4,0.467-0.85,0.4-1.35c-0.066-0.5-0.3-0.9-0.7-1.2c-0.4-0.333-0.85-0.45-1.35-0.35
		C15.25-3.533,14.85-3.3,14.55-2.9z"/>
</symbol>
<g id="Layer_1">
</g>
<g id="Layer_2">
	<g>
		<g>
			<path fill="#FFFFFF" d="M16.428,3.65c6.78,0,12.297,5.517,12.297,12.297s-5.517,12.297-12.297,12.297S4.131,22.728,4.131,15.947
				S9.647,3.65,16.428,3.65 M16.428,1C8.173,1,1.48,7.692,1.48,15.947s6.692,14.947,14.947,14.947s14.947-6.692,14.947-14.947
				S24.683,1,16.428,1L16.428,1z"/>
		</g>
		<path fill="#FFFFFF" d="M23.792,18.084c0.041-0.917-0.208-2.125-0.708-2.25s-0.917-0.583-0.917-0.583
			c-0.625-4.417-3.208-5.792-4.875-6.125l-0.083-0.292c0,0,1.167,0.042,1.292,0.042s0.708-1.042,0.708-1.042l-0.583-1.458
			c0,0-0.625-0.667-1-0.5c-0.164,0.073-2.042,2.208-2.042,2.208h-1.333l0.09,0.828c0,0-0.421,0.302-0.59,0.381
			c-3.834,1.791-3.526,5.749-3.625,6.17c-0.192,0.823-0.709,0.821-0.709,1.538c0,1.083,0,1.958,1.042,2.75
			c0.339,0.258,0.542,0.208,0.958,0.542s1.334,2.666,1.959,3.291s1.458,1.501,3.041,1.5c1.417-0.208,2.25-1.208,2.792-1.958
			s1.75-2.75,1.75-2.75l0.417,0.125l-0.042,1.167c0.042,0.458-0.209,1.041,0.208,1.041c0.834,0,1.334-0.708,1-1.208
			c0,0-0.041-1.333,0.084-1.5S23.751,19.001,23.792,18.084z M19.769,19.87c-0.471,0.301-1.454,0.13-1.967,0
			c-0.515-0.128-1.07-1.196-1.454-1.196c-0.514,0-0.631,0.955-1.187,1.207c-0.557,0.253-1.293,0.204-1.892,0.156
			c-0.601-0.047-1.412-0.68-1.369-1.748c0.043-1.069,0.428-1.881,1.411-2.138c0.982-0.257,5.131-0.128,6.029,0
			s1.582,0.683,1.582,1.967C20.923,19.4,20.239,19.571,19.769,19.87z"/>
	</g>
</g>
</svg>
