<?xml version="1.0" encoding="utf-8"?>
<!-- Generator: Adobe Illustrator 16.0.0, SVG Export Plug-In . SVG Version: 6.00 Build 0)  -->
<!DOCTYPE svg PUBLIC "-//W3C//DTD SVG 1.1//EN" "http://www.w3.org/Graphics/SVG/1.1/DTD/svg11.dtd">
<svg version="1.1" xmlns="http://www.w3.org/2000/svg" xmlns:xlink="http://www.w3.org/1999/xlink" x="0px" y="0px" width="32px"
	 height="32px" viewBox="0 0 32 32" enable-background="new 0 0 32 32" xml:space="preserve">
<symbol  id="dude-transit" viewBox="0 -25.1 21.25 25.118">
	<path fill-rule="evenodd" clip-rule="evenodd" fill="#FFFFFF" d="M15.5-4.2l0.75-1.05l1-3.1l3.9-2.65v-0.05
		c0.067-0.1,0.1-0.233,0.1-0.4c0-0.2-0.05-0.383-0.15-0.55c-0.167-0.233-0.383-0.35-0.65-0.35l-4.3,1.8l-1.2,1.65l-1.5-3.95
		l2.25-5.05l-3.25-6.9c-0.267-0.2-0.633-0.3-1.1-0.3c-0.3,0-0.55,0.15-0.75,0.45c-0.1,0.133-0.15,0.25-0.15,0.35
		c0,0.067,0.017,0.15,0.05,0.25c0.033,0.1,0.067,0.184,0.1,0.25l2.55,5.6L10.7-14l-3.05-4.9L0.8-18.7
		c-0.367,0.033-0.6,0.184-0.7,0.45c-0.067,0.3-0.1,0.467-0.1,0.5c0,0.5,0.2,0.767,0.6,0.8l5.7,0.15l2.15,5.4l3.1,5.65L9.4-5.6
		c-1.367-2-2.1-3.033-2.2-3.1C7.1-8.8,6.95-8.85,6.75-8.85C6.35-8.85,6.1-8.667,6-8.3C5.9-8,5.9-7.8,6-7.7H5.95l2.5,4.4l3.7,0.3
		L14-3.5L15.5-4.2z M14.55-2.9c-0.333,0.4-0.45,0.85-0.35,1.35c0.033,0.5,0.25,0.9,0.65,1.2S15.7,0.066,16.2,0
		c0.5-0.067,0.9-0.3,1.2-0.7c0.333-0.4,0.467-0.85,0.4-1.35c-0.066-0.5-0.3-0.9-0.7-1.2c-0.4-0.333-0.85-0.45-1.35-0.35
		C15.25-3.533,14.85-3.3,14.55-2.9z"/>
</symbol>
<g id="Layer_1">
</g>
<g id="Layer_2">
	<g>
		<g>
			<path fill-rule="evenodd" clip-rule="evenodd" fill="#FFFFFF" d="M18.266,3.717c0-0.287,0.026-0.849-0.083-1.034
				C18.073,2.5,17.729,2.206,17.348,2.3c-0.281,0.069-0.482,0.281-0.55,0.566c-0.005,0.328-0.011,0.656-0.017,0.983
				c-0.057,0.264-0.033,0.622-0.033,0.901v0.317c-0.037,0.173,0.025,0.423-0.017,0.616c-0.038,0.173,0.024,0.424-0.017,0.618
				C16.655,6.579,16.679,7,16.681,7.304h1.686c-0.034-1.102-0.067-2.202-0.101-3.303V3.717z M12.878,6.403
				c-0.355-0.564-0.684-1.144-1.034-1.701c-0.211-0.334-0.343-0.695-0.884-0.7c-0.052,0.036-0.127,0.032-0.184,0.066
				c-0.147,0.087-0.332,0.219-0.401,0.384c-0.158,0.38,0.074,0.732,0.218,0.968c0.225,0.37,0.366,0.782,0.566,1.167
				c0.115,0.221,0.304,0.462,0.367,0.718h1.902c-0.039-0.115-0.125-0.206-0.184-0.301C13.119,6.8,13,6.598,12.878,6.403z
				 M23.837,4.001c-0.146,0.114-0.327,0.163-0.434,0.316c-0.176,0.254-0.303,0.523-0.467,0.784
				c-0.259,0.409-0.543,0.824-0.801,1.234c-0.153,0.242-0.302,0.482-0.45,0.717c-0.049,0.077-0.066,0.161-0.134,0.217v0.034
				c0.647,0.002,1.396-0.053,1.835,0.149c0.177-0.363,0.377-0.728,0.584-1.067c0.119-0.195,0.181-0.404,0.301-0.6
				c0.146-0.241,0.347-0.521,0.433-0.802C24.877,4.428,24.328,3.988,23.837,4.001z M26.689,11.608
				c0.592-0.367,1.198-0.708,1.785-1.067c0.248-0.153,0.524-0.258,0.75-0.435c0.273-0.213,0.293-0.813,0.084-1.101
				c-0.134-0.185-0.408-0.204-0.734-0.2c-0.043,0.032-0.097,0.025-0.149,0.05c-0.144,0.064-0.301,0.155-0.45,0.233
				c-0.488,0.254-0.994,0.483-1.485,0.751c-0.283,0.154-0.587,0.296-0.884,0.45c-0.111,0.058-0.22,0.152-0.351,0.184v1.985
				c0.183-0.051,0.336-0.191,0.484-0.284C26.055,11.978,26.38,11.8,26.689,11.608z M30.643,15.261
				c-0.283-0.006-0.566-0.012-0.851-0.018c-0.434-0.017-0.867-0.032-1.301-0.05h-0.45c-0.253-0.055-0.596-0.033-0.868-0.033h-0.3
				c-0.162-0.035-0.401,0.023-0.584-0.017c-0.27-0.059-0.729-0.036-1.034-0.034v1.686c0.32,0,0.774,0.029,1.068-0.033
				c0.22-0.048,0.5,0.026,0.7-0.018h0.351c0.314,0,0.762,0.029,1.051-0.033h0.35c0.314,0,0.762,0.029,1.051-0.032h0.701
				c0.414-0.09,0.623-0.181,0.717-0.584C31.339,15.69,30.894,15.33,30.643,15.261z M28.541,21.483
				c-0.625-0.395-1.269-0.769-1.901-1.168c-0.311-0.196-0.634-0.383-0.95-0.584c-0.131-0.083-0.271-0.225-0.435-0.267v1.918
				c0.027,0.056,0.146,0.068,0.2,0.101c0.213,0.13,0.447,0.232,0.667,0.367c0.44,0.268,0.921,0.478,1.368,0.75
				c0.283,0.173,0.599,0.379,0.901,0.518c0.283,0.13,0.768,0.071,0.917-0.133c0.237-0.326,0.158-0.924-0.134-1.135
				C28.976,21.705,28.751,21.616,28.541,21.483z M23.604,24.819H23.42c-0.118,0.077-0.345,0.01-0.467,0.083h-1.218
				c0.084,0.257,0.372,0.604,0.518,0.835c0.386,0.614,0.729,1.237,1.117,1.851c0.107,0.171,0.458,0.507,0.801,0.367
				c0.301-0.122,0.691-0.476,0.533-0.983C24.337,26.253,23.971,25.536,23.604,24.819z M11.093,25.419
				c-0.166,0.378-0.334,0.723-0.5,1.102c-0.072,0.164-0.192,0.319-0.251,0.5c-0.158,0.492,0.253,0.863,0.567,0.951
				c0.448,0.124,0.73-0.381,0.868-0.602c0.325-0.522,0.658-1.062,0.983-1.584c0.16-0.259,0.321-0.654,0.518-0.867v-0.018h-1.936
				C11.29,25.091,11.166,25.252,11.093,25.419z M18.366,24.902h-1.686c-0.001,0.292-0.022,0.687,0.034,0.951
				c0.038,0.184-0.019,0.422,0.017,0.584c0.039,0.184-0.019,0.422,0.017,0.584v0.3c0,0.271-0.021,0.614,0.033,0.867
				c0.006,0.307,0.012,0.612,0.017,0.918c0.076,0.325,0.292,0.524,0.617,0.601c0.334,0.078,0.702-0.267,0.784-0.45
				c0.098-0.222,0.066-0.646,0.066-0.935v-0.283C18.299,26.994,18.332,25.948,18.366,24.902z"/>
		</g>
	</g>
</g>
</svg>
