<?xml version="1.0" encoding="utf-8"?>
<!-- Generator: Adobe Illustrator 16.0.0, SVG Export Plug-In . SVG Version: 6.00 Build 0)  -->
<!DOCTYPE svg PUBLIC "-//W3C//DTD SVG 1.1//EN" "http://www.w3.org/Graphics/SVG/1.1/DTD/svg11.dtd">
<svg version="1.1" xmlns="http://www.w3.org/2000/svg" xmlns:xlink="http://www.w3.org/1999/xlink" x="0px" y="0px" width="32px"
	 height="32px" viewBox="0 0 32 32" enable-background="new 0 0 32 32" xml:space="preserve">
<symbol  id="dude-transit" viewBox="0 -25.1 21.25 25.118">
	<path fill-rule="evenodd" clip-rule="evenodd" fill="#FFFFFF" d="M15.5-4.2l0.75-1.05l1-3.1l3.9-2.65v-0.05
		c0.067-0.1,0.1-0.233,0.1-0.4c0-0.2-0.05-0.383-0.15-0.55c-0.167-0.233-0.383-0.35-0.65-0.35l-4.3,1.8l-1.2,1.65l-1.5-3.95
		l2.25-5.05l-3.25-6.9c-0.267-0.2-0.633-0.3-1.1-0.3c-0.3,0-0.55,0.15-0.75,0.45c-0.1,0.133-0.15,0.25-0.15,0.35
		c0,0.067,0.017,0.15,0.05,0.25c0.033,0.1,0.067,0.184,0.1,0.25l2.55,5.6L10.7-14l-3.05-4.9L0.8-18.7
		c-0.367,0.033-0.6,0.184-0.7,0.45c-0.067,0.3-0.1,0.467-0.1,0.5c0,0.5,0.2,0.767,0.6,0.8l5.7,0.15l2.15,5.4l3.1,5.65L9.4-5.6
		c-1.367-2-2.1-3.033-2.2-3.1C7.1-8.8,6.95-8.85,6.75-8.85C6.35-8.85,6.1-8.667,6-8.3C5.9-8,5.9-7.8,6-7.7H5.95l2.5,4.4l3.7,0.3
		L14-3.5L15.5-4.2z M14.55-2.9c-0.333,0.4-0.45,0.85-0.35,1.35c0.033,0.5,0.25,0.9,0.65,1.2S15.7,0.066,16.2,0
		c0.5-0.067,0.9-0.3,1.2-0.7c0.333-0.4,0.467-0.85,0.4-1.35c-0.066-0.5-0.3-0.9-0.7-1.2c-0.4-0.333-0.85-0.45-1.35-0.35
		C15.25-3.533,14.85-3.3,14.55-2.9z"/>
</symbol>
<g id="Layer_1">
</g>
<g id="Layer_2">
	<g>
		<g>
			<path fill-rule="evenodd" clip-rule="evenodd" fill="#FFFFFF" d="M23.504,11.608c0-0.824,0.093-1.753-0.367-2.118
				c-0.48-0.383-1.046-0.301-1.885-0.301H2.186c-0.112,0.033-0.223,0.066-0.334,0.1C1.568,9.412,1.305,9.704,1.184,9.99
				c-0.145,0.344-0.065,1.299-0.065,1.785v10.358c0.079,0.325,0.281,0.613,0.517,0.784c0.424,0.308,0.901,0.25,1.617,0.25h18.083
				c0.994,0,1.557,0.085,1.969-0.533c0.262-0.394,0.2-1.128,0.2-1.785V11.608z M3.97,20.115c0.151,0.361,0.742,0.809,1.386,0.667
				c0.088-0.02,0.237-0.016,0.333-0.05c0.065-0.023,0.115-0.069,0.2-0.084c0.001,0.186,0.015,0.375,0.05,0.534
				c0.025,0.12-0.022,0.276,0.033,0.367c-0.005,0.223-0.188,0.175-0.367,0.217c-0.218,0.052-0.778,0.146-1.066,0.084
				c-0.188-0.04-0.392-0.043-0.568-0.101c-0.584-0.188-1.001-0.53-1.234-1.067c-0.084-0.194-0.116-0.427-0.166-0.65
				c-0.095-0.42,0.019-0.947,0.134-1.234c0.276-0.694,0.738-1.096,1.484-1.318c0.2-0.06,0.387-0.017,0.616-0.066
				c0.136-0.029,0.533-0.032,0.684,0c0.192,0.041,0.384,0.089,0.551,0.134c-0.078,0.321-0.155,0.645-0.233,0.967
				c-0.31-0.074-0.781-0.188-1.15-0.066C4.136,18.618,3.671,19.398,3.97,20.115z M10.893,20.432h-0.751v1.317H8.907v-1.317H7.19
				c-0.241,0-0.596,0.051-0.802-0.018v-0.867c0.031-0.09,0.134-0.188,0.184-0.267c0.121-0.191,0.234-0.382,0.351-0.567
				c0.358-0.57,0.675-1.147,1.034-1.718c0.189-0.302,0.433-0.604,0.584-0.935h1.601v3.37h0.768
				C10.91,19.703,10.967,20.208,10.893,20.432z M14.212,21.716c-0.081,0.202-0.797,0.134-1.101,0.134
				c-0.117,0-0.277,0.019-0.367-0.018s-0.235-0.155-0.267-0.25v-1.25c0.063-0.063,0.111-0.149,0.184-0.201
				c0.041-0.03,0.095-0.035,0.133-0.066c0.339-0.005,1.259-0.068,1.402,0.1c0.136,0.162,0.083,0.596,0.083,0.884
				C14.279,21.266,14.322,21.601,14.212,21.716z M14.279,18.748c0,0.123,0.022,0.312-0.033,0.383
				c-0.098,0.292-0.688,0.201-1.067,0.201h-0.4c-0.388-0.124-0.301-0.529-0.301-1.018V17.83c0.053-0.166,0.202-0.193,0.334-0.283
				h0.917c0.16,0,0.333-0.01,0.417,0.066C14.35,17.694,14.279,18.44,14.279,18.748z M16.432,19.332h-0.435
				c-0.435,0-0.938,0.074-1.085-0.218c-0.047-0.095-0.016-0.308-0.016-0.433v-0.869c0.024-0.077,0.106-0.149,0.149-0.216
				c0.05-0.017,0.101-0.033,0.151-0.05h0.917c0.165,0,0.331-0.014,0.417,0.066c0.169,0.063,0.149,0.332,0.149,0.566
				C16.681,18.628,16.774,19.217,16.432,19.332z M16.614,21.699c-0.09,0.243-0.772,0.151-1.102,0.151h-0.35
				c-0.353-0.098-0.267-0.61-0.267-1.051v-0.467c0.032-0.115,0.149-0.169,0.217-0.251c0.033-0.007,0.031-0.004,0.05-0.017
				c0.389-0.006,1.298-0.081,1.451,0.134c0.117,0.162,0.066,0.567,0.066,0.834C16.681,21.249,16.724,21.584,16.614,21.699z
				 M19.066,21.166v0.401c-0.024,0.096-0.086,0.162-0.134,0.233c-0.303,0.08-1.431,0.126-1.585-0.084
				c-0.124-0.169-0.066-0.775-0.066-1.068c0-0.111-0.023-0.284,0.017-0.367c0.053-0.105,0.178-0.146,0.267-0.216H18.5
				c0.121,0,0.296-0.021,0.366,0.033C19.153,20.199,19.066,20.784,19.066,21.166z M18.833,19.332h-0.434
				c-0.435,0-0.954,0.074-1.102-0.218c-0.046-0.092-0.017-0.295-0.017-0.417v-0.885c0.022-0.069,0.096-0.137,0.134-0.199
				c0.062-0.022,0.122-0.045,0.184-0.066h0.917c0.14,0,0.309-0.017,0.384,0.05c0.178,0.063,0.167,0.322,0.167,0.566
				C19.066,18.594,19.16,19.221,18.833,19.332z M21.401,21.683c-0.091,0.261-0.739,0.167-1.083,0.167h-0.351
				c-0.384-0.096-0.301-0.566-0.301-1.035c0-0.152-0.036-0.396,0.017-0.517c0.048-0.109,0.183-0.157,0.267-0.233h0.935
				c0.121,0,0.296-0.021,0.367,0.033c0.296,0.103,0.199,0.728,0.199,1.118C21.451,21.378,21.476,21.591,21.401,21.683z
				 M21.451,18.697v0.367c-0.027,0.103-0.113,0.155-0.167,0.233c-0.256,0.061-0.64,0.034-0.95,0.034H19.95
				c-0.059-0.018-0.135-0.079-0.184-0.117c-0.179-0.143-0.1-0.743-0.1-1.052V17.83c0.026-0.094,0.114-0.163,0.167-0.233l0.149-0.05
				h0.901c0.148,0,0.316-0.015,0.399,0.05C21.546,17.688,21.451,18.35,21.451,18.697z M21.552,16.645
				c-0.09,0.251-0.532,0.184-0.867,0.184h-6.605c-0.437,0-1.315,0.085-1.568-0.1c-0.217-0.159-0.134-1.09-0.134-1.485v-3.069
				c0-0.278-0.056-1.109,0.034-1.284c0.065-0.128,0.218-0.152,0.333-0.233h7.89c0.424,0,0.64-0.037,0.901,0.134
				c0.106,0.412,0.066,1.052,0.066,1.567v3.854C21.602,16.368,21.62,16.556,21.552,16.645z M14.629,13.843v-0.018
				c0.101-0.055,0.201-0.11,0.301-0.166c0.023-0.053-0.047-0.147-0.067-0.217c-0.115,0.056-0.274,0.115-0.366,0.199h-0.033
				c0.03-0.087,0.019-0.24,0.066-0.315v-0.034h-0.268v0.35c-0.108-0.03-0.257-0.126-0.333-0.199
				c-0.05,0.051-0.069,0.131-0.117,0.183c0.034,0.087,0.201,0.163,0.283,0.2c-0.057,0.074-0.195,0.144-0.283,0.184
				c0.023,0.084,0.066,0.159,0.101,0.233c0.113-0.018,0.261-0.098,0.334-0.166h0.016v0.367h0.268
				c-0.011-0.09-0.021-0.264-0.066-0.334v-0.017c0.122,0.017,0.305,0.094,0.384,0.167h0.016c0.028-0.084,0.056-0.167,0.084-0.251
				c-0.098-0.046-0.224-0.095-0.3-0.166H14.629z M16.28,13.826c0.105-0.027,0.261-0.097,0.334-0.166
				c0.013-0.018,0.006-0.005,0.017-0.034c-0.04-0.04-0.083-0.124-0.1-0.183c-0.114,0.036-0.284,0.121-0.367,0.199h-0.033
				c0.027-0.116,0.056-0.233,0.083-0.35h-0.301v0.35c-0.103-0.053-0.177-0.132-0.283-0.184v-0.016h-0.016
				c-0.038,0.061-0.095,0.111-0.117,0.183H15.48c0.032,0.085,0.228,0.176,0.316,0.2v0.018c-0.121,0.033-0.208,0.115-0.316,0.166
				c0.021,0.085,0.078,0.178,0.134,0.233c0.013,0.019,0.232-0.113,0.266-0.149h0.033v0.351h0.301
				c-0.011-0.095-0.034-0.248-0.083-0.317v-0.05c0.128,0.062,0.255,0.122,0.383,0.184c0.061-0.063,0.075-0.17,0.134-0.233
				c-0.087-0.085-0.243-0.103-0.333-0.184C16.285,13.833,16.298,13.839,16.28,13.826z M18.216,13.458
				c-0.018-0.013-0.294,0.145-0.334,0.184H17.85c0.01-0.116,0.021-0.233,0.032-0.35h-0.267v0.35
				c-0.127-0.036-0.226-0.137-0.334-0.199c-0.027,0.06-0.057,0.151-0.1,0.199c0.066,0.07,0.182,0.136,0.267,0.184
				c-0.048,0.07-0.181,0.158-0.267,0.184c0.031,0.074,0.066,0.148,0.084,0.233c0.115-0.018,0.26-0.097,0.333-0.166h0.017v0.367
				h0.267c0-0.083,0.005-0.242-0.032-0.301v-0.066c0.121,0.062,0.243,0.122,0.366,0.184c0.025-0.064,0.043-0.149,0.083-0.2
				c-0.028-0.128-0.231-0.143-0.317-0.217c-0.028-0.011-0.015-0.004-0.032-0.018c0.116-0.055,0.233-0.11,0.35-0.166
				C18.289,13.587,18.257,13.503,18.216,13.458z M8.507,17.963c-0.132,0.213-0.282,0.446-0.417,0.666
				c-0.139,0.231-0.238,0.583-0.417,0.768v0.034h1.234v-1.619c0.05-0.228,0.052-0.48,0.051-0.75H8.907
				C8.771,17.345,8.675,17.693,8.507,17.963z"/>
		</g>
	</g>
</g>
</svg>
