<?xml version="1.0" encoding="iso-8859-1"?>
<!-- Generator: Adobe Illustrator 16.0.0, SVG Export Plug-In . SVG Version: 6.00 Build 0)  -->
<!DOCTYPE svg PUBLIC "-//W3C//DTD SVG 1.1//EN" "http://www.w3.org/Graphics/SVG/1.1/DTD/svg11.dtd">
<svg version="1.1" id="Layer_1" xmlns="http://www.w3.org/2000/svg" xmlns:xlink="http://www.w3.org/1999/xlink" x="0px" y="0px"
	 width="64px" height="64px" viewBox="0 0 64 64" style="enable-background:new 0 0 64 64;" xml:space="preserve">
<g>
	<path style="fill-rule:evenodd;clip-rule:evenodd;fill:#10B3E2;" d="M34.917,8.903c0.658,0.188,1.321,0.356,1.973,0.564
		c2.734,0.872,5.016,3.088,5.658,5.392c-1.36-0.237-2.762-0.604-4.183-0.708c-4.397-0.322-8.229,0.83-10.845,4.658
		c-3.893,5.697-7.741,11.423-11.608,17.138c-0.083,0.123-0.156,0.253-0.313,0.509c1.864,0.164,3.668,0.31,5.328-0.352
		c1.627-0.647,3.127-1.613,4.73-2.465c0,0.521-0.013,1.146,0.003,1.768c0.043,1.755,0.117,3.51,0.143,5.265
		c0.035,2.403-1.414,3.861-3.813,3.863C14.66,44.542,7.33,44.544,0,44.549c0-0.062,0-0.122,0-0.183
		c0.115-0.138,0.24-0.269,0.344-0.415c6.557-9.247,13.148-18.47,19.646-27.758c2.335-3.337,5.305-5.659,9.229-6.75
		c0.628-0.174,1.253-0.359,1.879-0.54C32.371,8.903,33.645,8.903,34.917,8.903z"/>
	<path style="fill-rule:evenodd;clip-rule:evenodd;fill:#10B3E2;" d="M29.279,55.097c-0.965-0.311-1.96-0.549-2.89-0.943
		c-2.345-0.993-3.943-2.735-4.935-5.215c0.812,0.229,1.508,0.491,2.229,0.618c3.922,0.693,7.743,0.484,10.911-2.201
		c1.4-1.188,2.481-2.803,3.536-4.341c3.408-4.965,6.737-9.984,10.094-14.985c0.095-0.142,0.159-0.304,0.248-0.477
		c-3.769-0.521-7.066,0.333-9.824,3.027c-0.089-0.054-0.177-0.107-0.266-0.161c0-2.683-0.056-5.366,0.022-8.046
		c0.043-1.475,1.637-2.901,3.127-2.905c7.3-0.02,14.6-0.012,21.899,0.005c0.189,0,0.379,0.221,0.568,0.338
		c-0.085,0.084-0.185,0.157-0.252,0.253c-6.686,9.434-13.379,18.86-20.043,28.308c-1.876,2.661-4.304,4.574-7.358,5.659
		c-1.235,0.438-2.527,0.715-3.794,1.066C31.462,55.097,30.371,55.097,29.279,55.097z"/>
	<path style="fill-rule:evenodd;clip-rule:evenodd;fill:#17B3E2;" d="M22.943,46.891c3.476-0.671,5.612-3.2,5.615-6.779
		c0.003-4.938,0.052-9.875-0.013-14.811c-0.07-5.35,3.679-8.337,8.405-8.745c1.474-0.127,2.947-0.056,4.443,0.534
		c-0.767,0.27-1.489,0.429-2.119,0.762c-2.283,1.205-3.486,3.115-3.492,5.72c-0.012,5.059,0.01,10.116-0.013,15.175
		c-0.012,2.487-0.686,4.759-2.673,6.398C30.067,47.644,26.614,47.941,22.943,46.891z"/>
</g>
</svg>
