<?xml version="1.0" encoding="iso-8859-1"?>
<!-- Generator: Adobe Illustrator 16.0.0, SVG Export Plug-In . SVG Version: 6.00 Build 0)  -->
<!DOCTYPE svg PUBLIC "-//W3C//DTD SVG 1.1//EN" "http://www.w3.org/Graphics/SVG/1.1/DTD/svg11.dtd">
<svg version="1.1" id="Layer_1" xmlns="http://www.w3.org/2000/svg" xmlns:xlink="http://www.w3.org/1999/xlink" x="0px" y="0px"
	 width="64px" height="64px" viewBox="0 0 64 64" style="enable-background:new 0 0 64 64;" xml:space="preserve">
<g>
	<path style="fill-rule:evenodd;clip-rule:evenodd;fill:#64819A;" d="M49.866,63.492c-1.568,0.282-3.126,0.295-4.646-0.03
		c-0.447-1.071-0.401-2.126-0.358-3.167c0.065-1.566-0.141-3.104-0.431-4.63c-0.244-1.286-0.557-2.559-0.817-3.741
		c-0.5-0.527-0.882-1.021-1.637-1.142c-0.174,0.152-0.392,0.344-0.637,0.559c0.225,0.402,0.42,0.75,0.666,1.188
		c-0.435,0.381-0.882,0.773-1.396,1.223c-0.412-0.315-0.784-0.545-1.09-0.843c-1.122-1.094-2.228-2.204-3.327-3.321
		c-0.55-0.559-0.963-1.194-1.217-1.96c-0.712-2.146-1.27-4.317-1.604-6.559c-0.243-1.632-0.572-3.247-0.594-4.906
		c-0.005-0.389-0.139-0.775-0.085-1.216c1.048,1.382,2.102,2.761,3.144,4.147c1.338,1.78,2.679,3.56,3.996,5.355
		c1.438,1.96,2.851,3.938,4.27,5.911c0.527,0.733,0.725,1.606,0.911,2.456c0.337,1.541,0.641,3.096,0.835,4.66
		c0.166,1.34,0.16,2.7,0.229,4.052c0.014,0.266,0.025,0.532,0.04,0.854c0.51,0,0.972,0,1.453,0c0.314-0.637,0.384-1.329,0.352-2.044
		c-0.016-0.34-0.008-0.682-0.001-1.022c0.039-1.97-0.291-3.888-0.767-5.793c-0.425-1.699-0.745-3.432-1.487-5.028
		c-0.453-0.977-0.958-1.947-1.575-2.825c-1.534-2.182-3.14-4.313-4.728-6.456c-1.547-2.087-3.111-4.162-4.662-6.246
		c-0.34-0.456-0.659-0.928-1.01-1.423c-0.897,0.43-0.979,1.515-1.844,2.001c-0.695-0.475-0.84-1.496-1.712-1.968
		c-0.374,0.479-0.765,0.964-1.14,1.463c-1.6,2.132-3.207,4.26-4.789,6.405c-1.302,1.767-2.589,3.545-3.85,5.342
		c-0.659,0.938-1.277,1.909-1.857,2.898c-0.883,1.506-1.199,3.219-1.642,4.878c-0.329,1.23-0.632,2.48-0.786,3.742
		c-0.159,1.305-0.386,2.62-0.247,3.946c0.074,0.697,0.194,1.39,0.302,2.137c0.461,0,0.923,0,1.444,0
		c0.03-0.156,0.08-0.313,0.087-0.472c0.087-2.056,0.19-4.107,0.605-6.131c0.249-1.218,0.465-2.442,0.675-3.667
		c0.13-0.756,0.527-1.388,0.941-1.992c1.011-1.476,2.063-2.924,3.124-4.365c1.26-1.713,2.55-3.405,3.82-5.111
		c1.31-1.759,2.61-3.525,3.919-5.284c0.076-0.102,0.2-0.167,0.355-0.292c0.023,0.199,0.064,0.333,0.05,0.461
		c-0.113,1.035-0.221,2.072-0.359,3.104c-0.134,0.999-0.287,1.996-0.457,2.989c-0.356,2.093-0.85,4.149-1.557,6.155
		c-0.352,0.999-1.072,1.741-1.743,2.476c-1.116,1.221-2.382,2.305-3.53,3.394c-0.847-0.078-1.236-0.607-1.706-1.111
		c0.185-0.321,0.366-0.637,0.583-1.015c-0.083-0.131-0.148-0.352-0.293-0.436c-0.157-0.091-0.419-0.128-0.58-0.058
		c-0.46,0.198-0.891,0.464-1.228,0.645c-1.144,3.858-1.445,7.682-1.624,11.483c-0.374,0.369-0.765,0.515-1.233,0.508
		c-1.021-0.013-2.043-0.004-3.028-0.004c-0.777-0.399-0.762-1.157-0.794-1.787c-0.076-1.495-0.1-3.002,0-4.494
		c0.09-1.336,0.392-2.655,0.567-3.986c0.193-1.473,0.594-2.894,0.954-4.329c0.371-1.478,1.077-2.765,1.863-4.032
		c0.139-0.224,0.278-0.446,0.469-0.753c-0.332-0.017-0.576-0.081-0.792-0.029c-0.936,0.227-1.863,0.016-2.794,0.005
		c-2.004-0.024-3.764-0.659-5.312-1.913c-0.078-0.063-0.162-0.129-0.217-0.212c-0.165-0.248-0.316-0.505-0.54-0.866
		c1.759-0.406,3.44-0.795,5.347-1.235c-0.408-0.232-0.62-0.363-0.841-0.478c-0.931-0.481-1.924-0.869-2.782-1.456
		c-1.338-0.913-2.393-2.104-2.824-3.732c-0.035-0.13-0.052-0.265-0.063-0.398c-0.005-0.064,0.023-0.132,0.06-0.311
		c1.345-0.107,2.73,0.015,4.297-0.077c-0.809-0.533-1.461-0.973-2.124-1.397c-0.713-0.456-1.142-1.144-1.537-1.857
		c-0.393-0.71-0.689-1.451-0.694-2.386c1.472,0.633,2.863,1.264,4.525,1.578c-1.719-1.915-2.217-4.089-2.285-6.458
		c1.064,0.689,2.051,1.329,3.033,1.965c0.32-0.239,0.251-0.501,0.157-0.753c-0.532-1.425-0.577-2.908-0.533-4.4
		c0.02-0.676,0.298-1.519,0.646-2.002c0.77,0.654,1.537,1.307,2.399,2.039c0-0.587,0.094-1.107-0.02-1.577
		c-0.246-1.016-0.135-1.99-0.009-3.008c0.112-0.905,0.153-1.812,0.462-2.68c0.031-0.088,0.09-0.166,0.174-0.319
		c0.666,0.41,1.309,0.806,2.066,1.271c-0.024-2.37-0.087-4.614,1.369-6.628c0.472,0.517,0.892,0.978,1.405,1.541
		c0.124-0.277,0.26-0.458,0.284-0.653c0.18-1.453,0.675-2.816,1.19-4.17c0.468-1.234,1.301-2.216,2.361-3.114
		c0.382-0.004,0.765-0.457,1.336-0.156c-0.054,0.147-0.091,0.301-0.161,0.438c-1.311,2.57-2.7,5.104-3.917,7.718
		c-1.226,2.631-2.309,5.327-3.3,8.063c-1.012,2.796-1.816,5.644-2.545,8.516c-0.33,1.298-0.448,2.648-0.688,3.971
		c-0.297,1.635-0.434,3.277-0.408,4.939c0.02,1.262,0.262,2.486,0.659,3.666c0.502,1.492,2.106,2.955,3.913,2.597
		c0.728-0.452,0.983-1.112,0.973-1.976c-0.015-1.255-0.126-2.483-0.372-3.719c-0.138-0.689-0.235-1.471,0.191-2.236
		c1.605,0.469,3.001,1.246,4.248,2.24c0.485-0.011,0.71-0.349,0.919-0.637c0.773-1.065,1.503-2.161,2.266-3.234
		c0.351-0.493,0.738-0.961,1.158-1.505c-0.647-1.459-1.304-2.939-1.884-4.246c0-0.979-0.016-1.787,0.003-2.594
		c0.061-2.545,0.117-5.089,0.213-7.632c0.032-0.838,0.182-1.672,0.273-2.462c0.294-0.343,0.577-0.673,0.927-1.081
		c0.168,0.286,0.324,0.466,0.389,0.673c0.653,2.092,1.289,4.188,1.934,6.283c0.347,1.128,0.702,2.254,1.018,3.27
		c-0.331,0.436-0.632,0.834-1.021,1.348c-0.127,0.976-0.127,0.976,0.261,1.811c0.284,0.189,0.591,0.395,0.821,0.548
		c1.465,0.263,2.541-0.05,2.914-1.694c-0.071-0.729-0.43-1.417-1.235-1.861c1.078-3.442,2.144-6.844,3.228-10.306
		c0.288,0.139,0.525,0.253,0.874,0.421c0.136,0.525,0.397,1.102,0.418,1.687c0.109,2.985,0.142,5.973,0.234,8.959
		c0.025,0.805,0.164,1.605,0.237,2.289c-0.727,1.573-1.394,3.017-2.079,4.498c1.364,1.818,2.594,3.743,4.063,5.578
		c1.466-0.886,2.749-1.911,4.392-2.327c0.152,0.142,0.322,0.299,0.56,0.519c-0.086,0.703-0.084,1.459-0.284,2.157
		c-0.362,1.263-0.393,2.532-0.334,3.87c0.162,0.322,0.344,0.685,0.509,1.012c1.086,0.58,2.39,0.353,3.38-0.556
		c0.785-0.721,1.16-1.677,1.384-2.666c0.222-0.979,0.318-1.991,0.417-2.994c0.039-0.394-0.063-0.802-0.105-1.203
		c-0.021-0.201-0.084-0.401-0.078-0.6c0.063-1.805-0.31-3.565-0.67-5.305c-0.656-3.163-1.448-6.301-2.583-9.335
		c-0.815-2.182-1.61-4.378-2.55-6.507c-1.218-2.76-2.561-5.465-3.874-8.183c-0.351-0.726-0.788-1.409-1.176-2.097
		c0.272-0.323,0.531-0.251,0.785-0.153c1.112,0.426,1.802,1.29,2.35,2.293c0.951,1.739,1.485,3.614,1.805,5.559
		c0.01,0.062,0.065,0.115,0.121,0.209c0.713-0.15,0.722-1.042,1.422-1.32c0.583,0.342,0.708,1.053,1.001,1.627
		c0.178,0.349,0.248,0.773,0.282,1.171c0.097,1.11,0.149,2.225,0.223,3.337c0.004,0.064,0.039,0.125,0.078,0.242
		c0.692-0.2,1.167-0.745,1.786-1.172c0.137,0.177,0.309,0.309,0.356,0.476c0.229,0.81,0.445,1.622,0.436,2.479
		c-0.016,1.496-0.004,2.991-0.004,4.62c0.939-0.639,1.47-1.613,2.541-2c0.862,2.369,0.448,4.678-0.275,7.081
		c1.282-0.219,2.058-1.277,3.234-1.741c0.126,2.337-0.43,4.378-2.049,6.096c0.728,0.11,1.432-0.12,4.237-1.361
		c0.229,0.846,0.023,1.62-0.413,2.296c-0.664,1.029-1.46,1.954-2.581,2.54c-0.324,0.17-0.612,0.406-1.057,0.707
		c0.572,0.17,1.026,0.084,1.464,0.1c0.442,0.017,0.886,0.004,1.329,0.004c0.471,0,0.943,0,1.5,0c-0.26,1.692-1.027,2.998-2.27,3.997
		c-1.191,0.958-2.497,1.742-3.993,2.156c-0.077,0.021-0.134,0.114-0.286,0.251c1.805,0.426,3.52,0.83,5.289,1.248
		c-0.359,0.812-0.958,1.388-1.696,1.801c-1.379,0.771-2.864,1.187-4.457,1.18c-0.301-0.001-0.603,0.071-0.905,0.083
		c-0.36,0.014-0.723,0.011-1.083-0.005c-0.43-0.02-0.858-0.06-1.342-0.096c0.025,0.728,0.467,1.152,0.768,1.596
		c0.839,1.233,1.227,2.643,1.597,4.035c0.448,1.684,0.772,3.408,1.033,5.132c0.363,2.392,0.232,4.811,0.214,7.22
		C50.148,62.578,49.995,62.937,49.866,63.492z M29.604,38.008c-0.601,1.319-0.927,2.574-1.355,3.859
		c0.361,0.115,0.66,0.211,1.02,0.326c0.433-1.279,0.841-2.484,1.27-3.753C30.261,38.312,30,38.191,29.604,38.008z M33.293,38.462
		c0.434,1.316,0.828,2.512,1.233,3.742c0.337-0.121,0.613-0.221,0.961-0.347c-0.264-1.308-0.775-2.497-1.198-3.804
		C33.966,38.187,33.7,38.295,33.293,38.462z"/>
	<path style="fill-rule:evenodd;clip-rule:evenodd;fill:#64819A;" d="M10.299,22.478c-0.89-0.707-1.601-1.27-2.351-1.864
		c-0.537,1.09-0.226,2.249-0.307,3.367c-0.084,1.166,0.177,2.28,0.548,3.483c-1.054-0.418-2.056-0.816-3.074-1.221
		c-0.373,2.037,0.382,4.316,2.089,6.308c-0.822,0.028-1.573,0.055-2.396,0.082c0.102,3.034,1.79,5.051,4.006,6.847
		c-1.23,0.327-2.414,0.643-3.609,0.961c0.018,0.775,0.48,1.266,0.89,1.726c1.642,1.842,3.702,2.895,6.178,3.109
		c0.868,0.076,1.734,0.191,2.619,0.29c-0.593,1.768-1.32,3.488-2.015,5.198c-1.607-1.056-3.135-2.041-4.643-3.057
		c-1.49-1.004-3.136-1.646-4.964-1.991c0.589-1.301,1.798-1.272,2.725-1.829c-0.331-0.45-0.852-0.62-1.282-0.878
		c-1.081-0.649-2.116-1.356-2.949-2.306c-0.733-0.836-1.41-1.725-1.67-2.976c1.419-0.05,2.803,0.004,4.323-0.036
		c-0.204-0.194-0.283-0.302-0.389-0.367C2.67,36.496,1.6,35.39,0.781,34.029c-0.662-1.1-0.976-2.251-0.653-3.563
		c1.324,0.176,2.577,0.724,4.033,0.7c-1.974-2.331-2.882-4.89-2.608-7.91c1.345,0.438,2.644,0.861,4.086,1.332
		c-0.197-0.435-0.298-0.79-0.499-1.073c-0.502-0.706-0.734-1.521-0.924-2.331c-0.199-0.852-0.313-1.727-0.259-2.617
		c0.04-0.653,0.249-1.243,0.456-1.879c0.962,0.851,1.867,1.648,2.907,2.567c-0.096-3.036-0.05-5.857,1.37-8.587
		c1.081,0.995,1.616,2.245,2.489,3.436c0.07-0.337,0.136-0.517,0.14-0.697c0.013-0.646,0.008-1.294,0.005-1.941
		c-0.005-1.573,0.368-3.074,0.893-4.54c0.115-0.321,0.385-0.588,0.623-0.938c0.544,0.833,1.017,1.555,1.589,2.43
		c0.153-0.629,0.293-1.065,0.361-1.513c0.163-1.081,0.567-2.075,1-3.068c0.311-0.713,0.827-1.22,1.519-1.769
		c0.216,0.659,0.407,1.243,0.637,1.944c0.886-1.302,1.583-2.639,3.096-3.354c0,0.274,0.071,0.502-0.012,0.616
		c-0.313,0.426-0.443,0.898-0.513,1.407c-0.031,0.229-0.115,0.454-0.197,0.673c-0.319,0.849-0.646,1.694-0.985,2.577
		c-0.178-0.272-0.374-0.572-0.591-0.904c-0.619-0.052-0.85,0.436-1.104,0.856c-0.581,0.964-0.969,2.01-1.194,3.109
		c-0.107,0.526-0.141,1.066-0.227,1.598c-0.025,0.155-0.114,0.3-0.219,0.563c-0.473-0.439-0.881-0.819-1.314-1.223
		c-0.819,0.797-1.065,1.81-1.319,2.827c-0.325,1.301-0.145,2.629-0.231,4.039c-0.794-0.409-0.969-1.347-1.802-1.746
		c-0.201,0.404-0.463,0.799-0.6,1.233c-0.251,0.803-0.45,1.621-0.438,2.479C10.312,19.914,10.299,21.068,10.299,22.478z"/>
	<path style="fill-rule:evenodd;clip-rule:evenodd;fill:#64819A;" d="M49.035,45.566c0.951-0.102,1.851-0.232,2.755-0.286
		c1.315-0.078,2.521-0.535,3.642-1.142c1.51-0.815,2.706-2.006,3.515-3.661c-1.267-0.327-2.518-0.65-3.832-0.99
		c2.226-1.771,3.881-3.813,4.046-6.87c-0.829,0-1.593,0-2.529,0c1.801-1.839,2.364-3.923,2.319-6.339
		c-1.138,0.266-2.091,0.74-3.176,1.243c0.667-2.341,0.69-4.614,0.316-6.956c-0.821,0.641-1.556,1.215-2.448,1.912
		c0-1.467,0.037-2.721-0.011-3.972c-0.046-1.222-0.333-2.39-1.091-3.544c-0.591,0.655-1.117,1.238-1.766,1.959
		c0.025-1.997,0.106-3.835-0.608-5.563c-0.203-0.49-0.504-0.94-0.811-1.502c-0.51,0.468-0.921,0.845-1.395,1.278
		c-0.099-0.24-0.224-0.413-0.236-0.593c-0.108-1.61-0.572-3.11-1.338-4.526c-0.247-0.456-0.524-0.86-1.113-1.055
		c-0.225,0.328-0.445,0.647-0.707,1.03c-0.195-0.631-0.374-1.191-0.541-1.755c-0.181-0.61-0.597-1.112-0.648-1.803
		c-0.042-0.552-0.368-1.082-0.484-1.67c1.499,0.592,2.201,1.917,3.087,3.252c0.23-0.689,0.424-1.269,0.641-1.915
		c1.032,0.651,1.574,1.567,1.903,2.615c0.36,1.149,0.661,2.317,1.006,3.542c0.663-0.619,0.988-1.482,1.579-2.277
		c0.231,0.34,0.494,0.59,0.586,0.892c0.275,0.898,0.471,1.82,0.72,2.728c0.32,1.169,0.159,2.36,0.203,3.542
		c0.01,0.263,0.04,0.524,0.076,0.973c0.963-1.152,1.456-2.442,2.476-3.376c0.655,0.71,0.921,1.588,1.066,2.419
		c0.266,1.522,0.342,3.079,0.455,4.625c0.03,0.41-0.095,0.831-0.166,1.381c1.219-0.654,1.994-1.602,2.954-2.514
		c0.594,1.378,0.565,2.686,0.323,4.071c-0.238,1.356-0.828,2.539-1.579,3.89c1.49-0.484,2.789-0.907,4.157-1.352
		c0.291,2.979-0.599,5.534-2.53,7.809c0.69,0.322,1.318-0.098,1.954-0.152c0.658-0.058,1.298-0.318,1.955-0.492
		c0.092,0.24,0.176,0.457,0.238,0.621c-0.065,0.514-0.125,0.98-0.211,1.667c-0.674,2.005-2.199,3.578-4.257,4.894
		c0.572,0.175,1.03,0.083,1.472,0.101c0.442,0.017,0.886,0.004,1.329,0.004c0.471,0,0.941,0,1.562,0
		c-0.186,0.511-0.278,0.934-0.481,1.294c-0.94,1.661-2.304,2.901-3.942,3.858c-0.514,0.301-1.018,0.618-1.586,0.966
		c0.937,0.604,2.134,0.596,2.725,1.687c-0.162,0.125-0.298,0.316-0.46,0.342c-1.996,0.311-3.678,1.313-5.32,2.397
		c-1.21,0.8-2.402,1.629-3.675,2.494c-0.562-0.696-0.713-1.647-1.102-2.478C49.653,47.415,49.381,46.502,49.035,45.566z"/>
	<path style="fill-rule:evenodd;clip-rule:evenodd;fill:#64819A;" d="M31.564,38.582c0.335,0,0.524,0,0.764,0
		c0,1.182,0,2.316,0,3.521c-0.194,0.028-0.406,0.058-0.674,0.096c-0.169-0.643-0.068-1.247-0.086-1.841
		C31.551,39.79,31.564,39.222,31.564,38.582z"/>
</g>
</svg>
