<?xml version="1.0" encoding="iso-8859-1"?>
<!-- Generator: Adobe Illustrator 16.0.0, SVG Export Plug-In . SVG Version: 6.00 Build 0)  -->
<!DOCTYPE svg PUBLIC "-//W3C//DTD SVG 1.1//EN" "http://www.w3.org/Graphics/SVG/1.1/DTD/svg11.dtd">
<svg version="1.1" id="Layer_1" xmlns="http://www.w3.org/2000/svg" xmlns:xlink="http://www.w3.org/1999/xlink" x="0px" y="0px"
	 width="64px" height="64px" viewBox="0 0 64 64" style="enable-background:new 0 0 64 64;" xml:space="preserve">
<g>
	<path style="fill-rule:evenodd;clip-rule:evenodd;fill:#F0AB23;" d="M49.866,63.491c-1.567,0.283-3.125,0.295-4.646-0.03
		c-0.446-1.072-0.401-2.126-0.358-3.167c0.065-1.566-0.141-3.104-0.43-4.63c-0.244-1.286-0.558-2.559-0.818-3.741
		c-0.5-0.527-0.882-1.02-1.637-1.142c-0.174,0.152-0.393,0.344-0.638,0.559c0.226,0.402,0.42,0.75,0.666,1.188
		c-0.435,0.381-0.882,0.773-1.395,1.223c-0.413-0.315-0.785-0.545-1.091-0.843c-1.121-1.094-2.228-2.205-3.327-3.322
		c-0.55-0.559-0.962-1.194-1.217-1.96c-0.713-2.145-1.27-4.317-1.604-6.559c-0.243-1.632-0.573-3.247-0.595-4.906
		c-0.005-0.389-0.139-0.775-0.085-1.216c1.049,1.382,2.102,2.761,3.144,4.148c1.338,1.78,2.679,3.559,3.996,5.355
		c1.438,1.96,2.851,3.938,4.27,5.912c0.526,0.733,0.725,1.606,0.91,2.456c0.337,1.541,0.641,3.096,0.835,4.66
		c0.166,1.339,0.16,2.7,0.229,4.051c0.014,0.266,0.024,0.533,0.04,0.855c0.51,0,0.972,0,1.453,0
		c0.313-0.636,0.384-1.329,0.352-2.044c-0.016-0.34-0.008-0.681-0.001-1.022c0.038-1.97-0.291-3.888-0.768-5.793
		c-0.426-1.699-0.745-3.432-1.486-5.029c-0.454-0.977-0.959-1.947-1.576-2.825c-1.534-2.181-3.14-4.313-4.728-6.456
		c-1.547-2.087-3.11-4.163-4.662-6.247c-0.34-0.456-0.659-0.927-1.01-1.423c-0.898,0.43-0.979,1.516-1.844,2.001
		c-0.695-0.475-0.84-1.496-1.712-1.968c-0.374,0.479-0.765,0.964-1.14,1.463c-1.6,2.132-3.207,4.26-4.789,6.406
		c-1.302,1.767-2.589,3.545-3.85,5.341c-0.659,0.938-1.277,1.909-1.857,2.898c-0.884,1.506-1.199,3.219-1.642,4.878
		c-0.329,1.231-0.632,2.481-0.786,3.742c-0.159,1.305-0.387,2.62-0.247,3.947c0.074,0.697,0.194,1.389,0.302,2.136
		c0.461,0,0.923,0,1.444,0c0.03-0.156,0.08-0.313,0.087-0.472c0.087-2.055,0.19-4.107,0.605-6.131
		c0.249-1.218,0.465-2.442,0.675-3.667c0.13-0.756,0.528-1.388,0.941-1.992c1.011-1.476,2.063-2.924,3.124-4.365
		c1.26-1.713,2.55-3.405,3.82-5.111c1.31-1.759,2.61-3.525,3.92-5.285c0.075-0.102,0.2-0.167,0.354-0.292
		c0.023,0.2,0.064,0.333,0.05,0.461c-0.113,1.036-0.221,2.072-0.359,3.104c-0.134,0.999-0.287,1.996-0.457,2.99
		c-0.356,2.092-0.85,4.149-1.557,6.155c-0.352,0.999-1.072,1.741-1.743,2.475c-1.115,1.221-2.382,2.305-3.53,3.394
		c-0.847-0.078-1.236-0.607-1.706-1.111c0.185-0.321,0.366-0.637,0.583-1.014c-0.083-0.131-0.148-0.353-0.293-0.436
		c-0.157-0.091-0.419-0.127-0.58-0.058c-0.46,0.199-0.892,0.463-1.229,0.645c-1.144,3.858-1.445,7.681-1.624,11.483
		c-0.375,0.369-0.765,0.515-1.233,0.508c-1.021-0.013-2.043-0.004-3.028-0.004c-0.778-0.4-0.762-1.158-0.794-1.788
		c-0.076-1.495-0.1-3.002,0-4.494c0.09-1.335,0.392-2.655,0.567-3.986c0.193-1.473,0.594-2.893,0.955-4.329
		c0.371-1.477,1.077-2.765,1.862-4.032c0.139-0.223,0.278-0.447,0.469-0.753c-0.332-0.016-0.576-0.081-0.792-0.029
		c-0.936,0.227-1.863,0.016-2.794,0.005c-2.004-0.024-3.764-0.659-5.312-1.913c-0.079-0.063-0.162-0.129-0.217-0.211
		c-0.165-0.248-0.316-0.505-0.54-0.867c1.759-0.406,3.44-0.795,5.347-1.235c-0.408-0.233-0.62-0.363-0.841-0.478
		c-0.931-0.481-1.924-0.87-2.782-1.456c-1.338-0.913-2.393-2.104-2.824-3.733c-0.034-0.129-0.051-0.264-0.062-0.397
		c-0.005-0.064,0.023-0.132,0.06-0.311c1.345-0.108,2.73,0.015,4.297-0.078c-0.809-0.533-1.461-0.973-2.124-1.397
		c-0.713-0.457-1.142-1.144-1.537-1.858c-0.393-0.71-0.689-1.451-0.694-2.386c1.472,0.633,2.863,1.264,4.525,1.579
		c-1.719-1.915-2.217-4.089-2.285-6.458c1.064,0.689,2.05,1.328,3.033,1.965c0.321-0.24,0.251-0.501,0.157-0.753
		c-0.532-1.425-0.577-2.908-0.533-4.4c0.02-0.676,0.299-1.519,0.647-2.001c0.77,0.654,1.537,1.306,2.399,2.039
		c0-0.587,0.095-1.107-0.02-1.578c-0.246-1.015-0.135-1.989-0.009-3.007c0.112-0.905,0.153-1.812,0.461-2.68
		c0.032-0.088,0.09-0.166,0.175-0.319c0.666,0.41,1.308,0.805,2.065,1.271c-0.024-2.37-0.087-4.614,1.369-6.628
		c0.471,0.517,0.892,0.978,1.405,1.542c0.124-0.277,0.259-0.458,0.284-0.653c0.18-1.453,0.676-2.816,1.189-4.169
		c0.469-1.234,1.301-2.216,2.362-3.115c0.382-0.003,0.765-0.457,1.336-0.156c-0.054,0.148-0.092,0.301-0.161,0.438
		c-1.311,2.57-2.7,5.104-3.917,7.718c-1.226,2.631-2.309,5.327-3.3,8.064c-1.012,2.795-1.816,5.644-2.545,8.515
		c-0.33,1.298-0.448,2.649-0.688,3.971c-0.297,1.634-0.434,3.277-0.408,4.939c0.02,1.262,0.262,2.486,0.659,3.666
		c0.502,1.493,2.106,2.956,3.913,2.597c0.728-0.452,0.983-1.112,0.973-1.976c-0.015-1.255-0.126-2.483-0.373-3.719
		c-0.137-0.689-0.234-1.47,0.191-2.236c1.606,0.469,3.002,1.246,4.249,2.241c0.486-0.011,0.71-0.349,0.919-0.637
		c0.773-1.065,1.503-2.161,2.266-3.234c0.351-0.493,0.737-0.961,1.157-1.505c-0.647-1.459-1.304-2.939-1.884-4.246
		c0-0.979-0.016-1.787,0.003-2.595c0.061-2.544,0.117-5.088,0.213-7.631c0.032-0.838,0.182-1.672,0.272-2.462
		c0.294-0.343,0.578-0.673,0.928-1.081c0.168,0.286,0.324,0.465,0.388,0.673c0.653,2.091,1.29,4.188,1.935,6.283
		c0.347,1.128,0.702,2.254,1.019,3.27c-0.331,0.437-0.633,0.834-1.022,1.348c-0.127,0.976-0.127,0.976,0.261,1.811
		c0.284,0.189,0.592,0.395,0.821,0.548c1.465,0.263,2.541-0.049,2.915-1.694c-0.071-0.729-0.431-1.417-1.235-1.861
		c1.078-3.443,2.144-6.844,3.228-10.306c0.288,0.139,0.525,0.253,0.874,0.421c0.136,0.525,0.397,1.102,0.418,1.687
		c0.109,2.985,0.143,5.973,0.235,8.958c0.024,0.805,0.163,1.605,0.236,2.289c-0.727,1.573-1.395,3.017-2.079,4.498
		c1.364,1.818,2.595,3.744,4.063,5.579c1.466-0.886,2.749-1.912,4.392-2.327c0.151,0.141,0.322,0.299,0.56,0.519
		c-0.086,0.703-0.084,1.458-0.284,2.157c-0.362,1.263-0.393,2.533-0.335,3.87c0.162,0.322,0.344,0.685,0.509,1.012
		c1.087,0.58,2.39,0.352,3.38-0.557c0.785-0.72,1.16-1.676,1.385-2.666c0.222-0.979,0.317-1.991,0.416-2.994
		c0.039-0.394-0.063-0.802-0.105-1.204c-0.021-0.201-0.084-0.401-0.077-0.6c0.063-1.805-0.311-3.565-0.671-5.305
		c-0.656-3.163-1.448-6.301-2.583-9.335c-0.815-2.182-1.609-4.377-2.55-6.507c-1.218-2.76-2.561-5.465-3.874-8.182
		c-0.351-0.726-0.787-1.41-1.176-2.097c0.272-0.323,0.531-0.25,0.785-0.154c1.112,0.426,1.802,1.291,2.35,2.293
		c0.95,1.739,1.485,3.614,1.805,5.559c0.01,0.061,0.065,0.115,0.121,0.208c0.713-0.15,0.722-1.042,1.422-1.32
		c0.583,0.341,0.708,1.052,1.002,1.626c0.178,0.349,0.247,0.773,0.282,1.171c0.097,1.11,0.149,2.225,0.223,3.337
		c0.004,0.063,0.039,0.125,0.078,0.242c0.692-0.2,1.166-0.745,1.785-1.171c0.137,0.176,0.31,0.308,0.357,0.475
		c0.229,0.81,0.444,1.622,0.436,2.479c-0.017,1.495-0.005,2.991-0.005,4.62c0.939-0.638,1.471-1.613,2.541-2
		c0.862,2.369,0.448,4.677-0.274,7.081c1.281-0.219,2.058-1.277,3.234-1.742c0.126,2.337-0.43,4.378-2.049,6.096
		c0.728,0.111,1.432-0.12,4.237-1.361c0.229,0.845,0.023,1.62-0.413,2.296c-0.664,1.029-1.46,1.954-2.58,2.54
		c-0.324,0.169-0.612,0.406-1.058,0.707c0.572,0.169,1.026,0.084,1.465,0.1c0.442,0.016,0.886,0.004,1.329,0.004
		c0.471,0,0.942,0,1.5,0c-0.26,1.692-1.027,2.997-2.27,3.997c-1.19,0.958-2.496,1.743-3.992,2.156
		c-0.077,0.021-0.135,0.115-0.286,0.25c1.806,0.426,3.521,0.831,5.289,1.249c-0.358,0.812-0.957,1.388-1.695,1.801
		c-1.38,0.771-2.863,1.186-4.457,1.18c-0.301-0.001-0.603,0.071-0.904,0.083c-0.36,0.014-0.723,0.011-1.084-0.005
		c-0.43-0.019-0.857-0.06-1.342-0.095c0.025,0.728,0.467,1.152,0.769,1.595c0.839,1.234,1.227,2.642,1.597,4.035
		c0.449,1.684,0.772,3.408,1.033,5.132c0.363,2.391,0.232,4.81,0.214,7.219C50.148,62.577,49.995,62.937,49.866,63.491z
		 M29.604,38.008c-0.601,1.32-0.927,2.575-1.355,3.859c0.362,0.116,0.66,0.211,1.02,0.326c0.433-1.279,0.841-2.485,1.27-3.753
		C30.261,38.312,30,38.191,29.604,38.008z M33.294,38.462c0.434,1.316,0.827,2.512,1.232,3.742c0.338-0.122,0.613-0.221,0.962-0.347
		c-0.265-1.308-0.774-2.497-1.198-3.805C33.966,38.187,33.7,38.295,33.294,38.462z"/>
	<path style="fill-rule:evenodd;clip-rule:evenodd;fill:#F0AB23;" d="M10.299,22.478c-0.89-0.707-1.601-1.27-2.351-1.864
		c-0.537,1.09-0.227,2.25-0.307,3.367c-0.084,1.166,0.176,2.28,0.547,3.484c-1.053-0.418-2.056-0.817-3.075-1.221
		c-0.373,2.037,0.383,4.317,2.089,6.308c-0.822,0.028-1.573,0.054-2.396,0.082c0.102,3.034,1.79,5.05,4.006,6.846
		C7.584,39.807,6.4,40.122,5.206,40.44c0.018,0.775,0.48,1.266,0.891,1.726c1.642,1.842,3.701,2.895,6.177,3.11
		c0.869,0.076,1.734,0.191,2.619,0.29c-0.593,1.767-1.32,3.488-2.015,5.198c-1.607-1.057-3.135-2.041-4.643-3.057
		c-1.491-1.004-3.136-1.647-4.964-1.992c0.589-1.301,1.798-1.272,2.725-1.829c-0.331-0.45-0.852-0.62-1.282-0.878
		c-1.081-0.649-2.116-1.356-2.949-2.306c-0.733-0.836-1.41-1.724-1.67-2.976c1.419-0.05,2.803,0.004,4.323-0.036
		c-0.203-0.194-0.283-0.302-0.389-0.367C2.67,36.496,1.6,35.39,0.781,34.028c-0.662-1.1-0.976-2.251-0.653-3.563
		c1.324,0.175,2.577,0.723,4.033,0.7c-1.974-2.331-2.882-4.89-2.608-7.91c1.346,0.438,2.644,0.861,4.086,1.332
		c-0.197-0.435-0.298-0.79-0.5-1.073c-0.502-0.706-0.734-1.521-0.924-2.331c-0.199-0.851-0.313-1.727-0.259-2.617
		c0.04-0.654,0.249-1.243,0.456-1.879c0.962,0.85,1.867,1.648,2.907,2.567c-0.096-3.037-0.05-5.857,1.37-8.587
		c1.081,0.996,1.616,2.246,2.489,3.436c0.07-0.337,0.136-0.516,0.14-0.697c0.013-0.647,0.008-1.294,0.006-1.942
		c-0.006-1.573,0.368-3.074,0.892-4.54c0.115-0.322,0.385-0.588,0.623-0.938c0.544,0.833,1.017,1.554,1.589,2.43
		c0.152-0.629,0.293-1.065,0.36-1.513c0.163-1.082,0.567-2.076,1-3.069c0.311-0.713,0.826-1.22,1.519-1.769
		c0.216,0.659,0.407,1.244,0.637,1.945c0.886-1.302,1.583-2.639,3.096-3.355c0,0.274,0.071,0.502-0.013,0.617
		c-0.313,0.426-0.443,0.898-0.513,1.407c-0.031,0.229-0.115,0.455-0.197,0.673c-0.319,0.849-0.646,1.694-0.985,2.577
		c-0.177-0.272-0.374-0.573-0.59-0.905c-0.62-0.051-0.85,0.436-1.104,0.857c-0.582,0.964-0.969,2.01-1.194,3.11
		c-0.107,0.526-0.141,1.066-0.227,1.597c-0.025,0.155-0.114,0.3-0.219,0.563c-0.473-0.439-0.881-0.819-1.314-1.223
		c-0.819,0.797-1.065,1.81-1.319,2.827c-0.325,1.301-0.144,2.629-0.231,4.04c-0.794-0.41-0.969-1.347-1.802-1.747
		c-0.201,0.404-0.463,0.799-0.6,1.234c-0.251,0.802-0.45,1.621-0.437,2.478C10.312,19.913,10.299,21.067,10.299,22.478z"/>
	<path style="fill-rule:evenodd;clip-rule:evenodd;fill:#F0AB23;" d="M49.035,45.565c0.951-0.102,1.851-0.232,2.755-0.286
		c1.314-0.078,2.521-0.535,3.642-1.141c1.511-0.816,2.706-2.007,3.516-3.661c-1.267-0.328-2.519-0.651-3.832-0.991
		c2.227-1.771,3.882-3.813,4.045-6.87c-0.828,0-1.592,0-2.528,0c1.801-1.839,2.363-3.923,2.319-6.338
		c-1.139,0.265-2.092,0.74-3.176,1.243c0.667-2.341,0.689-4.615,0.316-6.956c-0.821,0.641-1.556,1.215-2.448,1.912
		c0-1.467,0.037-2.721-0.011-3.972c-0.046-1.221-0.333-2.39-1.091-3.544c-0.591,0.655-1.117,1.238-1.766,1.959
		c0.025-1.997,0.105-3.835-0.608-5.563c-0.203-0.491-0.505-0.941-0.812-1.502c-0.51,0.467-0.921,0.845-1.395,1.278
		c-0.099-0.24-0.224-0.413-0.235-0.593c-0.108-1.61-0.572-3.11-1.338-4.526c-0.247-0.456-0.524-0.861-1.113-1.055
		c-0.226,0.328-0.445,0.647-0.707,1.03c-0.195-0.631-0.374-1.191-0.54-1.754c-0.181-0.61-0.598-1.113-0.648-1.803
		c-0.041-0.552-0.368-1.082-0.483-1.67c1.499,0.592,2.201,1.916,3.087,3.251c0.23-0.689,0.425-1.269,0.641-1.915
		c1.032,0.651,1.575,1.567,1.903,2.615c0.359,1.149,0.661,2.317,1.006,3.542c0.663-0.619,0.988-1.482,1.579-2.277
		c0.23,0.34,0.494,0.59,0.586,0.892c0.275,0.898,0.472,1.82,0.72,2.727c0.32,1.168,0.159,2.36,0.204,3.542
		c0.01,0.262,0.039,0.524,0.075,0.973c0.963-1.153,1.455-2.443,2.476-3.377c0.655,0.71,0.921,1.588,1.066,2.419
		c0.266,1.522,0.342,3.079,0.454,4.625c0.03,0.41-0.095,0.832-0.165,1.381c1.219-0.654,1.993-1.602,2.953-2.514
		c0.594,1.378,0.565,2.686,0.323,4.071c-0.238,1.356-0.828,2.539-1.579,3.889c1.489-0.484,2.789-0.906,4.157-1.351
		c0.29,2.979-0.6,5.534-2.53,7.809c0.69,0.322,1.318-0.098,1.954-0.153c0.658-0.057,1.298-0.318,1.955-0.492
		c0.093,0.24,0.176,0.458,0.238,0.621c-0.065,0.514-0.124,0.98-0.211,1.667c-0.674,2.005-2.199,3.578-4.257,4.894
		c0.572,0.174,1.03,0.083,1.472,0.1c0.442,0.017,0.886,0.004,1.329,0.004c0.471,0,0.941,0,1.563,0
		c-0.187,0.511-0.278,0.934-0.482,1.293c-0.939,1.662-2.304,2.902-3.941,3.859c-0.514,0.3-1.018,0.619-1.586,0.966
		c0.937,0.604,2.134,0.596,2.725,1.687c-0.162,0.125-0.299,0.316-0.461,0.341c-1.996,0.311-3.678,1.313-5.32,2.397
		c-1.21,0.8-2.402,1.629-3.675,2.494c-0.562-0.696-0.713-1.647-1.102-2.478C49.653,47.415,49.381,46.502,49.035,45.565z"/>
	<path style="fill-rule:evenodd;clip-rule:evenodd;fill:#F0AB23;" d="M31.564,38.581c0.335,0,0.524,0,0.764,0
		c0,1.182,0,2.317,0,3.521c-0.194,0.027-0.406,0.058-0.674,0.095c-0.169-0.643-0.068-1.247-0.086-1.841
		C31.551,39.789,31.564,39.221,31.564,38.581z"/>
</g>
</svg>
