<?xml version="1.0" encoding="iso-8859-1"?>
<!-- Generator: Adobe Illustrator 16.0.0, SVG Export Plug-In . SVG Version: 6.00 Build 0)  -->
<!DOCTYPE svg PUBLIC "-//W3C//DTD SVG 1.1//EN" "http://www.w3.org/Graphics/SVG/1.1/DTD/svg11.dtd">
<svg version="1.1" id="Layer_1" xmlns="http://www.w3.org/2000/svg" xmlns:xlink="http://www.w3.org/1999/xlink" x="0px" y="0px"
	 width="64px" height="64px" viewBox="0 0 64 64" style="enable-background:new 0 0 64 64;" xml:space="preserve">
<g>
	<path style="fill-rule:evenodd;clip-rule:evenodd;fill:#FFFFFF;" d="M49.256,54.159c-3.876,5.208-9.929,7.173-15.729,9.527
		c-1.396,0.567-2.717,0.288-4.285-0.223c-3.094-1.005-6.096-2.156-9.003-3.544c-2.913-1.391-4.72-3.598-5.366-5.159
		c-1.301-3.144-2.429-6.32-3.386-9.616c-1.505-5.182-0.989-10.302-0.638-15.31c0.359-5.093,2.335-10.231,5.252-14.458
		c2.447-3.547,4.334-7.688,7.998-10.324C26.746,3.148,29.097,0.71,32.691,0c5.841,4.034,10.885,8.786,14.701,14.961
		c3.621,5.862,5.156,12.438,5.986,18.92C54.259,40.75,51.051,47.392,49.256,54.159z M31.688,2.87
		c-6.074,5.071-9.421,12.718-11.783,19.285c1.75-0.174,2.666,0.417,4.464-0.517c4.515-2.343,9.427-2.222,13.96-0.363
		c1.746,0.717,3.09,0.661,5.145,0.946C41.652,14.131,37.321,8.326,31.688,2.87z M35.596,53.203c3.594,1.174,6.655-0.211,9.8-1.108
		c1.243-2.224,2.759-4.206,1.614-6.651c-1.527,1.038-3.032,2.062-4.537,3.085c-0.476,0.323-1.102,3.098-1.102,3.098
		s-1.25-1.5-1.715-1.184C38.318,51.353,36.97,52.27,35.596,53.203z M15.896,44.695c-0.066,5.143,2.635,7.294,6.162,8.933
		c2.063-0.226,4.266,0.282,6.58-0.376c-1.789-1.133-3.277-2.077-4.676-2.963c-0.59,0.521-0.951,0.842-1.526,1.351
		c-0.177-1.153-0.325-2.112-0.465-3.015c-1.282-0.53-2.53-0.917-3.638-1.551C17.605,46.655,17.082,45.879,15.896,44.695z"/>
</g>
</svg>
