<?xml version="1.0" encoding="iso-8859-1"?>
<!-- Generator: Adobe Illustrator 16.0.0, SVG Export Plug-In . SVG Version: 6.00 Build 0)  -->
<!DOCTYPE svg PUBLIC "-//W3C//DTD SVG 1.1//EN" "http://www.w3.org/Graphics/SVG/1.1/DTD/svg11.dtd">
<svg version="1.1" id="Layer_1" xmlns="http://www.w3.org/2000/svg" xmlns:xlink="http://www.w3.org/1999/xlink" x="0px" y="0px"
	 width="64px" height="64px" viewBox="0 0 64 64" style="enable-background:new 0 0 64 64;" xml:space="preserve">
<g>
	<g>
		<g>
			<linearGradient id="SVGID_2_" gradientUnits="userSpaceOnUse" x1="32.0005" y1="63.875" x2="32.0005" y2="0.5507">
				<stop  offset="0" style="stop-color:#6EBD44"/>
				<stop  offset="1" style="stop-color:#9DCB3B"/>
			</linearGradient>
			<path style="fill:url(#SVGID_2_);" d="M32.085,7.754C31.504,7.562,9.152,0.474,8.611,0.203c-0.543-0.272-1.24-0.389-1.317,0.426
				C7.216,1.441,2.025,48.965,1.948,49.624c-0.077,0.658-0.271,0.891,0.503,1.163c0.774,0.269,12.9,3.058,13.558,3.252
				c0.658,0.193,0.775,0.039,0.813-0.505c0.039-0.542,1.163-21.069,1.163-21.458c0-0.386,0.194-0.54,0.697-0.386
				c0.503,0.155,8.368,2.402,8.909,2.556c0.542,0.155,0.698,0.311,0.736-0.387c0.038-0.698,0.194-6.739,0.155-7.476
				c-0.039-0.735,0-0.813-0.697-1.007c-0.697-0.192-8.445-2.401-8.832-2.517c-0.387-0.115-0.465-0.155-0.387-0.775
				c0.077-0.618,0.309-6.893,0.387-7.436c0.077-0.542,0.077-0.619,0.774-0.387c0.698,0.232,11.389,3.484,11.97,3.717
				c0.582,0.234,0.851,0.038,0.832-0.659c-0.018-0.696-0.018-8.829-0.018-8.829C32.511,8.064,32.666,7.948,32.085,7.754z
				 M62.067,57.059c-0.186-2.905-0.697-7.631-1.202-13.478c-0.502-5.849-3.563-6.042-3.563-6.042c1.239,0.116,2.44-0.27,2.324-2.71
				c-0.116-2.441-0.813-8.521-1.278-13.441c-0.465-4.92-3.951-6.545-6.741-7.399C48.819,13.139,36.269,9.111,35.3,8.8
				c-0.968-0.309-0.853,0.078-0.853,0.892c0,0.813-0.038,7.628,0,8.443c0.039,0.813,0.155,0.696,0.776,0.891
				c0.62,0.193,11.079,3.37,11.969,3.64c0.891,0.272,0.93,0.35,1.006,1.085c0.079,0.735,0.311,5.733,0.311,6.779
				c0,1.046-0.658,0.891-1.355,0.736c-0.697-0.156-6.973-2.016-7.826-2.209c-0.852-0.194-0.812-0.077-0.773,0.271
				c0.039,0.349-0.079,6.314,0,7.476c0.076,1.162,0.852,1.083,1.316,1.199c0.465,0.116,6.431,1.783,7.863,2.17
				c1.434,0.388,1.395,0.968,1.472,1.741c0,0,0.504,6.429,0.542,7.786c0.04,1.356-0.773,1.24-1.467,1.045
				c-0.692-0.192-11.78-3.175-12.71-3.446c-0.929-0.271-0.929-0.311-0.929,0.542c0,0.854,0,9.297,0,10.072
				c0,0.772,0.077,0.62,0.852,0.813c0.775,0.191,13.287,3.445,20.144,4.997C62.493,65.271,62.253,59.964,62.067,57.059z"/>
		</g>
	</g>
	<g>
		<g>
			<path style="fill:#FFFFFF;" d="M32.232,57.354c0.003-0.503-0.043-9.682-0.004-10.225c0.038-0.542-0.195-0.658-0.581-0.736
				c0,0-11.157-2.982-11.583-3.099c-0.426-0.114-0.619,0.04-0.659,0.62c-0.038,0.581-0.426,9.528-0.426,10.11
				c0,0.581,0.349,0.773,0.659,0.851c0.311,0.077,11.234,2.905,12.009,3.059C32.422,58.091,32.228,57.859,32.232,57.354z"/>
		</g>
	</g>
</g>
</svg>
