<?xml version="1.0" encoding="iso-8859-1"?>
<!-- Generator: Adobe Illustrator 16.0.0, SVG Export Plug-In . SVG Version: 6.00 Build 0)  -->
<!DOCTYPE svg PUBLIC "-//W3C//DTD SVG 1.1//EN" "http://www.w3.org/Graphics/SVG/1.1/DTD/svg11.dtd">
<svg version="1.1" id="Layer_1" xmlns="http://www.w3.org/2000/svg" xmlns:xlink="http://www.w3.org/1999/xlink" x="0px" y="0px"
	 width="64px" height="64px" viewBox="0 0 64 64" style="enable-background:new 0 0 64 64;" xml:space="preserve">
<g>
	<path style="fill-rule:evenodd;clip-rule:evenodd;fill:#535757;" d="M11.575,58.038c-1.249,0.001-2.498,0.003-3.746,0.004
		c-0.368-0.341-0.821-0.402-1.294-0.394c-0.541,0.009-1.08-0.034-1.619-0.058c-0.618,0.092-1.237,0.026-1.855,0.025
		c-0.423,0.06-0.853,0.004-1.275,0.085c-0.569,0.075-1.112,0.368-1.71,0.213c1.37-1.843,2.74-3.687,4.11-5.53
		c0.674,0.041,1.137-0.281,1.46-0.846c0.762-1.335,1.861-1.849,3.432-1.736c1.919,0.137,3.856,0.026,5.785,0.038
		c0.411,0.002,0.837-0.058,1.224,0.16c0.295,0.271,0.198,0.553,0.024,0.841c-0.243,0.402-0.542,0.764-0.809,1.147
		c-0.334,0.619-0.771,1.164-1.239,1.685c-0.274,0.599-0.692,1.094-1.127,1.578c-0.146,0.246-0.263,0.516-0.45,0.727
		C11.959,56.57,11.588,57.222,11.575,58.038z"/>
	<path style="fill-rule:evenodd;clip-rule:evenodd;fill:#535757;" d="M56.536,58.043c-1.339-0.003-2.678-0.006-4.017-0.009
		c0.047-1.331-1.132-2.034-1.591-3.105c-0.704-0.816-1.312-1.702-1.932-2.581c-0.273-0.368-0.563-0.72-0.802-1.112
		c-0.207-0.339-0.261-0.659,0.058-0.963c0.153-0.119,0.331-0.135,0.517-0.134c2.419,0.014,4.839-0.006,7.259,0.011
		c0.288,0.002,0.569,0.051,0.848,0.106c0.653-0.04,0.952,0.447,1.244,0.894c0.293,0.448,0.627,0.56,1.088,0.292
		c1.597,2.152,3.194,4.304,4.792,6.457c-0.026,0.039-0.061,0.067-0.104,0.085c-0.57-0.019-1.119-0.202-1.689-0.213
		c-0.402-0.115-0.823-0.102-1.23-0.183c-0.565,0.017-1.129,0.103-1.692-0.008c-0.618,0.015-1.233,0.084-1.853,0.083
		C57.082,57.661,56.773,57.77,56.536,58.043z"/>
	<path style="fill-rule:evenodd;clip-rule:evenodd;fill:#656767;" d="M16.166,50.206c-2.662,0-5.325,0.026-7.986-0.019
		c-0.778-0.013-1.287,0.288-1.708,0.876c-0.334,0.466-0.68,0.924-1.027,1.381c-0.567,0.746-0.786,0.734-1.26-0.062
		c1.111-1.606,2.266-3.179,3.483-4.707c0.761,0.333,1.563,0.283,2.367,0.276c2.059-0.018,4.118-0.018,6.176,0.002
		c0.407,0.004,0.844-0.064,1.19,0.256c0.387,0.514,0.054,0.894-0.226,1.302c-0.18,0.262-0.443,0.421-0.655,0.639
		C16.412,50.227,16.296,50.263,16.166,50.206z"/>
	<path style="fill-rule:evenodd;clip-rule:evenodd;fill:#DDDCDD;" d="M46.497,34.256c0.576,0.563,0.963,1.266,1.423,1.915
		c0.12,0.716,0.293,1.408,0.738,2.011c0.236,0.321,0.265,0.671-0.107,0.951c-0.244,0.118-0.508,0.119-0.767,0.122
		c-2.322,0.023-4.644,0.017-6.965,0.006c-0.315-0.002-0.621-0.078-0.931-0.112c-0.804-0.162-1.568-1.152-1.583-2.045
		c0.235-0.523,0.723-0.451,1.154-0.456c1.858-0.024,3.717-0.007,5.576-0.011c0.184,0,0.367,0.007,0.55-0.005
		c0.668-0.043,0.758-0.2,0.425-0.752c-0.081-0.134-0.192-0.249-0.225-0.409c-0.006-0.085-0.008-0.17-0.005-0.256
		C45.785,34.72,46.044,34.416,46.497,34.256z"/>
	<path style="fill-rule:evenodd;clip-rule:evenodd;fill:#787978;" d="M17.425,48.477c-0.316-0.153-0.655-0.158-0.996-0.157
		c-2.272,0.001-4.544,0-6.816,0.003c-0.234,0-0.484-0.018-0.699,0.054c-0.691,0.23-1.112,0.036-1.245-0.7
		c0.684-1.03,1.41-2.03,2.202-2.98c0.487,0.179,0.371,0.669,0.527,1.018c0.121,0.249-0.035,0.524,0.083,0.772
		c0.153,0.235,0.369,0.128,0.571,0.116c2.065-0.122,4.133-0.066,6.2-0.058c0.465,0.001,0.965-0.032,1.235,0.49
		c0.073,0.179,0.059,0.353-0.031,0.521C18.229,47.993,18.15,48.596,17.425,48.477z"/>
	<path style="fill-rule:evenodd;clip-rule:evenodd;fill:#D1D0D0;" d="M37.69,41.857c0.417,0.357,0.559,0.909,0.92,1.306
		c0.239,0.409,0.058,0.719-0.308,0.859c-0.283,0.108-0.438,0.333-0.666,0.483c-0.292,0.162-0.611,0.119-0.922,0.12
		c-1.333,0.005-2.668,0.036-4-0.007c-1.417-0.046-2.815,0.104-4.214,0.285c-0.399,0.014-0.797,0.022-1.196,0.046
		c-1.116-0.358-1.157-0.404-1.176-1.302c0.026-0.463,0.254-0.753,0.718-0.842c3.131-0.091,6.263-0.041,9.396-0.036
		C36.983,42.771,37.229,42.19,37.69,41.857z"/>
	<path style="fill-rule:evenodd;clip-rule:evenodd;fill:#DFDFE0;" d="M37.69,41.857c-0.025,1.213-0.025,1.256-1.153,1.265
		c-3.028,0.025-6.056,0.013-9.084,0.005c-0.201,0-0.403-0.08-0.604-0.122c-0.134-0.723,0.175-1.153,1.036-1.447
		c2.685-0.135,5.372,0.018,8.054-0.094c0.43-0.075,0.408-0.776,0.954-0.693C37.213,41.093,37.479,41.456,37.69,41.857z"/>
	<path style="fill-rule:evenodd;clip-rule:evenodd;fill:#7A7A7A;" d="M53.868,44.213c0.753,0.897,1.438,1.845,2.085,2.821
		c0.003,1.178-0.122,1.316-1.348,1.335c-2.657,0.042-5.314-0.027-7.97,0.036c-0.346,0.101-0.552-0.077-0.708-0.354
		c-0.213-0.345-0.57-0.651-0.317-1.128c0.297-0.451,0.775-0.375,1.205-0.38c1.931-0.024,3.862,0.001,5.792-0.018
		c0.333-0.003,0.771,0.141,0.891-0.387c0.003-0.289-0.268-0.517-0.179-0.822C53.474,44.935,53.299,44.389,53.868,44.213z"/>
	<path style="fill-rule:evenodd;clip-rule:evenodd;fill:#D8D7D8;" d="M15.795,36.675c0.343-0.545,0.705-1.076,1.15-1.546
		c0.499,0.192,0.208,0.896,0.708,1.086c0.321,0.3,0.724,0.257,1.11,0.259c1.976,0.011,3.951-0.011,5.927,0.015
		c0.403,0.005,0.851-0.069,1.139,0.347c0.093,0.185,0.079,0.367-0.019,0.546c-0.263,0.495-0.448,1.077-1.179,1.046
		c-2.622,0.112-5.244,0.045-7.866,0.039c-0.231,0-0.469-0.007-0.685-0.116C15.402,37.892,15.777,37.253,15.795,36.675z"/>
	<path style="fill-rule:evenodd;clip-rule:evenodd;fill:#919191;" d="M40.341,18.981c0.421,0.256,0.842,0.511,1.263,0.767
		c0.266,0.426,0.067,0.706-0.292,0.937c-0.431,0.162-0.744-0.103-1.078-0.296c-0.23-0.273-0.543-0.269-0.862-0.269
		c-4.941,0.003-9.882,0.001-14.824,0c-0.317,0-0.623,0.068-0.933,0.112c-0.101,0-0.196-0.023-0.286-0.067
		c-0.288-0.222-0.314-0.481-0.11-0.773c0.488-0.367,0.999-0.696,1.562-0.937c0.385-0.067,0.675,0.098,0.916,0.379
		c0.285,0.265,0.641,0.183,0.971,0.184c2.792,0.009,5.584-0.17,8.375-0.06c1.534,0.061,3.071-0.026,4.602,0.114
		C39.888,19.094,40.109,19.01,40.341,18.981z"/>
	<path style="fill-rule:evenodd;clip-rule:evenodd;fill:#6B6D6D;" d="M46.467,48.336c0.238-0.375,0.62-0.329,0.982-0.33
		c2.294-0.002,4.589-0.034,6.882,0.017c0.814,0.018,1.421-0.099,1.623-0.989c0.351,0.477,0.702,0.953,1.053,1.43
		c0.151,0.335,0.175,0.672-0.126,0.926c-0.326,0.275-0.655,0.104-0.917-0.12c-0.314-0.268-0.67-0.243-1.032-0.244
		c-2.63-0.007-5.259,0.015-7.889-0.011C46.646,48.962,46.391,48.789,46.467,48.336z"/>
	<path style="fill-rule:evenodd;clip-rule:evenodd;fill:#999C9D;" d="M40.341,18.981c-0.165,0.602-0.469,0.838-1.068,0.453
		c-0.346-0.223-0.755-0.178-1.147-0.178c-3.872,0-7.744,0.002-11.616-0.003c-0.382,0-0.801,0.093-1.079-0.3
		c0.063-0.411,0.335-0.542,0.713-0.534c0.87,0.218,1.73,0.129,2.591-0.072c0.275-0.064,0.562-0.057,0.844-0.078
		c2.153-0.025,4.306-0.03,6.457,0c0.968,0.1,1.945,0.446,2.897-0.085C39.461,18.348,39.892,18.681,40.341,18.981z"/>
	<path style="fill-rule:evenodd;clip-rule:evenodd;fill:#6A6C6B;" d="M46.908,48.801c2.733-0.003,5.467-0.008,8.2-0.01
		c0.285,0,0.565-0.004,0.833,0.146c0.798,0.449,0.802,0.443,1.066-0.474c0.791,0.951,1.519,1.947,2.202,2.978
		c-0.036,0.179-0.053,0.364-0.111,0.535c-0.14,0.417-0.364,0.497-0.662,0.128c-0.427-0.528-0.85-1.06-1.275-1.589
		c-0.934-0.787-2.023-0.94-3.208-0.896c-1.557,0.06-3.118,0.009-4.677,0.018c-0.677,0.004-1.351-0.017-2.016-0.156
		C46.943,49.358,46.765,49.162,46.908,48.801z"/>
	<path style="fill-rule:evenodd;clip-rule:evenodd;fill:#DCDBDC;" d="M29.669,37.486c0.354-0.479,0.709-0.959,1.064-1.439
		c0.904-0.402,1.057-0.321,1.125,0.674c0.019,0.28,0.138,0.362,0.376,0.386c0.312,0.031,0.623,0.065,0.936,0
		c0.445,0.052,0.55,0.504,0.855,0.723c0.224,0.398,0.604,0.767,0.246,1.278c-0.085,0.102-0.186,0.207-0.315,0.217
		c-1.345,0.106-2.691,0.252-4.025-0.089C29.447,38.714,29.831,38.06,29.669,37.486z"/>
	<path style="fill-rule:evenodd;clip-rule:evenodd;fill:#969695;" d="M45.688,47.063c0.15,0.267,0.3,0.535,0.451,0.802
		c-0.145,0.478-0.541,0.445-0.917,0.45c-0.736-0.903-1.424-1.84-2.055-2.818c0.058-0.51,0.517-0.632,0.848-0.879
		c0.262-0.113,0.536-0.089,0.81-0.068c0.869,0.349,1.791,0.25,2.692,0.309c0.857,0.057,1.714,0.088,2.559,0.26
		c0.283,0.057,0.575,0.093,0.693,0.418c-0.096,0.602-0.579,0.6-1.017,0.62c-1.045,0.046-2.092,0.038-3.138,0.013
		C45.96,46.152,45.604,46.356,45.688,47.063z"/>
	<path style="fill-rule:evenodd;clip-rule:evenodd;fill:#616462;" d="M38.457,37.176c0.341,0.628,0.783,1.183,1.247,1.722
		c0.278,0.146,0.543,0.301,0.458,0.69c-0.37,0.632-0.818,0.291-1.254,0.101c-1.361-1.745-2.676-3.524-3.917-5.358
		c0.724-0.052,1.376,0.137,1.952,0.583c0.166,0.1,0.31,0.225,0.432,0.375C37.863,35.844,38.473,36.331,38.457,37.176z"/>
	<path style="fill-rule:evenodd;clip-rule:evenodd;fill:#D3D3D3;" d="M32.029,5.845c0.181-0.061,0.207-0.039,0.258,0.217
		c-0.069,0.691,0.002,1.385-0.039,2.099c0.003,0.083,0.174-0.037,0.072-0.012c-0.036,0.008-0.059-0.005-0.057-0.039
		c0.045-0.577-0.117-1.165,0.094-1.733c0.293,0.635,0.481,1.303,0.627,1.984c0.109,1.11-0.001,2.242,0.339,3.331
		c0.046,0.148-0.021,0.31-0.12,0.441c-0.713,0.37-1.416,0.415-2.101-0.069c-0.214-0.191-0.172-0.427-0.118-0.666
		c0.043-0.312,0.201-0.599,0.206-0.92c0.579-1.362,0.441-2.851,0.749-4.262C31.967,6.091,31.951,5.957,32.029,5.845z"/>
	<path style="fill-rule:evenodd;clip-rule:evenodd;fill:#A9ABAD;" d="M38.934,18.185c-0.079,0.489-0.326,0.706-0.853,0.616
		c-0.6-0.102-1.231,0.116-1.82-0.159c0.098-0.294,0.335-0.333,0.597-0.324c-0.298-0.172-0.521-0.393-0.502-0.772
		c0.533-1.235,1.246-2.347,2.234-3.272c0.083-0.026,0.166-0.031,0.25-0.017c0.659,0.24,0.269,0.815,0.393,1.226
		c-0.167,0.534-0.547,0.941-0.862,1.38c-0.325,0.453-0.462,0.793,0.196,1.038C38.705,17.952,38.812,18.088,38.934,18.185z"/>
	<path style="fill-rule:evenodd;clip-rule:evenodd;fill:#666666;" d="M33.711,54.758c-0.514,1.076-1.029,2.153-1.637,3.425
		c-0.588-1.248-1.1-2.334-1.612-3.422c0.183-0.391,0.555-0.271,0.864-0.323c0.365-0.01,0.512,0.298,0.71,0.537
		c0.297-0.199,0.429-0.58,0.821-0.578C33.17,54.453,33.539,54.374,33.711,54.758z"/>
	<path style="fill-rule:evenodd;clip-rule:evenodd;fill:#9D9D9B;" d="M18.188,47.52c0.054-0.102,0.107-0.203,0.161-0.304
		c-0.104-0.41,0.355-0.823,0.123-1.155c-0.229-0.326-0.731,0.016-1.092-0.168c-0.258-0.132-0.644-0.091-0.641-0.534
		c0.188-0.422,0.59-0.348,0.935-0.404c0.904-0.148,1.847-0.124,2.679-0.601c0.396,0.075,0.883-0.03,1.04,0.521
		c-0.731,0.998-1.462,1.995-2.194,2.992C18.793,47.949,18.359,48.116,18.188,47.52z"/>
	<path style="fill-rule:evenodd;clip-rule:evenodd;fill:#767776;" d="M38.908,39.688c0.364-0.158,0.8,0.114,1.14-0.189
		c0.298-0.115,0.5,0.041,0.657,0.259c0.51,0.706,1.116,1.344,1.496,2.141c0.212,0.299,0.521,0.57,0.279,0.997
		c-0.274,0.376-0.689,0.175-1.036,0.253C40.555,42.026,39.681,40.895,38.908,39.688z"/>
	<path style="fill-rule:evenodd;clip-rule:evenodd;fill:#C7CCCA;" d="M44.932,21.793c-1.358,0.285-2.741,0.322-4.117,0.425
		c-1.25-0.087-2.493,0.132-3.741,0.099c-0.336-0.009-0.68,0.054-1.008-0.076c-0.2-0.145-0.381-0.327-0.278-0.582
		c0.134-0.333,0.47-0.275,0.745-0.275c2.444-0.004,4.887-0.018,7.33,0.004C44.248,21.447,44.608,21.573,44.932,21.793z"/>
	<path style="fill-rule:evenodd;clip-rule:evenodd;fill:#5E6160;" d="M25.583,37.322c0.056-0.1,0.112-0.199,0.167-0.298
		c0.025-0.583,0.236-1.074,0.713-1.433c0.17-0.128,0.23-0.328,0.331-0.502c0.07-0.101,0.162-0.174,0.276-0.219
		c0.628-0.371,1.304-0.567,2.038-0.538c-0.75,1.145-1.558,2.247-2.423,3.308C26.313,37.553,25.739,38.163,25.583,37.322z"/>
	<path style="fill-rule:evenodd;clip-rule:evenodd;fill:#888B8C;" d="M36.841,22.607c0.181,1.487,0.361,2.973,0.541,4.46
		c-0.047,0.616,0.436,1.298-0.226,1.839c-0.337,0.085-0.541-0.083-0.686-0.362c-0.065-0.354-0.376-0.626-0.34-1.015
		c0.075-0.265-0.041-0.543,0.054-0.808c0.212-0.759,0.164-1.525,0.114-2.301c-0.039-0.599-0.217-1.244,0.285-1.765
		C36.66,22.594,36.746,22.578,36.841,22.607z"/>
	<path style="fill-rule:evenodd;clip-rule:evenodd;fill:#BDBFBD;" d="M28.403,44.531c0.311-0.19,0.657-0.14,0.993-0.141
		c2.4-0.004,4.8-0.003,7.201-0.003c0.365,0,0.733,0.024,1.072-0.155c0.432-0.182,0.799-0.166,1.015,0.325
		c-0.336,0.676-0.559,1.407-0.998,2.032c-0.455,0.042-0.865-0.013-1.091-0.486c-0.025-0.084-0.029-0.17-0.014-0.256
		c0.113-0.858,0.078-0.916-0.752-0.921c-2.109-0.014-4.219,0.011-6.328-0.017C29.11,44.904,28.638,45.032,28.403,44.531z"/>
	<path style="fill-rule:evenodd;clip-rule:evenodd;fill:#818181;" d="M27.357,23.018c0.009-0.299-0.105-0.459-0.436-0.468
		c-0.298-0.008-0.595-0.078-0.892-0.121c0.062-0.459,0.15-0.91,0.468-1.277c0.908-0.159,1.224-0.003,1.628,0.769
		c0.232,0.442,0.258,0.947,0.463,1.396c0.025,0.236-0.072,0.465-0.04,0.702c-0.033,0.73-0.119,1.456-0.256,2.173
		c-0.059,0.309-0.095,0.643-0.533,0.641c-0.429-0.54-0.428-1.17-0.417-1.818C27.354,24.35,27.592,23.684,27.357,23.018z"/>
	<path style="fill-rule:evenodd;clip-rule:evenodd;fill:#6B6D6C;" d="M25.583,37.322c0.3,0.34,0.848-0.183,1.103,0.317
		c-0.52,0.826-1.093,1.613-1.727,2.355c-0.45,0.284-0.896,0.52-1.268-0.108c-0.06-0.185-0.045-0.361,0.063-0.525
		c0.229-0.481,0.455-0.967,1.068-1.062C25.126,38.012,25.221,37.563,25.583,37.322z"/>
	<path style="fill-rule:evenodd;clip-rule:evenodd;fill:#E8EAE8;" d="M51.15,54.771c0.438,0.581,0.838,1.195,1.323,1.734
		c0.478,0.531,0.567,1.002,0.047,1.53c-0.053,0.028-0.106,0.055-0.159,0.083c-0.724-1.009-1.448-2.018-2.172-3.027
		C50.381,54.599,50.703,54.496,51.15,54.771z"/>
	<path style="fill-rule:evenodd;clip-rule:evenodd;fill:#7C7D7B;" d="M23.847,39.66c0.248,0.52,0.728,0.267,1.111,0.334
		c-0.554,0.886-1.184,1.718-1.843,2.528c-0.398,0.139-0.791,0.466-1.206,0.035c-0.113-0.163-0.126-0.337-0.058-0.52
		c0.304-0.846,0.949-1.466,1.457-2.178C23.433,39.684,23.613,39.58,23.847,39.66z"/>
	<path style="fill-rule:evenodd;clip-rule:evenodd;fill:#B4B3B1;" d="M18.188,47.52c0.336,0.116,0.672,0.232,1.009,0.348
		c-0.638,0.879-1.184,1.827-1.95,2.61c-0.347-0.027-0.749,0.062-0.879-0.419c0.353-0.527,0.705-1.055,1.057-1.583
		C17.68,48.158,17.934,47.839,18.188,47.52z"/>
	<path style="fill-rule:evenodd;clip-rule:evenodd;fill:#858684;" d="M41.443,43.148c0.22-0.473,0.662-0.278,1.02-0.34
		c0.447-0.106,0.62,0.203,0.788,0.519c0.298,0.49,0.977,0.808,0.706,1.556c-0.071,0.453-0.496,0.449-0.791,0.612
		C42.531,44.757,41.965,43.969,41.443,43.148z"/>
	<path style="fill-rule:evenodd;clip-rule:evenodd;fill:#6C6E6D;" d="M46.02,35.129c-0.007,0.045-0.015,0.091-0.023,0.136
		c-0.195,0.359-0.548,0.357-0.883,0.372c-0.804,0.034-1.608,0.021-2.413,0.001c-0.655-0.004-1.292-0.126-1.927-0.28
		c-0.732-0.178-0.84-0.461-0.423-1.152c0.943,0,1.885,0,2.828,0c0.395,0.498,0.935,0.55,1.524,0.563
		C45.155,34.778,45.706,34.567,46.02,35.129z"/>
	<path style="fill-rule:evenodd;clip-rule:evenodd;fill:#818181;" d="M44.932,21.793c-0.322-0.065-0.645-0.13-0.967-0.196
		c-1.438-0.269-2.892-0.085-4.337-0.144c-0.331-0.014-0.676,0.081-0.987-0.109c-0.099-0.42,0.226-0.401,0.469-0.425
		c0.416-0.039,0.836,0.006,1.249-0.063c0.288-0.174,0.737,0.083,0.933-0.346c0.104-0.254,0.209-0.509,0.313-0.764
		C42.748,20.375,43.907,20.976,44.932,21.793z"/>
	<path style="fill-rule:evenodd;clip-rule:evenodd;fill:#575B5A;" d="M17.578,34.277c1.146-0.202,2.299-0.075,3.45-0.071
		c0.35,0.299,0.526,0.624,0.159,1.034c-1.021,0.237-2.056,0.086-3.086,0.097C17.492,35.198,17.514,34.748,17.578,34.277z"/>
	<path style="fill-rule:evenodd;clip-rule:evenodd;fill:#CECFCD;" d="M51.15,54.771c-0.321,0.106-0.641,0.213-0.962,0.319
		c-0.574-0.784-1.148-1.568-1.722-2.352c0.1-0.446,0.347-0.644,0.808-0.479C49.979,53.037,50.583,53.89,51.15,54.771z"/>
	<path style="fill-rule:evenodd;clip-rule:evenodd;fill:#8B8C8A;" d="M53.868,44.213c-0.068,0.396-0.083,0.809-0.385,1.124
		c-0.555,0.137-0.719-0.343-1.004-0.634c-0.314-0.576-0.882-1.032-0.854-1.773c0.128-0.374,0.012-0.865,0.51-1.06
		C52.765,42.613,53.343,43.394,53.868,44.213z"/>
	<path style="fill-rule:evenodd;clip-rule:evenodd;fill:#DEE0DE;" d="M36.764,46.132c0.323,0.119,0.741,0.048,0.921,0.457
		c-0.291,0.771-0.657,1.505-1.087,2.208c-0.338,0.271-0.683,0.39-1.046,0.043c-0.398-0.631,0.096-1.114,0.275-1.65
		C36.039,46.749,36.098,46.171,36.764,46.132z"/>
	<path style="fill-rule:evenodd;clip-rule:evenodd;fill:#666666;" d="M33.743,38.002c-0.202-0.229-0.404-0.458-0.605-0.688
		c-0.939-0.31-1.215-1.104-1.425-1.948c0.009-0.357,0.21-0.66,0.282-1c0.405-0.046,0.451,0.338,0.613,0.548
		c0.514,0.667,0.987,1.366,1.477,2.052C34.149,37.372,34.296,37.802,33.743,38.002z"/>
	<path style="fill-rule:evenodd;clip-rule:evenodd;fill:#585C5B;" d="M46.02,35.129c-0.677-0.004-1.357-0.054-2.029,0
		c-0.742,0.059-1.002-0.209-0.813-0.923c1.107-0.015,2.215-0.11,3.319,0.05C46.338,34.547,46.179,34.838,46.02,35.129z"/>
	<path style="fill-rule:evenodd;clip-rule:evenodd;fill:#EFF1EF;" d="M11.575,58.038c-0.517-0.547-0.431-1.037,0.07-1.569
		c0.397-0.422,0.706-0.928,1.054-1.396c0.469-0.15,0.75,0.023,0.858,0.497c-0.615,0.847-1.231,1.695-1.847,2.542
		C11.669,58.08,11.624,58.055,11.575,58.038z"/>
	<path style="fill-rule:evenodd;clip-rule:evenodd;fill:#8B8C8A;" d="M21.975,42.362c0.356,0.226,0.759,0.113,1.14,0.16
		c-0.575,0.785-1.149,1.57-1.724,2.354c-0.337-0.1-0.7-0.123-0.999-0.337c-0.111-0.129-0.082-0.276-0.055-0.423
		c0.065-0.511,0.627-0.723,0.728-1.213C21.322,42.645,21.455,42.176,21.975,42.362z"/>
	<path style="fill-rule:evenodd;clip-rule:evenodd;fill:#BCBFBF;" d="M25.31,16.103c-0.476-0.732-0.952-1.464-1.427-2.196
		c-0.019-0.504-0.275-1.113,0.551-1.243c0.833,0.513,1.426,1.191,1.52,2.213C25.737,15.286,26.157,16.027,25.31,16.103z"/>
	<path style="fill-rule:evenodd;clip-rule:evenodd;fill:#BABAB8;" d="M49.274,52.259c-0.269,0.16-0.539,0.319-0.808,0.479
		c-0.577-0.787-1.154-1.574-1.731-2.36c0.132-0.514,0.567-0.45,0.944-0.496c0.353,0.077,0.516,0.292,0.475,0.654
		C48.409,51.188,49.055,51.584,49.274,52.259z"/>
	<path style="fill-rule:evenodd;clip-rule:evenodd;fill:#A9A9A7;" d="M47.712,50.053c-0.326,0.108-0.652,0.216-0.978,0.325
		c-0.549-0.656-1.068-1.333-1.514-2.063c0.178-0.41,0.593-0.338,0.917-0.45c0.109,0.157,0.219,0.314,0.329,0.472
		c0.147,0.155,0.294,0.31,0.441,0.465c0.047,0.203,0.149,0.366,0.339,0.464C47.526,49.455,47.964,49.55,47.712,50.053z"/>
	<path style="fill-rule:evenodd;clip-rule:evenodd;fill:#969795;" d="M11.266,42.809c0.533-0.822,1.102-1.619,1.742-2.362
		c0.609,0.124,0.418,0.665,0.545,1.041c-0.006,0.624-0.386,1.052-0.771,1.478c-0.237,0.436-0.451,0.899-1.06,0.898
		C11.205,43.67,11.238,43.238,11.266,42.809z"/>
	<path style="fill-rule:evenodd;clip-rule:evenodd;fill:#AAADAF;" d="M25.31,16.103c0.346-0.342,0.183-0.851,0.403-1.234
		c0.119-0.018,0.238-0.028,0.355,0.014c0.761,0.804,1.544,1.596,1.667,2.784c-0.044,0.081-0.105,0.142-0.185,0.186
		c-0.493,0.059-1.019,0.253-1.351-0.334C25.903,17.046,25.606,16.575,25.31,16.103z"/>
	<path style="fill-rule:evenodd;clip-rule:evenodd;fill:#858684;" d="M11.266,42.809c0.3,0.25,0.328,0.641,0.496,0.958
		c0.054,0.052,0.085,0.115,0.093,0.19c-0.055,0.591-0.469,0.964-0.83,1.371c-0.163,0.316-0.345,0.602-0.777,0.483
		c-0.327-0.303-0.363-0.706-0.377-1.115C10.282,44.028,10.74,43.394,11.266,42.809z"/>
	<path style="fill-rule:evenodd;clip-rule:evenodd;fill:#636764;" d="M27.776,41.711c-0.375,0.384-0.665,0.83-0.928,1.294
		c-0.158,0.202-0.316,0.405-0.475,0.607c-0.348,0.599-0.78,0.559-1.258,0.167c0.409-0.903,1.089-1.615,1.682-2.389
		c0.374-0.22,0.742-0.38,1.051,0.097C27.859,41.573,27.834,41.648,27.776,41.711z"/>
	<path style="fill-rule:evenodd;clip-rule:evenodd;fill:#7F8482;" d="M38.45,12.144c1.241-0.512,2.46-1.087,3.786-1.364
		c-0.451,0.807-1.071,1.442-1.903,1.862c-0.279,0.057-0.536,0.183-0.809,0.261c-0.401,0.171-0.796,0.534-1.216,0.033
		C38.142,12.633,38.25,12.38,38.45,12.144z"/>
	<path style="fill-rule:evenodd;clip-rule:evenodd;fill:#D0D6D2;" d="M24.479,12.82c-0.478,0.209-0.306,0.775-0.597,1.087
		c-0.715-1.059-1.43-2.118-2.171-3.215c0.365-0.08,0.521,0.116,0.712,0.227c0.525,0.325,1.079,0.601,1.594,0.942
		c0.28,0.186,0.577,0.363,0.579,0.763C24.579,12.702,24.54,12.767,24.479,12.82z"/>
	<path style="fill-rule:evenodd;clip-rule:evenodd;fill:#9C9C9A;" d="M52.136,41.87c-0.011,0.405-0.061,0.798-0.351,1.115
		c-0.062,0.049-0.132,0.07-0.211,0.068c-0.615-0.198-0.799-0.776-1.104-1.25c-0.157-0.239-0.395-0.445-0.324-0.779
		c0.103-0.403-0.034-0.939,0.584-1.056C51.258,40.558,51.72,41.197,52.136,41.87z"/>
	<path style="fill-rule:evenodd;clip-rule:evenodd;fill:#CECECD;" d="M32.008,35.445c0.118,0.78,0.847,1.189,1.129,1.869
		c-0.519,0.25-1.072,0.167-1.614,0.148c-0.349-0.013-0.443-0.187-0.271-0.523c0.428-0.836,0.419-0.841-0.52-0.892
		c0.157-0.21,0.314-0.42,0.472-0.63C31.474,35.367,31.748,35.211,32.008,35.445z"/>
	<path style="fill-rule:evenodd;clip-rule:evenodd;fill:#C4C4C2;" d="M16.368,50.059c0.315,0.093,0.658,0.129,0.879,0.419
		c-0.446,0.662-0.834,1.364-1.393,1.944c-0.425,0.07-0.77,0.011-0.831-0.51c0.272-0.643,0.755-1.143,1.143-1.707
		C16.233,50.157,16.301,50.108,16.368,50.059z"/>
	<path style="fill-rule:evenodd;clip-rule:evenodd;fill:#BCBEBF;" d="M39.556,12.652c0.217-0.088,0.435-0.176,0.652-0.264
		c0.53,0.301,0.208,0.802,0.285,1.209c-0.295,0.712-0.772,1.303-1.261,1.886c-0.426-0.253-0.18-0.786-0.458-1.101
		c-0.301-0.521,0.107-0.856,0.34-1.225C39.233,12.972,39.491,12.895,39.556,12.652z"/>
	<path style="fill-rule:evenodd;clip-rule:evenodd;fill:#D0D3D2;" d="M22.428,22.114c-0.583-0.026-1.173,0.023-1.743-0.156
		c0.334-0.462-0.415-0.491-0.34-0.849c0.291-0.268,0.635-0.446,0.994-0.601c0.334-0.167,0.622-0.012,0.913,0.128
		c0.409,0.264,1.043-0.011,1.326,0.554C23.747,22.106,23.589,22.232,22.428,22.114z"/>
	<path style="fill-rule:evenodd;clip-rule:evenodd;fill:#8F9393;" d="M27.357,23.018c0.241,0.135,0.276,0.364,0.266,0.605
		c-0.046,1.067,0.063,2.126,0.17,3.185c0.288,0.174,0.209,0.467,0.235,0.727c0.004,0.093-0.012,0.183-0.046,0.269
		c-0.125,0.259-0.26,0.505-0.61,0.474c-0.358-0.141-0.4-0.44-0.358-0.762c0.073-0.555-0.01-1.107-0.011-1.661
		C27.036,24.898,27.192,23.958,27.357,23.018z"/>
	<path style="fill-rule:evenodd;clip-rule:evenodd;fill:#757978;" d="M27.154,12.67c0.778,0.268,1.557,0.536,2.335,0.804
		c0.643,0.339,0.721,0.592,0.385,1.232c-0.458,0.211-0.847-0.018-1.244-0.195c-0.322-0.247-0.736-0.242-1.09-0.397
		c-0.307-0.134-0.639-0.252-0.736-0.636C26.73,13.126,26.899,12.879,27.154,12.67z"/>
	<path style="fill-rule:evenodd;clip-rule:evenodd;fill:#818480;" d="M33.711,54.758c-0.315,0.011-0.625-0.013-0.916-0.149
		c-0.225-0.176-0.232-0.417-0.125-0.636c0.321-0.659,0.345-1.505,1.15-1.867c0.382,0.022,0.745,0.094,0.976,0.449
		C34.434,53.29,34.072,54.024,33.711,54.758z"/>
	<path style="fill-rule:evenodd;clip-rule:evenodd;fill:#7C817F;" d="M32.029,5.845c0.067,1.629,0.228,3.27-0.621,4.78
		c-0.41,0.035-0.338-0.275-0.389-0.52c-0.087-0.417,0.126-0.823,0.026-1.237C31.3,7.837,31.636,6.832,32.029,5.845z"/>
	<path style="fill-rule:evenodd;clip-rule:evenodd;fill:#B0AFAE;" d="M50.729,39.969c-0.16,0.365-0.302,0.734-0.333,1.137
		c-0.152,0.072-0.333,0.073-0.431-0.04c-0.506-0.585-1.149-1.091-1.197-1.958c0.195-0.337-0.197-1.004,0.572-1.018
		C49.863,38.672,50.313,39.309,50.729,39.969z"/>
	<path style="fill-rule:evenodd;clip-rule:evenodd;fill:#AAAAA8;" d="M13.342,41.584c-0.111-0.379-0.223-0.758-0.334-1.137
		c0.422-0.667,0.876-1.311,1.407-1.898c0.608,0.121,0.425,0.67,0.565,1.044c-0.151,0.9-0.679,1.542-1.404,2.051
		C13.49,41.654,13.413,41.634,13.342,41.584z"/>
	<path style="fill-rule:evenodd;clip-rule:evenodd;fill:#939492;" d="M40.35,34.206c-0.105,0.718,0.224,0.965,0.92,0.931
		c0.48-0.023,0.98-0.08,1.449,0.12c-0.173,0.387-0.537,0.365-0.864,0.377c-0.903,0.034-1.808,0.045-2.71-0.02
		c-0.942-0.269-1.187-0.681-0.838-1.41C38.988,34.205,39.669,34.205,40.35,34.206z"/>
	<path style="fill-rule:evenodd;clip-rule:evenodd;fill:#BEBEBC;" d="M14.747,39.684c-0.111-0.378-0.222-0.756-0.333-1.134
		c0.413-0.659,0.86-1.294,1.381-1.875c0.313,0.441,0.268,0.93,0.192,1.424c0.225,0.609-0.362,0.863-0.561,1.287
		C15.268,39.64,15.08,39.828,14.747,39.684z"/>
	<path style="fill-rule:evenodd;clip-rule:evenodd;fill:#E1E3E2;" d="M27.442,48.647c-0.266-0.565-0.532-1.13-0.797-1.695
		c0.035-0.621,0.452-0.634,0.915-0.576c0.488,0.105,0.623,0.511,0.772,0.906c0.167,0.366,0.504,0.687,0.313,1.151
		C28.234,49.113,28.06,49.143,27.442,48.647z"/>
	<path style="fill-rule:evenodd;clip-rule:evenodd;fill:#838382;" d="M31.39,54.603c-0.282,0.216-0.613,0.141-0.928,0.158
		c-0.415-0.708-0.782-1.439-1.083-2.204c0.207-0.411,0.604-0.277,0.937-0.33C31.118,52.648,31.64,53.802,31.39,54.603z"/>
	<path style="fill-rule:evenodd;clip-rule:evenodd;fill:#C5C6C3;" d="M49.34,38.091c-0.257,0.33-0.293,0.729-0.354,1.121
		c-0.263,0.053-0.308-0.112-0.314-0.315c-0.196-0.299-0.395-0.598-0.588-0.899c-0.37-0.579-0.48-1.184-0.165-1.826
		C48.458,36.763,48.917,37.414,49.34,38.091z"/>
	<path style="fill-rule:evenodd;clip-rule:evenodd;fill:#ADB0B1;" d="M34.515,27.298c-0.526-0.427-0.962-0.939-1.391-1.458
		c0-0.777,0.625-0.576,1.058-0.677c0.7,0.36,1.33,0.78,1.419,1.663C35.403,27.361,34.924,27.249,34.515,27.298z"/>
	<path style="fill-rule:evenodd;clip-rule:evenodd;fill:#9FA4A3;" d="M27.003,25.854c0.359,0.744,0.171,1.592,0.445,2.353
		c0.236,0.158,0.259,0.397,0.159,0.616c-0.285,0.625-0.601,1.236-1.225,1.606C26.509,28.894,26.711,27.368,27.003,25.854z"/>
	<path style="fill-rule:evenodd;clip-rule:evenodd;fill:#ADAEAC;" d="M25.116,43.78c0.422-0.039,0.864,0.076,1.258-0.167
		c0.027,0.6,0.292,0.964,0.94,0.948c0.158,0.38-0.013,0.669-0.259,0.939c-0.314,0.223-0.667,0.222-1.028,0.181
		C25.653,45.081,25.335,44.454,25.116,43.78z"/>
	<path style="fill-rule:evenodd;clip-rule:evenodd;fill:#8D9290;" d="M34.185,25.403c-0.363,0.123-0.798,0.07-1.062,0.437
		c-0.32-0.319-0.641-0.639-0.961-0.958c-0.364-0.687-0.276-0.887,0.498-1.139C33.59,23.895,34.303,24.671,34.185,25.403z"/>
	<path style="fill-rule:evenodd;clip-rule:evenodd;fill:#979D9B;" d="M38.45,12.144c0.005,0.283,0.01,0.566,0.015,0.849
		c-0.287,0.721-1.182,1.083-2.195,0.888c-0.317-0.301-0.267-0.603-0.004-0.906C36.967,12.627,37.697,12.354,38.45,12.144z"/>
	<path style="fill-rule:evenodd;clip-rule:evenodd;fill:#DFE1DF;" d="M13.557,55.569c-0.286-0.166-0.572-0.331-0.858-0.497
		c0.385-0.521,0.77-1.041,1.154-1.561c0.479-0.26,0.797-0.175,0.879,0.413C14.39,54.507,14.013,55.066,13.557,55.569z"/>
	<path style="fill-rule:evenodd;clip-rule:evenodd;fill:#CDD0D0;" d="M34.515,27.298c0.202-0.379,0.634-0.316,0.941-0.492
		c0.714-0.199,0.732,0.433,0.964,0.809c0.101,0.251,0.202,0.503,0.303,0.754c-0.25,0.28-0.575,0.333-0.926,0.306
		C35.369,28.217,34.942,27.757,34.515,27.298z"/>
	<path style="fill-rule:evenodd;clip-rule:evenodd;fill:#7D8181;" d="M33.916,11.222c0.27,0.755,0.539,1.51,0.808,2.265
		c0.284,0.599-0.221,0.839-0.531,1.169c-0.51,0.061-0.568-0.343-0.697-0.676c-0.115-0.299-0.278-0.586-0.228-0.926
		c0.144-0.383,0.282-0.764,0.251-1.188C33.498,11.567,33.562,11.3,33.916,11.222z"/>
	<path style="fill-rule:evenodd;clip-rule:evenodd;fill:#D2D7D4;" d="M40.493,13.597c-0.336-0.347-0.305-0.779-0.285-1.209
		c0.676-0.536,1.352-1.072,2.028-1.608c0.133,0.016,0.191,0.097,0.114,0.205C41.73,11.854,41.211,12.797,40.493,13.597z"/>
	<path style="fill-rule:evenodd;clip-rule:evenodd;fill:#8D9192;" d="M27.154,12.67c0.01,0.276-0.038,0.542-0.164,0.79
		c-0.66,0.348-1.662,0.008-2.24-0.759c-0.083-0.359-0.051-0.668,0.356-0.813C25.822,12.062,26.481,12.382,27.154,12.67z"/>
	<path style="fill-rule:evenodd;clip-rule:evenodd;fill:#D1D2D1;" d="M14.732,53.924c-0.293-0.138-0.586-0.275-0.879-0.413
		c0.39-0.533,0.78-1.066,1.17-1.599c0.277,0.17,0.554,0.34,0.831,0.51C15.521,52.954,15.187,53.484,14.732,53.924z"/>
	<path style="fill-rule:evenodd;clip-rule:evenodd;fill:#888987;" d="M33.743,38.002c0.114-0.345,0.228-0.689,0.341-1.035
		c0.471,0.544,0.916,1.109,1.279,1.732c0.027,0.402,0.076,0.814-0.452,0.956c-0.512-0.023-0.703-0.309-0.648-0.795
		C34.09,38.575,33.917,38.289,33.743,38.002z"/>
	<path style="fill-rule:evenodd;clip-rule:evenodd;fill:#B4B7B8;" d="M22.428,22.114c0.679,0.029,1.088-0.207,0.957-0.973
		c0.177-0.319,0.461-0.343,0.776-0.285c0.196,0.043,0.399,0.05,0.59,0.121c0.443,0.153,0.756,0.443,0.609,0.926
		c-0.193,0.635-0.736,0.4-1.181,0.368C23.594,22.243,23,22.294,22.428,22.114z"/>
	<path style="fill-rule:evenodd;clip-rule:evenodd;fill:#777A7A;" d="M26.2,17.519c0.466,0.062,0.934,0.125,1.4,0.187
		c0.058,0.833-0.7,0.663-1.119,0.91c-0.144,0-0.287,0.109-0.433,0.008c-0.206,0.11-0.412,0.22-0.617,0.33
		c-0.216-0.166-0.433-0.333-0.649-0.499C25.255,18.143,25.727,17.831,26.2,17.519z"/>
	<path style="fill-rule:evenodd;clip-rule:evenodd;fill:#696B6A;" d="M21.177,35.113c-0.05-0.302-0.1-0.604-0.149-0.907
		c0.681,0,1.361,0,2.042,0c0.319,0.263,0.348,0.573,0.152,0.921c-0.06,0.081-0.137,0.14-0.229,0.178
		C22.379,35.315,21.742,35.561,21.177,35.113z"/>
	<path style="fill-rule:evenodd;clip-rule:evenodd;fill:#A0A19F;" d="M30.323,52.384c-0.284,0.228-0.621,0.163-0.945,0.173
		c-0.259-0.525-0.518-1.05-0.777-1.575c0.172-0.482,0.587-0.449,0.98-0.463C30.271,50.954,30.568,51.701,30.323,52.384z"/>
	<path style="fill-rule:evenodd;clip-rule:evenodd;fill:#E8ECE9;" d="M26.383,30.429c0.433-0.704,0.82-1.429,1.065-2.223
		c0.113-0.154,0.227-0.308,0.34-0.462c0.817,0.065,0.621,0.564,0.45,1.052c-0.531,0.593-1.058,1.191-1.595,1.778
		C26.389,30.854,26.311,30.763,26.383,30.429z"/>
	<path style="fill-rule:evenodd;clip-rule:evenodd;fill:#A5A9A9;" d="M29.795,14.587c0.224-0.46-0.242-0.731-0.306-1.113
		c0.207-0.593,0.413-1.185,0.619-1.778c0.396-0.061,0.494,0.21,0.494,0.503c0,0.375,0.177,0.683,0.298,1.015
		c0.1,0.344-0.166,0.607-0.205,0.921C30.523,14.542,30.431,15.107,29.795,14.587z"/>
	<path style="fill-rule:evenodd;clip-rule:evenodd;fill:#939698;" d="M30.59,13.28c-0.319-0.479-0.158-1.105-0.482-1.584
		c0.182-0.566,0.364-1.132,0.546-1.699c0.374-0.066,0.362,0.202,0.442,0.451c0.103,0.317-0.092,0.656,0.111,0.951
		c-0.03,0.161-0.061,0.321-0.091,0.481C31.383,12.617,31.266,12.93,30.59,13.28z"/>
	<path style="fill-rule:evenodd;clip-rule:evenodd;fill:#AAADAE;" d="M34.209,14.519c0.171-0.344,0.343-0.688,0.515-1.031
		c0.514-0.171,1.028-0.343,1.542-0.514c0.007,0.271-0.029,0.551,0.159,0.786c0.074,0.337-0.218,0.44-0.394,0.619
		c-0.347,0.171-0.711,0.288-1.086,0.375C34.654,14.821,34.381,14.825,34.209,14.519z"/>
	<path style="fill-rule:evenodd;clip-rule:evenodd;fill:#959899;" d="M24.18,22.271c0.312-0.108,0.775,0.123,0.904-0.394
		c0.097-0.392-0.188-0.552-0.457-0.716c0.665-0.399,1.277-0.129,1.89,0.146c-0.046,0.425,0.219,0.986-0.488,1.123
		C25.411,22.406,24.786,22.449,24.18,22.271z"/>
	<path style="fill-rule:evenodd;clip-rule:evenodd;fill:#CFD2D1;" d="M28.238,28.796c-0.213-0.323-0.035-0.814-0.45-1.052
		c0.005-0.04,0.004-0.079-0.003-0.119c0.301-0.504,0.358-1.292,1.269-1.091c0.565,0.353,0.337,0.814,0.172,1.267
		C28.925,28.161,28.662,28.558,28.238,28.796z"/>
	<path style="fill-rule:evenodd;clip-rule:evenodd;fill:#A0A7A4;" d="M25.106,11.889c-0.06,0.272-0.119,0.543-0.179,0.815
		c-0.165,0.101-0.312,0.081-0.44-0.064c-0.723-0.532-1.478-1.024-2.063-1.721C23.376,11.081,24.227,11.524,25.106,11.889z"/>
	<path style="fill-rule:evenodd;clip-rule:evenodd;fill:#828481;" d="M27.787,41.571c-0.33-0.06-0.66-0.12-0.99-0.18
		c0.307-0.569,0.721-1.058,1.145-1.541c0.429-0.109,0.784-0.051,0.956,0.423C28.766,41.173,28.478,41.508,27.787,41.571z"/>
	<path style="fill-rule:evenodd;clip-rule:evenodd;fill:#949493;" d="M24.643,34.206c0.471,0,0.943,0,1.414,0
		c0.379,0.688,0.285,0.905-0.599,1.385c-0.791,0.025-1.597,0.24-2.352-0.188c-0.073-0.084-0.084-0.177-0.035-0.277l0,0
		C23.483,34.626,24.288,34.8,24.643,34.206z"/>
	<path style="fill-rule:evenodd;clip-rule:evenodd;fill:#9E9E9C;" d="M34.795,52.555c-0.328-0.028-0.717,0.117-0.899-0.32
		c-0.263-0.698-0.075-1.116,0.667-1.477c0.348-0.08,0.693-0.148,0.925,0.232C35.386,51.569,35.034,52.037,34.795,52.555z"/>
	<path style="fill-rule:evenodd;clip-rule:evenodd;fill:#ADACAA;" d="M38.307,34.205c0.007,0.548,0.255,0.915,0.797,1.061
		c-0.576,0.679-1.258,0.275-1.91,0.187c-0.106-0.104-0.212-0.207-0.318-0.311c-0.089-0.314-0.266-0.632,0.022-0.938
		C37.368,34.204,37.837,34.204,38.307,34.205z"/>
	<path style="fill-rule:evenodd;clip-rule:evenodd;fill:#E1E9E1;" d="M35.796,28.676c0.206-0.414,0.559-0.382,0.926-0.306
		c0.062,0.192,0.143,0.372,0.319,0.489c0.669,0.437,0.725,1.099,0.659,1.804C37.066,30.001,36.431,29.338,35.796,28.676z"/>
	<path style="fill-rule:evenodd;clip-rule:evenodd;fill:#B1B3B5;" d="M29.227,27.801c-0.045-0.415-0.075-0.833-0.363-1.173
		c0.005-0.834,0.509-1.271,1.319-1.146c0.508,0.46,0.134,0.899-0.031,1.344C29.883,27.189,29.588,27.527,29.227,27.801z"/>
	<path style="fill-rule:evenodd;clip-rule:evenodd;fill:#E5EAE6;" d="M20.345,21.108c0.21,0.111,0.424,0.174,0.668,0.116
		c0.286-0.068,0.623-0.128,0.659,0.282c0.035,0.405-0.319,0.391-0.604,0.413c-0.128,0.009-0.256,0.025-0.384,0.039
		c-0.468,0-0.936,0-1.542,0C19.511,21.445,19.95,21.308,20.345,21.108z"/>
	<path style="fill-rule:evenodd;clip-rule:evenodd;fill:#DFE6E0;" d="M36.841,22.607c-0.029-0.023-0.063-0.033-0.1-0.031
		c-0.383,0.044-0.562-0.102-0.468-0.502c1.29,0.002,2.58,0.004,3.869,0.005c0.234,0,0.466,0.007,0.673,0.139
		C39.49,22.348,38.166,22.478,36.841,22.607z"/>
	<path style="fill-rule:evenodd;clip-rule:evenodd;fill:#C7C8C7;" d="M26.027,45.681c0.228-0.369,0.59-0.353,0.954-0.332
		c0.286-0.023,0.455,0.125,0.553,0.378c0.078,0.287,0.4,0.556,0.064,0.874c-0.354,0.019-0.683,0.104-0.953,0.351
		C26.367,46.563,26.174,46.133,26.027,45.681z"/>
	<path style="fill-rule:evenodd;clip-rule:evenodd;fill:#969C99;" d="M33.916,11.222c-0.291,0.606-0.063,1.301-0.325,1.913
		c-0.616-0.147-0.649-0.545-0.449-1.043c0.121-0.495-0.073-0.974-0.069-1.461c0.003-0.443-0.219-0.938,0.232-1.306
		C33.593,9.93,33.774,10.57,33.916,11.222z"/>
	<path style="fill-rule:evenodd;clip-rule:evenodd;fill:#7D7E7C;" d="M24.643,34.206c-0.042,0.933-0.042,0.933-1.572,0.919
		c0-0.306-0.001-0.613-0.001-0.919C23.594,34.206,24.119,34.206,24.643,34.206z"/>
	<path style="fill-rule:evenodd;clip-rule:evenodd;fill:#9B9D9A;" d="M28.721,40.299c-0.259-0.149-0.52-0.299-0.779-0.449
		c0.263-0.458,0.557-0.892,0.933-1.266c0.368,0.012,0.77-0.044,0.909,0.441C29.729,39.882,29.445,40.222,28.721,40.299z"/>
	<path style="fill-rule:evenodd;clip-rule:evenodd;fill:#A8AAA7;" d="M34.846,39.526c0.172-0.275,0.345-0.551,0.517-0.826
		c0.285,0.379,0.57,0.759,0.855,1.138c-0.084,0.376,0.215,0.897-0.402,1.076C35.025,40.718,34.706,40.262,34.846,39.526z"/>
	<path style="fill-rule:evenodd;clip-rule:evenodd;fill:#ADADAB;" d="M25.417,35.267c0.498-0.182,0.708-0.538,0.64-1.062
		c0.419,0,0.838,0,1.257-0.001c0.34,0.385-0.059,0.655-0.152,0.972c-0.048,0.036-0.096,0.072-0.144,0.107
		C26.482,35.564,25.945,35.885,25.417,35.267z"/>
	<path style="fill-rule:evenodd;clip-rule:evenodd;fill:#BABCB8;" d="M29.65,39.011c-0.241-0.175-0.652-0.041-0.776-0.427
		c0.265-0.366,0.53-0.732,0.794-1.098c0.972,0.361,0.522,0.901,0.18,1.428C29.827,39.038,29.787,39.123,29.65,39.011z"/>
	<path style="fill-rule:evenodd;clip-rule:evenodd;fill:#828785;" d="M31.699,25.203c-0.223,0.294-0.435,0.602-0.78,0.774
		c-0.653-0.207-0.303-0.823-0.5-1.217c-0.001-0.563,0.452-0.721,0.837-0.939c0.093-0.012,0.184,0,0.271,0.032
		C32.037,24.244,31.922,24.716,31.699,25.203z"/>
	<path style="fill-rule:evenodd;clip-rule:evenodd;fill:#B2B3B1;" d="M35.488,50.99c-0.339,0-0.679-0.001-1.018-0.002
		c-0.417-0.45,0-0.785,0.16-1.155c0.082-0.246,0.192-0.466,0.483-0.52c0.387,0.081,0.752,0.2,0.967,0.574
		C35.958,50.295,35.757,50.661,35.488,50.99z"/>
	<path style="fill-rule:evenodd;clip-rule:evenodd;fill:#B1B6B4;" d="M22.023,20.942c-0.326,0.009-0.405-0.37-0.684-0.435
		c0.596-0.424,1.207-0.822,1.881-1.116c0.052,0.209,0.103,0.418,0.155,0.628c0.021,0.479-0.265,0.69-0.689,0.757
		C22.458,20.813,22.23,20.833,22.023,20.942z"/>
	<path style="fill-rule:evenodd;clip-rule:evenodd;fill:#E6E8E6;" d="M17.578,34.277c0.153,0.283,0.306,0.566,0.459,0.849
		c0.057,0.055,0.101,0.12,0.13,0.194c-0.042,0.581-0.322,0.953-0.917,1.049c-0.277-0.371-0.314-0.8-0.305-1.241
		C17.105,34.807,17.296,34.508,17.578,34.277z"/>
	<path style="fill-rule:evenodd;clip-rule:evenodd;fill:#B7BAB7;" d="M29.515,50.669c-0.269,0.207-0.607,0.215-0.913,0.314
		c-0.207-0.418-0.413-0.837-0.62-1.256c0.253-0.438,0.643-0.278,1.006-0.23c0.094,0.008,0.181,0.036,0.262,0.084
		C29.526,49.897,29.82,50.21,29.515,50.669z"/>
	<path style="fill-rule:evenodd;clip-rule:evenodd;fill:#676969;" d="M31.699,25.203c-0.155-0.4-0.067-0.861-0.303-1.241
		c0.007-0.6,0.307-0.98,0.766-0.884c0.458,0.095,0.865,0.306,0.642,0.916c-0.664-0.028-0.61,0.461-0.641,0.889
		C32.008,24.989,31.854,25.096,31.699,25.203z"/>
	<path style="fill-rule:evenodd;clip-rule:evenodd;fill:#B0B5B3;" d="M33.305,9.324c-0.011,0.957-0.022,1.914-0.033,2.872
		c-0.13,0.022-0.186-0.029-0.159-0.162c-0.229-1.218-0.472-2.436-0.128-3.674C33.184,8.651,33.257,8.984,33.305,9.324z"/>
	<path style="fill-rule:evenodd;clip-rule:evenodd;fill:#C5C6C4;" d="M36.08,49.887c-0.358-0.041-0.837,0.159-0.908-0.455
		c-0.303-0.37-0.116-0.624,0.2-0.847c0.085-0.029,0.167-0.022,0.247,0.02c0.291,0.246,0.646,0.167,0.979,0.193
		C36.508,49.199,36.29,49.541,36.08,49.887z"/>
	<path style="fill-rule:evenodd;clip-rule:evenodd;fill:#CCCFCC;" d="M29.059,49.729c-0.359,0-0.718-0.001-1.077-0.001
		c-0.18-0.36-0.36-0.72-0.54-1.08c0.411,0.15,0.779,0.174,0.969-0.329c0.339-0.094,0.417,0.17,0.531,0.386
		C29.137,49.028,29.33,49.352,29.059,49.729z"/>
	<path style="fill-rule:evenodd;clip-rule:evenodd;fill:#C4C6C3;" d="M35.788,40.785c0.273-0.256,0.021-0.752,0.43-0.947
		c0.225,0.311,0.45,0.622,0.674,0.934c-0.316,0.175,0.095,0.924-0.62,0.785C35.776,41.51,35.606,41.258,35.788,40.785z"/>
	<path style="fill-rule:evenodd;clip-rule:evenodd;fill:#C9CBC7;" d="M36.898,34.203c0.149,0.316,0.233,0.631-0.022,0.938
		c-0.628-0.27-1.257-0.541-1.885-0.811C35.605,33.963,36.264,34.256,36.898,34.203z"/>
	<path style="fill-rule:evenodd;clip-rule:evenodd;fill:#7C7C7C;" d="M37.701,30.664c0.005-0.684-0.531-1.169-0.659-1.805
		c0.468-0.529,0.268-1.186,0.34-1.792c0.274,1.108,0.367,2.244,0.507,3.372C37.905,30.569,37.907,30.71,37.701,30.664z"/>
	<path style="fill-rule:evenodd;clip-rule:evenodd;fill:#959595;" d="M38.684,44.557c-0.345-0.088-0.708-0.118-1.015-0.325
		c0.072-0.569,0.918-0.456,0.942-1.068C39.326,43.591,39.022,44.073,38.684,44.557z"/>
	<path style="fill-rule:evenodd;clip-rule:evenodd;fill:#989B9C;" d="M30.609,24.753c0.242,0.373,0.143,0.832,0.31,1.223
		c-0.244,0.294-0.42,0.649-0.767,0.85c-0.061-0.441,0.098-0.917-0.208-1.319C29.863,24.99,30.02,24.682,30.609,24.753z"/>
	<path style="fill-rule:evenodd;clip-rule:evenodd;fill:#818783;" d="M31.207,11.399c-0.41,0.02-0.259-0.298-0.276-0.488
		c-0.027-0.328,0.029-0.673-0.277-0.914c0.13-0.376,0.261-0.752,0.391-1.128c0.404,0.527,0.051,1.21,0.363,1.756
		C31.341,10.883,31.274,11.141,31.207,11.399z"/>
	<path style="fill-rule:evenodd;clip-rule:evenodd;fill:#CACDC8;" d="M27.162,35.176c0.051-0.324,0.102-0.648,0.152-0.972
		c0.598,0.045,1.219-0.242,1.793,0.127C28.459,34.613,27.811,34.895,27.162,35.176z"/>
	<path style="fill-rule:evenodd;clip-rule:evenodd;fill:#C4C2C3;" d="M0.075,57.913c0.59-0.001,1.057-0.402,1.618-0.497
		c0.44,0.104,0.33,0.355,0.168,0.621C1.24,58.083,0.62,58.119,0,58.031C-0.001,57.976,0.024,57.937,0.075,57.913z"/>
	<path style="fill-rule:evenodd;clip-rule:evenodd;fill:#B9BBB8;" d="M32.008,35.445c-0.273,0.152-0.541,0.122-0.803-0.029
		c0.263-0.35,0.526-0.7,0.79-1.049C31.999,34.727,32.003,35.086,32.008,35.445z"/>
	<path style="fill-rule:evenodd;clip-rule:evenodd;fill:#FAFBFA;" d="M32.358,6.376c0,0.745,0,1.49,0,2.234
		c-0.147-0.851-0.24-1.701-0.07-2.549C32.311,6.167,32.334,6.271,32.358,6.376z"/>
	<path style="fill-rule:evenodd;clip-rule:evenodd;fill:#6B6C6C;" d="M56.536,58.043c0.005-0.548,0.284-0.786,0.828-0.769
		c0.617,0.02,1.235,0.012,1.853,0.016c0.261,0.324,0.099,0.548-0.177,0.745C58.205,58.038,57.371,58.041,56.536,58.043z"/>
	<path style="fill-rule:evenodd;clip-rule:evenodd;fill:#888787;" d="M59.04,58.035c0.059-0.249,0.118-0.497,0.177-0.745
		c0.628,0.003,1.256,0.006,1.884,0.009c0.254,0.294,0.08,0.517-0.125,0.733c-0.081,0.016-0.162,0.032-0.244,0.049
		C60.168,58.066,59.604,58.05,59.04,58.035z"/>
	<path style="fill-rule:evenodd;clip-rule:evenodd;fill:#696A6A;" d="M4.987,57.29c0.622-0.005,1.245,0.007,1.866-0.018
		c0.562-0.023,0.883,0.218,0.977,0.77c-0.935-0.001-1.87-0.003-2.805-0.004C4.781,57.799,4.759,57.551,4.987,57.29z"/>
	<path style="fill-rule:evenodd;clip-rule:evenodd;fill:#888787;" d="M4.987,57.29c0.012,0.249,0.024,0.498,0.037,0.748
		c-0.319,0.013-0.638,0.026-0.958,0.04c-0.323-0.015-0.647-0.029-0.97-0.043c-0.244-0.208-0.331-0.447-0.141-0.738
		C3.632,57.294,4.31,57.292,4.987,57.29z"/>
	<path style="fill-rule:evenodd;clip-rule:evenodd;fill:#A8A7A6;" d="M2.955,57.296c0.138,0.229,0.183,0.475,0.141,0.738
		c-0.412,0.001-0.823,0.002-1.235,0.004c0.003-0.223-0.002-0.443-0.167-0.621C2.091,57.144,2.533,57.322,2.955,57.296z"/>
	<path style="fill-rule:evenodd;clip-rule:evenodd;fill:#AAA9A8;" d="M60.976,58.032c-0.065-0.263,0.064-0.492,0.125-0.733
		c0.421,0.029,0.862-0.155,1.263,0.112c0.046,0.208,0.241,0.417-0.007,0.622C61.896,58.032,61.436,58.032,60.976,58.032z"/>
	<path style="fill-rule:evenodd;clip-rule:evenodd;fill:#CAC9C9;" d="M62.356,58.032c-0.004-0.208-0.106-0.416,0.007-0.622
		c0.511,0.19,1.022,0.381,1.534,0.572C63.389,58.17,62.87,58.034,62.356,58.032z"/>
	<path style="fill-rule:evenodd;clip-rule:evenodd;fill:#606262;" d="M47.712,50.053c-0.155-0.262-0.31-0.525-0.465-0.787
		c2.602-0.001,5.204,0.029,7.804-0.019c1.021-0.019,1.692,0.371,2.109,1.269c-2.9-0.014-5.8-0.028-8.7-0.039
		c-0.102,0-0.204,0.038-0.306,0.059C48.007,50.375,47.86,50.214,47.712,50.053z"/>
	<path style="fill-rule:evenodd;clip-rule:evenodd;fill:#F0F0F0;" d="M48.672,38.896c0.105,0.105,0.209,0.21,0.314,0.315
		c0.47,0.631,0.939,1.263,1.409,1.894c0.112,0.201,0.224,0.402,0.335,0.603c-0.083,0.61-0.583,0.515-0.965,0.524
		c-1.881,0.046-3.763,0.027-5.644,0.014c-0.722-0.005-1.467,0.133-2.156-0.222c-0.64-0.842-1.279-1.684-1.919-2.526
		c-0.114-0.2-0.229-0.4-0.343-0.601C42.693,38.898,45.683,38.897,48.672,38.896z"/>
	<path style="fill-rule:evenodd;clip-rule:evenodd;fill:#CCCBCB;" d="M37.194,35.452c0.608-0.355,1.279-0.061,1.91-0.187
		c1.205-0.003,2.411-0.005,3.616-0.008c1.092,0.003,2.185,0.006,3.277,0.008c0.238,0.308,0.484,0.61,0.71,0.926
		c0.13,0.183,0.352,0.367,0.225,0.621c-0.127,0.252-0.406,0.192-0.632,0.193c-1.768,0.005-3.536-0.022-5.303,0.015
		c-0.846,0.018-1.712-0.192-2.539,0.156C38.036,36.602,37.615,36.027,37.194,35.452z"/>
	<path style="fill-rule:evenodd;clip-rule:evenodd;fill:#878787;" d="M16.779,45.484c0.492-0.02,0.968,0.167,1.476,0.058
		c0.329-0.07,0.724,0.006,0.903,0.324c0.176,0.313-0.207,0.492-0.338,0.728c-0.125,0.225-0.311,0.416-0.47,0.622
		c-0.328-0.341-0.755-0.309-1.173-0.31c-2.194-0.001-4.388,0.009-6.582-0.013c-0.288-0.002-0.808,0.198-0.719-0.459
		c0.993-0.622,2.123-0.731,3.241-0.767c1.006-0.033,1.937-0.398,2.92-0.508C16.331,45.162,16.611,45.194,16.779,45.484z"/>
	<path style="fill-rule:evenodd;clip-rule:evenodd;fill:#BAB9B8;" d="M16.019,45.503c-2.04,0.363-4.082,0.717-6.144,0.931
		c0.124-0.208,0.249-0.416,0.373-0.623c0.191-0.21,0.381-0.42,0.571-0.631c1.492-0.419,3-0.179,4.502-0.099
		C15.589,45.095,15.899,45.177,16.019,45.503z"/>
	<path style="fill-rule:evenodd;clip-rule:evenodd;fill:#959595;" d="M27.313,45.805c-0.111-0.152-0.221-0.304-0.332-0.456
		c-0.1-0.352-0.049-0.64,0.333-0.788c0.363-0.01,0.726-0.02,1.089-0.03c2.642,0.005,5.285,0.008,7.927,0.016
		c1.229,0.003,1.229,0.007,0.636,1.101c-0.062,0.113-0.146,0.215-0.22,0.322c-0.391,0.172-0.804,0.209-1.225,0.21
		c-2.297,0.002-4.595,0.006-6.892-0.003C28.158,46.175,27.681,46.18,27.313,45.805z"/>
	<path style="fill-rule:evenodd;clip-rule:evenodd;fill:#F0F0F0;" d="M35.788,40.785c0.162,0.257,0.323,0.515,0.485,0.772
		c-0.121,0.299-0.38,0.319-0.648,0.319c-2.419,0-4.838,0-7.258,0c-0.212,0-0.415-0.033-0.59-0.165c0-0.047,0.004-0.094,0.011-0.14
		c0.396-0.362,0.65-0.829,0.934-1.272c0.409-0.357,0.643-0.841,0.929-1.287c0.066-0.033,0.132-0.065,0.199-0.098
		c1.474,0.195,2.947,0.283,4.414-0.053c0.194,0.222,0.388,0.444,0.583,0.666C35.081,40.004,35.436,40.394,35.788,40.785z"/>
	<path style="fill-rule:evenodd;clip-rule:evenodd;fill:#878787;" d="M45.688,47.063c-0.332-0.234-0.672-0.521-0.527-0.952
		c0.15-0.446,0.618-0.284,0.964-0.3c1.535-0.073,3.082,0.15,4.607-0.172c0.803-0.679,1.624-0.166,2.43-0.016
		c0.244,0.045,0.478,0.202,0.699,0.341c0.243,0.177,0.477,0.395,0.339,0.711c-0.123,0.284-0.444,0.228-0.699,0.228
		c-2.22,0.004-4.44,0.003-6.661,0.003C46.449,46.905,46.054,46.878,45.688,47.063z"/>
	<path style="fill-rule:evenodd;clip-rule:evenodd;fill:#C3C2C2;" d="M53.861,45.963c-1.043-0.108-2.086-0.216-3.129-0.325
		c-1.645-0.399-3.335-0.43-5.006-0.613c-0.333-0.036-0.679,0.03-0.988-0.154c0.141-0.532,0.575-0.648,1.027-0.663
		c2-0.063,4.002-0.047,6.003-0.012c0.378,0.007,0.696,0.195,1.027,0.345c0.23,0.266,0.46,0.531,0.689,0.796
		C53.609,45.546,53.735,45.754,53.861,45.963z"/>
	<path style="fill-rule:evenodd;clip-rule:evenodd;fill:#CFCDCE;" d="M17.25,36.37c0.168-0.436,0.549-0.718,0.796-1.096
		c1.671-0.127,3.343-0.099,5.015-0.016c0.786,0.003,1.571,0.006,2.356,0.008c0.534,0.005,1.067,0.011,1.601,0.017
		c-0.422,0.581-0.845,1.161-1.268,1.741c-0.296-0.228-0.644-0.17-0.977-0.17c-2.263-0.004-4.525,0.005-6.787-0.011
		C17.678,36.841,17.18,37.015,17.25,36.37z"/>
	<path style="fill-rule:evenodd;clip-rule:evenodd;fill:#E5E5E5;" d="M15.209,39.205c0.259-0.369,0.519-0.737,0.778-1.106
		c2.622,0.003,5.243,0.005,7.865,0.011c0.333,0.001,0.681-0.052,0.969,0.189c-0.222,0.393-0.45,0.782-0.802,1.079
		c-0.668,0.358-1.391,0.373-2.126,0.366c-1.857-0.018-3.715,0.015-5.572-0.019C15.885,39.717,15.401,39.759,15.209,39.205z"/>
	<path style="fill-rule:evenodd;clip-rule:evenodd;fill:#818181;" d="M22.023,20.942c0.451-0.308,0.901-0.615,1.352-0.922
		l0.022,0.04c5.421,0.141,10.844,0.019,16.267,0.068c0.283,0.002,0.574-0.068,0.846,0.071c0.261,0.104,0.521,0.209,0.782,0.313
		c0.105,0.164,0.459,0.262,0.309,0.472c-0.227,0.316-0.631,0.107-0.955,0.15c-0.573-0.28-1.19-0.177-1.775-0.132
		c-3.575,0.274-7.156,0.223-10.734,0.176c-0.984-0.013-1.979-0.081-2.965-0.173c-0.333-0.031-0.681-0.087-0.993,0.113
		c-0.265,0.008-0.529,0.016-0.794,0.023C22.907,21.238,22.479,20.99,22.023,20.942z"/>
	<path style="fill-rule:evenodd;clip-rule:evenodd;fill:#818181;" d="M40.51,20.198c-0.43,0.129-0.869,0.162-1.317,0.161
		c-4.732-0.005-9.465-0.004-14.197-0.001c-0.554,0-1.097-0.033-1.599-0.299c0.374-0.127,0.756-0.177,1.153-0.177
		c4.93,0.004,9.859,0.003,14.789,0.002C39.757,19.885,40.18,19.867,40.51,20.198z"/>
	<path style="fill-rule:evenodd;clip-rule:evenodd;fill:#D8D7D7;" d="M26.382,18.479c0.4-0.266,0.896-0.384,1.218-0.774
		c0.009-0.059,0.018-0.119,0.027-0.178c0.14-0.434,0.501-0.5,0.879-0.506c2.378-0.043,4.755-0.039,7.133-0.003
		c0.382,0.006,0.733,0.083,0.899,0.49c0.186,0.509,0.78,0.581,1.174,1.133c-0.553,0-1.002,0-1.452,0
		c-2.25,0-4.501-0.001-6.752-0.002c-0.961,0.149-1.929,0.033-2.894,0.062C26.473,18.706,26.359,18.66,26.382,18.479z"/>
	<path style="fill-rule:evenodd;clip-rule:evenodd;fill:#A9ABAD;" d="M26.382,18.479c0.742,0.331,1.521,0.069,2.279,0.137
		c0.281,0.025,0.565,0.016,0.848,0.023c-1.155,0.221-2.309,0.271-3.461-0.016C26.16,18.576,26.271,18.528,26.382,18.479z"/>
	<path style="fill-rule:evenodd;clip-rule:evenodd;fill:#CFCECD;" d="M52.794,44.541c-2.001,0.002-4.002,0.018-6.002,0.001
		c-0.709-0.006-1.399,0.029-2.054,0.328c-0.26,0.004-0.52,0.009-0.78,0.013c-0.316-0.475-0.633-0.95-0.949-1.425
		c0.142-0.546,0.601-0.521,1.007-0.522c2.548-0.006,5.097-0.084,7.644,0.045c0.042,0.004,0.084,0.006,0.126,0.005
		C52.121,43.504,52.458,44.022,52.794,44.541z"/>
	<path style="fill-rule:evenodd;clip-rule:evenodd;fill:#DEDEDF;" d="M33.114,12.034c0.053,0.054,0.106,0.108,0.159,0.162
		c0.079,0.322,0.125,0.656,0.319,0.939c0.052,0.261,0.104,0.522,0.156,0.783c-0.039,0.097-0.074,0.206-0.152,0.27
		c-0.524,0.427-2.611,0.34-3.162-0.125c0.052-0.261,0.104-0.521,0.156-0.782c0.175-0.466,0.351-0.933,0.526-1.399
		C31.769,12.102,32.446,12.01,33.114,12.034z"/>
	<path style="fill-rule:evenodd;clip-rule:evenodd;fill:#F0F0F1;" d="M30.434,14.063c1.104-0.052,2.221,0.169,3.314-0.145
		c0.207,0.16,0.01,0.629,0.462,0.601c0.628,0.041,1.138-0.37,1.734-0.452c0.637-0.072,1.27-0.188,1.917-0.158
		c0.363,0.017,0.669,0.089,0.79,0.485c-0.621,1.094-1.309,2.143-2.111,3.115c-0.744-0.216-1.506-0.129-2.261-0.133
		c-1.778-0.01-3.556,0.001-5.334-0.006c-0.448-0.002-0.887,0.029-1.317,0.159c-0.581-0.831-1.162-1.661-1.743-2.491
		c-0.121-0.58,0.198-0.787,0.706-0.835c0.713-0.067,1.423,0.047,2.135,0.029c0.356,0.119,0.713,0.238,1.07,0.357
		C30.375,14.859,30.203,14.215,30.434,14.063z"/>
	<path style="fill-rule:evenodd;clip-rule:evenodd;fill:#E0E0E1;" d="M38.65,14.394c-0.89-0.212-1.827-0.035-2.707-0.328
		c0.16-0.103,0.321-0.205,0.481-0.307c0.701-0.201,1.399-0.409,2.041-0.767c0.364-0.113,0.728-0.227,1.091-0.34
		c0.231,0.076,0.167,0.194,0.069,0.348c-0.291,0.456-0.568,0.921-0.851,1.382C38.733,14.391,38.692,14.394,38.65,14.394z"/>
	<path style="fill-rule:evenodd;clip-rule:evenodd;fill:#535757;" d="M29.515,50.669c-0.11-0.311-0.22-0.622-0.331-0.933
		c0.173-0.29,0.439-0.32,0.745-0.291c1.402,0.131,2.807,0.067,4.211,0.042c0.34-0.006,0.708-0.072,0.741,0.438
		c-0.137,0.354-0.274,0.708-0.412,1.063c-0.191,0.416-0.383,0.832-0.574,1.248c-0.494,0.732-0.769,1.566-1.101,2.374
		c-0.019,0.018-0.041,0.034-0.054,0.056c-0.703,1.102-0.703,1.102-1.351-0.062c-0.366-0.735-0.591-1.537-1.067-2.219
		C30.068,51.806,29.885,51.193,29.515,50.669z"/>
	<path style="fill-rule:evenodd;clip-rule:evenodd;fill:#C9C8C8;" d="M16.019,45.503c-1.481-0.083-2.96-0.229-4.447-0.17
		c-0.26,0.01-0.524,0.012-0.752-0.152c0.292-0.437,0.537-0.909,0.929-1.272c0.527-0.168,1.068-0.211,1.619-0.208
		c2.009,0.011,4.019-0.014,6.028,0.016c0.439,0.006,0.913-0.021,1.122,0.511c-0.042,0.104-0.083,0.208-0.125,0.313
		c-0.694,0.989-1.813,0.5-2.713,0.77c-0.289,0.086-0.624-0.008-0.901,0.175C16.525,45.491,16.272,45.497,16.019,45.503z"/>
	<path style="fill-rule:evenodd;clip-rule:evenodd;fill:#E0E0E0;" d="M51.659,42.98c-0.248,0.371-0.634,0.309-0.994,0.309
		c-2.169,0.003-4.337,0.001-6.506,0.001c-0.392,0-0.787-0.025-1.151,0.167c-0.182-0.217-0.363-0.434-0.545-0.65
		c-0.165-0.261-0.331-0.521-0.496-0.783c0.452-0.151,0.919-0.15,1.389-0.149c2.132,0.003,4.265,0.003,6.397,0
		c0.334,0,0.682,0.055,0.979-0.167C51.122,42.073,51.369,42.543,51.659,42.98z"/>
	<path style="fill-rule:evenodd;clip-rule:evenodd;fill:#9A9D9E;" d="M36.273,22.074c0.156,0.167,0.312,0.335,0.468,0.502
		c-0.218,1.082-0.154,2.177-0.163,3.269c-0.002,0.334,0.053,0.684-0.188,0.974c-0.331-0.024-0.415-0.266-0.459-0.533
		c-0.185-1.121-0.426-2.235-0.473-3.376c-0.095-0.424-0.189-0.849-0.046-1.282c0.044-0.157,0.128-0.343,0.271-0.36
		c0.979-0.118,1.964-0.433,2.941,0.014c1.276,0.005,2.552,0.01,3.828,0.013c0.525,0.001,1.039,0.054,1.514,0.303
		c-2.497,0.006-4.994,0.01-7.491,0.021c-0.17,0-0.414-0.079-0.484,0.133C35.938,21.911,36.13,22.005,36.273,22.074z"/>
	<path style="fill-rule:evenodd;clip-rule:evenodd;fill:#5B5E5E;" d="M35.763,22.877c0.209,1.313,0.418,2.627,0.627,3.941
		c0.01,0.266,0.02,0.531,0.03,0.797c-0.321-0.27-0.643-0.54-0.964-0.809c-0.289-0.589-0.861-0.923-1.271-1.403
		c-0.363-0.566-0.888-0.972-1.381-1.41c-0.64-0.896-0.708-0.897-1.408-0.032c-0.044,0.01-0.088,0.017-0.133,0.019
		c-1.001,0.202-2.002,0.464-3.001-0.01c-0.002-0.209-0.003-0.418-0.005-0.627c0.117-0.152,0.04-0.388,0.22-0.514
		c0.207-0.229,0.476-0.307,0.772-0.31c1.899-0.021,3.798-0.014,5.697-0.003C35.265,22.518,35.572,22.573,35.763,22.877z"/>
	<path style="fill-rule:evenodd;clip-rule:evenodd;fill:#807F7F;" d="M27.313,45.805c2.817,0,5.633-0.001,8.45,0.002
		c0.334,0,0.683-0.057,0.984,0.162c0.006,0.054,0.012,0.108,0.018,0.163c-0.198,0.367-0.396,0.733-0.595,1.1
		c-0.373,0.274-0.795,0.358-1.25,0.359c-1.925,0.005-3.85,0.006-5.775,0c-0.369-0.001-0.722-0.08-1.071-0.185
		c-0.158-0.269-0.317-0.537-0.475-0.805C27.503,46.336,27.408,46.071,27.313,45.805z"/>
	<path style="fill-rule:evenodd;clip-rule:evenodd;fill:#737373;" d="M28.413,23.028c-0.052,0.104-0.104,0.209-0.157,0.314
		c-0.162-0.475-0.154-0.99-0.506-1.423c-0.338-0.416-0.697-0.656-1.232-0.613c-0.63-0.048-1.26-0.097-1.89-0.146
		c-0.149-0.014-0.299-0.029-0.449-0.043c0.154-0.341,0.466-0.288,0.746-0.288c4.962-0.002,9.924-0.002,14.886-0.001
		c0.314,0,0.638-0.019,0.835,0.305c-0.673,0.063-1.365-0.137-2.021,0.147c-0.824,0.056-1.647,0.115-2.471,0.167
		c-0.246,0.015-0.465,0.054-0.549,0.33c-0.263,0.385-0.674,0.351-1.06,0.357c-1.458,0.021-2.918,0.033-4.375-0.001
		C29.392,22.115,28.79,22.32,28.413,23.028z"/>
	<path style="fill-rule:evenodd;clip-rule:evenodd;fill:#5A5D5D;" d="M28.261,23.97c1.001-0.188,2.001-0.272,3.001,0.01
		c-0.218,0.258-0.436,0.516-0.653,0.773c-0.222,0.251-0.443,0.503-0.665,0.754c-0.384,0.35-0.787,0.682-1.081,1.12
		c-0.359,0.333-0.719,0.666-1.079,0.998c0.003-0.272,0.005-0.545,0.008-0.818C27.95,25.862,28.105,24.916,28.261,23.97z"/>
	<path style="fill-rule:evenodd;clip-rule:evenodd;fill:#F0F0F1;" d="M15.209,39.205c0.634,0.215,1.292,0.17,1.944,0.157
		c2.193-0.046,4.389,0.118,6.581-0.09c0.091-0.009,0.19,0.069,0.286,0.106c-0.057,0.095-0.115,0.189-0.172,0.283
		c-0.56,0.805-1.085,1.636-1.754,2.361c-0.341,0.135-0.692,0.222-1.062,0.224c-2.184,0.012-4.368,0.029-6.551-0.012
		c-0.447-0.008-0.994,0.039-0.996-0.672c0.421-0.625,0.842-1.251,1.263-1.877C14.901,39.524,15.055,39.364,15.209,39.205z"/>
	<path style="fill-rule:evenodd;clip-rule:evenodd;fill:#E1E1E1;" d="M13.484,41.561c0.244,0.37,0.626,0.315,0.986,0.315
		c2.184,0.002,4.368,0.001,6.552,0.002c0.363,0,0.73-0.028,1.071,0.143c-0.04,0.113-0.079,0.228-0.118,0.341
		c-0.22,0.255-0.44,0.511-0.66,0.766c-0.218,0.146-0.443,0.272-0.719,0.262c-2.392-0.088-4.785,0.012-7.177-0.06
		c-0.363-0.011-0.827,0.051-0.887-0.52c0.27-0.409,0.54-0.817,0.81-1.226C13.39,41.578,13.438,41.569,13.484,41.561z"/>
	<path style="fill-rule:evenodd;clip-rule:evenodd;fill:#7D7E7C;" d="M23.062,35.258c-1.671,0.005-3.343,0.01-5.015,0.016
		c-0.011-0.049-0.015-0.098-0.009-0.147c1.046-0.004,2.093-0.009,3.14-0.013c0.631,0.003,1.263,0.007,1.894,0.011
		C23.069,35.169,23.065,35.214,23.062,35.258z"/>
	<path style="fill-rule:evenodd;clip-rule:evenodd;fill:#6C6D6D;" d="M28.073,47.406c0.242-0.2,0.533-0.186,0.82-0.186
		c2.425,0.003,4.851,0.007,7.276,0.011c-0.184,0.458-0.367,0.915-0.551,1.372c-0.045,0.007-0.089,0.018-0.133,0.031
		c-0.33,0.221-0.681,0.362-1.09,0.365c-1.587,0.012-3.175,0.015-4.763-0.002c-0.318-0.003-0.618-0.078-0.906-0.209
		c-0.105-0.157-0.21-0.313-0.315-0.47C28.299,48.015,28.186,47.71,28.073,47.406z"/>
	<path style="fill-rule:evenodd;clip-rule:evenodd;fill:#D2D1D1;" d="M12.533,42.81c0.298,0.223,0.646,0.167,0.981,0.167
		c1.823,0.004,3.647,0.013,5.47-0.003c0.783-0.006,1.559,0.039,2.332,0.154c-0.194,0.418-0.506,0.751-0.798,1.099
		c-0.453-0.148-0.919-0.152-1.39-0.151c-2.133,0.004-4.267,0.004-6.4,0c-0.334,0-0.682,0.057-0.979-0.168
		c0.004-0.047,0.009-0.093,0.013-0.14C12.019,43.448,12.275,43.129,12.533,42.81z"/>
	<path style="fill-rule:evenodd;clip-rule:evenodd;fill:#E4E4E5;" d="M28.725,14.23c-0.592,0.419-1.272,0.304-1.931,0.314
		c-0.392,0.006-0.792-0.016-0.91,0.493c-0.057-0.056-0.114-0.112-0.171-0.167c-0.25-0.78-0.833-1.36-1.233-2.049
		c0.002-0.06,0.005-0.12,0.007-0.18c0.147,0.021,0.294,0.043,0.44,0.064c0.68,0.272,1.337,0.608,2.063,0.756
		C27.568,13.716,28.146,13.973,28.725,14.23z"/>
	<path style="fill-rule:evenodd;clip-rule:evenodd;fill:#5F6161;" d="M28.727,48.789c0.277-0.198,0.597-0.154,0.906-0.154
		c1.951-0.002,3.902,0,5.853,0c-0.104,0.266-0.209,0.531-0.313,0.797c-0.097,0.165-0.193,0.329-0.29,0.494
		c-0.392-0.305-0.801-0.012-1.202-0.026c-1.499-0.054-3.004,0.087-4.496-0.163c-0.042-0.005-0.083-0.008-0.125-0.008
		C28.948,49.415,28.837,49.102,28.727,48.789z"/>
	<path style="fill-rule:evenodd;clip-rule:evenodd;fill:#676969;" d="M28.413,23.028c0.003-1.256,0.003-1.258,1.261-1.258
		c1.977,0.001,3.954,0.005,5.931,0.008c0.053,0.367,0.106,0.733,0.159,1.099c-2.063-0.002-4.126-0.001-6.189-0.011
		C29.176,22.865,28.792,22.922,28.413,23.028z"/>
</g>
</svg>
