<?xml version="1.0" encoding="iso-8859-1"?>
<!-- Generator: Adobe Illustrator 16.0.0, SVG Export Plug-In . SVG Version: 6.00 Build 0)  -->
<!DOCTYPE svg PUBLIC "-//W3C//DTD SVG 1.1//EN" "http://www.w3.org/Graphics/SVG/1.1/DTD/svg11.dtd">
<svg version="1.1" id="Layer_1" xmlns="http://www.w3.org/2000/svg" xmlns:xlink="http://www.w3.org/1999/xlink" x="0px" y="0px"
	 width="64px" height="64px" viewBox="0 0 64 64" style="enable-background:new 0 0 64 64;" xml:space="preserve">
<g>
	<g>
		<path style="fill-rule:evenodd;clip-rule:evenodd;fill:#01B2AA;" d="M64,30.032c0,1.328,0,2.656,0,3.984
			c-0.013,0.071-0.032,0.142-0.038,0.214c-0.033,0.436-0.055,0.872-0.098,1.306c-0.13,1.299-0.359,2.581-0.659,3.851
			c-0.456,1.928-1.086,3.796-1.888,5.607c-0.65,1.469-1.41,2.878-2.273,4.23c-0.992,1.552-2.107,3.009-3.354,4.365
			c-0.977,1.063-2.008,2.066-3.115,2.991c-1.069,0.894-2.191,1.716-3.368,2.464c-1.513,0.963-3.097,1.791-4.747,2.488
			c-1.854,0.784-3.767,1.387-5.737,1.802c-1.292,0.272-2.595,0.474-3.912,0.577c-0.298,0.023-0.594,0.059-0.892,0.088
			c-1.263,0-2.526,0-3.789,0c-0.273-0.028-0.546-0.064-0.818-0.085c-1.1-0.085-2.188-0.238-3.271-0.442
			c-2.939-0.554-5.742-1.512-8.412-2.856c-1.404-0.707-2.75-1.515-4.035-2.423c-1.432-1.012-2.772-2.131-4.02-3.359
			c-0.502-0.494-0.977-1.015-1.451-1.535c-0.981-1.08-1.869-2.234-2.683-3.446c-1.071-1.597-1.997-3.275-2.764-5.04
			c-0.87-2.004-1.538-4.072-1.981-6.213c-0.31-1.492-0.521-2.997-0.609-4.52C0.074,33.896,0.029,33.714,0,33.531
			c0-1.021,0-2.041,0-3.063c0.028-0.166,0.069-0.332,0.085-0.5c0.053-0.563,0.086-1.129,0.148-1.691
			c0.22-1.969,0.631-3.899,1.221-5.79c0.915-2.933,2.23-5.677,3.932-8.235c0.947-1.425,2.004-2.767,3.172-4.017
			c1.006-1.077,2.074-2.093,3.219-3.023c1.475-1.197,3.037-2.263,4.695-3.188c1.609-0.898,3.283-1.649,5.022-2.256
			c1.616-0.564,3.267-0.996,4.954-1.291c1.269-0.223,2.545-0.377,3.832-0.436C30.36,0.037,30.438,0.014,30.519,0
			c1.02,0,2.041,0,3.061,0c0.071,0.014,0.142,0.034,0.213,0.041c0.726,0.064,1.453,0.11,2.176,0.193c2,0.23,3.957,0.67,5.874,1.282
			c2.043,0.652,3.995,1.516,5.865,2.563c2.386,1.336,4.554,2.968,6.534,4.851c0.785,0.748,1.521,1.546,2.222,2.375
			c0.999,1.182,1.914,2.427,2.735,3.74c1.306,2.09,2.358,4.299,3.156,6.629c0.549,1.604,0.967,3.242,1.244,4.915
			c0.178,1.069,0.342,2.142,0.364,3.229C63.964,29.89,63.987,29.961,64,30.032z M37.712,49.313c0.021,0.007,0.044,0.014,0.066,0.021
			c0.094-0.203,0.186-0.407,0.281-0.609c0.83-1.775,1.661-3.55,2.492-5.324c0.594-1.27,1.188-2.538,1.781-3.807
			c0.83-1.775,1.659-3.551,2.493-5.324c0.208-0.441,0.155-0.403,0.632-0.403c4.414-0.001,8.828-0.001,13.242-0.001
			c0.089,0,0.178,0.004,0.268-0.002c0.167-0.011,0.198-0.039,0.217-0.198c0.018-0.153,0.039-0.306,0.041-0.46
			c0.026-1.255,0.025-2.51-0.1-3.761c-0.113-1.137-0.283-2.265-0.533-3.381c-0.438-1.96-1.086-3.849-1.942-5.665
			c-0.616-1.306-1.338-2.552-2.151-3.746c-0.84-1.235-1.787-2.383-2.813-3.466c-0.764-0.806-1.585-1.552-2.443-2.256
			c-1.401-1.148-2.905-2.146-4.507-2.989c-2.066-1.089-4.238-1.9-6.515-2.433c-1.653-0.386-3.329-0.614-5.022-0.681
			c-0.912-0.035-1.828,0.012-2.743,0.031c-0.876,0.019-1.743,0.131-2.608,0.264c-2.791,0.43-5.449,1.285-7.977,2.542
			c-1.191,0.592-2.329,1.275-3.419,2.039c-0.995,0.698-1.952,1.449-2.835,2.284c-0.623,0.588-1.217,1.211-1.805,1.836
			c-0.844,0.898-1.59,1.877-2.285,2.896c-0.863,1.268-1.609,2.602-2.248,3.997c-0.781,1.708-1.373,3.479-1.789,5.309
			c-0.061,0.262-0.027,0.312,0.232,0.313c1.15,0.002,2.301,0.002,3.45,0c0.241-0.001,0.265-0.027,0.333-0.266
			c0.104-0.366,0.203-0.733,0.318-1.096c0.599-1.886,1.418-3.669,2.473-5.344c0.752-1.195,1.6-2.32,2.561-3.355
			c0.672-0.724,1.378-1.415,2.135-2.053c1.223-1.033,2.532-1.941,3.941-2.699c1.893-1.02,3.885-1.777,5.986-2.248
			C28.162,9,29.42,8.814,30.691,8.756c0.669-0.031,1.339-0.061,2.013-0.029c0.777,0.036,1.553,0.078,2.324,0.177
			c2.957,0.382,5.742,1.299,8.348,2.753c2.166,1.209,4.092,2.725,5.771,4.555c0.718,0.782,1.389,1.602,1.998,2.473
			c1.26,1.795,2.237,3.734,2.947,5.808c0.58,1.692,0.957,3.431,1.127,5.212c0.045,0.473,0.049,0.473-0.432,0.473
			c-3.109,0-6.221,0-9.33,0c-0.09,0-0.178-0.002-0.268-0.008c-0.114-0.007-0.178-0.071-0.184-0.186
			c-0.006-0.105-0.006-0.21-0.006-0.315c-0.001-3.345,0-6.69-0.001-10.035c0-0.336-0.007-0.347-0.312-0.461
			c-0.818-0.308-1.639-0.614-2.457-0.92c-2.063-0.771-4.127-1.544-6.189-2.315c-1.252-0.467-2.504-0.934-3.755-1.404
			c-0.157-0.059-0.302-0.078-0.469-0.016c-1.949,0.729-3.9,1.453-5.851,2.179c-2.187,0.813-4.372,1.628-6.559,2.44
			c-0.406,0.15-0.406,0.148-0.406,0.588c-0.001,3.321,0,6.642-0.001,9.963c0,0.49,0,0.49-0.499,0.49c-4.366,0-8.731,0-13.098,0
			c-0.088,0-0.178-0.002-0.267,0.002c-0.216,0.01-0.26,0.047-0.27,0.256c-0.02,0.437-0.044,0.873-0.046,1.311
			c-0.003,0.404,0.027,0.809,0.032,1.213c0.013,0.989,0.116,1.971,0.251,2.949c0.23,1.666,0.625,3.294,1.169,4.884
			c0.536,1.566,1.207,3.073,2.017,4.52c1.139,2.032,2.519,3.885,4.132,5.562c0.538,0.559,1.115,1.082,1.689,1.605
			c0.81,0.736,1.681,1.397,2.585,2.014c1.173,0.799,2.398,1.508,3.684,2.112c1.043,0.491,2.107,0.923,3.201,1.28
			c1.203,0.392,2.428,0.699,3.674,0.92c1.462,0.261,2.937,0.383,4.419,0.422c0.452,0.013,0.905-0.025,1.358-0.033
			c1.193-0.021,2.375-0.154,3.549-0.351c2.541-0.426,4.971-1.203,7.291-2.323c1.359-0.656,2.654-1.422,3.887-2.295
			c0.992-0.704,1.938-1.467,2.819-2.303c0.734-0.695,1.446-1.415,2.104-2.186c0.738-0.863,1.425-1.766,2.051-2.711
			c0.843-1.271,1.574-2.605,2.189-4.002c0.72-1.637,1.281-3.323,1.667-5.068c0.017-0.076,0.022-0.154,0.036-0.258
			c-0.113-0.011-0.198-0.025-0.284-0.026c-1.134-0.001-2.268-0.001-3.401,0c-0.285,0-0.295,0.009-0.367,0.277
			c-0.515,1.927-1.261,3.759-2.234,5.499c-0.875,1.563-1.926,2.998-3.137,4.313c-0.646,0.702-1.334,1.366-2.063,1.988
			c-1.411,1.205-2.943,2.226-4.598,3.064c-1.281,0.65-2.615,1.169-3.994,1.575c-1.844,0.541-3.729,0.836-5.646,0.91
			c-1.142,0.045-2.281-0.003-3.419-0.127c-1.608-0.175-3.181-0.51-4.717-1.016c-1.428-0.471-2.795-1.077-4.107-1.808
			c-1.736-0.967-3.313-2.151-4.752-3.518c-0.622-0.591-1.199-1.226-1.752-1.884c-1.009-1.201-1.889-2.491-2.63-3.872
			c-1.044-1.945-1.813-3.994-2.272-6.156c-0.188-0.88-0.322-1.769-0.409-2.663c-0.034-0.352,0.005-0.388,0.341-0.388
			c3.167-0.001,6.334,0.001,9.5-0.004c0.219-0.001,0.339,0.076,0.429,0.272c0.3,0.655,0.614,1.304,0.923,1.955
			c0.451,0.951,0.902,1.902,1.352,2.854c0.795,1.684,1.589,3.368,2.385,5.053c0.328,0.695,0.658,1.39,0.986,2.086
			c0.495,1.047,0.988,2.095,1.482,3.142c0.025,0.053,0.063,0.101,0.096,0.151c0.013-0.004,0.026-0.007,0.04-0.011
			c0-0.104,0-0.207,0-0.311c0-6.146,0-12.294,0-18.441c0-0.064,0.001-0.129-0.001-0.194c-0.006-0.253-0.03-0.281-0.279-0.283
			c-0.429-0.003-0.857-0.01-1.287,0.004c-0.215,0.007-0.339-0.067-0.434-0.266c-0.521-1.097-1.055-2.188-1.582-3.282
			c-0.029-0.063-0.045-0.131-0.077-0.229c0.144-0.011,0.253-0.025,0.362-0.025c2.229-0.001,4.455-0.001,6.683,0
			c0.42,0,0.421,0,0.421,0.416c0,2.575,0,5.15,0,7.727c0,0.68,0,1.36,0,2.041c0,0.348,0.014,0.36,0.35,0.363
			c0.008,0,0.016,0,0.024,0c0.979,0,1.96,0,2.94,0c0.057,0,0.113-0.002,0.17-0.004c0.126-0.003,0.195-0.066,0.199-0.194
			c0.002-0.097,0.004-0.194,0.004-0.291c0-3.224,0-6.447,0-9.671c0-0.364,0.023-0.385,0.385-0.387c0.031-0.001,0.064,0,0.097,0
			c1.353,0,2.705,0,4.058,0c0.851,0,1.701-0.002,2.551,0.001c0.101,0,0.2,0.021,0.334,0.034c-0.046,0.126-0.072,0.217-0.111,0.303
			c-0.086,0.191-0.179,0.381-0.268,0.571c-0.413,0.88-0.828,1.758-1.234,2.641c-0.083,0.179-0.197,0.255-0.395,0.249
			c-0.381-0.01-0.762-0.003-1.143-0.002c-0.434,0-0.434,0-0.434,0.424c0,6.163,0,12.326,0,18.49
			C37.712,49.137,37.712,49.225,37.712,49.313z"/>
	</g>
</g>
</svg>
