<?xml version="1.0" encoding="iso-8859-1"?>
<!-- Generator: Adobe Illustrator 16.0.0, SVG Export Plug-In . SVG Version: 6.00 Build 0)  -->
<!DOCTYPE svg PUBLIC "-//W3C//DTD SVG 1.1//EN" "http://www.w3.org/Graphics/SVG/1.1/DTD/svg11.dtd">
<svg version="1.1" id="Layer_1" xmlns="http://www.w3.org/2000/svg" xmlns:xlink="http://www.w3.org/1999/xlink" x="0px" y="0px"
	 width="64px" height="64px" viewBox="0 0 64 64" style="enable-background:new 0 0 64 64;" xml:space="preserve">
<g>
	<path style="fill-rule:evenodd;clip-rule:evenodd;fill:#353532;" d="M23.661,35.542c-0.259,0.85-1.204,1.264-1.865,2.086
		c-2.366-1.997-4.692-3.962-7.048-5.951c1.268-5.927,2.529-11.827,3.803-17.782c8.943,0,17.874,0,26.924,0
		c0.909,4.675,2.118,9.314,2.849,14.187c0.603,1.003,0.507,2.334,0.962,3.593c-2.331,1.955-4.649,3.899-7.043,5.908
		c-3.432-3.19-6.821-6.341-10.233-9.512c-0.786,0.719-1.494,1.358-2.192,2.009c-1.706,1.591-3.401,3.193-5.117,4.774
		C24.429,35.104,24.08,35.269,23.661,35.542z M27.568,30.372c0.045-0.071,0.09-0.143,0.135-0.214
		c-0.744-0.857-1.476-1.727-2.236-2.57c-0.647-0.718-1.335-1.399-1.988-2.112c-0.71-0.776-1.396-1.574-2.107-2.351
		c-0.179-0.196-0.411-0.345-0.619-0.516c-0.056,0.051-0.112,0.102-0.169,0.151c0.397,0.749,0.796,1.496,1.19,2.245
		c0.658,1.251,1.304,2.509,1.975,3.752c0.238,0.439,0.587,0.763,1.11,0.887c0.684,0.163,1.354,0.378,2.032,0.565
		C27.115,30.271,27.342,30.318,27.568,30.372z M42.9,23.42c-0.056-0.037-0.112-0.074-0.168-0.11
		c-0.112,0.08-0.239,0.147-0.333,0.244c-0.712,0.731-1.427,1.46-2.124,2.206c-1.2,1.283-2.387,2.579-3.583,3.866
		c-0.187,0.201-0.387,0.39-0.175,0.707c1.04-0.262,2.075-0.523,3.145-0.793c0.224-0.272,0.506-0.527,0.678-0.842
		c0.444-0.813,0.841-1.651,1.255-2.48c0.368-0.737,0.738-1.473,1.098-2.214C42.782,23.819,42.832,23.616,42.9,23.42z"/>
	<path style="fill-rule:evenodd;clip-rule:evenodd;fill:#E10611;" d="M23.982,50.085c-0.073-0.499-0.114-1.005-0.225-1.496
		c-0.497-2.2-1.015-4.396-1.521-6.596c-0.038-0.165-0.047-0.337-0.083-0.604c3.14-2.904,6.308-5.836,9.587-8.87
		c0,8.013,0,15.873,0,23.811c-1.379,0.609-2.805,1.238-4.326,1.91c0.66,1.21,1.527,2.204,2.106,3.358
		c-0.043,0.049-0.087,0.098-0.131,0.146c-1.003-0.479-2.006-0.956-3.009-1.435c-0.102-0.376-0.218-0.748-0.302-1.128
		c-0.426-1.928-0.832-3.859-1.269-5.784C24.557,52.289,24.259,51.189,23.982,50.085z"/>
	<path style="fill-rule:evenodd;clip-rule:evenodd;fill:#353532;" d="M37.472,60.313c-1.033,0.51-2.066,1.021-3.099,1.53
		c-0.047-0.047-0.093-0.095-0.14-0.142c0.779-1.186,1.558-2.371,2.389-3.634c-1.49-0.617-2.907-1.204-4.361-1.807
		c0-7.863,0-15.711,0-23.738c3.256,3.007,6.422,5.932,9.594,8.861c-0.678,2.911-1.342,5.764-2.007,8.616
		c-0.212,0.869-0.425,1.736-0.635,2.605c-0.251,1.037-0.505,2.074-0.746,3.113c-0.241,1.038-0.449,2.084-0.71,3.116
		C37.632,59.325,37.336,59.775,37.472,60.313z"/>
	<path style="fill-rule:evenodd;clip-rule:evenodd;fill:#353532;" d="M23.982,50.085c0.277,1.104,0.575,2.203,0.827,3.313
		c0.437,1.925,0.843,3.856,1.269,5.784c0.084,0.38,0.201,0.752,0.302,1.128c-0.193,0.023-0.386,0.067-0.579,0.067
		c-7.174,0.002-14.349-0.001-21.523-0.003c-0.268,0-0.536,0-0.881,0C2.265,56.963,1.141,53.578,0,50.138
		c0.203-0.036,0.338-0.08,0.473-0.08c7.764-0.004,15.528-0.004,23.292-0.002C23.837,50.056,23.91,50.076,23.982,50.085z
		 M19.765,58.822c0.509,0.052,0.511-0.271,0.574-0.514c0.238-0.927,0.46-1.857,0.698-2.784c0.037-0.145,0.125-0.275,0.189-0.413
		c0.051,0.011,0.102,0.021,0.153,0.03c0,1.215,0,2.429,0,3.629c0.511,0,0.933,0,1.339,0c0-2.444,0-4.813,0-7.214
		c-0.608,0-1.161,0-1.726,0c-0.328,1.134-0.645,2.227-0.96,3.319c-0.044-0.007-0.089-0.015-0.133-0.021
		c-0.304-1.104-0.608-2.207-0.906-3.288c-0.629,0-1.18,0-1.745,0c0,2.43,0,4.802,0,7.183c0.465,0,0.884,0,1.381,0
		c0-1.38,0-2.686,0-3.991c0.035-0.001,0.07-0.003,0.105-0.004C19.076,56.1,19.417,57.448,19.765,58.822z M12.198,58.786
		c0.515,0,0.985,0,1.5,0c0-0.789,0-1.52,0-2.313c0.443,0,0.841,0,1.322,0c0,0.798,0,1.545,0,2.322c0.533,0,0.983,0,1.438,0
		c0-2.413,0-4.774,0-7.15c-1.09,0-2.115,0-3.157,0c-0.392,0.377-0.778,0.748-1.104,1.063C12.198,54.797,12.198,56.776,12.198,58.786
		z M11.518,51.665c-1.187,0-2.302,0-3.427,0c0,2.412,0,4.77,0,7.117c1.207,0,2.343,0,3.481,0c0-0.45,0-0.835,0-1.33
		c-0.679,0-1.324,0-1.962,0c0-0.637,0-1.16,0-1.764c0.629,0,1.204,0,1.8,0c0-0.46,0-0.838,0-1.292c-0.333,0-0.622,0-0.91,0
		c-0.306,0-0.611,0-0.923,0c0-0.531,0-0.937,0-1.432c0.663,0,1.286,0,1.94,0C11.518,52.489,11.518,52.104,11.518,51.665z
		 M7.371,51.667c-1.449,0-2.833,0-4.247,0c0,0.459,0,0.86,0,1.282c0.479,0.024,0.909,0.046,1.397,0.071c0,1.947,0,3.83,0,5.759
		c0.533,0,0.999,0,1.561,0c0-1.968,0-3.868,0-5.825c0.48,0,0.866,0,1.289,0C7.371,52.508,7.371,52.123,7.371,51.667z"/>
	<path style="fill-rule:evenodd;clip-rule:evenodd;fill:#E10611;" d="M37.472,60.313c-0.136-0.538,0.16-0.988,0.284-1.478
		c0.261-1.032,0.469-2.078,0.71-3.116c0.241-1.039,0.495-2.076,0.746-3.113c0.21-0.869,0.423-1.736,0.635-2.605
		c0.637,0.017,1.273,0.048,1.91,0.048c7.123,0.001,14.247-0.003,21.37-0.003c0.26,0,0.521,0.026,0.872,0.046
		c-1.147,3.464-2.263,6.831-3.395,10.246c-0.263,0.015-0.501,0.038-0.739,0.038c-7.148,0.002-14.295,0.002-21.443-0.003
		C38.106,60.373,37.79,60.333,37.472,60.313z M47.571,51.575c-0.534,0-0.979,0-1.461,0c-0.2,1.275-0.39,2.493-0.581,3.711
		c-0.062,0-0.123,0-0.184,0c-0.228-1.233-0.456-2.468-0.687-3.722c-0.391,0-0.694,0-1.042,0c-0.186,0.974-0.363,1.9-0.546,2.86
		c-0.207-0.082-0.358-0.142-0.496-0.196c-0.145-0.906-0.283-1.772-0.426-2.668c-0.49,0-0.916,0-1.451,0
		c0.422,2.454,0.831,4.834,1.243,7.233c0.5,0,0.905,0,1.362,0c0.299-1.209,0.358-2.44,0.735-3.591
		c0.058,0.007,0.115,0.014,0.173,0.02c0.252,1.179,0.505,2.357,0.767,3.578c0.454,0,0.857,0,1.358,0
		C46.741,56.423,47.145,54.064,47.571,51.575z M48.243,58.788c1.446,0,2.848,0,4.238,0c0.202-0.933,0.158-6.596-0.044-7.118
		c-1.381,0-2.763,0-4.194,0C48.243,54.061,48.243,56.399,48.243,58.788z M59.141,55.706c0.574,0,1.102,0,1.636,0
		c0-0.482,0-0.879,0-1.305c-0.592-0.03-1.119-0.057-1.672-0.085c0-0.468,0-0.861,0-1.299c0.663-0.029,1.259-0.056,1.869-0.083
		c0-0.468,0-0.852,0-1.288c-0.836,0-1.634,0-2.451,0c-0.356,0.328-0.713,0.656-1.02,0.938c0,1.982-0.009,3.844,0.011,5.705
		c0.002,0.233,0.153,0.466,0.224,0.667c0.412,0,0.703,0,1.098,0C59.293,57.961,58.862,56.855,59.141,55.706z M54.757,57.443
		c0-2.035,0-3.935,0-5.871c-0.514,0-0.939,0-1.461,0c0,0.344,0,0.632,0,0.919c0.002,1.742,0.01,3.484,0,5.227
		c-0.001,0.317-0.074,0.634-0.116,0.969c0.475,0.192,2.99,0.234,3.718,0.031c0-0.394,0-0.793,0-1.274
		C56.192,57.443,55.542,57.443,54.757,57.443z"/>
	<path style="fill-rule:evenodd;clip-rule:evenodd;fill:#E10611;" d="M31.734,31.788c-3.23,3.017-6.506,6.076-9.865,9.213
		c-3.341-2.716-6.57-5.524-9.923-8.328c0.994-4.695,1.986-9.38,3.006-14.198c0.722,0.463,1.308,0.838,1.938,1.243
		c-0.863,4.079-1.711,8.08-2.564,12.11c2.498,2.105,4.949,4.172,7.454,6.283c3.304-3.075,6.559-6.106,9.814-9.137
		c0.046,0.024,0.093,0.049,0.14,0.073C31.734,29.913,31.734,30.778,31.734,31.788z"/>
	<path style="fill-rule:evenodd;clip-rule:evenodd;fill:#E10611;" d="M32.256,31.812c0-1.014,0-1.865,0-2.918
		c1.789,1.557,3.379,3.093,4.998,4.596c1.634,1.517,3.265,3.035,4.977,4.628c2.485-2.097,4.951-4.178,7.442-6.279
		c-0.854-4.053-1.698-8.056-2.558-12.133c0.62-0.388,1.189-0.744,1.754-1.098c0.369,0.53,2.879,11.846,3.146,14.076
		c-3.231,2.731-6.517,5.508-9.847,8.321C38.801,37.882,35.486,34.808,32.256,31.812z"/>
	<path style="fill-rule:evenodd;clip-rule:evenodd;fill:#353532;" d="M11.944,2.157c4.251,3.681,8.503,7.361,12.755,11.042
		c-0.02,0.058-0.039,0.115-0.058,0.172c-2.108,0-4.217,0-6.396,0c-0.438,1.973-0.859,3.869-1.3,5.856
		c-0.684-0.391-1.251-0.716-1.902-1.088c-1.067-5.243-2.149-10.556-3.231-15.869C11.856,2.232,11.9,2.194,11.944,2.157z"/>
	<path style="fill-rule:evenodd;clip-rule:evenodd;fill:#E10611;" d="M52.19,2.314c-1.083,5.225-2.167,10.45-3.271,15.771
		c-0.545,0.351-1.133,0.729-1.854,1.192c-0.449-1.996-0.871-3.871-1.315-5.844c-2.15,0-4.268,0-6.384,0
		c-0.029-0.072-0.057-0.143-0.085-0.215C43.524,9.545,47.769,5.873,52.013,2.2C52.072,2.238,52.131,2.276,52.19,2.314z"/>
	<path style="fill-rule:evenodd;clip-rule:evenodd;fill:#E10611;" d="M27.568,30.372c-0.226-0.054-0.453-0.101-0.677-0.162
		c-0.677-0.188-1.348-0.402-2.032-0.565c-0.523-0.124-0.873-0.447-1.11-0.887c-0.671-1.243-1.317-2.501-1.975-3.752
		c-0.394-0.749-0.793-1.496-1.19-2.245c0.057-0.05,0.113-0.101,0.169-0.151c0.208,0.171,0.439,0.319,0.619,0.516
		c0.71,0.776,1.396,1.574,2.107,2.351c0.653,0.713,1.341,1.395,1.988,2.112c0.76,0.844,1.492,1.713,2.236,2.57
		C27.658,30.229,27.613,30.3,27.568,30.372z"/>
	<path style="fill-rule:evenodd;clip-rule:evenodd;fill:#E10611;" d="M42.9,23.42c-0.068,0.195-0.119,0.398-0.208,0.584
		c-0.359,0.741-0.73,1.477-1.098,2.214c-0.414,0.829-0.811,1.668-1.255,2.48c-0.172,0.314-0.454,0.569-0.678,0.842
		c-1.069,0.27-2.104,0.531-3.145,0.793c-0.211-0.317-0.012-0.506,0.175-0.707c1.195-1.287,2.382-2.583,3.583-3.866
		c0.697-0.746,1.412-1.475,2.124-2.206c0.095-0.097,0.222-0.164,0.333-0.244C42.788,23.346,42.844,23.383,42.9,23.42z"/>
	<path style="fill-rule:evenodd;clip-rule:evenodd;fill:#353532;" d="M13.748,53.003c0.421,0,0.78,0,1.193,0c0,0.669,0,1.307,0,2.01
		c-0.391,0-0.764,0-1.193,0C13.748,54.357,13.748,53.717,13.748,53.003z"/>
	<path style="fill-rule:evenodd;clip-rule:evenodd;fill:#E10611;" d="M49.777,53.016c0.438,0,0.819,0,1.262,0
		c0,1.471,0,2.903,0,4.403c-0.393,0-0.792,0-1.262,0C49.777,55.958,49.777,54.506,49.777,53.016z"/>
</g>
</svg>
