<?xml version="1.0" encoding="iso-8859-1"?>
<!-- Generator: Adobe Illustrator 16.0.0, SVG Export Plug-In . SVG Version: 6.00 Build 0)  -->
<!DOCTYPE svg PUBLIC "-//W3C//DTD SVG 1.1//EN" "http://www.w3.org/Graphics/SVG/1.1/DTD/svg11.dtd">
<svg version="1.1" id="Layer_1" xmlns="http://www.w3.org/2000/svg" xmlns:xlink="http://www.w3.org/1999/xlink" x="0px" y="0px"
	 width="64px" height="64px" viewBox="0 0 64 64" style="enable-background:new 0 0 64 64;" xml:space="preserve">
<g>
	<path style="fill-rule:evenodd;clip-rule:evenodd;fill:#FE7F00;" d="M39.409,5.657c-0.438,2.722-0.88,5.443-1.314,8.166
		c-0.075,0.475-0.429,0.687-0.8,0.869c-0.851,0.416-1.768,0.598-2.699,0.713c-1.387,0.173-2.778,0.23-4.171,0.066
		c0.053-0.312,0.312-0.186,0.49-0.232c0.474,0.078,0.825-0.094,1.19-0.419c0.886-0.79,1.8-1.55,2.554-2.473
		c0.619-0.759,1.191-1.551,1.707-2.391c0.367-0.596,0.648-1.228,0.977-1.839c0.188-0.35,0.355-0.732,0.326-1.156
		c0.543-0.535,1.086-1.07,1.629-1.604C39.533,5.382,39.412,5.542,39.409,5.657z"/>
	<path style="fill-rule:evenodd;clip-rule:evenodd;fill:#3F3F3F;" d="M36.895,15.361c0.414-0.223,0.884-0.353,1.207-0.72
		c0.155-0.178,0.242-0.046,0.34,0.049c0.857,0.824,1.6,1.738,2.181,2.779c-0.042,0.121,0.146,0.398-0.206,0.31
		c-0.717-0.182-1.452-0.236-2.18-0.341c-0.303-0.085-0.565-0.234-0.773-0.473c-0.12-0.235-0.305-0.072-0.464-0.073
		c-0.53-0.121-1.045,0.05-1.567,0.082c-0.097-0.02-0.186-0.06-0.274-0.101c-1.161-0.265-2.336-0.303-3.521-0.274
		c-0.903,0.022-1.796,0.12-2.689,0.242c-0.276,0.038-0.529-0.086-0.789-0.146c-0.403-0.094-0.778-0.034-1.14,0.152
		c-0.26,0.264-0.589,0.398-0.933,0.508c-0.758,0.402-1.672,0.23-2.423,0.66c-0.068,0.039-0.149,0.069-0.214-0.003
		c-0.059-0.065-0.045-0.144-0.017-0.221c0.079-0.216,0.314-0.358,0.293-0.621c0.55-0.918,1.227-1.732,1.991-2.479
		c0.176-0.172,0.284-0.231,0.484-0.009c0.373,0.413,0.923,0.535,1.406,0.765c0.551,0.35,1.162,0.418,1.795,0.384
		c2.162,0.238,4.316,0.21,6.46-0.18C36.244,15.688,36.594,15.613,36.895,15.361z"/>
	<path style="fill-rule:evenodd;clip-rule:evenodd;" d="M57.031,55.637c0,0.978-0.005,1.956,0.002,2.934
		c0.005,0.62,0.023,1.239,0.045,1.859c0.016,0.447,0.131,0.847,0.585,1.089c-0.587,0-1.175,0-1.935,0
		c0.811-0.368,0.699-0.998,0.705-1.583c0.012-1.494,0.011-2.988,0.027-4.482c0.008-0.623-0.034-1.213-0.755-1.6
		c0.7-0.071,1.172,0.021,1.618,0.496c1.654,1.76,3.359,3.472,5.041,5.207c0.105,0.109,0.176,0.253,0.264,0.381
		c0.05-0.029,0.1-0.058,0.15-0.087c0-0.468,0.004-0.937-0.001-1.405c-0.012-1.017-0.02-2.034-0.045-3.051
		c-0.015-0.566,0.007-1.155-0.56-1.548c0.592,0.083,1.155,0.04,1.826-0.011c-0.552,0.439-0.586,0.987-0.603,1.542
		c-0.06,2.001-0.079,4.003-0.026,6.006c0.004,0.121,0.088,0.283-0.068,0.337c-0.135,0.047-0.209-0.112-0.295-0.198
		c-1.872-1.882-3.742-3.765-5.611-5.65c-0.088-0.089-0.153-0.203-0.229-0.305C57.122,55.591,57.076,55.614,57.031,55.637z"/>
	<path style="fill-rule:evenodd;clip-rule:evenodd;" d="M17.17,61.518c-0.09,0.005-0.181,0.011-0.271,0.016
		c0.621-0.317,0.567-0.876,0.57-1.421c0.007-1.542,0.019-3.083,0.034-4.624c0.006-0.631-0.002-1.251-0.673-1.631
		c0.61-0.035,1.093,0.009,1.548,0.497c1.646,1.767,3.354,3.477,5.042,5.204c0.104,0.106,0.175,0.263,0.385,0.3
		c0-1.246,0.005-2.477-0.003-3.708c-0.003-0.429-0.033-0.857-0.059-1.286c-0.021-0.362-0.119-0.69-0.452-0.897
		c0.084-0.217,0.242-0.099,0.377-0.083c0.246,0,0.492,0,0.738,0c0.172-0.009,0.373-0.149,0.487,0.106
		c-0.304,0.235-0.384,0.573-0.414,0.926c-0.136,1.6-0.034,3.205-0.083,4.807c-0.017,0.555,0.017,1.111,0.024,1.666
		c0.001,0.105,0.063,0.243-0.047,0.308c-0.152,0.09-0.222-0.076-0.302-0.156c-1.312-1.314-2.617-2.635-3.93-3.95
		c-0.659-0.661-1.329-1.311-1.998-1.969c-0.161,0.071-0.09,0.221-0.088,0.328c0.019,1.523,0.044,3.047,0.077,4.57
		c0.008,0.405,0.151,0.744,0.555,0.918c-0.021,0.241-0.178,0.101-0.284,0.103c-0.031,0-0.06-0.008-0.087-0.022
		C17.934,61.449,17.552,61.453,17.17,61.518z"/>
	<path style="fill-rule:evenodd;clip-rule:evenodd;" d="M6.664,53.97c-0.609,0.254-1.118,0.659-1.604,1.09
		c-0.652,0.579-1.281,1.184-1.933,1.763c-0.201,0.179-0.263,0.295-0.047,0.521c0.975,1.02,1.926,2.063,2.9,3.084
		c0.384,0.403,0.813,0.756,1.368,0.913c0.125,0.146,0.392-0.099,0.472,0.171c-0.968,0.274-1.872,0.182-2.601-0.566
		C4.344,60.046,3.51,59.109,2.646,58.2c-0.15-0.158-0.293-0.47-0.537-0.366c-0.292,0.125-0.443,0.402-0.406,0.778
		c0.058,0.583,0.065,1.173,0.073,1.76c0.006,0.472,0.108,0.879,0.711,1.144c-0.851,0-1.56,0-2.42,0
		c0.686-0.32,0.699-0.831,0.692-1.366c-0.02-1.635,0.032-3.271-0.066-4.906C0.663,54.719,0.587,54.24,0,53.886
		c0.684,0,1.246,0,1.808,0c0.145-0.014,0.325-0.152,0.393,0.109c-0.242,0.162-0.347,0.407-0.393,0.679
		c-0.152,0.906-0.081,1.818-0.106,2.846c1.003-0.915,1.954-1.715,2.729-2.697c0.214-0.271,0.318-0.58,0.24-0.931
		c0.627-0.088,1.256-0.021,1.884-0.037C6.628,53.853,6.669,53.893,6.664,53.97z"/>
	<path style="fill-rule:evenodd;clip-rule:evenodd;" d="M36.426,57.991c-0.348,0.198-0.35,0.553-0.37,0.878
		c-0.038,0.602-0.044,1.206-0.063,1.81c-0.006,0.194-0.009,0.369-0.253,0.447c-1.234,0.398-2.482,0.71-3.789,0.499
		c-1.677-0.272-2.991-1.076-3.601-2.736c-0.568-1.546,0.09-3.309,1.54-4.293c1.29-0.876,2.719-0.953,4.209-0.767
		c0.551,0.069,1.055,0.375,1.63,0.288c0.097-0.015,0.148,0.04,0.148,0.135c0.002,0.404,0.001,0.809,0.001,1.181
		c-0.27-0.231-0.512-0.478-0.789-0.673c-1.33-0.93-4.471-0.853-5.477,1.317c-0.63,1.359-0.373,2.649,0.516,3.801
		c0.863,1.119,2.021,1.546,3.419,1.241c0.31-0.067,0.608-0.188,0.92-0.248c0.402-0.078,0.562-0.313,0.547-0.703
		c-0.017-0.397-0.022-0.794-0.042-1.191c-0.021-0.415-0.136-0.785-0.538-1.077c0.508,0,1.015,0,1.522,0
		C36.125,57.871,36.311,57.749,36.426,57.991z"/>
	<path style="fill-rule:evenodd;clip-rule:evenodd;fill:#010101;" d="M47.076,53.919c-0.462,0.285-0.52,0.721-0.525,1.177
		c-0.016,1.224-0.023,2.447-0.042,3.67c-0.007,0.461-0.042,0.921-0.17,1.368c-0.25,0.875-0.837,1.363-1.729,1.481
		c-0.742,0.098-1.486,0.11-2.234,0.016c-1.385-0.176-2.082-0.908-2.105-2.296c-0.022-1.303-0.002-2.606-0.008-3.909
		c-0.003-0.819-0.051-0.934-0.604-1.543c0.753,0.049,1.454,0.052,2.272-0.014c-0.562,0.427-0.611,0.958-0.63,1.496
		c-0.046,1.319-0.048,2.638,0.016,3.956c0.059,1.236,0.592,1.78,1.817,1.888c0.462,0.041,0.923,0.008,1.378-0.073
		c0.729-0.13,1.129-0.602,1.276-1.305c0.194-0.927,0.085-1.87,0.122-2.805c0.025-0.619-0.02-1.239-0.011-1.859
		c0.007-0.531-0.117-0.975-0.66-1.246C45.857,53.923,46.458,53.915,47.076,53.919z"/>
	<path style="fill-rule:evenodd;clip-rule:evenodd;fill:#202020;" d="M17.052,31.189c0.27-0.753,0.575-1.492,0.987-2.181
		c0.167,0.203,0.167,0.203,0.018,0.579c0.974-0.65,1.921-1.285,2.904-1.866c1.071-0.634,2.248-1.02,3.369-1.533
		c0.103-0.047,0.236-0.142,0.322,0.04c-0.286,0.594-0.546,1.204-1.045,1.665c-0.523,0.19-0.954,0.55-1.441,0.811
		c-1.088,0.581-2.179,1.172-3.149,1.948c-0.471,0.377-0.975,0.712-1.398,1.147c-0.066,0.069-0.142,0.129-0.228,0.17
		c-0.126,0.06-0.262,0.173-0.397,0.076c-0.153-0.11-0.029-0.267,0.001-0.394C17.03,31.498,17.104,31.354,17.052,31.189z"/>
	<path style="fill-rule:evenodd;clip-rule:evenodd;fill:#1A1A1A;" d="M47.696,33.379c0.127,0.408,0.191,0.826,0.183,1.254
		c-0.068,0.343,0.039,0.686,0,1.029c-0.014,0.109,0.014,0.248-0.109,0.292c-0.136,0.048-0.18-0.092-0.24-0.178
		c-0.956-1.369-2.18-2.481-3.508-3.461c-0.428-0.316-0.822-0.75-1.4-0.86c-0.211-0.041-0.252-0.321-0.446-0.412
		c-0.308-0.441-0.53-0.922-0.68-1.438c0.141-0.49,0.445-0.181,0.626-0.084c0.656,0.351,1.293,0.735,1.914,1.146
		c1.182,0.783,2.229,1.72,3.223,2.721C47.435,33.566,47.554,33.593,47.696,33.379z"/>
	<path style="fill-rule:evenodd;clip-rule:evenodd;fill:#161616;" d="M42.247,31.022c0.29,0.204,0.636,0.332,0.919,0.521
		c0.776,0.521,1.525,1.095,2.225,1.716c0.742,0.661,1.437,1.38,2.068,2.152c0.105,0.13,0.164,0.3,0.268,0.494
		c0.167-0.434-0.082-0.888,0.152-1.272c0.14,0.871,0.125,1.737-0.084,2.597c-0.061-0.041-0.05-0.106-0.058-0.167
		c-0.005-0.033,0.021-0.056,0.028-0.141c-0.053,0.152-0.014,0.257-0.038,0.358c-0.146,0.243-0.288,0.128-0.411-0.015
		c-0.217-0.253-0.423-0.517-0.621-0.785c-0.867-1.171-1.959-2.115-3.052-3.061c-0.113-0.097-0.212-0.122-0.343-0.078
		c-0.088-0.023-0.166-0.14-0.271-0.033C42.694,32.572,42.285,31.86,42.247,31.022z"/>
	<path style="fill-rule:evenodd;clip-rule:evenodd;fill:#1D1D1D;" d="M17.052,31.189c0.294,0.27-0.071,0.518-0.025,0.81
		c0.564-0.128,0.851-0.627,1.259-0.939c1.077-0.822,2.195-1.556,3.39-2.202c0.593-0.32,1.263-0.562,1.743-1.084
		c0.086-0.094,0.13-0.02,0.141,0.075c-0.185,0.561-0.402,1.106-0.792,1.563c-0.845,0.688-1.911,1.023-2.753,1.717
		c-0.599,0.494-1.294,0.872-1.818,1.455c-0.515,0.574-1.212,0.988-1.523,1.744c-0.073,0.176-0.182,0.154-0.253-0.021
		c-0.074-0.208,0.094-0.418-0.008-0.626C16.5,32.818,16.75,31.997,17.052,31.189z"/>
	<path style="fill-rule:evenodd;clip-rule:evenodd;fill:#010101;" d="M52.558,53.859c-0.512,0.402-0.571,0.861-0.602,1.338
		c-0.118,1.81-0.021,3.617,0.036,5.425c0.012,0.409,0.26,0.683,0.58,0.927c-0.741-0.031-1.457-0.037-2.205,0
		c0.574-0.323,0.596-0.842,0.594-1.396c-0.01-1.667,0.025-3.333-0.062-4.999c-0.025-0.474-0.108-0.917-0.56-1.227
		C51.042,53.911,51.734,53.945,52.558,53.859z"/>
	<path style="fill-rule:evenodd;clip-rule:evenodd;fill:#010101;" d="M13.056,61.542c-0.533,0-1.067,0-1.697,0
		c0.614-0.337,0.661-0.842,0.653-1.402c-0.022-1.652,0.03-3.305-0.073-4.957c-0.03-0.492-0.102-0.945-0.572-1.259
		c0.719-0.003,1.416,0.013,2.225-0.059c-0.512,0.402-0.59,0.882-0.605,1.375c-0.052,1.764-0.051,3.527,0.047,5.29
		c0.021,0.393,0.151,0.709,0.504,0.911C13.422,61.685,13.226,61.548,13.056,61.542z"/>
	<path style="fill-rule:evenodd;clip-rule:evenodd;fill:#1D1D1D;" d="M47.696,33.379c-0.004,0.16-0.019,0.315-0.18,0.444
		c-0.593-0.651-1.253-1.229-1.913-1.809c-0.942-0.826-1.961-1.531-3.07-2.107c-0.251-0.13-0.449-0.344-0.736-0.42
		c-0.138-0.037-0.211-0.044-0.223,0.117c-0.132-0.003-0.193-0.1-0.243-0.197c-0.25-0.492-0.562-0.948-0.832-1.429
		c-0.068-0.122-0.157-0.242-0.089-0.396c0.156-0.122,0.293-0.04,0.359,0.086c0.144,0.274,0.404,0.345,0.658,0.422
		c0.705,0.216,1.307,0.644,1.934,1c1.018,0.579,1.973,1.265,2.884,2.005c0.271,0.22,0.509,0.474,0.725,0.755
		c0.102-0.185-0.226-0.471,0.159-0.561c0.236,0.519,0.396,1.06,0.47,1.625c-0.058,0.177-0.008,0.333,0.097,0.477L47.696,33.379z"/>
	<path style="fill-rule:evenodd;clip-rule:evenodd;fill:#242424;" d="M24.625,26.28c-0.499-0.018-0.865,0.33-1.305,0.479
		c-1.469,0.499-2.773,1.312-4.058,2.17c-0.441,0.294-0.853,0.647-1.362,0.871c-0.092-0.291,0.377-0.486,0.139-0.792
		c0.264-0.568,0.56-1.119,0.91-1.639c0.255,0.145,0.457,0.093,0.721-0.062c1.396-0.819,2.834-1.562,4.391-2.035
		c0.229-0.07,0.265-0.146,0.197-0.364c-0.061-0.196-0.269-0.44,0.073-0.599c0.386,0.371,0.531,0.879,0.711,1.35
		C25.146,25.93,24.962,26.204,24.625,26.28z"/>
	<path style="fill-rule:evenodd;clip-rule:evenodd;fill:#FEBB00;" d="M33.776,6.572c0.142,0.209,0.233,0.439,0.282,0.687
		c0.064,0.25,0.01,0.447-0.191,0.63c-0.186,0.17-0.327,0.388-0.46,0.604c-1.06,1.721-2.583,2.937-4.318,3.899
		c-0.818,0.455-1.734,0.692-2.639,0.928c-0.184,0.048-0.308,0.139-0.425,0.267c-0.105-0.353-0.173-0.712-0.183-1.081
		c0.795-0.434,1.703-0.559,2.526-0.929c0.63-0.283,1.167-0.692,1.747-1.042c0.679-0.41,1.222-0.971,1.726-1.535
		c0.541-0.605,1.062-1.259,1.463-1.984C33.412,6.822,33.539,6.634,33.776,6.572z"/>
	<path style="fill-rule:evenodd;clip-rule:evenodd;fill:#161616;" d="M16.4,37.414c-0.259-1.016-0.248-2.04-0.083-3.067
		c0.021-0.01,0.043-0.02,0.064-0.029c0.042,0.025,0.069,0.061,0.08,0.108c0.127,0.454,0.05,0.913,0.047,1.356
		c0.034-0.214,0.177-0.382,0.323-0.551c1.118-1.286,2.326-2.471,3.753-3.417c0.313-0.208,0.543-0.533,0.955-0.596
		c0.183-0.028,0.276-0.009,0.285,0.188c-0.062,0.275-0.039,0.585-0.321,0.768c-0.083-0.039-0.124-0.091-0.06-0.178
		c-0.085,0.04-0.06,0.124-0.072,0.19c-0.093,0.49-0.294,0.839-0.748,1.168c-1.352,0.981-2.523,2.169-3.485,3.552
		c-0.153,0.221-0.251,0.581-0.655,0.501c-0.038-0.079-0.027-0.171-0.027-0.187C16.474,37.248,16.473,37.334,16.4,37.414z"/>
	<path style="fill-rule:evenodd;clip-rule:evenodd;fill:#202020;" d="M47.129,31.29c-0.248,0.26,0.137,0.528-0.018,0.805
		c-0.255-0.011-0.272-0.272-0.407-0.405c-0.61-0.602-1.298-1.106-1.995-1.598c-0.8-0.565-1.654-1.04-2.5-1.532
		c-0.014-0.008-0.027-0.016-0.041-0.023c-0.584-0.305-1.281-0.405-1.725-0.96c-0.176-0.113-0.355-0.222-0.35-0.469
		c0.155-0.268,0.383-0.279,0.653-0.205c0.419,0.115,0.778,0.352,1.167,0.527c1.537,0.694,2.932,1.626,4.305,2.591
		c0.086,0.061,0.172,0.125,0.225,0.236c-0.107-0.302-0.316-0.553-0.33-0.878c0.027-0.07,0.064-0.122,0.152-0.089
		C46.635,29.921,46.93,30.584,47.129,31.29z"/>
	<path style="fill-rule:evenodd;clip-rule:evenodd;fill:#121212;" d="M43.302,33.298c0.058-0.132,0.13-0.285,0.288-0.123
		c0.785,0.808,1.717,1.461,2.445,2.327c0.465,0.553,0.912,1.121,1.354,1.693c0.092,0.119,0.156,0.189,0.299,0.107
		c0.032-0.045,0.064-0.047,0.098,0c-0.041,0.302,0.01,0.632-0.258,0.867c-0.048,0.019-0.06,0.063-0.082,0.104
		c-0.083,0.156,0.004,0.436-0.225,0.468c-0.248,0.035-0.387-0.197-0.492-0.39c-0.59-1.082-1.498-1.91-2.258-2.855
		c-0.213-0.266-0.564-0.345-0.825-0.551c-0.237-0.262-0.134-0.678-0.419-0.918c-0.09-0.095-0.113-0.209-0.096-0.334
		C43.164,33.551,43.186,33.404,43.302,33.298z"/>
	<path style="fill-rule:evenodd;clip-rule:evenodd;fill:#272727;" d="M24.321,24.333c-0.2,0.247,0.038,0.442,0.09,0.654
		c0.05,0.206,0.036,0.325-0.191,0.387c-1.689,0.458-3.22,1.268-4.698,2.179c-0.32,0.197-0.5,0.254-0.572-0.183
		c0.393-0.694,0.786-1.389,1.178-2.083c0.292,0.011,0.087,0.273,0.183,0.385c1.117-0.467,2.155-1.093,3.326-1.406
		c0.208-0.056,0.35-0.208,0.521-0.32C24.363,24.01,24.421,24.139,24.321,24.333z"/>
	<path style="fill-rule:evenodd;clip-rule:evenodd;fill:#9F9F9F;" d="M40.25,47.234c0.007,0.032,0.001,0.062-0.02,0.088
		c-0.102,0.014-0.203,0.015-0.305-0.01c-0.761,0.196-1.55,0.253-2.295,0.54c-0.421,0.161-0.897,0.148-1.346,0.224
		c-1.49,0.251-2.992,0.453-4.508,0.419c-0.947-0.021-1.904-0.065-2.832-0.228c-0.807-0.142-1.607-0.313-2.426-0.378
		c-0.659-0.276-1.374-0.346-2.054-0.549c-0.122-0.037-0.201,0.078-0.302,0.116c-0.066,0.023-0.133,0.024-0.2,0.005
		c-0.065-0.026-0.119-0.066-0.164-0.119c-0.074-0.258-0.417-0.281-0.482-0.548c-0.006-0.051-0.002-0.101,0.01-0.15
		c0.059-0.189,0.191-0.253,0.369-0.186c0.709,0.269,1.463,0.392,2.171,0.663c0.254,0.098,0.53,0.124,0.789,0.147
		c0.911,0.085,1.787,0.346,2.706,0.426c1.25,0.108,2.503,0.107,3.742,0.086c1.057-0.017,2.158,0.026,3.191-0.352
		c1.377-0.068,2.673-0.485,3.964-0.923c0.233-0.079,0.46-0.153,0.654,0.078c0.064,0.098,0.032,0.186-0.027,0.271
		C40.722,47.061,40.463,47.11,40.25,47.234z"/>
	<path style="fill-rule:evenodd;clip-rule:evenodd;fill:#272727;" d="M44.279,25.753c0.348,0.604,0.695,1.209,1.043,1.814
		c-0.076,0.372-0.265,0.354-0.547,0.191c-1.395-0.806-2.796-1.597-4.344-2.087c-0.266-0.083-0.565-0.144-0.733-0.402
		c-0.165-0.253,0.086-0.522-0.001-0.784c0.08-0.378,0.087-0.778,0.329-1.107c0.346,0.05,0.251,0.322,0.204,0.499
		c-0.08,0.292,0.031,0.386,0.286,0.472c1.05,0.358,2.087,0.75,3.045,1.319C43.802,25.812,44.034,25.779,44.279,25.753z"/>
	<path style="fill-rule:evenodd;clip-rule:evenodd;fill:#242424;" d="M39.777,24.524c0.026,0.038,0.084,0.092,0.074,0.111
		c-0.321,0.637,0.146,0.786,0.585,0.921c1.609,0.497,3.071,1.299,4.491,2.18c0.283,0.175,0.252-0.145,0.395-0.168
		c0.362,0.548,0.694,1.112,0.943,1.722c-0.035,0.032-0.069,0.065-0.104,0.098c-0.188,0.157-0.386,0.108-0.495-0.062
		c-0.196-0.306-0.512-0.398-0.8-0.556c-0.485-0.265-0.943-0.578-1.413-0.868c-1.03-0.636-2.13-1.123-3.261-1.52
		c-0.465-0.163-0.858-0.271-0.963-0.805C39.281,25.157,39.422,24.784,39.777,24.524z"/>
	<path style="fill-rule:evenodd;clip-rule:evenodd;fill:#010101;" d="M23.332,46.767c0.006,0.028,0.018,0.054,0.035,0.078
		c0,0.161-0.081,0.155-0.19,0.092c-1.645-0.857-3.004-2.044-4.094-3.543c-0.044-0.053-0.061-0.157-0.003-0.152
		c0.391,0.033,0.398-0.267,0.47-0.513c0.014-0.046,0.017-0.098,0.042-0.135c0.434-0.645,0.545-1.349,0.422-2.109
		c-0.027-0.167-0.036-0.396,0.226-0.454c0.118,0.026,0.159,0.117,0.187,0.22c0.035,0.305,0.005,0.617,0.101,0.915
		c0.002,0.25,0.08,0.484,0.157,0.718c0.051,0.306,0.086,0.615,0.186,0.911c0.053,0.197,0.115,0.392,0.185,0.584
		c0.049,0.167,0.106,0.33,0.191,0.483c0.115,0.25,0.241,0.496,0.368,0.74c0.08,0.165,0.187,0.313,0.287,0.465
		c0.067,0.098,0.125,0.202,0.198,0.296c0.075,0.093,0.152,0.183,0.218,0.284c0.1,0.155,0.237,0.276,0.369,0.402
		C22.894,46.292,23.182,46.467,23.332,46.767z"/>
	<path style="fill-rule:evenodd;clip-rule:evenodd;fill:#131313;" d="M16.505,37.398c0.272-0.096,0.412-0.34,0.552-0.553
		c0.955-1.453,2.197-2.643,3.581-3.653c0.453-0.331,0.471-0.733,0.677-1.109c0.022-0.04,0.007-0.195,0.131-0.09
		c0.026,0.022,0.011,0.09,0.016,0.138c-0.076,0.51-0.093,1.037-0.427,1.473c-0.102-0.006-0.072-0.108-0.115-0.164
		c0.004,0.389-0.111,0.744-0.261,1.092c-1.071,0.779-1.934,1.765-2.726,2.812c-0.321,0.425-0.537,0.93-1,1.239
		c-0.244,0.042-0.191-0.247-0.344-0.309c-0.094-0.134-0.116-0.284-0.099-0.442C16.475,37.687,16.483,37.542,16.505,37.398z"/>
	<path style="fill-rule:evenodd;clip-rule:evenodd;fill:#0D0D0D;" d="M16.59,38.274c0.279-0.108,0.137,0.245,0.295,0.269
		c0.227,0.331,0.254,0.737,0.409,1.085c0.585-1.04,1.218-2.05,2.084-2.9c0.484-0.476,0.931-0.987,0.975-1.728
		c0.009-0.145,0.011-0.369,0.264-0.379c0.035,0.035,0.06,0.076,0.075,0.124c0.054,0.278-0.06,0.537-0.092,0.805
		c-0.058,0.161-0.063,0.331-0.081,0.5c-0.005,0.049-0.015,0.097-0.028,0.144c-0.067,0.191-0.042,0.39-0.044,0.587
		c-0.018,0.284,0.047,0.574-0.061,0.85c-0.024,0.047-0.063,0.075-0.114,0.083c-0.189-0.215-0.061-0.459-0.106-0.705
		c0.268,0.924-0.505,1.38-0.902,1.986c-0.34,0.518-0.641,1.051-0.944,1.587c-0.115,0.202-0.189,0.482-0.476,0.47
		c-0.246-0.01-0.245-0.298-0.359-0.458c-0.037-0.051-0.063-0.109-0.128-0.131C17.014,39.764,16.713,39.05,16.59,38.274z"/>
	<path style="fill-rule:evenodd;clip-rule:evenodd;fill:#0F0F0F;" d="M43.685,34.918c0.462,0.144,0.839,0.367,1.097,0.82
		c0.237,0.417,0.68,0.672,0.983,1.064c0.376,0.487,0.722,0.991,1.064,1.499c0.317,0.471,0.317,0.469,0.563-0.009
		c0.026-0.051,0.09-0.082,0.135-0.123c-0.149,0.76-0.363,1.5-0.688,2.205c-0.257-0.116-0.356-0.361-0.45-0.592
		c-0.303-0.748-0.885-1.312-1.287-1.994c-0.133-0.228-0.358-0.401-0.561-0.582C43.856,36.595,43.602,35.819,43.685,34.918z"/>
	<path style="fill-rule:evenodd;clip-rule:evenodd;fill:#0C0C0C;" d="M43.685,34.918c0.068,0.354,0.19,0.693,0.2,1.063
		c0.015,0.504,0.423,0.81,0.729,1.121c0.366,0.371,0.679,0.766,0.981,1.188c0.475,0.662,0.894,1.351,1.243,2.085
		c-0.021,0.151-0.076,0.287-0.184,0.398c-0.195,0.016-0.169,0.204-0.243,0.314c-0.068,0.102-0.091,0.255-0.248,0.259
		c-0.17,0.004-0.25-0.125-0.31-0.257c-0.345-0.774-0.761-1.519-1.348-2.121c-0.495-0.508-0.559-1.074-0.491-1.715
		c-0.04-0.054-0.115,0.027-0.057,0c0.024-0.011,0.039-0.004,0.041,0.022c0.018,0.267,0.044,0.533-0.018,0.798
		c-0.052,0.023-0.1,0.016-0.143-0.02c-0.084-0.11-0.09-0.241-0.096-0.372c-0.006-0.254,0.028-0.512-0.057-0.762
		c-0.061-0.248-0.006-0.51-0.092-0.755c-0.035-0.148-0.038-0.299-0.039-0.45c0-0.169,0.012-0.34-0.102-0.487
		c-0.088-0.417-0.357-0.809-0.166-1.261C43.674,34.18,43.521,34.615,43.685,34.918z"/>
	<path style="fill-rule:evenodd;clip-rule:evenodd;fill:#FE9900;" d="M28.419,15.183c-0.266-0.013-0.525-0.054-0.758-0.195
		c-0.028-0.101,0.036-0.164,0.113-0.172c0.451-0.05,0.828-0.305,1.248-0.444c0.772-0.255,1.438-0.732,2.102-1.188
		c0.588-0.402,1.165-0.846,1.645-1.363c0.533-0.575,1.118-1.121,1.509-1.822c0.148-0.265,0.281-0.568,0.635-0.639
		c0.268,0.207,0.293-0.183,0.474-0.19c0.24,0.03,0.239,0.169,0.146,0.338c-0.124,0.222-0.199,0.473-0.36,0.67
		c-0.64,0.785-1.264,1.579-1.974,2.309c-0.559,0.573-1.218,1.01-1.81,1.534c-0.556,0.492-1.285,0.738-1.934,1.099
		C29.141,15.295,28.764,15.141,28.419,15.183z"/>
	<path style="fill-rule:evenodd;clip-rule:evenodd;fill:#010101;" d="M40.814,46.831c0.046-0.054,0.092-0.108,0.138-0.163
		c0.073-0.198,0.26-0.3,0.386-0.453c0.141-0.134,0.277-0.272,0.382-0.438c0.086-0.122,0.196-0.223,0.284-0.343
		c0.234-0.326,0.445-0.667,0.646-1.013c0.121-0.169,0.207-0.356,0.271-0.554c0.034-0.098,0.078-0.191,0.115-0.288
		c0.039-0.097,0.055-0.2,0.069-0.303c0.032-0.194,0.166-0.349,0.213-0.538c0.037-0.103,0.06-0.209,0.083-0.315
		c0.051-0.169,0.076-0.348,0.173-0.501c0.097-0.13,0.091-0.291,0.132-0.438c0.072-0.2,0.014-0.424,0.115-0.618
		c0.03-0.046,0.072-0.062,0.125-0.048c0.21,0.191,0.156,0.439,0.117,0.666c-0.051,0.297,0.007,0.558,0.137,0.822
		c0.236,0.477,0.483,0.953,0.537,1.496c-1.032,1.329-2.298,2.378-3.791,3.153C40.84,46.983,40.8,46.936,40.814,46.831z"/>
	<path style="fill-rule:evenodd;clip-rule:evenodd;fill:#090909;" d="M17.356,40.463c0.079-0.265,0.125-0.045,0.161,0.016
		c0.359,0.609,0.397,0.629,0.701,0.003c0.339-0.7,0.837-1.297,1.19-1.986c0.111-0.217,0.395-0.292,0.527-0.53
		c0.185-0.33,0.199-0.682,0.301-1.037c0,0.261,0,0.522,0,0.784c0.221,0.69,0.123,1.39,0.063,2.087
		c-0.148,0.168-0.211,0.081-0.215-0.085c-0.01-0.408-0.003-0.815-0.004-1.224c-0.079,0-0.001,0.086,0.002,0.109
		c0.127,0.882-0.165,1.641-0.652,2.356c-0.311,0.456-0.621,0.921-0.645,1.507c-0.004,0.111-0.076,0.206-0.181,0.265
		C18.087,42.029,17.662,41.279,17.356,40.463z"/>
	<path style="fill-rule:evenodd;clip-rule:evenodd;fill:#FEAF00;" d="M34.338,7.929c0.027,0.065,0.056,0.129,0.084,0.194
		c-0.078,0.568-0.32,1.048-0.74,1.448c-0.379,0.361-0.662,0.807-0.999,1.207c-0.855,1.017-1.958,1.707-3.063,2.374
		c-0.867,0.523-1.858,0.807-2.838,1.082c-0.316,0.088-0.52-0.033-0.671-0.294c-0.072-0.244,0.036-0.326,0.271-0.38
		c1.64-0.378,3.144-1.072,4.492-2.073c0.854-0.634,1.588-1.403,2.194-2.284c0.226-0.327,0.493-0.62,0.731-0.936
		C33.926,8.098,34.09,7.931,34.338,7.929z"/>
	<path style="fill-rule:evenodd;clip-rule:evenodd;fill:#FE9000;" d="M28.419,15.183c0.106-0.136,0.258-0.105,0.396-0.098
		c0.411,0.022,0.786-0.051,1.088-0.357c0.216-0.219,0.528-0.254,0.786-0.403c1.223-0.708,2.237-1.674,3.169-2.693
		c0.602-0.657,1.233-1.344,1.61-2.196c0.074-0.168-0.054-0.181-0.082-0.267c0.223-0.223,0.445-0.445,0.668-0.667
		c0.136,0.006,0.261-0.208,0.386-0.063c0.133,0.153,0.037,0.326-0.048,0.484c-0.796,1.471-1.789,2.783-2.966,3.979
		c-0.775,0.79-1.666,1.41-2.54,2.063c-0.417,0.312-0.885,0.468-1.413,0.405c-0.196,0.007-0.39,0.002-0.569-0.09
		C28.761,15.15,28.565,15.289,28.419,15.183L28.419,15.183z"/>
	<path style="fill-rule:evenodd;clip-rule:evenodd;fill:#2A2A2A;" d="M44.279,25.753c-0.17,0.27-0.363,0.25-0.623,0.1
		c-1.063-0.62-2.2-1.075-3.369-1.451c-0.231-0.075-0.297-0.175-0.205-0.398c0.085-0.207,0.145-0.42-0.016-0.624
		c-0.178-0.212-0.035-0.425-0.001-0.638c0.105-0.386,0.017-0.783,0.064-1.172c0.015-0.119,0.021-0.284,0.182-0.275
		c0.117,0.006,0.141,0.156,0.155,0.264c0.035,0.25,0.025,0.501,0.014,0.751c0.018,0.316-0.151,0.679-0.015,0.934
		c0.146,0.271,0.569,0.167,0.862,0.275c0.739,0.275,1.477,0.545,2.148,0.956c-0.055-0.059-0.109-0.137-0.146-0.225
		c-0.049-0.118-0.1-0.237-0.098-0.366c0.002-0.105-0.01-0.237,0.166-0.218C43.691,24.361,43.985,25.057,44.279,25.753z"/>
	<path style="fill-rule:evenodd;clip-rule:evenodd;fill:#FE8A00;" d="M29.473,15.371c0.407-0.136,0.853-0.136,1.219-0.415
		c0.86-0.655,1.776-1.226,2.535-2.022c0.537-0.565,1.025-1.176,1.591-1.715c0.13-0.124,0.205-0.278,0.286-0.432
		c0.325-0.62,0.841-1.121,1.098-1.791c0.055-0.145,0.238-0.276,0.197-0.445c-0.053-0.222-0.256,0.189-0.345-0.049
		c0.409-0.391,0.818-0.781,1.228-1.171c0.336,0.246,0.138,0.512,0.005,0.748c-0.278,0.494-0.577,0.977-0.806,1.498
		c-0.315,0.72-0.773,1.342-1.295,1.926c-0.368,0.413-0.682,0.87-1.049,1.288c-0.908,1.035-1.958,1.881-3.138,2.578
		c-0.191,0.033-0.41-0.082-0.574,0.103C30.103,15.479,29.782,15.477,29.473,15.371z"/>
	<path style="fill-rule:evenodd;clip-rule:evenodd;fill:#FEA800;" d="M26.141,13.938c0.359,0.415,0.767,0.151,1.126,0.038
		c0.674-0.213,1.362-0.429,1.981-0.761c0.701-0.376,1.366-0.825,2.018-1.292c1.018-0.729,1.704-1.759,2.542-2.65
		c0.312-0.332,0.358-0.794,0.613-1.15c-0.028,0.197,0.187,0.294,0.195,0.476c-0.039,0.78-0.615,1.258-1.049,1.803
		c-0.869,1.099-1.913,2.019-3.082,2.789c-0.608,0.401-1.291,0.667-1.945,0.983c-0.256,0.124-0.539,0.188-0.779,0.35
		c-0.038,0.023-0.079,0.041-0.121,0.054c-0.311-0.008-0.619,0.12-0.932,0.02c-0.264-0.104-0.487-0.252-0.584-0.537
		C26.09,14.015,26.096,13.974,26.141,13.938z"/>
	<path style="fill-rule:evenodd;clip-rule:evenodd;fill:#FEB500;" d="M26.141,13.938c-0.005,0.041-0.011,0.081-0.016,0.122
		c-0.117-0.141-0.099-0.309-0.1-0.474c0.025-0.168-0.012-0.279,0.274-0.352c1.719-0.435,3.338-1.067,4.714-2.273
		c0.618-0.542,1.193-1.115,1.743-1.713c0.369-0.401,0.61-0.917,0.942-1.354c0.153-0.201,0.318-0.379,0.359-0.636
		c0.137,0.206,0.228,0.43,0.279,0.67c-0.906,0.828-1.488,1.934-2.369,2.78c-0.672,0.646-1.379,1.271-2.239,1.653
		c-0.677,0.301-1.263,0.816-2.016,0.925c-0.503,0.072-0.917,0.428-1.446,0.398C26.1,13.677,26.148,13.835,26.141,13.938z"/>
	<path style="fill-rule:evenodd;clip-rule:evenodd;fill:#2B2B2B;" d="M24.146,23.942c0.009,0.207-0.102,0.323-0.291,0.377
		c-1.251,0.355-2.404,0.938-3.55,1.536c-0.049,0.025-0.125,0.039-0.172,0.02c-0.076-0.031-0.042-0.104-0.023-0.165
		c0.042-0.139,0.205-0.273,0.018-0.422c0.055-0.209,0.139-0.405,0.264-0.582c0.888-0.734,1.971-1.057,3.026-1.439
		c0.21-0.076,0.301-0.208,0.305-0.421c0.005-0.252,0.002-0.504-0.006-0.757c0.014-0.286-0.045-0.578,0.072-0.854
		c0.031-0.054,0.077-0.072,0.136-0.056c0.186,0.154,0.138,0.37,0.148,0.568c0.02,0.391-0.036,0.784,0.04,1.172
		c0.024,0.097,0.032,0.196,0.027,0.295c-0.06,0.222-0.005,0.442,0.015,0.662C24.151,23.897,24.148,23.92,24.146,23.942z"/>
	<path style="fill-rule:evenodd;clip-rule:evenodd;fill:#080808;" d="M43.954,38.097c0-0.295,0-0.591,0-0.887
		c-0.093,0.99,0.608,1.585,1.112,2.267c0.349,0.472,0.627,0.981,0.879,1.506c0.053,0.108,0.038,0.282,0.203,0.279
		c0.152-0.002,0.141-0.19,0.226-0.272c0.083-0.082,0.028-0.357,0.281-0.217c-0.246,0.611-0.552,1.19-0.954,1.714
		c-0.227,0.044-0.432,0.008-0.492-0.242c-0.166-0.684-0.665-1.185-0.986-1.782c-0.191-0.357-0.304-0.681-0.285-1.069
		c0.01-0.176-0.012-0.349-0.067-0.517C43.852,38.612,43.773,38.34,43.954,38.097z"/>
	<path style="fill-rule:evenodd;clip-rule:evenodd;fill:#313131;" d="M40.348,22.424c0-0.34,0-0.681,0-1.021
		c-0.2,0.456,0.04,0.957-0.188,1.405c-0.135-0.116-0.146-0.277-0.143-0.433c0.015-0.582-0.048-1.159-0.094-1.737
		c0.003-0.094,0.014-0.189,0.055-0.275c0.082-0.172,0.22-0.171,0.252-0.001c0.107,0.575,0.582,0.641,1.01,0.784
		c0.134,0.045,0.279,0.07,0.4,0.139c0.305,0.174,0.573,0.164,0.815-0.104c0.239,0.458,0.431,0.935,0.567,1.433
		c-0.037,0.167,0.063,0.307,0.088,0.461c0.018,0.101,0.111,0.217-0.02,0.3c-0.108,0.07-0.217,0.004-0.31-0.053
		C42.031,22.856,41.164,22.708,40.348,22.424z"/>
	<path style="fill-rule:evenodd;clip-rule:evenodd;fill:#FE7F01;" d="M25.167,8.604c-0.203-1.101-0.407-2.201-0.61-3.301
		c0.032-0.021,0.063-0.042,0.094-0.063c0.845,0.833,1.689,1.666,2.533,2.5c0.001,0.016,0.008,0.042,0.002,0.045
		c-0.551,0.292-1.06,0.749-1.746,0.562c-0.16-0.044-0.069,0.055-0.071,0.062C25.338,8.513,25.33,8.636,25.167,8.604z"/>
	<path style="fill-rule:evenodd;clip-rule:evenodd;fill:#FEB500;" d="M33.776,6.572c-0.551,0.697-1.057,1.434-1.562,2.158
		c-0.41,0.587-1.123,0.866-1.386,1.552c-1.375,0.827-2.704,1.75-4.332,2.037c-0.16,0.028-0.324,0.075-0.41,0.213
		c-0.122,0.197-0.165-0.017-0.245-0.026c-0.08-0.149-0.099-0.309-0.085-0.475c0.04-0.119,0.104,0.162,0.141-0.008
		c0.037-0.167,0.18-0.153,0.301-0.173c1.71-0.277,3.152-1.092,4.469-2.184c0.841-0.697,1.482-1.558,2.106-2.436
		c0.202-0.284,0.31-0.622,0.48-0.925c0.079-0.14,0.154-0.233,0.324-0.201C33.693,6.24,33.754,6.399,33.776,6.572z"/>
	<path style="fill-rule:evenodd;clip-rule:evenodd;fill:#FE8500;" d="M30.999,15.368c0.141-0.266,0.405-0.416,0.642-0.542
		c0.774-0.416,1.359-1.069,1.996-1.633c0.431-0.382,0.859-0.856,1.161-1.398c0.245-0.44,0.647-0.763,0.942-1.177
		c0.5-0.706,0.791-1.506,1.188-2.258c0.057-0.108,0.148-0.199,0.227-0.296c0.18-0.221,0.264-0.458,0.127-0.733
		c0.104-0.15,0.223-0.283,0.387-0.371c0.008,0.099,0.259,0.029,0.146,0.217c-0.148,0.25-0.1,0.597-0.258,0.802
		c-0.4,0.521-0.529,1.166-0.889,1.712c-0.491,0.75-0.966,1.509-1.51,2.223c-0.432,0.566-0.866,1.134-1.414,1.593
		c-0.591,0.496-1.152,1.027-1.718,1.546C31.682,15.37,31.367,15.355,30.999,15.368z"/>
	<path style="fill-rule:evenodd;clip-rule:evenodd;fill:#2E2E2E;" d="M23.845,22.139c0.109,0.736-0.005,1.26-0.905,1.438
		c-0.672,0.133-1.299,0.501-1.944,0.767c-0.133,0.055-0.225,0.128-0.254,0.3c-0.047,0.283-0.206,0.196-0.351,0.06
		c0.185-0.649,0.399-1.288,0.681-1.901c0.611,0.23,1.122-0.134,1.658-0.3C23.103,22.388,23.465,22.237,23.845,22.139z"/>
	<path style="fill-rule:evenodd;clip-rule:evenodd;fill:#FEAB00;" d="M33.299,5.428c0.133,0.171,0.203,0.366,0.217,0.581
		c-0.454,0.484-0.755,1.076-1.125,1.618c-0.513,0.752-1.162,1.369-1.814,1.989c-0.509,0.484-1.11,0.825-1.705,1.189
		c-0.72,0.44-1.521,0.614-2.308,0.833c-0.286,0.079-0.542,0.21-0.817,0.299c-0.084-0.15-0.102-0.312-0.086-0.479
		c0.058-0.095-0.018-0.234,0.102-0.309c0.838,0.032,1.583-0.301,2.316-0.632c1.754-0.791,3.105-2.051,4.149-3.658
		C32.513,6.419,32.828,6,33.02,5.507C33.086,5.388,33.199,5.432,33.299,5.428z"/>
	<path style="fill-rule:evenodd;clip-rule:evenodd;fill:#2D2D2D;" d="M40.348,22.424c0.128-0.066,0.253-0.117,0.4-0.039
		c0.696,0.373,1.553,0.358,2.182,0.897c0.029,0.024,0.084,0.018,0.125,0.026c0.08-0.244-0.275-0.455-0.031-0.696
		c0.171,0.335,0.316,0.678,0.375,1.053c-0.213,0.357,0.16,0.602,0.179,0.959c-0.813-0.414-1.626-0.781-2.48-1.042
		c-0.148-0.045-0.294-0.147-0.458-0.092c-0.377,0.127-0.435-0.075-0.349-0.36C40.361,22.893,40.329,22.659,40.348,22.424z"/>
	<path style="fill-rule:evenodd;clip-rule:evenodd;fill:#040404;" d="M43.97,38.924c0.03,0.054,0.093,0.113,0.085,0.16
		c-0.16,0.906,0.414,1.542,0.844,2.216c0.155,0.244,0.326,0.494,0.367,0.753c0.047,0.302,0.229,0.353,0.436,0.434
		c-0.293,0.459-0.557,0.939-0.963,1.315c-0.276-0.62-0.552-1.241-0.83-1.861c-0.096-0.212,0.078-0.394,0.06-0.596
		c-0.017-0.18,0.068-0.382-0.109-0.529c-0.191-0.29-0.107-0.612-0.113-0.924C43.877,39.584,43.749,39.213,43.97,38.924z"/>
	<path style="fill-rule:evenodd;clip-rule:evenodd;fill:#050505;" d="M18.604,42.728c0.026-1.094,0.763-1.88,1.243-2.768
		c0.169-0.313,0.167-0.593,0.182-0.9c0.011-0.233,0.002-0.468,0.029-0.703c0.17,0.498-0.072,1.033,0.168,1.521
		c0.048,0.06,0.056,0.122,0.011,0.186c-0.207,0.337-0.123,0.696-0.061,1.044c0.037,0.207,0.078,0.406-0.014,0.6
		c-0.248,0.521-0.545,1.019-0.665,1.597c-0.042,0.203-0.16,0.192-0.284,0.022c-0.081-0.11-0.122-0.026-0.133,0.066
		C18.883,43.2,18.724,42.979,18.604,42.728z"/>
	<path style="fill-rule:evenodd;clip-rule:evenodd;fill:#FEB000;" d="M25.747,11.937c0.129-0.235,0.332-0.332,0.595-0.389
		c0.549-0.121,1.116-0.224,1.627-0.444c1.821-0.784,3.29-2.005,4.38-3.673c0.266-0.407,0.604-0.765,0.812-1.214
		c0.062-0.134,0.2-0.199,0.354-0.208c0.021,0.032,0.043,0.063,0.064,0.095c-0.273,0.112-0.318,0.416-0.418,0.621
		c-0.591,1.213-1.454,2.197-2.458,3.067c-1.172,1.016-2.516,1.712-4.018,2.119c-0.256,0.069-0.67-0.174-0.764,0.31
		c-0.055-0.063-0.11-0.126-0.166-0.189C25.754,12,25.75,11.969,25.747,11.937z"/>
	<path style="fill-rule:evenodd;clip-rule:evenodd;fill:#313131;" d="M23.845,22.139c-0.456,0.39-1.063,0.422-1.583,0.661
		c-0.155,0.071-0.361,0.06-0.489,0.159c-0.318,0.245-0.514,0.102-0.702-0.155c0.111-0.432,0.273-0.844,0.479-1.239
		c0.597-0.001,1.115-0.265,1.639-0.5c0.262-0.118,0.479-0.15,0.656,0.121C23.846,21.503,23.846,21.821,23.845,22.139z"/>
	<path style="fill-rule:evenodd;clip-rule:evenodd;fill:#FE9F00;" d="M34.912,9.359c-0.629,0.817-1.223,1.666-1.9,2.44
		c-0.39,0.446-0.926,0.761-1.38,1.154c-0.65,0.563-1.411,0.959-2.151,1.369c-0.559,0.309-1.209,0.449-1.819,0.665
		c-0.146,0.03-0.256-0.06-0.375-0.117c-0.01-0.261,0.221-0.271,0.375-0.36c0.89-0.198,1.643-0.691,2.44-1.098
		c0.973-0.497,1.793-1.188,2.542-1.944c0.745-0.753,1.481-1.542,1.937-2.531c0.03-0.065,0.081-0.091,0.151-0.06
		C34.84,9.02,34.917,9.174,34.912,9.359z"/>
	<path style="fill-rule:evenodd;clip-rule:evenodd;fill:#3B3B3B;" d="M23.724,17.168c0.188,0.111,0.039,0.201-0.013,0.307
		c-0.075,0.153-0.23,0.265-0.249,0.53c0.57-0.454,1.221-0.426,1.839-0.474c0.292-0.023,0.413-0.42,0.739-0.264
		c0.003,0.343-0.319,0.453-0.498,0.654c-0.289,0.327-0.438,0.768-0.827,1.009c-0.593-0.023-1.095,0.295-1.642,0.443
		c-0.207,0.056-0.418,0.137-0.467-0.19C22.903,18.47,23.296,17.81,23.724,17.168z"/>
	<path style="fill-rule:evenodd;clip-rule:evenodd;fill:#353535;" d="M42.456,21.18c-0.11,0.065-0.069,0.151-0.045,0.247
		c0.054,0.216-0.058,0.255-0.237,0.192c-0.567-0.2-1.131-0.412-1.701-0.599c-0.362-0.119-0.189-0.493-0.395-0.723
		c-0.013,0.101-0.023,0.176-0.033,0.251c-0.318-0.229-0.307-0.592-0.375-0.923c0.037-0.12,0.014-0.336,0.242-0.206
		c0.639,0.364,1.334,0.529,2.053,0.623C42.207,20.388,42.277,20.807,42.456,21.18z"/>
	<path style="fill-rule:evenodd;clip-rule:evenodd;fill:#FE9B01;" d="M29.366,8.755c0.057-0.341,0.231-0.633,0.388-0.933
		c0.199-0.041,0.327-0.186,0.458-0.321c0.84-0.868,1.572-1.813,2.019-2.95c0.094-0.239,0.312-0.349,0.485-0.506
		c0.187,0.243,0.281,0.524,0.335,0.822c-0.462,0.255-0.591,0.756-0.833,1.165c-0.652,1.104-1.436,2.083-2.494,2.823
		C29.435,9.058,29.418,9.046,29.366,8.755z"/>
	<path style="fill-rule:evenodd;clip-rule:evenodd;fill:#393939;" d="M41.965,20.042c-0.357,0.213-0.688,0.042-1.014-0.086
		c-0.26-0.101-0.49-0.273-0.799-0.159c-0.227,0.085-0.18-0.157-0.246-0.254c-0.109-0.162-0.12-0.062-0.142,0.041
		c-0.354-0.219-0.398-0.614-0.542-0.953c0.016-0.13,0.022-0.203,0.221-0.198c0.502,0.013,0.98,0.117,1.449,0.266
		c0.134-0.189-0.248-0.44,0.104-0.562C41.383,18.74,41.72,19.368,41.965,20.042z"/>
	<path style="fill-rule:evenodd;clip-rule:evenodd;fill:#353535;" d="M23.846,21.186c-0.25-0.115-0.466-0.147-0.722,0.054
		c-0.317,0.25-0.785,0.174-1.121,0.448c-0.089,0.073-0.334,0.045-0.452-0.123c0.14-0.576,0.43-1.088,0.687-1.615
		c0.256,0.334,0.564,0.346,0.915,0.161c0.125-0.066,0.262-0.108,0.4-0.139c0.424-0.093,0.574,0.006,0.701,0.455
		c0.001,0.165,0.01,0.333-0.111,0.468c-0.018,0.168-0.156-0.167-0.166,0.041C23.966,21.037,23.926,21.122,23.846,21.186
		L23.846,21.186z"/>
	<path style="fill-rule:evenodd;clip-rule:evenodd;fill:#3C3C3C;" d="M40.996,18.138c-0.24,0.295,0.271,0.43,0.136,0.729
		c-0.411-0.099-0.827-0.211-1.249-0.293c-0.191-0.037-0.404-0.104-0.59,0.046c-0.432-0.339-0.814-0.72-1.056-1.224
		c0.451-0.108,0.892,0.024,1.325,0.098c0.285,0.048,0.59,0.037,0.861,0.184c0.291,0.158,0.027-0.237,0.198-0.21
		C40.776,17.675,40.928,17.883,40.996,18.138z"/>
	<path style="fill-rule:evenodd;clip-rule:evenodd;fill:#373737;" d="M24.141,20.441c0.004-0.388-0.22-0.458-0.535-0.365
		c-0.227,0.067-0.442,0.171-0.667,0.245c-0.355,0.116-0.73,0.25-0.701-0.371c0.086-0.273,0.206-0.53,0.369-0.766
		c0.359,0.341,0.668-0.016,0.954-0.12c0.338-0.124,0.695-0.159,1.026-0.292c0.074-0.03,0.106,0.036,0.117,0.102
		C24.599,19.425,24.568,20.004,24.141,20.441z"/>
	<path style="fill-rule:evenodd;clip-rule:evenodd;fill:#FEA201;" d="M34.73,8.878c-0.359,0.649-0.673,1.344-1.27,1.812
		c-0.35,0.273-0.449,0.712-0.803,0.977c-0.653,0.49-1.228,1.097-1.918,1.52c-0.873,0.535-1.758,1.079-2.764,1.365
		c-0.124,0.035-0.214,0.004-0.315-0.041c0.046-0.111,0.135-0.178,0.244-0.213c0.615-0.197,1.161-0.551,1.756-0.787
		c0.701-0.278,1.258-0.767,1.838-1.207c1.068-0.809,1.911-1.852,2.731-2.902c0.179-0.229,0.261-0.533,0.387-0.803
		C34.655,8.692,34.692,8.785,34.73,8.878z"/>
	<path style="fill-rule:evenodd;clip-rule:evenodd;fill:#FEA101;" d="M29.366,8.755c0.017,0.141,0.043,0.204,0.199,0.089
		c1.093-0.805,1.993-1.771,2.593-3.002c0.156-0.319,0.425-0.572,0.525-0.933c0.058-0.208,0.241-0.042,0.368-0.042
		c0.02,0.034,0.041,0.068,0.061,0.103c-0.45,1.066-1.071,2.024-1.836,2.89c-0.116,0.132-0.195,0.285-0.293,0.428
		c-0.028,0.037-0.061,0.067-0.098,0.095c-0.482,0.273-0.804,0.746-1.271,1.038c-0.167,0.104-0.32,0.274-0.548,0.133
		c-0.021-0.045-0.017-0.087,0.015-0.126C29.137,9.186,29.23,8.962,29.366,8.755z"/>
	<path style="fill-rule:evenodd;clip-rule:evenodd;fill:#FE9101;" d="M30.035,7.138c0.07-0.417,0.272-0.78,0.471-1.145
		c0.405-0.861,1.248-1.46,1.449-2.445c0.042-0.204,0.146-0.389,0.395-0.416c0.1,0.12,0.156,0.257,0.174,0.412
		c0.008,0.454-0.226,0.845-0.415,1.217c-0.458,0.901-1.071,1.709-1.781,2.436c-0.072,0.074-0.133,0.202-0.266,0.146
		C29.968,7.304,30.008,7.212,30.035,7.138z"/>
	<path style="fill-rule:evenodd;clip-rule:evenodd;fill:#FEA001;" d="M29.081,9.427c0.004,0.042,0.007,0.083,0.011,0.125
		c0.006,0.291-0.219,0.38-0.422,0.5c-0.799,0.467-1.683,0.679-2.574,0.868c-0.079,0.017-0.153,0.034-0.204,0.101
		c-0.037,0.059-0.085,0.108-0.137,0.152c-0.003,0.104,0.017,0.216-0.094,0.285c-0.081-0.182-0.114-0.373-0.097-0.571
		c-0.032-0.383,0.168-0.548,0.52-0.658c0.706-0.221,1.434-0.386,2.079-0.776c0.248-0.15,0.514-0.134,0.772-0.008
		C28.983,9.438,29.032,9.433,29.081,9.427z"/>
	<path style="fill-rule:evenodd;clip-rule:evenodd;fill:#FE8C03;" d="M32.351,3.133c-0.312,0.221-0.319,0.598-0.441,0.908
		c-0.141,0.358-0.329,0.674-0.584,0.952c-0.241,0.262-0.528,0.484-0.559,0.886c-0.006,0.074-0.091,0.263-0.26,0.115
		c0.487-1.215,0.974-2.43,1.492-3.722C32.176,2.601,32.292,2.854,32.351,3.133z"/>
	<path style="fill-rule:evenodd;clip-rule:evenodd;fill:#FE9601;" d="M30.035,7.138c0.022,0.078-0.005,0.219,0.143,0.062
		c0.726-0.773,1.379-1.605,1.864-2.545c0.182-0.352,0.277-0.758,0.482-1.11c0.174,0.125,0.052,0.362,0.191,0.5
		c0.066,0.334-0.311,0.362-0.419,0.625c-0.509,1.232-1.283,2.298-2.304,3.17c-0.071,0.06-0.182,0.272-0.238-0.018
		C29.804,7.576,29.896,7.347,30.035,7.138z"/>
	<path style="fill-rule:evenodd;clip-rule:evenodd;fill:#FE8F01;" d="M25.366,9.743c-0.092-0.179-0.102-0.373-0.099-0.569
		c0.038-0.305,0.3-0.338,0.517-0.409c0.49-0.16,1.027-0.174,1.469-0.489c0.243-0.173,0.382,0.16,0.598,0.141
		c0.139-0.015,0.091,0.162,0.191,0.187c0.061,0.243-0.094,0.355-0.281,0.417c-0.606,0.199-1.16,0.58-1.836,0.532
		C25.708,9.536,25.591,9.793,25.366,9.743z"/>
	<path style="fill-rule:evenodd;clip-rule:evenodd;fill:#FE8901;" d="M27.85,8.417c-0.922,0.044-1.766,0.354-2.583,0.757
		c-0.101-0.178-0.093-0.375-0.1-0.569c0.099-0.214,0.218-0.302,0.5-0.315c0.543-0.026,0.998-0.396,1.517-0.549
		C27.478,7.895,27.617,8.202,27.85,8.417z"/>
	<path style="fill-rule:evenodd;clip-rule:evenodd;fill:#FE9A01;" d="M28.935,9.444c-0.408-0.023-0.742,0.148-1.104,0.327
		c-0.511,0.252-1.075,0.41-1.631,0.553c-0.334,0.085-0.551,0.23-0.636,0.563c-0.085-0.182-0.113-0.373-0.098-0.572
		c0.01-0.263,0.114-0.454,0.393-0.509c0.888-0.175,1.708-0.561,2.566-0.828C28.66,9.061,28.792,9.259,28.935,9.444z"/>
	<path style="fill-rule:evenodd;clip-rule:evenodd;fill:#FE9500;" d="M28.425,8.978c-0.12,0.235-0.385,0.307-0.581,0.352
		c-0.612,0.139-1.154,0.497-1.788,0.548c-0.292,0.023-0.479,0.175-0.59,0.437c-0.142-0.171-0.094-0.376-0.1-0.571
		c0.217-0.2,0.429-0.292,0.764-0.327c0.691-0.072,1.388-0.278,1.912-0.813C28.274,8.62,28.241,8.91,28.425,8.978z"/>
	<path style="fill-rule:evenodd;clip-rule:evenodd;fill:#FD4106;" d="M35.098,5.926c0.15-0.25,0.3-0.5,0.502-0.838
		c0.271,0.721,0.579,1.323,0.743,1.983c-0.059,0.079-0.144,0.167-0.226,0.073c-0.299-0.34-0.662-0.612-0.963-0.948
		C35.09,6.124,35.103,6.02,35.098,5.926z"/>
	<path style="fill-rule:evenodd;clip-rule:evenodd;fill:#DE2E01;" d="M34.6,6.679c0.104-0.155,0.207-0.31,0.312-0.465
		c0.474,0.496,1.067,0.888,1.347,1.554c-0.104,0.149-0.226,0.28-0.387,0.37C35.347,7.74,34.959,7.222,34.6,6.679z"/>
	<path style="fill-rule:evenodd;clip-rule:evenodd;fill:#CD2502;" d="M34.6,6.679c0.494,0.425,0.895,0.933,1.271,1.459
		c-0.061,0.06-0.122,0.119-0.184,0.179c-0.193,0.113-0.318-0.016-0.437-0.135c-0.108-0.109-0.214-0.218-0.364-0.27
		c-0.082-0.047-0.139-0.114-0.16-0.209c-0.062-0.208-0.168-0.388-0.342-0.523C34.265,6.931,34.514,6.84,34.6,6.679z"/>
	<path style="fill-rule:evenodd;clip-rule:evenodd;fill:#F13802;" d="M36.258,7.768c-0.407-0.554-1.02-0.931-1.347-1.554
		C34.938,6.096,35.002,6,35.098,5.926c0.292,0.466,0.805,0.725,1.114,1.176c0.009,0.013,0.086-0.02,0.131-0.031
		C36.44,7.319,36.697,7.586,36.258,7.768z"/>
	<path style="fill-rule:evenodd;clip-rule:evenodd;fill:#FEA500;" d="M30.904,8.311c0.021-0.317,0.275-0.487,0.447-0.709
		c0.613-0.791,1.249-1.566,1.552-2.547c0.014-0.045,0.136-0.057,0.208-0.085c0.105,0.136,0.166,0.29,0.188,0.459
		c-0.055,0.119-0.131,0.04-0.201,0.022c-0.39,0.816-0.922,1.543-1.458,2.263C31.453,7.964,31.293,8.291,30.904,8.311z"/>
	<path style="fill-rule:evenodd;clip-rule:evenodd;fill:#F43B04;" d="M27.656,7.656c-0.166-0.092-0.141-0.227-0.083-0.369
		c0.147-0.362,0.295-0.725,0.443-1.087c0.27,0.078,0.452-0.046,0.6-0.256c0.054-0.076,0.016-0.238,0.188-0.207
		c0.058,0.101,0.203,0.139,0.204,0.281c-0.009,0.181-0.074,0.347-0.209,0.461C28.378,6.835,28.097,7.323,27.656,7.656z"/>
	<path style="fill-rule:evenodd;clip-rule:evenodd;fill:#C11F04;" d="M29.665,7.071c-0.129,0.318-0.258,0.636-0.388,0.954
		c-0.229,0.188-0.133,0.652-0.566,0.667c-0.186-0.074-0.284-0.23-0.376-0.394c0.255-0.52,0.729-0.846,1.115-1.249
		C29.505,6.992,29.598,7.01,29.665,7.071z"/>
	<path style="fill-rule:evenodd;clip-rule:evenodd;fill:#E93402;" d="M27.656,7.656c0.17-0.417,0.521-0.698,0.814-1.012
		c0.188-0.202,0.356-0.418,0.537-0.625c0.096,0.074,0.159,0.169,0.187,0.288c-0.006,0.229-0.166,0.366-0.308,0.511
		c-0.338,0.344-0.633,0.731-1.032,1.013C27.771,7.791,27.684,7.757,27.656,7.656z"/>
	<path style="fill-rule:evenodd;clip-rule:evenodd;fill:#DE2E02;" d="M27.854,7.83c0.35-0.593,0.931-0.982,1.34-1.523
		C29.29,6.38,29.35,6.477,29.38,6.594C29.271,7.084,28.837,7.3,28.516,7.61c-0.158,0.152-0.256,0.43-0.566,0.312
		C27.918,7.891,27.886,7.86,27.854,7.83z"/>
	<path style="fill-rule:evenodd;clip-rule:evenodd;fill:#FD4207;" d="M28.803,5.737c-0.081,0.206-0.192,0.376-0.361,0.539
		c-0.226,0.216-0.307,0.066-0.426-0.077c0.129-0.334,0.258-0.669,0.409-1.061C28.617,5.34,28.754,5.508,28.803,5.737z"/>
	<path style="fill-rule:evenodd;clip-rule:evenodd;fill:#D22803;" d="M27.95,7.922c0.555-0.358,0.998-0.837,1.43-1.328
		c0.096,0.074,0.157,0.171,0.188,0.287c-0.31,0.393-0.692,0.719-1.015,1.099c-0.106,0.125-0.233,0.215-0.411,0.129
		C28.078,8.047,28.015,7.984,27.95,7.922z"/>
	<path style="fill-rule:evenodd;clip-rule:evenodd;fill:#BA1C0A;" d="M34.813,7.643c0.003,0.079,0.02,0.15,0.097,0.192
		C35.175,8,35.399,8.199,35.487,8.514c-0.094,0.145-0.212,0.263-0.397,0.366c-0.161-0.41-0.387-0.781-0.48-1.207
		c-0.021-0.044-0.032-0.095,0.018-0.118C34.717,7.513,34.768,7.577,34.813,7.643z"/>
	<path style="fill-rule:evenodd;clip-rule:evenodd;fill:#CA2506;" d="M28.142,8.109c0.533-0.161,0.709-0.717,1.122-1.015
		c0.1-0.072,0.192-0.157,0.304-0.214c0.072,0.043,0.119,0.1,0.097,0.19c-0.439,0.159-0.606,0.613-0.953,0.875
		c-0.137,0.103-0.252,0.234-0.377,0.353C28.271,8.235,28.207,8.172,28.142,8.109z"/>
	<path style="fill-rule:evenodd;clip-rule:evenodd;fill:#393A39;" d="M29.401,15.829c-0.295,0.272-0.604,0.038-0.896,0.001
		c-0.323-0.04-0.644-0.146-0.947-0.271c-0.224-0.091,0.019-0.079,0.048-0.115c0.439,0.068,0.834,0.33,1.295,0.305
		c0.15,0.113,0.338-0.001,0.493,0.083L29.401,15.829z"/>
	<path style="fill-rule:evenodd;clip-rule:evenodd;fill:#616161;" d="M6.664,53.97c-0.661-0.121-1.33-0.01-1.993-0.078
		c0.021-0.106,0.104-0.103,0.182-0.095c0.672,0.065,1.346,0.031,2.035-0.009C6.85,53.961,6.759,53.968,6.664,53.97z"/>
	<path style="fill-rule:evenodd;clip-rule:evenodd;fill:#FEA201;" d="M27.661,14.51c-0.125,0.12-0.25,0.24-0.375,0.36
		c-0.209-0.054-0.408-0.131-0.577-0.273C27.027,14.571,27.33,14.388,27.661,14.51z"/>
	<path style="fill-rule:evenodd;clip-rule:evenodd;fill:#393938;" d="M36.895,15.361c0.041,0.019,0.081,0.037,0.121,0.055
		c-0.158,0.207-0.855,0.347-1.154,0.233C36.206,15.553,36.551,15.457,36.895,15.361z"/>
	<path style="fill-rule:evenodd;clip-rule:evenodd;fill:#BA1F0E;" d="M28.711,8.692c0.315-0.115,0.292-0.518,0.566-0.667
		c-0.075,0.216-0.154,0.432-0.226,0.65C28.951,8.981,28.832,8.827,28.711,8.692z"/>
	<path style="fill-rule:evenodd;clip-rule:evenodd;fill:#C52409;" d="M35.487,8.514c-0.192-0.227-0.385-0.453-0.577-0.679
		c0.384-0.041,0.406,0.501,0.777,0.482C35.621,8.383,35.554,8.448,35.487,8.514z"/>
	<path style="fill-rule:evenodd;clip-rule:evenodd;fill:#2A2A2A;" d="M23.841,47.312c-0.06,0.001-0.119,0.002-0.178,0.003
		c-0.099-0.208-0.354-0.214-0.487-0.378c0.069-0.018,0.152-0.009,0.19-0.092C23.534,46.991,23.85,46.987,23.841,47.312z"/>
	<path style="fill-rule:evenodd;clip-rule:evenodd;fill:#2F2F2F;" d="M40.814,46.831c0.045,0.042,0.089,0.083,0.133,0.125
		c-0.201,0.171-0.422,0.292-0.697,0.278C40.395,47.039,40.615,46.949,40.814,46.831z"/>
	<path style="fill-rule:evenodd;clip-rule:evenodd;fill:#232323;" d="M17.17,61.518c0.382-0.138,0.764-0.137,1.146,0.002
		C17.934,61.519,17.552,61.519,17.17,61.518z"/>
	<path style="fill-rule:evenodd;clip-rule:evenodd;fill:#232323;" d="M7.82,61.511c-0.121-0.158-0.356,0.001-0.472-0.171
		c0.258-0.017,0.518,0.006,0.822-0.125C8.096,61.49,7.95,61.489,7.82,61.511z"/>
	<path style="fill-rule:evenodd;clip-rule:evenodd;fill:#C52409;" d="M34.813,7.643c-0.073-0.021-0.153-0.094-0.204,0.03
		c-0.074-0.165-0.149-0.329-0.225-0.493C34.619,7.25,34.773,7.395,34.813,7.643z"/>
	<path style="fill-rule:evenodd;clip-rule:evenodd;fill:#040404;" d="M16.505,37.398c0.112,0.148,0.04,0.29-0.014,0.433
		c-0.097-0.125-0.094-0.271-0.091-0.417c0.011-0.103,0.022-0.206,0.035-0.321C16.545,37.189,16.486,37.301,16.505,37.398z"/>
	<path style="fill-rule:evenodd;clip-rule:evenodd;fill:#0D0D0D;" d="M47.695,33.391c-0.213-0.122-0.281-0.274-0.097-0.477
		C47.683,33.063,47.709,33.223,47.695,33.391z"/>
	<path style="fill-rule:evenodd;clip-rule:evenodd;fill:#0D0D0D;" d="M16.413,33.68c0.175,0.203,0.055,0.444,0.089,0.666
		c-0.031,0.047-0.063,0.044-0.094,0l0,0c-0.082-0.169-0.055-0.342-0.014-0.514C16.401,33.782,16.407,33.731,16.413,33.68z"/>
	<path style="fill-rule:evenodd;clip-rule:evenodd;fill:#A1A1A1;" d="M36.426,57.991c-0.125-0.189-0.324,0-0.469-0.092
		c0.133-0.115,0.297-0.1,0.446-0.081C36.52,57.834,36.563,57.915,36.426,57.991z"/>
	<path style="fill-rule:evenodd;clip-rule:evenodd;fill:#626262;" d="M24.895,53.991c-0.132-0.175-0.339-0.006-0.487-0.106
		c0.151-0.092,0.326-0.083,0.483-0.067C25.052,53.835,25.041,53.928,24.895,53.991z"/>
	<path style="fill-rule:evenodd;clip-rule:evenodd;fill:#616161;" d="M13.056,61.542c0.148-0.093,0.347,0.057,0.482-0.101
		c0.119,0.04,0.171,0.13,0.025,0.163C13.401,61.64,13.218,61.627,13.056,61.542z"/>
	<path style="fill-rule:evenodd;clip-rule:evenodd;fill:#737373;" d="M2.201,53.995c-0.094-0.17-0.277-0.019-0.393-0.109
		c0.125-0.091,0.278-0.094,0.408-0.062C2.352,53.858,2.324,53.946,2.201,53.995z"/>
	<path style="fill-rule:evenodd;clip-rule:evenodd;fill:#565656;" d="M23.669,53.885c-0.116,0.073-0.271-0.03-0.377,0.083
		c-0.091-0.049-0.17-0.13-0.012-0.158C23.401,53.789,23.539,53.857,23.669,53.885z"/>
	<path style="fill-rule:evenodd;clip-rule:evenodd;fill:#FEA85B;" d="M39.409,5.657c-0.046-0.097,0.021-0.236-0.112-0.302
		c0.029-0.073,0.107-0.171,0.154-0.113C39.56,5.373,39.488,5.524,39.409,5.657z"/>
	<path style="fill-rule:evenodd;clip-rule:evenodd;fill:#FE9900;" d="M28.418,15.182c0.165,0.017,0.352-0.071,0.485,0.099
		C28.734,15.282,28.565,15.285,28.418,15.182z"/>
	<path style="fill-rule:evenodd;clip-rule:evenodd;fill:#6D6D6D;" d="M40.157,47.427c-0.06,0-0.119,0-0.179,0
		c-0.086,0.033-0.117-0.015-0.132-0.087c0.039-0.105,0.153-0.061,0.22-0.113c0.055,0.032,0.109,0.064,0.164,0.096
		C40.207,47.357,40.182,47.392,40.157,47.427z"/>
	<path style="fill-rule:evenodd;clip-rule:evenodd;fill:#050505;" d="M47.785,37.303c-0.033,0-0.065,0-0.098,0
		c0-0.12,0-0.239,0-0.381c0.15,0.089,0.061,0.218,0.107,0.308C47.813,37.258,47.811,37.282,47.785,37.303z"/>
	<path style="fill-rule:evenodd;clip-rule:evenodd;fill:#1A1A1A;" d="M16.395,33.833c0.005,0.171,0.009,0.343,0.014,0.514
		c-0.031,0-0.061,0-0.091,0C16.303,34.169,16.298,33.994,16.395,33.833z"/>
	<path style="fill-rule:evenodd;clip-rule:evenodd;fill:#8B8B8B;" d="M18.402,61.542c0.083-0.066,0.227,0.035,0.284-0.103
		c0.071,0.007,0.13,0.059,0.081,0.113C18.653,61.677,18.523,61.612,18.402,61.542z"/>
	<path style="fill-rule:evenodd;clip-rule:evenodd;fill:#3F3F3F;" d="M29.394,15.833c-0.169,0-0.351,0.077-0.493-0.083
		C29.07,15.745,29.24,15.741,29.394,15.833z"/>
	<path style="fill-rule:evenodd;clip-rule:evenodd;fill:#FEFEFE;" d="M24.141,20.441c0.228-0.508,0.285-1.078,0.563-1.568
		c0.383-0.587,0.815-1.133,1.336-1.606c0.326-0.152,0.653-0.304,0.979-0.456c0.656-0.376,1.287-0.114,1.921,0.076
		c0.137,0.049,0.259,0.127,0.387,0.194c0.617,0.37,1.058,0.91,1.445,1.502c0.048,0.077,0.091,0.157,0.133,0.237
		c0.243,0.513,0.47,1.033,0.568,1.596c0.049,0.283,0.167,0.39,0.474,0.375c0.623-0.031,0.62-0.011,0.805-0.616
		c0.102-0.331,0.198-0.664,0.346-0.979c0.11-0.197,0.209-0.401,0.308-0.604c0.298-0.424,0.555-0.882,0.967-1.215
		c0.348-0.138,0.59-0.504,1.016-0.476c0.563-0.168,1.135-0.213,1.714-0.1c0.141-0.042,0.255-0.003,0.341,0.115
		c0.266,0.161,0.529,0.321,0.794,0.481c0.409,0.358,0.755,0.771,1.056,1.224c0.157,0.321,0.314,0.642,0.472,0.963
		c0.021,0.343,0.177,0.646,0.28,0.964c0.099,0.75,0.145,1.503,0.115,2.26c-0.027,0.191-0.154,0.366-0.094,0.572
		c-0.096,0.382-0.192,0.763-0.289,1.145c-0.17,0.345-0.341,0.69-0.512,1.036c-0.018,0.338,0.25,0.527,0.408,0.773
		c0.168,0.262,0.434,0.467,0.465,0.808c0,0.216,0.291,0.228,0.305,0.434c0.377,0.676,0.754,1.352,1.131,2.028
		c0.225,0.473,0.448,0.945,0.673,1.418c0.284,0.768,0.567,1.536,0.851,2.304c0.121,0.092,0.148,0.212,0.104,0.354
		c-0.007,0.107,0.006,0.209,0.088,0.289c0.017,0.432,0.163,0.835,0.268,1.248c0.173,0.129,0.004,0.341,0.119,0.484
		c0.006,0.146,0.01,0.291,0.016,0.437c0.006,0.169,0.18,0.385-0.131,0.466c-0.07-0.085-0.092-0.188-0.109-0.292
		c-0.043-0.146-0.07-0.295-0.091-0.446c-0.015-0.078-0.028-0.156-0.038-0.235c-0.037-0.297-0.161-0.349-0.402-0.166
		c-0.48,0.364-0.969,0.713-1.482,1.034c-1.837,1.148-3.817,1.887-5.938,2.335c-1.925,0.407-3.853,0.432-5.773,0.195
		c-1.698-0.208-3.36-0.625-4.926-1.379c-1.218-0.586-2.391-1.231-3.465-2.054c-0.326-0.25-0.413-0.216-0.511,0.169
		c-0.027,0.108-0.04,0.219-0.073,0.325c-0.027,0.199-0.045,0.398-0.101,0.592c-0.011,0.13-0.012,0.261-0.053,0.387
		c-0.066,0.089-0.135,0.273-0.221,0.023c-0.039-0.112-0.008-0.243-0.009-0.366c0.022-0.188-0.049-0.385,0.047-0.567l0.024-0.029
		l-0.014-0.034c0.091-0.159-0.022-0.354,0.087-0.509c-0.05-0.289,0.179-0.543,0.103-0.834c0.178-0.368,0.073-0.829,0.376-1.157
		c0.157-0.488,0.314-0.976,0.472-1.464c0.222-0.188,0.135-0.503,0.296-0.716c0.195-0.739,0.392-1.479,0.943-2.054
		c0.286-0.504,0.572-1.008,0.858-1.513c0.45-0.459,0.623-1.104,1.065-1.568c0.382-0.297,0.417-0.612,0.131-1.02
		c-0.193-0.276-0.293-0.616-0.435-0.927c-0.013-0.151-0.014-0.307-0.175-0.391l0.003,0.006c-0.13-0.219-0.048-0.468-0.1-0.698
		c-0.007-0.084-0.013-0.168-0.02-0.252c-0.098-0.609,0.01-1.225-0.057-1.835c-0.016-0.093,0.004-0.174,0.078-0.238
		C24.145,20.775,24.143,20.608,24.141,20.441z"/>
	<path style="fill-rule:evenodd;clip-rule:evenodd;fill:#3D3D3D;" d="M28.994,16.997c-0.642-0.237-1.295-0.347-1.975-0.186
		c-0.24-0.05-0.126-0.126-0.001-0.158c0.459-0.119,0.923-0.218,1.389-0.033c0.539,0.214,1.073,0.03,1.596-0.049
		c0.684-0.104,1.374-0.007,2.049-0.11c0.767-0.117,1.509,0.139,2.274,0.092c0.277-0.017,0.604,0.08,0.869,0.247
		c-0.092,0.273-0.324,0.32-0.561,0.318c-0.697-0.007-1.393,0.003-2.093-0.053c-0.947-0.075-1.899,0.09-2.85,0.104
		c-0.072,0.014-0.145,0.015-0.217,0.001C29.312,17.122,29.18,16.983,28.994,16.997z"/>
	<path style="fill-rule:evenodd;clip-rule:evenodd;fill:#3C3C3C;" d="M29.568,17.085c0.058-0.024,0.118-0.074,0.174-0.07
		c1.066,0.068,2.123-0.235,3.198-0.05c0.458,0.079,0.945,0.03,1.416-0.004c0.281-0.021,0.617,0.181,0.84-0.161
		c0.082,0.002,0.153,0.022,0.193,0.102c-0.319,0.186-0.639,0.372-0.958,0.558c-0.51,0.345-1.087,0.202-1.63,0.182
		c-0.461-0.017-0.915-0.062-1.373,0.025c-0.425,0.08-0.857,0.006-1.281-0.008C29.879,17.648,29.6,17.44,29.568,17.085z"/>
	<path style="fill-rule:evenodd;clip-rule:evenodd;fill:#3D3D3D;" d="M37.443,16.916c-0.113-0.038-0.227-0.076-0.341-0.115
		c0.091-0.133,0.2-0.094,0.313-0.033C37.484,16.806,37.554,16.843,37.443,16.916z"/>
	<path style="fill-rule:evenodd;clip-rule:evenodd;fill:#101010;" d="M43.201,33.68c-0.079-0.104-0.105-0.225-0.104-0.354
		c0.029-0.285,0.132-0.051,0.204-0.028C43.288,33.43,43.348,33.582,43.201,33.68z"/>
	<path style="fill-rule:evenodd;clip-rule:evenodd;fill:#1A1A1A;" d="M22.701,29.361c-0.409,0.642-0.553,1.404-0.943,2.054
		c-0.239-0.145-0.465-0.047-0.641,0.094c-1.115,0.9-2.318,1.701-3.269,2.789c-0.489,0.56-1.128,1.009-1.44,1.76
		c0-0.571,0-1.142,0-1.712c0.031,0,0.063,0,0.094,0c0.72-1.168,1.751-2.025,2.825-2.841c0.835-0.635,1.684-1.26,2.642-1.69
		c0.289-0.129,0.481-0.268,0.626-0.532C22.638,29.205,22.688,29.3,22.701,29.361z"/>
	<path style="fill-rule:evenodd;clip-rule:evenodd;fill:#222222;" d="M40.139,27.142c-0.305-0.401-0.609-0.801-0.912-1.204
		c-0.101-0.134-0.171-0.272,0.039-0.377c0.186,0.674,0.844,0.641,1.32,0.828c1.449,0.568,2.822,1.267,4.107,2.146
		c0.143,0.098,0.298,0.208,0.461,0.239c0.259,0.049,0.438,0.152,0.527,0.406c0.082,0.232,0.289,0.211,0.48,0.208
		c0.122,0.274,0.244,0.548,0.365,0.824c0.042,0.098,0.127,0.232-0.033,0.274c-0.156,0.042-0.065-0.151-0.115-0.188
		c-0.523-0.379-1.054-0.75-1.587-1.116c-1.095-0.751-2.273-1.354-3.47-1.918C40.958,27.092,40.576,26.748,40.139,27.142z"/>
	<path style="fill-rule:evenodd;clip-rule:evenodd;fill:#A5A5A5;" d="M23.332,46.767c-0.315-0.154-0.522-0.424-0.74-0.683
		c0.244-0.307,0.517-0.142,0.757-0.019c0.454,0.232,0.924,0.391,1.433,0.431c0.833,0.301,1.711,0.439,2.57,0.619
		c0.653,0.137,1.331,0.278,2.011,0.288c0.743,0.011,1.486-0.017,2.221,0.144c0.669,0.146,1.316-0.134,1.98-0.137
		c0.695-0.063,1.4,0.054,2.088-0.149c0.238-0.07,0.494-0.053,0.74,0.005c0.137,0.114,0.029,0.176-0.053,0.243
		c-0.385,0.244-0.805,0.317-1.256,0.289c-0.571-0.037-1.134,0.045-1.69,0.17c-0.353,0.079-0.681-0.125-1.035-0.08
		c-1.309,0.167-2.616-0.033-3.912-0.137c-0.607-0.048-1.252-0.214-1.876-0.345c-0.458-0.097-0.894-0.267-1.348-0.359
		c-0.535-0.108-1.052-0.269-1.542-0.492C23.38,46.417,23.454,46.712,23.332,46.767z"/>
	<path style="fill-rule:evenodd;clip-rule:evenodd;fill:#9C9C9C;" d="M40.066,47.227c-0.061,0.032-0.12,0.063-0.18,0.095
		c-0.361,0.38-0.855,0.466-1.33,0.552c-0.734,0.132-1.466,0.269-2.186,0.464c-0.386,0.104-0.783,0.116-1.178,0.15
		c-0.909,0.08-1.826,0.089-2.726,0.272c-0.202,0.041-0.424,0.063-0.616,0.009c-0.752-0.208-1.53-0.121-2.293-0.233
		c-0.636-0.093-1.288-0.1-1.932-0.188c-0.476-0.065-0.909-0.27-1.382-0.328c-0.11-0.014-0.261-0.07-0.195-0.254
		c0.131-0.085,0.254-0.065,0.372,0.028c0.829-0.006,1.631,0.106,2.435,0.345c0.51,0.152,1.083,0.075,1.625,0.134
		c1.169,0.129,2.326,0.019,3.493-0.035c0.752-0.035,1.469-0.228,2.203-0.3c0.529-0.053,1.107-0.064,1.642-0.305
		c0.633-0.286,1.375-0.222,2.03-0.487C39.902,47.125,39.993,47.197,40.066,47.227z"/>
	<path style="fill-rule:evenodd;clip-rule:evenodd;fill:#A5A5A5;" d="M36.34,47.508c0.031-0.063,0.063-0.127,0.096-0.191
		c0.069-0.08,0.163-0.087,0.26-0.087c0.408,0.053,0.755-0.128,1.105-0.296c0.992-0.321,2.014-0.537,3-0.872
		c0.164-0.056,0.336-0.114,0.504,0c0.059,0.056,0.088,0.124,0.086,0.206c-0.112,0.17-0.258,0.305-0.438,0.402
		c-0.467-0.304-0.885,0.014-1.274,0.162c-0.605,0.229-1.23,0.337-1.848,0.5C37.335,47.46,36.848,47.538,36.34,47.508z"/>
	<path style="fill-rule:evenodd;clip-rule:evenodd;fill:#9C9C9C;" d="M24.609,47.603c-0.182,0-0.346-0.053-0.49-0.167
		c0.122-0.226,0.243-0.254,0.529-0.18c0.48,0.124,0.949,0.329,1.457,0.344c0.14,0.004,0.3-0.017,0.317,0.193
		c-0.127,0-0.255,0-0.382,0c-0.419,0.217-0.81,0.077-1.195-0.099C24.768,47.66,24.725,47.541,24.609,47.603z"/>
	<path style="fill-rule:evenodd;clip-rule:evenodd;fill:#DEDEDE;" d="M43.883,39.88c-0.009,0.313-0.017,0.625-0.024,0.938
		l0.002-0.002c-0.026,0.061-0.04,0.135-0.13,0.135c-0.162-0.325-0.373-0.318-0.658-0.136c-1.059,0.673-2.232,1.112-3.364,1.637
		c-0.933,0.043-1.762,0.486-2.654,0.68c-0.751,0.163-1.484,0.447-2.276,0.361c-0.789,0.019-1.578,0-2.366,0.05
		c-0.855,0.055-1.71-0.081-2.566-0.027c-1.054-0.13-2.106-0.279-3.127-0.587c-1.297-0.393-2.609-0.721-3.845-1.32
		c-0.699-0.339-1.383-0.704-2.07-1.064c-0.278-0.146-0.14,0.063-0.164,0.145c-0.041,0.19,0.083,0.448-0.221,0.524
		c-0.091-0.311-0.13-0.627-0.105-0.951c0.131-0.176-0.089-0.396,0.073-0.568c0.119-0.07,0.212,0.002,0.306,0.058
		c1.679,1.001,3.506,1.678,5.307,2.411c0.301,0.123,0.636,0.011,0.935,0.145c0.147,0.091,0.283,0.186,0.466,0.22
		c1.574,0.301,3.152,0.574,4.761,0.554c1.623-0.02,3.21-0.308,4.799-0.629c1.409-0.286,2.702-0.888,4.043-1.358
		c0.486-0.17,0.922-0.485,1.38-0.732c0.44-0.237,0.871-0.5,1.33-0.704C43.861,39.662,43.793,39.831,43.883,39.88z"/>
	<path style="fill-rule:evenodd;clip-rule:evenodd;fill:#CECECE;" d="M20.782,42.84c-0.131-0.302-0.248-0.606-0.187-0.946
		c0.009-0.023,0.019-0.047,0.027-0.071c0.279-0.226,0.504-0.021,0.737,0.096c0.919,0.463,1.862,0.908,2.826,1.226
		c1.104,0.364,2.247,0.653,3.377,0.953c1.098,0.291,2.193,0.247,3.29,0.316c1.569,0.099,3.143,0.002,4.705-0.115
		c0.788-0.059,1.58-0.302,2.342-0.564c0.585-0.201,1.183-0.351,1.782-0.489c0.288-0.067,0.521-0.229,0.779-0.344
		c0.896-0.398,1.83-0.711,2.665-1.239c0.118-0.074,0.25-0.15,0.398-0.058c0.143,0.221,0.018,0.406-0.078,0.596
		c-0.887,0.485-1.748,1.015-2.734,1.3c-0.498,0.144-0.998,0.306-1.458,0.559c-0.069,0.039-0.138,0.097-0.214,0.103
		c-0.637,0.049-1.209,0.414-1.842,0.421c-0.853,0.01-1.633,0.357-2.473,0.433c-2.444,0.22-4.87,0.234-7.273-0.345
		c-0.292-0.07-0.6-0.058-0.894-0.13c-0.949-0.354-1.915-0.662-2.876-0.978c-0.715-0.235-1.363-0.589-2.034-0.906
		c-0.172-0.082-0.34-0.167-0.528-0.21c-0.15-0.034-0.151,0.063-0.149,0.165C20.952,42.723,20.971,42.87,20.782,42.84z"/>
	<path style="fill-rule:evenodd;clip-rule:evenodd;fill:#ADADAD;" d="M22.243,45.691c-0.07-0.094-0.139-0.188-0.208-0.281
		c0.065-0.346,0.307-0.317,0.548-0.243c0.622,0.191,1.216,0.456,1.829,0.671c0.882,0.311,1.783,0.552,2.72,0.634
		c0.048-0.001,0.095,0.003,0.142,0.01c0.182,0.054,0.375,0.044,0.56,0.086c0.049,0.011,0.095,0.028,0.141,0.048
		c0.865,0.288,1.789,0.132,2.664,0.352c0.393,0.098,0.781-0.107,1.181-0.068c1.088,0.106,2.173,0.016,3.254-0.098
		c0.513-0.054,1.016-0.173,1.521-0.275c0.137,0.01,0.271,0.026,0.345,0.166c0.014,0.116-0.033,0.208-0.109,0.291
		c-0.796,0.341-1.653,0.363-2.496,0.432c-0.263,0.021-0.533,0.043-0.802,0.041c-1.373,0.011-2.752,0.061-4.117-0.064
		c-1.023-0.094-2.045-0.275-3.056-0.518c-0.672-0.161-1.336-0.369-2.021-0.478c-0.567-0.051-1-0.462-1.545-0.585
		C22.61,45.771,22.432,45.707,22.243,45.691z"/>
	<path style="fill-rule:evenodd;clip-rule:evenodd;fill:#C1C1C1;" d="M21.166,43.889c-0.111-0.14-0.177-0.298-0.193-0.476
		c0.008-0.079,0.016-0.158-0.006-0.236c-0.082-0.292,0.074-0.3,0.279-0.226c0.343,0.123,0.688,0.257,1.006,0.426
		c0.646,0.344,1.334,0.597,2.005,0.863c0.633,0.251,1.336,0.37,2.014,0.519c1.098,0.24,2.177,0.578,3.306,0.664
		c0.235,0.102,0.575,0.002,0.68,0.353c-0.527,0.27-1.078,0.152-1.596,0.021c-0.704-0.177-1.421-0.188-2.129-0.292
		c-0.095,0.011-0.189,0.005-0.282-0.015c-1.452-0.392-2.907-0.784-4.258-1.465C21.711,43.884,21.469,43.775,21.166,43.889z"/>
	<path style="fill-rule:evenodd;clip-rule:evenodd;fill:#C6C6C6;" d="M29.569,45.505c-0.74,0.066-1.425-0.208-2.128-0.353
		c-0.863-0.177-1.708-0.442-2.566-0.637c-1.137-0.258-2.125-0.845-3.185-1.268c-0.214-0.085-0.428-0.171-0.648-0.259
		c-0.07,0.139,0.145,0.319-0.069,0.425c-0.113-0.174-0.177-0.365-0.19-0.572c0.121-0.065,0.106-0.182,0.108-0.292
		c0.239-0.057,0.438,0.076,0.626,0.172c1.105,0.563,2.278,0.953,3.435,1.387c0.435,0.163,0.89,0.228,1.339,0.328
		c0.416,0.145,0.827,0.286,1.276,0.319c0.453,0.033,0.907,0.106,1.346,0.245c0.412,0.13,0.836,0.107,1.263,0.116
		c0.35,0.008,0.793-0.154,1.013,0.317c-0.336,0.209-0.703,0.261-1.072,0.138C29.932,45.509,29.751,45.529,29.569,45.505z"/>
	<path style="fill-rule:evenodd;clip-rule:evenodd;fill:#BBBBBB;" d="M21.166,43.889c0.203-0.271,0.372-0.271,0.689-0.082
		c0.557,0.333,1.186,0.529,1.804,0.748c0.852,0.3,1.733,0.515,2.571,0.855c-0.013,0.02-0.026,0.04-0.039,0.06
		c-0.152,0.138-0.341,0.147-0.531,0.153c-0.989-0.048-1.873-0.465-2.772-0.813c-0.369-0.143-0.771-0.188-1.119-0.395
		c-0.075-0.044-0.067,0.069-0.071,0.125c0,0.045-0.013,0.085-0.036,0.123c-0.042,0.024-0.081,0.021-0.117-0.012
		C21.368,44.422,21.237,44.17,21.166,43.889z"/>
	<path style="fill-rule:evenodd;clip-rule:evenodd;fill:#B2B2B2;" d="M21.654,44.646c0-0.032,0-0.063,0-0.096
		c-0.011-0.183,0.121-0.115,0.176-0.076c0.519,0.37,1.164,0.453,1.71,0.757c1.011,0.402,2.019,0.808,3.113,0.941
		c0.219,0.027,0.471,0.094,0.532,0.382c-0.57,0.128-1.085-0.126-1.617-0.242c-1.054-0.231-2.035-0.681-3.038-1.063
		c-0.213-0.082-0.363,0.006-0.496,0.161c-0.099-0.072-0.168-0.163-0.197-0.284C21.868,44.931,21.64,44.835,21.654,44.646z"/>
	<path style="fill-rule:evenodd;clip-rule:evenodd;fill:#D7D7D7;" d="M20.418,41.212c0.166-0.168,0.061-0.38,0.091-0.571
		c0.445,0.006,0.715,0.378,1.094,0.523c0.484,0.411,1.093,0.591,1.639,0.885c0.14,0.075,0.354,0.083,0.322,0.329
		c-0.138,0.116-0.312,0.131-0.478,0.167c-0.125,0.009-0.241-0.011-0.332-0.106c-0.554-0.525-1.23-0.833-1.937-1.084
		c-0.046-0.017-0.084,0.025-0.093,0.08c-0.003,0.154-0.02,0.304-0.115,0.432l-0.015,0.028
		C20.418,41.698,20.419,41.455,20.418,41.212z"/>
	<path style="fill-rule:evenodd;clip-rule:evenodd;fill:#A9A9A9;" d="M22.243,45.691c0.104-0.158,0.22-0.175,0.393-0.082
		c0.453,0.245,0.98,0.329,1.406,0.64c0.043,0.032,0.124,0.014,0.187,0.019c0.108,0.18,0.455-0.037,0.477,0.286
		c-0.507,0.069-0.94-0.146-1.363-0.373c-0.246-0.132-0.481-0.207-0.75-0.098C22.442,45.982,22.328,45.849,22.243,45.691z"/>
	<path style="fill-rule:evenodd;clip-rule:evenodd;fill:#EDEDED;" d="M20.414,39.688c-0.032,0.191,0.081,0.408-0.101,0.573
		c-0.025-0.065-0.05-0.131-0.074-0.197c-0.003-0.062-0.007-0.124-0.011-0.186c0.003-0.722,0.006-1.443,0.009-2.165
		c0.021-0.021,0.042-0.042,0.064-0.063c0.269,0.269,0.07,0.633,0.193,0.932c0.022,0.079,0.034,0.159,0.041,0.241
		c0.005,0.108,0.01,0.216,0.009,0.325C20.532,39.334,20.57,39.535,20.414,39.688z"/>
	<path style="fill-rule:evenodd;clip-rule:evenodd;fill:#B6B6B6;" d="M21.654,44.646c0.069,0.157,0.353,0.232,0.184,0.479
		c-0.138-0.133-0.24-0.289-0.292-0.475C21.582,44.65,21.618,44.648,21.654,44.646z"/>
	<path style="fill-rule:evenodd;clip-rule:evenodd;fill:#101010;" d="M20.604,34.632c-0.03,0.053-0.087,0.105-0.088,0.159
		c-0.014,1.054-0.729,1.709-1.377,2.392c-0.734,0.773-1.295,1.657-1.767,2.604c-0.018,0.036-0.04,0.071-0.085,0.15
		c-0.164-0.487-0.388-0.908-0.401-1.395c0.646-0.671,1.049-1.535,1.69-2.201c0.626-0.65,1.148-1.433,2.027-1.805
		c0.02,0.021,0.027,0.042,0.021,0.063C20.617,34.622,20.61,34.632,20.604,34.632z"/>
	<path style="fill-rule:evenodd;clip-rule:evenodd;fill:#0F0F0F;" d="M20.604,34.632c0-0.032-0.001-0.064-0.001-0.096
		c0.047-0.403,0.179-0.781,0.349-1.259c0.021,0.173,0.03,0.245,0.039,0.317c-0.177,0.369-0.047,0.837-0.376,1.157
		C20.61,34.712,20.607,34.672,20.604,34.632z"/>
	<path style="fill-rule:evenodd;clip-rule:evenodd;fill:#F4F4F4;" d="M20.413,38.638c-0.201-0.311-0.027-0.665-0.112-0.989
		c0.01-0.294,0.02-0.588,0.029-0.883c0.008-0.038,0.032-0.059,0.07-0.063c0.006,0.125-0.022,0.266,0.028,0.368
		c0.054,0.105,0.062-0.019,0.082-0.054c0.506-0.003,0.789,0.419,1.18,0.633c1.095,0.599,2.154,1.261,3.349,1.661
		c0.629,0.211,1.226,0.517,1.877,0.671c0.136,0.032,0.276,0.091,0.296,0.268c-0.304,0.35-0.669,0.153-0.957,0.033
		c-0.817-0.342-1.669-0.594-2.47-0.978c-0.972-0.466-1.887-1.029-2.806-1.588c-0.14-0.084-0.32-0.311-0.427,0.042
		c-0.015,0.172-0.001,0.344-0.007,0.516C20.532,38.408,20.526,38.542,20.413,38.638z"/>
	<path style="fill-rule:evenodd;clip-rule:evenodd;fill:#101010;" d="M20.399,36.703c-0.025,0.02-0.048,0.041-0.07,0.063
		c0.011-0.205-0.09-0.426,0.084-0.608C20.409,36.34,20.404,36.521,20.399,36.703z"/>
	<path style="fill-rule:evenodd;clip-rule:evenodd;fill:#101010;" d="M20.511,35.586c0.005,0.175,0,0.349-0.087,0.509
		C20.431,35.922,20.347,35.732,20.511,35.586z"/>
	<path style="fill-rule:evenodd;clip-rule:evenodd;fill:#F1F1F1;" d="M20.415,37.687c0.084-0.272,0.104-0.424,0.487-0.182
		c1.148,0.727,2.292,1.463,3.579,1.96c0.582,0.225,1.202,0.364,1.751,0.689c0.28,0.167,0.621,0.187,0.952,0.105
		c0.174-0.089,0.343-0.022,0.509,0.022c2.208,0.594,4.443,0.622,6.701,0.365c2.047-0.232,3.998-0.8,5.861-1.645
		c1.193-0.541,2.316-1.228,3.376-2.008c0.192,0.059,0.117,0.241,0.167,0.366c0.053,0.102-0.014,0.23,0.072,0.325
		c0.036,0.108,0.059,0.217,0.016,0.329c0.021,0.406,0.119,0.815-0.057,1.212c-0.231-0.118-0.16-0.342-0.186-0.532
		c-0.01-0.155,0.004-0.311-0.002-0.465c-0.018-0.124-0.068-0.16-0.189-0.095c-0.363,0.194-0.738,0.36-1.084,0.593
		c-1.111,0.747-2.328,1.271-3.599,1.69c-0.754,0.249-1.507,0.49-2.277,0.684c-0.986,0.248-1.992,0.332-3,0.44
		c-1.369,0.147-2.727,0.007-4.082-0.076c-1.135-0.07-2.228-0.464-3.331-0.768c-1.063-0.293-2.055-0.733-3.046-1.189
		c-0.809-0.373-1.536-0.889-2.284-1.366C20.586,38.036,20.513,37.849,20.415,37.687z"/>
	<path style="fill-rule:evenodd;clip-rule:evenodd;fill:#F4F4F4;" d="M43.777,37.397c-0.139-0.1-0.081-0.249-0.095-0.379
		c-0.375,0.154-0.724,0.358-1.055,0.588c-1.186,0.824-2.466,1.444-3.831,1.921c-0.852,0.297-1.702,0.588-2.576,0.808
		c-0.258,0.064-0.524,0.164-0.758-0.069c0.018-0.256,0.238-0.27,0.408-0.328c0.837-0.286,1.72-0.408,2.549-0.726
		c1.724-0.66,3.377-1.451,4.834-2.604c0.101-0.08,0.197-0.172,0.334-0.066c0.209-0.09,0.02-0.281,0.104-0.403
		c0.099,0.234,0.113,0.48,0.098,0.73C43.828,37.046,43.863,37.223,43.777,37.397z"/>
	<path style="fill-rule:evenodd;clip-rule:evenodd;fill:#EDEDED;" d="M43.779,39.21c0.198-0.384,0.033-0.801,0.107-1.196
		c0.022,0.028,0.045,0.055,0.067,0.083c0.005,0.276,0.011,0.552,0.016,0.828c-0.029,0.319-0.058,0.637-0.087,0.956
		c-0.081-0.039-0.102-0.111-0.104-0.192c-0.102-0.101-0.114-0.222-0.085-0.354C43.709,39.284,43.738,39.243,43.779,39.21z"/>
	<path style="fill-rule:evenodd;clip-rule:evenodd;fill:#EDEDED;" d="M43.777,37.397c0.004-0.176,0.008-0.353,0.012-0.529
		c0.107,0.264,0.095,0.54,0.082,0.816C43.762,37.615,43.783,37.502,43.777,37.397z"/>
	<path style="fill-rule:evenodd;clip-rule:evenodd;fill:#121212;" d="M43.676,35.701c-0.039-0.162-0.079-0.323-0.119-0.484
		C43.77,35.335,43.66,35.533,43.676,35.701z"/>
	<path style="fill-rule:evenodd;clip-rule:evenodd;fill:#C8C8C8;" d="M31.19,45.41c-0.237-0.137-0.496-0.215-0.764-0.187
		c-0.645,0.068-1.26-0.011-1.891-0.182c-0.756-0.205-1.571-0.153-2.304-0.49c0.033-0.218,0.159-0.159,0.286-0.095
		c0.701-0.047,1.356,0.2,2.032,0.313c1.599,0.268,3.215,0.356,4.819,0.222c0.745-0.063,1.532,0.029,2.251-0.255
		c0.596-0.235,1.272-0.096,1.817-0.318c0.641-0.261,1.372-0.158,1.967-0.624c0.252-0.197,0.683-0.265,1.031-0.362
		c0.782-0.22,1.517-0.49,2.185-0.971c0.201-0.144,0.514-0.2,0.777-0.292c0.077,0.062,0.07,0.143,0.051,0.226
		c-0.038,0.114-0.063,0.229-0.037,0.351c0.052,0.231-0.188,0.36-0.199,0.569c-0.343-0.285-0.33-0.254-0.835-0.047
		c-1.026,0.419-2.017,0.974-3.08,1.241c-1.574,0.395-3.157,0.778-4.783,0.978c-0.94,0.116-1.859,0-2.786,0.053
		C31.542,45.547,31.341,45.566,31.19,45.41z"/>
	<path style="fill-rule:evenodd;clip-rule:evenodd;fill:#C3C3C3;" d="M31.19,45.41c0.757,0.029,1.512-0.005,2.272,0.069
		c0.531,0.052,1.081-0.146,1.626-0.22c1.191-0.164,2.355-0.476,3.527-0.742c0.92-0.209,1.736-0.61,2.598-0.928
		c0.56-0.207,1.131-0.392,1.642-0.716c0.083-0.053,0.19-0.161,0.298-0.068c0.108,0.094-0.004,0.204-0.024,0.306
		c-0.018,0.088,0.011,0.154,0.083,0.203c0.02,0.112-0.01,0.208-0.092,0.288c-0.404-0.107-0.766,0.066-1.063,0.271
		c-0.513,0.352-1.097,0.514-1.665,0.68c-1.152,0.336-2.289,0.73-3.466,0.983c-0.188,0.04-0.376,0.052-0.567,0.059
		c-0.523,0.021-1.047,0.036-1.541,0.255c-0.287,0.127-0.599,0.038-0.898,0.053c-1,0.051-2.001-0.003-3.002,0.034
		c-0.228,0.008-0.482,0.04-0.68-0.144c-0.153-0.257-0.482-0.105-0.667-0.286c0.089-0.03,0.195-0.107,0.265-0.083
		C30.291,45.585,30.739,45.459,31.19,45.41z"/>
	<path style="fill-rule:evenodd;clip-rule:evenodd;fill:#BEBEBE;" d="M30.236,45.791c1.405,0,2.812,0.044,4.213-0.021
		c0.609-0.028,1.196-0.305,1.836-0.308c0.68-0.002,1.32-0.285,1.98-0.423c0.642-0.134,1.237-0.395,1.864-0.561
		c0.615-0.162,1.279-0.272,1.815-0.727c0.211-0.179,0.572-0.225,0.847-0.374c0.257-0.14,0.191,0.188,0.327,0.223
		c0.002,0.11-0.041,0.201-0.113,0.28c-0.239,0.016-0.461,0.074-0.666,0.209c-0.669,0.443-1.471,0.556-2.189,0.872
		c-0.932,0.409-1.938,0.562-2.899,0.862c-0.64,0.199-1.353,0.128-2.011,0.299c-0.482,0.125-0.961,0.161-1.453,0.124
		c-0.646-0.098-1.28,0.11-1.927,0.062c-0.701-0.052-1.404-0.092-2.108-0.11c-0.185-0.077-0.375-0.108-0.573-0.049
		c-0.075,0.008-0.148,0-0.22-0.023c-0.387-0.178-0.796-0.224-1.216-0.207c-0.152,0.001-0.303-0.004-0.446-0.063
		c-0.165-0.117-0.361-0.16-0.547-0.225c-0.108-0.038-0.254-0.045-0.233-0.223c0.1-0.041,0.197-0.128,0.31-0.073
		c0.651,0.316,1.396,0.1,2.073,0.415C29.271,45.925,29.786,45.788,30.236,45.791z"/>
	<path style="fill-rule:evenodd;clip-rule:evenodd;fill:#B9B9B9;" d="M33.86,46.173c0.767,0.001,1.498-0.269,2.254-0.312
		c1.016-0.057,1.942-0.475,2.929-0.643c0.415-0.07,0.788-0.281,1.18-0.418c0.772-0.271,1.596-0.451,2.279-0.944
		c0.174-0.125,0.344-0.141,0.504,0.025c-0.045,0.214-0.146,0.401-0.277,0.574c-1.078,0.372-2.105,0.884-3.206,1.196
		c-1.724,0.488-3.461,0.916-5.258,1.034c-0.914,0.061-1.828,0.104-2.745,0.09c-0.205-0.003-0.417,0.018-0.578-0.155
		c-0.048-0.069-0.08-0.143-0.057-0.229c0.081-0.125,0.208-0.122,0.336-0.123C32.102,46.261,32.985,46.313,33.86,46.173z"/>
	<path style="fill-rule:evenodd;clip-rule:evenodd;fill:#B3B3B3;" d="M30.999,46.554c0.615,0.212,1.257,0.125,1.87,0.065
		c0.466-0.045,0.928-0.002,1.393-0.047c1.416-0.136,2.794-0.432,4.174-0.759c1.318-0.313,2.557-0.844,3.822-1.304
		c0.141-0.052,0.279-0.378,0.471-0.054c-0.162,0.388-0.385,0.738-0.67,1.048c-0.248-0.053-0.117-0.197-0.078-0.319
		c0.033-0.069,0.094-0.124,0.112-0.217c-1.57,0.73-3.226,1.173-4.892,1.579c-0.213,0.052-0.438,0.043-0.658,0.055
		c-1.104,0.237-2.247,0.159-3.35,0.412c-0.108,0.025-0.22,0.021-0.331-0.001c-0.582-0.115-1.162-0.114-1.744,0.002
		c-0.25,0.05-0.476,0.006-0.611-0.247C30.573,46.468,30.771,46.475,30.999,46.554z"/>
	<path style="fill-rule:evenodd;clip-rule:evenodd;fill:#ACACAC;" d="M42.063,45.219c-0.025,0.095-0.152,0.188-0.004,0.285
		c-0.046,0.135-0.139,0.234-0.252,0.315c-0.043-0.004-0.085-0.01-0.127-0.018c-0.599,0.081-1.167,0.299-1.713,0.52
		c-0.902,0.365-1.884,0.366-2.781,0.714c-0.132,0.05-0.285,0.077-0.369-0.098c0.002-0.079,0.02-0.149,0.096-0.191
		c0.125-0.2,0.35-0.233,0.54-0.258c1.456-0.189,2.781-0.808,4.155-1.262C41.878,45.135,41.874,45.123,42.063,45.219z"/>
	<path style="fill-rule:evenodd;clip-rule:evenodd;fill:#D4D4D4;" d="M43.398,42.453c-0.001-0.095-0.002-0.19-0.002-0.286
		c0.115-0.177,0.098-0.376,0.096-0.573c0.039-0.034,0.084-0.05,0.135-0.047c0.053,0.01,0.086,0.042,0.098,0.095
		c-0.021,0.108,0.074,0.249-0.084,0.321c-0.055,0.163-0.11,0.326-0.166,0.489C43.449,42.481,43.424,42.483,43.398,42.453z"/>
	<path style="fill-rule:evenodd;clip-rule:evenodd;fill:#ACACAC;" d="M41.391,46.267c-0.03-0.031-0.061-0.063-0.092-0.094
		c0.104-0.194,0.188-0.412,0.473-0.384l0.035,0.03C41.705,46.002,41.564,46.149,41.391,46.267z"/>
	<path style="fill-rule:evenodd;clip-rule:evenodd;fill:#040404;" d="M43.784,40.929c0.025-0.038,0.051-0.076,0.076-0.114
		c-0.003,0.234,0.083,0.477-0.07,0.696c-0.021-0.018-0.04-0.037-0.061-0.054C43.639,41.269,43.633,41.091,43.784,40.929z"/>
	<path style="fill-rule:evenodd;clip-rule:evenodd;fill:#CECECE;" d="M43.398,42.453c0.025,0,0.051,0,0.076,0
		c0.018,0.105,0.015,0.207-0.064,0.292C43.277,42.652,43.271,42.555,43.398,42.453z"/>
	<path style="fill-rule:evenodd;clip-rule:evenodd;fill:#040404;" d="M43.641,41.964c0.014-0.123,0.027-0.246,0.041-0.369
		c-0.035-0.078,0.01-0.103,0.076-0.112c0,0,0.032,0.027,0.032,0.028C43.74,41.662,43.869,41.872,43.641,41.964z"/>
	<path style="fill-rule:evenodd;clip-rule:evenodd;fill:#313131;" d="M24.031,21.089c0,0.636-0.001,1.272-0.002,1.908
		c-0.192-0.399-0.041-0.824-0.091-1.234c-0.024-0.194,0.077-0.407-0.091-0.578c0.003-0.104-0.017-0.217,0.094-0.286
		C24.01,20.944,23.972,21.04,24.031,21.089z"/>
	<path style="fill-rule:evenodd;clip-rule:evenodd;fill:#1F1F1F;" d="M24.049,23.25c0.113,0.221,0.122,0.458,0.1,0.698
		C23.983,23.734,23.926,23.504,24.049,23.25z"/>
	<path style="fill-rule:evenodd;clip-rule:evenodd;fill:#FEA600;" d="M30.904,8.311c0.588-0.421,0.935-1.042,1.334-1.619
		c0.287-0.414,0.573-0.828,0.86-1.242c-0.148,0.831-0.737,1.419-1.187,2.072c-0.778,1.128-1.819,2.008-2.98,2.714
		c-0.72,0.438-1.515,0.771-2.356,0.927c-0.264,0.049-0.546,0.333-0.82,0.009c0-0.063,0-0.127,0-0.191
		c0.486-0.196,1.017-0.2,1.513-0.373c0.642-0.223,1.233-0.503,1.817-0.869C29.75,9.323,30.282,8.766,30.904,8.311L30.904,8.311z"/>
	<path style="fill-rule:evenodd;clip-rule:evenodd;fill:#262626;" d="M24.031,21.089c-0.074-0.042-0.088-0.113-0.09-0.19
		c0.012-0.069-0.027-0.154,0.071-0.206c0.013,0.08,0.025,0.155,0.038,0.23C24.043,20.979,24.038,21.034,24.031,21.089z"/>
	<path style="fill-rule:evenodd;clip-rule:evenodd;fill:#979797;" d="M24.609,47.603c0.306-0.151,0.514,0.199,0.827,0.152
		c0.177-0.027,0.4,0.029,0.604,0.039c0.514,0.141,1.022,0.319,1.545,0.414c0.662,0.12,1.354,0.089,2.006,0.195
		c0.693,0.112,1.403-0.042,2.088,0.224c0.294,0.115,0.679,0.014,1.028-0.038c1.022-0.153,2.056-0.206,3.088-0.275
		c0.517-0.035,1.022-0.222,1.535-0.334c0.859-0.189,1.74-0.293,2.555-0.658c0.03,0.035,0.062,0.07,0.093,0.104
		c-0.006,0.026-0.011,0.052-0.016,0.077c-0.063,0.081-0.154,0.119-0.245,0.155c-0.069,0.031-0.14,0.063-0.208,0.096
		c-0.067,0.034-0.136,0.066-0.203,0.1c-0.066,0.035-0.135,0.069-0.203,0.103c-0.123,0.058-0.244,0.118-0.363,0.184
		c-0.074,0.04-0.148,0.078-0.224,0.116c-0.105,0.051-0.214,0.09-0.334,0.094c-0.052,0.002-0.103-0.002-0.153-0.009
		c-2.279,0.586-4.604,0.692-6.941,0.641c-0.143-0.003-0.286-0.007-0.426-0.036c-0.479-0.204-0.994-0.126-1.485-0.138
		c-1-0.024-1.939-0.365-2.919-0.469c-0.063-0.007-0.125-0.019-0.187-0.016c-0.046,0.011-0.094,0.014-0.142,0.012
		c-0.089-0.008-0.171-0.042-0.251-0.082c-0.071-0.034-0.142-0.073-0.213-0.108c-0.068-0.031-0.138-0.058-0.209-0.082
		c-0.071-0.023-0.138-0.054-0.206-0.086c-0.067-0.031-0.135-0.06-0.205-0.087c-0.054-0.021-0.102-0.049-0.132-0.1
		C24.679,47.729,24.645,47.666,24.609,47.603z"/>
	<path style="fill-rule:evenodd;clip-rule:evenodd;fill:#FEA500;" d="M30.904,8.311c-0.488,0.549-1.059,0.979-1.661,1.408
		c-0.734,0.524-1.506,0.853-2.347,1.078c-0.371,0.1-0.761,0.125-1.142,0.185c0.015-0.104,0.062-0.17,0.176-0.187
		c0.918-0.134,1.8-0.359,2.622-0.826c0.212-0.121,0.368-0.27,0.541-0.417c0.443-0.115,0.74-0.44,1.065-0.728
		C30.384,8.623,30.554,8.333,30.904,8.311z"/>
	<path style="fill-rule:evenodd;clip-rule:evenodd;fill:#FBFBFB;" d="M20.604,36.063c0.318-0.943,0.313-0.936,1.122-0.342
		c1.435,1.053,2.996,1.878,4.681,2.441c2.367,0.791,4.818,1.013,7.294,0.839c1.015-0.072,2.011-0.35,3.009-0.58
		c1.184-0.271,2.297-0.728,3.355-1.266c0.916-0.466,1.824-0.997,2.629-1.67c0.639-0.535,0.655-0.516,0.799,0.386
		c-0.076,0.133-0.095,0.294-0.244,0.393c-1.16,0.771-2.295,1.588-3.604,2.103c-0.752,0.296-1.494,0.632-2.258,0.876
		c-0.732,0.234-1.52,0.311-2.277,0.472c-1.712,0.364-3.444,0.422-5.154,0.163c-1.588-0.241-3.164-0.547-4.692-1.155
		c-1.625-0.646-3.057-1.583-4.534-2.467C20.681,36.197,20.651,36.125,20.604,36.063z"/>
	<path style="fill-rule:evenodd;clip-rule:evenodd;fill:#F4F4F4;" d="M35.481,40.26c0.65,0.123,1.23-0.164,1.817-0.347
		c0.9-0.281,1.814-0.553,2.66-0.959c0.934-0.45,1.928-0.815,2.715-1.538c0.254-0.232,0.633-0.271,0.887-0.516
		c0.002-0.001,0.08,0.078,0.122,0.119c-0.541,0.537-1.17,0.937-1.862,1.252c-0.368,0.168-0.682,0.433-1.054,0.616
		c-0.937,0.461-1.901,0.864-2.89,1.165c-2.227,0.678-4.516,0.992-6.846,0.868c-1.303-0.069-2.606-0.194-3.846-0.66
		c-0.129-0.169-0.332-0.155-0.508-0.217c-1.358-0.479-2.695-0.987-3.973-1.681c-0.76-0.413-1.443-0.932-2.195-1.345
		c0-0.127,0-0.254,0-0.381c0.089-0.069,0.178-0.052,0.262,0.008c1.303,0.943,2.7,1.72,4.195,2.306
		c1.001,0.392,2.04,0.681,3.071,0.989c0.91,0.272,1.851,0.189,2.773,0.3c1.194,0.144,2.37-0.001,3.555-0.062
		C34.727,40.16,35.119,40.109,35.481,40.26z"/>
	<path style="fill-rule:evenodd;clip-rule:evenodd;fill:#F7F7F7;" d="M20.699,36.159c1.076,0.537,2.067,1.217,3.096,1.832
		c0.199,0.119,0.4,0.185,0.605,0.243c0.975,0.276,1.844,0.824,2.854,1.028c1.909,0.385,3.818,0.733,5.775,0.611
		c1.244-0.078,2.474-0.309,3.678-0.62c1.571-0.406,3.063-1.015,4.486-1.818c0.692-0.391,1.281-0.927,1.994-1.274
		c0.12-0.058,0.204-0.189,0.305-0.287c-0.015,0.139,0.031,0.262,0.096,0.381c-0.217,0.277-0.484,0.505-0.778,0.688
		c-1.007,0.628-2.02,1.237-3.11,1.727c-1.695,0.759-3.473,1.149-5.289,1.463c-1.393,0.241-2.789,0.191-4.17,0.11
		c-1.11-0.065-2.206-0.389-3.299-0.666c-1.365-0.346-2.63-0.915-3.876-1.528c-0.778-0.383-1.499-0.888-2.198-1.41
		C20.707,36.52,20.579,36.38,20.699,36.159z"/>
	<path style="fill-rule:evenodd;clip-rule:evenodd;fill:#F7F7F7;" d="M20.699,36.159c-0.044,0.248,0.163,0.32,0.307,0.432
		c1.294,1.002,2.778,1.665,4.242,2.359c0.601,0.285,1.282,0.314,1.905,0.541c0.981,0.355,2.032,0.411,3.037,0.675
		c0.338,0.088,0.722-0.017,1.083,0.002c1.688,0.091,3.352-0.101,4.986-0.493c1.293-0.31,2.547-0.726,3.765-1.299
		c1.265-0.596,2.397-1.378,3.563-2.121c0,0.095,0,0.19,0,0.286c-0.588,0.464-1.226,0.854-1.863,1.246
		c-1.325,0.813-2.748,1.418-4.229,1.856c-0.552,0.163-1.119,0.322-1.692,0.435c-0.125,0.024-0.242,0.073-0.321,0.183
		c-0.5,0.204-1.019,0.017-1.533,0.078c-1.428,0.17-2.857,0.03-4.291-0.042c-1.22-0.062-2.295-0.517-3.437-0.803
		c-1.211-0.304-2.297-0.851-3.385-1.392c-0.758-0.377-1.521-0.805-2.15-1.407c-0.04-0.039-0.117-0.039-0.176-0.058
		c0.113-0.177,0.097-0.376,0.095-0.572C20.636,36.095,20.667,36.127,20.699,36.159z"/>
	<path style="fill-rule:evenodd;clip-rule:evenodd;fill:#393939;" d="M29.568,17.085c0.251,0.644,0.837,0.39,1.292,0.472
		c0.328,0.059,0.656-0.08,0.979-0.079c0.692,0.004,1.387,0.038,2.073,0.124c0.229,0.028,0.283-0.359,0.519-0.143
		c-0.38,0.337-0.619,0.788-0.942,1.171c-0.697,0.001-1.394,0.043-2.089-0.019c-0.243-0.021-0.471,0.056-0.708,0.042
		c-0.388-0.573-0.834-1.091-1.405-1.492c-0.01-0.075-0.004-0.13,0.092-0.076C29.441,17.085,29.505,17.085,29.568,17.085z"/>
	<path style="fill-rule:evenodd;clip-rule:evenodd;fill:#FE4001;" d="M29.948,23.187c0.201-0.709,0.597-1.291,1.185-1.728
		c0.584-0.435,1.221-0.428,1.802,0.011c0.544,0.411,0.918,0.951,1.124,1.605c0.05,0.097,0.059,0.183-0.064,0.232
		c-0.049-0.008-0.09-0.031-0.123-0.067c-0.608-0.848-1.485-0.874-2.383-0.728c-0.582,0.094-1.136,0.305-1.397,0.921
		C29.881,23.462,29.877,23.455,29.948,23.187z"/>
	<path style="fill-rule:evenodd;clip-rule:evenodd;fill:#333333;" d="M33.195,19.19c-0.166,0.512-0.37,1.013-0.447,1.548
		c-0.031,0.214-0.104,0.262-0.307,0.184c-0.193-0.075-0.412-0.108-0.606-0.026c-0.307,0.13-0.412,0.023-0.446-0.281
		c-0.071-0.634-0.393-1.19-0.594-1.784c0.154-0.13,0.194-0.148,0.256-0.017c0.379,0.799,1.117,0.304,1.669,0.468
		c0.123,0.036,0.174-0.163,0.276-0.23C33.164,18.941,33.283,18.922,33.195,19.19z"/>
	<path style="fill-rule:evenodd;clip-rule:evenodd;fill:#020202;" d="M36.756,20.542c0.817,0.01,1.472,1.009,1.164,1.723
		c-0.093,0.215-0.232,0.266-0.394,0.09c-0.467-0.51-1.039-0.807-1.715-0.938c-0.306-0.059-0.282-0.252-0.095-0.441
		C36.011,20.681,36.383,20.566,36.756,20.542z"/>
	<path style="fill-rule:evenodd;clip-rule:evenodd;fill:#020202;" d="M26.069,21.919c0.055-0.556,0.208-1.041,0.731-1.272
		c0.51-0.226,0.992-0.082,1.425,0.237c0.125,0.092,0.273,0.205,0.227,0.38c-0.041,0.154-0.215,0.172-0.352,0.198
		c-0.542,0.104-1.018,0.326-1.403,0.734c-0.113,0.12-0.235,0.326-0.421,0.244C26.062,22.345,26.107,22.089,26.069,21.919z"/>
	<path style="fill-rule:evenodd;clip-rule:evenodd;fill:#363636;" d="M33.195,19.19c-0.031-0.21-0.126-0.158-0.179-0.025
		c-0.112,0.28-0.297,0.321-0.56,0.236c-0.101-0.033-0.217-0.028-0.326-0.026c-0.491,0.007-1.043,0.153-1.195-0.567
		c-0.014-0.064-0.101-0.045-0.141,0.022c-0.035-0.06-0.069-0.119-0.104-0.178c0.232-0.173,0.464-0.205,0.769-0.16
		c0.465,0.07,0.949,0.042,1.422,0.013c0.226-0.014,0.421-0.001,0.606,0.124C33.391,18.816,33.293,19.003,33.195,19.19z"/>
	<path style="fill-rule:evenodd;clip-rule:evenodd;fill:#FE7E02;" d="M33.667,24.53c-0.419-0.126-0.834-0.274-1.26-0.375
		c-0.625-0.149-1.203,0.115-1.792,0.259c-0.342-0.079-0.185-0.255-0.071-0.406c0.469-0.624,1.485-0.874,2.226-0.542
		c0.334,0.149,0.637,0.35,0.874,0.633C33.75,24.227,33.896,24.374,33.667,24.53z"/>
	<path style="fill-rule:evenodd;clip-rule:evenodd;fill:#FE7201;" d="M33.667,24.53c0.022-0.072,0.079-0.144,0.019-0.221
		c-0.736-0.951-2.245-1.259-3.104-0.188c-0.119,0.148-0.067,0.206,0.033,0.293c-0.244,0.133-0.477,0.349-0.775,0.116
		c0.024-0.038,0.055-0.07,0.091-0.097c0.297-0.517,0.694-0.895,1.247-1.171c0.871-0.436,2.266,0.026,2.685,0.712
		c0.091,0.148,0.193,0.29,0.289,0.435c0.023,0.038,0.047,0.076,0.07,0.114C34.039,24.73,33.854,24.63,33.667,24.53z"/>
	<path style="fill-rule:evenodd;clip-rule:evenodd;fill:#FE5A03;" d="M29.948,23.187c0.05,0.056-0.091,0.208,0.098,0.193
		c0.788-1.124,2.954-1.223,3.909-0.096c0.139,0.084,0.205,0.196,0.133,0.358c-0.033,0.037-0.074,0.052-0.124,0.049
		c-0.426-0.167-0.71-0.557-1.187-0.672c-0.998-0.24-1.844-0.046-2.559,0.699c-0.094,0.098-0.134,0.212-0.152,0.34
		c-0.017,0.073-0.045,0.14-0.096,0.195c-0.072,0.039-0.141,0.041-0.205-0.016C29.716,23.868,29.748,23.513,29.948,23.187z"/>
	<path style="fill-rule:evenodd;clip-rule:evenodd;fill:#FE4F02;" d="M31.18,24.696c0.533-0.392,1.08-0.314,1.632-0.047
		c0.076,0.106,0.053,0.22-0.009,0.312c-0.239,0.352-0.606,0.38-0.977,0.338C31.478,25.259,31.169,25.139,31.18,24.696z"/>
	<path style="fill-rule:evenodd;clip-rule:evenodd;fill:#FE470C;" d="M31.18,24.696c0.167,0.471,0.56,0.535,0.968,0.482
		c0.302-0.039,0.66-0.083,0.664-0.53c0.164,0.091,0.147,0.247,0.083,0.368c-0.199,0.376-0.515,0.592-0.953,0.547
		c-0.406-0.042-0.697-0.258-0.825-0.658C31.094,24.833,31.105,24.75,31.18,24.696z"/>
	<path style="fill-rule:evenodd;clip-rule:evenodd;fill:#FE5A03;" d="M34.221,24.523c-0.024-0.003-0.049-0.005-0.072-0.006
		c-0.078-0.129-0.094-0.277-0.125-0.42c0.006-0.144-0.05-0.292,0.027-0.431l0,0c0.1-0.082-0.006-0.234,0.107-0.311
		C34.309,23.737,34.414,24.122,34.221,24.523z"/>
	<path style="fill-rule:evenodd;clip-rule:evenodd;fill:#FE4D01;" d="M34.158,23.355c-0.02,0.109,0.01,0.235-0.107,0.311
		c0.015-0.139-0.031-0.263-0.096-0.381c0.084-0.045,0.094-0.127,0.104-0.209C34.141,23.151,34.16,23.249,34.158,23.355z"/>
	<path style="fill-rule:evenodd;clip-rule:evenodd;fill:#3C3C3C;" d="M29.378,17.085c-0.031,0.025-0.061,0.051-0.092,0.076
		c-0.098-0.055-0.195-0.109-0.292-0.164C29.168,16.823,29.265,16.99,29.378,17.085z"/>
	<path style="fill-rule:evenodd;clip-rule:evenodd;fill:#FE5F01;" d="M29.766,24.238c0.062,0,0.123,0,0.185,0
		c0.082,0.095,0.075,0.189,0,0.285c-0.037,0.002-0.074,0.005-0.111,0.008C29.726,24.455,29.745,24.346,29.766,24.238z"/>
	<path style="fill-rule:evenodd;clip-rule:evenodd;fill:#A9A9A9;" d="M24.705,46.554c-0.119-0.163-0.41-0.038-0.477-0.286
		c0.512-0.081,0.909,0.309,1.404,0.333c0.738,0.036,1.421,0.363,2.16,0.447c1.328,0.152,2.644,0.41,3.991,0.271
		c0.601-0.062,1.194,0.067,1.791,0.093c0.021,0.032,0.023,0.064,0,0.096c-0.423-0.069-0.783,0.22-1.206,0.196
		c-1.183-0.066-2.374-0.113-3.542-0.246c-0.665-0.076-1.37-0.155-2.053-0.357C26.101,46.902,25.386,46.776,24.705,46.554z"/>
	<path style="fill-rule:evenodd;clip-rule:evenodd;fill:#A9A9A9;" d="M33.574,47.508c0-0.032,0-0.064,0-0.096
		c0.105-0.135,0.258-0.097,0.393-0.093c0.973,0.032,1.906-0.209,2.85-0.384c0.344,0.144,0.59-0.157,0.899-0.197
		c1.081-0.14,2.133-0.384,3.123-0.876c0.232-0.115,0.543-0.104,0.804-0.223c0.096-0.044,0.117,0.069,0.129,0.148
		c-0.158,0.128-0.314,0.256-0.473,0.384c-0.371-0.175-0.716,0.053-1.015,0.164c-0.821,0.306-1.679,0.454-2.514,0.694
		c-0.357,0.066-0.677,0.272-1.05,0.286c-0.095,0-0.189,0-0.285,0c-0.916,0.091-1.832,0.183-2.748,0.269
		C33.652,47.589,33.611,47.535,33.574,47.508z"/>
	<path style="fill-rule:evenodd;clip-rule:evenodd;fill:#A5A5A5;" d="M36.721,47.317c0.342-0.128,0.652-0.364,1.05-0.286
		C37.465,47.289,37.123,47.413,36.721,47.317z"/>
	<path style="fill-rule:evenodd;clip-rule:evenodd;fill:#E2E2E2;" d="M43.778,39.306c0,0.127,0,0.254,0,0.382
		c-0.416,0.193-0.704,0.563-1.205,0.692c-0.263,0.068-0.632,0.326-0.931,0.534c-0.563,0.392-1.229,0.532-1.869,0.741
		c-0.383,0.125-0.727,0.34-1.117,0.471c-1.467,0.49-2.982,0.765-4.498,0.96c-1.1,0.141-2.222,0.186-3.354,0.065
		c-1.161-0.124-2.306-0.314-3.455-0.5c-0.212-0.034-0.354-0.112-0.45-0.294c0.165-0.169,0.381-0.116,0.581-0.136
		c1.05-0.003,2.068,0.287,3.114,0.341c1.304,0.068,2.602,0.03,3.899-0.079c0.168-0.014,0.344-0.06,0.496-0.151
		c0.086-0.045,0.18-0.067,0.275-0.063c1.289,0.058,2.449-0.424,3.624-0.856c0.503-0.185,1.034-0.276,1.52-0.526
		c0.323-0.167,0.636-0.359,0.96-0.51c0.729-0.341,1.428-0.738,2.145-1.102C43.598,39.232,43.697,39.229,43.778,39.306z"/>
	<path style="fill-rule:evenodd;clip-rule:evenodd;fill:#D9D9D9;" d="M23.561,42.358c-0.444-0.223-0.882-0.459-1.335-0.662
		c-0.262-0.117-0.513-0.228-0.667-0.483c0.388-0.083,0.704,0.124,1.019,0.28c1.571,0.781,3.232,1.299,4.938,1.675
		c0.563,0.124,1.144,0.189,1.724,0.228c0.304,0.104,0.625,0.123,0.937,0.126c1.547,0.019,3.098,0.144,4.639-0.116
		c1.375-0.11,2.685-0.501,3.975-0.963c0.326-0.117,0.655-0.069,0.984-0.086c0.016,0.283-0.225,0.325-0.402,0.383
		c-0.84,0.271-1.646,0.647-2.529,0.777c-0.095,0.014-0.177,0.068-0.264,0.107c-1.061,0.215-2.1,0.512-3.205,0.514
		c-1.117,0.002-2.235-0.046-3.352,0.027c-0.474-0.259-1.016-0.238-1.522-0.312c-1.444-0.209-2.845-0.559-4.207-1.075
		C24.027,42.679,23.758,42.578,23.561,42.358z"/>
	<path style="fill-rule:evenodd;clip-rule:evenodd;fill:#E3E3E3;" d="M27.471,42.358c-0.191,0-0.382,0-0.572,0
		c-0.786,0.132-1.423-0.315-2.112-0.552c-0.443-0.152-0.875-0.339-1.312-0.51c-0.583-0.229-1.122-0.545-1.675-0.833
		c-0.47-0.245-0.992-0.394-1.386-0.774c0-0.191,0-0.382,0-0.573c0.376,0.085,0.658,0.348,0.97,0.544
		c0.498,0.313,1.039,0.537,1.549,0.823c0.583,0.32,1.168,0.636,1.838,0.744c0.11,0.032,0.219,0.067,0.327,0.107
		c0.31,0.135,0.594,0.339,0.949,0.353c0.047,0.008,0.093,0.022,0.138,0.038c0.317,0.125,0.64,0.228,0.967,0.324
		C27.309,42.095,27.504,42.11,27.471,42.358z"/>
	<path style="fill-rule:evenodd;clip-rule:evenodd;fill:#D8D8D8;" d="M36.626,43.502c0.286-0.195,0.639-0.155,0.951-0.277
		c0.653-0.255,1.327-0.46,1.994-0.684c0.096-0.032,0.16-0.094,0.202-0.184c0.51-0.391,1.125-0.586,1.701-0.827
		c0.629-0.263,1.203-0.618,1.779-0.954c0.441-0.256,0.451-0.132,0.446,0.242c-0.001,0.036,0.055,0.073,0.084,0.109
		c-0.009,0.185-0.017,0.37-0.026,0.554c-0.025,0.037-0.051,0.075-0.076,0.112c-0.031,0-0.063,0-0.094,0
		c-0.082-0.073-0.101-0.18-0.145-0.272c-0.185-0.083-0.352,0.004-0.488,0.091c-0.537,0.34-1.1,0.654-1.686,0.86
		c-1.194,0.421-2.32,1.052-3.6,1.227c-0.248,0.034-0.473,0.18-0.733,0.165C36.809,43.658,36.635,43.736,36.626,43.502z"/>
	<path style="fill-rule:evenodd;clip-rule:evenodd;fill:#DBDBDB;" d="M29.187,43.407c-0.939,0.056-1.85-0.098-2.746-0.364
		c-0.616-0.183-1.219-0.49-1.817-0.614c-1.113-0.231-2.003-0.924-3.066-1.215c-0.401-0.096-0.7-0.379-1.049-0.572
		c0-0.125,0-0.251,0-0.437c1.369,0.901,2.858,1.435,4.287,2.099c0.029,0.013,0.058,0.031,0.089,0.034
		c1.163,0.095,2.209,0.656,3.353,0.843c0.507,0.083,1.033,0.032,1.522,0.226C29.569,43.556,29.378,43.508,29.187,43.407z"/>
	<path style="fill-rule:evenodd;clip-rule:evenodd;fill:#DBDBDB;" d="M29.187,43.407c0.191,0,0.382,0,0.572,0
		c0.914-0.127,1.831,0.092,2.739-0.013c0.673-0.077,1.348,0.065,2.014-0.076c0.108-0.022,0.225-0.019,0.303,0.088
		c-0.421,0.355-0.967,0.283-1.431,0.293c-0.901,0.02-1.809,0.021-2.713-0.01c-0.41-0.015-0.818-0.063-1.227-0.097
		C29.32,43.583,29.24,43.514,29.187,43.407z"/>
	<path style="fill-rule:evenodd;clip-rule:evenodd;fill:#D1D1D1;" d="M43.588,41.214c0,0.127,0,0.254,0,0.381
		c-0.031,0-0.063,0-0.096,0c-1.087,0.772-2.389,1.109-3.558,1.724c-0.406,0.213-1.001,0.203-1.462,0.39
		c-0.813,0.328-1.715,0.311-2.498,0.719c-0.064,0.034-0.154,0.026-0.232,0.027c-1.758,0.037-3.514,0.162-5.272,0.087
		c-0.606-0.025-1.214-0.017-1.815-0.052c-0.551-0.032-1.085-0.291-1.636-0.407c-0.788-0.167-1.528-0.518-2.303-0.668
		c-0.888-0.171-1.598-0.695-2.421-0.959c-0.426-0.137-0.819-0.301-1.19-0.545c-0.132-0.087-0.318-0.156-0.494-0.044
		c-0.002-0.186-0.004-0.371-0.006-0.556c0.565,0.071,0.981,0.465,1.477,0.687c0.243,0.108,0.478,0.241,0.716,0.362
		c0.069,0.112,0.181,0.092,0.286,0.095c0.485,0.133,0.955,0.309,1.406,0.528c0.402,0.197,0.84,0.248,1.268,0.345
		c0.218,0.083,0.44,0.148,0.669,0.189c0.16,0.047,0.328,0.057,0.488,0.101c0.508,0.165,1.018,0.317,1.556,0.346
		c0.048,0.005,0.096,0.015,0.143,0.027c0.23,0.088,0.478,0.042,0.714,0.084c0.05,0.007,0.098,0.018,0.146,0.031
		c1.216,0.309,2.465,0.303,3.689,0.193c1.095-0.098,2.197-0.251,3.28-0.485c0.833-0.18,1.667-0.368,2.489-0.58
		c0.758-0.196,1.451-0.631,2.205-0.874c0.811-0.261,1.471-0.798,2.233-1.142C43.447,41.181,43.514,41.154,43.588,41.214z"/>
	<path style="fill-rule:evenodd;clip-rule:evenodd;fill:#CACACA;" d="M26.517,44.456c-0.105,0.003-0.218-0.017-0.286,0.095
		c-1.529-0.221-2.886-0.963-4.319-1.467c-0.335-0.118-0.717-0.289-1.021-0.535c-0.091-0.063-0.119-0.157-0.08-0.25
		c0.062-0.144,0.155-0.018,0.234-0.01c0.489,0.052,0.861,0.378,1.284,0.575c1.285,0.597,2.624,1.028,3.982,1.41
		C26.41,44.302,26.475,44.366,26.517,44.456z"/>
	<path style="fill-rule:evenodd;clip-rule:evenodd;fill:#B2B2B2;" d="M30.522,46.745c0.29,0.19,0.592,0.258,0.928,0.124
		c0.083-0.034,0.189-0.04,0.28-0.025c1.147,0.192,2.273-0.162,3.42-0.146c0.47,0.006,0.977-0.137,1.476-0.143
		c0.031,0.021,0.042,0.042,0.031,0.063c-0.011,0.021-0.021,0.032-0.031,0.032c-0.539,0.096-1.075,0.218-1.617,0.281
		c-1.021,0.117-2.049,0.109-3.076,0.13c-1.034,0.021-2.055-0.074-3.076-0.152c-0.319-0.024-0.714-0.011-1.005-0.259
		c0.199-0.175,0.452-0.125,0.683-0.167c0.091,0.008,0.175,0.042,0.261,0.07c0.169,0.063,0.337-0.021,0.506-0.005
		c0.067,0.003,0.132,0.017,0.195,0.039c0.271,0.191,0.566,0.015,0.847,0.058C30.414,46.658,30.474,46.692,30.522,46.745z"/>
	<path style="fill-rule:evenodd;clip-rule:evenodd;fill:#B0B0B0;" d="M36.626,46.649c0-0.032,0-0.063,0-0.095
		c1.065-0.258,2.158-0.437,3.186-0.802c0.745-0.265,1.521-0.495,2.218-0.893c0.094-0.054,0.174-0.047,0.303-0.075
		c-0.045,0.195-0.154,0.317-0.27,0.435c-0.731,0.25-1.463,0.498-2.193,0.75c-0.772,0.267-1.533,0.567-2.365,0.617
		c-0.199,0.012-0.395,0.104-0.592,0.159C36.844,46.633,36.73,46.653,36.626,46.649z"/>
	<path style="fill-rule:evenodd;clip-rule:evenodd;fill:#B3B3B3;" d="M28.615,46.554c-0.249,0.076-0.502,0.118-0.763,0.095
		c-0.175-0.125-0.396,0.024-0.572-0.095c-0.032,0-0.063,0-0.095,0c-0.45-0.427-1.078-0.226-1.595-0.46
		c-0.686-0.311-1.465-0.384-2.125-0.78c0.413-0.216,0.824-0.024,1.18,0.105c1.044,0.379,2.115,0.621,3.2,0.832
		C28.103,46.302,28.467,46.187,28.615,46.554z"/>
	<path style="fill-rule:evenodd;clip-rule:evenodd;fill:#B2B2B2;" d="M27.28,46.554c0.191,0.031,0.405-0.078,0.572,0.095
		C27.661,46.619,27.447,46.727,27.28,46.554z"/>
	<path style="fill-rule:evenodd;clip-rule:evenodd;fill:#BBBBBB;" d="M26.517,45.41c0.201,0.233,0.625,0.022,0.763,0.381
		c-0.45,0.153-0.825,0.017-1.049-0.381l0,0C26.326,45.41,26.421,45.41,26.517,45.41z"/>
	<path style="fill-rule:evenodd;clip-rule:evenodd;fill:#B6B6B6;" d="M28.615,46.554c-0.745-0.248-1.545-0.24-2.287-0.484
		c-0.544-0.179-1.113-0.256-1.639-0.535c-0.349-0.185-0.812-0.154-1.224-0.22c-0.6-0.266-1.238-0.437-1.812-0.764
		c-0.102-0.083-0.212-0.209-0.136-0.316c0.1-0.138,0.223-0.008,0.322,0.066c0.361,0.267,0.816,0.292,1.22,0.451
		c0.737,0.29,1.467,0.633,2.27,0.729c0.109,0.013,0.22,0.017,0.33,0.025c0.654,0.084,1.274,0.316,1.925,0.432
		c0.945,0.167,1.896,0.232,2.846,0.328c0.172,0.017,0.347,0.056,0.474,0.194c0.032,0.032,0.063,0.064,0.095,0.096
		c-0.168,0.041-0.344,0.061-0.477,0.19c-0.063,0-0.127,0-0.191,0c-0.275-0.126-0.584,0.044-0.858-0.095c-0.063,0-0.127,0-0.19,0
		c-0.159-0.148-0.318,0.057-0.477,0C28.727,46.647,28.656,46.631,28.615,46.554z"/>
	<path style="fill-rule:evenodd;clip-rule:evenodd;fill:#BBBBBB;" d="M30.904,46.458c-0.767-0.09-1.531-0.226-2.3-0.258
		c-0.955-0.04-1.832-0.404-2.755-0.562c-0.069-0.012-0.126-0.087-0.189-0.134c0.202,0.034,0.381-0.064,0.572-0.095
		c0.304,0.252,0.654,0.378,1.049,0.381c0.159,0,0.318,0,0.477,0c0.398,0.161,0.845,0.109,1.24,0.286c0.063,0,0.127,0,0.191,0
		c0.159,0.001,0.317,0.001,0.477,0c1.14-0.053,2.277,0.239,3.422,0.016c0.243-0.047,0.534-0.11,0.774,0.08
		c-0.368,0.145-0.706,0.274-1.15,0.222C32.122,46.326,31.498,46.251,30.904,46.458z"/>
	<path style="fill-rule:evenodd;clip-rule:evenodd;fill:#D4D4D4;" d="M26.898,43.693c-0.161-0.023-0.343,0.064-0.477-0.095
		c-0.198-0.149-0.445-0.125-0.667-0.191c-0.98-0.066-1.832-0.491-2.67-0.954c0.147-0.091,0.31-0.105,0.477-0.095
		c0.47,0.172,0.963,0.3,1.406,0.528c0.708,0.364,1.499,0.442,2.243,0.635c0.75,0.194,1.552,0.31,2.344,0.359
		c0.165,0.01,0.32,0.016,0.396,0.195c-0.159,0.22-0.366,0.157-0.572,0.096c-0.234-0.195-0.52,0.022-0.763-0.096
		c-0.032,0-0.064,0-0.096,0C27.969,43.99,27.45,43.774,26.898,43.693z"/>
	<path style="fill-rule:evenodd;clip-rule:evenodd;fill:#D4D4D4;" d="M22.797,42.358c-0.427,0.103-0.676-0.26-1.007-0.4
		c-0.413-0.174-0.792-0.429-1.186-0.648c0.142-0.311,0.42-0.047,0.49-0.017c0.556,0.245,1.083,0.555,1.613,0.856
		C22.76,42.179,22.769,42.287,22.797,42.358z"/>
	<path style="fill-rule:evenodd;clip-rule:evenodd;fill:#E9E9E9;" d="M20.413,38.638c0-0.127,0-0.254,0.001-0.38
		c0.126-0.043,0.209,0.035,0.296,0.104c1.03,0.809,2.196,1.349,3.411,1.82c0.738,0.286,1.466,0.593,2.219,0.845
		c0.911,0.306,1.867,0.358,2.796,0.557c1.148,0.245,2.323,0.296,3.501,0.266c1.404-0.036,2.77-0.302,4.14-0.576
		c1.068-0.213,2.05-0.656,3.057-1.033c0.197-0.074,0.395-0.124,0.605-0.094c0.08,0.013,0.153,0.042,0.212,0.101
		c0.085,0.254-0.112,0.353-0.273,0.429c-0.739,0.354-1.476,0.709-2.292,0.884c-1.033,0.221-2.04,0.561-3.095,0.707
		c-0.529,0.074-1.073,0.052-1.591,0.216c-0.921,0.037-1.842,0.035-2.762,0.004c-0.961-0.208-1.959-0.206-2.906-0.482
		c-1.154-0.337-2.356-0.525-3.454-1.036c-1.148-0.534-2.327-1.005-3.418-1.658c-0.201-0.12-0.333-0.288-0.446-0.481
		C20.414,38.766,20.413,38.702,20.413,38.638z"/>
	<path style="fill-rule:evenodd;clip-rule:evenodd;fill:#E7E7E7;" d="M20.414,38.829c0.951,0.602,1.891,1.229,2.987,1.548
		c0.385,0.112,0.7,0.361,1.073,0.51c1.524,0.608,3.108,0.972,4.71,1.271c0.442,0.083,0.906,0.032,1.338,0.2
		c-0.064,0.286-0.29,0.181-0.455,0.171c-1.342-0.08-2.659-0.3-3.933-0.743c-0.032,0-0.063,0-0.095,0
		c-0.312-0.143-0.643-0.238-0.954-0.381c-0.105-0.003-0.217,0.017-0.286-0.096c-0.69-0.118-1.279-0.491-1.907-0.763
		c-0.905-0.342-1.727-0.826-2.479-1.431C20.414,39.02,20.414,38.925,20.414,38.829z"/>
	<path style="fill-rule:evenodd;clip-rule:evenodd;fill:#EDEDED;" d="M40.441,40.26c-0.641-0.011-1.166,0.342-1.724,0.572
		c-1.076,0.444-2.214,0.617-3.338,0.857c-1.468,0.314-2.958,0.348-4.443,0.269c-0.8-0.043-1.604-0.171-2.396-0.374
		c-0.521-0.133-1.084-0.132-1.615-0.271c-0.927-0.244-1.842-0.506-2.698-0.967c-0.312-0.168-0.704-0.176-1.038-0.371
		c-0.716-0.418-1.456-0.798-2.197-1.17c-0.258-0.129-0.317-0.438-0.578-0.547c0-0.19,0-0.381,0.001-0.571
		c0.73,0.689,1.6,1.212,2.487,1.612c0.965,0.436,1.877,1.017,3.001,1.163c0.643,0.083,1.305,0.398,1.966,0.591
		c0.818,0.24,1.653,0.295,2.49,0.346c1.227,0.075,2.448,0.025,3.68-0.049c1.443-0.087,2.807-0.443,4.159-0.852
		c1.635-0.494,3.198-1.183,4.599-2.19c0.229-0.165,0.508-0.202,0.739-0.394c0.261-0.217,0.208,0.11,0.241,0.248
		c-0.406,0.529-0.988,0.838-1.549,1.142C41.637,39.625,41.057,39.979,40.441,40.26z"/>
	<path style="fill-rule:evenodd;clip-rule:evenodd;fill:#E6E6E6;" d="M33.479,42.358c0.678-0.207,1.391-0.187,2.082-0.316
		c0.826-0.154,1.611-0.457,2.43-0.611c0.88-0.166,1.658-0.544,2.443-0.93c0.104-0.051,0.197-0.108,0.198-0.242
		c1.106-0.348,2.034-1.026,3.01-1.619c0.042-0.025,0.091-0.02,0.136-0.002c0.001,0.19,0.002,0.381,0.002,0.571
		c0,0.032-0.001,0.064-0.001,0.096c-0.519,0.127-0.918,0.488-1.391,0.708c-0.583,0.271-1.129,0.623-1.715,0.887
		c-1.259,0.566-2.591,0.933-3.903,1.354c-0.545,0.175-1.107,0.161-1.67,0.104c-0.434,0.177-0.898,0.139-1.352,0.182
		C33.63,42.551,33.482,42.546,33.479,42.358z"/>
	<path style="fill-rule:evenodd;clip-rule:evenodd;fill:#EAEAEA;" d="M43.777,38.639c-0.729,0.684-1.691,0.995-2.492,1.566
		c-0.183,0.131-0.434,0.038-0.653,0.054c-0.063,0-0.128,0-0.19,0c0.328-0.458,0.875-0.61,1.33-0.855
		c0.648-0.349,1.262-0.726,1.829-1.189c0.044-0.036,0.117-0.037,0.177-0.054C43.777,38.321,43.777,38.48,43.777,38.639z"/>
	<path style="fill-rule:evenodd;clip-rule:evenodd;fill:#BBBBBB;" d="M28.997,46.077c-0.434-0.007-0.869-0.008-1.24-0.286
		C28.189,45.802,28.638,45.746,28.997,46.077z"/>
	<path style="fill-rule:evenodd;clip-rule:evenodd;fill:#BBBBBB;" d="M29.664,46.077c-0.159,0.142-0.318,0.142-0.477,0
		C29.346,45.936,29.505,45.936,29.664,46.077z"/>
	<path style="fill-rule:evenodd;clip-rule:evenodd;fill:#939393;" d="M30.618,48.843c-0.794-0.006-1.599,0.058-2.38-0.048
		c-0.37-0.05-0.776-0.094-1.142-0.244c-0.094-0.039-0.199-0.125-0.293,0.007c-0.047,0.053-0.106,0.081-0.176,0.089
		c-0.068,0.005-0.133-0.005-0.197-0.03c-0.124-0.053-0.213-0.148-0.294-0.251c-0.063-0.034-0.125-0.066-0.188-0.1
		c0.099-0.123,0.221-0.082,0.348-0.059c1.06,0.195,2.11,0.468,3.19,0.513C29.87,48.736,30.257,48.631,30.618,48.843z"/>
	<path style="fill-rule:evenodd;clip-rule:evenodd;fill:#FE4D01;" d="M33.955,23.284c-0.55-0.266-1.05-0.63-1.7-0.676
		c-0.859-0.061-1.548,0.299-2.209,0.771c0.198-0.827,0.941-0.888,1.562-1.019c0.619-0.13,1.259-0.046,1.844,0.282
		C33.719,22.793,33.912,22.971,33.955,23.284z"/>
	<path style="fill-rule:evenodd;clip-rule:evenodd;fill:#1D1C1C;" d="M31.826,20.748c0.191-0.054,0.351-0.064,0.539,0.01
		C32.175,20.806,32.016,20.814,31.826,20.748z"/>
	<path style="fill-rule:evenodd;clip-rule:evenodd;fill:#FE6A01;" d="M29.95,24.522c0-0.095,0-0.19,0-0.285c0-0.063,0-0.127,0-0.19
		c1.07-1.662,3.333-1.428,4.195,0c0.001,0.156,0.001,0.313,0.003,0.469c-0.097,0.01-0.109-0.049-0.15-0.126
		c-0.752-1.374-2.458-1.581-3.561-0.496c-0.137,0.134-0.281,0.274-0.266,0.482C30.187,24.585,30.041,24.501,29.95,24.522z"/>
	<path style="fill-rule:evenodd;clip-rule:evenodd;fill:#FE5F01;" d="M34.146,24.048c-0.316-0.184-0.495-0.523-0.823-0.702
		c-1.112-0.605-2.138-0.468-3.051,0.426c-0.1,0.098-0.213,0.184-0.321,0.275c0.083-0.396,0.816-1.042,1.251-1.147
		c1.095-0.268,2.039-0.01,2.85,0.766C34.116,23.785,34.162,23.909,34.146,24.048z"/>
	<path style="fill-rule:evenodd;clip-rule:evenodd;fill:#E5E5E5;" d="M33.479,42.358c0.237,0.201,0.477,0.035,0.719,0.014
		c0.299-0.026,0.602-0.011,0.902-0.014c-0.129,0.266-0.414,0.25-0.62,0.265c-1.366,0.095-2.729,0.167-4.106,0.052
		c-0.972-0.082-1.92-0.36-2.903-0.317c-0.237-0.298-0.63-0.208-0.928-0.369c-0.131-0.071-0.302-0.071-0.408-0.204
		c0.538-0.016,1.041,0.19,1.537,0.331c0.634,0.18,1.259,0.276,1.9,0.228c0.322-0.024,0.634,0.266,0.951,0.013
		C31.508,42.358,32.493,42.358,33.479,42.358z"/>
	<path style="fill-rule:evenodd;clip-rule:evenodd;fill:#D4D4D4;" d="M29.378,44.17c0.196,0.002,0.396,0.018,0.572-0.096
		c1.334-0.103,2.667-0.114,4.003-0.029c0.305,0.019,0.617-0.117,0.912-0.193c0.582-0.152,1.193-0.141,1.761-0.349
		c0.065,0.093,0.149,0.081,0.252,0.066c1.041-0.146,2.044-0.459,2.999-0.864c1.012-0.428,2.075-0.756,2.995-1.389
		c0.258-0.178,0.552-0.195,0.716-0.102c-0.629,0.373-1.219,0.871-1.896,1.086c-0.711,0.225-1.369,0.555-2.064,0.796
		c-1.309,0.454-2.661,0.731-4.02,0.975c-0.504,0.09-1.094,0.042-1.516,0.183c-1.132,0.38-2.249,0.094-3.363,0.194
		C30.265,44.488,29.831,44.253,29.378,44.17z"/>
	<path style="fill-rule:evenodd;clip-rule:evenodd;fill:#E5E5E5;" d="M22.893,40.546c0.67,0.167,1.253,0.553,1.907,0.763
		C24.072,41.286,23.475,40.934,22.893,40.546z"/>
	<path style="fill-rule:evenodd;clip-rule:evenodd;fill:#E5E5E5;" d="M25.086,41.404c0.34,0.07,0.701,0.091,0.954,0.381
		C25.664,41.804,25.369,41.621,25.086,41.404z"/>
	<path style="fill-rule:evenodd;clip-rule:evenodd;fill:#D4D4D4;" d="M26.898,43.693c0.588-0.074,1.093,0.201,1.621,0.381
		C27.948,44.078,27.412,43.936,26.898,43.693z"/>
	<path style="fill-rule:evenodd;clip-rule:evenodd;fill:#D4D4D4;" d="M25.754,43.407c0.258-0.059,0.51-0.1,0.667,0.191
		C26.179,43.604,25.949,43.567,25.754,43.407z"/>
	<path style="fill-rule:evenodd;clip-rule:evenodd;fill:#D4D4D4;" d="M28.615,44.074c0.257,0.01,0.543-0.216,0.763,0.096
		C29.125,44.128,28.85,44.265,28.615,44.074z"/>
	<path style="fill-rule:evenodd;clip-rule:evenodd;fill:#B3B3B3;" d="M29.473,46.649c0.3-0.091,0.584-0.048,0.858,0.095
		C30.048,46.69,29.725,46.99,29.473,46.649z"/>
	<path style="fill-rule:evenodd;clip-rule:evenodd;fill:#B3B3B3;" d="M28.806,46.649c0.159-0.067,0.318-0.181,0.477,0
		C29.124,46.583,28.965,46.82,28.806,46.649z"/>
</g>
</svg>
