<?xml version="1.0" encoding="iso-8859-1"?>
<!-- Generator: Adobe Illustrator 16.0.0, SVG Export Plug-In . SVG Version: 6.00 Build 0)  -->
<!DOCTYPE svg PUBLIC "-//W3C//DTD SVG 1.1//EN" "http://www.w3.org/Graphics/SVG/1.1/DTD/svg11.dtd">
<svg version="1.1" id="Layer_1" xmlns="http://www.w3.org/2000/svg" xmlns:xlink="http://www.w3.org/1999/xlink" x="0px" y="0px"
	 width="64px" height="64px" viewBox="0 0 64 64" style="enable-background:new 0 0 64 64;" xml:space="preserve">
<g>
	<path style="fill-rule:evenodd;clip-rule:evenodd;fill:#813F90;" d="M32.073,53.533c0.382-0.385,0.764-0.77,1.146-1.155
		c0.358-0.101,0.697,0.035,1.04,0.094c2.063,0.352,4.125,0.706,6.181,1.091c0.335,0.063,0.804-0.01,0.879,0.525
		c-0.064,0.242-0.242,0.403-0.404,0.576c-0.198,0.193-0.391,0.392-0.513,0.646c-0.205,0.299-0.446,0.563-0.758,0.754
		c-0.577,0.231-1.159,0.27-1.78,0.161c-5.229-0.912-10.454-1.849-15.682-2.769c-0.672-0.118-1.347-0.209-2.021-0.303
		c-0.644-0.604-1.256-1.241-1.878-1.866c-0.132-0.133-0.385-0.244-0.273-0.483c0.12-0.262,0.389-0.188,0.605-0.153
		c1.145,0.183,2.286,0.394,3.428,0.594c1.788,0.313,3.578,0.622,5.361,0.956c0.565,0.105,1.092,0.052,1.633-0.06
		c0.626,0.302,1.002,0.888,1.502,1.333c0.205,0.182,0.385,0.394,0.632,0.519c0.144,0.056,0.277,0.067,0.37-0.092
		c0.072-0.131,0.124-0.275,0.259-0.359C31.89,53.523,31.982,53.566,32.073,53.533z"/>
	<path style="fill-rule:evenodd;clip-rule:evenodd;fill:#7B3B8E;" d="M27.336,47.106c-2.015-1.926-3.915-3.961-5.805-6.007
		c0.121-0.537,0.541-0.366,0.854-0.321c1.643,0.237,3.271,0.566,4.906,0.844c0.1,0.017-0.025-0.004,0.073,0.018
		c1.186,0.259,1.186,0.259,2.04-0.325c0.268,0.1,0.439,0.322,0.646,0.499c0.194,0.19,0.4,0.374,0.57,0.584
		c0.395,0.491,0.813,0.603,1.305,0.146c0.077-0.022,0.155-0.036,0.234-0.045l-0.008-0.009c0.112,0.013,0.217-0.044,0.329-0.039
		c1.382,0.311,2.787,0.495,4.174,0.781c0.734,0.151,1.444,0.172,2.143-0.189c0.173-0.089,0.663-0.405,0.511,0.276
		c-1.506,1.869-3.15,3.602-4.965,5.17c-0.632,0.111-0.331-0.273-0.203-0.451c0.339-0.473,0.803-0.836,1.196-1.262
		c0.146-0.158,0.428-0.29,0.326-0.542c-0.095-0.233-0.392-0.185-0.608-0.221c-2.981-0.504-5.961-1.015-8.933-1.574
		c-0.319-0.061-0.641-0.118-0.97-0.091c0.098,0.329,0.397,0.488,0.612,0.716c0.432,0.46,0.902,0.883,1.325,1.35
		C27.259,46.597,27.558,46.77,27.336,47.106z"/>
	<path style="fill-rule:evenodd;clip-rule:evenodd;fill:#7E3D8F;" d="M20.235,53.139c0.403-0.343,0.84-0.07,1.225-0.005
		c2.843,0.484,5.676,1.028,8.515,1.533c2.741,0.487,5.491,0.929,8.226,1.447c0.459,0.087,0.829-0.218,1.253-0.084
		c-0.153,0.768-0.828,1.104-1.317,1.591c-0.895,0.499-1.803,0.573-2.836,0.382c-3.702-0.686-7.421-1.282-11.119-1.991
		c-0.451-0.087-0.905-0.074-1.359-0.089c-0.318-0.256-0.602-0.549-0.858-0.867C21.487,54.327,20.69,53.886,20.235,53.139z"/>
	<path style="fill-rule:evenodd;clip-rule:evenodd;fill:#934997;" d="M3.767,36.259c-0.064-0.064-0.129-0.128-0.193-0.192
		c0.1-0.407,0.409-0.302,0.671-0.256c3.084,0.542,6.172,1.068,9.25,1.645c0.48,0.09,0.958-0.019,1.43,0.088
		c0.124,0.052,0.233,0.125,0.337,0.21c2.135,2.072,4.217,4.193,6.317,6.298c0.239,0.24,0.551,0.472,0.442,0.895
		c-0.428,0.097-0.636-0.239-0.886-0.469c-0.354-0.323-0.688-0.67-1.018-1.018c-0.971-1.287-2.188-1.962-3.864-2.156
		c-2.786-0.322-5.54-0.928-8.306-1.425c-0.371-0.066-0.754-0.117-1.049-0.398C5.868,38.392,4.724,37.417,3.767,36.259z"/>
	<path style="fill-rule:evenodd;clip-rule:evenodd;fill:#823F91;" d="M29.94,41.98c-0.229-0.214-0.459-0.429-0.688-0.643
		c-0.689-0.177-1.063-0.765-1.478-1.244c-0.707-0.819-1.552-1.18-2.612-1.32c-1.954-0.259-3.885-0.68-5.832-0.995
		c-0.167-0.027-0.408-0.139-0.494,0.012c-0.103,0.179,0.157,0.275,0.268,0.393c0.401,0.421,0.835,0.813,1.223,1.245
		c0.166,0.187,0.465,0.361,0.24,0.697c-1.488-1.459-2.969-2.925-4.367-4.473c-0.774-0.856-1.596-1.671-2.396-2.505
		c0.265-0.425,0.66-0.279,1.023-0.223c1.801,0.283,3.59,0.632,5.384,0.948c0.748,0.132,1.5,0.189,2.256,0.247
		c0.277,0.146,0.474,0.392,0.718,0.578c2.082,2.063,4.154,4.137,6.217,6.219C29.683,41.201,30.116,41.447,29.94,41.98z"/>
	<path style="fill-rule:evenodd;clip-rule:evenodd;fill:#864292;" d="M16.797,49.702c-0.71-0.654-1.382-1.346-2.031-2.06
		c-0.35-0.534-0.877-0.902-1.289-1.378c0.182-0.603,0.651-0.323,0.98-0.269c1.646,0.274,3.293,0.547,4.935,0.847
		c1.592,0.291,3.189,0.548,4.779,0.854c0.272,0.053,0.573,0.06,0.779,0.262c1.044,1.022,2.176,1.962,3.049,3.15
		c-0.051,0.603-0.485,0.468-0.847,0.42c-1.776-0.237-3.537-0.571-5.297-0.903C20.171,50.308,18.465,50.109,16.797,49.702z"/>
	<path style="fill-rule:evenodd;clip-rule:evenodd;fill:#864292;" d="M22.267,34.137c-0.561,0.364-1.135,0.068-1.678-0.016
		c-2.001-0.312-3.995-0.679-5.984-1.061c-0.302-0.058-0.539,0.018-0.801,0.086c-0.109-0.109-0.219-0.22-0.328-0.329
		c-0.959-1.143-2.094-2.114-3.107-3.202c-0.207-0.222-0.68-0.391-0.494-0.752c0.202-0.396,0.673-0.253,1.038-0.188
		c1.915,0.343,3.821,0.787,5.752,0.974c1.351,0.131,2.287,0.727,3.132,1.688c0.633,0.72,1.354,1.362,2.025,2.048
		C22.029,33.596,22.295,33.783,22.267,34.137z"/>
	<path style="fill-rule:evenodd;clip-rule:evenodd;fill:#7B3B8E;" d="M22.821,55.923c0.399-0.369,0.88-0.203,1.291-0.114
		c2.543,0.555,5.127,0.875,7.676,1.388c1.519,0.307,3.063,0.47,4.575,0.811c0.195,0.044,0.388,0.024,0.581-0.082
		c0.281-0.154,0.577-0.297,0.917-0.265c0.003,0.201-0.097,0.356-0.224,0.499c-0.717,0.683-1.351,1.453-2.139,2.061
		c-1.183-0.061-2.337-0.333-3.498-0.542c-1.867-0.335-3.741-0.629-5.605-0.981c-0.134-0.024-0.331-0.141-0.399,0.033
		c-0.056,0.143,0.14,0.247,0.241,0.35c0.731,0.736,1.465,1.47,2.202,2.199c0.165,0.173,0.343,0.337,0.407,0.58
		c0.015,0.093-0.022,0.153-0.111,0.184c-1.419-1.387-2.83-2.78-4.154-4.259C24.012,57.149,23.409,56.543,22.821,55.923z"/>
	<path style="fill-rule:evenodd;clip-rule:evenodd;fill:#A7579F;" d="M47.06,38.111c0.01-0.135,0.089-0.23,0.179-0.321
		c2.233-2.256,4.467-4.512,6.7-6.769c0.026-0.12,0.105-0.198,0.207-0.258c0.922-0.085,1.778,0.268,2.666,0.41
		c1.563,0.252,3.135,0.467,4.684,0.811c0.347,0.076,0.797,0.059,0.815,0.604c-0.515,1.06-1.477,1.707-2.287,2.494
		c-0.363,0.232-0.756,0.225-1.165,0.153c-1.883-0.329-3.777-0.619-5.642-1.029c-1.226-0.27-2.166-0.146-2.87,0.944
		c-0.43,0.452-0.873,0.89-1.318,1.325c-0.396,0.45-0.83,0.861-1.261,1.275C47.571,37.939,47.369,38.135,47.06,38.111z"/>
	<path style="fill-rule:evenodd;clip-rule:evenodd;fill:#A7579F;" d="M18.48,12.113c0.009-0.135,0.089-0.23,0.179-0.321
		c2.163-2.185,4.326-4.369,6.489-6.554c0.161-0.346,0.493-0.539,0.729-0.817c0.265-0.219,0.563-0.156,0.861-0.104
		c1.755,0.303,3.5,0.665,5.268,0.898c0.258,0.034,0.609,0.032,0.443,0.482c-1.095,1.646-2.582,2.917-4.025,4.228
		c-0.472,0.099-0.378-0.17-0.236-0.405c0.211-0.351,0.023-0.443-0.272-0.491c-1.54-0.251-3.07-0.559-4.612-0.798
		c-0.415-0.064-0.731,0.085-1.014,0.374c-0.457,0.469-0.934,0.918-1.373,1.405c-0.521,0.553-1.074,1.074-1.604,1.616
		C19.074,11.855,18.861,12.128,18.48,12.113z"/>
	<path style="fill-rule:evenodd;clip-rule:evenodd;fill:#964C98;" d="M14.744,37.577c-0.37,0.261-0.774,0.159-1.165,0.092
		c-1.086-0.188-2.168-0.392-3.251-0.589c-1.452-0.265-2.905-0.527-4.357-0.796c-0.689-0.127-1.395-0.158-2.069-0.371
		c-0.129-0.04-0.235,0.066-0.328,0.154c-0.782-0.796-1.563-1.592-2.344-2.387c-0.05-0.673,0.054-0.779,0.755-0.671
		c1.668,0.258,3.325,0.586,4.99,0.862c1.566,0.259,3.115,0.617,4.698,0.768c0.204,0.02,0.412,0.051,0.566,0.188
		c0.862,0.774,1.693,1.58,2.447,2.462C14.754,37.368,14.761,37.474,14.744,37.577z"/>
	<path style="fill-rule:evenodd;clip-rule:evenodd;fill:#9A4E9A;" d="M14.744,37.577c-0.817-0.825-1.636-1.649-2.45-2.477
		c-0.145-0.146-0.287-0.265-0.514-0.278c-1.732-0.097-3.412-0.523-5.114-0.817c-1.604-0.276-3.217-0.504-4.81-0.835
		c-0.558-0.116-0.585,0.136-0.627,0.511c-0.267-0.26-0.553-0.502-0.796-0.781c-0.511-0.587-0.538-1.249-0.115-1.979
		c0.269-0.537,0.665-0.623,1.249-0.507c1.979,0.395,3.981,0.667,5.952,1.098c0.561,0.122,1.006-0.292,1.528-0.118
		c1.58,1.368,2.972,2.926,4.469,4.375c0.415,0.402,0.835,0.802,1.217,1.235c0.19,0.216,0.455,0.43,0.271,0.785
		C14.917,37.718,14.83,37.647,14.744,37.577z"/>
	<path style="fill-rule:evenodd;clip-rule:evenodd;fill:#77398D;" d="M27.336,47.106c0.025-0.311-0.249-0.422-0.415-0.593
		c-0.688-0.707-1.394-1.398-2.087-2.101c-0.075-0.077-0.246-0.133-0.163-0.285c0.053-0.096,0.184-0.074,0.278-0.059
		c1.11,0.189,2.22,0.389,3.331,0.577c0.988,0.169,1.985,0.29,2.964,0.501c0.909,0.196,1.843,0.256,2.737,0.49
		c0.568,0.148,1.15,0.112,1.711,0.266c0.518,0.143,0.556,0.231,0.19,0.607c-0.493,0.508-1.003,1.001-1.499,1.508
		c-0.135,0.138-0.344,0.238-0.307,0.487c0.028,0.232-0.107,0.359-0.293,0.454c-1.841-0.663-3.758-0.938-5.697-1.095
		C27.805,47.643,27.557,47.387,27.336,47.106z"/>
	<path style="fill-rule:evenodd;clip-rule:evenodd;fill:#934997;" d="M40.098,45.29c0.01-0.047,0.038-0.075,0.085-0.085
		c0.724-0.914,1.624-1.658,2.416-2.504c0.566-0.385,1.146-0.059,1.683,0.043c1.815,0.344,3.633,0.673,5.461,0.94
		c0.101,0.015,0.202,0.028,0.297,0.063c0.296,0.108,0.719,0.066,0.803,0.462c0.07,0.332-0.232,0.543-0.448,0.747
		c-0.66,0.627-1.229,1.348-1.976,1.883c-0.376,0.156-0.753,0.04-1.121-0.022c-2.121-0.362-4.233-0.766-6.354-1.126
		C40.636,45.637,40.266,45.661,40.098,45.29z"/>
	<path style="fill-rule:evenodd;clip-rule:evenodd;fill:#8A4493;" d="M22.267,34.137c-1.264-1.271-2.53-2.539-3.79-3.814
		c-0.225-0.229-0.444-0.276-0.784-0.287c-0.742-0.021-1.48-0.199-2.218-0.331c-1.602-0.287-3.201-0.586-4.803-0.876
		c-0.122-0.022-0.251-0.021-0.377-0.02c-0.121,0.002-0.272-0.028-0.342,0.096c-0.101,0.181,0.073,0.271,0.172,0.37
		c0.979,0.985,1.965,1.962,2.938,2.952c0.166,0.169,0.44,0.28,0.412,0.591c-1.453-1.425-2.9-2.854-4.263-4.368
		c-0.773-0.858-1.596-1.672-2.396-2.506c-0.041-0.606,0.407-0.393,0.678-0.369c1.302,0.117,2.583,0.382,3.867,0.617
		c1.381,0.252,2.771,0.449,4.147,0.733c0.301,0.189,0.522,0.467,0.8,0.683c2.047,2.027,4.083,4.064,6.109,6.111
		c0.281,0.284,0.716,0.529,0.539,1.063C22.727,34.567,22.496,34.352,22.267,34.137z"/>
	<path style="fill-rule:evenodd;clip-rule:evenodd;fill:#823F91;" d="M32.38,42.513c-0.08,0.036-0.156,0.031-0.227-0.024
		c1.023-0.907,1.933-1.931,2.905-2.89c0.937-0.924,1.859-1.862,2.788-2.795c1.876,0.242,3.728,0.625,5.582,0.986
		c0.648,0.127,0.733,0.454,0.282,0.949c-0.561,0.614-1.171,1.182-1.756,1.773c-0.248,0.25-0.515,0.485-0.679,0.807
		c-0.122,0.173-0.267,0.317-0.481,0.37c-1.791-0.646-3.695-0.748-5.538-1.149c-0.385-0.085-0.686,0.044-0.953,0.317
		c-0.389,0.396-0.781,0.789-1.179,1.177C32.911,42.245,32.714,42.487,32.38,42.513z"/>
	<path style="fill-rule:evenodd;clip-rule:evenodd;fill:#7E3D8F;" d="M20.566,40.125c0.018-0.338-0.286-0.455-0.466-0.645
		c-0.505-0.532-1.035-1.038-1.547-1.563c-0.093-0.096-0.306-0.171-0.22-0.334c0.075-0.144,0.277-0.081,0.42-0.07
		c0.399,0.032,0.801,0.065,1.195,0.134c1.999,0.35,3.989,0.754,5.997,1.041c0.651,0.093,1.083,0.371,1.498,0.813
		c0.588,0.626,1.204,1.226,1.808,1.836c-0.149,0.247,0.135,0.624-0.075,0.741c-0.193,0.108-0.528-0.018-0.797-0.066
		c-1.664-0.306-3.326-0.625-4.991-0.926c-0.467-0.084-0.945-0.1-1.411-0.188c-0.226-0.042-0.319,0.087-0.446,0.2
		C21.176,40.807,20.858,40.479,20.566,40.125z"/>
	<path style="fill-rule:evenodd;clip-rule:evenodd;fill:#864292;" d="M41.289,53.999c-0.234-0.239-0.564-0.202-0.848-0.253
		c-2.118-0.38-4.241-0.729-6.361-1.101c-0.294-0.052-0.575-0.177-0.861-0.268c0.008-0.047,0.036-0.073,0.083-0.079
		c0.694-0.881,1.561-1.595,2.322-2.407c0.222-0.212,0.472-0.107,0.715-0.063c2.161,0.395,4.328,0.755,6.489,1.146
		c0.124,0.022,0.249,0.039,0.372,0.068c0.776,0.188,0.862,0.423,0.33,0.988c-0.536,0.569-1.099,1.115-1.659,1.662
		C41.71,53.851,41.547,54.017,41.289,53.999z"/>
	<path style="fill-rule:evenodd;clip-rule:evenodd;fill:#934997;" d="M6.654,24.364c-0.008-0.171,0.107-0.275,0.214-0.383
		c1.652-1.67,3.307-3.34,4.96-5.01c0.039-0.011,0.079-0.021,0.118-0.032c1.58,0.205,3.135,0.557,4.709,0.798
		c0.375,0.058,0.75,0.093,1.13,0.112c0.564,0.027,0.692,0.248,0.325,0.631c-0.941,0.983-1.84,2.016-2.928,2.851
		c-1.098,0.107-2.134-0.287-3.203-0.419c-0.696-0.086-1.396-0.216-2.079-0.39c-0.653-0.166-1.181-0.04-1.614,0.504
		c-0.234,0.293-0.528,0.54-0.782,0.821C7.252,24.071,7.055,24.385,6.654,24.364z"/>
	<path style="fill-rule:evenodd;clip-rule:evenodd;fill:#874292;" d="M41.166,41.2c-0.02-0.307,0.249-0.42,0.415-0.591
		c0.668-0.687,1.353-1.355,2.024-2.038c0.112-0.115,0.329-0.208,0.231-0.419c-0.064-0.143-0.251-0.162-0.391-0.188
		c-1.671-0.301-3.341-0.601-5.015-0.876c-0.241-0.039-0.433-0.101-0.585-0.284c0.14-0.198,0.298-0.379,0.504-0.513
		c0.646-0.836,1.47-1.502,2.186-2.271c0.178-0.209,0.401-0.155,0.627-0.109c1.705,0.342,3.419,0.632,5.135,0.912
		c0.331,0.054,0.853,0.004,0.65,0.642c-1.616,1.896-3.313,3.716-5.121,5.428C41.645,41.065,41.449,41.234,41.166,41.2z"/>
	<path style="fill-rule:evenodd;clip-rule:evenodd;fill:#9E519B;" d="M47.06,38.111c0.62-0.611,1.24-1.223,1.86-1.834
		c1.816,0.167,3.59,0.594,5.385,0.89c0.673,0.11,1.361,0.159,2.009,0.388c0.294,0.104,0.686,0.167,0.543,0.653
		c-0.595,0.747-1.267,1.415-2.008,2.013c-0.792,0.092-1.521-0.24-2.281-0.358c-1.712-0.264-3.418-0.571-5.118-0.904
		c-0.294-0.058-0.686-0.003-0.792-0.433C46.791,38.387,46.925,38.249,47.06,38.111z"/>
	<path style="fill-rule:evenodd;clip-rule:evenodd;fill:#9A4E9A;" d="M46.657,38.525c0.61,0.329,1.301,0.353,1.958,0.472
		c1.801,0.326,3.61,0.608,5.406,0.966c0.235,0.047,0.438,0.097,0.59,0.286c0.001,0.038,0.001,0.076,0.003,0.115
		c-0.064,0.227-0.195,0.42-0.309,0.623c-0.261,0.357-0.562,0.674-0.934,0.918c-0.609,0.313-1.25,0.351-1.916,0.239
		c-1.916-0.319-3.829-0.658-5.738-1.015c-0.719-0.135-1.266,0.007-1.754,0.567c-0.322,0.371-0.627,0.808-1.169,0.917
		c-0.87,0.863-1.741,1.728-2.612,2.591c0.011-0.135,0.092-0.23,0.182-0.321C42.462,42.764,44.56,40.645,46.657,38.525z"/>
	<path style="fill-rule:evenodd;clip-rule:evenodd;fill:#8C4594;" d="M13.467,46.157c0.408,0.517,1.049,0.83,1.299,1.485
		c-1.433-1.405-2.868-2.807-4.198-4.312c-0.548-0.619-1.139-1.201-1.71-1.801c0.33-0.462,0.792-0.253,1.181-0.18
		c2.188,0.416,4.395,0.725,6.576,1.169c1.165,0.236,2.354,0.333,3.508,0.633c0.622,0.611,1.244,1.223,1.866,1.834
		c0.069,0.043,0.093,0.104,0.071,0.184c-0.318,0.393-0.741,0.248-1.123,0.184c-2.907-0.493-5.807-1.029-8.714-1.524
		c-0.24-0.041-0.595-0.229-0.701-0.037c-0.118,0.212,0.256,0.365,0.404,0.552C12.418,44.965,13.198,45.343,13.467,46.157z"/>
	<path style="fill-rule:evenodd;clip-rule:evenodd;fill:#9A4E9A;" d="M11.828,18.971c0.045-0.087,0.071-0.192,0.137-0.259
		c1.61-1.63,3.226-3.256,4.84-4.883c1.288,0.023,2.526,0.371,3.786,0.582c0.544,0.091,1.093,0.162,1.631,0.282
		c0.359,0.08,0.776,0.145,0.71,0.687c-0.322,0.606-0.979,0.933-1.292,1.546c-0.198,0.285-0.421,0.545-0.742,0.699
		c-0.892,0.081-1.733-0.232-2.599-0.357c-1.045-0.151-2.087-0.339-3.115-0.58c-0.454-0.106-0.77-0.006-1.078,0.318
		c-0.484,0.51-0.99,1.002-1.492,1.497c-0.214,0.209-0.41,0.452-0.744,0.477L11.828,18.971z"/>
	<path style="fill-rule:evenodd;clip-rule:evenodd;fill:#9E519C;" d="M8.74,31.33c-0.095,0.367-0.25,0.514-0.697,0.427
		c-1.763-0.342-3.539-0.61-5.306-0.932c-0.539-0.098-1.098-0.107-1.614-0.312c-0.432-0.171-0.543,0.259-0.805,0.407
		c0.896-1.275,2.066-2.293,3.209-3.325c0.371-0.335,0.941-0.288,1.433-0.066c0.182,0.038,0.378,0.017,0.543,0.125
		c1.069,0.912,2.088,1.875,2.929,3.009C8.579,30.862,8.753,31.054,8.74,31.33z"/>
	<path style="fill-rule:evenodd;clip-rule:evenodd;fill:#9E519B;" d="M22.917,15.216c-0.404-0.496-1.012-0.363-1.531-0.468
		c-1.46-0.293-2.931-0.53-4.397-0.795c-0.066-0.012-0.122-0.081-0.184-0.124c0.559-0.572,1.117-1.145,1.676-1.716
		c0.229-0.216,0.46-0.433,0.689-0.649c0.742-0.192,1.44,0.117,2.148,0.225c1.166,0.177,2.325,0.405,3.487,0.609
		c0.292,0.051,0.696,0.001,0.699,0.492c-0.08,0.206-0.216,0.372-0.376,0.52c-0.492,0.489-0.976,0.985-1.473,1.467
		C23.447,14.979,23.259,15.23,22.917,15.216z"/>
	<path style="fill-rule:evenodd;clip-rule:evenodd;fill:#8E4795;" d="M20.122,43.152c-0.508,0.171-1.009-0.008-1.491-0.09
		c-2.819-0.476-5.632-0.996-8.446-1.505c-0.441-0.079-0.881-0.207-1.327-0.027c-0.531-0.476-1.029-0.983-1.502-1.518
		c-0.016-0.17-0.239-0.224-0.228-0.409c0.738-0.074,1.433,0.197,2.144,0.309c2.23,0.35,4.443,0.811,6.67,1.187
		c0.69,0.116,1.373,0.333,2.087,0.276c0.288-0.022,0.468,0.136,0.649,0.323C19.154,42.187,19.64,42.667,20.122,43.152z"/>
	<path style="fill-rule:evenodd;clip-rule:evenodd;fill:#964C98;" d="M45.231,29.195c0.061-0.298,0.313-0.451,0.503-0.645
		c1.77-1.805,3.558-3.592,5.313-5.41c0.514-0.533,1.025-0.889,1.794-0.598c0.101,0.039,0.238-0.023,0.359-0.039
		c0.092,0.017,0.162,0.064,0.211,0.144c0.446,0.811,1.217,1.33,1.807,2.012c0.798,0.924,0.648,1.955-0.382,2.602
		c-0.11,0.017-0.219-0.015-0.204-0.138c0.05-0.407,0.057-0.4-0.376-0.489c-1.335-0.276-2.687-0.466-4.013-0.784
		c-0.774-0.186-1.402-0.057-1.965,0.583c-0.715,0.814-1.526,1.543-2.285,2.321C45.775,28.963,45.582,29.215,45.231,29.195z"/>
	<path style="fill-rule:evenodd;clip-rule:evenodd;fill:#8C4594;" d="M6.654,24.364c0.266-0.255,0.531-0.511,0.797-0.766
		c0.514-0.114,0.996,0.085,1.487,0.162c1.539,0.243,3.051,0.663,4.621,0.712c0.151,0.005,0.301,0.045,0.37,0.211
		c0.007,0.148-0.027,0.296-0.007,0.445c0.189,0.461,0.627,0.702,0.928,1.062c0.188,0.225,0.463,0.397,0.432,0.748
		c-0.53,0.148-1.052-0.017-1.555-0.115c-1.146-0.225-2.305-0.382-3.447-0.616c-0.952-0.195-1.916-0.293-2.868-0.476
		c-0.227-0.043-0.511-0.172-0.596,0.212C6.33,25.339,6.298,25.021,6.654,24.364z"/>
	<path style="fill-rule:evenodd;clip-rule:evenodd;fill:#8C4594;" d="M35.812,49.811c-0.836,0.829-1.673,1.658-2.51,2.487
		c0.045-0.089,0.07-0.195,0.137-0.263c1.828-1.853,3.661-3.701,5.494-5.551c2.432,0.371,4.849,0.831,7.269,1.269
		c0.375,0.067,0.835,0.122,0.799,0.7c-0.239,0.45-0.604,0.777-1.019,1.059c-0.442,0.19-0.893,0.104-1.34,0.024
		c-1.988-0.35-3.987-0.639-5.961-1.064c-0.771-0.167-1.358-0.043-1.866,0.589C36.557,49.381,36.294,49.761,35.812,49.811z"/>
	<path style="fill-rule:evenodd;clip-rule:evenodd;fill:#8C4594;" d="M40.754,33.912c-0.802,0.794-1.603,1.587-2.403,2.38
		c0.044-0.088,0.069-0.195,0.136-0.262c1.971-1.998,3.945-3.992,5.919-5.987c0.823-0.067,1.59,0.242,2.387,0.355
		c1.023,0.147,2.04,0.345,3.057,0.536c0.289,0.054,0.669,0.065,0.758,0.401c0.088,0.329-0.229,0.538-0.443,0.739
		c-0.42,0.395-0.752,0.891-1.293,1.15c-1.298-0.146-2.565-0.47-3.854-0.669c-0.149-0.022-0.303-0.041-0.444-0.089
		c-1.228-0.413-2.25-0.198-3.026,0.915C41.365,33.64,41.123,33.894,40.754,33.912z"/>
	<path style="fill-rule:evenodd;clip-rule:evenodd;fill:#8E4795;" d="M46.971,48.292c-0.352-0.404-0.862-0.378-1.318-0.461
		c-2.04-0.372-4.085-0.724-6.13-1.067c-0.235-0.04-0.439-0.087-0.59-0.279c0.356-0.429,0.744-0.828,1.165-1.195
		c0.733,0.271,1.512,0.329,2.272,0.47c1.499,0.275,3.001,0.528,4.502,0.792c0.467,0.082,0.934,0.167,1.4,0.25
		c-0.001,0.438-0.428,0.633-0.562,0.996C47.519,48.043,47.341,48.312,46.971,48.292z"/>
	<path style="fill-rule:evenodd;clip-rule:evenodd;fill:#8F4795;" d="M48.81,33.158c0.481-0.481,0.965-0.962,1.443-1.446
		c0.103-0.104,0.292-0.196,0.257-0.34c-0.034-0.142-0.231-0.169-0.382-0.194c-1.06-0.183-2.125-0.339-3.179-0.553
		c-0.852-0.173-1.733-0.228-2.544-0.582c0.244-0.313,0.519-0.597,0.826-0.848c0.229-0.215,0.457-0.431,0.686-0.646
		c1.178,0.097,2.335,0.332,3.498,0.528c0.445,0.075,0.886,0.184,1.33,0.267c0.635,0.119,1.238,0.162,1.775-0.325
		c0.146-0.133,0.564-0.443,0.442,0.205c-1.197,1.644-2.684,3.017-4.124,4.432c-0.127,0.124-0.275,0.222-0.452,0.269
		c-0.104,0.021-0.186-0.014-0.242-0.105C48.172,33.403,48.457,33.247,48.81,33.158z"/>
	<path style="fill-rule:evenodd;clip-rule:evenodd;fill:#823F91;" d="M16.797,49.702c0.742-0.197,1.439,0.12,2.146,0.231
		c2.788,0.443,5.565,0.951,8.348,1.437c0.248,0.044,0.496,0.113,0.671-0.152c0.469,0.012,0.675,0.38,0.928,0.685
		c0.042,0.081,0.062,0.167,0.06,0.259c-0.279,0.364-0.607,0.405-1.067,0.32c-3.085-0.573-6.178-1.104-9.269-1.647
		c-0.025-0.005-0.052-0.01-0.075-0.005c-0.141,0.024-0.312-0.151-0.415,0.012c-0.111,0.173,0.085,0.265,0.181,0.363
		c0.424,0.436,0.857,0.862,1.287,1.292c0.215,0.215,0.431,0.429,0.646,0.644c0.477,0.478,0.957,0.952,1.429,1.436
		c0.132,0.136,0.342,0.233,0.299,0.481C20.187,53.324,18.43,51.573,16.797,49.702z"/>
	<path style="fill-rule:evenodd;clip-rule:evenodd;fill:#AE5BA2;" d="M26.041,4.372c-0.298,0.289-0.596,0.577-0.893,0.866
		c0.027-0.285,0.269-0.417,0.439-0.591c1.27-1.298,2.561-2.576,3.817-3.886c0.495-0.517,1.007-0.823,1.737-0.566
		c0.106,0.038,0.244-0.016,0.367-0.028c0.103,0.077,0.208,0.15,0.289,0.252c0.471,0.712,1.124,1.258,1.702,1.872
		c0.271,0.287,0.578,0.565,0.487,1.027c-0.304,0.323-0.671,0.141-0.995,0.085c-1.269-0.22-2.545-0.412-3.804-0.68
		c-0.798-0.17-1.35,0.029-1.87,0.621C26.96,3.751,26.624,4.227,26.041,4.372z"/>
	<path style="fill-rule:evenodd;clip-rule:evenodd;fill:#74378D;" d="M28.087,47.865c0.34-0.494,0.824-0.195,1.179-0.119
		c1.27,0.274,2.557,0.447,3.829,0.7c0.327,0.065,0.501,0.178,0.555,0.491c0.02,0.416-0.34,0.586-0.555,0.849
		c-0.169,0.206-0.445,0.36-0.315,0.7c0.03,0.063,0.048,0.129,0.056,0.197c-0.029,0.067-0.079,0.106-0.152,0.116
		c-0.403-0.043-0.784-0.186-1.219-0.058c-0.408,0.121-0.786-0.124-1.069-0.418C29.614,49.515,28.854,48.686,28.087,47.865z"/>
	<path style="fill-rule:evenodd;clip-rule:evenodd;fill:#AF5BA3;" d="M54.192,30.803c-0.085,0.072-0.169,0.146-0.254,0.218
		c0.021-0.257,0.234-0.38,0.388-0.538c0.739-0.761,1.503-1.499,2.226-2.273c0.574-0.615,1.197-0.996,2.072-0.742
		c0.107,0.031,0.24-0.024,0.361-0.04c0.092,0.018,0.175,0.057,0.247,0.117c0.759,0.805,1.56,1.57,2.332,2.361
		c0.242,0.249,0.533,0.472,0.567,0.859c-0.073,0.222-0.252,0.17-0.353,0.077c-0.89-0.814-2.062-0.725-3.122-0.972
		c-0.659-0.153-1.348-0.188-2.005-0.36c-0.557-0.146-0.965,0.017-1.344,0.43C54.99,30.286,54.696,30.687,54.192,30.803z"/>
	<path style="fill-rule:evenodd;clip-rule:evenodd;fill:#74378D;" d="M28.828,61.949c-0.18-0.179-0.358-0.358-0.537-0.537
		c0.12-0.407,0.441-0.26,0.687-0.22c1.117,0.181,2.23,0.392,3.347,0.58c0.466,0.079,0.899,0.229,0.874,0.837
		c-0.121,0.455-0.585,0.64-0.803,1.016c0.01,0.061,0.013,0.121,0.012,0.183c-0.03,0.059-0.079,0.086-0.146,0.082
		c-0.243,0.043-0.46-0.112-0.726-0.041c-0.608,0.163-1.129-0.045-1.556-0.505c-0.34-0.367-0.688-0.727-1.034-1.089
		C28.945,62.137,28.807,62.075,28.828,61.949z"/>
	<path style="fill-rule:evenodd;clip-rule:evenodd;fill:#8F67A0;" d="M38.512,45.631c-0.306,0.59-0.848,0.972-1.284,1.446
		c-0.389,0.424-0.815,0.813-1.226,1.219c-0.269,0.112-0.412,0.369-0.625,0.547c-0.243,0.237-0.474,0.486-0.727,0.714
		c-0.089,0.064-0.163,0.051-0.222-0.041c-0.042-0.284,0.127-0.48,0.303-0.657c0.636-0.641,1.231-1.323,1.945-1.883
		c0.352-0.179,0.632-0.446,0.899-0.729c0.256-0.225,0.454-0.523,0.807-0.624C38.426,45.625,38.469,45.628,38.512,45.631z"/>
	<path style="fill-rule:evenodd;clip-rule:evenodd;fill:#946EA4;" d="M52.396,31.327c-0.651,0.938-1.521,1.671-2.322,2.468
		c-0.369,0.202-0.596,0.561-0.905,0.828c-0.311,0.296-0.592,0.623-0.925,0.897c-0.105,0.014-0.167-0.031-0.185-0.137
		c0.123-0.62,0.659-0.921,1.046-1.33c0.427-0.454,0.848-0.921,1.36-1.287c0.413-0.202,0.704-0.551,1.021-0.866
		C51.767,31.671,51.954,31.298,52.396,31.327z"/>
	<path style="fill-rule:evenodd;clip-rule:evenodd;fill:#9069A0;" d="M19.994,41.118c0.801,0.797,1.663,1.534,2.319,2.467
		c-0.439,0.025-0.627-0.347-0.906-0.573c-0.319-0.317-0.612-0.666-1.028-0.87c-0.768-0.604-1.412-1.336-2.096-2.027
		c-0.174-0.177-0.339-0.374-0.287-0.657c0.152-0.16,0.233,0.001,0.333,0.073c0.279,0.277,0.557,0.556,0.835,0.834
		C19.447,40.608,19.653,40.937,19.994,41.118z"/>
	<path style="fill-rule:evenodd;clip-rule:evenodd;fill:#885D9A;" d="M37.675,59.579c-0.689,0.97-1.588,1.743-2.425,2.574
		c-0.271,0.117-0.418,0.376-0.634,0.558c-0.21,0.112-0.26,0.479-0.604,0.378c-0.081-0.288,0.091-0.486,0.264-0.664
		c0.595-0.611,1.162-1.251,1.835-1.78c0.175-0.127,0.386-0.202,0.535-0.367c0.222-0.201,0.418-0.429,0.658-0.61
		C37.417,59.593,37.537,59.546,37.675,59.579z"/>
	<path style="fill-rule:evenodd;clip-rule:evenodd;fill:#9069A1;" d="M58.83,37.775c-0.645,0.939-1.517,1.664-2.311,2.464
		c-0.38,0.217-0.621,0.586-0.943,0.867c-0.347,0.275-0.552,0.717-1.013,0.856c-0.153-0.324,0.067-0.536,0.253-0.727
		c0.631-0.651,1.234-1.331,1.951-1.894c0.446-0.22,0.763-0.594,1.107-0.935c0.225-0.209,0.419-0.453,0.695-0.603
		C58.653,37.768,58.74,37.758,58.83,37.775z"/>
	<path style="fill-rule:evenodd;clip-rule:evenodd;fill:#8F67A0;" d="M26.763,48.1c0.865,0.871,1.813,1.664,2.523,2.681
		c-0.382,0.026-0.564-0.278-0.808-0.483c-0.43-0.4-0.783-0.886-1.321-1.163c-0.647-0.49-1.181-1.099-1.746-1.674
		c-0.191-0.194-0.398-0.402-0.313-0.725c0.396-0.057,0.475,0.345,0.724,0.5C26.143,47.515,26.382,47.885,26.763,48.1z"/>
	<path style="fill-rule:evenodd;clip-rule:evenodd;fill:#946DA4;" d="M20.961,30.911c0.799,0.796,1.67,1.522,2.313,2.465
		c-0.257,0.037-0.422-0.123-0.593-0.272c-0.283-0.274-0.557-0.559-0.84-0.833c-0.176-0.201-0.403-0.335-0.629-0.47
		c-0.716-0.562-1.315-1.241-1.951-1.885c-0.176-0.177-0.345-0.373-0.3-0.658c0.063-0.089,0.139-0.101,0.226-0.033
		c0.354,0.33,0.688,0.682,1.032,1.021C20.472,30.461,20.65,30.759,20.961,30.911z"/>
	<path style="fill-rule:evenodd;clip-rule:evenodd;fill:#936CA3;" d="M32.283,7.389c-0.639,0.936-1.506,1.658-2.299,2.449
		c-0.411,0.243-0.676,0.642-1.026,0.949c-0.216,0.133-0.288,0.474-0.625,0.431c-0.115-0.321,0.095-0.528,0.281-0.719
		c0.592-0.605,1.154-1.244,1.826-1.766c0.396-0.197,0.694-0.512,0.997-0.823c0.222-0.2,0.406-0.451,0.716-0.532
		C32.196,7.381,32.239,7.385,32.283,7.389z"/>
	<path style="fill-rule:evenodd;clip-rule:evenodd;fill:#936CA3;" d="M13.009,33.919c0.796,0.788,1.656,1.515,2.299,2.446
		c-0.043,0.003-0.086,0.006-0.13,0.01c-0.398-0.121-0.614-0.47-0.908-0.722c-0.307-0.312-0.602-0.636-1.003-0.835
		c-0.676-0.524-1.242-1.163-1.837-1.771c-0.188-0.192-0.397-0.4-0.287-0.722c0.457,0.05,0.6,0.499,0.92,0.722
		C12.385,33.33,12.629,33.699,13.009,33.919z"/>
	<path style="fill-rule:evenodd;clip-rule:evenodd;fill:#8F68A0;" d="M25.636,14.248c-0.609,0.902-1.446,1.593-2.205,2.356
		c-0.335,0.176-0.536,0.5-0.814,0.74c-0.243,0.243-0.485,0.486-0.729,0.728c-0.099,0.077-0.175,0.228-0.337,0.108
		c-0.077-0.291,0.097-0.49,0.271-0.668c0.601-0.615,1.171-1.263,1.853-1.793c0.268-0.152,0.521-0.324,0.726-0.559
		c0.325-0.294,0.591-0.654,0.975-0.882C25.458,14.24,25.546,14.23,25.636,14.248z"/>
	<path style="fill-rule:evenodd;clip-rule:evenodd;fill:#926BA2;" d="M44.852,52.186c-0.639,0.935-1.506,1.655-2.296,2.448
		c-0.232,0.084-0.351,0.303-0.529,0.451c-0.204,0.204-0.408,0.408-0.612,0.612c-0.211,0.136-0.288,0.461-0.614,0.432
		c-0.126-0.319,0.087-0.524,0.27-0.715c0.516-0.535,1.01-1.092,1.604-1.546c0.216-0.14,0.452-0.253,0.625-0.454
		c0.211-0.204,0.418-0.413,0.625-0.622c0.253-0.224,0.45-0.52,0.801-0.617C44.766,52.179,44.809,52.182,44.852,52.186z"/>
	<path style="fill-rule:evenodd;clip-rule:evenodd;fill:#926AA2;" d="M18.854,21.248c-0.605,0.897-1.433,1.586-2.191,2.34
		c-0.63,0.365-0.944,1.098-1.627,1.402c-0.166-0.322,0.061-0.531,0.242-0.721c0.553-0.58,1.089-1.179,1.726-1.672
		c0.31-0.166,0.582-0.38,0.817-0.643c0.291-0.251,0.506-0.6,0.903-0.719C18.768,21.24,18.812,21.244,18.854,21.248z"/>
	<path style="fill-rule:evenodd;clip-rule:evenodd;fill:#885D9A;" d="M60.617,27.593c0.993,0.894,1.891,1.884,2.825,2.835
		c0.064,0.065,0.083,0.176,0.123,0.265c-0.083,0.019-0.164,0.011-0.243-0.021c-0.22-0.12-0.426-0.263-0.644-0.387
		c-0.486-0.374-0.92-0.8-1.285-1.294c-0.143-0.299-0.391-0.514-0.6-0.761C60.643,28.053,60.409,27.878,60.617,27.593z"/>
	<path style="fill-rule:evenodd;clip-rule:evenodd;fill:#916AA2;" d="M45.389,38.542c-0.529,0.827-1.296,1.434-1.973,2.123
		c-0.202,0.068-0.307,0.254-0.459,0.383c-0.329,0.329-0.657,0.657-0.986,0.986c-0.212,0.149-0.308,0.452-0.621,0.465
		c-0.154-0.32,0.067-0.527,0.248-0.718c0.515-0.539,1.014-1.098,1.609-1.554c0.175-0.127,0.386-0.203,0.535-0.368
		c0.275-0.261,0.538-0.533,0.808-0.801c0.22-0.198,0.403-0.446,0.711-0.527C45.303,38.536,45.346,38.539,45.389,38.542z"/>
	<path style="fill-rule:evenodd;clip-rule:evenodd;fill:#67317E;" d="M58.83,37.775c-0.053,0.025-0.105,0.051-0.158,0.077
		c-0.087-0.062-0.113-0.143-0.078-0.243c0.798-1.161,1.927-2.01,2.87-3.035c0.251-0.189,0.44-0.464,0.757-0.568
		c0.102-0.028,0.173,0.008,0.211,0.106C61.231,35.333,60.03,36.553,58.83,37.775z"/>
	<path style="fill-rule:evenodd;clip-rule:evenodd;fill:#964C98;" d="M7.128,39.603c0.1,0.123,0.28,0.201,0.228,0.409
		c-1.153-1.163-2.308-2.324-3.456-3.491c-0.065-0.065-0.089-0.173-0.133-0.262C4.888,37.374,6.007,38.489,7.128,39.603z"/>
	<path style="fill-rule:evenodd;clip-rule:evenodd;fill:#67317E;" d="M55.985,27.665c-1.174,1.187-2.348,2.374-3.522,3.561
		c-0.104-0.039-0.144-0.112-0.12-0.221c0.407-0.81,1.167-1.306,1.755-1.955c0.32-0.354,0.67-0.684,1.015-1.016
		c0.213-0.167,0.391-0.387,0.662-0.475C55.876,27.531,55.946,27.567,55.985,27.665z"/>
	<path style="fill-rule:evenodd;clip-rule:evenodd;fill:#68317E;" d="M19.18,29.258c-0.053-0.025-0.104-0.052-0.157-0.077
		c-0.102-0.002-0.213-0.01-0.286-0.076c-1.116-1.006-2.259-1.988-3.135-3.228c-0.028-0.103,0-0.187,0.085-0.252
		c0.334,0.114,0.529,0.378,0.706,0.661c0.952,0.971,1.904,1.941,2.856,2.912C19.226,29.217,19.202,29.238,19.18,29.258z"/>
	<path style="fill-rule:evenodd;clip-rule:evenodd;fill:#67307E;" d="M41.366,42.506c0.19-0.169,0.381-0.338,0.571-0.507
		c0.073-0.041,0.103-0.024,0.083,0.062c-1.17,1.19-2.339,2.38-3.509,3.57l-0.039-0.042c-0.085-0.066-0.109-0.149-0.074-0.252
		C39.269,44.269,40.126,43.187,41.366,42.506z"/>
	<path style="fill-rule:evenodd;clip-rule:evenodd;fill:#67307E;" d="M48.358,48.614c-1.169,1.19-2.338,2.382-3.507,3.572
		l-0.04-0.045c-0.086-0.062-0.111-0.143-0.077-0.242c0.699-1.053,1.718-1.807,2.561-2.726c0.289-0.215,0.492-0.54,0.851-0.665
		C48.248,48.48,48.318,48.515,48.358,48.614z"/>
	<path style="fill-rule:evenodd;clip-rule:evenodd;fill:#67307E;" d="M28.613,50.166c0.225,0.205,0.449,0.41,0.673,0.615
		c0.951,0.896,1.799,1.895,2.787,2.752c-0.078,0.064-0.164,0.067-0.254,0.032c-0.13,0.005-0.26-0.021-0.353-0.106
		c-1.042-0.97-2.135-1.892-2.964-3.067C28.469,50.281,28.506,50.206,28.613,50.166z"/>
	<path style="fill-rule:evenodd;clip-rule:evenodd;fill:#662F7D;" d="M22.806,32.977c0.156,0.133,0.313,0.266,0.468,0.398
		c0.95,0.971,1.9,1.942,2.851,2.913c-0.049,0.099-0.127,0.132-0.232,0.099c-1.21-0.914-2.27-1.979-3.189-3.185
		C22.67,33.097,22.704,33.022,22.806,32.977z"/>
	<path style="fill-rule:evenodd;clip-rule:evenodd;fill:#66307D;" d="M54.593,42.167c-0.951,0.971-1.902,1.941-2.853,2.913
		c-0.081,0.172-0.177,0.326-0.397,0.33c-0.079-0.067-0.104-0.15-0.074-0.25c0.882-1.179,1.913-2.209,3.091-3.093
		C54.465,42.036,54.543,42.069,54.593,42.167z"/>
	<path style="fill-rule:evenodd;clip-rule:evenodd;fill:#68327F;" d="M21.6,18.228c0.088-0.062,0.177-0.123,0.265-0.185
		c0.022,0.02,0.046,0.04,0.069,0.06c-1.026,1.048-2.053,2.097-3.079,3.146l-0.037-0.043c-0.09-0.061-0.117-0.143-0.082-0.246
		C19.567,19.92,20.391,18.872,21.6,18.228z"/>
	<path style="fill-rule:evenodd;clip-rule:evenodd;fill:#67307D;" d="M8.445,29.292c0.915,0.936,1.831,1.871,2.747,2.807
		c-0.05,0.099-0.127,0.132-0.231,0.1c-1.144-0.844-2.13-1.844-2.985-2.976c-0.031-0.099-0.009-0.183,0.065-0.254
		C8.272,28.955,8.359,29.122,8.445,29.292z"/>
	<path style="fill-rule:evenodd;clip-rule:evenodd;fill:#68327E;" d="M18.317,39.571c-0.087-0.062-0.174-0.123-0.261-0.185
		c-0.279-0.002-0.476-0.171-0.647-0.354c-0.738-0.791-1.631-1.438-2.219-2.371c-0.034-0.103-0.007-0.186,0.08-0.25l0.037-0.045
		c1.027,1.049,2.055,2.097,3.081,3.146C18.364,39.531,18.341,39.551,18.317,39.571z"/>
	<path style="fill-rule:evenodd;clip-rule:evenodd;fill:#68317E;" d="M35.246,4.359c-0.987,1.01-1.976,2.02-2.963,3.029l-0.04-0.046
		c-0.087-0.06-0.113-0.14-0.08-0.239c0.716-1.038,1.689-1.83,2.58-2.701C34.904,4.318,35.063,4.176,35.246,4.359z"/>
	<path style="fill-rule:evenodd;clip-rule:evenodd;fill:#67317E;" d="M48.255,35.614c-0.955,0.977-1.911,1.952-2.866,2.929
		l-0.04-0.045c-0.085-0.066-0.109-0.15-0.073-0.252c0.843-1.034,1.659-2.095,2.873-2.738l0.04,0.046
		C48.21,35.574,48.232,35.593,48.255,35.614z"/>
	<path style="fill-rule:evenodd;clip-rule:evenodd;fill:#8E679F;" d="M27.944,38.11c0.111,0.111,0.223,0.224,0.334,0.335
		c0.021,0.24,0.453,0.292,0.282,0.621c-0.089,0.027-0.176,0.023-0.263-0.011c-0.789-0.536-1.39-1.271-2.044-1.947
		c-0.153-0.158-0.284-0.354-0.176-0.604c0.446,0.069,0.6,0.505,0.918,0.733C27.32,37.52,27.562,37.892,27.944,38.11z"/>
	<path style="fill-rule:evenodd;clip-rule:evenodd;fill:#936CA3;" d="M51.383,45.371c0.119-0.097,0.238-0.193,0.357-0.29
		c-0.637,0.943-1.511,1.664-2.306,2.459c-0.075-0.029-0.115-0.083-0.114-0.165c0.032-0.192,0.119-0.362,0.217-0.528
		c0.114-0.172,0.264-0.307,0.438-0.417C50.507,46.161,50.749,45.504,51.383,45.371z"/>
	<path style="fill-rule:evenodd;clip-rule:evenodd;fill:#67317E;" d="M25.636,14.248c-0.052,0.025-0.104,0.051-0.155,0.076
		c-0.092-0.055-0.12-0.133-0.086-0.234c0.714-0.979,1.552-1.835,2.545-2.535c0.104-0.031,0.181,0.003,0.227,0.102
		C27.322,12.52,26.479,13.384,25.636,14.248z"/>
	<path style="fill-rule:evenodd;clip-rule:evenodd;fill:#67307E;" d="M32.681,0.118c0.938,0.762,1.73,1.672,2.568,2.537
		c-0.114,0.139-0.243,0.083-0.372,0.031c-0.814-0.65-1.538-1.393-2.207-2.192C32.613,0.367,32.556,0.239,32.681,0.118z"/>
	<path style="fill-rule:evenodd;clip-rule:evenodd;fill:#662F7D;" d="M32.161,42.498c-0.041,0.04-0.082,0.081-0.122,0.121
		c-1.079-0.514-1.789-1.416-2.472-2.347c-0.028-0.103,0-0.186,0.083-0.25c0.296,0.08,0.457,0.308,0.603,0.552
		C30.889,41.215,31.524,41.856,32.161,42.498z"/>
	<path style="fill-rule:evenodd;clip-rule:evenodd;fill:#67307D;" d="M54.488,22.545c0.835,0.73,1.58,1.55,2.352,2.345
		c-0.655,0.203-0.788-0.485-1.198-0.7c-0.423-0.47-0.971-0.831-1.254-1.424C54.359,22.664,54.393,22.59,54.488,22.545z"/>
	<path style="fill-rule:evenodd;clip-rule:evenodd;fill:#662F7D;" d="M22.597,43.902c0.746,0.757,1.493,1.514,2.239,2.27
		c-0.046,0.099-0.12,0.133-0.225,0.102c-0.854-0.578-1.585-1.277-2.136-2.155C22.454,44.011,22.494,43.939,22.597,43.902z"/>
	<path style="fill-rule:evenodd;clip-rule:evenodd;fill:#805293;" d="M15.717,25.67c-0.03,0.016-0.058,0.036-0.081,0.06
		c-0.43-0.052-0.707-0.229-0.595-0.725c0.397-0.388,0.792-0.778,1.192-1.162c0.122-0.117,0.211-0.298,0.43-0.256
		c-0.448,0.464-0.896,0.928-1.345,1.392C15.279,25.309,15.744,25.348,15.717,25.67z"/>
	<path style="fill-rule:evenodd;clip-rule:evenodd;fill:#936CA3;" d="M62.346,34.048c-0.226,0.205-0.451,0.41-0.677,0.615
		c-0.162-0.245-0.014-0.439,0.132-0.599c0.451-0.493,0.876-1.018,1.462-1.367c0.142-0.058,0.279-0.054,0.411,0.027
		c0.014,0.21-0.13,0.318-0.276,0.424C62.972,33.362,62.767,33.832,62.346,34.048z"/>
	<path style="fill-rule:evenodd;clip-rule:evenodd;fill:#662F7D;" d="M40.521,56.67c-0.687,0.744-1.39,1.473-2.135,2.158
		c-0.102-0.038-0.14-0.11-0.116-0.216c0.522-0.833,1.212-1.502,2.027-2.046C40.401,56.537,40.476,56.572,40.521,56.67z"/>
	<path style="fill-rule:evenodd;clip-rule:evenodd;fill:#9067A0;" d="M30.253,40.574c-0.189-0.169-0.379-0.337-0.568-0.505
		c-0.549-0.182-0.929-0.527-1.07-1.103c-0.114-0.173-0.377-0.249-0.336-0.521C28.955,39.137,29.722,39.747,30.253,40.574z"/>
	<path style="fill-rule:evenodd;clip-rule:evenodd;fill:#885E9A;" d="M55.899,27.605c-0.188,0.169-0.376,0.339-0.564,0.508
		c-0.2-0.461,0.196-0.662,0.423-0.92c0.242-0.275,0.496-0.551,0.835-0.72c0.138-0.059,0.272-0.057,0.403,0.021
		c0.016,0.204-0.112,0.319-0.26,0.423C56.39,27.063,56.242,27.453,55.899,27.605z"/>
	<path style="fill-rule:evenodd;clip-rule:evenodd;fill:#9772A6;" d="M8.445,29.292c-0.121-0.097-0.241-0.192-0.362-0.289
		c-0.58-0.176-0.902-0.645-1.241-1.094c-0.034-0.084-0.038-0.17-0.014-0.257C7.506,28.062,8.017,28.635,8.445,29.292z"/>
	<path style="fill-rule:evenodd;clip-rule:evenodd;fill:#936CA3;" d="M60.617,27.593c-0.025,0.311,0.272,0.396,0.413,0.592
		c0.157,0.22,0.458,0.329,0.494,0.644c-0.645-0.029-0.911-0.539-1.238-0.973c-0.059-0.136-0.06-0.27,0.018-0.4
		C60.435,27.441,60.541,27.484,60.617,27.593z"/>
	<path style="fill-rule:evenodd;clip-rule:evenodd;fill:#9570A5;" d="M55.765,24.025c0.407,0.227,0.591,0.733,1.075,0.865
		c0.115,0.066,0.199,0.15,0.16,0.299c-0.026,0.105-0.093,0.155-0.201,0.149C56.271,25.045,55.69,24.792,55.765,24.025z"/>
	<path style="fill-rule:evenodd;clip-rule:evenodd;fill:#8E669F;" d="M15.717,25.67c-0.102-0.249-0.512-0.319-0.398-0.691
		c0.283,0.498,0.854,0.757,1.074,1.306C16.167,26.081,15.942,25.875,15.717,25.67z"/>
	<path style="fill-rule:evenodd;clip-rule:evenodd;fill:#734088;" d="M19.18,29.258c0.025-0.018,0.049-0.038,0.069-0.061
		c0.392,0.324,0.738,0.693,1.07,1.076c0.018,0.056,0.012,0.085-0.018,0.087c-0.027,0.002-0.049-0.003-0.063-0.017
		C19.887,29.982,19.532,29.621,19.18,29.258z"/>
	<path style="fill-rule:evenodd;clip-rule:evenodd;fill:#723E87;" d="M54.593,42.167c-0.03-0.031-0.06-0.063-0.09-0.094l0.006-0.072
		l0.065-0.03c0.337-0.316,0.673-0.633,1.009-0.949c0.077-0.035,0.102-0.009,0.082,0.07C55.331,41.474,54.984,41.843,54.593,42.167z"
		/>
	<path style="fill-rule:evenodd;clip-rule:evenodd;fill:#6D3983;" d="M24.748,46.261c0.029-0.03,0.059-0.06,0.088-0.09
		c0.392,0.324,0.737,0.693,1.071,1.075c-0.026,0.021-0.053,0.044-0.079,0.065c-0.229-0.207-0.458-0.415-0.688-0.622
		C24.892,46.656,24.756,46.517,24.748,46.261z"/>
	<path style="fill-rule:evenodd;clip-rule:evenodd;fill:#6F3C85;" d="M22.597,43.902c-0.03,0.03-0.06,0.062-0.09,0.092
		c-0.582-0.057-0.853-0.481-1.102-0.932c-0.029-0.105,0.008-0.175,0.111-0.21c0.265,0.244,0.53,0.488,0.797,0.732
		C22.407,43.69,22.502,43.796,22.597,43.902z"/>
	<path style="fill-rule:evenodd;clip-rule:evenodd;fill:#815393;" d="M49.346,47.45c0.031,0.028,0.061,0.059,0.089,0.09
		c-0.336,0.381-0.68,0.754-1.076,1.074c-0.023-0.023-0.05-0.044-0.078-0.061C48.384,47.942,48.765,47.6,49.346,47.45z"/>
	<path style="fill-rule:evenodd;clip-rule:evenodd;fill:#825494;" d="M42.021,42.061c-0.022-0.028-0.05-0.049-0.083-0.062
		c0.356-0.367,0.714-0.733,1.07-1.101c0.08-0.024,0.106,0.007,0.087,0.084C42.763,41.369,42.416,41.739,42.021,42.061z"/>
	<path style="fill-rule:evenodd;clip-rule:evenodd;fill:#6B3681;" d="M34.488,49.598c0.054-0.027,0.106-0.055,0.159-0.082
		c0.023,0.021,0.047,0.042,0.071,0.063c-0.331,0.381-0.671,0.752-1.07,1.063c-0.128-0.105-0.08-0.227-0.031-0.348
		C33.841,49.978,34.059,49.655,34.488,49.598z"/>
	<path style="fill-rule:evenodd;clip-rule:evenodd;fill:#7D4E90;" d="M28.946,10.731c0.342-0.302,0.541-0.771,1.038-0.894
		c-0.32,0.32-0.641,0.64-0.961,0.96C28.997,10.775,28.972,10.753,28.946,10.731z"/>
	<path style="fill-rule:evenodd;clip-rule:evenodd;fill:#865A98;" d="M62.346,34.048c0.347-0.304,0.546-0.78,1.052-0.899
		c-0.3,0.344-0.605,0.681-0.966,0.963C62.409,34.083,62.38,34.062,62.346,34.048z"/>
	<path style="fill-rule:evenodd;clip-rule:evenodd;fill:#744188;" d="M34.051,63.138c0.195-0.175,0.391-0.35,0.586-0.524
		c0.074-0.029,0.104-0.009,0.081,0.072c-0.296,0.343-0.604,0.675-0.959,0.959c-0.116-0.074-0.099-0.175-0.056-0.28
		C33.784,63.236,33.888,63.14,34.051,63.138z"/>
	<path style="fill-rule:evenodd;clip-rule:evenodd;fill:#713E86;" d="M11.101,32.193c0.03-0.031,0.061-0.063,0.092-0.095
		c0.354,0.289,0.666,0.622,0.964,0.968c0.018,0.056,0.012,0.085-0.018,0.087c-0.027,0.002-0.048-0.004-0.062-0.018
		c-0.302-0.28-0.604-0.561-0.905-0.841l-0.065-0.03L11.101,32.193z"/>
	<path style="fill-rule:evenodd;clip-rule:evenodd;fill:#9069A1;" d="M35.246,4.359c-0.139-0.045-0.218,0.075-0.326,0.117
		c-0.189-0.346,0.085-0.533,0.259-0.754c0.065-0.039,0.137-0.054,0.212-0.047c0.033,0.016,0.066,0.032,0.101,0.048
		C35.517,3.977,35.438,4.19,35.246,4.359z"/>
	<path style="fill-rule:evenodd;clip-rule:evenodd;fill:#6D3983;" d="M38.298,58.741c0.029,0.029,0.059,0.059,0.088,0.088
		c-0.198,0.287-0.452,0.521-0.711,0.75c-0.089,0.064-0.178,0.13-0.266,0.194c-0.1-0.039-0.133-0.109-0.103-0.211
		C37.525,59.153,37.77,58.775,38.298,58.741z"/>
	<path style="fill-rule:evenodd;clip-rule:evenodd;fill:#713E86;" d="M48.255,35.614c-0.021-0.022-0.042-0.043-0.066-0.061
		c0.317-0.326,0.635-0.651,0.953-0.978c0.075-0.031,0.101-0.008,0.078,0.07C48.898,34.968,48.577,35.292,48.255,35.614z"/>
	<path style="fill-rule:evenodd;clip-rule:evenodd;fill:#713D86;" d="M27.007,37.324c-0.301-0.28-0.601-0.561-0.9-0.841
		l-0.066-0.029l-0.006-0.072c0.029-0.031,0.06-0.063,0.09-0.093c0.322,0.322,0.644,0.645,0.966,0.966
		c0.017,0.058,0.01,0.087-0.021,0.088C27.042,37.344,27.021,37.338,27.007,37.324z"/>
	<path style="fill-rule:evenodd;clip-rule:evenodd;fill:#6E3A83;" d="M40.521,56.67c-0.029-0.03-0.06-0.061-0.089-0.091
		c0.009-0.254,0.145-0.393,0.392-0.429c0.195-0.172,0.391-0.344,0.586-0.516c0.025,0.022,0.051,0.044,0.075,0.066
		C41.189,56.05,40.875,56.38,40.521,56.67z"/>
	<path style="fill-rule:evenodd;clip-rule:evenodd;fill:#75438A;" d="M18.317,39.571c0.026-0.017,0.051-0.036,0.071-0.06
		c0.318,0.255,0.598,0.548,0.858,0.86c0.018,0.056,0.011,0.085-0.02,0.088c-0.028,0.003-0.049-0.002-0.063-0.016
		C18.883,40.153,18.6,39.862,18.317,39.571z"/>
	<path style="fill-rule:evenodd;clip-rule:evenodd;fill:#6D3882;" d="M63.418,30.607c0.049,0.029,0.099,0.058,0.147,0.086
		c0.214,0.195,0.334,0.432,0.322,0.728c-0.003,0.055-0.022,0.096-0.06,0.122c-0.037,0.027-0.06,0.036-0.067,0.029
		c-0.339-0.174-0.381-0.518-0.478-0.83c0.003-0.058,0.023-0.096,0.063-0.117C63.385,30.604,63.409,30.598,63.418,30.607z"/>
	<path style="fill-rule:evenodd;clip-rule:evenodd;fill:#6E3983;" d="M28.946,10.731c0.028,0.018,0.055,0.04,0.077,0.066
		c-0.262,0.31-0.538,0.606-0.857,0.859c-0.03-0.03-0.06-0.06-0.089-0.09c0.005-0.187,0.102-0.292,0.284-0.321
		C28.557,11.074,28.751,10.902,28.946,10.731z"/>
	<path style="fill-rule:evenodd;clip-rule:evenodd;fill:#7E4F91;" d="M25.828,47.312c0.029-0.018,0.057-0.039,0.079-0.065
		c0.285,0.284,0.57,0.569,0.855,0.854C26.312,48.003,26.133,47.583,25.828,47.312z"/>
	<path style="fill-rule:evenodd;clip-rule:evenodd;fill:#7F5192;" d="M12.077,33.135c0.029-0.02,0.056-0.043,0.079-0.069
		c0.284,0.285,0.568,0.569,0.853,0.854C12.561,33.822,12.384,33.402,12.077,33.135z"/>
	<path style="fill-rule:evenodd;clip-rule:evenodd;fill:#815394;" d="M27.007,37.324c0.031-0.019,0.059-0.041,0.083-0.069
		c0.285,0.285,0.57,0.57,0.854,0.855C27.493,38.014,27.315,37.591,27.007,37.324z"/>
	<path style="fill-rule:evenodd;clip-rule:evenodd;fill:#825494;" d="M55.665,41.092c-0.024-0.027-0.052-0.051-0.082-0.07
		c0.309-0.265,0.485-0.688,0.937-0.783C56.234,40.523,55.95,40.807,55.665,41.092z"/>
	<path style="fill-rule:evenodd;clip-rule:evenodd;fill:#6F3C85;" d="M52.373,31.132c0.03,0.03,0.061,0.062,0.09,0.093
		c-0.005,0.045-0.027,0.079-0.067,0.102c-0.268,0.244-0.535,0.488-0.803,0.732c-0.1-0.035-0.136-0.104-0.107-0.206
		C51.67,31.475,51.892,31.144,52.373,31.132z"/>
	<path style="fill-rule:evenodd;clip-rule:evenodd;fill:#7E4E91;" d="M49.22,34.646c-0.023-0.026-0.05-0.05-0.078-0.07
		c0.307-0.265,0.482-0.687,0.932-0.781C49.789,34.079,49.505,34.362,49.22,34.646z"/>
	<path style="fill-rule:evenodd;clip-rule:evenodd;fill:#916AA1;" d="M35.025,2.646c0.074,0.003,0.148,0.006,0.223,0.009
		c0.19,0.17,0.271,0.383,0.243,0.636c-0.032,0.016-0.064,0.032-0.096,0.047c-0.073,0.007-0.141-0.006-0.205-0.042
		C35.036,3.105,34.832,2.925,35.025,2.646z"/>
	<path style="fill-rule:evenodd;clip-rule:evenodd;fill:#835695;" d="M33.78,63.41c-0.008,0.078-0.015,0.157-0.021,0.235
		c-0.169,0.175-0.367,0.281-0.618,0.263c-0.074,0.006-0.122-0.028-0.148-0.097c0.003-0.069,0.028-0.13,0.074-0.182
		c0.104-0.089,0.219-0.159,0.336-0.228C33.529,63.341,33.656,63.293,33.78,63.41z"/>
	<path style="fill-rule:evenodd;clip-rule:evenodd;fill:#815494;" d="M22.603,17.278c0.272-0.229,0.414-0.619,0.828-0.675
		c-0.248,0.249-0.497,0.498-0.746,0.747C22.615,17.375,22.59,17.349,22.603,17.278z"/>
	<path style="fill-rule:evenodd;clip-rule:evenodd;fill:#703C85;" d="M63.674,32.725c-0.076,0.005-0.153,0.011-0.229,0.016
		c-0.023-0.059-0.026-0.118-0.011-0.179c0.037-0.118,0.08-0.234,0.112-0.354c0.047-0.121,0.084-0.253,0.252-0.25
		c0.066,0.029,0.098,0.081,0.1,0.151C63.936,32.355,63.833,32.55,63.674,32.725z"/>
	<path style="fill-rule:evenodd;clip-rule:evenodd;fill:#815394;" d="M55.899,27.605c0.27-0.241,0.419-0.628,0.837-0.689
		c-0.225,0.275-0.465,0.535-0.751,0.749C55.963,27.637,55.935,27.617,55.899,27.605z"/>
	<path style="fill-rule:evenodd;clip-rule:evenodd;fill:#744189;" d="M22.603,17.278c0.03,0.021,0.058,0.044,0.082,0.072
		c-0.25,0.25-0.501,0.501-0.751,0.752c-0.021-0.023-0.044-0.042-0.069-0.06C22.11,17.788,22.356,17.533,22.603,17.278z"/>
	<path style="fill-rule:evenodd;clip-rule:evenodd;fill:#744289;" d="M34.719,49.579c-0.021-0.023-0.046-0.044-0.071-0.063
		c0.247-0.254,0.493-0.509,0.74-0.763c0.074-0.029,0.104-0.007,0.081,0.073C35.219,49.078,34.969,49.329,34.719,49.579z"/>
	<path style="fill-rule:evenodd;clip-rule:evenodd;fill:#825494;" d="M19.165,40.444c0.03-0.021,0.058-0.045,0.082-0.072
		c0.249,0.249,0.498,0.497,0.747,0.746C19.581,41.062,19.438,40.673,19.165,40.444z"/>
	<path style="fill-rule:evenodd;clip-rule:evenodd;fill:#7E4F91;" d="M33.668,50.435c-0.007,0.068-0.014,0.138-0.02,0.206
		c-0.032,0.046-0.063,0.091-0.095,0.137c-0.123-0.014-0.2,0.108-0.32,0.107l-0.05-0.034l-0.04-0.046
		c-0.09-0.008-0.141-0.058-0.15-0.147C33.166,50.427,33.35,50.228,33.668,50.435z"/>
	<path style="fill-rule:evenodd;clip-rule:evenodd;fill:#7A4A8D;" d="M41.484,55.702c-0.022-0.025-0.047-0.047-0.075-0.066
		c0.212-0.219,0.424-0.438,0.636-0.656c0.079-0.028,0.104,0,0.084,0.078C41.914,55.272,41.699,55.487,41.484,55.702z"/>
	<path style="fill-rule:evenodd;clip-rule:evenodd;fill:#815494;" d="M20.239,30.344c0.03-0.021,0.057-0.044,0.08-0.07
		c0.215,0.212,0.428,0.425,0.642,0.637C20.592,30.886,20.472,30.544,20.239,30.344z"/>
	<path style="fill-rule:evenodd;clip-rule:evenodd;fill:#805293;" d="M35.469,48.827c-0.024-0.027-0.052-0.052-0.081-0.073
		c0.196-0.163,0.29-0.466,0.614-0.457C35.824,48.473,35.646,48.65,35.469,48.827z"/>
	<path style="fill-rule:evenodd;clip-rule:evenodd;fill:#916AA1;" d="M59.796,27.315c0.143-0.04,0.272-0.018,0.391,0.073
		c0.037,0.092,0.06,0.184-0.009,0.273c-0.168,0.081-0.317,0.028-0.461-0.066c-0.05-0.045-0.075-0.104-0.079-0.17
		C59.68,27.373,59.732,27.337,59.796,27.315z"/>
	<path style="fill-rule:evenodd;clip-rule:evenodd;fill:#8F68A0;" d="M32.681,0.118c0.006,0.067,0.012,0.134,0.018,0.202
		c-0.154,0.157-0.31,0.085-0.465,0.003c-0.054-0.045-0.088-0.102-0.098-0.171c0.035-0.061,0.087-0.101,0.155-0.117
		C32.438-0.02,32.565,0.021,32.681,0.118z"/>
	<path style="fill-rule:evenodd;clip-rule:evenodd;fill:#8C5E9C;" d="M5.284,27.689c-0.161,0.054-0.24-0.058-0.324-0.16
		c0.133-0.1,0.259-0.219,0.447-0.181c0.017,0.028,0.033,0.056,0.051,0.083c0.012,0.065,0.008,0.129-0.013,0.192
		C5.407,27.683,5.354,27.705,5.284,27.689z"/>
	<path style="fill-rule:evenodd;clip-rule:evenodd;fill:#7C4D8F;" d="M54.488,22.545c-0.036,0.036-0.072,0.072-0.108,0.108
		c-0.146,0.173-0.298,0.086-0.449,0.012c-0.053-0.044-0.085-0.1-0.096-0.168c0.034-0.061,0.084-0.1,0.151-0.117
		C54.182,22.351,54.344,22.42,54.488,22.545z"/>
	<path style="fill-rule:evenodd;clip-rule:evenodd;fill:#7E4F91;" d="M34.718,62.686c-0.023-0.027-0.051-0.052-0.081-0.072
		c0.195-0.165,0.286-0.471,0.613-0.461C35.073,62.331,34.896,62.508,34.718,62.686z"/>
	<path style="fill-rule:evenodd;clip-rule:evenodd;fill:#855997;" d="M42.129,55.057l-0.04-0.041l-0.044-0.037
		c0.16-0.131,0.236-0.385,0.511-0.345C42.413,54.775,42.271,54.917,42.129,55.057z"/>
	<path style="fill-rule:evenodd;clip-rule:evenodd;fill:#6B3581;" d="M53.34,22.435c0.12-0.099,0.253-0.107,0.395-0.058
		c0.058,0.013,0.095,0.047,0.106,0.106l0.017,0.034c-0.1,0.229-0.265,0.175-0.435,0.102C53.369,22.569,53.343,22.507,53.34,22.435z"
		/>
	<path style="fill-rule:evenodd;clip-rule:evenodd;fill:#845896;" d="M59.132,27.373c0.12-0.103,0.255-0.104,0.396-0.058
		c0.061,0.016,0.101,0.054,0.119,0.114l0.018,0.058c-0.127,0.179-0.283,0.161-0.45,0.066C59.163,27.504,59.136,27.443,59.132,27.373
		z"/>
	<path style="fill-rule:evenodd;clip-rule:evenodd;fill:#865B99;" d="M31.635,0.093c0.118-0.098,0.248-0.119,0.39-0.062
		c0.059,0.014,0.1,0.049,0.125,0.103l0.012,0.064c-0.123,0.182-0.279,0.158-0.446,0.074C31.663,0.223,31.637,0.164,31.635,0.093z"/>
	<path style="fill-rule:evenodd;clip-rule:evenodd;fill:#845896;" d="M5.407,27.348c0.129-0.078,0.266-0.083,0.406-0.041
		c0.07,0.023,0.121,0.067,0.155,0.132c-0.088,0.231-0.259,0.2-0.439,0.139c-0.053-0.049-0.09-0.108-0.111-0.177L5.407,27.348z"/>
	<path style="fill-rule:evenodd;clip-rule:evenodd;fill:#6C3882;" d="M56.996,26.493c-0.07,0.006-0.141,0.013-0.211,0.021
		c-0.067-0.207-0.005-0.363,0.182-0.472c0.085,0.008,0.127,0.055,0.127,0.139C57.157,26.315,57.076,26.404,56.996,26.493z"/>
	<path style="fill-rule:evenodd;clip-rule:evenodd;fill:#7E5192;" d="M5.953,27.481c-0.047-0.058-0.093-0.116-0.14-0.174
		c0.156-0.035,0.31-0.048,0.445,0.063c0.005,0.066-0.018,0.121-0.067,0.165C6.099,27.579,6.014,27.584,5.953,27.481z"/>
	<path style="fill-rule:evenodd;clip-rule:evenodd;fill:#662F7D;" d="M63.925,31.577c0.069,0.123,0.068,0.247,0.001,0.37
		c-0.062,0.007-0.115-0.013-0.158-0.058c-0.048-0.085-0.048-0.17-0.002-0.254C63.81,31.588,63.863,31.571,63.925,31.577z"/>
	<path style="fill-rule:evenodd;clip-rule:evenodd;fill:#754489;" d="M35.491,3.291c0.057,0.144,0.058,0.288,0,0.432l-0.048-0.032
		c-0.067-0.005-0.122-0.036-0.164-0.088c-0.02-0.064-0.02-0.128-0.001-0.192c0.043-0.053,0.098-0.082,0.165-0.088L35.491,3.291z"/>
	<path style="fill-rule:evenodd;clip-rule:evenodd;fill:#68327F;" d="M57.063,25.333c0.107,0.122,0.113,0.261,0.071,0.409
		c-0.06,0.032-0.117,0.03-0.175-0.004c-0.106-0.097-0.138-0.208-0.064-0.339C56.94,25.349,56.997,25.329,57.063,25.333z"/>
	<path style="fill-rule:evenodd;clip-rule:evenodd;fill:#8E659F;" d="M43.095,40.983l-0.042-0.043l-0.045-0.041
		c0.121-0.104,0.197-0.286,0.408-0.233C43.309,40.772,43.202,40.877,43.095,40.983z"/>
	<path style="fill-rule:evenodd;clip-rule:evenodd;fill:#693380;" d="M6.146,27.485c0.038-0.038,0.075-0.077,0.112-0.115
		c0.108,0.024,0.231,0.012,0.311,0.115c-0.004,0.075-0.036,0.134-0.099,0.177C6.306,27.707,6.189,27.663,6.146,27.485z"/>
	<path style="fill-rule:evenodd;clip-rule:evenodd;fill:#6A3580;" d="M60.2,27.589c-0.005-0.067-0.009-0.134-0.014-0.201
		c0.047,0.008,0.086,0.03,0.117,0.067c0.002,0.07,0.005,0.139,0.008,0.208C60.25,27.675,60.211,27.653,60.2,27.589z"/>
	<path style="fill-rule:evenodd;clip-rule:evenodd;fill:#6B3681;" d="M31.635,0.093c0.043,0.044,0.086,0.089,0.129,0.134
		c-0.049,0.111-0.133,0.167-0.255,0.162c0-0.074,0.001-0.148,0.001-0.222C31.543,0.127,31.585,0.103,31.635,0.093z"/>
	<path style="fill-rule:evenodd;clip-rule:evenodd;fill:#FEFEFE;" d="M33.233,50.885c0.093-0.077,0.192-0.137,0.32-0.107
		C33.465,50.865,33.373,50.947,33.233,50.885z"/>
	<path style="fill-rule:evenodd;clip-rule:evenodd;fill:#662F7D;" d="M32.818,63.959c-0.067,0.047-0.136,0.061-0.204,0.002
		c0-0.066,0.026-0.12,0.079-0.162c0.099-0.038,0.185-0.032,0.244,0.069c-0.001,0.054-0.02,0.085-0.054,0.094
		C32.851,63.971,32.829,63.97,32.818,63.959z"/>
	<path style="fill-rule:evenodd;clip-rule:evenodd;fill:#642D7B;" d="M33.023,50.682c0.04,0.041,0.08,0.082,0.12,0.123
		c-0.07,0.044-0.142,0.064-0.216,0.009c-0.058-0.015-0.097-0.049-0.113-0.106l-0.011-0.034
		C32.883,50.55,32.956,50.537,33.023,50.682z"/>
	<path style="fill-rule:evenodd;clip-rule:evenodd;fill:#69327F;" d="M6.478,27.581c0.03-0.032,0.061-0.064,0.092-0.095
		c0.086,0.055,0.173,0.111,0.259,0.167l-0.05,0.04c-0.011,0.075-0.055,0.113-0.131,0.112C6.544,27.765,6.477,27.699,6.478,27.581z"
		/>
	<path style="fill-rule:evenodd;clip-rule:evenodd;fill:#68327E;" d="M32.818,63.959c0.036-0.041,0.072-0.083,0.109-0.124
		l0.03-0.059l0.065,0.009c0.039,0.041,0.078,0.081,0.117,0.122C33.041,63.973,32.938,64.018,32.818,63.959z"/>
	<path style="fill-rule:evenodd;clip-rule:evenodd;fill:#77398D;" d="M28.828,61.949c0.083,0.085,0.168,0.169,0.118,0.306
		c-0.07-0.071-0.141-0.142-0.211-0.212C28.767,62.011,28.797,61.98,28.828,61.949z"/>
	<path style="fill-rule:evenodd;clip-rule:evenodd;fill:#69337F;" d="M57.094,26.181c-0.035-0.033-0.069-0.066-0.104-0.099
		c-0.01-0.062,0.013-0.11,0.063-0.146c0.027,0.009,0.055,0.019,0.082,0.028C57.179,26.047,57.156,26.118,57.094,26.181z"/>
	<path style="fill-rule:evenodd;clip-rule:evenodd;fill:#642D7B;" d="M32.814,50.708c0.038,0.035,0.075,0.07,0.113,0.106
		c-0.085,0.053-0.167,0.043-0.245-0.015C32.727,50.769,32.771,50.738,32.814,50.708z"/>
	<path style="fill-rule:evenodd;clip-rule:evenodd;fill:#662F7D;" d="M63.817,31.854c0.038,0.029,0.074,0.061,0.108,0.093
		c-0.009,0.055-0.019,0.108-0.028,0.162c-0.041-0.035-0.082-0.071-0.123-0.106C63.743,31.94,63.755,31.889,63.817,31.854z"/>
	<path style="fill-rule:evenodd;clip-rule:evenodd;fill:#6B3581;" d="M53.841,22.484l-0.058-0.048l-0.049-0.058
		c0.085-0.05,0.169-0.041,0.252,0.002C53.938,22.415,53.89,22.449,53.841,22.484z"/>
	<path style="fill-rule:evenodd;clip-rule:evenodd;fill:#703D85;" d="M59.647,27.429c-0.04-0.038-0.08-0.076-0.119-0.114
		c0.089,0,0.178,0,0.268,0C59.746,27.354,59.697,27.391,59.647,27.429z"/>
	<path style="fill-rule:evenodd;clip-rule:evenodd;fill:#662F7D;" d="M63.925,31.577c-0.035,0.032-0.071,0.063-0.109,0.093
		c-0.059-0.035-0.074-0.085-0.045-0.147c0.039-0.034,0.077-0.067,0.116-0.102C63.899,31.472,63.913,31.524,63.925,31.577z"/>
	<path style="fill-rule:evenodd;clip-rule:evenodd;fill:#662F7D;" d="M59.132,27.373c0.041,0.041,0.081,0.082,0.121,0.124
		c-0.03,0.055-0.076,0.079-0.139,0.068c-0.043-0.045-0.086-0.091-0.129-0.136C59.034,27.409,59.083,27.391,59.132,27.373z"/>
	<path style="fill-rule:evenodd;clip-rule:evenodd;fill:#662F7D;" d="M57.063,25.333c-0.031,0.031-0.063,0.063-0.096,0.094
		c-0.066-0.009-0.096-0.049-0.091-0.115c0.041-0.041,0.082-0.082,0.123-0.123C57.021,25.237,57.042,25.285,57.063,25.333z"/>
	<path style="fill-rule:evenodd;clip-rule:evenodd;fill:#662F7D;" d="M32.708,63.855c-0.029,0.036-0.062,0.072-0.094,0.106
		c-0.052,0.025-0.097,0.017-0.137-0.024c-0.008-0.032-0.016-0.064-0.023-0.097C32.543,63.767,32.628,63.765,32.708,63.855z"/>
	<path style="fill-rule:evenodd;clip-rule:evenodd;fill:#662E7D;" d="M57.135,25.742c0.048,0.074,0.047,0.148,0,0.222
		c-0.035-0.004-0.071-0.006-0.106-0.005c-0.062-0.072-0.062-0.143,0.002-0.212C57.065,25.747,57.101,25.746,57.135,25.742z"/>
	<path style="fill-rule:evenodd;clip-rule:evenodd;fill:#6B3580;" d="M32.262,63.889c0.034-0.034,0.067-0.067,0.101-0.102
		c0.056-0.032,0.096-0.018,0.119,0.042c0.002,0.036,0.001,0.071-0.004,0.107C32.394,63.978,32.324,63.951,32.262,63.889z"/>
	<path style="fill-rule:evenodd;clip-rule:evenodd;fill:#652D7C;" d="M32.149,0.134c-0.042-0.034-0.083-0.068-0.125-0.103
		c0.089,0.001,0.178,0.002,0.267,0.003C32.244,0.067,32.197,0.101,32.149,0.134z"/>
	<path style="fill-rule:evenodd;clip-rule:evenodd;fill:#652E7C;" d="M53.34,22.435c0.031,0.033,0.063,0.065,0.095,0.097
		c-0.015,0.067-0.056,0.095-0.123,0.085c-0.037-0.038-0.073-0.076-0.11-0.113C53.247,22.481,53.294,22.458,53.34,22.435z"/>
	<path style="fill-rule:evenodd;clip-rule:evenodd;fill:#FEFEFE;" d="M32.481,63.83c-0.03-0.039-0.07-0.054-0.119-0.042
		c-0.031-0.042-0.063-0.083-0.094-0.125c0.688-0.821,1.329-1.684,2.117-2.419c0.221-0.205,0.428-0.425,0.57-0.695
		c0.946-0.787,1.825-1.643,2.61-2.593c0.13-0.066,0.224-0.169,0.295-0.295c0.563-0.512,1.09-1.059,1.592-1.63
		c0.318-0.258,0.603-0.549,0.858-0.867c0.121-0.268,0.374-0.42,0.558-0.634c0.519-0.519,1.041-1.034,1.556-1.557
		c0.672-0.681,1.372-1.322,1.862-2.174c0.335-0.583,0.798-1.117,1.509-1.316c0.424-0.365,0.813-0.765,1.175-1.19
		c0.215-0.217,0.43-0.434,0.645-0.651c0.363-0.523,0.87-0.911,1.302-1.37c0.844-0.897,1.79-1.69,2.435-2.78
		c0.422-0.715,1.072-1.274,1.851-1.639c0.391-0.329,0.745-0.695,1.075-1.085c0.089-0.224,0.296-0.347,0.445-0.52
		c1.209-1.155,2.347-2.377,3.381-3.693c0.044-0.083,0.097-0.161,0.153-0.235c0.432-0.496,0.867-0.987,1.505-1.23
		c0.71-0.708,1.419-1.418,2.132-2.124c0.166-0.164,0.28-0.351,0.319-0.582c-0.048-0.489-0.121-0.977-0.156-1.468
		c-0.006-0.293-0.251-0.425-0.421-0.6c-0.722-0.742-1.458-1.469-2.179-2.213c-0.146-0.15-0.403-0.249-0.343-0.538
		c0.046-0.022,0.093-0.045,0.139-0.068c0.139,0.059,0.275,0.015,0.412-0.009c0.178,0.034,0.356,0.068,0.535,0.103
		c0.032,0.032,0.069,0.058,0.111,0.074c0.404,0.389,0.809,0.776,1.213,1.165c0.422,0.509,0.889,0.976,1.381,1.417
		c0.194,0.091,0.336,0.233,0.43,0.425c0.229,0.241,0.315,0.556,0.436,0.852c0.015,0.05,0.03,0.099,0.045,0.147
		c-0.06,0.063-0.059,0.124,0.002,0.185c-0.015,0.05-0.028,0.099-0.043,0.148c-0.049,0.1-0.098,0.2-0.146,0.3
		c0.016,0.12-0.101,0.187-0.118,0.292c-0.022,0.049-0.044,0.098-0.065,0.146c-0.61,0.624-1.314,1.161-1.775,1.923
		c-1.021,1.043-2.043,2.086-3.064,3.13c-0.146,0.286-0.42,0.458-0.623,0.692c-0.334,0.298-0.595,0.673-0.98,0.913
		c-0.837,0.831-1.738,1.602-2.427,2.572c-0.042,0.021-0.066,0.056-0.071,0.103c-1.067,1.079-2.135,2.158-3.202,3.236
		c-0.369,0.487-0.8,0.913-1.283,1.286c-0.147,0.146-0.296,0.293-0.443,0.439c-0.608,0.825-1.483,1.404-2.083,2.238
		c-0.915,0.936-1.83,1.871-2.745,2.808c-0.169,0.313-0.471,0.507-0.698,0.768c-0.213,0.213-0.426,0.426-0.639,0.64
		c-0.16,0.139-0.276,0.329-0.484,0.413c-0.726,0.726-1.523,1.385-2.102,2.249c-0.131,0.143-0.261,0.285-0.392,0.429
		c-0.744,0.688-1.449,1.414-2.134,2.161c-0.354,0.29-0.668,0.62-0.964,0.968c-0.133,0.271-0.391,0.43-0.581,0.65
		c-0.123,0.11-0.217,0.256-0.384,0.313c-0.795,0.802-1.669,1.529-2.318,2.467c-0.09,0.091-0.181,0.181-0.271,0.271
		c-0.118,0.046-0.235,0.092-0.354,0.138c-0.114,0.013-0.186,0.129-0.305,0.127c-0.035,0.035-0.068,0.072-0.099,0.111
		c-0.044-0.008-0.076,0.009-0.096,0.05c-0.078-0.046-0.151-0.042-0.22,0.02C32.638,63.801,32.563,63.785,32.481,63.83z"/>
	<path style="fill-rule:evenodd;clip-rule:evenodd;fill:#FEFEFE;" d="M6.478,27.58c0.078,0.063,0.155,0.125,0.233,0.188
		c0.491,0.373,0.922,0.806,1.295,1.295c1.031,1.044,2.063,2.087,3.095,3.131c0.006,0.047,0.029,0.081,0.071,0.102
		c0.651,0.937,1.52,1.669,2.32,2.465c0.354,0.211,0.586,0.554,0.889,0.821c0.267,0.304,0.614,0.534,0.821,0.893
		c0.951,0.971,1.903,1.942,2.854,2.913c0.311,0.591,0.853,0.978,1.291,1.454c0.392,0.426,0.82,0.817,1.232,1.225
		c0.341,0.228,0.626,0.514,0.855,0.854c0.333,0.382,0.681,0.749,1.071,1.074c0.721,0.781,1.46,1.545,2.241,2.268
		c0.131,0.143,0.262,0.286,0.393,0.429c0.61,0.903,1.449,1.593,2.209,2.355c0.445,0.342,0.842,0.73,1.178,1.181
		c1.097,1.113,2.194,2.226,3.292,3.339c0.001,0.176-0.103,0.307-0.192,0.443c-0.018,0.123-0.089,0.192-0.21,0.213
		c-0.304,0.24-0.445-0.036-0.61-0.2c-0.623-0.616-1.24-1.239-1.858-1.86l-0.026-0.054l-0.055-0.023
		c-1.452-1.537-2.894-3.079-4.52-4.448c-0.868-0.73-1.855-1.412-2.277-2.563l-0.027-0.057l-0.055-0.029
		c-0.017-0.133-0.099-0.228-0.188-0.318c-2.266-2.293-4.531-4.586-6.797-6.879c-0.014-0.135-0.095-0.229-0.185-0.32
		c-2.026-2.046-4.053-4.093-6.079-6.139c-1.075-1.286-2.264-2.466-3.456-3.641c0.037-0.049,0.073-0.099,0.11-0.147
		c0.027-0.059,0.07-0.081,0.133-0.058c0.143,0.059,0.284,0.036,0.426-0.003c0.063,0.043,0.128,0.058,0.193,0.004
		C6.247,27.55,6.344,27.629,6.478,27.58z"/>
	<path style="fill-rule:evenodd;clip-rule:evenodd;fill:#894493;" d="M45.796,49.483c-1.6,1.764-3.226,3.503-4.952,5.145
		c-0.079,0.018-0.109-0.013-0.091-0.091c0.179-0.18,0.357-0.358,0.536-0.538c0.73-0.73,1.462-1.46,2.19-2.193
		c0.104-0.104,0.287-0.262,0.262-0.335c-0.059-0.17-0.271-0.183-0.448-0.211c-0.838-0.14-1.675-0.285-2.512-0.43
		c-1.477-0.256-2.953-0.509-4.428-0.775c-0.191-0.034-0.397-0.083-0.542-0.243c0.498-0.499,0.998-0.997,1.494-1.498
		c0.146-0.146,0.272-0.243,0.52-0.198c2.284,0.419,4.575,0.802,6.856,1.236C45.056,49.422,45.436,49.363,45.796,49.483z"/>
	<path style="fill-rule:evenodd;clip-rule:evenodd;fill:#864292;" d="M40.753,54.537c0.03,0.03,0.061,0.061,0.091,0.091
		c-0.178,0.179-0.354,0.357-0.532,0.536C40.287,54.834,40.61,54.749,40.753,54.537z"/>
	<path style="fill-rule:evenodd;clip-rule:evenodd;fill:#7E3D8F;" d="M31.417,54.221c0.069-0.071,0.14-0.143,0.21-0.213
		C31.675,54.196,31.605,54.268,31.417,54.221z"/>
	<path style="fill-rule:evenodd;clip-rule:evenodd;fill:#FEFEFE;" d="M31.509,0.389c0.085-0.054,0.17-0.108,0.255-0.162
		c0.133-0.01,0.265-0.02,0.397-0.029c0.179,0.041,0.358,0.081,0.537,0.122c0.776,0.775,1.552,1.551,2.327,2.326
		c0.008,0.249,0.22,0.409,0.277,0.636c0.061,0.028,0.079,0.071,0.05,0.133c-0.055,0.062-0.055,0.124,0,0.186
		c0.027,0.061,0.013,0.106-0.05,0.133c-0.128,0.248-0.255,0.496-0.383,0.743c-0.914,0.936-1.829,1.871-2.743,2.807
		c-0.145,0.285-0.416,0.455-0.618,0.688C31.26,8.234,31.032,8.575,30.68,8.78c-0.804,0.792-1.668,1.528-2.318,2.464
		c-0.095,0.107-0.189,0.214-0.284,0.321c-0.89,0.9-1.778,1.8-2.668,2.699c-0.235,0.386-0.61,0.643-0.904,0.975
		c-0.199,0.173-0.345,0.408-0.594,0.524c-0.798,0.796-1.663,1.528-2.312,2.463c-0.95,0.971-1.901,1.941-2.853,2.912
		c-0.201,0.355-0.545,0.581-0.808,0.88c-0.233,0.202-0.403,0.475-0.689,0.619c-0.76,0.768-1.61,1.449-2.209,2.367
		c0.048,0.364,0.364,0.509,0.595,0.725c1.129,1.15,2.258,2.3,3.387,3.451c0.681,0.976,1.586,1.738,2.419,2.57
		c0.208,0.088,0.328,0.279,0.49,0.422c0.258,0.294,0.593,0.517,0.795,0.863c1.103,1.115,2.205,2.229,3.308,3.345
		c0.005,0.047,0.029,0.081,0.072,0.102c0.687,0.969,1.584,1.738,2.42,2.567c0.413,0.305,0.772,0.662,1.075,1.076
		c0.813,0.831,1.625,1.661,2.438,2.492c-0.028,0.04-0.054,0.084-0.086,0.121c-0.583,0.667-0.581,0.665-1.217,0.02
		c-0.26-0.265-0.53-0.521-0.796-0.779c-0.046-0.088-0.074-0.192-0.141-0.26c-2.279-2.314-4.562-4.627-6.843-6.938
		c-0.046-0.088-0.073-0.193-0.139-0.261c-2.245-2.277-4.494-4.552-6.742-6.827c-0.589-0.797-1.375-1.405-2.034-2.134
		c-0.163-0.18-0.429-0.289-0.442-0.583c0.094-0.105,0.188-0.209,0.282-0.315c0.017-0.365,0.292-0.564,0.511-0.8
		c0.212-0.188,0.402-0.402,0.669-0.519c1.077-0.946,2.161-1.917,3.02-3.042c0.574-0.751,1.132-1.5,1.797-2.171
		c0.252-0.254,0.523-0.47,0.878-0.559c0.252-0.254,0.503-0.507,0.755-0.761c0.948-1.114,2.052-2.076,3.057-3.133
		c0.188-0.198,0.436-0.348,0.534-0.624c0.135-0.136,0.27-0.272,0.404-0.408c0.183-0.827,0.941-1.184,1.434-1.758
		c0.382-0.355,0.653-0.853,1.231-0.953c1.483-1.454,2.98-2.893,4.313-4.49c-0.006-0.273,0.154-0.467,0.336-0.633
		c0.444-0.403,0.781-0.881,1.036-1.42c0.068-0.402-0.194-0.643-0.434-0.898C32.775,1.8,32.037,1.19,31.509,0.389z"/>
	<path style="fill-rule:evenodd;clip-rule:evenodd;fill:#FEFEFE;" d="M53.312,22.617c0.041-0.028,0.082-0.057,0.123-0.085
		c0.144,0.058,0.283,0.009,0.423-0.014c0.174,0.045,0.349,0.09,0.522,0.135c0.461,0.458,0.923,0.915,1.385,1.373
		c0.246,0.537,0.753,0.848,1.112,1.287c0.018,0.048,0.048,0.086,0.091,0.115c-0.052,0.121-0.006,0.223,0.063,0.32
		c-0.048,0.07-0.048,0.141-0.002,0.212c-0.04,0.032-0.053,0.073-0.038,0.123c-0.068,0.144-0.137,0.288-0.205,0.432
		c-0.498,0.52-1.085,0.958-1.45,1.599c-0.987,1.007-1.975,2.014-2.962,3.02c-0.286,0.287-0.571,0.573-0.857,0.859
		c-0.23,0.339-0.513,0.625-0.854,0.853c-0.864,0.862-1.802,1.655-2.513,2.663c-0.955,0.977-1.91,1.953-2.865,2.931
		c-0.14,0.279-0.407,0.446-0.605,0.675c-0.274,0.274-0.548,0.549-0.823,0.823c-0.127,0.114-0.224,0.264-0.396,0.323
		c-0.717,0.73-1.524,1.377-2.093,2.247c-0.986,1.007-1.972,2.015-2.958,3.021c-0.175,0.319-0.481,0.518-0.714,0.783
		c-0.267,0.232-0.465,0.541-0.785,0.714c-0.834,0.832-1.741,1.596-2.421,2.573c-0.273,0.278-0.547,0.558-0.82,0.837
		c-0.215,0.082-0.43,0.165-0.645,0.247c-0.073-0.003-0.146-0.006-0.22-0.009c-0.552-0.256-0.553-0.258-0.177-0.658
		c0.339-0.36,0.682-0.719,1.022-1.078c0.143-0.144,0.285-0.288,0.428-0.432c1.828-1.754,3.575-3.588,5.274-5.467
		c0.218-0.71,0.697-1.162,1.387-1.407c0.143-0.145,0.285-0.288,0.428-0.432c1.383-1.351,2.761-2.706,4.047-4.151
		c0.567-0.638,1.172-1.24,1.761-1.859c0.074-0.497,0.482-0.748,0.792-1.072c0.143-0.12,0.3-0.208,0.49-0.224
		c1.649-1.576,3.226-3.222,4.742-4.926c0.308-0.837,0.901-1.393,1.709-1.736c0.166-0.155,0.346-0.299,0.494-0.469
		c0.489-0.559,0.489-1.298-0.022-1.849c-0.551-0.592-1.132-1.157-1.695-1.737C53.335,23.023,53.092,22.888,53.312,22.617z"/>
	<path style="fill-rule:evenodd;clip-rule:evenodd;fill:#7E3D8F;" d="M40.738,41.631c-0.435,0.496-0.891,0.971-1.387,1.407
		c-0.05-0.003-0.113-0.027-0.146-0.005c-0.876,0.587-1.839,0.601-2.807,0.366c-1.099-0.267-2.221-0.389-3.323-0.624
		c-0.248-0.053-0.495-0.092-0.696-0.263c0.659-0.664,1.331-1.318,1.973-2c0.222-0.236,0.434-0.275,0.734-0.219
		c1.603,0.301,3.208,0.586,4.813,0.87C40.238,41.224,40.522,41.362,40.738,41.631z"/>
	<path style="fill-rule:evenodd;clip-rule:evenodd;fill:#8A4493;" d="M22.07,45.072c2.203,2.23,4.407,4.461,6.61,6.691
		c0.09,0.091,0.17,0.187,0.187,0.32c-0.303-0.289-0.604-0.577-0.906-0.866c-0.981-0.987-1.962-1.976-2.944-2.962
		c-0.141-0.142-0.27-0.286-0.494-0.324c-2.97-0.499-5.937-1.011-8.907-1.507c-0.711-0.119-1.4-0.44-2.148-0.268
		c-0.697-0.697-1.399-1.389-2.088-2.095c-0.146-0.149-0.465-0.285-0.335-0.515c0.108-0.192,0.42-0.038,0.622-0.009
		c0.868,0.123,1.73,0.291,2.595,0.445c2.317,0.413,4.634,0.834,6.953,1.236C21.501,45.27,21.822,45.335,22.07,45.072z"/>
	<path style="fill-rule:evenodd;clip-rule:evenodd;fill:#77398D;" d="M33.111,62.581c-0.078-0.356-0.271-0.534-0.66-0.595
		c-1.279-0.198-2.551-0.44-3.824-0.676c-0.145-0.027-0.239,0.016-0.336,0.102c-0.859-0.859-1.72-1.717-2.575-2.58
		c-0.098-0.099-0.282-0.188-0.188-0.366c0.09-0.168,0.255-0.088,0.403-0.062c2.149,0.386,4.3,0.768,6.451,1.148
		c0.74,0.131,1.48,0.264,2.224,0.381c0.253,0.04,0.503,0.062,0.665,0.296c-0.326,0.718-1.028,1.123-1.462,1.753
		C33.597,62.205,33.441,62.495,33.111,62.581z"/>
	<path style="fill-rule:evenodd;clip-rule:evenodd;fill:#7E3D8F;" d="M33.753,61.933c0.075-0.436,0.477-0.611,0.729-0.903
		c0.244-0.283,0.524-0.536,0.788-0.801c0.766-0.758,1.53-1.516,2.296-2.273c-0.316,0.59-0.864,0.974-1.299,1.458
		c-0.387,0.433-0.798,0.844-1.198,1.264C34.681,61.148,34.309,61.636,33.753,61.933z"/>
	<path style="fill-rule:evenodd;clip-rule:evenodd;fill:#AC59A1;" d="M62.057,30.915c0.376,0.455,0.351,0.952,0.156,1.468
		c-1.096-0.368-2.241-0.482-3.372-0.681c-1.554-0.273-3.12-0.49-4.648-0.898c0.423-0.43,0.866-0.842,1.262-1.295
		c0.248-0.283,0.506-0.34,0.854-0.274c1.297,0.245,2.593,0.501,3.897,0.692C60.961,30.037,61.581,30.32,62.057,30.915z"/>
	<path style="fill-rule:evenodd;clip-rule:evenodd;fill:#A2539D;" d="M58.387,36.498c-0.013,0.046-0.043,0.073-0.09,0.082
		c-0.409,0.54-0.866,1.031-1.435,1.409c-0.443-0.325-0.979-0.377-1.49-0.467c-1.968-0.349-3.94-0.664-5.91-1.003
		c-0.191-0.033-0.396-0.083-0.542-0.242c0.465-0.466,0.93-0.933,1.394-1.399c2.451,0.446,4.901,0.893,7.359,1.295
		C57.932,36.215,58.243,36.184,58.387,36.498z"/>
	<path style="fill-rule:evenodd;clip-rule:evenodd;fill:#A4549E;" d="M58.387,36.498c-1.814-0.308-3.631-0.599-5.44-0.934
		c-0.661-0.123-1.315-0.268-1.986-0.338c-0.246-0.026-0.484-0.134-0.646-0.349c0.055-0.055,0.107-0.108,0.161-0.162
		c1.017-1.017,1.015-1.007,2.405-0.751c2.072,0.381,4.149,0.736,6.219,1.132c0.238,0.046,0.443-0.065,0.663-0.008
		C59.304,35.558,58.845,36.028,58.387,36.498z"/>
	<path style="fill-rule:evenodd;clip-rule:evenodd;fill:#AC59A1;" d="M33.856,3.391c0.119,0.405-0.043,0.726-0.316,1.004
		c-0.347,0.354-0.703,0.699-1.056,1.049c-2.172-0.213-4.3-0.692-6.443-1.071c0.567-0.572,1.142-1.138,1.7-1.718
		c0.189-0.197,0.395-0.317,0.666-0.267C30.224,2.719,32.04,3.056,33.856,3.391z"/>
	<path style="fill-rule:evenodd;clip-rule:evenodd;fill:#A4549E;" d="M28.171,9.933c-0.328,0.39-0.685,0.752-1.072,1.084
		c-1.96,0.123-3.823-0.45-5.717-0.797c-0.247-0.045-0.482-0.166-0.503-0.48c0.498-0.499,1.005-0.989,1.49-1.5
		c0.213-0.225,0.444-0.312,0.741-0.259c1.768,0.316,3.536,0.638,5.307,0.945c0.33,0.057,0.402,0.146,0.167,0.417
		C28.428,9.524,28.146,9.623,28.171,9.933z"/>
	<path style="fill-rule:evenodd;clip-rule:evenodd;fill:#A0529C;" d="M20.879,9.74c0.207,0.249,0.493,0.321,0.794,0.375
		c1.348,0.241,2.694,0.481,4.039,0.736c0.46,0.087,0.956-0.146,1.387,0.167c-0.531,0.542-1.062,1.085-1.593,1.627
		c-0.922-0.234-1.867-0.341-2.801-0.51c-1.18-0.214-2.356-0.446-3.535-0.67C19.74,10.889,20.31,10.314,20.879,9.74z"/>
	<path style="fill-rule:evenodd;clip-rule:evenodd;fill:#964C98;" d="M53.202,41.852c-1.831,1.96-3.636,3.945-5.587,5.789
		c0.041-0.419,0.452-0.549,0.657-0.84c0.751-0.751,1.507-1.497,2.25-2.256c0.333-0.34,0.322-0.397-0.132-0.483
		c-1.205-0.229-2.416-0.426-3.624-0.646c-0.738-0.135-1.479-0.269-2.21-0.438c-0.585-0.136-1.21-0.072-1.762-0.365
		c0.465-0.467,0.954-0.911,1.387-1.405c0.312-0.356,0.668-0.421,1.088-0.348c1.829,0.32,3.659,0.636,5.486,0.971
		C51.573,41.982,52.384,42.143,53.202,41.852z"/>
	<path style="fill-rule:evenodd;clip-rule:evenodd;fill:#8E4795;" d="M13.6,24.977c0.677,0.709,1.356,1.415,2.027,2.13
		c0.169,0.179,0.402,0.314,0.449,0.587c-0.265-0.252-0.529-0.504-0.794-0.756c-0.484-0.492-0.972-0.98-1.452-1.476
		C13.703,25.33,13.487,25.228,13.6,24.977z"/>
	<path style="fill-rule:evenodd;clip-rule:evenodd;fill:#964C98;" d="M20.756,17.571c-1.903,1.963-3.7,4.028-5.696,5.902
		c-0.069-0.004-0.108-0.043-0.122-0.11c0.023-0.066,0.07-0.094,0.14-0.088c0.979-0.979,1.959-1.957,2.933-2.941
		c0.071-0.072,0.262-0.131,0.135-0.28c-0.047-0.056-0.2-0.074-0.278-0.043c-0.563,0.223-1.089-0.065-1.62-0.137
		c-1.311-0.176-2.61-0.429-3.912-0.667c-0.163-0.03-0.351-0.068-0.465-0.227c0.798-0.804,1.602-1.602,2.391-2.415
		c0.216-0.222,0.381-0.237,0.702-0.159c1.163,0.28,2.35,0.462,3.524,0.695C19.244,17.25,20.027,17.279,20.756,17.571z"/>
	<path style="fill-rule:evenodd;clip-rule:evenodd;fill:#8E4795;" d="M15.077,23.274c-0.036,0.036-0.072,0.072-0.107,0.107
		c-0.039,0.285-0.381,0.357-0.441,0.627c-0.215,0.218-0.431,0.436-0.646,0.653c-1.694,0.022-3.315-0.458-4.969-0.721
		c-0.494-0.079-0.998-0.13-1.462-0.343c0.285-0.287,0.61-0.544,0.848-0.867c0.39-0.53,0.884-0.56,1.458-0.45
		C11.528,22.619,13.303,22.944,15.077,23.274z"/>
	<path style="fill-rule:evenodd;clip-rule:evenodd;fill:#8A4493;" d="M47.938,34.214c-0.293,0.354-0.612,0.681-0.965,0.975
		c-0.381-0.23-0.82-0.183-1.232-0.256c-1.48-0.264-2.964-0.512-4.443-0.778c-0.192-0.034-0.398-0.082-0.544-0.243
		c0.554-0.555,1.107-1.109,1.66-1.663c0.159-0.159,0.29-0.307,0.577-0.249c1.939,0.386,3.919,0.566,5.818,1.158
		c-0.215,0.215-0.43,0.43-0.645,0.645C48.18,33.99,47.948,34.041,47.938,34.214z"/>
	<path style="fill-rule:evenodd;clip-rule:evenodd;fill:#A4549E;" d="M56.862,37.989c0.479-0.47,0.956-0.939,1.435-1.409
		c-0.009,0.135-0.085,0.232-0.176,0.323c-1.14,1.146-2.279,2.292-3.418,3.438c-0.078,0.017-0.111-0.012-0.092-0.092
		C55.361,39.496,56.111,38.742,56.862,37.989z"/>
	<path style="fill-rule:evenodd;clip-rule:evenodd;fill:#9E519B;" d="M54.611,40.249c0.03,0.03,0.061,0.062,0.092,0.092
		c-0.143,0.143-0.284,0.285-0.426,0.427C54.231,40.494,54.492,40.417,54.611,40.249z"/>
	<path style="fill-rule:evenodd;clip-rule:evenodd;fill:#A0529C;" d="M25.102,13.052c-0.041,0.089-0.063,0.199-0.128,0.265
		c-1.15,1.167-2.308,2.33-3.463,3.493c0.083-0.46,0.518-0.637,0.778-0.954c0.188-0.23,0.417-0.427,0.628-0.639
		C23.646,14.495,24.373,13.773,25.102,13.052z"/>
	<path style="fill-rule:evenodd;clip-rule:evenodd;fill:#934997;" d="M54.707,27.231c-0.541,0.606-1.109,1.187-1.709,1.736
		c-0.289-0.063-0.391,0.19-0.543,0.338c-0.272,0.266-0.597,0.41-0.959,0.35c-1.728-0.292-3.451-0.604-5.176-0.914
		c-0.146-0.026-0.296-0.07-0.403-0.191c0.89-0.896,1.787-1.785,2.665-2.692c0.268-0.276,0.506-0.362,0.919-0.303
		c1.712,0.243,3.394,0.643,5.094,0.941c0.455,0.08,0.449,0.098,0.152,0.524C54.71,27.073,54.72,27.16,54.707,27.231z"/>
	<path style="fill-rule:evenodd;clip-rule:evenodd;fill:#8C4594;" d="M47.938,34.214c-0.056-0.21,0.126-0.289,0.227-0.412
		c0.03,0.03,0.061,0.061,0.091,0.091C48.15,34,48.044,34.107,47.938,34.214z"/>
	<path style="fill-rule:evenodd;clip-rule:evenodd;fill:#FEFEFE;" d="M33.753,61.933c0.439-0.418,0.878-0.837,1.316-1.256
		c0.028,0.309-0.244,0.419-0.409,0.588c-0.789,0.807-1.593,1.6-2.392,2.397c-0.186-0.256,0.122-0.272,0.204-0.382
		c0.189-0.251,0.423-0.469,0.639-0.7C33.356,62.396,33.566,62.176,33.753,61.933z"/>
	<path style="fill-rule:evenodd;clip-rule:evenodd;fill:#713F86;" d="M37.656,46.28c0.251-0.251,0.501-0.501,0.752-0.752
		c0.02,0.022,0.042,0.042,0.064,0.062c-0.245,0.253-0.491,0.507-0.737,0.76C37.659,46.383,37.636,46.357,37.656,46.28z"/>
	<path style="fill-rule:evenodd;clip-rule:evenodd;fill:#7D4F90;" d="M37.656,46.28c0.023,0.026,0.05,0.05,0.079,0.069
		c-0.269,0.233-0.414,0.618-0.826,0.676C37.158,46.777,37.407,46.528,37.656,46.28z"/>
	<path style="fill-rule:evenodd;clip-rule:evenodd;fill:#7D4F90;" d="M50.661,32.844c0.285-0.284,0.57-0.568,0.854-0.853
		c0.023,0.026,0.049,0.048,0.077,0.067C51.289,32.329,51.11,32.748,50.661,32.844z"/>
	<path style="fill-rule:evenodd;clip-rule:evenodd;fill:#7F5393;" d="M21.436,42.919c-0.285-0.285-0.57-0.57-0.855-0.854
		c0.451,0.096,0.63,0.518,0.937,0.787C21.485,42.87,21.459,42.892,21.436,42.919z"/>
	<path style="fill-rule:evenodd;clip-rule:evenodd;fill:#78478C;" d="M36.69,60.353c0.214-0.215,0.429-0.43,0.644-0.645
		c0.022,0.025,0.047,0.046,0.075,0.064c-0.211,0.219-0.422,0.438-0.633,0.656C36.7,60.458,36.669,60.435,36.69,60.353z"/>
	<path style="fill-rule:evenodd;clip-rule:evenodd;fill:#835996;" d="M36.69,60.353c0.025,0.029,0.054,0.055,0.086,0.076
		c-0.116,0.113-0.193,0.294-0.407,0.242C36.476,60.565,36.583,60.459,36.69,60.353z"/>
	<path style="fill-rule:evenodd;clip-rule:evenodd;fill:#7F5292;" d="M57.001,39.399c0.319-0.32,0.639-0.642,0.959-0.962
		c0.026,0.022,0.054,0.046,0.08,0.068C57.695,38.805,57.496,39.275,57.001,39.399z"/>
	<path style="fill-rule:evenodd;clip-rule:evenodd;fill:#723E87;" d="M58.04,38.505c-0.029-0.019-0.057-0.042-0.08-0.068
		c0.215-0.215,0.43-0.43,0.645-0.644c0.021,0.021,0.043,0.041,0.067,0.059C58.462,38.07,58.251,38.288,58.04,38.505z"/>
	<path style="fill-rule:evenodd;clip-rule:evenodd;fill:#845897;" d="M28.527,50.226c-0.432-0.355-0.811-0.762-1.178-1.181
		c0.576,0.199,0.846,0.743,1.264,1.12C28.578,50.177,28.55,50.197,28.527,50.226z"/>
	<path style="fill-rule:evenodd;clip-rule:evenodd;fill:#805293;" d="M22.727,33.037c-0.325-0.251-0.602-0.55-0.863-0.863
		c-0.017-0.054-0.01-0.084,0.021-0.091c0.029-0.007,0.051-0.004,0.063,0.008c0.287,0.296,0.573,0.592,0.859,0.887
		C22.774,32.991,22.748,33.01,22.727,33.037z"/>
	<path style="fill-rule:evenodd;clip-rule:evenodd;fill:#805493;" d="M21.946,32.09c-0.028,0.027-0.056,0.055-0.083,0.083
		c-0.141-0.141-0.281-0.281-0.422-0.422C21.711,31.712,21.786,31.966,21.946,32.09z"/>
	<path style="fill-rule:evenodd;clip-rule:evenodd;fill:#7D4E90;" d="M30.68,8.78c0.284-0.284,0.568-0.568,0.853-0.853
		c0.026,0.023,0.052,0.045,0.078,0.068C31.306,8.265,31.128,8.683,30.68,8.78z"/>
	<path style="fill-rule:evenodd;clip-rule:evenodd;fill:#714087;" d="M31.61,7.996c-0.029-0.02-0.055-0.043-0.078-0.068
		c0.215-0.215,0.43-0.43,0.645-0.645c0.021,0.022,0.042,0.042,0.066,0.06C32.032,7.561,31.82,7.778,31.61,7.996z"/>
	<path style="fill-rule:evenodd;clip-rule:evenodd;fill:#7F5392;" d="M14.344,35.613c-0.284-0.284-0.567-0.569-0.852-0.854
		c0.448,0.097,0.625,0.518,0.932,0.782c0.014,0.051,0.006,0.078-0.022,0.082C14.375,35.628,14.355,35.625,14.344,35.613z"/>
	<path style="fill-rule:evenodd;clip-rule:evenodd;fill:#734288;" d="M14.344,35.613c0.024-0.026,0.051-0.05,0.08-0.071
		c0.282,0.29,0.564,0.58,0.847,0.869c-0.024,0.019-0.048,0.04-0.068,0.063C14.883,36.22,14.606,35.923,14.344,35.613z"/>
	<path style="fill-rule:evenodd;clip-rule:evenodd;fill:#75448A;" d="M24.444,15.233c0.297-0.347,0.608-0.68,0.965-0.968
		c0.021,0.023,0.045,0.043,0.071,0.059c-0.317,0.328-0.636,0.655-0.953,0.983C24.449,15.339,24.424,15.312,24.444,15.233z"/>
	<path style="fill-rule:evenodd;clip-rule:evenodd;fill:#835895;" d="M24.444,15.233c0.024,0.027,0.053,0.052,0.083,0.073
		c-0.2,0.161-0.289,0.47-0.616,0.458C24.089,15.587,24.267,15.41,24.444,15.233z"/>
	<path style="fill-rule:evenodd;clip-rule:evenodd;fill:#713F86;" d="M43.995,52.833c0.225-0.276,0.47-0.532,0.751-0.752
		c0.021,0.021,0.042,0.042,0.065,0.06c-0.246,0.254-0.493,0.508-0.739,0.762C44.047,52.879,44.021,52.857,43.995,52.833z"/>
	<path style="fill-rule:evenodd;clip-rule:evenodd;fill:#7C4D8F;" d="M43.995,52.833c0.023,0.026,0.049,0.049,0.077,0.069
		c-0.212,0.219-0.424,0.438-0.636,0.656c-0.078,0.025-0.106-0.002-0.085-0.081C43.565,53.263,43.78,53.048,43.995,52.833z"/>
	<path style="fill-rule:evenodd;clip-rule:evenodd;fill:#875D99;" d="M43.352,53.478c0.026,0.029,0.055,0.057,0.085,0.081
		c-0.162,0.127-0.238,0.382-0.512,0.343C43.067,53.761,43.209,53.62,43.352,53.478z"/>
	<path style="fill-rule:evenodd;clip-rule:evenodd;fill:#76468A;" d="M17.889,22.001c0.263-0.311,0.539-0.608,0.858-0.861
		c0.021,0.024,0.045,0.046,0.07,0.065c-0.282,0.291-0.564,0.581-0.847,0.871C17.896,22.103,17.866,22.081,17.889,22.001z"/>
	<path style="fill-rule:evenodd;clip-rule:evenodd;fill:#815493;" d="M17.889,22.001c0.025,0.027,0.053,0.052,0.082,0.075
		c-0.233,0.197-0.352,0.54-0.721,0.563C17.463,22.426,17.676,22.213,17.889,22.001z"/>
	<path style="fill-rule:evenodd;clip-rule:evenodd;fill:#805393;" d="M63.335,30.67c-0.143-0.142-0.286-0.283-0.43-0.425
		c0.278-0.031,0.358,0.217,0.513,0.361C63.387,30.624,63.358,30.644,63.335,30.67z"/>
	<path style="fill-rule:evenodd;clip-rule:evenodd;fill:#7E5191;" d="M43.781,39.941c0.285-0.286,0.571-0.573,0.857-0.859
		c0.026,0.023,0.053,0.046,0.079,0.069c-0.282,0.292-0.565,0.583-0.849,0.875C43.788,40.051,43.762,40.02,43.781,39.941z"/>
	<path style="fill-rule:evenodd;clip-rule:evenodd;fill:#713F86;" d="M44.718,39.151c-0.029-0.02-0.056-0.043-0.079-0.069
		c0.215-0.215,0.43-0.429,0.645-0.644c0.021,0.021,0.042,0.042,0.065,0.06C45.139,38.715,44.929,38.933,44.718,39.151z"/>
	<path style="fill-rule:evenodd;clip-rule:evenodd;fill:#8E659F;" d="M43.781,39.941c0.026,0.03,0.057,0.059,0.088,0.085
		c-0.121,0.105-0.197,0.288-0.41,0.233C43.566,40.153,43.674,40.047,43.781,39.941z"/>
	<path style="fill-rule:evenodd;clip-rule:evenodd;fill:#9771A6;" d="M47.491,49.274c0.566-0.865,1.371-1.509,2.083-2.238
		c0.055,0.21-0.13,0.288-0.229,0.414c-0.355,0.368-0.71,0.735-1.065,1.104C48.018,48.793,47.754,49.034,47.491,49.274z"/>
	<path style="fill-rule:evenodd;clip-rule:evenodd;fill:#7F5393;" d="M50.018,46.596c0.404-0.452,0.819-0.894,1.283-1.286
		c0.022,0.028,0.049,0.048,0.082,0.061C50.938,45.792,50.621,46.353,50.018,46.596z"/>
	<path style="fill-rule:evenodd;clip-rule:evenodd;fill:#7D4E90;" d="M8.006,29.062c-0.468-0.395-0.884-0.843-1.295-1.295
		c0.026-0.021,0.049-0.047,0.067-0.075c0.463,0.409,0.9,0.844,1.305,1.311C8.053,29.016,8.027,29.037,8.006,29.062z"/>
	<path style="fill-rule:evenodd;clip-rule:evenodd;fill:#805493;" d="M29.602,40.126c-0.396-0.321-0.74-0.693-1.075-1.076
		c0.027-0.03,0.057-0.059,0.088-0.084c0.356,0.367,0.713,0.734,1.07,1.103C29.651,40.081,29.624,40.1,29.602,40.126z"/>
	<path style="fill-rule:evenodd;clip-rule:evenodd;fill:#6C3782;" d="M35.303,3.733c0-0.051,0.017-0.095,0.05-0.133
		c0.032,0.028,0.063,0.059,0.091,0.091C35.415,3.768,35.362,3.761,35.303,3.733z"/>
	<path style="fill-rule:evenodd;clip-rule:evenodd;fill:#6C3782;" d="M35.353,3.415c-0.033-0.038-0.05-0.083-0.05-0.133
		c0.06-0.028,0.113-0.036,0.141,0.042C35.415,3.356,35.385,3.386,35.353,3.415z"/>
	<path style="fill-rule:evenodd;clip-rule:evenodd;fill:#FEFEFE;" d="M33.122,63.674c0.084-0.085,0.166-0.174,0.305-0.127
		C33.348,63.645,33.258,63.714,33.122,63.674z"/>
	<path style="fill-rule:evenodd;clip-rule:evenodd;fill:#FEFEFE;" d="M63.51,32.594c-0.041-0.13,0.041-0.21,0.118-0.292
		C63.657,32.427,63.612,32.523,63.51,32.594z"/>
	<path style="fill-rule:evenodd;clip-rule:evenodd;fill:#6C3781;" d="M5.527,27.484c-0.038,0.032-0.083,0.051-0.133,0.058
		c-0.026-0.052-0.033-0.102,0.023-0.14C5.459,27.422,5.496,27.45,5.527,27.484z"/>
	<path style="fill-rule:evenodd;clip-rule:evenodd;fill:#934997;" d="M14.528,24.009c-0.024-0.33,0.299-0.415,0.441-0.627
		c0.03,0.03,0.061,0.061,0.09,0.091C14.883,23.651,14.706,23.83,14.528,24.009z"/>
</g>
</svg>
