<?xml version="1.0" encoding="iso-8859-1"?>
<!-- Generator: Adobe Illustrator 16.0.0, SVG Export Plug-In . SVG Version: 6.00 Build 0)  -->
<!DOCTYPE svg PUBLIC "-//W3C//DTD SVG 1.1//EN" "http://www.w3.org/Graphics/SVG/1.1/DTD/svg11.dtd">
<svg version="1.1" id="Layer_1" xmlns="http://www.w3.org/2000/svg" xmlns:xlink="http://www.w3.org/1999/xlink" x="0px" y="0px"
	 width="64px" height="64px" viewBox="0 0 64 64" style="enable-background:new 0 0 64 64;" xml:space="preserve">
<g>
	<path style="fill-rule:evenodd;clip-rule:evenodd;fill:#BC2227;" d="M29.299,64c-0.345-0.375-0.678-0.761-1.037-1.12
		c-0.682-0.681-1.383-1.344-2.068-2.02c-0.765-0.753-1.525-1.51-2.281-2.272c-0.862-0.871-1.708-1.757-2.575-2.623
		c-2.414-2.408-4.834-4.81-7.258-7.208c-0.197-0.194-0.282-0.385-0.282-0.667c0.008-9.112,0.008-18.225,0-27.337
		c0-0.327,0.085-0.535,0.36-0.735c0.37-0.271,0.683-0.62,1.019-0.938c0.401-0.379,0.8-0.762,1.202-1.142
		c1.011-0.953,2.023-1.906,3.036-2.857c0.596-0.56,1.196-1.115,1.792-1.674c0.961-0.902,1.918-1.807,2.88-2.707
		c0.565-0.53,1.139-1.053,1.705-1.583c0.653-0.612,1.302-1.23,1.955-1.842c0.898-0.841,1.799-1.679,2.702-2.515
		c0.12-0.111,0.26-0.201,0.404-0.311c0.071,0.066,0.145,0.13,0.213,0.198c1.96,1.958,3.92,3.916,5.873,5.881
		c0.099,0.1,0.188,0.263,0.188,0.397c0.012,4.749,0.013,9.498,0.014,14.247c0,0.015-0.017,0.03,0.008-0.012
		c-2.585-2.462-5.182-4.935-7.778-7.408c0.046-0.056,0.092-0.111,0.139-0.166c-0.069,0.064-0.141,0.126-0.208,0.192
		c-2.147,2.147-4.294,4.297-6.447,6.439c-0.154,0.154-0.209,0.306-0.208,0.518c0.006,3.889,0.013,7.777,0.004,11.665
		c-0.005,1.896-0.036,3.792-0.063,5.688c-0.003,0.193,0.056,0.328,0.192,0.464c1.788,1.78,3.567,3.569,5.356,5.348
		c1.315,1.309,2.643,2.606,3.965,3.908c0.049,0.047,0.101,0.091,0.095,0.086c3.057-2.978,6.101-5.944,9.176-8.94
		c-1.367-1.448-2.66-2.816-3.991-4.225c-2.173,2.173-4.325,4.326-6.491,6.494c-0.013-0.056-0.035-0.108-0.035-0.16
		c-0.002-3.434-0.007-6.867,0.006-10.3c0-0.161,0.11-0.357,0.23-0.478c1.86-1.875,3.73-3.741,5.598-5.61
		c0.14-0.14,0.269-0.29,0.405-0.438c4.335,4.336,8.648,8.649,12.956,12.969c0.084,0.084,0.143,0.237,0.143,0.358
		c0.008,2.404,0.009,4.809-0.002,7.213c0,0.136-0.078,0.305-0.176,0.402c-4.772,4.784-9.552,9.561-14.328,14.341
		c-0.145,0.144-0.261,0.317-0.39,0.476C33.296,64,31.298,64,29.299,64z"/>
	<path style="fill-rule:evenodd;clip-rule:evenodd;fill:#BC2227;" d="M38.382,64c0.42-0.43,0.834-0.866,1.262-1.288
		c0.521-0.514,1.062-1.008,1.579-1.525c2.514-2.509,5.021-5.023,7.535-7.533c0.366-0.366,0.759-0.706,1.127-1.07
		c0.824-0.815,1.642-1.636,2.455-2.461c0.066-0.067,0.107-0.188,0.107-0.284c0.006-3.067,0.006-6.134,0-9.201
		c0-0.096-0.042-0.217-0.107-0.284c-0.513-0.525-1.041-1.035-1.556-1.559c-0.524-0.535-1.03-1.088-1.559-1.618
		c-3.075-3.08-6.155-6.154-9.23-9.233c-0.412-0.413-0.804-0.845-1.169-1.229c2.918-2.993,5.817-5.967,8.717-8.941
		c0.044,0.007,0.089,0.014,0.134,0.021c-0.096-0.068-0.202-0.125-0.284-0.207c-2.962-2.956-5.921-5.915-8.88-8.873
		c-0.434-0.434-0.876-0.858-1.297-1.303c-0.087-0.092-0.134-0.258-0.134-0.39c-0.008-2.216-0.005-4.432-0.009-6.648
		c0-0.124-0.037-0.248-0.057-0.372c0.079,0,0.158,0,0.237,0c0.059,0.088,0.104,0.189,0.178,0.262
		c3.415,3.399,6.834,6.795,10.251,10.193c0.837,0.832,1.669,1.669,2.503,2.504c2.161,2.162,4.322,4.324,6.483,6.486
		c0.066,0.066,0.128,0.138,0.196,0.21c-2.468,2.425-4.909,4.824-7.344,7.217c1.365,1.395,2.684,2.752,4.014,4.1
		c2.008,2.037,4.023,4.066,6.038,6.097c0.065,0.066,0.16,0.104,0.241,0.156c0,4.848,0,9.697,0,14.545
		c-0.208,0.16-0.438,0.299-0.621,0.483c-0.729,0.73-1.438,1.482-2.167,2.213c-3.076,3.082-6.157,6.159-9.232,9.241
		c-0.073,0.074-0.101,0.194-0.15,0.292C44.557,64,41.47,64,38.382,64z"/>
	<path style="fill-rule:evenodd;clip-rule:evenodd;fill:#BC2227;" d="M4.186,29.506c0.095-0.045,0.21-0.069,0.281-0.138
		c0.953-0.924,1.896-1.859,2.851-2.783c0.828-0.802,1.67-1.589,2.499-2.391c0.509-0.491,1.003-0.997,1.505-1.495
		c0.068-0.068,0.141-0.132,0.259-0.242c0.012,0.132,0.025,0.212,0.025,0.292c-0.001,2.581,0.003,5.163-0.006,7.744
		c-0.012,3.242-0.034,6.483-0.054,9.724c-0.018,3.013-0.036,6.026-0.062,9.039c-0.002,0.203,0.055,0.345,0.2,0.491
		c4.668,4.66,9.332,9.325,13.996,13.99c0.082,0.083,0.156,0.175,0.234,0.263c-3.622,0-7.243,0-10.865,0
		c-0.181-0.21-0.349-0.434-0.545-0.628c-0.49-0.486-1.001-0.953-1.491-1.439c-2.078-2.065-4.151-4.136-6.229-6.203
		c-0.782-0.778-1.57-1.549-2.358-2.32c-0.067-0.065-0.16-0.104-0.241-0.155C4.186,45.338,4.186,37.422,4.186,29.506z"/>
</g>
</svg>
