<?xml version="1.0" encoding="iso-8859-1"?>
<!-- Generator: Adobe Illustrator 16.0.0, SVG Export Plug-In . SVG Version: 6.00 Build 0)  -->
<!DOCTYPE svg PUBLIC "-//W3C//DTD SVG 1.1//EN" "http://www.w3.org/Graphics/SVG/1.1/DTD/svg11.dtd">
<svg version="1.1" id="Layer_1" xmlns="http://www.w3.org/2000/svg" xmlns:xlink="http://www.w3.org/1999/xlink" x="0px" y="0px"
	 width="64px" height="64px" viewBox="0 0 64 64" style="enable-background:new 0 0 64 64;" xml:space="preserve">
<g>
	<path style="fill-rule:evenodd;clip-rule:evenodd;fill:#454545;" d="M18.847,38.846c-0.262-0.965-0.592-1.914-0.77-2.893
		c-0.358-1.967,0.283-3.715,1.37-5.324c0.175-0.26,0.235-0.484,0.181-0.797c-0.212-1.207-0.264-2.418,0.066-3.615
		c0.063-0.234-0.033-0.43-0.105-0.631c-0.707-1.971-1.152-3.996-1.296-6.092c-0.153-2.238,0.298-4.344,1.253-6.357
		c0.988-2.084,2.231-3.992,3.902-5.596c0.821-0.789,1.716-1.482,2.875-1.699c1.432-0.268,2.694,0.355,3.376,1.639
		c0.793,1.494,1.073,3.107,1.11,4.775c0.03,1.365-0.106,2.721-0.388,4.055c-0.081,0.385,0.043,0.416,0.383,0.49
		c0.766,0.166,1.277-0.043,1.636-0.75c0.14-0.273,0.385-0.518,0.635-0.707c0.348-0.262,0.413-0.576,0.374-0.979
		c-0.251-2.645-0.1-5.26,0.592-7.836c0.305-1.137,0.675-2.246,1.271-3.268c0.67-1.146,1.536-2.064,2.869-2.436
		c0.044-0.014,0.079-0.07,0.118-0.107c0.521,0,1.043,0,1.563,0c0.051,0.145,0.194,0.105,0.293,0.141
		c0.589,0.213,1.136,0.486,1.633,0.881c0.952,0.756,1.663,1.705,2.157,2.791c2.664,5.832,2.144,11.348-1.72,16.506
		c-0.28,0.373-0.218,0.582,0.247,0.721c0.111,0.033,0.225,0.055,0.338,0.082c1.289,0.332,2.498,0.826,3.513,1.719
		c0.696,0.609,1.388,1.227,2.076,1.844c0.079,0.072,0.21,0.113,0.192,0.287c-0.399-0.039-0.796-0.078-1.175-0.117
		c1.32,2.613,2.448,5.297,3.616,7.986c-1.155-0.666-2.312-1.33-3.51-2.021c-0.145,1.514-0.757,2.771-1.573,3.957
		c-0.724,1.049-1.397,2.129-2.088,3.197c-0.066,0.104-0.187,0.189-0.149,0.355c0.067,0.008,0.137,0.021,0.206,0.021
		c2.547,0.008,5.095,0.014,7.641,0.016c0.098,0.002,0.196-0.029,0.293-0.047c0,0.232,0,0.465,0,0.697
		c-0.151,0.074-0.103,0.227-0.119,0.344c-0.279,2.021-0.542,4.043-0.828,6.064c-0.051,0.35,0.109,0.393,0.377,0.381
		c0.314-0.016,0.41,0.08,0.354,0.432c-0.438,2.713-0.848,5.432-1.269,8.148c-0.203,1.314-0.397,2.631-0.611,3.945
		c-0.367,2.25-2.321,3.828-4.828,3.863c-5.31,0.074-10.621,0.125-15.932,0.188c-2.633,0.029-5.267,0.068-7.899,0.104
		c-0.694,0.002-1.389,0.004-2.082,0.008c-0.727,0.002-1.456-0.09-2.177,0.07c-1.478,0-2.955,0-4.432,0
		c-0.053-4.855-0.105-9.711-0.163-14.568c-0.002-0.125,0.09-0.293-0.098-0.377c0-0.754,0-1.506,0-2.26
		c0.157-0.781,0.115-1.563,0-2.346c0-1.563,0-3.127,0-4.693c2.229-0.01,4.457-0.021,6.686-0.031
		c0.484,0.041,0.966,0.029,1.504-0.012c-0.26-0.455-0.492-0.859-0.729-1.273C19.273,38.07,19.207,38.557,18.847,38.846z
		 M41.451,37.371c-0.807,0.742-1.872,0.838-2.603,1.678c0.803,0,1.508-0.002,2.21,0.002c0.136,0.002,0.224-0.031,0.238-0.18
		C41.343,38.418,41.391,37.963,41.451,37.371z"/>
	<path style="fill-rule:evenodd;clip-rule:evenodd;fill:#020101;" d="M36.75,40.063c4.444,0.008,8.891,0.016,13.334,0.023
		c0.608,0,0.618,0.035,0.533,0.645c-0.235,1.67-0.451,3.342-0.676,5.014c-0.05,0.371-0.103,0.742-0.167,1.113
		c-0.06,0.346,0.064,0.535,0.427,0.512c0.279-0.018,0.326,0.076,0.281,0.352c-0.351,2.178-0.679,4.359-1.019,6.539
		c-0.229,1.482-0.43,2.969-0.706,4.443c-0.3,1.596-1.38,2.508-2.853,3.025c-0.415,0.145-0.846,0.168-1.283,0.17
		c-3.616,0.025-7.235,0.016-10.852,0.109c-2.446,0.063-4.892-0.01-7.335,0.082c-2.518,0.094-5.036-0.004-7.551,0.092
		c-1.68,0.063-3.356,0.02-5.033,0.068c-0.275,0.008-0.402-0.045-0.44-0.363c-0.063-0.523-0.036-1.041-0.04-1.561
		c-0.017-2.084,0.034-4.172-0.035-6.254c-0.09-2.721,0.005-5.441-0.089-8.16c-0.062-1.793-0.019-3.588-0.072-5.381
		c-0.01-0.357,0.093-0.457,0.458-0.465c3.936-0.078,7.872-0.063,11.809-0.064c0.244,0.74,0.494,1.479,0.869,2.168
		c-0.309,0.172-0.563,0.389-0.628,0.764c-0.023,0.082-0.066,0.164-0.066,0.246c-0.005,1.939-0.001,3.879-0.01,5.818
		c-0.001,0.229,0.11,0.299,0.295,0.348c0.545,0.145,1.082,0.326,1.633,0.438c0.366,0.076,0.489,0.25,0.514,0.611
		c0.065,0.967,0.174,1.928,0.265,2.893c0.038,0.531,0.05,1.068,0.124,1.594c0.039,0.283-0.056,0.322-0.289,0.318
		c-0.404-0.01-0.81-0.018-1.213,0c-0.428,0.02-0.996-0.193-1.245,0.094c-0.258,0.299-0.051,0.857-0.082,1.303
		c-0.017,0.242,0.073,0.332,0.32,0.328c0.896-0.01,1.792,0.014,2.688-0.01c0.744-0.02,1.473-0.684,1.496-1.383
		c0.026-0.836-0.011-1.674-0.02-2.51c0.041-1.447,0.041-2.895,0-4.34c0.017-0.047-0.005-0.064-0.047-0.066
		c-0.733-0.209-1.465-0.428-2.202-0.619c-0.284-0.074-0.389-0.209-0.403-0.506c-0.046-0.846-0.127-1.691-0.194-2.537
		c0.03-0.246,0.032-0.494-0.035-0.73c-0.084-0.301,0.037-0.42,0.328-0.455c0.802-0.096,1.601-0.207,2.401-0.313
		c0.406-0.104,0.822-0.074,1.234-0.072c0.048,0.643-0.135,1.277-0.049,1.92c-0.078,2.52-0.155,5.039-0.232,7.559
		c-0.103,1.232-0.113,2.471-0.146,3.707c-0.006,0.217,0.148,0.213,0.297,0.213c0.49,0,0.981-0.006,1.472,0.002
		c0.189,0.002,0.301-0.049,0.296-0.266c-0.024-1.281,0.048-2.564-0.038-3.846c0.011-0.389,0.058-0.783,0.022-1.166
		c-0.034-0.385,0.128-0.514,0.472-0.549c0.286-0.029,0.569-0.084,0.853-0.139c0.843-0.162,0.834-0.164,0.816-1.025
		c-0.005-0.258-0.078-0.359-0.347-0.35c-0.477,0.018-0.955-0.018-1.431,0.012c-0.376,0.025-0.501-0.088-0.495-0.48
		c0.02-1.285,0-2.57-0.004-3.857c0.003-0.26,0.022-0.521,0.004-0.779c-0.022-0.297,0.105-0.371,0.379-0.363
		c0.593,0.018,1.187-0.008,1.779,0.01c0.312,0.01,0.447-0.082,0.432-0.414c-0.024-0.461-0.009-0.926-0.011-1.389
		c0.06-0.121,0.159-0.199,0.267-0.273c0.483-0.342,0.87-0.746,0.872-1.387C36.382,40.266,36.506,40.119,36.75,40.063z
		 M38.048,51.896c-0.085-2.898-0.177-5.797-0.255-8.695c-0.032-1.191-0.02-1.191-1.211-1.219c-0.055-0.053-0.116-0.068-0.188-0.041
		c-0.302,0.031-0.158,0.268-0.16,0.402c-0.012,1.49-0.009,2.98-0.007,4.471c0.003,1.75,0.011,3.5,0.018,5.252
		c-0.007,1.344-0.011,2.688-0.023,4.033c-0.002,0.229,0.103,0.307,0.316,0.303c0.404-0.006,0.812-0.025,1.214,0.006
		c0.357,0.025,0.476-0.084,0.462-0.455c-0.052-1.254-0.07-2.51-0.103-3.768C38.108,52.086,38.125,51.982,38.048,51.896z
		 M22.878,52.672c-0.074,1.285-0.012,2.572-0.034,3.857c-0.004,0.227,0.129,0.254,0.309,0.252c0.39-0.004,0.78-0.012,1.17,0.004
		c0.253,0.008,0.326-0.1,0.324-0.336c-0.006-1.17-0.003-2.342-0.003-3.51c0.03-1.619,0.064-3.236,0.09-4.855
		c0.03-1.922,0.046-3.844,0.086-5.766c0.007-0.326-0.082-0.439-0.41-0.41c-0.33,0.027-0.665-0.008-0.997,0.008
		c-0.297,0.016-0.734-0.145-0.859,0.084c-0.171,0.318-0.105,0.758-0.009,1.139c0.035,0.141,0.093,0.275,0.149,0.408
		c0.116,0.27,0.16,0.545,0.159,0.842c-0.007,2.199-0.006,4.396-0.003,6.596C22.852,51.545,22.868,52.109,22.878,52.672z
		 M39.765,51.637c-0.137,0.465-0.056,0.945-0.073,1.416c-0.042,1.113-0.058,2.225-0.101,3.338c-0.012,0.301,0.078,0.412,0.388,0.395
		c0.434-0.021,0.868-0.006,1.302-0.004c0.179,0.002,0.312-0.023,0.31-0.25c-0.012-1.721-0.02-3.441-0.031-5.162
		c0.01-0.734,0.024-1.471,0.027-2.207c0.002-1.602,0.004-3.203-0.005-4.805c-0.002-0.279,0.021-0.432,0.374-0.467
		c0.495-0.049,0.934-0.338,1.139-0.777c0.275-0.594,0.488-1.229,0.503-1.906c0.007-0.008,0.015-0.016,0.021-0.025
		c-0.005,0.012-0.011,0.021-0.016,0.033c-0.429,0.15-0.753,0.473-1.135,0.699c-0.21,0.125-0.392,0.283-0.667,0.266
		c-0.635-0.043-1.271-0.012-1.906-0.072c-1.118-0.111-1.12-0.1-1.25,1c-0.005,0.041-0.007,0.086-0.014,0.127
		c-0.139,0.941-0.139,0.941,0.803,0.814c0.542-0.072,0.547-0.072,0.531,0.482C39.898,46.898,39.83,49.268,39.765,51.637z
		 M46.088,50.678c-0.107,0.164-0.116,0.352-0.141,0.539c-0.147,1.188-0.298,2.377-0.443,3.566c-0.031,0.238-0.114,0.375-0.395,0.299
		c-0.265-0.072-0.538-0.111-0.808-0.158c-0.242-0.039-0.393-0.129-0.353-0.422c0.051-0.387,0.058-0.777,0.098-1.166
		c0.027-0.27-0.13-0.363-0.336-0.293c-0.354,0.119-0.975-0.34-1.05,0.256c-0.133,1.041-0.074,2.105-0.108,3.16
		c-0.007,0.246,0.082,0.33,0.326,0.326c0.709-0.012,1.418-0.004,2.126-0.004c1.385,0,2.007-0.484,2.189-1.834
		c0.201-1.475,0.405-2.947,0.502-4.434c0.122-0.463,0.097-0.949,0.202-1.408c0.085-0.373-0.077-0.451-0.375-0.498
		c-0.713-0.117-1.423-0.254-2.136-0.367c-0.282-0.047-0.424-0.141-0.396-0.473c0.097-1.139,0.198-2.275,0.223-3.418
		c0.011-0.512,0.189-0.629,0.654-0.631c0.797-0.002,0.797-0.027,0.939,0.758c0.149,0.818,0.149,0.809,0.957,0.803
		c0.249-0.002,0.357-0.063,0.381-0.33c0.068-0.82,0.145-1.643,0.259-2.457c0.046-0.318-0.035-0.396-0.34-0.416
		c-0.996-0.064-1.988-0.154-2.983-0.24c-0.546-0.047-1.358,0.627-1.386,1.193c-0.096,2.021-0.174,4.045-0.272,6.066
		c-0.014,0.295,0.089,0.404,0.37,0.457c0.597,0.109,1.188,0.254,1.78,0.387C46.146,50.07,46.146,50.074,46.088,50.678z
		 M20.393,51.016c-0.048,0.039-0.049,0.08-0.004,0.123c-0.046,0.338-0.088,0.672-0.033,1.012c-0.108,1.109-0.037,2.225-0.102,3.336
		c-0.074,1.252-0.032,1.248,1.251,1.191c0.263-0.014,0.367-0.102,0.354-0.361c-0.024-0.49-0.043-0.98-0.053-1.473
		c-0.017-0.838-0.024-1.678-0.036-2.516c0.024-0.982-0.018-1.965-0.037-2.947c-0.05-2.416-0.072-4.832-0.087-7.248
		c-0.002-0.352-0.122-0.447-0.452-0.428c-0.463,0.027-0.927,0.027-1.39,0.006c-0.294-0.012-0.406,0.096-0.442,0.385
		c-0.171,1.391-0.355,2.779-0.542,4.166c-0.06,0.453-0.138,0.9-0.208,1.35c-0.133-0.193-0.175-0.373-0.21-0.557
		c-0.29-1.52-0.584-3.035-0.862-4.557c-0.044-0.242-0.124-0.355-0.385-0.346c-0.479,0.02-0.956,0.023-1.434,0.008
		c-0.276-0.008-0.355,0.117-0.341,0.367c0.021,0.389,0.039,0.779,0.045,1.17c0.038,2.502-0.01,5.004,0.112,7.504
		c0.004,1.666-0.003,3.33,0.016,4.996c0.013,1.098-0.229,0.896,0.98,0.926c0.243,0.006,0.335-0.084,0.326-0.33
		c-0.015-0.418-0.004-0.838-0.009-1.258c-0.017-1.389-0.037-2.777-0.056-4.166c-0.016-1.545-0.031-3.092-0.046-4.637
		c-0.003-0.326-0.001-0.654-0.001-0.98c0.48,1.814,0.899,3.625,1.301,5.443c0.068,0.311,0.163,0.459,0.525,0.461
		c0.348,0,0.437-0.148,0.5-0.436c0.256-1.156,0.528-2.309,0.793-3.463c0.183-0.793,0.365-1.588,0.525-2.289
		C20.393,47.262,20.393,49.139,20.393,51.016z M28.825,58.637c0,0.398,0.005,0.768-0.003,1.137
		c-0.004,0.193,0.051,0.295,0.268,0.295c0.229,0,0.255-0.127,0.252-0.309c-0.005-0.447,0.01-0.895-0.007-1.344
		c-0.005-0.15,0.111-0.406-0.149-0.424c-0.25-0.018-0.565-0.158-0.748,0.156c-0.167,0.291-0.286,0.287-0.464-0.004
		c-0.18-0.295-0.503-0.186-0.753-0.141c-0.231,0.041-0.118,0.291-0.123,0.447c-0.015,0.434-0.004,0.867-0.006,1.301
		c-0.001,0.17-0.001,0.313,0.238,0.32c0.255,0.008,0.272-0.129,0.278-0.328c0.011-0.355-0.05-0.719,0.032-1.07
		c0.27,0.166,0.177,0.621,0.571,0.615C28.594,59.281,28.505,58.799,28.825,58.637z M38.736,58.826
		c0.031-0.01,0.062-0.021,0.093-0.031c0.231,0.338,0.47,0.67,0.688,1.016c0.114,0.18,0.268,0.205,0.445,0.174
		c0.214-0.037,0.15-0.217,0.152-0.348c0.007-0.461,0.002-0.924,0.003-1.387c0-0.174,0.026-0.346-0.247-0.352
		c-0.253-0.004-0.273,0.133-0.273,0.328c0.001,0.162,0.04,0.334-0.064,0.547c-0.176-0.258-0.329-0.465-0.462-0.682
		c-0.168-0.281-0.433-0.191-0.66-0.168c-0.255,0.025-0.18,0.256-0.183,0.416c-0.007,0.475,0.002,0.951-0.003,1.428
		c-0.002,0.205,0.097,0.279,0.291,0.279c0.21-0.002,0.223-0.131,0.222-0.289C38.734,59.447,38.736,59.139,38.736,58.826z
		 M16.82,59.553c-0.731,0.18-0.753,0.166-0.754-0.449c0-0.072-0.009-0.146,0.002-0.217c0.019-0.133-0.074-0.33,0.117-0.371
		c0.181-0.035,0.426-0.133,0.551,0.084c0.123,0.217,0.297,0.182,0.443,0.121c0.163-0.066,0.079-0.256,0.09-0.393
		c0.016-0.191-0.09-0.305-0.273-0.324c-0.171-0.018-0.346-0.01-0.52-0.01c-0.922,0-0.928,0-0.921,0.916
		c0.01,1.41-0.203,1.219,1.303,1.223c0.015,0,0.028,0,0.043-0.002c0.245-0.006,0.373-0.127,0.37-0.379
		c-0.001-0.145,0.01-0.291-0.002-0.434c-0.012-0.141,0.078-0.363-0.174-0.365c-0.199,0-0.46-0.131-0.592,0.105
		C16.383,59.268,16.543,59.424,16.82,59.553z M44.213,58.92c0,0.074,0,0.145,0,0.219c-0.002,0.949-0.064,0.846,0.828,0.844
		c0.115-0.002,0.231,0,0.347-0.002c0.505-0.006,0.52-0.057,0.493-0.838c-0.016-0.471-0.348-0.262-0.563-0.301
		c-0.102-0.02-0.209,0.01-0.221,0.145c-0.009,0.096-0.036,0.201,0.07,0.273c0.077,0.053,0.286-0.004,0.192,0.191
		c-0.06,0.123-0.206,0.068-0.317,0.084c-0.243,0.029-0.347-0.07-0.323-0.318c0.014-0.143-0.01-0.289,0.005-0.434
		c0.016-0.145-0.09-0.363,0.11-0.416c0.188-0.051,0.436-0.129,0.579,0.125c0.086,0.15,0.225,0.113,0.345,0.086
		c0.157-0.035,0.104-0.182,0.115-0.287c0.026-0.266-0.068-0.408-0.361-0.402C43.976,57.914,44.238,57.703,44.213,58.92z
		 M23.159,59.859c-0.186-0.564-0.363-1.16-0.583-1.74c-0.094-0.246-0.358-0.102-0.546-0.129c-0.162-0.023-0.271,0.043-0.323,0.215
		c-0.162,0.521-0.338,1.043-0.5,1.566c-0.032,0.104-0.097,0.242,0.069,0.289c0.136,0.039,0.277,0.049,0.387-0.1
		c0.354-0.484,0.68-0.49,1-0.008c0.107,0.162,0.247,0.115,0.384,0.111C23.163,60.064,23.187,59.984,23.159,59.859z M33.97,58.984
		c0-0.262-0.002-0.521,0.001-0.783c0.002-0.158-0.015-0.297-0.225-0.283c-0.157,0.01-0.291,0.057-0.291,0.246
		c-0.001,0.551-0.001,1.102,0.001,1.65c0.001,0.191,0.122,0.238,0.289,0.236c0.17,0,0.228-0.086,0.226-0.242
		C33.967,59.533,33.97,59.258,33.97,58.984z"/>
	<path style="fill-rule:evenodd;clip-rule:evenodd;fill:#242521;" d="M31.174,43.383c-0.412-0.002-0.828-0.031-1.234,0.072
		c-0.088-0.111-0.212-0.15-0.344-0.15c-0.382-0.002-0.729-0.137-1.079-0.27c-0.428-0.162-0.751-0.492-1.142-0.736
		c-0.071,0.307,0.015,0.568,0.057,0.865c-0.083-0.023-0.142-0.027-0.184-0.055c-0.372-0.252-0.623-0.629-0.938-0.939
		c-0.375-0.689-0.625-1.428-0.869-2.168c-0.042-0.348-0.351-0.447-0.584-0.594c-0.525-0.33-1.073-0.623-1.606-0.941
		c-0.148-0.088-0.251-0.09-0.375,0.045c-0.257,0.273-0.53,0.533-0.794,0.803c-0.127,0.131-0.241,0.215-0.372,0
		c-0.75-1.23-1.599-2.418-1.664-3.965c-0.419,0.182-0.533,0.613-0.874,0.92c-0.23-0.936-0.239-1.809-0.005-2.686
		c0.27-1.004,0.717-1.918,1.364-2.732c0.18-0.225,0.219-0.447,0.16-0.756c-0.24-1.268-0.38-2.541,0.033-3.807
		c0.079-0.246,0.009-0.486-0.075-0.721c-0.499-1.4-0.902-2.824-1.153-4.297c-0.451-2.643-0.247-5.195,0.92-7.641
		c0.928-1.943,2.078-3.736,3.606-5.262c0.58-0.578,1.221-1.094,2.007-1.408c1.087-0.434,2.372,0.021,2.862,1.139
		c0.538,1.223,0.842,2.477,0.896,3.801c0.071,1.801-0.147,3.568-0.589,5.313c-0.135,0.533-0.121,0.543,0.434,0.535
		c0.767-0.012,1.526,0.041,2.282,0.166c0.299,0.049,0.529,0.02,0.706-0.318c0.412-0.785,0.961-1.473,1.694-1.996
		c0.113-0.08,0.163-0.191,0.164-0.334c0.005-1.084-0.065-2.162-0.162-3.24c-0.061-0.668,0.024-1.33,0.102-1.984
		c0.161-1.387,0.413-2.764,0.841-4.096c0.388-1.203,0.873-2.352,1.759-3.297c1.183-1.262,3.07-1.17,4.339,0.037
		c1.594,1.516,2.355,3.457,2.851,5.535c0.318,1.344,0.415,2.709,0.344,4.084c-0.093,1.789-0.519,3.502-1.273,5.129
		c-0.643,1.385-1.445,2.664-2.539,3.746c-0.146,0.143-0.209,0.252-0.025,0.424c0.354,0.334,0.781,0.596,1.053,1.021
		c0.059,0.092,0.184,0.063,0.282,0.08c1.248,0.238,2.418,0.672,3.432,1.463c0.03,0.023,0.054,0.059,0.127,0.143
		c-0.411-0.02-0.77-0.037-1.226-0.059c0.446,0.338,0.831,0.605,1.187,0.906c0.803,0.674,1.344,1.539,1.766,2.488
		c0.483,1.082,0.986,2.154,1.48,3.232c0.026,0.061,0.088,0.119,0.004,0.242c-0.612-0.355-1.224-0.719-1.844-1.07
		c-0.142-0.08-0.302-0.268-0.458-0.15c-0.119,0.088-0.027,0.295-0.008,0.451c0.164,1.295-0.109,2.52-0.784,3.613
		c-1.044,1.693-2.172,3.342-3.263,5.006c-0.022,0.037-0.048,0.072-0.17,0.076c0.139-1.309,0.278-2.619,0.427-4.021
		c-0.586,0.596-1.171,1.08-1.789,1.52c-0.437,0.309-0.875,0.607-1.386,0.793c-0.95,0.352-1.573,1.1-2.181,1.855
		c-0.219,0.275-0.542,0.486-0.612,0.869c-0.244,0.057-0.368,0.203-0.369,0.459c-0.002,0.641-0.389,1.045-0.872,1.387
		c-0.107,0.074-0.207,0.152-0.266,0.273c-0.057,0.012-0.121,0.006-0.167,0.033C33.871,42.924,32.544,43.223,31.174,43.383z
		 M40.501,23.225c-0.305-0.732-0.437-0.787-1.241-0.508c-0.667,0.232-0.669,0.236-0.239,0.775c0.1,0.125,0.199,0.246,0.298,0.369
		c0.063,0.547,0.062,0.547,0.564,0.314c0.156-0.072,0.32-0.129,0.476-0.203C40.841,23.748,40.854,23.676,40.501,23.225z
		 M23.269,29.047c0.386-0.309,0.809-0.646,1.306-0.58c0.619,0.08,0.947-0.359,1.54-0.58c-0.62-0.119-1.017-0.365-1.392-0.693
		c-0.379-0.33-0.822-0.602-1.367-0.318c-0.377,0.143-0.535,0.479-0.656,0.813c-0.216,0.596-0.303,1.229-0.367,1.855
		c-0.042,0.402,0.138,0.758,0.508,0.982c0.438,0.266,0.521,0.225,0.707-0.264c0.142-0.369-0.067-0.639-0.276-0.836
		C23.077,29.244,23.197,29.172,23.269,29.047z M24.924,31.934c-0.429-0.139-0.858-0.279-1.193-0.596
		c-0.199-0.189-0.289-0.141-0.406,0.088c-0.644,1.25-0.295,2.342,0.967,2.971c0.272,0.135,0.562,0.225,0.854,0.313
		c0.499,0.148,0.938,0.047,1.342-0.264c0.385-0.15,0.657-0.453,0.96-0.711c0.107-0.094,0.131-0.184,0.009-0.281
		C26.685,32.824,26.146,31.809,24.924,31.934z M27.801,26.797c0.504-0.371,0.729-0.928,0.932-1.48
		c0.252-0.686,0.425-1.404,1.034-1.998c-0.849-0.041-1.589,0.035-2.323,0.156c-0.669,0.107-1.343,0.211-1.918,0.615
		c-0.915,0.492-1.469,1.289-1.956,2.227c0.665,0.008,1.139,0.27,1.549,0.656c0.22,0.211,0.478,0.326,0.773,0.357
		C26.598,27.406,27.229,27.203,27.801,26.797z M33.72,33.33c-0.026-0.027-0.052-0.055-0.076-0.078
		c0.264-0.365,0.492-0.736,0.527-1.213c0.025-0.336,0.006-0.445-0.362-0.283c-1.479,0.656-2.963,1.326-4.513,1.787
		c-1.009,0.301-1.779,0.902-2.575,1.547c0.419,0.398,0.918,0.797,1.006,1.373c0.087,0.57,0.412,0.566,0.807,0.566
		c1.327-0.006,2.611-0.291,3.886-0.625c0.243-0.064,0.445-0.217,0.593-0.422c0.543-0.752,0.952-1.584,1.4-2.393
		c0.111-0.201,0.03-0.439-0.099-0.561c-0.13-0.125-0.233,0.127-0.367,0.18C33.867,33.242,33.795,33.289,33.72,33.33z M21.705,32.785
		L21.7,32.779c0.068,0.148-0.02,0.279-0.05,0.416c-0.263,1.168-0.269,2.322,0.218,3.443c0.065,0.148,0.11,0.318,0.29,0.438
		c0.354-0.688,0.154-1.424,0.245-2.104c0.179,0.002,0.179,0.088,0.195,0.152c0.304,1.174,1.056,1.959,2.112,2.502
		c0.474,0.244,0.918,0.547,1.378,0.818c0.178,0.104,0.297,0.307,0.523,0.346c0.063-0.209,0.009-0.434,0.213-0.592
		c0.098,0.898,0.09,1.799,0.574,2.711c0.056-0.49,0.067-0.887,0.412-1.197c0.044,0.188,0.071,0.328,0.11,0.465
		c0.304,1.084,1.003,1.648,2.125,1.715c0.754,0.045,1.505,0.004,2.239-0.174c0.887-0.213,1.762-0.459,2.447-1.119
		c0.173-0.086,0.157-0.256,0.182-0.41c0.153-0.938,0.452-1.82,1.008-2.6c0.334-0.467,0.692-0.922,1.241-1.166
		c0.01,0.012,0.021,0.023,0.031,0.035c-0.056,0.146-0.122,0.291-0.163,0.443c-0.027,0.1-0.209,0.184-0.081,0.293
		c0.129,0.111,0.231-0.027,0.324-0.113c0.427-0.393,0.876-0.76,1.414-0.984c1.865-0.783,3.216-2.156,4.331-3.791
		c0.408-0.6,0.697-1.262,0.686-2.016c0.188-0.072,0.18,0.102,0.213,0.189c0.166,0.412,0.286,0.842,0.393,1.277
		c0.107,0.455,0.065,0.922,0.136,1.51c0.284-0.598,0.517-1.07,0.543-1.615c0.286-1.656-0.362-2.947-1.562-4.033
		c-0.253-0.229-0.578-0.375-0.786-0.658c1.002,0.01,1.981,0.145,2.936,0.557c-0.025-0.188-0.097-0.289-0.203-0.369
		c-1.022-1.398-2.498-2.084-4.148-2.586c0.476-0.227,0.961-0.201,1.391-0.406c-0.467-0.049-0.961-0.232-1.39-0.061
		c-1.441,0.58-2.969,1.063-3.653,2.697c-0.105,0.254-0.114,0.383,0.077,0.584c0.913,0.959,1.583,2.061,1.91,3.357
		c0.213,0.854,0.234,1.668,0.052,2.252c-0.028-0.107-0.057-0.188-0.07-0.271c-0.279-1.695-1.115-3.084-2.336-4.262
		c-0.489-0.473-0.493-0.471-0.995-0.02c-0.906,0.535-1.879,0.791-2.935,0.67c-0.156-0.018-0.23,0.027-0.172,0.184
		c0.129,0.35,0.072,0.713,0.097,1.07c-0.013,0.023-0.023,0.049-0.031,0.074c-0.029,0.004-0.06,0.008-0.088,0.012
		c-0.13-0.072-0.063-0.209-0.1-0.311c-0.189-0.521-0.373-1.064-0.953-1.264c-0.726-0.248-1.432-0.537-2.123-0.865
		c-0.498-0.234-1.017-0.324-1.561-0.227c-1.203,0.219-2.264,0.756-3.247,1.463c-0.504,0.271-0.933,0.611-1.093,1.195
		c-0.064,0.236-0.086,0.51,0.148,0.619c0.485,0.225,0.992,0.457,1.554,0.221c0.382-0.092,0.655-0.355,0.935-0.602
		c0.52-0.461,0.965-0.99,1.387-1.541c0.22-0.289,0.501-0.5,0.846-0.301c0.332,0.193,0.32,0.563,0.227,0.893
		c-0.038,0.135-0.073,0.445-0.348,0.145c-0.111-0.123-0.233-0.025-0.324,0.084c-0.303,0.365-0.661,0.686-0.921,1.088
		c-0.268,0.178-0.431,0.457-0.657,0.674c-0.12,0.115-0.093,0.211,0.006,0.328c0.32,0.389,0.634,0.781,0.946,1.176
		c0.087,0.109,0.168,0.18,0.325,0.121c0.492-0.189,1.018-0.293,1.48-0.561c0.233-0.074,0.471-0.139,0.699-0.227
		c1.662-0.635,3.295-1.34,4.921-2.059c0.219-0.098,0.425-0.174,0.378-0.484c-0.021-0.143,0.09-0.234,0.23-0.273
		c0.456-0.129,0.822,0.195,0.705,0.654c-0.083,0.318-0.2,0.635-0.332,0.938c-0.717,1.633-1.598,3.178-2.504,4.711
		c-0.325,0.547-0.795,0.902-1.435,1.027c-0.454,0.088-0.899,0.223-1.355,0.299c-1.125,0.188-2.25,0.441-3.392,0.109
		c-0.083-0.1-0.234-0.195-0.237-0.297c-0.011-0.535-0.411-0.682-0.791-0.865c-0.116-0.057-0.23-0.131-0.32-0.223
		c-0.407-0.408-0.906-0.598-1.455-0.77c-1.705-0.533-2.915-2.092-1.829-4.049c0.067-0.123,0.077-0.215-0.068-0.275
		c-0.137-0.059-0.256-0.195-0.424-0.033c-0.831,0.799-1.439,1.738-1.865,2.939C21.06,33.553,21.21,32.984,21.705,32.785z
		 M30.571,27.818c0.777,0.393,1.584,0.686,2.45,0.82c1.619,0.252,2.948-0.213,3.895-1.576c0.476-0.682,0.685-1.49,0.93-2.277
		c0.354-0.777,0.152-1.176-0.67-1.324c-0.397-0.072-0.796-0.137-1.192-0.209c-1.26-0.232-2.51-0.533-3.81-0.463
		c-1.364,0.076-2.44,0.801-2.763,1.91c-0.136,0.244-0.165,0.52-0.239,0.781c-0.326,0.631-0.602,1.293-1.164,1.809
		C28.949,27.154,29.764,27.473,30.571,27.818z M40.242,17.348c0.205-0.059,0.412-0.115,0.618-0.174
		c-0.805,1.545-1.842,2.891-3.343,3.842c0.725,0.5,0.725,0.5,1.333-0.029c4.213-3.68,5.472-10.105,2.971-15.168
		c-0.388-0.783-0.842-1.521-1.515-2.096c-0.916-0.779-1.763-0.689-2.502,0.258c-0.46,0.588-0.751,1.266-0.99,1.967
		c-0.872,2.527-1.143,5.121-0.92,7.783c0.132,1.586,0.158,3.182-0.026,4.768c-0.085,0.713-0.201,1.422-0.671,2.016
		c0.136-0.742,0.267-1.479,0.201-2.232c0.015-0.406-0.075-0.797-0.15-1.191c-0.053-0.285-0.178-0.236-0.338-0.084
		c-0.723,0.691-1.225,1.51-1.446,2.49c-0.067,0.217-0.136,0.432-0.215,0.686c-0.217-0.258-0.241-0.607-0.636-0.674
		c-1.224-0.205-2.448-0.35-3.691-0.258c-0.904,0.021-1.786,0.176-2.7,0.457c0.897,0.555,1.867,0.285,2.769,0.465
		c-0.814,0.254-1.619,0.477-2.393,0.799c-1.049,0.436-1.843,0.965-2.06,1.387c0.963-0.059,1.715-0.816,2.689-0.82
		c-0.615,0.422-1.248,0.797-1.838,1.238c-1.171,0.871-2.233,1.846-2.917,3.166c-0.394,0.76-0.595,1.561-0.456,2.428
		c0.173-0.963,0.788-1.719,1.203-2.563c0.778-1.588,2.06-2.57,3.851-2.852c0.932-0.146,1.869-0.191,2.806-0.268
		c0.757,0.16,1.431-0.254,2.156-0.316c0.225-0.02,0.108-0.211,0.069-0.303c-0.157-0.367-0.337-0.725-0.508-1.086l0.021-0.021
		c0.617,0.248,1.127,0.633,1.507,1.182c0.093,0.137,0.181,0.244,0.367,0.26c0.896,0.072,1.765,0.309,2.65,0.447
		c0.841,0.131,1.656,0.1,2.443-0.383c-0.721-0.533-1.436-1.018-2.211-1.41c-0.151-0.074-0.322-0.102-0.19-0.365
		c0.882-1.752,0.953-3.615,0.671-5.508c-0.377-2.52-0.234-4.992,0.587-7.41c0.238-0.695,0.506-1.385,1.036-1.932
		c-0.146,1.145-0.158,2.287,0.237,3.385c0.507,1.408,1.087,2.791,0.907,4.432c0.435-0.348,0.689-0.701,0.934-1.09
		c0.135,1.602,0.266,3.193-0.359,4.73c-0.015,0.02-0.048,0.049-0.043,0.055C40.181,17.402,40.214,17.381,40.242,17.348z
		 M26.314,20.176c-0.334-0.154-0.667-0.309-1.111-0.514c0.604-0.176,1.096-0.336,1.596-0.455c0.253-0.061,0.387-0.17,0.462-0.428
		c0.295-1.012,0.575-2.027,0.758-3.066c0.278-1.568,0.45-3.143,0.184-4.734c-0.047-0.703-0.257-1.361-0.536-2
		c-0.346-0.789-0.703-0.904-1.453-0.469c-0.236,0.137-0.458,0.305-0.67,0.479c-0.597,0.488-1.104,1.064-1.579,1.67
		c-1.133,1.445-2.053,3.012-2.677,4.744c-0.88,2.439-0.547,4.879,0.021,7.314c0.226,0.969,0.523,1.916,0.91,2.869
		c0.298-0.289,0.354-0.545,0.228-0.914c-0.422-1.238-0.687-2.514-0.694-3.828c-0.004-0.494-0.024-1,0.19-1.473
		c0.033,0.389,0.017,0.775,0.037,1.162c0.065,1.211,0.409,2.332,1.138,3.316c0.071,0.098,0.131,0.367,0.343,0.148
		c0.43-0.443,0.896-0.848,1.334-1.307c-0.388,0.068-0.775,0.135-1.244,0.217c0.894-1.314,2.143-1.973,3.596-2.516
		C26.802,20.303,26.558,20.238,26.314,20.176z M38.764,18.486c1.008-1.23,1.514-2.621,1.393-4.324
		c-0.44,0.561-0.709,1.133-1.29,1.549c0.274-2.223,0.184-4.303-0.924-6.229c-0.411,1.418-0.668,2.846-0.461,4.314
		c0.195,1.389,0.468,2.768,0.38,4.182c-0.048,0.764-0.188,1.516-0.38,2.373c0.72-0.572,1.354-1.066,1.837-1.768
		C39.1,18.514,38.933,18.6,38.764,18.486z M39.39,31.209c-0.303-1.396-0.958-2.609-1.884-3.686
		c-0.149-0.174-0.278-0.146-0.433,0.012c-0.156,0.158-0.165,0.27,0.009,0.424C38.105,28.859,38.902,29.92,39.39,31.209z
		 M39.051,24.334c-0.097-0.477-0.408-0.832-0.768-1.152c-0.054-0.049-0.136-0.063-0.198-0.004c-0.081,0.076-0.056,0.166,0.01,0.229
		c0.437,0.43,0.428,0.914,0.188,1.432c-0.045,0.094-0.084,0.207,0.088,0.215C38.584,25.061,39.061,24.564,39.051,24.334z
		 M23.783,29.771c0.314-0.355,0.586-0.664,0.867-0.984c-0.188-0.092-0.341-0.016-0.488,0.01c-0.245,0.043-0.498,0.133-0.64,0.334
		c-0.114,0.162,0.219,0.232,0.188,0.424C23.703,29.604,23.743,29.656,23.783,29.771z M32.337,21.773
		c-0.062,0.17,0.046,0.311,0.074,0.457c0.029,0.154,0.174,0.123,0.284,0.123c0.066,0,0.158,0.02,0.176-0.076
		c0.018-0.098-0.06-0.16-0.123-0.213C32.625,21.959,32.555,21.771,32.337,21.773z"/>
	<path style="fill-rule:evenodd;clip-rule:evenodd;fill:#A81E2F;" d="M20.355,52.15c-0.055-0.34-0.013-0.674,0.033-1.012
		c0.001-0.041,0.003-0.082,0.004-0.123c0-1.877,0-3.754,0-5.547c-0.16,0.701-0.343,1.496-0.525,2.289
		c-0.265,1.154-0.537,2.307-0.793,3.463c-0.063,0.287-0.152,0.436-0.5,0.436c-0.362-0.002-0.457-0.15-0.525-0.461
		c-0.401-1.818-0.82-3.629-1.301-5.443c0,0.326-0.002,0.654,0.001,0.98c0.015,1.545,0.03,3.092,0.046,4.637
		c-0.426-0.004-0.826-0.209-1.258-0.168c-0.122-2.5-0.074-5.002-0.112-7.504c-0.006-0.391-0.024-0.781-0.045-1.17
		c-0.015-0.25,0.064-0.375,0.341-0.367c0.478,0.016,0.955,0.012,1.434-0.008c0.261-0.01,0.341,0.104,0.385,0.346
		c0.278,1.521,0.572,3.037,0.862,4.557c0.035,0.184,0.077,0.363,0.21,0.557c0.07-0.449,0.148-0.896,0.208-1.35
		c0.187-1.387,0.371-2.775,0.542-4.166c0.036-0.289,0.148-0.396,0.442-0.385c0.463,0.021,0.927,0.021,1.39-0.006
		c0.33-0.02,0.45,0.076,0.452,0.428c0.015,2.416,0.037,4.832,0.087,7.248c0.02,0.982,0.062,1.965,0.037,2.947
		C21.284,52.379,20.837,52.127,20.355,52.15z"/>
	<path style="fill-rule:evenodd;clip-rule:evenodd;fill:#A81E2F;" d="M46.088,50.678c0.058-0.604,0.059-0.607-0.514-0.738
		c-0.593-0.133-1.184-0.277-1.78-0.387c-0.281-0.053-0.384-0.162-0.37-0.457c0.099-2.021,0.177-4.045,0.272-6.066
		c0.027-0.566,0.84-1.24,1.386-1.193c0.995,0.086,1.987,0.176,2.983,0.24c0.305,0.02,0.386,0.098,0.34,0.416
		c-0.114,0.814-0.19,1.637-0.259,2.457c-0.023,0.268-0.132,0.328-0.381,0.33c-0.808,0.006-0.808,0.016-0.957-0.803
		c-0.143-0.785-0.143-0.76-0.939-0.758c-0.465,0.002-0.644,0.119-0.654,0.631c-0.024,1.143-0.126,2.279-0.223,3.418
		c-0.028,0.332,0.113,0.426,0.396,0.473c0.713,0.113,1.423,0.25,2.136,0.367c0.298,0.047,0.46,0.125,0.375,0.498
		c-0.105,0.459-0.08,0.945-0.202,1.408C47.151,50.479,46.632,50.695,46.088,50.678z"/>
	<path style="fill-rule:evenodd;clip-rule:evenodd;fill:#A81E2F;" d="M43.597,41.207c-0.015,0.678-0.228,1.313-0.503,1.906
		c-0.205,0.439-0.644,0.729-1.139,0.777c-0.353,0.035-0.376,0.188-0.374,0.467c0.009,1.602,0.007,3.203,0.005,4.805
		c-0.003,0.736-0.018,1.473-0.026,2.207c-0.599,0.09-1.198,0.178-1.795,0.268c0.065-2.369,0.134-4.738,0.2-7.105
		c0.016-0.555,0.011-0.555-0.531-0.482c-0.941,0.127-0.941,0.127-0.803-0.814c0.007-0.041,0.009-0.086,0.014-0.127
		c0.13-1.1,0.132-1.111,1.25-1c0.636,0.061,1.271,0.029,1.906,0.072c0.275,0.018,0.457-0.141,0.667-0.266
		c0.382-0.227,0.706-0.549,1.135-0.699L43.597,41.207z"/>
	<path style="fill-rule:evenodd;clip-rule:evenodd;fill:#A91E30;" d="M22.878,52.672c-0.01-0.563-0.026-1.127-0.028-1.688
		c-0.003-2.199-0.004-4.396,0.003-6.596c0.001-0.297-0.043-0.572-0.159-0.842c-0.057-0.133-0.114-0.268-0.149-0.408
		c-0.097-0.381-0.162-0.82,0.009-1.139c0.125-0.229,0.563-0.068,0.859-0.084c0.332-0.016,0.667,0.02,0.997-0.008
		c0.328-0.029,0.417,0.084,0.41,0.41c-0.04,1.922-0.056,3.844-0.086,5.766c-0.025,1.619-0.06,3.236-0.09,4.855
		C24.047,52.906,23.482,52.656,22.878,52.672z"/>
	<path style="fill-rule:evenodd;clip-rule:evenodd;fill:#A91E30;" d="M30.092,48.682c0.041,1.445,0.041,2.893,0,4.34
		c-0.593,0.088-1.187,0.176-1.779,0.266c-0.091-0.965-0.199-1.926-0.265-2.893c-0.024-0.361-0.147-0.535-0.514-0.611
		c-0.551-0.111-1.088-0.293-1.633-0.438c-0.185-0.049-0.296-0.119-0.295-0.348c0.009-1.939,0.005-3.879,0.01-5.818
		c0-0.082,0.043-0.164,0.066-0.246c0.134,0.057,0.158,0.18,0.216,0.299c0.16,0.332,0.311,0.68,0.533,0.971
		c0.223,0.289,0.353,0.709,0.813,0.75c0.067,0.846,0.148,1.691,0.194,2.537c0.015,0.297,0.119,0.432,0.403,0.506
		c0.737,0.191,1.469,0.41,2.202,0.619C30.053,48.641,30.068,48.664,30.092,48.682z"/>
	<path style="fill-rule:evenodd;clip-rule:evenodd;fill:#8E1C2B;" d="M46.088,50.678c0.544,0.018,1.063-0.199,1.608-0.164
		C47.6,52,47.396,53.473,47.194,54.947c-0.183,1.35-0.805,1.834-2.189,1.834c-0.708,0-1.417-0.008-2.126,0.004
		c-0.244,0.004-0.333-0.08-0.326-0.326c0.034-1.055-0.024-2.119,0.108-3.16c0.075-0.596,0.695-0.137,1.05-0.256
		c0.206-0.07,0.363,0.023,0.336,0.293c-0.04,0.389-0.047,0.779-0.098,1.166c-0.04,0.293,0.11,0.383,0.353,0.422
		c0.27,0.047,0.543,0.086,0.808,0.158c0.28,0.076,0.363-0.061,0.395-0.299c0.146-1.189,0.296-2.379,0.443-3.566
		C45.972,51.029,45.98,50.842,46.088,50.678z"/>
	<path style="fill-rule:evenodd;clip-rule:evenodd;fill:#A91E30;" d="M36.582,41.982c1.191,0.027,1.179,0.027,1.211,1.219
		c0.078,2.898,0.17,5.797,0.255,8.695c-0.606,0.014-1.191,0.232-1.803,0.17c-0.007-1.752-0.015-3.502-0.018-5.252
		c-0.002-1.49-0.005-2.98,0.007-4.471c0.002-0.135-0.142-0.371,0.16-0.402C36.457,41.955,36.52,41.969,36.582,41.982z"/>
	<path style="fill-rule:evenodd;clip-rule:evenodd;fill:#A91E30;" d="M32.659,45.117c0.004,1.287,0.023,2.572,0.004,3.857
		c-0.006,0.393,0.119,0.506,0.495,0.48c0.476-0.029,0.954,0.006,1.431-0.012c0.269-0.01,0.342,0.092,0.347,0.35
		c0.018,0.861,0.026,0.863-0.816,1.025c-0.283,0.055-0.566,0.109-0.853,0.139c-0.344,0.035-0.506,0.164-0.472,0.549
		c0.035,0.383-0.012,0.777-0.022,1.166c-0.633,0.006-1.243,0.223-1.88,0.189c0.077-2.52,0.154-5.039,0.231-7.559
		C31.646,45.322,32.149,45.199,32.659,45.117z"/>
	<path style="fill-rule:evenodd;clip-rule:evenodd;fill:#8E1C2B;" d="M28.313,53.287c0.593-0.09,1.187-0.178,1.779-0.266
		c0.009,0.836,0.046,1.674,0.02,2.51c-0.023,0.699-0.752,1.363-1.496,1.383c-0.896,0.023-1.791,0-2.688,0.01
		c-0.247,0.004-0.337-0.086-0.32-0.328c0.031-0.445-0.176-1.004,0.082-1.303c0.249-0.287,0.817-0.074,1.245-0.094
		c0.403-0.018,0.809-0.01,1.213,0c0.233,0.004,0.328-0.035,0.289-0.318C28.362,54.355,28.351,53.818,28.313,53.287z"/>
	<path style="fill-rule:evenodd;clip-rule:evenodd;fill:#8E1C2B;" d="M39.765,51.637c0.597-0.09,1.196-0.178,1.795-0.268
		c0.011,1.721,0.019,3.441,0.03,5.162c0.002,0.227-0.131,0.252-0.31,0.25c-0.434-0.002-0.868-0.018-1.302,0.004
		c-0.31,0.018-0.399-0.094-0.388-0.395c0.043-1.113,0.059-2.225,0.101-3.338C39.709,52.582,39.628,52.102,39.765,51.637z"/>
	<path style="fill-rule:evenodd;clip-rule:evenodd;fill:#8E1C2B;" d="M36.245,52.066c0.611,0.063,1.196-0.156,1.803-0.17
		c0.077,0.086,0.061,0.189,0.063,0.289c0.032,1.258,0.051,2.514,0.103,3.768c0.014,0.371-0.104,0.48-0.462,0.455
		c-0.402-0.031-0.81-0.012-1.214-0.006c-0.214,0.004-0.318-0.074-0.316-0.303C36.234,54.754,36.238,53.41,36.245,52.066z"/>
	<path style="fill-rule:evenodd;clip-rule:evenodd;fill:#8E1C2B;" d="M30.893,52.861c0.637,0.033,1.247-0.184,1.88-0.189
		c0.086,1.281,0.014,2.564,0.038,3.846c0.005,0.217-0.106,0.268-0.296,0.266c-0.49-0.008-0.981-0.002-1.472-0.002
		c-0.148,0-0.303,0.004-0.297-0.213C30.779,55.332,30.79,54.094,30.893,52.861z"/>
	<path style="fill-rule:evenodd;clip-rule:evenodd;fill:#8E1C2B;" d="M15.537,51.201c0.432-0.041,0.832,0.164,1.258,0.168
		c0.019,1.389,0.039,2.777,0.056,4.166c0.005,0.42-0.006,0.84,0.009,1.258c0.009,0.246-0.083,0.336-0.326,0.33
		c-1.209-0.029-0.968,0.172-0.98-0.926C15.534,54.531,15.541,52.867,15.537,51.201z"/>
	<path style="fill-rule:evenodd;clip-rule:evenodd;fill:#8E1C2B;" d="M22.878,52.672c0.604-0.016,1.169,0.234,1.766,0.268
		c0,1.168-0.003,2.34,0.003,3.51c0.002,0.236-0.071,0.344-0.324,0.336c-0.39-0.016-0.78-0.008-1.17-0.004
		c-0.18,0.002-0.313-0.025-0.309-0.252C22.866,55.244,22.804,53.957,22.878,52.672z"/>
	<path style="fill-rule:evenodd;clip-rule:evenodd;fill:#8E1C2B;" d="M20.355,52.15c0.481-0.023,0.929,0.229,1.414,0.178
		c0.012,0.838,0.02,1.678,0.036,2.516c0.01,0.492,0.028,0.982,0.053,1.473c0.014,0.26-0.091,0.348-0.354,0.361
		c-1.283,0.057-1.325,0.061-1.251-1.191C20.318,54.375,20.247,53.26,20.355,52.15z"/>
	<path style="fill-rule:evenodd;clip-rule:evenodd;fill:#841725;" d="M32.659,45.117c-0.51,0.082-1.014,0.205-1.535,0.186
		c-0.085-0.643,0.098-1.277,0.05-1.92c1.37-0.16,2.697-0.459,3.902-1.168c0.046-0.027,0.11-0.021,0.167-0.033
		c0.001,0.463-0.015,0.928,0.01,1.389c0.016,0.332-0.12,0.424-0.432,0.414c-0.593-0.018-1.187,0.008-1.779-0.01
		c-0.273-0.008-0.401,0.066-0.379,0.363C32.682,44.596,32.662,44.857,32.659,45.117z"/>
	<path style="fill-rule:evenodd;clip-rule:evenodd;fill:#841725;" d="M27.245,44.953c-0.461-0.041-0.591-0.461-0.813-0.75
		c-0.223-0.291-0.373-0.639-0.533-0.971c-0.058-0.119-0.082-0.242-0.216-0.299c0.064-0.375,0.319-0.592,0.628-0.764
		c0.314,0.311,0.565,0.688,0.938,0.939c0.042,0.027,0.101,0.031,0.184,0.055c-0.042-0.297-0.128-0.559-0.057-0.865
		c0.391,0.244,0.714,0.574,1.142,0.736c0.35,0.133,0.697,0.268,1.079,0.27c0.132,0,0.256,0.039,0.344,0.15
		c-0.801,0.105-1.6,0.217-2.401,0.313c-0.291,0.035-0.412,0.154-0.328,0.455C27.277,44.459,27.275,44.707,27.245,44.953z"/>
	<path style="fill-rule:evenodd;clip-rule:evenodd;fill:#8E1C2B;" d="M28.825,58.637c-0.32,0.162-0.231,0.645-0.613,0.652
		c-0.395,0.006-0.302-0.449-0.571-0.615c-0.082,0.352-0.021,0.715-0.032,1.07c-0.006,0.199-0.023,0.336-0.278,0.328
		c-0.239-0.008-0.239-0.15-0.238-0.32c0.002-0.434-0.009-0.867,0.006-1.301c0.005-0.156-0.108-0.406,0.123-0.447
		c0.25-0.045,0.573-0.154,0.753,0.141c0.178,0.291,0.297,0.295,0.464,0.004c0.183-0.314,0.498-0.174,0.748-0.156
		c0.261,0.018,0.145,0.273,0.149,0.424c0.017,0.449,0.002,0.896,0.007,1.344c0.003,0.182-0.022,0.309-0.252,0.309
		c-0.217,0-0.271-0.102-0.268-0.295C28.83,59.404,28.825,59.035,28.825,58.637z"/>
	<path style="fill-rule:evenodd;clip-rule:evenodd;fill:#8E1C2B;" d="M38.736,58.826c0,0.313-0.002,0.621,0.001,0.932
		c0.001,0.158-0.012,0.287-0.222,0.289c-0.194,0-0.293-0.074-0.291-0.279c0.005-0.477-0.004-0.953,0.003-1.428
		c0.003-0.16-0.072-0.391,0.183-0.416c0.228-0.023,0.492-0.113,0.66,0.168c0.133,0.217,0.286,0.424,0.462,0.682
		c0.104-0.213,0.065-0.385,0.064-0.547c0-0.195,0.021-0.332,0.273-0.328c0.273,0.006,0.247,0.178,0.247,0.352
		c-0.001,0.463,0.004,0.926-0.003,1.387c-0.002,0.131,0.062,0.311-0.152,0.348c-0.178,0.031-0.331,0.006-0.445-0.174
		c-0.218-0.346-0.456-0.678-0.688-1.016C38.798,58.805,38.768,58.816,38.736,58.826z"/>
	<path style="fill-rule:evenodd;clip-rule:evenodd;fill:#8E1C2B;" d="M16.82,59.553c-0.277-0.129-0.438-0.285-0.316-0.494
		c0.132-0.236,0.393-0.105,0.592-0.105c0.252,0.002,0.162,0.225,0.174,0.365c0.012,0.143,0.001,0.289,0.002,0.434
		c0.003,0.252-0.125,0.373-0.37,0.379c-0.015,0.002-0.028,0.002-0.043,0.002c-1.506-0.004-1.293,0.188-1.303-1.223
		c-0.007-0.916-0.001-0.916,0.921-0.916c0.174,0,0.349-0.008,0.52,0.01c0.184,0.02,0.289,0.133,0.273,0.324
		c-0.011,0.137,0.073,0.326-0.09,0.393c-0.146,0.061-0.32,0.096-0.443-0.121c-0.125-0.217-0.37-0.119-0.551-0.084
		c-0.191,0.041-0.099,0.238-0.117,0.371c-0.011,0.07-0.002,0.145-0.002,0.217C16.067,59.719,16.089,59.732,16.82,59.553z"/>
	<path style="fill-rule:evenodd;clip-rule:evenodd;fill:#8E1C2B;" d="M44.213,58.92c0.025-1.217-0.237-1.006,1.3-1.031
		c0.293-0.006,0.388,0.137,0.361,0.402c-0.011,0.105,0.042,0.252-0.115,0.287c-0.12,0.027-0.259,0.064-0.345-0.086
		c-0.144-0.254-0.391-0.176-0.579-0.125c-0.2,0.053-0.095,0.271-0.11,0.416c-0.015,0.145,0.009,0.291-0.005,0.434
		c-0.023,0.248,0.08,0.348,0.323,0.318c0.111-0.016,0.258,0.039,0.317-0.084c0.094-0.195-0.115-0.139-0.192-0.191
		c-0.106-0.072-0.079-0.178-0.07-0.273c0.012-0.135,0.119-0.164,0.221-0.145c0.215,0.039,0.547-0.17,0.563,0.301
		c0.026,0.781,0.012,0.832-0.493,0.838c-0.115,0.002-0.231,0-0.347,0.002c-0.893,0.002-0.83,0.105-0.828-0.844
		C44.213,59.064,44.213,58.994,44.213,58.92z"/>
	<path style="fill-rule:evenodd;clip-rule:evenodd;fill:#8E1C2B;" d="M23.159,59.859c0.027,0.125,0.004,0.205-0.112,0.205
		c-0.137,0.004-0.276,0.051-0.384-0.111c-0.32-0.482-0.646-0.477-1,0.008c-0.109,0.148-0.251,0.139-0.387,0.1
		c-0.166-0.047-0.102-0.186-0.069-0.289c0.162-0.523,0.338-1.045,0.5-1.566c0.053-0.172,0.161-0.238,0.323-0.215
		c0.188,0.027,0.452-0.117,0.546,0.129C22.796,58.699,22.974,59.295,23.159,59.859z M22.158,58.561
		c-0.083,0.232-0.226,0.365-0.101,0.531c0.022,0.031,0.162,0.029,0.192-0.004C22.392,58.924,22.262,58.783,22.158,58.561z"/>
	<path style="fill-rule:evenodd;clip-rule:evenodd;fill:#8E1C2B;" d="M33.97,58.984c0,0.273-0.003,0.549,0.001,0.824
		c0.002,0.156-0.056,0.242-0.226,0.242c-0.167,0.002-0.288-0.045-0.289-0.236c-0.002-0.549-0.002-1.1-0.001-1.65
		c0-0.189,0.134-0.236,0.291-0.246c0.21-0.014,0.227,0.125,0.225,0.283C33.968,58.463,33.97,58.723,33.97,58.984z"/>
	<path style="fill-rule:evenodd;clip-rule:evenodd;fill:#8E1C2B;" d="M36.582,41.982c-0.063-0.014-0.125-0.027-0.188-0.041
		C36.466,41.914,36.527,41.93,36.582,41.982z"/>
	<path style="fill-rule:evenodd;clip-rule:evenodd;fill:#A81E2F;" d="M43.603,41.215c0.005-0.012,0.011-0.021,0.016-0.033
		c-0.007,0.01-0.015,0.018-0.021,0.025L43.603,41.215z"/>
	<path style="fill-rule:evenodd;clip-rule:evenodd;fill:#8E1C2B;" d="M20.393,51.016c-0.001,0.041-0.003,0.082-0.004,0.123
		C20.344,51.096,20.345,51.055,20.393,51.016z"/>
	<path style="fill-rule:evenodd;clip-rule:evenodd;fill:#8E1C2B;" d="M30.092,48.682c-0.023-0.018-0.039-0.041-0.047-0.066
		C30.087,48.617,30.108,48.635,30.092,48.682z"/>
	<path style="fill-rule:evenodd;clip-rule:evenodd;fill:#E5E7E7;" d="M27.51,31.041c0.26-0.402,0.618-0.723,0.921-1.088
		c0.091-0.109,0.213-0.207,0.324-0.084c0.274,0.301,0.31-0.01,0.348-0.145c0.094-0.33,0.105-0.699-0.227-0.893
		c-0.345-0.199-0.626,0.012-0.846,0.301c-0.422,0.551-0.867,1.08-1.387,1.541c-0.279,0.246-0.553,0.51-0.935,0.602
		c-0.023-0.125-0.138-0.131-0.225-0.172c-0.436-0.213-0.613-0.547-0.581-1.039c0.019-0.295,0.233-0.525,0.196-0.824
		c0.983-0.707,2.044-1.244,3.247-1.463c0.544-0.098,1.063-0.008,1.561,0.227c0.691,0.328,1.397,0.617,2.123,0.865
		c0.58,0.199,0.764,0.742,0.953,1.264c0.037,0.102-0.03,0.238,0.1,0.311c0.003,0.047-0.073,0.119,0.001,0.133
		c0.089,0.016,0.086-0.076,0.087-0.145c0.008-0.025,0.019-0.051,0.031-0.074c0.186-0.047,0.188-0.227,0.203-0.348
		c0.044-0.336,0.196-0.441,0.539-0.463c0.533-0.031,1.055-0.199,1.52-0.459c0.283-0.156,0.666-0.248,0.748-0.654
		c0.502-0.451,0.506-0.453,0.995,0.02c1.221,1.178,2.057,2.566,2.336,4.262c0.014,0.084,0.042,0.164,0.07,0.271
		c0.183-0.584,0.161-1.398-0.052-2.252c-0.327-1.297-0.997-2.398-1.91-3.357c-0.191-0.201-0.183-0.33-0.077-0.584
		c0.685-1.635,2.212-2.117,3.653-2.697c0.429-0.172,0.923,0.012,1.39,0.061c-0.43,0.205-0.915,0.18-1.391,0.406
		c1.65,0.502,3.126,1.188,4.148,2.586c-0.444-0.063-0.744-0.412-1.145-0.574c-1.07-0.436-2.114-0.385-3.152,0.088
		c0.542,0.002,1.038,0.232,1.564,0.299c0.208,0.283,0.533,0.43,0.786,0.658c1.199,1.086,1.848,2.377,1.562,4.033
		c-0.151-0.207-0.12-0.459-0.174-0.688c-0.247-1.014-0.808-1.779-1.738-2.266c-0.005-0.01-0.007-0.021-0.014-0.029
		c-0.004-0.004-0.015-0.004-0.022-0.006c0.012,0.012,0.024,0.023,0.036,0.035c0.002,0.168,0.112,0.293,0.179,0.436
		c0.174,0.377,0.43,0.719,0.449,1.156c0.012,0.754-0.277,1.416-0.686,2.016c-1.115,1.635-2.466,3.008-4.331,3.791
		c-0.538,0.225-0.987,0.592-1.414,0.984c-0.093,0.086-0.195,0.225-0.324,0.113c-0.128-0.109,0.054-0.193,0.081-0.293
		c0.041-0.152,0.107-0.297,0.163-0.443c0.045-0.025,0.067-0.053,0.016-0.096c-0.016,0.02-0.031,0.041-0.047,0.061
		c-0.549,0.244-0.907,0.699-1.241,1.166c-0.556,0.779-0.854,1.662-1.008,2.6c-0.024,0.154-0.009,0.324-0.182,0.41
		c-0.138-0.014-0.251,0.059-0.371,0.104c-1.056,0.4-2.132,0.738-3.274,0.674c-1.106-0.063-2.013-0.488-2.452-1.6
		c-0.144-0.363-0.254-0.734-0.247-1.131c0.003-0.186,0.044-0.418-0.143-0.51c-0.144-0.07-0.268,0.127-0.403,0.199
		c-0.123,0.064-0.237,0.146-0.393,0.244c-0.027-0.406-0.044-0.76,0.076-1.105c1.142,0.332,2.267,0.078,3.392-0.109
		c0.456-0.076,0.901-0.211,1.355-0.299c0.64-0.125,1.109-0.48,1.435-1.027c0.906-1.533,1.787-3.078,2.504-4.711
		c0.132-0.303,0.249-0.619,0.332-0.938c0.117-0.459-0.249-0.783-0.705-0.654c-0.141,0.039-0.251,0.131-0.23,0.273
		c0.047,0.311-0.159,0.387-0.378,0.484c-1.626,0.719-3.259,1.424-4.921,2.059c-0.229,0.088-0.466,0.152-0.699,0.227
		c-0.128-0.143-0.298-0.066-0.448-0.086c-0.801-0.104-1.68-0.346-1.557-1.475C27.614,31.145,27.581,31.078,27.51,31.041z"/>
	<path style="fill-rule:evenodd;clip-rule:evenodd;fill:#E3E5E5;" d="M38.475,5.842c-0.53,0.547-0.798,1.236-1.036,1.932
		c-0.821,2.418-0.964,4.891-0.587,7.41c0.282,1.893,0.211,3.756-0.671,5.508c-0.132,0.264,0.039,0.291,0.19,0.365
		c0.775,0.393,1.49,0.877,2.211,1.41c-0.787,0.482-1.603,0.514-2.443,0.383c-0.886-0.139-1.755-0.375-2.65-0.447
		c-0.187-0.016-0.274-0.123-0.367-0.26c-0.38-0.549-0.89-0.934-1.507-1.182c-0.015-0.02-0.03-0.041-0.045-0.061
		c-0.01,0.01-0.028,0.027-0.027,0.027c0.016,0.021,0.033,0.037,0.052,0.055c0.171,0.361,0.351,0.719,0.508,1.086
		c0.039,0.092,0.155,0.283-0.069,0.303c-0.726,0.063-1.399,0.477-2.156,0.316c-0.061-0.23-0.254-0.152-0.396-0.154
		c-0.978-0.006-1.957-0.061-2.935,0.107c1.374-1.076,3.019-1.068,4.75-1.08c-0.635-0.551-1.343-0.637-2.113-0.865
		c0.742-0.346,1.421-0.361,2.104-0.377c-0.039-0.172-0.19-0.211-0.313-0.277c-0.575-0.314-1.192-0.508-1.832-0.635
		c-0.105-0.021-0.202-0.025-0.22-0.156c1.243-0.092,2.468,0.053,3.691,0.258c0.395,0.066,0.419,0.416,0.636,0.674
		c0.079-0.254,0.147-0.469,0.215-0.686c0.183-0.064,0.222-0.252,0.329-0.381c0.418-0.504,0.879-0.924,1.605-0.834
		c0.065,0.754-0.065,1.49-0.201,2.232c0.47-0.594,0.586-1.303,0.671-2.016c0.185-1.586,0.158-3.182,0.026-4.768
		c-0.223-2.662,0.048-5.256,0.92-7.783c0.239-0.701,0.53-1.379,0.99-1.967c0.739-0.947,1.586-1.037,2.502-0.258
		c0.673,0.574,1.127,1.313,1.515,2.096c2.501,5.063,1.242,11.488-2.971,15.168c-0.608,0.529-0.608,0.529-1.333,0.029
		c1.501-0.951,2.538-2.297,3.343-3.842c0.931-2.605,1.455-5.266,0.991-8.039c-0.231-1.391-0.742-2.662-1.791-3.66
		c-0.424-0.404-0.726-0.432-1.177-0.07C38.729,5.529,38.565,5.656,38.475,5.842z"/>
	<path style="fill-rule:evenodd;clip-rule:evenodd;fill:#B8BEBF;" d="M26.314,20.176c0.243,0.063,0.487,0.127,0.831,0.217
		c-1.453,0.543-2.702,1.201-3.596,2.516c0.469-0.082,0.856-0.148,1.244-0.217c-0.438,0.459-0.904,0.863-1.334,1.307
		c-0.212,0.219-0.271-0.051-0.343-0.148c-0.729-0.984-1.072-2.105-1.138-3.316c-0.021-0.387-0.004-0.773-0.037-1.162
		c-0.215,0.473-0.194,0.979-0.19,1.473c0.008,1.314,0.272,2.59,0.694,3.828c0.126,0.369,0.07,0.625-0.228,0.914
		c-0.387-0.953-0.685-1.9-0.91-2.869c-0.568-2.436-0.901-4.875-0.021-7.314c0.624-1.732,1.544-3.299,2.677-4.744
		c0.476-0.605,0.982-1.182,1.579-1.67c0.212-0.174,0.434-0.342,0.67-0.479c0.75-0.436,1.107-0.32,1.453,0.469
		c0.279,0.639,0.489,1.297,0.536,2c-1.151-0.383-2.204-0.158-3.125,0.594c-0.863,0.705-1.484,1.6-1.838,2.674
		c0.185-0.074,0.337-0.18,0.481-0.293c0.562-0.441,1.204-0.668,1.912-0.713c0.094-0.006,0.232-0.049,0.272,0.064
		c0.055,0.156-0.113,0.178-0.205,0.225c-0.797,0.406-1.402,1.021-1.844,1.783c-0.523,0.902-0.805,1.877-0.579,2.938
		c0.227,1.059,1.851,2.164,2.941,2.006C26.254,20.25,26.283,20.203,26.314,20.176z"/>
	<path style="fill-rule:evenodd;clip-rule:evenodd;fill:#E5E7E7;" d="M26.314,20.176c-0.031,0.027-0.061,0.074-0.096,0.08
		c-1.091,0.158-2.715-0.947-2.941-2.006c-0.226-1.061,0.056-2.035,0.579-2.938c0.441-0.762,1.047-1.377,1.844-1.783
		c0.092-0.047,0.26-0.068,0.205-0.225c-0.04-0.113-0.179-0.07-0.272-0.064c-0.708,0.045-1.351,0.271-1.912,0.713
		c-0.145,0.113-0.297,0.219-0.481,0.293c0.354-1.074,0.975-1.969,1.838-2.674c0.921-0.752,1.974-0.977,3.125-0.594
		c0.267,1.592,0.095,3.166-0.184,4.734c-0.183,1.039-0.463,2.055-0.758,3.066c-0.075,0.258-0.209,0.367-0.462,0.428
		c-0.5,0.119-0.991,0.279-1.596,0.455C25.647,19.867,25.98,20.021,26.314,20.176z"/>
	<path style="fill-rule:evenodd;clip-rule:evenodd;fill:#B8BEBF;" d="M38.475,5.842c0.091-0.186,0.255-0.313,0.409-0.438
		c0.451-0.361,0.753-0.334,1.177,0.07c1.049,0.998,1.56,2.27,1.791,3.66c0.464,2.773-0.061,5.434-0.991,8.039
		c-0.206,0.059-0.413,0.115-0.618,0.174c-0.017-0.016-0.032-0.033-0.05-0.049c0.626-1.537,0.495-3.129,0.36-4.73
		c-0.244,0.389-0.499,0.742-0.934,1.09c0.18-1.641-0.4-3.023-0.907-4.432C38.316,8.129,38.329,6.986,38.475,5.842z"/>
	<path style="fill-rule:evenodd;clip-rule:evenodd;fill:#A91E30;" d="M29.172,25.48c0.074-0.262,0.104-0.537,0.239-0.781
		c0.769-0.596,1.635-0.918,2.598-1.055c0.722-0.1,1.438-0.078,2.154-0.064c1.344,0.025,2.671,0.145,3.683,1.205
		c-0.245,0.787-0.454,1.596-0.93,2.277c-0.946,1.363-2.275,1.828-3.895,1.576c-0.866-0.135-1.673-0.428-2.45-0.82
		c-0.121-0.332-0.464-0.449-0.673-0.703C29.499,26.631,29.366,26.047,29.172,25.48z M35.083,26.965
		c0.037-0.031,0.073-0.063,0.109-0.094c0.147-0.006,0.169-0.137,0.226-0.229c0.397-0.631,0.527-1.318,0.432-2.051
		c-0.072-0.326-0.334-0.336-0.58-0.318c-1.2,0.082-2.26,0.545-3.221,1.25c-0.389,0.285-0.753,0.596-1.083,1.049
		c0.396,0,0.645,0.17,0.894,0.34c0.435,0.299,0.922,0.49,1.429,0.604c0.688,0.152,1.316,0.01,1.8-0.555L35.083,26.965z"/>
	<path style="fill-rule:evenodd;clip-rule:evenodd;fill:#B6BCBD;" d="M27.526,37.475c-0.12,0.346-0.104,0.699-0.076,1.105
		c0.155-0.098,0.27-0.18,0.393-0.244c0.136-0.072,0.26-0.27,0.403-0.199c0.187,0.092,0.146,0.324,0.143,0.51
		c-0.007,0.396,0.104,0.768,0.247,1.131c0.439,1.111,1.346,1.537,2.452,1.6c1.143,0.064,2.219-0.273,3.274-0.674
		c0.12-0.045,0.233-0.117,0.371-0.104c-0.686,0.66-1.561,0.906-2.447,1.119c-0.734,0.178-1.485,0.219-2.239,0.174
		c-1.122-0.066-1.821-0.631-2.125-1.715c-0.039-0.137-0.066-0.277-0.11-0.465c-0.345,0.311-0.356,0.707-0.412,1.197
		c-0.484-0.912-0.477-1.813-0.574-2.711c-0.204,0.158-0.15,0.383-0.213,0.592c-0.227-0.039-0.346-0.242-0.523-0.346
		c-0.46-0.271-0.904-0.574-1.378-0.818c-1.057-0.543-1.809-1.328-2.112-2.502c-0.017-0.064-0.017-0.15-0.195-0.152
		c-0.091,0.68,0.108,1.416-0.245,2.104c-0.18-0.119-0.225-0.289-0.29-0.438c-0.486-1.121-0.48-2.275-0.218-3.443
		c0.03-0.137,0.118-0.268,0.051-0.416c0.019-0.006,0.037-0.01,0.056-0.014c-0.004-0.012-0.009-0.021-0.013-0.033
		c-0.013,0.018-0.025,0.035-0.039,0.053c-0.495,0.199-0.646,0.768-1.169,1.117c0.426-1.201,1.034-2.141,1.865-2.939
		c0.168-0.162,0.287-0.025,0.424,0.033c0.146,0.061,0.136,0.152,0.068,0.275c-1.086,1.957,0.124,3.516,1.829,4.049
		c0.549,0.172,1.048,0.361,1.455,0.77c0.09,0.092,0.204,0.166,0.32,0.223c0.38,0.184,0.78,0.33,0.791,0.865
		C27.292,37.279,27.443,37.375,27.526,37.475z"/>
	<path style="fill-rule:evenodd;clip-rule:evenodd;fill:#FAFAFA;" d="M33.72,33.33c0.075-0.041,0.147-0.088,0.227-0.121
		c0.134-0.053,0.237-0.305,0.367-0.18c0.129,0.121,0.21,0.359,0.099,0.561c-0.448,0.809-0.857,1.641-1.4,2.393
		c-0.147,0.205-0.35,0.357-0.593,0.422c-1.274,0.334-2.559,0.619-3.886,0.625c-0.395,0-0.72,0.004-0.807-0.566
		c-0.088-0.576-0.587-0.975-1.006-1.373c0.796-0.645,1.566-1.246,2.575-1.547c1.55-0.461,3.033-1.131,4.513-1.787
		c0.368-0.162,0.388-0.053,0.362,0.283c-0.035,0.477-0.264,0.848-0.527,1.213c-0.033,0.037-0.063,0.074-0.096,0.113
		C33.615,33.404,33.674,33.4,33.72,33.33z M29.906,35.279c0.33,0.133,0.567-0.008,0.785-0.09c0.603-0.225,1.178-0.379,1.682,0.193
		c0.027,0.031,0.077,0.041,0.111,0.066c0.204,0.154,0.297,0.059,0.37-0.143c0.213-0.588,0.211-1.17,0.004-1.752
		c-0.04,0.359-0.051,0.719-0.132,1.074c-0.082,0.363-0.228,0.482-0.524,0.189c-0.324-0.318-0.654-0.314-1.043-0.102
		C30.78,34.924,30.37,35.072,29.906,35.279z"/>
	<path style="fill-rule:evenodd;clip-rule:evenodd;fill:#E3E5E5;" d="M38.764,18.486c0.169,0.113,0.336,0.027,0.555,0.098
		c-0.482,0.701-1.117,1.195-1.837,1.768c0.192-0.857,0.332-1.609,0.38-2.373c0.088-1.414-0.185-2.793-0.38-4.182
		c-0.207-1.469,0.05-2.896,0.461-4.314c1.107,1.926,1.198,4.006,0.924,6.229c0.581-0.416,0.85-0.988,1.29-1.549
		C40.277,15.865,39.771,17.256,38.764,18.486z"/>
	<path style="fill-rule:evenodd;clip-rule:evenodd;fill:#B6BCBD;" d="M28.922,19.25c0.018,0.131,0.114,0.135,0.22,0.156
		c0.64,0.127,1.257,0.32,1.832,0.635c0.122,0.066,0.273,0.105,0.313,0.277c-0.683,0.016-1.361,0.031-2.104,0.377
		c0.771,0.229,1.479,0.314,2.113,0.865c-1.731,0.012-3.376,0.004-4.75,1.08c0.978-0.168,1.957-0.113,2.935-0.107
		c0.142,0.002,0.335-0.076,0.396,0.154c-0.937,0.076-1.874,0.121-2.806,0.268c-1.791,0.281-3.072,1.264-3.851,2.852
		c-0.415,0.844-1.03,1.6-1.203,2.563c-0.139-0.867,0.063-1.668,0.456-2.428c0.684-1.32,1.746-2.295,2.917-3.166
		c0.59-0.441,1.223-0.816,1.838-1.238c-0.975,0.004-1.727,0.762-2.689,0.82c0.217-0.422,1.011-0.951,2.06-1.387
		c0.773-0.322,1.578-0.545,2.393-0.799c-0.901-0.18-1.871,0.09-2.769-0.465C27.136,19.426,28.018,19.271,28.922,19.25z"/>
	<path style="fill-rule:evenodd;clip-rule:evenodd;fill:#E5E7E7;" d="M25.525,24.09c0.575-0.404,1.249-0.508,1.918-0.615
		c0.734-0.121,1.475-0.197,2.323-0.156c-0.609,0.594-0.782,1.313-1.034,1.998c-0.203,0.553-0.428,1.109-0.932,1.48
		c-0.273-0.002-0.549,0.014-0.82-0.012c-1.169-0.115-2.062-0.857-1.577-2.197C25.461,24.43,25.55,24.273,25.525,24.09z"/>
	<path style="fill-rule:evenodd;clip-rule:evenodd;fill:#B8BEBF;" d="M26.486,34.445c-0.403,0.311-0.843,0.412-1.342,0.264
		c-0.292-0.088-0.581-0.178-0.854-0.313c-1.262-0.629-1.61-1.721-0.967-2.971c0.117-0.229,0.207-0.277,0.406-0.088
		c0.335,0.316,0.765,0.457,1.193,0.596c-0.068,0.656,0.034,1.256,0.512,1.766C25.739,34.025,26.153,34.174,26.486,34.445z"/>
	<path style="fill-rule:evenodd;clip-rule:evenodd;fill:#BB213B;" d="M37.846,24.785c-1.012-1.061-2.339-1.18-3.683-1.205
		c-0.717-0.014-1.433-0.035-2.154,0.064c-0.963,0.137-1.829,0.459-2.598,1.055c0.322-1.109,1.398-1.834,2.763-1.91
		c1.3-0.07,2.55,0.23,3.81,0.463c0.396,0.072,0.795,0.137,1.192,0.209C37.998,23.609,38.2,24.008,37.846,24.785z"/>
	<path style="fill-rule:evenodd;clip-rule:evenodd;fill:#B6BCBD;" d="M25.525,24.09c0.024,0.184-0.064,0.34-0.122,0.498
		c-0.484,1.34,0.408,2.082,1.577,2.197c0.271,0.025,0.547,0.01,0.82,0.012c-0.572,0.406-1.203,0.609-1.909,0.533
		c-0.296-0.031-0.554-0.146-0.773-0.357c-0.41-0.387-0.884-0.648-1.549-0.656C24.057,25.379,24.61,24.582,25.525,24.09z"/>
	<path style="fill-rule:evenodd;clip-rule:evenodd;fill:#E3E5E5;" d="M26.486,34.445c-0.333-0.271-0.747-0.42-1.051-0.746
		c-0.478-0.51-0.58-1.109-0.512-1.766c1.222-0.125,1.761,0.891,2.531,1.52c0.122,0.098,0.099,0.188-0.009,0.281
		C27.144,33.992,26.871,34.295,26.486,34.445z"/>
	<path style="fill-rule:evenodd;clip-rule:evenodd;fill:#A81E2F;" d="M23.355,26.875c0.545-0.283,0.988-0.012,1.367,0.318
		c0.375,0.328,0.771,0.574,1.392,0.693c-0.593,0.221-0.921,0.66-1.54,0.58c-0.497-0.066-0.92,0.271-1.306,0.58
		c-0.133-0.111-0.074-0.264-0.089-0.4C23.116,28.045,23.28,27.465,23.355,26.875z"/>
	<path style="fill-rule:evenodd;clip-rule:evenodd;fill:#841725;" d="M23.355,26.875c-0.075,0.59-0.239,1.17-0.176,1.771
		c0.015,0.137-0.044,0.289,0.089,0.4c-0.071,0.125-0.191,0.197,0.002,0.379c0.209,0.197,0.418,0.467,0.276,0.836
		c-0.186,0.488-0.269,0.529-0.707,0.264c-0.37-0.225-0.55-0.58-0.508-0.982c0.064-0.627,0.151-1.26,0.367-1.855
		C22.82,27.354,22.979,27.018,23.355,26.875z"/>
	<path style="fill-rule:evenodd;clip-rule:evenodd;fill:#B6BCBD;" d="M43.706,30.291c-0.02-0.438-0.275-0.779-0.449-1.156
		c-0.066-0.143-0.177-0.268-0.179-0.436l0,0c0.931,0.486,1.491,1.252,1.738,2.266c0.054,0.229,0.022,0.48,0.174,0.688
		c-0.026,0.545-0.259,1.018-0.543,1.615c-0.07-0.588-0.028-1.055-0.136-1.51c-0.106-0.436-0.227-0.865-0.393-1.277
		C43.886,30.393,43.895,30.219,43.706,30.291z"/>
	<path style="fill-rule:evenodd;clip-rule:evenodd;fill:#B6BCBD;" d="M27.51,31.041c0.071,0.037,0.104,0.104,0.096,0.178
		c-0.123,1.129,0.756,1.371,1.557,1.475c0.15,0.02,0.32-0.057,0.448,0.086c-0.463,0.268-0.988,0.371-1.48,0.561
		c-0.157,0.059-0.238-0.012-0.325-0.121c-0.313-0.395-0.626-0.787-0.946-1.176c-0.099-0.117-0.126-0.213-0.006-0.328
		C27.079,31.498,27.242,31.219,27.51,31.041z"/>
	<path style="fill-rule:evenodd;clip-rule:evenodd;fill:#B8BEBF;" d="M42.643,26.961c-0.526-0.066-1.022-0.297-1.564-0.299
		c1.038-0.473,2.082-0.523,3.152-0.088c0.4,0.162,0.7,0.512,1.145,0.574c0.106,0.08,0.178,0.182,0.203,0.369
		C44.624,27.105,43.645,26.971,42.643,26.961z"/>
	<path style="fill-rule:evenodd;clip-rule:evenodd;fill:#841725;" d="M29.172,25.48c0.194,0.566,0.327,1.15,0.727,1.635
		c0.209,0.254,0.552,0.371,0.673,0.703c-0.808-0.346-1.622-0.664-2.563-0.529C28.57,26.773,28.846,26.111,29.172,25.48z"/>
	<path style="fill-rule:evenodd;clip-rule:evenodd;fill:#B6BCBD;" d="M35.398,18.281c-0.727-0.09-1.188,0.33-1.605,0.834
		c-0.107,0.129-0.146,0.316-0.329,0.381c0.222-0.98,0.724-1.799,1.446-2.49c0.16-0.152,0.285-0.201,0.338,0.084
		C35.323,17.484,35.413,17.875,35.398,18.281z"/>
	<path style="fill-rule:evenodd;clip-rule:evenodd;fill:#B6BCBD;" d="M25.1,29.24c0.037,0.299-0.178,0.529-0.196,0.824
		c-0.032,0.492,0.146,0.826,0.581,1.039c0.087,0.041,0.201,0.047,0.225,0.172c-0.562,0.236-1.068,0.004-1.554-0.221
		c-0.234-0.109-0.213-0.383-0.148-0.619C24.167,29.852,24.596,29.512,25.1,29.24z"/>
	<path style="fill-rule:evenodd;clip-rule:evenodd;fill:#841725;" d="M39.39,31.209c-0.487-1.289-1.284-2.35-2.308-3.25
		c-0.174-0.154-0.165-0.266-0.009-0.424c0.154-0.158,0.283-0.186,0.433-0.012C38.432,28.6,39.087,29.813,39.39,31.209z"/>
	<path style="fill-rule:evenodd;clip-rule:evenodd;fill:#BB213B;" d="M39.318,23.861c-0.099-0.123-0.198-0.244-0.298-0.369
		c-0.43-0.539-0.428-0.543,0.239-0.775c0.805-0.279,0.937-0.225,1.241,0.508C40.041,23.316,39.689,23.605,39.318,23.861z"/>
	<path style="fill-rule:evenodd;clip-rule:evenodd;fill:#B6BCBD;" d="M36.212,28.434c-0.082,0.406-0.465,0.498-0.748,0.654
		c-0.465,0.26-0.986,0.428-1.52,0.459c-0.343,0.021-0.495,0.127-0.539,0.463c-0.015,0.121-0.018,0.301-0.203,0.348
		c-0.024-0.357,0.032-0.721-0.097-1.07c-0.059-0.156,0.016-0.201,0.172-0.184C34.333,29.225,35.306,28.969,36.212,28.434z"/>
	<path style="fill-rule:evenodd;clip-rule:evenodd;fill:#A91E30;" d="M39.051,24.334c0.01,0.23-0.467,0.727-0.681,0.719
		c-0.172-0.008-0.133-0.121-0.088-0.215c0.24-0.518,0.249-1.002-0.188-1.432c-0.065-0.063-0.091-0.152-0.01-0.229
		c0.063-0.059,0.145-0.045,0.198,0.004C38.643,23.502,38.954,23.857,39.051,24.334z"/>
	<path style="fill-rule:evenodd;clip-rule:evenodd;fill:#841725;" d="M39.318,23.861c0.371-0.256,0.723-0.545,1.183-0.637
		c0.353,0.451,0.34,0.523-0.143,0.748c-0.155,0.074-0.319,0.131-0.476,0.203C39.38,24.408,39.381,24.408,39.318,23.861z"/>
	<path style="fill-rule:evenodd;clip-rule:evenodd;fill:#E39023;" d="M23.783,29.771c-0.04-0.115-0.08-0.168-0.073-0.217
		c0.031-0.191-0.302-0.262-0.188-0.424c0.142-0.201,0.395-0.291,0.64-0.334c0.147-0.025,0.3-0.102,0.488-0.01
		C24.369,29.107,24.098,29.416,23.783,29.771z"/>
	<path style="fill-rule:evenodd;clip-rule:evenodd;fill:#841725;" d="M32.337,21.773c0.218-0.002,0.288,0.186,0.411,0.291
		c0.063,0.053,0.141,0.115,0.123,0.213c-0.018,0.096-0.109,0.076-0.176,0.076c-0.11,0-0.255,0.031-0.284-0.123
		C32.383,22.084,32.275,21.943,32.337,21.773z"/>
	<path style="fill-rule:evenodd;clip-rule:evenodd;fill:#B6BCBD;" d="M33.171,30.432c-0.001,0.068,0.002,0.16-0.087,0.145
		c-0.074-0.014,0.002-0.086-0.001-0.133C33.111,30.439,33.142,30.436,33.171,30.432z"/>
	<path style="fill-rule:evenodd;clip-rule:evenodd;fill:#B8BEBF;" d="M40.242,17.348c-0.028,0.033-0.062,0.055-0.092,0.006
		c-0.005-0.006,0.028-0.035,0.043-0.055C40.21,17.314,40.226,17.332,40.242,17.348z"/>
	<path style="fill-rule:evenodd;clip-rule:evenodd;fill:#020101;" d="M22.158,58.561c0.104,0.223,0.233,0.363,0.092,0.527
		c-0.03,0.033-0.17,0.035-0.192,0.004C21.933,58.926,22.075,58.793,22.158,58.561z"/>
	<path style="fill-rule:evenodd;clip-rule:evenodd;fill:#B6BCBD;" d="M43.078,28.699c-0.012-0.012-0.024-0.023-0.036-0.035
		c0.008,0.002,0.019,0.002,0.022,0.006C43.071,28.678,43.073,28.689,43.078,28.699L43.078,28.699z"/>
	<path style="fill-rule:evenodd;clip-rule:evenodd;fill:#242521;" d="M37.164,36.424c0.016-0.02,0.031-0.041,0.047-0.061
		c0.052,0.043,0.029,0.07-0.016,0.096C37.185,36.447,37.174,36.436,37.164,36.424z"/>
	<path style="fill-rule:evenodd;clip-rule:evenodd;fill:#242521;" d="M31.594,20.982c-0.019-0.018-0.036-0.033-0.052-0.055
		c-0.001,0,0.018-0.018,0.027-0.027c0.015,0.02,0.03,0.041,0.045,0.061L31.594,20.982z"/>
	<path style="fill-rule:evenodd;clip-rule:evenodd;fill:#242521;" d="M35.088,26.961c-0.483,0.564-1.111,0.707-1.8,0.555
		c-0.507-0.113-0.994-0.305-1.429-0.604c-0.249-0.17-0.498-0.34-0.894-0.34c0.33-0.453,0.694-0.764,1.083-1.049
		c0.961-0.705,2.021-1.168,3.221-1.25c0.246-0.018,0.508-0.008,0.58,0.318c-0.293,0.002-0.3,0.24-0.314,0.426
		c-0.028,0.369-0.186,0.686-0.327,1.016c-0.167,0.395-0.525,0.631-0.798,0.99C34.668,27,34.878,26.98,35.088,26.961z M33.245,27.051
		c0.269,0.014,0.519-0.049,0.749-0.184c0.729-0.428,0.969-1.152,1.138-1.912c0.055-0.236-0.138-0.174-0.247-0.152
		c-1.146,0.227-2.147,0.752-3.053,1.479c-0.158,0.125-0.153,0.219,0.026,0.318C32.293,26.836,32.738,27.037,33.245,27.051z"/>
	<path style="fill-rule:evenodd;clip-rule:evenodd;fill:#841725;" d="M35.088,26.961c-0.21,0.02-0.42,0.039-0.678,0.063
		c0.272-0.359,0.631-0.596,0.798-0.99c0.142-0.33,0.299-0.646,0.327-1.016c0.015-0.186,0.021-0.424,0.314-0.426
		c0.096,0.732-0.034,1.42-0.432,2.051c-0.057,0.092-0.078,0.223-0.226,0.229c-0.036,0.031-0.073,0.063-0.109,0.094L35.088,26.961z"
		/>
	<path style="fill-rule:evenodd;clip-rule:evenodd;fill:#242521;" d="M35.083,26.965c0.036-0.031,0.073-0.063,0.109-0.094
		C35.156,26.902,35.12,26.934,35.083,26.965z"/>
	<path style="fill-rule:evenodd;clip-rule:evenodd;fill:#242521;" d="M21.705,32.785c0.014-0.018,0.026-0.035,0.039-0.053
		c0.004,0.012,0.009,0.021,0.013,0.033c-0.019,0.004-0.037,0.008-0.056,0.014C21.7,32.779,21.705,32.785,21.705,32.785z"/>
	<path style="fill-rule:evenodd;clip-rule:evenodd;fill:#242521;" d="M29.906,35.279c0.464-0.207,0.874-0.355,1.253-0.563
		c0.389-0.213,0.719-0.217,1.043,0.102c0.297,0.293,0.442,0.174,0.524-0.189c0.081-0.355,0.092-0.715,0.132-1.074
		c0.207,0.582,0.209,1.164-0.004,1.752c-0.073,0.201-0.166,0.297-0.37,0.143c-0.034-0.025-0.084-0.035-0.111-0.066
		c-0.504-0.572-1.079-0.418-1.682-0.193C30.474,35.271,30.236,35.412,29.906,35.279z"/>
	<path style="fill-rule:evenodd;clip-rule:evenodd;fill:#242521;" d="M33.72,33.33c-0.046,0.07-0.104,0.074-0.172,0.035
		c0.032-0.039,0.063-0.076,0.096-0.113C33.668,33.275,33.693,33.303,33.72,33.33z"/>
	<path style="fill-rule:evenodd;clip-rule:evenodd;fill:#E39023;" d="M33.245,27.051c-0.507-0.014-0.952-0.215-1.387-0.451
		c-0.18-0.1-0.185-0.193-0.026-0.318c0.905-0.727,1.907-1.252,3.053-1.479c0.109-0.021,0.302-0.084,0.247,0.152
		c-0.169,0.76-0.409,1.484-1.138,1.912C33.764,27.002,33.514,27.064,33.245,27.051z"/>
</g>
</svg>
