<?xml version="1.0" encoding="iso-8859-1"?>
<!-- Generator: Adobe Illustrator 16.0.0, SVG Export Plug-In . SVG Version: 6.00 Build 0)  -->
<!DOCTYPE svg PUBLIC "-//W3C//DTD SVG 1.1//EN" "http://www.w3.org/Graphics/SVG/1.1/DTD/svg11.dtd">
<svg version="1.1" id="Layer_1" xmlns="http://www.w3.org/2000/svg" xmlns:xlink="http://www.w3.org/1999/xlink" x="0px" y="0px"
	 width="64px" height="64px" viewBox="0 0 64 64" style="enable-background:new 0 0 64 64;" xml:space="preserve">
<g>
	<path style="fill-rule:evenodd;clip-rule:evenodd;fill:#FFFFFF;" d="M49.866,63.49c-1.567,0.283-3.126,0.297-4.646-0.029
		c-0.447-1.072-0.401-2.127-0.358-3.168c0.065-1.566-0.142-3.102-0.431-4.629c-0.244-1.287-0.557-2.559-0.818-3.742
		c-0.5-0.525-0.881-1.02-1.637-1.141c-0.174,0.152-0.392,0.344-0.637,0.559c0.225,0.402,0.42,0.75,0.666,1.188
		c-0.436,0.381-0.883,0.773-1.395,1.223c-0.413-0.314-0.785-0.545-1.091-0.842c-1.122-1.094-2.228-2.205-3.327-3.322
		c-0.55-0.559-0.963-1.193-1.217-1.959c-0.713-2.145-1.27-4.318-1.604-6.559c-0.243-1.633-0.572-3.248-0.595-4.906
		c-0.005-0.389-0.14-0.775-0.085-1.217c1.049,1.383,2.102,2.762,3.144,4.148c1.338,1.781,2.679,3.559,3.995,5.355
		c1.438,1.959,2.852,3.938,4.27,5.91c0.527,0.734,0.725,1.607,0.911,2.457c0.337,1.541,0.641,3.096,0.835,4.66
		c0.166,1.34,0.16,2.699,0.229,4.051c0.014,0.266,0.025,0.533,0.041,0.855c0.51,0,0.972,0,1.453,0
		c0.313-0.637,0.384-1.33,0.352-2.045c-0.016-0.34-0.008-0.682-0.002-1.021c0.039-1.971-0.291-3.889-0.768-5.793
		c-0.426-1.699-0.744-3.432-1.486-5.029c-0.453-0.977-0.958-1.947-1.575-2.824c-1.534-2.182-3.14-4.313-4.728-6.455
		c-1.547-2.088-3.111-4.164-4.662-6.248c-0.34-0.455-0.658-0.928-1.01-1.422c-0.898,0.43-0.979,1.516-1.844,2
		c-0.695-0.475-0.841-1.496-1.713-1.967c-0.373,0.479-0.766,0.963-1.139,1.463c-1.602,2.131-3.208,4.26-4.789,6.406
		c-1.303,1.766-2.59,3.545-3.85,5.34c-0.659,0.939-1.277,1.91-1.857,2.898c-0.884,1.508-1.199,3.221-1.643,4.879
		c-0.328,1.23-0.632,2.48-0.785,3.742c-0.16,1.305-0.387,2.619-0.246,3.945c0.072,0.697,0.193,1.391,0.301,2.137
		c0.461,0,0.924,0,1.444,0c0.03-0.156,0.08-0.313,0.087-0.471c0.088-2.057,0.19-4.107,0.605-6.131
		c0.248-1.219,0.465-2.443,0.675-3.668c0.13-0.756,0.528-1.387,0.94-1.992c1.012-1.475,2.063-2.924,3.124-4.365
		c1.261-1.713,2.55-3.404,3.819-5.111c1.311-1.758,2.61-3.525,3.92-5.283c0.076-0.102,0.2-0.168,0.355-0.293
		c0.023,0.199,0.064,0.334,0.05,0.461c-0.112,1.037-0.222,2.072-0.359,3.105c-0.134,0.998-0.287,1.996-0.456,2.99
		c-0.357,2.092-0.851,4.148-1.557,6.154c-0.352,0.998-1.072,1.74-1.744,2.475c-1.115,1.223-2.381,2.305-3.529,3.395
		c-0.848-0.078-1.236-0.607-1.705-1.111c0.184-0.322,0.365-0.637,0.582-1.016c-0.082-0.131-0.147-0.352-0.293-0.436
		c-0.156-0.09-0.42-0.127-0.58-0.057c-0.46,0.199-0.891,0.463-1.229,0.645c-1.143,3.857-1.445,7.682-1.623,11.482
		c-0.375,0.369-0.765,0.516-1.233,0.51c-1.021-0.014-2.043-0.006-3.028-0.006c-0.777-0.398-0.762-1.156-0.794-1.787
		c-0.076-1.494-0.101-3.002,0-4.494c0.09-1.336,0.392-2.654,0.567-3.986c0.193-1.473,0.594-2.893,0.953-4.328
		c0.371-1.477,1.078-2.766,1.863-4.033c0.139-0.223,0.277-0.445,0.469-0.752c-0.332-0.016-0.576-0.082-0.792-0.029
		c-0.937,0.227-1.862,0.016-2.794,0.004c-2.004-0.023-3.764-0.658-5.313-1.912c-0.078-0.064-0.162-0.129-0.217-0.211
		c-0.164-0.25-0.316-0.506-0.54-0.867c1.759-0.406,3.44-0.795,5.347-1.236c-0.408-0.232-0.619-0.363-0.84-0.477
		c-0.932-0.482-1.924-0.869-2.783-1.457c-1.338-0.912-2.393-2.104-2.824-3.732c-0.033-0.129-0.051-0.264-0.062-0.396
		c-0.005-0.066,0.023-0.133,0.06-0.313c1.344-0.107,2.73,0.016,4.297-0.076c-0.809-0.533-1.461-0.973-2.124-1.396
		c-0.714-0.457-1.142-1.145-1.537-1.859c-0.393-0.709-0.688-1.451-0.694-2.385c1.472,0.633,2.863,1.264,4.525,1.578
		c-1.72-1.916-2.219-4.09-2.285-6.459c1.064,0.691,2.051,1.33,3.033,1.967c0.32-0.24,0.252-0.502,0.157-0.754
		c-0.532-1.426-0.577-2.908-0.532-4.4c0.02-0.676,0.298-1.52,0.646-2.002c0.77,0.654,1.537,1.307,2.398,2.039
		c0-0.588,0.094-1.107-0.02-1.578c-0.246-1.016-0.135-1.99-0.009-3.006c0.112-0.906,0.153-1.813,0.462-2.682
		c0.031-0.088,0.09-0.166,0.174-0.318c0.666,0.41,1.309,0.805,2.066,1.271c-0.025-2.369-0.088-4.615,1.368-6.629
		c0.472,0.518,0.892,0.979,1.405,1.541c0.123-0.277,0.26-0.457,0.283-0.652c0.18-1.453,0.676-2.816,1.19-4.17
		c0.468-1.234,1.301-2.217,2.361-3.115c0.382-0.002,0.765-0.457,1.337-0.156c-0.055,0.148-0.092,0.301-0.162,0.438
		c-1.311,2.57-2.699,5.104-3.916,7.719c-1.227,2.631-2.31,5.326-3.301,8.063c-1.012,2.797-1.815,5.645-2.545,8.516
		c-0.33,1.299-0.447,2.648-0.688,3.971c-0.297,1.635-0.434,3.277-0.408,4.939c0.021,1.262,0.262,2.486,0.659,3.666
		c0.503,1.492,2.106,2.957,3.913,2.598c0.727-0.453,0.982-1.113,0.973-1.977c-0.015-1.254-0.127-2.482-0.372-3.719
		c-0.138-0.689-0.235-1.471,0.19-2.236c1.606,0.471,3.002,1.246,4.25,2.242c0.484-0.012,0.709-0.35,0.918-0.639
		c0.773-1.064,1.504-2.16,2.266-3.234c0.352-0.492,0.738-0.961,1.158-1.504c-0.648-1.459-1.305-2.939-1.885-4.246
		c0-0.979-0.016-1.787,0.003-2.594c0.062-2.545,0.116-5.09,0.214-7.631c0.031-0.84,0.182-1.674,0.271-2.463
		c0.295-0.342,0.578-0.674,0.928-1.08c0.17,0.285,0.324,0.465,0.389,0.672c0.654,2.092,1.29,4.189,1.936,6.283
		c0.346,1.127,0.701,2.254,1.018,3.27c-0.33,0.436-0.633,0.834-1.021,1.348c-0.127,0.975-0.127,0.975,0.262,1.811
		c0.283,0.189,0.591,0.395,0.82,0.547c1.465,0.264,2.541-0.049,2.914-1.693c-0.07-0.73-0.43-1.418-1.234-1.861
		c1.078-3.443,2.144-6.844,3.228-10.307c0.288,0.139,0.525,0.254,0.874,0.422c0.136,0.525,0.396,1.102,0.418,1.686
		c0.109,2.986,0.143,5.975,0.234,8.959c0.025,0.805,0.164,1.605,0.236,2.289c-0.727,1.574-1.394,3.018-2.078,4.498
		c1.363,1.818,2.594,3.744,4.063,5.58c1.467-0.887,2.749-1.912,4.393-2.328c0.151,0.141,0.322,0.299,0.559,0.52
		c-0.086,0.701-0.084,1.457-0.283,2.156c-0.363,1.262-0.393,2.533-0.335,3.869c0.161,0.322,0.344,0.686,0.509,1.014
		c1.086,0.578,2.39,0.352,3.38-0.557c0.785-0.721,1.159-1.678,1.384-2.666c0.223-0.98,0.318-1.992,0.417-2.994
		c0.038-0.395-0.063-0.803-0.105-1.203c-0.021-0.201-0.085-0.402-0.077-0.6c0.063-1.805-0.311-3.566-0.672-5.305
		c-0.654-3.164-1.447-6.301-2.582-9.336c-0.816-2.182-1.609-4.377-2.55-6.506c-1.218-2.76-2.562-5.465-3.874-8.184
		c-0.352-0.725-0.787-1.408-1.176-2.096c0.272-0.322,0.531-0.25,0.785-0.154c1.111,0.426,1.801,1.291,2.35,2.293
		c0.95,1.74,1.484,3.615,1.805,5.561c0.01,0.061,0.064,0.113,0.121,0.207c0.713-0.15,0.721-1.041,1.422-1.32
		c0.582,0.342,0.708,1.053,1.002,1.627c0.178,0.35,0.247,0.773,0.281,1.172c0.098,1.109,0.15,2.225,0.224,3.336
		c0.004,0.064,0.039,0.127,0.077,0.242c0.693-0.199,1.167-0.744,1.785-1.172c0.137,0.178,0.311,0.309,0.357,0.477
		c0.23,0.809,0.445,1.621,0.436,2.479c-0.016,1.496-0.004,2.99-0.004,4.619c0.939-0.639,1.47-1.611,2.541-2
		c0.861,2.369,0.447,4.678-0.275,7.082c1.282-0.219,2.059-1.277,3.234-1.742c0.127,2.338-0.43,4.379-2.049,6.096
		c0.729,0.111,1.433-0.119,4.238-1.359c0.229,0.844,0.023,1.619-0.414,2.295c-0.664,1.029-1.459,1.953-2.58,2.539
		c-0.323,0.17-0.611,0.406-1.057,0.707c0.572,0.17,1.026,0.084,1.465,0.102c0.441,0.016,0.885,0.004,1.328,0.004
		c0.472,0,0.943,0,1.501,0c-0.261,1.691-1.027,2.996-2.271,3.996c-1.189,0.957-2.496,1.742-3.992,2.156
		c-0.076,0.021-0.134,0.113-0.285,0.25c1.805,0.426,3.52,0.832,5.289,1.248c-0.359,0.813-0.957,1.389-1.695,1.801
		c-1.38,0.771-2.864,1.188-4.457,1.18c-0.301,0-0.603,0.072-0.904,0.084c-0.361,0.014-0.723,0.01-1.084-0.006
		c-0.43-0.018-0.857-0.059-1.342-0.094c0.025,0.727,0.467,1.15,0.768,1.594c0.84,1.234,1.227,2.643,1.598,4.035
		c0.449,1.684,0.771,3.408,1.033,5.133c0.363,2.391,0.232,4.811,0.214,7.219C50.148,62.576,49.995,62.936,49.866,63.49z
		 M29.604,38.008c-0.601,1.32-0.927,2.574-1.355,3.859c0.362,0.115,0.659,0.211,1.021,0.326c0.432-1.279,0.84-2.484,1.27-3.754
		C30.26,38.311,30,38.189,29.604,38.008z M33.293,38.463c0.434,1.314,0.828,2.51,1.233,3.74c0.337-0.121,0.612-0.221,0.962-0.346
		c-0.265-1.309-0.775-2.496-1.199-3.805C33.966,38.186,33.699,38.295,33.293,38.463z"/>
	<path style="fill-rule:evenodd;clip-rule:evenodd;fill:#FFFFFF;" d="M10.299,22.477c-0.89-0.705-1.6-1.27-2.35-1.863
		c-0.537,1.09-0.227,2.248-0.308,3.367c-0.083,1.166,0.177,2.279,0.548,3.482c-1.053-0.418-2.057-0.816-3.074-1.221
		c-0.373,2.037,0.383,4.316,2.089,6.309c-0.821,0.027-1.573,0.055-2.396,0.082c0.102,3.033,1.789,5.051,4.006,6.846
		c-1.23,0.328-2.414,0.643-3.609,0.961c0.019,0.775,0.48,1.266,0.891,1.727c1.643,1.842,3.701,2.895,6.178,3.109
		c0.869,0.076,1.734,0.191,2.619,0.291c-0.594,1.766-1.32,3.486-2.016,5.197c-1.607-1.057-3.135-2.041-4.643-3.057
		c-1.49-1.004-3.136-1.646-4.965-1.992c0.59-1.301,1.799-1.271,2.725-1.828c-0.33-0.451-0.852-0.619-1.281-0.879
		c-1.082-0.648-2.116-1.355-2.949-2.305c-0.733-0.836-1.41-1.725-1.67-2.977c1.419-0.049,2.803,0.004,4.322-0.035
		c-0.203-0.195-0.282-0.303-0.389-0.367C2.67,36.496,1.6,35.391,0.781,34.027c-0.662-1.1-0.977-2.25-0.654-3.563
		c1.324,0.176,2.576,0.723,4.033,0.701c-1.975-2.332-2.882-4.891-2.607-7.912c1.346,0.439,2.644,0.863,4.086,1.332
		c-0.197-0.434-0.298-0.789-0.5-1.072c-0.502-0.707-0.734-1.521-0.924-2.332c-0.198-0.85-0.313-1.727-0.258-2.617
		c0.039-0.652,0.248-1.242,0.455-1.877c0.963,0.85,1.867,1.646,2.907,2.566c-0.097-3.037-0.05-5.857,1.37-8.588
		c1.081,0.996,1.615,2.246,2.488,3.436c0.07-0.336,0.137-0.516,0.141-0.697c0.013-0.646,0.008-1.293,0.006-1.941
		c-0.006-1.572,0.367-3.074,0.892-4.539c0.114-0.322,0.385-0.588,0.623-0.938c0.544,0.832,1.017,1.553,1.589,2.43
		c0.152-0.631,0.293-1.066,0.361-1.514c0.162-1.082,0.566-2.076,0.999-3.068c0.312-0.713,0.827-1.221,1.519-1.77
		c0.217,0.66,0.408,1.244,0.638,1.945c0.886-1.303,1.583-2.639,3.096-3.355c0,0.275,0.071,0.504-0.013,0.617
		c-0.313,0.426-0.441,0.898-0.512,1.406c-0.031,0.23-0.115,0.455-0.197,0.674c-0.319,0.848-0.646,1.693-0.985,2.576
		c-0.177-0.271-0.374-0.572-0.591-0.904c-0.619-0.051-0.85,0.436-1.104,0.857c-0.582,0.963-0.969,2.01-1.194,3.109
		c-0.107,0.525-0.142,1.066-0.227,1.598c-0.025,0.154-0.114,0.299-0.219,0.563c-0.473-0.439-0.882-0.82-1.314-1.223
		c-0.819,0.797-1.065,1.809-1.319,2.826c-0.325,1.301-0.145,2.629-0.231,4.041c-0.794-0.41-0.97-1.348-1.802-1.748
		c-0.201,0.404-0.463,0.801-0.6,1.234c-0.252,0.803-0.45,1.621-0.438,2.479C10.313,19.912,10.299,21.066,10.299,22.477z"/>
	<path style="fill-rule:evenodd;clip-rule:evenodd;fill:#FFFFFF;" d="M49.035,45.564c0.951-0.102,1.85-0.232,2.754-0.285
		c1.315-0.078,2.521-0.535,3.643-1.141c1.51-0.816,2.705-2.008,3.516-3.662c-1.268-0.328-2.519-0.65-3.832-0.99
		c2.226-1.771,3.881-3.813,4.045-6.871c-0.828,0-1.592,0-2.529,0c1.802-1.838,2.364-3.922,2.32-6.338
		c-1.139,0.266-2.092,0.74-3.176,1.242c0.666-2.34,0.689-4.613,0.316-6.955c-0.821,0.641-1.557,1.215-2.449,1.912
		c0-1.467,0.037-2.721-0.01-3.973c-0.047-1.221-0.332-2.389-1.092-3.543c-0.59,0.654-1.116,1.238-1.766,1.959
		c0.025-1.998,0.107-3.836-0.607-5.564c-0.203-0.49-0.505-0.939-0.813-1.502c-0.51,0.469-0.92,0.846-1.395,1.279
		c-0.098-0.24-0.223-0.414-0.234-0.594c-0.109-1.609-0.572-3.109-1.339-4.525c-0.247-0.455-0.524-0.861-1.112-1.055
		c-0.226,0.328-0.445,0.648-0.707,1.029c-0.195-0.631-0.374-1.191-0.541-1.754c-0.18-0.611-0.597-1.113-0.648-1.803
		c-0.041-0.553-0.367-1.082-0.482-1.67c1.498,0.592,2.201,1.916,3.087,3.252c0.23-0.689,0.425-1.27,0.641-1.916
		c1.032,0.652,1.575,1.568,1.903,2.615c0.359,1.15,0.66,2.318,1.006,3.543c0.662-0.619,0.988-1.482,1.578-2.277
		c0.23,0.34,0.494,0.59,0.587,0.891c0.274,0.898,0.472,1.82,0.72,2.729c0.32,1.168,0.158,2.359,0.203,3.541
		c0.01,0.264,0.04,0.525,0.076,0.975c0.963-1.154,1.455-2.443,2.475-3.377c0.656,0.711,0.922,1.588,1.066,2.418
		c0.266,1.523,0.342,3.08,0.455,4.625c0.029,0.41-0.095,0.832-0.166,1.381c1.219-0.654,1.994-1.6,2.954-2.514
		c0.593,1.379,0.565,2.686,0.323,4.072c-0.238,1.355-0.828,2.539-1.58,3.889c1.49-0.484,2.79-0.906,4.158-1.352
		c0.29,2.979-0.6,5.535-2.53,7.809c0.69,0.322,1.317-0.096,1.954-0.152c0.658-0.057,1.298-0.318,1.955-0.492
		c0.092,0.24,0.176,0.459,0.238,0.621c-0.065,0.516-0.125,0.98-0.211,1.668c-0.674,2.006-2.199,3.578-4.257,4.895
		c0.572,0.174,1.03,0.082,1.472,0.1c0.442,0.018,0.886,0.004,1.328,0.004c0.471,0,0.941,0,1.563,0
		c-0.186,0.51-0.277,0.934-0.481,1.293c-0.94,1.662-2.304,2.902-3.942,3.859c-0.514,0.301-1.018,0.617-1.586,0.965
		c0.938,0.605,2.135,0.596,2.725,1.688c-0.162,0.125-0.298,0.316-0.461,0.342c-1.995,0.311-3.678,1.313-5.319,2.396
		c-1.21,0.801-2.402,1.629-3.675,2.494c-0.563-0.695-0.713-1.646-1.102-2.477C49.652,47.414,49.381,46.502,49.035,45.564z"/>
	<path style="fill-rule:evenodd;clip-rule:evenodd;fill:#FFFFFF;" d="M31.564,38.58c0.335,0,0.523,0,0.764,0
		c0,1.182,0,2.318,0,3.521c-0.195,0.027-0.406,0.057-0.674,0.096c-0.17-0.643-0.068-1.248-0.086-1.842
		C31.551,39.789,31.564,39.221,31.564,38.58z"/>
</g>
</svg>
