<?xml version="1.0" encoding="iso-8859-1"?>
<!-- Generator: Adobe Illustrator 16.0.0, SVG Export Plug-In . SVG Version: 6.00 Build 0)  -->
<!DOCTYPE svg PUBLIC "-//W3C//DTD SVG 1.1//EN" "http://www.w3.org/Graphics/SVG/1.1/DTD/svg11.dtd">
<svg version="1.1" id="Layer_1" xmlns="http://www.w3.org/2000/svg" xmlns:xlink="http://www.w3.org/1999/xlink" x="0px" y="0px"
	 width="64px" height="64px" viewBox="0 0 64 64" style="enable-background:new 0 0 64 64;" xml:space="preserve">
<g>
	<path style="fill-rule:evenodd;clip-rule:evenodd;fill:#30ACC3;" d="M14.863,33.757c-0.009-9.703,7.184-17.823,16.821-18.856
		c4.706-0.505,9.059,0.63,12.964,3.351c0.215,0.149,0.391,0.356,0.584,0.536c-0.307,0.108-0.493-0.141-0.714-0.258
		c-5.954-3.152-12.854-2.174-17.5,2.541c-2.419,2.455-3.793,5.428-4.098,8.876c-0.058,0.65,0.02,1.293,0.169,1.918
		c0.26,1.095,0.979,1.657,2.276,1.824c2.62,0.336,5.148-0.195,7.604-0.996c4.869-1.587,9.334-4.055,13.783-6.545
		c3.73-2.089,7.07-4.668,9.897-7.888c0.586-0.667,1.104-1.387,1.413-2.232c0.463-1.269,0.014-2.046-1.304-2.254
		c-1.973-0.312-3.825,0.279-5.695,0.75c-0.385,0.097-0.743,0.314-1.161,0.26c0.226-0.434,0.698-0.426,1.071-0.571
		c2.875-1.123,5.779-2.15,8.84-2.667c0.854-0.146,1.716-0.171,2.567-0.075c1.446,0.163,1.978,1.146,1.374,2.477
		c-0.526,1.164-1.327,2.141-2.202,3.056c-3.38,3.537-7.303,6.401-11.374,9.063c-8.106,5.3-16.573,9.903-25.776,13.041
		c-1.269,0.433-2.566,0.77-3.879,1.052c-2.689,0.578-4.662-0.626-5.356-3.284C14.899,35.847,14.882,34.804,14.863,33.757z
		 M15.167,33.782c-0.078,0.723,0.069,1.571,0.176,2.422c0.316,2.498,2.153,4.096,4.532,3.724c3.465-0.541,6.689-1.904,9.923-3.202
		c0.089-0.036,0.23-0.17,0.219-0.191c-0.081-0.159-0.217-0.075-0.332-0.033c-1.448,0.534-2.97,0.714-4.488,0.816
		c-1.536,0.104-3.068-0.045-4.427-0.869c-2.141-1.299-3.009-3.877-2.284-6.82c0.919-3.729,2.823-6.891,5.79-9.331
		c4.129-3.396,8.861-4.896,14.222-4.21c0.179,0.023,0.364-0.009,0.547-0.015c-0.063-0.269-0.325-0.236-0.496-0.28
		c-2.598-0.681-5.208-0.802-7.877-0.388C21.917,16.764,14.994,24.774,15.167,33.782z M39.728,16.148
		c-0.092-0.009-0.164-0.016-0.235-0.022c-0.002,0.04-0.017,0.106-0.002,0.113c0.043,0.021,0.101,0.032,0.147,0.021
		C39.667,16.254,39.687,16.203,39.728,16.148z M30.575,36.283c-0.041,0.016-0.082,0.03-0.122,0.045
		c0.036,0.018,0.07,0.039,0.108,0.05c0.018,0.005,0.042-0.012,0.063-0.019C30.608,36.335,30.592,36.311,30.575,36.283z"/>
	<path style="fill-rule:evenodd;clip-rule:evenodd;fill:#30ACC3;" d="M45.699,48.263c-2.376,2.09-5.161,3.378-8.24,3.949
		c-6.765,1.256-12.568-0.662-17.404-5.524c-0.375-0.377-0.631-0.392-1.09-0.176c-4.299,2.023-8.655,3.904-13.307,4.991
		c-1.29,0.302-2.589,0.468-3.914,0.359c-1.534-0.126-2.142-1.127-1.477-2.512c1.011-2.108,2.721-3.645,4.408-5.183
		c1.428-1.303,2.939-2.511,4.499-3.654c0.172-0.127,0.316-0.374,0.602-0.285c-0.163,0.173-0.317,0.356-0.492,0.516
		c-1.21,1.105-2.409,2.223-3.377,3.558c-0.364,0.502-0.687,1.027-0.875,1.623c-0.368,1.162,0.052,1.889,1.257,2.111
		c2.055,0.379,3.996-0.234,5.925-0.783c2.48-0.704,4.872-1.664,7.204-2.762c0.801-0.377,1.405-0.3,2.126,0.259
		c4.588,3.551,9.498,3.665,14.599,1.221c1.556-0.746,3.026-1.631,4.235-2.888c0.89-0.925,1.604-1.956,1.739-3.28
		c0.155-1.52-0.705-2.47-2.232-2.5c-1.388-0.027-2.613,0.548-3.849,1.059c-2.285,0.944-4.598,1.795-7.034,2.268
		c-0.184,0.035-0.369,0.08-0.555,0.093c-0.127,0.01-0.363-0.01-0.371-0.048c-0.044-0.251,0.196-0.183,0.323-0.231
		c2.827-1.1,5.594-2.333,8.313-3.677c6.579-3.251,12.877-6.975,18.843-11.253c0.151-0.109,0.318-0.196,0.479-0.293
		c0.039,0.044,0.077,0.089,0.115,0.133c-0.198,0.18-0.381,0.38-0.596,0.535c-3.086,2.244-6.316,4.267-9.574,6.249
		c-1.296,0.789-2.695,1.402-3.905,2.335c-0.146,0.018-0.318-0.03-0.396,0.151c-0.011,0.023,0.038,0.102,0.065,0.105
		c0.187,0.025,0.276-0.096,0.341-0.246c1.026-0.132,1.909-0.675,2.866-1.006c1.094-0.378,1.753,0.016,2.006,1.132
		c0.235,1.039,0.163,2.085,0.145,3.127c-0.048,2.776-0.978,5.279-3.002,7.149c-4.982,4.605-10.894,6.002-17.502,4.649
		c-1.56-0.319-2.968-1.059-4.464-1.554c-0.045-0.193-0.176-0.273-0.364-0.283c-0.009-0.019-0.014-0.041-0.027-0.056
		c-0.007-0.009-0.028-0.005-0.043-0.007c0.026,0.018,0.053,0.035,0.079,0.054c-0.021,0.215,0.099,0.313,0.291,0.354
		c0.994,1.007,2.216,1.668,3.467,2.285c4.802,2.367,9.722,2.529,14.735,0.766c1.938-0.682,3.646-1.791,5.309-2.973
		C45.619,48.168,45.659,48.215,45.699,48.263z"/>
	<path style="fill-rule:evenodd;clip-rule:evenodd;fill:#30ACC3;" d="M55.837,26.32c-0.699,0.853-1.533,1.567-2.376,2.266
		c-0.79,0.656-1.126,1.435-0.988,2.472c0.588,4.397-0.243,8.518-2.51,12.339c-0.107,0.183-0.247,0.346-0.372,0.518
		c-0.051-0.045-0.103-0.09-0.153-0.134c0.044-0.126,0.063-0.267,0.133-0.377c2.392-3.785,3.089-7.915,2.522-12.306
		c-0.097-0.744-0.036-1.473,0.492-2.044c0.963-1.042,2.019-1.989,3.14-2.861C55.762,26.235,55.8,26.277,55.837,26.32z"/>
	<path style="fill-rule:evenodd;clip-rule:evenodd;fill:#30ACC3;" d="M56.034,25.22c0.898-0.722,1.796-1.443,2.696-2.162
		c0.073-0.058,0.168-0.089,0.252-0.133c-0.05,0.09-0.089,0.188-0.151,0.269c-0.73,0.927-1.52,1.799-2.424,2.563
		c-0.032-0.029-0.064-0.06-0.095-0.089c0.079-0.173,0.108-0.321-0.163-0.313C56.111,25.309,56.073,25.264,56.034,25.22z"/>
	<path style="fill-rule:evenodd;clip-rule:evenodd;fill:#30ACC3;" d="M48.216,45.77c-0.689,0.981-1.528,1.813-2.517,2.493
		c-0.04-0.048-0.08-0.095-0.119-0.142c0.842-0.819,1.683-1.639,2.523-2.458C48.141,45.699,48.179,45.734,48.216,45.77z"/>
	<path style="fill-rule:evenodd;clip-rule:evenodd;fill:#30ACC3;" d="M49.591,43.914c-0.357,0.693-0.801,1.322-1.375,1.855
		c-0.037-0.035-0.075-0.07-0.112-0.105c0.388-0.669,0.788-1.327,1.334-1.884C49.488,43.824,49.54,43.869,49.591,43.914z"/>
	<path style="fill-rule:evenodd;clip-rule:evenodd;fill:#30ACC3;" d="M56.407,25.756c-0.08,0.082-0.16,0.163-0.24,0.245
		c-0.037-0.039-0.075-0.078-0.112-0.117c0.086-0.072,0.171-0.145,0.257-0.217C56.343,25.696,56.375,25.727,56.407,25.756z"/>
	<path style="fill-rule:evenodd;clip-rule:evenodd;fill:#30ACC3;" d="M56.167,26.001c-0.055,0.053-0.108,0.105-0.163,0.158
		c-0.039-0.039-0.077-0.078-0.116-0.117c0.056-0.053,0.111-0.105,0.166-0.158C56.092,25.923,56.13,25.962,56.167,26.001z"/>
	<path style="fill-rule:evenodd;clip-rule:evenodd;fill:#30ACC3;" d="M56.004,26.159c-0.056,0.054-0.111,0.107-0.167,0.161
		c-0.037-0.043-0.075-0.085-0.112-0.128c0.055-0.05,0.109-0.1,0.163-0.15C55.927,26.081,55.965,26.12,56.004,26.159z"/>
	<path style="fill-rule:evenodd;clip-rule:evenodd;fill:#0C4C80;" d="M15.167,33.782c-0.173-9.008,6.749-17.019,15.504-18.378
		c2.669-0.414,5.28-0.293,7.877,0.388c0.171,0.044,0.433,0.012,0.496,0.28c-0.183,0.006-0.368,0.038-0.547,0.015
		c-5.36-0.687-10.093,0.813-14.222,4.21c-2.967,2.44-4.87,5.602-5.79,9.331c-0.726,2.943,0.143,5.521,2.284,6.82
		c1.358,0.824,2.891,0.973,4.427,0.869c1.519-0.103,3.04-0.282,4.488-0.816c0.115-0.042,0.251-0.126,0.332,0.033
		c0.011,0.021-0.13,0.155-0.219,0.191c-3.234,1.298-6.458,2.661-9.923,3.202c-2.378,0.372-4.216-1.226-4.532-3.724
		C15.236,35.354,15.09,34.505,15.167,33.782z"/>
	<path style="fill-rule:evenodd;clip-rule:evenodd;fill:#0C4C80;" d="M39.728,16.148c-0.041,0.055-0.061,0.105-0.09,0.112
		c-0.047,0.011-0.104-0.001-0.147-0.021c-0.015-0.007,0-0.073,0.002-0.113C39.563,16.133,39.636,16.14,39.728,16.148z"/>
	<path style="fill-rule:evenodd;clip-rule:evenodd;fill:#0C4C80;" d="M30.575,36.285c0.017,0.025,0.033,0.05,0.05,0.074
		c-0.021,0.007-0.045,0.023-0.063,0.019c-0.038-0.011-0.073-0.032-0.108-0.05C30.494,36.313,30.534,36.299,30.575,36.285z"/>
	<path style="fill-rule:evenodd;clip-rule:evenodd;fill:#0C4C80;" d="M55.888,26.042c-0.054,0.051-0.108,0.101-0.163,0.15
		c-1.121,0.872-2.177,1.819-3.14,2.861c-0.528,0.571-0.589,1.3-0.492,2.044c0.566,4.391-0.131,8.521-2.522,12.306
		c-0.069,0.11-0.089,0.251-0.133,0.377c-0.546,0.557-0.946,1.215-1.334,1.884c-0.841,0.818-1.682,1.638-2.523,2.457
		c-1.663,1.181-3.37,2.29-5.309,2.972c-5.014,1.764-9.934,1.602-14.735-0.766c-1.251-0.617-2.473-1.278-3.467-2.285
		c0.021-0.021,0.042-0.042,0.065-0.063c1.496,0.496,2.903,1.235,4.463,1.555c6.609,1.353,12.52-0.044,17.502-4.649
		c2.024-1.87,2.954-4.373,3.002-7.149c0.019-1.042,0.091-2.088-0.145-3.127c-0.253-1.116-0.912-1.51-2.006-1.132
		c-0.957,0.331-1.84,0.874-2.866,1.006l-0.011-0.011c1.21-0.933,2.609-1.546,3.905-2.335c3.258-1.982,6.488-4.005,9.574-6.249
		c0.215-0.155,0.397-0.355,0.596-0.535c0.271-0.007,0.242,0.142,0.163,0.314c-0.087,0.072-0.172,0.145-0.258,0.217
		C55.999,25.937,55.943,25.989,55.888,26.042z"/>
	<path style="fill-rule:evenodd;clip-rule:evenodd;fill:#0C4C80;" d="M42.085,34.482c-0.064,0.15-0.154,0.271-0.341,0.246
		c-0.027-0.004-0.076-0.082-0.065-0.105c0.077-0.182,0.25-0.134,0.396-0.151L42.085,34.482z"/>
	<path style="fill-rule:evenodd;clip-rule:evenodd;fill:#0C4C80;" d="M21.769,47.697c0.188,0.01,0.319,0.09,0.364,0.283
		c-0.022,0.02-0.043,0.04-0.064,0.062c-0.192-0.04-0.312-0.139-0.291-0.354L21.769,47.697z"/>
	<path style="fill-rule:evenodd;clip-rule:evenodd;fill:#0C4C80;" d="M21.778,47.688c-0.026-0.019-0.053-0.036-0.079-0.054
		c0.015,0.002,0.036-0.002,0.043,0.007c0.013,0.015,0.019,0.037,0.027,0.056L21.778,47.688z"/>
</g>
</svg>
