<?xml version="1.0" encoding="iso-8859-1"?>
<!-- Generator: Adobe Illustrator 16.0.0, SVG Export Plug-In . SVG Version: 6.00 Build 0)  -->
<!DOCTYPE svg PUBLIC "-//W3C//DTD SVG 1.1//EN" "http://www.w3.org/Graphics/SVG/1.1/DTD/svg11.dtd">
<svg version="1.1" id="Layer_1" xmlns="http://www.w3.org/2000/svg" xmlns:xlink="http://www.w3.org/1999/xlink" x="0px" y="0px"
	 width="64px" height="64px" viewBox="0 0 64 64" style="enable-background:new 0 0 64 64;" xml:space="preserve">
<g>
	<path style="fill-rule:evenodd;clip-rule:evenodd;fill:#2D97D2;" d="M57.902,40.939c0,0.017,0,0.033,0,0.05
		c-0.08,0.1-0.162,0.201-0.244,0.303c-1.891,2.323-3.781,4.646-5.672,6.969c-0.246,0.304-0.494,0.608-0.74,0.912
		c-0.035,0.044-0.086,0.084-0.088,0.144c-0.006,0.145-0.027,0.292,0.016,0.435c0.121,0.054,0.236-0.01,0.357-0.011
		c0.031,0,0.063-0.014,0.096-0.019c0.186-0.027,0.197-0.018,0.201,0.162c0,0.025,0,0.049,0,0.073c0,2.645,0,5.289,0,7.934
		c0,0.057,0,0.114-0.002,0.171c-0.002,0.047-0.027,0.075-0.072,0.086c-0.039,0.01-0.078,0.02-0.119,0.026
		c-0.348,0.05-0.695,0.101-1.041,0.15c-0.734,0.105-1.471,0.208-2.203,0.314c-0.848,0.122-1.695,0.249-2.543,0.371
		c-0.734,0.106-1.469,0.209-2.203,0.315c-0.775,0.11-1.551,0.222-2.326,0.336c-0.178,0.027-0.354,0.047-0.527,0.1
		c-0.705,0.218-1.43,0.331-2.166,0.367c-0.822,0.041-1.629-0.053-2.41-0.322c-0.107-0.037-0.195-0.034-0.295,0.036
		c-0.402,0.279-0.842,0.499-1.297,0.677c-0.633,0.25-1.291,0.406-1.965,0.5c-0.41,0.058-0.826,0.091-1.242,0.083
		c-0.682-0.011-1.352-0.104-1.998-0.33c-0.084-0.03-0.152-0.025-0.225,0.026c-0.209,0.144-0.428,0.27-0.654,0.385
		c-1.033,0.527-2.135,0.798-3.287,0.875c-0.262,0.017-0.523,0.021-0.783,0.051c-0.379,0.042-0.758,0.101-1.137,0.155
		c-0.857,0.123-1.711,0.246-2.568,0.369c-0.848,0.121-1.695,0.24-2.543,0.362c-0.961,0.139-1.922,0.282-2.881,0.42
		c-0.848,0.123-1.695,0.239-2.543,0.366c-0.117,0.018-0.246,0.009-0.352,0.083c-0.051,0-0.1,0-0.148,0
		c-0.004-0.105-0.012-0.211-0.012-0.317c-0.002-3.143-0.002-6.286-0.002-9.429c0-0.074-0.002-0.148,0-0.221
		c0.006-0.08-0.021-0.141-0.084-0.192c-0.094-0.077-0.186-0.158-0.277-0.238c-1.439-1.231-2.879-2.462-4.318-3.693
		c-0.465-0.397-0.93-0.795-1.395-1.194c-0.045-0.039-0.109-0.068-0.111-0.149c0.033-0.011,0.064-0.026,0.094-0.03
		c0.26-0.038,0.52-0.074,0.775-0.111c0.639-0.091,1.277-0.184,1.916-0.277c0.605-0.087,1.211-0.174,1.816-0.262
		c0.637-0.092,1.275-0.185,1.914-0.276c0.613-0.089,1.227-0.177,1.84-0.265c0.615-0.088,1.227-0.176,1.84-0.265
		c0.639-0.092,1.277-0.185,1.916-0.276c0.475-0.069,0.951-0.137,1.428-0.206c0.051-0.008,0.109-0.011,0.15-0.071
		c-0.051-0.044-0.092-0.083-0.135-0.118c-0.936-0.741-1.852-1.503-2.744-2.292c-1.471-1.298-2.875-2.662-4.164-4.143
		c-0.969-1.109-1.861-2.274-2.637-3.526c-0.768-1.24-1.406-2.54-1.854-3.931c-0.307-0.951-0.512-1.924-0.596-2.919
		c-0.061-0.733-0.055-1.467,0.021-2.2c0.078-0.75,0.225-1.484,0.439-2.205c0.424-1.411,1.082-2.709,1.912-3.922
		c0.82-1.2,1.646-2.395,2.465-3.595c1.203-1.767,2.4-3.54,3.639-5.285c1.242-1.751,2.52-3.476,3.906-5.118
		c0.953-1.129,1.953-2.217,3.045-3.216c0.803-0.734,1.648-1.414,2.57-1.994c0.791-0.498,1.623-0.906,2.516-1.188
		c0.807-0.254,1.643-0.359,2.477-0.456c0.373-0.043,0.748-0.068,1.121-0.101c0.035-0.003,0.063-0.012,0.074-0.049
		c0.734,0,1.469,0,2.203,0c0.023,0.062,0.08,0.047,0.123,0.051c0.701,0.053,1.396,0.145,2.082,0.294
		c1.311,0.286,2.549,0.755,3.697,1.451c1.594,0.967,2.859,2.264,3.844,3.84c0.355,0.568,0.678,1.154,0.984,1.75
		c0.869,1.693,1.617,3.439,2.307,5.212c1.121,2.876,2.076,5.806,2.871,8.788c0.717,2.69,1.303,5.407,1.643,8.174
		c0.094,0.77,0.172,1.541,0.217,2.315c0.041,0.7,0.07,1.402,0.051,2.104c-0.016,0.587-0.055,1.174-0.146,1.755
		c-0.23,1.418-0.711,2.744-1.445,3.979c-0.486,0.817-1.063,1.565-1.709,2.261c-0.051,0.052-0.117,0.091-0.129,0.172
		c0.018,0.004,0.031,0.013,0.047,0.011c0.459-0.065,0.92-0.132,1.379-0.198c0.629-0.091,1.26-0.183,1.889-0.274
		c0.629-0.091,1.26-0.182,1.891-0.273c0.613-0.088,1.227-0.177,1.84-0.266c0.516-0.074,1.031-0.15,1.551-0.224
		C57.322,41.018,57.611,40.979,57.902,40.939z M46.74,41.976c0.018-0.015,0.037-0.03,0.055-0.044
		c0.018-0.015,0.033-0.031,0.051-0.046c0.051-0.04,0.105-0.076,0.154-0.121c0.283-0.271,0.555-0.552,0.818-0.844
		c0.809-0.91,1.469-1.915,1.938-3.041c0.447-1.072,0.697-2.192,0.744-3.351c0.031-0.767,0.023-1.534-0.027-2.301
		c-0.041-0.595-0.09-1.188-0.152-1.779c-0.088-0.819-0.211-1.634-0.344-2.447c-0.209-1.288-0.471-2.566-0.768-3.838
		c-0.479-2.059-1.039-4.095-1.676-6.111c-0.877-2.771-1.863-5.502-3.057-8.154c-0.465-1.028-0.959-2.039-1.541-3.005
		c-0.693-1.152-1.57-2.145-2.631-2.972c-0.779-0.605-1.629-1.088-2.539-1.461c-1.133-0.463-2.313-0.74-3.529-0.862
		c-0.26-0.026-0.52-0.034-0.779-0.057c-0.727-0.065-1.453-0.02-2.178,0.031c-0.494,0.034-0.988,0.101-1.482,0.174
		c-0.615,0.092-1.213,0.245-1.791,0.477c-0.977,0.394-1.861,0.944-2.695,1.579c-1.029,0.783-1.961,1.675-2.844,2.617
		c-1.029,1.098-1.982,2.256-2.902,3.445c-1.09,1.408-2.129,2.852-3.143,4.315c-1.043,1.511-2.072,3.032-3.109,4.547
		c-0.701,1.024-1.406,2.045-2.109,3.067c-0.57,0.831-1.061,1.704-1.439,2.638c-0.451,1.114-0.713,2.271-0.785,3.47
		c-0.041,0.703,0,1.404,0.102,2.099c0.131,0.9,0.365,1.773,0.688,2.623c0.465,1.235,1.092,2.388,1.816,3.489
		c0.012,0.021,0.027,0.042,0.043,0.059c0.012,0.01,0.027,0.02,0.041,0.02c0.033,0,0.035-0.028,0.037-0.051
		c0.033-0.497,0.084-0.992,0.145-1.486c0.094-0.786,0.229-1.565,0.4-2.338c0.357-1.624,0.883-3.191,1.59-4.696
		c1.061-2.261,2.482-4.272,4.215-6.065c0.881-0.912,1.828-1.75,2.832-2.521c1.406-1.082,2.881-2.062,4.414-2.951
		c1.549-0.897,3.15-1.689,4.803-2.377c1.914-0.797,3.879-1.448,5.896-1.939c0.926-0.226,1.859-0.423,2.805-0.567
		c0.41-0.063,0.82-0.126,1.232-0.177c0.357-0.044,0.717-0.07,1.072-0.103c0.057-0.005,0.115-0.003,0.172-0.002
		c0.045,0.001,0.078,0.027,0.084,0.072c0.01,0.056,0.016,0.113,0.018,0.17c0.016,0.556,0.078,1.106,0.15,1.656
		c0.127,0.94,0.336,1.861,0.629,2.764c0.412,1.28,0.998,2.48,1.684,3.635c0.486,0.822,1.01,1.62,1.531,2.421
		c0.488,0.753,0.938,1.531,1.338,2.335c0.605,1.216,1.098,2.476,1.48,3.778c0.502,1.707,0.789,3.45,0.877,5.225
		c0.047,0.972,0.018,1.942-0.096,2.909c-0.098,0.828-0.252,1.645-0.49,2.445c-0.355,1.197-0.859,2.326-1.586,3.347
		c-0.037,0.053-0.068,0.111-0.102,0.167c-0.014,0.016-0.027,0.033-0.041,0.05c-0.014,0.019-0.027,0.038-0.039,0.057
		c-0.02,0.016-0.045,0.032-0.01,0.054C46.711,42.007,46.729,41.986,46.74,41.976z M39.246,17.399
		c-0.078-0.028-0.145,0.019-0.211,0.038c-2.457,0.698-4.887,1.48-7.281,2.365c-2.26,0.833-4.484,1.747-6.668,2.762
		c-1.926,0.896-3.816,1.854-5.633,2.957c-0.041,0.024-0.078,0.06-0.143,0.047c-0.004-0.219,0.057-0.432,0.09-0.647
		c0.033-0.218,0.072-0.434,0.113-0.65c0.041-0.216,0.092-0.431,0.135-0.647c0.043-0.211,0.125-0.414,0.141-0.674
		c-0.064,0.061-0.1,0.09-0.131,0.125c-0.121,0.144-0.24,0.288-0.359,0.434c-0.793,0.991-1.465,2.061-2.053,3.185
		c-0.623,1.188-1.141,2.421-1.576,3.688c-0.387,1.119-0.709,2.256-0.953,3.416c-0.031,0.155-0.031,0.304,0.012,0.458
		c0.076,0.284,0.16,0.565,0.26,0.841c0.201,0.562,0.441,1.106,0.703,1.642c0.596,1.21,1.281,2.368,2.008,3.502
		c1.041,1.623,2.16,3.19,3.32,4.729c0.354,0.471,0.734,0.917,1.166,1.319c0.346,0.321,0.701,0.637,1.115,0.875
		c0.033,0.019,0.072,0.036,0.08,0.083c-0.08,0.045-0.172,0.048-0.26,0.062c-0.379,0.052-0.76,0.106-1.139,0.161
		c-0.531,0.077-1.064,0.154-1.596,0.232c-0.396,0.057-0.791,0.116-1.186,0.173c-0.389,0.056-0.775,0.111-1.162,0.167
		c-0.389,0.056-0.775,0.111-1.164,0.167c-0.41,0.059-0.822,0.12-1.234,0.179c-0.395,0.058-0.789,0.115-1.186,0.172
		c-0.49,0.072-0.984,0.144-1.475,0.215c-0.396,0.057-0.793,0.111-1.188,0.167c-0.525,0.076-1.049,0.152-1.574,0.229
		c-0.299,0.044-0.596,0.089-0.895,0.136c-0.035,0.005-0.086-0.005-0.094,0.051c0.021,0.059,0.074,0.087,0.115,0.123
		c0.342,0.293,0.684,0.584,1.023,0.876c1,0.854,1.996,1.709,2.994,2.563c0.26,0.22,0.26,0.219,0.26,0.554c0,2.825,0,5.649,0,8.475
		c0,0.081,0,0.163,0.004,0.244c0.002,0.075,0.031,0.095,0.113,0.084c0.225-0.031,0.449-0.064,0.678-0.096
		c0.41-0.061,0.82-0.12,1.234-0.179c0.49-0.072,0.982-0.142,1.477-0.214c0.508-0.074,1.016-0.149,1.525-0.223
		c0.506-0.073,1.016-0.142,1.523-0.216c0.613-0.088,1.227-0.183,1.84-0.271c0.508-0.072,1.018-0.139,1.527-0.207
		c0.072-0.009,0.113-0.036,0.129-0.117c0.023-0.127,0.031-0.125,0.162-0.104c0.291,0.046,0.58,0.077,0.875,0.076
		c0.469-0.001,0.93-0.053,1.387-0.14c1.086-0.204,2.078-0.61,2.912-1.356c0.074-0.068,0.135-0.064,0.217-0.018
		c0.674,0.367,1.404,0.515,2.164,0.533c0.246,0.006,0.488-0.011,0.732-0.033c0.539-0.047,1.066-0.148,1.582-0.308
		c0.758-0.235,1.445-0.598,2.037-1.133c0.023-0.021,0.047-0.046,0.072-0.064c0.027-0.02,0.061-0.031,0.094-0.015
		c0.029,0.014,0.057,0.03,0.086,0.045c0.652,0.352,1.354,0.516,2.09,0.534c0.326,0.007,0.652-0.001,0.977-0.04
		c0.537-0.064,1.063-0.17,1.576-0.341c0.135-0.044,0.266-0.125,0.422-0.063c0.025,0.01,0.063-0.002,0.094-0.007
		c0.566-0.082,1.131-0.163,1.697-0.245c0.846-0.125,1.691-0.251,2.539-0.374c0.734-0.106,1.469-0.208,2.205-0.312
		c0.789-0.113,1.58-0.228,2.371-0.342c0.137-0.02,0.273-0.039,0.41-0.063c0.086-0.016,0.107-0.046,0.113-0.134
		c0.002-0.105,0-0.212,0-0.318c0-1.657,0-3.314,0-4.972c0-0.081-0.002-0.163-0.008-0.244c-0.004-0.034-0.031-0.06-0.068-0.056
		c-0.113,0.011-0.227,0.027-0.342,0.041c-0.055,0.006-0.111,0.017-0.168,0.02c-0.045,0.003-0.078-0.018-0.084-0.068
		c-0.004-0.048-0.006-0.098-0.006-0.147c0-0.71,0.002-1.42-0.002-2.131c0-0.131,0.039-0.232,0.119-0.333
		c1.074-1.315,2.145-2.632,3.217-3.95c0.488-0.601,0.979-1.203,1.467-1.805c0.027-0.033,0.08-0.062,0.047-0.134
		c-4.045,0.584-8.092,1.168-12.146,1.754c0.008-0.03,0.008-0.049,0.018-0.06c0.039-0.041,0.08-0.082,0.121-0.12
		c0.436-0.396,0.83-0.833,1.197-1.292c0.916-1.146,1.602-2.419,2.1-3.795c0.404-1.117,0.678-2.266,0.844-3.44
		c0.084-0.599,0.152-1.199,0.176-1.801c0.043-1.142,0.041-2.284-0.078-3.424c-0.063-0.609-0.141-1.215-0.25-1.817
		c-0.025-0.148-0.074-0.282-0.154-0.407c-0.229-0.349-0.463-0.693-0.709-1.028c-0.938-1.263-1.992-2.417-3.135-3.498
		c-1.211-1.146-2.496-2.203-3.842-3.187c-0.486-0.357-0.982-0.701-1.488-1.031c-0.107-0.071-0.107-0.092-0.027-0.19
		c0.031-0.039,0.063-0.075,0.098-0.111c0.555-0.631,1.156-1.219,1.771-1.793C39.189,17.48,39.234,17.456,39.246,17.399z"/>
	<path style="fill-rule:evenodd;clip-rule:evenodd;fill:#01263E;" d="M39.246,17.399c-0.012,0.056-0.057,0.081-0.092,0.113
		c-0.615,0.574-1.217,1.162-1.771,1.793c-0.035,0.036-0.066,0.072-0.098,0.111c-0.08,0.098-0.08,0.12,0.027,0.19
		c0.506,0.33,1.002,0.674,1.488,1.031c1.346,0.983,2.631,2.041,3.842,3.187c1.143,1.08,2.197,2.234,3.135,3.498
		c0.246,0.334,0.48,0.679,0.709,1.028c0.08,0.125,0.129,0.259,0.154,0.407c0.109,0.602,0.188,1.208,0.25,1.817
		c0.119,1.14,0.121,2.282,0.078,3.424c-0.023,0.603-0.092,1.203-0.176,1.801c-0.166,1.175-0.439,2.323-0.844,3.44
		c-0.498,1.376-1.184,2.649-2.1,3.795c-0.367,0.459-0.762,0.897-1.197,1.292c-0.041,0.038-0.082,0.079-0.121,0.12
		c-0.01,0.011-0.01,0.03-0.018,0.06c4.055-0.585,8.102-1.17,12.146-1.754c0.033,0.072-0.02,0.101-0.047,0.134
		c-0.488,0.603-0.979,1.204-1.467,1.805c-1.072,1.317-2.143,2.635-3.217,3.95c-0.08,0.1-0.119,0.201-0.119,0.333
		c0.004,0.711,0.002,1.421,0.002,2.131c0,0.049,0.002,0.099,0.006,0.147c0.006,0.05,0.039,0.071,0.084,0.068
		c0.057-0.003,0.113-0.014,0.168-0.02c0.115-0.014,0.229-0.03,0.342-0.041c0.037-0.004,0.064,0.022,0.068,0.056
		c0.006,0.081,0.008,0.163,0.008,0.244c0,1.658,0,3.315,0,4.972c0,0.106,0.002,0.212,0,0.318c-0.006,0.088-0.027,0.119-0.113,0.134
		c-0.137,0.025-0.273,0.044-0.41,0.063c-0.791,0.114-1.582,0.229-2.371,0.342c-0.736,0.104-1.471,0.206-2.205,0.312
		c-0.848,0.123-1.693,0.249-2.539,0.374c-0.566,0.083-1.131,0.163-1.697,0.245c-0.031,0.005-0.068,0.018-0.094,0.007
		c-0.156-0.063-0.287,0.018-0.422,0.063c-0.514,0.171-1.039,0.277-1.576,0.341c-0.324,0.039-0.65,0.047-0.977,0.04
		c-0.736-0.018-1.438-0.182-2.09-0.534c-0.029-0.015-0.057-0.031-0.086-0.045c-0.033-0.016-0.066-0.005-0.094,0.015
		c-0.025,0.019-0.049,0.043-0.072,0.064c-0.592,0.536-1.279,0.898-2.037,1.133c-0.516,0.16-1.043,0.26-1.582,0.308
		c-0.244,0.021-0.486,0.039-0.732,0.033c-0.76-0.018-1.49-0.166-2.164-0.533c-0.082-0.046-0.143-0.05-0.217,0.018
		c-0.834,0.746-1.826,1.152-2.912,1.356c-0.457,0.086-0.918,0.138-1.387,0.14c-0.295,0.001-0.584-0.03-0.875-0.076
		c-0.131-0.021-0.139-0.023-0.162,0.104c-0.016,0.081-0.057,0.107-0.129,0.117c-0.51,0.068-1.02,0.134-1.527,0.207
		c-0.613,0.088-1.227,0.182-1.84,0.271c-0.508,0.074-1.018,0.143-1.523,0.216c-0.51,0.073-1.018,0.148-1.525,0.223
		c-0.494,0.072-0.986,0.142-1.477,0.214c-0.414,0.059-0.824,0.119-1.234,0.179c-0.229,0.032-0.453,0.065-0.678,0.096
		c-0.082,0.011-0.111-0.009-0.113-0.084c-0.004-0.082-0.004-0.163-0.004-0.244c0-2.825,0-5.65,0-8.475c0-0.335,0-0.333-0.26-0.554
		c-0.998-0.854-1.994-1.708-2.994-2.563c-0.34-0.292-0.682-0.583-1.023-0.876c-0.041-0.036-0.094-0.064-0.115-0.123
		c0.008-0.057,0.059-0.046,0.094-0.051c0.299-0.047,0.596-0.092,0.895-0.136c0.525-0.077,1.049-0.153,1.574-0.229
		c0.395-0.056,0.791-0.11,1.188-0.167c0.49-0.071,0.984-0.143,1.475-0.215c0.396-0.057,0.791-0.114,1.186-0.172
		c0.412-0.059,0.824-0.12,1.234-0.179c0.389-0.056,0.775-0.111,1.164-0.167c0.387-0.056,0.773-0.111,1.162-0.167
		c0.395-0.057,0.789-0.116,1.186-0.173c0.531-0.078,1.064-0.155,1.596-0.232c0.379-0.055,0.76-0.109,1.139-0.161
		c0.088-0.014,0.18-0.017,0.26-0.062c-0.008-0.047-0.047-0.064-0.08-0.083c-0.414-0.238-0.77-0.554-1.115-0.875
		c-0.432-0.402-0.813-0.848-1.166-1.319c-1.16-1.539-2.279-3.106-3.32-4.729c-0.727-1.134-1.412-2.292-2.008-3.502
		c-0.262-0.535-0.502-1.08-0.703-1.642c-0.1-0.276-0.184-0.558-0.26-0.841c-0.043-0.155-0.043-0.304-0.012-0.458
		c0.244-1.16,0.566-2.297,0.953-3.416c0.436-1.267,0.953-2.5,1.576-3.688c0.588-1.124,1.26-2.193,2.053-3.185
		c0.119-0.146,0.238-0.29,0.359-0.434c0.031-0.035,0.066-0.065,0.131-0.125c-0.016,0.261-0.098,0.463-0.141,0.674
		c-0.043,0.216-0.094,0.431-0.135,0.647c-0.041,0.216-0.08,0.432-0.113,0.65c-0.033,0.216-0.094,0.428-0.09,0.647
		c0.064,0.013,0.102-0.022,0.143-0.047c1.816-1.103,3.707-2.061,5.633-2.957c2.184-1.016,4.408-1.929,6.668-2.762
		c2.395-0.884,4.824-1.667,7.281-2.365C39.102,17.418,39.168,17.372,39.246,17.399z M39.631,23.551
		c-0.008-0.024-0.023-0.039-0.051-0.041c-0.018-0.035-0.045-0.057-0.084-0.064c-0.035-0.033-0.068-0.07-0.105-0.1
		c-0.594-0.469-1.197-0.923-1.809-1.367c-0.033-0.024-0.072-0.041-0.105-0.06c-0.023-0.021-0.045-0.047-0.072-0.065
		c-0.6-0.417-1.199-0.833-1.801-1.249c-0.1-0.07-0.207-0.129-0.303-0.204c-0.105-0.083-0.209-0.103-0.34-0.053
		c-0.141,0.057-0.293,0.09-0.439,0.138c-0.223,0.074-0.451,0.13-0.666,0.228c-0.086-0.003-0.158,0.038-0.234,0.064
		c-2.223,0.76-4.375,1.684-6.473,2.739c-0.064,0.033-0.123,0.077-0.186,0.115c-0.045,0.018-0.094,0.032-0.135,0.054
		c-0.262,0.135-0.52,0.27-0.777,0.409c-0.223,0.12-0.188,0.102-0.123,0.298c0.535,1.623,1.574,2.805,3.119,3.539
		c0.037,0.018,0.072,0.043,0.121,0.02c-0.002-0.021-0.002-0.044-0.01-0.064c-0.012-0.029-0.031-0.056-0.047-0.083
		c-0.045-0.156-0.094-0.312-0.133-0.469c-0.084-0.338-0.1-0.676,0.01-1.013c0.178-0.549,0.592-0.856,1.166-0.864
		c0.082-0.001,0.162,0.022,0.256-0.015c-0.152-0.432-0.338-0.854-0.41-1.312c0.055,0.053,0.098,0.11,0.139,0.171
		c0.299,0.437,0.629,0.85,0.975,1.252c0.314,0.366,0.682,0.677,1.029,1.01c0.887,0.852,1.881,1.554,2.955,2.149
		c0.086,0.047,0.176,0.084,0.264,0.125c0.055,0.049,0.111,0.095,0.191,0.082c0.025-0.041,0.016-0.081,0.01-0.12
		c-0.051-0.314-0.082-0.631-0.113-0.947c-0.08-0.79-0.104-1.579,0.016-2.367c0.098-0.66,0.295-1.286,0.605-1.876
		c0.027-0.047,0.037-0.113,0.111-0.126c0,0.023,0.006,0.046,0.002,0.067c-0.064,0.461-0.09,0.925-0.068,1.391
		c0.006,0.155,0.027,0.309,0.041,0.463c0.004,0.034,0.049,0.055,0.072,0.033c0.043-0.038,0.08-0.08,0.121-0.119
		c0.068-0.043,0.135-0.088,0.203-0.128c0.369-0.212,0.76-0.304,1.186-0.23c0.162,0.028,0.305,0.101,0.453,0.159
		c0.439,0.307,0.682,0.737,0.783,1.252c0.043,0.215,0.068,0.435,0.068,0.656c-0.002,0.212,0,0.423,0,0.635
		c-0.002,0.103,0.004,0.116,0.07,0.105c0.057-0.008,0.113-0.018,0.168-0.032c0.424-0.102,0.818-0.271,1.191-0.497
		c0.271-0.165,0.525-0.354,0.77-0.56c0.055-0.047,0.111-0.094,0.17-0.137c0.023-0.017,0.057,0.002,0.061,0.021
		c0.006,0.056,0.006,0.114,0.006,0.17c0,0.628,0,1.255,0,1.882c0,0.089-0.012,0.18,0.016,0.267c0.014,0.048,0.045,0.035,0.074,0.022
		c0.455-0.184,0.904-0.376,1.328-0.626c0.154-0.091,0.303-0.192,0.439-0.309c0.094-0.08,0.18-0.168,0.242-0.274
		c0.105-0.18,0.113-0.362-0.027-0.523c-0.234-0.271-0.461-0.55-0.734-0.784c-0.039-0.084-0.113-0.138-0.176-0.201
		c-0.816-0.821-1.688-1.583-2.586-2.315C39.916,23.765,39.785,23.641,39.631,23.551L39.631,23.551z M24.104,29.767l0.008,0.002
		c-0.01-0.085-0.068-0.146-0.109-0.215c-0.453-0.804-0.668-1.673-0.666-2.592c0.002-0.481,0.07-0.956,0.209-1.419
		c0.016-0.045,0.039-0.091-0.004-0.145c-0.035,0.009-0.074,0.016-0.109,0.029c-0.404,0.152-0.803,0.313-1.193,0.496
		c-0.051,0.023-0.098,0.057-0.145,0.086c-0.43,0.18-0.826,0.422-1.217,0.671c-0.176,0.114-0.18,0.118-0.096,0.307
		c0.654,1.449,1.742,2.405,3.262,2.869c0.037,0.01,0.078,0.03,0.115,0.003c0.018-0.01,0.012-0.024-0.006-0.036
		C24.148,29.792,24.139,29.769,24.104,29.767z M19.498,32.111c0.113,0.02,0.225,0.04,0.338,0.058
		c0.699,0.117,1.326,0.389,1.867,0.851c0.213,0.18,0.408,0.377,0.604,0.574c0.195,0.198,0.389,0.397,0.592,0.584
		c0.436,0.401,0.947,0.661,1.525,0.79c0.264,0.058,0.531,0.082,0.799,0.113c0.475,0.054,0.945,0.029,1.414-0.043
		c0.371-0.057,0.734-0.154,1.096-0.248c0.49-0.128,0.984-0.236,1.496-0.232c0.188,0,0.375,0.002,0.563,0.013
		c0.385,0.021,0.762,0.09,1.123,0.222c0.842,0.305,1.363,0.895,1.57,1.766c0.139,0.583,0.113,1.167,0.023,1.751
		c-0.104,0.688-0.307,1.351-0.553,2c-0.334,0.879-0.756,1.717-1.221,2.533c-0.297,0.522-0.514,1.074-0.633,1.664
		c-0.1,0.5-0.111,1.005-0.051,1.51c0.035,0.292,0.049,0.291,0.338,0.247c0.402-0.062,0.807-0.12,1.209-0.179
		c0.461-0.067,0.922-0.134,1.381-0.198c0.07-0.009,0.123-0.038,0.17-0.088c0.039-0.041,0.08-0.082,0.119-0.122
		c0.496-0.509,1.01-0.999,1.543-1.47c0.238-0.21,0.479-0.417,0.721-0.625c0.064-0.057,0.063-0.088-0.004-0.132
		c-0.131-0.084-0.27-0.149-0.414-0.207c-0.383-0.149-0.775-0.252-1.172-0.346c-0.084-0.02-0.162-0.042-0.291-0.078
		c0.104-0.028,0.156-0.049,0.213-0.056c0.188-0.021,0.373-0.047,0.561-0.054c0.555-0.021,1.109-0.006,1.658,0.083
		c0.156,0.025,0.277-0.007,0.395-0.126c0.299-0.305,0.564-0.633,0.805-0.984c0.586-0.851,1.047-1.767,1.463-2.709
		c0.096-0.217,0.18-0.438,0.275-0.655c0.039-0.091,0.02-0.157-0.055-0.214c-0.037-0.03-0.076-0.061-0.115-0.09
		c-0.242-0.185-0.51-0.323-0.787-0.443c-0.412-0.179-0.836-0.328-1.268-0.45c-0.266-0.075-0.535-0.143-0.803-0.215
		c-0.012-0.002-0.021-0.021-0.027-0.034c-0.008-0.019,0.004-0.029,0.025-0.031c0.211-0.019,0.422-0.045,0.633-0.055
		c0.605-0.025,1.209-0.008,1.811,0.053c0.625,0.063,1.246,0.15,1.863,0.268c0.25,0.049,0.504,0.05,0.752-0.025
		c0.545-0.166,0.834-0.581,1.018-1.079c0.086-0.233-0.088-0.463-0.338-0.493c-0.047-0.006-0.098-0.001-0.146-0.006
		c-0.211-0.02-0.424-0.031-0.633-0.063c-0.484-0.075-0.953-0.212-1.412-0.391c-0.533-0.208-1.047-0.453-1.566-0.692
		c-0.717-0.332-1.445-0.643-2.199-0.884c-0.35-0.112-0.705-0.212-1.057-0.312c-0.084-0.023-0.123-0.062-0.133-0.147
		c-0.027-0.234-0.066-0.468-0.092-0.703c-0.047-0.414-0.088-0.828-0.115-1.243c-0.049-0.709-0.072-1.418,0.006-2.126
		c0.004-0.03,0.014-0.062-0.021-0.099c-0.063,0.068-0.09,0.153-0.127,0.233c-0.158,0.35-0.279,0.713-0.379,1.084
		c-0.211,0.801-0.313,1.616-0.307,2.445c0,0.088,0.021,0.18-0.027,0.281c-0.102-0.015-0.205-0.023-0.307-0.044
		c-0.432-0.086-0.871-0.141-1.309-0.167c-0.824-0.047-1.648-0.027-2.467,0.097c-0.662,0.1-1.314,0.245-1.963,0.408
		c-0.664,0.167-1.324,0.356-2.006,0.44c-0.355,0.045-0.717,0.051-1.074-0.001c-0.461-0.068-0.873-0.256-1.252-0.524
		c-0.488-0.345-1.008-0.633-1.572-0.838c-0.486-0.178-0.986-0.284-1.506-0.272C19.871,31.988,19.676,32.008,19.498,32.111z
		 M20.27,54.626c0.092-0.057,0.18-0.111,0.27-0.168c0.527-0.348,0.844-0.837,0.912-1.465c0.055-0.503,0.055-1.012,0-1.515
		c-0.063-0.574-0.34-1.097-1.115-1.297c-0.047-0.013-0.094-0.024-0.143-0.033c-0.412-0.08-0.826-0.067-1.242-0.021
		c-0.299,0.033-0.6,0.08-0.896,0.122c-0.51,0.073-1.018,0.148-1.525,0.221c-0.51,0.074-1.018,0.144-1.525,0.22
		c-0.238,0.036-0.479,0.058-0.719,0.115c0.029,0.087,0.098,0.122,0.15,0.167c0.377,0.325,0.748,0.657,1.137,0.968
		c0.176,0.14,0.246,0.286,0.244,0.513c-0.008,2.343-0.006,4.686-0.006,7.028c0,0.073,0,0.147,0.004,0.221
		c0.002,0.035,0.02,0.061,0.061,0.059c0.039-0.001,0.08-0.004,0.121-0.01c0.51-0.072,1.018-0.143,1.525-0.221
		c0.186-0.028,0.186,0.006,0.186-0.233c-0.002-1.078,0-2.155,0-3.232c0-0.065-0.002-0.131,0-0.196
		c0.004-0.095,0.02-0.114,0.113-0.127c0.217-0.032,0.436-0.069,0.654-0.092c0.137-0.014,0.277-0.018,0.414-0.005
		c0.367,0.034,0.578,0.226,0.664,0.582c0.041,0.16,0.045,0.322,0.045,0.486c0,0.75,0,1.501,0.002,2.252
		c0,0.08-0.02,0.163,0.018,0.238c0.051,0.026,0.1,0.013,0.146,0.006c0.379-0.053,0.76-0.109,1.137-0.164
		c0.17-0.024,0.34-0.051,0.51-0.075c0.055-0.008,0.088-0.031,0.09-0.091c0-0.041,0.002-0.082,0.002-0.123
		c0-0.768-0.002-1.535,0.002-2.301c0-0.197-0.018-0.392-0.049-0.585c-0.102-0.602-0.416-1.016-1.025-1.173
		C20.375,54.682,20.318,54.677,20.27,54.626z M40.066,47.072c-0.045,0.104-0.025,0.203-0.025,0.299
		c-0.002,2.229-0.002,4.457-0.002,6.685c0,0.114-0.002,0.229-0.016,0.342c-0.039,0.285-0.182,0.509-0.438,0.642
		c-0.303,0.159-0.631,0.219-0.973,0.165c-0.293-0.047-0.459-0.218-0.504-0.517c-0.018-0.12-0.023-0.244-0.023-0.365
		c-0.002-0.98,0-1.959,0-2.939c0-1.249,0-2.498-0.002-3.747c0-0.087,0.018-0.178-0.021-0.266c-0.037,0-0.068-0.004-0.1,0
		c-0.51,0.074-1.018,0.155-1.525,0.222c-0.275,0.036-0.25,0.025-0.25,0.277c0,2.246,0,4.49,0.002,6.735
		c0,0.114,0.002,0.229,0.014,0.342c0.09,0.945,0.648,1.42,1.363,1.577c0.297,0.065,0.598,0.094,0.9,0.074
		c0.334-0.021,0.668-0.06,0.994-0.135c0.455-0.106,0.891-0.262,1.283-0.523c0.525-0.349,0.871-0.827,1.021-1.442
		c0.057-0.238,0.074-0.482,0.074-0.728c0-2.229,0-4.457,0-6.685c0-0.065-0.002-0.13-0.004-0.196
		c-0.002-0.051-0.031-0.071-0.078-0.064c-0.211,0.03-0.42,0.062-0.631,0.092C40.771,46.968,40.418,47.021,40.066,47.072z
		 M49.502,45.716c-0.143,0.015-0.232,0.022-0.32,0.034c-0.904,0.13-1.807,0.261-2.711,0.392c-1.018,0.147-2.035,0.288-3.051,0.444
		c-0.342,0.052-0.295-0.024-0.295,0.333c-0.002,2.873-0.002,5.745-0.002,8.618c0,0.065,0,0.13,0.002,0.196
		c0.004,0.079,0.029,0.098,0.109,0.087c0.58-0.084,1.162-0.168,1.742-0.253c0.516-0.075,1.033-0.15,1.549-0.225
		c0.557-0.081,1.113-0.162,1.672-0.243c0.098-0.015,0.1-0.019,0.102-0.129c0.004-0.229,0.002-0.457,0.002-0.686
		c0-0.139,0.002-0.278-0.002-0.416c-0.002-0.083-0.02-0.097-0.105-0.088c-0.039,0.004-0.082,0.012-0.121,0.019
		c-0.291,0.042-0.58,0.083-0.871,0.125c-0.51,0.074-1.018,0.153-1.527,0.22c-0.207,0.027-0.414,0.086-0.625,0.075
		c-0.043-0.075-0.025-0.15-0.025-0.221c0-0.425,0-0.85,0-1.273c0-0.352,0-0.703,0-1.053c0.002-0.11,0.018-0.125,0.125-0.141
		c0.477-0.069,0.953-0.135,1.43-0.204c0.313-0.045,0.629-0.091,0.943-0.14c0.1-0.016,0.104-0.02,0.104-0.126
		c0.002-0.368,0.002-0.734,0-1.102c0-0.031-0.016-0.062-0.023-0.099c-0.395,0.056-0.781,0.112-1.166,0.168
		c-0.389,0.056-0.775,0.113-1.162,0.169c-0.059,0.008-0.115,0.014-0.172,0.019c-0.035,0.002-0.066-0.008-0.072-0.046
		c-0.006-0.048-0.006-0.098-0.006-0.146c0-0.718,0-1.437,0-2.155c0-0.033,0-0.066,0-0.099c0.006-0.079,0.023-0.1,0.1-0.11
		c0.348-0.051,0.695-0.101,1.043-0.15c0.654-0.095,1.307-0.194,1.961-0.282c0.123-0.017,0.207-0.061,0.283-0.158
		c0.33-0.415,0.668-0.825,1.004-1.235C49.432,45.808,49.451,45.783,49.502,45.716z M33.26,53.449c0,0.09,0,0.146,0,0.203
		c0,0.49,0,0.98,0,1.47c0,0.048,0,0.098-0.006,0.147c-0.037,0.403-0.236,0.684-0.627,0.82c-0.252,0.087-0.508,0.12-0.771,0.091
		c-0.271-0.031-0.445-0.181-0.521-0.445c-0.029-0.105-0.033-0.209-0.035-0.316c0-0.358,0-0.718,0-1.078c0-0.057,0.002-0.114,0-0.171
		c-0.002-0.093-0.018-0.105-0.119-0.104c-0.066,0-0.131,0.005-0.195,0.009c-0.336,0.019-0.67,0.037-1.002,0.057
		c-0.148,0.008-0.295,0.018-0.439,0.027c-0.143,0.009-0.143,0.01-0.145,0.161c-0.002,0.025-0.002,0.049-0.002,0.074
		c0,0.384,0.004,0.768,0,1.151c-0.002,0.189,0.014,0.375,0.047,0.561c0.119,0.659,0.486,1.111,1.125,1.327
		c0.193,0.065,0.395,0.104,0.6,0.118c0.5,0.036,0.994-0.008,1.482-0.116c0.432-0.095,0.848-0.241,1.227-0.476
		c0.486-0.303,0.842-0.715,1.033-1.262c0.094-0.272,0.137-0.554,0.137-0.842c0.004-0.947,0.002-1.894,0-2.841
		c0-0.046,0.014-0.1-0.051-0.136c-4.385,0.622-8.777,1.245-13.17,1.868c0.133,0.074,0.271,0.063,0.408,0.068
		c1.1,0.033,2.203,0.069,3.303,0.068c1.021-0.001,2.041,0.005,3.063-0.029c0.789-0.026,1.582-0.064,2.369-0.134
		c0.529-0.048,1.059-0.087,1.582-0.174C32.775,53.508,33.002,53.483,33.26,53.449z M22.582,55.541c0,0.342,0,0.685,0,1.027
		c-0.002,0.197,0.01,0.391,0.055,0.583c0.131,0.584,0.467,0.995,1.025,1.217c0.229,0.09,0.467,0.142,0.713,0.159
		c0.576,0.042,1.143-0.018,1.697-0.163c0.453-0.117,0.881-0.292,1.262-0.573c0.447-0.332,0.758-0.759,0.906-1.299
		c0.063-0.229,0.088-0.463,0.088-0.7c0.002-0.474,0.002-0.947,0.002-1.42c0-0.041,0-0.082-0.004-0.122
		c-0.004-0.046-0.033-0.072-0.08-0.07c-0.057,0.001-0.115,0.002-0.172,0.003c-0.424,0.008-0.85,0.016-1.273,0.023
		c-0.088,0.001-0.18,0.003-0.268,0.003c-0.061,0-0.094,0.023-0.094,0.085c0,0.065,0,0.13,0,0.195c0,0.522,0,1.044,0,1.566
		c0.002,0.124-0.008,0.245-0.035,0.365c-0.047,0.224-0.156,0.413-0.352,0.537c-0.324,0.204-0.678,0.276-1.055,0.21
		c-0.291-0.051-0.459-0.233-0.5-0.524c-0.016-0.104-0.016-0.212-0.016-0.317c-0.002-0.62-0.002-1.241-0.002-1.86
		c0-0.065,0-0.13-0.002-0.196c-0.004-0.047-0.031-0.073-0.078-0.078c-0.031-0.003-0.064-0.006-0.098-0.007
		c-0.529-0.011-1.059-0.023-1.59-0.034c-0.129-0.002-0.131,0-0.131,0.141C22.58,54.708,22.582,55.125,22.582,55.541z M26.439,52.755
		c0.088-0.006,0.145-0.006,0.201-0.014c0.268-0.036,0.533-0.074,0.799-0.113c0.258-0.037,0.516-0.074,0.775-0.116
		c0.111-0.018,0.113-0.022,0.113-0.141c0.002-0.498,0-0.995,0-1.493c0-0.073-0.004-0.146-0.012-0.22
		c-0.082-0.727-0.455-1.287-1.246-1.524c-0.219-0.065-0.445-0.101-0.674-0.109c-0.625-0.025-1.236,0.068-1.83,0.255
		c-0.336,0.106-0.654,0.256-0.941,0.46c-0.441,0.311-0.756,0.716-0.922,1.231c-0.088,0.273-0.125,0.556-0.123,0.843
		c0.002,0.44,0,0.881,0.002,1.321c0,0.056-0.018,0.115,0.025,0.164c0.438-0.033,1.686-0.219,1.873-0.281c0-0.076,0-0.157,0-0.238
		c0-0.425,0-0.849,0-1.272c0-0.082,0.002-0.164,0.008-0.245c0.035-0.356,0.217-0.611,0.543-0.753
		c0.275-0.121,0.564-0.159,0.863-0.119c0.266,0.037,0.443,0.2,0.506,0.461c0.029,0.119,0.041,0.24,0.039,0.364
		c0,0.424,0,0.849,0,1.272C26.439,52.568,26.439,52.648,26.439,52.755z M33.26,51.154c0.359-0.05,0.691-0.096,1.021-0.143
		c0.219-0.031,0.436-0.061,0.652-0.094c0.088-0.013,0.113-0.035,0.113-0.102c-0.002-0.407,0.031-0.817-0.025-1.222
		c-0.111-0.821-0.594-1.284-1.283-1.458c-0.207-0.052-0.416-0.084-0.627-0.09c-0.576-0.017-1.139,0.069-1.689,0.233
		c-0.322,0.095-0.627,0.228-0.91,0.413c-0.549,0.361-0.906,0.858-1.047,1.504c-0.043,0.2-0.068,0.403-0.066,0.607
		c0,0.433,0,0.865,0,1.297c0,0.033-0.002,0.066,0,0.099c0.004,0.066,0.025,0.085,0.092,0.077c0.357-0.045,0.713-0.091,1.068-0.138
		c0.209-0.027,0.42-0.055,0.629-0.083c0.096-0.013,0.107-0.027,0.111-0.126c0.002-0.057,0-0.114,0-0.171c0-0.416,0-0.832,0-1.248
		c0.002-0.074,0-0.148,0.008-0.221c0.037-0.33,0.188-0.588,0.494-0.736c0.293-0.143,0.604-0.191,0.928-0.143
		c0.25,0.038,0.41,0.183,0.484,0.424c0.037,0.118,0.047,0.239,0.047,0.362C33.258,50.504,33.26,50.813,33.26,51.154z M25.559,26.831
		c0.012,0.038,0.021,0.076,0.039,0.112c0.141,0.347,0.299,0.686,0.479,1.015c0.258,0.466,0.547,0.907,0.906,1.301
		c0.297,0.328,0.631,0.615,1.021,0.826c0.895,0.483,1.807,0.491,2.725,0.073c0.041-0.018,0.09-0.029,0.113-0.076
		c-0.004-0.009-0.004-0.021-0.01-0.024C29.021,29.073,27.289,27.959,25.559,26.831z M37.227,30.949c0,0.024-0.006,0.043,0.002,0.055
		c0.225,0.443,0.582,0.691,1.08,0.728c0.262,0.019,0.52-0.014,0.775-0.078c0.373-0.093,0.727-0.235,1.078-0.385
		c0.664-0.284,1.223-0.713,1.713-1.236c0.023-0.024,0.068-0.047,0.043-0.093c-0.232,0.076-0.463,0.157-0.695,0.225
		c-1.113,0.318-2.256,0.504-3.398,0.685C37.625,30.882,37.422,30.888,37.227,30.949z"/>
	<path style="fill-rule:evenodd;clip-rule:evenodd;fill:#01263E;" d="M46.799,41.843c0.033-0.056,0.064-0.114,0.102-0.167
		c0.727-1.021,1.23-2.149,1.586-3.347c0.238-0.8,0.393-1.617,0.49-2.445c0.113-0.966,0.143-1.937,0.096-2.909
		c-0.088-1.775-0.375-3.518-0.877-5.225c-0.383-1.303-0.875-2.563-1.48-3.778c-0.4-0.804-0.85-1.582-1.338-2.335
		c-0.521-0.801-1.045-1.599-1.531-2.421c-0.686-1.155-1.271-2.355-1.684-3.635c-0.293-0.903-0.502-1.824-0.629-2.764
		c-0.072-0.55-0.135-1.101-0.15-1.656c-0.002-0.057-0.008-0.114-0.018-0.17c-0.006-0.045-0.039-0.071-0.084-0.072
		c-0.057-0.001-0.115-0.002-0.172,0.002c-0.355,0.033-0.715,0.059-1.072,0.103c-0.412,0.05-0.822,0.114-1.232,0.177
		c-0.945,0.144-1.879,0.342-2.805,0.567c-2.018,0.492-3.982,1.143-5.896,1.939c-1.652,0.688-3.254,1.48-4.803,2.377
		c-1.533,0.889-3.008,1.869-4.414,2.951c-1.004,0.771-1.951,1.609-2.832,2.521c-1.732,1.793-3.154,3.804-4.215,6.065
		c-0.707,1.505-1.232,3.073-1.59,4.696c-0.172,0.773-0.307,1.552-0.4,2.338c-0.061,0.494-0.111,0.989-0.145,1.486
		c-0.002,0.023-0.004,0.052-0.037,0.051c-0.014,0-0.029-0.01-0.041-0.02c-0.016-0.018-0.031-0.039-0.043-0.059
		c-0.725-1.101-1.352-2.254-1.816-3.489c-0.322-0.85-0.557-1.723-0.688-2.623c-0.102-0.695-0.143-1.396-0.102-2.099
		c0.072-1.199,0.334-2.356,0.785-3.47c0.379-0.934,0.869-1.808,1.439-2.638c0.703-1.022,1.408-2.043,2.109-3.067
		c1.037-1.515,2.066-3.036,3.109-4.547c1.014-1.464,2.053-2.907,3.143-4.315c0.92-1.189,1.873-2.348,2.902-3.445
		c0.883-0.942,1.814-1.833,2.844-2.617c0.834-0.635,1.719-1.186,2.695-1.579c0.578-0.232,1.176-0.385,1.791-0.477
		c0.494-0.073,0.988-0.14,1.482-0.174c0.725-0.051,1.451-0.097,2.178-0.031c0.26,0.023,0.52,0.03,0.779,0.057
		c1.217,0.122,2.396,0.398,3.529,0.862c0.91,0.373,1.76,0.856,2.539,1.461c1.061,0.827,1.938,1.819,2.631,2.972
		c0.582,0.966,1.076,1.977,1.541,3.005c1.193,2.652,2.18,5.383,3.057,8.154c0.637,2.016,1.197,4.053,1.676,6.111
		c0.297,1.271,0.559,2.55,0.768,3.838c0.133,0.813,0.256,1.628,0.344,2.447c0.063,0.592,0.111,1.185,0.152,1.779
		c0.051,0.768,0.059,1.534,0.027,2.301c-0.047,1.159-0.297,2.279-0.744,3.351c-0.469,1.126-1.129,2.131-1.938,3.041
		c-0.264,0.292-0.535,0.573-0.818,0.844c-0.049,0.044-0.104,0.081-0.154,0.121C46.83,41.872,46.814,41.857,46.799,41.843z"/>
	<path style="fill-rule:evenodd;clip-rule:evenodd;fill:#01263E;" d="M46.846,41.885c-0.018,0.015-0.033,0.031-0.051,0.046
		c-0.014-0.012-0.025-0.024-0.037-0.037c0.014-0.018,0.027-0.034,0.041-0.051C46.814,41.857,46.83,41.872,46.846,41.885z"/>
	<path style="fill-rule:evenodd;clip-rule:evenodd;fill:#01263E;" d="M46.795,41.931c-0.018,0.015-0.037,0.03-0.055,0.044
		c-0.008-0.008-0.016-0.016-0.021-0.024c0.012-0.019,0.025-0.039,0.039-0.057C46.77,41.907,46.781,41.919,46.795,41.931z"/>
	<path style="fill-rule:evenodd;clip-rule:evenodd;fill:#01263E;" d="M46.74,41.976c-0.012,0.011-0.029,0.032-0.031,0.03
		c-0.035-0.022-0.01-0.039,0.01-0.054C46.725,41.959,46.732,41.967,46.74,41.976z"/>
	<path style="fill-rule:evenodd;clip-rule:evenodd;fill:#2D97D2;" d="M19.498,32.111c0.178-0.103,0.373-0.124,0.566-0.128
		c0.52-0.012,1.02,0.094,1.506,0.272c0.564,0.205,1.084,0.493,1.572,0.838c0.379,0.268,0.791,0.456,1.252,0.524
		c0.357,0.052,0.719,0.046,1.074,0.001c0.682-0.083,1.342-0.273,2.006-0.44c0.648-0.163,1.301-0.308,1.963-0.408
		c0.818-0.124,1.643-0.144,2.467-0.097c0.438,0.026,0.877,0.08,1.309,0.167c0.102,0.021,0.205,0.029,0.307,0.044
		c0.049-0.101,0.027-0.192,0.027-0.281c-0.006-0.829,0.096-1.644,0.307-2.445c0.1-0.371,0.221-0.734,0.379-1.084
		c0.037-0.08,0.064-0.165,0.127-0.233c0.035,0.037,0.025,0.069,0.021,0.099c-0.078,0.708-0.055,1.417-0.006,2.126
		c0.027,0.415,0.068,0.829,0.115,1.243c0.025,0.235,0.064,0.469,0.092,0.703c0.01,0.086,0.049,0.125,0.133,0.147
		c0.352,0.1,0.707,0.199,1.057,0.312c0.754,0.241,1.482,0.552,2.199,0.884c0.52,0.239,1.033,0.484,1.566,0.692
		c0.459,0.179,0.928,0.315,1.412,0.391c0.209,0.032,0.422,0.044,0.633,0.063c0.049,0.004,0.1,0,0.146,0.006
		c0.25,0.03,0.424,0.26,0.338,0.493c-0.184,0.499-0.473,0.914-1.018,1.079c-0.248,0.075-0.502,0.074-0.752,0.025
		c-0.617-0.118-1.238-0.204-1.863-0.268c-0.602-0.061-1.205-0.078-1.811-0.053c-0.211,0.01-0.422,0.037-0.633,0.055
		c-0.021,0.002-0.033,0.012-0.025,0.031c0.006,0.013,0.016,0.032,0.027,0.034c0.268,0.073,0.537,0.141,0.803,0.215
		c0.432,0.122,0.855,0.271,1.268,0.45c0.277,0.121,0.545,0.259,0.787,0.443c0.039,0.029,0.078,0.061,0.115,0.09
		c0.074,0.057,0.094,0.123,0.055,0.214c-0.096,0.217-0.18,0.438-0.275,0.655c-0.416,0.943-0.877,1.859-1.463,2.709
		c-0.24,0.351-0.506,0.68-0.805,0.984c-0.117,0.12-0.238,0.152-0.395,0.126c-0.549-0.088-1.104-0.104-1.658-0.083
		c-0.188,0.007-0.373,0.033-0.561,0.054c-0.057,0.007-0.109,0.027-0.213,0.056c0.129,0.035,0.207,0.058,0.291,0.078
		c0.396,0.094,0.789,0.197,1.172,0.346c0.145,0.057,0.283,0.123,0.414,0.207c0.066,0.044,0.068,0.076,0.004,0.132
		c-0.242,0.208-0.482,0.415-0.721,0.625c-0.533,0.471-1.047,0.961-1.543,1.47c-0.039,0.04-0.08,0.081-0.119,0.122
		c-0.047,0.05-0.1,0.079-0.17,0.088c-0.459,0.064-0.92,0.131-1.381,0.198c-0.402,0.059-0.807,0.117-1.209,0.179
		c-0.289,0.044-0.303,0.045-0.338-0.247c-0.061-0.505-0.049-1.01,0.051-1.51c0.119-0.59,0.336-1.142,0.633-1.664
		c0.465-0.816,0.887-1.653,1.221-2.533c0.246-0.649,0.449-1.313,0.553-2c0.09-0.584,0.115-1.169-0.023-1.751
		c-0.207-0.871-0.729-1.46-1.57-1.766c-0.361-0.131-0.738-0.2-1.123-0.222c-0.188-0.011-0.375-0.012-0.563-0.013
		c-0.512-0.004-1.006,0.104-1.496,0.232c-0.361,0.094-0.725,0.191-1.096,0.248c-0.469,0.072-0.939,0.097-1.414,0.043
		c-0.268-0.031-0.535-0.055-0.799-0.113c-0.578-0.128-1.09-0.389-1.525-0.79c-0.203-0.187-0.396-0.387-0.592-0.584
		c-0.195-0.197-0.391-0.394-0.604-0.574c-0.541-0.462-1.168-0.734-1.867-0.851C19.723,32.151,19.611,32.131,19.498,32.111z"/>
	<path style="fill-rule:evenodd;clip-rule:evenodd;fill:#FFFFFF;" d="M20.27,54.626c0.049,0.051,0.105,0.056,0.16,0.068
		c0.609,0.157,0.924,0.572,1.025,1.173c0.031,0.193,0.049,0.389,0.049,0.585c-0.004,0.767-0.002,1.534-0.002,2.301
		c0,0.041-0.002,0.082-0.002,0.123c-0.002,0.06-0.035,0.083-0.09,0.091c-0.17,0.024-0.34,0.051-0.51,0.075
		c-0.377,0.055-0.758,0.111-1.137,0.164c-0.047,0.007-0.096,0.02-0.146-0.006c-0.037-0.075-0.018-0.158-0.018-0.238
		c-0.002-0.751-0.002-1.502-0.002-2.252c0-0.164-0.004-0.326-0.045-0.486c-0.086-0.355-0.297-0.548-0.664-0.582
		c-0.137-0.013-0.277-0.009-0.414,0.005c-0.219,0.022-0.438,0.06-0.654,0.092c-0.094,0.014-0.109,0.032-0.113,0.127
		c-0.002,0.065,0,0.131,0,0.196c0,1.077-0.002,2.155,0,3.232c0,0.239,0,0.205-0.186,0.233c-0.508,0.079-1.016,0.149-1.525,0.221
		c-0.041,0.006-0.082,0.008-0.121,0.01c-0.041,0.002-0.059-0.024-0.061-0.059c-0.004-0.074-0.004-0.147-0.004-0.221
		c0-2.342-0.002-4.685,0.006-7.028c0.002-0.228-0.068-0.374-0.244-0.513c-0.389-0.311-0.76-0.643-1.137-0.968
		c-0.053-0.045-0.121-0.08-0.15-0.167c0.24-0.057,0.48-0.079,0.719-0.115c0.508-0.076,1.016-0.146,1.525-0.22
		c0.508-0.073,1.016-0.148,1.525-0.221c0.297-0.042,0.598-0.089,0.896-0.122c0.416-0.046,0.83-0.059,1.242,0.021
		c0.049,0.009,0.096,0.02,0.143,0.033c0.775,0.2,1.053,0.723,1.115,1.297c0.055,0.503,0.055,1.012,0,1.515
		c-0.068,0.628-0.385,1.117-0.912,1.465C20.449,54.516,20.361,54.569,20.27,54.626z M17.717,51.635
		c-0.004,0.053-0.01,0.101-0.01,0.149c-0.002,0.822,0,1.645,0,2.467c0,0.033,0,0.065,0,0.098c0.004,0.049,0.029,0.078,0.076,0.072
		c0.195-0.023,0.389-0.045,0.582-0.077c0.184-0.029,0.369-0.059,0.545-0.126c0.375-0.144,0.605-0.4,0.652-0.807
		c0.01-0.081,0.02-0.162,0.02-0.243c0.004-0.285-0.002-0.57,0.002-0.855c0.002-0.132-0.014-0.262-0.045-0.387
		c-0.064-0.254-0.23-0.405-0.49-0.448c-0.049-0.008-0.1-0.005-0.146-0.009c-0.189-0.014-0.373,0.029-0.559,0.058
		C18.137,51.56,17.924,51.567,17.717,51.635z"/>
	<path style="fill-rule:evenodd;clip-rule:evenodd;fill:#FFFFFF;" d="M40.066,47.072c0.352-0.051,0.705-0.104,1.061-0.155
		c0.211-0.031,0.42-0.062,0.631-0.092c0.047-0.006,0.076,0.013,0.078,0.064c0.002,0.066,0.004,0.131,0.004,0.196
		c0,2.228,0,4.457,0,6.685c0,0.246-0.018,0.49-0.074,0.728c-0.15,0.616-0.496,1.093-1.021,1.442
		c-0.393,0.261-0.828,0.417-1.283,0.523c-0.326,0.076-0.66,0.114-0.994,0.135c-0.303,0.02-0.604-0.009-0.9-0.074
		c-0.715-0.157-1.273-0.632-1.363-1.577c-0.012-0.113-0.014-0.228-0.014-0.342c-0.002-2.245-0.002-4.489-0.002-6.735
		c0-0.251-0.025-0.241,0.25-0.277c0.508-0.067,1.016-0.148,1.525-0.222c0.031-0.004,0.063,0,0.1,0
		c0.039,0.088,0.021,0.179,0.021,0.266c0.002,1.249,0.002,2.498,0.002,3.747c0,0.979-0.002,1.958,0,2.939
		c0,0.121,0.006,0.245,0.023,0.365c0.045,0.299,0.211,0.47,0.504,0.517c0.342,0.055,0.67-0.006,0.973-0.165
		c0.256-0.133,0.398-0.356,0.438-0.642c0.014-0.113,0.016-0.228,0.016-0.342c0-2.228,0-4.457,0.002-6.685
		C40.041,47.275,40.021,47.176,40.066,47.072z"/>
	<path style="fill-rule:evenodd;clip-rule:evenodd;fill:#FFFFFF;" d="M49.502,45.716c-0.051,0.066-0.07,0.092-0.088,0.116
		c-0.336,0.411-0.674,0.82-1.004,1.235c-0.076,0.097-0.16,0.141-0.283,0.158c-0.654,0.088-1.307,0.188-1.961,0.282
		c-0.348,0.05-0.695,0.099-1.043,0.15c-0.076,0.011-0.094,0.032-0.1,0.11c0,0.033,0,0.066,0,0.099c0,0.718,0,1.437,0,2.155
		c0,0.048,0,0.098,0.006,0.146c0.006,0.038,0.037,0.049,0.072,0.046c0.057-0.004,0.113-0.01,0.172-0.019
		c0.387-0.056,0.773-0.113,1.162-0.169c0.385-0.056,0.771-0.112,1.166-0.168c0.008,0.038,0.023,0.068,0.023,0.099
		c0.002,0.367,0.002,0.734,0,1.102c0,0.106-0.004,0.11-0.104,0.126c-0.314,0.049-0.631,0.095-0.943,0.14
		c-0.477,0.069-0.953,0.135-1.43,0.204c-0.107,0.016-0.123,0.031-0.125,0.141c0,0.351,0,0.701,0,1.053c0,0.423,0,0.848,0,1.273
		c0,0.071-0.018,0.146,0.025,0.221c0.211,0.012,0.418-0.047,0.625-0.075c0.51-0.067,1.018-0.146,1.527-0.22
		c0.291-0.042,0.58-0.084,0.871-0.125c0.039-0.006,0.082-0.014,0.121-0.019c0.086-0.008,0.104,0.005,0.105,0.088
		c0.004,0.138,0.002,0.277,0.002,0.416c0,0.229,0.002,0.457-0.002,0.686c-0.002,0.11-0.004,0.114-0.102,0.129
		c-0.559,0.082-1.115,0.162-1.672,0.243c-0.516,0.075-1.033,0.149-1.549,0.225c-0.58,0.085-1.162,0.169-1.742,0.253
		c-0.08,0.011-0.105-0.008-0.109-0.087c-0.002-0.065-0.002-0.13-0.002-0.196c0-2.873,0-5.745,0.002-8.618
		c0-0.356-0.047-0.281,0.295-0.333c1.016-0.156,2.033-0.297,3.051-0.444c0.904-0.131,1.807-0.261,2.711-0.392
		C49.27,45.738,49.359,45.731,49.502,45.716z"/>
	<path style="fill-rule:evenodd;clip-rule:evenodd;fill:#FFFFFF;" d="M33.26,53.449c-0.258,0.035-0.484,0.06-0.709,0.096
		c-0.523,0.086-1.053,0.126-1.582,0.174c-0.787,0.07-1.58,0.108-2.369,0.134c-1.021,0.034-2.041,0.027-3.063,0.029
		c-1.1,0.001-2.203-0.035-3.303-0.068c-0.137-0.004-0.275,0.006-0.408-0.068c4.393-0.623,8.785-1.246,13.17-1.868
		c0.064,0.036,0.051,0.09,0.051,0.136c0.002,0.947,0.004,1.894,0,2.841c0,0.288-0.043,0.57-0.137,0.842
		c-0.191,0.546-0.547,0.959-1.033,1.262c-0.379,0.235-0.795,0.38-1.227,0.476c-0.488,0.108-0.982,0.152-1.482,0.116
		c-0.205-0.014-0.406-0.053-0.6-0.118c-0.639-0.216-1.006-0.668-1.125-1.327c-0.033-0.185-0.049-0.372-0.047-0.561
		c0.004-0.383,0-0.767,0-1.151c0-0.024,0-0.049,0.002-0.074c0.002-0.151,0.002-0.152,0.145-0.161
		c0.145-0.009,0.291-0.019,0.439-0.027c0.332-0.02,0.666-0.039,1.002-0.057c0.064-0.004,0.129-0.008,0.195-0.009
		c0.102-0.001,0.117,0.011,0.119,0.104c0.002,0.057,0,0.114,0,0.171c0,0.359,0,0.719,0,1.078c0.002,0.106,0.006,0.211,0.035,0.316
		c0.076,0.264,0.25,0.414,0.521,0.445c0.264,0.028,0.52-0.004,0.771-0.091c0.391-0.136,0.59-0.417,0.627-0.82
		c0.006-0.049,0.006-0.099,0.006-0.147c0-0.489,0-0.98,0-1.47C33.26,53.595,33.26,53.539,33.26,53.449z"/>
	<path style="fill-rule:evenodd;clip-rule:evenodd;fill:#FBB613;" d="M26.963,23.633c0.063-0.039,0.121-0.083,0.186-0.115
		c2.098-1.055,4.25-1.979,6.473-2.739c0.076-0.026,0.148-0.067,0.234-0.064c-0.025,0.061-0.045,0.123-0.074,0.181
		c-0.344,0.68-0.494,1.413-0.559,2.162c-0.029,0.337-0.045,0.684,0.035,1.022c0.006,0.023,0.004,0.049,0,0.073
		c-0.002,0.013-0.016,0.031-0.025,0.034c-0.012,0.003-0.033-0.004-0.043-0.014c-0.184-0.249-0.367-0.498-0.551-0.747
		c-0.029-0.039-0.059-0.079-0.09-0.114c-0.008-0.009-0.031-0.012-0.043-0.007c-0.012,0.005-0.023,0.026-0.021,0.039
		c0.018,0.137,0.029,0.275,0.057,0.41c0.107,0.51,0.23,1.015,0.43,1.5c0.178,0.431,0.379,0.85,0.613,1.251s0.49,0.789,0.783,1.15
		c0.256,0.317,0.506,0.637,0.807,0.917c0.07,0.067,0.137,0.139,0.203,0.211c0.02,0.021,0.004,0.045-0.016,0.061
		c-0.088-0.042-0.178-0.079-0.264-0.125c-1.074-0.595-2.068-1.297-2.955-2.149c-0.348-0.333-0.715-0.644-1.029-1.01
		c-0.346-0.402-0.676-0.815-0.975-1.252c-0.041-0.061-0.084-0.118-0.139-0.171c0.072,0.458,0.258,0.879,0.41,1.312
		c-0.094,0.037-0.174,0.013-0.256,0.015c-0.574,0.008-0.988,0.314-1.166,0.864c-0.109,0.337-0.094,0.675-0.01,1.013
		c0.039,0.157,0.088,0.313,0.133,0.469c-0.053,0.048-0.086,0.003-0.121-0.029c-0.447-0.412-0.795-0.901-1.084-1.43
		c-0.441-0.813-0.752-1.673-0.869-2.595C27.031,23.7,27.008,23.66,26.963,23.633z"/>
	<path style="fill-rule:evenodd;clip-rule:evenodd;fill:#F4821F;" d="M35.361,28.843c0.02-0.016,0.035-0.04,0.016-0.061
		c-0.066-0.072-0.133-0.145-0.203-0.211c-0.301-0.279-0.551-0.6-0.807-0.917c-0.293-0.362-0.549-0.749-0.783-1.15
		s-0.436-0.82-0.613-1.251c-0.199-0.484-0.322-0.99-0.43-1.5c-0.027-0.135-0.039-0.273-0.057-0.41
		c-0.002-0.013,0.01-0.033,0.021-0.039c0.012-0.005,0.035-0.002,0.043,0.007c0.031,0.035,0.061,0.075,0.09,0.114
		c0.184,0.249,0.367,0.499,0.551,0.747c0.01,0.01,0.031,0.017,0.043,0.014c0.01-0.003,0.023-0.021,0.025-0.034
		c0.004-0.023,0.006-0.05,0-0.073c-0.08-0.338-0.064-0.686-0.035-1.022c0.064-0.75,0.215-1.482,0.559-2.162
		c0.029-0.058,0.049-0.12,0.074-0.181c0.215-0.098,0.443-0.154,0.666-0.228c0.146-0.048,0.299-0.082,0.439-0.138
		c0.131-0.05,0.234-0.03,0.34,0.053c0.096,0.075,0.203,0.134,0.303,0.204c0.602,0.416,1.201,0.833,1.801,1.249
		c0.027,0.018,0.049,0.043,0.072,0.065c-0.018,0.125,0.041,0.239,0.049,0.361c0.014,0.246-0.02,0.488-0.074,0.725
		c-0.129,0.542-0.34,1.051-0.631,1.527c-0.129,0.208-0.262,0.412-0.393,0.617c-0.035,0.054-0.08,0.104-0.078,0.175
		c-0.041,0.039-0.078,0.082-0.121,0.119c-0.023,0.022-0.068,0.001-0.072-0.033c-0.014-0.154-0.035-0.308-0.041-0.463
		c-0.021-0.466,0.004-0.929,0.068-1.391c0.004-0.021-0.002-0.044-0.002-0.067c-0.074,0.013-0.084,0.079-0.111,0.126
		c-0.311,0.59-0.508,1.216-0.605,1.876c-0.119,0.788-0.096,1.577-0.016,2.367c0.031,0.316,0.063,0.633,0.113,0.947
		c0.006,0.039,0.016,0.079-0.01,0.12C35.473,28.938,35.416,28.892,35.361,28.843z"/>
	<path style="fill-rule:evenodd;clip-rule:evenodd;fill:#FFFFFF;" d="M22.582,55.541c0-0.416-0.002-0.833,0-1.249
		c0-0.141,0.002-0.143,0.131-0.141c0.531,0.01,1.061,0.022,1.59,0.034c0.033,0,0.066,0.003,0.098,0.007
		c0.047,0.005,0.074,0.03,0.078,0.078c0.002,0.065,0.002,0.131,0.002,0.196c0,0.62,0,1.241,0.002,1.86c0,0.105,0,0.213,0.016,0.317
		c0.041,0.292,0.209,0.473,0.5,0.524c0.377,0.066,0.73-0.006,1.055-0.21c0.195-0.124,0.305-0.313,0.352-0.537
		c0.027-0.12,0.037-0.241,0.035-0.365c0-0.522,0-1.044,0-1.566c0-0.065,0-0.13,0-0.195c0-0.062,0.033-0.085,0.094-0.085
		c0.088,0,0.18-0.002,0.268-0.003c0.424-0.007,0.85-0.015,1.273-0.023c0.057-0.001,0.115-0.002,0.172-0.003
		c0.047-0.001,0.076,0.024,0.08,0.07c0.004,0.041,0.004,0.081,0.004,0.122c0,0.473,0,0.946-0.002,1.42
		c0,0.237-0.025,0.471-0.088,0.7c-0.148,0.541-0.459,0.968-0.906,1.299c-0.381,0.281-0.809,0.457-1.262,0.573
		c-0.555,0.145-1.121,0.204-1.697,0.163c-0.246-0.017-0.484-0.069-0.713-0.159c-0.559-0.222-0.895-0.633-1.025-1.217
		c-0.045-0.192-0.057-0.387-0.055-0.583C22.582,56.226,22.582,55.883,22.582,55.541z"/>
	<path style="fill-rule:evenodd;clip-rule:evenodd;fill:#FFFFFF;" d="M26.439,52.755c0-0.107,0-0.187,0-0.267
		c0-0.424,0-0.849,0-1.272c0.002-0.124-0.01-0.245-0.039-0.364c-0.063-0.261-0.24-0.424-0.506-0.461
		c-0.299-0.04-0.588-0.001-0.863,0.119c-0.326,0.143-0.508,0.397-0.543,0.753c-0.006,0.081-0.008,0.163-0.008,0.245
		c0,0.423,0,0.848,0,1.272c0,0.081,0,0.162,0,0.238c-0.188,0.062-1.436,0.248-1.873,0.281c-0.043-0.048-0.025-0.108-0.025-0.164
		c-0.002-0.44,0-0.881-0.002-1.321c-0.002-0.287,0.035-0.569,0.123-0.843c0.166-0.515,0.48-0.92,0.922-1.231
		c0.287-0.205,0.605-0.354,0.941-0.46c0.594-0.187,1.205-0.28,1.83-0.255c0.229,0.008,0.455,0.044,0.674,0.109
		c0.791,0.237,1.164,0.797,1.246,1.524c0.008,0.073,0.012,0.147,0.012,0.22c0,0.498,0.002,0.996,0,1.493
		c0,0.119-0.002,0.123-0.113,0.141c-0.26,0.042-0.518,0.079-0.775,0.116c-0.266,0.039-0.531,0.077-0.799,0.113
		C26.584,52.749,26.527,52.749,26.439,52.755z"/>
	<path style="fill-rule:evenodd;clip-rule:evenodd;fill:#FFFFFF;" d="M33.26,51.154c0-0.342-0.002-0.65,0-0.959
		c0-0.124-0.01-0.245-0.047-0.362c-0.074-0.241-0.234-0.386-0.484-0.424c-0.324-0.049-0.635,0-0.928,0.143
		c-0.307,0.148-0.457,0.406-0.494,0.736c-0.008,0.073-0.006,0.147-0.008,0.221c0,0.416,0,0.832,0,1.248c0,0.057,0.002,0.114,0,0.171
		c-0.004,0.1-0.016,0.114-0.111,0.126c-0.209,0.029-0.42,0.056-0.629,0.083c-0.355,0.046-0.711,0.093-1.068,0.138
		c-0.066,0.009-0.088-0.01-0.092-0.077c-0.002-0.033,0-0.066,0-0.099c0-0.432,0-0.864,0-1.297c-0.002-0.204,0.023-0.407,0.066-0.607
		c0.141-0.646,0.498-1.143,1.047-1.504c0.283-0.185,0.588-0.318,0.91-0.413c0.551-0.164,1.113-0.25,1.689-0.233
		c0.211,0.006,0.42,0.039,0.627,0.09c0.689,0.174,1.172,0.637,1.283,1.458c0.057,0.405,0.023,0.815,0.025,1.222
		c0,0.067-0.025,0.089-0.113,0.102c-0.217,0.033-0.434,0.063-0.652,0.094C33.951,51.059,33.619,51.104,33.26,51.154z"/>
	<path style="fill-rule:evenodd;clip-rule:evenodd;fill:#FBB613;" d="M41.494,28.888c-0.027-0.087-0.016-0.178-0.016-0.267
		c0-0.627,0-1.254,0-1.882c0-0.056,0-0.114-0.006-0.17c-0.004-0.02-0.037-0.039-0.061-0.021c-0.059,0.043-0.115,0.089-0.17,0.137
		c-0.244,0.207-0.498,0.395-0.77,0.56c-0.373,0.226-0.768,0.395-1.191,0.497c-0.055,0.014-0.111,0.023-0.168,0.032
		c-0.066,0.01-0.072-0.003-0.07-0.105c0.084-0.065,0.094-0.168,0.129-0.258c0.279-0.731,0.498-1.476,0.51-2.268
		c0.002-0.029-0.004-0.072,0.041-0.072c0.018,0,0.039,0.025,0.051,0.045c0.041,0.072,0.074,0.146,0.111,0.217
		c0.018,0.031,0.025,0.08,0.096,0.062c-0.023-0.264,0.004-0.529-0.045-0.798c-0.053-0.299-0.127-0.586-0.258-0.858
		c-0.029-0.06-0.051-0.119-0.047-0.187c0.154,0.09,0.285,0.214,0.424,0.328c0.898,0.731,1.77,1.494,2.586,2.315
		c0.063,0.063,0.137,0.117,0.176,0.201c-0.021,0.095-0.049,0.187-0.053,0.287c-0.006,0.269-0.061,0.531-0.137,0.789
		c-0.025,0.087-0.063,0.168-0.111,0.244c-0.023,0.036-0.074,0.033-0.105,0c-0.059-0.063-0.064-0.167-0.148-0.211
		c-0.059,0.04-0.068,0.098-0.088,0.151C42.008,28.098,41.789,28.514,41.494,28.888z"/>
	<path style="fill-rule:evenodd;clip-rule:evenodd;fill:#FFFFFF;" d="M25.559,26.831c1.73,1.128,3.463,2.242,5.273,3.227
		c0.006,0.003,0.006,0.015,0.01,0.024c-0.023,0.047-0.072,0.058-0.113,0.076c-0.918,0.417-1.83,0.41-2.725-0.073
		c-0.391-0.211-0.725-0.498-1.021-0.826c-0.359-0.394-0.648-0.835-0.906-1.301c-0.18-0.329-0.338-0.668-0.479-1.015
		C25.58,26.907,25.57,26.869,25.559,26.831z"/>
	<path style="fill-rule:evenodd;clip-rule:evenodd;fill:#FBB613;" d="M36.35,25.324c-0.002-0.071,0.043-0.121,0.078-0.175
		c0.131-0.205,0.264-0.41,0.393-0.617c0.291-0.476,0.502-0.985,0.631-1.527c0.055-0.237,0.088-0.479,0.074-0.725
		c-0.008-0.122-0.066-0.236-0.049-0.361c0.033,0.02,0.072,0.036,0.105,0.06c0.611,0.443,1.215,0.898,1.809,1.367
		c0.037,0.03,0.07,0.067,0.105,0.1c-0.08,0.412-0.281,0.758-0.555,1.073c-0.135,0.155-0.291,0.282-0.438,0.423
		c-0.086,0.083-0.184,0.163-0.313,0.182c-0.148-0.058-0.291-0.13-0.453-0.159c-0.426-0.073-0.816,0.018-1.186,0.23
		C36.484,25.236,36.418,25.281,36.35,25.324z"/>
	<path style="fill-rule:evenodd;clip-rule:evenodd;fill:#FBB613;" d="M22.094,26.008c0.047-0.029,0.094-0.063,0.145-0.086
		c0.391-0.183,0.789-0.344,1.193-0.496c0.035-0.014,0.074-0.021,0.109-0.029c0.043,0.054,0.02,0.1,0.004,0.145
		c-0.139,0.463-0.207,0.938-0.209,1.419c-0.002,0.919,0.213,1.788,0.666,2.592c0.041,0.069,0.1,0.13,0.109,0.215
		c-0.068,0.004-0.129-0.025-0.182-0.064c-0.225-0.17-0.459-0.338-0.652-0.546c-0.197-0.214-0.391-0.435-0.545-0.686
		c-0.398-0.65-0.605-1.36-0.637-2.122C22.092,26.236,22.094,26.123,22.094,26.008z"/>
	<path style="fill-rule:evenodd;clip-rule:evenodd;fill:#F4821F;" d="M26.963,23.633c0.045,0.026,0.068,0.066,0.074,0.119
		c0.117,0.922,0.428,1.783,0.869,2.595c0.289,0.529,0.637,1.018,1.084,1.43c0.035,0.033,0.068,0.078,0.121,0.029
		c0.016,0.027,0.035,0.054,0.047,0.083c0.008,0.02,0.008,0.043,0.01,0.064c-0.049,0.023-0.084-0.002-0.121-0.02
		c-1.545-0.734-2.584-1.916-3.119-3.539c-0.064-0.197-0.1-0.178,0.123-0.298c0.258-0.139,0.516-0.274,0.777-0.409
		C26.869,23.665,26.918,23.651,26.963,23.633z"/>
	<path style="fill-rule:evenodd;clip-rule:evenodd;fill:#F4821F;" d="M22.094,26.008c0,0.114-0.002,0.228,0.002,0.342
		c0.031,0.762,0.238,1.472,0.637,2.122c0.154,0.25,0.348,0.472,0.545,0.686c0.193,0.208,0.428,0.375,0.652,0.546
		c0.053,0.04,0.113,0.068,0.182,0.064l-0.008-0.002c0.018,0.019,0.031,0.037,0.049,0.056c0.018,0.011,0.023,0.025,0.006,0.036
		c-0.037,0.027-0.078,0.007-0.115-0.003c-1.52-0.463-2.607-1.419-3.262-2.869c-0.084-0.188-0.08-0.192,0.096-0.307
		C21.268,26.43,21.664,26.188,22.094,26.008z"/>
	<path style="fill-rule:evenodd;clip-rule:evenodd;fill:#FFFFFF;" d="M37.227,30.949c0.195-0.061,0.398-0.067,0.598-0.099
		c1.143-0.18,2.285-0.367,3.398-0.685c0.232-0.068,0.463-0.149,0.695-0.225c0.025,0.046-0.02,0.068-0.043,0.093
		c-0.49,0.523-1.049,0.952-1.713,1.236c-0.352,0.15-0.705,0.292-1.078,0.385c-0.256,0.063-0.514,0.096-0.775,0.078
		c-0.498-0.037-0.855-0.285-1.08-0.728C37.221,30.992,37.227,30.974,37.227,30.949z"/>
	<path style="fill-rule:evenodd;clip-rule:evenodd;fill:#F4821F;" d="M38.191,25.124c0.129-0.019,0.227-0.099,0.313-0.182
		c0.146-0.141,0.303-0.268,0.438-0.423c0.273-0.315,0.475-0.661,0.555-1.073c0.039,0.007,0.066,0.029,0.084,0.064
		c0.016,0.013,0.033,0.027,0.051,0.041l0,0c-0.004,0.067,0.018,0.127,0.047,0.187c0.131,0.272,0.205,0.56,0.258,0.858
		c0.049,0.269,0.021,0.534,0.045,0.798c-0.07,0.018-0.078-0.031-0.096-0.062c-0.037-0.072-0.07-0.146-0.111-0.217
		c-0.012-0.02-0.033-0.045-0.051-0.045c-0.045,0-0.039,0.043-0.041,0.072c-0.012,0.792-0.23,1.537-0.51,2.268
		c-0.035,0.09-0.045,0.192-0.129,0.258c0-0.212-0.002-0.423,0-0.635c0-0.221-0.025-0.44-0.068-0.656
		C38.873,25.861,38.631,25.431,38.191,25.124z"/>
	<path style="fill-rule:evenodd;clip-rule:evenodd;fill:#F4821F;" d="M41.494,28.888c0.295-0.374,0.514-0.79,0.68-1.234
		c0.02-0.053,0.029-0.111,0.088-0.151c0.084,0.044,0.09,0.149,0.148,0.211c0.031,0.033,0.082,0.035,0.105,0
		c0.049-0.075,0.086-0.157,0.111-0.244c0.076-0.258,0.131-0.52,0.137-0.789c0.004-0.1,0.031-0.191,0.053-0.287
		c0.273,0.234,0.5,0.512,0.734,0.784c0.141,0.161,0.133,0.343,0.027,0.523c-0.063,0.106-0.148,0.194-0.242,0.274
		c-0.137,0.117-0.285,0.217-0.439,0.309c-0.424,0.25-0.873,0.442-1.328,0.626C41.539,28.923,41.508,28.936,41.494,28.888z"/>
	<path style="fill-rule:evenodd;clip-rule:evenodd;fill:#FBB613;" d="M39.631,23.551c-0.018-0.014-0.035-0.028-0.051-0.041
		C39.607,23.512,39.623,23.527,39.631,23.551z"/>
	<path style="fill-rule:evenodd;clip-rule:evenodd;fill:#FBB613;" d="M24.152,29.822c-0.018-0.019-0.031-0.037-0.049-0.056
		C24.139,29.769,24.148,29.792,24.152,29.822z"/>
	<path style="fill-rule:evenodd;clip-rule:evenodd;fill:#01263E;" d="M17.717,51.635c0.207-0.067,0.42-0.075,0.627-0.107
		c0.186-0.028,0.369-0.071,0.559-0.058c0.047,0.003,0.098,0,0.146,0.009c0.26,0.042,0.426,0.194,0.49,0.448
		c0.031,0.125,0.047,0.255,0.045,0.387c-0.004,0.285,0.002,0.57-0.002,0.855c0,0.081-0.01,0.162-0.02,0.243
		c-0.047,0.406-0.277,0.663-0.652,0.807c-0.176,0.068-0.361,0.097-0.545,0.126c-0.193,0.031-0.387,0.053-0.582,0.077
		c-0.047,0.006-0.072-0.023-0.076-0.072c0-0.033,0-0.065,0-0.098c0-0.822-0.002-1.645,0-2.467
		C17.707,51.735,17.713,51.688,17.717,51.635z"/>
</g>
</svg>
