<?xml version="1.0" encoding="iso-8859-1"?>
<!-- Generator: Adobe Illustrator 16.0.0, SVG Export Plug-In . SVG Version: 6.00 Build 0)  -->
<!DOCTYPE svg PUBLIC "-//W3C//DTD SVG 1.1//EN" "http://www.w3.org/Graphics/SVG/1.1/DTD/svg11.dtd">
<svg version="1.1" id="Layer_1" xmlns="http://www.w3.org/2000/svg" xmlns:xlink="http://www.w3.org/1999/xlink" x="0px" y="0px"
	 width="64px" height="64px" viewBox="0 0 64 64" style="enable-background:new 0 0 64 64;" xml:space="preserve">
<g>
	<path style="fill-rule:evenodd;clip-rule:evenodd;fill:#FFFFFF;" d="M55.885,0.013c-0.456,0.373-0.802,0.666-1.16,0.945
		c-1.359,1.063-2.723,2.12-4.084,3.18c-1.244,0.97-2.48,1.949-3.738,2.9c-0.195,0.147-0.486,0.234-0.733,0.234
		C38.553,7.285,30.936,7.25,23.319,7.299c-3.113,0.02-5.941,1.022-8.455,2.894c-2.156,1.604-3.748,3.65-4.845,6.084
		c-0.635,1.411-1.069,2.887-1.192,4.441c-0.049,0.625-0.139,1.247-0.17,1.872c-0.017,0.34,0.077,0.685,0.078,1.026
		c0.007,2.802,0.004,5.604,0.004,8.405c0,1.127,0,2.254,0,3.406c-2.968,0-5.809,0-8.724,0c0-0.146,0-0.305,0-0.463
		c0-5.043-0.044-10.086,0.021-15.128c0.028-2.176,0.544-4.29,1.327-6.331c0.629-1.642,1.44-3.181,2.442-4.628
		c1.05-1.517,2.309-2.829,3.691-4.037c1.331-1.163,2.809-2.095,4.398-2.853c1.775-0.847,3.628-1.464,5.585-1.692
		c1.307-0.152,2.627-0.269,3.942-0.271c11.267-0.021,22.534-0.012,33.801-0.012C55.396,0.013,55.571,0.013,55.885,0.013z"/>
	<path style="fill-rule:evenodd;clip-rule:evenodd;fill:#FFFFFF;" d="M55.266,28.375c2.932,0,5.792,0,8.724,0
		c0,0.167,0,0.325,0,0.484c0,4.922,0.031,9.845-0.017,14.767c-0.017,1.738-0.253,3.479-0.814,5.137
		c-0.459,1.357-0.958,2.711-1.572,4.002c-0.709,1.491-1.676,2.833-2.763,4.089c-1.234,1.425-2.62,2.665-4.179,3.722
		c-2.253,1.525-4.73,2.52-7.391,3.027c-1.021,0.195-2.079,0.278-3.121,0.282c-6.452,0.025-12.904,0.001-19.355,0.017
		c-5.34,0.013-10.681,0.057-16.021,0.087c-0.176,0.001-0.353,0-0.579-0.098c0.266-0.213,0.524-0.436,0.799-0.636
		c1.836-1.335,3.678-2.663,5.515-3.999c0.949-0.689,1.884-1.4,2.843-2.075c0.215-0.151,0.508-0.269,0.765-0.27
		c7.8-0.014,15.6,0.021,23.399-0.029c2.529-0.016,5-0.515,7.261-1.728c1.867-1.001,3.33-2.433,4.4-4.278
		c0.967-1.669,1.483-3.485,1.812-5.354c0.188-1.071,0.275-2.172,0.282-3.26c0.03-4.437,0.013-8.875,0.013-13.313
		C55.266,28.771,55.266,28.593,55.266,28.375z"/>
	<path style="fill-rule:evenodd;clip-rule:evenodd;fill:#FFFFFF;" d="M42.519,14.099c-4.768,4.723-9.447,9.357-14.221,14.085
		c0.556,0,0.986-0.012,1.416,0.002c2.42,0.076,4.798,0.398,7.104,1.173c2.306,0.774,4.33,1.997,5.944,3.827
		c1.4,1.587,2.301,3.455,2.765,5.511c0.231,1.025,0.423,2.081,0.45,3.127c0.064,2.52,0.021,5.042,0.021,7.595
		c-2.698,0-5.459,0-8.251,0c-0.007-0.153-0.019-0.3-0.019-0.447c-0.001-1.408,0.049-2.818-0.014-4.225
		c-0.077-1.692-0.244-3.386-0.917-4.972c-0.679-1.6-1.901-2.665-3.485-3.292c-1.332-0.527-2.744-0.731-4.172-0.853
		c-3.771-0.32-7.549-0.114-11.324-0.176c-0.132-0.002-0.265,0-0.445,0c0-0.172,0-0.304,0-0.435c0-2.136-0.008-4.271,0.012-6.406
		c0.002-0.223,0.119-0.498,0.276-0.655c4.509-4.529,9.031-9.046,13.545-13.571c0.208-0.209,0.413-0.296,0.708-0.295
		c3.347,0.01,6.693,0.007,10.04,0.007C42.098,14.099,42.243,14.099,42.519,14.099z"/>
</g>
</svg>
