<?xml version="1.0" encoding="iso-8859-1"?>
<!-- Generator: Adobe Illustrator 16.0.0, SVG Export Plug-In . SVG Version: 6.00 Build 0)  -->
<!DOCTYPE svg PUBLIC "-//W3C//DTD SVG 1.1//EN" "http://www.w3.org/Graphics/SVG/1.1/DTD/svg11.dtd">
<svg version="1.1" id="Layer_1" xmlns="http://www.w3.org/2000/svg" xmlns:xlink="http://www.w3.org/1999/xlink" x="0px" y="0px"
	 width="64px" height="64px" viewBox="0 0 64 64" style="enable-background:new 0 0 64 64;" xml:space="preserve">
<g>
	<path style="fill-rule:evenodd;clip-rule:evenodd;fill:#F6E611;" d="M55.464,5.013c0.125,0.061,0.221,0.151,0.293,0.273
		c2.348,3.929,4.697,7.856,7.046,11.783c0.218,0.364,0.422,0.736,0.663,1.088c0.191,0.278,0.172,0.479-0.059,0.787
		c-0.646,0.862-1.299,1.721-1.943,2.585c-3.72,4.982-7.438,9.968-11.157,14.951c-0.092,0.123-0.188,0.244-0.301,0.391
		c-0.237-0.621-0.463-1.21-0.688-1.798c-0.613-1.61-1.224-3.22-1.841-4.828c-0.11-0.289-0.078-0.542,0.115-0.787
		c1.789-2.259,3.574-4.519,5.361-6.779c1.033-1.307,2.067-2.611,3.1-3.919c0.268-0.338,0.275-0.479,0.052-0.85
		c-0.809-1.343-1.619-2.683-2.427-4.025c-0.407-0.677-0.813-1.354-1.209-2.038c-0.146-0.25-0.335-0.359-0.627-0.325
		c-0.986,0.116-1.972,0.221-2.958,0.329c-1.025,0.113-2.05,0.227-3.075,0.339c-1.285,0.139-2.569,0.276-3.854,0.417
		c-0.253,0.027-0.508,0.051-0.758,0.095c-0.34,0.061-0.612,0.24-0.834,0.508c-2.313,2.809-4.63,5.615-6.946,8.422
		c-0.89,1.077-1.783,2.152-2.671,3.232c-0.192,0.233-0.429,0.304-0.715,0.255c-2.99-0.508-5.981-1.017-8.972-1.523
		c-1.473-0.249-2.946-0.495-4.419-0.743c-0.217-0.037-0.383-0.146-0.515-0.325c-0.952-1.294-1.908-2.586-2.868-3.874
		c-0.125-0.168-0.14-0.324-0.048-0.508c0.255-0.515,0.51-1.029,0.734-1.558c0.121-0.284,0.272-0.364,0.577-0.313
		c1.389,0.236,2.776,0.479,4.166,0.715c1.813,0.311,3.627,0.617,5.44,0.927c1.151,0.196,2.303,0.39,3.451,0.598
		c0.263,0.048,0.438-0.039,0.598-0.231c0.834-1.015,1.669-2.027,2.507-3.037c2.019-2.435,4.038-4.867,6.057-7.301
		c0.104-0.125,0.219-0.246,0.3-0.387c0.274-0.482,0.715-0.647,1.237-0.7c1.708-0.175,3.414-0.361,5.121-0.544
		c1.512-0.16,3.024-0.32,4.537-0.484c1.745-0.189,3.49-0.383,5.235-0.573c0.649-0.071,1.298-0.139,1.947-0.209
		c0.051-0.006,0.1-0.022,0.149-0.034C55.332,5.013,55.397,5.013,55.464,5.013z"/>
	<path style="fill-rule:evenodd;clip-rule:evenodd;fill:#F6E611;" d="M0.404,18.737c0.267-0.598,0.631-1.14,0.957-1.703
		C3.567,13.22,5.779,9.408,7.989,5.596c0.19-0.327,0.269-0.362,0.65-0.321c1.422,0.151,2.844,0.297,4.265,0.447
		c1.682,0.178,3.362,0.359,5.044,0.536c1.421,0.149,2.844,0.295,4.266,0.444c1.421,0.149,2.842,0.305,4.264,0.455
		c1.182,0.124,2.363,0.241,3.545,0.369c0.398,0.043,0.802,0.059,1.217,0.169c-0.311,0.371-0.607,0.726-0.905,1.079
		c-1.221,1.447-2.446,2.893-3.661,4.346c-0.227,0.271-0.478,0.351-0.826,0.301c-1.402-0.202-2.807-0.38-4.21-0.569
		c-1.501-0.202-3.001-0.406-4.5-0.608c-1.398-0.189-2.795-0.377-4.191-0.565c-0.213-0.028-0.429-0.049-0.641-0.085
		c-0.427-0.073-0.715,0.104-0.918,0.471c-0.311,0.56-0.625,1.117-0.945,1.67c-0.831,1.435-1.667,2.867-2.502,4.301
		c-0.226,0.388-0.226,0.43,0.04,0.785c2.123,2.833,4.248,5.666,6.368,8.501c0.14,0.188,0.314,0.283,0.538,0.317
		c2.425,0.376,4.849,0.755,7.272,1.129c2.334,0.36,4.669,0.717,7.003,1.075c0.381,0.058,0.76,0.134,1.141,0.175
		c0.295,0.032,0.447,0.185,0.546,0.453c0.458,1.242,0.928,2.479,1.393,3.72c1.08,2.876,2.155,5.754,3.243,8.628
		c0.125,0.33,0.113,0.615-0.036,0.936c-0.634,1.354-1.254,2.713-1.865,4.076c-0.132,0.293-0.317,0.437-0.641,0.439
		c-0.522,0.006-1.041,0.075-1.561,0.129c-0.355,0.037-0.446-0.008-0.573-0.347c-0.475-1.264-0.948-2.529-1.421-3.793
		c-1.035-2.762-2.07-5.521-3.102-8.284c-0.109-0.291-0.297-0.457-0.609-0.505c-1.394-0.212-2.784-0.435-4.178-0.651
		c-1.554-0.241-3.107-0.482-4.662-0.721c-1.431-0.221-2.863-0.436-4.295-0.653c-0.207-0.031-0.414-0.058-0.62-0.092
		c-0.625-0.104-1.105-0.428-1.484-0.934c-2.081-2.791-4.166-5.579-6.255-8.365c-1.175-1.568-2.357-3.132-3.537-4.696
		c-0.099-0.131-0.178-0.271-0.24-0.423C0.404,18.868,0.404,18.803,0.404,18.737z"/>
	<path style="fill-rule:evenodd;clip-rule:evenodd;fill:#F6E611;" d="M14.794,38.213c0.313,0.05,0.627,0.097,0.939,0.148
		c2.091,0.348,4.182,0.698,6.274,1.04c0.278,0.046,0.409,0.219,0.507,0.455c0.6,1.446,1.204,2.891,1.807,4.335
		c1.136,2.722,2.27,5.442,3.405,8.163c0.184,0.438,0.28,0.505,0.752,0.5c2.318-0.02,4.639-0.048,6.958-0.029
		c0.433,0.003,0.711-0.182,0.886-0.573c1.398-3.142,2.802-6.28,4.208-9.418c0.128-0.282,0.126-0.546,0.015-0.83
		c-0.685-1.735-1.365-3.472-2.046-5.209c-1.165-2.969-2.33-5.938-3.496-8.906c-0.11-0.283-0.073-0.527,0.128-0.763
		c2.287-2.677,4.571-5.356,6.855-8.035c0.614-0.721,1.229-1.441,1.839-2.167c0.153-0.183,0.339-0.276,0.571-0.299
		c1.513-0.146,3.029-0.274,4.539-0.456c0.467-0.056,0.742,0.061,0.978,0.461c0.24,0.41,0.551,0.777,0.832,1.163
		c0.17,0.235,0.171,0.35-0.021,0.574c-1.267,1.486-2.534,2.972-3.803,4.457c-1.558,1.822-3.114,3.645-4.674,5.465
		c-0.199,0.233-0.232,0.48-0.121,0.764c0.692,1.753,1.381,3.508,2.07,5.263c1.016,2.587,2.031,5.173,3.05,7.758
		c0.139,0.351,0.119,0.685-0.034,1.024c-1.087,2.415-2.173,4.831-3.256,7.248c-1.184,2.644-2.377,5.284-3.536,7.938
		c-0.201,0.461-0.476,0.625-0.95,0.61c-0.673-0.021-1.347-0.002-2.02,0.001c-1.483,0.004-2.967,0.006-4.45,0.015
		c-1.783,0.011-3.566,0.025-5.35,0.039c-0.993,0.008-1.986,0.004-2.979,0.037c-0.417,0.015-0.64-0.145-0.808-0.52
		c-1.414-3.184-2.839-6.362-4.27-9.539c-1.575-3.498-3.121-7.009-4.739-10.486C14.827,38.378,14.779,38.318,14.794,38.213z"/>
</g>
</svg>
