<?xml version="1.0" encoding="iso-8859-1"?>
<!-- Generator: Adobe Illustrator 16.0.0, SVG Export Plug-In . SVG Version: 6.00 Build 0)  -->
<!DOCTYPE svg PUBLIC "-//W3C//DTD SVG 1.1//EN" "http://www.w3.org/Graphics/SVG/1.1/DTD/svg11.dtd">
<svg version="1.1" id="Layer_1" xmlns="http://www.w3.org/2000/svg" xmlns:xlink="http://www.w3.org/1999/xlink" x="0px" y="0px"
	 width="64px" height="64px" viewBox="0 0 64 64" style="enable-background:new 0 0 64 64;" xml:space="preserve">
<g>
	<path style="fill-rule:evenodd;clip-rule:evenodd;fill:#ECBA03;" d="M31.999,63.896C14.179,63.861-0.05,49.587,0,31.794
		C0.05,14.177,14.447,0.055,32.311,0.104C49.79,0.15,64.054,14.554,64,32.104C63.946,49.688,49.611,63.931,31.999,63.896z
		 M46.757,33.759c0.066,0.072,0.134,0.144,0.202,0.215c2.206,3.292,1.51,6.32-0.796,9.238c-2.026,2.561-4.482,4.579-7.622,5.505
		c-8.285,2.443-15.783,0.794-22.427-4.692c-0.512-0.423-1.069-1.006-0.879-1.857c0.195-0.867,0.992-0.886,1.604-1.074
		c0.928-0.287,1.896-0.438,2.848-0.646c-1.122-0.258-2.176-0.052-3.253,0.153c-1.45,0.276-2.772,0.768-3.849,1.78
		c-2.133,2.007-2.36,5.059-0.657,7.896c1.38,2.3,3.555,3.654,5.828,4.85c6.205,3.261,12.784,4.059,19.646,2.827
		c4.796-0.86,9.065-2.787,12.405-6.41c5.127-5.56,4.482-12.521-1.501-16.913c-0.396-0.291-0.749-0.739-1.342-0.663
		c0.016-0.168-0.088-0.199-0.223-0.194c-0.016-0.018-0.03-0.035-0.046-0.053C46.717,33.733,46.736,33.746,46.757,33.759z
		 M24.565,15.604c-0.629,0.082-1.172-0.044-1.721-0.104c-2.391-0.265-4.817-0.266-6.896,1.031c-3.359,2.1-5.596,7.681-1.625,11.742
		c1.574,1.61,3.448,2.771,5.447,3.748c4.312,2.104,8.9,3.441,13.455,4.877c3.067,0.966,6.182,1.817,9.045,3.336
		c0.827,0.438,1.707,0.916,2.068,1.817c0.331,0.826,0.63,0.567,1.068,0.174c1.98-1.781,2.292-4.697,0.77-7.216
		c-1.146-1.892-2.905-3.029-4.847-3.929c-3.955-1.832-8.199-2.72-12.396-3.762c-2.986-0.743-6.028-1.327-8.8-2.735
		c-2.495-1.269-2.756-3.036-0.806-5.037c0.287-0.294,0.619-0.556,0.964-0.781c1.382-0.903,2.937-1.207,4.554-1.2
		c4.906,0.021,9.294,1.511,13.194,4.531c2.096,1.623,4.514,2.691,7.061,3.433c1.138,0.329,2.305,0.488,3.484,0.197
		c0.433-0.107,1.023-0.193,0.995-0.721c-0.021-0.397-0.608-0.306-0.955-0.405c-2.597-0.757-4.144-2.624-5.216-4.975
		c-0.234-0.514-0.101-0.963,0.484-1.163c1.431-0.488,2.294-1.592,3.129-2.767c0.898-1.264,2.075-1.178,2.914,0.174
		c0.234,0.377,0.357,0.823,0.551,1.228c0.315,0.659,0.384,1.449,1.087,2.09c0.244-1.498-0.128-2.78-0.468-4.069
		c-0.065-0.246-0.294-0.554-0.008-0.765c0.31-0.229,0.58,0.08,0.832,0.214c0.202,0.107,0.324,0.326,0.435,0.557
		c0.359,0.751,0.767,1.479,1.272,2.435c-0.068-1.151-0.313-1.954-0.709-2.79c-0.678-1.43-1.98-2.511-2.096-4.283
		c-0.078-1.203-2.013-2.152-3.176-1.753c-0.714,0.246-1.374,0.826-2.084,0.875c-1.696,0.118-3.007,0.973-4.314,1.88
		c-0.653,0.453-1.328,0.681-2.13,0.636c-0.976-0.055-1.938,0.099-2.852,0.459c-0.718,0.283-1.127,0.776-1.014,1.604
		c0.034,0.247,0.147,0.518-0.057,0.832c-0.569-0.576-1.32-1.052-0.909-1.932c0.331-0.708-0.023-0.794-0.533-0.937
		c-2.642-0.739-5.327-1.254-8.063-1.424c-3.231-0.202-6.438-0.1-9.491,1.208c-3.885,1.662-6.208,6.269-5.124,10.212
		c0.028-0.02,0.078-0.036,0.082-0.061c0.038-0.203,0.058-0.411,0.103-0.612c0.645-2.955,2.053-5.297,5.147-6.195
		c2.283-0.663,4.601-0.468,6.905-0.079C23.717,15.266,24.169,15.196,24.565,15.604z M37.907,47.466
		c-0.171-0.158-0.255-0.268-0.364-0.332c-4.48-2.688-9.244-4.666-14.391-5.65c-1.696-0.323-3.405-0.414-5.083,0.179
		c-1.034,0.364-1.263,1.007-0.623,1.896c0.494,0.688,1.177,1.174,1.896,1.583c4.299,2.446,8.921,3.689,13.873,3.549
		C34.824,48.645,36.419,48.367,37.907,47.466z"/>
	<path style="fill-rule:evenodd;clip-rule:evenodd;fill:#35332F;" d="M24.565,15.604c-0.396-0.408-0.849-0.339-1.24-0.406
		c-2.305-0.389-4.622-0.584-6.905,0.079c-3.095,0.898-4.503,3.24-5.147,6.195c-0.045,0.201-0.064,0.409-0.103,0.612
		c-0.004,0.024-0.054,0.041-0.082,0.061c-1.084-3.943,1.239-8.55,5.124-10.212c3.054-1.308,6.26-1.41,9.491-1.208
		c2.735,0.17,5.421,0.685,8.063,1.424c0.51,0.143,0.864,0.229,0.533,0.937c-0.411,0.88,0.34,1.355,0.909,1.932
		c0.204-0.314,0.091-0.585,0.057-0.832c-0.113-0.827,0.296-1.32,1.014-1.604c0.914-0.36,1.876-0.514,2.852-0.459
		c0.802,0.045,1.477-0.183,2.13-0.636c1.308-0.907,2.618-1.762,4.314-1.88c0.71-0.049,1.37-0.629,2.084-0.875
		c1.163-0.399,3.098,0.55,3.176,1.753c0.115,1.772,1.418,2.854,2.096,4.283c0.396,0.836,0.641,1.639,0.709,2.79
		c-0.506-0.956-0.913-1.684-1.272-2.435c-0.11-0.23-0.232-0.449-0.435-0.557c-0.252-0.134-0.522-0.443-0.832-0.214
		c-0.286,0.211-0.058,0.519,0.008,0.765c0.34,1.289,0.712,2.571,0.468,4.069c-0.703-0.641-0.771-1.431-1.087-2.09
		c-0.193-0.404-0.316-0.851-0.551-1.228c-0.839-1.352-2.016-1.438-2.914-0.174c-0.835,1.175-1.698,2.278-3.129,2.767
		c-0.585,0.2-0.719,0.649-0.484,1.163c1.072,2.351,2.619,4.218,5.216,4.975c0.347,0.1,0.934,0.008,0.955,0.405
		c0.028,0.527-0.563,0.613-0.995,0.721c-1.18,0.291-2.347,0.132-3.484-0.197c-2.547-0.741-4.965-1.81-7.061-3.433
		c-3.9-3.021-8.288-4.51-13.194-4.531c-1.617-0.007-3.172,0.297-4.554,1.2c-0.345,0.226-0.677,0.487-0.964,0.781
		c-1.95,2.001-1.689,3.769,0.806,5.037c2.771,1.408,5.813,1.992,8.8,2.735c4.196,1.042,8.44,1.93,12.396,3.762
		c1.941,0.899,3.701,2.037,4.847,3.929c1.522,2.519,1.211,5.435-0.77,7.216c-0.438,0.394-0.737,0.652-1.068-0.174
		c-0.361-0.901-1.241-1.379-2.068-1.817c-2.863-1.519-5.978-2.37-9.045-3.336c-4.555-1.436-9.144-2.773-13.455-4.877
		c-1.999-0.977-3.873-2.138-5.447-3.748c-3.971-4.062-1.734-9.643,1.625-11.742c2.079-1.297,4.506-1.296,6.896-1.031
		C23.394,15.561,23.937,15.687,24.565,15.604z M43.771,23.213c0.043,0.089,0.087,0.177,0.131,0.264
		c0.039-0.033,0.114-0.091,0.11-0.097c-0.05-0.075-0.11-0.143-0.168-0.213c-1.566-1.49-3.055-3.036-3.727-5.203
		c2.624-0.157,4.013-1.016,4.24-2.786c-1.659,2.009-3.74,2.646-6.265,2.004c0.779,0.31,1.001,0.923,1.311,1.507
		C40.422,20.607,41.73,22.268,43.771,23.213z M43.671,12.39c0.671-0.021,1.253-0.261,1.636-0.854
		c0.154-0.236,0.071-0.466-0.183-0.599c-0.633-0.33-1.189-0.074-1.736,0.238c-0.03,0.018-0.06,0.035-0.085,0.058
		c-0.269,0.239-0.779,0.397-0.644,0.815C42.786,12.441,43.283,12.366,43.671,12.39z M50.973,17.242
		c0.122-1.388-0.503-2.535-1.094-3.684c-0.145-0.28-0.456-0.399-0.805-0.329c-0.301,0.062-0.345,0.303-0.408,0.533
		c-0.106,0.388,0.112,0.576,0.44,0.686c0.608,0.204,0.916,0.693,1.165,1.233C50.511,16.2,50.739,16.723,50.973,17.242z"/>
	<path style="fill-rule:evenodd;clip-rule:evenodd;fill:#35332F;" d="M46.965,33.967c0.593-0.075,0.945,0.373,1.342,0.664
		c5.983,4.393,6.628,11.354,1.501,16.913c-3.34,3.623-7.609,5.55-12.405,6.41c-6.862,1.231-13.441,0.434-19.646-2.827
		c-2.273-1.195-4.448-2.55-5.828-4.85c-1.703-2.838-1.476-5.89,0.657-7.896c1.076-1.013,2.398-1.504,3.849-1.78
		c1.077-0.205,2.131-0.411,3.253-0.153c-0.951,0.208-1.92,0.358-2.848,0.646c-0.611,0.188-1.408,0.207-1.604,1.074
		c-0.19,0.852,0.367,1.435,0.879,1.857c6.644,5.486,14.142,7.136,22.427,4.692c3.14-0.926,5.596-2.944,7.622-5.505
		c2.306-2.918,3.002-5.946,0.796-9.238L46.965,33.967z"/>
	<path style="fill-rule:evenodd;clip-rule:evenodd;fill:#35332F;" d="M37.907,47.466c-1.488,0.901-3.083,1.179-4.691,1.225
		c-4.952,0.141-9.574-1.103-13.873-3.549c-0.72-0.409-1.402-0.896-1.896-1.583c-0.64-0.89-0.411-1.532,0.623-1.896
		c1.678-0.593,3.387-0.502,5.083-0.179c5.146,0.984,9.91,2.962,14.391,5.65C37.652,47.198,37.736,47.308,37.907,47.466z"/>
	<path style="fill-rule:evenodd;clip-rule:evenodd;fill:#35332F;" d="M46.756,33.759c-0.02-0.013-0.039-0.025-0.06-0.038
		c0.016,0.018,0.03,0.035,0.046,0.053L46.756,33.759z"/>
	<path style="fill-rule:evenodd;clip-rule:evenodd;fill:#35332F;" d="M46.742,33.773c0.135-0.005,0.238,0.026,0.223,0.193
		l-0.006,0.007c-0.068-0.071-0.136-0.143-0.203-0.215L46.742,33.773z"/>
	<path style="fill-rule:evenodd;clip-rule:evenodd;fill:#ECBA03;" d="M43.769,23.214c-2.038-0.946-3.347-2.606-4.365-4.525
		c-0.31-0.584-0.531-1.197-1.311-1.507c2.524,0.642,4.605,0.005,6.265-2.004c-0.228,1.771-1.616,2.629-4.24,2.786
		c0.672,2.167,2.16,3.713,3.727,5.203L43.769,23.214z"/>
	<path style="fill-rule:evenodd;clip-rule:evenodd;fill:#ECBA03;" d="M43.671,12.39c-0.388-0.023-0.885,0.052-1.012-0.342
		c-0.136-0.418,0.375-0.576,0.644-0.815c0.025-0.022,0.055-0.04,0.085-0.058c0.547-0.313,1.104-0.568,1.736-0.238
		c0.254,0.133,0.337,0.362,0.183,0.599C44.924,12.129,44.342,12.368,43.671,12.39z"/>
	<path style="fill-rule:evenodd;clip-rule:evenodd;fill:#ECBA03;" d="M50.973,17.242c-0.233-0.52-0.462-1.042-0.701-1.561
		c-0.249-0.54-0.557-1.029-1.165-1.233c-0.328-0.109-0.547-0.298-0.44-0.686c0.063-0.23,0.107-0.472,0.408-0.533
		c0.349-0.07,0.66,0.049,0.805,0.329C50.47,14.707,51.095,15.854,50.973,17.242z"/>
	<path style="fill-rule:evenodd;clip-rule:evenodd;fill:#ECBA03;" d="M43.844,23.167c0.058,0.07,0.118,0.138,0.168,0.213
		c0.004,0.006-0.071,0.063-0.11,0.097c-0.044-0.087-0.088-0.175-0.132-0.264C43.769,23.214,43.844,23.167,43.844,23.167z"/>
</g>
</svg>
