<?xml version="1.0" encoding="iso-8859-1"?>
<!-- Generator: Adobe Illustrator 16.0.0, SVG Export Plug-In . SVG Version: 6.00 Build 0)  -->
<!DOCTYPE svg PUBLIC "-//W3C//DTD SVG 1.1//EN" "http://www.w3.org/Graphics/SVG/1.1/DTD/svg11.dtd">
<svg version="1.1" id="Layer_1" xmlns="http://www.w3.org/2000/svg" xmlns:xlink="http://www.w3.org/1999/xlink" x="0px" y="0px"
	 width="64px" height="64px" viewBox="0 0 64 64" style="enable-background:new 0 0 64 64;" xml:space="preserve">
<g>
	<path style="fill-rule:evenodd;clip-rule:evenodd;fill:#003399;" d="M64,55c0,4.971-4.029,9-9,9H9c-4.971,0-9-4.029-9-9V9
		c0-4.971,4.029-9,9-9h46c4.971,0,9,4.029,9,9V55z"/>
	<path style="fill-rule:evenodd;clip-rule:evenodd;fill:#FFDE00;" d="M12.605,35.119c-0.162-0.903-0.538-1.645-0.711-2.455
		c0.615-0.578,1.371-0.958,2.042-1.612c-0.909,0-1.728,0-2.579,0c-0.272-0.811-0.531-1.581-0.79-2.353
		c-0.03-0.005-0.06-0.009-0.089-0.014c-0.259,0.771-0.518,1.543-0.782,2.329c-0.863,0.106-1.705-0.036-2.571,0.092
		c0.665,0.586,1.398,0.978,2.008,1.548c-0.154,0.824-0.526,1.566-0.722,2.48c0.757-0.544,1.42-1.02,2.11-1.515
		C11.201,34.109,11.863,34.585,12.605,35.119z M21.801,49.744c-0.272-0.814-0.531-1.589-0.819-2.454
		c-0.39,0.831-0.53,1.648-0.882,2.438c-0.807,0-1.609,0-2.518,0c0.671,0.652,1.417,1.026,2.026,1.59
		c-0.248,0.791-0.488,1.555-0.728,2.318c0.026,0.019,0.052,0.037,0.079,0.056c0.667-0.471,1.333-0.941,2.01-1.419
		c0.685,0.49,1.333,0.953,2.075,1.484c-0.184-0.928-0.562-1.659-0.708-2.458c0.611-0.561,1.342-0.935,2-1.556
		C23.461,49.744,22.671,49.744,21.801,49.744z M17.702,12.122c-0.014,0.04-0.028,0.08-0.042,0.119
		c0.648,0.476,1.296,0.95,1.957,1.434c-0.256,0.815-0.497,1.585-0.762,2.429c0.803-0.417,1.384-1.022,2.13-1.424
		c0.664,0.471,1.317,0.934,1.969,1.396c0.029-0.022,0.057-0.044,0.085-0.066c-0.243-0.767-0.486-1.533-0.735-2.322
		c0.68-0.508,1.325-0.989,1.969-1.47c-0.01-0.031-0.021-0.063-0.032-0.094c-0.803,0-1.605,0-2.438,0
		c-0.275-0.808-0.538-1.581-0.8-2.354c-0.032,0-0.064,0-0.096,0.001c-0.259,0.773-0.517,1.546-0.786,2.352
		C19.287,12.122,18.495,12.122,17.702,12.122z M9.85,41.985c-0.014,0.034-0.027,0.068-0.041,0.104
		c0.635,0.472,1.271,0.943,1.931,1.435c-0.132,0.837-0.521,1.584-0.711,2.467c0.783-0.455,1.377-1.04,2.125-1.441
		c0.671,0.477,1.33,0.944,1.987,1.411c0.023-0.022,0.046-0.045,0.069-0.068c-0.242-0.771-0.484-1.541-0.736-2.343
		c0.664-0.494,1.311-0.977,1.957-1.458c-0.016-0.035-0.033-0.07-0.049-0.105c-0.794,0-1.588,0-2.428,0
		c-0.267-0.811-0.526-1.595-0.796-2.414c-0.535,0.738-0.545,1.628-0.891,2.414C11.442,41.985,10.646,41.985,9.85,41.985z
		 M53.956,42.024c-0.014-0.042-0.027-0.084-0.041-0.125c-0.805,0-1.611,0-2.425,0c-0.27-0.805-0.524-1.563-0.812-2.423
		c-0.395,0.854-0.528,1.679-0.899,2.454c-0.813,0-1.61,0-2.484,0c0.658,0.618,1.386,1,1.998,1.549
		c-0.166,0.806-0.545,1.545-0.7,2.44c0.733-0.521,1.392-0.988,2.071-1.47c0.686,0.49,1.347,0.963,2.009,1.436
		c0.024-0.021,0.048-0.044,0.072-0.065c-0.244-0.771-0.488-1.54-0.743-2.344C52.664,42.984,53.31,42.504,53.956,42.024z
		 M44.168,51.247c0.699-0.515,1.335-0.983,1.97-1.451c-0.01-0.032-0.02-0.064-0.03-0.098c-0.816,0-1.632,0-2.441,0
		c-0.35-0.8-0.475-1.629-0.881-2.416c-0.282,0.84-0.543,1.617-0.816,2.432c-0.835,0-1.636,0-2.528,0
		c0.677,0.627,1.421,1.003,2.017,1.575c-0.25,0.798-0.491,1.563-0.731,2.329c0.024,0.017,0.049,0.033,0.074,0.05
		c0.666-0.474,1.332-0.948,2.015-1.434c0.691,0.491,1.35,0.961,2.009,1.43c0.025-0.021,0.05-0.042,0.074-0.063
		C44.659,52.821,44.416,52.041,44.168,51.247z M32.043,11.869c0.708,0.506,1.358,0.97,2.009,1.435
		c0.025-0.022,0.051-0.044,0.076-0.065c-0.242-0.768-0.485-1.535-0.74-2.345c0.666-0.496,1.316-0.98,1.966-1.466
		c-0.016-0.035-0.031-0.069-0.046-0.104c-0.807,0-1.614,0-2.437,0c-0.268-0.797-0.523-1.557-0.816-2.427
		c-0.386,0.857-0.525,1.676-0.892,2.453c-0.81,0-1.609,0-2.516,0c0.695,0.606,1.412,0.997,2.012,1.555
		c-0.148,0.817-0.549,1.549-0.695,2.448C30.702,12.825,31.357,12.358,32.043,11.869z M33.384,54.187
		c0.678-0.505,1.322-0.982,1.965-1.461c-0.011-0.033-0.022-0.066-0.034-0.1c-0.815,0-1.631,0-2.446,0
		c-0.269-0.809-0.522-1.567-0.775-2.325c-0.037,0.002-0.074,0.004-0.111,0.006c-0.256,0.764-0.512,1.527-0.782,2.335
		c-0.825,0-1.639,0-2.562,0c0.705,0.6,1.415,0.999,2.019,1.554c-0.138,0.814-0.564,1.54-0.666,2.43
		c0.733-0.523,1.388-0.992,2.052-1.467c0.368,0.265,0.688,0.511,1.025,0.733c0.335,0.222,0.611,0.541,1.072,0.681
		C33.882,55.758,33.642,55.001,33.384,54.187z M53.548,33.468c0.702,0.503,1.359,0.974,2.108,1.509
		c-0.229-0.941-0.581-1.704-0.737-2.508c0.676-0.502,1.305-0.969,1.933-1.435c-0.014-0.032-0.028-0.064-0.042-0.097
		c-0.795,0-1.589,0-2.422,0c-0.271-0.794-0.533-1.563-0.824-2.417c-0.405,0.841-0.522,1.67-0.899,2.436c-0.81,0-1.598,0-2.387,0
		c-0.01,0.029-0.021,0.059-0.031,0.087c0.645,0.479,1.289,0.957,1.949,1.447c-0.253,0.808-0.494,1.577-0.735,2.347
		c0.023,0.022,0.046,0.044,0.069,0.066C52.192,34.432,52.856,33.96,53.548,33.468z M49.363,21.478
		c-0.189,0.832-0.542,1.565-0.718,2.461c0.748-0.532,1.405-0.999,2.072-1.474c0.683,0.486,1.332,0.948,1.981,1.411
		c0.026-0.025,0.052-0.05,0.078-0.074c-0.238-0.769-0.477-1.537-0.72-2.32c0.681-0.499,1.325-0.971,1.969-1.443
		c-0.014-0.038-0.028-0.075-0.042-0.112c-0.806,0-1.613,0-2.437,0c-0.271-0.808-0.527-1.57-0.812-2.417
		c-0.39,0.818-0.521,1.628-0.861,2.385c-0.811,0.083-1.629-0.038-2.542,0.086C48.061,20.518,48.7,20.989,49.363,21.478z
		 M43.904,13.693c0.641-0.555,1.353-0.941,2.032-1.57c-0.921,0-1.716,0-2.522,0c-0.351-0.783-0.483-1.608-0.875-2.424
		c-0.282,0.842-0.538,1.607-0.814,2.431c-0.817,0-1.621,0-2.424,0c-0.009,0.036-0.018,0.071-0.027,0.107
		c0.647,0.479,1.294,0.959,1.948,1.444c-0.254,0.805-0.498,1.576-0.766,2.422c0.796-0.434,1.39-1.016,2.122-1.439
		c0.666,0.478,1.322,0.947,1.979,1.418c0.026-0.018,0.051-0.035,0.077-0.053C44.394,15.261,44.154,14.493,43.904,13.693z
		 M10.971,24.199c0.028,0.023,0.057,0.046,0.085,0.069c0.656-0.471,1.312-0.94,1.975-1.415c0.726,0.435,1.32,1.004,2.12,1.447
		c-0.276-0.876-0.518-1.645-0.765-2.429c0.675-0.5,1.32-0.978,1.965-1.456c-0.011-0.034-0.021-0.069-0.032-0.104
		c-0.815,0-1.631,0-2.429,0c-0.324-0.8-0.486-1.594-0.863-2.425c-0.288,0.857-0.544,1.621-0.816,2.435c-0.83,0-1.641,0-2.452,0
		c-0.007,0.03-0.014,0.062-0.02,0.092c0.656,0.488,1.312,0.977,1.971,1.468C11.454,22.685,11.212,23.442,10.971,24.199z"/>
	<path style="fill-rule:evenodd;clip-rule:evenodd;fill:#FFDE00;" d="M12.605,35.119c-0.742-0.534-1.404-1.01-2.084-1.499
		c-0.69,0.495-1.353,0.971-2.11,1.515c0.196-0.914,0.567-1.656,0.722-2.48c-0.61-0.57-1.344-0.962-2.008-1.548
		c0.866-0.128,1.708,0.015,2.571-0.092c0.264-0.786,0.523-1.558,0.782-2.329c0.03,0.005,0.06,0.009,0.089,0.014
		c0.259,0.771,0.518,1.542,0.79,2.353c0.851,0,1.669,0,2.579,0c-0.671,0.654-1.427,1.034-2.042,1.612
		C12.068,33.475,12.443,34.216,12.605,35.119z"/>
	<path style="fill-rule:evenodd;clip-rule:evenodd;fill:#FFDE00;" d="M21.801,49.744c0.871,0,1.66,0,2.534,0
		c-0.658,0.621-1.388,0.995-2,1.556c0.146,0.799,0.523,1.53,0.708,2.458c-0.743-0.531-1.39-0.994-2.075-1.484
		c-0.677,0.478-1.343,0.948-2.01,1.419c-0.026-0.019-0.052-0.037-0.079-0.056c0.24-0.764,0.479-1.527,0.728-2.318
		c-0.609-0.563-1.355-0.938-2.026-1.59c0.909,0,1.711,0,2.518,0c0.352-0.79,0.492-1.607,0.882-2.438
		C21.27,48.155,21.528,48.93,21.801,49.744z"/>
	<path style="fill-rule:evenodd;clip-rule:evenodd;fill:#FFDE00;" d="M17.702,12.122c0.793,0,1.585,0,2.419,0
		c0.269-0.806,0.527-1.578,0.786-2.352c0.032-0.001,0.064-0.001,0.096-0.001c0.263,0.773,0.525,1.547,0.8,2.354
		c0.833,0,1.635,0,2.438,0c0.011,0.031,0.021,0.063,0.032,0.094c-0.644,0.48-1.289,0.962-1.969,1.47
		c0.25,0.789,0.493,1.556,0.735,2.322c-0.028,0.022-0.057,0.044-0.085,0.066c-0.652-0.463-1.305-0.926-1.969-1.396
		c-0.746,0.401-1.327,1.007-2.13,1.424c0.265-0.844,0.506-1.613,0.762-2.429c-0.661-0.483-1.309-0.958-1.957-1.434
		C17.674,12.202,17.688,12.162,17.702,12.122z"/>
	<path style="fill-rule:evenodd;clip-rule:evenodd;fill:#FFDE00;" d="M9.85,41.985c0.796,0,1.592,0,2.418,0
		c0.346-0.786,0.356-1.676,0.891-2.414c0.27,0.819,0.529,1.604,0.796,2.414c0.84,0,1.634,0,2.428,0
		c0.016,0.035,0.033,0.07,0.049,0.105c-0.646,0.481-1.293,0.964-1.957,1.458c0.252,0.802,0.494,1.572,0.736,2.343
		c-0.023,0.023-0.046,0.046-0.069,0.068c-0.658-0.467-1.316-0.935-1.987-1.411c-0.748,0.401-1.342,0.986-2.125,1.441
		c0.19-0.883,0.579-1.63,0.711-2.467c-0.66-0.491-1.296-0.963-1.931-1.435C9.823,42.054,9.836,42.02,9.85,41.985z"/>
	<path style="fill-rule:evenodd;clip-rule:evenodd;fill:#FFDE00;" d="M53.956,42.024c-0.646,0.479-1.292,0.96-1.955,1.452
		c0.255,0.804,0.499,1.573,0.743,2.344c-0.024,0.021-0.048,0.044-0.072,0.065c-0.662-0.473-1.323-0.945-2.009-1.436
		c-0.679,0.481-1.337,0.949-2.071,1.47c0.155-0.896,0.535-1.635,0.7-2.44c-0.612-0.549-1.34-0.931-1.998-1.549
		c0.874,0,1.671,0,2.484,0c0.371-0.775,0.504-1.6,0.899-2.454c0.288,0.86,0.542,1.618,0.812,2.423c0.814,0,1.62,0,2.425,0
		C53.929,41.94,53.942,41.982,53.956,42.024z"/>
	<path style="fill-rule:evenodd;clip-rule:evenodd;fill:#FFDE00;" d="M44.168,51.247c0.247,0.794,0.49,1.574,0.733,2.354
		c-0.024,0.021-0.049,0.042-0.074,0.063c-0.659-0.469-1.318-0.938-2.009-1.43c-0.683,0.485-1.349,0.96-2.015,1.434
		c-0.025-0.017-0.05-0.033-0.074-0.05c0.24-0.766,0.48-1.531,0.731-2.329c-0.596-0.572-1.34-0.948-2.017-1.575
		c0.892,0,1.693,0,2.528,0c0.273-0.814,0.534-1.592,0.816-2.432c0.406,0.787,0.531,1.616,0.881,2.416c0.809,0,1.625,0,2.441,0
		c0.01,0.033,0.02,0.065,0.03,0.098C45.503,50.264,44.868,50.732,44.168,51.247z"/>
	<path style="fill-rule:evenodd;clip-rule:evenodd;fill:#FFDE00;" d="M32.043,11.869c-0.686,0.489-1.341,0.956-2.08,1.483
		c0.146-0.899,0.547-1.631,0.695-2.448c-0.6-0.558-1.317-0.948-2.012-1.555c0.907,0,1.707,0,2.516,0
		c0.367-0.777,0.506-1.596,0.892-2.453c0.293,0.87,0.548,1.63,0.816,2.427c0.823,0,1.63,0,2.437,0
		c0.015,0.035,0.031,0.069,0.046,0.104c-0.65,0.485-1.3,0.97-1.966,1.466c0.255,0.81,0.498,1.577,0.74,2.345
		c-0.025,0.021-0.051,0.043-0.076,0.065C33.401,12.839,32.751,12.375,32.043,11.869z"/>
	<path style="fill-rule:evenodd;clip-rule:evenodd;fill:#FFDE00;" d="M33.384,54.187c0.258,0.814,0.499,1.571,0.757,2.386
		c-0.461-0.14-0.737-0.459-1.072-0.681c-0.337-0.223-0.658-0.469-1.025-0.733c-0.664,0.475-1.319,0.943-2.052,1.467
		c0.102-0.89,0.528-1.615,0.666-2.43c-0.604-0.555-1.314-0.954-2.019-1.554c0.923,0,1.737,0,2.562,0
		c0.271-0.808,0.526-1.571,0.782-2.335c0.037-0.002,0.074-0.004,0.111-0.006c0.253,0.758,0.506,1.517,0.775,2.325
		c0.815,0,1.631,0,2.446,0c0.011,0.033,0.022,0.066,0.034,0.1C34.706,53.204,34.062,53.682,33.384,54.187z"/>
	<path style="fill-rule:evenodd;clip-rule:evenodd;fill:#FFDE00;" d="M53.548,33.468c-0.692,0.492-1.355,0.964-2.019,1.436
		c-0.023-0.022-0.046-0.044-0.069-0.066c0.241-0.77,0.482-1.539,0.735-2.347c-0.66-0.49-1.304-0.969-1.949-1.447
		c0.011-0.028,0.021-0.058,0.031-0.087c0.789,0,1.577,0,2.387,0c0.376-0.766,0.494-1.595,0.899-2.436
		c0.292,0.854,0.554,1.623,0.824,2.417c0.833,0,1.627,0,2.422,0c0.014,0.032,0.028,0.064,0.042,0.097
		c-0.628,0.466-1.257,0.933-1.933,1.435c0.157,0.804,0.509,1.566,0.737,2.508C54.907,34.441,54.25,33.971,53.548,33.468z"/>
	<path style="fill-rule:evenodd;clip-rule:evenodd;fill:#FFDE00;" d="M49.363,21.478c-0.663-0.488-1.302-0.96-2.032-1.498
		c0.913-0.124,1.731-0.003,2.542-0.086c0.339-0.757,0.471-1.566,0.861-2.385c0.285,0.847,0.541,1.609,0.812,2.417
		c0.824,0,1.631,0,2.437,0c0.014,0.037,0.028,0.074,0.042,0.112c-0.645,0.473-1.289,0.944-1.969,1.443
		c0.243,0.783,0.482,1.552,0.72,2.32c-0.026,0.024-0.052,0.049-0.078,0.074c-0.649-0.463-1.299-0.925-1.981-1.411
		c-0.667,0.475-1.324,0.941-2.072,1.474C48.821,23.043,49.173,22.31,49.363,21.478z"/>
	<path style="fill-rule:evenodd;clip-rule:evenodd;fill:#FFDE00;" d="M43.904,13.693c0.25,0.8,0.49,1.567,0.73,2.336
		c-0.026,0.018-0.051,0.035-0.077,0.053c-0.656-0.471-1.313-0.94-1.979-1.418c-0.732,0.424-1.326,1.006-2.122,1.439
		c0.268-0.846,0.511-1.617,0.766-2.422c-0.654-0.485-1.301-0.965-1.948-1.444c0.009-0.036,0.018-0.071,0.027-0.107
		c0.804,0,1.607,0,2.424,0c0.276-0.823,0.532-1.589,0.814-2.431c0.392,0.815,0.524,1.641,0.875,2.424c0.806,0,1.601,0,2.522,0
		C45.257,12.752,44.544,13.139,43.904,13.693z"/>
	<path style="fill-rule:evenodd;clip-rule:evenodd;fill:#FFDE00;" d="M10.971,24.199c0.241-0.757,0.483-1.515,0.739-2.318
		c-0.659-0.491-1.315-0.979-1.971-1.468c0.006-0.03,0.013-0.062,0.02-0.092c0.811,0,1.622,0,2.452,0
		c0.272-0.813,0.529-1.577,0.816-2.435c0.376,0.831,0.539,1.625,0.863,2.425c0.798,0,1.613,0,2.429,0
		c0.011,0.035,0.021,0.07,0.032,0.104c-0.645,0.479-1.29,0.956-1.965,1.456c0.247,0.784,0.489,1.553,0.765,2.429
		c-0.799-0.443-1.394-1.013-2.12-1.447c-0.663,0.475-1.319,0.944-1.975,1.415C11.027,24.245,10.999,24.223,10.971,24.199z"/>
</g>
</svg>
