<?xml version="1.0" encoding="iso-8859-1"?>
<!-- Generator: Adobe Illustrator 16.0.0, SVG Export Plug-In . SVG Version: 6.00 Build 0)  -->
<!DOCTYPE svg PUBLIC "-//W3C//DTD SVG 1.1//EN" "http://www.w3.org/Graphics/SVG/1.1/DTD/svg11.dtd">
<svg version="1.1" id="Layer_1" xmlns="http://www.w3.org/2000/svg" xmlns:xlink="http://www.w3.org/1999/xlink" x="0px" y="0px"
	 width="64px" height="64px" viewBox="0 0 64 64" style="enable-background:new 0 0 64 64;" xml:space="preserve">
<g>
	<defs>
		<path id="SVGID_21_" d="M64,55c0,4.971-4.029,9-9,9H9c-4.971,0-9-4.029-9-9V9c0-4.97,4.029-9,9-9h46c4.971,0,9,4.03,9,9V55z"/>
	</defs>
	<clipPath id="SVGID_2_">
		<use xlink:href="#SVGID_21_"  style="overflow:visible;"/>
	</clipPath>
	<g style="clip-path:url(#SVGID_2_);">
		<path style="fill-rule:evenodd;clip-rule:evenodd;fill:#FFFFFF;" d="M64,55c0,4.971-4.029,9-9,9H9c-4.971,0-9-4.029-9-9V9
			c0-4.97,4.029-9,9-9h46c4.971,0,9,4.03,9,9V55z"/>
		<g>
			<path style="fill-rule:evenodd;clip-rule:evenodd;fill:#B22234;" d="M50.477,6.459c-0.033-0.615-0.02-7.319,0.018-7.578
				c17.123,0,34.249,0,51.374,0c0.056,0.222,0.077,6.979,0.024,7.578C84.762,6.459,67.629,6.459,50.477,6.459z"/>
			<path style="fill-rule:evenodd;clip-rule:evenodd;fill:#B22234;" d="M50.479,35.242c0-1.564,0-3.104,0-4.659
				c17.139,0,34.264,0,51.412,0c0,1.547,0,3.092,0,4.659C84.762,35.242,67.629,35.242,50.479,35.242z"/>
			<path style="fill-rule:evenodd;clip-rule:evenodd;fill:#B22234;" d="M50.494,20.958c17.137,0,34.254,0,51.369,0
				c0.063,0.227,0.087,3.956,0.031,4.666c-17.131,0-34.264,0-51.396,0C50.457,25.383,50.449,21.286,50.494,20.958z"/>
			<path style="fill-rule:evenodd;clip-rule:evenodd;fill:#B22234;" d="M50.477,16.01c0-1.563,0-3.103,0-4.659
				c17.139,0,34.266,0,51.414,0c0,1.547,0,3.092,0,4.659C84.763,16.01,67.63,16.01,50.477,16.01z"/>
			<path style="fill-rule:evenodd;clip-rule:evenodd;fill:#3C3B6E;" d="M50.512,35.25c-16.166,0-36.313,0-52.459,0
				C-2.008,35.033-2.021-0.794-1.959-1.123c16.145,0,36.292,0,52.439,0C50.534-0.928,50.566,34.494,50.512,35.25z M37.917,5.587
				c0.364-0.261,0.728-0.521,1.098-0.787c0.374,0.266,0.75,0.507,1.093,0.794l0.008-0.009l-0.012,0.007
				c0.088-0.098,0.014-0.188-0.014-0.277c-0.105-0.352-0.217-0.7-0.326-1.053c0.195-0.145,0.377-0.27,0.546-0.408
				c0.169-0.137,0.382-0.226,0.53-0.455c-0.481,0-0.919,0-1.362,0c-0.149-0.439-0.294-0.863-0.458-1.345
				c-0.166,0.485-0.313,0.913-0.464,1.355c-0.235,0-0.454-0.007-0.673,0.001c-0.221,0.008-0.444-0.03-0.703,0.037
				c0.385,0.287,0.736,0.55,1.095,0.818c-0.113,0.364-0.224,0.714-0.331,1.065c-0.025,0.082-0.085,0.162-0.018,0.251l-0.014-0.003
				L37.917,5.587z M29.516,5.594c0.346-0.286,0.722-0.53,1.089-0.793c0.377,0.267,0.742,0.524,1.166,0.825
				c-0.153-0.494-0.284-0.919-0.423-1.364c0.359-0.266,0.714-0.528,1.069-0.792c-0.007-0.021-0.016-0.044-0.023-0.064
				c-0.443,0-0.886,0-1.329,0c-0.154-0.452-0.298-0.875-0.46-1.354c-0.167,0.487-0.313,0.918-0.467,1.366c-0.456,0-0.89,0-1.325,0
				c-0.006,0.016-0.012,0.033-0.018,0.05c0.354,0.266,0.708,0.531,1.065,0.799c-0.112,0.362-0.221,0.704-0.326,1.047
				c-0.027,0.09-0.103,0.18-0.013,0.277l-0.013-0.007L29.516,5.594z M46.322,5.581c0.368-0.258,0.736-0.515,1.112-0.778
				c0.366,0.258,0.729,0.511,1.091,0.765c0.014-0.012,0.029-0.024,0.045-0.037c-0.131-0.424-0.261-0.849-0.389-1.267
				c0.369-0.277,0.715-0.537,1.062-0.797c-0.007-0.021-0.015-0.042-0.022-0.063c-0.442,0-0.887,0-1.326,0
				c-0.154-0.453-0.299-0.875-0.457-1.338c-0.193,0.468-0.288,0.92-0.486,1.354c-0.445,0-0.879,0-1.313,0
				c-0.006,0.017-0.012,0.033-0.017,0.05c0.356,0.265,0.714,0.53,1.069,0.795c-0.115,0.369-0.224,0.712-0.33,1.055
				c-0.025,0.084-0.084,0.164-0.031,0.257l-0.016,0.001L46.322,5.581z M42.123,9.19c0.364-0.26,0.729-0.519,1.1-0.784
				c0.369,0.268,0.751,0.502,1.089,0.796C44.311,9.201,44.31,9.201,44.309,9.2c0.09-0.096,0.018-0.188-0.01-0.276
				c-0.107-0.351-0.218-0.7-0.328-1.055c0.195-0.144,0.375-0.27,0.545-0.407s0.381-0.229,0.536-0.454c-0.483,0-0.921,0-1.364,0
				c-0.15-0.438-0.297-0.863-0.463-1.346c-0.166,0.491-0.311,0.914-0.465,1.366c-0.45,0-0.891,0-1.332,0
				c-0.004,0.017-0.008,0.033-0.01,0.049c0.357,0.267,0.715,0.533,1.066,0.796c-0.119,0.376-0.227,0.718-0.334,1.061
				c-0.024,0.082-0.083,0.163-0.02,0.252l-0.014-0.002L42.123,9.19z M46.325,12.789c0.367-0.254,0.733-0.51,1.111-0.773
				c0.363,0.267,0.747,0.495,1.081,0.796c0.011-0.008,0.021-0.017,0.033-0.024c-0.013,0.008-0.023,0.016-0.035,0.023
				c0.09-0.096,0.019-0.188-0.008-0.277c-0.107-0.352-0.219-0.701-0.329-1.055c0.36-0.283,0.728-0.525,1.065-0.806
				c-0.009-0.019-0.019-0.036-0.027-0.055c-0.438,0-0.874,0-1.32,0c-0.152-0.441-0.299-0.869-0.465-1.351
				c-0.164,0.485-0.309,0.91-0.461,1.361c-0.449,0-0.892,0-1.334,0c-0.004,0.017-0.008,0.034-0.013,0.051
				c0.354,0.268,0.71,0.534,1.065,0.802c-0.113,0.364-0.222,0.706-0.327,1.05c-0.024,0.082-0.086,0.162-0.03,0.254l-0.016,0.001
				L46.325,12.789z M33.723,9.198c0.36-0.266,0.721-0.529,1.084-0.797c0.382,0.272,0.742,0.527,1.103,0.784
				c0.015-0.014,0.028-0.026,0.042-0.04c-0.131-0.425-0.262-0.85-0.395-1.277c0.194-0.145,0.376-0.27,0.546-0.408
				c0.169-0.138,0.382-0.227,0.532-0.456c-0.482,0-0.921,0-1.365,0c-0.15-0.44-0.295-0.864-0.457-1.343
				c-0.166,0.482-0.313,0.913-0.467,1.359c-0.452,0-0.888,0-1.323,0C33.015,7.038,33.008,7.058,33,7.075
				c0.355,0.265,0.709,0.528,1.068,0.797c-0.112,0.36-0.222,0.702-0.325,1.046c-0.027,0.09-0.102,0.181-0.016,0.278
				c-0.007-0.003-0.014-0.005-0.02-0.008C33.713,9.191,33.717,9.195,33.723,9.198z M25.312,16.416
				c0.339-0.294,0.722-0.528,1.083-0.8c0.381,0.271,0.745,0.529,1.107,0.787c0.013-0.01,0.026-0.021,0.04-0.031
				c-0.132-0.426-0.264-0.851-0.401-1.288c0.363-0.271,0.717-0.535,1.072-0.799c-0.008-0.021-0.017-0.043-0.025-0.064
				c-0.444,0-0.888,0-1.333,0c-0.153-0.45-0.295-0.871-0.451-1.327c-0.203,0.454-0.289,0.909-0.489,1.344c-0.442,0-0.877,0-1.311,0
				c-0.006,0.017-0.011,0.032-0.016,0.049c0.354,0.267,0.709,0.533,1.065,0.802c-0.113,0.361-0.222,0.704-0.328,1.048
				c-0.028,0.091-0.093,0.184-0.011,0.28c-0.013-0.009-0.025-0.017-0.037-0.024c0,0,0,0.001,0,0.001
				C25.288,16.399,25.299,16.408,25.312,16.416z M40.105,12.808c0.01-0.007,0.018-0.013,0.021-0.015
				c-0.004,0.002-0.014,0.008-0.024,0.014c0.087-0.097,0.015-0.188-0.013-0.278c-0.105-0.351-0.217-0.7-0.326-1.054
				c0.195-0.145,0.377-0.27,0.546-0.407s0.382-0.227,0.53-0.456c-0.481,0-0.918,0-1.361,0c-0.15-0.438-0.295-0.861-0.461-1.343
				c-0.168,0.492-0.312,0.916-0.458,1.345c-0.458,0.013-0.898-0.001-1.347,0.073c0.357,0.267,0.713,0.531,1.063,0.792
				c-0.118,0.379-0.228,0.721-0.333,1.063c-0.025,0.081-0.086,0.163-0.015,0.251l-0.013-0.002l0.006,0.006
				c0.363-0.26,0.725-0.521,1.094-0.785C39.389,12.278,39.764,12.52,40.105,12.808z M42.125,16.397
				c0.365-0.257,0.729-0.514,1.102-0.776c0.368,0.268,0.748,0.501,1.086,0.795c0.012-0.009,0.023-0.017,0.075-0.054
				c-0.054,0.037-0.065,0.045-0.078,0.054c0.085-0.096,0.017-0.189-0.011-0.279c-0.107-0.351-0.218-0.701-0.328-1.056
				c0.195-0.144,0.375-0.269,0.547-0.405c0.17-0.139,0.378-0.233,0.537-0.455c-0.484,0-0.923,0-1.367,0
				c-0.151-0.438-0.297-0.864-0.463-1.347c-0.165,0.489-0.31,0.913-0.463,1.364c-0.451,0-0.893,0-1.334,0
				c-0.004,0.018-0.008,0.033-0.012,0.05c0.357,0.267,0.713,0.534,1.066,0.799c-0.115,0.371-0.224,0.714-0.33,1.058
				c-0.025,0.081-0.084,0.162-0.021,0.252l-0.013-0.004L42.125,16.397z M48.521,20.021c0.016-0.007,0.031-0.014,0.048-0.02
				c-0.039-0.036-0.037,0.009-0.051,0.024c0.082-0.097,0.017-0.19-0.011-0.281c-0.107-0.351-0.219-0.7-0.328-1.052
				c0.358-0.287,0.729-0.527,1.065-0.808c-0.009-0.019-0.019-0.037-0.027-0.055c-0.437,0-0.874,0-1.321,0
				c-0.151-0.441-0.299-0.868-0.464-1.351c-0.165,0.485-0.309,0.909-0.462,1.359c-0.449,0-0.892,0-1.334,0
				c-0.006,0.019-0.012,0.036-0.016,0.054c0.355,0.266,0.712,0.531,1.07,0.798c-0.117,0.373-0.228,0.725-0.337,1.076
				c-0.023,0.074-0.072,0.146-0.024,0.228l-0.014-0.001h0.008c0.368-0.252,0.736-0.504,1.117-0.764
				C47.803,19.495,48.183,19.73,48.521,20.021z M40.111,20.016c0.011-0.006,0.022-0.013,0.015-0.009
				c0.006-0.004-0.007,0.005-0.02,0.014c0.079-0.099,0.011-0.189-0.017-0.281c-0.107-0.351-0.217-0.7-0.326-1.052
				c0.37-0.274,0.719-0.533,1.068-0.792c-0.007-0.021-0.014-0.04-0.02-0.06c-0.443,0-0.887,0-1.332,0
				c-0.153-0.453-0.297-0.878-0.46-1.356c-0.166,0.483-0.313,0.913-0.464,1.354c-0.239,0-0.459-0.008-0.678,0.001
				s-0.443-0.034-0.699,0.039c0.384,0.287,0.734,0.55,1.095,0.818c-0.11,0.354-0.218,0.694-0.321,1.037
				c-0.028,0.092-0.099,0.18-0.027,0.279c-0.008-0.001-0.016-0.004-0.023-0.007c0.007,0.002,0.014,0.005,0.02,0.007
				c0.363-0.259,0.726-0.519,1.103-0.787C39.393,19.49,39.75,19.755,40.111,20.016z M29.518,12.806
				c0.344-0.287,0.722-0.528,1.085-0.794c0.381,0.271,0.745,0.527,1.168,0.828c-0.155-0.499-0.286-0.924-0.422-1.362
				c0.362-0.271,0.715-0.534,1.069-0.798c-0.009-0.019-0.018-0.037-0.026-0.056c-0.436,0-0.872,0-1.324,0
				c-0.152-0.444-0.299-0.874-0.464-1.355c-0.167,0.485-0.313,0.916-0.466,1.362c-0.458,0-0.893,0-1.328,0
				c-0.005,0.016-0.011,0.032-0.018,0.049c0.355,0.267,0.71,0.532,1.067,0.801c-0.113,0.36-0.222,0.703-0.326,1.046
				c-0.028,0.09-0.1,0.182-0.013,0.278c-0.01-0.006-0.019-0.012-0.02-0.013C29.501,12.793,29.509,12.8,29.518,12.806z M33.721,16.41
				c0.362-0.264,0.723-0.529,1.087-0.795c0.381,0.271,0.741,0.526,1.101,0.782c0.014-0.014,0.028-0.028,0.043-0.042
				c-0.13-0.417-0.26-0.835-0.396-1.271c0.358-0.267,0.714-0.531,1.069-0.796c-0.008-0.021-0.014-0.04-0.021-0.061
				c-0.444,0-0.888,0-1.331,0c-0.155-0.454-0.299-0.878-0.461-1.354c-0.166,0.482-0.313,0.913-0.466,1.36c-0.455,0-0.891,0-1.326,0
				c-0.007,0.019-0.015,0.036-0.023,0.055c0.356,0.264,0.711,0.528,1.07,0.795c-0.112,0.362-0.22,0.704-0.325,1.048
				c-0.027,0.09-0.098,0.182-0.018,0.279c-0.01-0.007-0.021-0.013-0.031-0.019C33.703,16.397,33.713,16.403,33.721,16.41z
				 M29.514,20.016c0.361-0.264,0.723-0.528,1.085-0.793c0.386,0.272,0.749,0.529,1.111,0.787c0.013-0.011,0.025-0.021,0.038-0.032
				c-0.132-0.425-0.264-0.851-0.4-1.288c0.364-0.271,0.718-0.534,1.072-0.798c-0.008-0.022-0.017-0.044-0.026-0.065
				c-0.444,0-0.888,0-1.332,0c-0.153-0.449-0.296-0.871-0.458-1.347c-0.167,0.485-0.313,0.917-0.466,1.362c-0.459,0-0.894,0-1.329,0
				c-0.006,0.018-0.013,0.034-0.02,0.052c0.356,0.265,0.711,0.53,1.07,0.797c-0.113,0.362-0.221,0.704-0.326,1.047
				c-0.028,0.092-0.096,0.183-0.018,0.279c-0.011-0.007-0.023-0.014,0.018,0.013C29.493,20.003,29.503,20.01,29.514,20.016z
				 M44.318,23.619c0.015-0.004,0.029-0.009,0.045-0.014c-0.031-0.03-0.038,0-0.049,0.021c0.078-0.099,0.012-0.189-0.017-0.281
				c-0.107-0.351-0.218-0.7-0.327-1.052c0.196-0.146,0.377-0.27,0.548-0.407c0.169-0.137,0.379-0.23,0.534-0.453
				c-0.482,0-0.921,0-1.365,0c-0.151-0.439-0.297-0.865-0.463-1.347c-0.166,0.488-0.31,0.912-0.463,1.362c-0.45,0-0.892,0-1.334,0
				c-0.004,0.017-0.008,0.033-0.012,0.05c0.355,0.267,0.711,0.535,1.066,0.802c-0.114,0.366-0.223,0.708-0.328,1.051
				c-0.025,0.083-0.086,0.162-0.029,0.254c-0.008,0-0.015,0-0.022,0c0.006-0.002,0.013-0.003,0.019-0.004
				c0.366-0.253,0.732-0.505,1.117-0.769C43.598,23.096,43.957,23.359,44.318,23.619z M46.322,27.199
				c0.398-0.203,0.72-0.522,1.125-0.757c0.357,0.26,0.717,0.521,1.078,0.781c0.016-0.007,0.03-0.013,0.049-0.021
				c-0.037-0.021-0.047-0.003-0.051,0.029c0.078-0.1,0.01-0.191-0.019-0.281c-0.104-0.344-0.214-0.686-0.327-1.048
				c0.357-0.266,0.713-0.53,1.068-0.796c-0.007-0.019-0.013-0.039-0.02-0.059c-0.443,0-0.887,0-1.33,0
				c-0.154-0.453-0.299-0.877-0.462-1.357c-0.166,0.487-0.313,0.916-0.464,1.36c-0.458,0-0.893,0-1.329,0
				c-0.007,0.018-0.016,0.036-0.023,0.055c0.355,0.264,0.71,0.526,1.073,0.796c-0.112,0.358-0.22,0.699-0.324,1.043
				c-0.026,0.083-0.084,0.163-0.041,0.257l-0.017,0.002L46.322,27.199z M21.103,20.024c0.338-0.296,0.72-0.531,1.087-0.798
				c0.376,0.267,0.74,0.524,1.104,0.783c0.013-0.011,0.026-0.021,0.04-0.03c-0.132-0.426-0.263-0.85-0.4-1.291
				c0.363-0.269,0.717-0.532,1.071-0.795c-0.008-0.023-0.018-0.045-0.026-0.066c-0.443,0-0.886,0-1.33,0
				c-0.153-0.45-0.296-0.87-0.458-1.348c-0.167,0.486-0.314,0.917-0.469,1.368c-0.461,0-0.901,0-1.407,0
				c0.417,0.312,0.776,0.579,1.133,0.844c-0.116,0.369-0.226,0.71-0.331,1.054c-0.027,0.09-0.093,0.185-0.011,0.28
				c-0.014-0.014-0.012-0.061-0.05-0.021C21.072,20.011,21.088,20.018,21.103,20.024z M25.307,23.621
				c0.361-0.263,0.723-0.527,1.086-0.793c0.384,0.273,0.746,0.531,1.108,0.789c0.013-0.012,0.026-0.023,0.04-0.033
				c-0.132-0.426-0.264-0.851-0.4-1.287c0.365-0.271,0.718-0.535,1.071-0.8c-0.008-0.021-0.017-0.043-0.025-0.064
				c-0.444,0-0.887,0-1.332,0c-0.153-0.448-0.295-0.87-0.457-1.347c-0.167,0.485-0.314,0.916-0.468,1.362c-0.457,0-0.891,0-1.325,0
				c-0.007,0.019-0.013,0.035-0.02,0.054c0.355,0.265,0.711,0.529,1.068,0.795c-0.114,0.363-0.222,0.705-0.328,1.048
				c-0.028,0.092-0.094,0.184-0.018,0.279c-0.011-0.021-0.019-0.051-0.048-0.015C25.275,23.614,25.291,23.618,25.307,23.621z
				 M33.715,23.613c0.365-0.261,0.729-0.52,1.096-0.783c0.383,0.271,0.745,0.529,1.107,0.788c0.014-0.011,0.025-0.021,0.039-0.032
				c-0.133-0.425-0.265-0.85-0.401-1.29c0.36-0.268,0.716-0.532,1.069-0.796c-0.008-0.021-0.016-0.042-0.023-0.063
				c-0.443,0-0.887,0-1.33,0c-0.153-0.452-0.298-0.877-0.459-1.352c-0.166,0.481-0.313,0.912-0.465,1.358c-0.455,0-0.891,0-1.326,0
				c-0.008,0.019-0.016,0.036-0.024,0.055c0.354,0.265,0.708,0.528,1.07,0.798c-0.11,0.356-0.218,0.697-0.323,1.041
				c-0.027,0.09-0.097,0.18-0.026,0.278c-0.011-0.006-0.021-0.012-0.015-0.008C33.695,23.604,33.705,23.609,33.715,23.613z
				 M21.1,27.228c0.361-0.264,0.723-0.527,1.085-0.793c0.385,0.274,0.747,0.531,1.109,0.788c0.012-0.011,0.025-0.021,0.038-0.031
				c-0.132-0.426-0.263-0.852-0.399-1.288c0.364-0.272,0.717-0.535,1.07-0.8c-0.008-0.021-0.017-0.043-0.025-0.065
				c-0.443,0-0.887,0-1.331,0c-0.153-0.448-0.295-0.869-0.457-1.345c-0.167,0.485-0.315,0.914-0.469,1.362c-0.455,0-0.889,0-1.323,0
				c-0.007,0.018-0.013,0.036-0.02,0.054c0.355,0.264,0.71,0.529,1.067,0.795c-0.114,0.363-0.223,0.704-0.328,1.047
				c-0.028,0.092-0.095,0.183-0.018,0.28c-0.007-0.029-0.014-0.055-0.048-0.023C21.068,27.215,21.084,27.222,21.1,27.228z
				 M16.897,16.422c0.332-0.306,0.72-0.532,1.086-0.802c0.372,0.265,0.733,0.521,1.094,0.776c0.014-0.012,0.029-0.025,0.043-0.037
				c-0.131-0.426-0.262-0.851-0.394-1.277c0.197-0.146,0.378-0.271,0.548-0.41c0.168-0.138,0.382-0.227,0.53-0.456
				c-0.482,0-0.92,0-1.367,0c-0.149-0.438-0.292-0.861-0.456-1.344c-0.167,0.486-0.314,0.917-0.47,1.369c-0.459,0-0.899,0-1.409,0
				c0.42,0.312,0.779,0.578,1.136,0.843c-0.117,0.371-0.228,0.714-0.332,1.058C16.88,16.231,16.813,16.326,16.897,16.422
				c-0.014-0.012-0.008-0.063-0.05-0.025C16.865,16.405,16.881,16.413,16.897,16.422z M25.301,30.82
				c0.366-0.258,0.731-0.516,1.098-0.774c0.383,0.271,0.743,0.526,1.104,0.783c0.012-0.013,0.025-0.023,0.038-0.036
				c-0.132-0.426-0.264-0.852-0.397-1.281c0.357-0.271,0.699-0.528,1.041-0.787c0.006-0.006,0.01-0.018,0.01-0.027
				c-0.001-0.04-0.036,0.007,0.001-0.048c-0.451,0-0.889,0-1.336,0c-0.15-0.44-0.296-0.865-0.462-1.351
				c-0.167,0.489-0.31,0.913-0.458,1.347c-0.456,0.005-0.897,0.002-1.338,0.012c-0.003,0.02-0.006,0.04-0.009,0.06
				c0.351,0.263,0.701,0.524,1.062,0.794c-0.109,0.353-0.217,0.693-0.321,1.036c-0.028,0.09-0.097,0.18-0.028,0.278
				c-0.009-0.032-0.024-0.038-0.047-0.009C25.271,30.817,25.286,30.819,25.301,30.82z M6.489,27.188L6.494,27.2l-0.001-0.007
				c-0.127-0.429-0.254-0.856-0.383-1.293c0.354-0.283,0.726-0.522,1.063-0.805c-0.009-0.018-0.019-0.035-0.028-0.054
				c-0.437,0-0.874,0-1.326,0c-0.148-0.438-0.292-0.861-0.458-1.351c-0.166,0.483-0.313,0.912-0.467,1.364c-0.455,0-0.897,0-1.34,0
				c-0.003,0.016-0.008,0.032-0.012,0.049c0.358,0.267,0.715,0.532,1.074,0.798c-0.14,0.449-0.272,0.875-0.423,1.362
				c0.424-0.3,0.795-0.562,1.168-0.825c0.321,0.229,0.622,0.443,0.925,0.654C6.345,27.136,6.392,27.221,6.489,27.188z
				 M37.916,27.207c0.367-0.254,0.736-0.507,1.11-0.764c0.376,0.266,0.738,0.523,1.16,0.822c-0.154-0.497-0.286-0.923-0.423-1.363
				c0.36-0.269,0.715-0.531,1.069-0.796c-0.009-0.021-0.019-0.045-0.027-0.067c-0.443,0-0.886,0-1.328,0
				c-0.153-0.451-0.296-0.872-0.458-1.348c-0.164,0.482-0.309,0.907-0.463,1.361c-0.446,0-0.889,0-1.332,0
				c-0.005,0.018-0.01,0.037-0.016,0.056c0.355,0.267,0.712,0.531,1.066,0.795c-0.115,0.369-0.223,0.712-0.328,1.055
				c-0.025,0.083-0.082,0.164-0.027,0.254c-0.01,0-0.019,0-0.027,0.001C37.9,27.211,37.908,27.209,37.916,27.207z M16.892,30.829
				c0.362-0.263,0.725-0.523,1.087-0.786c0.381,0.271,0.737,0.523,1.141,0.809c-0.098-0.498-0.293-0.906-0.385-1.351
				c0.183-0.136,0.363-0.263,0.534-0.398c0.171-0.138,0.377-0.236,0.545-0.456c-0.488,0-0.926,0-1.373,0
				c-0.15-0.437-0.295-0.859-0.461-1.346c-0.168,0.492-0.313,0.914-0.464,1.359c-0.456,0-0.899,0-1.341,0
				c-0.004,0.016-0.009,0.032-0.013,0.047c0.357,0.269,0.714,0.535,1.075,0.805c-0.112,0.359-0.222,0.701-0.326,1.045
				c-0.027,0.089-0.1,0.181-0.019,0.276c-0.004-0.032-0.014-0.054-0.049-0.022C16.86,30.816,16.876,30.822,16.892,30.829z
				 M16.896,23.63c0.339-0.294,0.72-0.531,1.083-0.796c0.382,0.253,0.726,0.528,1.138,0.724c-0.129-0.416-0.258-0.832-0.392-1.263
				c0.364-0.27,0.717-0.533,1.071-0.796c-0.008-0.022-0.017-0.045-0.026-0.066c-0.443,0-0.887,0-1.332,0
				c-0.152-0.447-0.293-0.867-0.456-1.349c-0.168,0.489-0.316,0.919-0.471,1.371c-0.459,0-0.898,0-1.403,0
				c0.417,0.312,0.774,0.579,1.13,0.845c-0.116,0.367-0.226,0.709-0.331,1.053c-0.028,0.091-0.094,0.184-0.013,0.279
				c-0.008-0.023-0.004-0.064-0.049-0.032C16.863,23.61,16.879,23.619,16.896,23.63z M29.509,27.218
				c0.364-0.26,0.729-0.519,1.095-0.78c0.383,0.271,0.745,0.528,1.107,0.785c0.012-0.011,0.024-0.021,0.038-0.031
				c-0.132-0.426-0.264-0.852-0.399-1.289c0.362-0.27,0.716-0.533,1.07-0.797c-0.008-0.021-0.017-0.044-0.025-0.065
				c-0.443,0-0.887,0-1.33,0c-0.154-0.45-0.297-0.874-0.459-1.349c-0.165,0.483-0.312,0.913-0.464,1.359c-0.456,0-0.891,0-1.325,0
				c-0.008,0.019-0.017,0.038-0.025,0.057c0.355,0.264,0.709,0.526,1.071,0.795c-0.111,0.356-0.219,0.698-0.324,1.041
				c-0.028,0.09-0.096,0.181-0.026,0.278c-0.007-0.022-0.02-0.028-0.039-0.017C29.485,27.209,29.497,27.214,29.509,27.218z
				 M42.115,30.804c0.402-0.201,0.721-0.527,1.125-0.75c0.366,0.261,0.73,0.519,1.154,0.82c-0.154-0.496-0.286-0.921-0.424-1.364
				c0.357-0.267,0.713-0.531,1.068-0.797c-0.008-0.02-0.014-0.04-0.021-0.06c-0.444,0-0.888,0-1.331,0
				c-0.154-0.453-0.299-0.877-0.461-1.354c-0.165,0.482-0.313,0.912-0.465,1.357c-0.454,0-0.89,0-1.324,0
				c-0.009,0.019-0.018,0.038-0.025,0.056c0.355,0.265,0.71,0.527,1.07,0.797c-0.111,0.357-0.219,0.7-0.324,1.043
				c-0.025,0.082-0.082,0.162-0.039,0.257c-0.006,0.003-0.014,0.006-0.021,0.009C42.139,30.82,42.086,30.83,42.115,30.804z
				 M33.711,30.813c0.367-0.253,0.734-0.508,1.105-0.764c0.378,0.267,0.74,0.522,1.162,0.821c-0.154-0.5-0.287-0.926-0.422-1.359
				c0.355-0.279,0.723-0.526,1.066-0.802c-0.01-0.019-0.018-0.038-0.027-0.058c-0.436,0-0.871,0-1.321,0
				c-0.152-0.443-0.298-0.871-0.464-1.353c-0.164,0.482-0.309,0.906-0.463,1.36c-0.445,0-0.889,0-1.33,0
				c-0.006,0.019-0.01,0.037-0.016,0.056c0.355,0.266,0.713,0.531,1.066,0.796c-0.115,0.369-0.225,0.712-0.33,1.055
				c-0.025,0.082-0.082,0.163-0.024,0.252c-0.011-0.003-0.022-0.006-0.019-0.006C33.689,30.813,33.699,30.813,33.711,30.813z
				 M14.897,27.192l-0.003,0.003c0.018-0.137-0.055-0.251-0.091-0.375c-0.089-0.304-0.188-0.605-0.284-0.912
				c0.354-0.294,0.733-0.524,1.039-0.865c-0.437,0-0.874,0-1.323,0c-0.15-0.438-0.295-0.859-0.462-1.35
				c-0.169,0.494-0.313,0.916-0.46,1.351c-0.237,0-0.458-0.007-0.677,0.002c-0.218,0.01-0.442-0.035-0.698,0.043
				c0.383,0.286,0.733,0.548,1.091,0.815c-0.136,0.44-0.269,0.868-0.422,1.363c0.43-0.307,0.795-0.565,1.167-0.83
				c0.268,0.19,0.517,0.373,0.773,0.547C14.658,27.06,14.748,27.178,14.897,27.192z M37.91,34.409
				c0.401-0.2,0.719-0.529,1.121-0.748c0.369,0.261,0.733,0.519,1.155,0.817c-0.153-0.493-0.285-0.919-0.423-1.363
				c0.356-0.266,0.711-0.529,1.066-0.794c-0.008-0.021-0.014-0.041-0.021-0.063c-0.443,0-0.887,0-1.328,0
				c-0.154-0.455-0.299-0.879-0.46-1.353c-0.165,0.48-0.313,0.911-0.466,1.358c-0.455,0-0.891,0-1.325,0
				c-0.008,0.019-0.016,0.037-0.023,0.056c0.354,0.265,0.71,0.527,1.069,0.795c-0.111,0.359-0.219,0.701-0.324,1.044
				c-0.026,0.083-0.083,0.162-0.037,0.256c-0.021-0.009-0.029-0.006-0.023,0.009C37.897,34.42,37.904,34.415,37.91,34.409z
				 M10.695,30.791l0.003,0.013l-0.001-0.008c-0.126-0.428-0.252-0.856-0.38-1.291c0.189-0.141,0.369-0.267,0.54-0.404
				c0.17-0.137,0.377-0.233,0.542-0.455c-0.486,0-0.924,0-1.373,0c-0.149-0.437-0.292-0.859-0.458-1.344
				c-0.166,0.482-0.314,0.911-0.47,1.363c-0.457,0-0.897,0-1.409,0c0.418,0.313,0.775,0.58,1.132,0.847
				c-0.14,0.45-0.272,0.877-0.421,1.356c0.42-0.296,0.794-0.558,1.169-0.822c0.319,0.228,0.619,0.444,0.922,0.654
				C10.551,30.742,10.599,30.825,10.695,30.791z M21.095,34.426c0.365-0.258,0.73-0.516,1.094-0.771
				c0.384,0.271,0.745,0.525,1.105,0.778c0.012-0.011,0.024-0.022,0.037-0.034c-0.132-0.426-0.264-0.852-0.398-1.284
				c0.191-0.142,0.368-0.271,0.542-0.403c0.175-0.134,0.364-0.252,0.525-0.401c-0.01-0.019-0.02-0.036-0.029-0.055
				c-0.437,0-0.875,0-1.321,0c-0.15-0.439-0.295-0.863-0.461-1.35c-0.168,0.491-0.312,0.914-0.458,1.345
				c-0.457,0.01-0.898-0.002-1.337,0.018c-0.003,0.02-0.006,0.039-0.009,0.059c0.351,0.262,0.702,0.521,1.061,0.79
				c-0.11,0.354-0.218,0.695-0.322,1.037c-0.028,0.091-0.099,0.18-0.026,0.277c-0.007-0.033-0.021-0.04-0.046-0.012
				C21.066,34.422,21.081,34.424,21.095,34.426z M29.503,34.417c0.368-0.253,0.736-0.506,1.108-0.761
				c0.376,0.267,0.737,0.523,1.099,0.779c0.012-0.012,0.024-0.021,0.037-0.033c-0.132-0.426-0.264-0.852-0.398-1.284
				c0.363-0.272,0.715-0.538,1.066-0.802c-0.009-0.02-0.018-0.038-0.027-0.058c-0.436,0-0.872,0-1.321,0
				c-0.152-0.443-0.299-0.87-0.464-1.353c-0.165,0.482-0.308,0.906-0.463,1.359c-0.445,0-0.888,0-1.331,0
				c-0.005,0.02-0.01,0.038-0.016,0.056c0.356,0.267,0.712,0.531,1.067,0.796c-0.115,0.368-0.224,0.711-0.33,1.054
				c-0.025,0.081-0.083,0.162-0.025,0.251c-0.01-0.022-0.023-0.024-0.041-0.002C29.479,34.419,29.491,34.418,29.503,34.417z
				 M14.905,34.394l-0.002,0.018l-0.001-0.013c-0.125-0.429-0.25-0.856-0.377-1.288c0.192-0.144,0.374-0.267,0.543-0.407
				c0.168-0.137,0.383-0.224,0.53-0.456c-0.483,0-0.921,0-1.368,0c-0.148-0.437-0.291-0.857-0.456-1.343
				c-0.166,0.484-0.31,0.906-0.465,1.36c-0.444,0-0.886,0-1.329,0c-0.006,0.019-0.011,0.039-0.017,0.058
				c0.356,0.267,0.712,0.531,1.066,0.795c-0.141,0.452-0.273,0.878-0.425,1.362c0.425-0.3,0.798-0.564,1.17-0.829
				c0.333,0.239,0.641,0.461,0.953,0.678C14.778,34.363,14.82,34.445,14.905,34.394z M48.531,34.421c0.014,0,0.027,0,0.047,0
				c-0.026-0.025-0.043-0.027-0.051,0.009c0.071-0.102,0-0.188-0.027-0.279c-0.104-0.342-0.212-0.683-0.32-1.031
				c0.362-0.273,0.713-0.538,1.064-0.803c-0.008-0.022-0.017-0.045-0.025-0.066c-0.443,0-0.887,0-1.326,0
				c-0.154-0.45-0.297-0.87-0.459-1.346c-0.165,0.487-0.31,0.911-0.463,1.363c-0.449,0-0.891,0-1.332,0
				c-0.006,0.018-0.01,0.036-0.016,0.054c0.356,0.267,0.713,0.531,1.066,0.795c-0.139,0.449-0.268,0.869-0.398,1.29
				c0.016,0.008,0.032,0.016,0.048,0.021c0.364-0.257,0.728-0.515,1.094-0.773C47.811,33.919,48.17,34.171,48.531,34.421z
				 M6.449,34.426c-0.063-0.479-0.249-0.889-0.331-1.313c0.354-0.292,0.722-0.521,1.025-0.855c-0.437,0-0.874,0-1.325,0
				c-0.148-0.438-0.292-0.863-0.458-1.35c-0.165,0.479-0.313,0.908-0.468,1.36c-0.455,0-0.896,0-1.339,0
				c-0.003,0.018-0.008,0.033-0.012,0.051c0.358,0.266,0.715,0.531,1.074,0.798c-0.14,0.45-0.272,0.876-0.422,1.358
				c0.421-0.297,0.794-0.558,1.169-0.822C5.736,33.919,6.093,34.173,6.449,34.426z M13.774,16.478
				c-0.168,0.492-0.313,0.915-0.465,1.36c-0.453,0-0.896,0-1.34,0c-0.004,0.017-0.009,0.032-0.014,0.049
				c0.356,0.267,0.712,0.535,1.073,0.806c-0.137,0.442-0.27,0.869-0.423,1.361c0.426-0.302,0.797-0.565,1.168-0.828
				c0.378,0.268,0.735,0.521,1.093,0.774c0.015-0.011,0.031-0.021,0.046-0.029c-0.13-0.425-0.26-0.849-0.391-1.274
				c0.349-0.3,0.736-0.521,1.112-0.865c-0.51,0-0.948,0-1.4,0C14.085,17.393,13.941,16.968,13.774,16.478z M15.581,10.684
				c-0.006-0.02-0.012-0.04-0.018-0.061c-0.437,0-0.874,0-1.326,0c-0.15-0.44-0.296-0.867-0.463-1.356
				c-0.167,0.488-0.312,0.911-0.463,1.356c-0.451,0-0.895,0-1.339,0c-0.006,0.019-0.012,0.035-0.018,0.053
				c0.357,0.266,0.714,0.53,1.077,0.801c-0.138,0.442-0.271,0.868-0.424,1.36c0.425-0.299,0.796-0.56,1.169-0.823
				c0.373,0.265,0.732,0.518,1.092,0.771c0.014-0.014,0.029-0.028,0.044-0.042c-0.129-0.417-0.258-0.835-0.393-1.264
				C14.879,11.208,15.23,10.946,15.581,10.684z M9.568,20.088c-0.168,0.487-0.317,0.917-0.466,1.351
				c-0.246,0-0.465-0.003-0.686,0.001c-0.219,0.004-0.439-0.013-0.718,0.021c0.413,0.308,0.771,0.575,1.123,0.837
				c-0.142,0.456-0.272,0.878-0.422,1.36c0.423-0.298,0.789-0.558,1.168-0.825c0.37,0.262,0.73,0.519,1.09,0.775
				c0.015-0.013,0.031-0.025,0.046-0.038c-0.13-0.425-0.261-0.85-0.392-1.275c0.199-0.147,0.38-0.271,0.55-0.41
				c0.168-0.138,0.383-0.226,0.53-0.456c-0.481,0-0.919,0-1.369,0C9.875,20.993,9.732,20.572,9.568,20.088z M5.36,16.48
				c-0.168,0.488-0.316,0.917-0.464,1.347c-0.465,0.008-0.904,0.002-1.349,0.066c0.356,0.268,0.713,0.535,1.065,0.8
				c-0.14,0.451-0.27,0.874-0.42,1.359c0.424-0.301,0.79-0.561,1.166-0.827c0.372,0.264,0.733,0.52,1.093,0.776
				c0.015-0.013,0.03-0.026,0.045-0.038c-0.131-0.424-0.262-0.849-0.393-1.277c0.197-0.146,0.378-0.271,0.548-0.408
				c0.169-0.138,0.381-0.229,0.532-0.457c-0.481,0-0.919,0-1.369,0C5.668,17.387,5.525,16.966,5.36,16.48z M19.793,7.076
				c-0.01-0.023-0.02-0.047-0.03-0.071c-0.438,0-0.875,0-1.323,0c-0.149-0.438-0.293-0.863-0.456-1.345
				c-0.166,0.48-0.313,0.911-0.466,1.354c-0.235,0-0.455-0.006-0.674,0.002c-0.219,0.008-0.442-0.03-0.697,0.041
				c0.384,0.287,0.734,0.549,1.089,0.813c-0.135,0.439-0.266,0.862-0.396,1.284c0.015,0.01,0.03,0.019,0.045,0.028
				c0.365-0.258,0.729-0.518,1.097-0.779c0.375,0.268,0.736,0.523,1.097,0.78c0.014-0.013,0.029-0.024,0.043-0.037
				c-0.131-0.425-0.262-0.85-0.396-1.279C19.094,7.595,19.443,7.336,19.793,7.076z M7.766,14.231
				c-0.007,0.017-0.014,0.031-0.021,0.048c0.362,0.271,0.723,0.541,1.077,0.807c-0.141,0.452-0.271,0.869-0.422,1.357
				c0.427-0.301,0.792-0.559,1.166-0.821c0.372,0.261,0.734,0.516,1.095,0.77c0.014-0.012,0.029-0.024,0.043-0.035
				c-0.131-0.426-0.262-0.851-0.393-1.276c0.373-0.275,0.722-0.534,1.071-0.793c-0.007-0.021-0.013-0.039-0.02-0.06
				c-0.443,0-0.886,0-1.335,0c-0.152-0.447-0.295-0.868-0.459-1.353c-0.168,0.489-0.316,0.918-0.468,1.356
				C8.639,14.231,8.202,14.231,7.766,14.231z M12.634,5.53c0.012,0.019,0.023,0.035,0.035,0.053c0.37-0.263,0.74-0.525,1.104-0.784
				c0.384,0.272,0.739,0.523,1.094,0.775c0.015-0.012,0.03-0.021,0.044-0.033c-0.13-0.425-0.26-0.85-0.393-1.281
				c0.193-0.142,0.374-0.267,0.544-0.405c0.17-0.138,0.382-0.229,0.539-0.454c-0.483,0-0.92,0-1.37,0
				c-0.149-0.438-0.293-0.863-0.457-1.347c-0.165,0.48-0.313,0.909-0.466,1.355c-0.232,0-0.452-0.007-0.671,0.002
				c-0.22,0.008-0.444-0.033-0.702,0.039c0.384,0.285,0.735,0.548,1.093,0.814C12.895,4.696,12.764,5.113,12.634,5.53z M5.822,10.63
				c-0.155-0.457-0.297-0.876-0.463-1.363c-0.167,0.487-0.311,0.909-0.464,1.354c-0.448,0-0.893,0-1.338,0
				c-0.006,0.019-0.012,0.036-0.019,0.055c0.356,0.266,0.712,0.531,1.074,0.803c-0.136,0.439-0.267,0.863-0.42,1.358
				c0.428-0.302,0.793-0.56,1.167-0.823c0.373,0.264,0.733,0.52,1.094,0.773c0.015-0.012,0.029-0.024,0.044-0.037
				c-0.131-0.424-0.262-0.849-0.394-1.276c0.371-0.274,0.72-0.533,1.069-0.792c-0.007-0.017-0.014-0.035-0.021-0.052
				C6.717,10.63,6.282,10.63,5.822,10.63z M5.819,3.406C5.667,2.961,5.525,2.541,5.36,2.055C5.192,2.543,5.044,2.972,4.896,3.401
				c-0.464,0.013-0.903,0.001-1.348,0.07c0.358,0.266,0.716,0.532,1.065,0.791C4.473,4.72,4.342,5.141,4.192,5.626
				C4.62,5.323,4.986,5.064,5.359,4.8c0.372,0.265,0.733,0.52,1.094,0.776C6.468,5.563,6.482,5.553,6.498,5.54
				C6.367,5.115,6.236,4.69,6.104,4.261C6.3,4.116,6.48,3.991,6.65,3.854c0.168-0.138,0.38-0.228,0.526-0.447
				C6.708,3.406,6.279,3.406,5.819,3.406z M22.931,11.476c0.372-0.274,0.721-0.533,1.07-0.792c-0.006-0.021-0.013-0.041-0.019-0.063
				c-0.443,0-0.886,0-1.332,0c-0.154-0.453-0.298-0.877-0.46-1.353c-0.166,0.481-0.314,0.912-0.469,1.361c-0.454,0-0.888,0-1.322,0
				c-0.006,0.017-0.013,0.034-0.019,0.051c0.354,0.267,0.709,0.533,1.063,0.8c-0.138,0.444-0.27,0.869-0.423,1.361
				c0.431-0.306,0.802-0.569,1.167-0.828c0.389,0.274,0.749,0.526,1.109,0.78c0.011-0.013,0.023-0.026,0.035-0.039
				C23.201,12.337,23.07,11.919,22.931,11.476z M7.768,7.017c-0.005,0.02-0.01,0.039-0.015,0.059
				c0.358,0.267,0.717,0.532,1.07,0.796C8.683,8.318,8.553,8.736,8.423,9.155C8.439,9.163,8.457,9.172,8.473,9.18
				c0.365-0.257,0.729-0.516,1.094-0.772c0.376,0.266,0.735,0.519,1.093,0.771c0.014-0.014,0.029-0.028,0.043-0.042
				c-0.131-0.424-0.261-0.848-0.391-1.27c0.374-0.276,0.721-0.535,1.069-0.794c-0.007-0.02-0.015-0.041-0.022-0.062
				c-0.442,0-0.885,0-1.332,0c-0.152-0.446-0.294-0.865-0.458-1.35C9.399,6.151,9.251,6.579,9.101,7.017
				C8.641,7.017,8.204,7.017,7.768,7.017z M26.397,5.657c-0.169,0.497-0.313,0.919-0.467,1.371c-0.449,0-0.891,0-1.333,0
				c-0.003,0.017-0.006,0.033-0.01,0.05c0.357,0.267,0.714,0.532,1.066,0.793c-0.075,0.243-0.144,0.451-0.205,0.662
				c-0.06,0.206-0.162,0.401-0.169,0.665c0.393-0.278,0.755-0.536,1.117-0.793c0.38,0.271,0.738,0.523,1.096,0.778
				c0.014-0.014,0.028-0.028,0.042-0.043c-0.131-0.424-0.262-0.848-0.394-1.272c0.198-0.146,0.379-0.271,0.549-0.41
				c0.168-0.137,0.38-0.227,0.529-0.453c-0.481,0-0.919,0-1.365,0C26.706,6.567,26.562,6.143,26.397,5.657z M22.65,3.405
				c-0.15-0.44-0.296-0.864-0.462-1.351c-0.167,0.488-0.311,0.912-0.466,1.365c-0.446,0-0.888,0-1.329,0
				c-0.004,0.019-0.007,0.035-0.011,0.053c0.356,0.266,0.714,0.532,1.063,0.792c-0.141,0.453-0.271,0.872-0.4,1.292
				c0.015,0.008,0.03,0.016,0.045,0.023c0.365-0.26,0.73-0.519,1.099-0.78c0.375,0.265,0.738,0.521,1.101,0.776
				c0.014-0.011,0.027-0.021,0.042-0.031c-0.131-0.425-0.262-0.85-0.395-1.279C23.292,3.979,23.665,3.741,24,3.46
				c-0.009-0.019-0.019-0.037-0.028-0.055C23.535,3.405,23.098,3.405,22.65,3.405z"/>
			<path style="fill-rule:evenodd;clip-rule:evenodd;fill:#B22234;" d="M-1.976,54.479c0-1.564,0-3.111,0-4.67
				c33.328,0,70.636,0,103.965,0c0,1.557,0,3.103,0,4.65C101.773,54.517-1.429,54.54-1.976,54.479z"/>
			<path style="fill-rule:evenodd;clip-rule:evenodd;fill:#B22234;" d="M102,59.359c0,1.567,0,6.025,0,7.562
				c-0.231,0.061-103.426,0.085-103.948,0.026c-0.062-0.219-0.069-7.314-0.005-7.588C31.353,59.359,68.66,59.359,102,59.359z"/>
			<path style="fill-rule:evenodd;clip-rule:evenodd;fill:#B22234;" d="M101.99,40.202c0.029,0.299,0.026,4.38-0.005,4.666
				c-33.31,0-70.624,0-103.959,0c0-1.555,0-3.101,0-4.666C31.344,40.202,68.656,40.202,101.99,40.202z"/>
			<path style="fill-rule:evenodd;clip-rule:evenodd;fill:#FFFEFE;" d="M48.53,34.422c-0.36-0.251-0.72-0.503-1.098-0.768
				c-0.366,0.259-0.729,0.517-1.094,0.773c-0.016-0.006-0.032-0.014-0.048-0.021c0.131-0.421,0.26-0.841,0.398-1.29
				c-0.354-0.264-0.71-0.528-1.066-0.795c0.006-0.018,0.01-0.036,0.016-0.054c0.441,0,0.883,0,1.332,0
				c0.153-0.452,0.298-0.876,0.463-1.363c0.162,0.476,0.305,0.896,0.459,1.346c0.439,0,0.883,0,1.326,0
				c0.009,0.021,0.018,0.044,0.025,0.066c-0.352,0.265-0.702,0.529-1.064,0.803c0.108,0.349,0.216,0.689,0.32,1.031
				c0.027,0.091,0.099,0.178,0.027,0.279L48.53,34.422z"/>
			<path style="fill-rule:evenodd;clip-rule:evenodd;fill:#FFFEFE;" d="M6.449,34.426c-0.356-0.253-0.713-0.507-1.087-0.773
				c-0.375,0.265-0.748,0.525-1.169,0.822c0.15-0.482,0.283-0.908,0.422-1.358c-0.358-0.267-0.716-0.532-1.074-0.798
				c0.004-0.018,0.009-0.033,0.012-0.051c0.443,0,0.885,0,1.339,0c0.155-0.452,0.303-0.881,0.468-1.36
				c0.165,0.486,0.309,0.911,0.458,1.35c0.452,0,0.889,0,1.325,0c-0.303,0.334-0.67,0.563-1.025,0.855
				C6.2,33.537,6.386,33.946,6.449,34.426z"/>
			<path style="fill-rule:evenodd;clip-rule:evenodd;fill:#FFFEFE;" d="M14.906,34.393c-0.085,0.053-0.127-0.029-0.178-0.064
				c-0.312-0.217-0.619-0.438-0.953-0.678c-0.373,0.265-0.745,0.529-1.17,0.829c0.151-0.484,0.284-0.91,0.425-1.362
				c-0.354-0.264-0.709-0.528-1.066-0.795c0.005-0.019,0.011-0.039,0.017-0.058c0.443,0,0.885,0,1.329,0
				c0.155-0.454,0.299-0.876,0.465-1.36c0.165,0.485,0.307,0.906,0.456,1.343c0.447,0,0.885,0,1.368,0
				c-0.147,0.232-0.362,0.319-0.53,0.456c-0.169,0.141-0.351,0.264-0.543,0.407c0.127,0.432,0.252,0.859,0.377,1.288L14.906,34.393z
				"/>
			<path style="fill-rule:evenodd;clip-rule:evenodd;fill:#FFFEFE;" d="M29.507,34.424c-0.059-0.091-0.001-0.172,0.024-0.253
				c0.106-0.343,0.214-0.686,0.33-1.054c-0.355-0.265-0.711-0.529-1.067-0.796c0.005-0.018,0.011-0.036,0.016-0.056
				c0.443,0,0.886,0,1.331,0c0.155-0.453,0.298-0.877,0.463-1.359c0.166,0.482,0.312,0.909,0.464,1.353c0.449,0,0.885,0,1.321,0
				c0.009,0.02,0.018,0.038,0.027,0.058c-0.352,0.264-0.703,0.529-1.066,0.802c0.134,0.433,0.266,0.858,0.398,1.284
				c-0.013,0.012-0.025,0.021-0.037,0.033c-0.362-0.256-0.723-0.513-1.099-0.779c-0.372,0.255-0.74,0.508-1.108,0.761L29.507,34.424
				z"/>
			<path style="fill-rule:evenodd;clip-rule:evenodd;fill:#FFFEFE;" d="M21.098,34.433c-0.074-0.1-0.003-0.188,0.025-0.279
				c0.104-0.342,0.212-0.684,0.322-1.037c-0.359-0.269-0.71-0.528-1.061-0.79c0.003-0.02,0.006-0.039,0.009-0.059
				c0.439-0.02,0.88-0.008,1.337-0.018c0.146-0.431,0.29-0.854,0.458-1.345c0.166,0.486,0.311,0.91,0.461,1.35
				c0.447,0,0.884,0,1.321,0c0.01,0.019,0.019,0.036,0.029,0.055c-0.161,0.149-0.35,0.268-0.525,0.401
				c-0.174,0.133-0.351,0.262-0.542,0.403c0.135,0.433,0.267,0.858,0.398,1.284c-0.012,0.012-0.024,0.023-0.037,0.034
				c-0.361-0.253-0.722-0.508-1.105-0.778c-0.364,0.256-0.729,0.514-1.094,0.771L21.098,34.433z"/>
			<path style="fill-rule:evenodd;clip-rule:evenodd;fill:#FFFEFE;" d="M13.774,16.478c0.167,0.49,0.311,0.915,0.459,1.354
				c0.452,0,0.89,0,1.4,0c-0.375,0.345-0.763,0.565-1.112,0.865c0.13,0.426,0.26,0.85,0.391,1.274
				c-0.016,0.009-0.031,0.019-0.046,0.029c-0.357-0.254-0.715-0.507-1.093-0.774c-0.372,0.263-0.743,0.526-1.168,0.828
				c0.153-0.492,0.286-0.919,0.423-1.361c-0.361-0.271-0.717-0.539-1.073-0.806c0.005-0.017,0.01-0.032,0.014-0.049
				c0.444,0,0.888,0,1.34,0C13.461,17.393,13.606,16.97,13.774,16.478z"/>
			<path style="fill-rule:evenodd;clip-rule:evenodd;fill:#FFFEFE;" d="M10.695,30.791c-0.096,0.034-0.144-0.049-0.204-0.091
				c-0.304-0.21-0.603-0.427-0.922-0.654C9.194,30.311,8.82,30.572,8.4,30.868c0.149-0.479,0.281-0.906,0.421-1.356
				c-0.357-0.267-0.713-0.534-1.132-0.847c0.511,0,0.952,0,1.409,0c0.156-0.452,0.304-0.881,0.47-1.363
				c0.165,0.484,0.309,0.907,0.458,1.344c0.449,0,0.887,0,1.373,0c-0.165,0.222-0.372,0.318-0.542,0.455
				c-0.17,0.138-0.35,0.264-0.54,0.404c0.128,0.435,0.254,0.863,0.38,1.291L10.695,30.791z"/>
			<path style="fill-rule:evenodd;clip-rule:evenodd;fill:#FFFEFE;" d="M37.915,34.416c-0.047-0.095,0.01-0.174,0.036-0.257
				c0.105-0.343,0.213-0.685,0.324-1.044c-0.359-0.268-0.715-0.53-1.069-0.795c0.008-0.019,0.016-0.037,0.023-0.056
				c0.435,0,0.87,0,1.325,0c0.152-0.447,0.301-0.878,0.466-1.358c0.161,0.474,0.306,0.897,0.46,1.353c0.441,0,0.885,0,1.328,0
				c0.008,0.021,0.014,0.042,0.021,0.063c-0.355,0.265-0.71,0.528-1.066,0.794c0.138,0.444,0.27,0.87,0.423,1.363
				c-0.422-0.299-0.786-0.557-1.155-0.817c-0.402,0.219-0.72,0.548-1.121,0.748L37.915,34.416z"/>
			<path style="fill-rule:evenodd;clip-rule:evenodd;fill:#FFFEFE;" d="M14.897,27.192c-0.15-0.015-0.24-0.133-0.352-0.208
				c-0.256-0.174-0.505-0.356-0.773-0.547c-0.371,0.265-0.736,0.523-1.167,0.83c0.153-0.495,0.286-0.923,0.422-1.363
				c-0.357-0.268-0.708-0.529-1.091-0.815c0.256-0.078,0.48-0.033,0.698-0.043c0.219-0.009,0.439-0.002,0.677-0.002
				c0.147-0.435,0.291-0.856,0.46-1.351c0.167,0.49,0.313,0.912,0.462,1.35c0.449,0,0.886,0,1.323,0
				c-0.306,0.341-0.685,0.571-1.039,0.865c0.096,0.307,0.194,0.608,0.284,0.912c0.036,0.124,0.109,0.238,0.091,0.375L14.897,27.192z
				"/>
			<path style="fill-rule:evenodd;clip-rule:evenodd;fill:#FFFEFE;" d="M33.715,30.82c-0.059-0.091-0.002-0.172,0.023-0.254
				c0.105-0.343,0.215-0.686,0.33-1.055c-0.354-0.265-0.711-0.53-1.066-0.796c0.006-0.019,0.01-0.037,0.016-0.056
				c0.441,0,0.885,0,1.33,0c0.154-0.454,0.299-0.878,0.463-1.36c0.166,0.481,0.312,0.909,0.464,1.353c0.45,0,0.886,0,1.321,0
				c0.01,0.02,0.018,0.039,0.027,0.058c-0.344,0.275-0.711,0.522-1.066,0.802c0.135,0.434,0.268,0.859,0.422,1.359
				c-0.422-0.299-0.784-0.555-1.162-0.821c-0.371,0.256-0.738,0.511-1.105,0.764L33.715,30.82z"/>
			<path style="fill-rule:evenodd;clip-rule:evenodd;fill:#FFFEFE;" d="M42.12,30.811c-0.044-0.096,0.013-0.176,0.038-0.258
				c0.105-0.343,0.213-0.686,0.324-1.043c-0.36-0.27-0.715-0.532-1.07-0.797c0.008-0.018,0.017-0.037,0.025-0.056
				c0.435,0,0.87,0,1.324,0c0.152-0.445,0.3-0.875,0.465-1.357c0.162,0.477,0.307,0.9,0.461,1.354c0.443,0,0.887,0,1.331,0
				c0.007,0.02,0.013,0.04,0.021,0.06c-0.355,0.266-0.711,0.53-1.068,0.797c0.138,0.443,0.27,0.868,0.424,1.364
				c-0.424-0.302-0.788-0.56-1.154-0.82c-0.404,0.223-0.723,0.549-1.125,0.75L42.12,30.811z"/>
			<path style="fill-rule:evenodd;clip-rule:evenodd;fill:#FFFEFE;" d="M29.512,27.224c-0.071-0.1-0.003-0.19,0.025-0.28
				c0.104-0.343,0.212-0.685,0.324-1.041c-0.361-0.269-0.716-0.531-1.071-0.795c0.009-0.019,0.017-0.038,0.025-0.057
				c0.435,0,0.87,0,1.325,0c0.152-0.446,0.299-0.876,0.464-1.359c0.162,0.475,0.305,0.898,0.459,1.349c0.443,0,0.887,0,1.33,0
				c0.008,0.021,0.017,0.044,0.025,0.065c-0.354,0.264-0.708,0.527-1.07,0.797c0.136,0.438,0.268,0.863,0.399,1.289
				c-0.013,0.01-0.025,0.021-0.038,0.031c-0.362-0.257-0.724-0.514-1.107-0.785c-0.366,0.262-0.73,0.521-1.095,0.78L29.512,27.224z"
				/>
			<path style="fill-rule:evenodd;clip-rule:evenodd;fill:#FFFEFE;" d="M16.896,23.634c-0.082-0.098-0.016-0.19,0.012-0.281
				c0.104-0.344,0.215-0.686,0.331-1.053c-0.356-0.266-0.713-0.533-1.13-0.845c0.505,0,0.944,0,1.403,0
				c0.155-0.452,0.303-0.882,0.471-1.371c0.163,0.481,0.304,0.901,0.456,1.349c0.445,0,0.889,0,1.332,0
				c0.009,0.021,0.018,0.044,0.026,0.066c-0.354,0.263-0.708,0.526-1.071,0.796c0.134,0.431,0.263,0.847,0.392,1.263
				c-0.412-0.195-0.756-0.471-1.138-0.724c-0.363,0.265-0.744,0.502-1.083,0.796V23.634z"/>
			<path style="fill-rule:evenodd;clip-rule:evenodd;fill:#FFFEFE;" d="M16.893,30.835c-0.082-0.098-0.008-0.189,0.019-0.278
				c0.104-0.344,0.213-0.686,0.326-1.045c-0.361-0.27-0.718-0.536-1.075-0.805c0.004-0.015,0.008-0.031,0.013-0.047
				c0.442,0,0.885,0,1.341,0c0.152-0.445,0.296-0.867,0.464-1.359c0.167,0.486,0.312,0.909,0.461,1.346c0.447,0,0.885,0,1.373,0
				c-0.168,0.22-0.374,0.318-0.545,0.456c-0.171,0.136-0.351,0.263-0.534,0.398c0.092,0.444,0.287,0.853,0.385,1.351
				c-0.404-0.285-0.76-0.537-1.141-0.809c-0.362,0.263-0.725,0.523-1.087,0.786L16.893,30.835z"/>
			<path style="fill-rule:evenodd;clip-rule:evenodd;fill:#FFFEFE;" d="M37.92,27.213c-0.055-0.091,0.002-0.172,0.027-0.255
				c0.105-0.343,0.213-0.686,0.328-1.055c-0.354-0.264-0.711-0.528-1.066-0.795c0.006-0.019,0.011-0.038,0.016-0.056
				c0.443,0,0.886,0,1.332,0c0.154-0.454,0.299-0.879,0.463-1.361c0.162,0.476,0.305,0.896,0.458,1.348c0.442,0,0.885,0,1.328,0
				c0.009,0.022,0.019,0.046,0.027,0.067c-0.354,0.265-0.709,0.527-1.069,0.796c0.137,0.44,0.269,0.866,0.423,1.363
				c-0.422-0.299-0.784-0.557-1.16-0.822c-0.374,0.257-0.743,0.51-1.11,0.764L37.92,27.213z"/>
			<path style="fill-rule:evenodd;clip-rule:evenodd;fill:#FFFEFE;" d="M6.489,27.188c-0.097,0.032-0.144-0.053-0.204-0.095
				c-0.303-0.211-0.604-0.426-0.925-0.654c-0.373,0.264-0.745,0.525-1.168,0.825c0.151-0.487,0.283-0.913,0.423-1.362
				c-0.358-0.266-0.716-0.531-1.074-0.798c0.004-0.017,0.009-0.033,0.012-0.049c0.442,0,0.885,0,1.34,0
				c0.155-0.452,0.302-0.881,0.467-1.364c0.166,0.489,0.31,0.912,0.458,1.351c0.452,0,0.889,0,1.326,0
				c0.009,0.019,0.019,0.036,0.028,0.054c-0.336,0.282-0.708,0.521-1.063,0.805c0.129,0.437,0.256,0.864,0.383,1.293L6.489,27.188z"
				/>
			<path style="fill-rule:evenodd;clip-rule:evenodd;fill:#FFFEFE;" d="M25.304,30.827c-0.07-0.101-0.001-0.19,0.027-0.28
				c0.104-0.343,0.212-0.684,0.321-1.036c-0.36-0.27-0.711-0.531-1.062-0.794c0.003-0.02,0.006-0.04,0.009-0.06
				c0.441-0.01,0.883-0.007,1.338-0.012c0.148-0.434,0.292-0.857,0.458-1.347c0.166,0.485,0.312,0.91,0.462,1.351
				c0.448,0,0.885,0,1.336,0c-0.037,0.055-0.002,0.008-0.001,0.048c0,0.01-0.003,0.021-0.01,0.027
				c-0.342,0.259-0.684,0.517-1.041,0.787c0.133,0.43,0.265,0.855,0.397,1.281c-0.013,0.013-0.025,0.023-0.038,0.036
				c-0.361-0.257-0.721-0.512-1.104-0.783c-0.366,0.259-0.732,0.517-1.098,0.774L25.304,30.827z"/>
			<path style="fill-rule:evenodd;clip-rule:evenodd;fill:#FFFEFE;" d="M16.898,16.423c-0.085-0.097-0.019-0.191,0.009-0.281
				c0.104-0.344,0.215-0.687,0.332-1.058c-0.356-0.265-0.715-0.531-1.136-0.843c0.51,0,0.95,0,1.409,0
				c0.156-0.452,0.303-0.883,0.47-1.369c0.164,0.482,0.307,0.905,0.456,1.344c0.446,0,0.884,0,1.367,0
				c-0.148,0.229-0.362,0.318-0.53,0.456c-0.169,0.139-0.351,0.264-0.548,0.41c0.132,0.427,0.262,0.852,0.394,1.277
				c-0.014,0.012-0.029,0.025-0.043,0.037c-0.361-0.256-0.722-0.512-1.094-0.776C17.617,15.89,17.229,16.116,16.898,16.423
				L16.898,16.423z"/>
			<path style="fill-rule:evenodd;clip-rule:evenodd;fill:#FFFEFE;" d="M15.581,10.684c-0.351,0.263-0.701,0.524-1.063,0.795
				c0.134,0.429,0.263,0.847,0.393,1.264c-0.015,0.014-0.03,0.028-0.044,0.042c-0.359-0.253-0.719-0.506-1.092-0.771
				c-0.374,0.264-0.745,0.524-1.169,0.823c0.153-0.492,0.286-0.918,0.424-1.36c-0.362-0.271-0.72-0.535-1.077-0.801
				c0.006-0.018,0.012-0.034,0.018-0.053c0.444,0,0.889,0,1.339,0c0.152-0.445,0.296-0.868,0.463-1.356
				c0.167,0.489,0.313,0.916,0.463,1.356c0.452,0,0.889,0,1.326,0C15.568,10.644,15.575,10.664,15.581,10.684z"/>
			<path style="fill-rule:evenodd;clip-rule:evenodd;fill:#FFFEFE;" d="M21.101,27.232c-0.078-0.099-0.011-0.189,0.017-0.281
				c0.105-0.343,0.214-0.684,0.328-1.047c-0.356-0.266-0.711-0.531-1.067-0.795c0.007-0.018,0.013-0.036,0.02-0.054
				c0.434,0,0.868,0,1.323,0c0.154-0.448,0.302-0.877,0.469-1.362c0.161,0.476,0.304,0.896,0.457,1.345c0.444,0,0.888,0,1.331,0
				c0.008,0.022,0.017,0.044,0.025,0.065c-0.353,0.265-0.706,0.527-1.07,0.8c0.136,0.437,0.267,0.862,0.399,1.288
				c-0.013,0.01-0.026,0.021-0.038,0.031c-0.362-0.257-0.724-0.514-1.109-0.788c-0.363,0.266-0.724,0.529-1.085,0.793L21.101,27.232
				z"/>
			<path style="fill-rule:evenodd;clip-rule:evenodd;fill:#FFFEFE;" d="M33.719,23.618c-0.071-0.101-0.002-0.19,0.025-0.28
				c0.105-0.344,0.213-0.685,0.323-1.041c-0.361-0.27-0.716-0.533-1.07-0.798c0.008-0.019,0.016-0.036,0.024-0.055
				c0.436,0,0.871,0,1.326,0c0.152-0.446,0.299-0.877,0.465-1.358c0.161,0.475,0.306,0.899,0.459,1.352c0.443,0,0.887,0,1.33,0
				c0.008,0.021,0.016,0.042,0.023,0.063c-0.354,0.264-0.709,0.528-1.069,0.796c0.137,0.44,0.269,0.865,0.401,1.29
				c-0.014,0.011-0.025,0.021-0.039,0.032c-0.362-0.259-0.725-0.517-1.107-0.788c-0.367,0.264-0.73,0.522-1.096,0.783L33.719,23.618
				z"/>
			<path style="fill-rule:evenodd;clip-rule:evenodd;fill:#FFFEFE;" d="M25.309,23.626c-0.077-0.098-0.011-0.189,0.017-0.281
				c0.105-0.343,0.214-0.685,0.328-1.048c-0.357-0.266-0.713-0.53-1.068-0.795c0.006-0.019,0.013-0.035,0.02-0.054
				c0.434,0,0.868,0,1.325,0c0.153-0.446,0.301-0.877,0.468-1.362c0.162,0.477,0.304,0.898,0.457,1.347c0.445,0,0.888,0,1.332,0
				c0.008,0.021,0.017,0.043,0.025,0.064c-0.354,0.265-0.707,0.528-1.071,0.8c0.136,0.437,0.268,0.861,0.4,1.287
				c-0.014,0.01-0.027,0.021-0.04,0.033c-0.362-0.258-0.724-0.516-1.108-0.789c-0.364,0.266-0.726,0.53-1.086,0.793L25.309,23.626z"
				/>
			<path style="fill-rule:evenodd;clip-rule:evenodd;fill:#FFFEFE;" d="M9.568,20.088c0.165,0.484,0.307,0.905,0.455,1.34
				c0.45,0,0.888,0,1.369,0c-0.147,0.23-0.362,0.318-0.53,0.456c-0.17,0.139-0.351,0.263-0.55,0.41
				c0.131,0.426,0.262,0.851,0.392,1.275c-0.015,0.013-0.031,0.025-0.046,0.038c-0.36-0.257-0.721-0.514-1.09-0.775
				c-0.379,0.268-0.745,0.527-1.168,0.825c0.15-0.482,0.28-0.904,0.422-1.36c-0.352-0.262-0.71-0.529-1.123-0.837
				c0.278-0.033,0.499-0.017,0.718-0.021c0.22-0.004,0.439-0.001,0.686-0.001C9.251,21.005,9.399,20.575,9.568,20.088z"/>
			<path style="fill-rule:evenodd;clip-rule:evenodd;fill:#FFFEFE;" d="M5.36,16.48c0.165,0.485,0.308,0.906,0.455,1.341
				c0.45,0,0.888,0,1.369,0c-0.151,0.228-0.362,0.319-0.532,0.457c-0.17,0.138-0.351,0.262-0.548,0.408
				c0.131,0.429,0.262,0.854,0.393,1.277c-0.015,0.012-0.03,0.025-0.045,0.038c-0.36-0.257-0.721-0.513-1.093-0.776
				c-0.376,0.267-0.742,0.526-1.166,0.827c0.15-0.485,0.28-0.908,0.42-1.359c-0.352-0.265-0.709-0.532-1.065-0.8
				c0.445-0.064,0.884-0.059,1.349-0.066C5.044,17.397,5.192,16.969,5.36,16.48z"/>
			<path style="fill-rule:evenodd;clip-rule:evenodd;fill:#FFFEFE;" d="M21.105,20.026c-0.083-0.097-0.017-0.191,0.01-0.281
				c0.105-0.344,0.215-0.685,0.331-1.054c-0.357-0.265-0.715-0.532-1.133-0.844c0.506,0,0.946,0,1.407,0
				c0.155-0.451,0.302-0.882,0.469-1.368c0.162,0.478,0.305,0.897,0.458,1.348c0.443,0,0.887,0,1.33,0
				c0.009,0.021,0.018,0.043,0.026,0.066c-0.354,0.263-0.708,0.526-1.071,0.795c0.137,0.441,0.269,0.865,0.4,1.291
				c-0.013,0.01-0.026,0.02-0.04,0.03c-0.364-0.259-0.728-0.517-1.104-0.783c-0.367,0.267-0.749,0.502-1.087,0.798L21.105,20.026z"
				/>
			<path style="fill-rule:evenodd;clip-rule:evenodd;fill:#FFFEFE;" d="M48.525,27.227c-0.361-0.263-0.721-0.524-1.078-0.784
				c-0.405,0.234-0.727,0.554-1.125,0.757l0.004,0.004c-0.043-0.095,0.015-0.175,0.041-0.258c0.104-0.344,0.212-0.685,0.324-1.043
				c-0.363-0.27-0.718-0.532-1.073-0.796c0.008-0.019,0.017-0.037,0.023-0.055c0.437,0,0.871,0,1.329,0
				c0.151-0.444,0.298-0.873,0.464-1.36c0.163,0.48,0.308,0.904,0.462,1.357c0.443,0,0.887,0,1.33,0
				c0.007,0.02,0.013,0.04,0.02,0.059c-0.355,0.266-0.711,0.53-1.068,0.796c0.113,0.362,0.223,0.704,0.327,1.048
				c0.028,0.09,0.097,0.182,0.019,0.281L48.525,27.227z"/>
			<path style="fill-rule:evenodd;clip-rule:evenodd;fill:#FFFEFE;" d="M42.126,23.606c-0.058-0.093,0.003-0.172,0.028-0.255
				c0.105-0.343,0.214-0.685,0.328-1.051c-0.355-0.267-0.711-0.535-1.066-0.802c0.004-0.017,0.008-0.033,0.012-0.05
				c0.442,0,0.884,0,1.334,0c0.153-0.45,0.297-0.874,0.463-1.362c0.166,0.481,0.312,0.907,0.463,1.347c0.444,0,0.883,0,1.365,0
				c-0.155,0.223-0.365,0.316-0.534,0.453c-0.171,0.138-0.352,0.262-0.548,0.407c0.109,0.352,0.22,0.701,0.327,1.052
				c0.028,0.092,0.095,0.183,0.017,0.281l0.002-0.004c-0.359-0.264-0.719-0.527-1.078-0.79c-0.385,0.264-0.751,0.516-1.117,0.768
				L42.126,23.606z"/>
			<path style="fill-rule:evenodd;clip-rule:evenodd;fill:#FFFEFE;" d="M29.518,20.019c-0.08-0.099-0.012-0.189,0.017-0.281
				c0.105-0.343,0.213-0.685,0.326-1.047c-0.359-0.267-0.714-0.532-1.07-0.797c0.007-0.018,0.013-0.034,0.02-0.052
				c0.435,0,0.87,0,1.329,0c0.153-0.445,0.3-0.877,0.466-1.362c0.162,0.476,0.305,0.897,0.458,1.347c0.444,0,0.888,0,1.332,0
				c0.009,0.021,0.018,0.043,0.026,0.065c-0.354,0.264-0.708,0.527-1.072,0.798c0.136,0.438,0.268,0.863,0.4,1.288
				c-0.013,0.011-0.025,0.021-0.038,0.032c-0.363-0.258-0.726-0.515-1.111-0.787c-0.362,0.265-0.724,0.529-1.085,0.793
				L29.518,20.019z"/>
			<path style="fill-rule:evenodd;clip-rule:evenodd;fill:#FFFEFE;" d="M19.793,7.076c-0.35,0.26-0.699,0.519-1.067,0.792
				c0.133,0.43,0.264,0.854,0.396,1.279c-0.014,0.013-0.029,0.024-0.043,0.037c-0.361-0.257-0.722-0.513-1.097-0.78
				c-0.368,0.262-0.732,0.521-1.097,0.779c-0.015-0.01-0.03-0.019-0.045-0.028c0.13-0.422,0.261-0.845,0.396-1.284
				c-0.354-0.265-0.705-0.526-1.089-0.813c0.255-0.071,0.478-0.033,0.697-0.041c0.219-0.008,0.438-0.002,0.674-0.002
				c0.152-0.443,0.3-0.874,0.466-1.354c0.163,0.481,0.307,0.906,0.456,1.345c0.448,0,0.886,0,1.323,0
				C19.773,7.029,19.783,7.053,19.793,7.076z"/>
			<path style="fill-rule:evenodd;clip-rule:evenodd;fill:#FFFEFE;" d="M7.766,14.231c0.437,0,0.873,0,1.334,0
				c0.151-0.438,0.299-0.867,0.468-1.356c0.165,0.484,0.308,0.905,0.459,1.353c0.449,0,0.892,0,1.335,0
				c0.007,0.021,0.013,0.039,0.02,0.06c-0.349,0.259-0.698,0.518-1.071,0.793c0.131,0.426,0.262,0.851,0.393,1.276
				c-0.015,0.011-0.029,0.023-0.043,0.035c-0.361-0.254-0.723-0.509-1.095-0.77c-0.374,0.263-0.739,0.521-1.166,0.821
				c0.151-0.488,0.281-0.905,0.422-1.357c-0.354-0.266-0.715-0.536-1.077-0.807C7.751,14.263,7.759,14.248,7.766,14.231z"/>
			<path style="fill-rule:evenodd;clip-rule:evenodd;fill:#FFFEFE;" d="M33.726,16.41c-0.081-0.098-0.011-0.189,0.017-0.279
				c0.105-0.344,0.213-0.686,0.325-1.048c-0.358-0.267-0.714-0.531-1.07-0.795c0.008-0.019,0.016-0.036,0.023-0.055
				c0.436,0,0.871,0,1.326,0c0.153-0.447,0.3-0.878,0.466-1.36c0.162,0.477,0.306,0.9,0.461,1.354c0.443,0,0.887,0,1.331,0
				c0.007,0.021,0.013,0.04,0.021,0.061c-0.355,0.265-0.711,0.529-1.069,0.796c0.136,0.437,0.266,0.854,0.396,1.271
				c-0.015,0.014-0.029,0.028-0.043,0.042c-0.359-0.256-0.72-0.512-1.101-0.782c-0.364,0.266-0.725,0.531-1.087,0.795H33.726z"/>
			<path style="fill-rule:evenodd;clip-rule:evenodd;fill:#FFFEFE;" d="M29.521,12.805c-0.086-0.097-0.015-0.188,0.013-0.278
				c0.104-0.343,0.213-0.686,0.326-1.046c-0.357-0.269-0.712-0.534-1.067-0.801c0.006-0.017,0.012-0.033,0.018-0.049
				c0.435,0,0.869,0,1.328,0c0.152-0.446,0.299-0.877,0.466-1.362c0.165,0.481,0.313,0.911,0.464,1.355c0.452,0,0.888,0,1.324,0
				c0.008,0.019,0.017,0.037,0.026,0.056c-0.354,0.264-0.708,0.527-1.069,0.798c0.136,0.438,0.268,0.863,0.422,1.362
				c-0.423-0.301-0.787-0.558-1.168-0.828c-0.363,0.266-0.741,0.507-1.085,0.794L29.521,12.805z"/>
			<path style="fill-rule:evenodd;clip-rule:evenodd;fill:#FFFEFE;" d="M37.928,20.01c-0.073-0.102-0.003-0.189,0.025-0.281
				c0.104-0.343,0.211-0.684,0.321-1.037c-0.36-0.269-0.711-0.531-1.095-0.818c0.256-0.073,0.48-0.03,0.699-0.039
				s0.438-0.001,0.678-0.001c0.15-0.44,0.298-0.87,0.464-1.354c0.163,0.479,0.307,0.903,0.46,1.356c0.445,0,0.889,0,1.332,0
				c0.006,0.02,0.013,0.039,0.02,0.06c-0.35,0.259-0.698,0.518-1.068,0.792c0.109,0.352,0.219,0.701,0.326,1.052
				c0.027,0.092,0.096,0.183,0.017,0.281l0.003-0.003c-0.359-0.263-0.717-0.527-1.085-0.797c-0.377,0.269-0.739,0.528-1.103,0.787
				L37.928,20.01z"/>
			<path style="fill-rule:evenodd;clip-rule:evenodd;fill:#FFFEFE;" d="M46.33,19.996c-0.048-0.082,0.001-0.154,0.024-0.229
				c0.109-0.352,0.22-0.703,0.337-1.076c-0.358-0.267-0.715-0.532-1.07-0.798c0.004-0.018,0.01-0.035,0.016-0.054
				c0.442,0,0.885,0,1.334,0c0.153-0.45,0.297-0.874,0.462-1.359c0.165,0.482,0.313,0.909,0.464,1.351c0.447,0,0.885,0,1.321,0
				c0.009,0.018,0.019,0.036,0.027,0.055c-0.337,0.28-0.707,0.521-1.065,0.808c0.109,0.352,0.221,0.701,0.328,1.052
				c0.027,0.091,0.093,0.185,0.011,0.281l0.002-0.003c-0.338-0.293-0.718-0.528-1.079-0.793c-0.381,0.26-0.749,0.512-1.117,0.764
				L46.33,19.996z"/>
			<path style="fill-rule:evenodd;clip-rule:evenodd;fill:#FFFEFE;" d="M12.634,5.53c0.13-0.417,0.26-0.834,0.395-1.266
				c-0.357-0.267-0.709-0.529-1.093-0.814c0.257-0.072,0.482-0.031,0.702-0.039c0.219-0.009,0.438-0.002,0.671-0.002
				c0.153-0.446,0.301-0.875,0.466-1.355c0.164,0.483,0.308,0.908,0.457,1.347c0.449,0,0.887,0,1.37,0
				c-0.157,0.226-0.369,0.316-0.539,0.454c-0.17,0.139-0.351,0.264-0.544,0.405c0.133,0.432,0.263,0.856,0.393,1.281
				c-0.015,0.012-0.03,0.021-0.044,0.033c-0.354-0.252-0.709-0.503-1.094-0.775c-0.365,0.259-0.735,0.521-1.104,0.784
				C12.657,5.565,12.646,5.549,12.634,5.53z"/>
			<path style="fill-rule:evenodd;clip-rule:evenodd;fill:#FFFEFE;" d="M44.313,16.416c-0.338-0.294-0.718-0.527-1.086-0.795
				c-0.373,0.263-0.736,0.52-1.102,0.776l0.008-0.001c-0.064-0.09-0.006-0.171,0.02-0.252c0.106-0.344,0.215-0.687,0.33-1.058
				c-0.354-0.265-0.709-0.532-1.066-0.799c0.004-0.017,0.008-0.032,0.012-0.05c0.441,0,0.883,0,1.334,0
				c0.153-0.451,0.298-0.875,0.463-1.364c0.166,0.482,0.312,0.908,0.463,1.347c0.444,0,0.883,0,1.367,0
				c-0.159,0.222-0.367,0.316-0.537,0.455c-0.172,0.137-0.352,0.262-0.547,0.405c0.11,0.354,0.221,0.705,0.328,1.056
				c0.027,0.09,0.096,0.184,0.011,0.279H44.313z"/>
			<path style="fill-rule:evenodd;clip-rule:evenodd;fill:#FFFEFE;" d="M5.822,10.63c0.459,0,0.895,0,1.329,0
				c0.007,0.017,0.014,0.035,0.021,0.052c-0.349,0.259-0.698,0.518-1.069,0.792c0.131,0.428,0.262,0.853,0.394,1.276
				c-0.015,0.013-0.029,0.025-0.044,0.037c-0.361-0.254-0.722-0.51-1.094-0.773c-0.373,0.264-0.738,0.521-1.167,0.823
				c0.153-0.495,0.285-0.919,0.42-1.358c-0.362-0.271-0.718-0.537-1.074-0.803c0.006-0.019,0.013-0.036,0.019-0.055
				c0.445,0,0.89,0,1.338,0c0.153-0.445,0.297-0.867,0.464-1.354C5.525,9.754,5.667,10.173,5.822,10.63z"/>
			<path style="fill-rule:evenodd;clip-rule:evenodd;fill:#FFFEFE;" d="M37.928,12.793c-0.07-0.088-0.01-0.17,0.016-0.251
				c0.105-0.343,0.215-0.685,0.333-1.063c-0.351-0.261-0.706-0.525-1.063-0.792c0.448-0.074,0.889-0.061,1.347-0.073
				c0.146-0.429,0.29-0.853,0.458-1.345c0.166,0.481,0.311,0.904,0.461,1.343c0.443,0,0.88,0,1.361,0
				c-0.148,0.229-0.361,0.318-0.53,0.456s-0.351,0.263-0.546,0.407c0.109,0.354,0.221,0.703,0.326,1.054
				c0.027,0.09,0.1,0.182,0.013,0.278l0.003,0.001c-0.342-0.288-0.717-0.529-1.09-0.796c-0.369,0.265-0.73,0.525-1.094,0.785
				L37.928,12.793z"/>
			<path style="fill-rule:evenodd;clip-rule:evenodd;fill:#FFFEFE;" d="M25.314,16.416c-0.083-0.097-0.018-0.189,0.011-0.28
				c0.105-0.344,0.214-0.687,0.328-1.048c-0.355-0.269-0.71-0.535-1.065-0.802c0.005-0.017,0.01-0.032,0.016-0.049
				c0.434,0,0.869,0,1.311,0c0.201-0.435,0.287-0.89,0.489-1.344c0.155,0.456,0.298,0.877,0.451,1.327c0.445,0,0.889,0,1.333,0
				c0.008,0.021,0.017,0.043,0.025,0.064c-0.354,0.264-0.708,0.528-1.072,0.799c0.137,0.438,0.269,0.862,0.401,1.288
				c-0.013,0.011-0.026,0.021-0.04,0.031c-0.363-0.258-0.726-0.516-1.107-0.787c-0.361,0.271-0.743,0.506-1.083,0.8H25.314z"/>
			<path style="fill-rule:evenodd;clip-rule:evenodd;fill:#FFFEFE;" d="M5.819,3.406c0.46,0,0.89,0,1.358,0
				C7.03,3.626,6.819,3.716,6.65,3.854C6.48,3.991,6.3,4.116,6.104,4.261C6.236,4.69,6.367,5.115,6.498,5.54
				c-0.015,0.013-0.03,0.023-0.044,0.036C6.093,5.319,5.731,5.064,5.359,4.8C4.986,5.064,4.62,5.323,4.192,5.626
				c0.15-0.485,0.28-0.906,0.422-1.363c-0.35-0.259-0.708-0.525-1.065-0.791c0.444-0.069,0.884-0.058,1.348-0.07
				c0.147-0.43,0.295-0.858,0.463-1.347C5.525,2.541,5.667,2.961,5.819,3.406z"/>
			<path style="fill-rule:evenodd;clip-rule:evenodd;fill:#FFFEFE;" d="M22.931,11.476c0.139,0.443,0.27,0.861,0.4,1.279
				c-0.012,0.013-0.024,0.026-0.035,0.039c-0.36-0.254-0.72-0.506-1.109-0.78c-0.365,0.259-0.736,0.522-1.167,0.828
				c0.153-0.492,0.285-0.917,0.423-1.361c-0.354-0.267-0.708-0.533-1.063-0.8c0.006-0.017,0.012-0.034,0.019-0.051
				c0.434,0,0.869,0,1.322,0c0.154-0.449,0.303-0.88,0.469-1.361c0.162,0.476,0.306,0.899,0.46,1.353c0.445,0,0.888,0,1.332,0
				c0.006,0.021,0.013,0.042,0.019,0.063C23.652,10.942,23.303,11.201,22.931,11.476z"/>
			<path style="fill-rule:evenodd;clip-rule:evenodd;fill:#FFFEFE;" d="M33.727,9.196c-0.086-0.098-0.012-0.188,0.016-0.278
				c0.104-0.344,0.213-0.686,0.325-1.046C33.709,7.604,33.354,7.34,33,7.075c0.008-0.018,0.015-0.037,0.023-0.055
				c0.436,0,0.871,0,1.323,0c0.153-0.446,0.301-0.877,0.467-1.359c0.162,0.479,0.307,0.902,0.457,1.343c0.444,0,0.883,0,1.365,0
				c-0.15,0.229-0.363,0.318-0.532,0.456c-0.17,0.139-0.352,0.264-0.546,0.408c0.133,0.428,0.264,0.853,0.395,1.277
				c-0.014,0.014-0.027,0.026-0.042,0.04c-0.36-0.257-0.721-0.512-1.103-0.784c-0.363,0.268-0.724,0.531-1.084,0.797L33.727,9.196z"
				/>
			<path style="fill-rule:evenodd;clip-rule:evenodd;fill:#FFFEFE;" d="M7.768,7.017c0.437,0,0.873,0,1.333,0
				c0.15-0.438,0.298-0.865,0.467-1.354c0.165,0.484,0.307,0.903,0.458,1.35c0.447,0,0.89,0,1.332,0
				c0.008,0.021,0.015,0.042,0.022,0.062c-0.348,0.259-0.695,0.518-1.069,0.794c0.13,0.422,0.26,0.846,0.391,1.27
				c-0.014,0.014-0.029,0.028-0.043,0.042c-0.358-0.253-0.717-0.506-1.093-0.771C9.202,8.664,8.837,8.923,8.473,9.18
				C8.457,9.172,8.439,9.163,8.423,9.155c0.13-0.419,0.26-0.837,0.399-1.284c-0.353-0.264-0.711-0.529-1.07-0.796
				C7.757,7.056,7.762,7.036,7.768,7.017z"/>
			<path style="fill-rule:evenodd;clip-rule:evenodd;fill:#FFFEFE;" d="M26.397,5.657c0.165,0.485,0.309,0.91,0.458,1.348
				c0.446,0,0.884,0,1.365,0c-0.149,0.227-0.361,0.316-0.529,0.453c-0.17,0.139-0.352,0.264-0.549,0.41
				c0.131,0.425,0.262,0.849,0.394,1.272c-0.014,0.015-0.028,0.029-0.042,0.043c-0.358-0.255-0.716-0.508-1.096-0.778
				c-0.362,0.257-0.725,0.515-1.117,0.793c0.007-0.264,0.11-0.459,0.169-0.665c0.061-0.211,0.129-0.419,0.205-0.662
				c-0.352-0.261-0.708-0.526-1.066-0.793c0.003-0.017,0.007-0.033,0.01-0.05c0.441,0,0.883,0,1.333,0
				C26.084,6.576,26.228,6.154,26.397,5.657z"/>
			<path style="fill-rule:evenodd;clip-rule:evenodd;fill:#FFFEFE;" d="M22.65,3.405c0.447,0,0.884,0,1.321,0
				C23.981,3.423,23.991,3.441,24,3.46c-0.335,0.281-0.708,0.52-1.065,0.806c0.133,0.43,0.263,0.854,0.395,1.279
				c-0.014,0.011-0.028,0.021-0.042,0.031C22.925,5.32,22.563,5.064,22.188,4.8c-0.369,0.262-0.733,0.521-1.099,0.78
				c-0.015-0.008-0.03-0.016-0.045-0.023c0.13-0.42,0.26-0.839,0.4-1.292c-0.349-0.26-0.706-0.526-1.063-0.792
				c0.004-0.018,0.007-0.034,0.011-0.053c0.441,0,0.883,0,1.329,0c0.155-0.453,0.299-0.877,0.466-1.365
				C22.354,2.541,22.5,2.965,22.65,3.405z"/>
			<path style="fill-rule:evenodd;clip-rule:evenodd;fill:#FFFEFE;" d="M48.518,12.812c-0.334-0.301-0.718-0.529-1.081-0.796
				c-0.378,0.264-0.744,0.52-1.111,0.773l0.007-0.004c-0.056-0.092,0.006-0.172,0.03-0.254c0.105-0.344,0.214-0.686,0.327-1.05
				c-0.355-0.268-0.711-0.534-1.065-0.802c0.005-0.017,0.009-0.034,0.013-0.051c0.442,0,0.885,0,1.334,0
				c0.152-0.451,0.297-0.876,0.461-1.361c0.166,0.481,0.313,0.909,0.465,1.351c0.446,0,0.883,0,1.32,0
				c0.009,0.019,0.019,0.036,0.027,0.055c-0.338,0.28-0.705,0.522-1.065,0.806c0.11,0.354,0.222,0.703,0.329,1.055
				c0.026,0.089,0.098,0.182,0.008,0.277L48.518,12.812z"/>
			<path style="fill-rule:evenodd;clip-rule:evenodd;fill:#FFFEFE;" d="M44.312,9.202c-0.338-0.294-0.72-0.528-1.089-0.796
				c-0.371,0.266-0.735,0.524-1.1,0.784l0.008-0.005c-0.063-0.089-0.005-0.17,0.02-0.252c0.107-0.343,0.215-0.685,0.334-1.061
				c-0.352-0.263-0.709-0.529-1.066-0.796c0.002-0.016,0.006-0.032,0.01-0.049c0.441,0,0.882,0,1.332,0
				c0.154-0.452,0.299-0.875,0.465-1.366c0.166,0.482,0.313,0.907,0.463,1.346c0.443,0,0.881,0,1.364,0
				c-0.155,0.225-0.366,0.316-0.536,0.454s-0.35,0.264-0.545,0.407c0.11,0.354,0.221,0.704,0.328,1.055
				c0.027,0.089,0.1,0.181,0.01,0.276L44.312,9.202z"/>
			<path style="fill-rule:evenodd;clip-rule:evenodd;fill:#FFFEFE;" d="M46.328,5.576c-0.051-0.093,0.008-0.173,0.033-0.257
				c0.106-0.343,0.215-0.686,0.33-1.055C46.336,4,45.979,3.734,45.622,3.47c0.005-0.017,0.011-0.033,0.017-0.05
				c0.434,0,0.867,0,1.313,0c0.198-0.434,0.293-0.886,0.486-1.354c0.158,0.463,0.303,0.885,0.457,1.338c0.439,0,0.884,0,1.326,0
				c0.008,0.021,0.016,0.042,0.022,0.063c-0.347,0.26-0.692,0.52-1.062,0.797c0.128,0.418,0.258,0.843,0.389,1.267
				c-0.016,0.013-0.031,0.025-0.045,0.037c-0.362-0.254-0.725-0.507-1.091-0.765c-0.376,0.264-0.744,0.521-1.112,0.778L46.328,5.576
				z"/>
			<path style="fill-rule:evenodd;clip-rule:evenodd;fill:#FFFEFE;" d="M29.521,5.591c-0.09-0.098-0.014-0.188,0.013-0.277
				c0.104-0.343,0.213-0.685,0.326-1.047c-0.356-0.268-0.711-0.533-1.065-0.799c0.006-0.017,0.012-0.034,0.018-0.05
				c0.435,0,0.869,0,1.325,0c0.153-0.448,0.3-0.879,0.467-1.366c0.162,0.479,0.306,0.901,0.46,1.354c0.443,0,0.886,0,1.329,0
				c0.008,0.021,0.016,0.043,0.023,0.064c-0.355,0.264-0.71,0.526-1.069,0.792c0.139,0.445,0.27,0.87,0.423,1.364
				c-0.423-0.301-0.788-0.559-1.166-0.825c-0.368,0.263-0.743,0.507-1.089,0.793L29.521,5.591z"/>
			<path style="fill-rule:evenodd;clip-rule:evenodd;fill:#FFFEFE;" d="M40.108,5.594c-0.344-0.287-0.72-0.528-1.094-0.794
				c-0.37,0.266-0.733,0.526-1.098,0.787l0.008-0.004c-0.066-0.09-0.007-0.17,0.019-0.252c0.107-0.352,0.218-0.701,0.331-1.065
				c-0.358-0.269-0.71-0.531-1.095-0.818c0.259-0.067,0.482-0.029,0.703-0.037c0.219-0.008,0.438-0.001,0.673-0.001
				c0.151-0.442,0.298-0.87,0.464-1.355c0.164,0.481,0.309,0.905,0.458,1.345c0.443,0,0.881,0,1.362,0
				c-0.148,0.229-0.361,0.318-0.53,0.455c-0.169,0.139-0.351,0.264-0.546,0.408c0.109,0.353,0.221,0.701,0.326,1.053
				c0.027,0.089,0.102,0.18,0.014,0.277L40.108,5.594z"/>
			<polygon style="fill-rule:evenodd;clip-rule:evenodd;fill:#FFFEFE;" points="42.125,16.397 42.119,16.393 42.133,16.396 			"/>
			<path style="fill-rule:evenodd;clip-rule:evenodd;fill:#FFFEFE;" d="M33.721,16.41c-0.008-0.007-0.018-0.013-0.027-0.019
				c0.01,0.006,0.021,0.012,0.031,0.019C33.726,16.41,33.721,16.41,33.721,16.41z"/>
			<path style="fill-rule:evenodd;clip-rule:evenodd;fill:#FFFEFE;" d="M16.896,23.63c-0.016-0.011-0.032-0.02-0.049-0.03
				c0.045-0.032,0.041,0.009,0.049,0.033C16.896,23.634,16.896,23.63,16.896,23.63z"/>
			<path style="fill-rule:evenodd;clip-rule:evenodd;fill:#FFFEFE;" d="M25.307,23.621c-0.016-0.003-0.031-0.007-0.047-0.012
				c0.03-0.036,0.038-0.007,0.049,0.016C25.309,23.626,25.307,23.621,25.307,23.621z"/>
			<path style="fill-rule:evenodd;clip-rule:evenodd;fill:#FFFEFE;" d="M33.715,23.613c-0.01-0.004-0.02-0.009-0.012-0.005
				c-0.007-0.004,0.004,0.002,0.016,0.009C33.719,23.618,33.715,23.613,33.715,23.613z"/>
			<path style="fill-rule:evenodd;clip-rule:evenodd;fill:#FFFEFE;" d="M42.121,23.601c-0.006,0.002-0.013,0.003-0.019,0.005
				c0.008,0,0.015,0,0.022,0C42.126,23.606,42.121,23.601,42.121,23.601z"/>
			<path style="fill-rule:evenodd;clip-rule:evenodd;fill:#FFFEFE;" d="M44.314,23.627c0.011-0.021,0.018-0.052,0.049-0.021
				c-0.016,0.005-0.03,0.01-0.046,0.016C44.316,23.623,44.314,23.627,44.314,23.627z"/>
			<path style="fill-rule:evenodd;clip-rule:evenodd;fill:#FFFEFE;" d="M25.312,16.416c-0.012-0.008-0.024-0.017-0.035-0.023
				c0,0,0-0.001,0-0.001c0.012,0.008,0.024,0.016,0.037,0.024C25.314,16.416,25.312,16.416,25.312,16.416z"/>
			<path style="fill-rule:evenodd;clip-rule:evenodd;fill:#FFFEFE;" d="M16.897,16.422c-0.017-0.009-0.032-0.017-0.05-0.025
				C16.89,16.358,16.883,16.41,16.897,16.422C16.898,16.423,16.897,16.422,16.897,16.422z"/>
			<path style="fill-rule:evenodd;clip-rule:evenodd;fill:#FFFEFE;" d="M48.516,12.811c0.012-0.008,0.022-0.016,0.035-0.023
				c-0.012,0.008-0.022,0.017-0.033,0.024L48.516,12.811z"/>
			<polygon style="fill-rule:evenodd;clip-rule:evenodd;fill:#FFFEFE;" points="46.325,12.789 46.316,12.786 46.332,12.785 			"/>
			<path style="fill-rule:evenodd;clip-rule:evenodd;fill:#FFFEFE;" d="M40.103,12.807c0.011-0.006,0.021-0.012,0.024-0.014
				c-0.004,0.002-0.012,0.008-0.021,0.015L40.103,12.807z"/>
			<polygon style="fill-rule:evenodd;clip-rule:evenodd;fill:#FFFEFE;" points="37.922,12.797 37.916,12.791 37.929,12.793 			"/>
			<polygon style="fill-rule:evenodd;clip-rule:evenodd;fill:#FFFEFE;" points="6.493,27.193 6.494,27.2 6.489,27.188 			"/>
			<path style="fill-rule:evenodd;clip-rule:evenodd;fill:#FFFEFE;" d="M21.1,27.228c-0.016-0.006-0.031-0.013-0.048-0.02
				c0.035-0.031,0.042-0.006,0.049,0.024L21.1,27.228z"/>
			<path style="fill-rule:evenodd;clip-rule:evenodd;fill:#FFFEFE;" d="M29.509,27.218c-0.012-0.004-0.023-0.009-0.037-0.013
				c0.019-0.012,0.032-0.006,0.039,0.018C29.512,27.224,29.509,27.218,29.509,27.218z"/>
			<path style="fill-rule:evenodd;clip-rule:evenodd;fill:#FFFEFE;" d="M37.916,27.207c-0.008,0.002-0.016,0.004-0.023,0.006
				c0.009-0.001,0.018-0.001,0.027-0.001C37.92,27.213,37.916,27.207,37.916,27.207z"/>
			<polygon style="fill-rule:evenodd;clip-rule:evenodd;fill:#FFFEFE;" points="46.322,27.199 46.31,27.204 46.326,27.202 			"/>
			<path style="fill-rule:evenodd;clip-rule:evenodd;fill:#FFFEFE;" d="M29.518,12.806c-0.009-0.006-0.016-0.013-0.017-0.014
				c0.001,0.001,0.01,0.007,0.02,0.013L29.518,12.806z"/>
			<path style="fill-rule:evenodd;clip-rule:evenodd;fill:#FFFEFE;" d="M14.894,27.195l0.003-0.003L14.894,27.195z"/>
			<path style="fill-rule:evenodd;clip-rule:evenodd;fill:#FFFEFE;" d="M44.309,9.2c0.001,0.001,0.002,0.001,0.003,0.002L44.309,9.2
				z"/>
			<polygon style="fill-rule:evenodd;clip-rule:evenodd;fill:#FFFEFE;" points="42.123,9.19 42.117,9.184 42.131,9.186 			"/>
			<path style="fill-rule:evenodd;clip-rule:evenodd;fill:#FFFEFE;" d="M33.723,9.198c-0.006-0.003-0.01-0.007-0.016-0.01
				c0.006,0.003,0.013,0.005,0.02,0.008L33.723,9.198z"/>
			<polygon style="fill-rule:evenodd;clip-rule:evenodd;fill:#FFFEFE;" points="46.324,19.994 46.316,19.994 46.33,19.996 			"/>
			<path style="fill-rule:evenodd;clip-rule:evenodd;fill:#FFFEFE;" d="M48.519,20.026c0.014-0.016,0.012-0.061,0.051-0.024
				c-0.017,0.006-0.032,0.013-0.048,0.021C48.521,20.023,48.519,20.026,48.519,20.026z"/>
			<polygon style="fill-rule:evenodd;clip-rule:evenodd;fill:#FFFEFE;" points="10.697,30.796 10.698,30.804 10.695,30.791 			"/>
			<path style="fill-rule:evenodd;clip-rule:evenodd;fill:#FFFEFE;" d="M16.892,30.829c-0.016-0.007-0.032-0.013-0.048-0.019
				c0.035-0.031,0.044-0.01,0.049,0.023C16.893,30.835,16.892,30.829,16.892,30.829z"/>
			<path style="fill-rule:evenodd;clip-rule:evenodd;fill:#FFFEFE;" d="M25.301,30.82c-0.015-0.001-0.029-0.003-0.045-0.004
				c0.023-0.029,0.038-0.023,0.047,0.01C25.304,30.827,25.301,30.82,25.301,30.82z"/>
			<path style="fill-rule:evenodd;clip-rule:evenodd;fill:#FFFEFE;" d="M33.711,30.813c-0.012-0.001-0.021-0.001-0.016-0.001
				c-0.004,0,0.008,0.003,0.02,0.007C33.715,30.82,33.711,30.813,33.711,30.813z"/>
			<path style="fill-rule:evenodd;clip-rule:evenodd;fill:#FFFEFE;" d="M42.115,30.804c-0.029,0.026,0.023,0.017-0.017,0.015
				c0.007-0.003,0.015-0.006,0.021-0.009C42.12,30.811,42.115,30.804,42.115,30.804z"/>
			<polygon style="fill-rule:evenodd;clip-rule:evenodd;fill:#FFFEFE;" points="46.322,5.581 46.314,5.577 46.329,5.576 			"/>
			<path style="fill-rule:evenodd;clip-rule:evenodd;fill:#FFFEFE;" d="M40.106,20.021c0.013-0.009,0.025-0.018,0.02-0.014
				c0.008-0.004-0.004,0.003-0.016,0.01C40.109,20.018,40.106,20.021,40.106,20.021z"/>
			<polygon style="fill-rule:evenodd;clip-rule:evenodd;fill:#FFFEFE;" points="40.104,5.592 40.115,5.585 40.108,5.594 			"/>
			<polygon style="fill-rule:evenodd;clip-rule:evenodd;fill:#FFFEFE;" points="37.917,5.587 37.912,5.579 37.925,5.582 			"/>
			<polygon style="fill-rule:evenodd;clip-rule:evenodd;fill:#FFFEFE;" points="29.516,5.594 29.508,5.584 29.521,5.591 			"/>
			<path style="fill-rule:evenodd;clip-rule:evenodd;fill:#FFFEFE;" d="M37.922,20.008c-0.006-0.002-0.013-0.005-0.02-0.007
				c0.008,0.003,0.016,0.006,0.024,0.009C37.928,20.01,37.922,20.008,37.922,20.008z"/>
			<path style="fill-rule:evenodd;clip-rule:evenodd;fill:#FFFEFE;" d="M29.514,20.016c-0.011-0.006-0.021-0.013,0.021,0.014
				c-0.041-0.026-0.029-0.02-0.018-0.012C29.518,20.019,29.514,20.016,29.514,20.016z"/>
			<polygon style="fill-rule:evenodd;clip-rule:evenodd;fill:#FFFEFE;" points="14.902,34.398 14.903,34.411 14.906,34.393 			"/>
			<path style="fill-rule:evenodd;clip-rule:evenodd;fill:#FFFEFE;" d="M21.095,34.426c-0.015-0.002-0.029-0.004-0.045-0.007
				c0.025-0.028,0.04-0.021,0.047,0.013C21.098,34.433,21.095,34.426,21.095,34.426z"/>
			<path style="fill-rule:evenodd;clip-rule:evenodd;fill:#FFFEFE;" d="M29.503,34.417c-0.012,0.001-0.024,0.002-0.039,0.003
				c0.018-0.022,0.031-0.021,0.042,0.004L29.503,34.417z"/>
			<path style="fill-rule:evenodd;clip-rule:evenodd;fill:#FFFEFE;" d="M37.91,34.409c-0.006,0.006-0.013,0.011-0.02,0.015
				c-0.006-0.015,0.002-0.018,0.023-0.009C37.915,34.416,37.91,34.409,37.91,34.409z"/>
			<path style="fill-rule:evenodd;clip-rule:evenodd;fill:#FFFEFE;" d="M48.527,34.43c0.008-0.036,0.024-0.034,0.051-0.009
				c-0.02,0-0.033,0-0.048,0.001L48.527,34.43z"/>
			<path style="fill-rule:evenodd;clip-rule:evenodd;fill:#FFFEFE;" d="M21.103,20.024c-0.015-0.007-0.031-0.014-0.048-0.021
				c0.038-0.039,0.036,0.008,0.05,0.021C21.105,20.026,21.103,20.024,21.103,20.024z"/>
			<path style="fill-rule:evenodd;clip-rule:evenodd;fill:#FFFEFE;" d="M44.31,16.416c0.013-0.009,0.024-0.017,0.078-0.054
				c-0.052,0.037-0.063,0.045-0.075,0.054H44.31z"/>
			<path style="fill-rule:evenodd;clip-rule:evenodd;fill:#FFFEFE;" d="M48.523,27.232c0.004-0.032,0.014-0.05,0.051-0.029
				c-0.019,0.008-0.033,0.014-0.049,0.021C48.525,27.227,48.523,27.232,48.523,27.232z"/>
		</g>
	</g>
</g>
</svg>
