<?xml version="1.0" encoding="iso-8859-1"?>
<!-- Generator: Adobe Illustrator 16.0.0, SVG Export Plug-In . SVG Version: 6.00 Build 0)  -->
<!DOCTYPE svg PUBLIC "-//W3C//DTD SVG 1.1//EN" "http://www.w3.org/Graphics/SVG/1.1/DTD/svg11.dtd">
<svg version="1.1" id="Layer_1" xmlns="http://www.w3.org/2000/svg" xmlns:xlink="http://www.w3.org/1999/xlink" x="0px" y="0px"
	 width="64px" height="64px" viewBox="0 0 64 64" style="enable-background:new 0 0 64 64;" xml:space="preserve">
<g>
	<defs>
		<path id="SVGID_21_" d="M-20,55c0,4.971-4.029,9-9,9h-46c-4.971,0-9-4.029-9-9V9c0-4.97,4.029-9,9-9h46c4.971,0,9,4.03,9,9V55z"/>
	</defs>
	<clipPath id="SVGID_2_">
		<use xlink:href="#SVGID_21_"  style="overflow:visible;"/>
	</clipPath>
	<g style="clip-path:url(#SVGID_2_);">
		<g>
			<path style="fill-rule:evenodd;clip-rule:evenodd;fill:#B22234;" d="M-33.523,6.459c-0.033-0.615-0.02-7.319,0.018-7.578
				c17.123,0,34.249,0,51.374,0c0.056,0.222,0.077,6.979,0.024,7.578C0.762,6.459-16.371,6.459-33.523,6.459z"/>
			<path style="fill-rule:evenodd;clip-rule:evenodd;fill:#B22234;" d="M-33.521,35.242c0-1.564,0-3.104,0-4.659
				c17.139,0,34.264,0,51.412,0c0,1.547,0,3.092,0,4.659C0.762,35.242-16.371,35.242-33.521,35.242z"/>
			<path style="fill-rule:evenodd;clip-rule:evenodd;fill:#B22234;" d="M-33.506,20.958c17.137,0,34.254,0,51.369,0
				c0.063,0.227,0.087,3.956,0.031,4.666c-17.131,0-34.264,0-51.396,0C-33.543,25.383-33.551,21.286-33.506,20.958z"/>
			<path style="fill-rule:evenodd;clip-rule:evenodd;fill:#B22234;" d="M-33.523,16.01c0-1.563,0-3.103,0-4.659
				c17.139,0,34.266,0,51.414,0c0,1.547,0,3.092,0,4.659C0.763,16.01-16.37,16.01-33.523,16.01z"/>
			<path style="fill-rule:evenodd;clip-rule:evenodd;fill:#B22234;" d="M-85.976,54.479c0-1.564,0-3.111,0-4.67
				c33.328,0,70.636,0,103.965,0c0,1.557,0,3.103,0,4.65C17.773,54.517-85.429,54.54-85.976,54.479z"/>
			<path style="fill-rule:evenodd;clip-rule:evenodd;fill:#B22234;" d="M18,59.359c0,1.567,0,6.025,0,7.562
				c-0.231,0.061-103.426,0.085-103.948,0.026c-0.062-0.219-0.069-7.314-0.005-7.588C-52.647,59.359-15.34,59.359,18,59.359z"/>
			<path style="fill-rule:evenodd;clip-rule:evenodd;fill:#B22234;" d="M17.99,40.202c0.029,0.299,0.026,4.38-0.005,4.666
				c-33.31,0-70.624,0-103.959,0c0-1.555,0-3.101,0-4.666C-52.656,40.202-15.344,40.202,17.99,40.202z"/>
		</g>
	</g>
</g>
<g>
	<path style="fill-rule:evenodd;clip-rule:evenodd;fill:#FFFFFF;" d="M13.042,50.273c0-0.328,0-0.561,0-0.793
		c-0.001-4.166,0.005-8.332-0.005-12.497c-0.006-2.287-0.03-4.573-0.063-6.859c-0.009-0.622,0.053-1.149,0.741-1.422
		c0.177-0.069,0.318-0.378,0.361-0.599c0.066-0.341,0.043-0.701,0.043-1.053c0.004-7.96,0.005-15.92,0.007-23.879
		c0-0.225,0-0.449,0-0.78c0.236,0.168,0.378,0.258,0.509,0.361c3.526,2.792,7.048,5.59,10.582,8.372
		c0.323,0.255,0.455,0.512,0.455,0.928c-0.013,12.36-0.011,24.721-0.012,37.081c0,0.192,0,0.386,0,0.643
		c-0.267,0.013-0.492,0.032-0.718,0.032c-2.659,0.002-5.319-0.002-7.979,0.002c-0.254,0-0.568-0.1-0.639,0.318
		c-0.01,0.063-0.185,0.138-0.283,0.139C15.067,50.277,14.095,50.273,13.042,50.273z"/>
	<path style="fill-rule:evenodd;clip-rule:evenodd;fill:#FFFFFF;" d="M37.039,11.275c0,0.262,0,0.436,0,0.609
		c-0.001,6.961,0.002,13.921-0.02,20.881c-0.001,0.313-0.157,0.68-0.36,0.922c-0.282,0.337-0.412,0.659-0.41,1.101
		c0.014,4.36-0.014,8.72,0.017,13.08c0.017,2.458,0.12,4.916,0.181,7.375c0.006,0.227-0.019,0.455-0.033,0.784
		c-0.265-0.165-0.461-0.276-0.646-0.404c-2.569-1.782-5.135-3.571-7.708-5.349c-0.32-0.222-0.458-0.474-0.457-0.874
		c0.009-12.493,0.006-24.986,0.005-37.48c0-0.191,0-0.382,0-0.645C30.763,11.275,33.859,11.275,37.039,11.275z"/>
	<path style="fill-rule:evenodd;clip-rule:evenodd;fill:#FFFFFF;" d="M51.907,0.007c0.017,0.223,0.038,0.375,0.038,0.526
		c0.002,2.933-0.011,5.865,0.012,8.798c0.005,0.568-0.199,0.756-0.744,0.755c-4.105-0.011-8.222,0.175-12.314-0.058
		c-3.871-0.22-7.733-0.042-11.597-0.173c-0.313-0.011-0.681-0.104-0.919-0.291C22.681,6.65,18.996,3.714,15.31,0.781
		c-0.041-0.032-0.064-0.087-0.16-0.222c0.293,0,0.516-0.001,0.738,0C25.858,0.572,35.829,0.589,45.8,0.585
		c0.449-0.001,0.898-0.189,1.347-0.295c0.394-0.092,0.784-0.258,1.18-0.27C49.496-0.017,50.668,0.007,51.907,0.007z"/>
	<path style="fill-rule:evenodd;clip-rule:evenodd;fill:#FFFFFF;" d="M31.697,63.899c-0.262,0-0.452,0-0.725,0
		c0-0.839,0-1.666,0-2.528c-1.005,0-1.93,0-2.927,0c0,0.865,0,1.698,0,2.579c-0.27,0-0.466,0-0.727,0c0-1.59-0.025-3.149,0.03-4.707
		c0.008-0.211,0.41-0.566,0.648-0.583c0.992-0.068,1.991-0.047,2.987-0.026c0.384,0.008,0.702,0.207,0.706,0.638
		C31.706,60.792,31.697,62.313,31.697,63.899z M28.091,59.345c0,0.453,0,0.814,0,1.204c0.951,0,1.878,0,2.808,0
		c0-0.41,0-0.786,0-1.204C29.95,59.345,29.058,59.345,28.091,59.345z"/>
	<path style="fill-rule:evenodd;clip-rule:evenodd;fill:#FFFFFF;" d="M36.776,63.939c0-1.525,0-3.022,0-4.579
		c-1.008,0-1.911,0-2.876,0c0,1.526,0,3.003,0,4.521c-0.266,0-0.47,0-0.713,0c-0.021-0.1-0.061-0.208-0.062-0.316
		c-0.002-1.367,0.015-2.734-0.004-4.102c-0.008-0.546,0.253-0.819,0.756-0.833c0.956-0.026,1.913-0.026,2.869-0.002
		c0.497,0.012,0.775,0.262,0.766,0.819c-0.021,1.327-0.02,2.656,0.006,3.983C37.527,63.897,37.322,64.009,36.776,63.939z"/>
	<path style="fill-rule:evenodd;clip-rule:evenodd;fill:#FFFFFF;" d="M25.869,58.643c0,0.226,0,0.411,0,0.659
		c-0.576,0-1.12,0.024-1.66-0.008c-0.422-0.025-0.531,0.14-0.528,0.538c0.011,1.21-0.021,2.42-0.021,3.63
		c0,0.468-0.175,0.656-0.701,0.463c0-1.493,0-3.009,0-4.604c-0.746,0-1.438,0-2.162,0c0-0.264,0-0.448,0-0.679
		C22.476,58.643,24.143,58.643,25.869,58.643z"/>
	<path style="fill-rule:evenodd;clip-rule:evenodd;fill:#FFFFFF;" d="M14.996,63.896c-0.295,0-0.483,0-0.739,0
		c0-1.5,0-2.991,0-4.569c-0.77,0-1.477,0-2.214,0c0-0.273,0-0.459,0-0.729c0.73,0,1.446,0,2.162,0c0.8,0,1.601,0.022,2.399-0.009
		c0.483-0.019,0.652,0.146,0.493,0.689c-0.662,0-1.352,0-2.102,0C14.996,60.847,14.996,62.339,14.996,63.896z"/>
	<path style="fill-rule:evenodd;clip-rule:evenodd;fill:#FFFFFF;" d="M18.622,58.626c0.23,0,0.42,0,0.667,0c0,1.744,0,3.483,0,5.26
		c-0.214,0-0.419,0-0.667,0C18.622,62.146,18.622,60.419,18.622,58.626z"/>
</g>
</svg>
