<?xml version="1.0" encoding="iso-8859-1"?>
<!-- Generator: Adobe Illustrator 16.0.0, SVG Export Plug-In . SVG Version: 6.00 Build 0)  -->
<!DOCTYPE svg PUBLIC "-//W3C//DTD SVG 1.1//EN" "http://www.w3.org/Graphics/SVG/1.1/DTD/svg11.dtd">
<svg version="1.1" id="Layer_1" xmlns="http://www.w3.org/2000/svg" xmlns:xlink="http://www.w3.org/1999/xlink" x="0px" y="0px"
	 width="64px" height="64px" viewBox="0 0 64 64" style="enable-background:new 0 0 64 64;" xml:space="preserve">
<g>
	<path style="fill-rule:evenodd;clip-rule:evenodd;fill:#64819A;" d="M49.866,63.492c-1.567,0.281-3.126,0.295-4.646-0.031
		c-0.447-1.07-0.401-2.125-0.358-3.166c0.065-1.566-0.141-3.104-0.431-4.631c-0.244-1.285-0.557-2.559-0.817-3.74
		c-0.501-0.527-0.882-1.021-1.638-1.143c-0.174,0.152-0.392,0.344-0.637,0.559c0.225,0.402,0.42,0.75,0.666,1.189
		c-0.435,0.381-0.882,0.773-1.396,1.223c-0.412-0.316-0.784-0.545-1.09-0.844c-1.122-1.094-2.228-2.203-3.327-3.32
		c-0.55-0.559-0.963-1.195-1.217-1.961c-0.713-2.145-1.27-4.316-1.604-6.559c-0.243-1.631-0.572-3.246-0.595-4.906
		c-0.005-0.389-0.14-0.775-0.085-1.215c1.049,1.381,2.102,2.76,3.144,4.146c1.338,1.781,2.679,3.561,3.995,5.355
		c1.438,1.961,2.852,3.938,4.27,5.912c0.527,0.732,0.725,1.605,0.911,2.455c0.337,1.541,0.641,3.096,0.835,4.66
		c0.166,1.34,0.16,2.701,0.229,4.053c0.014,0.266,0.025,0.531,0.041,0.854c0.51,0,0.972,0,1.453,0
		c0.313-0.637,0.384-1.328,0.352-2.043c-0.016-0.34-0.008-0.682-0.002-1.023c0.039-1.969-0.291-3.887-0.768-5.793
		c-0.425-1.699-0.744-3.432-1.486-5.027c-0.453-0.977-0.958-1.947-1.575-2.826c-1.534-2.182-3.14-4.313-4.728-6.455
		c-1.547-2.088-3.111-4.162-4.662-6.246c-0.34-0.457-0.659-0.928-1.01-1.424c-0.897,0.43-0.979,1.516-1.844,2.002
		c-0.695-0.475-0.841-1.496-1.713-1.969c-0.373,0.479-0.766,0.965-1.14,1.463c-1.601,2.133-3.207,4.26-4.788,6.406
		c-1.303,1.766-2.59,3.545-3.85,5.342c-0.659,0.938-1.277,1.908-1.857,2.898c-0.884,1.506-1.199,3.219-1.643,4.877
		c-0.328,1.23-0.632,2.48-0.785,3.742c-0.16,1.305-0.387,2.621-0.247,3.947c0.073,0.697,0.194,1.389,0.302,2.137
		c0.461,0,0.924,0,1.444,0c0.03-0.156,0.08-0.314,0.087-0.473c0.088-2.055,0.19-4.107,0.605-6.131
		c0.248-1.217,0.465-2.441,0.675-3.666c0.13-0.756,0.527-1.389,0.94-1.992c1.012-1.477,2.063-2.924,3.124-4.365
		c1.26-1.713,2.55-3.406,3.819-5.111c1.311-1.76,2.61-3.525,3.92-5.285c0.076-0.102,0.2-0.166,0.355-0.291
		c0.023,0.199,0.063,0.332,0.05,0.461c-0.112,1.035-0.222,2.072-0.359,3.104c-0.134,1-0.287,1.996-0.456,2.99
		c-0.357,2.092-0.851,4.148-1.557,6.154c-0.353,1-1.072,1.742-1.743,2.477c-1.116,1.221-2.382,2.305-3.53,3.393
		c-0.848-0.078-1.236-0.607-1.705-1.111c0.184-0.32,0.365-0.637,0.582-1.014c-0.082-0.131-0.147-0.352-0.293-0.436
		c-0.156-0.092-0.42-0.129-0.58-0.059c-0.46,0.199-0.891,0.465-1.229,0.645c-1.143,3.859-1.445,7.682-1.623,11.484
		c-0.374,0.369-0.765,0.514-1.233,0.508c-1.021-0.014-2.043-0.004-3.028-0.004c-0.777-0.4-0.762-1.158-0.794-1.787
		c-0.076-1.496-0.101-3.002,0-4.494c0.09-1.336,0.392-2.656,0.567-3.986c0.193-1.473,0.594-2.895,0.953-4.33
		c0.371-1.477,1.078-2.764,1.863-4.031c0.139-0.225,0.277-0.447,0.469-0.754c-0.332-0.016-0.576-0.08-0.792-0.029
		c-0.937,0.227-1.862,0.016-2.794,0.006c-2.005-0.025-3.764-0.66-5.313-1.914c-0.078-0.063-0.162-0.129-0.217-0.211
		c-0.164-0.248-0.316-0.506-0.54-0.867c1.759-0.406,3.44-0.795,5.347-1.234c-0.408-0.232-0.619-0.363-0.84-0.479
		c-0.932-0.48-1.924-0.869-2.783-1.455c-1.338-0.914-2.393-2.104-2.823-3.732c-0.034-0.131-0.052-0.266-0.063-0.398
		c-0.005-0.064,0.023-0.133,0.06-0.311c1.345-0.107,2.73,0.014,4.297-0.078c-0.809-0.533-1.461-0.973-2.124-1.396
		c-0.713-0.457-1.142-1.145-1.537-1.857c-0.393-0.711-0.688-1.451-0.694-2.387c1.472,0.633,2.863,1.264,4.525,1.578
		c-1.72-1.914-2.218-4.088-2.285-6.457c1.064,0.689,2.051,1.328,3.033,1.965c0.32-0.24,0.252-0.502,0.157-0.754
		c-0.532-1.424-0.577-2.908-0.532-4.4c0.02-0.676,0.298-1.518,0.646-2.002c0.77,0.654,1.537,1.307,2.398,2.039
		c0-0.586,0.094-1.107-0.02-1.576c-0.246-1.016-0.135-1.99-0.009-3.008c0.112-0.906,0.153-1.813,0.462-2.68
		c0.031-0.088,0.09-0.166,0.174-0.32c0.666,0.41,1.309,0.807,2.066,1.271c-0.025-2.369-0.088-4.613,1.368-6.627
		c0.472,0.516,0.892,0.977,1.405,1.541c0.123-0.277,0.26-0.459,0.283-0.654c0.18-1.453,0.676-2.816,1.19-4.17
		c0.468-1.234,1.301-2.215,2.361-3.113c0.382-0.004,0.765-0.457,1.337-0.156c-0.055,0.146-0.092,0.301-0.162,0.438
		c-1.311,2.57-2.699,5.104-3.916,7.717c-1.227,2.631-2.31,5.328-3.301,8.064c-1.012,2.795-1.815,5.643-2.545,8.516
		c-0.329,1.297-0.447,2.648-0.688,3.971c-0.297,1.635-0.434,3.277-0.408,4.939c0.021,1.262,0.262,2.486,0.659,3.666
		c0.503,1.492,2.106,2.955,3.913,2.596c0.727-0.451,0.982-1.111,0.973-1.975c-0.015-1.256-0.126-2.484-0.372-3.719
		c-0.138-0.689-0.235-1.471,0.191-2.236c1.605,0.469,3.001,1.246,4.248,2.24c0.485-0.012,0.71-0.35,0.919-0.637
		c0.773-1.066,1.504-2.162,2.266-3.234c0.352-0.494,0.738-0.961,1.158-1.506c-0.648-1.459-1.305-2.939-1.885-4.246
		c0-0.979-0.016-1.787,0.003-2.594c0.061-2.545,0.116-5.088,0.214-7.631c0.031-0.838,0.182-1.672,0.272-2.463
		c0.294-0.342,0.577-0.672,0.927-1.08c0.169,0.285,0.324,0.465,0.39,0.672c0.653,2.092,1.289,4.189,1.935,6.283
		c0.347,1.129,0.701,2.254,1.018,3.27c-0.33,0.436-0.633,0.834-1.021,1.348c-0.127,0.977-0.127,0.977,0.262,1.811
		c0.283,0.189,0.591,0.395,0.82,0.549c1.465,0.262,2.541-0.051,2.914-1.695c-0.07-0.729-0.43-1.416-1.234-1.861
		c1.078-3.441,2.144-6.844,3.228-10.305c0.288,0.139,0.525,0.252,0.874,0.42c0.136,0.525,0.396,1.102,0.418,1.688
		c0.109,2.984,0.143,5.973,0.234,8.959c0.025,0.805,0.164,1.605,0.236,2.289c-0.727,1.572-1.394,3.016-2.078,4.498
		c1.363,1.818,2.594,3.742,4.063,5.578c1.467-0.887,2.749-1.912,4.393-2.328c0.151,0.143,0.322,0.299,0.559,0.52
		c-0.086,0.703-0.084,1.459-0.283,2.156c-0.363,1.264-0.393,2.533-0.335,3.871c0.161,0.322,0.344,0.684,0.509,1.012
		c1.086,0.58,2.39,0.352,3.38-0.557c0.785-0.721,1.159-1.676,1.384-2.666c0.223-0.979,0.318-1.99,0.417-2.994
		c0.038-0.393-0.063-0.801-0.105-1.203c-0.021-0.201-0.085-0.4-0.077-0.6c0.063-1.805-0.311-3.564-0.671-5.305
		c-0.656-3.162-1.448-6.301-2.583-9.334c-0.815-2.182-1.609-4.379-2.55-6.508c-1.218-2.76-2.562-5.465-3.874-8.182
		c-0.351-0.727-0.787-1.41-1.176-2.098c0.272-0.322,0.531-0.25,0.785-0.152c1.111,0.426,1.801,1.289,2.35,2.293
		c0.95,1.738,1.484,3.613,1.805,5.559c0.01,0.061,0.064,0.115,0.121,0.209c0.713-0.15,0.722-1.043,1.422-1.32
		c0.582,0.342,0.708,1.053,1.002,1.627c0.178,0.348,0.247,0.773,0.281,1.17c0.098,1.111,0.15,2.225,0.224,3.338
		c0.004,0.064,0.039,0.125,0.077,0.242c0.693-0.201,1.167-0.746,1.786-1.172c0.137,0.176,0.31,0.309,0.356,0.475
		c0.229,0.811,0.445,1.623,0.436,2.479c-0.016,1.496-0.004,2.992-0.004,4.621c0.939-0.639,1.47-1.613,2.541-2
		c0.861,2.369,0.448,4.678-0.275,7.08c1.282-0.219,2.059-1.277,3.234-1.74c0.127,2.336-0.43,4.377-2.049,6.096
		c0.729,0.109,1.433-0.121,4.238-1.361c0.229,0.846,0.023,1.619-0.413,2.295c-0.664,1.029-1.46,1.955-2.581,2.541
		c-0.323,0.17-0.611,0.406-1.057,0.707c0.572,0.17,1.026,0.084,1.465,0.1c0.441,0.016,0.885,0.004,1.328,0.004
		c0.472,0,0.943,0,1.501,0c-0.261,1.691-1.027,2.998-2.27,3.996c-1.19,0.959-2.497,1.742-3.993,2.156
		c-0.076,0.021-0.134,0.115-0.285,0.252c1.805,0.426,3.52,0.83,5.289,1.248c-0.359,0.811-0.957,1.387-1.695,1.801
		c-1.38,0.771-2.864,1.186-4.457,1.18c-0.301-0.002-0.603,0.07-0.904,0.082c-0.361,0.014-0.723,0.012-1.084-0.004
		c-0.43-0.02-0.857-0.061-1.342-0.096c0.025,0.727,0.467,1.152,0.768,1.596c0.84,1.232,1.227,2.643,1.598,4.035
		c0.448,1.684,0.771,3.408,1.033,5.131c0.363,2.393,0.232,4.811,0.214,7.221C50.148,62.578,49.995,62.938,49.866,63.492z
		 M29.604,38.008c-0.601,1.32-0.927,2.574-1.355,3.859c0.361,0.115,0.659,0.211,1.021,0.326c0.432-1.279,0.84-2.484,1.27-3.752
		C30.261,38.313,30,38.191,29.604,38.008z M33.293,38.463c0.434,1.316,0.828,2.512,1.233,3.742c0.337-0.121,0.613-0.221,0.962-0.348
		c-0.265-1.307-0.775-2.496-1.199-3.803C33.966,38.188,33.699,38.295,33.293,38.463z"/>
	<path style="fill-rule:evenodd;clip-rule:evenodd;fill:#64819A;" d="M10.299,22.479c-0.89-0.707-1.6-1.27-2.35-1.865
		c-0.537,1.09-0.227,2.25-0.308,3.367c-0.084,1.166,0.177,2.281,0.548,3.484c-1.054-0.418-2.057-0.816-3.074-1.221
		c-0.373,2.037,0.383,4.316,2.089,6.307c-0.821,0.029-1.573,0.055-2.396,0.082c0.102,3.035,1.789,5.051,4.006,6.848
		c-1.23,0.326-2.414,0.643-3.609,0.961c0.019,0.775,0.48,1.266,0.891,1.725c1.643,1.842,3.701,2.895,6.178,3.109
		c0.868,0.076,1.734,0.191,2.619,0.291c-0.594,1.768-1.32,3.488-2.016,5.197c-1.607-1.055-3.135-2.041-4.643-3.057
		c-1.49-1.004-3.136-1.646-4.965-1.99c0.59-1.301,1.799-1.273,2.725-1.83c-0.33-0.449-0.852-0.619-1.281-0.877
		c-1.082-0.65-2.116-1.357-2.949-2.307c-0.733-0.836-1.41-1.725-1.67-2.975c1.419-0.051,2.803,0.004,4.322-0.037
		c-0.203-0.193-0.282-0.301-0.389-0.367C2.67,36.496,1.6,35.391,0.781,34.029c-0.662-1.1-0.977-2.252-0.654-3.564
		c1.324,0.176,2.577,0.725,4.033,0.701c-1.975-2.332-2.882-4.891-2.607-7.91c1.345,0.438,2.644,0.861,4.086,1.332
		c-0.197-0.436-0.298-0.791-0.499-1.074c-0.502-0.705-0.734-1.52-0.925-2.33c-0.198-0.852-0.313-1.727-0.258-2.617
		c0.039-0.654,0.248-1.244,0.455-1.879c0.963,0.85,1.867,1.648,2.907,2.566c-0.097-3.035-0.05-5.857,1.37-8.586
		c1.081,0.994,1.615,2.244,2.488,3.436c0.07-0.338,0.137-0.518,0.141-0.697c0.013-0.646,0.008-1.295,0.005-1.941
		c-0.005-1.574,0.368-3.074,0.893-4.541c0.115-0.32,0.385-0.588,0.623-0.938c0.544,0.832,1.017,1.555,1.589,2.43
		c0.152-0.629,0.293-1.066,0.361-1.514c0.162-1.08,0.566-2.074,0.999-3.068c0.312-0.713,0.827-1.219,1.519-1.768
		c0.217,0.658,0.408,1.242,0.638,1.943c0.886-1.301,1.583-2.639,3.096-3.354c0,0.273,0.071,0.502-0.013,0.615
		c-0.313,0.426-0.442,0.898-0.512,1.408c-0.031,0.229-0.115,0.453-0.197,0.672c-0.319,0.85-0.646,1.695-0.985,2.578
		c-0.178-0.273-0.374-0.572-0.591-0.904c-0.619-0.053-0.85,0.436-1.104,0.855c-0.581,0.965-0.969,2.01-1.194,3.109
		c-0.107,0.527-0.142,1.066-0.227,1.598c-0.025,0.156-0.114,0.301-0.219,0.563c-0.473-0.439-0.882-0.818-1.314-1.223
		c-0.819,0.797-1.065,1.811-1.319,2.828c-0.325,1.301-0.145,2.629-0.231,4.039c-0.794-0.41-0.97-1.348-1.802-1.746
		c-0.201,0.404-0.463,0.799-0.6,1.232c-0.252,0.803-0.45,1.621-0.438,2.479C10.313,19.914,10.299,21.068,10.299,22.479z"/>
	<path style="fill-rule:evenodd;clip-rule:evenodd;fill:#64819A;" d="M49.035,45.566c0.951-0.102,1.851-0.232,2.754-0.287
		c1.315-0.078,2.521-0.535,3.643-1.141c1.51-0.816,2.705-2.006,3.516-3.662c-1.268-0.326-2.519-0.65-3.832-0.99
		c2.226-1.771,3.881-3.813,4.045-6.869c-0.828,0-1.592,0-2.529,0c1.802-1.84,2.364-3.924,2.32-6.34
		c-1.139,0.266-2.092,0.74-3.176,1.244c0.667-2.342,0.689-4.615,0.316-6.957c-0.821,0.641-1.557,1.215-2.448,1.912
		c0-1.467,0.036-2.721-0.011-3.971c-0.047-1.223-0.332-2.391-1.091-3.545c-0.591,0.656-1.117,1.238-1.767,1.959
		c0.025-1.996,0.106-3.834-0.607-5.563c-0.203-0.49-0.505-0.941-0.812-1.502c-0.51,0.467-0.921,0.844-1.395,1.277
		c-0.099-0.24-0.224-0.412-0.235-0.592c-0.109-1.611-0.572-3.111-1.339-4.527c-0.247-0.455-0.524-0.859-1.112-1.055
		C45.05,5.287,44.83,5.607,44.568,5.99c-0.195-0.631-0.374-1.191-0.541-1.756c-0.18-0.609-0.597-1.111-0.647-1.803
		c-0.042-0.551-0.368-1.082-0.483-1.67c1.498,0.592,2.201,1.918,3.087,3.252c0.23-0.689,0.425-1.268,0.641-1.914
		c1.032,0.65,1.574,1.566,1.903,2.615c0.359,1.148,0.66,2.316,1.006,3.541c0.663-0.619,0.988-1.482,1.578-2.277
		c0.231,0.34,0.494,0.59,0.587,0.893c0.274,0.898,0.472,1.82,0.72,2.727c0.32,1.17,0.159,2.361,0.203,3.543
		c0.01,0.262,0.04,0.523,0.076,0.973c0.963-1.152,1.455-2.443,2.476-3.377c0.655,0.711,0.921,1.588,1.065,2.42
		c0.267,1.521,0.342,3.078,0.455,4.625c0.029,0.41-0.095,0.83-0.166,1.381c1.219-0.654,1.994-1.602,2.954-2.514
		c0.594,1.377,0.565,2.686,0.323,4.07c-0.238,1.357-0.828,2.539-1.579,3.891c1.489-0.484,2.789-0.908,4.157-1.352
		c0.29,2.979-0.6,5.533-2.53,7.809c0.69,0.322,1.317-0.098,1.954-0.152c0.658-0.059,1.298-0.318,1.955-0.492
		c0.092,0.24,0.176,0.457,0.238,0.621c-0.065,0.514-0.125,0.98-0.211,1.666c-0.674,2.006-2.199,3.578-4.257,4.895
		c0.572,0.174,1.03,0.082,1.472,0.1c0.442,0.018,0.886,0.004,1.328,0.004c0.471,0,0.941,0,1.563,0
		c-0.186,0.512-0.277,0.934-0.481,1.295c-0.94,1.66-2.304,2.9-3.942,3.857c-0.514,0.301-1.018,0.619-1.586,0.967
		c0.938,0.604,2.135,0.596,2.725,1.686c-0.162,0.125-0.298,0.316-0.46,0.342c-1.996,0.311-3.679,1.313-5.32,2.398
		c-1.21,0.799-2.402,1.629-3.675,2.494c-0.563-0.697-0.713-1.648-1.102-2.479C49.652,47.414,49.381,46.502,49.035,45.566z"/>
	<path style="fill-rule:evenodd;clip-rule:evenodd;fill:#64819A;" d="M31.564,38.582c0.335,0,0.523,0,0.764,0
		c0,1.182,0,2.316,0,3.52c-0.194,0.029-0.406,0.059-0.674,0.096c-0.17-0.643-0.068-1.246-0.086-1.84
		C31.551,39.789,31.564,39.223,31.564,38.582z"/>
</g>
</svg>
