<?xml version="1.0" encoding="iso-8859-1"?>
<!-- Generator: Adobe Illustrator 16.0.0, SVG Export Plug-In . SVG Version: 6.00 Build 0)  -->
<!DOCTYPE svg PUBLIC "-//W3C//DTD SVG 1.1//EN" "http://www.w3.org/Graphics/SVG/1.1/DTD/svg11.dtd">
<svg version="1.1" id="Layer_1" xmlns="http://www.w3.org/2000/svg" xmlns:xlink="http://www.w3.org/1999/xlink" x="0px" y="0px"
	 width="64px" height="64px" viewBox="0 0 64 64" style="enable-background:new 0 0 64 64;" xml:space="preserve">
<g>
	<path style="fill-rule:evenodd;clip-rule:evenodd;fill:#F0AB23;" d="M49.867,63.491c-1.567,0.282-3.125,0.296-4.646-0.03
		c-0.446-1.071-0.401-2.125-0.358-3.166c0.065-1.566-0.141-3.104-0.43-4.631c-0.244-1.285-0.558-2.559-0.818-3.741
		c-0.5-0.526-0.882-1.021-1.637-1.142c-0.174,0.152-0.393,0.344-0.638,0.559c0.226,0.402,0.42,0.75,0.666,1.189
		c-0.435,0.381-0.882,0.772-1.395,1.223c-0.413-0.316-0.785-0.545-1.091-0.844c-1.121-1.094-2.228-2.204-3.327-3.321
		c-0.55-0.559-0.962-1.194-1.217-1.96c-0.713-2.145-1.27-4.316-1.604-6.559c-0.243-1.633-0.572-3.247-0.595-4.906
		c-0.005-0.389-0.14-0.775-0.085-1.216c1.049,1.382,2.102,2.761,3.144,4.147c1.338,1.781,2.679,3.559,3.996,5.355
		c1.438,1.961,2.851,3.938,4.27,5.912c0.526,0.732,0.725,1.605,0.91,2.455c0.337,1.541,0.641,3.096,0.835,4.66
		c0.166,1.34,0.16,2.7,0.229,4.051c0.014,0.267,0.024,0.533,0.04,0.855c0.51,0,0.972,0,1.453,0c0.313-0.637,0.384-1.329,0.352-2.044
		c-0.016-0.34-0.008-0.681-0.001-1.022c0.038-1.97-0.291-3.887-0.768-5.793c-0.426-1.699-0.745-3.432-1.486-5.028
		c-0.454-0.977-0.959-1.947-1.576-2.825c-1.534-2.182-3.14-4.313-4.728-6.455c-1.547-2.088-3.11-4.163-4.662-6.248
		c-0.34-0.455-0.659-0.927-1.01-1.422c-0.898,0.43-0.979,1.516-1.844,2.001c-0.695-0.475-0.841-1.496-1.713-1.968
		c-0.373,0.479-0.766,0.964-1.14,1.463c-1.601,2.133-3.206,4.26-4.788,6.406c-1.303,1.766-2.59,3.545-3.85,5.341
		c-0.659,0.938-1.277,1.909-1.857,2.898c-0.885,1.507-1.199,3.22-1.643,4.878c-0.328,1.23-0.632,2.48-0.785,3.742
		c-0.16,1.305-0.387,2.62-0.247,3.947c0.073,0.696,0.194,1.389,0.302,2.136c0.461,0,0.924,0,1.444,0
		c0.03-0.155,0.08-0.313,0.087-0.472c0.088-2.055,0.19-4.107,0.605-6.131c0.248-1.218,0.465-2.442,0.675-3.667
		c0.13-0.756,0.528-1.388,0.94-1.991c1.012-1.477,2.063-2.925,3.124-4.365c1.261-1.714,2.55-3.406,3.819-5.111
		c1.311-1.76,2.61-3.525,3.92-5.285c0.076-0.102,0.2-0.167,0.355-0.292c0.023,0.2,0.063,0.333,0.05,0.461
		c-0.112,1.036-0.222,2.072-0.359,3.104c-0.134,0.999-0.287,1.996-0.456,2.99c-0.357,2.092-0.851,4.148-1.557,6.154
		c-0.353,0.999-1.072,1.741-1.744,2.476c-1.115,1.222-2.381,2.305-3.529,3.394c-0.848-0.078-1.236-0.607-1.705-1.111
		c0.184-0.32,0.365-0.637,0.582-1.014c-0.082-0.132-0.148-0.354-0.293-0.437c-0.156-0.091-0.42-0.128-0.58-0.058
		c-0.46,0.199-0.891,0.463-1.229,0.645c-1.143,3.858-1.445,7.682-1.623,11.483c-0.375,0.369-0.765,0.515-1.233,0.509
		c-1.021-0.014-2.043-0.004-3.028-0.004c-0.777-0.4-0.762-1.158-0.794-1.788c-0.076-1.495-0.101-3.002,0-4.494
		c0.09-1.335,0.392-2.655,0.567-3.986c0.193-1.473,0.594-2.894,0.954-4.329c0.37-1.477,1.077-2.765,1.862-4.032
		c0.139-0.224,0.277-0.446,0.469-0.753c-0.332-0.016-0.576-0.081-0.792-0.029c-0.937,0.227-1.862,0.016-2.794,0.005
		c-2.004-0.024-3.764-0.659-5.313-1.913c-0.078-0.063-0.162-0.129-0.217-0.211c-0.164-0.248-0.316-0.506-0.54-0.867
		c1.759-0.406,3.44-0.795,5.347-1.235c-0.408-0.233-0.619-0.363-0.84-0.478c-0.932-0.48-1.924-0.869-2.783-1.455
		c-1.338-0.914-2.393-2.104-2.824-3.734c-0.033-0.129-0.051-0.264-0.062-0.396c-0.005-0.064,0.023-0.133,0.06-0.311
		c1.345-0.108,2.73,0.014,4.297-0.078c-0.809-0.533-1.461-0.973-2.124-1.396c-0.714-0.457-1.142-1.145-1.537-1.858
		c-0.393-0.71-0.688-1.451-0.694-2.386c1.472,0.633,2.863,1.264,4.525,1.578c-1.72-1.914-2.218-4.088-2.285-6.457
		c1.064,0.689,2.051,1.328,3.033,1.965c0.32-0.24,0.252-0.502,0.157-0.754c-0.532-1.425-0.577-2.908-0.533-4.4
		c0.021-0.676,0.299-1.52,0.647-2.002c0.77,0.654,1.537,1.307,2.398,2.039c0-0.587,0.095-1.107-0.02-1.578
		c-0.246-1.015-0.135-1.988-0.009-3.006c0.112-0.906,0.153-1.813,0.462-2.681c0.031-0.088,0.09-0.166,0.174-0.319
		c0.666,0.41,1.309,0.806,2.066,1.271c-0.025-2.369-0.088-4.613,1.368-6.629c0.472,0.518,0.892,0.979,1.405,1.542
		c0.124-0.276,0.26-0.458,0.283-0.653c0.18-1.453,0.676-2.816,1.189-4.17c0.469-1.234,1.302-2.216,2.362-3.114
		c0.382-0.003,0.765-0.456,1.337-0.156c-0.055,0.147-0.092,0.301-0.162,0.438c-1.311,2.57-2.699,5.104-3.916,7.718
		c-1.227,2.631-2.31,5.327-3.301,8.064c-1.012,2.795-1.815,5.643-2.545,8.515c-0.329,1.298-0.447,2.649-0.688,3.971
		c-0.297,1.634-0.434,3.277-0.408,4.939c0.021,1.262,0.262,2.486,0.659,3.665c0.503,1.494,2.106,2.957,3.913,2.598
		c0.727-0.452,0.982-1.111,0.973-1.976c-0.015-1.255-0.126-2.483-0.373-3.719c-0.137-0.689-0.234-1.47,0.191-2.236
		c1.606,0.47,3.002,1.246,4.249,2.241c0.485-0.012,0.71-0.35,0.919-0.638c0.773-1.065,1.504-2.161,2.266-3.234
		c0.352-0.493,0.738-0.961,1.158-1.505c-0.648-1.459-1.305-2.939-1.885-4.246c0-0.979-0.016-1.787,0.003-2.594
		c0.062-2.545,0.116-5.088,0.214-7.631c0.031-0.839,0.182-1.673,0.271-2.463c0.295-0.342,0.578-0.672,0.929-1.08
		c0.169,0.285,0.323,0.465,0.388,0.672c0.654,2.092,1.29,4.189,1.936,6.283c0.347,1.128,0.701,2.254,1.018,3.27
		c-0.33,0.437-0.633,0.834-1.021,1.348c-0.127,0.976-0.127,0.976,0.262,1.811c0.283,0.189,0.592,0.395,0.82,0.548
		c1.466,0.263,2.541-0.05,2.915-1.694c-0.071-0.729-0.431-1.416-1.235-1.861c1.078-3.442,2.144-6.844,3.228-10.306
		c0.288,0.139,0.525,0.253,0.874,0.421c0.136,0.525,0.397,1.102,0.418,1.688c0.109,2.984,0.143,5.973,0.235,8.958
		c0.024,0.805,0.163,1.605,0.236,2.289c-0.727,1.573-1.395,3.017-2.079,4.498c1.364,1.818,2.595,3.743,4.063,5.579
		c1.466-0.887,2.749-1.912,4.392-2.328c0.151,0.142,0.322,0.299,0.56,0.52c-0.086,0.702-0.084,1.458-0.284,2.156
		c-0.362,1.263-0.393,2.533-0.335,3.87c0.162,0.322,0.344,0.685,0.509,1.013c1.087,0.579,2.39,0.352,3.38-0.557
		c0.785-0.721,1.16-1.676,1.385-2.666c0.222-0.979,0.317-1.991,0.416-2.994c0.039-0.394-0.063-0.802-0.105-1.203
		c-0.021-0.201-0.084-0.4-0.077-0.6c0.063-1.805-0.311-3.565-0.671-5.305c-0.656-3.163-1.448-6.301-2.583-9.335
		c-0.815-2.183-1.609-4.378-2.55-6.507c-1.218-2.76-2.561-5.465-3.874-8.182c-0.351-0.727-0.787-1.41-1.176-2.098
		c0.272-0.322,0.531-0.25,0.785-0.153c1.112,0.427,1.802,1.29,2.35,2.293c0.95,1.739,1.485,3.614,1.805,5.56
		c0.01,0.061,0.065,0.114,0.121,0.208c0.713-0.15,0.722-1.042,1.422-1.319c0.583,0.341,0.708,1.052,1.002,1.626
		c0.178,0.349,0.247,0.773,0.282,1.171c0.097,1.111,0.149,2.225,0.223,3.338c0.004,0.063,0.039,0.125,0.078,0.241
		c0.692-0.2,1.166-0.745,1.785-1.171c0.137,0.176,0.31,0.308,0.357,0.475c0.229,0.81,0.444,1.622,0.436,2.479
		c-0.017,1.496-0.005,2.992-0.005,4.62c0.939-0.638,1.471-1.612,2.541-1.999c0.862,2.368,0.448,4.677-0.274,7.08
		c1.281-0.219,2.058-1.277,3.234-1.741c0.126,2.337-0.43,4.378-2.049,6.096c0.728,0.11,1.432-0.12,4.237-1.36
		c0.229,0.845,0.023,1.619-0.413,2.295c-0.664,1.029-1.46,1.954-2.58,2.541c-0.324,0.169-0.612,0.406-1.058,0.706
		c0.572,0.169,1.026,0.084,1.465,0.101c0.442,0.016,0.886,0.004,1.329,0.004c0.471,0,0.942,0,1.5,0
		c-0.26,1.691-1.027,2.996-2.27,3.996c-1.19,0.959-2.496,1.742-3.992,2.156c-0.077,0.021-0.135,0.115-0.286,0.25
		c1.806,0.427,3.521,0.832,5.289,1.249c-0.358,0.812-0.957,1.388-1.695,1.802c-1.38,0.771-2.863,1.186-4.457,1.18
		c-0.301-0.002-0.603,0.07-0.904,0.082c-0.36,0.014-0.723,0.012-1.084-0.005c-0.43-0.019-0.857-0.06-1.342-0.095
		c0.025,0.727,0.467,1.152,0.769,1.595c0.839,1.233,1.227,2.642,1.597,4.035c0.449,1.684,0.772,3.408,1.033,5.132
		c0.363,2.392,0.232,4.811,0.214,7.22C50.149,62.577,49.996,62.937,49.867,63.491z M29.605,38.008
		c-0.601,1.32-0.927,2.574-1.355,3.859c0.362,0.115,0.659,0.211,1.021,0.326c0.432-1.279,0.84-2.484,1.27-3.753
		C30.261,38.312,30,38.191,29.605,38.008z M33.294,38.463c0.434,1.316,0.827,2.512,1.232,3.742c0.338-0.122,0.613-0.222,0.962-0.348
		c-0.265-1.307-0.774-2.496-1.198-3.805C33.966,38.187,33.701,38.295,33.294,38.463z"/>
	<path style="fill-rule:evenodd;clip-rule:evenodd;fill:#F0AB23;" d="M10.299,22.478c-0.89-0.706-1.6-1.27-2.35-1.864
		c-0.537,1.09-0.227,2.25-0.307,3.367c-0.084,1.166,0.176,2.28,0.547,3.484c-1.053-0.419-2.057-0.817-3.074-1.222
		c-0.373,2.036,0.383,4.317,2.089,6.308c-0.821,0.029-1.573,0.055-2.396,0.082c0.102,3.034,1.789,5.051,4.006,6.847
		c-1.23,0.327-2.414,0.643-3.609,0.961c0.019,0.775,0.48,1.266,0.891,1.726c1.643,1.842,3.701,2.895,6.178,3.109
		c0.869,0.076,1.734,0.191,2.619,0.291c-0.594,1.767-1.32,3.487-2.016,5.197c-1.607-1.057-3.135-2.041-4.643-3.057
		c-1.49-1.004-3.136-1.646-4.965-1.991c0.59-1.301,1.799-1.272,2.725-1.829c-0.33-0.45-0.852-0.619-1.281-0.878
		c-1.082-0.649-2.116-1.356-2.949-2.306c-0.733-0.836-1.41-1.725-1.67-2.976c1.419-0.05,2.803,0.005,4.322-0.036
		c-0.203-0.194-0.282-0.302-0.389-0.367C2.67,36.496,1.6,35.391,0.782,34.028c-0.662-1.1-0.977-2.251-0.654-3.563
		c1.324,0.176,2.577,0.724,4.033,0.701c-1.975-2.332-2.882-4.891-2.607-7.91c1.346,0.438,2.644,0.861,4.086,1.331
		c-0.197-0.435-0.298-0.79-0.5-1.073c-0.502-0.706-0.734-1.521-0.924-2.331c-0.198-0.851-0.313-1.727-0.258-2.616
		c0.039-0.654,0.248-1.244,0.455-1.879c0.963,0.85,1.867,1.647,2.907,2.566c-0.097-3.037-0.05-5.857,1.37-8.587
		c1.081,0.995,1.615,2.245,2.488,3.436c0.07-0.337,0.137-0.517,0.141-0.696c0.013-0.647,0.008-1.295,0.006-1.942
		c-0.006-1.573,0.367-3.074,0.892-4.54c0.114-0.321,0.385-0.588,0.623-0.938c0.544,0.832,1.017,1.554,1.589,2.43
		c0.152-0.63,0.293-1.066,0.361-1.514c0.162-1.081,0.566-2.075,1-3.068c0.311-0.713,0.826-1.22,1.518-1.769
		c0.217,0.659,0.408,1.243,0.638,1.944c0.886-1.301,1.583-2.639,3.097-3.354c0,0.274,0.07,0.503-0.014,0.616
		c-0.313,0.426-0.442,0.898-0.512,1.407c-0.031,0.229-0.115,0.454-0.197,0.673C20,4.201,19.672,5.047,19.333,5.93
		c-0.177-0.272-0.374-0.573-0.591-0.906c-0.619-0.051-0.85,0.437-1.104,0.857c-0.582,0.964-0.969,2.01-1.194,3.109
		c-0.107,0.526-0.142,1.066-0.227,1.598c-0.025,0.155-0.114,0.3-0.219,0.563c-0.473-0.439-0.882-0.819-1.314-1.223
		c-0.819,0.797-1.065,1.811-1.319,2.827c-0.325,1.301-0.145,2.629-0.231,4.04c-0.794-0.41-0.97-1.348-1.802-1.747
		c-0.201,0.403-0.463,0.8-0.6,1.233c-0.252,0.803-0.45,1.621-0.438,2.479C10.313,19.913,10.299,21.066,10.299,22.478z"/>
	<path style="fill-rule:evenodd;clip-rule:evenodd;fill:#F0AB23;" d="M49.036,45.565c0.951-0.102,1.851-0.232,2.755-0.286
		c1.314-0.078,2.521-0.535,3.642-1.141c1.511-0.816,2.706-2.008,3.516-3.662c-1.267-0.327-2.519-0.65-3.832-0.99
		c2.227-1.771,3.882-3.813,4.045-6.87c-0.828,0-1.592,0-2.528,0c1.801-1.839,2.363-3.923,2.319-6.339
		c-1.139,0.266-2.092,0.74-3.176,1.244c0.667-2.342,0.689-4.615,0.316-6.957c-0.821,0.641-1.556,1.216-2.448,1.912
		c0-1.467,0.037-2.721-0.011-3.972c-0.046-1.222-0.333-2.39-1.091-3.544c-0.591,0.655-1.117,1.238-1.766,1.959
		c0.025-1.996,0.105-3.835-0.608-5.563c-0.203-0.491-0.505-0.941-0.812-1.503c-0.51,0.468-0.921,0.845-1.395,1.278
		c-0.099-0.24-0.224-0.412-0.235-0.593c-0.108-1.61-0.572-3.11-1.338-4.526c-0.247-0.455-0.524-0.86-1.113-1.055
		c-0.226,0.328-0.445,0.648-0.707,1.03c-0.195-0.632-0.374-1.19-0.54-1.755c-0.181-0.609-0.598-1.112-0.648-1.803
		c-0.041-0.551-0.368-1.082-0.483-1.67c1.499,0.592,2.201,1.916,3.087,3.252c0.23-0.689,0.425-1.269,0.641-1.915
		c1.032,0.651,1.575,1.567,1.903,2.615c0.359,1.149,0.661,2.317,1.006,3.542c0.663-0.619,0.988-1.482,1.579-2.277
		c0.23,0.34,0.494,0.59,0.586,0.893c0.275,0.898,0.472,1.82,0.72,2.727c0.32,1.168,0.159,2.36,0.204,3.543
		c0.01,0.262,0.039,0.523,0.075,0.973c0.963-1.153,1.455-2.443,2.476-3.377c0.655,0.711,0.921,1.588,1.066,2.42
		c0.266,1.521,0.342,3.078,0.454,4.624c0.03,0.41-0.095,0.831-0.165,1.382c1.219-0.654,1.993-1.602,2.953-2.515
		c0.594,1.378,0.565,2.687,0.323,4.071c-0.238,1.356-0.828,2.539-1.579,3.889c1.489-0.483,2.789-0.906,4.157-1.35
		c0.29,2.979-0.6,5.533-2.53,7.809c0.69,0.322,1.318-0.098,1.954-0.153c0.658-0.058,1.298-0.318,1.955-0.492
		c0.093,0.24,0.176,0.458,0.238,0.621c-0.065,0.515-0.124,0.98-0.211,1.667c-0.674,2.006-2.199,3.578-4.257,4.895
		c0.572,0.174,1.03,0.082,1.472,0.1c0.442,0.018,0.886,0.004,1.329,0.004c0.471,0,0.941,0,1.563,0
		c-0.187,0.511-0.278,0.934-0.482,1.293c-0.939,1.662-2.304,2.902-3.941,3.859c-0.514,0.301-1.018,0.619-1.586,0.966
		c0.937,0.604,2.134,0.596,2.725,1.687c-0.162,0.125-0.299,0.316-0.461,0.342c-1.996,0.311-3.678,1.313-5.32,2.397
		c-1.21,0.8-2.402,1.629-3.675,2.494c-0.562-0.696-0.713-1.647-1.102-2.478C49.654,47.414,49.381,46.502,49.036,45.565z"/>
	<path style="fill-rule:evenodd;clip-rule:evenodd;fill:#F0AB23;" d="M31.565,38.581c0.335,0,0.523,0,0.764,0
		c0,1.182,0,2.317,0,3.521c-0.195,0.027-0.406,0.059-0.674,0.096c-0.17-0.643-0.068-1.247-0.086-1.841
		C31.551,39.789,31.565,39.221,31.565,38.581z"/>
</g>
</svg>
