<?xml version="1.0" encoding="iso-8859-1"?>
<!-- Generator: Adobe Illustrator 16.0.0, SVG Export Plug-In . SVG Version: 6.00 Build 0)  -->
<!DOCTYPE svg PUBLIC "-//W3C//DTD SVG 1.1//EN" "http://www.w3.org/Graphics/SVG/1.1/DTD/svg11.dtd">
<svg version="1.1" id="Layer_1" xmlns="http://www.w3.org/2000/svg" xmlns:xlink="http://www.w3.org/1999/xlink" x="0px" y="0px"
	 width="64px" height="64px" viewBox="0 0 64 64" style="enable-background:new 0 0 64 64;" xml:space="preserve">
<g>
	<g>
		<defs>
			<path id="SVGID_23_" d="M0,13.976v36.049h64V13.976H0z M43.791,32.949c-0.117,0.641-0.234,1.282-0.351,1.923
				c-0.32,0.749-0.64,1.497-0.96,2.245l0.002-0.002c-0.114,0.329-0.297,0.614-0.541,0.861c-0.642,0.714-1.285,1.428-1.927,2.142
				c-0.098,0.166-0.274,0.229-0.428,0.321c-0.492,0.286-0.973,0.593-1.477,0.856c-1.795,0.941-3.722,1.323-5.729,1.169
				c-1.492-0.114-2.929-0.509-4.244-1.267c-0.163-0.094-0.347-0.15-0.521-0.224c-0.633-0.547-1.354-0.99-1.93-1.605
				c-0.355-0.393-0.711-0.785-1.066-1.178c-0.441-0.822-1.017-1.572-1.305-2.478c-0.125-0.393-0.291-0.772-0.438-1.158
				c-0.071-0.5-0.143-1-0.214-1.5c-0.17-0.599-0.043-1.215-0.107-1.82c0.158-0.486,0.166-0.995,0.214-1.498
				c0.085-0.191,0.15,0.026,0.227,0.012c0.459,0.432,0.672,1.035,1.059,1.519c0.441,0.593,0.843,1.217,1.402,1.714
				c0.549,0.583,1.142,1.116,1.819,1.55c0.286,0.184,0.577,0.242,0.912,0.167c1.168-0.263,2.162-0.791,2.833-1.822
				c0.16-0.355-0.132-0.397-0.34-0.454c-1.091-0.297-2.104-0.776-3.099-1.301c-0.605-0.265-1.087-0.72-1.646-1.056
				c-0.221-0.134-0.378-0.314-0.468-0.556c-0.637-0.383-1.095-0.985-1.713-1.393c-0.363-0.256-0.303-0.563-0.104-0.885
				c0.347-0.558,0.697-1.114,1.045-1.671c0.513-0.672,1.082-1.288,1.745-1.815c0.254-0.285,0.647-0.411,0.855-0.749
				c0.39-0.212,0.78-0.423,1.169-0.634c0.541-0.078,0.951-0.497,1.495-0.567c0.234-0.259,0.577-0.202,0.867-0.296l-0.008,0.007
				c0.236-0.111,0.491-0.121,0.745-0.139c0.323-0.035,0.646-0.071,0.969-0.107c0.462-0.056,0.924-0.057,1.386,0
				c0.038,0,0.075,0,0.113,0c0.328-0.015,0.645,0.047,0.957,0.139c0.015,0.06,0.044,0.097,0.112,0.077
				c0.196-0.056,0.386-0.086,0.533,0.105c0.377-0.029,0.688,0.235,1.058,0.237c0.832,0.416,1.688,0.785,2.471,1.293
				c0.357,0.285,0.714,0.571,1.07,0.856c0.619,0.425,1.011,1.06,1.499,1.606c0.429,0.568,0.784,1.178,1.085,1.823
				c0.079,0.171,0.104,0.33,0.093,0.506c-0.531,0.193-0.775,0.738-1.249,1.016c-0.326,0.19-0.594,0.481-0.888,0.728
				c-0.228,0.488-0.728,0.656-1.123,0.946c-0.215,0.158-0.456,0.276-0.681,0.419c-1.06,0.593-2.166,1.078-3.326,1.438
				c-0.285,0.089-0.471,0.205-0.222,0.516c0.733,0.898,1.655,1.479,2.796,1.729c0.4,0.087,0.724,0.021,1.046-0.219
				c0.441-0.329,0.851-0.697,1.28-1.04c0.2-0.169,0.386-0.352,0.559-0.549c0.046-0.055,0.094-0.108,0.138-0.166
				c0.399-0.503,0.832-0.981,1.163-1.535c0.386-0.415,0.535-1.011,1.029-1.342c0.04-0.031,0.08-0.063,0.12-0.094
				c0.135,0.486,0.235,0.979,0.236,1.485c0,0.108,0,0.216,0,0.324c0.055,0.247,0.057,0.495-0.001,0.742
				C43.791,32.518,43.791,32.733,43.791,32.949z"/>
		</defs>
		<clipPath id="SVGID_2_">
			<use xlink:href="#SVGID_23_"  style="overflow:visible;"/>
		</clipPath>
		<g style="clip-path:url(#SVGID_2_);">
			<path style="fill-rule:evenodd;clip-rule:evenodd;fill:#E6E6E7;" d="M64,46.706c-0.157,0.101-0.319,0.051-0.47,0.052
				c-3.961,0.003-7.922,0.001-11.883,0.006c-0.275,0.001-0.439-0.044-0.608-0.326c-0.801-1.333-1.653-2.636-2.491-3.946
				c-0.055-0.086-0.149-0.146-0.226-0.22c-6.479,9.172-19.804,10.247-27.638,3.008c-0.069,0.255-0.165,0.488-0.191,0.73
				c-0.07,0.645-0.401,0.779-1.033,0.77c-2.908-0.044-5.816-0.02-8.724-0.02c-0.787,0-0.781-0.035-1.017-0.802
				c-0.354-1.151-0.767-2.284-1.152-3.426c-0.473-1.401-0.937-2.806-1.413-4.205c-0.494-1.45-1-2.896-1.499-4.344
				c-0.499-1.447-0.986-2.899-1.493-4.344c-0.725-2.062-1.379-4.146-2.128-6.201c-0.707-1.939-1.305-3.918-1.982-5.868
				c-0.116-0.333-0.037-0.36,0.247-0.36c3.497,0.004,6.994,0.005,10.491-0.001c0.287,0,0.46,0.094,0.546,0.378
				c0.604,1.992,1.21,3.985,1.824,5.975c0.563,1.824,1.14,3.645,1.701,5.47c0.034,0.111,0.065,0.196,0.175,0.253
				c0.595-1.865,1.252-3.715,2.113-5.469c0.904-1.842,2.143-3.462,3.623-4.914c1.244-1.221,2.6-2.271,4.134-3.062
				c1.581-0.814,3.27-1.341,5.037-1.644c1.482-0.254,2.967-0.252,4.445-0.178c2.121,0.107,4.168,0.599,6.134,1.455
				c1.355,0.591,2.64,1.283,3.808,2.177c1.156,0.883,2.164,1.932,3.072,3.067c0.247,0.309,0.528,0.597,0.701,0.97
				c0.119,0.258,0.313,0.225,0.454-0.003c0.746-1.202,1.512-2.394,2.218-3.62c0.335-0.583,0.687-0.883,1.43-0.873
				c3.568,0.048,7.137,0.021,10.705,0.023c0.187,0,0.419-0.077,0.534,0.135c0.11,0.203-0.13,0.312-0.211,0.441
				c-1.657,2.674-3.328,5.339-5.008,7.998c-1.209,1.916-2.429,3.826-3.661,5.727c-0.181,0.278-0.165,0.467,0.011,0.732
				c1.927,2.914,3.843,5.835,5.759,8.756c1.213,1.85,2.421,3.703,3.63,5.556C63.988,46.599,63.988,46.654,64,46.706z"/>
			<path style="fill-rule:evenodd;clip-rule:evenodd;fill:#FCCC24;" d="M10.015,43.351c-0.25-0.597-0.456-1.208-0.613-1.836
				c0.229-0.252,0.543-0.284,0.839-0.256c1.19,0.111,2.38-0.012,3.571,0.042c1.511,0.067,3.027-0.172,4.54-0.067
				c1.708,0.117,3.414-0.069,5.123,0.001c1.064,0.044,2.138,0.004,3.206-0.026c0.872-0.025,1.701,0.131,2.489,0.484
				c1.711,0.768,3.522,0.822,5.342,0.729c1.093-0.057,2.113-0.466,3.125-0.86c0.166-0.064,0.32-0.158,0.502-0.173
				c1.613-0.101,3.229-0.117,4.844-0.132c1.242-0.011,2.484,0.056,3.727,0.078c0.264,0.005,0.542,0.01,0.702,0.287
				c-0.278,0.482-0.626,0.908-1.026,1.295c-0.185,0.167-0.362,0.324-0.651,0.286c-1.188-0.156-2.379,0.037-3.572-0.013
				c-1.953-0.082-3.909,0.043-5.867-0.024c-0.912-0.031-1.847-0.088-2.771,0.058c-0.544,0.085-1.101-0.05-1.654-0.021
				c-1.795,0.096-3.59-0.104-5.38-0.049c-1.172,0.037-2.344-0.034-3.52,0.06c-0.824,0.065-1.668-0.043-2.501,0.059
				c-1.138,0.12-2.273,0.138-3.422,0.098c-0.877-0.03-1.772-0.007-2.652-0.023c-0.865-0.017-1.729,0.097-2.591,0.009
				c-0.428-0.043-0.849-0.057-1.271,0.034C10.36,43.427,10.183,43.438,10.015,43.351z"/>
			<path style="fill-rule:evenodd;clip-rule:evenodd;fill:#FCD025;" d="M44.779,44.529c-1.118,1.061-2.373,1.918-3.774,2.562
				c-1.592-0.251-3.191-0.14-4.79-0.108c-1.353,0.025-2.707-0.056-4.059-0.009c-0.996,0.035-1.993,0.104-2.984,0.015
				c-0.926-0.084-1.855,0.04-2.771-0.07c-0.435-0.053-0.77,0.241-1.177,0.174c-1.362-0.599-2.556-1.442-3.628-2.466
				c0.344-0.519,0.899-0.453,1.396-0.459c1.957-0.022,3.913,0.026,5.87,0.007c1.225-0.013,2.456,0.008,3.684,0.017
				c1.155,0.008,2.312-0.04,3.466-0.019c0.723,0.013,1.435-0.09,2.17-0.027c1.412,0.121,2.839,0.154,4.261,0.019
				c0.458-0.044,0.925-0.031,1.386-0.02C44.179,44.153,44.553,44.183,44.779,44.529z"/>
			<path style="fill-rule:evenodd;clip-rule:evenodd;fill:#FCCA24;" d="M38.206,41.514c-1.157,0.453-2.307,0.975-3.558,1.055
				c-1.847,0.118-3.694,0.088-5.436-0.685c-0.773-0.342-1.573-0.496-2.423-0.484c-1.74,0.024-3.482-0.045-5.22,0.022
				c-1.65,0.063-3.296-0.056-4.944-0.013c-0.971,0.024-1.949,0.162-2.909,0.081c-1.16-0.099-2.317,0.142-3.473-0.065
				c-0.266-0.048-0.56,0.056-0.841,0.09c-0.258-0.508-0.393-1.06-0.572-1.596c0.366-0.315,0.792-0.106,1.173-0.09
				c1.026,0.042,2.041-0.177,3.067-0.095c0.353,0.027,0.705,0.053,1.056,0.094c0.365,0.062,0.727,0.036,1.087-0.041
				c0.892,0.054,1.784,0.05,2.676-0.009c0.262,0.069,0.524,0.084,0.786-0.011c2.319-0.055,4.637,0.094,6.956,0.063
				c0.438-0.007,0.778,0.213,1.11,0.455c0.271,0.197,0.521,0.431,0.864,0.504c0.708,0.238,1.337,0.653,2.05,0.896
				c3.178,1.084,6.197,0.751,9.082-0.941c0.245-0.144,0.464-0.331,0.738-0.424c0.264-0.009,0.463-0.147,0.642-0.326
				c0.103-0.07,0.216-0.111,0.34-0.125c0.888-0.105,1.781-0.036,2.67-0.041c4.723-0.03,9.445-0.007,14.168-0.012
				c0.339,0,0.681-0.019,0.982,0.185c0.197,0.291,0.394,0.582,0.591,0.873c0.016,0.125-0.068,0.174-0.162,0.216
				c-1.325-0.149-2.655-0.046-3.983-0.061c-1.6-0.018-3.2-0.002-4.8,0.002c-0.201,0-0.389,0.039-0.551,0.166
				c-0.123,0.067-0.246,0.079-0.37,0.003c-0.073-0.096-0.153-0.187-0.218-0.287c-0.551-0.864-0.53-0.658-0.953,0.066
				c-0.137,0.099-0.29,0.114-0.455,0.112c-2.152-0.014-4.304-0.037-6.458-0.001C39.979,41.105,39.083,41.188,38.206,41.514z"/>
			<path style="fill-rule:evenodd;clip-rule:evenodd;fill:#FCC122;" d="M7.791,36.806c-0.303-0.695-0.54-1.413-0.734-2.146
				c0.138-0.349,0.449-0.373,0.753-0.388c0.498-0.024,0.996-0.001,1.494-0.011c1.878-0.038,3.758-0.046,5.636-0.035
				c2.193,0.014,4.391-0.115,6.581,0.114c0.451,0.048,0.922-0.193,1.356,0.095c0.239,0.158,0.309,0.419,0.395,0.668
				c0.302,0.869,0.67,1.704,1.185,2.473c0.12,0.179,0.416,0.4,0.064,0.651c-0.359-0.07-0.518-0.358-0.672-0.639
				c-0.232-0.419-0.552-0.616-1.05-0.553c-0.871,0.11-1.742-0.038-2.612-0.03c-1.6,0.014-3.2,0.026-4.8,0.056
				c-1.046,0.02-2.098-0.087-3.149-0.048c-1.136,0.043-2.272,0.11-3.409,0.068C8.478,37.069,8.063,37.166,7.791,36.806z"/>
			<path style="fill-rule:evenodd;clip-rule:evenodd;fill:#FBA11C;" d="M24.078,17.654c1.127-0.876,2.424-1.418,3.769-1.834
				c4.77-1.476,9.352-0.921,13.759,1.346c0.2,0.103,0.375,0.253,0.561,0.38c0.105,0.313-0.149,0.363-0.337,0.42
				c-0.325,0.099-0.664,0.123-1.005,0.085c-0.745-0.082-1.49-0.103-2.232,0.038c-0.123,0.023-0.248,0.028-0.373,0.016
				c-1.916-0.202-3.837-0.022-5.753-0.087c-1.584-0.054-3.164,0.078-4.75-0.011c-0.972-0.055-1.957,0.015-2.935,0.01
				C24.501,18.016,24.14,18.106,24.078,17.654z"/>
			<path style="fill-rule:evenodd;clip-rule:evenodd;fill:#FCCE25;" d="M44.779,44.529c-1.179-0.412-2.379-0.094-3.57-0.105
				c-0.836-0.009-1.674-0.048-2.508-0.014c-0.614,0.025-1.189-0.187-1.847-0.08c-0.554,0.089-1.208,0.18-1.831,0.014
				c-0.43-0.115-0.922-0.036-1.357,0c-1.272,0.105-2.542,0.036-3.808,0.038c-1.391,0.002-2.785,0.081-4.172,0.004
				c-0.917-0.051-1.831,0.048-2.75-0.053c-0.436-0.048-0.919,0.071-1.338,0.293c-0.435-0.377-0.883-0.741-1.179-1.249
				c-0.059-0.057-0.054-0.106,0.015-0.15c0.619-0.391,1.333-0.296,1.964-0.204c0.612,0.088,1.169-0.13,1.775-0.056
				c0.899,0.11,1.824,0.073,2.733,0.02c0.545-0.032,1.095,0.145,1.634-0.051c0.234-0.085,0.46,0.043,0.68,0.087
				c1.013,0.203,2.017-0.063,3.028-0.022c1.312,0.051,2.633-0.096,3.937-0.047c1.207,0.045,2.417,0.016,3.625,0.082
				c0.637,0.035,1.291-0.069,1.944-0.031c0.706,0.041,1.417,0.015,2.125,0.007c0.688-0.007,1.377-0.187,2.06,0.028
				c0.188,0.059,0.292-0.106,0.448-0.123C45.922,43.525,45.391,44.067,44.779,44.529z"/>
			<path style="fill-rule:evenodd;clip-rule:evenodd;fill:#FBB01F;" d="M56.827,25.881c-0.482,0.851-1.001,1.678-1.565,2.477
				c-0.572,0.14-1.158,0.164-1.738,0.12c-0.642-0.049-1.281-0.09-1.916,0.025c-0.693,0.125-1.391,0.013-2.07-0.032
				c-1.05-0.07-2.093,0.106-3.14-0.023c-0.814-0.101-1.634-0.031-2.451,0.04c-0.471,0.041-0.932,0.027-1.191-0.477
				c-0.051-0.717-0.468-1.271-0.817-1.859c-0.125-0.212-0.373-0.406-0.179-0.705c1.163,0.196,2.336,0.121,3.504,0.125
				c1.899,0.008,3.8,0.007,5.698-0.019c1.652-0.022,3.3,0.031,4.95,0.032C56.24,25.586,56.603,25.533,56.827,25.881z"/>
			<path style="fill-rule:evenodd;clip-rule:evenodd;fill:#FCA41C;" d="M24.078,17.654c0.101,0.188,0.276,0.214,0.46,0.197
				c1-0.092,2.004-0.018,3.007-0.055c0.75-0.027,1.526,0.088,2.285,0.044c1.476-0.084,2.957-0.062,4.425-0.029
				c1.338,0.03,2.694-0.206,4.028,0.131c0.388,0.098,0.774-0.125,1.186-0.14c0.697-0.023,1.384,0.172,2.076,0.048
				c0.235-0.042,0.509-0.011,0.623-0.305c0.966,0.409,1.707,1.121,2.457,1.822c-0.062,0.289-0.311,0.245-0.508,0.272
				c-0.515,0.073-1.031-0.015-1.546-0.018c-2.061-0.012-4.122-0.016-6.181,0.037c-1.459,0.036-2.922,0.035-4.374-0.023
				c-1.835-0.074-3.666,0.01-5.495,0.029c-1.513,0.017-3.017-0.174-4.527-0.078c-0.109,0.007-0.223,0.001-0.184-0.165
				C22.488,18.735,23.216,18.109,24.078,17.654z"/>
			<path style="fill-rule:evenodd;clip-rule:evenodd;fill:#FCA61D;" d="M49.876,21.601c0.635-1.027,1.274-2.053,1.901-3.084
				c0.125-0.207,0.3-0.217,0.502-0.217c2.956,0.002,5.912,0.001,8.867,0.003c0.219,0,0.545-0.065,0.283,0.342
				c-0.636,0.986-1.273,1.972-1.909,2.957c-0.12,0.188-0.299,0.234-0.508,0.224c-2.473-0.122-4.947,0.035-7.421-0.068
				c-0.458-0.02-0.923,0.029-1.382,0.108C50.04,21.896,49.775,21.952,49.876,21.601z"/>
			<path style="fill-rule:evenodd;clip-rule:evenodd;fill:#FCC523;" d="M7.791,36.806c0.93,0.095,1.86,0.049,2.791,0.054
				c1.449,0.009,2.904-0.232,4.348,0.026c0.44,0.079,0.844-0.086,1.27-0.085c1.471,0.006,2.945-0.053,4.412,0.024
				c0.83,0.043,1.647,0.054,2.471-0.018c0.52-0.044,0.774,0.326,0.955,0.72c0.134,0.293,0.318,0.505,0.584,0.664
				c0.5,0.187,1.028,0.814,1.029,1.221c-0.229,0.072-0.381-0.068-0.538-0.194c-0.289-0.218-0.637-0.246-0.969-0.233
				c-1.262,0.045-2.532,0.095-3.784,0.035c-1.579-0.075-3.156-0.022-4.73-0.04c-1.522-0.018-3.051-0.113-4.579,0.014
				c-0.842,0.07-1.696,0.079-2.542-0.033C8.25,38.248,7.962,37.546,7.791,36.806z"/>
			<path style="fill-rule:evenodd;clip-rule:evenodd;fill:#FCA71D;" d="M45.808,20.528c0.414,0.384,0.768,0.816,1.063,1.297
				c-0.042,0.261-0.251,0.214-0.414,0.207c-2.631-0.103-5.263,0.06-7.895-0.021c-0.582-0.018-1.16-0.21-1.746-0.046
				c-0.391,0.031-0.741-0.124-1.099-0.239c-0.19-0.105-0.378-0.225-0.615-0.166c-0.073-0.005-0.142-0.028-0.208-0.059
				c-0.288-0.137-0.583-0.217-0.903-0.13c-0.053,0.004-0.104,0.001-0.156-0.006c-0.431-0.057-0.86-0.079-1.285,0.037
				c-0.292,0.043-0.582,0.105-0.879,0.101c-0.27-0.1-0.525-0.031-0.777,0.072c-0.046,0.019-0.093,0.032-0.141,0.043
				c-0.304,0.012-0.576,0.111-0.815,0.301c-0.518,0.178-0.953,0.624-1.569,0.486c-0.577-0.105-1.154-0.197-1.745-0.172
				c-1.954,0.084-3.909,0.135-5.864,0.02c-0.232-0.014-0.46,0.07-0.691,0.049c-0.213-0.02-0.491,0.042-0.511-0.308
				c0.318-0.558,0.741-1.033,1.188-1.488c1.038-0.204,2.1-0.118,3.13-0.074c1.156,0.05,2.302-0.114,3.458-0.005
				c1.792,0.169,3.592-0.045,5.39,0.013c2.565,0.084,5.133-0.083,7.695-0.01C42.216,20.482,44.016,20.313,45.808,20.528z"/>
			<path style="fill-rule:evenodd;clip-rule:evenodd;fill:#FCA61D;" d="M45.808,20.528c-0.284,0.171-0.578,0.15-0.906,0.139
				c-0.938-0.034-1.885-0.126-2.819,0.056c-0.314,0.061-0.59-0.095-0.896-0.093c-1.812,0.014-3.625-0.037-5.435,0.021
				c-1.447,0.046-2.885,0.004-4.326-0.087c-0.272-0.018-0.562,0.052-0.843,0.08c-1.217,0.125-2.433-0.002-3.647-0.026
				c-0.745-0.015-1.52,0.194-2.197,0.065c-0.973-0.184-1.935,0.208-2.873-0.121c-0.241-0.084-0.45,0.063-0.668,0.125
				c-0.203,0.057-0.393,0.114-0.451-0.18c0.303-0.41,0.678-0.751,1.061-1.084c1.218-0.13,2.427,0.077,3.639,0.094
				c0.555,0.008,1.123-0.049,1.686-0.059c1.408-0.025,2.823-0.151,4.223-0.055c1.223,0.085,2.446,0.029,3.669,0.103
				c0.869,0.053,1.771-0.031,2.658-0.048c0.846-0.017,1.692-0.009,2.537,0.029c0.197,0.009,0.389,0.02,0.573-0.029
				c0.861-0.228,1.719,0.038,2.579,0.009c0.42-0.015,0.844,0.056,1.252-0.099C45.102,19.67,45.46,20.094,45.808,20.528z"/>
			<path style="fill-rule:evenodd;clip-rule:evenodd;fill:#FCAD1E;" d="M56.827,25.881c-0.892-0.164-1.793-0.125-2.693-0.121
				c-0.16,0.001-0.327,0.043-0.479,0.011c-1.197-0.254-2.4,0.023-3.607-0.05c-1.702-0.103-3.419,0.067-5.128,0.037
				c-0.882-0.016-1.77,0.142-2.652-0.059c-0.176-0.041-0.328-0.219-0.534-0.124c-0.215,0.022-0.309-0.151-0.425-0.274
				c-0.328-0.349-0.602-0.743-0.963-1.063c-0.106-0.094-0.2-0.209-0.125-0.372c0.439-0.144,0.844,0.123,1.282,0.095
				c0.936-0.061,1.874,0.022,2.813,0.012c0.916-0.011,1.837-0.069,2.754,0.049c0.374,0.049,0.733-0.06,1.093-0.148
				c0.272,0.14,0.283-0.168,0.425-0.25c0.758,0.152,1.521,0.037,2.282,0.059c2.058,0.058,4.117-0.117,6.172,0.073
				c0.335,0.031,0.687,0.042,0.861,0.414C57.587,24.767,57.224,25.334,56.827,25.881z"/>
			<path style="fill-rule:evenodd;clip-rule:evenodd;fill:#FCBD21;" d="M22.878,34.556c-0.31-0.102-0.612-0.145-0.938-0.029
				c-0.37,0.131-0.736-0.062-1.106-0.087c-1.118-0.077-2.237,0.061-3.359-0.066c-0.423-0.049-0.901,0.011-1.354,0.051
				c-0.806,0.071-1.628,0.053-2.436-0.02c-0.347-0.031-0.664,0.059-0.998,0.054c-1.57-0.022-3.141-0.005-4.711-0.015
				c-0.33-0.002-0.638,0.036-0.918,0.217c-0.266-0.625-0.499-1.262-0.655-1.925c0.506-0.111,1.025-0.111,1.533-0.103
				c1.732,0.03,3.465-0.073,5.198,0.064c0.572,0.046,1.159-0.16,1.737,0.03c0.067-0.002,0.134-0.005,0.201-0.008
				c0.166-0.084,0.344-0.076,0.523-0.075c2.029,0.02,4.058-0.015,6.087-0.053c0.423-0.008,0.827,0.022,1.084,0.43
				C22.88,33.527,23.167,34.021,22.878,34.556z"/>
			<path style="fill-rule:evenodd;clip-rule:evenodd;fill:#FCA61D;" d="M2.541,21.392c-0.324-0.923-0.639-1.849-0.975-2.768
				c-0.143-0.391,0.128-0.318,0.325-0.319C3.228,18.3,4.565,18.3,5.902,18.299c1.319-0.001,2.639,0.015,3.958-0.013
				c0.405-0.008,0.612,0.1,0.714,0.507c0.192,0.771,0.431,1.532,0.65,2.297c0.099,0.176-0.031,0.22-0.154,0.253
				c-0.191,0.051-0.389,0.029-0.584,0.031c-2.491,0.029-4.983-0.065-7.474,0.058C2.855,21.439,2.692,21.475,2.541,21.392z"/>
			<path style="fill-rule:evenodd;clip-rule:evenodd;fill:#FCC523;" d="M40.348,40.015c-0.072,0.036-0.143,0.072-0.214,0.107
				c-0.042,0.043-0.084,0.041-0.127,0.001c-0.039-0.138,0.021-0.254,0.111-0.339c0.637-0.599,1.131-1.33,1.773-1.924
				c0.297-0.155,0.373-0.508,0.628-0.702c0.249-0.219,0.555-0.229,0.857-0.22c1.189,0.032,2.38,0.033,3.57,0.055
				c1.468,0.026,2.947-0.017,4.414-0.021c1.575-0.004,3.154-0.136,4.73-0.02c0.073,0.005,0.141,0.002,0.208-0.024
				c0.476,0.458,0.703,1.081,1.072,1.609c0.16,0.487-0.215,0.444-0.48,0.455c-1.247,0.051-2.495,0.061-3.742,0.023
				c-1.976-0.058-3.951,0.013-5.926-0.021c-1.191-0.019-2.383-0.013-3.572,0.08c-0.501,0.039-0.988-0.107-1.492-0.073
				c-0.414,0.028-0.767,0.128-1.038,0.454C40.911,39.709,40.641,39.879,40.348,40.015z"/>
			<path style="fill-rule:evenodd;clip-rule:evenodd;fill:#FCD426;" d="M25.225,47.092c0.37-0.398,0.827-0.372,1.327-0.348
				c0.652,0.032,1.33-0.077,1.961-0.024c0.725,0.061,1.459,0.132,2.179,0.124c0.88-0.008,1.763-0.086,2.646-0.073
				c0.856,0.013,1.72,0.116,2.567,0.037c0.687-0.064,1.368,0.008,2.055-0.064c0.747-0.077,1.514,0.032,2.271,0.072
				c0.28,0.015,0.608-0.074,0.773,0.275c-1.622,0.904-3.375,1.418-5.2,1.666c-3.422,0.466-6.741,0.061-9.922-1.321
				C25.656,47.337,25.444,47.207,25.225,47.092z"/>
			<path style="fill-rule:evenodd;clip-rule:evenodd;fill:#FCD025;" d="M20.433,43.227c-0.005,0.051-0.01,0.101-0.015,0.15
				c-0.289-0.108-0.279,0.146-0.328,0.291c-0.188,0.557-0.373,1.116-0.533,1.682c-0.075,0.265-0.2,0.37-0.484,0.369
				c-2.641-0.009-5.282-0.008-7.923,0.002c-0.267,0.001-0.382-0.109-0.457-0.342c-0.219-0.679-0.451-1.353-0.677-2.028
				c0.576-0.199,1.153-0.251,1.771-0.191c0.436,0.042,0.898,0.136,1.348-0.012c0.237-0.077,0.486-0.101,0.728,0.008
				c0.049,0.022,0.104,0.059,0.15,0.05c0.889-0.158,1.783,0.068,2.67-0.037c0.177-0.021,0.38-0.107,0.521-0.021
				c0.463,0.284,0.944,0.101,1.397,0.056C19.219,43.143,19.823,43.284,20.433,43.227z"/>
			<path style="fill-rule:evenodd;clip-rule:evenodd;fill:#FCAA1D;" d="M57.903,24.169c-0.681-0.408-1.455-0.219-2.179-0.291
				c-0.839-0.084-1.698-0.028-2.554,0.045c-0.82,0.069-1.656-0.108-2.496-0.053c-0.588,0.039-1.188,0.165-1.783-0.016
				c-0.145-0.044-0.278-0.052-0.303-0.231c0.43-0.674,0.859-1.349,1.289-2.022c0.036,0.057,0.092,0.166,0.105,0.161
				c1.05-0.389,2.133-0.133,3.198-0.152c1.784-0.033,3.57,0.003,5.354-0.021c0.33-0.004,0.657,0.217,0.986,0.013
				C59.03,22.488,58.482,23.339,57.903,24.169z"/>
			<path style="fill-rule:evenodd;clip-rule:evenodd;fill:#FBB01F;" d="M4.799,28.024c-0.312-0.729-0.568-1.479-0.763-2.247
				c0.823-0.099,1.645-0.194,2.478-0.152c2.039,0.101,4.076,0.075,6.112-0.084c0.3,0.775,0.545,1.567,0.742,2.375
				c0.026,0.444-0.095,0.583-0.568,0.568c-0.461-0.015-0.922-0.009-1.383-0.011c-0.739-0.004-1.486,0.061-2.208,0.053
				c-0.912-0.009-1.836,0.085-2.749-0.029c-0.302-0.038-0.602-0.021-0.902-0.029C5.231,28.458,4.916,28.405,4.799,28.024z"/>
			<path style="fill-rule:evenodd;clip-rule:evenodd;fill:#FCB420;" d="M42.913,27.904c0.163,0.447,0.553,0.466,0.916,0.422
				c1.039-0.126,2.074-0.192,3.109,0.009c0.363,0.071,0.697-0.13,1.055-0.097c0.838,0.076,1.681,0.033,2.522,0.088
				c0.791,0.051,1.604-0.154,2.384-0.06c0.792,0.096,1.588-0.185,2.363,0.091c-0.245,0.491-0.542,0.948-0.877,1.382
				c-0.148,0.239-0.366,0.319-0.639,0.295c-1.776-0.158-3.557-0.014-5.336-0.087c-1.01-0.042-2.03,0.008-3.044,0.063
				c-0.589,0.032-1.176,0.017-1.759-0.082c-0.085,0.024-0.17,0.046-0.258,0.059c-0.745,0.077-1.49-0.119-2.238,0.009
				c-0.154,0.026-0.317-0.051-0.389-0.225c-0.006-0.035-0.022-0.08-0.004-0.104c0.542-0.762,1.305-1.275,2.049-1.808
				C42.802,27.833,42.867,27.875,42.913,27.904z"/>
			<path style="fill-rule:evenodd;clip-rule:evenodd;fill:#FCC122;" d="M54.487,34.108c0.494,0.549,0.753,1.246,1.167,1.847
				c-0.072,0.34-0.368,0.31-0.593,0.311c-2.465,0.01-4.93,0.066-7.394-0.065c-0.621-0.033-1.24,0.055-1.863,0.044
				c-0.621-0.01-1.241,0.072-1.863,0.001c-0.385-0.044-0.699,0.073-0.877,0.452c-0.103,0.219-0.282,0.362-0.508,0.444
				c-0.206-0.099-0.154-0.276-0.086-0.41c0.329-0.648,0.509-1.363,0.895-1.985c0.22-0.439,0.596-0.56,1.059-0.551
				c1.37,0.027,2.747,0.085,4.109,0.014c1.458-0.076,2.919,0.173,4.368-0.102C53.426,34.008,53.958,34.313,54.487,34.108z"/>
			<path style="fill-rule:evenodd;clip-rule:evenodd;fill:#FCC823;" d="M40.348,40.015c0.318-0.335,0.61-0.701,0.962-0.998
				c0.397-0.335,0.914-0.21,1.374-0.192c1.216,0.048,2.427,0.017,3.641-0.06c0.487-0.03,0.98,0.059,1.471,0.069
				c0.901,0.021,1.81-0.132,2.697-0.074c1.474,0.095,2.945,0.031,4.417,0.074c0.708,0.021,1.417-0.002,2.125,0.004
				c0.215,0.002,0.348-0.061,0.336-0.3c0.407,0.423,0.628,0.96,0.907,1.462c-2.063-0.004-4.127-0.017-6.191-0.007
				c-1.273,0.007-2.553,0.141-3.817,0.046c-1.213-0.091-2.426,0.123-3.634-0.095c-0.318-0.058-0.665,0.063-0.999,0.066
				C42.541,40.021,41.444,40.015,40.348,40.015z"/>
			<path style="fill-rule:evenodd;clip-rule:evenodd;fill:#FCD025;" d="M60.69,43.654c0.563,0.574,0.875,1.315,1.363,1.936
				c-0.17,0.184-0.339,0.118-0.486,0.118c-3.061,0.005-6.121-0.004-9.181,0.013c-0.388,0.002-0.627-0.113-0.81-0.452
				c-0.235-0.438-0.514-0.851-0.774-1.274c0.158-0.394,0.517-0.431,0.849-0.408c1.635,0.114,3.27-0.089,4.899,0.005
				c1.157,0.066,2.308,0.13,3.462-0.005C60.246,43.559,60.455,43.723,60.69,43.654z"/>
			<path style="fill-rule:evenodd;clip-rule:evenodd;fill:#FCCD24;" d="M60.69,43.654c-0.063,0.058-0.13,0.17-0.188,0.166
				c-1.235-0.087-2.466,0.07-3.71-0.009c-1.182-0.074-2.396-0.183-3.593,0.042c-0.308,0.059-0.637,0.045-0.955-0.031
				c-0.499-0.118-0.988-0.114-1.441,0.172c-0.425-0.585-0.817-1.19-1.155-1.83c0.185-0.368,0.537-0.288,0.845-0.309
				c1.867-0.119,3.734,0.036,5.605-0.028c1.161-0.039,2.351-0.084,3.515,0.141C60.105,42.444,60.285,43.121,60.69,43.654z"/>
			<path style="fill-rule:evenodd;clip-rule:evenodd;fill:#FBB11F;" d="M16.575,28.227c0.281-0.957,0.636-1.885,1.072-2.782
				c0.716,0.297,1.481,0.178,2.209,0.166c1.188-0.02,2.376,0.022,3.565-0.016c0.391-0.012,0.776-0.054,1.161-0.108
				c0.302,0.091,0.142,0.274,0.063,0.408c-0.17,0.287-0.342,0.577-0.534,0.85c-0.319,0.453-0.483,0.924-0.296,1.474
				c-0.154,0.373-0.468,0.423-0.801,0.356c-1.115-0.223-2.24-0.038-3.351-0.018c-0.887,0.018-1.774-0.073-2.662-0.007
				C16.843,28.562,16.464,28.661,16.575,28.227z"/>
			<path style="fill-rule:evenodd;clip-rule:evenodd;fill:#FCBC21;" d="M54.487,34.108c-0.086,0.315-0.296,0.36-0.577,0.275
				c-0.521-0.157-1.035-0.062-1.565-0.02c-0.546,0.044-1.106,0.112-1.667,0.022c-0.365-0.06-0.752-0.094-1.113-0.034
				c-0.909,0.148-1.819,0.018-2.727,0.052c-0.914,0.034-1.843,0.042-2.756-0.015c-0.486-0.03-0.351,0.444-0.642,0.482
				c-0.218-0.71,0.067-1.347,0.29-1.993c0.201-0.215,0.465-0.248,0.736-0.249c2.664-0.008,5.329-0.029,7.992-0.094
				c0.357-0.009,0.708,0.015,1.054,0.104C53.904,33.085,54.205,33.591,54.487,34.108z"/>
			<path style="fill-rule:evenodd;clip-rule:evenodd;fill:#FCA91D;" d="M2.541,21.392c0.436-0.315,0.95-0.202,1.42-0.206
				c2.372-0.019,4.744,0.008,7.116,0.021c0.086,0,0.129-0.039,0.147-0.116c0.347,0.52,0.26,1.174,0.534,1.716
				c0.041,0.389-0.279,0.378-0.486,0.364c-0.891-0.061-1.784,0.105-2.666-0.008c-0.613-0.079-1.207,0.009-1.81,0.023
				c-1.051,0.026-2.103,0.002-3.155,0.012C3.424,23.199,3.212,23.19,3.06,23C2.887,22.464,2.714,21.928,2.541,21.392z"/>
			<path style="fill-rule:evenodd;clip-rule:evenodd;fill:#FBBA21;" d="M53.512,32.64c-0.098,0.099-0.224,0.099-0.349,0.095
				c-1.826-0.063-3.652,0.195-5.47,0.076c-1.103-0.072-2.193,0.156-3.288-0.003c-0.202-0.029-0.426,0.021-0.614,0.142
				c-0.206-0.153-0.175-0.369-0.155-0.582c0.095-0.277,0.107-0.558,0.021-0.841c-0.011-0.123,0.009-0.239,0.077-0.345
				c0.172-0.207,0.404-0.184,0.639-0.181c1.24,0.02,2.485,0.025,3.722,0.01c1.49-0.018,2.985,0.023,4.476-0.06
				c0.31-0.018,0.655-0.039,0.862,0.292C53.085,31.73,53.203,32.19,53.512,32.64z"/>
			<path style="fill-rule:evenodd;clip-rule:evenodd;fill:#FCAB1E;" d="M3.06,23c1.502-0.069,3.011,0.115,4.51-0.109
				c0.396-0.06,0.772,0.091,1.16,0.099c0.863,0.018,1.725-0.083,2.588-0.002c0.163,0.016,0.371,0.064,0.44-0.182
				c0.257,0.536,0.416,1.104,0.539,1.682c0.109,0.36-0.18,0.328-0.364,0.332c-0.778,0.016-1.557-0.002-2.335-0.012
				c-1.293-0.017-2.586,0.03-3.878,0.015c-0.67-0.008-1.341,0.102-2.011,0C3.493,24.215,3.277,23.607,3.06,23z"/>
			<path style="fill-rule:evenodd;clip-rule:evenodd;fill:#FCC322;" d="M42.48,37.117c0.158-0.062,0.289-0.173,0.33-0.329
				c0.208-0.787,0.809-0.798,1.435-0.729c0.902,0.1,1.803-0.011,2.703-0.024c1.007-0.016,2.013,0.004,3.012,0.091
				c0.339,0.029,0.66-0.037,0.992-0.024c0.98,0.038,1.962-0.001,2.945,0.019c0.566,0.012,1.196,0.12,1.757-0.164
				c0.359,0.229,0.355,0.698,0.645,0.974c-0.063,0.25-0.268,0.193-0.436,0.193c-1.06,0.006-2.129,0.13-3.175,0.073
				c-1.497-0.08-2.982,0.117-4.472,0.031c-1.66-0.095-3.32-0.102-4.982-0.106c-0.278-0.001-0.529,0.035-0.745,0.219
				c-0.055-0.046-0.066-0.104-0.048-0.171C42.454,37.151,42.467,37.135,42.48,37.117z"/>
			<path style="fill-rule:evenodd;clip-rule:evenodd;fill:#FCB720;" d="M53.431,31.243c-0.821-0.232-1.658-0.108-2.485-0.077
				c-0.613,0.022-1.22-0.089-1.836-0.01c-0.234,0.03-0.489-0.034-0.728,0.059c-0.413,0.16-0.798-0.126-1.195-0.08
				c-0.84,0.098-1.688-0.082-2.523,0.092c-0.288,0.06-0.583-0.226-0.872,0.009c-0.31-0.458-0.346-0.96-0.236-1.485
				c0.97,0.136,1.94,0.024,2.909,0.033c0.771,0.007,1.542-0.063,2.317-0.026c0.692,0.032,1.388,0.089,2.1,0.019
				c0.991-0.099,2.007,0.025,3.01,0.087c0.199,0.013,0.34-0.04,0.494-0.123C54.114,30.271,53.794,30.771,53.431,31.243z"/>
			<path style="fill-rule:evenodd;clip-rule:evenodd;fill:#FCB420;" d="M4.799,28.024c0.189,0.271,0.526,0.307,0.765,0.277
				c0.86-0.102,1.713,0.063,2.581-0.007c0.69-0.057,1.427-0.124,2.095-0.078c0.86,0.06,1.733-0.076,2.589,0.112
				c0.272,0.06,0.542-0.037,0.539-0.413c0.231,0.579,0.435,1.167,0.549,1.782c0.106,0.324-0.118,0.381-0.342,0.381
				c-0.836,0.001-1.667,0.076-2.509,0.01c-0.702-0.055-1.417,0.018-2.127,0.004c-1.066-0.02-2.133-0.088-3.2-0.018
				c-0.11,0.007-0.205-0.052-0.288-0.124C5.194,29.322,4.955,28.688,4.799,28.024z"/>
			<path style="fill-rule:evenodd;clip-rule:evenodd;fill:#FBBA21;" d="M14.87,32.728c-0.679,0.108-1.365,0.232-2.043,0.094
				c-0.295-0.06-0.564,0.007-0.833,0.022c-0.93,0.053-1.853-0.108-2.785-0.022C8.352,32.9,7.483,32.787,6.62,32.868
				c-0.068,0.006-0.146-0.086-0.219-0.133c-0.206-0.406-0.342-0.836-0.435-1.279c0.118-0.329,0.408-0.389,0.692-0.395
				c0.923-0.017,1.848-0.083,2.77-0.033c1.121,0.061,2.239-0.032,3.359,0.01c0.513,0.02,1.027-0.001,1.541,0.011
				C14.599,31.58,14.74,32.152,14.87,32.728z"/>
			<path style="fill-rule:evenodd;clip-rule:evenodd;fill:#FCC823;" d="M25.251,39.158c0.147,0.066,0.25,0.227,0.436,0.211
				c0.748,0.41,1.455,0.868,1.93,1.605c-0.488-0.071-0.794-0.453-1.173-0.704c-0.266-0.176-0.528-0.265-0.845-0.26
				c-0.712,0.013-1.424,0.017-2.136,0.001c-1.109-0.023-2.219-0.105-3.327-0.085c-0.51,0.009-1.016,0.037-1.523-0.019
				c-0.214,0.083-0.428,0.083-0.642,0c-0.928,0.146-1.856,0.188-2.784,0c-0.346,0.148-0.726-0.044-1.071,0.106
				c-1.051-0.085-2.089-0.106-3.153,0.016c-0.674,0.078-1.428,0.054-2.133-0.111c-0.101-0.196-0.195-0.395-0.185-0.624
				c-0.104-0.271,0.066-0.325,0.268-0.302c1.756,0.201,3.518-0.004,5.278,0.073c1.091,0.049,2.198,0.008,3.296-0.015
				c1.601-0.033,3.198,0.063,4.797,0.013c0.906-0.028,1.811-0.155,2.716,0.021C25.087,39.104,25.176,39.104,25.251,39.158z"/>
			<path style="fill-rule:evenodd;clip-rule:evenodd;fill:#FCB520;" d="M16.575,28.227c0.186,0.294,0.541,0.205,0.737,0.174
				c0.471-0.076,0.925,0.093,1.361,0.03c0.933-0.134,1.871,0.049,2.808-0.14c0.479-0.098,1.016,0.032,1.517,0.118
				c0.339,0.058,0.595,0.041,0.759-0.292c0.133-0.046,0.252,0.007,0.342,0.088c0.499,0.45,1.15,0.746,1.442,1.408
				c-0.303,0.474-0.8,0.38-1.234,0.377c-0.419-0.004-0.843-0.066-1.26-0.138c-0.136-0.036-0.266-0.031-0.387,0.055
				c-0.178,0.095-0.371,0.125-0.567,0.124c-1.805-0.004-3.611,0.054-5.412-0.109c-0.247-0.022-0.634,0.055-0.542-0.429
				C16.231,29.053,16.369,28.628,16.575,28.227z"/>
			<path style="fill-rule:evenodd;clip-rule:evenodd;fill:#FBBA21;" d="M22.664,33.056c-0.242-0.286-0.585-0.306-0.913-0.302
				c-0.592,0.009-1.187,0.109-1.776,0.077c-1.379-0.075-2.756,0.065-4.134,0.012c-0.263-0.01-0.529,0.014-0.771-0.123
				c0.109-0.561,0.305-1.092,0.528-1.614c0.766-0.222,1.55-0.128,2.327-0.127c1.364,0.001,2.729-0.12,4.094,0.031
				c0.232,0.025,0.463,0.021,0.626,0.227C22.804,31.841,22.88,32.447,22.664,33.056z"/>
			<path style="fill-rule:evenodd;clip-rule:evenodd;fill:#FCAA1E;" d="M19.559,21.995c0.093,0.137,0.24,0.163,0.379,0.136
				c0.979-0.19,1.96,0.052,2.95-0.027c0.619-0.05,1.287-0.053,1.936,0.011c0.533,0.052,1.083-0.02,1.621-0.076
				c0.609-0.065,1.195,0.103,1.795,0.121c0.112,0.004,0.179,0.105,0.229,0.204c-0.243,0.526-0.801,0.587-1.234,0.835
				c-0.854,0.487-1.768,0.611-2.729,0.456c-0.212-0.033-0.426-0.036-0.64-0.038c-1.566-0.013-3.131,0.085-4.697,0.026
				c-0.216-0.008-0.436,0.025-0.55-0.222C18.888,22.917,19.172,22.423,19.559,21.995z"/>
			<path style="fill-rule:evenodd;clip-rule:evenodd;fill:#FCB820;" d="M14.329,31.049c-0.104,0.294-0.358,0.188-0.548,0.181
				c-1.574-0.052-3.148,0.029-4.725-0.042c-0.818-0.036-1.663,0.013-2.495,0.049c-0.225,0.01-0.4,0.137-0.595,0.22
				c-0.229-0.482-0.391-0.987-0.516-1.505c1.016-0.129,2.031-0.038,3.046-0.044c0.726-0.004,1.458,0.102,2.204-0.021
				c0.601-0.1,1.255,0.065,1.892,0.058c0.362-0.005,0.721-0.179,1.096-0.014c0.132,0.058,0.204-0.1,0.228-0.231
				C14.167,30.113,14.187,30.601,14.329,31.049z"/>
			<path style="fill-rule:evenodd;clip-rule:evenodd;fill:#FCA91D;" d="M36.694,21.819c1.625-0.109,3.247,0.044,4.87,0.045
				c0.881,0,1.768-0.013,2.649-0.064c0.794-0.046,1.579,0.014,2.366,0.083c0.109,0.01,0.209,0.037,0.292-0.058
				c0.216,0.323,0.432,0.646,0.648,0.968c0.058,0.442-0.304,0.368-0.523,0.378c-0.869,0.042-1.741,0.026-2.61,0.016
				c-1.704-0.022-3.407-0.002-5.109,0.012c-0.727-0.129-1.292-0.613-1.949-0.901C37.091,22.192,36.763,22.165,36.694,21.819z"/>
			<path style="fill-rule:evenodd;clip-rule:evenodd;fill:#FCAE1E;" d="M3.71,24.822c0.375-0.27,0.845-0.206,1.229-0.191
				C6.57,24.693,8.2,24.57,9.834,24.64c0.776,0.032,1.573,0.069,2.358,0.014c0.039-0.003,0.07-0.108,0.105-0.166
				c0.154,0.338,0.275,0.686,0.328,1.054c-0.026,0.107,0.035,0.276-0.173,0.259c-0.858-0.075-1.712,0.094-2.574,0.023
				c-0.734-0.061-1.47,0.099-2.212,0.035c-0.416-0.036-0.836-0.005-1.255-0.072c-0.533-0.086-1.06,0.069-1.591,0.094
				c-0.266,0.013-0.537,0.031-0.785-0.103C3.871,25.478,3.77,25.157,3.71,24.822z"/>
			<path style="fill-rule:evenodd;clip-rule:evenodd;fill:#FCCB24;" d="M59.611,41.968c-0.278,0.148-0.569,0.095-0.869,0.098
				c-1.378,0.015-2.754-0.097-4.135,0.01c-0.823,0.063-1.663-0.111-2.488-0.064c-0.823,0.047-1.66-0.078-2.472,0.153
				c-0.215-0.322-0.429-0.644-0.644-0.965c0.092-0.008,0.178-0.028,0.231-0.113c0.301-0.125,0.624-0.174,0.938-0.153
				c1.717,0.111,3.436-0.083,5.152,0.04c0.656,0.048,1.317-0.021,1.971-0.071c0.501-0.038,0.971,0.254,1.467,0.077
				c0.035-0.035,0.071-0.07,0.106-0.105C59.275,41.131,59.289,41.653,59.611,41.968z"/>
			<path style="fill-rule:evenodd;clip-rule:evenodd;fill:#FCAB1E;" d="M39.165,23.112c0.433-0.15,0.874-0.138,1.33-0.133
				c2.197,0.026,4.396,0.013,6.593,0.011c0.168,0,0.373,0.052,0.432-0.197c0.355,0.276,0.354,0.765,0.643,1.08
				c-0.208,0.523-0.75,0.385-1.049,0.34c-0.369-0.055-0.722-0.027-1.082-0.052c-1.181-0.077-2.363,0.036-3.547-0.035
				c-0.484-0.029-1.012-0.097-1.513,0.026c-0.176,0.043-0.308-0.043-0.428-0.16c-0.093-0.09-0.193-0.176-0.308-0.023
				C39.751,23.843,39.374,23.583,39.165,23.112z"/>
			<path style="fill-rule:evenodd;clip-rule:evenodd;fill:#FCB720;" d="M22.557,31.235c-1.161-0.13-2.329-0.149-3.492-0.091
				c-0.855,0.043-1.707-0.009-2.56-0.006c-0.296,0.001-0.62,0.286-0.905-0.033c0.118-0.559,0.309-1.093,0.54-1.612
				c0.046,0.277,0.263,0.26,0.453,0.24c0.527-0.056,1.054,0.047,1.574,0.066c1.007,0.037,2.015,0.012,3.021,0.037
				c0.527,0.013,1.065,0.085,1.583-0.1C23.015,30.225,22.925,30.853,22.557,31.235z"/>
			<path style="fill-rule:evenodd;clip-rule:evenodd;fill:#FCAD1E;" d="M24.698,25.562c-0.659,0.375-1.386,0.197-2.08,0.227
				c-0.901,0.039-1.806,0.007-2.71,0.034c-0.625,0.019-1.268-0.008-1.902-0.038c-0.234-0.011-0.377-0.08-0.359-0.34
				c0.092-0.344,0.227-0.67,0.421-0.97c0.378-0.116,0.767-0.185,1.159-0.161c0.939,0.055,1.881,0.043,2.82,0.066
				c1.01,0.025,2.024-0.068,3.038-0.075c0.235-0.002,0.389-0.152,0.55-0.295c0.197-0.176,0.374-0.395,0.684-0.35
				c0.125,0.041,0.187,0.145,0.094,0.234C25.835,24.444,25.401,25.142,24.698,25.562z"/>
			<path style="fill-rule:evenodd;clip-rule:evenodd;fill:#FCAC1E;" d="M26.443,23.746c-0.391-0.048-0.552,0.278-0.77,0.493
				c-0.2,0.198-0.382,0.283-0.688,0.268c-0.986-0.05-1.977,0.088-2.96,0.068c-0.998-0.021-2-0.018-2.997-0.092
				c-0.322-0.024-0.646,0.294-0.96-0.009c0.098-0.396,0.302-0.736,0.55-1.054c0.221,0.172,0.445-0.006,0.665,0.007
				c1.685,0.098,3.371-0.079,5.053,0.015c0.622,0.034,1.227,0.047,1.849,0.005c0.455-0.031,0.709-0.396,1.114-0.45
				C27.202,23.462,26.87,23.658,26.443,23.746z"/>
			<path style="fill-rule:evenodd;clip-rule:evenodd;fill:#FCC823;" d="M25.251,39.158c-0.401,0.207-0.803-0.011-1.204,0.001
				c-1.043,0.03-2.087,0.084-3.131,0.092c-0.897,0.006-1.803-0.119-2.69-0.033c-0.638,0.062-1.287,0.064-1.889-0.007
				c-0.977-0.114-1.923,0.227-2.902,0.014c-0.597-0.13-1.25-0.056-1.873-0.009c-0.897,0.067-1.789,0.086-2.672-0.101
				c-0.181-0.039-0.222,0.041-0.246,0.18c-0.046-0.111-0.092-0.224-0.138-0.336c0.308-0.099,0.623-0.121,0.946-0.126
				c1.305-0.022,2.611-0.124,3.913-0.079c1.245,0.044,2.49,0.068,3.731,0.041c0.77-0.017,1.54,0.05,2.316-0.025
				c0.541-0.054,1.101,0.069,1.67,0.04c1.174-0.061,2.354,0.01,3.532,0.028C24.877,38.842,25.108,38.916,25.251,39.158z"/>
			<path style="fill-rule:evenodd;clip-rule:evenodd;fill:#FCCA24;" d="M38.206,41.514c0.56-0.577,1.301-0.626,2.026-0.634
				c2.092-0.023,4.184-0.007,6.276-0.01c0.445-0.001,0.889-0.006,1.324,0.108c-0.073,0.258-0.234,0.458-0.419,0.643
				c-0.856-0.177-1.724-0.13-2.588-0.118c-0.702,0.009-1.396-0.086-2.102-0.055c-1.441,0.063-2.886,0.014-4.326,0.123
				C38.335,41.576,38.27,41.534,38.206,41.514z"/>
			<path style="fill-rule:evenodd;clip-rule:evenodd;fill:#FCCA24;" d="M58.763,40.979c-0.26,0.191-0.543,0.109-0.819,0.064
				c-0.601-0.1-1.2-0.105-1.8,0.004c-0.104,0.02-0.216,0.053-0.315,0.034c-1.245-0.236-2.5-0.019-3.75-0.061
				c-0.937-0.03-1.901-0.096-2.845,0.065c0.198-0.234,0.469-0.215,0.736-0.215c1.913,0.001,3.825-0.01,5.738,0.005
				C56.727,40.883,57.751,40.746,58.763,40.979z"/>
			<path style="fill-rule:evenodd;clip-rule:evenodd;fill:#FCC823;" d="M14.117,40.015c0.339-0.216,0.715-0.06,1.071-0.106
				C14.849,40.125,14.473,39.968,14.117,40.015z"/>
			<path style="fill-rule:evenodd;clip-rule:evenodd;fill:#FCC823;" d="M39.587,40.439c0.109-0.151,0.205-0.321,0.428-0.321
				c0.04,0.001,0.079,0.003,0.118,0.004C40.018,40.343,39.848,40.469,39.587,40.439z"/>
			<path style="fill-rule:evenodd;clip-rule:evenodd;fill:#FCC823;" d="M17.971,39.908c0.214,0,0.428,0,0.642,0
				C18.399,40.067,18.185,40.067,17.971,39.908z"/>
			<path style="fill-rule:evenodd;clip-rule:evenodd;fill:#FCB520;" d="M33.921,21.261c-0.462,0-0.924,0-1.386,0
				C32.997,21.116,33.459,21.116,33.921,21.261z"/>
			<path style="fill-rule:evenodd;clip-rule:evenodd;fill:#FCB520;" d="M34.991,21.399c-0.319-0.043-0.659,0.052-0.957-0.139
				C34.388,21.066,34.686,21.254,34.991,21.399z"/>
			<path style="fill-rule:evenodd;clip-rule:evenodd;fill:#FCB31F;" d="M31.566,21.368c-0.216,0.218-0.499,0.083-0.745,0.139
				C31.049,21.354,31.274,21.182,31.566,21.368z"/>
			<path style="fill-rule:evenodd;clip-rule:evenodd;fill:#FCB31F;" d="M30.83,21.5c-0.289,0.099-0.578,0.197-0.867,0.296
				C30.17,21.459,30.504,21.491,30.83,21.5z"/>
			<path style="fill-rule:evenodd;clip-rule:evenodd;fill:#FCB520;" d="M35.636,21.582c-0.161-0.118-0.355-0.072-0.533-0.105
				C35.311,21.359,35.512,21.278,35.636,21.582z"/>
			<path style="fill-rule:evenodd;clip-rule:evenodd;fill:#FCC122;" d="M41.942,37.977c0.089-0.345,0.355-0.577,0.541-0.861
				c0.002,0.074,0.004,0.148,0.006,0.224C42.337,37.577,42.279,37.896,41.942,37.977z"/>
			<path style="fill-rule:evenodd;clip-rule:evenodd;fill:#FCB720;" d="M43.435,29.844c-0.271,0.493-0.52,1-0.934,1.397
				c-0.425,0.169-0.874,0.07-1.31,0.107c-0.471,0.04-0.949,0.008-1.425,0.022c-0.327,0.011-0.728,0.004-0.816-0.468
				c0.608-0.419,1.217-0.837,1.825-1.256c0.045,0.215,0.227,0.231,0.371,0.189C41.913,29.614,42.672,29.888,43.435,29.844z"/>
			<path style="fill-rule:evenodd;clip-rule:evenodd;fill:#FEC03D;" d="M43.79,32.302c0-0.247,0.001-0.495,0.001-0.742
				C43.925,31.807,43.927,32.055,43.79,32.302z"/>
			<path style="fill-rule:evenodd;clip-rule:evenodd;fill:#FCB720;" d="M23.962,31.354c-0.377-0.501-0.769-0.995-0.964-1.605
				c0.706-0.133,1.412,0.239,2.123-0.004c0.15-0.051,0.32-0.023,0.35-0.235c0.716,0.502,1.432,1.005,2.148,1.507
				c-0.167,0.345-0.496,0.3-0.787,0.306C25.875,31.342,24.918,31.312,23.962,31.354z"/>
			<path style="fill-rule:evenodd;clip-rule:evenodd;fill:#FCBA21;" d="M23.962,31.354c0.112-0.244,0.332-0.227,0.545-0.226
				c0.832,0,1.663-0.002,2.494,0.001c0.214,0.001,0.425-0.001,0.617-0.113c0.428,0.061,0.738,0.372,1.123,0.526
				c0.735,0.295,1.46,0.619,2.241,0.786c0.461,0.099,0.457,0.323,0.17,0.625c-0.526,0.172-1.069,0.037-1.591,0.017
				c-1.068-0.04-2.134,0.037-3.199-0.02c-0.343-0.018-0.667,0.125-1.007,0.116C24.757,32.604,24.374,31.968,23.962,31.354z"/>
			<path style="fill-rule:evenodd;clip-rule:evenodd;fill:#FBBA21;" d="M38.951,30.903c0.334,0.275,0.698,0.296,1.134,0.285
				c0.802-0.02,1.617-0.188,2.416,0.053c-0.255,0.637-0.782,1.073-1.179,1.605c-0.926,0.21-1.866,0.057-2.798,0.084
				c-0.953,0.028-1.909-0.049-2.854,0.138c-0.124,0.024-0.245,0.036-0.366-0.007c-0.083-0.108-0.177-0.208-0.245-0.325
				c-0.083-0.143-0.146-0.258,0.119-0.33c1.232-0.339,2.433-0.762,3.514-1.469C38.758,30.895,38.863,30.913,38.951,30.903z"/>
			<path style="fill-rule:evenodd;clip-rule:evenodd;fill:#FCBC21;" d="M35.304,33.062c0.389-0.313,0.88-0.301,1.319-0.309
				c1.517-0.029,3.035,0.014,4.552,0.033c0.05,0.001,0.099,0.04,0.147,0.061c-0.035,0.036-0.071,0.071-0.106,0.106
				c-0.229,0.129-0.477,0.237-0.536,0.536c-0.504,0.51-1.04,1.01-1.666,1.334c-0.546,0.283-1.14-0.036-1.681-0.235
				C36.51,34.283,35.845,33.75,35.304,33.062z"/>
			<path style="fill-rule:evenodd;clip-rule:evenodd;fill:#FCBC21;" d="M25.354,33.067c0.284-0.342,0.694-0.342,1.061-0.302
				c0.717,0.078,1.427-0.082,2.138-0.005c0.864,0.094,1.749-0.093,2.599,0.193c-0.774,1.271-2.03,1.742-3.393,1.991
				c-0.201,0.037-0.474-0.189-0.68-0.34C26.453,34.151,25.84,33.68,25.354,33.067z"/>
			<path style="fill-rule:evenodd;clip-rule:evenodd;fill:#FBBA21;" d="M40.68,33.489c-0.019-0.375,0.051-0.444,0.536-0.536
				C41.037,33.132,40.859,33.311,40.68,33.489z"/>
		</g>
	</g>
</g>
</svg>
