<?xml version="1.0" encoding="iso-8859-1"?>
<!-- Generator: Adobe Illustrator 16.0.0, SVG Export Plug-In . SVG Version: 6.00 Build 0)  -->
<!DOCTYPE svg PUBLIC "-//W3C//DTD SVG 1.1//EN" "http://www.w3.org/Graphics/SVG/1.1/DTD/svg11.dtd">
<svg version="1.1" id="Layer_1" xmlns="http://www.w3.org/2000/svg" xmlns:xlink="http://www.w3.org/1999/xlink" x="0px" y="0px"
	 width="64px" height="64px" viewBox="0 0 64 64" style="enable-background:new 0 0 64 64;" xml:space="preserve">
<g>
	<path style="fill-rule:evenodd;clip-rule:evenodd;fill:#002C40;" d="M59.566,21.307c-0.633,0-1.147-0.043-1.62-0.134
		c-0.478-0.041-0.691-0.401-0.869-0.768c-0.538-1.098-1.139-2.209-1.836-3.396l-0.214-0.276c-1.116-1.447-2.271-2.943-3.496-4.342
		c-0.521-0.351-1.001-0.771-1.465-1.177c-0.33-0.289-0.659-0.577-1.007-0.846c-4.24-3.271-8.679-5.156-13.57-5.762
		c-1.217-0.15-2.434-0.227-3.617-0.227c-5.939,0-11.567,1.929-16.726,5.734c-0.452,0.333-0.881,0.71-1.296,1.075
		c-0.445,0.392-0.906,0.797-1.397,1.148c-0.405,0.519-0.835,1.021-1.265,1.524c-0.817,0.956-1.663,1.944-2.332,3.046l-0.259,0.424
		c-0.471,0.769-0.957,1.564-1.346,2.4c-0.157,0.391-0.381,0.622-0.704,0.73c-0.478,0.057-0.991,0.085-1.573,0.085
		c-0.604,0-1.206-0.029-1.81-0.059l-0.438-0.021c-0.165-0.008-0.303-0.104-0.422-0.298c1.031-2.809,2.582-5.512,4.611-8.042
		c5.044-6.29,11.52-10.184,19.246-11.573c2.086-0.375,4.159-0.565,6.164-0.565c7.13,0,13.777,2.393,19.758,7.112
		c4.327,3.416,7.609,7.896,9.756,13.317c0.044,0.112,0.077,0.229,0.11,0.347l0.047,0.161c-0.119,0.216-0.313,0.324-0.577,0.328
		c-0.255,0.005-0.51,0.015-0.765,0.023C60.292,21.293,59.929,21.307,59.566,21.307z"/>
	<path style="fill-rule:evenodd;clip-rule:evenodd;fill:#002C40;" d="M2.313,20.166c1.082-2.938,2.661-5.6,4.61-8.031
		c4.985-6.217,11.404-10.16,19.24-11.569c9.582-1.725,18.262,0.506,25.914,6.545c4.471,3.529,7.659,8.027,9.752,13.313
		c0.064,0.164,0.105,0.338,0.157,0.507c-0.125,0.221-0.328,0.312-0.567,0.315c-1.158,0.021-2.32,0.139-3.472-0.083
		c-0.474-0.041-0.683-0.393-0.862-0.762c-0.566-1.157-1.184-2.287-1.836-3.397c-1.207-1.563-2.408-3.133-3.711-4.62
		c-0.889-0.598-1.629-1.372-2.474-2.023c-4.024-3.105-8.493-5.135-13.575-5.764c-7.541-0.935-14.284,1.035-20.35,5.51
		c-0.938,0.69-1.745,1.544-2.693,2.224c-1.195,1.527-2.584,2.9-3.6,4.573c-0.563,0.927-1.146,1.838-1.604,2.825
		c-0.136,0.336-0.339,0.604-0.698,0.725C5.272,20.605,4,20.517,2.727,20.459C2.539,20.45,2.41,20.323,2.313,20.166z"/>
	<path style="fill-rule:evenodd;clip-rule:evenodd;fill:#005A80;" d="M42.555,61.465c-3.546-0.008-7.093-0.011-10.639-0.011
		s-7.093,0.003-10.639,0.009c-0.203,0-0.401-0.02-0.6-0.039c-0.197-0.02-0.395-0.04-0.592-0.04c-0.204,0-0.384,0.022-0.549,0.067
		c-1.606-0.642-2.998-1.364-4.26-2.21c-0.039-0.217-0.02-0.364,0.054-0.458c0.097-0.121,0.272-0.134,0.442-0.146
		c0.147-0.01,0.3-0.021,0.396-0.103c-0.602-0.322-1.066-0.864-1.42-1.642c-0.286-0.626-0.605-1.068-1.007-1.39
		c-0.207-0.166-0.464-0.373-0.314-0.717c0.111-0.259,0.334-0.401,0.681-0.434c0.278-0.027,0.56-0.032,0.839-0.032
		c0,0,6.859-0.002,8.475-0.006c0.348,0,0.685,0.047,1.009,0.092l0.28,0.038c0.491,0.069,0.777,0.391,0.9,1.011
		c0.102,0.518-0.291,0.756-0.67,0.986c-0.537,0.328-1.083,0.61-1.63,0.893l-0.184,0.095c-0.046,0.023-0.098,0.045-0.151,0.066
		c-0.177,0.072-0.36,0.146-0.352,0.324c0.011,0.222,0.212,0.265,0.406,0.307c0.064,0.014,0.129,0.027,0.184,0.047
		c1.488,0.531,3.1,0.919,4.79,1.155c1.244,0.173,2.72,0.35,4.237,0.35c0.547,0,1.08-0.023,1.587-0.069
		c0.621,0.115,1.277,0.17,2.068,0.17c0.576,0,1.153-0.029,1.732-0.059c1.069-0.055,2.211-0.08,3.595-0.08
		c0.958,0,1.915,0.012,2.872,0.024l1.472,0.017c0.488,0.004,1.01,0.066,1.016,0.765c-0.327,0.124-0.634,0.286-0.93,0.442
		c-0.381,0.2-0.774,0.408-1.204,0.52c-0.158-0.034-0.32-0.052-0.502-0.052c-0.231,0-0.461,0.027-0.691,0.055
		c-0.232,0.026-0.464,0.054-0.697,0.054H42.555z"/>
	<path style="fill-rule:evenodd;clip-rule:evenodd;fill:#005A80;" d="M19.534,61.441c-1.489-0.597-2.917-1.314-4.251-2.209
		c-0.137-0.827,0.604-0.443,0.893-0.689c-0.654-0.367-1.094-0.941-1.418-1.653c-0.236-0.519-0.543-1.02-1.01-1.394
		c-0.214-0.172-0.455-0.374-0.312-0.705c0.122-0.283,0.374-0.399,0.673-0.428c0.278-0.027,0.559-0.032,0.838-0.032
		c2.825-0.003,5.65,0.002,8.475-0.006c0.438-0.001,0.86,0.075,1.288,0.13c0.579,0.082,0.796,0.52,0.892,1.003
		c0.102,0.516-0.294,0.75-0.678,0.983c-0.584,0.356-1.193,0.665-1.801,0.979c-0.195,0.102-0.52,0.159-0.508,0.4
		c0.015,0.304,0.373,0.282,0.597,0.362c1.556,0.555,3.16,0.928,4.792,1.155c1.93,0.269,3.869,0.459,5.826,0.28
		c1.264,0.236,2.527,0.177,3.801,0.111c2.645-0.135,5.291-0.063,7.938-0.039c0.496,0.004,1,0.064,1.006,0.755
		c-0.734,0.263-1.364,0.755-2.127,0.952c-0.635-0.144-1.259,0.058-1.893,0.057c-7.092-0.016-14.186-0.014-21.277-0.002
		C20.695,61.454,20.115,61.283,19.534,61.441z"/>
	<path style="fill-rule:evenodd;clip-rule:evenodd;fill:#005B81;" d="M31.923,64.01c-4.019,0-8.007-0.771-11.854-2.29
		c-0.126-0.051-0.247-0.115-0.367-0.18l-0.172-0.09c0.187-0.369,0.518-0.369,0.838-0.369H43.64c0.322,0,0.627,0,0.816,0.313
		c-2.612,1.261-5.557,2.049-9.006,2.424C34.273,63.945,33.087,64.01,31.923,64.01z"/>
	<path style="fill-rule:evenodd;clip-rule:evenodd;fill:#005B81;" d="M19.534,61.441c0.19-0.355,0.524-0.351,0.86-0.351
		c7.748,0.001,15.497,0,23.245,0c0.31,0,0.618-0.005,0.808,0.308c-2.85,1.362-5.882,2.07-8.998,2.409
		c-5.293,0.574-10.424-0.141-15.377-2.098C19.887,61.637,19.713,61.531,19.534,61.441z"/>
	<path style="fill-rule:evenodd;clip-rule:evenodd;fill:#00587D;" d="M15.279,59.241c-0.971-0.441-1.786-1.077-2.456-1.641
		c-0.072-0.167-0.083-0.292-0.037-0.386c0.068-0.141,0.255-0.189,0.435-0.236c0.159-0.043,0.236-0.047,0.311-0.05
		c0.186-0.009,0.361-0.017,0.42-0.237c0.063-0.233-0.083-0.382-0.237-0.539c-0.049-0.049-0.097-0.098-0.138-0.149
		c-0.216-0.271-0.505-0.462-0.784-0.646s-0.568-0.376-0.786-0.647c-0.103-0.151-0.219-0.29-0.335-0.429
		c-0.146-0.173-0.291-0.345-0.405-0.539c-0.23-0.39-0.27-0.801-0.104-1.1c0.146-0.261,0.426-0.408,0.789-0.416
		c1.881-0.04,3.763-0.064,5.645-0.064c1.835,0,3.623,0.023,5.313,0.069c0.058,0.001,0.115,0.017,0.17,0.032
		c0.043,0.011,0.085,0.022,0.128,0.028c0.897,0.22,1.77,1.53,1.583,2.377l-2.513,0.011l-7.559,0.01
		c-0.305,0.001-0.575,0.002-0.831,0.052c-0.154,0.029-0.258,0.101-0.277,0.19c-0.019,0.083,0.037,0.176,0.155,0.261
		c0.532,0.379,0.864,0.921,1.186,1.444c0.175,0.286,0.351,0.572,0.558,0.835c0.289,0.365,0.595,0.698,1.147,0.762
		c0.225,0.024,0.497,0.055,0.618,0.214c0.053,0.069,0.071,0.157,0.055,0.263c-0.037,0.229-0.193,0.261-0.342,0.261
		c-0.053,0-0.273-0.018-0.325-0.018c-0.047,0-0.086,0.004-0.12,0.011c-0.056,0.012-0.117,0.018-0.188,0.018
		c-0.082,0-0.166-0.008-0.251-0.016c-0.083-0.008-0.167-0.016-0.249-0.016c-0.184,0-0.395,0.034-0.562,0.289l-0.005,0.007
		L15.279,59.241z"/>
	<path style="fill-rule:evenodd;clip-rule:evenodd;fill:#00587D;" d="M24.779,54.666c-3.354,0.004-6.707,0.007-10.062,0.013
		c-0.278,0.001-0.563-0.001-0.833,0.052c-0.305,0.059-0.402,0.271-0.126,0.469c0.817,0.582,1.148,1.528,1.741,2.277
		c0.316,0.399,0.617,0.704,1.154,0.766c0.27,0.03,0.727,0.068,0.664,0.465c-0.064,0.403-0.504,0.188-0.779,0.246
		c-0.419,0.09-0.928-0.22-1.256,0.279c-0.907-0.413-1.695-1.002-2.453-1.64c-0.213-0.498,0.168-0.54,0.484-0.629
		c0.229-0.063,0.561,0.051,0.646-0.27c0.084-0.315-0.207-0.484-0.377-0.697c-0.433-0.542-1.135-0.753-1.57-1.294
		c-0.229-0.339-0.533-0.618-0.739-0.967c-0.442-0.747-0.145-1.483,0.677-1.501c3.652-0.078,7.305-0.094,10.957,0.005
		c0.1,0.003,0.197,0.048,0.297,0.061C24.104,52.521,24.967,53.816,24.779,54.666z"/>
	<path style="fill-rule:evenodd;clip-rule:evenodd;fill:#00344B;" d="M18.885,31.393c-0.082,0-0.162-0.011-0.245-0.032
		c-0.133-0.036-0.277-0.054-0.441-0.054c-0.165,0-0.33,0.018-0.495,0.034c-0.166,0.018-0.331,0.035-0.497,0.035
		c-2.217-0.006-4.429-0.006-6.641-0.006L4.57,31.371c-0.71,0-1.36-0.083-1.528-1.088c-0.044-0.259-0.35-0.27-0.596-0.277
		c-0.271-0.011-0.5-0.011-0.728-0.011c-0.256,0-0.511-0.001-0.767-0.014c-0.322-0.016-0.63-0.031-0.809-0.344
		c-0.044-0.664,0.067-1.32,0.175-1.955c0.167-0.262,0.405-0.372,0.734-0.376c0.233-0.003,0.467-0.009,0.7-0.015
		c0.304-0.008,0.606-0.016,0.91-0.016c0.572,0,1.036,0.029,1.46,0.093c0.526,0.241,0.546,0.732,0.47,1.102
		c-0.1,0.484,0.067,0.769,0.56,0.95c1.748,0.039,3.621,0.057,6.069,0.057l6.137-0.012c0.835,0,1.67,0.002,2.505,0.008l0.384-0.01
		c0.204,0,0.439,0.026,0.631,0.226c0.163,0.638-0.124,1.05-0.9,1.3c-0.187,0.061-0.367,0.134-0.547,0.207
		c-0.17,0.068-0.339,0.138-0.513,0.195L18.885,31.393z"/>
	<path style="fill-rule:evenodd;clip-rule:evenodd;fill:#00344B;" d="M0.152,29.633c-0.044-0.671,0.07-1.327,0.182-1.983
		c0.177-0.246,0.43-0.329,0.719-0.333c1.023-0.011,2.049-0.09,3.068,0.063c0.482,0.222,0.549,0.666,0.462,1.09
		c-0.11,0.537,0.114,0.795,0.565,0.962c4.906,0.11,9.811,0.021,14.715,0.053c0.346,0.003,0.721-0.085,1.008,0.213
		c0.154,0.609-0.107,1.029-0.896,1.283c-0.362,0.117-0.701,0.283-1.06,0.402c-0.093,0.003-0.183-0.008-0.272-0.031
		c-0.481-0.131-0.961,0.017-1.441,0.016c-4.071-0.011-8.143-0.004-12.214-0.008c-0.838-0.001-1.735,0.12-1.936-1.077
		c-0.048-0.282-0.394-0.277-0.649-0.287c-0.482-0.02-0.967,0.002-1.449-0.022C0.646,29.956,0.333,29.949,0.152,29.633z"/>
	<path style="fill-rule:evenodd;clip-rule:evenodd;fill:#00364E;" d="M16.336,32.733c-0.087-0.024-0.17-0.047-0.259-0.047
		c-1.602-0.169-3.253-0.246-5.41-0.246c-0.914,0-1.829,0.014-2.743,0.026c-0.914,0.014-1.828,0.026-2.742,0.026
		c-0.656,0-1.312-0.007-1.967-0.025L3.06,32.461c-0.747-0.619-1.656-0.655-2.537-0.689l-0.225-0.01
		c-0.077-0.004-0.141-0.05-0.203-0.095c-0.073-0.199-0.079-0.344-0.084-0.488c-0.018-0.511-0.036-1.039,0.132-1.549l0.252-0.007
		l1.204-0.001c0.482,0,0.965,0.001,1.446,0.007c0.338,0.004,0.529,0.066,0.605,0.196c0.07,0.122,0.039,0.299-0.097,0.542
		c-0.088,0.156-0.107,0.285-0.06,0.384c0.056,0.111,0.198,0.185,0.425,0.218c0.17,0.025,0.342,0.029,0.514,0.029
		c0,0,10.285-0.001,13.339,0.003c0,0,0.358-0.014,0.429-0.014c0.188,0,0.406,0.021,0.604,0.184c0.062,0.171,0.022,0.337-0.099,0.429
		l-0.255,0.197c-0.591,0.463-1.202,0.942-2.034,0.958h-0.001L16.336,32.733z"/>
	<path style="fill-rule:evenodd;clip-rule:evenodd;fill:#00364E;" d="M0.152,29.633c0.965,0.001,1.929-0.005,2.893,0.006
		c0.486,0.006,0.832,0.128,0.5,0.724c-0.225,0.401,0.021,0.565,0.373,0.616c0.25,0.037,0.506,0.028,0.76,0.028
		c4.365,0.001,8.729-0.001,13.094,0.004c0.348,0.001,0.717-0.087,1.025,0.168c0.057,0.159,0.021,0.323-0.098,0.413
		c-0.688,0.524-1.338,1.135-2.283,1.153c-0.131-0.033-0.257-0.082-0.396-0.065c-4.263-0.476-8.54-0.102-12.806-0.222
		c-0.051,0.001-0.117,0.021-0.148-0.005c-0.813-0.673-1.797-0.658-2.769-0.701c-0.101-0.005-0.18-0.087-0.266-0.14
		C0.027,30.95-0.063,30.282,0.152,29.633z"/>
	<path style="fill-rule:evenodd;clip-rule:evenodd;fill:#004866;" d="M3.521,45.273c-0.205,0-0.41-0.013-0.615-0.049
		c-0.379-0.67-0.621-1.255-0.769-1.844c-0.008-0.196,0.04-0.35,0.143-0.456c0.114-0.119,0.294-0.18,0.533-0.18
		c0.001,0,0.002,0,0.002,0c0.742,0,1.274-0.255,1.74-0.8c0.24-0.281,0.588-0.428,1.033-0.434c1.59-0.021,3.181-0.028,4.771-0.028
		c1.819,0,3.638,0.01,5.456,0.02c0.143,0,0.28,0.029,0.419,0.058c0.111,0.023,0.223,0.046,0.336,0.055
		c0.876,0.275,1.262,0.95,1.009,1.76c-0.317,0.331-0.712,0.358-1.123,0.358l-0.196-0.001c-1.52,0.007-2.989,0.01-4.459,0.01
		c-1.607,0-5.182-0.009-5.182-0.009c-0.716,0-1.324,0.077-1.524,1.022c-0.067,0.313-0.428,0.449-0.741,0.473
		C4.028,45.254,3.774,45.273,3.521,45.273z"/>
	<path style="fill-rule:evenodd;clip-rule:evenodd;fill:#004866;" d="M2.907,45.215c-0.325-0.582-0.598-1.187-0.761-1.836
		c-0.02-0.481,0.305-0.63,0.688-0.624c0.718,0.012,1.268-0.264,1.729-0.803c0.257-0.301,0.625-0.425,1.025-0.431
		c3.409-0.045,6.818-0.027,10.227-0.009c0.256,0.001,0.5,0.094,0.754,0.112c0.867,0.273,1.251,0.944,1,1.747
		c-0.381,0.396-0.881,0.348-1.359,0.351c-3.076,0.015-6.153,0.01-9.23,0.003c-0.828-0.002-1.657-0.092-1.895,1.028
		c-0.064,0.299-0.402,0.44-0.732,0.465C3.871,45.256,3.389,45.3,2.907,45.215z"/>
	<path style="fill-rule:evenodd;clip-rule:evenodd;fill:#004A6A;" d="M4.587,47.09c-0.257,0-0.513-0.01-0.769-0.021
		c-0.359-0.56-0.713-1.167-0.921-1.851c0.188-0.298,0.448-0.337,0.679-0.337c0.08,0,0.161,0.005,0.241,0.011
		c0,0,0.203,0.01,0.205,0.01c0.548,0,0.874-0.125,0.881-0.73c0.006-0.563,0.293-0.814,0.931-0.814
		c1.506,0.011,2.992,0.013,4.479,0.013h5.429c0.62,0,1.227-0.012,1.83-0.155c0.419,0.087,0.737,0.316,0.901,0.647
		c0.16,0.322,0.153,0.701-0.02,1.066c-0.265,0.167-0.552,0.188-0.798,0.188l-0.457-0.009c-1.399,0.005-5.582,0.006-5.582,0.006
		l-3.894,0.001c-1.252,0.002-1.275,0.002-1.624,1.157c-0.156,0.52-0.46,0.767-0.984,0.802C4.938,47.085,4.763,47.09,4.587,47.09z"/>
	<path style="fill-rule:evenodd;clip-rule:evenodd;fill:#004A6A;" d="M2.907,45.215c0.278-0.431,0.722-0.311,1.11-0.304
		c0.532,0.011,0.889-0.108,0.896-0.74c0.007-0.593,0.333-0.81,0.94-0.805c3.2,0.023,6.401,0.008,9.602,0.013
		c0.711,0.001,1.422,0.011,2.119-0.155c0.84,0.176,1.23,0.939,0.871,1.7c-0.395,0.245-0.839,0.172-1.264,0.174
		c-3.152,0.011-6.305,0.002-9.458,0.007c-1.264,0.002-1.282,0-1.634,1.164c-0.154,0.515-0.455,0.76-0.976,0.795
		c-0.433,0.029-0.864,0.015-1.296-0.005C3.45,46.477,3.109,45.88,2.907,45.215z"/>
	<path style="fill-rule:evenodd;clip-rule:evenodd;fill:#005679;" d="M12.205,56.397c-0.105,0-0.21-0.005-0.315-0.011
		c-0.104-0.006-0.209-0.011-0.313-0.011c-0.093,0-0.186,0.004-0.278,0.017l-1.063-0.948c-0.033-0.173-0.012-0.307,0.063-0.405
		c0.118-0.157,0.35-0.197,0.514-0.214c0.225-0.023,0.354-0.077,0.409-0.171c0.067-0.115,0.018-0.284-0.085-0.52
		c-0.157-0.357-0.402-0.65-0.64-0.934c-0.092-0.11-0.185-0.22-0.271-0.334c-0.066-0.289-0.175-0.563-0.279-0.827l-0.069-0.176
		c-0.114-0.295-0.114-0.558,0.001-0.762c0.117-0.209,0.351-0.35,0.674-0.406c0.222-0.04,0.447-0.043,0.673-0.043l0.162,0.01v-0.01
		c1.62-0.004,9.724-0.005,9.724-0.005c0.385,0,0.779,0.041,1.207,0.126c0.828,0.259,1.282,0.959,1.129,1.743l-11.057,0.028
		c-0.116,0-0.231,0.003-0.347,0.013c-0.348,0.03-0.581,0.149-0.676,0.345c-0.093,0.192-0.043,0.445,0.145,0.731
		c0.169,0.259,0.386,0.494,0.595,0.722c0.095,0.104,0.189,0.208,0.281,0.313c0.096,0.151,0.211,0.284,0.326,0.418
		c0.081,0.095,0.162,0.188,0.236,0.288c0.176,0.232,0.232,0.45,0.165,0.628c-0.068,0.179-0.254,0.304-0.539,0.361
		C12.452,56.39,12.328,56.397,12.205,56.397z"/>
	<path style="fill-rule:evenodd;clip-rule:evenodd;fill:#005679;" d="M23.436,52.516c-3.545,0.008-7.09,0.016-10.635,0.023
		c-0.254,0.001-0.508-0.013-0.76,0.01c-0.703,0.062-0.932,0.492-0.539,1.092c0.246,0.375,0.582,0.693,0.877,1.036
		c0.162,0.255,0.383,0.464,0.563,0.705c0.352,0.467,0.207,0.856-0.368,0.974c-0.423,0.085-0.853-0.031-1.276,0.027
		c-0.352-0.315-0.703-0.631-1.055-0.946c-0.084-0.459,0.244-0.568,0.57-0.602c0.547-0.056,0.508-0.302,0.332-0.704
		c-0.217-0.494-0.594-0.855-0.912-1.27c-0.078-0.349-0.219-0.671-0.347-1.001c-0.235-0.604,0.024-1.041,0.667-1.154
		c0.273-0.049,0.555-0.043,0.833-0.043c3.241-0.007,6.482-0.002,9.724-0.005c0.408,0,0.807,0.047,1.205,0.126
		C23.139,51.042,23.588,51.734,23.436,52.516z"/>
	<path style="fill-rule:evenodd;clip-rule:evenodd;fill:#003851;" d="M0.138,34.248c-0.178-0.633-0.154-1.285-0.131-1.916
		c0.009-0.239,0.018-0.479,0.016-0.72c0.296-0.123,0.608-0.174,1.019-0.174c0.183,0,0.366,0.01,0.55,0.02s0.366,0.02,0.549,0.02
		c0.309,0,0.459,0.207,0.605,0.407c0.093,0.128,0.188,0.26,0.322,0.336c0.112,0.062,0.237,0.089,0.404,0.089
		c0.068,0,0.345-0.018,0.413-0.018L15.527,32.3c0.067,0,0.343-0.018,0.412-0.018c0.171,0,0.298,0.028,0.414,0.091l0.175,0.162
		c0.085,0.198,0.05,0.402-0.085,0.512l-0.249,0.208c-0.522,0.442-1.063,0.898-1.814,0.898c-0.061,0-0.122-0.003-0.186-0.009
		c-0.142-0.052-0.291-0.076-0.471-0.076c-0.135,0-0.269,0.014-0.402,0.026c-0.135,0.014-0.27,0.026-0.404,0.026l-8.844-0.005
		c-0.721-0.001-1.241-0.125-1.742-0.413c-0.268-0.154-0.537-0.232-0.801-0.232c-0.489,0-0.965,0.271-1.375,0.78l-0.012,0.016
		L0.138,34.248z"/>
	<path style="fill-rule:evenodd;clip-rule:evenodd;fill:#003851;" d="M16.349,32.382c0.058,0.054,0.114,0.107,0.173,0.161
		c0.078,0.184,0.051,0.387-0.084,0.496c-0.658,0.537-1.271,1.188-2.242,1.096c-0.425-0.157-0.855-0.022-1.283-0.023
		c-2.947-0.007-5.893,0-8.839-0.005c-0.61-0.001-1.168-0.084-1.737-0.412c-0.83-0.479-1.597-0.186-2.188,0.551
		c-0.244-0.868-0.108-1.754-0.115-2.633c0.69-0.271,1.407-0.124,2.114-0.125c0.487,0,0.569,0.544,0.916,0.742
		c0.264,0.144,0.549,0.072,0.822,0.072c3.881,0.006,7.762,0.002,11.643,0.008C15.801,32.31,16.086,32.239,16.349,32.382z"/>
	<path style="fill-rule:evenodd;clip-rule:evenodd;fill:#004563;" d="M2.138,43.384c-0.327-0.644-0.533-1.243-0.629-1.834
		c0.197-0.323,0.48-0.367,0.758-0.367l0.385,0.01c0.706-0.012,1.193-0.123,1.569-0.637c0.196-0.27,0.545-0.41,1.037-0.417
		c1.581-0.022,3.163-0.031,4.744-0.031c1.667,0,3.333,0.01,4.999,0.024c0.133,0.001,0.265,0.029,0.392,0.057
		c0.119,0.025,0.238,0.051,0.359,0.056c0.78,0.303,1.093,0.822,0.961,1.59l-2.824,0.015c-1.593,0.004-3.185,0.008-4.776,0.008
		c-0.99,0-2.971-0.006-2.971-0.006c-0.669,0-1.319,0.1-1.732,0.82c-0.224,0.391-0.583,0.401-0.964,0.412
		c0,0-0.145,0.004-0.159,0.004c-0.109,0-0.177-0.004-0.243-0.008c-0.075-0.004-0.151-0.009-0.226-0.009
		c-0.223,0-0.476,0.037-0.663,0.314l-0.009,0.014L2.138,43.384z"/>
	<path style="fill-rule:evenodd;clip-rule:evenodd;fill:#004563;" d="M16.703,41.832c-3.52,0.006-7.04,0.023-10.561,0.009
		c-0.74-0.004-1.352,0.144-1.742,0.825c-0.243,0.425-0.658,0.395-1.069,0.411s-0.88-0.149-1.185,0.302
		c-0.296-0.581-0.523-1.186-0.628-1.831c0.286-0.462,0.763-0.338,1.173-0.346c0.608-0.011,1.139-0.095,1.537-0.641
		c0.23-0.316,0.637-0.407,1.029-0.413c3.248-0.046,6.496-0.035,9.743-0.007c0.255,0.002,0.497,0.104,0.751,0.112
		C16.52,40.553,16.834,41.072,16.703,41.832z"/>
	<path style="fill-rule:evenodd;clip-rule:evenodd;fill:#005477;" d="M10.18,54.71c-0.085,0-0.17-0.008-0.255-0.017
		c-0.084-0.008-0.168-0.016-0.252-0.016c-0.072,0-0.137,0.006-0.197,0.019c-0.615-0.538-1.058-1.018-1.401-1.512
		c-0.038-0.498,0.313-0.609,0.676-0.681c0.223-0.044,0.366-0.126,0.439-0.25c0.073-0.125,0.074-0.291,0.004-0.509
		c-0.067-0.209-0.112-0.424-0.157-0.639c-0.038-0.182-0.076-0.363-0.128-0.541c-0.097-0.334-0.086-0.584,0.033-0.765
		c0.121-0.184,0.354-0.295,0.714-0.339c0.223-0.028,0.448-0.032,0.673-0.032l9.922-0.003c0.442,0,0.901,0.043,1.364,0.127
		c0.785,0.303,1.045,0.737,0.87,1.455l-2.754,0.009c-2.741,0-5.483,0-8.226,0.013c-0.118,0-0.241-0.013-0.367-0.026
		c-0.13-0.014-0.263-0.028-0.389-0.028c-0.335,0-0.528,0.106-0.629,0.346c-0.226,0.534,0.195,1.044,0.566,1.493
		c0.108,0.218,0.185,0.413,0.262,0.609l0.044,0.109c0.155,0.401,0.172,0.688,0.048,0.875c-0.123,0.188-0.39,0.285-0.816,0.301
		L10.18,54.71z"/>
	<path style="fill-rule:evenodd;clip-rule:evenodd;fill:#005477;" d="M22.475,51.007c-3.656,0.002-7.313-0.004-10.97,0.014
		c-0.483,0.002-1.167-0.246-1.394,0.297c-0.232,0.55,0.217,1.078,0.588,1.527c0.103,0.228,0.191,0.46,0.283,0.692
		c0.307,0.788,0.079,1.132-0.759,1.162c-0.251,0.009-0.499-0.064-0.75-0.013c-0.516-0.455-0.997-0.94-1.392-1.508
		c-0.035-0.481,0.305-0.593,0.67-0.665c0.447-0.089,0.592-0.336,0.451-0.771c-0.125-0.385-0.172-0.79-0.285-1.18
		c-0.193-0.667,0.045-1.005,0.738-1.091c0.303-0.038,0.609-0.031,0.914-0.031c3.227-0.003,6.453,0.001,9.68-0.004
		c0.459,0,0.912,0.045,1.362,0.127C22.387,49.862,22.646,50.3,22.475,51.007z"/>
	<path style="fill-rule:evenodd;clip-rule:evenodd;fill:#005275;" d="M8.076,53.187c-0.513-0.378-0.876-0.901-1.204-1.405
		c-0.029-0.511,0.337-0.585,0.69-0.656c0.407-0.083,0.63-0.198,0.723-0.374c0.095-0.181,0.061-0.442-0.111-0.848
		c-0.078-0.184-0.144-0.338-0.188-0.5c-0.095-0.351-0.078-0.614,0.052-0.807c0.131-0.195,0.375-0.312,0.746-0.355
		c0.251-0.03,0.504-0.035,0.757-0.035l9.771-0.001c0.449,0,0.98,0.015,1.52,0.125c0.784,0.29,1.023,0.685,0.884,1.459l-2.925,0.009
		l-8.717,0.003c-0.553,0.001-0.834,0.027-0.938,0.176C9.03,50.125,9.1,50.399,9.285,50.922c0.095,0.269,0.209,0.532,0.322,0.795
		l0.169,0.396c0.101,0.246,0.11,0.433,0.027,0.556c-0.082,0.123-0.258,0.185-0.523,0.185l-0.243-0.001
		c-0.335,0-0.685,0.025-0.947,0.333l-0.006,0.007L8.076,53.187z"/>
	<path style="fill-rule:evenodd;clip-rule:evenodd;fill:#005275;" d="M21.706,49.787c-3.878,0.001-7.755,0.001-11.632,0.004
		c-1.094,0.001-1.165,0.1-0.799,1.134c0.143,0.404,0.328,0.795,0.492,1.192c0.197,0.482,0.044,0.727-0.487,0.727
		c-0.429,0-0.874-0.044-1.198,0.335c-0.508-0.375-0.862-0.883-1.201-1.403c-0.027-0.487,0.313-0.565,0.684-0.641
		c0.804-0.163,0.947-0.46,0.618-1.235c-0.069-0.164-0.14-0.326-0.187-0.499c-0.188-0.69,0.063-1.063,0.789-1.149
		c0.404-0.048,0.813-0.033,1.219-0.033c3.104-0.001,6.205,0.001,9.309-0.003c0.51,0,1.017,0.022,1.518,0.125
		C21.607,48.627,21.845,49.02,21.706,49.787z"/>
	<path style="fill-rule:evenodd;clip-rule:evenodd;fill:#00415D;" d="M2.454,40.453c-0.508,0-0.973-0.144-1.384-0.428
		c-0.191-0.462-0.298-0.925-0.321-1.379c0.042-0.09,0.157-0.287,0.333-0.287c0.101,0.007,0.185,0.01,0.268,0.01
		c0.581,0,1.151-0.142,1.703-0.278c0.556-0.138,1.131-0.281,1.723-0.281c1.346,0.016,2.646,0.021,3.946,0.021l5.521-0.005
		c0.81,0.316,1.094,0.838,0.874,1.595c-0.244,0.305-0.566,0.347-0.879,0.347l-0.372-0.007c-1.293,0.01-2.559,0.013-3.824,0.013
		l-4.487-0.004c-0.657,0-1.222,0.188-1.732,0.393C3.333,40.354,2.873,40.453,2.454,40.453z"/>
	<path style="fill-rule:evenodd;clip-rule:evenodd;fill:#00415D;" d="M1.076,40.018c-0.181-0.44-0.293-0.896-0.317-1.372
		C0.83,38.5,0.951,38.359,1.098,38.37c1.281,0.093,2.442-0.565,3.723-0.55c3.141,0.037,6.281,0.009,9.423,0.015
		c0.802,0.314,1.083,0.83,0.864,1.582c-0.34,0.423-0.826,0.329-1.27,0.333c-2.761,0.021-5.521,0.009-8.283,0.009
		c-0.613,0-1.152,0.16-1.736,0.393C2.948,40.497,1.961,40.629,1.076,40.018z"/>
	<path style="fill-rule:evenodd;clip-rule:evenodd;fill:#004E6F;" d="M6.453,49.988c-0.324,0-0.652-0.053-0.973-0.156l-0.083-0.096
		c-0.28-0.334-0.57-0.678-0.698-1.119c0.002-0.447,0.309-0.479,0.604-0.509c0.945-0.113,1.007-0.18,1.032-1.037
		c0.031-1.069,0.221-1.258,1.266-1.259l10.824-0.004c0.307,0,0.606,0.04,0.912,0.086c0.647,0.19,0.888,0.614,0.717,1.259
		c-0.228,0.331-0.551,0.358-0.863,0.358L8.453,47.51c-0.58,0.001-0.863,0.007-0.964,0.145c-0.1,0.135-0.024,0.396,0.143,0.928
		c0.133,0.427,0.12,0.762-0.038,0.995c-0.159,0.233-0.466,0.369-0.911,0.402C6.605,49.985,6.529,49.988,6.453,49.988z"/>
	<path style="fill-rule:evenodd;clip-rule:evenodd;fill:#004E6F;" d="M5.483,49.822c-0.31-0.37-0.636-0.729-0.774-1.208
		c0.002-0.479,0.355-0.467,0.688-0.506c0.857-0.104,0.923-0.18,0.948-1.037c0.031-1.054,0.217-1.248,1.256-1.249
		c3.607-0.005,7.217-0.001,10.824-0.004c0.307,0,0.607,0.041,0.91,0.086c0.637,0.188,0.881,0.599,0.709,1.246
		c-0.275,0.4-0.695,0.35-1.1,0.35c-3.498,0-6.994-0.001-10.492,0c-1.146,0.001-1.163,0.024-0.831,1.085
		c0.267,0.853-0.053,1.318-0.94,1.385C6.271,50,5.873,49.948,5.483,49.822z"/>
	<path style="fill-rule:evenodd;clip-rule:evenodd;fill:#003F5A;" d="M2.143,38.681c-0.176,0-0.353-0.01-0.529-0.02
		c-0.177-0.009-0.354-0.019-0.529-0.019c-0.108,0-0.216,0.004-0.323,0.013c-0.197-0.464-0.293-0.965-0.304-1.539
		c0.149-0.23,0.383-0.234,0.608-0.238c0.823-0.015,1.638-0.049,2.452-0.082c1.045-0.044,2.125-0.09,3.189-0.09
		c0.268,0,0.535,0.003,0.803,0.01c0.688,0.016,1.376,0.021,2.064,0.021l2.805-0.009l1.053,0.005c0.795,0.209,1.039,0.563,0.9,1.303
		c-0.396,0.144-0.801,0.162-1.18,0.162l-8.688-0.005c-0.481,0-0.858,0.083-1.23,0.27C2.847,38.655,2.447,38.681,2.143,38.681z"/>
	<path style="fill-rule:evenodd;clip-rule:evenodd;fill:#003F5A;" d="M14.322,38.033c-0.389,0.136-0.789,0.155-1.197,0.154
		c-2.887-0.005-5.773,0-8.661-0.005c-0.435-0.001-0.827,0.066-1.235,0.271c-0.779,0.391-1.645,0.12-2.469,0.192
		c-0.2-0.49-0.283-1.003-0.293-1.529c0.147-0.224,0.377-0.225,0.607-0.229c2.146-0.037,4.287-0.213,6.436-0.162
		c1.974,0.046,3.948-0.002,5.922,0.017C14.217,36.949,14.459,37.301,14.322,38.033z"/>
	<path style="fill-rule:evenodd;clip-rule:evenodd;fill:#004360;" d="M1.51,41.553c-0.245-0.43-0.39-0.932-0.443-1.534l0.543-0.012
		l1.298,0.002c0.391,0,0.766-0.033,1.054-0.437c0.119-0.169,0.313-0.19,0.47-0.19c0.068,0,0.339,0.018,0.401,0.018l4.779-0.004
		l4.28,0.004c0.401,0,0.803-0.019,1.195-0.154c0.733,0.214,0.922,0.514,0.78,1.233L5.73,40.484c-0.593,0-1.205,0-1.499,0.737
		c-0.13,0.324-0.487,0.327-0.803,0.33l-1.916,0.006L1.51,41.553z"/>
	<path style="fill-rule:evenodd;clip-rule:evenodd;fill:#004360;" d="M1.076,40.018c0.533,0,1.064-0.002,1.598,0
		c0.481,0.002,0.95,0.044,1.295-0.439c0.189-0.268,0.564-0.169,0.863-0.169c3.02-0.004,6.039-0.005,9.059,0
		c0.408,0.001,0.811-0.021,1.199-0.154c0.723,0.212,0.908,0.506,0.768,1.222c-3.375,0-6.752,0-10.127-0.002
		c-0.625,0-1.219,0.017-1.509,0.743c-0.128,0.32-0.489,0.321-0.8,0.324c-0.634,0.005-1.269,0.004-1.903,0.006
		C1.248,41.073,1.124,40.557,1.076,40.018z"/>
	<path style="fill-rule:evenodd;clip-rule:evenodd;fill:#003A54;" d="M10.16,35.353c-0.407,0-0.815-0.005-1.223-0.01
		s-0.814-0.01-1.222-0.01c-0.233,0-0.467,0.002-0.7,0.006c-0.35,0.006-0.698,0.008-1.048,0.008l-1.622-0.008
		c-0.591-0.003-1.173-0.137-1.735-0.266c-0.569-0.131-1.159-0.267-1.758-0.267c-0.086,0-0.259,0.009-0.26,0.009
		c-0.161,0-0.262-0.104-0.359-0.207l-0.082-0.081l-0.014-0.282c0.028-0.116,0.019-0.257,0.008-0.394
		c-0.02-0.275-0.041-0.562,0.267-0.628c0.408-0.089,0.777-0.161,1.146-0.161c0.426,0,0.773,0.102,1.063,0.312
		c0.367,0.266,0.729,0.375,1.249,0.375c0,0,7.664-0.003,9.197-0.006c0.562,0,0.973,0.056,1.351,0.18
		c-0.002,0.553-0.376,0.737-0.737,0.916c-0.129,0.063-0.258,0.127-0.37,0.206c-0.183,0.129-0.405,0.16-0.621,0.191l-0.186,0.028
		C11.826,35.325,11.104,35.353,10.16,35.353z"/>
	<path style="fill-rule:evenodd;clip-rule:evenodd;fill:#003A54;" d="M0.147,34.245c0.087-0.348-0.181-0.915,0.267-1.012
		c0.723-0.156,1.551-0.323,2.202,0.148c0.413,0.3,0.794,0.377,1.255,0.377c3.066-0.005,6.131,0.001,9.197-0.006
		c0.461-0.001,0.909,0.035,1.348,0.18c-0.012,0.728-0.68,0.801-1.11,1.104c-0.232,0.163-0.528,0.168-0.803,0.218
		c-1.827,0.164-3.659,0.042-5.487,0.074c-0.891,0.015-1.78,0.005-2.67,0c-1.273-0.008-2.463-0.61-3.752-0.523
		c-0.188,0.013-0.305-0.165-0.436-0.286C0.155,34.429,0.151,34.337,0.147,34.245z"/>
	<path style="fill-rule:evenodd;clip-rule:evenodd;fill:#00587D;" d="M41.802,59.157c-0.312,0-0.668-0.022-0.959-0.297
		c-0.107-0.142-0.145-0.273-0.112-0.395c0.036-0.137,0.166-0.258,0.365-0.341c1.06-0.446,2.453-1.039,3.828-1.683
		c0.072-0.034,0.151-0.051,0.239-0.051c0.118,0,0.235,0.028,0.365,0.063c0.424,0.137,0.857,0.154,1.225,0.154l0.786-0.01
		c0,0,0.64,0.009,0.872,0.009l1.226-0.006c0.425,0,0.849,0.006,1.272,0.028c0.289,0.013,0.529,0.022,0.651,0.173
		c0.077,0.096,0.1,0.236,0.066,0.43l-0.573,0.429c-0.479,0.355-0.957,0.71-1.442,1.055l-0.12,0.089
		c-0.181,0.138-0.368,0.279-0.617,0.292c-1.043,0.048-2.159,0.069-3.622,0.069C44.655,59.167,41.802,59.157,41.802,59.157z"/>
	<path style="fill-rule:evenodd;clip-rule:evenodd;fill:#00587D;" d="M51.617,57.231c-0.67,0.494-1.334,0.996-2.012,1.478
		c-0.223,0.158-0.432,0.363-0.732,0.379c-2.242,0.104-4.486,0.063-6.729,0.057c-0.447-0.002-0.922,0.061-1.295-0.291
		c-0.274-0.362-0.033-0.601,0.25-0.72c1.285-0.54,2.565-1.092,3.828-1.683c0.193-0.091,0.398-0.04,0.598,0.014
		c0.718,0.23,1.459,0.131,2.189,0.146c1.064,0.023,2.131-0.026,3.193,0.029C51.265,56.659,51.719,56.633,51.617,57.231z"/>
	<path style="fill-rule:evenodd;clip-rule:evenodd;fill:#00567A;" d="M51.608,57.236c-0.115-0.234-0.296-0.267-0.475-0.267
		l-0.31,0.012c-0.723-0.005-1.437-0.009-2.15-0.009c-0.572,0-1.145,0.003-1.717,0.01c-0.002,0-0.004,0-0.006,0
		c-0.682,0-1.17-0.102-1.614-0.319c-0.073-0.328,0.141-0.498,0.347-0.632c0,0,1.912-1.235,2.433-1.566
		c0.171-0.109,0.346-0.165,0.519-0.165c0.098,0,0.195,0.018,0.291,0.052l0.151-0.004c0.882-0.019,1.763-0.037,2.645-0.037
		c0.506,0,1.012,0.007,1.518,0.022c0.466,0.013,0.903,0.025,0.974,0.612c-0.712,0.759-1.573,1.617-2.59,2.295l-0.01,0.006
		L51.608,57.236z"/>
	<path style="fill-rule:evenodd;clip-rule:evenodd;fill:#00567A;" d="M51.617,57.231c-0.178-0.36-0.515-0.258-0.801-0.26
		c-1.287-0.009-2.573-0.016-3.859,0.001c-0.566,0.008-1.105-0.068-1.615-0.318c-0.065-0.308,0.131-0.474,0.348-0.614
		c0.811-0.521,1.617-1.049,2.432-1.566c0.242-0.155,0.514-0.217,0.801-0.112c1.439-0.03,2.879-0.063,4.317-0.019
		c0.427,0.013,0.892,0.005,0.964,0.604C53.41,55.786,52.584,56.588,51.617,57.231z"/>
	<path style="fill-rule:evenodd;clip-rule:evenodd;fill:#005A7F;" d="M46.566,60.452c-0.318-0.421-0.78-0.421-1.188-0.421
		l-11.825-0.024c0.062-0.422,0.394-0.45,0.686-0.475c2.039-0.176,4.006-0.604,5.662-1.001c0.197-0.05,0.325-0.082,0.448-0.082
		c0.166,0,0.296,0.057,0.41,0.179c0.871,0.125,1.812,0.183,3.044,0.183c0.507,0,1.015-0.01,1.521-0.019
		c0.507-0.01,1.014-0.019,1.521-0.019c0.389,0,0.777,0.006,1.165,0.021l0.364-0.013c0.184,0,0.388,0.036,0.508,0.303
		c-0.594,0.453-1.389,1.006-2.304,1.372l-0.007,0.002L46.566,60.452z"/>
	<path style="fill-rule:evenodd;clip-rule:evenodd;fill:#005A7F;" d="M40.752,58.635c2.412,0.353,4.84,0.076,7.258,0.169
		c0.309,0.012,0.68-0.122,0.863,0.284c-0.717,0.535-1.463,1.024-2.299,1.358c-0.34-0.449-0.83-0.424-1.314-0.425
		c-3.902-0.008-7.805-0.017-11.707-0.024c0.068-0.393,0.377-0.429,0.687-0.455c1.917-0.165,3.795-0.554,5.663-1.001
		C40.193,58.471,40.496,58.363,40.752,58.635z"/>
	<path style="fill-rule:evenodd;clip-rule:evenodd;fill:#005072;" d="M6.873,51.782c-0.298-0.332-0.582-0.664-0.771-1.062
		c-0.042-0.485,0.268-0.583,0.675-0.659c0.52-0.098,0.762-0.204,0.862-0.382c0.116-0.204,0.038-0.526-0.116-0.946
		c-0.178-0.488-0.199-0.788-0.07-0.974c0.128-0.184,0.408-0.266,0.91-0.267c1.446-0.004,9.817-0.005,11.266-0.008
		c0.184,0,0.361,0.03,0.539,0.06l0.216,0.035c0.288,0.088,0.471,0.216,0.561,0.392c0.082,0.159,0.083,0.36,0.004,0.598l-3.851,0.008
		l-7.917,0.001c-0.137,0-0.274,0.002-0.41,0.013c-0.277,0.022-0.46,0.102-0.542,0.236c-0.08,0.131-0.07,0.318,0.028,0.559
		c0.166,0.396,0.321,0.798,0.472,1.2c0.116,0.312,0.122,0.534,0.02,0.684c-0.104,0.148-0.314,0.22-0.646,0.22
		c-0.111-0.001-0.191-0.008-0.271-0.014c-0.091-0.007-0.184-0.015-0.274-0.015c-0.222,0-0.476,0.038-0.668,0.32l-0.007,0.011
		L6.873,51.782z"/>
	<path style="fill-rule:evenodd;clip-rule:evenodd;fill:#005072;" d="M20.938,48.566c-3.828,0.001-7.656,0.001-11.484,0.003
		c-0.228,0-0.457-0.006-0.685,0.012c-0.518,0.041-0.74,0.28-0.521,0.809c0.165,0.396,0.32,0.798,0.471,1.2
		c0.232,0.621,0.025,0.899-0.65,0.89c-0.409-0.007-0.881-0.154-1.188,0.296c-0.293-0.326-0.579-0.658-0.77-1.059
		c-0.041-0.489,0.294-0.575,0.668-0.646c0.974-0.183,1.096-0.407,0.754-1.342c-0.337-0.922-0.143-1.225,0.83-1.227
		c3.755-0.009,7.51,0.001,11.266-0.008c0.258,0,0.504,0.06,0.754,0.095C20.875,47.741,21.117,48.034,20.938,48.566z"/>
	<path style="fill-rule:evenodd;clip-rule:evenodd;fill:#004C6D;" d="M5.273,48.163c-0.173,0-0.362-0.027-0.563-0.083
		c-0.172-0.048-0.32-0.147-0.471-0.254c-0.246-0.191-0.391-0.449-0.432-0.767c0.132-0.309,0.349-0.35,0.544-0.35
		c0.07,0,0.142,0.006,0.213,0.012c0.069,0.006,0.139,0.012,0.205,0.012c0.951-0.044,1.112-0.205,1.127-1.075
		c0.01-0.668,0.283-0.928,0.975-0.928c1.872,0.011,3.728,0.014,5.583,0.014l6.033-0.003c0.311,0.089,0.488,0.213,0.546,0.38
		c0.055,0.157-0.003,0.353-0.169,0.582c-0.189,0.121-0.386,0.137-0.553,0.137l-0.413-0.013c0,0-8.628,0.003-10.353,0.006
		c-0.925,0.002-1.092,0.153-1.114,1.008C6.412,47.682,5.989,48.163,5.273,48.163z"/>
	<path style="fill-rule:evenodd;clip-rule:evenodd;fill:#004C6D;" d="M3.818,47.059c0.211-0.489,0.65-0.299,1.002-0.316
		c0.879-0.042,1.072-0.19,1.087-1.084c0.011-0.684,0.296-0.922,0.981-0.918c3.866,0.023,7.732,0.011,11.6,0.011
		c0.537,0.154,0.736,0.439,0.369,0.946c-0.303,0.191-0.641,0.119-0.965,0.12c-3.449,0.005-6.897-0.001-10.346,0.006
		c-0.936,0.002-1.102,0.165-1.124,1.018c-0.026,1.05-0.673,1.517-1.709,1.229c-0.171-0.048-0.321-0.148-0.468-0.252
		C3.998,47.625,3.858,47.37,3.818,47.059z"/>
	<path style="fill-rule:evenodd;clip-rule:evenodd;fill:#003C56;" d="M7.26,36.283c-1.438,0-2.625-0.023-3.737-0.073
		c-0.213-0.009-0.428-0.011-0.643-0.011H2.613c-0.781,0-1.483-0.022-2.164-0.303c-0.213-0.104-0.217-0.283-0.222-0.457
		c-0.003-0.102-0.006-0.206-0.051-0.292L0.148,34.52l0.198-0.009l0.855-0.007c0.688,0,1.484,0.03,2.251,0.391
		c0.152,0.071,0.336,0.08,0.479,0.08l0.408-0.009l8.306,0.002c0.207,0.151,0.319,0.315,0.341,0.489
		c0.021,0.179-0.052,0.371-0.218,0.574c-0.24,0.21-0.534,0.211-0.818,0.212l-1.619,0.017C9.308,36.271,8.283,36.283,7.26,36.283z"/>
	<path style="fill-rule:evenodd;clip-rule:evenodd;fill:#003C56;" d="M0.158,34.52c1.109,0.014,2.229-0.115,3.291,0.384
		c0.256,0.12,0.598,0.071,0.9,0.072c2.766,0.004,5.531,0.002,8.297,0.002c0.412,0.307,0.436,0.657,0.115,1.047
		c-0.252,0.221-0.567,0.207-0.867,0.209c-2.791,0.023-5.586,0.091-8.372-0.033c-1.017-0.045-2.081,0.094-3.069-0.313
		c-0.33-0.162-0.145-0.509-0.268-0.745C0.176,34.935,0.168,34.728,0.158,34.52z"/>
	<path style="fill-rule:evenodd;clip-rule:evenodd;fill:#005071;" d="M6.105,50.725c-0.304-0.229-0.517-0.53-0.632-0.899
		c0.217-0.183,0.452-0.206,0.653-0.206c0.073,0,0.367,0.014,0.44,0.014c0.055,0,0.109-0.002,0.164-0.007
		c0.358-0.035,0.57-0.126,0.667-0.283c0.097-0.158,0.081-0.387-0.05-0.719c-0.024-0.063-0.055-0.123-0.085-0.184
		c-0.027-0.053-0.054-0.105-0.076-0.16c-0.171-0.406-0.198-0.675-0.086-0.844s0.37-0.248,0.813-0.249h5.463
		c1.246,0,2.492-0.002,3.739-0.01c0.004,0,0.009,0,0.013,0c0.29,0,0.517,0.008,0.742,0.016c0.229,0.008,0.459,0.016,0.688,0.016
		c0.581,0,1.021-0.055,1.426-0.176c0.271,0.035,0.437,0.119,0.512,0.255c0.07,0.128,0.056,0.304-0.045,0.521L8.534,47.816
		c-0.496,0-0.851,0.037-0.963,0.218c-0.114,0.181,0.002,0.506,0.226,0.971l0.068,0.138c0.058,0.114,0.115,0.228,0.157,0.348
		c0.113,0.332,0.121,0.543,0.026,0.685c-0.096,0.144-0.304,0.218-0.673,0.24c-0.035,0.001-0.065,0.001-0.094,0.001
		c-0.112,0-0.176-0.004-0.24-0.008c-0.08-0.005-0.16-0.01-0.239-0.01c-0.229,0-0.488,0.038-0.684,0.324l-0.006,0.009L6.105,50.725z"
		/>
	<path style="fill-rule:evenodd;clip-rule:evenodd;fill:#005071;" d="M20.443,47.806c-3.971,0-7.939-0.002-11.909,0.001
		c-1.114,0-1.231,0.195-0.746,1.202c0.077,0.161,0.167,0.317,0.225,0.484c0.222,0.648,0.052,0.87-0.638,0.912
		c-0.436,0.027-0.936-0.169-1.264,0.312c-0.307-0.23-0.514-0.529-0.628-0.895c0.38-0.306,0.829-0.146,1.249-0.187
		c0.703-0.069,0.885-0.355,0.626-1.016c-0.046-0.118-0.113-0.227-0.162-0.344c-0.329-0.784-0.144-1.077,0.718-1.079
		c3.068-0.007,6.135,0.01,9.202-0.01c0.958-0.007,1.927,0.139,2.872-0.145C20.461,47.106,20.66,47.332,20.443,47.806z"/>
	<path style="fill-rule:evenodd;clip-rule:evenodd;fill:#002F44;" d="M2.806,25.572c-0.46,0-0.921-0.011-1.38-0.031
		c-0.223-0.01-0.499-0.057-0.657-0.331c0.13-0.843,0.34-1.667,0.622-2.456c0.191-0.318,0.464-0.48,0.813-0.483
		c0.285-0.003,0.571-0.01,0.857-0.017c0.345-0.009,0.689-0.018,1.033-0.018c0.583,0,1.059,0.025,1.497,0.081
		c0.368,0.247,0.307,0.579,0.196,0.957l-0.029,0.1c-0.143,0.486-0.289,0.989-0.517,1.455L5.19,24.918
		c-0.053,0.093-0.107,0.188-0.197,0.26c-0.217,0.224-0.494,0.346-0.822,0.361C3.716,25.562,3.261,25.572,2.806,25.572z"/>
	<path style="fill-rule:evenodd;clip-rule:evenodd;fill:#002F44;" d="M0.777,25.205c0.131-0.836,0.338-1.652,0.623-2.448
		c0.182-0.303,0.445-0.474,0.803-0.477c1.129-0.009,2.26-0.095,3.387,0.047c0.373,0.252,0.285,0.61,0.188,0.944
		c-0.154,0.526-0.303,1.057-0.545,1.554c-0.074,0.12-0.129,0.253-0.245,0.345c-0.224,0.229-0.503,0.344-0.817,0.359
		c-0.914,0.045-1.83,0.042-2.744,0.002C1.162,25.52,0.922,25.456,0.777,25.205z"/>
	<path style="fill-rule:evenodd;clip-rule:evenodd;fill:#002D42;" d="M1.391,22.754c0.226-0.849,0.492-1.751,0.913-2.593
		l4.282-0.002c0.299,0.757-0.206,1.982-0.939,2.306c-0.342,0.147-0.69,0.166-0.957,0.166c-0.139,0-0.278-0.006-0.418-0.012
		c-0.139-0.006-0.278-0.012-0.417-0.012c-0.098,0-0.195,0.003-0.293,0.011C3.456,22.627,3.35,22.63,3.243,22.63
		c-0.144,0-0.288-0.006-0.432-0.012c-0.144-0.005-0.287-0.011-0.431-0.011c-0.271,0-0.627,0.018-0.977,0.159l-0.019,0.007
		L1.391,22.754z"/>
	<path style="fill-rule:evenodd;clip-rule:evenodd;fill:#002D42;" d="M5.643,22.456c-0.676,0.29-1.389,0.097-2.082,0.152
		c-0.721,0.058-1.457-0.135-2.16,0.148c0.235-0.888,0.499-1.766,0.912-2.591c1.426,0.001,2.85,0.002,4.273,0.003
		C6.871,20.908,6.363,22.138,5.643,22.456z"/>
	<path style="fill-rule:evenodd;clip-rule:evenodd;fill:#003D58;" d="M1.654,36.908c-0.157,0-0.313-0.003-0.47-0.01l-0.151-0.003
		c-0.25-0.003-0.508-0.005-0.703-0.231l-0.033-0.751c-0.045-0.039-0.058-0.083-0.035-0.123c2.504,0.07,4.913,0.097,7.78,0.097
		l4.011,0.001c0.253,0,0.521-0.019,0.767-0.154c0.341,0.11,0.518,0.239,0.564,0.404c0.042,0.151-0.025,0.328-0.206,0.542
		c-0.366,0.118-0.733,0.142-1.174,0.142H4.219c-0.426,0.001-0.851,0.022-1.275,0.044C2.514,36.887,2.084,36.908,1.654,36.908z"/>
	<path style="fill-rule:evenodd;clip-rule:evenodd;fill:#003D58;" d="M0.326,35.744c3.792,0.196,7.588,0.145,11.383,0.149
		c0.377,0,0.764,0.042,1.115-0.151c0.501,0.167,0.781,0.416,0.346,0.931c-0.392,0.125-0.795,0.14-1.201,0.139
		c-2.583-0.002-5.166-0.003-7.75,0c-1.012,0.001-2.021,0.121-3.034,0.077c-0.302-0.014-0.616,0.036-0.847-0.231
		c-0.01-0.248-0.021-0.496-0.031-0.744c-0.045-0.043-0.057-0.082-0.036-0.118C0.29,35.761,0.309,35.744,0.326,35.744z"/>
	<path style="fill-rule:evenodd;clip-rule:evenodd;fill:#003248;" d="M4.299,27.662l-3.965-0.003
		c0.064-0.943,0.21-1.743,0.434-2.457l0.926-0.008c0,0,2.292,0.003,2.294,0.003c0.37,0,0.67-0.024,0.884-0.304
		c0.186,0.094,0.278,0.259,0.26,0.44c-0.088,0.854-0.234,1.524-0.461,2.113c-0.054,0.137-0.172,0.219-0.316,0.219L4.299,27.662z"/>
	<path style="fill-rule:evenodd;clip-rule:evenodd;fill:#003248;" d="M0.777,25.205c1.068,0,2.137-0.004,3.205,0.002
		c0.34,0.002,0.666-0.006,0.896-0.308c0.17,0.095,0.26,0.256,0.242,0.434c-0.074,0.72-0.199,1.432-0.461,2.11
		c-0.055,0.142-0.187,0.232-0.36,0.209c-1.322-0.001-2.645-0.002-3.966-0.003C0.4,26.82,0.527,26.002,0.777,25.205z"/>
	<path style="fill-rule:evenodd;clip-rule:evenodd;fill:#004B6B;" d="M57.341,48.476c-0.393,0-0.785-0.005-1.178-0.01l-0.185-0.003
		l-0.145-0.01v0.01c-0.005,0-0.01,0-0.015,0c-0.328,0-0.581-0.016-0.806-0.176c-0.124-0.104-0.189-0.241-0.191-0.4
		c-0.009-0.617,1.025-1.966,1.652-2.153c0.488-0.093,1.021-0.136,1.676-0.136c0.364,0,0.729,0.013,1.093,0.025
		c0.235,0.008,0.471,0.017,0.706,0.021c0.354,0.007,0.594,0.169,0.713,0.481c-0.366,0.86-0.712,1.619-1.253,2.271
		C58.801,48.453,58.165,48.476,57.341,48.476z"/>
	<path style="fill-rule:evenodd;clip-rule:evenodd;fill:#004B6B;" d="M60.652,46.13c-0.341,0.796-0.691,1.587-1.251,2.261
		c-1.14,0.099-2.281,0.077-3.423,0.063c-0.325-0.004-0.666,0.035-0.959-0.174c-0.121-0.102-0.186-0.236-0.188-0.393
		c-0.009-0.614,1.025-1.958,1.646-2.144c1.153-0.219,2.313-0.112,3.472-0.089C60.28,45.661,60.529,45.807,60.652,46.13z"/>
	<path style="fill-rule:evenodd;clip-rule:evenodd;fill:#004D6D;" d="M4.702,48.622c-0.228-0.188-0.38-0.45-0.466-0.802l0.355-0.019
		l0.339-0.006c1.179-0.025,1.327-0.17,1.317-1.29C6.242,45.91,6.5,45.612,7.083,45.54c0.261-0.032,0.525-0.033,0.789-0.033
		l11.142-0.028c0.212,0.024,0.353,0.093,0.418,0.203c0.063,0.108,0.057,0.259-0.021,0.448L7.752,46.137
		c-0.515,0-0.869,0.039-1.04,0.233s-0.165,0.551-0.101,1.063c0.048,0.375,0.052,0.638-0.076,0.788
		c-0.132,0.154-0.396,0.192-0.81,0.206l-0.395-0.006c-0.208,0-0.427,0.024-0.615,0.199l-0.007,0.007L4.702,48.622z"/>
	<path style="fill-rule:evenodd;clip-rule:evenodd;fill:#004D6D;" d="M4.246,47.818c0.229-0.004,0.457-0.009,0.685-0.013
		c1.163-0.024,1.337-0.162,1.327-1.3C6.252,45.89,6.53,45.618,7.084,45.55c0.275-0.034,0.555-0.033,0.834-0.033
		c3.699-0.011,7.397-0.02,11.096-0.028c0.402,0.047,0.547,0.25,0.389,0.638c-3.883,0-7.768-0.002-11.65,0.001
		c-1.121,0-1.291,0.198-1.15,1.308c0.104,0.815-0.024,0.955-0.876,0.983c-0.348,0.011-0.719-0.081-1.017,0.196
		C4.457,48.406,4.322,48.13,4.246,47.818z"/>
	<path style="fill-rule:evenodd;clip-rule:evenodd;fill:#00364E;" d="M61.706,32.161c-0.661,0-1.203-0.077-1.705-0.243
		c-0.169-0.138-0.251-0.319-0.249-0.544c-0.018-0.201-0.062-0.399-0.105-0.598c-0.062-0.279-0.125-0.569-0.111-0.866
		c0.014-0.336,0.025-0.619,0.277-0.82c0.477-0.097,0.986-0.142,1.607-0.142c0.404,0,0.808,0.019,1.212,0.037
		c0.235,0.011,0.47,0.021,0.704,0.028c0.223,0.007,0.366,0.159,0.506,0.306c0.186,0.843,0.176,1.677,0.138,2.454
		c-0.145,0.168-0.234,0.272-0.365,0.279l-0.596,0.042C62.581,32.128,62.144,32.161,61.706,32.161z"/>
	<path style="fill-rule:evenodd;clip-rule:evenodd;fill:#00364E;" d="M63.836,29.328c0.176,0.808,0.174,1.625,0.134,2.444
		c-0.104,0.111-0.202,0.262-0.356,0.271c-1.206,0.072-2.418,0.259-3.609-0.135c-0.168-0.138-0.244-0.319-0.242-0.534
		c-0.043-0.492-0.24-0.961-0.217-1.464c0.014-0.297,0.007-0.6,0.273-0.813c1.167-0.234,2.344-0.109,3.518-0.074
		C63.555,29.03,63.697,29.182,63.836,29.328z"/>
	<path style="fill-rule:evenodd;clip-rule:evenodd;fill:#003952;" d="M61.293,34.569c0,0-0.43,0.003-0.431,0.003
		c-0.699,0-1.075-0.283-1.216-0.893c0.037-0.209,0.024-0.428,0.013-0.64c-0.025-0.449-0.051-0.913,0.381-1.276l3.93-0.001
		c0.009,0.229,0.017,0.449,0.024,0.669c0.022,0.591,0.044,1.2-0.123,1.793c-0.251,0.286-0.579,0.333-0.896,0.341
		c-0.229,0.006-0.46,0.008-0.689,0.008L61.293,34.569z"/>
	<path style="fill-rule:evenodd;clip-rule:evenodd;fill:#003952;" d="M60.047,31.771c1.308,0,2.615,0.001,3.923,0.001
		c-0.005,0.817,0.12,1.642-0.108,2.449c-0.236,0.269-0.551,0.325-0.887,0.334c-0.703,0.019-1.408-0.003-2.111,0.007
		c-0.645,0.009-1.059-0.242-1.207-0.885C59.771,33.04,59.414,32.304,60.047,31.771z"/>
	<path style="fill-rule:evenodd;clip-rule:evenodd;fill:#004F70;" d="M55.813,50.491c-0.749,0-1.519-0.073-2.287-0.218
		c-0.142-0.099-0.211-0.23-0.21-0.393c0.005-0.562,1.008-1.668,1.626-1.794l3.792,0.013c0.233,0,0.497,0.022,0.677,0.285
		c-0.188,0.243-0.321,0.517-0.45,0.781c-0.192,0.393-0.391,0.799-0.771,1.077C57.407,50.408,56.609,50.491,55.813,50.491z"/>
	<path style="fill-rule:evenodd;clip-rule:evenodd;fill:#004F70;" d="M54.943,48.097c1.188,0.005,2.377,0.008,3.564,0.016
		c0.324,0.001,0.67-0.05,0.895,0.278c-0.467,0.575-0.586,1.38-1.219,1.845c-1.551,0.325-3.102,0.32-4.656,0.028
		c-0.132-0.093-0.203-0.221-0.202-0.383C53.33,49.323,54.332,48.222,54.943,48.097z"/>
	<path style="fill-rule:evenodd;clip-rule:evenodd;fill:#002E43;" d="M60.366,23.455c-0.772,0-1.357-0.086-1.895-0.277
		c-0.675-0.564-1.015-1.616-0.73-2.253l4.247-0.004c0.333,0.753,0.587,1.523,0.766,2.297c-0.093,0.112-0.162,0.19-0.242,0.19
		l-0.301-0.004c-0.307,0-0.614,0.013-0.922,0.025S60.673,23.455,60.366,23.455z"/>
	<path style="fill-rule:evenodd;clip-rule:evenodd;fill:#002E43;" d="M57.75,20.929c1.412,0.001,2.825,0.001,4.238,0.002
		c0.32,0.74,0.574,1.503,0.756,2.289c-0.068,0.075-0.146,0.182-0.236,0.179c-1.346-0.042-2.712,0.241-4.033-0.23
		C57.805,22.607,57.468,21.562,57.75,20.929z"/>
	<path style="fill-rule:evenodd;clip-rule:evenodd;fill:#005477;" d="M54.196,54.954c-0.277-0.248-0.613-0.269-0.961-0.269
		l-3.583,0.002c-0.345,0-0.667-0.013-0.961-0.163c-0.027-0.07-0.044-0.117-0.031-0.159c0.203-0.642,1.546-1.654,2.245-1.693
		c0.647,0.106,1.29,0.12,1.834,0.12l1.249-0.009c0.305,0,0.608,0.005,0.913,0.022l0.147,0.005c0.312,0.005,0.664,0.012,0.713,0.499
		c-0.479,0.662-0.924,1.237-1.553,1.646l-0.007,0.004L54.196,54.954z"/>
	<path style="fill-rule:evenodd;clip-rule:evenodd;fill:#005477;" d="M54.203,54.946c-0.287-0.256-0.637-0.271-0.995-0.271
		c-1.185,0.004-2.368-0.001-3.554,0.002c-0.33,0.001-0.656-0.008-0.958-0.162c-0.017-0.049-0.04-0.104-0.026-0.147
		c0.203-0.642,1.541-1.647,2.236-1.687c1.326,0.219,2.664,0.058,3.994,0.134c0.351,0.021,0.796-0.06,0.852,0.495
		C55.307,53.923,54.852,54.526,54.203,54.946z"/>
	<path style="fill-rule:evenodd;clip-rule:evenodd;fill:#002F45;" d="M60.979,25.615c-0.733,0-1.37-0.138-1.946-0.421
		c-0.089-0.06-0.142-0.146-0.193-0.23l-0.063-0.1c-0.049-0.1-0.101-0.196-0.152-0.294c-0.273-0.511-0.556-1.039-0.132-1.663
		c0.331,0.146,0.661,0.165,0.914,0.165c0.126,0,0.253-0.006,0.379-0.011c0.127-0.006,0.254-0.011,0.38-0.011l0.876,0.008
		c0.606,0,1.154,0.011,1.707,0.151l0.487,1.993c-0.07,0.115-0.103,0.169-0.156,0.178C62.336,25.503,61.649,25.615,60.979,25.615z"/>
	<path style="fill-rule:evenodd;clip-rule:evenodd;fill:#002F45;" d="M58.499,22.913c0.575,0.269,1.186,0.132,1.78,0.149
		c0.824,0.024,1.653-0.049,2.465,0.157c0.16,0.662,0.32,1.324,0.48,1.985c-0.046,0.06-0.08,0.155-0.148,0.166
		c-1.359,0.223-2.721,0.463-4.039-0.186c-0.121-0.081-0.174-0.215-0.254-0.327C58.484,24.24,58,23.648,58.499,22.913z"/>
	<path style="fill-rule:evenodd;clip-rule:evenodd;fill:#003C56;" d="M63.541,36.997c-0.569-0.265-1.175-0.287-1.697-0.287
		l-0.59,0.004c-0.126,0-0.784-0.007-0.784-0.007c-0.303,0-0.62-0.021-0.889-0.282c-0.313-0.657-0.182-1.313-0.055-1.945
		c0.046-0.227,0.092-0.453,0.118-0.68c0.017-0.147,0.189-0.24,0.352-0.256c0.004,0.232,0.051,0.392,0.153,0.497
		c0.112,0.116,0.293,0.17,0.568,0.17c0.403-0.007,0.763-0.01,1.121-0.01l2.022,0.011c0.006,1.049-0.05,1.917-0.307,2.779
		l-0.004,0.011L63.541,36.997z"/>
	<path style="fill-rule:evenodd;clip-rule:evenodd;fill:#003C56;" d="M59.997,33.554c-0.017,0.536,0.278,0.677,0.767,0.667
		c1.031-0.02,2.064-0.002,3.098,0.001c-0.004,0.934-0.047,1.862-0.316,2.767c-0.855-0.398-1.771-0.255-2.668-0.291
		c-0.441-0.018-0.917,0.081-1.289-0.279c-0.42-0.882-0.034-1.748,0.066-2.617C59.67,33.662,59.834,33.569,59.997,33.554z"/>
	<path style="fill-rule:evenodd;clip-rule:evenodd;fill:#00334A;" d="M60.676,29.338c-0.262,0-0.537-0.012-0.786-0.154
		c-0.609-0.486-0.779-1.481-0.379-2.221c0.492-0.108,1.011-0.156,1.64-0.156c0.448,0,0.897,0.024,1.346,0.049l0.561,0.028
		c0.432,0.02,0.556,0.374,0.625,0.754c0.02,0.167,0.048,0.331,0.075,0.496c0.064,0.389,0.132,0.789,0.089,1.195l-1.053,0.009H60.676
		z"/>
	<path style="fill-rule:evenodd;clip-rule:evenodd;fill:#00334A;" d="M63.836,29.328c-1.043,0-2.085-0.002-3.127,0
		c-0.283,0.001-0.561-0.008-0.814-0.153c-0.604-0.481-0.771-1.475-0.375-2.207c1.174-0.25,2.357-0.127,3.537-0.074
		c0.43,0.02,0.549,0.382,0.615,0.746C63.738,28.201,63.896,28.754,63.836,29.328z"/>
	<path style="fill-rule:evenodd;clip-rule:evenodd;fill:#003147;" d="M63.663,27.644c-0.182-0.415-0.528-0.433-0.93-0.453
		c-0.114-0.006-0.229-0.008-0.344-0.008c-0.241,0-0.482,0.01-0.724,0.021c-0.242,0.01-0.484,0.021-0.726,0.021
		c-0.547,0-0.964-0.055-1.354-0.177c-0.653-0.453-0.882-1.498-0.473-2.152c0.231,0.279,0.533,0.303,0.849,0.303l3.262-0.002
		c0.227,0.69,0.365,1.441,0.457,2.443l0.006,0.062L63.663,27.644z"/>
	<path style="fill-rule:evenodd;clip-rule:evenodd;fill:#003147;" d="M63.672,27.64c-0.184-0.42-0.537-0.438-0.938-0.459
		c-1.048-0.053-2.109,0.182-3.145-0.144c-0.646-0.448-0.873-1.488-0.467-2.138c0.23,0.302,0.557,0.31,0.896,0.308
		c1.068-0.006,2.137-0.002,3.205-0.002C63.477,25.998,63.596,26.814,63.672,27.64z"/>
	<path style="fill-rule:evenodd;clip-rule:evenodd;fill:#005375;" d="M55.748,53.32c-0.349-0.128-0.724-0.186-1.218-0.186
		c-0.218,0-0.436,0.011-0.653,0.021s-0.436,0.021-0.653,0.021c-0.128,0-0.256-0.004-0.384-0.014
		c-0.112-0.008-0.226-0.011-0.339-0.011l-0.521,0.006c-0.49,0-0.895-0.052-1.276-0.306c0.023-0.703,0.689-1.336,1.545-1.481
		c0.558-0.084,1.169-0.122,1.926-0.122c0.389,0,0.778,0.009,1.167,0.019l0.751,0.017c0.422,0.006,0.837,0.059,0.875,0.62
		c-0.35,0.57-0.681,1.065-1.209,1.414l-0.005,0.002L55.748,53.32z"/>
	<path style="fill-rule:evenodd;clip-rule:evenodd;fill:#005375;" d="M55.752,53.311c-0.953-0.35-1.941-0.084-2.911-0.156
		c-0.72-0.054-1.47,0.132-2.132-0.31c0.027-0.688,0.693-1.318,1.541-1.463c1.277-0.191,2.561-0.105,3.842-0.087
		c0.41,0.006,0.827,0.054,0.865,0.611C56.629,52.438,56.288,52.957,55.752,53.311z"/>
	<path style="fill-rule:evenodd;clip-rule:evenodd;fill:#005172;" d="M56.95,51.913c-0.288-0.278-0.657-0.279-1.014-0.281
		l-3.909-0.021c0.018-0.853,0.578-1.468,1.386-1.54c0.272,0.013,0.545,0.017,0.816,0.017c0.305,0,0.61-0.005,0.915-0.011
		s0.609-0.011,0.915-0.011c0.585,0,1.355,0.018,2.126,0.159c-0.09,0.164-0.18,0.317-0.269,0.472
		c-0.256,0.439-0.521,0.895-0.954,1.217l-0.007,0.005L56.95,51.913z"/>
	<path style="fill-rule:evenodd;clip-rule:evenodd;fill:#005172;" d="M56.957,51.906c-0.303-0.293-0.686-0.282-1.066-0.284
		c-1.289-0.005-2.576-0.014-3.863-0.021c0.027-0.843,0.58-1.448,1.387-1.521c1.59,0.074,3.188-0.136,4.77,0.154
		C57.807,50.816,57.537,51.475,56.957,51.906z"/>
	<path style="fill-rule:evenodd;clip-rule:evenodd;fill:#004460;" d="M60.919,42.062c-0.572,0-1.146-0.008-1.718-0.018
		c-0.37-0.006-0.723-0.039-0.961-0.375c-0.23-0.826,0.067-1.673,0.756-2.159c0.371-0.016,0.735-0.021,1.101-0.021
		c0.699,0,1.398,0.02,2.097,0.038l0.127,0.004c0.242,0.006,0.508,0.051,0.643,0.334c-0.077,0.26-0.129,0.521-0.182,0.782
		c-0.093,0.47-0.19,0.955-0.444,1.388C61.858,42.056,61.389,42.062,60.919,42.062z"/>
	<path style="fill-rule:evenodd;clip-rule:evenodd;fill:#004460;" d="M62.954,39.869c-0.221,0.717-0.233,1.494-0.626,2.161
		c-1.043,0.035-2.085,0.021-3.127,0.004c-0.361-0.006-0.717-0.038-0.953-0.371c-0.227-0.817,0.071-1.663,0.754-2.146
		c1.106-0.04,2.213-0.007,3.318,0.023C62.578,39.548,62.826,39.602,62.954,39.869z"/>
	<path style="fill-rule:evenodd;clip-rule:evenodd;fill:#00405C;" d="M60.696,39.89c-0.477,0-1.105-0.02-1.739-0.168
		c-0.395-0.675-0.203-1.49,0.471-2.032c0.396-0.025,0.787-0.033,1.178-0.033c0.479,0,0.958,0.013,1.438,0.024l0.695,0.017
		c0.317,0.006,0.523,0.11,0.648,0.33c-0.047,0.64-0.189,1.259-0.423,1.846c-0.228-0.007-0.444-0.011-0.662-0.011
		c-0.268,0-0.535,0.007-0.803,0.014S60.964,39.89,60.696,39.89z"/>
	<path style="fill-rule:evenodd;clip-rule:evenodd;fill:#00405C;" d="M62.954,39.869c-1.331-0.078-2.674,0.152-3.995-0.157
		c-0.385-0.665-0.193-1.477,0.475-2.015c1.102-0.064,2.203-0.012,3.305,0.01c0.262,0.005,0.498,0.077,0.64,0.325
		C63.33,38.666,63.189,39.278,62.954,39.869z"/>
	<path style="fill-rule:evenodd;clip-rule:evenodd;fill:#004968;" d="M60.65,46.14c-0.665-0.152-1.331-0.172-1.836-0.172
		c-0.271,0-0.541,0.007-0.813,0.013c-0.271,0.007-0.542,0.013-0.813,0.013c-0.297,0-0.595-0.008-0.891-0.031
		c-0.2-0.807,0.157-1.459,0.945-1.753c0.514-0.096,1.069-0.141,1.75-0.141c0.405,0,0.81,0.016,1.215,0.03l0.65,0.022
		c0.278,0.008,0.464,0.114,0.567,0.324c-0.139,0.237-0.225,0.495-0.308,0.744c-0.109,0.328-0.222,0.669-0.459,0.947l-0.004,0.004
		L60.65,46.14z"/>
	<path style="fill-rule:evenodd;clip-rule:evenodd;fill:#004968;" d="M60.652,46.13c-1.439-0.329-2.904-0.063-4.353-0.178
		c-0.189-0.791,0.167-1.442,0.948-1.733c1.199-0.225,2.406-0.12,3.611-0.088c0.236,0.007,0.444,0.087,0.559,0.319
		C61.096,44.979,61.067,45.643,60.652,46.13z"/>
	<path style="fill-rule:evenodd;clip-rule:evenodd;fill:#003F59;" d="M61.154,38.058c-0.476,0-1.104-0.019-1.738-0.168
		c-0.23-0.335-0.314-0.635-0.258-0.897c0.054-0.247,0.234-0.467,0.539-0.653l2.032,0.007c0.367,0,0.735-0.002,1.103-0.008
		c0.001,0,0.002,0,0.003,0c0.306,0,0.479,0.054,0.589,0.168c0.1,0.105,0.143,0.264,0.131,0.483c0.006,0.325-0.003,0.703-0.168,1.047
		c-0.202-0.004-0.396-0.008-0.589-0.008c-0.274,0-0.548,0.008-0.822,0.015C61.702,38.051,61.428,38.058,61.154,38.058z"/>
	<path style="fill-rule:evenodd;clip-rule:evenodd;fill:#003F59;" d="M63.378,38.032c-1.319-0.067-2.649,0.155-3.96-0.152
		c-0.434-0.641-0.34-1.15,0.284-1.532c1.044,0.002,2.087,0.018,3.13,0c0.465-0.009,0.74,0.131,0.713,0.641
		C63.551,37.346,63.537,37.7,63.378,38.032z"/>
	<path style="fill-rule:evenodd;clip-rule:evenodd;fill:#004563;" d="M59.98,43.437c-0.32,0-0.642-0.005-0.962-0.01l-0.332-0.005
		l-0.13-0.01v0.01c-0.003,0-0.005,0-0.007,0c-0.332,0-0.587-0.016-0.81-0.191c-0.179-0.376-0.213-0.713-0.105-1.005
		c0.107-0.29,0.35-0.521,0.721-0.689c0.384,0.117,0.791,0.17,1.327,0.17c0.223,0,0.446-0.009,0.669-0.018
		c0.224-0.009,0.447-0.018,0.67-0.018c0.159,0,0.317,0.005,0.476,0.017l0.263,0.003c0.239,0,0.463,0.025,0.577,0.336
		c-0.091,0.458-0.185,0.926-0.489,1.318C61.304,43.409,60.73,43.437,59.98,43.437z"/>
	<path style="fill-rule:evenodd;clip-rule:evenodd;fill:#004563;" d="M58.359,41.545c1.032,0.322,2.093,0.074,3.137,0.152
		c0.313,0.023,0.678-0.087,0.831,0.333c-0.093,0.462-0.188,0.923-0.487,1.309c-1.049,0.118-2.102,0.087-3.153,0.073
		c-0.321-0.004-0.659,0.032-0.94-0.189C57.397,42.48,57.617,41.881,58.359,41.545z"/>
	<path style="fill-rule:evenodd;clip-rule:evenodd;fill:#004766;" d="M57.121,44.455c-0.27-0.715-0.098-1.09,0.625-1.392
		l3.268-0.001l0.14,0.009v-0.01c0.264,0,0.516,0.021,0.694,0.271c-0.067,0.148-0.101,0.305-0.133,0.455
		c-0.05,0.235-0.102,0.479-0.29,0.669l-0.003,0.003L57.121,44.455z"/>
	<path style="fill-rule:evenodd;clip-rule:evenodd;fill:#004766;" d="M57.75,43.072c1.088,0,2.176-0.001,3.264,0
		c0.304,0,0.617-0.026,0.826,0.267c-0.176,0.356-0.116,0.803-0.422,1.111c-1.432-0.002-2.865-0.003-4.297-0.005
		C56.861,43.739,57.029,43.373,57.75,43.072z"/>
	<path style="fill-rule:evenodd;clip-rule:evenodd;fill:#003E58;" d="M0.458,37.122c-0.082-0.125-0.163-0.278-0.13-0.467
		l9.676-0.008l1.141,0.006c0.698,0,1.447-0.021,2.191-0.174c0.172,0.015,0.278,0.063,0.327,0.146
		c0.046,0.08,0.037,0.191-0.027,0.332c-0.918,0.015-1.827,0.017-2.736,0.017l-2.554-0.002c-2.387,0-5.16,0.012-7.878,0.153
		l-0.006,0.001L0.458,37.122z"/>
	<path style="fill-rule:evenodd;clip-rule:evenodd;fill:#003E58;" d="M0.338,36.657c3.223,0.001,6.444,0.002,9.666,0
		c1.114-0.001,2.232,0.059,3.334-0.168c0.303,0.027,0.425,0.166,0.289,0.465c-4.387,0.04-8.775-0.066-13.16,0.162
		C0.375,36.978,0.308,36.831,0.338,36.657z"/>
	<path style="fill-rule:evenodd;clip-rule:evenodd;fill:#00577C;" d="M11.291,56.391c0.172-0.313,0.435-0.354,0.693-0.354
		l0.337,0.009c0.333,0,0.508-0.053,0.566-0.165c0.058-0.11,0.002-0.283-0.169-0.527c-0.101-0.144-0.176-0.305-0.251-0.466
		l-0.098-0.205l0.512,0.367c0.392,0.298,0.783,0.595,1.162,0.909c0.352,0.293,0.5,0.671,0.397,1.011
		c-0.084,0.282-0.299,0.32-0.497,0.32l-0.336-0.012l-0.218,0.011c-0.233,0.01-0.454,0.02-0.551,0.308l-0.005,0.014L11.291,56.391z"
		/>
	<path style="fill-rule:evenodd;clip-rule:evenodd;fill:#00577C;" d="M11.297,56.383c0.242-0.416,0.652-0.33,1.024-0.328
		c0.573,0.003,0.789-0.161,0.405-0.708c-0.143-0.204-0.234-0.445-0.348-0.67c0.554,0.428,1.119,0.842,1.658,1.289
		c0.301,0.25,0.51,0.619,0.395,1c-0.133,0.446-0.584,0.275-0.914,0.305c-0.273,0.023-0.57-0.026-0.688,0.322
		C12.318,57.189,11.808,56.786,11.297,56.383z"/>
	<path style="fill-rule:evenodd;clip-rule:evenodd;fill:#005579;" d="M10.235,55.444c-0.072-0.063-0.149-0.123-0.227-0.182
		c-0.206-0.158-0.42-0.321-0.544-0.571c0.102-0.313,0.344-0.32,0.578-0.326l0.111-0.004c0.437-0.025,0.646-0.058,0.73-0.177
		s0.046-0.329-0.074-0.755c-0.038-0.135-0.063-0.271-0.088-0.409l-0.033-0.174c0.226,0.234,0.374,0.519,0.518,0.794
		c0.142,0.271,0.289,0.552,0.492,0.793c0.147,0.176,0.198,0.335,0.146,0.46c-0.057,0.137-0.233,0.225-0.499,0.248
		c-0.047,0.004-0.094,0.006-0.142,0.006l-0.3-0.006c-0.274,0-0.491,0.051-0.654,0.301l-0.007,0.009L10.235,55.444z"/>
	<path style="fill-rule:evenodd;clip-rule:evenodd;fill:#005579;" d="M9.474,54.687c0.116-0.347,0.411-0.3,0.682-0.315
		c0.852-0.05,0.897-0.121,0.665-0.944c-0.054-0.19-0.082-0.388-0.121-0.582c0.411,0.48,0.581,1.106,0.992,1.596
		c0.318,0.379,0.156,0.646-0.346,0.691c-0.385,0.034-0.825-0.12-1.104,0.305C9.973,55.201,9.643,55.026,9.474,54.687z"/>
	<path style="fill-rule:evenodd;clip-rule:evenodd;fill:#003A54;" d="M0.298,35.919c-0.155-0.244-0.139-0.515-0.122-0.777
		c0.137,0.144,0.146,0.319,0.153,0.49l0.007,0.111L0.298,35.919z"/>
	<path style="fill-rule:evenodd;clip-rule:evenodd;fill:#003A54;" d="M0.326,35.744c-0.006,0.057-0.014,0.112-0.02,0.169
		c-0.153-0.239-0.138-0.505-0.121-0.771C0.328,35.32,0.31,35.536,0.326,35.744z"/>
	<path style="fill-rule:evenodd;clip-rule:evenodd;fill:#FEDF3C;" d="M31.6,12.927c-0.149,0-0.294-0.037-0.442-0.113
		c-0.416-0.063-0.83-0.072-1.215-0.072l-16.356,0.002c-0.263,0-0.524-0.006-0.784-0.04c-0.256-0.034-0.575-0.076-0.585-0.476
		c1.427-1.52,3.146-2.882,5.261-4.174c4.069-2.486,8.613-3.848,13.505-4.045c0.386-0.016,0.771-0.023,1.155-0.023
		c4.112,0,8.071,0.907,11.767,2.696c2.097,1.015,4.06,2.253,5.834,3.683c0.495,0.399,0.959,0.854,1.407,1.292
		c0.208,0.204,0.417,0.408,0.629,0.608c-0.004,0.388-0.23,0.584-0.671,0.59c-0.467,0.006-0.935,0.017-1.402,0.026
		c-0.71,0.016-1.42,0.031-2.13,0.031c-1.108,0-2.018-0.039-2.863-0.122l0,0c-0.545,0-0.825-0.343-1.029-0.678
		c-0.569-0.939-1.135-1.882-1.699-2.824l-0.693-1.156c-0.248-0.414-0.377-0.595-0.567-0.595c-0.15,0-0.347,0.115-0.653,0.307
		c0,0-6.125,3.831-7.555,4.721C32.225,12.742,31.928,12.927,31.6,12.927z"/>
	<path style="fill-rule:evenodd;clip-rule:evenodd;fill:#FEDF3C;" d="M12.227,12.228c1.549-1.645,3.333-2.99,5.256-4.165
		c4.145-2.532,8.668-3.849,13.5-4.044c4.514-0.183,8.846,0.7,12.918,2.672c2.074,1.004,4.032,2.232,5.832,3.682
		c0.721,0.581,1.359,1.264,2.035,1.899c-0.008,0.438-0.313,0.568-0.664,0.573c-2.133,0.026-4.266,0.145-6.395-0.064
		c-0.491,0.007-0.781-0.278-1.021-0.673c-0.803-1.323-1.596-2.653-2.393-3.98c-0.445-0.742-0.512-0.743-1.234-0.292
		c-2.52,1.571-5.033,3.152-7.555,4.721c-0.421,0.262-0.83,0.514-1.344,0.249c-0.633-0.098-1.27-0.07-1.902-0.07
		c-5.08-0.004-10.16-0.002-15.238-0.003c-0.406,0-0.814,0.015-1.219-0.038C12.522,12.656,12.236,12.608,12.227,12.228z"/>
	<path style="fill-rule:evenodd;clip-rule:evenodd;fill:#FEDE3D;" d="M20.15,20.105c-0.144,0-0.282-0.034-0.425-0.105
		c-0.375-0.072-0.763-0.082-1.092-0.082l-0.626,0.004l-5.052-0.002c-1.575,0-3.149-0.002-4.725-0.013c0,0-0.398,0.017-0.479,0.017
		c-0.267,0-0.567-0.045-0.773-0.379c0.754-1.83,1.91-3.443,3.047-4.914c0.657-0.851,1.396-1.661,2.193-2.41
		c0.207,0.139,0.417,0.158,0.597,0.158c0.074,0,0.37-0.015,0.443-0.015l8.684,0.004c2.71,0,5.419-0.001,8.129-0.006
		c0.624,0,1.071,0.105,1.461,0.341c0.059,0.457-0.268,0.654-0.555,0.829c-2.108,1.299-4.124,2.567-6.14,3.837
		c-1.273,0.802-2.547,1.604-3.824,2.401C20.722,19.953,20.454,20.105,20.15,20.105z"/>
	<path style="fill-rule:evenodd;clip-rule:evenodd;fill:#FEDE3D;" d="M12.227,12.228c0.318,0.229,0.686,0.146,1.033,0.146
		c5.604,0.005,11.208,0.008,16.813-0.002c0.521-0.001,1.008,0.068,1.456,0.34c0.058,0.484-0.327,0.669-0.636,0.86
		c-3.309,2.04-6.586,4.131-9.883,6.189c-0.4,0.25-0.795,0.471-1.279,0.229c-0.58-0.112-1.166-0.078-1.748-0.079
		c-3.25-0.008-6.5,0.008-9.751-0.015c-0.433-0.002-0.938,0.137-1.243-0.357c0.746-1.802,1.864-3.374,3.046-4.903
		C10.699,13.776,11.433,12.973,12.227,12.228z"/>
	<path style="fill-rule:evenodd;clip-rule:evenodd;fill:#FEDC3D;" d="M54.37,25.263l-2.191,0.006c-0.661,0-1.322-0.005-1.983-0.023
		c-0.455-0.012-0.923-0.113-0.939-0.768c0.007-0.267-0.06-0.524-0.124-0.774c-0.057-0.221-0.114-0.448-0.123-0.681
		c-0.04-1.416-0.486-2.803-1.405-4.361c-0.061-0.104-0.134-0.206-0.209-0.311c-0.308-0.432-0.625-0.878-0.184-1.477
		c0.265-0.261,0.599-0.263,0.923-0.265c1.009-0.013,1.928-0.016,2.847-0.016l3.343,0.003c0.273,0,0.532,0.059,0.783,0.115
		c0.113,0.025,0.228,0.052,0.343,0.072c0.72,0.944,1.247,2.011,1.756,3.042c0.182,0.367,0.363,0.735,0.554,1.098l0.75,1.985
		l0.47,1.806c-0.049,0.511-0.425,0.519-0.757,0.525l-0.104,0.003c-0.551,0.022-1.102,0.028-1.652,0.028L54.37,25.263z"/>
	<path style="fill-rule:evenodd;clip-rule:evenodd;fill:#FEDC3D;" d="M58.499,22.913c0.157,0.602,0.313,1.203,0.47,1.805
		c-0.054,0.551-0.492,0.502-0.852,0.516c-1.168,0.047-2.336,0.021-3.504,0.02c-1.473-0.003-2.945,0.023-4.418-0.018
		c-0.506-0.014-0.914-0.147-0.93-0.758c0.014-0.501-0.229-0.959-0.247-1.455c-0.045-1.592-0.606-3.009-1.406-4.366
		c-0.309-0.524-0.938-1.037-0.394-1.776c0.285-0.28,0.654-0.257,1.005-0.262c2.033-0.025,4.066-0.009,6.1-0.012
		c0.389-0.001,0.749,0.12,1.124,0.188c0.963,1.27,1.57,2.736,2.303,4.135C58,21.59,58.25,22.252,58.499,22.913z"/>
	<path style="fill-rule:evenodd;clip-rule:evenodd;fill:#FEDC3D;" d="M11.811,25.32c-0.085,0-0.173-0.01-0.262-0.03
		c-0.579-0.027-1.16-0.035-1.741-0.035c-0.394,0-1.972,0.015-2.366,0.015c-0.271,0-1.078-0.008-1.078-0.008
		c-0.267,0-0.534,0-0.799-0.041c-0.302-0.046-0.571-0.12-0.541-0.506c0.028-0.443,0.177-0.862,0.321-1.268
		c0.113-0.32,0.231-0.652,0.288-0.993l0.944-2.289l0.402-0.63l11.628,0.004c0.457,0,0.978,0.039,1.46,0.334
		c0.051,0.489-0.277,0.678-0.596,0.86l-0.152,0.09c-0.438,0.271-0.872,0.546-1.307,0.821c-0.974,0.617-1.98,1.256-3.004,1.829
		c-0.514,0.424-1.107,0.74-1.681,1.046l-0.409,0.22C12.573,25.057,12.249,25.32,11.811,25.32z"/>
	<path style="fill-rule:evenodd;clip-rule:evenodd;fill:#FEDC3D;" d="M6.988,19.54c3.873,0.005,7.746,0.015,11.619,0.009
		c0.52-0.001,1.007,0.06,1.455,0.333c0.053,0.553-0.396,0.715-0.748,0.933c-1.434,0.888-2.838,1.825-4.311,2.65
		c-0.635,0.523-1.374,0.874-2.09,1.266c-0.387,0.354-0.781,0.684-1.363,0.55c-1.643-0.078-3.283,0.001-4.925-0.027
		c-0.354-0.006-0.709,0.012-1.06-0.042c-0.28-0.043-0.563-0.106-0.533-0.495c0.051-0.794,0.48-1.487,0.609-2.26
		c0.314-0.763,0.629-1.524,0.943-2.287C6.721,19.959,6.855,19.75,6.988,19.54z"/>
	<path style="fill-rule:evenodd;clip-rule:evenodd;fill:#FEDE3D;" d="M47.029,17.148c-0.302,0-0.457-0.242-0.594-0.456
		c-0.572-0.898-1.112-1.816-1.651-2.735l-0.367-0.623c-0.126-0.215-0.243-0.498-0.036-0.787c0,0,4.908-0.021,6.399-0.028l0.33,0.007
		c0.23,0,0.468-0.032,0.649-0.26c1.444,1.304,2.572,2.883,3.695,4.522c-0.184,0.164-0.388,0.185-0.582,0.185l-0.3-0.006
		l-3.278,0.004c-0.931,0-2.794-0.006-2.794-0.006c-0.554,0-0.97,0.055-1.344,0.171C47.111,17.145,47.069,17.148,47.029,17.148z"/>
	<path style="fill-rule:evenodd;clip-rule:evenodd;fill:#FEDE3D;" d="M55.447,16.794c-0.262,0.217-0.574,0.163-0.874,0.163
		c-2.023,0.003-4.048,0.007-6.071-0.002c-0.459-0.002-0.908,0.034-1.348,0.171c-0.372,0.073-0.545-0.181-0.71-0.439
		c-0.702-1.102-1.354-2.232-2.019-3.357c-0.143-0.243-0.229-0.508-0.037-0.776c2.131-0.008,4.262-0.013,6.392-0.024
		c0.347-0.002,0.723,0.076,0.987-0.257C53.219,13.596,54.345,15.186,55.447,16.794z"/>
	<path style="fill-rule:evenodd;clip-rule:evenodd;fill:#FEBF00;" d="M32.438,60.025c-3.687,0-7.03-0.589-10.224-1.801l-0.174-0.065
		c-0.108-0.039-0.217-0.079-0.323-0.123c-0.025-0.01-0.048-0.028-0.088-0.062l-0.104-0.083l1.215-0.667l1.698-0.911
		c0.559-0.3,0.837-0.449,0.882-0.649c0.044-0.202-0.153-0.466-0.548-0.99c-0.423-0.831-0.941-1.587-1.345-2.152
		c-0.304-0.593-0.617-1.086-0.961-1.509c-0.191-0.439-0.449-0.85-0.769-1.219c-0.187-0.433-0.444-0.843-0.768-1.221
		c-0.05-0.229-0.192-0.395-0.33-0.557c-0.057-0.066-0.114-0.134-0.165-0.205c-0.071-0.313-0.275-0.552-0.455-0.762l-0.587-0.918
		l-0.389-0.639l-0.524-0.736c-0.16-0.525-0.487-0.96-0.803-1.379l-0.111-0.148c-0.21-0.461-0.494-0.916-0.871-1.392l-2.382-3.8
		l-0.695-1.078c-0.041-0.188-0.137-0.343-0.286-0.463l-0.516-0.749c-0.024-0.076-0.059-0.146-0.093-0.216
		c-0.082-0.17-0.167-0.346-0.087-0.559c0.657-0.289,1.252-0.64,1.773-1.049l0.408-0.218c0.601-0.315,1.223-0.641,1.695-1.171
		c0.717-0.315,1.418-0.736,2.277-1.365l0.165,0.018c0.729-0.167,1.504-0.245,2.436-0.245c1.355,0.006,2.654,0.008,3.952,0.008
		l5.514-0.004c0.278,0,0.577,0.013,0.874,0.106c0.165,0.108,0.25,0.219,0.264,0.339c0.02,0.185-0.133,0.357-0.291,0.519
		c-0.216,0.223-0.493,0.356-0.762,0.486c-0.105,0.051-0.211,0.102-0.313,0.158c-0.171,0.197-0.402,0.324-0.626,0.446
		c-0.244,0.135-0.497,0.273-0.674,0.506l-0.158,0.074c-0.256,0.116-0.521,0.237-0.729,0.444c-0.124,0.137-0.286,0.219-0.443,0.298
		c-0.141,0.071-0.286,0.145-0.402,0.256c-0.152,0.146-0.34,0.247-0.521,0.344c-0.232,0.124-0.473,0.253-0.638,0.479
		c-0.612,0.407-1.132,0.737-1.687,1.032c-0.385,0.396-0.87,0.664-1.34,0.922L23.2,37.474c-0.196,0.229-0.46,0.369-0.716,0.506
		c-0.224,0.119-0.455,0.243-0.64,0.425c-0.204,0.229-0.472,0.367-0.731,0.5c-0.161,0.083-0.323,0.166-0.471,0.271
		c-0.108,0.155-0.273,0.244-0.434,0.331c-0.154,0.083-0.313,0.169-0.422,0.316c-0.142,0.208-0.051,0.375,0.044,0.552
		c0.025,0.046,0.05,0.093,0.07,0.14c0.057,0.132,0.155,0.239,0.25,0.342c0.107,0.118,0.22,0.239,0.272,0.4
		c0.079,0.211,0.221,0.388,0.358,0.559c0.135,0.168,0.273,0.342,0.355,0.549l0.188,0.255c0.224,0.295,0.454,0.602,0.58,0.967
		c0.09,0.137,0.189,0.269,0.29,0.401c0.188,0.248,0.382,0.505,0.509,0.8c0.307,0.389,0.582,0.802,0.856,1.216l0.358,0.533
		c0.119,0.173,0.256,0.332,0.45,0.332c0.089,0,0.184-0.031,0.291-0.096c0.42-0.253,0.845-0.5,1.269-0.746
		c0.768-0.446,1.561-0.908,2.316-1.402c0.227-0.134,0.457-0.26,0.688-0.386c0.452-0.247,0.92-0.503,1.344-0.816
		c0.261-0.155,0.525-0.3,0.79-0.445c0.388-0.213,0.775-0.425,1.147-0.666c0.275-0.238,0.607-0.395,0.929-0.546
		c0.369-0.174,0.751-0.354,1.047-0.66c0.177-0.103,0.362-0.15,0.585-0.15c0.181,0,0.363,0.032,0.545,0.063
		c0.147,0.026,0.295,0.052,0.443,0.061c0.706,0.371,1.484,0.477,2.236,0.578c0.43,0.058,0.874,0.118,1.3,0.227
		c1.067,0.271,2.146,0.505,3.224,0.738c0.734,0.158,1.469,0.317,2.199,0.488c0.197,0.046,0.374,0.068,0.54,0.068
		c0.402,0,0.745-0.13,1.08-0.41c0.362-0.303,0.771-0.557,1.164-0.803c0.368-0.229,0.749-0.467,1.093-0.743
		c0.161-0.268,0.429-0.385,0.688-0.498c0.11-0.049,0.222-0.097,0.324-0.157c0.155-0.169,0.358-0.282,0.555-0.391
		c0.188-0.105,0.384-0.214,0.538-0.374c0.097-0.123,0.238-0.19,0.376-0.255c0.166-0.078,0.338-0.159,0.429-0.344
		c0.234-0.219,0.511-0.376,0.777-0.528c0.145-0.082,0.289-0.165,0.427-0.257c0.177-0.193,0.4-0.333,0.617-0.468
		c0.214-0.134,0.437-0.272,0.611-0.465c0.091-0.067,0.184-0.127,0.278-0.188c0.192-0.123,0.392-0.251,0.554-0.437
		c-0.201-0.151-0.426-0.174-0.643-0.196c-0.163-0.017-0.316-0.032-0.458-0.104c-0.839-0.237-1.709-0.42-2.55-0.596
		c-0.908-0.189-1.848-0.386-2.754-0.654c-0.519-0.27-1.09-0.346-1.642-0.418c-0.272-0.036-0.545-0.072-0.812-0.13
		c-0.146-0.077-0.303-0.124-0.459-0.171c-0.271-0.08-0.549-0.164-0.752-0.4c-0.139-0.33,0.069-0.516,0.27-0.695
		c0.143-0.205,0.324-0.314,0.5-0.421c0.186-0.112,0.377-0.228,0.489-0.429c0.125-0.168,0.241-0.341,0.358-0.514
		c0.25-0.368,0.509-0.749,0.834-1.072C47.232,31.02,47.313,31,47.404,31c0.048,0,0.098,0.006,0.147,0.015
		c1.467-0.052,3.067-0.076,5.034-0.076c1.089,0,2.177,0.007,3.265,0.014c1.088,0.008,2.176,0.015,3.264,0.015
		c0.37,0,0.682,0.041,0.877,0.337l0.065,0.467l-0.05,1.783l-0.295,2.795c-0.157,0.471-0.25,0.971-0.284,1.532l-0.459,1.833
		l-0.6,1.834l-0.609,1.528l-0.63,1.373l-0.821,1.508l-1.356,2.145l-1.53,1.985l-1.387,1.521l-1.294,1.22l-2.038,1.695l-3.356,2.14
		c-1.498,0.723-3.043,1.389-4.591,1.981c-2.583,0.817-5.206,1.158-7.202,1.362C33.181,60.02,32.809,60.025,32.438,60.025z"/>
	<path style="fill-rule:evenodd;clip-rule:evenodd;fill:#FEBF00;" d="M13.627,36.954c-0.041-0.189-0.139-0.344-0.289-0.465
		c-0.171-0.249-0.342-0.498-0.514-0.747c-0.078-0.251-0.289-0.471-0.178-0.765c0.633-0.275,1.226-0.618,1.77-1.045
		c0.74-0.405,1.525-0.74,2.105-1.39c0.816-0.358,1.559-0.839,2.275-1.364c0.053,0.007,0.105,0.014,0.158,0.02
		c0.82-0.188,1.65-0.248,2.494-0.245c2.973,0.015,5.945,0.003,8.919,0.009c0.455,0.001,0.915-0.039,1.36,0.102
		c0.45,0.296,0.227,0.577-0.031,0.841c-0.299,0.307-0.707,0.441-1.072,0.643c-0.361,0.415-0.963,0.507-1.303,0.955
		c-0.311,0.146-0.636,0.268-0.887,0.518c-0.234,0.258-0.598,0.315-0.846,0.554c-0.346,0.333-0.865,0.419-1.16,0.823
		c-0.549,0.364-1.102,0.72-1.684,1.029c-0.443,0.456-1.006,0.734-1.551,1.039c-0.371,0.431-0.961,0.541-1.357,0.933
		c-0.328,0.368-0.813,0.494-1.201,0.77c-0.217,0.308-0.637,0.348-0.857,0.649c-0.184,0.27,0.016,0.478,0.113,0.701
		c0.121,0.284,0.423,0.441,0.521,0.741c0.158,0.421,0.55,0.691,0.714,1.108c0.28,0.392,0.608,0.754,0.769,1.221
		c0.264,0.402,0.605,0.753,0.8,1.202c0.44,0.56,0.813,1.165,1.216,1.751c0.187,0.271,0.387,0.46,0.754,0.239
		c1.193-0.719,2.418-1.386,3.586-2.148c0.678-0.401,1.396-0.732,2.031-1.203c0.641-0.38,1.311-0.705,1.938-1.11
		c0.592-0.514,1.422-0.634,1.977-1.208c0.518-0.299,1.043-0.054,1.565-0.023c1.104,0.582,2.362,0.506,3.534,0.805
		c1.795,0.456,3.619,0.805,5.424,1.227c0.615,0.144,1.126,0.076,1.629-0.344c0.699-0.585,1.543-0.972,2.256-1.546
		c0.231-0.381,0.664-0.452,1.011-0.654c0.31-0.335,0.78-0.438,1.095-0.767c0.215-0.272,0.641-0.262,0.807-0.601
		c0.355-0.33,0.803-0.518,1.201-0.781c0.354-0.388,0.877-0.548,1.23-0.935c0.271-0.202,0.59-0.348,0.832-0.624
		c-0.354-0.29-0.771-0.147-1.104-0.315c-1.75-0.496-3.561-0.734-5.306-1.251c-0.769-0.4-1.636-0.37-2.454-0.548
		c-0.393-0.209-0.889-0.198-1.205-0.568c-0.141-0.336,0.087-0.518,0.297-0.706c0.237-0.372,0.742-0.434,0.963-0.827
		c0.393-0.53,0.717-1.112,1.19-1.584c0.124-0.065,0.253-0.066,0.387-0.043c3.876-0.137,7.753-0.047,11.628-0.048
		c0.309,0,0.611,0.039,0.805,0.333c0.021,0.153,0.043,0.308,0.064,0.462c-0.016,0.594-0.033,1.188-0.05,1.782
		c-0.099,0.932-0.196,1.863-0.295,2.794c-0.167,0.497-0.253,1.01-0.284,1.532c-0.152,0.61-0.307,1.222-0.459,1.832
		c-0.2,0.611-0.4,1.222-0.6,1.833c-0.203,0.509-0.406,1.018-0.609,1.527c-0.209,0.457-0.42,0.916-0.629,1.373
		c-0.273,0.503-0.547,1.005-0.821,1.507c-0.452,0.715-0.903,1.43-1.356,2.145c-0.51,0.661-1.02,1.323-1.529,1.984
		c-0.463,0.507-0.925,1.014-1.387,1.521c-0.439,0.415-0.879,0.829-1.318,1.243c-0.671,0.557-1.342,1.113-2.013,1.671
		c-1.118,0.713-2.235,1.426-3.354,2.139c-1.502,0.725-3.031,1.385-4.59,1.98c-2.346,0.743-4.762,1.112-7.199,1.362
		c-3.893,0.126-7.682-0.396-11.335-1.782c-0.165-0.063-0.333-0.121-0.497-0.188c-0.039-0.016-0.07-0.052-0.189-0.144
		c1.008-0.54,1.959-1.052,2.912-1.562c1.127-0.604,1.127-0.604,0.336-1.656c-0.385-0.756-0.852-1.461-1.344-2.15
		c-0.272-0.533-0.582-1.043-0.961-1.509c-0.193-0.445-0.451-0.852-0.769-1.22c-0.192-0.447-0.452-0.852-0.768-1.221
		c-0.067-0.317-0.318-0.515-0.495-0.761c-0.068-0.305-0.26-0.534-0.455-0.763c-0.195-0.306-0.391-0.611-0.586-0.917
		c-0.129-0.213-0.259-0.425-0.389-0.638c-0.174-0.245-0.35-0.491-0.525-0.737c-0.177-0.585-0.558-1.05-0.914-1.527
		c-0.229-0.503-0.529-0.96-0.871-1.392c-0.281-0.452-0.563-0.903-0.846-1.355c-0.256-0.407-0.512-0.814-0.768-1.222
		s-0.512-0.814-0.768-1.222C14.091,37.674,13.859,37.313,13.627,36.954z"/>
	<path style="fill-rule:evenodd;clip-rule:evenodd;fill:#FED93D;" d="M32.205,31.437c-0.107,0-0.215-0.036-0.32-0.109l-11.959-0.009
		l-0.424,0.012c-0.167,0-0.362-0.015-0.552-0.123c0.279-0.232,0.598-0.397,0.905-0.557c0.382-0.198,0.776-0.402,1.101-0.704
		c0.027-0.35,0.287-0.478,0.538-0.602c0.196-0.098,0.399-0.197,0.487-0.408c0.183-0.211,0.437-0.298,0.683-0.382
		c0.26-0.088,0.528-0.18,0.709-0.415l0.297-0.185c0.836-0.518,1.699-1.052,2.59-1.512c0.07-0.02,0.136-0.028,0.199-0.028
		c0.112,0,0.221,0.03,0.32,0.09c0.128,0.063,0.265,0.092,0.428,0.092c0.139,0,0.277-0.021,0.416-0.042
		c0.139-0.021,0.278-0.042,0.417-0.042c1.533,0.009,3.061,0.009,4.588,0.009c1.394,0.001,2.786,0.001,4.18,0.008l0.486-0.011
		c0.278,0,0.573,0.03,0.836,0.251c0.329,0.415,0.088,0.732-0.191,0.989c-0.289,0.266-0.643,0.441-0.985,0.611l-0.103,0.051
		c-0.438,0.419-0.962,0.733-1.469,1.037c-0.293,0.176-0.586,0.352-0.864,0.547c-0.439,0.39-0.95,0.691-1.443,0.983l-0.442,0.265
		C32.484,31.376,32.345,31.437,32.205,31.437z"/>
	<path style="fill-rule:evenodd;clip-rule:evenodd;fill:#FED93D;" d="M31.891,31.319c-3.988-0.003-7.977-0.004-11.965-0.011
		c-0.326-0.001-0.663,0.066-0.971-0.11c0.627-0.481,1.42-0.698,2.008-1.244c0.055-0.631,0.827-0.531,1.027-1.014
		c0.371-0.426,1.037-0.334,1.391-0.795c0.947-0.585,1.891-1.181,2.884-1.693c0.179-0.049,0.349-0.035,0.51,0.062
		c0.421,0.205,0.849,0.007,1.271,0.009c2.921,0.018,5.841,0.002,8.762,0.017c0.446,0.003,0.923-0.092,1.315,0.238
		c0.314,0.396,0.104,0.702-0.191,0.974c-0.316,0.291-0.707,0.472-1.086,0.661c-0.689,0.659-1.564,1.044-2.334,1.585
		c-0.569,0.504-1.242,0.853-1.885,1.247C32.398,31.436,32.156,31.502,31.891,31.319z"/>
	<path style="fill-rule:evenodd;clip-rule:evenodd;fill:#FEDA3D;" d="M4.17,29.832c-0.092-0.441-0.023-0.857,0.043-1.26
		c0.052-0.315,0.101-0.613,0.077-0.919l0.579-2.756l0.156-0.188c0.189,0.161,0.398,0.184,0.599,0.184l0.274-0.005l2.366,0.007
		c0.599,0,1.197-0.003,1.796-0.011c0.004,0,0.007,0,0.011,0c0.616,0,1.146,0.055,1.718,0.166c0.084,0.208-0.033,0.334-0.146,0.456
		c-0.313,0.374-0.69,0.557-1.056,0.733c-0.175,0.084-0.351,0.169-0.516,0.271c-0.739,0.621-1.592,1.098-2.417,1.559l-0.17,0.096
		c-0.237,0.229-0.527,0.389-0.809,0.542c-0.207,0.113-0.413,0.227-0.603,0.368l-0.127,0.088c-0.243,0.17-0.494,0.346-0.8,0.346
		c-0.086,0-0.175-0.015-0.264-0.042l-0.711,0.379L4.17,29.832z"/>
	<path style="fill-rule:evenodd;clip-rule:evenodd;fill:#FEDA3D;" d="M5.033,24.716c0.252,0.232,0.566,0.182,0.865,0.182
		c1.387,0.004,2.775,0.015,4.162-0.004c0.586-0.008,1.156,0.055,1.727,0.166c0.083,0.219-0.066,0.345-0.189,0.481
		c-0.404,0.488-1.017,0.646-1.53,0.96c-0.79,0.664-1.692,1.153-2.587,1.654c-0.411,0.396-0.962,0.574-1.412,0.911
		c-0.356,0.24-0.693,0.543-1.182,0.39c-0.215,0.114-0.43,0.229-0.707,0.374c-0.161-0.776,0.174-1.47,0.12-2.178
		c0.192-0.918,0.386-1.835,0.579-2.753C4.93,24.838,4.982,24.777,5.033,24.716z"/>
	<path style="fill-rule:evenodd;clip-rule:evenodd;fill:#003349;" d="M20.958,29.963c-0.289-0.156-0.604-0.169-0.876-0.169
		l-5.897,0.003c-2.793,0-5.585-0.001-8.378-0.007c-0.062,0-0.125,0.005-0.189,0.01c-0.067,0.005-0.135,0.01-0.2,0.01
		c-0.2,0-0.42-0.041-0.54-0.35c0.305-0.266,0.642-0.519,1.058-0.658c1.777,0.008,3.551,0.009,5.325,0.009l3.653-0.001
		c1.969,0,3.937,0.002,5.905,0.013c0,0,0,0,0.001,0c0.1,0,0.194-0.007,0.29-0.013c0.099-0.007,0.198-0.014,0.297-0.014
		c0.274,0,0.587,0.047,0.815,0.394c-0.379,0.33-0.801,0.586-1.255,0.773l-0.005,0.002L20.958,29.963z"/>
	<path style="fill-rule:evenodd;clip-rule:evenodd;fill:#003349;" d="M4.887,29.456c0.318-0.268,0.65-0.511,1.051-0.645
		c4.961,0.021,9.921-0.005,14.881,0.021c0.479,0.002,1.041-0.175,1.395,0.363c-0.378,0.317-0.795,0.57-1.25,0.759
		c-0.377-0.203-0.789-0.168-1.194-0.168c-4.653,0-9.308,0.003-13.962-0.006C5.476,29.78,5.066,29.92,4.887,29.456z"/>
	<path style="fill-rule:evenodd;clip-rule:evenodd;fill:#00364E;" d="M3.639,32.399c-0.181,0-0.392-0.019-0.582-0.162l2.478-0.018
		l9.858,0.002l0.38-0.01c0.182,0,0.392,0.019,0.582,0.162l-3.093,0.018L4.02,32.39L3.639,32.399z"/>
	<path style="fill-rule:evenodd;clip-rule:evenodd;fill:#00364E;" d="M16.349,32.382c-4.11,0-8.22,0.002-12.329-0.002
		c-0.324-0.001-0.664,0.069-0.957-0.15c4.11,0,8.221-0.001,12.33,0.002C15.716,32.232,16.057,32.162,16.349,32.382z"/>
	<path style="fill-rule:evenodd;clip-rule:evenodd;fill:#FED93D;" d="M47.872,31.328c-0.166,0-0.359-0.017-0.536-0.144
		c-0.193-0.329-0.037-0.575,0.113-0.813c0.105-0.166,0.214-0.337,0.201-0.531c0.073-0.275,0.211-0.521,0.345-0.758
		c0.101-0.18,0.202-0.359,0.276-0.552c0.057-0.301,0.138-0.598,0.219-0.894c0.094-0.345,0.188-0.689,0.244-1.043
		c0.021-0.326,0.082-0.646,0.144-0.968c0.056-0.288,0.111-0.577,0.137-0.87c0.027-0.322,0.18-0.497,0.45-0.52
		c0.01,0.242,0.059,0.404,0.161,0.508c0.1,0.099,0.25,0.147,0.462,0.147c1.391-0.005,6.237-0.006,6.237-0.006l2.077,0.001
		c0.181,0,0.388-0.021,0.56-0.178l0.092,0.093l0.077,0.09l0.469,2.143l0.305,2.139l0.088,2.136l-3.365,0.011l-8.396-0.002
		L47.872,31.328z"/>
	<path style="fill-rule:evenodd;clip-rule:evenodd;fill:#FED93D;" d="M59.982,31.31c-3.918,0-7.835,0.002-11.752-0.001
		c-0.301,0-0.615,0.063-0.889-0.132c-0.32-0.548,0.35-0.858,0.318-1.337c0.127-0.473,0.445-0.854,0.621-1.305
		c0.123-0.654,0.358-1.28,0.463-1.938c0.039-0.621,0.227-1.22,0.28-1.839c0.022-0.26,0.129-0.484,0.441-0.511
		c-0.002,0.421,0.155,0.657,0.628,0.655c2.77-0.01,5.539-0.005,8.309-0.005c0.208,0,0.404-0.032,0.566-0.18
		c0.051,0.061,0.104,0.121,0.154,0.182c0.156,0.713,0.311,1.425,0.467,2.138c0.102,0.713,0.203,1.426,0.305,2.138
		C59.924,29.887,59.953,30.598,59.982,31.31z"/>
	<path style="fill-rule:evenodd;clip-rule:evenodd;fill:#002C40;" d="M44.373,24.507c-1.476,0-2.95-0.008-4.426-0.018
		c-0.298-0.002-0.645-0.032-0.952-0.233c-0.544-0.452-0.924-1.043-1.292-1.614c-0.199-0.31-0.398-0.619-0.623-0.909
		c-0.339-0.438-0.468-0.604-0.646-0.604c-0.144,0-0.322,0.104-0.653,0.306c-0.397,0.241-0.797,0.478-1.197,0.715
		c-0.795,0.471-1.591,0.942-2.365,1.447c-0.249,0.162-0.549,0.327-0.893,0.327c-0.111,0-0.223-0.018-0.333-0.052
		c-0.117-0.041-0.242-0.062-0.383-0.062c-0.148,0-0.297,0.021-0.444,0.043c-0.149,0.021-0.298,0.043-0.447,0.043
		c-2.517-0.006-5.029-0.006-7.541-0.006l-5.949-0.004c-0.267-0.001-0.516-0.002-0.762-0.04c-0.323-0.05-0.653-0.161-0.653-0.611
		l5.243-3.361l1.869-1.149c1.491-0.918,2.982-1.835,4.468-2.763c1.179-0.737,2.352-1.485,3.525-2.234l1.604-1.023l2.287-1.412
		c2.151-1.327,4.303-2.654,6.436-4.013c0.245-0.156,0.417-0.226,0.559-0.226c0.232,0,0.392,0.194,0.573,0.508
		c0.698,1.211,1.432,2.401,2.164,3.593l0.855,1.395l2.766,4.573c0.211,0.429,0.456,0.84,0.702,1.25
		c0.47,0.785,0.956,1.598,1.175,2.53l0.06,0.249c0.13,0.545,0.265,1.107,0.258,1.686c0.069,0.151,0.065,0.315,0.063,0.476
		l-0.002,0.126c0.008,0.89-0.134,1.036-1.012,1.047C47.062,24.5,45.717,24.507,44.373,24.507z"/>
	<path style="fill-rule:evenodd;clip-rule:evenodd;fill:#002C40;" d="M44.389,12.553c0.922,1.524,1.844,3.049,2.766,4.573
		c0.619,1.262,1.545,2.367,1.876,3.777c0.149,0.64,0.325,1.27,0.317,1.933c0.087,0.193,0.059,0.399,0.061,0.602
		c0.008,0.871-0.111,1.026-1.002,1.037c-2.82,0.033-5.64,0.023-8.459,0.005c-0.334-0.003-0.66-0.045-0.946-0.232
		c-0.831-0.689-1.266-1.686-1.913-2.521c-0.57-0.736-0.551-0.764-1.312-0.302c-1.188,0.721-2.398,1.403-3.563,2.162
		c-0.363,0.237-0.756,0.42-1.217,0.274c-0.431-0.152-0.854,0.025-1.281,0.024c-4.496-0.011-8.99-0.003-13.486-0.01
		c-0.254-0.001-0.509-0.001-0.76-0.04c-0.348-0.054-0.646-0.171-0.646-0.602c1.747-1.117,3.493-2.235,5.239-3.353
		c2.112-1.303,4.23-2.598,6.336-3.912c1.717-1.073,3.42-2.171,5.13-3.258c2.911-1.803,5.835-3.585,8.723-5.425
		c0.581-0.37,0.792-0.285,1.118,0.278C42.34,9.248,43.377,10.893,44.389,12.553z"/>
	<path style="fill-rule:evenodd;clip-rule:evenodd;fill:#002E43;" d="M48.327,27.007c-0.966-0.049-2.004-0.071-3.364-0.071
		c-0.546,0-2.727,0.014-3.271,0.014c-0.56,0-1.12-0.004-1.68-0.015l-0.437,0.007c-0.302,0-0.613-0.039-0.856-0.324
		c0.019-0.305-0.002-0.604-0.022-0.905c-0.043-0.63-0.087-1.28,0.262-1.887c0.227,0.279,0.516,0.303,0.818,0.303l0.159,0.009v-0.01
		l8.279,0.001c1.104,0,1.104-0.03,1.112-0.811c0.001-0.137,0.003-0.296,0.011-0.481c0.188,0.277,0.162,0.579,0.139,0.872
		c-0.015,0.178-0.03,0.361-0.001,0.537c-0.078,0.341-0.122,0.683-0.166,1.025c-0.063,0.486-0.127,0.988-0.292,1.464
		c-0.162,0.188-0.358,0.274-0.622,0.274L48.327,27.007z"/>
	<path style="fill-rule:evenodd;clip-rule:evenodd;fill:#002E43;" d="M38.967,23.83c0.25,0.334,0.611,0.308,0.969,0.307
		c2.688-0.002,5.375-0.004,8.063,0.001c1.551,0.003,1.295,0.009,1.35-1.302c0.27,0.451,0.041,0.944,0.118,1.411
		c-0.19,0.821-0.179,1.68-0.458,2.484c-0.18,0.208-0.402,0.28-0.68,0.266c-2.771-0.142-5.545-0.02-8.316-0.072
		c-0.443-0.009-0.934,0.099-1.285-0.314C38.791,25.684,38.455,24.72,38.967,23.83z"/>
	<path style="fill-rule:evenodd;clip-rule:evenodd;fill:#002D42;" d="M23.117,25.277c-1.042,0-2.084-0.007-3.126-0.013
		c-1.042-0.007-2.084-0.014-3.126-0.014c-0.694,0-1.389,0.003-2.084,0.011l-0.527,0.007c-0.212,0-0.491-0.006-0.769-0.056
		c-0.227-0.04-0.479-0.099-0.603-0.279c-0.076-0.113-0.094-0.259-0.055-0.447c0.6-0.455,1.25-0.866,1.99-1.261
		c0.285,0.27,0.614,0.292,0.928,0.292l14.281-0.005c0.396,0,0.837,0.018,1.278,0.152c0.104,0.43-0.186,0.596-0.439,0.743
		c-0.062,0.035-0.122,0.07-0.177,0.107l-0.164,0.117c-0.37,0.265-0.753,0.539-1.242,0.539c-0.057,0-0.114-0.004-0.174-0.012
		C27.377,25.241,25.528,25.277,23.117,25.277z"/>
	<path style="fill-rule:evenodd;clip-rule:evenodd;fill:#002D42;" d="M14.823,23.234c0.349,0.341,0.79,0.29,1.22,0.29
		c4.661,0.001,9.322,0.003,13.984-0.002c0.434-0.001,0.859,0.025,1.275,0.152c0.117,0.514-0.334,0.636-0.619,0.833
		c-0.469,0.326-0.927,0.727-1.573,0.643c-4.776,0.223-9.554,0.049-14.329,0.102c-0.432,0.005-0.868,0.027-1.294-0.049
		c-0.38-0.067-0.761-0.18-0.649-0.715C13.465,24.016,14.131,23.604,14.823,23.234z"/>
	<path style="fill-rule:evenodd;clip-rule:evenodd;fill:#002E43;" d="M19.282,26.028c-2.221,0-4.44-0.002-6.661-0.01
		c-0.201-0.001-0.409-0.002-0.607-0.047c-0.274-0.063-0.585-0.19-0.561-0.614l0.327-0.306l1.053-0.572
		c0.265,0.379,0.634,0.41,0.961,0.41l0.346-0.004c4.063,0.005,15.196,0.007,15.196,0.007c-0.164,0.692-0.783,1.115-1.606,1.115
		l-0.143-0.005c-0.112-0.045-0.23-0.066-0.364-0.066c-0.139,0-0.276,0.022-0.415,0.046c-0.14,0.022-0.279,0.045-0.42,0.045
		L19.282,26.028z"/>
	<path style="fill-rule:evenodd;clip-rule:evenodd;fill:#002E43;" d="M12.838,24.488c0.326,0.488,0.84,0.406,1.311,0.407
		c5.063,0.007,10.125,0.006,15.188,0.007c-0.182,0.713-0.869,1.143-1.748,1.091c-0.404-0.163-0.801,0.025-1.203,0.024
		c-4.588-0.002-9.176,0.008-13.764-0.009c-0.203-0.001-0.408-0.002-0.605-0.047c-0.316-0.073-0.575-0.214-0.553-0.604
		c0.107-0.1,0.216-0.199,0.324-0.299C12.137,24.869,12.487,24.679,12.838,24.488z"/>
	<path style="fill-rule:evenodd;clip-rule:evenodd;fill:#003F5A;" d="M24.243,37.94c-0.236,0-0.489-0.007-0.741-0.059
		c-0.17-0.035-0.375-0.095-0.458-0.246c-0.055-0.1-0.052-0.227,0.009-0.387l1.544-1.014c1.457-0.079,2.997-0.114,4.999-0.114
		c0.912,0,1.824,0.007,2.735,0.014c0.912,0.008,1.824,0.015,2.735,0.015l0.805-0.002c1.925-0.011,3.852-0.014,5.776-0.014
		l8.702,0.006c0.918,0,1.834,0,2.734,0.162c0.072,0.013,0.145,0.019,0.215,0.019l0,0c0.174,0,0.342-0.033,0.512-0.066l0.1-0.019
		l0.376,0.076c0.438,0.085,0.891,0.173,1.345,0.375c-0.528,0.451-0.989,0.796-1.515,1.065c-0.612,0.166-1.222,0.188-1.737,0.188
		L24.243,37.94z"/>
	<path style="fill-rule:evenodd;clip-rule:evenodd;fill:#003F5A;" d="M53.908,36.245c0.562,0.121,1.137,0.191,1.719,0.45
		c-0.503,0.412-0.979,0.772-1.516,1.048c-0.568,0.153-1.148,0.187-1.732,0.187c-9.246-0.001-18.49,0.001-27.735-0.002
		c-0.381,0-0.766,0.021-1.14-0.056c-0.32-0.066-0.604-0.192-0.441-0.619c0.513-0.336,1.026-0.672,1.54-1.009
		c3.755-0.202,7.513-0.067,11.269-0.087c4.826-0.026,9.652-0.006,14.479-0.008c0.914,0,1.828-0.001,2.732,0.162
		C53.369,36.363,53.635,36.297,53.908,36.245z"/>
	<path style="fill-rule:evenodd;clip-rule:evenodd;fill:#003C57;" d="M25.272,36.517c-0.229,0-0.487-0.021-0.678-0.267l0.848-0.568
		l0.845-0.554c0.303-0.173,0.638-0.195,0.896-0.195c2.62,0.035,5.175,0.046,7.729,0.046c2.129,0,4.257-0.008,6.386-0.016
		c0,0,3.705-0.011,3.706-0.011c0.454,0,0.853,0.011,1.251,0.021c0.399,0.011,0.799,0.021,1.198,0.021
		c0.32,0,0.642-0.007,0.962-0.026l1.19,0.269c1.125,0.252,2.25,0.505,3.366,0.794c0.117,0.03,0.238,0.046,0.359,0.062
		c0.195,0.024,0.398,0.051,0.582,0.144c-0.325,0.28-0.715,0.28-1.091,0.28H25.272z"/>
	<path style="fill-rule:evenodd;clip-rule:evenodd;fill:#003C57;" d="M53.908,36.245c-0.32,0.259-0.701,0.262-1.086,0.262
		c-9.104-0.002-18.205-0.002-27.307-0.003c-0.327,0-0.673,0.051-0.913-0.26c0.563-0.369,1.127-0.738,1.69-1.107
		c0.297-0.17,0.623-0.198,0.956-0.193c5.917,0.079,11.835,0.032,17.751,0.019c1.139-0.003,2.277,0.086,3.416,0.017
		c1.52,0.348,3.045,0.672,4.553,1.063C53.281,36.122,53.615,36.097,53.908,36.245z"/>
	<path style="fill-rule:evenodd;clip-rule:evenodd;fill:#00415E;" d="M21.158,39.579c-0.319,0-0.624-0.071-0.691-0.592
		c0.308-0.276,0.721-0.61,1.222-0.812c0.713-0.19,1.427-0.205,2.219-0.205l27.44,0.001c0.293,0,0.585,0.006,0.876,0.044
		c0.328,0.042,0.659,0.149,0.628,0.619c-0.379,0.351-0.757,0.613-1.16,0.809c-0.451,0.119-0.916,0.129-1.354,0.129
		c0,0-22.611-0.004-28.742-0.009C21.523,39.563,21.231,39.579,21.158,39.579z"/>
	<path style="fill-rule:evenodd;clip-rule:evenodd;fill:#00415E;" d="M52.842,38.634c-0.349,0.319-0.729,0.594-1.154,0.801
		c-0.547,0.144-1.105,0.127-1.665,0.127c-9.476-0.003-18.95,0-28.427-0.008c-0.447-0.001-1.023,0.166-1.119-0.567
		c0.368-0.324,0.756-0.616,1.216-0.802c0.819-0.218,1.657-0.204,2.495-0.204c8.889,0.003,17.776,0.002,26.664,0.003
		c0.457,0,0.916-0.017,1.371,0.042C52.576,38.071,52.871,38.191,52.842,38.634z"/>
	<path style="fill-rule:evenodd;clip-rule:evenodd;fill:#004562;" d="M21.684,41.757c-0.524,0-1.066,0-1.53-0.354
		c-0.229-0.217-0.385-0.454-0.478-0.725c-0.039-0.358,0.215-0.454,0.469-0.5c0.1-0.018,0.2-0.022,0.302-0.022l0.31,0.005
		l28.003,0.001l0.329-0.009c0.112,0,0.202,0.01,0.281,0.029c0.188,0.046,0.362,0.098,0.435,0.231
		c0.047,0.086,0.046,0.196-0.003,0.335l-0.959,0.651c-0.553,0.18-1.111,0.204-1.632,0.204l-8.575-0.001
		c-0.539,0-1.084-0.048-1.611-0.094c-0.447-0.039-0.896-0.077-1.346-0.09c-0.014,0-0.026,0.001-0.039,0.001
		c-0.21,0-0.349-0.032-0.483-0.063c-0.142-0.032-0.288-0.066-0.431-0.066c-0.162,0-0.298,0.042-0.427,0.132
		c-0.682,0.229-1.383,0.34-2.146,0.34L21.684,41.757z"/>
	<path style="fill-rule:evenodd;clip-rule:evenodd;fill:#004562;" d="M20.159,41.395c-0.214-0.203-0.378-0.439-0.474-0.72
		c-0.037-0.343,0.197-0.439,0.461-0.487c0.2-0.036,0.406-0.018,0.609-0.018c9.334,0,18.668,0,28.003,0.001
		c0.203,0,0.411-0.028,0.608,0.021c0.277,0.067,0.564,0.154,0.424,0.554c-0.318,0.216-0.637,0.431-0.955,0.646
		c-0.537,0.174-1.092,0.203-1.652,0.202c-2.85-0.002-5.699,0-8.549-0.001c-0.989-0.001-1.969-0.157-2.957-0.184
		c-0.463,0.047-0.926-0.316-1.386,0.005c-0.704,0.236-1.424,0.341-2.171,0.338c-3.479-0.012-6.958-0.005-10.438-0.005
		C21.146,41.747,20.614,41.742,20.159,41.395z"/>
	<path style="fill-rule:evenodd;clip-rule:evenodd;fill:#01405B;" d="M52.834,38.64c-0.186-0.27-0.437-0.307-0.657-0.307
		c-0.076,0-0.153,0.005-0.229,0.01s-0.151,0.009-0.225,0.009c-6.989-0.004-29.03-0.002-29.03-0.002l-0.197,0.002
		c-0.263,0-0.543-0.019-0.808-0.158l1.337-0.927c0.176,0.28,0.388,0.32,0.577,0.32c0.078,0,0.157-0.008,0.236-0.016
		c0.077-0.008,0.154-0.015,0.227-0.015c4.081,0.007,8.162,0.008,12.243,0.008c0,0,14.695,0,16.449-0.004
		c0.565,0,0.979,0.053,1.357,0.173c-0.347,0.349-0.763,0.641-1.268,0.909l-0.008,0.004L52.834,38.64z"/>
	<path style="fill-rule:evenodd;clip-rule:evenodd;fill:#01405B;" d="M52.842,38.634c-0.288-0.42-0.729-0.292-1.119-0.292
		c-9.611-0.006-19.223-0.004-28.834-0.005c-0.404,0-0.816,0.048-1.196-0.152c0.456-0.311,0.913-0.621,1.37-0.932
		c0.211,0.488,0.65,0.313,1.002,0.313c6.308,0.011,12.615,0.008,18.924,0.008c3.256,0,6.513,0.003,9.769-0.004
		c0.462-0.001,0.913,0.033,1.354,0.173C53.731,38.103,53.301,38.39,52.842,38.634z"/>
	<path style="fill-rule:evenodd;clip-rule:evenodd;fill:#00364E;" d="M44.291,33.004l-13.178,0.001c-0.326,0-0.678-0.046-0.723-0.6
		l1.494-1.094l0.634-0.337c1.932-0.023,3.859-0.03,5.785-0.03c1.435,0,7.542,0.015,7.542,0.015c0.088,0,0.173-0.005,0.259-0.01
		c0.088-0.005,0.177-0.01,0.265-0.01c0.273,0,0.585,0.044,0.814,0.368c-0.23,0.583-0.566,1.105-0.998,1.563
		c-0.403,0.126-0.809,0.143-1.153,0.143L44.291,33.004z"/>
	<path style="fill-rule:evenodd;clip-rule:evenodd;fill:#00364E;" d="M31.891,31.319c0.211-0.112,0.422-0.225,0.633-0.336
		c4.441-0.051,8.881-0.02,13.322-0.015c0.458,0.001,0.984-0.143,1.33,0.345c-0.234,0.58-0.568,1.096-0.997,1.551
		c-0.619,0.191-1.255,0.131-1.888,0.13c-4.29-0.003-8.58,0.001-12.869-0.004c-0.441-0.001-0.965,0.103-1.021-0.586
		C30.896,32.042,31.394,31.681,31.891,31.319z"/>
	<path style="fill-rule:evenodd;clip-rule:evenodd;fill:#00344C;" d="M33.451,31.325c-0.328,0-0.67-0.026-0.936-0.335l0.919-0.625
		l0.917-0.61c0.88-0.142,1.822-0.204,3.061-0.204c0.491,0,0.983,0.009,1.475,0.019c0.492,0.009,0.983,0.019,1.476,0.019
		c0.196,0,0.394-0.002,0.591-0.005c0.771-0.015,1.541-0.02,2.312-0.02c0.711,0,3.391,0.015,3.391,0.015
		c0.492,0.002,0.929,0.03,1.291,0.354c-0.055,0.421-0.276,0.76-0.49,1.087l-0.105,0.163l-0.169,0.139L33.451,31.325z"/>
	<path style="fill-rule:evenodd;clip-rule:evenodd;fill:#00344C;" d="M47.176,31.313c-4.484,0-8.969,0-13.453-0.001
		c-0.428,0-0.873,0.051-1.199-0.329c0.611-0.406,1.223-0.813,1.834-1.22c2.191-0.352,4.396-0.131,6.596-0.171
		c1.9-0.035,3.801-0.012,5.702-0.005c0.462,0.002,0.915,0.021,1.284,0.353c-0.066,0.477-0.35,0.848-0.598,1.236
		C47.287,31.222,47.232,31.268,47.176,31.313z"/>
	<path style="fill-rule:evenodd;clip-rule:evenodd;fill:#00435F;" d="M20.312,40.186c-0.343,0-0.671-0.071-0.76-0.588l0.915-0.616
		c0.215,0.243,0.464,0.276,0.682,0.276c0.077,0,0.156-0.005,0.234-0.01s0.155-0.009,0.23-0.009
		c7.195,0.004,29.125,0.003,29.125,0.003c0.296,0,0.639,0.014,0.954,0.184c-0.231,0.261-0.512,0.457-0.831,0.599
		c-0.612,0.159-1.229,0.159-1.825,0.159l-28.339-0.008L20.312,40.186z"/>
	<path style="fill-rule:evenodd;clip-rule:evenodd;fill:#00435F;" d="M20.477,38.986c0.311,0.385,0.746,0.263,1.137,0.263
		c9.603,0.006,19.205,0.005,28.807,0.005c0.432,0,0.867-0.035,1.268,0.181c-0.238,0.25-0.516,0.441-0.83,0.581
		c-0.621,0.161-1.253,0.158-1.889,0.158c-9.424-0.006-18.848-0.002-28.271-0.008c-0.461,0-1.016,0.131-1.136-0.57
		C19.867,39.393,20.172,39.189,20.477,38.986z"/>
	<path style="fill-rule:evenodd;clip-rule:evenodd;fill:#004360;" d="M49.782,40.749c-0.103-0.222-0.27-0.267-0.488-0.267
		l-0.233,0.005l-28.747-0.002c-0.216,0-0.441,0.016-0.621,0.196c-0.046-0.111-0.157-0.214-0.266-0.312
		c-0.138-0.127-0.281-0.257-0.262-0.406c0.017-0.125,0.145-0.248,0.392-0.377c0.272,0.226,0.566,0.271,0.928,0.271l0.389-0.005
		l29.191-0.003c0.259,0,0.535,0.019,0.798,0.156c-0.386,0.375-0.716,0.6-1.067,0.747l-0.009,0.004L49.782,40.749z"/>
	<path style="fill-rule:evenodd;clip-rule:evenodd;fill:#004360;" d="M19.562,39.596c0.388,0.334,0.858,0.268,1.312,0.268
		c9.596,0.002,19.19,0.001,28.785,0.003c0.404,0,0.818-0.05,1.199,0.149c-0.32,0.296-0.661,0.56-1.066,0.729
		c-0.154-0.333-0.46-0.268-0.73-0.268c-9.529-0.002-19.059-0.002-28.588-0.001c-0.277,0-0.564-0.026-0.787,0.198
		C19.588,40.321,18.666,40.063,19.562,39.596z"/>
	<path style="fill-rule:evenodd;clip-rule:evenodd;fill:#004664;" d="M45.549,43.659c-0.05,0-0.101-0.006-0.156-0.019
		c-2.642-0.607-5.284-1.21-7.926-1.813l-1.791-0.409c0.643-0.18,1.3-0.192,1.972-0.192l4.885,0.004l5.103-0.004
		c0.406,0,0.813,0.019,1.204,0.155c-0.554,0.523-1.187,0.947-1.799,1.357c-0.386,0.258-0.771,0.516-1.142,0.795
		C45.785,43.62,45.674,43.659,45.549,43.659z"/>
	<path style="fill-rule:evenodd;clip-rule:evenodd;fill:#004664;" d="M35.678,41.409c0.722-0.18,1.457-0.174,2.195-0.173
		c3.254,0.006,6.508,0.005,9.762,0c0.409-0.001,0.813,0.02,1.201,0.155c-0.902,0.819-1.976,1.404-2.943,2.135
		c-0.152,0.114-0.305,0.148-0.498,0.104C42.156,42.887,38.916,42.148,35.678,41.409z"/>
	<path style="fill-rule:evenodd;clip-rule:evenodd;fill:#003B54;" d="M42.005,35.294c-4.784,0-9.568,0-14.353-0.007
		c-0.31,0-0.618-0.043-0.928-0.085c-0.145-0.021-0.288-0.04-0.433-0.056c0.386-0.36,0.777-0.619,1.191-0.809
		c2.009-0.025,4.014-0.03,6.019-0.03l5.064,0.004c1.665,0,3.329-0.004,4.994-0.019h0.001c0.314,0,0.607,0.047,0.891,0.092
		c0.282,0.045,0.573,0.091,0.86,0.091c0.239,0,0.454-0.032,0.655-0.099c0.745,0.127,1.615,0.297,2.451,0.592
		c-0.37,0.302-0.813,0.325-1.235,0.325H42.005z"/>
	<path style="fill-rule:evenodd;clip-rule:evenodd;fill:#003B54;" d="M48.416,34.979c-0.366,0.278-0.793,0.306-1.232,0.306
		c-6.51-0.001-13.021,0.002-19.531-0.007c-0.453-0.001-0.906-0.092-1.359-0.141c0.362-0.317,0.756-0.589,1.194-0.79
		c5.358-0.063,10.716,0.004,16.073-0.044c0.809-0.007,1.6,0.351,2.41,0.084C46.8,34.529,47.621,34.698,48.416,34.979z"/>
	<path style="fill-rule:evenodd;clip-rule:evenodd;fill:#003A54;" d="M28.361,34.682l-0.126-0.01v0.011
		c-0.298,0-0.581-0.025-0.757-0.331l0.776-0.544c0.645-0.201,1.281-0.217,1.933-0.217l13.777-0.001c0.305,0,0.645,0.036,0.816,0.462
		l1.192,0.325c-0.28,0.285-0.633,0.307-0.999,0.307L28.361,34.682z"/>
	<path style="fill-rule:evenodd;clip-rule:evenodd;fill:#003A54;" d="M45.971,34.387c-0.283,0.267-0.634,0.287-0.996,0.287
		c-5.537-0.002-11.075-0.001-16.613-0.002c-0.331,0-0.672,0.025-0.874-0.325c0.261-0.18,0.522-0.359,0.784-0.539
		c0.74-0.225,1.504-0.207,2.266-0.206c4.377,0.005,8.754,0.001,13.131,0.003c0.427,0,0.891-0.079,1.104,0.451
		C45.172,34.166,45.572,34.276,45.971,34.387z"/>
	<path style="fill-rule:evenodd;clip-rule:evenodd;fill:#004867;" d="M26.801,43.917c-0.624,0-1.248-0.013-1.872-0.025
		c-0.624-0.014-1.248-0.026-1.871-0.026c-0.237,0-0.71,0.006-0.711,0.006c-0.176,0-0.328-0.051-0.476-0.1
		c-0.063-0.021-0.126-0.041-0.19-0.059c-0.368-0.408-0.634-0.807-0.816-1.223c0.117-0.453,0.475-0.519,0.843-0.523
		c1.657-0.019,3.315-0.029,4.974-0.029c1.62,0,3.24,0.011,4.861,0.035c0.383,0.006,0.783,0.081,0.843,0.598
		c-0.191,0.12-0.372,0.241-0.553,0.361c-0.441,0.295-0.898,0.601-1.435,0.747C29.358,43.844,28.249,43.917,26.801,43.917z"/>
	<path style="fill-rule:evenodd;clip-rule:evenodd;fill:#004867;" d="M21.684,43.703c-0.329-0.366-0.611-0.764-0.811-1.217
		c0.115-0.437,0.465-0.505,0.834-0.51c3.278-0.036,6.557-0.044,9.835,0.006c0.395,0.006,0.774,0.084,0.833,0.589
		c-0.648,0.385-1.23,0.893-1.98,1.098c-2.674,0.425-5.364,0.142-8.047,0.192C22.115,43.866,21.904,43.763,21.684,43.703z"/>
	<path style="fill-rule:evenodd;clip-rule:evenodd;fill:#004764;" d="M32.368,42.579c-0.315-0.263-0.686-0.263-1.077-0.263h-9.379
		c-0.396,0-0.723,0.014-1.034,0.179c-0.331-0.367-0.565-0.726-0.728-1.097l14.142,0.006c-0.592,0.469-1.242,0.823-1.912,1.176
		l-0.006,0.003L32.368,42.579z"/>
	<path style="fill-rule:evenodd;clip-rule:evenodd;fill:#004764;" d="M32.375,42.571c-0.318-0.265-0.699-0.265-1.084-0.265
		c-3.127,0.002-6.252,0.002-9.379,0c-0.358,0-0.713,0.007-1.039,0.18c-0.289-0.331-0.537-0.688-0.714-1.092
		c4.711,0.006,9.422,0.013,14.133,0.02C33.693,41.866,33.037,42.223,32.375,42.571z"/>
	<path style="fill-rule:evenodd;clip-rule:evenodd;fill:#003851;" d="M45.223,33.64c-2.048-0.023-4.096-0.03-6.144-0.03
		l-6.155,0.007c-0.96,0-1.919-0.002-2.879-0.006l-0.306,0.007c-0.246,0-0.493-0.041-0.639-0.345
		c0.364-0.333,0.788-0.616,1.295-0.877c0.195,0.256,0.436,0.29,0.668,0.29l0.38-0.011l13.797,0.002c0.31,0,0.638,0.014,0.943,0.179
		c-0.277,0.332-0.6,0.59-0.956,0.783l-0.002,0.001H45.223z"/>
	<path style="fill-rule:evenodd;clip-rule:evenodd;fill:#003851;" d="M30.4,32.404c0.273,0.379,0.68,0.279,1.049,0.28
		c4.514,0.005,9.027,0.003,13.54,0.003c0.405,0,0.814-0.026,1.189,0.177c-0.274,0.311-0.592,0.568-0.956,0.766
		c-5.06-0.06-10.119-0.009-15.178-0.029c-0.344-0.001-0.734,0.086-0.936-0.332C29.5,32.922,29.937,32.643,30.4,32.404z"/>
	<path style="fill-rule:evenodd;clip-rule:evenodd;fill:#003951;" d="M44.768,34.064c-0.292-0.136-0.604-0.147-0.872-0.147H29.246
		l-0.406,0.01c-0.173,0-0.376-0.014-0.573-0.11c0.226-0.22,0.497-0.445,0.84-0.558l15.185,0.028c0.33,0,0.675,0.025,0.939,0.336
		l-0.453,0.44L44.768,34.064z"/>
	<path style="fill-rule:evenodd;clip-rule:evenodd;fill:#003951;" d="M29.109,33.269c4.971,0.01,9.942,0.02,14.914,0.03
		c0.429,0.001,0.874-0.051,1.199,0.331c-0.15,0.143-0.301,0.284-0.451,0.426c-0.383-0.179-0.793-0.146-1.199-0.146
		c-4.775,0-9.551,0.001-14.326-0.002c-0.326,0-0.662,0.054-0.975-0.1C28.521,33.584,28.782,33.375,29.109,33.269z"/>
	<path style="fill-rule:evenodd;clip-rule:evenodd;fill:#004A6A;" d="M25.784,45.133c-0.499,0-0.998-0.015-1.497-0.029
		c-0.466-0.014-0.933-0.027-1.398-0.029c-0.134-0.001-0.277-0.057-0.426-0.166c-0.324-0.405-0.614-0.77-0.789-1.201
		c0.184-0.174,0.4-0.188,0.624-0.188l0.108,0.011v-0.01h7.33c0.289,0,0.484,0.011,0.664,0.141l-0.321,0.246
		c-0.517,0.373-1.05,0.76-1.657,1.007C27.653,45.065,26.841,45.133,25.784,45.133z"/>
	<path style="fill-rule:evenodd;clip-rule:evenodd;fill:#004A6A;" d="M21.684,43.703c0.21-0.188,0.469-0.173,0.723-0.173
		c2.443-0.001,4.887,0,7.329,0c0.229,0,0.46-0.006,0.659,0.139c-0.635,0.449-1.247,0.938-1.977,1.236
		c-1.834,0.36-3.685,0.166-5.529,0.159c-0.15-0.001-0.295-0.072-0.42-0.164C22.17,44.525,21.865,44.154,21.684,43.703z"/>
	<path style="fill-rule:evenodd;clip-rule:evenodd;fill:#014D6C;" d="M24.22,47.412c-0.141,0-0.234-0.104-0.34-0.274
		c-0.318-0.509-0.642-1.015-0.965-1.52l-0.455-0.713c0.952-0.135,1.927-0.195,2.906-0.195c0.991,0,2.019,0.063,3.053,0.186
		L27.293,45.6c-0.938,0.568-1.878,1.137-2.81,1.718C24.382,47.381,24.295,47.412,24.22,47.412z"/>
	<path style="fill-rule:evenodd;clip-rule:evenodd;fill:#014D6C;" d="M22.469,44.9c1.982-0.252,3.966-0.231,5.949,0.005
		c-1.314,0.8-2.634,1.59-3.939,2.403c-0.305,0.19-0.438,0.069-0.59-0.176C23.421,46.385,22.942,45.645,22.469,44.9z"/>
	<path style="fill-rule:evenodd;clip-rule:evenodd;fill:#FEDB3D;" d="M38.233,27.066c-0.308-0.16-0.63-0.173-0.988-0.173
		l-0.129-0.01v0.01l-9.699,0.002l-0.159,0.004c-0.241,0-0.491-0.033-0.685-0.267c0.058-0.658,0.519-0.727,0.965-0.792
		c0.083-0.013,0.166-0.025,0.247-0.041l1.546-0.906l1.946-1.215c0.464-0.277,0.91-0.539,1.356-0.802
		c1.104-0.648,2.246-1.319,3.34-2.024c0.234-0.15,0.411-0.221,0.559-0.221c0.245,0,0.419,0.198,0.604,0.497
		c0.403,0.652,0.854,1.29,1.288,1.907l0.551,0.788l0.04,0.443c0.029,0.351,0.06,0.702,0.101,1.052
		c0.048,0.406-0.053,0.773-0.307,1.123c-0.053,0.342-0.099,0.633-0.462,0.633C38.312,27.075,38.274,27.072,38.233,27.066z"/>
	<path style="fill-rule:evenodd;clip-rule:evenodd;fill:#FEDB3D;" d="M27.787,25.81c0.516-0.303,1.033-0.605,1.549-0.907
		c0.656-0.409,1.312-0.818,1.967-1.228c1.563-0.932,3.148-1.829,4.677-2.813c0.58-0.375,0.817-0.261,1.147,0.272
		c0.572,0.925,1.223,1.801,1.84,2.696c0.045,0.497,0.08,0.995,0.139,1.49c0.049,0.418-0.063,0.782-0.305,1.116
		c-0.055,0.329-0.076,0.688-0.566,0.62c-0.354-0.185-0.736-0.173-1.118-0.173c-3.181,0.002-6.362,0.002-9.542-0.001
		c-0.35,0-0.725,0.069-0.993-0.257C26.651,25.864,27.27,25.912,27.787,25.81z"/>
	<path style="fill-rule:evenodd;clip-rule:evenodd;fill:#003046;" d="M8.625,28.619c-0.27-0.001-0.52-0.002-0.76-0.05
		c-0.402-0.08-0.573-0.278-0.539-0.622c0.737-0.542,1.564-1.063,2.604-1.647c1.804-0.067,3.783-0.098,6.231-0.098
		c1.227,0,2.452,0.007,3.678,0.014c1.226,0.008,2.451,0.015,3.677,0.015l1.351-0.003c0,0,0.396-0.015,0.479-0.015
		c0.358,0,0.72,0.063,0.934,0.515c-0.882,0.63-1.81,1.194-2.762,1.689c-0.506,0.101-1.104,0.202-1.728,0.203l-6.834,0.005
		C12.846,28.625,10.735,28.623,8.625,28.619z"/>
	<path style="fill-rule:evenodd;clip-rule:evenodd;fill:#003046;" d="M7.336,27.948c0.83-0.605,1.705-1.138,2.6-1.64
		c4.977-0.183,9.955-0.046,14.932-0.071c0.506-0.002,1.104-0.14,1.404,0.494c-0.881,0.619-1.801,1.179-2.758,1.677
		c-0.568,0.112-1.142,0.201-1.723,0.202c-4.389,0.005-8.777,0.007-13.166-0.001c-0.254-0.001-0.51,0-0.758-0.05
		C7.539,28.494,7.297,28.34,7.336,27.948z"/>
	<path style="fill-rule:evenodd;clip-rule:evenodd;fill:#003147;" d="M42.254,28.931c-1.54,0-3.08-0.003-4.619-0.012
		c-0.226-0.001-0.423-0.001-0.606-0.061c-0.173-0.056-0.342-0.126-0.404-0.265c-0.042-0.093-0.034-0.204,0.025-0.342
		c0.216-0.22,0.478-0.381,0.731-0.537c0.303-0.186,0.615-0.377,0.846-0.664l0.566-0.621c0.19,0.127,0.383,0.145,0.564,0.145
		l0.325-0.007l3.625,0.004l3.463-0.005c0.716,0,1.479,0.012,2.239,0.155c-0.075,0.701-0.157,1.381-0.458,1.999
		c-0.261,0.188-0.555,0.203-0.884,0.203L42.254,28.931z"/>
	<path style="fill-rule:evenodd;clip-rule:evenodd;fill:#003147;" d="M38.234,27.057c0.189-0.207,0.378-0.413,0.566-0.62
		c0.27,0.195,0.582,0.141,0.882,0.141c2.202,0.004,4.403,0.006,6.605,0c0.91-0.002,1.819-0.016,2.72,0.154
		c-0.082,0.68-0.16,1.358-0.465,1.985c-0.264,0.188-0.57,0.197-0.875,0.197c-3.344,0.005-6.689,0.014-10.033-0.005
		c-0.203-0.001-0.41,0.002-0.604-0.061c-0.279-0.09-0.535-0.215-0.373-0.593C37.127,27.781,37.809,27.586,38.234,27.057z"/>
	<path style="fill-rule:evenodd;clip-rule:evenodd;fill:#00334A;" d="M47.489,30.029c-0.162,0-0.323-0.023-0.484-0.047
		c-0.161-0.022-0.322-0.046-0.482-0.046c-1.951,0.012-3.893,0.015-5.833,0.015l-5.383-0.005l-0.359,0.009
		c-0.188,0-0.407-0.021-0.597-0.184c0.657-0.529,1.389-1.008,2.303-1.524c0.125,0.281,0.328,0.318,0.512,0.318
		c0.059,0,0.292-0.016,0.348-0.016c1.702,0.004,3.404,0.006,5.105,0.006l4.724-0.004c0.35,0,0.782,0.018,1.204,0.155
		c-0.029,0.284-0.176,0.506-0.317,0.72c-0.107,0.162-0.219,0.329-0.279,0.517C47.807,30.003,47.658,30.029,47.489,30.029z"/>
	<path style="fill-rule:evenodd;clip-rule:evenodd;fill:#00334A;" d="M36.658,28.256c0.17,0.423,0.545,0.304,0.854,0.304
		c3.276,0.008,6.553,0.007,9.829,0.002c0.41-0.001,0.811,0.027,1.201,0.155c-0.063,0.477-0.461,0.787-0.604,1.224
		c-0.477,0.186-0.951-0.017-1.428-0.014c-3.734,0.021-7.469,0.014-11.205,0.01c-0.323-0.001-0.666,0.07-0.949-0.173
		C35.082,29.197,35.857,28.708,36.658,28.256z"/>
	<path style="fill-rule:evenodd;clip-rule:evenodd;fill:#002F44;" d="M26.27,26.741c-0.637-0.144-1.278-0.155-1.935-0.155
		l-5.927,0.004c-2.506,0-5.011-0.002-7.516-0.008c-0.069,0-0.141,0.007-0.214,0.014c-0.075,0.007-0.151,0.015-0.226,0.015
		c-0.171,0-0.384-0.034-0.526-0.297c0.421-0.365,0.922-0.677,1.532-0.964c0.276,0.282,0.603,0.306,0.914,0.306l14.643-0.005
		c0.254,0,0.524,0.019,0.776,0.15l-0.451,0.322l-0.754,0.511l-0.314,0.108L26.27,26.741z"/>
	<path style="fill-rule:evenodd;clip-rule:evenodd;fill:#002F44;" d="M26.271,26.731c-0.673-0.151-1.355-0.156-2.043-0.155
		c-4.445,0.006-8.891,0.006-13.336-0.004c-0.33,0-0.73,0.154-0.957-0.264c0.463-0.39,0.98-0.692,1.527-0.95
		c0.34,0.358,0.783,0.304,1.212,0.304c4.665,0.001,9.329,0,13.993,0.002c0.379,0,0.764-0.041,1.119,0.146
		c-0.402,0.272-0.805,0.544-1.206,0.816C26.479,26.661,26.375,26.696,26.271,26.731z"/>
	<path style="fill-rule:evenodd;clip-rule:evenodd;fill:#003249;" d="M6.868,29.188c-0.316,0-0.677-0.028-0.938-0.37
		c0.382-0.351,0.84-0.634,1.402-0.878c0.186,0.278,0.433,0.316,0.674,0.316l0.365-0.01l6.932,0.004l6.933-0.004
		c0.388,0,0.844,0.018,1.281,0.152l-0.648,0.412l-0.652,0.395L6.868,29.188z"/>
	<path style="fill-rule:evenodd;clip-rule:evenodd;fill:#003249;" d="M7.336,27.948c0.255,0.404,0.666,0.308,1.035,0.308
		c4.621,0.005,9.242,0.005,13.864,0c0.435,0,0.862,0.024,1.278,0.152c-0.434,0.263-0.867,0.524-1.301,0.787
		c-5.005-0.007-10.01-0.013-15.015-0.021c-0.452-0.001-0.93,0.069-1.261-0.362C6.354,28.442,6.828,28.169,7.336,27.948z"/>
</g>
</svg>
