<?xml version="1.0" encoding="iso-8859-1"?>
<!-- Generator: Adobe Illustrator 16.0.0, SVG Export Plug-In . SVG Version: 6.00 Build 0)  -->
<!DOCTYPE svg PUBLIC "-//W3C//DTD SVG 1.1//EN" "http://www.w3.org/Graphics/SVG/1.1/DTD/svg11.dtd">
<svg version="1.1" id="Layer_1" xmlns="http://www.w3.org/2000/svg" xmlns:xlink="http://www.w3.org/1999/xlink" x="0px" y="0px"
	 width="64px" height="64px" viewBox="0 0 64 64" style="enable-background:new 0 0 64 64;" xml:space="preserve">
<g>
	<path style="fill-rule:evenodd;clip-rule:evenodd;fill:#FAB92F;" d="M31.595,64c0-0.232,0-0.464,0-0.652
		c-6.447-3.36-12.118-7.586-16.674-13.258c-0.905-1.223-1.81-2.447-2.737-3.702c-1.956,0-3.945,0-5.951,0
		c-1.518-1.371-3.031-2.743-4.557-4.104c-0.111-0.099-0.305-0.106-0.461-0.156c0-0.405,0-0.811,0-1.216
		c0.135-0.101,0.341-0.174,0.394-0.308c0.69-1.746,1.36-3.502,2.036-5.254c0.744-1.931,1.498-3.857,2.227-5.795
		c0.079-0.207,0.092-0.492,0.016-0.697c-0.161-0.432-0.437-0.82-0.602-1.25c-0.492-1.278-0.93-2.578-1.436-3.852
		c-0.722-1.818-1.479-3.621-2.24-5.424c-0.057-0.134-0.26-0.206-0.395-0.307c0-0.473,0-0.945,0-1.418
		c1.676,0.095,3.351,0.189,5.063,0.285c0-5.235,0-10.242,0-15.248c0-0.549,0.001-1.096,0.001-1.645c0.405,0,0.811,0,1.216,0
		C7.56,0.134,7.59,0.328,7.697,0.393c1.972,1.164,4.02,2.213,5.913,3.49c1.913,1.291,3.677,2.805,5.575,4.273
		c9.552-2.742,19.311-3.191,28.913,0.076c0.864-0.768,1.629-1.527,2.476-2.182c1.349-1.043,2.706-2.09,4.146-2.997
		c1.477-0.931,3.062-1.688,4.585-2.546C59.438,0.434,59.467,0.174,59.545,0c0.404,0,0.81,0,1.215,0c0,6.188,0,12.376,0,18.564
		c0.082-0.034,0.165-0.068,0.248-0.102c0.457,0.901,0.907,1.808,1.382,2.701c0.071,0.133,0.261,0.204,0.396,0.305
		c0,5.535,0,11.071,0,16.607c-0.103,0.01-0.288,0-0.295,0.031c-0.425,1.863-1.861,3.142-2.738,4.743
		c-0.617,1.13-1.312,2.217-1.963,3.308c-1.058,0.104-2.079,0.203-2.984,0.291c-0.445,0.633-0.801,1.219-1.234,1.739
		c-1.205,1.448-2.428,2.884-3.674,4.296c-0.834,0.945-1.674,1.896-2.598,2.749c-1.139,1.05-2.344,2.033-3.563,2.989
		c-1.127,0.884-2.267,1.768-3.484,2.515c-1.163,0.714-2.437,1.245-3.655,1.869c-0.361,0.185-0.717,0.393-1.048,0.626
		c-0.25,0.176-0.591,0.359-0.308,0.768C34.025,64,32.811,64,31.595,64z M4.391,42.447c-0.021,0.048-0.043,0.096-0.066,0.148
		c0.048-0.025,0.091-0.047,0.134-0.07c0.069,0.061,0.14,0.121,0.21,0.182c0.102,0.09,0.205,0.18,0.307,0.271l0.053,0.047
		c0.269,1.12,1.267,1.521,2.052,2.147c1.973,0,3.92,0,5.932,0c0.302,0.43,0.577,0.89,0.923,1.289
		c0.242,0.281,0.58,0.479,0.875,0.714l-0.008-0.009c0.097,0.783,0.359,1.437,1.246,1.607l-0.008-0.008
		c0.093,0.107,0.186,0.214,0.278,0.32l0.03,0.037c-0.144,0.644,0.127,0.938,0.773,0.911c0.065,0.025,0.096,0.073,0.091,0.143
		c-0.015,0.034-0.028,0.069-0.042,0.104c0.037-0.01,0.075-0.02,0.113-0.029c0.059,0.01,0.092,0.043,0.1,0.104
		c0.041,0.048,0.082,0.096,0.124,0.145l0.047,0.04c0.058,0.233,0.041,0.54,0.187,0.691c1.021,1.065,2.065,2.11,3.131,3.132
		c0.15,0.144,0.457,0.125,0.691,0.181l0.041,0.052c0.047,0.04,0.095,0.08,0.143,0.121c0.037,0.008,0.066,0.029,0.088,0.062
		c0.11,0.644,0.381,1.1,1.146,0.976l0.041,0.035c0.016,0.124-0.016,0.306,0.054,0.361c0.85,0.688,1.706,1.369,2.583,2.021
		c0.123,0.092,0.368,0.021,0.557,0.024l0.036,0.024c0.306,0.94,1.063,1.206,1.938,1.294l-0.009-0.01
		c0.098,0.199,0.141,0.493,0.299,0.581c1.639,0.911,3.295,1.789,5,2.706c0.894-0.461,1.814-0.875,2.674-1.391
		c2.072-1.241,4.124-2.519,6.162-3.816c0.232-0.148,0.324-0.519,0.482-0.786l0.055-0.03c0.063-0.049,0.127-0.099,0.19-0.148
		l0.014-0.016c0.485,0.158,0.652-0.092,0.676-0.527l-0.009,0.009c0.634-0.386,1.322-0.706,1.883-1.177
		c0.414-0.346,0.662-0.89,0.984-1.346c0.025-0.074,0.076-0.107,0.154-0.1c0.041,0.004,0.082,0.01,0.123,0.015
		c-0.025-0.021-0.051-0.042-0.075-0.062c0.044-0.046,0.088-0.091,0.132-0.136c0.039,0.012,0.078,0.023,0.118,0.035
		c-0.008-0.042-0.017-0.083-0.024-0.124c0.011-0.053,0.042-0.084,0.096-0.093c0.043,0.007,0.088,0.014,0.132,0.021
		c-0.008-0.044-0.017-0.088-0.024-0.133c0.012-0.05,0.043-0.079,0.094-0.088c0.045,0.006,0.09,0.012,0.133,0.019
		c-0.007-0.044-0.014-0.089-0.021-0.133c0.012-0.05,0.043-0.081,0.094-0.09c0.041,0.007,0.084,0.013,0.126,0.021
		c-0.012-0.041-0.022-0.082-0.034-0.122c0.006-0.075,0.047-0.114,0.121-0.118c0.039,0.011,0.076,0.021,0.115,0.031
		c-0.012-0.037-0.023-0.076-0.035-0.113c0.006-0.075,0.047-0.115,0.122-0.12c0.039,0.011,0.078,0.021,0.117,0.032
		c-0.011-0.04-0.021-0.08-0.03-0.119c0.006-0.069,0.043-0.107,0.112-0.113c0.04,0.01,0.081,0.02,0.12,0.03
		c-0.01-0.04-0.021-0.081-0.031-0.121c0.008-0.066,0.045-0.103,0.111-0.109c0.041,0.01,0.082,0.019,0.123,0.028
		c-0.011-0.041-0.021-0.081-0.031-0.122c0.008-0.069,0.046-0.106,0.115-0.11c0.037,0.01,0.073,0.02,0.109,0.03
		c-0.017-0.032-0.033-0.065-0.051-0.099c-0.005-0.07,0.026-0.118,0.094-0.143c0.544,0.177,0.475-0.211,0.484-0.525
		c-0.002-0.056,0.025-0.087,0.08-0.094c0.439-0.029,0.868-0.07,0.63-0.707l0.049-0.039c0.04-0.047,0.08-0.095,0.12-0.143
		c0.01-0.033,0.029-0.062,0.057-0.084c0.607-0.145,1.064-0.415,0.963-1.152l0.047-0.059c0.725-0.152,1.054-0.613,1.043-1.339
		c0,0.001-0.001,0.001-0.001,0.001c0.698-0.324,1.315-0.705,1.142-1.637l0.045-0.063c0.678,0.003,0.877-0.435,0.928-1.008
		c0.84-0.029,1.68-0.059,2.52-0.088c0.061-0.086,0.12-0.173,0.18-0.259l0.021-0.056c0.294-0.259,0.665-0.468,0.868-0.784
		c0.703-1.099,1.254-2.307,2.039-3.338c1.037-1.361,1.662-2.813,1.662-4.523c0.001-3.806,0.024-7.611-0.019-11.416
		c-0.009-0.858-0.204-1.725-0.413-2.563c-0.065-0.268-0.451-0.454-0.691-0.678c-0.484-0.59-0.969-1.18-1.549-1.887
		c0.086-2.25,0.178-4.65,0.271-7.051c0.126-0.307,0.356-0.613,0.36-0.922c0.033-2.118,0.027-4.237,0.006-6.355
		c-0.003-0.313-0.159-0.623-0.244-0.934c-0.119-0.373-0.237-0.744-0.355-1.117c0-0.068,0.001-0.138,0.002-0.207
		c0.016-0.029,0.031-0.057,0.047-0.086c-0.016,0.029-0.031,0.057-0.047,0.086c-0.551,0.064-1.132,0.087-1.189,0.846l0.01-0.01
		c-0.197,0.019-0.434-0.025-0.585,0.066c-1.841,1.131-3.683,2.262-5.489,3.443C51.265,7.05,50.977,7.52,50.63,7.898
		c-0.02,0.1-0.038,0.198-0.058,0.297L50.515,8.24c-0.049,0.049-0.097,0.098-0.146,0.147l-0.047,0.056
		c-0.29,0.137-0.621,0.223-0.86,0.42c-0.316,0.262-0.56,0.611-0.835,0.924c-0.034-0.055-0.068-0.108-0.102-0.162
		c-0.386,0.053-0.771,0.106-1.155,0.16c-2.423-0.572-4.846-1.145-7.269-1.717c-0.23-0.189-0.449-0.522-0.695-0.546
		c-1.268-0.12-2.542-0.225-3.813-0.214c-2.283,0.018-4.566,0.103-6.848,0.213c-0.273,0.013-0.531,0.355-0.796,0.546
		c-0.134,0.015-0.268,0.029-0.401,0.044c-0.21-0.07-0.433-0.226-0.628-0.195c-1.664,0.252-3.325,0.522-4.979,0.834
		c-0.186,0.035-0.316,0.355-0.474,0.544c-0.662,0.183-1.324,0.365-1.986,0.548c-0.461-0.607-1.068,0.043-1.573-0.184l-0.037-0.041
		c0.026-0.124,0.119-0.311,0.07-0.361c-0.684-0.709-1.382-1.403-2.094-2.084c-0.047-0.044-0.232,0.058-0.354,0.092l-0.067-0.061
		c-0.228-0.865-0.647-1.188-1.545-1.188L13.85,5.991c-0.013-0.087-0.025-0.173-0.041-0.271c-0.119,0.012-0.213,0.021-0.307,0.03
		l0.014-0.063l-0.022,0.061c-0.069-0.202-0.077-0.5-0.218-0.592c-0.779-0.504-1.576-0.988-2.401-1.411
		c-0.296-0.151-0.688-0.112-1.037-0.161L9.79,3.557c-0.164-0.83-0.756-1.008-1.485-0.975c-0.144,0.016-0.287,0.031-0.43,0.046
		C7.748,2.964,7.512,3.299,7.51,3.636c-0.025,4.149-0.018,8.298-0.014,12.446c0,0.266,0.029,0.53,0.047,0.829
		c0.193,0.037,0.354,0.067,0.512,0.099c0.007,0.271,0.014,0.544,0.02,0.816c-0.984,0.066-1.974,0.106-2.954,0.215
		c-0.3,0.033-0.578,0.256-0.866,0.391c-0.188,0.007-0.374,0.014-0.562,0.021c-0.087-0.004-0.173-0.008-0.26-0.012
		c-0.115,0.055-0.229,0.109-0.485,0.23c0.271,0.088,0.379,0.124,0.487,0.16c0.443,1.22,0.853,2.454,1.34,3.656
		c0.639,1.578,1.347,3.127,2.011,4.693c0.439,1.037,0.723,2.069,0.216,3.202c-0.653,1.461-1.247,2.95-1.813,4.448
		c-0.245,0.65-0.356,1.351-0.529,2.028c-0.642,1.394-1.284,2.786-2.002,4.343c0.42,0.258,0.738,0.453,1.059,0.649L3.679,41.9
		l0.025-0.055c0.075,0.07,0.151,0.141,0.227,0.211l-0.015-0.014c0.076,0.064,0.15,0.129,0.227,0.193c-0.001,0-0.002,0-0.002,0
		c0.068,0.06,0.139,0.119,0.207,0.18L4.391,42.447z"/>
	<path style="fill-rule:evenodd;clip-rule:evenodd;fill:#060605;" d="M8.074,17.826c-0.006-0.272-0.013-0.545-0.02-0.816
		c-0.006-0.672-0.014-1.342-0.021-2.014c-0.01-0.342-0.021-0.684-0.03-1.025C7.99,10.416,7.975,6.861,7.961,3.307
		c0.123-0.197,0.247-0.395,0.37-0.592C8.817,2.996,9.304,3.275,9.79,3.557l0.047,0.027c1.219,0.722,2.438,1.443,3.656,2.164
		l0.022-0.061l-0.014,0.063c0.116,0.08,0.232,0.16,0.348,0.24l0.032,0.024c0.515,0.396,1.03,0.791,1.545,1.188l0.067,0.061
		c0.792,0.784,1.584,1.568,2.377,2.354l0.037,0.041c0.16,0.197,0.319,0.395,0.491,0.605c0.405-0.158,0.744-0.29,1.082-0.422
		c0.662-0.183,1.324-0.365,1.986-0.548c2.026-0.394,4.054-0.788,6.08-1.183c0.134-0.015,0.268-0.029,0.401-0.044
		c2.076-0.135,4.152-0.372,6.229-0.376c1.975-0.002,3.949,0.241,5.924,0.377c2.423,0.572,4.846,1.145,7.269,1.717
		c0.419,0.179,0.838,0.357,1.288,0.549c0.576-0.654,1.119-1.271,1.664-1.891l0.047-0.056c0.049-0.05,0.097-0.099,0.146-0.147
		l0.058-0.045c0.097-0.095,0.193-0.19,0.29-0.285c1.269-0.928,2.515-1.889,3.813-2.771c0.992-0.675,2.051-1.252,3.08-1.871
		l-0.01,0.01c0.396-0.213,0.791-0.426,1.188-0.639c0.118,0.373,0.236,0.744,0.355,1.117c-0.058,0.061-0.056,0.118,0.006,0.175
		c-0.059,0.108-0.167,0.218-0.168,0.327c-0.008,2.088-0.006,4.177,0.006,6.266c0.001,0.111,0.109,0.221,0.167,0.332
		c-0.044,0.37-0.089,0.74-0.133,1.111c-0.093,2.4-0.185,4.801-0.271,7.051c0.58,0.707,1.064,1.297,1.549,1.887
		c0.229,0.805,0.642,1.606,0.654,2.415c0.071,4.27,0.109,8.543-0.003,12.811c-0.028,1.046-0.536,2.147-1.052,3.1
		c-0.924,1.708-2.021,3.323-3.046,4.977l-0.021,0.056c-0.06,0.086-0.119,0.173-0.18,0.259c-0.84,0.029-1.68,0.059-2.52,0.088
		c-0.31,0.336-0.619,0.672-0.928,1.008l-0.045,0.063c-0.381,0.545-0.761,1.091-1.142,1.637c0,0,0.001,0,0.001-0.001
		c-0.348,0.446-0.695,0.893-1.043,1.339l-0.047,0.059c-0.321,0.385-0.642,0.769-0.963,1.152c-0.027,0.022-0.047,0.051-0.057,0.084
		c-0.062,0.03-0.102,0.078-0.12,0.143l-0.049,0.039c-0.21,0.236-0.421,0.472-0.63,0.707c-0.055,0.007-0.082,0.038-0.08,0.094
		c-0.161,0.175-0.322,0.35-0.484,0.525c-0.067,0.024-0.099,0.072-0.094,0.143l-0.059,0.068c-0.069,0.004-0.107,0.041-0.115,0.11
		c-0.034,0.028-0.064,0.06-0.092,0.094c-0.066,0.007-0.104,0.043-0.111,0.109c-0.032,0.028-0.062,0.058-0.089,0.091
		c-0.069,0.006-0.106,0.044-0.112,0.113c-0.031,0.027-0.061,0.056-0.087,0.087c-0.075,0.005-0.116,0.045-0.122,0.12
		c-0.027,0.027-0.054,0.055-0.08,0.082c-0.074,0.004-0.115,0.043-0.121,0.118c-0.037,0.028-0.067,0.063-0.092,0.102
		c-0.051,0.009-0.082,0.04-0.094,0.09c-0.048,0.027-0.085,0.065-0.111,0.114c-0.051,0.009-0.082,0.038-0.094,0.088
		c-0.045,0.028-0.082,0.065-0.107,0.112c-0.054,0.009-0.085,0.04-0.096,0.093c-0.034,0.026-0.065,0.056-0.094,0.089
		c-0.044,0.045-0.088,0.09-0.132,0.136l-0.048,0.047c-0.078-0.008-0.129,0.025-0.154,0.1c-0.956,0.841-1.911,1.682-2.867,2.522
		l0.009-0.009c-0.226,0.176-0.45,0.352-0.676,0.527l-0.014,0.016c-0.063,0.05-0.127,0.1-0.19,0.148l-0.055,0.03
		c-2.958,2.11-6.004,4.071-9.374,5.513c-1.751-0.938-3.497-1.871-5.243-2.807l0.009,0.01c-0.646-0.432-1.292-0.863-1.938-1.294
		l-0.036-0.024c-1.064-0.802-2.129-1.604-3.193-2.406l-0.041-0.035c-0.383-0.325-0.765-0.65-1.146-0.976
		c-0.021-0.032-0.051-0.054-0.088-0.062c-0.029-0.063-0.076-0.104-0.143-0.121l-0.041-0.052c-1.336-1.335-2.672-2.669-4.009-4.004
		l-0.047-0.04c-0.019-0.068-0.06-0.116-0.124-0.145c-0.008-0.061-0.041-0.094-0.1-0.104c-0.025-0.023-0.049-0.049-0.071-0.075
		c0.005-0.069-0.025-0.117-0.091-0.143c-0.258-0.304-0.516-0.608-0.773-0.911l-0.03-0.037c-0.093-0.106-0.186-0.213-0.278-0.32
		l0.008,0.008c-0.416-0.535-0.83-1.071-1.246-1.607l0.008,0.009c-0.531-0.807-1.062-1.614-1.619-2.461c-2.102,0-4.174,0-6.172,0
		c-0.718-0.609-1.354-1.149-1.99-1.689l-0.053-0.047c-0.102-0.091-0.205-0.181-0.307-0.271c-0.07-0.061-0.141-0.121-0.21-0.182
		c0.003-0.047-0.021-0.073-0.067-0.078l-0.043-0.031c-0.068-0.061-0.139-0.12-0.207-0.18c0,0,0.001,0,0.002,0
		c-0.076-0.064-0.15-0.129-0.227-0.193l0.015,0.014c-0.075-0.07-0.151-0.141-0.227-0.211L3.679,41.9l0.036-0.048
		c-0.178-0.23-0.355-0.46-0.481-0.624c0.509-1.42,0.983-2.748,1.459-4.075c0.05-0.098,0.101-0.195,0.15-0.293
		c1.031-2.619,2.063-5.237,3.07-7.798c-1.363-3.281-2.693-6.473-4.008-9.67c-0.12-0.293-0.144-0.625-0.213-0.939
		c0.188-0.008,0.374-0.015,0.562-0.021c1.261,0,2.521,0,3.82,0C8.074,18.203,8.074,18.015,8.074,17.826z M36.861,58.771
		c0.104-0.067,0.209-0.135,0.313-0.202c0.313-0.209,0.624-0.417,0.937-0.625c5.392-3.342,9.625-7.801,12.94-13.274
		c-0.9,0-1.66,0-2.162,0c-1.447,2.189-2.7,4.266-4.134,6.209c-1.933,2.62-4.413,4.726-6.892,6.813
		c-0.352,0.26-0.705,0.52-1.057,0.779c-0.061-0.006-0.109,0.015-0.148,0.061c-0.236,0.166-0.472,0.331-0.707,0.497
		c-0.153,0.134-0.307,0.267-0.46,0.4c0.026,0.039,0.054,0.077,0.079,0.116c0.193-0.09,0.387-0.181,0.58-0.271
		c0.174-0.139,0.348-0.277,0.522-0.416C36.735,58.828,36.799,58.799,36.861,58.771z M50.633,12.355
		c0.09-0.046,0.179-0.092,0.268-0.137c0.086-0.054,0.172-0.107,0.258-0.16c0.049-0.004,0.074-0.03,0.074-0.08
		c1.139-0.508,2.216-1.248,3.5-1.063c0,2.581,0,5.056,0,7.538c0.545,0,1.074,0,1.677,0c0.141-3.723,0.28-7.402,0.425-11.227
		c-2.264,1.26-4.119,2.834-5.87,4.547l0.001,0.002c-0.109,0.092-0.221,0.183-0.331,0.273l-0.043,0.035
		c-0.056,0.059-0.112,0.118-0.204,0.215C50.496,12.324,50.564,12.34,50.633,12.355z M16.312,12.311
		c0.086,0.012,0.172,0.023,0.343,0.047c-0.093-0.135-0.139-0.202-0.186-0.27c-0.149-0.125-0.299-0.25-0.447-0.374
		c-1.687-1.722-3.543-3.218-5.77-4.495c0.141,3.861,0.275,7.523,0.411,11.197c0.651,0,1.204,0,1.721,0c0-2.547,0-5.023,0-7.535
		c1.366-0.047,2.475,0.609,3.604,1.199C16.096,12.157,16.204,12.234,16.312,12.311z M38.094,39.297l0.012,0.021
		c0.127-0.015,0.254-0.028,0.381-0.042c0.03,0.025,0.065,0.037,0.105,0.031c0.098,0.364,0.195,0.729,0.293,1.092
		c0.058,0.002,0.114,0.002,0.172,0.003c0.086-0.232,0.172-0.465,0.258-0.697c0.148-0.171,0.295-0.342,0.561-0.649
		c0,0.551,0,0.898,0,1.246c0.11,0.13,0.221,0.26,0.331,0.389c0.11-0.13,0.222-0.26,0.333-0.39c0-1.261,0-2.521,0-3.853
		c-1.271,0.061-0.911,1.317-1.564,1.695c-0.897-1.617-0.897-1.617-1.505-1.533c0,1.224,0,2.459,0,3.694
		c0.131,0.146,0.262,0.293,0.393,0.439c0.069-0.038,0.14-0.075,0.209-0.113c0.014-0.251,0.026-0.501,0.04-0.751
		c-0.004-0.125-0.008-0.251-0.012-0.377C38.098,39.434,38.096,39.365,38.094,39.297z M29.92,58.559
		c0.15,0.098,0.299,0.196,0.449,0.295c0.315,0.188,0.632,0.374,0.947,0.562c0.075,0.023,0.15,0.047,0.226,0.07
		c0.007-0.024,0.013-0.048,0.02-0.071c-0.049-0.031-0.099-0.063-0.147-0.093c-0.342-0.267-0.686-0.534-1.027-0.802
		c-0.023-0.039-0.055-0.047-0.095-0.025c-0.232-0.17-0.465-0.339-0.697-0.508c-0.206-0.164-0.411-0.328-0.616-0.492
		c-0.434-0.372-0.865-0.744-1.299-1.117c-3.061-2.626-5.794-5.537-7.828-9.049c-0.485-0.838-0.924-1.704-1.379-2.549
		c-0.773,0-1.498,0-2.371,0c3.259,5.361,7.389,9.692,12.588,12.994c0.291,0.189,0.582,0.379,0.874,0.568
		C29.683,58.414,29.801,58.486,29.92,58.559z M39.498,21.533c-0.139,0.316-0.276,0.633-0.414,0.947
		c-0.033,0.199-0.066,0.398-0.099,0.598c-0.011,0.142-0.021,0.283-0.032,0.424c0.002,0.939,0.005,1.879,0.008,2.818
		c0.009,0.141,0.019,0.282,0.028,0.424c0.034,0.199,0.068,0.398,0.103,0.598c0.078,0.861,0.594,1.381,1.34,1.723
		c0.161,0.049,0.323,0.099,0.484,0.148c1.075,0.063,2.15,0.125,3.225,0.188c-0.039,0.058-0.036,0.114,0.01,0.168
		c-0.008,0.812-0.014,1.623-0.021,2.435l-0.046,0.053l0.037,0.059c-0.979,0.185-1.922,0.16-2.834-0.33
		c-0.561-0.301-1.168-0.514-1.754-0.766c-0.117-0.069-0.234-0.138-0.478-0.28c0.034,0.386,0.056,0.622,0.077,0.858
		c0,1.196,0,2.392,0,3.637c1.894,0,3.678,0.004,5.463-0.002c1.769-0.004,2.645-0.768,2.743-2.522
		c0.074-1.312,0.063-2.632,0.003-3.944c-0.072-1.583-0.926-2.369-2.523-2.417c-0.835-0.024-1.67-0.005-2.557-0.005
		c0-0.926,0-1.75,0-2.56c1.771-0.534,3.135,0.584,4.718,1.067c0-1.387,0-2.688,0-3.99c-0.065-0.061-0.131-0.123-0.196-0.184
		c-2.019,0.036-4.037,0.073-6.055,0.109c-0.142,0.025-0.282,0.051-0.424,0.076c-0.21,0.155-0.42,0.31-0.631,0.465
		C39.615,21.396,39.557,21.465,39.498,21.533z M31.409,38.227c-0.202-0.086-0.404-0.172-0.622-0.264c0-0.246,0-0.469,0-0.691
		c0.458,0,0.915,0,1.471,0c-0.083-0.373-0.128-0.578-0.158-0.716c-0.742,0-1.395,0-2.068,0c0,1.421,0,2.743,0,4.092
		c0.744,0,1.404,0,2.117,0c0-0.26,0-0.466,0-0.763c-0.496,0-0.928,0-1.359,0c-0.035-0.063-0.071-0.125-0.107-0.188
		c0.013-0.213,0.025-0.424,0.037-0.637c0.23-0.041,0.46-0.082,0.689-0.124c0.136-0.103,0.271-0.204,0.406-0.307
		C31.68,38.495,31.545,38.36,31.409,38.227z M47.215,13.74l-0.009,0.012c-1.157-0.416-2.313-0.831-3.471-1.246L43.68,12.49
		l-0.032,0.048c-0.268-0.128-0.522-0.308-0.804-0.378c-3.099-0.769-6.236-1.203-9.438-1.042c-3.446-0.071-6.816,0.468-10.128,1.353
		c-1.508,0.401-2.963,0.998-4.441,1.506c-0.125,0.232-0.36,0.467-0.357,0.697c0.013,1.107,0.074,2.216,0.162,3.32
		c0.012,0.157,0.26,0.296,0.398,0.443c0.539-0.002,1.08-0.004,1.619-0.006c0.398,0.006,0.797,0.012,1.196,0.018
		c1.136,0.051,2.272,0.152,3.409,0.145c2.78-0.021,5.561-0.09,8.342-0.14c1.359-0.001,2.719-0.003,4.078-0.005
		c2.899-0.003,5.8-0.007,8.699-0.01c0.648,0,1.297,0,2.045,0c0-0.766,0-1.4,0-2.033c0-0.692,0-1.385,0-2.229
		C48.042,14.038,47.629,13.89,47.215,13.74z M29.564,32.809c-0.053,0.195-0.104,0.391-0.157,0.586
		c-0.017,0.073-0.034,0.146-0.052,0.221c-0.055,0.193-0.109,0.388-0.163,0.582c-0.108,0.295-0.216,0.59-0.362,0.99
		c0.332,0,0.541,0,0.751,0c1.357,0,2.715,0,4.136,0c-0.258-1.031-0.574-1.931-0.689-2.855c-0.113-0.922-0.024-1.869-0.024-2.928
		c0.928,0,1.798,0.035,2.663-0.008c1.514-0.074,2.316-0.814,2.404-2.313c0.08-1.345,0.08-2.699,0.029-4.046
		c-0.05-1.32-0.776-2.256-1.973-2.305c-2.378-0.096-4.762-0.028-7.242-0.028c0.084,0.248,0.145,0.427,0.204,0.604
		c0.2,0.736,0.4,1.472,0.601,2.208c0.015,1.345,0.029,2.69,0.044,4.034c-0.022,1.607-0.044,3.215-0.066,4.821
		C29.633,32.518,29.599,32.662,29.564,32.809z M27.532,54.083c0.081,0.142,0.161,0.284,0.241,0.427
		c0.114,0.041,0.229,0.083,0.342,0.125c0.277,0.308,0.555,0.615,0.832,0.924c1.426,0.986,2.852,1.973,4.277,2.959
		c0.176,0.013,0.412,0.106,0.52,0.027c2-1.468,3.984-2.955,5.972-4.439c2.726-2.611,4.585-5.777,6.119-9.334
		c-0.823,0-1.458,0-2.092,0c-1.507,0-3.013-0.002-4.519-0.002c0.291-0.836,0.583-1.673,0.902-2.588c-2.324,0-4.508,0-6.692,0
		c-2.531,0-5.062,0-7.677,0c0.301,0.865,0.567,1.633,0.906,2.607c-1.26,0-2.322,0-3.383,0c-0.645,0-1.289,0-1.933,0
		c-0.054,0.08-0.106,0.16-0.159,0.24c0.871,1.488,1.741,2.977,2.612,4.465c1.12,1.496,2.237,2.994,3.368,4.482
		c0.063,0.081,0.239,0.076,0.362,0.111V54.083z M13.637,23.097c0.001,0.13,0.002,0.259,0.004,0.388
		c-0.289,0.557-0.563,1.12-0.879,1.66c-0.065,0.114-0.278,0.143-0.424,0.211c-0.681-1.623-1.361-3.245-2.029-4.834
		c-1.238,0-2.313-0.013-3.386,0.015c-0.141,0.003-0.276,0.207-0.415,0.318c1.229,2.978,2.459,5.954,3.688,8.931
		c-1.331,3.064-2.663,6.129-4.019,9.25c1.967,0,3.815,0,5.715,0c-0.213-1.001-0.408-1.918-0.605-2.846
		c0.338-0.697,0.66-1.396,1.02-2.075c0.068-0.128,0.284-0.178,0.432-0.263c0.732,1.731,1.464,3.464,2.197,5.2
		c0.344,0,0.605,0,0.866,0c0.99,0,1.979,0,3.069,0c-1.311-3.257-2.585-6.426-3.859-9.595c1.279-2.943,2.557-5.88,3.862-8.885
		c-1.981,0-3.816,0-5.765,0c0.09,0.352,0.161,0.631,0.232,0.91c0.043,0.248,0.087,0.497,0.13,0.746
		c0.021,0.09,0.042,0.18,0.063,0.271C13.568,22.698,13.603,22.897,13.637,23.097z M26.928,36.479c-0.426,0-0.853,0-1.353,0
		c0.019,0.306,0.03,0.514,0.044,0.727c0.389,0.059,0.709,0.107,1.129,0.17c0,1.104,0,2.161,0,3.3
		c0.323-0.038,0.527-0.063,0.838-0.101c0-1.117,0-2.174,0-3.211c0.438-0.072,0.759-0.127,1.145-0.191
		c-0.043-0.261-0.076-0.469-0.112-0.693c-0.466,0-0.867,0-1.269,0C27.209,36.479,27.068,36.479,26.928,36.479z M52.253,42.525
		c0.136-0.001,0.271-0.002,0.405-0.004c0.969,0,1.938,0,2.915,0c0.265-0.445,0.495-0.832,0.836-1.405c-4.026,0-7.841,0-11.657,0
		c0.421-1.225,0.842-2.449,1.298-3.777c-1.163,0-2.185,0-3.294,0c-0.053,0.392-0.104,0.769-0.162,1.196
		c0.425,0.082,0.741,0.145,1.137,0.221c-0.488,1.274-0.959,2.504-1.451,3.787c2.068,0,3.996,0,5.923,0
		c0.186,0.054,0.373,0.158,0.556,0.152C49.924,42.652,51.088,42.586,52.253,42.525z M34.336,39.926c0.263,0,0.524,0,0.774,0
		c0.315,0.301,0.337,1.092,1.102,0.604c-0.269-1.154-0.531-2.291-0.8-3.426c-0.113-0.48-0.318-0.826-1.033-0.473
		c-0.198,1.027-0.411,2.135-0.624,3.242c-0.093,0.229-0.186,0.459-0.285,0.703C34.26,40.906,34.252,40.359,34.336,39.926z
		 M48.85,23.476c-0.051,0.669-0.146,1.337-0.145,2.006c0.004,3.003,0.047,6.006,0.046,9.009c0,0.492-0.099,1-0.239,1.476
		c-0.311,1.044-0.676,2.071-1.057,3.218c0.559-0.039,0.957-0.066,1.355-0.094c2.122,0.006,4.245,0.019,6.367,0.019
		c3.158-0.001,4.088-0.884,4.248-4.026c0.023-0.438,0.028-0.877,0.029-1.314c0.002-2.631,0.011-5.262-0.005-7.892
		c-0.005-0.843-0.033-1.688-0.13-2.524c-0.179-1.555-1.005-2.441-2.41-2.684c-0.146-0.016-0.291-0.03-0.436-0.045
		c-1.875,0.03-3.748,0.061-5.623,0.092c-0.972,0.068-1.417,0.729-1.729,1.538c0.017,0.099,0.033,0.198,0.05,0.298
		C49.064,22.858,48.957,23.167,48.85,23.476z M7.689,42.539c5.307,0,10.613,0,15.973,0c-0.447-1.228-0.9-2.475-1.377-3.78
		c0.465-0.056,0.824-0.1,1.267-0.153c0-0.427,0-0.83,0-1.247c-1.15,0-2.2,0-3.381,0c0.53,1.331,1.012,2.542,1.493,3.753
		c-5.102,0-10.203,0-15.305,0c-0.016,0.1-0.031,0.198-0.048,0.297C6.771,41.785,7.23,42.162,7.689,42.539z M24.576,32.53
		c0.023,0.173,0.049,0.345,0.072,0.519c0.056,0.717,0.11,1.436,0.17,2.207c0.397-0.026,0.656-0.043,0.916-0.061
		c0.926,0,1.851,0,2.607,0c-0.783-4.858-1.558-9.662-2.334-14.482c-1.748,0-3.477,0-5.197,0c-0.945,4.849-1.059,9.765-2.563,14.489
		c1.249,0,2.423,0,3.717,0c0.094-0.941,0.188-1.872,0.281-2.804c0.016-0.143,0.031-0.284,0.048-0.427
		c0.707-0.07,1.414-0.141,2.12-0.21C24.469,32.018,24.521,32.273,24.576,32.53z"/>
	<path style="fill-rule:evenodd;clip-rule:evenodd;fill:#E7C231;" d="M56.999,44.206c1.024-1.653,2.122-3.269,3.046-4.977
		c0.516-0.952,1.023-2.054,1.052-3.1c0.112-4.268,0.074-8.541,0.003-12.811c-0.013-0.809-0.426-1.61-0.654-2.415
		c0.24,0.224,0.626,0.41,0.691,0.678c0.209,0.838,0.404,1.704,0.413,2.563c0.043,3.805,0.02,7.61,0.019,11.416
		c0,1.711-0.625,3.162-1.662,4.523c-0.785,1.031-1.336,2.239-2.039,3.338C57.664,43.738,57.293,43.947,56.999,44.206z"/>
	<path style="fill-rule:evenodd;clip-rule:evenodd;fill:#E7C231;" d="M3.692,18.453c0.069,0.314,0.093,0.646,0.213,0.939
		c1.314,3.197,2.645,6.389,4.008,9.67c-1.008,2.561-2.039,5.179-3.07,7.798c-0.062,0.001-0.123,0.001-0.185,0l0,0
		c0.173-0.678,0.284-1.378,0.529-2.028c0.566-1.498,1.16-2.987,1.813-4.448c0.507-1.133,0.224-2.165-0.216-3.202
		c-0.664-1.566-1.372-3.115-2.011-4.693c-0.487-1.202-0.896-2.437-1.34-3.656c-0.001-0.131-0.001-0.26-0.002-0.391
		C3.52,18.445,3.605,18.449,3.692,18.453z"/>
	<path style="fill-rule:evenodd;clip-rule:evenodd;fill:#E7C231;" d="M28.18,59.504c1.746,0.936,3.492,1.869,5.243,2.807
		c3.37-1.441,6.416-3.402,9.374-5.513c-0.158,0.268-0.25,0.638-0.482,0.786c-2.038,1.298-4.09,2.575-6.162,3.816
		c-0.859,0.516-1.78,0.93-2.674,1.391c-1.705-0.917-3.361-1.795-5-2.706C28.32,59.997,28.277,59.703,28.18,59.504z"/>
	<path style="fill-rule:evenodd;clip-rule:evenodd;fill:#F6C832;" d="M7.961,3.307c0.014,3.555,0.029,7.109,0.043,10.664
		c0.01,0.342,0.021,0.684,0.03,1.025c0.007,0.672,0.015,1.342,0.021,2.014c-0.158-0.031-0.318-0.062-0.512-0.099
		c-0.018-0.299-0.047-0.563-0.047-0.829C7.492,11.934,7.484,7.785,7.51,3.636c0.002-0.337,0.238-0.672,0.365-1.008
		C7.903,2.854,7.932,3.08,7.961,3.307z"/>
	<path style="fill-rule:evenodd;clip-rule:evenodd;fill:#E5BA2F;" d="M40.102,8.068c-1.975-0.136-3.949-0.379-5.924-0.377
		c-2.076,0.004-4.152,0.241-6.229,0.376c0.265-0.19,0.522-0.533,0.796-0.546c2.281-0.11,4.564-0.195,6.848-0.213
		c1.271-0.011,2.546,0.094,3.813,0.214C39.652,7.546,39.871,7.879,40.102,8.068z"/>
	<path style="fill-rule:evenodd;clip-rule:evenodd;fill:#E7C231;" d="M5.027,43.024c0.637,0.54,1.272,1.08,1.99,1.689
		c1.998,0,4.07,0,6.172,0c0.558,0.847,1.088,1.654,1.619,2.461c-0.295-0.235-0.633-0.433-0.875-0.714
		c-0.346-0.399-0.621-0.859-0.923-1.289c-2.012,0-3.959,0-5.932,0C6.294,44.545,5.296,44.145,5.027,43.024z"/>
	<path style="fill-rule:evenodd;clip-rule:evenodd;fill:#E7C231;" d="M57.756,3.268c-1.029,0.619-2.088,1.196-3.08,1.871
		c-1.299,0.883-2.545,1.844-3.813,2.771c-0.077-0.004-0.155-0.008-0.232-0.012c0.347-0.379,0.635-0.849,1.052-1.121
		c1.807-1.182,3.648-2.313,5.489-3.443C57.322,3.242,57.559,3.286,57.756,3.268z"/>
	<path style="fill-rule:evenodd;clip-rule:evenodd;fill:#E5BA2F;" d="M27.548,8.111c-2.026,0.395-4.054,0.789-6.08,1.183
		c0.157-0.188,0.288-0.509,0.474-0.544c1.653-0.312,3.314-0.582,4.979-0.834C27.115,7.886,27.338,8.041,27.548,8.111z"/>
	<path style="fill-rule:evenodd;clip-rule:evenodd;fill:#E7C231;" d="M17.554,50.54c1.337,1.335,2.673,2.669,4.009,4.004
		c-0.234-0.056-0.541-0.037-0.691-0.181c-1.065-1.021-2.109-2.066-3.131-3.132C17.595,51.08,17.611,50.773,17.554,50.54z"/>
	<path style="fill-rule:evenodd;clip-rule:evenodd;fill:#F6C832;" d="M4.692,37.153c-0.476,1.327-0.95,2.655-1.459,4.075
		c0.126,0.164,0.304,0.394,0.481,0.624c-0.32-0.196-0.639-0.392-1.059-0.649c0.718-1.557,1.36-2.949,2.002-4.343l0,0
		C4.67,36.958,4.682,37.056,4.692,37.153z"/>
	<path style="fill-rule:evenodd;clip-rule:evenodd;fill:#E7C231;" d="M13.493,5.748c-1.219-0.721-2.438-1.442-3.656-2.164
		c0.349,0.049,0.741,0.01,1.037,0.161c0.825,0.423,1.622,0.907,2.401,1.411C13.416,5.248,13.424,5.546,13.493,5.748z"/>
	<path style="fill-rule:evenodd;clip-rule:evenodd;fill:#F6C832;" d="M59.295,3.931c-0.062-0.057-0.063-0.114-0.006-0.175
		c0.085,0.311,0.241,0.621,0.244,0.934c0.021,2.118,0.027,4.237-0.006,6.355c-0.004,0.309-0.234,0.615-0.36,0.922
		c0.044-0.371,0.089-0.741,0.133-1.111C59.298,8.547,59.297,6.238,59.295,3.931z"/>
	<path style="fill-rule:evenodd;clip-rule:evenodd;fill:#E7C231;" d="M23.021,55.789c1.064,0.803,2.129,1.604,3.193,2.406
		c-0.188-0.004-0.434,0.067-0.557-0.024c-0.877-0.651-1.733-1.332-2.583-2.021C23.006,56.095,23.037,55.913,23.021,55.789z"/>
	<path style="fill-rule:evenodd;clip-rule:evenodd;fill:#F6C832;" d="M8.074,17.826c0,0.188,0,0.377,0,0.605c-1.299,0-2.56,0-3.82,0
		c0.288-0.135,0.566-0.357,0.866-0.391C6.101,17.933,7.09,17.893,8.074,17.826z"/>
	<path style="fill-rule:evenodd;clip-rule:evenodd;fill:#E5BA2F;" d="M50.322,8.443c-0.545,0.619-1.088,1.236-1.664,1.891
		c-0.45-0.191-0.869-0.37-1.288-0.549c0.385-0.054,0.77-0.107,1.155-0.16c0.033,0.054,0.067,0.107,0.102,0.162
		c0.275-0.313,0.519-0.662,0.835-0.924C49.701,8.666,50.032,8.58,50.322,8.443z"/>
	<path style="fill-rule:evenodd;clip-rule:evenodd;fill:#E7C231;" d="M43.723,56.085c0.956-0.841,1.911-1.682,2.867-2.522
		c-0.322,0.456-0.57,1-0.984,1.346C45.045,55.379,44.356,55.699,43.723,56.085z"/>
	<path style="fill-rule:evenodd;clip-rule:evenodd;fill:#E7C231;" d="M17.871,9.617c-0.793-0.785-1.585-1.569-2.377-2.354
		c0.121-0.034,0.307-0.136,0.354-0.092c0.712,0.681,1.41,1.375,2.094,2.084C17.99,9.307,17.897,9.493,17.871,9.617z"/>
	<path style="fill-rule:evenodd;clip-rule:evenodd;fill:#E7C231;" d="M26.251,58.22c0.646,0.431,1.292,0.862,1.938,1.294
		C27.313,59.426,26.557,59.16,26.251,58.22z"/>
	<path style="fill-rule:evenodd;clip-rule:evenodd;fill:#E7C231;" d="M15.427,7.203c-0.515-0.396-1.03-0.792-1.545-1.188
		C14.779,6.016,15.199,6.338,15.427,7.203z"/>
	<path style="fill-rule:evenodd;clip-rule:evenodd;fill:#E7C231;" d="M14.801,47.166c0.416,0.536,0.83,1.072,1.246,1.607
		C15.16,48.603,14.897,47.949,14.801,47.166z"/>
	<path style="fill-rule:evenodd;clip-rule:evenodd;fill:#E7C231;" d="M52.165,47.316c0.381-0.546,0.761-1.092,1.142-1.637
		C53.48,46.611,52.863,46.992,52.165,47.316z"/>
	<path style="fill-rule:evenodd;clip-rule:evenodd;fill:#E7C231;" d="M19.481,9.842c-0.338,0.132-0.677,0.264-1.082,0.422
		c-0.172-0.211-0.331-0.408-0.491-0.605C18.413,9.885,19.021,9.234,19.481,9.842z"/>
	<path style="fill-rule:evenodd;clip-rule:evenodd;fill:#E7C231;" d="M9.79,3.557C9.304,3.275,8.817,2.996,8.331,2.715
		c0.005-0.047-0.005-0.091-0.026-0.133C9.034,2.549,9.626,2.727,9.79,3.557z"/>
	<path style="fill-rule:evenodd;clip-rule:evenodd;fill:#E7C231;" d="M51.123,48.654c0.348-0.446,0.695-0.893,1.043-1.339
		C52.177,48.041,51.848,48.502,51.123,48.654z"/>
	<path style="fill-rule:evenodd;clip-rule:evenodd;fill:#E7C231;" d="M53.352,45.616c0.309-0.336,0.618-0.672,0.928-1.008
		C54.229,45.182,54.029,45.619,53.352,45.616z"/>
	<path style="fill-rule:evenodd;clip-rule:evenodd;fill:#E7C231;" d="M21.834,54.778c0.382,0.325,0.764,0.65,1.146,0.976
		C22.215,55.878,21.944,55.422,21.834,54.778z"/>
	<path style="fill-rule:evenodd;clip-rule:evenodd;fill:#E7C231;" d="M58.934,2.639c-0.396,0.213-0.792,0.426-1.188,0.639
		c0.058-0.759,0.639-0.781,1.189-0.846l0,0C58.935,2.501,58.934,2.57,58.934,2.639z"/>
	<path style="fill-rule:evenodd;clip-rule:evenodd;fill:#E7C231;" d="M50.113,49.865c0.321-0.384,0.642-0.768,0.963-1.152
		C51.178,49.45,50.721,49.721,50.113,49.865z"/>
	<path style="fill-rule:evenodd;clip-rule:evenodd;fill:#E7C231;" d="M16.348,49.123c0.258,0.303,0.516,0.607,0.773,0.911
		C16.475,50.061,16.204,49.767,16.348,49.123z"/>
	<path style="fill-rule:evenodd;clip-rule:evenodd;fill:#E7C231;" d="M49.258,50.838c0.209-0.235,0.42-0.471,0.63-0.707
		C50.126,50.768,49.697,50.809,49.258,50.838z"/>
	<path style="fill-rule:evenodd;clip-rule:evenodd;fill:#E7C231;" d="M43.056,56.604c0.226-0.176,0.45-0.352,0.676-0.527
		C43.708,56.512,43.541,56.762,43.056,56.604z"/>
	<path style="fill-rule:evenodd;clip-rule:evenodd;fill:#E7C231;" d="M48.693,51.457c0.162-0.176,0.323-0.351,0.484-0.525
		C49.168,51.246,49.237,51.634,48.693,51.457z"/>
	<path style="fill-rule:evenodd;clip-rule:evenodd;fill:#F6C832;" d="M3.433,18.441c0.001,0.131,0.001,0.26,0.002,0.391
		c-0.108-0.036-0.216-0.072-0.487-0.16C3.203,18.551,3.317,18.496,3.433,18.441z"/>
	<path style="fill-rule:evenodd;clip-rule:evenodd;fill:#B98822;" d="M8.305,2.582c0.021,0.042,0.031,0.086,0.026,0.133
		c-0.123,0.197-0.247,0.395-0.37,0.592C7.932,3.08,7.903,2.854,7.875,2.628C8.018,2.613,8.161,2.598,8.305,2.582z"/>
	<path style="fill-rule:evenodd;clip-rule:evenodd;fill:#E7C231;" d="M16.039,48.766c0.093,0.107,0.186,0.214,0.278,0.32
		C16.225,48.979,16.132,48.873,16.039,48.766z"/>
	<path style="fill-rule:evenodd;clip-rule:evenodd;fill:#E5BA2F;" d="M50.63,7.898c0.077,0.004,0.155,0.008,0.232,0.012
		c-0.097,0.095-0.193,0.19-0.29,0.285C50.592,8.097,50.61,7.998,50.63,7.898z"/>
	<path style="fill-rule:evenodd;clip-rule:evenodd;fill:#E7C231;" d="M13.85,5.991c-0.115-0.08-0.231-0.16-0.348-0.24
		c0.094-0.009,0.188-0.019,0.307-0.03C13.824,5.818,13.837,5.904,13.85,5.991z"/>
	<path style="fill-rule:evenodd;clip-rule:evenodd;fill:#E7C231;" d="M4.668,42.707c0.102,0.09,0.205,0.18,0.307,0.271
		C4.873,42.887,4.77,42.797,4.668,42.707z"/>
	<path style="fill-rule:evenodd;clip-rule:evenodd;fill:#E7C231;" d="M17.383,50.355c0.064,0.028,0.105,0.076,0.124,0.145
		C17.465,50.451,17.424,50.403,17.383,50.355z"/>
	<path style="fill-rule:evenodd;clip-rule:evenodd;fill:#E7C231;" d="M56.799,44.521c0.061-0.086,0.12-0.173,0.18-0.259
		C56.919,44.348,56.859,44.435,56.799,44.521z"/>
	<path style="fill-rule:evenodd;clip-rule:evenodd;fill:#E7C231;" d="M48.541,51.668L48.6,51.6c0.018,0.033,0.034,0.066,0.051,0.099
		C48.614,51.688,48.578,51.678,48.541,51.668z"/>
	<path style="fill-rule:evenodd;clip-rule:evenodd;fill:#E7C231;" d="M48.134,52.072c0.027-0.033,0.057-0.063,0.089-0.091
		c0.011,0.04,0.021,0.081,0.031,0.121C48.215,52.092,48.174,52.082,48.134,52.072z"/>
	<path style="fill-rule:evenodd;clip-rule:evenodd;fill:#E7C231;" d="M47.935,52.272c0.026-0.031,0.056-0.06,0.087-0.087
		c0.01,0.039,0.02,0.079,0.03,0.119C48.013,52.294,47.974,52.283,47.935,52.272z"/>
	<path style="fill-rule:evenodd;clip-rule:evenodd;fill:#E7C231;" d="M47.732,52.475c0.026-0.027,0.053-0.055,0.08-0.082
		c0.012,0.037,0.023,0.076,0.035,0.113C47.809,52.496,47.771,52.485,47.732,52.475z"/>
	<path style="fill-rule:evenodd;clip-rule:evenodd;fill:#E7C231;" d="M47.52,52.694c0.024-0.039,0.055-0.073,0.092-0.102
		c0.012,0.04,0.022,0.081,0.034,0.122C47.604,52.707,47.561,52.701,47.52,52.694z"/>
	<path style="fill-rule:evenodd;clip-rule:evenodd;fill:#E7C231;" d="M47.314,52.898c0.026-0.049,0.063-0.087,0.111-0.114
		c0.008,0.044,0.015,0.089,0.021,0.133C47.404,52.91,47.359,52.904,47.314,52.898z"/>
	<path style="fill-rule:evenodd;clip-rule:evenodd;fill:#E7C231;" d="M47.113,53.099c0.025-0.047,0.063-0.084,0.107-0.112
		c0.008,0.045,0.017,0.089,0.024,0.133C47.201,53.112,47.156,53.105,47.113,53.099z"/>
	<path style="fill-rule:evenodd;clip-rule:evenodd;fill:#E7C231;" d="M46.924,53.28c0.028-0.033,0.06-0.063,0.094-0.089
		c0.008,0.041,0.017,0.082,0.024,0.124C47.002,53.304,46.963,53.292,46.924,53.28z"/>
	<path style="fill-rule:evenodd;clip-rule:evenodd;fill:#E7C231;" d="M46.744,53.463l0.048-0.047c0.024,0.02,0.05,0.041,0.075,0.062
		C46.826,53.473,46.785,53.467,46.744,53.463z"/>
	<path style="fill-rule:evenodd;clip-rule:evenodd;fill:#F6C832;" d="M3.704,41.846c0.075,0.07,0.151,0.141,0.227,0.211
		C3.855,41.986,3.779,41.916,3.704,41.846z"/>
	<path style="fill-rule:evenodd;clip-rule:evenodd;fill:#E7C231;" d="M21.604,54.596c0.066,0.018,0.113,0.059,0.143,0.121
		C21.698,54.676,21.65,54.636,21.604,54.596z"/>
	<path style="fill-rule:evenodd;clip-rule:evenodd;fill:#F6C832;" d="M3.916,42.043c0.076,0.064,0.15,0.129,0.227,0.193
		C4.066,42.172,3.992,42.107,3.916,42.043z"/>
	<path style="fill-rule:evenodd;clip-rule:evenodd;fill:#F6C832;" d="M58.936,2.432c0.016-0.029,0.031-0.057,0.047-0.086
		C58.967,2.375,58.951,2.402,58.936,2.432L58.936,2.432z"/>
	<path style="fill-rule:evenodd;clip-rule:evenodd;fill:#E7C231;" d="M48.334,51.872c0.027-0.034,0.058-0.065,0.092-0.094
		c0.01,0.041,0.021,0.081,0.031,0.122C48.416,51.891,48.375,51.882,48.334,51.872z"/>
	<path style="fill-rule:evenodd;clip-rule:evenodd;fill:#E5BA2F;" d="M50.515,8.24c-0.049,0.049-0.097,0.098-0.146,0.147
		C50.418,8.338,50.466,8.289,50.515,8.24z"/>
	<path style="fill-rule:evenodd;clip-rule:evenodd;fill:#E7C231;" d="M42.852,56.768c0.063-0.049,0.127-0.099,0.19-0.148
		C42.979,56.669,42.915,56.719,42.852,56.768z"/>
	<path style="fill-rule:evenodd;clip-rule:evenodd;fill:#F6C832;" d="M4.141,42.236c0.068,0.06,0.139,0.119,0.207,0.18
		C4.279,42.355,4.209,42.296,4.141,42.236z"/>
	<path style="fill-rule:evenodd;clip-rule:evenodd;fill:#F6C832;" d="M4.391,42.447c0.047,0.005,0.07,0.031,0.067,0.078
		c-0.043,0.023-0.086,0.045-0.134,0.07C4.348,42.543,4.369,42.495,4.391,42.447z"/>
	<path style="fill-rule:evenodd;clip-rule:evenodd;fill:#E7C231;" d="M49.937,50.092c0.019-0.064,0.059-0.112,0.12-0.143
		C50.017,49.997,49.977,50.045,49.937,50.092z"/>
	<path style="fill-rule:evenodd;clip-rule:evenodd;fill:#E7C231;" d="M17.212,50.177c0.022,0.026,0.046,0.052,0.071,0.075
		c-0.038,0.01-0.076,0.02-0.113,0.029C17.184,50.246,17.197,50.211,17.212,50.177z"/>
	<path style="fill-rule:evenodd;clip-rule:evenodd;fill:#FBFBFB;" d="M50.852,20.715c1.875-0.031,3.748-0.062,5.623-0.092
		c0.145,0.015,0.29,0.029,0.436,0.045c1.405,0.242,2.231,1.129,2.41,2.684c0.097,0.836,0.125,1.682,0.13,2.524
		c0.016,2.63,0.007,5.261,0.005,7.892c-0.001,0.438-0.006,0.877-0.029,1.314c-0.16,3.143-1.09,4.025-4.248,4.026
		c-2.122,0-4.245-0.013-6.367-0.019c0.06-0.141,0.119-0.28,0.18-0.421c0.606-1.783,1.229-3.542,1.048-5.5
		c-0.166-1.806-0.169-3.628-0.198-5.442c-0.032-1.947-0.142-3.905,0.402-5.814C50.445,21.513,50.648,21.113,50.852,20.715z
		 M55.693,35.446c0.135-0.259,0.384-0.516,0.387-0.775c0.026-3.202,0.026-6.405-0.001-9.608c-0.002-0.258-0.258-0.514-0.396-0.771
		c-0.178,0.031-0.357,0.063-0.535,0.093c-0.727,0-1.451,0-2.202,0c0,3.667,0,7.208,0,10.794c0.804,0,1.562,0,2.32,0
		C55.408,35.268,55.551,35.357,55.693,35.446z"/>
	<path style="fill-rule:evenodd;clip-rule:evenodd;fill:#F9F9F9;" d="M6.508,20.854c0.139-0.111,0.274-0.315,0.415-0.318
		c1.073-0.027,2.147-0.015,3.386-0.015c0.668,1.589,1.349,3.211,2.029,4.834c0.223,0.34,0.444,0.68,0.768,1.175
		c0.621-1.138,1.156-2.116,1.695-3.104c-0.392-0.77-0.123-1.773-0.997-2.345c-0.173,0.151-0.317,0.276-0.462,0.401
		c-0.071-0.279-0.143-0.559-0.232-0.91c1.948,0,3.783,0,5.765,0c-1.306,3.005-2.583,5.941-3.862,8.885
		c1.274,3.169,2.549,6.338,3.859,9.595c-1.09,0-2.079,0-3.069,0c-0.118-0.192-0.237-0.384-0.356-0.576
		c-0.623-1.282-1.246-2.565-1.869-3.847l0,0c-0.096-0.416-0.192-0.832-0.289-1.248c-0.087,0-0.174,0-0.261,0
		c-0.089,0.144-0.177,0.287-0.265,0.431l-0.023,0.04c-0.147,0.085-0.363,0.135-0.432,0.263c-0.359,0.679-0.682,1.378-1.02,2.075
		c0.197,0.928,0.393,1.845,0.605,2.846c-1.899,0-3.748,0-5.715,0c1.355-3.121,2.688-6.186,4.019-9.25
		c0.284-0.029,0.568-0.061,0.851-0.09c-0.942-2.376-1.858-4.668-2.76-6.965C7.945,21.857,7.537,21.066,6.508,20.854z"/>
	<path style="fill-rule:evenodd;clip-rule:evenodd;fill:#0A2F61;" d="M28.115,54.635c-0.113-0.042-0.228-0.084-0.342-0.125
		c-0.08-0.143-0.16-0.285-0.241-0.427v0.005c-0.469-0.746-0.937-1.493-1.405-2.24c-0.945-2.295-1.892-4.59-2.837-6.885
		c-0.003-0.059-0.006-0.116-0.009-0.174c1.061,0,2.123,0,3.383,0c-0.339-0.975-0.605-1.742-0.906-2.607c2.615,0,5.146,0,7.677,0
		c-0.004,0.184-0.008,0.367-0.012,0.551c-0.001,4.837,0.002,9.674-0.013,14.511c-0.001,0.425-0.121,0.849-0.186,1.274
		c-1.426-0.986-2.852-1.973-4.277-2.959C28.67,55.25,28.393,54.942,28.115,54.635z"/>
	<path style="fill-rule:evenodd;clip-rule:evenodd;fill:#0C3B78;" d="M33.225,58.518c0.064-0.426,0.185-0.85,0.186-1.274
		c0.015-4.837,0.012-9.674,0.013-14.511c1.927,0,3.853,0,5.915,0c-0.139,0.645-0.263,1.119-0.328,1.601
		c-0.019,0.134,0.139,0.29,0.215,0.437c1.506,0,3.012,0.002,4.519,0.002c-0.01,0.135,0.003,0.274-0.032,0.401
		c-0.739,2.708-1.799,5.271-3.398,7.598c-0.271,0.396-0.401,0.888-0.597,1.335c-1.987,1.484-3.972,2.972-5.972,4.439
		C33.637,58.624,33.4,58.53,33.225,58.518z"/>
	<path style="fill-rule:evenodd;clip-rule:evenodd;fill:#F5F5F5;" d="M24.414,31.762c-0.706,0.069-1.413,0.14-2.12,0.21
		c-0.017,0.143-0.032,0.284-0.048,0.427c-0.094,0.932-0.188,1.862-0.281,2.804c-1.294,0-2.468,0-3.717,0
		c1.504-4.725,1.617-9.641,2.563-14.489c1.721,0,3.449,0,5.197,0c0.776,4.82,1.551,9.624,2.334,14.482c-0.757,0-1.682,0-2.607,0
		c-0.167-1.041-0.334-2.082-0.529-3.304c-0.254,0.528-0.404,0.843-0.557,1.157c-0.023-0.174-0.049-0.346-0.072-0.519
		C24.521,32.273,24.469,32.018,24.414,31.762z M23.523,23.627c-0.086,0-0.172-0.002-0.258-0.002
		c-0.209,1.838-0.419,3.676-0.629,5.516c0.578,0,1,0,1.516,0C23.938,27.26,23.73,25.443,23.523,23.627z M22.686,29.614
		c0.014,0.035,0.026,0.07,0.039,0.105c0.461,0,0.923,0,1.384,0c-0.001-0.035-0.002-0.07-0.003-0.105
		C23.633,29.614,23.159,29.614,22.686,29.614z"/>
	<path style="fill-rule:evenodd;clip-rule:evenodd;fill:#0C3B78;" d="M46.383,18.439c-2.899,0.003-5.8,0.007-8.699,0.01
		c-1.359,0.002-2.719,0.004-4.078,0.005c-2.781,0.05-5.562,0.119-8.342,0.14c-1.137,0.008-2.273-0.094-3.409-0.145
		c0.347-0.074,0.694-0.209,1.042-0.211c3.105-0.018,6.211-0.01,9.316-0.01c0.359,0,0.719,0,1.206,0c0-2.385,0-4.637,0-6.887
		c2.282-0.019,4.524,0.307,6.761,0.726c1.145,0.215,2.311,0.317,3.468,0.471l0.032-0.048l0.056,0.016
		c0.137,0.159,0.246,0.414,0.415,0.463c1.011,0.287,2.035,0.527,3.056,0.783l0.009-0.012c0.33,0.281,0.658,0.563,0.987,0.843
		c-0.622,0.413-1.243,0.825-1.819,1.208C46.383,16.786,46.383,17.613,46.383,18.439z"/>
	<path style="fill-rule:evenodd;clip-rule:evenodd;fill:#0A2E5E;" d="M33.419,11.342c0,2.25,0,4.502,0,6.887
		c-0.487,0-0.847,0-1.206,0c-3.105,0-6.211-0.008-9.316,0.01c-0.348,0.002-0.695,0.137-1.042,0.211
		c-0.399-0.006-0.798-0.012-1.196-0.018c0-0.898,0-1.797,0-2.856c-0.518-0.319-1.068-0.658-1.617-0.997
		c-0.068-0.2-0.137-0.4-0.205-0.602c1.479-0.508,2.934-1.104,4.441-1.506c3.312-0.885,6.682-1.424,10.128-1.353
		C33.41,11.192,33.414,11.268,33.419,11.342z"/>
	<path style="fill-rule:evenodd;clip-rule:evenodd;fill:#FAFAFA;" d="M46.979,20.861c0,1.303,0,2.604,0,3.99
		c-1.583-0.483-2.946-1.602-4.718-1.067c0,0.81,0,1.634,0,2.56c0.887,0,1.722-0.02,2.557,0.005c1.598,0.048,2.451,0.834,2.523,2.417
		c0.061,1.313,0.071,2.633-0.003,3.944c-0.099,1.755-0.975,2.519-2.743,2.522c-1.785,0.006-3.569,0.002-5.463,0.002
		c0-1.245,0-2.44,0-3.637c0.133-0.192,0.267-0.386,0.4-0.578c0.586,0.252,1.193,0.465,1.754,0.766
		c0.912,0.49,1.855,0.515,2.834,0.33c0.139,0.15,0.277,0.301,0.565,0.614c0-1.31,0-2.386,0-3.575
		c-0.231,0.105-0.389,0.176-0.546,0.247c-1.074-0.063-2.149-0.126-3.225-0.188c-0.161-0.05-0.323-0.1-0.484-0.148
		c-0.746-0.342-1.262-0.861-1.34-1.723c0.125,0.004,0.251,0.008,0.376,0.013c0.1,0.213,0.198,0.427,0.298,0.64
		c0.05-0.02,0.1-0.039,0.148-0.058c0-2.021,0-4.041,0-5.938c0.227-0.39,0.388-0.669,0.55-0.948c0.088-0.088,0.177-0.176,0.265-0.264
		c2.018-0.036,4.036-0.073,6.055-0.109C46.849,20.738,46.914,20.801,46.979,20.861z M39.566,34.711c0.468-1.203,0.385-2.479,0-2.911
		C39.566,32.764,39.566,33.737,39.566,34.711z"/>
	<path style="fill-rule:evenodd;clip-rule:evenodd;fill:#FBFBFB;" d="M29.089,21.309c-0.06-0.178-0.12-0.356-0.204-0.604
		c2.48,0,4.864-0.067,7.242,0.028c1.196,0.049,1.923,0.984,1.973,2.305c0.051,1.347,0.051,2.701-0.029,4.046
		c-0.088,1.499-0.891,2.239-2.404,2.313c-0.865,0.043-1.735,0.008-2.663,0.008c0,1.059-0.089,2.006,0.024,2.928
		c0.115,0.925,0.432,1.824,0.689,2.855c-1.421,0-2.778,0-4.136,0c0.208-0.855,0.417-1.71,0.625-2.564
		c0.122-0.405,0.343-0.809,0.349-1.217c0.037-2.491,0.048-4.984,0.019-7.477c-0.012-1.008-0.283-1.969-0.87-2.862
		C29.453,21.166,29.271,21.236,29.089,21.309z M34.826,23.728c-0.67,0-1.225,0-1.809,0c0,1.054,0,2.051,0,3.057
		c0.631,0,1.218,0,1.809,0C34.826,25.738,34.826,24.77,34.826,23.728z M35.545,23.615c-0.095,0.002-0.189,0.005-0.285,0.008
		c0.009,1.064-0.039,2.131,0.029,3.191c0.086-0.004,0.17-0.009,0.256-0.014C35.545,25.739,35.545,24.678,35.545,23.615z"/>
	<path style="fill-rule:evenodd;clip-rule:evenodd;fill:#F0F0F0;" d="M15.988,12.08c-1.13-0.59-2.238-1.246-3.604-1.199
		c0,2.512,0,4.988,0,7.535c-0.517,0-1.069,0-1.721,0c-0.136-3.674-0.271-7.336-0.411-11.197c2.227,1.277,4.083,2.773,5.77,4.495
		C16.01,11.836,15.999,11.958,15.988,12.08z"/>
	<path style="fill-rule:evenodd;clip-rule:evenodd;fill:#F1F1F1;" d="M50.964,11.773c1.751-1.713,3.606-3.287,5.87-4.547
		c-0.145,3.824-0.284,7.504-0.425,11.227c-0.603,0-1.132,0-1.677,0c0-2.482,0-4.957,0-7.538c-1.284-0.185-2.361,0.556-3.5,1.063
		C51.143,11.91,51.053,11.842,50.964,11.773z"/>
	<path style="fill-rule:evenodd;clip-rule:evenodd;fill:#EBEBEB;" d="M37.863,57.691c2.479-2.088,4.959-4.193,6.892-6.813
		c1.434-1.943,2.687-4.02,4.134-6.209c0.502,0,1.262,0,2.162,0c-3.315,5.474-7.549,9.933-12.94,13.274
		C38.028,57.859,37.946,57.775,37.863,57.691z"/>
	<path style="fill-rule:evenodd;clip-rule:evenodd;fill:#EEEEEE;" d="M28.689,57.773c-5.199-3.302-9.329-7.633-12.588-12.994
		c0.873,0,1.598,0,2.371,0c0.455,0.845,0.894,1.711,1.379,2.549c2.034,3.512,4.768,6.423,7.828,9.049
		c0.434,0.373,0.865,0.745,1.299,1.117C28.882,57.588,28.786,57.681,28.689,57.773z"/>
	<path style="fill-rule:evenodd;clip-rule:evenodd;fill:#0A2E5E;" d="M7.689,42.539c-0.459-0.377-0.918-0.754-1.378-1.131
		c0.017-0.099,0.032-0.197,0.048-0.297c5.102,0,10.203,0,15.305,0c0.441,0.351,0.884,0.701,1.325,1.051
		c-4.792,0.168-9.474,0.162-14.155,0.176C8.453,42.34,8.071,42.469,7.689,42.539z"/>
	<path style="fill-rule:evenodd;clip-rule:evenodd;fill:#0C3B78;" d="M7.689,42.539c0.382-0.07,0.764-0.199,1.145-0.201
		c4.682-0.014,9.363-0.008,14.155-0.176c-0.441-0.35-0.884-0.7-1.325-1.051c-0.481-1.211-0.963-2.422-1.493-3.753
		c1.181,0,2.23,0,3.381,0c0,0.417,0,0.82,0,1.247c-0.442,0.054-0.802,0.098-1.267,0.153c0.477,1.306,0.93,2.553,1.377,3.78
		C18.303,42.539,12.996,42.539,7.689,42.539z"/>
	<path style="fill-rule:evenodd;clip-rule:evenodd;fill:#D2D2D2;" d="M50.242,21.912c-0.544,1.909-0.435,3.867-0.402,5.814
		c0.029,1.814,0.032,3.637,0.198,5.442c0.181,1.958-0.441,3.717-1.048,5.5c-0.226-0.015-0.45-0.03-0.727-0.05
		c0.074-0.393,0.08-0.738,0.207-1.033c1.164-2.715,0.656-5.573,0.729-8.379c0.049-1.903,0.014-3.809,0.016-5.713
		c-0.014-0.314-0.028-0.629-0.042-0.943c-0.017-0.1-0.033-0.199-0.05-0.298c0.189-0.109,0.368-0.251,0.571-0.317
		C49.862,21.881,50.059,21.916,50.242,21.912z"/>
	<path style="fill-rule:evenodd;clip-rule:evenodd;fill:#0C3B78;" d="M48.202,42.543c-1.927,0-3.854,0-5.923,0
		c0.492-1.283,0.963-2.513,1.451-3.787c-0.396-0.076-0.712-0.139-1.137-0.221c0.058-0.428,0.109-0.805,0.162-1.196
		c1.109,0,2.131,0,3.294,0c-0.456,1.328-0.877,2.553-1.298,3.777c-0.269,0.269-0.537,0.536-0.807,0.805l0.001-0.001
		c-0.229,0.057-0.459,0.113-0.688,0.17c0.01,0.062,0.018,0.124,0.026,0.187c0.222,0.017,0.443,0.034,0.665,0.052
		c1.418,0,2.835,0,4.253,0.001C48.202,42.4,48.202,42.473,48.202,42.543z"/>
	<path style="fill-rule:evenodd;clip-rule:evenodd;fill:#0A2F61;" d="M39.716,54.105c0.195-0.447,0.325-0.939,0.597-1.335
		c1.6-2.327,2.659-4.89,3.398-7.598c0.035-0.127,0.022-0.267,0.032-0.401c0.634,0,1.269,0,2.092,0
		C44.301,48.328,42.441,51.494,39.716,54.105z"/>
	<path style="fill-rule:evenodd;clip-rule:evenodd;fill:#0A2E5E;" d="M43.945,41.921c0.27-0.269,0.538-0.536,0.807-0.805
		c3.816,0,7.631,0,11.657,0c-0.341,0.573-0.571,0.96-0.836,1.405c-0.978,0-1.946,0-2.915,0c0.299-0.132,0.587-0.341,0.896-0.377
		c0.531-0.063,1.075-0.018,1.614-0.018c0-0.118,0-0.236,0-0.354c-0.344-0.018-0.687-0.049-1.03-0.05
		c-2.833-0.004-5.667-0.013-8.5,0.007C45.073,41.734,44.51,41.854,43.945,41.921z"/>
	<path style="fill-rule:evenodd;clip-rule:evenodd;fill:#D2D2D2;" d="M6.508,20.854c1.029,0.212,1.438,1.003,1.779,1.876
		c0.901,2.297,1.817,4.589,2.76,6.965c-0.282,0.029-0.566,0.061-0.851,0.09C8.967,26.809,7.737,23.832,6.508,20.854z"/>
	<path style="fill-rule:evenodd;clip-rule:evenodd;fill:#0C3B78;" d="M38.1,39.502c0.004,0.126,0.008,0.252,0.012,0.377
		c-0.214,0.142-0.428,0.283-0.642,0.425c0-1.235,0-2.471,0-3.694c0.607-0.084,0.607-0.084,1.505,1.533
		c0.653-0.378,0.293-1.635,1.564-1.695c0,1.331,0,2.592,0,3.853c-0.222,0-0.442,0.001-0.664,0.001c0-0.348,0-0.695,0-1.246
		c-0.266,0.308-0.412,0.479-0.561,0.649c-0.24-0.132-0.482-0.265-0.723-0.397c-0.04,0.006-0.075-0.006-0.105-0.031
		c-0.065-0.114-0.131-0.229-0.288-0.504c-0.054,0.313-0.073,0.43-0.093,0.546l-0.012-0.021c-0.04,0.033-0.08,0.067-0.123,0.104
		C38.016,39.436,38.058,39.469,38.1,39.502z"/>
	<path style="fill-rule:evenodd;clip-rule:evenodd;fill:#E3E3E3;" d="M49.215,23.494c-0.002,1.904,0.033,3.81-0.016,5.713
		c-0.072,2.806,0.436,5.664-0.729,8.379c-0.127,0.295-0.133,0.641-0.207,1.033c0.276,0.02,0.501,0.035,0.727,0.05
		c-0.061,0.141-0.12,0.28-0.18,0.421c-0.398,0.027-0.797,0.055-1.355,0.094c0.381-1.146,0.746-2.174,1.057-3.218
		c0.141-0.476,0.239-0.983,0.239-1.476c0.001-3.003-0.042-6.006-0.046-9.009c-0.001-0.669,0.094-1.337,0.145-2.006
		C48.971,23.481,49.094,23.487,49.215,23.494z"/>
	<path style="fill-rule:evenodd;clip-rule:evenodd;fill:#D6D6D6;" d="M29.089,21.309c0.183-0.072,0.364-0.143,0.614-0.241
		c0.587,0.894,0.858,1.854,0.87,2.862c0.029,2.492,0.019,4.985-0.019,7.477c-0.006,0.408-0.227,0.812-0.349,1.217
		c-0.18-0.084-0.359-0.168-0.539-0.251c0.022-1.606,0.044-3.214,0.066-4.821c0.14-0.114,0.397-0.226,0.4-0.345
		c0.034-1.101,0.042-2.203,0.008-3.304c-0.004-0.133-0.294-0.258-0.452-0.386C29.489,22.78,29.289,22.045,29.089,21.309z"/>
	<path style="fill-rule:evenodd;clip-rule:evenodd;fill:#0A2F61;" d="M46.383,18.439c0-0.826,0-1.653,0-2.648
		c0.576-0.383,1.197-0.795,1.819-1.208c0.075,0.607,0.149,1.216,0.226,1.823c0,0.633,0,1.268,0,2.033
		C47.68,18.439,47.031,18.439,46.383,18.439z"/>
	<path style="fill-rule:evenodd;clip-rule:evenodd;fill:#0C3B78;" d="M33.755,39.873c0.213-1.107,0.426-2.215,0.624-3.242
		c0.715-0.354,0.92-0.008,1.033,0.473c0.269,1.135,0.531,2.271,0.8,3.426c-0.765,0.488-0.786-0.303-1.102-0.604
		c-0.25,0-0.512,0-0.774,0C34.143,39.908,33.949,39.891,33.755,39.873z M34.753,38.992c0.05,0.004,0.101,0.009,0.151,0.014
		c0.043-0.104,0.131-0.215,0.116-0.309c-0.017-0.113-0.122-0.213-0.19-0.317c-0.049,0.02-0.099,0.039-0.148,0.058
		C34.705,38.623,34.729,38.807,34.753,38.992z"/>
	<path style="fill-rule:evenodd;clip-rule:evenodd;fill:#0A2F61;" d="M43.945,41.921c0.564-0.067,1.128-0.187,1.692-0.19
		c2.833-0.02,5.667-0.011,8.5-0.007c0.344,0.001,0.687,0.032,1.03,0.05c0,0.117,0,0.235,0,0.354c-0.539,0-1.083-0.045-1.614,0.018
		c-0.309,0.036-0.597,0.245-0.896,0.377c-0.135,0.002-0.27,0.003-0.405,0.004c-0.259-0.133-0.52-0.383-0.776-0.379
		c-1.092,0.02-2.184,0.115-3.274,0.183c-1.418-0.001-2.835-0.001-4.253-0.001C43.948,42.191,43.947,42.057,43.945,41.921
		L43.945,41.921z"/>
	<path style="fill-rule:evenodd;clip-rule:evenodd;fill:#0C3B78;" d="M19.041,14.578c0.549,0.339,1.1,0.678,1.617,0.997
		c0,1.06,0,1.958,0,2.856c-0.539,0.002-1.08,0.004-1.619,0.006C19.039,17.15,19.04,15.864,19.041,14.578z"/>
	<path style="fill-rule:evenodd;clip-rule:evenodd;fill:#0D3F80;" d="M27.35,36.479c0.401,0,0.803,0,1.269,0
		c0.036,0.225,0.069,0.433,0.112,0.693c-0.386,0.064-0.707,0.119-1.145,0.191c0,1.037,0,2.094,0,3.211
		c-0.311,0.037-0.515,0.063-0.838,0.101c0-1.139,0-2.196,0-3.3c-0.42-0.063-0.74-0.111-1.129-0.17
		c-0.014-0.213-0.025-0.421-0.044-0.727c0.5,0,0.927,0,1.353,0c0.039,0.229,0.078,0.458,0.116,0.687
		c0.063,0.002,0.126,0.003,0.189,0.005C27.272,36.939,27.312,36.709,27.35,36.479z"/>
	<path style="fill-rule:evenodd;clip-rule:evenodd;fill:#0D3F80;" d="M39.225,44.77c-0.076-0.146-0.233-0.303-0.215-0.437
		c0.065-0.481,0.189-0.956,0.328-1.601c-2.063,0-3.988,0-5.915,0c0.004-0.184,0.008-0.367,0.012-0.551c2.185,0,4.368,0,6.692,0
		C39.808,43.097,39.516,43.934,39.225,44.77z"/>
	<path style="fill-rule:evenodd;clip-rule:evenodd;fill:#D0D0D0;" d="M13.342,21.482c0.145-0.125,0.289-0.25,0.462-0.401
		c0.874,0.571,0.605,1.575,0.997,2.345c-0.539,0.988-1.074,1.967-1.695,3.104c-0.323-0.495-0.545-0.835-0.768-1.175
		c0.146-0.068,0.358-0.097,0.424-0.211c0.315-0.54,0.59-1.104,0.879-1.66c0.158-0.039,0.316-0.08,0.474-0.119
		c0-0.051-0.001-0.102-0.001-0.152c-0.158-0.039-0.318-0.078-0.477-0.116c-0.034-0.199-0.068-0.398-0.103-0.597
		c0.075-0.196,0.151-0.393,0.227-0.588c-0.05-0.01-0.1-0.021-0.149-0.031c-0.047,0.116-0.093,0.231-0.14,0.348
		C13.429,21.979,13.385,21.73,13.342,21.482z"/>
	<path style="fill-rule:evenodd;clip-rule:evenodd;fill:#0D3F80;" d="M30.789,39.885c0.432,0,0.863,0,1.359,0
		c0,0.297,0,0.503,0,0.763c-0.713,0-1.373,0-2.117,0c0-1.349,0-2.671,0-4.092c0.674,0,1.326,0,2.068,0
		c0.03,0.138,0.075,0.343,0.158,0.716c-0.556,0-1.013,0-1.471,0c-0.034-0.156-0.069-0.312-0.104-0.467
		c-0.146,0.096-0.29,0.193-0.436,0.29c0.157,0.655,0.314,1.312,0.471,1.966c-0.012,0.213-0.024,0.424-0.037,0.637
		c-0.099,0.141-0.198,0.283-0.297,0.424c0.069,0.046,0.139,0.092,0.209,0.137C30.658,40.133,30.724,40.009,30.789,39.885z"/>
	<path style="fill-rule:evenodd;clip-rule:evenodd;fill:#D0D0D0;" d="M40.464,21.051c-0.162,0.279-0.323,0.559-0.55,0.948
		c0,1.896,0,3.917,0,5.938c-0.049,0.019-0.099,0.038-0.148,0.058c-0.1-0.213-0.198-0.427-0.298-0.64
		c-0.017-0.183-0.033-0.366-0.052-0.565c-0.175-0.02-0.301-0.032-0.427-0.045c-0.01-0.142-0.02-0.283-0.028-0.424
		c0.704-0.758,0.182-1.672,0.305-2.504c0.013-0.088-0.203-0.209-0.313-0.314c0.011-0.141,0.021-0.282,0.032-0.424
		c0.147-0.024,0.296-0.049,0.47-0.078c0.01-0.209,0.018-0.365,0.025-0.521c0.004-0.208,0.008-0.416,0.012-0.624
		c0.061-0.176,0.121-0.352,0.182-0.526c0.211-0.155,0.421-0.31,0.631-0.465C40.357,20.926,40.411,20.988,40.464,21.051z"/>
	<path style="fill-rule:evenodd;clip-rule:evenodd;fill:#0D3F80;" d="M33.419,11.342c-0.005-0.074-0.009-0.149-0.014-0.224
		c3.202-0.161,6.34,0.273,9.438,1.042c0.281,0.07,0.536,0.25,0.804,0.378c-1.157-0.153-2.323-0.256-3.468-0.471
		C37.943,11.648,35.701,11.323,33.419,11.342z"/>
	<path style="fill-rule:evenodd;clip-rule:evenodd;fill:#0D3F80;" d="M23.281,44.789c0.003,0.058,0.006,0.115,0.009,0.174
		c-0.388,0.12-0.775,0.24-1.218,0.379c0.07,0.223,0.109,0.414,0.189,0.586c0.541,1.165,1.091,2.326,1.638,3.489
		c-0.032,0.026-0.064,0.052-0.098,0.077c-0.871-1.488-1.741-2.977-2.612-4.465c0.053-0.08,0.105-0.16,0.159-0.24
		C21.992,44.789,22.637,44.789,23.281,44.789z"/>
	<path style="fill-rule:evenodd;clip-rule:evenodd;fill:#0D3F80;" d="M26.127,51.848c0.469,0.747,0.937,1.494,1.405,2.24
		c-0.123-0.035-0.3-0.03-0.362-0.111c-1.131-1.488-2.248-2.986-3.368-4.482c0.033-0.025,0.065-0.051,0.098-0.077
		c0.337,0.403,0.659,0.819,1.013,1.205C25.302,51.045,25.721,51.44,26.127,51.848z"/>
	<path style="fill-rule:evenodd;clip-rule:evenodd;fill:#E3E3E3;" d="M15.445,38.476c0.119,0.192,0.238,0.384,0.356,0.576
		c-0.261,0-0.522,0-0.866,0c-0.733-1.736-1.465-3.469-2.197-5.2l0.023-0.04c0.271,0.272,0.543,0.545,0.814,0.817l0,0
		c0.534,1.239,1.065,2.48,1.609,3.716C15.217,38.413,15.356,38.434,15.445,38.476z"/>
	<path style="fill-rule:evenodd;clip-rule:evenodd;fill:#C3C3C3;" d="M24.648,33.049c0.152-0.314,0.303-0.629,0.557-1.157
		c0.195,1.222,0.362,2.263,0.529,3.304c-0.26,0.018-0.519,0.034-0.916,0.061C24.759,34.484,24.704,33.766,24.648,33.049z"/>
	<path style="fill-rule:evenodd;clip-rule:evenodd;fill:#0D3F80;" d="M19.041,14.578c-0.001,1.286-0.002,2.572-0.002,3.859
		c-0.139-0.147-0.387-0.286-0.398-0.443c-0.088-1.104-0.149-2.213-0.162-3.32c-0.003-0.23,0.232-0.465,0.357-0.697
		C18.904,14.178,18.973,14.378,19.041,14.578z"/>
	<path style="fill-rule:evenodd;clip-rule:evenodd;fill:#0A2E5E;" d="M48.202,42.329c1.091-0.067,2.183-0.163,3.274-0.183
		c0.257-0.004,0.518,0.246,0.776,0.379c-1.165,0.061-2.329,0.127-3.495,0.17c-0.183,0.006-0.37-0.099-0.556-0.152
		C48.202,42.473,48.202,42.4,48.202,42.329z"/>
	<path style="fill-rule:evenodd;clip-rule:evenodd;fill:#EBEBEB;" d="M29.689,23.517c0.158,0.128,0.448,0.253,0.452,0.386
		c0.034,1.101,0.026,2.203-0.008,3.304c-0.003,0.119-0.261,0.23-0.4,0.345C29.719,26.207,29.704,24.861,29.689,23.517z"/>
	<path style="fill-rule:evenodd;clip-rule:evenodd;fill:#D2D2D2;" d="M29.667,32.372c0.18,0.083,0.359,0.167,0.539,0.251
		c-0.208,0.854-0.417,1.709-0.625,2.564c-0.21,0-0.419,0-0.751,0c0.146-0.4,0.254-0.695,0.362-0.99
		c0.476-0.076,0.47-0.287,0.163-0.582c0.018-0.074,0.035-0.147,0.052-0.221c0.443-0.091,0.466-0.295,0.157-0.586
		C29.599,32.662,29.633,32.518,29.667,32.372z"/>
	<path style="fill-rule:evenodd;clip-rule:evenodd;fill:#0D3F80;" d="M47.206,13.752c-1.021-0.256-2.045-0.496-3.056-0.783
		c-0.169-0.049-0.278-0.304-0.415-0.463C44.893,12.921,46.049,13.336,47.206,13.752z"/>
	<path style="fill-rule:evenodd;clip-rule:evenodd;fill:#0C3B78;" d="M30.719,39.061c-0.156-0.654-0.313-1.311-0.471-1.966
		c0.146-0.097,0.29-0.194,0.436-0.29c0.034,0.155,0.069,0.311,0.104,0.467c0,0.223,0,0.445,0,0.691
		c0.218,0.092,0.42,0.178,0.622,0.264c0,0.236,0,0.473-0.001,0.71C31.179,38.979,30.949,39.02,30.719,39.061z"/>
	<path style="fill-rule:evenodd;clip-rule:evenodd;fill:#FAB92F;" d="M59.295,3.931c0.002,2.308,0.003,4.616,0.005,6.925
		c-0.058-0.111-0.166-0.221-0.167-0.332c-0.012-2.089-0.014-4.178-0.006-6.266C59.128,4.148,59.236,4.039,59.295,3.931z"/>
	<path style="fill-rule:evenodd;clip-rule:evenodd;fill:#C3C3C3;" d="M50.242,21.912c-0.184,0.004-0.38-0.031-0.548,0.023
		c-0.203,0.066-0.382,0.208-0.571,0.317c0.312-0.81,0.757-1.47,1.729-1.538C50.648,21.113,50.445,21.513,50.242,21.912z"/>
	<path style="fill-rule:evenodd;clip-rule:evenodd;fill:#EBEBEB;" d="M38.953,23.502c0.109,0.105,0.325,0.227,0.313,0.314
		c-0.123,0.832,0.399,1.746-0.305,2.504C38.958,25.381,38.955,24.441,38.953,23.502z"/>
	<path style="fill-rule:evenodd;clip-rule:evenodd;fill:#D0D0D0;" d="M44.141,29.401c0.157-0.071,0.314-0.142,0.546-0.247
		c0,1.189,0,2.266,0,3.575c-0.288-0.313-0.427-0.464-0.565-0.614l-0.037-0.059l0.046-0.053c0.608-0.51,0.62-1.891,0.021-2.435
		C44.104,29.516,44.102,29.459,44.141,29.401z"/>
	<path style="fill-rule:evenodd;clip-rule:evenodd;fill:#E3E3E3;" d="M44.15,29.569c0.6,0.544,0.588,1.925-0.021,2.435
		C44.137,31.192,44.143,30.381,44.15,29.569z"/>
	<path style="fill-rule:evenodd;clip-rule:evenodd;fill:#0D3F80;" d="M48.428,16.406c-0.076-0.607-0.15-1.216-0.226-1.823
		c-0.329-0.28-0.657-0.562-0.987-0.843c0.414,0.149,0.827,0.298,1.213,0.437C48.428,15.021,48.428,15.714,48.428,16.406z"/>
	<path style="fill-rule:evenodd;clip-rule:evenodd;fill:#0D3F80;" d="M33.605,18.454c1.359-0.001,2.719-0.003,4.078-0.005
		C36.324,18.451,34.965,18.453,33.605,18.454z"/>
	<path style="fill-rule:evenodd;clip-rule:evenodd;fill:#0D3F80;" d="M33.755,39.873c0.194,0.018,0.388,0.035,0.581,0.053
		c-0.084,0.434-0.076,0.98-0.866,0.65C33.569,40.332,33.662,40.103,33.755,39.873z"/>
	<path style="fill-rule:evenodd;clip-rule:evenodd;fill:#D2D2D2;" d="M37.863,57.691c0.083,0.084,0.165,0.168,0.247,0.252
		c-0.313,0.208-0.624,0.416-0.937,0.625c-0.102-0.01-0.203-0.019-0.305-0.027l-0.063-0.07
		C37.158,58.211,37.512,57.951,37.863,57.691z"/>
	<path style="fill-rule:evenodd;clip-rule:evenodd;fill:#BCBCBC;" d="M28.689,57.773c0.097-0.093,0.192-0.186,0.289-0.279
		c0.205,0.164,0.41,0.328,0.615,0.492c-0.01,0.119-0.02,0.236-0.03,0.355C29.271,58.152,28.98,57.963,28.689,57.773z"/>
	<path style="fill-rule:evenodd;clip-rule:evenodd;fill:#0D3F80;" d="M38.592,39.307c0.24,0.133,0.482,0.266,0.723,0.397
		c-0.086,0.232-0.172,0.465-0.258,0.697c-0.058-0.001-0.114-0.001-0.172-0.003C38.787,40.035,38.689,39.671,38.592,39.307z"/>
	<path style="fill-rule:evenodd;clip-rule:evenodd;fill:#0C3B78;" d="M28.115,54.635c0.277,0.308,0.555,0.615,0.832,0.924
		C28.67,55.25,28.393,54.942,28.115,54.635z"/>
	<path style="fill-rule:evenodd;clip-rule:evenodd;fill:#979797;" d="M30.387,58.52c0.342,0.268,0.686,0.535,1.027,0.802
		c-0.032,0.03-0.064,0.062-0.098,0.094c-0.315-0.188-0.632-0.374-0.947-0.562C30.375,58.742,30.381,58.631,30.387,58.52z"/>
	<path style="fill-rule:evenodd;clip-rule:evenodd;fill:#0D3F80;" d="M37.47,40.304c0.214-0.142,0.428-0.283,0.642-0.425
		c-0.014,0.25-0.026,0.5-0.04,0.751c-0.069,0.038-0.14,0.075-0.209,0.113C37.731,40.597,37.601,40.45,37.47,40.304z"/>
	<path style="fill-rule:evenodd;clip-rule:evenodd;fill:#0A2F61;" d="M27.35,36.479c-0.038,0.23-0.077,0.461-0.116,0.691
		c-0.063-0.002-0.126-0.003-0.189-0.005c-0.038-0.229-0.077-0.458-0.116-0.687C27.068,36.479,27.209,36.479,27.35,36.479z"/>
	<path style="fill-rule:evenodd;clip-rule:evenodd;fill:#EBEBEB;" d="M38.989,26.744c0.126,0.013,0.252,0.025,0.427,0.045
		c0.019,0.199,0.035,0.383,0.052,0.565c-0.125-0.005-0.251-0.009-0.376-0.013C39.058,27.143,39.023,26.943,38.989,26.744z"/>
	<path style="fill-rule:evenodd;clip-rule:evenodd;fill:#EBEBEB;" d="M39.48,22.479c-0.008,0.156-0.016,0.313-0.025,0.521
		c-0.174,0.029-0.322,0.054-0.47,0.078c0.032-0.199,0.065-0.398,0.099-0.598C39.216,22.48,39.348,22.479,39.48,22.479z"/>
	<path style="fill-rule:evenodd;clip-rule:evenodd;fill:#F0F0F0;" d="M39.48,22.479c-0.133,0.001-0.265,0.002-0.396,0.002
		c0.138-0.314,0.275-0.631,0.414-0.947c-0.002,0.107-0.004,0.215-0.006,0.321C39.488,22.063,39.484,22.271,39.48,22.479z"/>
	<path style="fill-rule:evenodd;clip-rule:evenodd;fill:#D0D0D0;" d="M39.533,31.02c-0.134,0.192-0.268,0.386-0.4,0.578
		c-0.021-0.236-0.043-0.473-0.077-0.858C39.299,30.882,39.416,30.95,39.533,31.02z"/>
	<path style="fill-rule:evenodd;clip-rule:evenodd;fill:#979797;" d="M35.951,59.028c0.235-0.166,0.471-0.331,0.707-0.497
		c0.004,0.108,0.01,0.217,0.015,0.326c-0.175,0.139-0.349,0.277-0.522,0.416C36.084,59.191,36.018,59.11,35.951,59.028z"/>
	<path style="fill-rule:evenodd;clip-rule:evenodd;fill:#EBEBEB;" d="M13.637,23.097c0.158,0.038,0.318,0.077,0.477,0.116
		c0,0.051,0.001,0.102,0.001,0.152c-0.157,0.039-0.315,0.08-0.474,0.119C13.639,23.355,13.638,23.227,13.637,23.097z"/>
	<path style="fill-rule:evenodd;clip-rule:evenodd;fill:#0D3F80;" d="M31.408,38.937c0.001-0.237,0.001-0.474,0.001-0.71
		c0.136,0.134,0.271,0.269,0.405,0.403C31.68,38.732,31.544,38.834,31.408,38.937z"/>
	<path style="fill-rule:evenodd;clip-rule:evenodd;fill:#0D3F80;" d="M39.875,40.301c0.222,0,0.442-0.001,0.664-0.001
		c-0.111,0.13-0.223,0.26-0.333,0.39C40.096,40.561,39.985,40.431,39.875,40.301z"/>
	<path style="fill-rule:evenodd;clip-rule:evenodd;fill:#0C3B78;" d="M30.789,39.885c-0.065,0.124-0.131,0.248-0.195,0.373
		c-0.07-0.045-0.14-0.091-0.209-0.137c0.099-0.141,0.198-0.283,0.297-0.424C30.718,39.76,30.754,39.822,30.789,39.885z"/>
	<path style="fill-rule:evenodd;clip-rule:evenodd;fill:#B98822;" d="M8.034,14.996c-0.01-0.342-0.021-0.684-0.03-1.025
		C8.014,14.313,8.024,14.654,8.034,14.996z"/>
	<path style="fill-rule:evenodd;clip-rule:evenodd;fill:#C3C3C3;" d="M24.414,31.762c0.055,0.256,0.107,0.512,0.162,0.769
		C24.521,32.273,24.469,32.018,24.414,31.762z"/>
	<path style="fill-rule:evenodd;clip-rule:evenodd;fill:#EBEBEB;" d="M29.563,58.342c0.011-0.119,0.021-0.236,0.03-0.355
		c0.233,0.169,0.466,0.338,0.698,0.508c-0.124,0.021-0.248,0.043-0.372,0.064C29.801,58.486,29.683,58.414,29.563,58.342z"/>
	<path style="fill-rule:evenodd;clip-rule:evenodd;fill:#F1F1F1;" d="M49.215,23.494c-0.121-0.007-0.244-0.013-0.365-0.019
		c0.107-0.309,0.215-0.617,0.323-0.925C49.187,22.865,49.201,23.18,49.215,23.494z"/>
	<path style="fill-rule:evenodd;clip-rule:evenodd;fill:#F5F5F5;" d="M13.472,22.229c0.047-0.116,0.093-0.231,0.14-0.348
		c0.05,0.011,0.1,0.021,0.149,0.031c-0.075,0.195-0.151,0.392-0.227,0.588C13.514,22.408,13.492,22.318,13.472,22.229z"/>
	<path style="fill-rule:evenodd;clip-rule:evenodd;fill:#C3C3C3;" d="M56.91,20.668c-0.146-0.016-0.291-0.03-0.436-0.045
		C56.619,20.638,56.765,20.652,56.91,20.668z"/>
	<path style="fill-rule:evenodd;clip-rule:evenodd;fill:#C3C3C3;" d="M22.246,32.398c0.016-0.143,0.031-0.284,0.048-0.427
		C22.277,32.114,22.262,32.256,22.246,32.398z"/>
	<path style="fill-rule:evenodd;clip-rule:evenodd;fill:#D6D6D6;" d="M40.464,21.051c-0.053-0.063-0.106-0.125-0.159-0.188
		c0.142-0.025,0.282-0.051,0.424-0.076C40.641,20.875,40.552,20.963,40.464,21.051z"/>
	<path style="fill-rule:evenodd;clip-rule:evenodd;fill:#979797;" d="M40.432,29.064c0.161,0.049,0.323,0.099,0.484,0.148
		C40.755,29.163,40.593,29.113,40.432,29.064z"/>
	<path style="fill-rule:evenodd;clip-rule:evenodd;fill:#0A2E5E;" d="M38.105,39.317c0.02-0.116,0.039-0.232,0.093-0.546
		c0.157,0.275,0.223,0.39,0.288,0.504C38.359,39.289,38.232,39.303,38.105,39.317z"/>
	<path style="fill-rule:evenodd;clip-rule:evenodd;fill:#979797;" d="M36.15,59.273c-0.193,0.091-0.387,0.182-0.58,0.271
		c-0.025-0.039-0.053-0.077-0.079-0.116c0.153-0.134,0.307-0.267,0.46-0.4C36.018,59.11,36.084,59.191,36.15,59.273z"/>
	<path style="fill-rule:evenodd;clip-rule:evenodd;fill:#F9F9F9;" d="M29.564,32.809c0.309,0.291,0.286,0.495-0.157,0.586
		C29.46,33.199,29.512,33.004,29.564,32.809z"/>
	<path style="fill-rule:evenodd;clip-rule:evenodd;fill:#BCBCBC;" d="M15.988,12.08c0.011-0.122,0.021-0.244,0.033-0.366
		c0.148,0.124,0.298,0.249,0.447,0.374c-0.053,0.074-0.104,0.148-0.157,0.223C16.204,12.234,16.096,12.157,15.988,12.08z"/>
	<path style="fill-rule:evenodd;clip-rule:evenodd;fill:#FBFBFB;" d="M29.355,33.615c0.307,0.295,0.313,0.506-0.163,0.582
		C29.246,34.003,29.301,33.809,29.355,33.615z"/>
	<path style="fill-rule:evenodd;clip-rule:evenodd;fill:#FAFAFA;" d="M39.492,21.854c0.002-0.106,0.004-0.214,0.006-0.321
		c0.059-0.068,0.117-0.137,0.176-0.205C39.613,21.503,39.553,21.679,39.492,21.854z"/>
	<path style="fill-rule:evenodd;clip-rule:evenodd;fill:#0D3F80;" d="M27.532,54.083c0.081,0.142,0.161,0.284,0.241,0.427
		C27.693,54.367,27.613,54.225,27.532,54.083z"/>
	<path style="fill-rule:evenodd;clip-rule:evenodd;fill:#D6D6D6;" d="M29.92,58.559c0.124-0.021,0.248-0.043,0.372-0.064
		c0.04-0.021,0.071-0.014,0.095,0.025c-0.006,0.111-0.012,0.223-0.018,0.334C30.219,58.755,30.07,58.656,29.92,58.559z"/>
	<path style="fill-rule:evenodd;clip-rule:evenodd;fill:#D6D6D6;" d="M46.979,20.861c-0.065-0.061-0.131-0.123-0.196-0.184
		C46.849,20.738,46.914,20.801,46.979,20.861z"/>
	<path style="fill-rule:evenodd;clip-rule:evenodd;fill:#FAB92F;" d="M4.692,37.153c-0.011-0.098-0.022-0.195-0.034-0.293
		c0.062,0.001,0.123,0.001,0.185,0C4.793,36.958,4.742,37.056,4.692,37.153z"/>
	<path style="fill-rule:evenodd;clip-rule:evenodd;fill:#0D3F80;" d="M38.1,39.502c-0.042-0.033-0.084-0.066-0.129-0.102
		c0.043-0.036,0.083-0.07,0.123-0.104C38.096,39.365,38.098,39.434,38.1,39.502z"/>
	<path style="fill-rule:evenodd;clip-rule:evenodd;fill:#BCBCBC;" d="M50.634,12.049c0.11-0.091,0.222-0.182,0.331-0.273
		c0.064,0.095,0.129,0.189,0.193,0.283c-0.086,0.053-0.172,0.106-0.258,0.16C50.813,12.162,50.723,12.105,50.634,12.049z"/>
	<path style="fill-rule:evenodd;clip-rule:evenodd;fill:#BCBCBC;" d="M16.469,12.088c0.047,0.067,0.093,0.135,0.186,0.27
		c-0.171-0.023-0.257-0.035-0.343-0.047C16.364,12.236,16.416,12.162,16.469,12.088z"/>
	<path style="fill-rule:evenodd;clip-rule:evenodd;fill:#979797;" d="M50.633,12.355c-0.068-0.016-0.137-0.031-0.246-0.057
		c0.092-0.097,0.148-0.156,0.204-0.215C50.605,12.174,50.619,12.265,50.633,12.355z"/>
	<path style="fill-rule:evenodd;clip-rule:evenodd;fill:#BCBCBC;" d="M50.633,12.355c-0.014-0.091-0.027-0.182-0.042-0.271
		l0.043-0.035c0.089,0.057,0.179,0.113,0.267,0.17C50.812,12.264,50.723,12.31,50.633,12.355z"/>
	<path style="fill-rule:evenodd;clip-rule:evenodd;fill:#D2D2D2;" d="M36.673,58.857c-0.005-0.109-0.011-0.218-0.015-0.326
		c0.039-0.046,0.088-0.066,0.148-0.061l0.063,0.07c-0.002,0.076-0.005,0.152-0.008,0.229C36.799,58.799,36.735,58.828,36.673,58.857
		z"/>
	<path style="fill-rule:evenodd;clip-rule:evenodd;fill:#D0D0D0;" d="M36.861,58.771c0.003-0.077,0.006-0.153,0.008-0.229
		c0.102,0.009,0.203,0.018,0.305,0.027C37.07,58.636,36.966,58.703,36.861,58.771z"/>
	<path style="fill-rule:evenodd;clip-rule:evenodd;fill:#BCBCBC;" d="M50.964,11.773c0.089,0.068,0.179,0.137,0.269,0.205
		c0,0.05-0.025,0.076-0.074,0.08c-0.064-0.094-0.129-0.188-0.193-0.283L50.964,11.773z"/>
	<path style="fill-rule:evenodd;clip-rule:evenodd;fill:#979797;" d="M31.414,59.321c0.049,0.03,0.099,0.062,0.147,0.093
		c-0.007,0.023-0.013,0.047-0.02,0.071c-0.075-0.023-0.15-0.047-0.226-0.07C31.35,59.383,31.382,59.352,31.414,59.321z"/>
	<path style="fill-rule:evenodd;clip-rule:evenodd;fill:#111111;" d="M55.267,35.178c-0.759,0-1.517,0-2.32,0
		c0-3.586,0-7.127,0-10.794c0.751,0,1.476,0,2.202,0c0.03,0.331,0.086,0.663,0.088,0.995C55.252,28.645,55.258,31.911,55.267,35.178
		z"/>
	<path style="fill-rule:evenodd;clip-rule:evenodd;fill:#E3E3E3;" d="M55.267,35.178c-0.009-3.267-0.015-6.533-0.03-9.799
		c-0.002-0.332-0.058-0.664-0.088-0.995c0.178-0.03,0.357-0.062,0.535-0.093c0.004,3.719,0.007,7.438,0.01,11.155
		C55.551,35.357,55.408,35.268,55.267,35.178z"/>
	<path style="fill-rule:evenodd;clip-rule:evenodd;fill:#D6D6D6;" d="M55.693,35.446c-0.003-3.718-0.006-7.437-0.01-11.155
		c0.138,0.258,0.394,0.514,0.396,0.771c0.027,3.203,0.027,6.406,0.001,9.608C56.077,34.931,55.828,35.188,55.693,35.446z"/>
	<path style="fill-rule:evenodd;clip-rule:evenodd;fill:#D0D0D0;" d="M15.445,38.476c-0.089-0.042-0.229-0.063-0.26-0.131
		c-0.544-1.235-1.075-2.477-1.609-3.716C14.199,35.91,14.822,37.193,15.445,38.476z"/>
	<path style="fill-rule:evenodd;clip-rule:evenodd;fill:#D0D0D0;" d="M13.576,34.629c-0.271-0.272-0.543-0.545-0.814-0.817
		c0.088-0.144,0.176-0.287,0.265-0.431c0.087,0,0.174,0,0.261,0C13.384,33.797,13.48,34.213,13.576,34.629z"/>
	<path style="fill-rule:evenodd;clip-rule:evenodd;fill:#0C3B78;" d="M26.127,51.848c-0.406-0.407-0.825-0.803-1.215-1.226
		c-0.354-0.386-0.676-0.802-1.013-1.205c-0.547-1.163-1.097-2.324-1.638-3.489c-0.08-0.172-0.119-0.363-0.189-0.586
		c0.442-0.139,0.83-0.259,1.218-0.379C24.235,47.258,25.182,49.553,26.127,51.848z"/>
	<path style="fill-rule:evenodd;clip-rule:evenodd;fill:#212121;" d="M23.523,23.627c0.207,1.816,0.414,3.633,0.629,5.514
		c-0.516,0-0.938,0-1.516,0c0.21-1.84,0.42-3.678,0.629-5.516C23.352,23.625,23.438,23.627,23.523,23.627z"/>
	<path style="fill-rule:evenodd;clip-rule:evenodd;fill:#D0D0D0;" d="M22.686,29.614c0.474,0,0.947,0,1.42,0
		c0.001,0.035,0.002,0.07,0.003,0.105c-0.461,0-0.923,0-1.384,0C22.712,29.685,22.699,29.649,22.686,29.614z"/>
	<path style="fill-rule:evenodd;clip-rule:evenodd;fill:#D0D0D0;" d="M39.566,34.711c0-0.974,0-1.947,0-2.911
		C39.951,32.232,40.034,33.508,39.566,34.711z"/>
	<path style="fill-rule:evenodd;clip-rule:evenodd;fill:#060605;" d="M34.826,23.728c0,1.042,0,2.011,0,3.057
		c-0.591,0-1.178,0-1.809,0c0-1.006,0-2.003,0-3.057C33.602,23.728,34.156,23.728,34.826,23.728z"/>
	<path style="fill-rule:evenodd;clip-rule:evenodd;fill:#BCBCBC;" d="M35.545,23.615c0,1.063,0,2.124,0,3.186
		c-0.086,0.005-0.17,0.01-0.256,0.014c-0.068-1.061-0.021-2.127-0.029-3.191C35.355,23.62,35.45,23.617,35.545,23.615z"/>
	<path style="fill-rule:evenodd;clip-rule:evenodd;fill:#0A2E5E;" d="M43.946,41.92c0.001,0.137,0.002,0.271,0.003,0.408
		c-0.222-0.018-0.443-0.035-0.665-0.052c-0.009-0.063-0.017-0.125-0.026-0.187C43.487,42.033,43.717,41.977,43.946,41.92z"/>
	<path style="fill-rule:evenodd;clip-rule:evenodd;fill:#212121;" d="M34.753,38.992c-0.023-0.186-0.048-0.369-0.071-0.555
		c0.05-0.019,0.1-0.038,0.148-0.058c0.068,0.104,0.174,0.204,0.19,0.317c0.015,0.094-0.073,0.205-0.116,0.309
		C34.854,39.001,34.803,38.996,34.753,38.992z"/>
</g>
</svg>
