<?xml version="1.0" encoding="utf-8"?>
<!-- Generator: Adobe Illustrator 22.0.1, SVG Export Plug-In . SVG Version: 6.00 Build 0)  -->
<svg version="1.1" id="Layer_1" xmlns="http://www.w3.org/2000/svg" xmlns:xlink="http://www.w3.org/1999/xlink" x="0px" y="0px"
	 width="480px" height="64px" viewBox="0 0 480 64" enable-background="new 0 0 480 64" xml:space="preserve">
<g>
	<rect x="28.8" fill="#FFFFFF" width="16.1" height="1.5"/>
	<rect x="91.9" fill="#FFFFFF" width="16.1" height="1.5"/>
	<rect x="281.4" fill="#FFFFFF" width="16.1" height="1.8"/>
	<rect x="218.2" fill="#FFFFFF" width="16.1" height="1.8"/>
	<rect y="24.5" fill="#FFFFFF" width="1.8" height="16.1"/>
	<path fill="#FFFFFF" d="M1.8,12V9.1c0-4,2-7.6,7.3-7.5h3V0H7.6C3.4,0,0,2.7,0,7.6V12H1.8z"/>
	<path fill="#FFFFFF" d="M12.1,62.2h-3c-4,0-7.3-2.2-7.3-7.3v-3H0v4.6C0,60.6,3.4,64,7.6,64h4.6L12.1,62.2L12.1,62.2z"/>
	<path fill="#FFFFFF" d="M478.2,52.5v3c0,5-3.3,7.3-7.3,7.3h-2.8v1.8h4.3c4.2,0,7.5-3.4,7.5-7.5v-4.6L478.2,52.5L478.2,52.5
		L478.2,52.5z"/>
	<path fill="#FFFFFF" d="M468.1,2.1h2.8c5.5,0,7.3,3.5,7.3,7.5v2.9h1.8V8.1c0-4.2-3.4-7.6-7.5-7.6h-4.3L468.1,2.1L468.1,2.1z"/>
	<rect x="155.1" fill="#FFFFFF" width="16.1" height="1.5"/>
	<rect x="478.2" y="24.8" fill="#FFFFFF" width="1.8" height="16.1"/>
	<rect x="60.4" fill="#FFFFFF" width="16.1" height="1.5"/>
	<rect x="249.8" fill="#FFFFFF" width="16.1" height="1.8"/>
	<rect x="123.5" fill="#FFFFFF" width="16.1" height="1.5"/>
	<rect x="186.6" fill="#FFFFFF" width="16.1" height="1.8"/>
	<rect x="28.8" y="62.5" fill="#FFFFFF" width="16.1" height="1.5"/>
	<rect x="91.9" y="62.5" fill="#FFFFFF" width="16.1" height="1.5"/>
	<rect x="281.4" y="62.2" fill="#FFFFFF" width="16.1" height="1.8"/>
	<rect x="218.2" y="62.2" fill="#FFFFFF" width="16.1" height="1.8"/>
	<rect x="155.1" y="62.5" fill="#FFFFFF" width="16.1" height="1.5"/>
	<rect x="60.4" y="62.5" fill="#FFFFFF" width="16.1" height="1.5"/>
	<rect x="249.8" y="62.2" fill="#FFFFFF" width="16.1" height="1.8"/>
	<rect x="123.5" y="62.5" fill="#FFFFFF" width="16.1" height="1.5"/>
	<rect x="186.6" y="62.2" fill="#FFFFFF" width="16.1" height="1.8"/>
	<rect x="439.2" fill="#FFFFFF" width="16.1" height="1.8"/>
	<rect x="376.1" fill="#FFFFFF" width="16.1" height="1.8"/>
	<rect x="312.9" fill="#FFFFFF" width="16.1" height="1.5"/>
	<rect x="407.6" fill="#FFFFFF" width="16.1" height="1.8"/>
	<rect x="344.5" fill="#FFFFFF" width="16.1" height="1.8"/>
	<rect x="439.2" y="62.2" fill="#FFFFFF" width="16.1" height="1.8"/>
	<rect x="376.1" y="62.2" fill="#FFFFFF" width="16.1" height="1.8"/>
	<rect x="312.9" y="62.5" fill="#FFFFFF" width="16.1" height="1.5"/>
	<rect x="407.6" y="62.2" fill="#FFFFFF" width="16.1" height="1.8"/>
	<rect x="344.5" y="62.2" fill="#FFFFFF" width="16.1" height="1.8"/>
</g>
</svg>
