<?xml version="1.0" encoding="utf-8"?>
<!-- Generator: Adobe Illustrator 16.0.3, SVG Export Plug-In . SVG Version: 6.00 Build 0)  -->
<!DOCTYPE svg PUBLIC "-//W3C//DTD SVG 1.1//EN" "http://www.w3.org/Graphics/SVG/1.1/DTD/svg11.dtd">
<svg version="1.1" id="Layer_1" xmlns="http://www.w3.org/2000/svg" xmlns:xlink="http://www.w3.org/1999/xlink" x="0px" y="0px"
	 width="64px" height="64px" viewBox="0 0 64 64" enable-background="new 0 0 64 64" xml:space="preserve">
<g>
	<rect x="7.991" fill="#FCFAFB" width="5.382" height="0.515"/>
	<rect x="29.319" y="63.396" fill="#FCFAFB" width="5.381" height="0.604"/>
	<rect x="29.256" fill="#FCFAFB" width="5.383" height="0.515"/>
	<rect x="8.116" y="63.396" fill="#FCFAFB" width="5.382" height="0.604"/>
	<rect x="50.521" y="63.396" fill="#FCFAFB" width="5.382" height="0.604"/>
	<rect y="50.641" fill="#FCFAFB" width="0.604" height="5.367"/>
	<rect y="8.18" fill="#FCFAFB" width="0.604" height="5.368"/>
	<rect y="29.41" fill="#FCFAFB" width="0.604" height="5.367"/>
	<path fill="#FCFAFB" d="M0.604,3.995V3.026c0-1.338,0.676-2.537,2.422-2.511h1.011V0H2.518C1.127,0,0,0.891,0,2.518v1.477H0.604z"
		/>
	<path fill="#FCFAFB" d="M4.036,63.396H3.025c-1.338,0-2.422-0.738-2.422-2.422v-1.012H0v1.52C0,62.873,1.127,64,2.518,64h1.519
		V63.396z"/>
	<path fill="#FCFAFB" d="M63.396,59.963v1.012c0,1.652-1.085,2.422-2.422,2.422h-0.928V64h1.436c1.391,0,2.518-1.127,2.518-2.518
		v-1.52H63.396z"/>
	<path fill="#FCFAFB" d="M60.047,0.515h0.928c1.84,0,2.422,1.173,2.422,2.511v0.969H64V2.518C64,1.127,62.873,0,61.482,0h-1.436
		V0.515z"/>
	<rect x="63.396" y="29.396" fill="#FCFAFB" width="0.604" height="5.368"/>
	<rect x="50.521" fill="#FCFAFB" width="5.382" height="0.515"/>
	<rect x="63.396" y="50.695" fill="#FCFAFB" width="0.604" height="5.367"/>
	<rect x="63.396" y="8.096" fill="#FCFAFB" width="0.604" height="5.368"/>
	<rect y="18.795" fill="#FCFAFB" width="0.604" height="5.367"/>
	<rect x="63.396" y="18.746" fill="#FCFAFB" width="0.604" height="5.367"/>
	<rect y="40.025" fill="#FCFAFB" width="0.604" height="5.367"/>
	<rect x="63.396" y="40.046" fill="#FCFAFB" width="0.604" height="5.367"/>
	<rect x="18.624" fill="#FCFAFB" width="5.382" height="0.515"/>
	<rect x="18.718" y="63.396" fill="#FCFAFB" width="5.382" height="0.604"/>
	<rect x="39.889" fill="#FCFAFB" width="5.382" height="0.515"/>
	<rect x="39.92" y="63.396" fill="#FCFAFB" width="5.382" height="0.604"/>
</g>
</svg>
