<?xml version="1.0" encoding="utf-8"?>
<!-- Generator: Adobe Illustrator 16.0.0, SVG Export Plug-In . SVG Version: 6.00 Build 0)  -->
<!DOCTYPE svg PUBLIC "-//W3C//DTD SVG 1.1//EN" "http://www.w3.org/Graphics/SVG/1.1/DTD/svg11.dtd">
<svg version="1.1" id="Layer_2_1_" xmlns="http://www.w3.org/2000/svg" xmlns:xlink="http://www.w3.org/1999/xlink" x="0px" y="0px"
	 width="32px" height="32px" viewBox="0 0 32 32" enable-background="new 0 0 32 32" xml:space="preserve">
<g>
	<path fill="#282525" d="M15.514,31.541c-3.655-1.191-8.36-5.684-10.651-10.008s-3.205-9.796-3.361-10.75
		C1.362,9.928,1.029,5.738,1.029,5.149c0-0.588,0.149-0.96,0.847-1.393C2.236,3.533,5.162,2.075,8.1,1.354
		c2.938-0.72,7.967-0.72,7.967-0.72l0.091,0.003c0,0,5.029,0,7.966,0.72c2.938,0.721,5.863,2.179,6.225,2.402
		c0.696,0.433,0.846,0.805,0.846,1.393s-0.333,4.778-0.474,5.634c-0.155,0.954-1.069,6.426-3.36,10.75s-7.066,8.855-10.65,10.006
		C16.258,31.689,15.966,31.689,15.514,31.541z"/>
	<linearGradient id="SVGID_1_" gradientUnits="userSpaceOnUse" x1="20.6953" y1="23.6855" x2="15.786" y2="11.4275">
		<stop  offset="0" style="stop-color:#000000"/>
		<stop  offset="0.1638" style="stop-color:#030303"/>
		<stop  offset="0.2944" style="stop-color:#0D0D0D"/>
		<stop  offset="0.4136" style="stop-color:#1E1E1E"/>
		<stop  offset="0.526" style="stop-color:#363636"/>
		<stop  offset="0.6338" style="stop-color:#545454"/>
		<stop  offset="0.7379" style="stop-color:#7A7A7A"/>
		<stop  offset="0.8391" style="stop-color:#A7A7A7"/>
		<stop  offset="0.9356" style="stop-color:#D9D9D9"/>
		<stop  offset="1" style="stop-color:#FFFFFF"/>
	</linearGradient>
	<path opacity="0.35" fill="url(#SVGID_1_)" d="M15.928,30.643c-0.011-0.002-0.053-0.008-0.146-0.039
		c-3.331-1.086-7.834-5.357-10.042-9.521c-2.037-3.848-2.978-8.664-3.288-10.555c-0.136-0.826,1.066,1.648,3.656,1.472
		c2.589-0.178,2.255-0.48,5.095-1.177c2.691-0.66-0.375-1.951,0-1.952l2.703-0.373l1.428,2.607c0.049,0,2.433-2.118,5.218-1.435
		c2.839,0.696,3.595-0.359,4.468-0.167c1.39,0.307,1.923,1.75,2.68,1.788c0.759,0.037,1.831-1.586,1.695-0.761
		c-0.31,1.892-1.251,6.708-3.289,10.552c-2.179,4.115-6.773,8.475-10.034,9.521C15.98,30.635,15.94,30.641,15.928,30.643z"/>
</g>
<linearGradient id="SVGID_2_" gradientUnits="userSpaceOnUse" x1="20.4844" y1="3.8057" x2="25.1602" y2="3.8057">
	<stop  offset="0" style="stop-color:#AEB0A8"/>
	<stop  offset="1" style="stop-color:#FFFFFF"/>
</linearGradient>
<path fill="url(#SVGID_2_)" d="M20.484,1.849c1.662,1.21,3.143,2.288,4.419,3.914c0.628-1.088-0.013-2.432-0.661-3.372L20.484,1.849
	z"/>
<path fill="#282525" d="M25.263,16.123c-0.003,0.149-0.006,0.299-0.009,0.447c-0.047,0.121-0.114,0.229-0.175,0.335
	c-0.091-0.018-0.396-0.174-0.468-0.139c-0.004,0.008-0.01,0.016-0.016,0.024c-0.006,0.002-0.013,0.006-0.017,0.008
	c-0.013,0.025,0.016,0.035,0.017,0.041c0.016,0.087-0.007,0.274,0.009,0.359c-0.006,0.007-0.012,0.016-0.019,0.025
	c-0.052,0.002-0.072-0.015-0.124-0.034c-0.016,0.003-0.034,0.006-0.049,0.009c-0.077,0.242-0.205,0.766-0.543,0.676
	c-0.211-0.057-0.384-0.242-0.584-0.309c0-0.006,0-0.012,0-0.018c0.125-0.058,0.191-0.18,0.311-0.228
	c-0.035-0.076-0.198-0.113-0.285-0.163c-0.222-0.131-0.444-0.261-0.667-0.392c-0.695-0.469-1.223-1.057-1.566-1.868
	c-0.075-0.174-0.302-0.564-0.233-0.791c0.133-0.447,0.592-0.07,0.94-0.163c0.241-0.064,0.411-0.109,0.691-0.156
	c0.27-0.042,0.826,0.103,1.026,0.163c0.099,0.02,0.195,0.039,0.292,0.057c0.15,0.068,0.216,0.279,0.317,0.401
	c0.119,0.139,0.401,0.208,0.617,0.218c0-0.005,0-0.01,0-0.015c-0.29-0.149-0.121-0.349-0.226-0.58
	c-0.054-0.116-0.19-0.198-0.191-0.358c0.441-0.153,1.388,0.477,1.533,0.84c0.062,0.153,0.019,0.313-0.05,0.448
	c-0.007,0.009-0.011,0.018-0.017,0.025c0.29-0.068,0.918-0.477,0.792-0.873c-0.072-0.227-0.285-0.442-0.408-0.636
	c-0.088-0.136-0.17-0.348-0.3-0.44c0.02-0.041,0.058-0.049,0.108-0.058c0.008-0.024,0.017-0.048,0.024-0.073
	c-0.142-0.079-0.282-0.267-0.383-0.391c-0.308-0.289-0.612-0.577-0.918-0.864c-0.189-0.128-0.377-0.256-0.567-0.384
	c-0.252-0.181-0.482-0.403-0.758-0.563c-0.124-0.062-0.25-0.126-0.375-0.188c-0.092-0.044-0.2-0.038-0.283-0.106
	c-0.293-0.241-0.518-0.549-0.759-0.84c-0.197-0.236-0.315-0.534-0.467-0.791c-0.385-0.65-0.666-1.373-0.958-2.063
	c-0.152-0.354-0.371-0.748-0.593-1.052c-0.204-0.281-0.32-0.628-0.509-0.914c0.026-0.033-0.091-0.164-0.108-0.196
	c-0.111-0.206-0.223-0.413-0.334-0.619c-0.458-0.862-0.96-1.74-1.56-2.496C17.059,0.98,16.913,2.38,16.457,2
	c-0.15-0.125-0.323-0.268-0.442-0.423c-0.081-0.058-0.162-0.114-0.242-0.172c-0.137-0.124-5.469,0.381-6.812,0.59
	C7.965,2.15,6.677,2.851,7.639,3.255c0.331,0.139,0.632,0.167,0.917,0.318c0,0.03,0,0.059,0,0.089
	C8.434,3.749,8.335,3.864,8.222,3.956c0.027,0.713,0.533,1.151,1.009,1.418c0.113,0.06,0.228,0.12,0.342,0.18
	C9.575,5.57,9.578,5.586,9.581,5.603c0.106,0.148,0.241,0.314,0.367,0.449c0.081,0.087,0.264,0.194,0.309,0.302
	c0,0.055,0,0.109,0,0.164c0.066,0.223,0.124,0.417,0.25,0.628c0.31,0.516,0.879,0.813,1.442,1.06
	c0.117,0.052,0.288,0.059,0.425,0.123c0.204,0.095,0.386,0.117,0.583,0.195c0.076,0.03,0.209,0.096,0.317,0.106
	c-0.028,0.046-0.124,0.019-0.192,0.007c-0.269-0.045-0.496,0.035-0.717,0.098c0.037,0.256,0.515,0.602,0.701,0.75
	c0.384,0.309,0.83,0.567,1.268,0.824c0.172,0.084,0.344,0.168,0.516,0.253c0.175,0.104,0.382,0.175,0.56,0.285
	c0.079,0.049,0.157,0.113,0.259,0.139c0.002,0.006,0.005,0.011,0.008,0.017c-0.02,0.011-0.039,0.021-0.058,0.033
	c-0.083-0.003-0.167-0.006-0.251-0.008c-0.263-0.042-0.458-0.136-0.7-0.229c-0.07-0.022-0.139-0.043-0.208-0.065
	c-0.158-0.099-0.321-0.117-0.492-0.196c-0.146-0.067-0.306-0.161-0.483-0.196c-0.293-0.056-0.578,0.121-0.768,0.196
	c-0.161,0.064-0.348,0.082-0.516,0.123c-0.363,0.089-0.798,0.253-1.109,0.481c-0.611,0.446-0.853,0.97-1.092,1.664
	c-0.054,0.158-0.202,0.756,0.009,0.815c0.088,0.069,0.542,0.004,0.674,0.042c0.201,0.057,0.462-0.015,0.734,0.033
	c0.355,0.061,0.694-0.014,1.059,0.024c0.191,0.003,0.384,0.005,0.575,0.007c0.114-0.004,0.229-0.009,0.342-0.015
	c0.271,0.029,0.928-0.125,1.018-0.081c0.37-0.025,1.328-0.104,1.492,0.081c0.072,0.083,0.071,0.27,0.101,0.35
	c0.063,0.135,0.127,0.267,0.19,0.4c0.204,0.371,0.556,0.643,0.784,0.996c0.196,0.303,0.301,0.67,0.417,1.003
	c0.054,0.153,0.021,0.291,0.059,0.448c0.094,0.403,0.188,0.717,0.324,1.069c0.04,0.104,0.091,0.423,0.176,0.464
	c0.003-0.145,0.115-0.262,0.158-0.399c0.009-0.007,0.018-0.012,0.025-0.017c0.037,0.039,0.028,0.095,0.05,0.171
	c0.057,0.194,0.125,0.392,0.199,0.587c0.032,0.081,0.032,0.172,0.06,0.229c0.079,0.163,0.235,0.303,0.392,0.391
	c0.054,0.024,0.105,0.049,0.16,0.073c0.027,0.006,0.06,0.012,0.091,0.017c-0.1-0.216-0.137-0.285-0.091-0.546
	c0.021-0.012,0.043-0.021,0.065-0.033c0.003,0,0.006,0,0.008,0c0,0.408,0.374,0.86,0.584,1.125c0.069,0.134,0.139,0.267,0.208,0.399
	c-0.059,0.039-0.118,0.076-0.176,0.115c-0.111,0.081-0.276,0.334-0.282,0.505c0.16,0.183,0.558,0.6,0.841,0.578
	c0.178-0.013,0.398,0.049,0.483-0.039c-0.28-0.052-0.766-0.298-0.825-0.588c-0.058-0.089,0.236-0.299,0.316-0.335
	c0.29-0.125,0.596-0.352,0.86-0.383c0.075-0.009,0.229-0.102,0.3-0.065c0.117,0.06,0.197,0.446,0.192,0.588
	c0.007,0.005,0.017,0.01,0.024,0.015c0.113-0.129,0.147-0.533,0.051-0.717c0.061-0.051,0.193-0.043,0.249-0.073
	c0.053,0.067,0.104,0.136,0.158,0.205c0.13,0.183,0.184,0.444,0.176,0.667c0.024-0.01,0.009,0.001,0.024-0.016
	c0.135-0.101,0.025-0.863-0.084-0.92c0-0.012,0-0.024,0-0.033c0.166-0.047,0.292-0.196,0.4-0.302c0.012,0,0.022,0,0.033,0
	c0.059,0.062,0.116,0.124,0.176,0.187c0.13,0.139,0.389,0.553,0.409,0.774c0.01,0,0.021,0,0.032,0
	c0.024-0.528,0.054-0.991-0.3-1.346c-0.101-0.101-0.251-0.153-0.359-0.228c-0.019,0.003-0.037,0.005-0.058,0.009
	c-0.152,0.247-0.264,0.472-0.55,0.586c-0.123-0.107-0.227-0.278-0.4-0.335c-0.016,0.012-0.014,0.008-0.025,0.025
	c-0.036,0.035-0.031,0.118-0.065,0.18c-0.048,0.057-0.097,0.114-0.143,0.171c-0.006,0-0.012,0-0.017,0
	c-0.045-0.036-0.075-0.09-0.142-0.081c-0.012,0.002-0.5,0.354-0.525,0.393c-0.186-0.05-0.522-0.666-0.551-0.851
	c0.063,0.014,0.227,0.087,0.259,0.124c0.025,0.003,0.05,0.006,0.075,0.007c-0.008-0.074-0.045-0.096-0.066-0.146
	c-0.095-0.216-0.179-0.506-0.101-0.76c0.009-0.001,0.017-0.004,0.025-0.007c0.212,0.298,0.709,0.726,1.135,0.799
	c-0.059-0.227-0.157-0.368-0.067-0.653c0.128-0.023,0.289,0.119,0.533,0.124c0.002-0.007,0.006-0.013,0.009-0.018
	c-0.085-0.176-0.141-0.358-0.018-0.521c0.482,0.026,1.199,0.295,1.318,0.717c0.008,0,0.016,0,0.024,0
	c-0.015-0.2-0.032-0.422-0.05-0.619c0.167,0.014,0.475,0.433,0.649,0.531c0.023,0.159-0.123,0.64-0.032,0.782
	c0.055,0.091,0.219,0.084,0.333,0.122c0.402,0.133,0.844,0.027,1.075-0.245c-0.006-0.006-0.012-0.01-0.017-0.016
	c-0.347,0.149-1.192,0.066-1.025-0.498c0.116-0.391,0.26-0.762,0.617-1.019c0.045-0.041,0.088-0.083,0.134-0.122
	c0.064-0.015,0.282,0.191,0.316,0.235c0.05,0.065,0.131,0.14,0.149,0.229c0.106-0.075-0.181-0.628-0.283-0.685
	c-0.003-0.009-0.006-0.016-0.009-0.024c0.08-0.037,0.115-0.102,0.176-0.155c0.225,0.066,0.593,0.397,0.667,0.611
	c0.008,0.005,0.017,0.011,0.025,0.017c-0.011-0.251-0.301-0.738-0.508-0.808c0.011-0.165,0.146-0.275,0.14-0.472
	c0.003-0.005,0.006-0.007,0.009-0.01c0.276,0.039,0.521,0.236,0.708,0.376c0.063,0.045,0.103,0.121,0.176,0.154
	c0.023,0.022,0.045,0.044,0.066,0.065c0.003-0.002,0.006-0.006,0.009-0.008C26.432,16.669,25.903,16.11,25.263,16.123z"/>
<linearGradient id="SVGID_3_" gradientUnits="userSpaceOnUse" x1="1.4673" y1="12.2451" x2="24.4434" y2="12.2451">
	<stop  offset="0" style="stop-color:#AEB0A8"/>
	<stop  offset="1" style="stop-color:#FFFFFF"/>
</linearGradient>
<path fill="url(#SVGID_3_)" d="M21.74,16.237c-0.008,0.312-0.014,0.628-0.02,0.935c-0.096,0.254-0.234,0.479-0.357,0.699
	c-0.182-0.035-0.807-0.359-0.951-0.287c-0.01,0.01-0.021,0.031-0.033,0.049c-0.012,0.002-0.023,0.012-0.033,0.018
	c-0.027,0.049,0.031,0.076,0.033,0.082c0.033,0.182-0.012,0.576,0.018,0.748c-0.012,0.02-0.021,0.035-0.035,0.055
	c-0.109,0.006-0.148-0.025-0.256-0.07l-0.102,0.016c-0.152,0.508-0.416,1.6-1.107,1.414c-0.426-0.115-0.781-0.506-1.188-0.646
	v-0.035c0.256-0.119,0.387-0.371,0.629-0.475c-0.066-0.16-0.404-0.23-0.576-0.34c-0.455-0.273-0.91-0.543-1.364-0.814
	c-1.418-0.979-2.492-2.208-3.196-3.897c-0.153-0.367-1.164-1.681-1.026-2.153c0.969,0.125,1.758,0.356,2.472,0.162
	c0.491-0.133,0.838-0.227,1.414-0.322c0.544-0.091,1.681,0.212,2.091,0.34c0.195,0.039,0.396,0.08,0.596,0.119
	c0.305,0.141,0.436,0.581,0.646,0.833c0.238,0.293,0.818,0.436,1.258,0.46v-0.035c-0.596-0.312-0.246-0.728-0.459-1.207
	c-0.111-0.244-0.391-0.415-0.393-0.749c0.902-0.318,2.832,0.995,3.131,1.752c0.123,0.319,0.035,0.654-0.104,0.936
	c-0.016,0.018-0.02,0.033-0.035,0.05c0.592-0.14,1.873-0.994,1.617-1.819c-0.146-0.473-0.58-0.922-0.834-1.327
	c-0.18-0.285-0.346-0.724-0.611-0.918c0.037-0.084,0.119-0.102,0.219-0.119c0.02-0.051,0.039-0.102,0.051-0.153
	c-0.291-0.164-0.572-0.556-0.783-0.816c-0.48-0.464-0.961-0.93-1.444-1.394c-0.062-0.1-0.135-0.194-0.233-0.268
	c-0.472-0.357-0.847-1.135-1.268-1.534c-0.419-0.398-1.214-0.867-1.214-0.867s0.198,0.294,0.42,0.571
	c0.09,0.113,0.197,0.333,0.293,0.553c-0.362-0.295-0.724-0.598-1.128-0.838c-0.252-0.13-0.508-0.261-0.764-0.391
	c-0.184-0.092-0.408-0.079-0.58-0.221c-0.332-0.282-0.623-0.609-0.901-0.948h0.278c-0.449-0.85-0.926-1.7-1.439-2.515
	c-1.728,0.071-4.2,0.244-5.942,0.671C5.591,2.262,2.665,3.72,2.305,3.943C1.689,4.325,1.51,4.669,1.475,5.147
	c0.053,0.03,0.111,0.054,0.163,0.086c0.16,0.102,0.321,0.235,0.527,0.29c0.004,0.011,0.011,0.022,0.017,0.034
	c-0.04,0.022-0.08,0.045-0.118,0.068C1.892,5.62,1.722,5.614,1.553,5.609C1.521,5.604,1.498,5.591,1.467,5.585
	c0.05,1.074,0.336,4.605,0.464,5.384c0,0.004,0.002,0.013,0.003,0.018c0.333,0.033,2.04,0.973,2.144,1.093
	c0.146,0.175,0.146,0.561,0.203,0.732c0.131,0.277,1.618,1.473,1.75,1.75c0.414,0.772-1.198,0.282-1.198,0.282
	s1.818,1.607,2.013,2.195c0.041,0.123-1.202-0.223-1.162-0.104c0.044,0.129,0.05,0.25,0.058,0.373l0.196,0.035
	c0,0,2.756,2.012,2.868,2.123c0.09,0.092,1.949,1.609,2.68,2.207c-0.042-0.266-0.043-0.537,0.033-0.795
	c0.015-0.004,0.034-0.01,0.051-0.014c0.434,0.621,1.447,1.512,2.311,1.666c-0.117-0.473-0.317-0.771-0.136-1.363
	c0.262-0.047,0.592,0.248,1.091,0.256c0.004-0.012,0.009-0.021,0.015-0.035c-0.171-0.363-0.285-0.744-0.031-1.084
	c0.982,0.053,2.446,0.611,2.686,1.494h0.051c-0.033-0.418-0.066-0.883-0.102-1.291c0.338,0.025,0.967,0.9,1.324,1.104
	c0.049,0.336-0.25,1.336-0.066,1.637c0.113,0.189,0.449,0.174,0.682,0.25c0.82,0.281,1.719,0.061,2.189-0.51
	c-0.01-0.01-0.018-0.02-0.033-0.033c-0.703,0.314-2.43,0.139-2.09-1.037c0.236-0.813,0.531-1.586,1.258-2.127
	c0.09-0.084,0.182-0.168,0.273-0.252c0.133-0.027,0.576,0.398,0.645,0.49c0.104,0.135,0.268,0.293,0.307,0.479
	c0.217-0.154-0.371-1.311-0.58-1.432c-0.004-0.014-0.008-0.031-0.016-0.049c0.166-0.076,0.234-0.209,0.355-0.324
	c0.459,0.143,1.213,0.83,1.363,1.275c0.018,0.012,0.031,0.021,0.051,0.035c-0.023-0.521-0.613-1.541-1.037-1.688
	c0.025-0.342,0.301-0.57,0.289-0.982c0.004-0.006,0.012-0.014,0.018-0.02c0.561,0.082,1.063,0.494,1.443,0.785
	c0.127,0.094,0.211,0.254,0.359,0.322c0.045,0.045,0.09,0.09,0.137,0.137c0.004-0.008,0.01-0.012,0.016-0.014
	C24.121,17.377,23.045,16.209,21.74,16.237z M21.777,10.059c0,0-0.334,0.296-0.682,0.093c-0.273-0.159-0.486-1.172-0.486-1.172
	l-0.012-0.294c0,0,0.199,0.293,0.375,0.536c0.242,0.344,0.377,0.505,0.484,0.607C21.621,9.975,21.777,10.059,21.777,10.059z"/>
<g>
	<linearGradient id="SVGID_4_" gradientUnits="userSpaceOnUse" x1="21.4482" y1="19.2559" x2="12.1449" y2="2.554">
		<stop  offset="0" style="stop-color:#AEB0A8"/>
		<stop  offset="1" style="stop-color:#FFFFFF"/>
	</linearGradient>
	<path fill="url(#SVGID_4_)" d="M16.116,31.229c-0.13,0-0.272-0.025-0.461-0.086c-3.473-1.133-8.139-5.529-10.402-9.801
		c-2.06-3.89-3.006-8.726-3.318-10.624C1.792,9.854,1.467,5.684,1.467,5.151c0-0.433,0.063-0.677,0.645-1.038
		C2.344,3.97,5.217,2.499,8.208,1.765c2.799-0.686,7.643-0.708,7.848-0.708l0.097,0.003h0.005c0.049,0,5.005,0.008,7.859,0.708
		c2.989,0.733,5.863,2.205,6.095,2.348c0.582,0.361,0.645,0.605,0.645,1.038c0,0.533-0.324,4.704-0.467,5.568
		c-0.313,1.898-1.258,6.735-3.318,10.624c-1.093,2.063-2.78,4.223-4.756,6.084s-3.979,3.181-5.644,3.715
		C16.384,31.204,16.244,31.229,16.116,31.229z M16.05,1.441c-0.195,0-4.993,0.021-7.744,0.696C5.365,2.858,2.554,4.296,2.328,4.436
		C1.865,4.723,1.865,4.849,1.865,5.151c0,0.527,0.321,4.653,0.462,5.508c0.309,1.88,1.246,6.668,3.28,10.509
		c2.222,4.195,6.787,8.507,10.174,9.61c0.146,0.049,0.249,0.068,0.334,0.068c0.083,0,0.186-0.02,0.33-0.066
		c1.608-0.517,3.558-1.804,5.49-3.625c1.945-1.833,3.607-3.958,4.682-5.984c2.033-3.84,2.97-8.628,3.279-10.509
		c0.141-0.855,0.463-4.981,0.463-5.508c0-0.302,0-0.428-0.463-0.715c-0.228-0.141-3.039-1.578-5.979-2.3
		c-2.805-0.687-7.711-0.696-7.76-0.696L16.05,1.441z"/>
	<path fill="#282525" d="M16.055,1.057l0.098,0.003h0.005c0.049,0,5.005,0.008,7.859,0.708c2.989,0.733,5.863,2.205,6.095,2.348
		c0.582,0.361,0.645,0.605,0.645,1.038c0,0.533-0.324,4.704-0.467,5.568c-0.313,1.898-1.258,6.735-3.318,10.624
		c-1.093,2.063-2.78,4.223-4.756,6.084s-3.979,3.181-5.644,3.715c-0.187,0.06-0.327,0.085-0.456,0.085
		c-0.13,0-0.272-0.025-0.461-0.086c-3.473-1.133-8.139-5.529-10.402-9.801c-2.06-3.89-3.006-8.726-3.318-10.624
		C1.792,9.854,1.467,5.684,1.467,5.151c0-0.433,0.063-0.677,0.645-1.038C2.344,3.97,5.217,2.499,8.208,1.765
		C11.007,1.079,15.851,1.058,16.055,1.057 M16.116,30.847c0.083,0,0.186-0.02,0.33-0.066c1.608-0.517,3.558-1.804,5.49-3.625
		c1.945-1.833,3.607-3.958,4.682-5.984c2.033-3.84,2.97-8.628,3.279-10.509c0.141-0.855,0.463-4.981,0.463-5.508
		c0-0.302,0-0.428-0.463-0.715c-0.228-0.141-3.039-1.578-5.979-2.3c-2.805-0.687-7.711-0.696-7.76-0.696L16.05,1.441
		c-0.195,0-4.993,0.021-7.744,0.696C5.365,2.858,2.554,4.296,2.328,4.436C1.865,4.723,1.865,4.849,1.865,5.151
		c0,0.527,0.321,4.653,0.462,5.508c0.309,1.88,1.246,6.668,3.28,10.509c2.222,4.195,6.787,8.507,10.174,9.61
		C15.928,30.827,16.03,30.847,16.116,30.847 M16.061,0.739h-0.005c-0.206,0-5.086,0.021-7.923,0.717
		c-3.029,0.743-5.951,2.24-6.187,2.387C1.272,4.26,1.148,4.611,1.148,5.151c0,0.538,0.329,4.748,0.472,5.62
		c0.314,1.914,1.269,6.789,3.352,10.721c2.295,4.336,7.043,8.8,10.583,9.953c0.221,0.072,0.395,0.105,0.56,0.105
		c0.163,0,0.334-0.031,0.552-0.102c1.71-0.549,3.757-1.894,5.765-3.787c2-1.885,3.712-4.075,4.819-6.167
		c2.082-3.931,3.037-8.807,3.351-10.721c0.144-0.871,0.473-5.081,0.473-5.619c0-0.54-0.123-0.891-0.796-1.308
		c-0.236-0.146-3.16-1.645-6.188-2.387c-2.889-0.708-7.884-0.717-7.934-0.717h-0.003l-0.089-0.003H16.061L16.061,0.739z
		 M16.116,30.529c-0.048,0-0.127-0.019-0.235-0.054c-3.321-1.081-7.803-5.324-9.992-9.456c-2.012-3.8-2.941-8.547-3.247-10.412
		C2.502,9.76,2.183,5.673,2.183,5.151c0-0.116,0.001-0.178,0.019-0.209c0.02-0.037,0.086-0.107,0.293-0.235
		c0.223-0.138,2.984-1.548,5.886-2.26c2.684-0.659,7.399-0.686,7.664-0.687l0.103,0.003h0.005h0.005
		c0.048,0,4.917,0.008,7.684,0.687c2.901,0.711,5.664,2.123,5.887,2.261c0.207,0.128,0.273,0.198,0.294,0.234
		c0.018,0.032,0.019,0.094,0.019,0.21c0,0.522-0.319,4.609-0.458,5.457c-0.307,1.865-1.235,6.613-3.247,10.412
		c-1.057,1.995-2.697,4.092-4.617,5.901c-1.898,1.789-3.806,3.051-5.371,3.554C16.24,30.513,16.164,30.529,16.116,30.529
		L16.116,30.529z"/>
</g>
<g>
	<g>
		<path fill="#282525" d="M23.386,30.365c-4.477-1.824-9.65-1.919-14.563,0.091c-0.701-1.597-1.4-3.194-2.1-4.791
			c6.301-2.618,13.004-2.466,18.785-0.063C24.909,27.113,24.024,28.887,23.386,30.365z"/>
	</g>
	<g>
		<linearGradient id="SVGID_5_" gradientUnits="userSpaceOnUse" x1="17.0723" y1="33.1914" x2="15.6923" y2="22.6429">
			<stop  offset="0" style="stop-color:#AEB0A8"/>
			<stop  offset="1" style="stop-color:#FFFFFF"/>
		</linearGradient>
		<path fill="url(#SVGID_5_)" d="M7.194,25.856l0.183-0.072c2.853-1.111,5.832-1.675,8.853-1.675c2.843,0,5.63,0.5,8.289,1.486
			l0.044,0.017l0.462,0.192l-1.788,4.108l-0.047-0.019l-0.005,0.01c-2.203-0.852-4.53-1.282-6.916-1.282
			c-2.414,0-4.799,0.441-7.093,1.313l-0.167,0.063L7.194,25.856z M16.231,24.486c-2.88,0-5.726,0.521-8.456,1.549l-0.079,0.029
			l1.515,3.455l0.07-0.025c2.263-0.828,4.613-1.248,6.986-1.248c2.265,0,4.485,0.383,6.598,1.14l0.071,0.024l1.502-3.441
			l-0.079-0.03C21.753,24.975,19.019,24.486,16.231,24.486z"/>
		<g>
			<linearGradient id="SVGID_6_" gradientUnits="userSpaceOnUse" x1="11.4873" y1="33.9238" x2="10.1073" y2="23.3755">
				<stop  offset="0" style="stop-color:#AEB0A8"/>
				<stop  offset="1" style="stop-color:#FFFFFF"/>
			</linearGradient>
			<path fill="url(#SVGID_6_)" d="M10.108,28.419c-0.076-0.224-0.141-0.399-0.196-0.532c0.135,0.021,0.251,0.029,0.351,0.024
				c0.1-0.004,0.184-0.017,0.255-0.035c0.093-0.024,0.164-0.059,0.211-0.101c0.047-0.043,0.064-0.09,0.05-0.144
				c-0.005-0.018-0.013-0.035-0.022-0.05c-0.01-0.015-0.025-0.031-0.046-0.048c-0.02-0.017-0.048-0.034-0.083-0.051l-0.373-0.18
				c-0.086-0.042-0.148-0.07-0.184-0.091c-0.07-0.039-0.129-0.078-0.172-0.116c-0.045-0.039-0.08-0.08-0.108-0.124
				c-0.028-0.046-0.049-0.096-0.063-0.149c-0.018-0.064-0.024-0.132-0.018-0.201c0.006-0.068,0.024-0.135,0.056-0.202
				c0.031-0.066,0.079-0.13,0.145-0.191c0.065-0.06,0.139-0.107,0.221-0.146c0.083-0.037,0.17-0.069,0.262-0.094
				c0.181-0.048,0.382-0.081,0.606-0.096c0.022,0.072,0.045,0.138,0.066,0.198c0.021,0.06,0.06,0.165,0.117,0.314
				c-0.109-0.014-0.206-0.017-0.291-0.01c-0.085,0.006-0.157,0.017-0.216,0.034c-0.083,0.022-0.148,0.057-0.195,0.103
				c-0.046,0.046-0.063,0.091-0.051,0.137c0.006,0.022,0.016,0.041,0.03,0.06c0.014,0.018,0.036,0.038,0.067,0.058
				c0.031,0.021,0.07,0.043,0.117,0.064c0.047,0.023,0.121,0.055,0.22,0.097l0.141,0.06c0.042,0.02,0.087,0.042,0.137,0.072
				c0.05,0.026,0.095,0.057,0.134,0.088c0.039,0.03,0.071,0.061,0.095,0.088c0.023,0.028,0.044,0.058,0.061,0.087
				c0.016,0.031,0.029,0.065,0.039,0.103c0.026,0.097,0.028,0.193,0.006,0.293c-0.022,0.1-0.068,0.189-0.137,0.268
				c-0.07,0.08-0.152,0.143-0.247,0.192c-0.095,0.051-0.198,0.09-0.311,0.121C10.61,28.365,10.385,28.398,10.108,28.419z"/>
			<linearGradient id="SVGID_7_" gradientUnits="userSpaceOnUse" x1="13.5469" y1="33.6533" x2="12.167" y2="23.1061">
				<stop  offset="0" style="stop-color:#AEB0A8"/>
				<stop  offset="1" style="stop-color:#FFFFFF"/>
			</linearGradient>
			<path fill="url(#SVGID_7_)" d="M12.41,27.889c-0.038-0.539-0.105-1.127-0.204-1.766l-0.692,0.137l-0.023-0.183
				c-0.012-0.097-0.027-0.204-0.045-0.319c0.31-0.052,0.67-0.113,1.083-0.184l0.403-0.07l0.393-0.067l0.212-0.039l0.018,0.162
				c0.01,0.087,0.02,0.157,0.028,0.214c0.007,0.057,0.013,0.1,0.019,0.128c-0.235,0.027-0.429,0.056-0.58,0.082l-0.114,0.018
				c0.017,0.197,0.035,0.376,0.054,0.541c0.029,0.236,0.058,0.465,0.09,0.688c0.031,0.221,0.059,0.399,0.082,0.535
				c-0.179,0.028-0.294,0.047-0.347,0.056C12.738,27.829,12.613,27.853,12.41,27.889z"/>
			<linearGradient id="SVGID_8_" gradientUnits="userSpaceOnUse" x1="15.8555" y1="33.3516" x2="14.4756" y2="22.8043">
				<stop  offset="0" style="stop-color:#AEB0A8"/>
				<stop  offset="1" style="stop-color:#FFFFFF"/>
			</linearGradient>
			<path fill="url(#SVGID_8_)" d="M13.979,27.627c0.009-0.195,0.014-0.372,0.016-0.528c0.002-0.156,0.001-0.337-0.003-0.543
				c-0.004-0.206-0.011-0.423-0.021-0.65c-0.01-0.229-0.02-0.41-0.028-0.545c0.138-0.006,0.249-0.011,0.335-0.017
				c0.088-0.006,0.195-0.015,0.322-0.028c0.126-0.014,0.25-0.024,0.371-0.032c0.14-0.008,0.267-0.01,0.378-0.006
				c0.083,0.002,0.159,0.013,0.229,0.032c0.069,0.021,0.128,0.047,0.176,0.078c0.049,0.032,0.09,0.068,0.124,0.11
				c0.034,0.04,0.061,0.089,0.082,0.146c0.02,0.056,0.033,0.117,0.037,0.185c0.005,0.074,0,0.144-0.015,0.209
				c-0.014,0.065-0.04,0.128-0.076,0.188c-0.037,0.06-0.084,0.112-0.143,0.157c-0.059,0.046-0.142,0.093-0.249,0.144l0.1,0.204
				c0.028,0.058,0.057,0.115,0.089,0.174l0.253,0.472c0.011,0.02,0.032,0.06,0.061,0.12c-0.181,0.01-0.304,0.017-0.367,0.021
				c-0.079,0.004-0.209,0.015-0.391,0.028c-0.021-0.057-0.06-0.16-0.116-0.313c-0.023-0.064-0.042-0.113-0.058-0.148
				c-0.032-0.076-0.078-0.184-0.138-0.32l-0.201-0.458c0.061,0.007,0.119,0.009,0.177,0.005c0.08-0.005,0.152-0.021,0.217-0.051
				c0.064-0.029,0.111-0.069,0.142-0.121c0.029-0.054,0.043-0.108,0.04-0.164c-0.003-0.049-0.019-0.089-0.047-0.123
				c-0.028-0.033-0.068-0.059-0.124-0.072c-0.056-0.015-0.141-0.019-0.255-0.012c-0.038,0.003-0.078,0.007-0.12,0.012
				c-0.041,0.004-0.089,0.009-0.144,0.014c0,0.227,0.006,0.504,0.016,0.828c0.009,0.328,0.023,0.647,0.04,0.961
				c-0.185,0.011-0.305,0.016-0.359,0.02C14.262,27.605,14.146,27.614,13.979,27.627z"/>
			<linearGradient id="SVGID_9_" gradientUnits="userSpaceOnUse" x1="17.6396" y1="33.1211" x2="16.2589" y2="22.567">
				<stop  offset="0" style="stop-color:#AEB0A8"/>
				<stop  offset="1" style="stop-color:#FFFFFF"/>
			</linearGradient>
			<path fill="url(#SVGID_9_)" d="M16.317,27.516c0.083-0.888,0.127-1.569,0.137-2.05l0.003-0.214
				c0.194,0.007,0.323,0.011,0.389,0.012c0.029,0.002,0.148,0.002,0.356,0.004c-0.025,0.249-0.046,0.484-0.063,0.706
				c-0.021,0.309-0.039,0.599-0.051,0.867s-0.021,0.498-0.023,0.689l-0.34-0.012C16.658,27.519,16.523,27.518,16.317,27.516z"/>
			<linearGradient id="SVGID_10_" gradientUnits="userSpaceOnUse" x1="19.5723" y1="32.8643" x2="18.1927" y2="22.3194">
				<stop  offset="0" style="stop-color:#AEB0A8"/>
				<stop  offset="1" style="stop-color:#FFFFFF"/>
			</linearGradient>
			<path fill="url(#SVGID_10_)" d="M17.421,27.518c0.044-0.203,0.078-0.372,0.102-0.507c0.043-0.238,0.098-0.563,0.162-0.979
				c0.045-0.289,0.075-0.492,0.088-0.61l0.017-0.142c0.182,0.021,0.309,0.037,0.378,0.045c0.046,0.005,0.164,0.017,0.355,0.036
				l-0.214,1.223l-0.152,1.015l-0.357-0.043C17.748,27.551,17.623,27.538,17.421,27.518z M18.379,26.42l0.424-0.461l0.346-0.385
				l0.108-0.133c0.204,0.025,0.342,0.042,0.414,0.05c0.021,0.003,0.151,0.017,0.395,0.04l-0.792,0.802l-0.15,0.161l0.101,0.208
				l0.578,1.079l-0.405-0.049c-0.088-0.01-0.237-0.025-0.447-0.046C18.838,27.403,18.646,26.981,18.379,26.42z"/>
			<linearGradient id="SVGID_11_" gradientUnits="userSpaceOnUse" x1="21.8867" y1="32.5654" x2="20.5061" y2="22.0126">
				<stop  offset="0" style="stop-color:#AEB0A8"/>
				<stop  offset="1" style="stop-color:#FFFFFF"/>
			</linearGradient>
			<path fill="url(#SVGID_11_)" d="M19.938,27.822c0.092-0.273,0.165-0.501,0.22-0.686c0.056-0.186,0.127-0.431,0.21-0.739
				c0.084-0.308,0.139-0.512,0.161-0.613l0.032-0.144c0.254,0.062,0.561,0.134,0.921,0.218c0.333,0.076,0.627,0.143,0.883,0.199
				l-0.016,0.053c-0.005,0.013-0.019,0.059-0.041,0.139l-0.051,0.173c-0.011,0.037-0.02,0.075-0.029,0.113
				c-0.206-0.056-0.379-0.1-0.521-0.134c-0.155-0.035-0.259-0.06-0.313-0.071c-0.055-0.013-0.141-0.029-0.256-0.051l-0.105,0.365
				c0.126,0.034,0.273,0.069,0.442,0.108c0.062,0.015,0.223,0.047,0.485,0.1c-0.043,0.137-0.092,0.299-0.146,0.485
				c-0.186-0.044-0.328-0.078-0.429-0.102c-0.148-0.033-0.316-0.069-0.502-0.104l-0.109,0.389l0.186,0.043
				c0.055,0.013,0.17,0.037,0.343,0.074l0.335,0.069c0.051,0.011,0.135,0.024,0.252,0.044c-0.049,0.156-0.099,0.319-0.146,0.488
				c-0.264-0.063-0.551-0.131-0.864-0.204l-0.712-0.163L19.938,27.822z"/>
		</g>
	</g>
</g>
</svg>
