<?xml version="1.0" encoding="iso-8859-1"?>
<!-- Generator: Adobe Illustrator 16.0.0, SVG Export Plug-In . SVG Version: 6.00 Build 0)  -->
<!DOCTYPE svg PUBLIC "-//W3C//DTD SVG 1.1//EN" "http://www.w3.org/Graphics/SVG/1.1/DTD/svg11.dtd">
<svg version="1.1" id="Selected_Items" xmlns="http://www.w3.org/2000/svg" xmlns:xlink="http://www.w3.org/1999/xlink" x="0px"
	 y="0px" width="53.399902px" height="53.400391px" viewBox="0 0 53.399902 53.400391"
	 enable-background="new 0 0 53.399902 53.400391" xml:space="preserve">
<g id="observer_x2F_ringlg" opacity="0.5">
	<path fill-rule="evenodd" clip-rule="evenodd" fill="#05C5FF" d="M49.925293,26.674805
		c0-6.399902-2.266602-11.866699-6.799805-16.399902c-4.533691-4.533691-10-6.800293-16.400391-6.800293
		c-6.433105,0-11.916504,2.266602-16.449707,6.800293c-4.533203,4.533203-6.800293,10-6.800293,16.399902
		c0,6.433105,2.26709,11.916504,6.800293,16.449707c4.533203,4.533691,10.016602,6.800293,16.449707,6.800293
		c6.400391,0,11.866699-2.266602,16.400391-6.800293C47.658691,38.591309,49.925293,33.10791,49.925293,26.674805z
		 M45.475098,45.474609c-5.166504,5.200195-11.416504,7.800293-18.75,7.800293c-7.333008,0-13.599609-2.600098-18.799805-7.800293
		c-5.200195-5.166504-7.799805-11.433105-7.799805-18.799805c0-7.333496,2.599609-13.583496,7.799805-18.75
		c5.200195-5.200195,11.466797-7.800293,18.799805-7.800293c7.333496,0,13.583496,2.600098,18.75,7.800293
		c5.200195,5.166504,7.800293,11.416504,7.800293,18.75C53.275391,34.007813,50.675293,40.274902,45.475098,45.474609z"/>
</g>
<g id="ringlg-stroke" opacity="0.5">
	
		<path fill-rule="evenodd" clip-rule="evenodd" fill="none" stroke="#000000" stroke-width="0.25" stroke-linecap="round" stroke-linejoin="round" stroke-miterlimit="3" d="
		M45.474609,45.475098c-5.166504,5.200195-11.416504,7.800293-18.75,7.800293c-7.333008,0-13.599609-2.600098-18.799805-7.800293
		C2.724609,40.308594,0.125,34.041992,0.125,26.675293c0-7.333496,2.599609-13.583496,7.799805-18.75
		C13.125,2.725098,19.391602,0.125,26.724609,0.125c7.333496,0,13.583496,2.600098,18.75,7.800293
		c5.200195,5.166504,7.800293,11.416504,7.800293,18.75C53.274902,34.008301,50.674805,40.275391,45.474609,45.475098z
		 M49.924805,26.675293c0-6.399902-2.266602-11.866699-6.799805-16.399902c-4.533691-4.533691-10-6.800293-16.400391-6.800293
		c-6.433105,0-11.916504,2.266602-16.449707,6.800293c-4.533203,4.533203-6.800293,10-6.800293,16.399902
		c0,6.433105,2.26709,11.916504,6.800293,16.449707c4.533203,4.533691,10.016602,6.800293,16.449707,6.800293
		c6.400391,0,11.866699-2.266602,16.400391-6.800293C47.658203,38.591797,49.924805,33.108398,49.924805,26.675293z"/>
</g>
<g id="observer_x2F_ring02" opacity="1.0">
	<path fill-rule="evenodd" clip-rule="evenodd" fill="#05C5FF" d="M39.725098,26.724609c0,2-0.416992,3.916992-1.25,5.75
		c-0.800293,1.76709-1.916992,3.26709-3.350098,4.5L33.924805,34.125c1.966797-2.066895,2.950195-4.533691,2.950195-7.400391
		c0-2.899902-0.983398-5.383301-2.950195-7.449707L35.125,16.424805c1.433105,1.266602,2.549805,2.766602,3.350098,4.5
		C39.308105,22.758301,39.725098,24.691406,39.725098,26.724609z M32.725098,16.224609
		c-2.200195-0.73291-4.216797-1.099609-6.050293-1.099609c-1.133301,0-2.48291,0.183105-4.049805,0.549805l-2,0.549805
		c1.600098-1.933105,3.616699-2.899902,6.049805-2.899902C29.108398,13.324707,31.125,14.291504,32.725098,16.224609z
		 M19.375,19.274902c-1.933105,2.033203-2.899902,4.516602-2.899902,7.449707c0,2.900391,0.966797,5.366699,2.899902,7.400391
		l-1.149902,2.849609c-1.433594-1.23291-2.550293-2.73291-3.350098-4.5c-0.833496-1.833008-1.25-3.75-1.25-5.75
		c0-2.033203,0.416504-3.966309,1.25-5.799805c0.799805-1.733398,1.916504-3.233398,3.350098-4.5L19.375,19.274902z
		 M26.674805,38.274902c1.833496,0,3.850098-0.366699,6.050293-1.100098c-1.600098,1.933105-3.616699,2.899902-6.050293,2.899902
		c-2.433105,0-4.449707-0.966797-6.049805-2.899902l2,0.549805C24.191895,38.091309,25.541504,38.274902,26.674805,38.274902z"/>
</g>
<g id="ring02-stroke" opacity="1.0">
	
		<path fill-rule="evenodd" clip-rule="evenodd" fill="none" stroke="#000000" stroke-width="0.25" stroke-linecap="round" stroke-linejoin="round" stroke-miterlimit="3" d="
		M38.475098,20.924805c0.833496,1.833008,1.25,3.766602,1.25,5.799805c0,2-0.416504,3.916504-1.25,5.75
		c-0.799805,1.766602-1.916504,3.266602-3.350098,4.5l-1.199707-2.850098c1.966309-2.066406,2.949707-4.533203,2.949707-7.399902
		c0-2.899902-0.983398-5.383301-2.949707-7.450195L35.125,16.424805C36.558594,17.691406,37.675293,19.191406,38.475098,20.924805z
		 M32.725098,16.224609c-2.200195-0.733398-4.216797-1.100098-6.049805-1.100098c-1.133301,0-2.483398,0.183594-4.050293,0.550293
		l-2,0.549805c1.600098-1.933105,3.616699-2.899902,6.050293-2.899902C29.108398,13.324707,31.125,14.291504,32.725098,16.224609z
		 M19.375,19.274414c-1.933105,2.033691-2.899902,4.51709-2.899902,7.450195c0,2.899902,0.966797,5.366699,2.899902,7.399902
		l-1.149902,2.850098c-1.433105-1.233398-2.549805-2.733398-3.350098-4.5c-0.833008-1.833496-1.25-3.75-1.25-5.75
		c0-2.033203,0.416992-3.966797,1.25-5.799805c0.800293-1.733398,1.916992-3.233398,3.350098-4.5L19.375,19.274414z
		 M26.675293,38.274414c1.833008,0,3.849609-0.366699,6.049805-1.099609c-1.600098,1.933105-3.616699,2.899902-6.049805,2.899902
		c-2.433594,0-4.450195-0.966797-6.050293-2.899902l2,0.549805C24.191895,38.091309,25.541992,38.274414,26.675293,38.274414z"/>
</g>
<g id="observer_x2F_ring01" opacity="1.0">
	<path fill-rule="evenodd" clip-rule="evenodd" fill="#05C5FF" d="M32.075195,20.125
		c1.966309,1.73291,2.949707,3.933105,2.949707,6.599609c0,2.666992-0.983398,4.850098-2.949707,6.550293l-0.75-1.800293
		c1.23291-1.333008,1.849609-2.916504,1.849609-4.75c0-1.866699-0.616699-3.466309-1.849609-4.799805L32.075195,20.125z
		 M20.125,26.724609c0,1.800293,0.633301,3.383301,1.899902,4.75l-0.799805,1.800293
		c-1.933594-1.700195-2.899902-3.883301-2.899902-6.550293c0-2.633301,0.966309-4.833008,2.899902-6.599609l0.799805,1.799805
		C20.758301,23.291504,20.125,24.891602,20.125,26.724609z M22.774902,20.024902
		c1.033203-1.266602,2.333496-1.899902,3.899902-1.899902c1.566895,0,2.866699,0.633301,3.900391,1.899902
		c-1.433594-0.5-2.733398-0.75-3.900391-0.75c-0.73291,0-1.599609,0.133301-2.599609,0.399902L22.774902,20.024902z
		 M24.075195,33.774902c1,0.233398,1.866699,0.350098,2.599609,0.350098c1.166992,0,2.466797-0.233398,3.900391-0.700195
		c-1.066895,1.233398-2.366699,1.850098-3.900391,1.850098c-1.533203,0-2.833008-0.616699-3.899902-1.850098L24.075195,33.774902z"
		/>
</g>
<g id="ring01-stroke" opacity="1.0">
	
		<path fill-rule="evenodd" clip-rule="evenodd" fill="none" stroke="#000000" stroke-width="0.25" stroke-linecap="round" stroke-linejoin="round" stroke-miterlimit="3" d="
		M35.024902,26.724609c0,2.666992-0.983398,4.850098-2.949707,6.550293l-0.75-1.800293
		c1.23291-1.333008,1.849609-2.916504,1.849609-4.75c0-1.866699-0.616699-3.466309-1.849609-4.799805l0.75-1.799805
		C34.041504,21.85791,35.024902,24.058105,35.024902,26.724609z M24.075195,19.674805l-1.300293,0.350098
		c1.033203-1.266602,2.333496-1.899902,3.899902-1.899902c1.566895,0,2.866699,0.633301,3.900391,1.899902
		c-1.433594-0.5-2.733398-0.75-3.900391-0.75C25.941895,19.274902,25.075195,19.408203,24.075195,19.674805z M21.225098,20.125
		l0.799805,1.799805C20.758301,23.291504,20.125,24.891602,20.125,26.724609c0,1.800293,0.633301,3.383301,1.899902,4.75
		l-0.799805,1.800293c-1.933594-1.700195-2.899902-3.883301-2.899902-6.550293
		C18.325195,24.091309,19.291504,21.891602,21.225098,20.125z M22.774902,33.424805l1.300293,0.350098
		c1,0.233398,1.866699,0.350098,2.599609,0.350098c1.166992,0,2.466797-0.233398,3.900391-0.700195
		c-1.066895,1.233398-2.366699,1.850098-3.900391,1.850098C25.141602,35.274902,23.841797,34.658203,22.774902,33.424805z"/>
</g>
<g id="observer_x2F_dot" opacity="1.0">
	<path fill-rule="evenodd" clip-rule="evenodd" fill="#05C5FF" d="M26.675293,23.924805
		c0.766602,0,1.416504,0.266602,1.949707,0.799805c0.533691,0.566895,0.800293,1.216797,0.800293,1.950195
		c0,0.766602-0.266602,1.416504-0.800293,1.950195c-0.533203,0.533203-1.183105,0.799805-1.949707,0.799805
		s-1.416992-0.266602-1.950195-0.799805c-0.533203-0.533691-0.799805-1.183594-0.799805-1.950195
		s0.266602-1.416504,0.799805-1.950195C25.258301,24.191406,25.908691,23.924805,26.675293,23.924805z"/>
</g>
<g id="observer_x2F_dot-stroke" opacity="1.0">
	
		<path fill-rule="evenodd" clip-rule="evenodd" fill="none" stroke="#000000" stroke-width="0.25" stroke-linecap="round" stroke-linejoin="round" stroke-miterlimit="3" d="
		M28.625,24.724609c0.533203,0.566895,0.800293,1.216797,0.800293,1.950195c0,0.766602-0.26709,1.416504-0.800293,1.949707
		c-0.533203,0.533691-1.183105,0.800293-1.949707,0.800293c-0.76709,0-1.416992-0.266602-1.950195-0.800293
		c-0.533203-0.533203-0.799805-1.183105-0.799805-1.949707s0.266602-1.416992,0.799805-1.950195
		s1.183105-0.799805,1.950195-0.799805C27.441895,23.924805,28.091797,24.191406,28.625,24.724609z"/>
</g>
</svg>
