<?xml version="1.0" encoding="utf-8"?>
<!-- Generator: Adobe Illustrator 22.1.0, SVG Export Plug-In . SVG Version: 6.00 Build 0)  -->
<svg version="1.1" baseProfile="tiny" id="Layer_1" xmlns="http://www.w3.org/2000/svg" xmlns:xlink="http://www.w3.org/1999/xlink"
	 x="0px" y="0px" width="128px" height="54px" viewBox="0 0 128 54" xml:space="preserve">
<g>
	<polygon fill="#B5B5B6" points="2.189,46.605 0,46.605 0,51.811 0,54 2.189,54 7.395,54 7.395,51.811 2.189,51.811 	"/>
	<polygon fill="#B5B5B6" points="125.811,51.811 120.605,51.811 120.605,54 125.811,54 128,54 128,51.811 128,46.605 
		125.811,46.605 	"/>
	<polygon fill="#B5B5B6" points="2.189,2.189 7.395,2.189 7.395,0 2.189,0 0,0 0,2.189 0,7.395 2.189,7.395 	"/>
	<polygon fill="#B5B5B6" points="125.811,0 120.605,0 120.605,2.189 125.811,2.189 125.811,7.395 128,7.395 128,2.189 128,0 	"/>
	<path fill="#6D6E71" d="M7.522,4.422c-0.466,0-0.843,0.378-0.843,0.843s0.378,0.843,0.843,0.843c0.466,0,0.843-0.378,0.843-0.843
		S7.987,4.422,7.522,4.422z"/>
	<path fill="#6D6E71" d="M14.981,6.108c0.466,0,0.843-0.378,0.843-0.843s-0.378-0.843-0.843-0.843S14.138,4.8,14.138,5.265
		S14.515,6.108,14.981,6.108z"/>
	<path fill="#6D6E71" d="M22.441,6.108c0.466,0,0.843-0.378,0.843-0.843s-0.378-0.843-0.843-0.843S21.598,4.8,21.598,5.265
		S21.975,6.108,22.441,6.108z"/>
	<path fill="#6D6E71" d="M29.9,6.108c0.466,0,0.843-0.378,0.843-0.843S30.365,4.422,29.9,4.422S29.057,4.8,29.057,5.265
		S29.434,6.108,29.9,6.108z"/>
	<path fill="#6D6E71" d="M37.359,6.108c0.466,0,0.843-0.378,0.843-0.843s-0.378-0.843-0.843-0.843c-0.466,0-0.843,0.378-0.843,0.843
		S36.894,6.108,37.359,6.108z"/>
	<path fill="#6D6E71" d="M44.819,6.108c0.466,0,0.843-0.378,0.843-0.843s-0.378-0.843-0.843-0.843c-0.466,0-0.843,0.378-0.843,0.843
		S44.353,6.108,44.819,6.108z"/>
	<path fill="#6D6E71" d="M52.278,6.108c0.466,0,0.843-0.378,0.843-0.843s-0.378-0.843-0.843-0.843S51.435,4.8,51.435,5.265
		S51.813,6.108,52.278,6.108z"/>
	<path fill="#6D6E71" d="M59.738,6.108c0.466,0,0.843-0.378,0.843-0.843s-0.378-0.843-0.843-0.843S58.895,4.8,58.895,5.265
		S59.272,6.108,59.738,6.108z"/>
	<path fill="#6D6E71" d="M67.197,6.108c0.466,0,0.843-0.378,0.843-0.843s-0.378-0.843-0.843-0.843c-0.466,0-0.843,0.378-0.843,0.843
		S66.732,6.108,67.197,6.108z"/>
	<path fill="#6D6E71" d="M74.657,6.108c0.466,0,0.843-0.378,0.843-0.843s-0.378-0.843-0.843-0.843c-0.466,0-0.843,0.378-0.843,0.843
		S74.191,6.108,74.657,6.108z"/>
	<path fill="#6D6E71" d="M82.116,6.108c0.466,0,0.843-0.378,0.843-0.843s-0.378-0.843-0.843-0.843S81.273,4.8,81.273,5.265
		S81.651,6.108,82.116,6.108z"/>
	<path fill="#6D6E71" d="M89.576,6.108c0.466,0,0.843-0.378,0.843-0.843s-0.378-0.843-0.843-0.843S88.733,4.8,88.733,5.265
		S89.11,6.108,89.576,6.108z"/>
	<path fill="#6D6E71" d="M97.035,6.108c0.466,0,0.843-0.378,0.843-0.843S97.5,4.422,97.035,4.422c-0.466,0-0.843,0.378-0.843,0.843
		S96.569,6.108,97.035,6.108z"/>
	<path fill="#6D6E71" d="M104.495,6.108c0.466,0,0.843-0.378,0.843-0.843s-0.378-0.843-0.843-0.843
		c-0.466,0-0.843,0.378-0.843,0.843S104.029,6.108,104.495,6.108z"/>
	<path fill="#6D6E71" d="M111.954,6.108c0.466,0,0.843-0.378,0.843-0.843s-0.378-0.843-0.843-0.843s-0.843,0.378-0.843,0.843
		S111.488,6.108,111.954,6.108z"/>
	<path fill="#6D6E71" d="M119.414,6.108c0.466,0,0.843-0.378,0.843-0.843s-0.378-0.843-0.843-0.843s-0.843,0.378-0.843,0.843
		S118.948,6.108,119.414,6.108z"/>
	<circle fill="#6D6E71" cx="12.095" cy="12.205" r="0.843"/>
	<circle fill="#6D6E71" cx="19.554" cy="12.205" r="0.843"/>
	<path fill="#6D6E71" d="M27.014,13.049c0.466,0,0.843-0.378,0.843-0.843s-0.378-0.843-0.843-0.843
		c-0.466,0-0.843,0.378-0.843,0.843S26.548,13.049,27.014,13.049z"/>
	<path fill="#6D6E71" d="M34.473,13.049c0.466,0,0.843-0.378,0.843-0.843s-0.378-0.843-0.843-0.843
		c-0.466,0-0.843,0.378-0.843,0.843S34.007,13.049,34.473,13.049z"/>
	<path fill="#6D6E71" d="M41.932,13.049c0.466,0,0.843-0.378,0.843-0.843s-0.378-0.843-0.843-0.843s-0.843,0.378-0.843,0.843
		S41.467,13.049,41.932,13.049z"/>
	<circle fill="#6D6E71" cx="49.392" cy="12.205" r="0.843"/>
	<path fill="#6D6E71" d="M56.851,13.049c0.466,0,0.843-0.378,0.843-0.843s-0.378-0.843-0.843-0.843s-0.843,0.378-0.843,0.843
		S56.386,13.049,56.851,13.049z"/>
	<path fill="#6D6E71" d="M64.311,13.049c0.466,0,0.843-0.378,0.843-0.843s-0.378-0.843-0.843-0.843
		c-0.466,0-0.843,0.378-0.843,0.843S63.845,13.049,64.311,13.049z"/>
	<circle fill="#6D6E71" cx="71.77" cy="12.205" r="0.843"/>
	<circle fill="#6D6E71" cx="79.23" cy="12.205" r="0.843"/>
	<path fill="#6D6E71" d="M86.689,13.049c0.466,0,0.843-0.378,0.843-0.843s-0.378-0.843-0.843-0.843
		c-0.466,0-0.843,0.378-0.843,0.843S86.223,13.049,86.689,13.049z"/>
	<path fill="#6D6E71" d="M94.149,13.049c0.466,0,0.843-0.378,0.843-0.843s-0.378-0.843-0.843-0.843
		c-0.466,0-0.843,0.378-0.843,0.843S93.683,13.049,94.149,13.049z"/>
	<path fill="#6D6E71" d="M101.608,13.049c0.466,0,0.843-0.378,0.843-0.843s-0.378-0.843-0.843-0.843s-0.843,0.378-0.843,0.843
		S101.142,13.049,101.608,13.049z"/>
	<circle fill="#6D6E71" cx="109.068" cy="12.205" r="0.843"/>
	<circle fill="#6D6E71" cx="116.527" cy="12.205" r="0.843"/>
	<path fill="#6D6E71" d="M4.635,13.049c0.466,0,0.843-0.378,0.843-0.843S5.1,11.363,4.635,11.363c-0.466,0-0.843,0.378-0.843,0.843
		S4.169,13.049,4.635,13.049z"/>
	<path fill="#6D6E71" d="M7.765,18.422c-0.466,0-0.843,0.378-0.843,0.843s0.378,0.843,0.843,0.843c0.465,0,0.843-0.378,0.843-0.843
		S8.231,18.422,7.765,18.422z"/>
	<path fill="#6D6E71" d="M15.224,18.422c-0.466,0-0.843,0.378-0.843,0.843s0.378,0.843,0.843,0.843c0.466,0,0.843-0.378,0.843-0.843
		S15.69,18.422,15.224,18.422z"/>
	<path fill="#6D6E71" d="M22.684,18.422c-0.466,0-0.843,0.378-0.843,0.843s0.378,0.843,0.843,0.843c0.466,0,0.843-0.378,0.843-0.843
		S23.15,18.422,22.684,18.422z"/>
	<path fill="#6D6E71" d="M30.143,18.422c-0.466,0-0.843,0.378-0.843,0.843s0.378,0.843,0.843,0.843s0.843-0.378,0.843-0.843
		S30.609,18.422,30.143,18.422z"/>
	<path fill="#6D6E71" d="M37.603,18.422c-0.466,0-0.843,0.378-0.843,0.843s0.378,0.843,0.843,0.843s0.843-0.378,0.843-0.843
		S38.068,18.422,37.603,18.422z"/>
	<path fill="#6D6E71" d="M45.062,18.422c-0.466,0-0.843,0.378-0.843,0.843s0.378,0.843,0.843,0.843s0.843-0.378,0.843-0.843
		S45.528,18.422,45.062,18.422z"/>
	<path fill="#6D6E71" d="M52.522,18.422c-0.466,0-0.843,0.378-0.843,0.843s0.378,0.843,0.843,0.843c0.466,0,0.843-0.378,0.843-0.843
		S52.987,18.422,52.522,18.422z"/>
	<path fill="#6D6E71" d="M59.981,18.422c-0.466,0-0.843,0.378-0.843,0.843s0.378,0.843,0.843,0.843s0.843-0.378,0.843-0.843
		S60.447,18.422,59.981,18.422z"/>
	<path fill="#6D6E71" d="M67.441,18.422c-0.466,0-0.843,0.378-0.843,0.843s0.378,0.843,0.843,0.843s0.843-0.378,0.843-0.843
		S67.906,18.422,67.441,18.422z"/>
	<path fill="#6D6E71" d="M74.9,18.422c-0.466,0-0.843,0.378-0.843,0.843s0.378,0.843,0.843,0.843c0.466,0,0.843-0.378,0.843-0.843
		S75.366,18.422,74.9,18.422z"/>
	<path fill="#6D6E71" d="M82.359,18.422c-0.466,0-0.843,0.378-0.843,0.843s0.378,0.843,0.843,0.843c0.466,0,0.843-0.378,0.843-0.843
		S82.825,18.422,82.359,18.422z"/>
	<path fill="#6D6E71" d="M89.819,18.422c-0.466,0-0.843,0.378-0.843,0.843s0.378,0.843,0.843,0.843s0.843-0.378,0.843-0.843
		S90.285,18.422,89.819,18.422z"/>
	<path fill="#6D6E71" d="M97.278,18.422c-0.466,0-0.843,0.378-0.843,0.843s0.378,0.843,0.843,0.843s0.843-0.378,0.843-0.843
		S97.744,18.422,97.278,18.422z"/>
	<path fill="#6D6E71" d="M104.738,18.422c-0.466,0-0.843,0.378-0.843,0.843s0.378,0.843,0.843,0.843s0.843-0.378,0.843-0.843
		S105.204,18.422,104.738,18.422z"/>
	<path fill="#6D6E71" d="M112.197,18.422c-0.466,0-0.843,0.378-0.843,0.843s0.378,0.843,0.843,0.843
		c0.466,0,0.843-0.378,0.843-0.843S112.663,18.422,112.197,18.422z"/>
	<path fill="#6D6E71" d="M119.657,18.422c-0.466,0-0.843,0.378-0.843,0.843s0.378,0.843,0.843,0.843
		c0.466,0,0.843-0.378,0.843-0.843S120.122,18.422,119.657,18.422z"/>
	<path fill="#6D6E71" d="M12.338,25.362c-0.466,0-0.843,0.378-0.843,0.843s0.378,0.843,0.843,0.843c0.466,0,0.843-0.378,0.843-0.843
		S12.804,25.362,12.338,25.362z"/>
	<circle fill="#6D6E71" cx="19.797" cy="26.205" r="0.843"/>
	<circle fill="#6D6E71" cx="27.257" cy="26.205" r="0.843"/>
	<path fill="#6D6E71" d="M34.716,25.362c-0.466,0-0.843,0.378-0.843,0.843s0.378,0.843,0.843,0.843s0.843-0.378,0.843-0.843
		S35.182,25.362,34.716,25.362z"/>
	<path fill="#6D6E71" d="M42.176,25.362c-0.466,0-0.843,0.378-0.843,0.843s0.378,0.843,0.843,0.843c0.466,0,0.843-0.378,0.843-0.843
		S42.641,25.362,42.176,25.362z"/>
	<path fill="#6D6E71" d="M49.635,25.362c-0.466,0-0.843,0.378-0.843,0.843s0.378,0.843,0.843,0.843c0.466,0,0.843-0.378,0.843-0.843
		S50.101,25.362,49.635,25.362z"/>
	<circle fill="#6D6E71" cx="57.095" cy="26.205" r="0.843"/>
	<path fill="#6D6E71" d="M64.554,25.362c-0.466,0-0.843,0.378-0.843,0.843s0.378,0.843,0.843,0.843c0.466,0,0.843-0.378,0.843-0.843
		S65.02,25.362,64.554,25.362z"/>
	<path fill="#6D6E71" d="M72.013,25.362c-0.466,0-0.843,0.378-0.843,0.843s0.378,0.843,0.843,0.843c0.466,0,0.843-0.378,0.843-0.843
		S72.479,25.362,72.013,25.362z"/>
	<circle fill="#6D6E71" cx="79.473" cy="26.205" r="0.843"/>
	<circle fill="#6D6E71" cx="86.932" cy="26.205" r="0.843"/>
	<path fill="#6D6E71" d="M94.392,25.362c-0.466,0-0.843,0.378-0.843,0.843s0.378,0.843,0.843,0.843s0.843-0.378,0.843-0.843
		S94.858,25.362,94.392,25.362z"/>
	<path fill="#6D6E71" d="M101.851,25.362c-0.466,0-0.843,0.378-0.843,0.843s0.378,0.843,0.843,0.843
		c0.466,0,0.843-0.378,0.843-0.843S102.317,25.362,101.851,25.362z"/>
	<path fill="#6D6E71" d="M109.311,25.362c-0.466,0-0.843,0.378-0.843,0.843s0.378,0.843,0.843,0.843
		c0.466,0,0.843-0.378,0.843-0.843S109.777,25.362,109.311,25.362z"/>
	<circle fill="#6D6E71" cx="116.77" cy="26.205" r="0.843"/>
	<circle fill="#6D6E71" cx="124.23" cy="26.205" r="0.843"/>
	<path fill="#6D6E71" d="M4.878,25.362c-0.466,0-0.843,0.378-0.843,0.843s0.378,0.843,0.843,0.843c0.466,0,0.843-0.378,0.843-0.843
		S5.344,25.362,4.878,25.362z"/>
	<path fill="#6D6E71" d="M7.765,33.422c-0.466,0-0.843,0.378-0.843,0.843s0.378,0.843,0.843,0.843c0.465,0,0.843-0.378,0.843-0.843
		S8.231,33.422,7.765,33.422z"/>
	<path fill="#6D6E71" d="M16.068,34.265c0-0.466-0.378-0.843-0.843-0.843c-0.466,0-0.843,0.378-0.843,0.843s0.378,0.843,0.843,0.843
		C15.69,35.108,16.068,34.731,16.068,34.265z"/>
	<path fill="#6D6E71" d="M23.527,34.265c0-0.466-0.378-0.843-0.843-0.843c-0.466,0-0.843,0.378-0.843,0.843s0.378,0.843,0.843,0.843
		C23.15,35.108,23.527,34.731,23.527,34.265z"/>
	<path fill="#6D6E71" d="M30.987,34.265c0-0.466-0.378-0.843-0.843-0.843s-0.843,0.378-0.843,0.843s0.378,0.843,0.843,0.843
		S30.987,34.731,30.987,34.265z"/>
	<path fill="#6D6E71" d="M38.446,34.265c0-0.466-0.378-0.843-0.843-0.843S36.76,33.8,36.76,34.265s0.378,0.843,0.843,0.843
		S38.446,34.731,38.446,34.265z"/>
	<path fill="#6D6E71" d="M45.905,34.265c0-0.466-0.378-0.843-0.843-0.843s-0.843,0.378-0.843,0.843s0.378,0.843,0.843,0.843
		S45.905,34.731,45.905,34.265z"/>
	<path fill="#6D6E71" d="M53.365,34.265c0-0.466-0.378-0.843-0.843-0.843c-0.466,0-0.843,0.378-0.843,0.843s0.378,0.843,0.843,0.843
		C52.987,35.108,53.365,34.731,53.365,34.265z"/>
	<path fill="#6D6E71" d="M60.824,34.265c0-0.466-0.378-0.843-0.843-0.843s-0.843,0.378-0.843,0.843s0.378,0.843,0.843,0.843
		S60.824,34.731,60.824,34.265z"/>
	<path fill="#6D6E71" d="M68.284,34.265c0-0.466-0.378-0.843-0.843-0.843s-0.843,0.378-0.843,0.843s0.378,0.843,0.843,0.843
		S68.284,34.731,68.284,34.265z"/>
	<path fill="#6D6E71" d="M75.743,34.265c0-0.466-0.378-0.843-0.843-0.843c-0.466,0-0.843,0.378-0.843,0.843s0.378,0.843,0.843,0.843
		C75.366,35.108,75.743,34.731,75.743,34.265z"/>
	<path fill="#6D6E71" d="M83.203,34.265c0-0.466-0.378-0.843-0.843-0.843c-0.466,0-0.843,0.378-0.843,0.843s0.378,0.843,0.843,0.843
		C82.825,35.108,83.203,34.731,83.203,34.265z"/>
	<path fill="#6D6E71" d="M90.662,34.265c0-0.466-0.378-0.843-0.843-0.843s-0.843,0.378-0.843,0.843s0.378,0.843,0.843,0.843
		S90.662,34.731,90.662,34.265z"/>
	<path fill="#6D6E71" d="M98.122,34.265c0-0.466-0.378-0.843-0.843-0.843s-0.843,0.378-0.843,0.843s0.378,0.843,0.843,0.843
		S98.122,34.731,98.122,34.265z"/>
	<path fill="#6D6E71" d="M105.581,34.265c0-0.466-0.378-0.843-0.843-0.843s-0.843,0.378-0.843,0.843s0.378,0.843,0.843,0.843
		S105.581,34.731,105.581,34.265z"/>
	<path fill="#6D6E71" d="M113.041,34.265c0-0.466-0.378-0.843-0.843-0.843c-0.466,0-0.843,0.378-0.843,0.843
		s0.378,0.843,0.843,0.843S113.041,34.731,113.041,34.265z"/>
	<path fill="#6D6E71" d="M119.657,33.422c-0.466,0-0.843,0.378-0.843,0.843s0.378,0.843,0.843,0.843
		c0.466,0,0.843-0.378,0.843-0.843S120.122,33.422,119.657,33.422z"/>
	<path fill="#6D6E71" d="M12.338,40.362c-0.466,0-0.843,0.378-0.843,0.843s0.378,0.843,0.843,0.843c0.466,0,0.843-0.378,0.843-0.843
		S12.804,40.362,12.338,40.362z"/>
	<circle fill="#6D6E71" cx="19.797" cy="41.205" r="0.843"/>
	<circle fill="#6D6E71" cx="27.257" cy="41.205" r="0.843"/>
	<path fill="#6D6E71" d="M34.716,40.362c-0.466,0-0.843,0.378-0.843,0.843s0.378,0.843,0.843,0.843s0.843-0.378,0.843-0.843
		S35.182,40.362,34.716,40.362z"/>
	<path fill="#6D6E71" d="M42.176,40.362c-0.466,0-0.843,0.378-0.843,0.843s0.378,0.843,0.843,0.843c0.466,0,0.843-0.378,0.843-0.843
		S42.641,40.362,42.176,40.362z"/>
	<path fill="#6D6E71" d="M49.635,40.362c-0.466,0-0.843,0.378-0.843,0.843s0.378,0.843,0.843,0.843c0.466,0,0.843-0.378,0.843-0.843
		S50.101,40.362,49.635,40.362z"/>
	<circle fill="#6D6E71" cx="57.095" cy="41.205" r="0.843"/>
	<path fill="#6D6E71" d="M64.554,40.362c-0.466,0-0.843,0.378-0.843,0.843s0.378,0.843,0.843,0.843c0.466,0,0.843-0.378,0.843-0.843
		S65.02,40.362,64.554,40.362z"/>
	<path fill="#6D6E71" d="M72.013,40.362c-0.466,0-0.843,0.378-0.843,0.843s0.378,0.843,0.843,0.843c0.466,0,0.843-0.378,0.843-0.843
		S72.479,40.362,72.013,40.362z"/>
	<circle fill="#6D6E71" cx="79.473" cy="41.205" r="0.843"/>
	<circle fill="#6D6E71" cx="86.932" cy="41.205" r="0.843"/>
	<path fill="#6D6E71" d="M94.392,40.362c-0.466,0-0.843,0.378-0.843,0.843s0.378,0.843,0.843,0.843s0.843-0.378,0.843-0.843
		S94.858,40.362,94.392,40.362z"/>
	<path fill="#6D6E71" d="M101.851,40.362c-0.466,0-0.843,0.378-0.843,0.843s0.378,0.843,0.843,0.843
		c0.466,0,0.843-0.378,0.843-0.843S102.317,40.362,101.851,40.362z"/>
	<path fill="#6D6E71" d="M109.311,40.362c-0.466,0-0.843,0.378-0.843,0.843s0.378,0.843,0.843,0.843
		c0.466,0,0.843-0.378,0.843-0.843S109.777,40.362,109.311,40.362z"/>
	<circle fill="#6D6E71" cx="116.77" cy="41.205" r="0.843"/>
	<circle fill="#6D6E71" cx="124.23" cy="41.205" r="0.843"/>
	<path fill="#6D6E71" d="M4.878,40.362c-0.466,0-0.843,0.378-0.843,0.843s0.378,0.843,0.843,0.843c0.466,0,0.843-0.378,0.843-0.843
		S5.344,40.362,4.878,40.362z"/>
	<path fill="#6D6E71" d="M15.824,46.459c-0.466,0-0.843,0.378-0.843,0.843s0.378,0.843,0.843,0.843c0.465,0,0.843-0.378,0.843-0.843
		S16.29,46.459,15.824,46.459z"/>
	<path fill="#6D6E71" d="M23.284,46.459c-0.466,0-0.843,0.378-0.843,0.843s0.378,0.843,0.843,0.843s0.843-0.378,0.843-0.843
		S23.75,46.459,23.284,46.459z"/>
	<path fill="#6D6E71" d="M30.743,46.459c-0.466,0-0.843,0.378-0.843,0.843s0.378,0.843,0.843,0.843c0.466,0,0.843-0.378,0.843-0.843
		S31.209,46.459,30.743,46.459z"/>
	<path fill="#6D6E71" d="M38.203,46.459c-0.466,0-0.843,0.378-0.843,0.843s0.378,0.843,0.843,0.843c0.466,0,0.843-0.378,0.843-0.843
		S38.668,46.459,38.203,46.459z"/>
	<path fill="#6D6E71" d="M45.662,46.459c-0.466,0-0.843,0.378-0.843,0.843s0.378,0.843,0.843,0.843s0.843-0.378,0.843-0.843
		S46.128,46.459,45.662,46.459z"/>
	<path fill="#6D6E71" d="M53.122,46.459c-0.466,0-0.843,0.378-0.843,0.843s0.378,0.843,0.843,0.843s0.843-0.378,0.843-0.843
		S53.587,46.459,53.122,46.459z"/>
	<path fill="#6D6E71" d="M60.581,46.459c-0.466,0-0.843,0.378-0.843,0.843s0.378,0.843,0.843,0.843c0.466,0,0.843-0.378,0.843-0.843
		S61.047,46.459,60.581,46.459z"/>
	<path fill="#6D6E71" d="M68.041,46.459c-0.466,0-0.843,0.378-0.843,0.843s0.378,0.843,0.843,0.843s0.843-0.378,0.843-0.843
		S68.506,46.459,68.041,46.459z"/>
	<path fill="#6D6E71" d="M75.5,46.459c-0.466,0-0.843,0.378-0.843,0.843s0.378,0.843,0.843,0.843s0.843-0.378,0.843-0.843
		S75.966,46.459,75.5,46.459z"/>
	<path fill="#6D6E71" d="M82.959,46.459c-0.466,0-0.843,0.378-0.843,0.843s0.378,0.843,0.843,0.843s0.843-0.378,0.843-0.843
		S83.425,46.459,82.959,46.459z"/>
	<path fill="#6D6E71" d="M90.419,46.459c-0.466,0-0.843,0.378-0.843,0.843s0.378,0.843,0.843,0.843c0.466,0,0.843-0.378,0.843-0.843
		S90.885,46.459,90.419,46.459z"/>
	<path fill="#6D6E71" d="M97.878,46.459c-0.466,0-0.843,0.378-0.843,0.843s0.378,0.843,0.843,0.843c0.466,0,0.843-0.378,0.843-0.843
		S98.344,46.459,97.878,46.459z"/>
	<path fill="#6D6E71" d="M105.338,46.459c-0.466,0-0.843,0.378-0.843,0.843s0.378,0.843,0.843,0.843s0.843-0.378,0.843-0.843
		S105.804,46.459,105.338,46.459z"/>
	<path fill="#6D6E71" d="M112.797,46.459c-0.466,0-0.843,0.378-0.843,0.843s0.378,0.843,0.843,0.843s0.843-0.378,0.843-0.843
		S113.263,46.459,112.797,46.459z"/>
	<path fill="#6D6E71" d="M8.608,46.459c-0.466,0-0.843,0.378-0.843,0.843s0.378,0.843,0.843,0.843c0.466,0,0.843-0.378,0.843-0.843
		S9.074,46.459,8.608,46.459z"/>
	<path fill="#6D6E71" d="M120.605,46.459c-0.466,0-0.843,0.378-0.843,0.843s0.378,0.843,0.843,0.843
		c0.466,0,0.843-0.378,0.843-0.843S121.071,46.459,120.605,46.459z"/>
	<path fill="#6D6E71" d="M123.387,13.049c0.466,0,0.843-0.378,0.843-0.843s-0.378-0.843-0.843-0.843s-0.843,0.378-0.843,0.843
		S122.921,13.049,123.387,13.049z"/>
</g>
</svg>
