<?xml version="1.0" encoding="utf-8"?>
<!-- Generator: Adobe Illustrator 23.0.3, SVG Export Plug-In . SVG Version: 6.00 Build 0)  -->
<svg version="1.1" id="Layer_1" xmlns="http://www.w3.org/2000/svg" xmlns:xlink="http://www.w3.org/1999/xlink" x="0px" y="0px"
	 width="128px" height="128px" viewBox="0 0 128 128" enable-background="new 0 0 128 128" xml:space="preserve">
<g>
	<polygon fill="#B5B5B6" points="2.189,120.605 0,120.605 0,125.811 0,128 2.189,128 7.395,128 7.395,125.811 2.189,125.811 	"/>
	<polygon fill="#B5B5B6" points="125.811,125.811 120.605,125.811 120.605,128 125.811,128 128,128 128,125.811 128,120.605 
		125.811,120.605 	"/>
	<polygon fill="#B5B5B6" points="2.189,2.189 7.395,2.189 7.395,0 2.189,0 0,0 0,2.189 0,7.395 2.189,7.395 	"/>
	<polygon fill="#B5B5B6" points="125.811,0 120.605,0 120.605,2.189 125.811,2.189 125.811,7.395 128,7.395 128,2.189 128,0 	"/>
	<path fill="#6D6E71" d="M6.314,6.816c0,0.466,0.378,0.843,0.843,0.843C7.622,7.659,8,7.282,8,6.816S7.622,5.973,7.157,5.973
		C6.691,5.973,6.314,6.351,6.314,6.816z"/>
	<path fill="#6D6E71" d="M14.616,7.659c0.466,0,0.843-0.378,0.843-0.843s-0.378-0.843-0.843-0.843c-0.466,0-0.843,0.378-0.843,0.843
		S14.151,7.659,14.616,7.659z"/>
	<circle fill="#6D6E71" cx="22.076" cy="6.816" r="0.843"/>
	<circle fill="#6D6E71" cx="29.535" cy="6.816" r="0.843"/>
	<path fill="#6D6E71" d="M36.995,7.659c0.466,0,0.843-0.378,0.843-0.843s-0.378-0.843-0.843-0.843c-0.466,0-0.843,0.378-0.843,0.843
		S36.529,7.659,36.995,7.659z"/>
	<path fill="#6D6E71" d="M44.454,7.659c0.466,0,0.843-0.378,0.843-0.843s-0.378-0.843-0.843-0.843c-0.466,0-0.843,0.378-0.843,0.843
		S43.988,7.659,44.454,7.659z"/>
	<path fill="#6D6E71" d="M51.914,7.659c0.466,0,0.843-0.378,0.843-0.843s-0.378-0.843-0.843-0.843S51.07,6.351,51.07,6.816
		S51.448,7.659,51.914,7.659z"/>
	<circle fill="#6D6E71" cx="59.373" cy="6.816" r="0.843"/>
	<path fill="#6D6E71" d="M66.832,7.659c0.466,0,0.843-0.378,0.843-0.843s-0.378-0.843-0.843-0.843c-0.466,0-0.843,0.378-0.843,0.843
		S66.367,7.659,66.832,7.659z"/>
	<path fill="#6D6E71" d="M74.292,7.659c0.466,0,0.843-0.378,0.843-0.843s-0.378-0.843-0.843-0.843c-0.466,0-0.843,0.378-0.843,0.843
		S73.826,7.659,74.292,7.659z"/>
	<circle fill="#6D6E71" cx="81.751" cy="6.816" r="0.843"/>
	<circle fill="#6D6E71" cx="89.211" cy="6.816" r="0.843"/>
	<path fill="#6D6E71" d="M96.67,7.659c0.466,0,0.843-0.378,0.843-0.843s-0.378-0.843-0.843-0.843s-0.843,0.378-0.843,0.843
		S96.205,7.659,96.67,7.659z"/>
	<path fill="#6D6E71" d="M104.13,7.659c0.466,0,0.843-0.378,0.843-0.843s-0.378-0.843-0.843-0.843c-0.466,0-0.843,0.378-0.843,0.843
		S103.664,7.659,104.13,7.659z"/>
	<path fill="#6D6E71" d="M111.589,7.659c0.466,0,0.843-0.378,0.843-0.843s-0.378-0.843-0.843-0.843s-0.843,0.378-0.843,0.843
		S111.123,7.659,111.589,7.659z"/>
	<circle fill="#6D6E71" cx="119.049" cy="6.816" r="0.843"/>
	<path fill="#6D6E71" d="M11.73,14.6c0.466,0,0.843-0.378,0.843-0.843s-0.378-0.843-0.843-0.843s-0.843,0.378-0.843,0.843
		S11.264,14.6,11.73,14.6z"/>
	<path fill="#6D6E71" d="M19.189,14.6c0.466,0,0.843-0.378,0.843-0.843s-0.378-0.843-0.843-0.843s-0.843,0.378-0.843,0.843
		S18.724,14.6,19.189,14.6z"/>
	<path fill="#6D6E71" d="M26.649,14.6c0.466,0,0.843-0.378,0.843-0.843s-0.378-0.843-0.843-0.843s-0.843,0.378-0.843,0.843
		S26.183,14.6,26.649,14.6z"/>
	<path fill="#6D6E71" d="M34.108,14.6c0.466,0,0.843-0.378,0.843-0.843s-0.378-0.843-0.843-0.843c-0.466,0-0.843,0.378-0.843,0.843
		S33.642,14.6,34.108,14.6z"/>
	<path fill="#6D6E71" d="M41.568,14.6c0.466,0,0.843-0.378,0.843-0.843s-0.378-0.843-0.843-0.843s-0.843,0.378-0.843,0.843
		S41.102,14.6,41.568,14.6z"/>
	<path fill="#6D6E71" d="M49.027,14.6c0.466,0,0.843-0.378,0.843-0.843s-0.378-0.843-0.843-0.843s-0.843,0.378-0.843,0.843
		S48.561,14.6,49.027,14.6z"/>
	<path fill="#6D6E71" d="M56.487,14.6c0.466,0,0.843-0.378,0.843-0.843s-0.378-0.843-0.843-0.843s-0.843,0.378-0.843,0.843
		S56.021,14.6,56.487,14.6z"/>
	<path fill="#6D6E71" d="M63.946,14.6c0.466,0,0.843-0.378,0.843-0.843s-0.378-0.843-0.843-0.843c-0.466,0-0.843,0.378-0.843,0.843
		S63.48,14.6,63.946,14.6z"/>
	<path fill="#6D6E71" d="M71.405,14.6c0.466,0,0.843-0.378,0.843-0.843s-0.378-0.843-0.843-0.843s-0.843,0.378-0.843,0.843
		S70.94,14.6,71.405,14.6z"/>
	<path fill="#6D6E71" d="M78.865,14.6c0.466,0,0.843-0.378,0.843-0.843s-0.378-0.843-0.843-0.843s-0.843,0.378-0.843,0.843
		S78.399,14.6,78.865,14.6z"/>
	<path fill="#6D6E71" d="M86.324,14.6c0.466,0,0.843-0.378,0.843-0.843s-0.378-0.843-0.843-0.843s-0.843,0.378-0.843,0.843
		S85.859,14.6,86.324,14.6z"/>
	<path fill="#6D6E71" d="M93.784,14.6c0.466,0,0.843-0.378,0.843-0.843s-0.378-0.843-0.843-0.843c-0.466,0-0.843,0.378-0.843,0.843
		S93.318,14.6,93.784,14.6z"/>
	<path fill="#6D6E71" d="M101.243,14.6c0.466,0,0.843-0.378,0.843-0.843s-0.378-0.843-0.843-0.843s-0.843,0.378-0.843,0.843
		S100.778,14.6,101.243,14.6z"/>
	<path fill="#6D6E71" d="M108.703,14.6c0.466,0,0.843-0.378,0.843-0.843s-0.378-0.843-0.843-0.843s-0.843,0.378-0.843,0.843
		S108.237,14.6,108.703,14.6z"/>
	<path fill="#6D6E71" d="M116.162,14.6c0.466,0,0.843-0.378,0.843-0.843s-0.378-0.843-0.843-0.843s-0.843,0.378-0.843,0.843
		S115.696,14.6,116.162,14.6z"/>
	<path fill="#6D6E71" d="M123.622,14.6c0.466,0,0.843-0.378,0.843-0.843s-0.378-0.843-0.843-0.843c-0.466,0-0.843,0.378-0.843,0.843
		S123.156,14.6,123.622,14.6z"/>
	<path fill="#6D6E71" d="M4.27,14.6c0.466,0,0.843-0.378,0.843-0.843s-0.378-0.843-0.843-0.843c-0.466,0-0.843,0.378-0.843,0.843
		S3.805,14.6,4.27,14.6z"/>
	<path fill="#6D6E71" d="M7.157,22.659C7.622,22.659,8,22.282,8,21.816s-0.378-0.843-0.843-0.843c-0.466,0-0.843,0.378-0.843,0.843
		S6.691,22.659,7.157,22.659z"/>
	<path fill="#6D6E71" d="M14.616,22.659c0.466,0,0.843-0.378,0.843-0.843s-0.378-0.843-0.843-0.843
		c-0.466,0-0.843,0.378-0.843,0.843S14.151,22.659,14.616,22.659z"/>
	<circle fill="#6D6E71" cx="22.076" cy="21.816" r="0.843"/>
	<circle fill="#6D6E71" cx="29.535" cy="21.816" r="0.843"/>
	<path fill="#6D6E71" d="M36.995,22.659c0.466,0,0.843-0.378,0.843-0.843s-0.378-0.843-0.843-0.843
		c-0.466,0-0.843,0.378-0.843,0.843S36.529,22.659,36.995,22.659z"/>
	<path fill="#6D6E71" d="M44.454,22.659c0.466,0,0.843-0.378,0.843-0.843s-0.378-0.843-0.843-0.843
		c-0.466,0-0.843,0.378-0.843,0.843S43.988,22.659,44.454,22.659z"/>
	<path fill="#6D6E71" d="M51.914,22.659c0.466,0,0.843-0.378,0.843-0.843s-0.378-0.843-0.843-0.843s-0.843,0.378-0.843,0.843
		S51.448,22.659,51.914,22.659z"/>
	<circle fill="#6D6E71" cx="59.373" cy="21.816" r="0.843"/>
	<path fill="#6D6E71" d="M66.832,22.659c0.466,0,0.843-0.378,0.843-0.843s-0.378-0.843-0.843-0.843
		c-0.466,0-0.843,0.378-0.843,0.843S66.367,22.659,66.832,22.659z"/>
	<path fill="#6D6E71" d="M74.292,22.659c0.466,0,0.843-0.378,0.843-0.843s-0.378-0.843-0.843-0.843
		c-0.466,0-0.843,0.378-0.843,0.843S73.826,22.659,74.292,22.659z"/>
	<circle fill="#6D6E71" cx="81.751" cy="21.816" r="0.843"/>
	<circle fill="#6D6E71" cx="89.211" cy="21.816" r="0.843"/>
	<path fill="#6D6E71" d="M96.67,22.659c0.466,0,0.843-0.378,0.843-0.843s-0.378-0.843-0.843-0.843s-0.843,0.378-0.843,0.843
		S96.205,22.659,96.67,22.659z"/>
	<path fill="#6D6E71" d="M104.13,22.659c0.466,0,0.843-0.378,0.843-0.843s-0.378-0.843-0.843-0.843
		c-0.466,0-0.843,0.378-0.843,0.843S103.664,22.659,104.13,22.659z"/>
	<path fill="#6D6E71" d="M111.589,22.659c0.466,0,0.843-0.378,0.843-0.843s-0.378-0.843-0.843-0.843s-0.843,0.378-0.843,0.843
		S111.123,22.659,111.589,22.659z"/>
	<circle fill="#6D6E71" cx="119.049" cy="21.816" r="0.843"/>
	<path fill="#6D6E71" d="M11.73,29.6c0.466,0,0.843-0.378,0.843-0.843s-0.378-0.843-0.843-0.843s-0.843,0.378-0.843,0.843
		S11.264,29.6,11.73,29.6z"/>
	<path fill="#6D6E71" d="M19.189,29.6c0.466,0,0.843-0.378,0.843-0.843s-0.378-0.843-0.843-0.843s-0.843,0.378-0.843,0.843
		S18.724,29.6,19.189,29.6z"/>
	<path fill="#6D6E71" d="M26.649,29.6c0.466,0,0.843-0.378,0.843-0.843s-0.378-0.843-0.843-0.843s-0.843,0.378-0.843,0.843
		S26.183,29.6,26.649,29.6z"/>
	<path fill="#6D6E71" d="M34.108,29.6c0.466,0,0.843-0.378,0.843-0.843s-0.378-0.843-0.843-0.843c-0.466,0-0.843,0.378-0.843,0.843
		S33.642,29.6,34.108,29.6z"/>
	<path fill="#6D6E71" d="M41.568,29.6c0.466,0,0.843-0.378,0.843-0.843s-0.378-0.843-0.843-0.843s-0.843,0.378-0.843,0.843
		S41.102,29.6,41.568,29.6z"/>
	<path fill="#6D6E71" d="M49.027,29.6c0.466,0,0.843-0.378,0.843-0.843s-0.378-0.843-0.843-0.843s-0.843,0.378-0.843,0.843
		S48.561,29.6,49.027,29.6z"/>
	<path fill="#6D6E71" d="M56.487,29.6c0.466,0,0.843-0.378,0.843-0.843s-0.378-0.843-0.843-0.843s-0.843,0.378-0.843,0.843
		S56.021,29.6,56.487,29.6z"/>
	<path fill="#6D6E71" d="M63.946,29.6c0.466,0,0.843-0.378,0.843-0.843s-0.378-0.843-0.843-0.843c-0.466,0-0.843,0.378-0.843,0.843
		S63.48,29.6,63.946,29.6z"/>
	<path fill="#6D6E71" d="M71.405,29.6c0.466,0,0.843-0.378,0.843-0.843s-0.378-0.843-0.843-0.843s-0.843,0.378-0.843,0.843
		S70.94,29.6,71.405,29.6z"/>
	<path fill="#6D6E71" d="M78.865,29.6c0.466,0,0.843-0.378,0.843-0.843s-0.378-0.843-0.843-0.843s-0.843,0.378-0.843,0.843
		S78.399,29.6,78.865,29.6z"/>
	<path fill="#6D6E71" d="M86.324,29.6c0.466,0,0.843-0.378,0.843-0.843s-0.378-0.843-0.843-0.843s-0.843,0.378-0.843,0.843
		S85.859,29.6,86.324,29.6z"/>
	<path fill="#6D6E71" d="M93.784,29.6c0.466,0,0.843-0.378,0.843-0.843s-0.378-0.843-0.843-0.843c-0.466,0-0.843,0.378-0.843,0.843
		S93.318,29.6,93.784,29.6z"/>
	<path fill="#6D6E71" d="M101.243,29.6c0.466,0,0.843-0.378,0.843-0.843s-0.378-0.843-0.843-0.843s-0.843,0.378-0.843,0.843
		S100.778,29.6,101.243,29.6z"/>
	<path fill="#6D6E71" d="M108.703,29.6c0.466,0,0.843-0.378,0.843-0.843s-0.378-0.843-0.843-0.843s-0.843,0.378-0.843,0.843
		S108.237,29.6,108.703,29.6z"/>
	<path fill="#6D6E71" d="M116.162,29.6c0.466,0,0.843-0.378,0.843-0.843s-0.378-0.843-0.843-0.843s-0.843,0.378-0.843,0.843
		S115.696,29.6,116.162,29.6z"/>
	<path fill="#6D6E71" d="M123.622,29.6c0.466,0,0.843-0.378,0.843-0.843s-0.378-0.843-0.843-0.843c-0.466,0-0.843,0.378-0.843,0.843
		S123.156,29.6,123.622,29.6z"/>
	<path fill="#6D6E71" d="M4.27,29.6c0.466,0,0.843-0.378,0.843-0.843s-0.378-0.843-0.843-0.843c-0.466,0-0.843,0.378-0.843,0.843
		S3.805,29.6,4.27,29.6z"/>
	<circle fill="#6D6E71" cx="7.4" cy="35.816" r="0.843"/>
	<path fill="#6D6E71" d="M14.859,34.973c-0.466,0-0.843,0.378-0.843,0.843s0.378,0.843,0.843,0.843c0.466,0,0.843-0.378,0.843-0.843
		S15.325,34.973,14.859,34.973z"/>
	<path fill="#6D6E71" d="M22.319,34.973c-0.466,0-0.843,0.378-0.843,0.843s0.378,0.843,0.843,0.843c0.466,0,0.843-0.378,0.843-0.843
		S22.785,34.973,22.319,34.973z"/>
	<path fill="#6D6E71" d="M29.778,34.973c-0.466,0-0.843,0.378-0.843,0.843s0.378,0.843,0.843,0.843s0.843-0.378,0.843-0.843
		S30.244,34.973,29.778,34.973z"/>
	<circle fill="#6D6E71" cx="37.238" cy="35.816" r="0.843"/>
	<path fill="#6D6E71" d="M44.697,34.973c-0.466,0-0.843,0.378-0.843,0.843s0.378,0.843,0.843,0.843s0.843-0.378,0.843-0.843
		S45.163,34.973,44.697,34.973z"/>
	<path fill="#6D6E71" d="M52.157,34.973c-0.466,0-0.843,0.378-0.843,0.843s0.378,0.843,0.843,0.843c0.466,0,0.843-0.378,0.843-0.843
		S52.622,34.973,52.157,34.973z"/>
	<path fill="#6D6E71" d="M59.616,34.973c-0.466,0-0.843,0.378-0.843,0.843s0.378,0.843,0.843,0.843c0.466,0,0.843-0.378,0.843-0.843
		S60.082,34.973,59.616,34.973z"/>
	<circle fill="#6D6E71" cx="67.076" cy="35.816" r="0.843"/>
	<path fill="#6D6E71" d="M74.535,34.973c-0.466,0-0.843,0.378-0.843,0.843s0.378,0.843,0.843,0.843c0.466,0,0.843-0.378,0.843-0.843
		S75.001,34.973,74.535,34.973z"/>
	<path fill="#6D6E71" d="M81.995,34.973c-0.466,0-0.843,0.378-0.843,0.843s0.378,0.843,0.843,0.843c0.466,0,0.843-0.378,0.843-0.843
		S82.46,34.973,81.995,34.973z"/>
	<path fill="#6D6E71" d="M89.454,34.973c-0.466,0-0.843,0.378-0.843,0.843s0.378,0.843,0.843,0.843s0.843-0.378,0.843-0.843
		S89.92,34.973,89.454,34.973z"/>
	<circle fill="#6D6E71" cx="96.914" cy="35.816" r="0.843"/>
	<path fill="#6D6E71" d="M104.373,34.973c-0.466,0-0.843,0.378-0.843,0.843s0.378,0.843,0.843,0.843s0.843-0.378,0.843-0.843
		S104.839,34.973,104.373,34.973z"/>
	<path fill="#6D6E71" d="M111.832,34.973c-0.466,0-0.843,0.378-0.843,0.843s0.378,0.843,0.843,0.843
		c0.466,0,0.843-0.378,0.843-0.843S112.298,34.973,111.832,34.973z"/>
	<path fill="#6D6E71" d="M119.292,34.973c-0.466,0-0.843,0.378-0.843,0.843s0.378,0.843,0.843,0.843
		c0.466,0,0.843-0.378,0.843-0.843S119.758,34.973,119.292,34.973z"/>
	<path fill="#6D6E71" d="M11.973,41.914c-0.466,0-0.843,0.378-0.843,0.843s0.378,0.843,0.843,0.843c0.466,0,0.843-0.378,0.843-0.843
		S12.439,41.914,11.973,41.914z"/>
	<path fill="#6D6E71" d="M19.432,41.914c-0.466,0-0.843,0.378-0.843,0.843s0.378,0.843,0.843,0.843s0.843-0.378,0.843-0.843
		S19.898,41.914,19.432,41.914z"/>
	<path fill="#6D6E71" d="M26.892,41.914c-0.466,0-0.843,0.378-0.843,0.843s0.378,0.843,0.843,0.843s0.843-0.378,0.843-0.843
		S27.358,41.914,26.892,41.914z"/>
	<path fill="#6D6E71" d="M34.351,41.914c-0.466,0-0.843,0.378-0.843,0.843s0.378,0.843,0.843,0.843s0.843-0.378,0.843-0.843
		S34.817,41.914,34.351,41.914z"/>
	<path fill="#6D6E71" d="M41.811,41.914c-0.466,0-0.843,0.378-0.843,0.843s0.378,0.843,0.843,0.843c0.466,0,0.843-0.378,0.843-0.843
		S42.277,41.914,41.811,41.914z"/>
	<path fill="#6D6E71" d="M49.27,41.914c-0.466,0-0.843,0.378-0.843,0.843S48.805,43.6,49.27,43.6c0.466,0,0.843-0.378,0.843-0.843
		S49.736,41.914,49.27,41.914z"/>
	<path fill="#6D6E71" d="M56.73,41.914c-0.466,0-0.843,0.378-0.843,0.843S56.264,43.6,56.73,43.6s0.843-0.378,0.843-0.843
		S57.195,41.914,56.73,41.914z"/>
	<path fill="#6D6E71" d="M64.189,41.914c-0.466,0-0.843,0.378-0.843,0.843s0.378,0.843,0.843,0.843s0.843-0.378,0.843-0.843
		S64.655,41.914,64.189,41.914z"/>
	<path fill="#6D6E71" d="M71.649,41.914c-0.466,0-0.843,0.378-0.843,0.843s0.378,0.843,0.843,0.843c0.466,0,0.843-0.378,0.843-0.843
		S72.114,41.914,71.649,41.914z"/>
	<path fill="#6D6E71" d="M79.108,41.914c-0.466,0-0.843,0.378-0.843,0.843s0.378,0.843,0.843,0.843s0.843-0.378,0.843-0.843
		S79.574,41.914,79.108,41.914z"/>
	<path fill="#6D6E71" d="M86.568,41.914c-0.466,0-0.843,0.378-0.843,0.843s0.378,0.843,0.843,0.843s0.843-0.378,0.843-0.843
		S87.033,41.914,86.568,41.914z"/>
	<path fill="#6D6E71" d="M94.027,41.914c-0.466,0-0.843,0.378-0.843,0.843s0.378,0.843,0.843,0.843s0.843-0.378,0.843-0.843
		S94.493,41.914,94.027,41.914z"/>
	<path fill="#6D6E71" d="M101.487,41.914c-0.466,0-0.843,0.378-0.843,0.843s0.378,0.843,0.843,0.843
		c0.466,0,0.843-0.378,0.843-0.843S101.952,41.914,101.487,41.914z"/>
	<path fill="#6D6E71" d="M108.946,41.914c-0.466,0-0.843,0.378-0.843,0.843s0.378,0.843,0.843,0.843
		c0.466,0,0.843-0.378,0.843-0.843S109.412,41.914,108.946,41.914z"/>
	<path fill="#6D6E71" d="M116.405,41.914c-0.466,0-0.843,0.378-0.843,0.843s0.378,0.843,0.843,0.843s0.843-0.378,0.843-0.843
		S116.871,41.914,116.405,41.914z"/>
	<path fill="#6D6E71" d="M123.865,41.914c-0.466,0-0.843,0.378-0.843,0.843s0.378,0.843,0.843,0.843s0.843-0.378,0.843-0.843
		S124.331,41.914,123.865,41.914z"/>
	<path fill="#6D6E71" d="M4.514,41.914c-0.466,0-0.843,0.378-0.843,0.843S4.048,43.6,4.514,43.6c0.466,0,0.843-0.378,0.843-0.843
		S4.979,41.914,4.514,41.914z"/>
	<circle fill="#6D6E71" cx="7.4" cy="50.816" r="0.843"/>
	<path fill="#6D6E71" d="M14.859,51.659c0.466,0,0.843-0.378,0.843-0.843s-0.378-0.843-0.843-0.843
		c-0.466,0-0.843,0.378-0.843,0.843S14.394,51.659,14.859,51.659z"/>
	<path fill="#6D6E71" d="M22.319,51.659c0.466,0,0.843-0.378,0.843-0.843s-0.378-0.843-0.843-0.843
		c-0.466,0-0.843,0.378-0.843,0.843S21.853,51.659,22.319,51.659z"/>
	<path fill="#6D6E71" d="M29.778,51.659c0.466,0,0.843-0.378,0.843-0.843s-0.378-0.843-0.843-0.843s-0.843,0.378-0.843,0.843
		S29.313,51.659,29.778,51.659z"/>
	<circle fill="#6D6E71" cx="37.238" cy="50.816" r="0.843"/>
	<path fill="#6D6E71" d="M44.697,51.659c0.466,0,0.843-0.378,0.843-0.843s-0.378-0.843-0.843-0.843s-0.843,0.378-0.843,0.843
		S44.232,51.659,44.697,51.659z"/>
	<path fill="#6D6E71" d="M52.157,51.659c0.466,0,0.843-0.378,0.843-0.843s-0.378-0.843-0.843-0.843
		c-0.466,0-0.843,0.378-0.843,0.843S51.691,51.659,52.157,51.659z"/>
	<path fill="#6D6E71" d="M59.616,51.659c0.466,0,0.843-0.378,0.843-0.843s-0.378-0.843-0.843-0.843
		c-0.466,0-0.843,0.378-0.843,0.843S59.151,51.659,59.616,51.659z"/>
	<circle fill="#6D6E71" cx="67.076" cy="50.816" r="0.843"/>
	<path fill="#6D6E71" d="M74.535,51.659c0.466,0,0.843-0.378,0.843-0.843s-0.378-0.843-0.843-0.843
		c-0.466,0-0.843,0.378-0.843,0.843S74.069,51.659,74.535,51.659z"/>
	<path fill="#6D6E71" d="M81.995,51.659c0.466,0,0.843-0.378,0.843-0.843s-0.378-0.843-0.843-0.843
		c-0.466,0-0.843,0.378-0.843,0.843S81.529,51.659,81.995,51.659z"/>
	<path fill="#6D6E71" d="M89.454,51.659c0.466,0,0.843-0.378,0.843-0.843s-0.378-0.843-0.843-0.843s-0.843,0.378-0.843,0.843
		S88.988,51.659,89.454,51.659z"/>
	<circle fill="#6D6E71" cx="96.914" cy="50.816" r="0.843"/>
	<path fill="#6D6E71" d="M104.373,51.659c0.466,0,0.843-0.378,0.843-0.843s-0.378-0.843-0.843-0.843s-0.843,0.378-0.843,0.843
		S103.907,51.659,104.373,51.659z"/>
	<path fill="#6D6E71" d="M111.832,51.659c0.466,0,0.843-0.378,0.843-0.843s-0.378-0.843-0.843-0.843
		c-0.466,0-0.843,0.378-0.843,0.843S111.367,51.659,111.832,51.659z"/>
	<path fill="#6D6E71" d="M119.292,51.659c0.466,0,0.843-0.378,0.843-0.843s-0.378-0.843-0.843-0.843
		c-0.466,0-0.843,0.378-0.843,0.843S118.826,51.659,119.292,51.659z"/>
	<path fill="#6D6E71" d="M11.973,58.6c0.466,0,0.843-0.378,0.843-0.843s-0.378-0.843-0.843-0.843c-0.466,0-0.843,0.378-0.843,0.843
		S11.507,58.6,11.973,58.6z"/>
	<path fill="#6D6E71" d="M19.432,58.6c0.466,0,0.843-0.378,0.843-0.843s-0.378-0.843-0.843-0.843s-0.843,0.378-0.843,0.843
		S18.967,58.6,19.432,58.6z"/>
	<path fill="#6D6E71" d="M26.892,58.6c0.466,0,0.843-0.378,0.843-0.843s-0.378-0.843-0.843-0.843s-0.843,0.378-0.843,0.843
		S26.426,58.6,26.892,58.6z"/>
	<path fill="#6D6E71" d="M34.351,58.6c0.466,0,0.843-0.378,0.843-0.843s-0.378-0.843-0.843-0.843s-0.843,0.378-0.843,0.843
		S33.886,58.6,34.351,58.6z"/>
	<path fill="#6D6E71" d="M41.811,58.6c0.466,0,0.843-0.378,0.843-0.843s-0.378-0.843-0.843-0.843c-0.466,0-0.843,0.378-0.843,0.843
		S41.345,58.6,41.811,58.6z"/>
	<path fill="#6D6E71" d="M49.27,58.6c0.466,0,0.843-0.378,0.843-0.843s-0.378-0.843-0.843-0.843c-0.466,0-0.843,0.378-0.843,0.843
		S48.805,58.6,49.27,58.6z"/>
	<path fill="#6D6E71" d="M56.73,58.6c0.466,0,0.843-0.378,0.843-0.843s-0.378-0.843-0.843-0.843s-0.843,0.378-0.843,0.843
		S56.264,58.6,56.73,58.6z"/>
	<path fill="#6D6E71" d="M64.189,58.6c0.466,0,0.843-0.378,0.843-0.843s-0.378-0.843-0.843-0.843s-0.843,0.378-0.843,0.843
		S63.724,58.6,64.189,58.6z"/>
	<path fill="#6D6E71" d="M71.649,58.6c0.466,0,0.843-0.378,0.843-0.843s-0.378-0.843-0.843-0.843c-0.466,0-0.843,0.378-0.843,0.843
		S71.183,58.6,71.649,58.6z"/>
	<path fill="#6D6E71" d="M79.108,58.6c0.466,0,0.843-0.378,0.843-0.843s-0.378-0.843-0.843-0.843s-0.843,0.378-0.843,0.843
		S78.642,58.6,79.108,58.6z"/>
	<path fill="#6D6E71" d="M86.568,58.6c0.466,0,0.843-0.378,0.843-0.843s-0.378-0.843-0.843-0.843s-0.843,0.378-0.843,0.843
		S86.102,58.6,86.568,58.6z"/>
	<path fill="#6D6E71" d="M94.027,58.6c0.466,0,0.843-0.378,0.843-0.843s-0.378-0.843-0.843-0.843s-0.843,0.378-0.843,0.843
		S93.561,58.6,94.027,58.6z"/>
	<path fill="#6D6E71" d="M101.487,58.6c0.466,0,0.843-0.378,0.843-0.843s-0.378-0.843-0.843-0.843c-0.466,0-0.843,0.378-0.843,0.843
		S101.021,58.6,101.487,58.6z"/>
	<path fill="#6D6E71" d="M108.946,58.6c0.466,0,0.843-0.378,0.843-0.843s-0.378-0.843-0.843-0.843c-0.466,0-0.843,0.378-0.843,0.843
		S108.48,58.6,108.946,58.6z"/>
	<path fill="#6D6E71" d="M116.405,58.6c0.466,0,0.843-0.378,0.843-0.843s-0.378-0.843-0.843-0.843s-0.843,0.378-0.843,0.843
		S115.94,58.6,116.405,58.6z"/>
	<path fill="#6D6E71" d="M123.865,58.6c0.466,0,0.843-0.378,0.843-0.843s-0.378-0.843-0.843-0.843s-0.843,0.378-0.843,0.843
		S123.399,58.6,123.865,58.6z"/>
	<path fill="#6D6E71" d="M4.514,58.6c0.466,0,0.843-0.378,0.843-0.843s-0.378-0.843-0.843-0.843c-0.466,0-0.843,0.378-0.843,0.843
		S4.048,58.6,4.514,58.6z"/>
	<path fill="#6D6E71" d="M7.522,64.422c-0.466,0-0.843,0.378-0.843,0.843s0.378,0.843,0.843,0.843c0.466,0,0.843-0.378,0.843-0.843
		S7.987,64.422,7.522,64.422z"/>
	<path fill="#6D6E71" d="M14.981,64.422c-0.466,0-0.843,0.378-0.843,0.843s0.378,0.843,0.843,0.843s0.843-0.378,0.843-0.843
		S15.447,64.422,14.981,64.422z"/>
	<path fill="#6D6E71" d="M22.441,64.422c-0.466,0-0.843,0.378-0.843,0.843s0.378,0.843,0.843,0.843s0.843-0.378,0.843-0.843
		S22.906,64.422,22.441,64.422z"/>
	<path fill="#6D6E71" d="M29.9,64.422c-0.466,0-0.843,0.378-0.843,0.843s0.378,0.843,0.843,0.843s0.843-0.378,0.843-0.843
		S30.366,64.422,29.9,64.422z"/>
	<path fill="#6D6E71" d="M37.359,64.422c-0.466,0-0.843,0.378-0.843,0.843s0.378,0.843,0.843,0.843c0.466,0,0.843-0.378,0.843-0.843
		S37.825,64.422,37.359,64.422z"/>
	<path fill="#6D6E71" d="M44.819,64.422c-0.466,0-0.843,0.378-0.843,0.843s0.378,0.843,0.843,0.843c0.466,0,0.843-0.378,0.843-0.843
		S45.285,64.422,44.819,64.422z"/>
	<path fill="#6D6E71" d="M52.278,64.422c-0.466,0-0.843,0.378-0.843,0.843s0.378,0.843,0.843,0.843s0.843-0.378,0.843-0.843
		S52.744,64.422,52.278,64.422z"/>
	<path fill="#6D6E71" d="M59.738,64.422c-0.466,0-0.843,0.378-0.843,0.843s0.378,0.843,0.843,0.843s0.843-0.378,0.843-0.843
		S60.204,64.422,59.738,64.422z"/>
	<path fill="#6D6E71" d="M67.197,64.422c-0.466,0-0.843,0.378-0.843,0.843s0.378,0.843,0.843,0.843c0.466,0,0.843-0.378,0.843-0.843
		S67.663,64.422,67.197,64.422z"/>
	<path fill="#6D6E71" d="M74.657,64.422c-0.466,0-0.843,0.378-0.843,0.843s0.378,0.843,0.843,0.843c0.466,0,0.843-0.378,0.843-0.843
		S75.122,64.422,74.657,64.422z"/>
	<path fill="#6D6E71" d="M82.116,64.422c-0.466,0-0.843,0.378-0.843,0.843s0.378,0.843,0.843,0.843s0.843-0.378,0.843-0.843
		S82.582,64.422,82.116,64.422z"/>
	<path fill="#6D6E71" d="M89.576,64.422c-0.466,0-0.843,0.378-0.843,0.843s0.378,0.843,0.843,0.843s0.843-0.378,0.843-0.843
		S90.041,64.422,89.576,64.422z"/>
	<path fill="#6D6E71" d="M97.035,64.422c-0.466,0-0.843,0.378-0.843,0.843s0.378,0.843,0.843,0.843c0.466,0,0.843-0.378,0.843-0.843
		S97.501,64.422,97.035,64.422z"/>
	<path fill="#6D6E71" d="M104.495,64.422c-0.466,0-0.843,0.378-0.843,0.843s0.378,0.843,0.843,0.843
		c0.466,0,0.843-0.378,0.843-0.843S104.96,64.422,104.495,64.422z"/>
	<path fill="#6D6E71" d="M111.954,64.422c-0.466,0-0.843,0.378-0.843,0.843s0.378,0.843,0.843,0.843s0.843-0.378,0.843-0.843
		S112.42,64.422,111.954,64.422z"/>
	<path fill="#6D6E71" d="M119.414,64.422c-0.466,0-0.843,0.378-0.843,0.843s0.378,0.843,0.843,0.843s0.843-0.378,0.843-0.843
		S119.879,64.422,119.414,64.422z"/>
	<circle fill="#6D6E71" cx="12.095" cy="72.205" r="0.843"/>
	<circle fill="#6D6E71" cx="19.554" cy="72.205" r="0.843"/>
	<path fill="#6D6E71" d="M27.014,71.362c-0.466,0-0.843,0.378-0.843,0.843s0.378,0.843,0.843,0.843c0.466,0,0.843-0.378,0.843-0.843
		S27.479,71.362,27.014,71.362z"/>
	<path fill="#6D6E71" d="M34.473,71.362c-0.466,0-0.843,0.378-0.843,0.843s0.378,0.843,0.843,0.843c0.466,0,0.843-0.378,0.843-0.843
		S34.939,71.362,34.473,71.362z"/>
	<path fill="#6D6E71" d="M41.932,71.362c-0.466,0-0.843,0.378-0.843,0.843s0.378,0.843,0.843,0.843s0.843-0.378,0.843-0.843
		S42.398,71.362,41.932,71.362z"/>
	<circle fill="#6D6E71" cx="49.392" cy="72.205" r="0.843"/>
	<path fill="#6D6E71" d="M56.851,71.362c-0.466,0-0.843,0.378-0.843,0.843s0.378,0.843,0.843,0.843s0.843-0.378,0.843-0.843
		S57.317,71.362,56.851,71.362z"/>
	<path fill="#6D6E71" d="M64.311,71.362c-0.466,0-0.843,0.378-0.843,0.843s0.378,0.843,0.843,0.843c0.466,0,0.843-0.378,0.843-0.843
		S64.777,71.362,64.311,71.362z"/>
	<circle fill="#6D6E71" cx="71.77" cy="72.205" r="0.843"/>
	<circle fill="#6D6E71" cx="79.23" cy="72.205" r="0.843"/>
	<path fill="#6D6E71" d="M86.689,71.362c-0.466,0-0.843,0.378-0.843,0.843s0.378,0.843,0.843,0.843c0.466,0,0.843-0.378,0.843-0.843
		S87.155,71.362,86.689,71.362z"/>
	<path fill="#6D6E71" d="M94.149,71.362c-0.466,0-0.843,0.378-0.843,0.843s0.378,0.843,0.843,0.843c0.466,0,0.843-0.378,0.843-0.843
		S94.614,71.362,94.149,71.362z"/>
	<path fill="#6D6E71" d="M101.608,71.362c-0.466,0-0.843,0.378-0.843,0.843s0.378,0.843,0.843,0.843s0.843-0.378,0.843-0.843
		S102.074,71.362,101.608,71.362z"/>
	<circle fill="#6D6E71" cx="109.068" cy="72.205" r="0.843"/>
	<circle fill="#6D6E71" cx="116.527" cy="72.205" r="0.843"/>
	<path fill="#6D6E71" d="M123.987,71.362c-0.466,0-0.843,0.378-0.843,0.843s0.378,0.843,0.843,0.843
		c0.466,0,0.843-0.378,0.843-0.843S124.452,71.362,123.987,71.362z"/>
	<path fill="#6D6E71" d="M4.635,71.362c-0.466,0-0.843,0.378-0.843,0.843s0.378,0.843,0.843,0.843c0.466,0,0.843-0.378,0.843-0.843
		S5.101,71.362,4.635,71.362z"/>
	<path fill="#6D6E71" d="M7.522,79.422c-0.466,0-0.843,0.378-0.843,0.843s0.378,0.843,0.843,0.843c0.466,0,0.843-0.378,0.843-0.843
		S7.987,79.422,7.522,79.422z"/>
	<path fill="#6D6E71" d="M14.981,81.108c0.466,0,0.843-0.378,0.843-0.843s-0.378-0.843-0.843-0.843s-0.843,0.378-0.843,0.843
		S14.515,81.108,14.981,81.108z"/>
	<path fill="#6D6E71" d="M22.441,81.108c0.466,0,0.843-0.378,0.843-0.843s-0.378-0.843-0.843-0.843s-0.843,0.378-0.843,0.843
		S21.975,81.108,22.441,81.108z"/>
	<path fill="#6D6E71" d="M29.9,81.108c0.466,0,0.843-0.378,0.843-0.843s-0.378-0.843-0.843-0.843s-0.843,0.378-0.843,0.843
		S29.434,81.108,29.9,81.108z"/>
	<path fill="#6D6E71" d="M37.359,81.108c0.466,0,0.843-0.378,0.843-0.843s-0.378-0.843-0.843-0.843
		c-0.466,0-0.843,0.378-0.843,0.843S36.894,81.108,37.359,81.108z"/>
	<path fill="#6D6E71" d="M44.819,81.108c0.466,0,0.843-0.378,0.843-0.843s-0.378-0.843-0.843-0.843
		c-0.466,0-0.843,0.378-0.843,0.843S44.353,81.108,44.819,81.108z"/>
	<path fill="#6D6E71" d="M52.278,81.108c0.466,0,0.843-0.378,0.843-0.843s-0.378-0.843-0.843-0.843s-0.843,0.378-0.843,0.843
		S51.813,81.108,52.278,81.108z"/>
	<path fill="#6D6E71" d="M59.738,81.108c0.466,0,0.843-0.378,0.843-0.843s-0.378-0.843-0.843-0.843s-0.843,0.378-0.843,0.843
		S59.272,81.108,59.738,81.108z"/>
	<path fill="#6D6E71" d="M67.197,81.108c0.466,0,0.843-0.378,0.843-0.843s-0.378-0.843-0.843-0.843
		c-0.466,0-0.843,0.378-0.843,0.843S66.732,81.108,67.197,81.108z"/>
	<path fill="#6D6E71" d="M74.657,81.108c0.466,0,0.843-0.378,0.843-0.843s-0.378-0.843-0.843-0.843
		c-0.466,0-0.843,0.378-0.843,0.843S74.191,81.108,74.657,81.108z"/>
	<path fill="#6D6E71" d="M82.116,81.108c0.466,0,0.843-0.378,0.843-0.843s-0.378-0.843-0.843-0.843s-0.843,0.378-0.843,0.843
		S81.651,81.108,82.116,81.108z"/>
	<path fill="#6D6E71" d="M89.576,81.108c0.466,0,0.843-0.378,0.843-0.843s-0.378-0.843-0.843-0.843s-0.843,0.378-0.843,0.843
		S89.11,81.108,89.576,81.108z"/>
	<path fill="#6D6E71" d="M97.035,81.108c0.466,0,0.843-0.378,0.843-0.843s-0.378-0.843-0.843-0.843
		c-0.466,0-0.843,0.378-0.843,0.843S96.569,81.108,97.035,81.108z"/>
	<path fill="#6D6E71" d="M104.495,81.108c0.466,0,0.843-0.378,0.843-0.843s-0.378-0.843-0.843-0.843
		c-0.466,0-0.843,0.378-0.843,0.843S104.029,81.108,104.495,81.108z"/>
	<path fill="#6D6E71" d="M111.954,81.108c0.466,0,0.843-0.378,0.843-0.843s-0.378-0.843-0.843-0.843s-0.843,0.378-0.843,0.843
		S111.488,81.108,111.954,81.108z"/>
	<path fill="#6D6E71" d="M119.414,81.108c0.466,0,0.843-0.378,0.843-0.843s-0.378-0.843-0.843-0.843s-0.843,0.378-0.843,0.843
		S118.948,81.108,119.414,81.108z"/>
	<circle fill="#6D6E71" cx="12.095" cy="87.205" r="0.843"/>
	<circle fill="#6D6E71" cx="19.554" cy="87.205" r="0.843"/>
	<path fill="#6D6E71" d="M27.014,88.049c0.466,0,0.843-0.378,0.843-0.843s-0.378-0.843-0.843-0.843
		c-0.466,0-0.843,0.378-0.843,0.843S26.548,88.049,27.014,88.049z"/>
	<path fill="#6D6E71" d="M34.473,88.049c0.466,0,0.843-0.378,0.843-0.843s-0.378-0.843-0.843-0.843
		c-0.466,0-0.843,0.378-0.843,0.843S34.007,88.049,34.473,88.049z"/>
	<path fill="#6D6E71" d="M41.932,88.049c0.466,0,0.843-0.378,0.843-0.843s-0.378-0.843-0.843-0.843s-0.843,0.378-0.843,0.843
		S41.467,88.049,41.932,88.049z"/>
	<circle fill="#6D6E71" cx="49.392" cy="87.205" r="0.843"/>
	<path fill="#6D6E71" d="M56.851,88.049c0.466,0,0.843-0.378,0.843-0.843s-0.378-0.843-0.843-0.843s-0.843,0.378-0.843,0.843
		S56.386,88.049,56.851,88.049z"/>
	<path fill="#6D6E71" d="M64.311,88.049c0.466,0,0.843-0.378,0.843-0.843s-0.378-0.843-0.843-0.843
		c-0.466,0-0.843,0.378-0.843,0.843S63.845,88.049,64.311,88.049z"/>
	<circle fill="#6D6E71" cx="71.77" cy="87.205" r="0.843"/>
	<circle fill="#6D6E71" cx="79.23" cy="87.205" r="0.843"/>
	<path fill="#6D6E71" d="M86.689,88.049c0.466,0,0.843-0.378,0.843-0.843s-0.378-0.843-0.843-0.843
		c-0.466,0-0.843,0.378-0.843,0.843S86.223,88.049,86.689,88.049z"/>
	<path fill="#6D6E71" d="M94.149,88.049c0.466,0,0.843-0.378,0.843-0.843s-0.378-0.843-0.843-0.843
		c-0.466,0-0.843,0.378-0.843,0.843S93.683,88.049,94.149,88.049z"/>
	<path fill="#6D6E71" d="M101.608,88.049c0.466,0,0.843-0.378,0.843-0.843s-0.378-0.843-0.843-0.843s-0.843,0.378-0.843,0.843
		S101.142,88.049,101.608,88.049z"/>
	<circle fill="#6D6E71" cx="109.068" cy="87.205" r="0.843"/>
	<circle fill="#6D6E71" cx="116.527" cy="87.205" r="0.843"/>
	<path fill="#6D6E71" d="M123.987,88.049c0.466,0,0.843-0.378,0.843-0.843s-0.378-0.843-0.843-0.843
		c-0.466,0-0.843,0.378-0.843,0.843S123.521,88.049,123.987,88.049z"/>
	<path fill="#6D6E71" d="M4.635,88.049c0.466,0,0.843-0.378,0.843-0.843s-0.378-0.843-0.843-0.843c-0.466,0-0.843,0.378-0.843,0.843
		S4.169,88.049,4.635,88.049z"/>
	<path fill="#6D6E71" d="M7.765,93.422c-0.466,0-0.843,0.378-0.843,0.843s0.378,0.843,0.843,0.843s0.843-0.378,0.843-0.843
		S8.231,93.422,7.765,93.422z"/>
	<path fill="#6D6E71" d="M15.224,93.422c-0.466,0-0.843,0.378-0.843,0.843s0.378,0.843,0.843,0.843c0.466,0,0.843-0.378,0.843-0.843
		S15.69,93.422,15.224,93.422z"/>
	<path fill="#6D6E71" d="M22.684,93.422c-0.466,0-0.843,0.378-0.843,0.843s0.378,0.843,0.843,0.843c0.466,0,0.843-0.378,0.843-0.843
		S23.15,93.422,22.684,93.422z"/>
	<path fill="#6D6E71" d="M30.143,93.422c-0.466,0-0.843,0.378-0.843,0.843s0.378,0.843,0.843,0.843s0.843-0.378,0.843-0.843
		S30.609,93.422,30.143,93.422z"/>
	<path fill="#6D6E71" d="M37.603,93.422c-0.466,0-0.843,0.378-0.843,0.843s0.378,0.843,0.843,0.843s0.843-0.378,0.843-0.843
		S38.068,93.422,37.603,93.422z"/>
	<path fill="#6D6E71" d="M45.062,93.422c-0.466,0-0.843,0.378-0.843,0.843s0.378,0.843,0.843,0.843s0.843-0.378,0.843-0.843
		S45.528,93.422,45.062,93.422z"/>
	<path fill="#6D6E71" d="M52.522,93.422c-0.466,0-0.843,0.378-0.843,0.843s0.378,0.843,0.843,0.843c0.466,0,0.843-0.378,0.843-0.843
		S52.987,93.422,52.522,93.422z"/>
	<path fill="#6D6E71" d="M59.981,93.422c-0.466,0-0.843,0.378-0.843,0.843s0.378,0.843,0.843,0.843s0.843-0.378,0.843-0.843
		S60.447,93.422,59.981,93.422z"/>
	<path fill="#6D6E71" d="M67.441,93.422c-0.466,0-0.843,0.378-0.843,0.843s0.378,0.843,0.843,0.843s0.843-0.378,0.843-0.843
		S67.906,93.422,67.441,93.422z"/>
	<path fill="#6D6E71" d="M74.9,93.422c-0.466,0-0.843,0.378-0.843,0.843s0.378,0.843,0.843,0.843c0.466,0,0.843-0.378,0.843-0.843
		S75.366,93.422,74.9,93.422z"/>
	<path fill="#6D6E71" d="M82.359,93.422c-0.466,0-0.843,0.378-0.843,0.843s0.378,0.843,0.843,0.843c0.466,0,0.843-0.378,0.843-0.843
		S82.825,93.422,82.359,93.422z"/>
	<path fill="#6D6E71" d="M89.819,93.422c-0.466,0-0.843,0.378-0.843,0.843s0.378,0.843,0.843,0.843s0.843-0.378,0.843-0.843
		S90.285,93.422,89.819,93.422z"/>
	<path fill="#6D6E71" d="M97.278,93.422c-0.466,0-0.843,0.378-0.843,0.843s0.378,0.843,0.843,0.843s0.843-0.378,0.843-0.843
		S97.744,93.422,97.278,93.422z"/>
	<path fill="#6D6E71" d="M104.738,93.422c-0.466,0-0.843,0.378-0.843,0.843s0.378,0.843,0.843,0.843s0.843-0.378,0.843-0.843
		S105.204,93.422,104.738,93.422z"/>
	<path fill="#6D6E71" d="M112.197,93.422c-0.466,0-0.843,0.378-0.843,0.843s0.378,0.843,0.843,0.843
		c0.466,0,0.843-0.378,0.843-0.843S112.663,93.422,112.197,93.422z"/>
	<path fill="#6D6E71" d="M119.657,93.422c-0.466,0-0.843,0.378-0.843,0.843s0.378,0.843,0.843,0.843
		c0.466,0,0.843-0.378,0.843-0.843S120.122,93.422,119.657,93.422z"/>
	<path fill="#6D6E71" d="M12.338,100.362c-0.466,0-0.843,0.378-0.843,0.843s0.378,0.843,0.843,0.843
		c0.466,0,0.843-0.378,0.843-0.843S12.804,100.362,12.338,100.362z"/>
	<circle fill="#6D6E71" cx="19.797" cy="101.205" r="0.843"/>
	<circle fill="#6D6E71" cx="27.257" cy="101.205" r="0.843"/>
	<path fill="#6D6E71" d="M34.716,100.362c-0.466,0-0.843,0.378-0.843,0.843s0.378,0.843,0.843,0.843s0.843-0.378,0.843-0.843
		S35.182,100.362,34.716,100.362z"/>
	<path fill="#6D6E71" d="M42.176,100.362c-0.466,0-0.843,0.378-0.843,0.843s0.378,0.843,0.843,0.843
		c0.466,0,0.843-0.378,0.843-0.843S42.641,100.362,42.176,100.362z"/>
	<path fill="#6D6E71" d="M49.635,100.362c-0.466,0-0.843,0.378-0.843,0.843s0.378,0.843,0.843,0.843
		c0.466,0,0.843-0.378,0.843-0.843S50.101,100.362,49.635,100.362z"/>
	<circle fill="#6D6E71" cx="57.095" cy="101.205" r="0.843"/>
	<path fill="#6D6E71" d="M64.554,100.362c-0.466,0-0.843,0.378-0.843,0.843s0.378,0.843,0.843,0.843
		c0.466,0,0.843-0.378,0.843-0.843S65.02,100.362,64.554,100.362z"/>
	<path fill="#6D6E71" d="M72.013,100.362c-0.466,0-0.843,0.378-0.843,0.843s0.378,0.843,0.843,0.843
		c0.466,0,0.843-0.378,0.843-0.843S72.479,100.362,72.013,100.362z"/>
	<circle fill="#6D6E71" cx="79.473" cy="101.205" r="0.843"/>
	<circle fill="#6D6E71" cx="86.932" cy="101.205" r="0.843"/>
	<path fill="#6D6E71" d="M94.392,100.362c-0.466,0-0.843,0.378-0.843,0.843s0.378,0.843,0.843,0.843s0.843-0.378,0.843-0.843
		S94.858,100.362,94.392,100.362z"/>
	<path fill="#6D6E71" d="M101.851,100.362c-0.466,0-0.843,0.378-0.843,0.843s0.378,0.843,0.843,0.843
		c0.466,0,0.843-0.378,0.843-0.843S102.317,100.362,101.851,100.362z"/>
	<path fill="#6D6E71" d="M109.311,100.362c-0.466,0-0.843,0.378-0.843,0.843s0.378,0.843,0.843,0.843
		c0.466,0,0.843-0.378,0.843-0.843S109.777,100.362,109.311,100.362z"/>
	<circle fill="#6D6E71" cx="116.77" cy="101.205" r="0.843"/>
	<circle fill="#6D6E71" cx="124.23" cy="101.205" r="0.843"/>
	<path fill="#6D6E71" d="M4.878,100.362c-0.466,0-0.843,0.378-0.843,0.843s0.378,0.843,0.843,0.843c0.466,0,0.843-0.378,0.843-0.843
		S5.344,100.362,4.878,100.362z"/>
	<path fill="#6D6E71" d="M7.765,108.422c-0.466,0-0.843,0.378-0.843,0.843s0.378,0.843,0.843,0.843s0.843-0.378,0.843-0.843
		S8.231,108.422,7.765,108.422z"/>
	<path fill="#6D6E71" d="M16.068,109.265c0-0.466-0.378-0.843-0.843-0.843c-0.466,0-0.843,0.378-0.843,0.843
		s0.378,0.843,0.843,0.843C15.69,110.108,16.068,109.731,16.068,109.265z"/>
	<path fill="#6D6E71" d="M23.527,109.265c0-0.466-0.378-0.843-0.843-0.843c-0.466,0-0.843,0.378-0.843,0.843
		s0.378,0.843,0.843,0.843C23.15,110.108,23.527,109.731,23.527,109.265z"/>
	<path fill="#6D6E71" d="M30.987,109.265c0-0.466-0.378-0.843-0.843-0.843s-0.843,0.378-0.843,0.843s0.378,0.843,0.843,0.843
		S30.987,109.731,30.987,109.265z"/>
	<path fill="#6D6E71" d="M38.446,109.265c0-0.466-0.378-0.843-0.843-0.843s-0.843,0.378-0.843,0.843s0.378,0.843,0.843,0.843
		S38.446,109.731,38.446,109.265z"/>
	<path fill="#6D6E71" d="M45.905,109.265c0-0.466-0.378-0.843-0.843-0.843s-0.843,0.378-0.843,0.843s0.378,0.843,0.843,0.843
		S45.905,109.731,45.905,109.265z"/>
	<path fill="#6D6E71" d="M53.365,109.265c0-0.466-0.378-0.843-0.843-0.843c-0.466,0-0.843,0.378-0.843,0.843
		s0.378,0.843,0.843,0.843C52.987,110.108,53.365,109.731,53.365,109.265z"/>
	<path fill="#6D6E71" d="M60.824,109.265c0-0.466-0.378-0.843-0.843-0.843s-0.843,0.378-0.843,0.843s0.378,0.843,0.843,0.843
		S60.824,109.731,60.824,109.265z"/>
	<path fill="#6D6E71" d="M68.284,109.265c0-0.466-0.378-0.843-0.843-0.843s-0.843,0.378-0.843,0.843s0.378,0.843,0.843,0.843
		S68.284,109.731,68.284,109.265z"/>
	<path fill="#6D6E71" d="M75.743,109.265c0-0.466-0.378-0.843-0.843-0.843c-0.466,0-0.843,0.378-0.843,0.843
		s0.378,0.843,0.843,0.843C75.366,110.108,75.743,109.731,75.743,109.265z"/>
	<path fill="#6D6E71" d="M83.203,109.265c0-0.466-0.378-0.843-0.843-0.843c-0.466,0-0.843,0.378-0.843,0.843
		s0.378,0.843,0.843,0.843C82.825,110.108,83.203,109.731,83.203,109.265z"/>
	<path fill="#6D6E71" d="M90.662,109.265c0-0.466-0.378-0.843-0.843-0.843s-0.843,0.378-0.843,0.843s0.378,0.843,0.843,0.843
		S90.662,109.731,90.662,109.265z"/>
	<path fill="#6D6E71" d="M98.122,109.265c0-0.466-0.378-0.843-0.843-0.843s-0.843,0.378-0.843,0.843s0.378,0.843,0.843,0.843
		S98.122,109.731,98.122,109.265z"/>
	<path fill="#6D6E71" d="M105.581,109.265c0-0.466-0.378-0.843-0.843-0.843s-0.843,0.378-0.843,0.843s0.378,0.843,0.843,0.843
		S105.581,109.731,105.581,109.265z"/>
	<path fill="#6D6E71" d="M113.041,109.265c0-0.466-0.378-0.843-0.843-0.843c-0.466,0-0.843,0.378-0.843,0.843
		s0.378,0.843,0.843,0.843C112.663,110.108,113.041,109.731,113.041,109.265z"/>
	<path fill="#6D6E71" d="M119.657,108.422c-0.466,0-0.843,0.378-0.843,0.843s0.378,0.843,0.843,0.843
		c0.466,0,0.843-0.378,0.843-0.843S120.122,108.422,119.657,108.422z"/>
	<path fill="#6D6E71" d="M12.338,115.362c-0.466,0-0.843,0.378-0.843,0.843s0.378,0.843,0.843,0.843
		c0.466,0,0.843-0.378,0.843-0.843S12.804,115.362,12.338,115.362z"/>
	<circle fill="#6D6E71" cx="19.797" cy="116.205" r="0.843"/>
	<circle fill="#6D6E71" cx="27.257" cy="116.205" r="0.843"/>
	<path fill="#6D6E71" d="M34.716,115.362c-0.466,0-0.843,0.378-0.843,0.843s0.378,0.843,0.843,0.843s0.843-0.378,0.843-0.843
		S35.182,115.362,34.716,115.362z"/>
	<path fill="#6D6E71" d="M42.176,115.362c-0.466,0-0.843,0.378-0.843,0.843s0.378,0.843,0.843,0.843
		c0.466,0,0.843-0.378,0.843-0.843S42.641,115.362,42.176,115.362z"/>
	<path fill="#6D6E71" d="M49.635,115.362c-0.466,0-0.843,0.378-0.843,0.843s0.378,0.843,0.843,0.843
		c0.466,0,0.843-0.378,0.843-0.843S50.101,115.362,49.635,115.362z"/>
	<circle fill="#6D6E71" cx="57.095" cy="116.205" r="0.843"/>
	<path fill="#6D6E71" d="M64.554,115.362c-0.466,0-0.843,0.378-0.843,0.843s0.378,0.843,0.843,0.843
		c0.466,0,0.843-0.378,0.843-0.843S65.02,115.362,64.554,115.362z"/>
	<path fill="#6D6E71" d="M72.013,115.362c-0.466,0-0.843,0.378-0.843,0.843s0.378,0.843,0.843,0.843
		c0.466,0,0.843-0.378,0.843-0.843S72.479,115.362,72.013,115.362z"/>
	<circle fill="#6D6E71" cx="79.473" cy="116.205" r="0.843"/>
	<circle fill="#6D6E71" cx="86.932" cy="116.205" r="0.843"/>
	<path fill="#6D6E71" d="M94.392,115.362c-0.466,0-0.843,0.378-0.843,0.843s0.378,0.843,0.843,0.843s0.843-0.378,0.843-0.843
		S94.858,115.362,94.392,115.362z"/>
	<path fill="#6D6E71" d="M101.851,115.362c-0.466,0-0.843,0.378-0.843,0.843s0.378,0.843,0.843,0.843
		c0.466,0,0.843-0.378,0.843-0.843S102.317,115.362,101.851,115.362z"/>
	<path fill="#6D6E71" d="M109.311,115.362c-0.466,0-0.843,0.378-0.843,0.843s0.378,0.843,0.843,0.843
		c0.466,0,0.843-0.378,0.843-0.843S109.777,115.362,109.311,115.362z"/>
	<circle fill="#6D6E71" cx="116.77" cy="116.205" r="0.843"/>
	<circle fill="#6D6E71" cx="124.23" cy="116.205" r="0.843"/>
	<path fill="#6D6E71" d="M4.878,115.362c-0.466,0-0.843,0.378-0.843,0.843s0.378,0.843,0.843,0.843c0.466,0,0.843-0.378,0.843-0.843
		S5.344,115.362,4.878,115.362z"/>
	<path fill="#6D6E71" d="M15.824,121.459c-0.466,0-0.843,0.378-0.843,0.843s0.378,0.843,0.843,0.843s0.843-0.378,0.843-0.843
		S16.29,121.459,15.824,121.459z"/>
	<path fill="#6D6E71" d="M23.284,121.459c-0.466,0-0.843,0.378-0.843,0.843s0.378,0.843,0.843,0.843s0.843-0.378,0.843-0.843
		S23.75,121.459,23.284,121.459z"/>
	<path fill="#6D6E71" d="M30.743,121.459c-0.466,0-0.843,0.378-0.843,0.843s0.378,0.843,0.843,0.843
		c0.466,0,0.843-0.378,0.843-0.843S31.209,121.459,30.743,121.459z"/>
	<path fill="#6D6E71" d="M38.203,121.459c-0.466,0-0.843,0.378-0.843,0.843s0.378,0.843,0.843,0.843
		c0.466,0,0.843-0.378,0.843-0.843S38.668,121.459,38.203,121.459z"/>
	<path fill="#6D6E71" d="M45.662,121.459c-0.466,0-0.843,0.378-0.843,0.843s0.378,0.843,0.843,0.843s0.843-0.378,0.843-0.843
		S46.128,121.459,45.662,121.459z"/>
	<path fill="#6D6E71" d="M53.122,121.459c-0.466,0-0.843,0.378-0.843,0.843s0.378,0.843,0.843,0.843s0.843-0.378,0.843-0.843
		S53.587,121.459,53.122,121.459z"/>
	<path fill="#6D6E71" d="M60.581,121.459c-0.466,0-0.843,0.378-0.843,0.843s0.378,0.843,0.843,0.843
		c0.466,0,0.843-0.378,0.843-0.843S61.047,121.459,60.581,121.459z"/>
	<path fill="#6D6E71" d="M68.041,121.459c-0.466,0-0.843,0.378-0.843,0.843s0.378,0.843,0.843,0.843s0.843-0.378,0.843-0.843
		S68.506,121.459,68.041,121.459z"/>
	<path fill="#6D6E71" d="M75.5,121.459c-0.466,0-0.843,0.378-0.843,0.843s0.378,0.843,0.843,0.843s0.843-0.378,0.843-0.843
		S75.966,121.459,75.5,121.459z"/>
	<path fill="#6D6E71" d="M82.959,121.459c-0.466,0-0.843,0.378-0.843,0.843s0.378,0.843,0.843,0.843s0.843-0.378,0.843-0.843
		S83.425,121.459,82.959,121.459z"/>
	<path fill="#6D6E71" d="M90.419,121.459c-0.466,0-0.843,0.378-0.843,0.843s0.378,0.843,0.843,0.843
		c0.466,0,0.843-0.378,0.843-0.843S90.885,121.459,90.419,121.459z"/>
	<path fill="#6D6E71" d="M97.878,121.459c-0.466,0-0.843,0.378-0.843,0.843s0.378,0.843,0.843,0.843
		c0.466,0,0.843-0.378,0.843-0.843S98.344,121.459,97.878,121.459z"/>
	<path fill="#6D6E71" d="M105.338,121.459c-0.466,0-0.843,0.378-0.843,0.843s0.378,0.843,0.843,0.843s0.843-0.378,0.843-0.843
		S105.804,121.459,105.338,121.459z"/>
	<path fill="#6D6E71" d="M112.797,121.459c-0.466,0-0.843,0.378-0.843,0.843s0.378,0.843,0.843,0.843s0.843-0.378,0.843-0.843
		S113.263,121.459,112.797,121.459z"/>
</g>
</svg>
