<?xml version="1.0" encoding="utf-8"?>
<!-- Generator: Adobe Illustrator 16.0.3, SVG Export Plug-In . SVG Version: 6.00 Build 0)  -->
<!DOCTYPE svg PUBLIC "-//W3C//DTD SVG 1.1//EN" "http://www.w3.org/Graphics/SVG/1.1/DTD/svg11.dtd">
<svg version="1.1" id="Layer_1" xmlns="http://www.w3.org/2000/svg" xmlns:xlink="http://www.w3.org/1999/xlink" x="0px" y="0px"
	 width="128px" height="128px" viewBox="0 0 128 128" enable-background="new 0 0 128 128" xml:space="preserve">
<g>
	<polygon fill="#FFFFFF" points="14.298,0 0,14.298 0,21.228 21.228,0 	"/>
	<polygon fill="#FFFFFF" points="28.514,0 0,28.514 0,35.444 35.444,0 	"/>
	<polygon fill="#FFFFFF" points="42.73,0 0,42.73 0,49.606 49.606,0 	"/>
	<polygon fill="#FFFFFF" points="0.082,0 0,0.082 0,7.013 7.013,0 	"/>
	<polygon fill="#FFFFFF" points="57,0 0,57 0,63.821 63.821,0 	"/>
	<polygon fill="#FFFFFF" points="128,99.536 99.35,128.186 106.28,128.186 128,106.466 	"/>
	<polygon fill="#FFFFFF" points="128,56.942 56.756,128.186 63.578,128.186 128,63.764 	"/>
	<polygon fill="#FFFFFF" points="128,71.157 70.972,128.186 77.848,128.186 128,78.034 	"/>
	<polygon fill="#FFFFFF" points="71.215,0 0,71.215 0,78.037 78.037,0 	"/>
	<polygon fill="#FFFFFF" points="128,42.727 42.541,128.186 49.362,128.186 128,49.548 	"/>
	<polygon fill="#FFFFFF" points="128,85.32 85.134,128.186 92.063,128.186 128,92.25 	"/>
	<polygon fill="#FFFFFF" points="128,113.751 113.565,128.186 120.496,128.186 128,120.682 	"/>
	<polygon fill="#FFFFFF" points="113.864,0 0,113.863 0,120.685 120.686,0 	"/>
	<polygon fill="#FFFFFF" points="128,28.509 28.324,128.186 35.147,128.186 128,35.333 	"/>
	<polygon fill="#FFFFFF" points="99.648,0 0,99.647 0,106.469 106.469,0 	"/>
	<polygon fill="#FFFFFF" points="85.43,0 0,85.431 0,92.253 92.253,0 	"/>
	<polygon fill="#FFFFFF" points="128,127.967 127.781,128.186 128,128.186 	"/>
	<polygon fill="#FFFFFF" points="128,0.079 0,128.08 0,128.186 6.714,128.186 128,6.9 	"/>
	<polygon fill="#FFFFFF" points="128,14.295 14.109,128.186 20.93,128.186 128,21.116 	"/>
</g>
</svg>
