<?xml version="1.0" encoding="utf-8"?>
<!-- Generator: Adobe Illustrator 16.0.3, SVG Export Plug-In . SVG Version: 6.00 Build 0)  -->
<!DOCTYPE svg PUBLIC "-//W3C//DTD SVG 1.1//EN" "http://www.w3.org/Graphics/SVG/1.1/DTD/svg11.dtd">
<svg version="1.1" id="Layer_1" xmlns="http://www.w3.org/2000/svg" xmlns:xlink="http://www.w3.org/1999/xlink" x="0px" y="0px"
	 width="269.53px" height="293.738px" viewBox="0 0 269.53 293.738" enable-background="new 0 0 269.53 293.738"
	 xml:space="preserve">
<linearGradient id="SVGID_1_" gradientUnits="userSpaceOnUse" x1="42.3301" y1="91.207" x2="224.7429" y2="273.6199">
	<stop  offset="0" style="stop-color:#FFFFFF"/>
	<stop  offset="0.174" style="stop-color:#CFCFCF"/>
	<stop  offset="0.3659" style="stop-color:#A2A2A2"/>
	<stop  offset="0.5502" style="stop-color:#7E7E7E"/>
	<stop  offset="0.7222" style="stop-color:#646464"/>
	<stop  offset="0.877" style="stop-color:#545454"/>
	<stop  offset="1" style="stop-color:#4F4F4F"/>
</linearGradient>
<path fill="url(#SVGID_1_)" d="M163.887,216.746v14.545h103.185L133.536,0L0,231.291h103.185v-14.545H24.886l15.681-27.16
	l48.551-25.164l37.293,1.352l-0.771,0.801l-41.866,14.139l-21.569,35.025l28.404-30.412l32.745-16.375l-16.047,16.688l24.54,108.1
	l-16.182-108.074l11.223-18.48l0.89-0.443l0.696,0.551l0.022,1.574l-3.367,6.662l-3.584,4.873l12.464,17.705l-6.059-17.705h15.014
	l-4.989,17.705l12.859-17.705l-4.804-6.199l-2.011-5.336l-0.081-2.186l0.023-0.02l1.582,0.885l9.929,18.119L141.55,293.738
	l21.385-108.1l-13.994-16.191l28.343,15.879l26.753,30.412l-20.651-35.025l-36.713-13.891L145.96,166l32.42-1.578l50.03,29.049
	l-47.591-38.619l-34.456,9.68l32.5-28.808L167.26,86.97l74.926,129.776H163.887z M86.385,154.851l-44.285,32.078l60.992-105.642
	l-14.515,54.436l36.379,28.783L86.385,154.851z M127.677,165.886l0.04-0.066l0.14,0.006L127.677,165.886z M128.074,166.591
	l0.389-0.193l0.009,0.635L128.074,166.591z M128.045,165.279l0.392-0.643l0.011,0.744L128.045,165.279z M143.858,164.466
	l0.365,0.666l-0.337,0.096L143.858,164.466z M144.663,166.062l0.068-0.004l0.021,0.037L144.663,166.062z M170.932,132.646
	l-25.941,32.23l-0.941-1.09l18.886-33.201L136.7,98.802l-29.392,31.784l20.943,33.273l-1.141,1.188l-0.556-0.141l-29.092-32.259
	l7.673-54.899l28.399-49.189l31.14,53.936L170.932,132.646z"/>
</svg>
