<?xml version="1.0" encoding="utf-8"?>
<!-- Generator: Adobe Illustrator 16.0.0, SVG Export Plug-In . SVG Version: 6.00 Build 0)  -->
<!DOCTYPE svg PUBLIC "-//W3C//DTD SVG 1.1//EN" "http://www.w3.org/Graphics/SVG/1.1/DTD/svg11.dtd">
<svg version="1.1" xmlns="http://www.w3.org/2000/svg" xmlns:xlink="http://www.w3.org/1999/xlink" x="0px" y="0px"
	 width="553.333px" height="108.667px" viewBox="0 0 553.333 108.667" enable-background="new 0 0 553.333 108.667"
	 xml:space="preserve">
<g id="Layer_2">
</g>
<g id="Layer_1">
	<g>
		<path fill="#FFFFFF" d="M55.309,9.688c-23.956,0-43.582,18.472-45.447,41.947l24.443,10.106c2.071-1.416,4.573-2.244,7.265-2.244
			c0.241,0,0.481,0.006,0.719,0.02L53.16,43.761c0-0.075-0.002-0.148-0.002-0.222c0-9.484,7.715-17.2,17.199-17.2
			c9.484,0,17.199,7.716,17.199,17.2c0,9.482-7.715,17.199-17.199,17.199c-0.131,0-0.26-0.003-0.39-0.007L54.463,71.794
			c0.008,0.202,0.015,0.407,0.015,0.611c0,7.119-5.791,12.909-12.909,12.909c-6.248,0-11.473-4.461-12.657-10.366l-17.48-7.227
			c5.412,19.143,22.999,33.176,43.876,33.176c25.187,0,45.605-20.419,45.605-45.604C100.914,30.105,80.496,9.688,55.309,9.688"/>
		<path fill="#FFFFFF" d="M38.44,78.887l-5.602-2.314c0.994,2.066,2.711,3.797,4.992,4.748c4.928,2.054,10.612-0.285,12.667-5.218
			c0.994-2.388,1.001-5.021,0.015-7.413c-0.985-2.393-2.843-4.259-5.232-5.255c-2.369-0.986-4.909-0.949-7.14-0.107l5.787,2.392
			c3.636,1.517,5.355,5.691,3.841,9.327C46.253,78.683,42.076,80.402,38.44,78.887"/>
		<path fill="#FFFFFF" d="M81.817,43.539c0-6.319-5.141-11.46-11.46-11.46c-6.319,0-11.461,5.141-11.461,11.46
			s5.142,11.459,11.461,11.459C76.676,54.998,81.817,49.857,81.817,43.539 M61.767,43.519c0-4.755,3.855-8.608,8.609-8.608
			c4.755,0,8.609,3.853,8.609,8.608s-3.854,8.608-8.609,8.608C65.622,52.126,61.767,48.273,61.767,43.519"/>
		<polygon fill="#FFFFFF" points="424.016,32.929 443.145,32.929 443.145,84.317 449.143,84.317 449.143,32.929 468.191,32.929 
			468.191,27.58 424.016,27.58 		"/>
		<polygon fill="#FFFFFF" points="503.854,78.886 484.805,27.58 478.24,27.58 499.8,84.317 507.501,84.317 528.9,27.58 
			522.334,27.58 		"/>
		<path fill="#FFFFFF" d="M148.002,51.802c-8.516-3.058-14.249-4.15-14.249-8.845c0-3.867,3.229-6.022,8.442-6.022
			c4.559,0,9.783,1.618,13.642,4.313l5.004-8.799c-3.749-2.848-10.503-5.511-18.905-5.511c-12.062,0-20.439,6.011-20.439,16.474
			c0,9.282,6.321,13.275,15.442,16.324c8.007,2.648,12.967,3.934,12.967,8.206c0,3.729-3.252,6.255-10.095,6.255
			c-5.074,0-10.77-1.491-15.528-4.006l-3.652,9.758c5.861,3.561,13.482,5.191,19.802,5.191c12.964,0,21.983-6.441,21.983-17.912
			C162.415,58.845,157.156,55.04,148.002,51.802"/>
		<polygon fill="#FFFFFF" points="171.925,38.009 189.031,38.009 189.031,84.175 200.815,84.175 200.815,38.009 217.869,38.009 
			217.869,27.904 171.925,27.904 		"/>
		<polygon fill="#FFFFFF" points="230.082,84.176 268.03,84.176 268.03,73.977 241.863,73.977 241.863,60.764 264.418,60.764 
			264.418,50.66 241.863,50.66 241.863,37.981 268.03,37.981 268.03,27.902 230.082,27.902 		"/>
		<path fill="#FFFFFF" d="M299.356,27.9l-21.099,56.279h12.351l3.728-10.931h21.999l3.807,10.931h12.773L311.22,27.9H299.356z
			 M297.536,63.858l7.686-22.531l7.844,22.531H297.536z"/>
		<polygon fill="#FFFFFF" points="374.233,68.523 355.318,27.904 344.058,27.904 344.058,84.179 355.347,84.179 355.347,49.947 
			370.498,82.539 377.146,82.539 392.545,49.654 392.548,84.179 403.832,84.179 403.832,27.904 392.473,27.904 		"/>
	</g>
</g>
</svg>
