<?xml version="1.0" encoding="utf-8"?>
<!-- Generator: Adobe Illustrator 16.0.0, SVG Export Plug-In . SVG Version: 6.00 Build 0)  -->
<!DOCTYPE svg PUBLIC "-//W3C//DTD SVG 1.1//EN" "http://www.w3.org/Graphics/SVG/1.1/DTD/svg11.dtd">
<svg version="1.1" id="Layer_1" xmlns="http://www.w3.org/2000/svg" xmlns:xlink="http://www.w3.org/1999/xlink" x="0px" y="0px"
	 width="177px" height="100px" viewBox="0 0 177 100" enable-background="new 0 0 177 100" xml:space="preserve">
<g id="Layer_2">
	<rect x="-94.395" y="83.936" fill="#FFFFFF" width="62.918" height="5.721"/>
	
		<rect x="-84.281" y="14.24" transform="matrix(-0.7071 -0.7071 0.7071 -0.7071 -136.4676 -22.3324)" fill="#FFFFFF" width="22.844" height="5.719"/>
	
		<rect x="-63.86" y="14.243" transform="matrix(-0.7071 0.7071 -0.7071 -0.7071 -77.4224 66.2764)" fill="#FFFFFF" width="22.846" height="5.72"/>
	<path fill="#FFFFFF" d="M-24.543,23.203h-76.215c-2.484,0-4.5,2.197-4.5,4.904v45.961c0,2.709,2.016,4.904,4.5,4.904h76.213
		c2.488,0,4.506-2.195,4.506-4.904V28.107C-20.037,25.4-22.053,23.203-24.543,23.203z M-26.176,73.254h-73.363v-44.33l73.246,0.18
		L-26.176,73.254z"/>
	<rect x="-67.225" y="76.787" fill="#FFFFFF" width="8.578" height="7.148"/>
	<path fill="#FFFFFF" d="M-27.951,26.623h-69.395c-2.266,0-4.102,1.926-4.102,4.303v40.328c0,2.373,1.836,4.301,4.102,4.301h69.395
		c2.268,0,4.105-1.928,4.105-4.301V30.926C-23.85,28.549-25.684,26.623-27.951,26.623z M-29.438,70.533h-66.801V31.641l66.689,0.156
		L-29.438,70.533z"/>
	<rect x="-94.395" y="33.41" opacity="0.6" fill="#FFFFFF" enable-background="new    " width="62.918" height="35.154"/>
</g>
<rect x="-214.145" y="83.936" fill="#FFFFFF" width="62.918" height="5.721"/>
<rect x="-204.031" y="14.24" transform="matrix(-0.7071 -0.7071 0.7071 -0.7071 -340.8885 -107.0135)" fill="#FFFFFF" width="22.844" height="5.719"/>
<rect x="-183.61" y="14.243" transform="matrix(-0.7071 0.7071 -0.7071 -0.7071 -281.8484 150.9525)" fill="#FFFFFF" width="22.846" height="5.72"/>
<path fill="#FFFFFF" d="M-144.293,23.203h-76.215c-2.484,0-4.5,2.197-4.5,4.904v45.961c0,2.709,2.016,4.904,4.5,4.904h76.213
	c2.488,0,4.506-2.195,4.506-4.904V28.107C-139.787,25.4-141.803,23.203-144.293,23.203z M-145.926,73.254h-73.363v-44.33
	l73.246,0.18L-145.926,73.254z"/>
<rect x="-186.975" y="76.787" fill="#FFFFFF" width="8.578" height="7.148"/>
<rect x="119.609" y="76.993" fill="#FFFFFF" width="8.578" height="7.148"/>
<path fill="#FFFFFF" d="M-147.701,26.623h-69.395c-2.266,0-4.102,1.926-4.102,4.303v40.328c0,2.373,1.836,4.301,4.102,4.301h69.395
	c2.268,0,4.105-1.928,4.105-4.301V30.926C-143.6,28.549-145.434,26.623-147.701,26.623z M-149.188,70.533h-66.801V31.641
	l66.689,0.156L-149.188,70.533z"/>
<rect x="-214.145" y="33.41" opacity="0.6" fill="#FFFFFF" enable-background="new    " width="62.918" height="35.154"/>
<rect x="102.168" y="33.911" opacity="0.6" fill="#FFFFFF" enable-background="new    " width="45.059" height="32.089"/>
<g>
	<path fill="#FFFFFF" d="M100.912,78.407c-7.234,0-13.122-5.879-13.122-13.107V34.546c0-7.228,5.888-13.109,13.122-13.109h47.578
		c7.227,0,13.113,5.881,13.113,13.109V65.3c0,7.229-5.887,13.107-13.113,13.107H100.912z M100.051,67.864h49.309v-35.81h-49.309
		V67.864z"/>
	<path fill="#FFFFFF" d="M25.623,78.415c-7.229,0-13.106-5.883-13.106-13.115V34.554c0-7.23,5.878-13.117,13.106-13.117h38.044
		c6.465,0,11.944,4.709,12.945,11.036H24.625v34.684h39.878V54.72l-18.992,0.008c-1.223,0-5.433-0.27-8.189-3.752
		c-2.079-2.621-2.662-4.67-2.813-5.783h42.188v21.602c-0.659,6.578-6.261,11.621-13.031,11.621H25.623z"/>
</g>
<g id="Layer_2_2_">
	<rect x="-214.145" y="198.936" fill="#FFFFFF" width="62.918" height="5.721"/>
	
		<rect x="-204.031" y="129.24" transform="matrix(-0.7071 -0.7071 0.7071 -0.7071 -422.2107 89.2988)" fill="#FFFFFF" width="22.844" height="5.719"/>
	
		<rect x="-183.61" y="129.243" transform="matrix(-0.7071 0.7071 -0.7071 -0.7071 -200.5312 347.2697)" fill="#FFFFFF" width="22.846" height="5.72"/>
	<path fill="#FFFFFF" d="M-144.293,138.203h-76.215c-2.484,0-4.5,2.197-4.5,4.904v45.961c0,2.709,2.016,4.904,4.5,4.904h76.213
		c2.488,0,4.506-2.195,4.506-4.904v-45.961C-139.787,140.4-141.803,138.203-144.293,138.203z M-145.926,188.254h-73.363v-44.33
		l73.246,0.18L-145.926,188.254z"/>
	<rect x="-186.975" y="191.787" fill="#FFFFFF" width="8.578" height="7.148"/>
	<path fill="#FFFFFF" d="M-147.701,141.623h-69.395c-2.266,0-4.102,1.926-4.102,4.303v40.328c0,2.373,1.836,4.301,4.102,4.301
		h69.395c2.268,0,4.105-1.928,4.105-4.301v-40.328C-143.6,143.549-145.434,141.623-147.701,141.623z M-149.188,185.533h-66.801
		v-38.893l66.689,0.156L-149.188,185.533z"/>
	<rect x="-214.145" y="148.41" opacity="0.6" fill="#FFFFFF" enable-background="new    " width="62.918" height="35.154"/>
</g>
<g>
	<path fill="#FFFFFF" d="M-285.961,194.709c-7.229,0-13.106-5.883-13.106-13.115v-30.746c0-7.23,5.878-13.117,13.106-13.117h38.044
		c6.465,0,11.944,4.709,12.945,11.037h-51.986v34.684h39.878v-12.438l-18.992,0.008c-1.223,0-5.433-0.27-8.189-3.752
		c-2.079-2.621-2.662-4.67-2.813-5.783h42.188v21.602c-0.659,6.578-6.261,11.621-13.031,11.621H-285.961z"/>
</g>
<g>
	<path fill="#FFFFFF" d="M-274.626,69.43c-4.625,0-8.389-3.759-8.389-8.381V41.386c0-4.621,3.764-8.381,8.389-8.381h22.748
		c4.62,0,8.385,3.76,8.385,8.381v19.663c0,4.622-3.765,8.381-8.385,8.381H-274.626z M-275.177,62.689h23.854V39.793h-23.854V62.689z
		"/>
	<path fill="#FFFFFF" d="M-322.763,69.435c-4.622,0-8.38-3.761-8.38-8.386V41.391c0-4.623,3.758-8.386,8.38-8.386h24.324
		c4.133,0,7.637,3.011,8.277,7.056h-33.238v22.175h25.497v-7.951l-12.143,0.004c-0.782,0-3.473-0.172-5.236-2.398
		c-1.329-1.676-1.702-2.986-1.798-3.697h26.975v13.811c-0.422,4.207-4.003,7.431-8.333,7.431H-322.763z"/>
</g>
<path fill="#FFFFFF" d="M103.75,81.348"/>
<path fill="#FFFFFF" d="M150.084,84.142v2.653H99.713v-2.653l0,0c0-1.466,1.188-2.653,2.653-2.653h45.063
	C148.895,81.488,150.084,82.676,150.084,84.142L150.084,84.142z"/>
<path fill="#FFFFFF" d="M133.412,31.239l1.876-1.876L113.427,7.501l-1.876,1.876l0,0c-1.037,1.036-1.036,2.717,0,3.752
	l18.108,18.109C130.694,32.275,132.375,32.276,133.412,31.239L133.412,31.239z"/>
<path fill="#FFFFFF" d="M117.516,31.239l-1.875-1.876l21.861-21.861l1.876,1.876l0,0c1.036,1.036,1.036,2.717,0.001,3.752
	L121.27,31.239C120.234,32.275,118.553,32.276,117.516,31.239L117.516,31.239z"/>
</svg>
