<?xml version="1.0" encoding="utf-8"?>
<!-- Generator: Adobe Illustrator 16.0.0, SVG Export Plug-In . SVG Version: 6.00 Build 0)  -->
<!DOCTYPE svg PUBLIC "-//W3C//DTD SVG 1.1//EN" "http://www.w3.org/Graphics/SVG/1.1/DTD/svg11.dtd">
<svg version="1.1" id="Layer_1" xmlns="http://www.w3.org/2000/svg" xmlns:xlink="http://www.w3.org/1999/xlink" x="0px" y="0px"
	 width="300px" height="109.5px" viewBox="0 0 300 109.5" enable-background="new 0 0 300 109.5" xml:space="preserve">
<path fill="#FFFFFF" d="M279,22h-17V7h-32l-15,15h-16l-9,8v-8h-14V7h-56v15H52L37,7H6v66.091L21,88l25,15h21v-4l8,4h40l7-9l1,9h26
	l1-9l9,9h24l1-9l8,9h26l9-9v9h14l12-9v9h16l25-17V37L279,22z M46,47H30v16h16v18H24L13,70V14h17v15h16V47z M120,69l-12,12H52V29h18
	v34h7V29h18v34h7V29h18V69z M144,81h-18V29h18V81z M144,22h-18v-8h18V22z M184,47h-15v16h15v18h-22l-11-11V14h18v15h15V47z M230,47
	h-22v16h22v18h-28l-11-11V40l11-11h28V47z M287,81h-17V47h-16v34h-17V14h17v15h22l11,11V81z"/>
</svg>
