<?xml version="1.0" encoding="utf-8"?>
<!-- Generator: Adobe Illustrator 16.0.0, SVG Export Plug-In . SVG Version: 6.00 Build 0)  -->
<!DOCTYPE svg PUBLIC "-//W3C//DTD SVG 1.1//EN" "http://www.w3.org/Graphics/SVG/1.1/DTD/svg11.dtd">
<svg version="1.1" xmlns="http://www.w3.org/2000/svg" xmlns:xlink="http://www.w3.org/1999/xlink" x="0px" y="0px"
	 width="41.271px" height="31.067px" viewBox="0 0 41.271 31.067" enable-background="new 0 0 41.271 31.067" xml:space="preserve">
<g id="Layer_2">
</g>
<g id="Layer_1">
	<g>
		<path fill="#FFFFFF" d="M2.522,29.437l-0.696-0.865l-0.551-0.968l-0.18-1.147l4.263-2.969l2.557,3.662l-4.498,2.775L2.522,29.437z
			 M8.833,26.525l-2.486-3.708l0.773-0.525l0.103-0.811l8.82-5.995c0.255,0.862,0.634,1.66,1.138,2.401
			c0.646,0.951,1.412,1.712,2.294,2.287l-8.954,6.085l-0.858-0.227L8.833,26.525z M21.431,17.186l-1.804-2.654l2.485-1.69
			l-1.836-2.703l2.606-1.772l1.836,2.704l2.583-1.755l1.804,2.655l-2.583,1.754l1.591,2.342l-2.606,1.773l-1.591-2.342
			L21.431,17.186z M32.572,11.414c-0.193-1.115-0.618-2.156-1.274-3.122c-0.558-0.82-1.176-1.469-1.855-1.949l2.703-1.838
			l3.314,4.98L32.572,11.414z M40.153,5.696l-0.339,0.229l-0.361-0.53L36.414,7.46l0.623,0.918l-0.773,0.524l-3.281-4.931
			l0.724-0.493l0.5,0.789L37.2,2.234l-0.32-0.523l0.289-0.196l1.657,0.673l1.148,1.688L40.153,5.696z"/>
		
			<path fill="none" stroke="#FFFFFF" stroke-width="2.95" stroke-linecap="round" stroke-linejoin="round" stroke-miterlimit="3" d="
			M23.069,19.495c-1.81-0.346-3.217-1.259-4.224-2.739c-0.995-1.463-1.319-3.102-0.976-4.912c0.314-1.788,1.218-3.191,2.715-4.208
			c1.48-1.007,3.125-1.336,4.936-0.991c1.756,0.335,3.143,1.25,4.161,2.747c1.026,1.511,1.375,3.146,1.038,4.902
			c-0.338,1.783-1.258,3.185-2.754,4.201C26.454,19.524,24.822,19.857,23.069,19.495z"/>
	</g>
</g>
</svg>
