<?xml version="1.0" encoding="utf-8"?>
<!-- Generator: Adobe Illustrator 16.0.0, SVG Export Plug-In . SVG Version: 6.00 Build 0)  -->
<!DOCTYPE svg PUBLIC "-//W3C//DTD SVG 1.1//EN" "http://www.w3.org/Graphics/SVG/1.1/DTD/svg11.dtd">
<svg version="1.1" xmlns="http://www.w3.org/2000/svg" xmlns:xlink="http://www.w3.org/1999/xlink" x="0px" y="0px" width="128px"
	 height="128px" viewBox="0 0 128 128" enable-background="new 0 0 128 128" xml:space="preserve">
<symbol  id="dude-transit" viewBox="0 -25.1 21.25 25.118">
	<path fill-rule="evenodd" clip-rule="evenodd" fill="#FFFFFF" d="M15.5-4.2l0.75-1.05l1-3.1l3.9-2.65v-0.05
		c0.067-0.1,0.1-0.233,0.1-0.4c0-0.2-0.05-0.383-0.15-0.55c-0.167-0.233-0.383-0.35-0.65-0.35l-4.3,1.8l-1.2,1.65l-1.5-3.95
		l2.25-5.05l-3.25-6.9c-0.267-0.2-0.633-0.3-1.1-0.3c-0.3,0-0.55,0.15-0.75,0.45c-0.1,0.133-0.15,0.25-0.15,0.35
		c0,0.067,0.017,0.15,0.05,0.25c0.033,0.1,0.067,0.184,0.1,0.25l2.55,5.6L10.7-14l-3.05-4.9L0.8-18.7
		c-0.367,0.033-0.6,0.184-0.7,0.45c-0.067,0.3-0.1,0.467-0.1,0.5c0,0.5,0.2,0.767,0.6,0.8l5.7,0.15l2.15,5.4l3.1,5.65L9.4-5.6
		c-1.367-2-2.1-3.033-2.2-3.1C7.1-8.8,6.95-8.85,6.75-8.85C6.35-8.85,6.1-8.667,6-8.3C5.9-8,5.9-7.8,6-7.7H5.95l2.5,4.4l3.7,0.3
		L14-3.5L15.5-4.2z M14.55-2.9c-0.333,0.4-0.45,0.85-0.35,1.35c0.033,0.5,0.25,0.9,0.65,1.2S15.7,0.066,16.2,0
		c0.5-0.067,0.9-0.3,1.2-0.7c0.333-0.4,0.467-0.85,0.4-1.35c-0.066-0.5-0.3-0.9-0.7-1.2c-0.4-0.333-0.85-0.45-1.35-0.35
		C15.25-3.533,14.85-3.3,14.55-2.9z"/>
</symbol>
<g id="Layer_1">
</g>
<g id="Layer_2">
	
		<radialGradient id="SVGID_1_" cx="63.8115" cy="-452.3711" r="55.6919" gradientTransform="matrix(1 0 0 -1 0 -388.668)" gradientUnits="userSpaceOnUse">
		<stop  offset="0" style="stop-color:#979797"/>
		<stop  offset="0.8065" style="stop-color:#8C8C8C;stop-opacity:0.5"/>
		<stop  offset="1" style="stop-color:#716663"/>
	</radialGradient>
	<path fill="url(#SVGID_1_)" d="M63.812,8.047c30.779,0,55.728,24.925,55.728,55.648c0,30.747-24.948,55.664-55.728,55.664
		c-30.778,0-55.728-24.917-55.728-55.664C8.084,32.972,33.033,8.047,63.812,8.047z"/>
	<path fill="#FCDC55" d="M63.812,0.564c-34.956,0-63.289,28.301-63.289,63.202c0,34.917,28.333,63.218,63.289,63.218
		c34.965,0,63.298-28.301,63.298-63.218C127.109,28.865,98.776,0.564,63.812,0.564z M63.82,119.359
		c-30.779,0-55.729-24.917-55.729-55.664c0-30.724,24.949-55.648,55.729-55.648c30.771,0,55.719,24.925,55.719,55.648
		C119.539,94.442,94.591,119.359,63.82,119.359z"/>
	<path fill="#FFFFFF" d="M35.86,58.096"/>
	<path fill="#5B7484" d="M13.049,123.808"/>
	<path fill="#5B7484" d="M13.525,119.335"/>
	<polygon fill="#4A494A" points="63.931,17.355 57.362,36.816 36.965,36.586 53.145,47.833 47.053,67.063 63.701,56.046 
		80.579,67.293 74.011,48.54 90.659,36.586 70.023,36.348 	"/>
	<g>
		<g>
			<g id="Selected_Items_10_">
				<path fill="#2B2B29" d="M112.637,53.035l-0.047,2.916c-0.119,2.199-0.39,3.923-0.811,5.178
					c-0.778,2.185-2.145,4.409-4.099,6.665c-1.755,2.009-4.003,4.082-6.768,6.227l-12.677,9.85c-0.143,0.104-0.23,0.159-0.286,0.167
					c-0.008-0.016-0.183-0.135-0.5-0.35c-0.461-0.262-0.739-0.421-0.834-0.469c-0.493-0.238-1.017-0.334-1.581-0.302
					c-0.596,0.023-1.199,0.271-1.811,0.715c-0.636,0.461-1.096,1.017-1.391,1.684c-0.404,0.897-0.54,1.858-0.412,2.868
					c0.055,0.508,0.158,0.929,0.317,1.238c0.35,0.659,0.738,0.93,1.151,0.826c0.223-0.104,0.381-0.175,0.492-0.198
					c0.184-0.088,0.334-0.111,0.453-0.071c0.397,0.158,0.604,0.381,0.619,0.675c0.017,0.294-0.174,0.572-0.571,0.811
					c-0.484,0.294-1.064,0.437-1.724,0.413c-0.818-0.008-1.47-0.334-1.946-0.945l-1.644-2.113c-0.176-0.23-0.318-0.381-0.438-0.444
					c-0.158-0.096-0.317-0.08-0.477,0.039c-0.111,0.088-1.223,1.247-3.328,3.472c-2.629,2.637-5.266,4.972-7.887,7.006
					c-2.566,1.993-5.449,4.011-8.65,6.068c-1.588,1.017-3.121,1.993-4.599,2.923c-0.429,0.325-0.644,0.817-0.659,1.478
					c0.008,0.365,0.055,0.826,0.143,1.382c0.031,0.286-0.048,0.517-0.246,0.699c-0.19,0.15-0.453,0.175-0.771,0.087
					c-0.334-0.111-1.216-1.064-2.637-2.867c-0.342,0.016-0.659-0.063-0.97-0.223c-0.342-0.175-0.635-0.405-0.881-0.715
					c-0.215-0.286-0.374-0.627-0.445-0.993c-0.079-0.341-0.071-0.675,0.016-0.992c-1.278-1.724-1.93-2.749-1.962-3.066
					c-0.023-0.35,0.071-0.596,0.278-0.723c0.207-0.167,0.461-0.19,0.738-0.071c0.509,0.23,0.938,0.373,1.271,0.452
					c0.659,0.167,1.199,0.088,1.628-0.238c1.271-1.207,2.59-2.446,3.972-3.732c2.764-2.613,5.433-4.917,7.998-6.911
					c2.621-2.041,5.537-4.003,8.738-5.901c2.676-1.493,4.066-2.279,4.186-2.367c0.158-0.119,0.206-0.277,0.166-0.452
					c-0.023-0.104-0.127-0.278-0.309-0.509l-1.637-2.112c-0.484-0.62-0.628-1.327-0.438-2.121c0.151-0.644,0.422-1.168,0.818-1.564
					c0.342-0.326,0.651-0.445,0.938-0.35c0.27,0.063,0.429,0.31,0.477,0.73c0.023,0.143-0.031,0.294-0.158,0.453
					c-0.064,0.079-0.168,0.222-0.318,0.429c-0.207,0.381-0.04,0.81,0.492,1.286c0.501,0.485,0.985,0.795,1.454,0.914l0.563,0.071
					l0.588,0.763l7.928-6.164c0.873-0.683,2.247-1.628,4.122-2.875c2.375-1.564,4.218-2.765,5.521-3.59
					c5.067-3.32,8.682-5.878,10.842-7.674c2.352-1.985,4.393-3.82,6.124-5.496L112.637,53.035z"/>
			</g>
		</g>
	</g>
	<g>
		<g>
			<g id="Selected_Items_9_">
				<path fill="#4A494A" d="M16.646,53.035l0.048,2.916c0.119,2.199,0.39,3.923,0.81,5.178c0.779,2.185,2.146,4.409,4.107,6.665
					c1.747,2.009,4.003,4.082,6.759,6.227l12.686,9.85c0.127,0.104,0.229,0.159,0.277,0.167c0.017-0.016,0.183-0.135,0.509-0.35
					c0.453-0.262,0.73-0.421,0.834-0.469c0.484-0.238,1.017-0.334,1.572-0.302c0.596,0.023,1.208,0.271,1.812,0.715
					c0.636,0.461,1.096,1.017,1.39,1.684c0.413,0.897,0.549,1.858,0.413,2.868c-0.056,0.508-0.159,0.929-0.31,1.238
					c-0.357,0.659-0.738,0.93-1.152,0.826c-0.229-0.104-0.389-0.175-0.492-0.198c-0.19-0.088-0.342-0.111-0.452-0.071
					c-0.405,0.158-0.612,0.381-0.62,0.675c-0.023,0.294,0.175,0.572,0.564,0.811c0.492,0.294,1.064,0.437,1.724,0.413
					c0.817-0.008,1.47-0.334,1.946-0.945l1.644-2.113c0.175-0.23,0.325-0.381,0.437-0.444c0.159-0.096,0.326-0.08,0.477,0.039
					c0.111,0.088,1.224,1.247,3.336,3.472c2.621,2.637,5.251,4.972,7.88,7.006c2.565,1.993,5.457,4.011,8.658,6.068
					c1.58,1.017,3.113,1.993,4.591,2.923c0.429,0.325,0.651,0.817,0.667,1.478c-0.008,0.365-0.063,0.826-0.151,1.382
					c-0.031,0.286,0.048,0.517,0.247,0.699c0.19,0.15,0.452,0.175,0.771,0.087c0.333-0.111,1.215-1.064,2.645-2.867
					c0.326,0.016,0.659-0.063,0.961-0.223c0.35-0.175,0.636-0.405,0.874-0.715c0.23-0.286,0.382-0.627,0.452-0.993
					c0.08-0.341,0.072-0.675-0.016-0.992c1.279-1.724,1.931-2.749,1.962-3.066c0.024-0.35-0.063-0.596-0.277-0.723
					c-0.207-0.167-0.453-0.19-0.731-0.071c-0.508,0.23-0.945,0.373-1.286,0.452c-0.651,0.167-1.191,0.088-1.62-0.238
					c-1.256-1.207-2.59-2.446-3.972-3.732c-2.765-2.613-5.425-4.917-7.999-6.911c-2.621-2.041-5.528-4.003-8.729-5.901
					c-2.685-1.493-4.074-2.279-4.193-2.367c-0.151-0.119-0.207-0.277-0.159-0.452c0.016-0.104,0.119-0.278,0.294-0.509l1.645-2.112
					c0.477-0.62,0.627-1.327,0.444-2.121c-0.15-0.644-0.429-1.168-0.826-1.564c-0.333-0.326-0.65-0.445-0.929-0.35
					c-0.271,0.063-0.429,0.31-0.485,0.73c-0.016,0.143,0.032,0.294,0.159,0.453c0.063,0.079,0.175,0.222,0.317,0.429
					c0.207,0.381,0.04,0.81-0.492,1.286c-0.5,0.485-0.977,0.795-1.453,0.914l-0.564,0.071l-0.588,0.763l-7.927-6.164
					c-0.866-0.675-2.239-1.628-4.122-2.875c-2.375-1.564-4.218-2.765-5.521-3.59c-5.075-3.32-8.682-5.878-10.842-7.674
					c-2.352-1.985-4.393-3.82-6.124-5.496L16.646,53.035z"/>
			</g>
		</g>
	</g>
</g>
</svg>
