<?xml version="1.0" encoding="utf-8"?>
<!-- Generator: Adobe Illustrator 16.0.0, SVG Export Plug-In . SVG Version: 6.00 Build 0)  -->
<!DOCTYPE svg PUBLIC "-//W3C//DTD SVG 1.1//EN" "http://www.w3.org/Graphics/SVG/1.1/DTD/svg11.dtd">
<svg version="1.1" xmlns="http://www.w3.org/2000/svg" xmlns:xlink="http://www.w3.org/1999/xlink" x="0px" y="0px" width="128px"
	 height="128px" viewBox="0 0 128 128" enable-background="new 0 0 128 128" xml:space="preserve">
<symbol  id="dude-transit" viewBox="0 -25.1 21.25 25.118">
	<path fill-rule="evenodd" clip-rule="evenodd" fill="#FFFFFF" d="M15.5-4.2l0.75-1.05l1-3.1l3.9-2.65v-0.05
		c0.067-0.1,0.1-0.233,0.1-0.4c0-0.2-0.05-0.383-0.15-0.55c-0.167-0.233-0.383-0.35-0.65-0.35l-4.3,1.8l-1.2,1.65l-1.5-3.95
		l2.25-5.05l-3.25-6.9c-0.267-0.2-0.633-0.3-1.1-0.3c-0.3,0-0.55,0.15-0.75,0.45c-0.1,0.133-0.15,0.25-0.15,0.35
		c0,0.067,0.017,0.15,0.05,0.25c0.033,0.1,0.067,0.184,0.1,0.25l2.55,5.6L10.7-14l-3.05-4.9L0.8-18.7
		c-0.367,0.033-0.6,0.184-0.7,0.45c-0.067,0.3-0.1,0.467-0.1,0.5c0,0.5,0.2,0.767,0.6,0.8l5.7,0.15l2.15,5.4l3.1,5.65L9.4-5.6
		c-1.367-2-2.1-3.033-2.2-3.1C7.1-8.8,6.95-8.85,6.75-8.85C6.35-8.85,6.1-8.667,6-8.3C5.9-8,5.9-7.8,6-7.7H5.95l2.5,4.4l3.7,0.3
		L14-3.5L15.5-4.2z M14.55-2.9c-0.333,0.4-0.45,0.85-0.35,1.35c0.033,0.5,0.25,0.9,0.65,1.2S15.7,0.066,16.2,0
		c0.5-0.067,0.9-0.3,1.2-0.7c0.333-0.4,0.467-0.85,0.4-1.35c-0.066-0.5-0.3-0.9-0.7-1.2c-0.4-0.333-0.85-0.45-1.35-0.35
		C15.25-3.533,14.85-3.3,14.55-2.9z"/>
</symbol>
<g id="Layer_1">
</g>
<g id="Layer_2">
	<path fill="#25B2E1" d="M64.135,0.949c35.029,0,63.42,28.362,63.42,63.337s-28.391,63.337-63.42,63.337
		c-35.025,0-63.416-28.362-63.416-63.337S29.109,0.949,64.135,0.949z"/>
	<g>
		<path fill="#010101" d="M64.139,8.052c30.838,0,55.835,24.969,55.835,55.769c0,30.799-24.997,55.769-55.835,55.769
			c-30.842,0-55.835-24.97-55.835-55.769C8.304,33.021,33.297,8.052,64.139,8.052z"/>
		<g>
			<g>
				<path fill="#464547" d="M108.316,66.47c0,0-2.034,0.41-4.011-0.301c3.946-2.634,4.011-5.561,4.011-5.561
					s-2.99,0.538-4.667-0.364c3.823-3.281,4.069-8.24,4.069-8.24s-1.613,0.72-4.188,0.838c3.942-4.421,2.215-8.487,2.215-8.487
					s-2.634,1.852-5.987,3.164c2.578-6.627,1.317-11.112,1.317-11.112s-2.932,3.29-5.201,4.485
					c1.255-7.648-0.839-11.058-0.839-11.058s-0.655,2.333-3.471,4.303c-0.302-8.122-2.029-8.598-2.029-8.598
					s-0.787,2.025-1.921,3.346c-0.475-7.829-2.453-8.075-2.453-8.075s-0.06,1.32-0.834,3.591c-0.122-4.903-3.417-7.655-3.29-6.811
					c0.114,0.831-0.42,8.779-0.42,8.779S107.334,73.16,90.955,76.15c-4.688,0.854-12.912-1.891-26.314-10.346
					c0.237,2.507,0.897,13.684,4.248,19.535c3.353,5.862,8.139,8.132,8.139,8.132s2.87-1.321,2.333-1.613
					c-0.542-0.301-1.377-1.56-0.356-1.021c1.018,0.545,0.957,0.364,0.957,0.364l1.135-0.958l1.491,0.183
					c0,0,10.535,0.236,9.096-0.665c-1.432-0.894-5.022-3.346-5.022-3.346s-7.725-0.237,2.634-0.056
					c10.35,0.175,14.833-7.228,14.833-7.228s-1.371,0.117-2.812-0.602c5.921-2.389,4.794-4.421,4.794-4.421
					s-3.298,0.181-4.312-0.775C108.854,70.646,108.316,66.47,108.316,66.47z"/>
				<path fill="#464547" d="M37.322,76.15c-16.379-2.982,10.342-49.781,10.342-49.781s-0.533-7.94-0.424-8.779
					c0.123-0.838-3.167,1.907-3.286,6.811c-0.778-2.271-0.846-3.583-0.846-3.583s-1.97,0.238-2.444,8.067
					c-1.139-1.32-1.922-3.346-1.922-3.346s-1.735,0.476-2.033,8.598c-2.808-1.97-3.467-4.303-3.467-4.303s-2.094,3.409-0.839,11.058
					c-2.273-1.195-5.209-4.485-5.209-4.485s-1.253,4.485,1.321,11.112c-3.354-1.313-5.983-3.164-5.983-3.164
					s-1.731,4.066,2.219,8.487c-2.574-0.118-4.196-0.838-4.196-0.838s0.246,4.959,4.073,8.248c-1.677,0.895-4.667,0.356-4.667,0.356
					s0.061,2.927,4.011,5.561c-1.973,0.711-4.011,0.301-4.011,0.301s-0.537,4.176,6.522,6.865c-1.017,0.956-4.307,0.775-4.307,0.775
					s-1.131,2.032,4.781,4.421c-1.433,0.719-2.804,0.602-2.804,0.602s4.479,7.41,14.833,7.228c10.351-0.182,2.63,0.056,2.63,0.056
					s-3.587,2.452-5.021,3.346c-1.437,0.901,9.095,0.665,9.095,0.665l1.495-0.183l1.135,0.958c0,0-0.06,0.181,0.957-0.364
					c1.017-0.539,0.178,0.72-0.36,1.021c-0.538,0.292,2.329,1.613,2.329,1.613s4.79-2.27,8.14-8.132
					c3.35-5.852,4.01-17.028,4.255-19.535C50.234,74.26,42.014,77.004,37.322,76.15z"/>
			</g>
		</g>
		<path fill="#FFFFFF" d="M36.203,58.204"/>
		<g>
			<g>
				<path fill="#9A9797" d="M46.635,65.078c-0.117,3.218-0.236,8.003-0.419,8.961c-0.177,0.949-1.376,2.324-3.468,1.486
					c-2.811-0.948-4.726-4.832-3.654-15.462c2.82-15.486,13.857-39.499,13.857-39.499s-4.164-1.013-4.82,5.195
					c-0.771,0.183-1.072-0.846-1.072-0.846s-1.261,1.267-1.02,5.142c-1.258,0.601-1.496-2.207-1.496-2.207s-1.498,1.795-1.079,7.347
					c-1.021-0.173-1.55-2.324-1.55-2.324s-2.096,1.013-1.685,9.262c-1.792-1.139-3.05-3.827-3.05-3.827s-1.973,3.043,0.183,9.743
					c-2.334-1.914-3.531-3.045-3.531-3.045s-2.329,3.813,1.795,10.923c-3.168-2.626-5.326-4.596-5.326-4.596
					s-1.072,2.452,2.104,8.304c-2.939-1.667-5.868-3.708-5.868-3.708s-0.835,3.828,4.302,8.431
					c-1.974-0.419-4.959-1.139-4.959-1.139s0.183,3.346,3.765,5.679c-3.167,0.419-4.306,0.301-4.306,0.301s2.87,4.666,7.24,5.916
					c-3.827,1.313-4.604,1.55-4.604,1.55s0.419,2.097,9.028,2.033c0.178,0.656-7.719,1.97-7.719,1.97s1.38,2.925,12.805,2.087
					c-0.118,0.902-3.946,2.816-3.946,2.816s6.462,0.119,6.64,0.119c0.179,0,12.924-14.64,12.924-14.64l-4.789-3.646
					C52.916,67.403,51.124,65.078,46.635,65.078z"/>
				<path fill="#9A9797" d="M103.333,69.198c0,0-1.139,0.11-4.311-0.301c3.591-2.333,3.769-5.679,3.769-5.679
					s-2.989,0.72-4.964,1.139c5.149-4.603,4.308-8.431,4.308-8.431s-2.927,2.041-5.865,3.708c3.169-5.852,2.097-8.304,2.097-8.304
					s-2.152,1.97-5.323,4.596c4.129-7.11,1.795-10.923,1.795-10.923s-1.198,1.131-3.531,3.045c2.155-6.7,0.179-9.743,0.179-9.743
					s-1.259,2.681-3.055,3.819c0.42-8.241-1.672-9.254-1.672-9.254s-0.537,2.144-1.554,2.324c0.419-5.552-1.072-7.347-1.072-7.347
					s-0.242,2.808-1.502,2.207c0.24-3.884-1.013-5.142-1.013-5.142s-0.301,1.021-1.079,0.838c-0.66-6.208-4.825-5.188-4.825-5.188
					S86.759,44.577,89.57,60.056c1.075,10.638-0.834,14.514-3.649,15.47c-2.092,0.838-3.29-0.537-3.468-1.486
					c-0.18-0.958-0.301-5.743-0.42-8.961c-4.484,0-6.284,2.325-6.284,2.325l-4.78,3.646c0,0,12.745,14.64,12.918,14.64
					c0.179,0,6.642-0.119,6.642-0.119s-3.829-1.914-3.951-2.816c11.429,0.831,12.805-2.095,12.805-2.095s-7.896-1.306-7.715-1.962
					c8.613,0.056,9.032-2.041,9.032-2.041s-0.779-0.229-4.606-1.542C100.463,73.856,103.333,69.198,103.333,69.198z"/>
			</g>
		</g>
		<path fill="#5B7484" d="M13.357,124.049"/>
		<path fill="#5B7484" d="M13.832,119.564"/>
		<polygon fill="none" points="64.175,53.467 64.175,53.451 64.175,53.467 		"/>
		<path fill="#8D9BA4" d="M43.975,107.344c0.004-0.016,0.012-0.023,0.02-0.038c0-0.024,0-0.048,0.012-0.064
			c-0.012,0.017-0.012,0.032-0.012,0.032S43.986,107.306,43.975,107.344z"/>
		<path fill="#8D9BA4" d="M41.459,109.583c-0.32,0.063-0.68,0.096-1.091,0.079C40.735,109.694,41.099,109.662,41.459,109.583z"/>
		<path fill="#9A9797" d="M43.571,87.888c-1.25,2.808-2.749,6.896-3.228,21.774c0,0,0.021,0,0.024,0
			c0.411,0.017,0.771-0.016,1.091-0.079c1.866-0.396,2.381-2.445,2.381-2.445s-0.039-10.107,2.883-15.849
			c4.216-8.281,17.376-24.195,17.376-24.195l-0.134-0.19l-2.376-3.273C61.589,63.63,44.832,85.08,43.571,87.888z"/>
		<path fill="#8D9BA4" d="M84.359,107.241c0,0.017,0,0.04,0.004,0.064c0.004,0.015,0.008,0.022,0.016,0.038
			c-0.012-0.038-0.016-0.07-0.016-0.07S84.359,107.258,84.359,107.241z"/>
		<path fill="#8D9BA4" d="M87.985,109.662c-0.407,0.017-0.767-0.016-1.092-0.079C87.257,109.662,87.621,109.694,87.985,109.662z"/>
		<path fill="#F2F2F2" d="M90.579,93.503c-1.112-7.727-7.1-15.035-7.1-15.035L69.703,60.039l2.848-6.271l-0.692-18.642l-2.096-1.488
			c0,0-5.118,15.574-4.786,15.59c0.898,0.063,1.555,0.656,1.555,2.151c0,2.088-2.356,2.072-2.356,2.072v0.016l0,0v-0.016
			c0,0-2.35,0.016-2.35-2.072c0-1.495,0.656-2.089,1.55-2.151c0.333-0.016-4.785-15.59-4.785-15.59l-2.091,1.488l-0.696,18.642
			l2.852,6.271L44.872,78.468c0,0-5.98,7.309-7.095,15.035c-1.123,7.728-0.858,11.887-0.843,13.619
			c0.013,1.005,1.622,2.396,3.409,2.54c0.479-14.878,1.978-18.975,3.235-21.774c1.253-2.808,18.01-24.258,18.01-24.258l2.376,3.273
			c0.082-0.085,0.134-0.142,0.134-0.142V66.73h0.154v0.031c0,0,0.056,0.057,0.14,0.142l2.38-3.273c0,0,16.748,21.45,18.006,24.258
			c1.253,2.8,2.752,6.896,3.23,21.774c1.784-0.144,3.4-1.535,3.412-2.54C91.438,105.39,91.702,101.23,90.579,93.503z"/>
		<path fill="#9A9797" d="M66.772,63.63l-2.38,3.273l-0.14,0.19c0,0,13.165,15.914,17.386,24.195
			c2.918,5.741,2.882,15.849,2.882,15.849s0.506,2.049,2.373,2.445c0.325,0.063,0.685,0.096,1.092,0.079c0.012,0,0.026,0,0.026,0
			c-0.478-14.878-1.98-18.967-3.229-21.774C83.521,85.08,66.772,63.63,66.772,63.63z"/>
	</g>
</g>
</svg>
