<?xml version="1.0" encoding="utf-8"?>
<!-- Generator: Adobe Illustrator 16.0.0, SVG Export Plug-In . SVG Version: 6.00 Build 0)  -->
<!DOCTYPE svg PUBLIC "-//W3C//DTD SVG 1.1//EN" "http://www.w3.org/Graphics/SVG/1.1/DTD/svg11.dtd">
<svg version="1.1" xmlns="http://www.w3.org/2000/svg" xmlns:xlink="http://www.w3.org/1999/xlink" x="0px" y="0px" width="32px"
	 height="32px" viewBox="0 0 32 32" enable-background="new 0 0 32 32" xml:space="preserve">
<symbol  id="dude-transit" viewBox="0 -25.1 21.25 25.118">
	<path fill-rule="evenodd" clip-rule="evenodd" fill="#FFFFFF" d="M15.5-4.2l0.75-1.05l1-3.1l3.9-2.65v-0.05
		c0.067-0.1,0.1-0.233,0.1-0.4c0-0.2-0.05-0.383-0.15-0.55c-0.167-0.233-0.383-0.35-0.65-0.35l-4.3,1.8l-1.2,1.65l-1.5-3.95
		l2.25-5.05l-3.25-6.9c-0.267-0.2-0.633-0.3-1.1-0.3c-0.3,0-0.55,0.15-0.75,0.45c-0.1,0.133-0.15,0.25-0.15,0.35
		c0,0.067,0.017,0.15,0.05,0.25c0.033,0.1,0.067,0.184,0.1,0.25l2.55,5.6L10.7-14l-3.05-4.9L0.8-18.7
		c-0.367,0.033-0.6,0.184-0.7,0.45c-0.067,0.3-0.1,0.467-0.1,0.5c0,0.5,0.2,0.767,0.6,0.8l5.7,0.15l2.15,5.4l3.1,5.65L9.4-5.6
		c-1.367-2-2.1-3.033-2.2-3.1C7.1-8.8,6.95-8.85,6.75-8.85C6.35-8.85,6.1-8.667,6-8.3C5.9-8,5.9-7.8,6-7.7H5.95l2.5,4.4l3.7,0.3
		L14-3.5L15.5-4.2z M14.55-2.9c-0.333,0.4-0.45,0.85-0.35,1.35c0.033,0.5,0.25,0.9,0.65,1.2S15.7,0.066,16.2,0
		c0.5-0.067,0.9-0.3,1.2-0.7c0.333-0.4,0.467-0.85,0.4-1.35c-0.066-0.5-0.3-0.9-0.7-1.2c-0.4-0.333-0.85-0.45-1.35-0.35
		C15.25-3.533,14.85-3.3,14.55-2.9z"/>
</symbol>
<g id="Layer_1">
</g>
<g id="Layer_2">
	<g>
		
			<path fill="none" stroke="#414042" stroke-width="1.75" stroke-linecap="round" stroke-linejoin="round" stroke-miterlimit="10" d="
			M23.815,19.122c0,0.438,0.083,0.6,0.295,0.6c0.292,0,0.487-0.067,0.65-0.48c0.113-0.29,0.204-0.815,0.183-1.448
			c-0.03-0.858-0.066-1.359-0.338-2.02c-0.344-0.826-0.631-1.192-0.895-2.074c-0.742-2.486-3.411-5.468-5.202-5.551"/>
		
			<path fill="none" stroke="#414042" stroke-width="1.75" stroke-linecap="round" stroke-linejoin="round" stroke-miterlimit="10" d="
			M7.522,19.279c0.015,0.368,0.713,0.412,0.713,0.412s0.331,0.133,0.331-0.433c0-0.566,0-0.731,0-1.032
			c0-0.3,0.368-0.599,0.801-0.932c0.432-0.333,1.33-0.932,6.522-0.932s5.725,0.499,6.357,0.865c0.633,0.366,1.054,0.546,1.054,0.546
			"/>
	</g>
	<g>
		<g>
			<path fill="#939598" d="M15.867,31.216c-1.329,0-6.119-1.7-9.033-4.499c-2.785-2.678-4.383-6.044-4.383-9.235V1.711
				c1.008-0.265,4.296-0.866,13.416-0.866c8.261,0,12.122,0.64,13.414,0.919v15.778c0,2.992-1.717,6.421-4.593,9.174
				C21.771,29.508,17.319,31.216,15.867,31.216z"/>
			<path fill="#FFFFFF" d="M15.867,1.595c7.197,0,11.01,0.488,12.664,0.785v15.162c0,2.792-1.631,6.019-4.361,8.632
				c-2.913,2.788-7.194,4.292-8.303,4.292c-1.008,0-5.632-1.521-8.514-4.29c-2.639-2.537-4.152-5.706-4.152-8.694V2.314
				C4.615,2.037,8.085,1.595,15.867,1.595 M15.867,0.095c-12.209,0-14.166,1.083-14.166,1.083s0,10.77,0,16.305
				c0,3.664,1.92,7.187,4.613,9.776c3.059,2.938,8.063,4.708,9.553,4.708c1.668,0,6.303-1.801,9.34-4.708
				c2.752-2.634,4.824-6.199,4.824-9.716c0-7.401,0-16.365,0-16.365S26.712,0.095,15.867,0.095L15.867,0.095z"/>
		</g>
		<g>
			<path fill="#FFFFFF" d="M24.76,19.83c-0.104,0-0.231-0.009-0.375-0.019c-0.113-0.008-0.234-0.016-0.362-0.022
				c-0.003-0.03-0.006-0.057-0.007-0.072c-0.032-0.406-0.032-0.577-0.032-1.122c0-0.082-0.026-0.817-0.938-1.344l-0.104-0.062
				c-0.73-0.435-1.558-0.928-6.916-0.928c-5.826,0-6.755,0.715-7.254,1.1c-0.495,0.38-1.058,0.813-1.058,1.411v1.04
				C7.615,19.82,7.468,19.83,7.313,19.83c-0.093,0-0.189-0.003-0.276-0.015c-0.093-0.047-0.419-0.513-0.419-1.539
				c0-1.1,0.113-1.383,0.362-2.002l0.097-0.243c0.121-0.31,0.265-0.586,0.402-0.854c0.224-0.435,0.455-0.884,0.576-1.416
				c0.172-0.756,1.004-3.138,1.942-4.269c1.35-1.632,3.32-2.425,6.026-2.425c3.521,0,4.577,1.116,5.801,2.408l0.073,0.078
				c0.542,0.572,1.313,1.815,1.912,4.496c0.155,0.7,0.374,1.111,0.606,1.545c0.122,0.228,0.251,0.469,0.379,0.776
				c0.246,0.599,0.284,1.036,0.317,1.961c0.021,0.627-0.071,1.105-0.157,1.324c-0.049,0.122-0.084,0.162-0.091,0.169
				C24.865,19.826,24.825,19.83,24.76,19.83z"/>
			<path fill="#FFFFFF" d="M16.024,7.599c3.292,0,4.183,0.94,5.415,2.242l0.074,0.078c0.405,0.428,1.176,1.549,1.784,4.273
				c0.165,0.743,0.412,1.206,0.65,1.653c0.124,0.232,0.241,0.452,0.354,0.724c0.216,0.525,0.248,0.905,0.28,1.778
				c0.013,0.392-0.023,0.699-0.063,0.898c-0.005-0.166-0.005-0.347-0.005-0.65c0-0.185-0.058-1.143-1.203-1.804l-0.1-0.059
				c-0.953-0.568-2.089-1.003-7.188-1.003c-5.543,0-6.818,0.625-7.577,1.209c-0.563,0.433-1.266,0.972-1.266,1.833
				c-0.02-0.14-0.032-0.304-0.032-0.495c0-0.998,0.088-1.217,0.324-1.805l0.099-0.248c0.108-0.276,0.24-0.532,0.38-0.803
				c0.238-0.464,0.485-0.944,0.621-1.54c0.159-0.699,0.965-3.002,1.835-4.05C11.649,8.329,13.486,7.599,16.024,7.599 M16.024,6.537
				c-3.678,0-5.479,1.461-6.436,2.617c-1.026,1.237-1.874,3.712-2.052,4.49c-0.177,0.779-0.636,1.379-0.954,2.193
				c-0.319,0.813-0.496,1.097-0.496,2.439c0,1.344,0.496,2.016,0.884,2.066c0.108,0.014,0.228,0.019,0.344,0.019
				c0.301,0,0.578-0.033,0.578-0.033s0.036,0.015,0.085,0.015c0.104,0,0.267-0.065,0.267-0.474c0-0.602,0-0.777,0-1.097
				c0-0.318,0.39-0.636,0.851-0.99c0.459-0.354,1.413-0.989,6.93-0.989s6.083,0.53,6.755,0.919c0.673,0.389,0.673,0.884,0.673,0.884
				c0,0.565,0,0.743,0.034,1.167c0.019,0.215,0.056,0.542,0.362,0.551c0.361,0.01,0.687,0.047,0.911,0.047
				c0.31,0,0.517-0.072,0.69-0.511c0.121-0.308,0.217-0.866,0.194-1.538c-0.033-0.912-0.07-1.444-0.358-2.146
				c-0.366-0.878-0.739-1.25-0.951-2.204c-0.141-0.629-0.743-3.395-2.051-4.774C20.978,7.81,19.846,6.537,16.024,6.537L16.024,6.537
				z"/>
		</g>
		<g>
			<path fill="#FFFFFF" d="M15.867,1.845c6.904,0,10.68,0.45,12.414,0.745v14.953c0,2.725-1.602,5.884-4.284,8.452
				c-2.745,2.627-6.994,4.222-8.13,4.222c-0.952,0-5.554-1.543-8.34-4.22c-2.591-2.49-4.076-5.594-4.076-8.514V2.522
				C4.955,2.249,8.434,1.845,15.867,1.845 M15.867,0.095c-12.209,0-14.166,1.083-14.166,1.083s0,10.77,0,16.305
				c0,3.664,1.92,7.187,4.613,9.776c3.059,2.938,8.063,4.708,9.553,4.708c1.668,0,6.303-1.801,9.34-4.708
				c2.752-2.634,4.824-6.199,4.824-9.716c0-7.401,0-16.365,0-16.365S26.712,0.095,15.867,0.095L15.867,0.095z"/>
		</g>
	</g>
</g>
</svg>
