<?xml version="1.0" encoding="utf-8"?>
<!-- Generator: Adobe Illustrator 23.0.3, SVG Export Plug-In . SVG Version: 6.00 Build 0)  -->
<svg version="1.1" xmlns="http://www.w3.org/2000/svg" xmlns:xlink="http://www.w3.org/1999/xlink" x="0px" y="0px"
	 width="32.118px" height="32.118px" viewBox="0 0 32.118 32.118" enable-background="new 0 0 32.118 32.118" xml:space="preserve">
<symbol  id="dude-transit" viewBox="0 -25.1 21.25 25.118">
	<path fill-rule="evenodd" clip-rule="evenodd" fill="#FFFFFF" d="M15.5-4.2l0.75-1.05l1-3.1l3.9-2.65v-0.05
		c0.067-0.1,0.1-0.233,0.1-0.4c0-0.2-0.05-0.383-0.15-0.55c-0.167-0.233-0.383-0.35-0.65-0.35l-4.3,1.8l-1.2,1.65l-1.5-3.95
		l2.25-5.05l-3.25-6.9c-0.267-0.2-0.633-0.3-1.1-0.3c-0.3,0-0.55,0.15-0.75,0.45c-0.1,0.133-0.15,0.25-0.15,0.35
		c0,0.067,0.017,0.15,0.05,0.25c0.033,0.1,0.067,0.184,0.1,0.25l2.55,5.6L10.7-14l-3.05-4.9L0.8-18.7
		c-0.367,0.033-0.6,0.184-0.7,0.45c-0.067,0.3-0.1,0.467-0.1,0.5c0,0.5,0.2,0.767,0.6,0.8l5.7,0.15l2.15,5.4l3.1,5.65L9.4-5.6
		c-1.367-2-2.1-3.033-2.2-3.1C7.1-8.8,6.95-8.85,6.75-8.85C6.35-8.85,6.1-8.667,6-8.3C5.9-8,5.9-7.8,6-7.7H5.95l2.5,4.4l3.7,0.3
		L14-3.5L15.5-4.2z M14.55-2.9c-0.333,0.4-0.45,0.85-0.35,1.35c0.033,0.5,0.25,0.9,0.65,1.2c0.4,0.3,0.85,0.417,1.35,0.35
		c0.5-0.067,0.9-0.3,1.2-0.7c0.333-0.4,0.467-0.85,0.4-1.35c-0.066-0.5-0.3-0.9-0.7-1.2c-0.4-0.333-0.85-0.45-1.35-0.35
		C15.25-3.533,14.85-3.3,14.55-2.9z"/>
</symbol>
<g id="Layer_1">
</g>
<g id="Layer_2">
	<g>
		<path fill="#FFFFFF" d="M16.001,2.124c6.631,0,10.363,0.416,12.164,0.707v14.741c0,2.658-1.573,5.75-4.207,8.271
			c-2.7,2.584-6.852,4.153-7.956,4.153c-0.937-0.009-5.453-1.542-8.167-4.15c-2.542-2.444-3.999-5.481-3.999-8.334V2.76
			C5.416,2.494,8.89,2.124,16.001,2.124 M16.001,0.124c-12.209,0-14.166,1.082-14.166,1.082s0,10.77,0,16.305
			c0,3.664,1.92,7.186,4.613,9.776c3.059,2.939,8.063,4.708,9.553,4.708c1.668,0,6.303-1.801,9.34-4.708
			c2.752-2.634,4.824-6.199,4.824-9.716c0-7.401,0-16.365,0-16.365S26.846,0.124,16.001,0.124L16.001,0.124z"/>
	</g>
	<path fill-rule="evenodd" clip-rule="evenodd" fill="#FCFCFC" d="M19.685,8.153c-0.737,0-1.473,0-2.209,0.001
		c-0.327,0-0.369-0.028-0.48-0.333c-0.129-0.35-0.681-0.602-1.06-0.457c-0.415,0.158-0.728,0.432-0.852,0.879
		c-0.058,0.206-0.015,0.319,0.177,0.404c0.117,0.053,0.202,0.139,0.149,0.253c-0.029,0.062-0.161,0.108-0.244,0.107
		c-0.288-0.004-0.606-0.328-0.615-0.613c-0.007-0.228,0-0.458,0.001-0.687c0.001-0.191-0.049-0.253-0.241-0.238
		c-0.322,0.024-0.644,0.048-0.959,0.104c-1.202,0.211-2.413,0.242-3.626,0.178C8.762,7.7,7.801,7.609,6.84,7.529
		C6.553,7.505,6.36,7.606,6.222,7.863C6.171,7.957,6.042,8.009,5.95,8.08C5.882,7.977,5.783,7.882,5.752,7.768
		C5.715,7.635,5.735,7.486,5.735,7.344C5.734,7.149,5.703,6.969,5.583,6.802c-0.115-0.158-0.114-0.354,0-0.506
		C5.707,6.128,5.727,5.95,5.739,5.757c0.01-0.177,0.017-0.361,0.073-0.526c0.07-0.206,0.177-0.214,0.322-0.054
		c0.045,0.05,0.082,0.107,0.117,0.165C6.365,5.529,6.515,5.648,6.75,5.627c0.394-0.035,0.79-0.06,1.183-0.101
		c1.766-0.187,3.53-0.226,5.294,0.037c0.348,0.052,0.699,0.089,1.05,0.124c0.214,0.021,0.278-0.048,0.275-0.265
		c-0.003-0.185,0.007-0.372-0.008-0.557c-0.033-0.397,0.289-0.607,0.559-0.713c0.115-0.045,0.246-0.039,0.305,0.091
		c0.066,0.143-0.035,0.207-0.154,0.263c-0.157,0.073-0.242,0.208-0.184,0.378c0.077,0.229,0.175,0.453,0.283,0.67
		c0.023,0.046,0.125,0.072,0.192,0.074c0.341,0.008,0.681-0.001,1.021,0.007c0.86,0.018,1.72,0.02,2.579,0.069
		c1.407,0.08,2.811,0.207,4.218,0.286c0.954,0.054,1.904-0.059,2.85-0.169c0.031-0.003,0.063-0.009,0.092-0.01
		c0.192-0.006,0.257,0.079,0.139,0.224c-0.26,0.319-0.533,0.628-0.823,0.921c-0.521,0.528-1.201,0.752-1.892,0.95
		c-0.766,0.219-1.553,0.22-2.337,0.245C20.824,8.167,20.254,8.153,19.685,8.153z"/>
	<path fill-rule="evenodd" clip-rule="evenodd" fill="#FCFCFC" d="M16.008,18.221c-1.464,0-2.932,0.004-4.395-0.006
		c-0.123,0-0.246-0.09-0.368-0.139c0.046-0.107,0.079-0.227,0.144-0.319c0.456-0.623,0.914-1.244,1.38-1.861
		c0.711-0.946,1.436-1.886,2.153-2.831c0.301-0.397,0.596-0.799,0.891-1.201c0.128-0.174,0.241-0.177,0.374,0.001
		c0.559,0.758,1.124,1.511,1.688,2.265c0.412,0.549,0.828,1.098,1.241,1.648c0.43,0.571,0.859,1.143,1.29,1.714
		c0.091,0.121,0.188,0.238,0.277,0.359c0.135,0.18,0.079,0.328-0.14,0.365c-0.054,0.009-0.112,0.004-0.168,0.004
		C18.92,18.221,17.462,18.221,16.008,18.221z"/>
	<path fill-rule="evenodd" clip-rule="evenodd" fill="#FCFCFC" d="M16.002,22.35c0.655,0,1.308-0.004,1.963,0.002
		c0.353,0.004,0.409,0.052,0.413,0.355c0.008,0.661,0.008,1.323,0.008,1.984c0,0.213-0.108,0.342-0.365,0.342
		c-1.345,0-2.688,0-4.033,0.004c-0.263,0-0.365-0.133-0.366-0.342c-0.005-0.686,0.003-1.372,0.001-2.057
		c-0.001-0.208,0.106-0.298,0.337-0.297c0.681,0.004,1.361,0.002,2.043,0.002C16.002,22.344,16.002,22.346,16.002,22.35z"/>
	<path fill-rule="evenodd" clip-rule="evenodd" fill="#FCFCFC" d="M15.977,21.495c-0.635,0-1.27,0.003-1.906-0.002
		c-0.371-0.003-0.453-0.083-0.451-0.411c0.001-0.57,0-1.14,0-1.711c0-0.3,0.044-0.352,0.381-0.354c1.317-0.004,2.632-0.004,3.949,0
		c0.386,0.002,0.423,0.048,0.424,0.392c0.003,0.563,0.007,1.124,0.011,1.686c0.004,0.29-0.091,0.391-0.42,0.393
		c-0.661,0.007-1.326,0.003-1.989,0.003C15.977,21.493,15.977,21.494,15.977,21.495z"/>
</g>
</svg>
