<?xml version="1.0" encoding="utf-8"?>
<!-- Generator: Adobe Illustrator 16.0.0, SVG Export Plug-In . SVG Version: 6.00 Build 0)  -->
<!DOCTYPE svg PUBLIC "-//W3C//DTD SVG 1.1//EN" "http://www.w3.org/Graphics/SVG/1.1/DTD/svg11.dtd">
<svg version="1.1" xmlns="http://www.w3.org/2000/svg" xmlns:xlink="http://www.w3.org/1999/xlink" x="0px" y="0px" width="32px"
	 height="32px" viewBox="0 0 32 32" enable-background="new 0 0 32 32" xml:space="preserve">
<symbol  id="dude-transit" viewBox="0 -25.1 21.25 25.118">
	<path fill-rule="evenodd" clip-rule="evenodd" fill="#FFFFFF" d="M15.5-4.2l0.75-1.05l1-3.1l3.9-2.65v-0.05
		c0.067-0.1,0.1-0.233,0.1-0.4c0-0.2-0.05-0.383-0.15-0.55c-0.167-0.233-0.383-0.35-0.65-0.35l-4.3,1.8l-1.2,1.65l-1.5-3.95
		l2.25-5.05l-3.25-6.9c-0.267-0.2-0.633-0.3-1.1-0.3c-0.3,0-0.55,0.15-0.75,0.45c-0.1,0.133-0.15,0.25-0.15,0.35
		c0,0.067,0.017,0.15,0.05,0.25c0.033,0.1,0.067,0.184,0.1,0.25l2.55,5.6L10.7-14l-3.05-4.9L0.8-18.7
		c-0.367,0.033-0.6,0.184-0.7,0.45c-0.067,0.3-0.1,0.467-0.1,0.5c0,0.5,0.2,0.767,0.6,0.8l5.7,0.15l2.15,5.4l3.1,5.65L9.4-5.6
		c-1.367-2-2.1-3.033-2.2-3.1C7.1-8.8,6.95-8.85,6.75-8.85C6.35-8.85,6.1-8.667,6-8.3C5.9-8,5.9-7.8,6-7.7H5.95l2.5,4.4l3.7,0.3
		L14-3.5L15.5-4.2z M14.55-2.9c-0.333,0.4-0.45,0.85-0.35,1.35c0.033,0.5,0.25,0.9,0.65,1.2S15.7,0.066,16.2,0
		c0.5-0.067,0.9-0.3,1.2-0.7c0.333-0.4,0.467-0.85,0.4-1.35c-0.066-0.5-0.3-0.9-0.7-1.2c-0.4-0.333-0.85-0.45-1.35-0.35
		C15.25-3.533,14.85-3.3,14.55-2.9z"/>
</symbol>
<g id="Layer_1">
	<g id="bomb">
		<path fill="#FFFFFF" d="M31.656,20.297l-7.313-4.028l5.5-8.315l-9.125,2.656L20.063,0.516l-4.938,9.375L7.219,2.359l3.156,10.5
			l-10.031,0.25l8.188,6.406l-4.313,7.375l8.125-3.906l0.344,8.5l5.5-6.188l6.969,5.594l-1.625-8.594L31.656,20.297z M21.75,25.172
			l-3.563-3.281l-3.594,4.156l-0.531-5.969l-5,2.344l2.375-3.5l-5.5-3.813l7.125-0.219l-1.406-5.406l4.188,3.813l2.5-4.469
			l0.827,4.887l5.079-1.512l-3.281,5.031l4.518,2.373l-4.518,0.939L21.75,25.172z"/>
		<polygon fill="#FFFFFF" points="12.794,16.944 15.469,17.016 14.969,15.109 16.813,15.891 17.531,14.391 17.844,15.891 
			19.5,15.703 18.5,17.016 19.969,18.359 18.563,18.359 19.031,20.047 17.406,18.922 16.281,20.391 16.281,18.734 14.719,18.891 
			15.313,18.016 		"/>
	</g>
</g>
<g id="Layer_2">
</g>
</svg>
