<?xml version="1.0" encoding="utf-8"?>
<!-- Generator: Adobe Illustrator 16.0.0, SVG Export Plug-In . SVG Version: 6.00 Build 0)  -->
<!DOCTYPE svg PUBLIC "-//W3C//DTD SVG 1.1//EN" "http://www.w3.org/Graphics/SVG/1.1/DTD/svg11.dtd">
<svg version="1.1" xmlns="http://www.w3.org/2000/svg" xmlns:xlink="http://www.w3.org/1999/xlink" x="0px" y="0px" width="32px"
	 height="32px" viewBox="0 0 32 32" enable-background="new 0 0 32 32" xml:space="preserve">
<symbol  id="dude-transit" viewBox="0 -25.1 21.25 25.118">
	<path fill-rule="evenodd" clip-rule="evenodd" fill="#FFFFFF" d="M15.5-4.2l0.75-1.05l1-3.1l3.9-2.65v-0.05
		c0.067-0.1,0.1-0.233,0.1-0.4c0-0.2-0.05-0.383-0.15-0.55c-0.167-0.233-0.383-0.35-0.65-0.35l-4.3,1.8l-1.2,1.65l-1.5-3.95
		l2.25-5.05l-3.25-6.9c-0.267-0.2-0.633-0.3-1.1-0.3c-0.3,0-0.55,0.15-0.75,0.45c-0.1,0.133-0.15,0.25-0.15,0.35
		c0,0.067,0.017,0.15,0.05,0.25c0.033,0.1,0.067,0.184,0.1,0.25l2.55,5.6L10.7-14l-3.05-4.9L0.8-18.7
		c-0.367,0.033-0.6,0.184-0.7,0.45c-0.067,0.3-0.1,0.467-0.1,0.5c0,0.5,0.2,0.767,0.6,0.8l5.7,0.15l2.15,5.4l3.1,5.65L9.4-5.6
		c-1.367-2-2.1-3.033-2.2-3.1C7.1-8.8,6.95-8.85,6.75-8.85C6.35-8.85,6.1-8.667,6-8.3C5.9-8,5.9-7.8,6-7.7H5.95l2.5,4.4l3.7,0.3
		L14-3.5L15.5-4.2z M14.55-2.9c-0.333,0.4-0.45,0.85-0.35,1.35c0.033,0.5,0.25,0.9,0.65,1.2S15.7,0.066,16.2,0
		c0.5-0.067,0.9-0.3,1.2-0.7c0.333-0.4,0.467-0.85,0.4-1.35c-0.066-0.5-0.3-0.9-0.7-1.2c-0.4-0.333-0.85-0.45-1.35-0.35
		C15.25-3.533,14.85-3.3,14.55-2.9z"/>
</symbol>
<g id="Layer_1">
</g>
<g id="Layer_2">
	<g>
		<path fill="#FFFFFF" d="M29.539,6.054c-0.41-2.959-1.966-4.172-2.81-4.618c-0.548-0.291-2.172-0.733-3.613-0.733
			c-2.062,0-3.73,0.313-4.083,0.41c-1.309,0.356-1.874,0.821-1.916,1.295c-0.05,0.555-0.014,0.715-0.014,0.715l0.621,0.011
			c0-0.846,0.252-0.964,0.635-1.122c0.649-0.269,1.388-0.595,4.203-0.675c2.973-0.083,4.161,0.651,4.784,1.31
			c1.639,1.73,1.755,3.499,1.837,9.158c0.079,5.444-0.408,6.684-0.688,7.61c-0.309,1.026-0.915,1.688-1.89,1.785
			c-0.368,0.037-0.968,0.031-1.507,0.014V5.222c0-0.525-0.426-0.951-0.951-0.951h-6.364V3.517c0-0.114-0.093-0.208-0.208-0.208
			h-0.398c-0.115,0-0.208,0.094-0.208,0.208v0.754H6.266c-0.525,0-0.951,0.426-0.951,0.951v4.916H4.521
			c-0.263,0-0.476,0.214-0.476,0.477v6.362c0,0.264,0.213,0.476,0.476,0.476h0.794v12.549c0,0.525,0.426,0.951,0.951,0.951h17.881
			c0.525,0,0.951-0.426,0.951-0.951v-8.049c0.305,0,0.682,0,1.15,0c1.361,0,1.93-0.651,2.359-1.233
			c0.54-0.733,1.021-2.519,1.13-4.396C29.938,12.871,29.794,7.902,29.539,6.054z M19.112,26.789H8.804V14.578h10.308V26.789z
			 M21.927,10.852H8.804V6.887h13.123V10.852z"/>
		<path fill="#FFFFFF" d="M11.804,17.155c0,0.088-0.071,0.158-0.158,0.158h-1.388c-0.088,0-0.159-0.07-0.159-0.158v-1.051
			c0-0.088,0.071-0.158,0.159-0.158h1.388c0.087,0,0.158,0.07,0.158,0.158V17.155z"/>
		<path fill="#FFFFFF" d="M14.579,17.155c0,0.088-0.071,0.158-0.159,0.158h-1.388c-0.087,0-0.159-0.07-0.159-0.158v-1.051
			c0-0.088,0.072-0.158,0.159-0.158h1.388c0.087,0,0.159,0.07,0.159,0.158V17.155z"/>
		<path fill="#FFFFFF" d="M17.354,17.155c0,0.088-0.071,0.158-0.158,0.158h-1.388c-0.087,0-0.158-0.07-0.158-0.158v-1.051
			c0-0.088,0.07-0.158,0.158-0.158h1.388c0.087,0,0.158,0.07,0.158,0.158V17.155z"/>
		<path fill="#FFFFFF" d="M11.804,19.772c0,0.088-0.071,0.158-0.158,0.158h-1.388c-0.088,0-0.159-0.07-0.159-0.158v-1.051
			c0-0.088,0.071-0.158,0.159-0.158h1.388c0.087,0,0.158,0.07,0.158,0.158V19.772z"/>
		<path fill="#FFFFFF" d="M14.579,19.772c0,0.088-0.071,0.158-0.159,0.158h-1.388c-0.087,0-0.159-0.07-0.159-0.158v-1.051
			c0-0.088,0.072-0.158,0.159-0.158h1.388c0.087,0,0.159,0.07,0.159,0.158V19.772z"/>
		<path fill="#FFFFFF" d="M17.354,19.772c0,0.088-0.071,0.158-0.158,0.158h-1.388c-0.087,0-0.158-0.07-0.158-0.158v-1.051
			c0-0.088,0.07-0.158,0.158-0.158h1.388c0.087,0,0.158,0.07,0.158,0.158V19.772z"/>
		<path fill="#FFFFFF" d="M11.804,22.388c0,0.089-0.071,0.16-0.158,0.16h-1.388c-0.088,0-0.159-0.071-0.159-0.16v-1.049
			c0-0.089,0.071-0.16,0.159-0.16h1.388c0.087,0,0.158,0.071,0.158,0.16V22.388z"/>
		<path fill="#FFFFFF" d="M14.579,22.388c0,0.089-0.071,0.16-0.159,0.16h-1.388c-0.087,0-0.159-0.071-0.159-0.16v-1.049
			c0-0.089,0.072-0.16,0.159-0.16h1.388c0.087,0,0.159,0.071,0.159,0.16V22.388z"/>
		<path fill="#FFFFFF" d="M17.354,22.388c0,0.089-0.071,0.16-0.158,0.16h-1.388c-0.087,0-0.158-0.071-0.158-0.16v-1.049
			c0-0.089,0.07-0.16,0.158-0.16h1.388c0.087,0,0.158,0.071,0.158,0.16V22.388z"/>
		<path fill="#FFFFFF" d="M11.804,25.006c0,0.087-0.071,0.158-0.158,0.158h-1.388c-0.088,0-0.159-0.071-0.159-0.158v-1.052
			c0-0.087,0.071-0.158,0.159-0.158h1.388c0.087,0,0.158,0.071,0.158,0.158V25.006z"/>
		<path fill="#FFFFFF" d="M14.579,25.006c0,0.087-0.071,0.158-0.159,0.158h-1.388c-0.087,0-0.159-0.071-0.159-0.158v-1.052
			c0-0.087,0.072-0.158,0.159-0.158h1.388c0.087,0,0.159,0.071,0.159,0.158V25.006z"/>
		<path fill="#FFFFFF" d="M17.354,25.006c0,0.087-0.071,0.158-0.158,0.158h-1.388c-0.087,0-0.158-0.071-0.158-0.158v-1.052
			c0-0.087,0.07-0.158,0.158-0.158h1.388c0.087,0,0.158,0.071,0.158,0.158V25.006z"/>
	</g>
</g>
</svg>
