<?xml version="1.0" encoding="utf-8"?>
<!-- Generator: Adobe Illustrator 16.0.0, SVG Export Plug-In . SVG Version: 6.00 Build 0)  -->
<!DOCTYPE svg PUBLIC "-//W3C//DTD SVG 1.1//EN" "http://www.w3.org/Graphics/SVG/1.1/DTD/svg11.dtd">
<svg version="1.1" id="Layer_1" xmlns="http://www.w3.org/2000/svg" xmlns:xlink="http://www.w3.org/1999/xlink" x="0px" y="0px"
	 width="32px" height="32px" viewBox="0 0 32 32" enable-background="new 0 0 32 32" xml:space="preserve">
<g id="Layer_1_1_">
</g>
<g id="Layer_2">
	<g>
		<path fill="#FFFFFF" d="M15.599,25.531c1.678-0.732,2.441-2.684,1.709-4.359l-6.066,2.65
			C11.973,25.498,13.924,26.264,15.599,25.531z"/>
		<polygon fill="#FFFFFF" points="9.238,13.383 8.214,16.768 11.073,23.32 17.055,20.707 14.193,14.156 10.965,12.698 12.371,9.561 
			11.123,6.703 8.319,7.927 9.26,10.082 8.535,10.398 7.595,8.244 4.791,9.467 6.038,12.325 		"/>
	</g>
</g>
<g>
	<path fill="#FFFFFF" d="M19.008,18.523v-2.053h-0.729c-0.566,0-1.049-0.199-1.449-0.602c-0.4-0.401-0.602-0.889-0.602-1.466v-1.676
		h2.168v1.281c0,0.145,0.053,0.267,0.158,0.364c0.104,0.099,0.23,0.148,0.375,0.148H20.9c0.357,0,0.533-0.171,0.533-0.513v-2.268
		c0-0.184-0.027-0.313-0.078-0.384c-0.053-0.073-0.164-0.135-0.336-0.188c-1.5-0.434-2.598-0.771-3.293-1.005
		c-0.436-0.145-0.789-0.385-1.064-0.721c-0.277-0.335-0.414-0.726-0.414-1.172V5.41c0-0.578,0.199-1.067,0.6-1.468
		c0.402-0.401,0.885-0.602,1.451-0.602h0.709v-2.05h1.656v2.05h0.77c0.578,0,1.07,0.2,1.477,0.602
		c0.408,0.401,0.611,0.891,0.611,1.468v1.499h-2.168V5.806c0-0.145-0.051-0.266-0.156-0.365c-0.105-0.099-0.23-0.148-0.377-0.148
		h-1.773c-0.381,0-0.572,0.17-0.572,0.513v2.069c0,0.277,0.139,0.461,0.414,0.552c0.186,0.054,0.688,0.204,1.508,0.454
		c0.822,0.25,1.418,0.435,1.785,0.551c0.986,0.33,1.479,0.966,1.479,1.913v3.058c0,0.577-0.203,1.068-0.611,1.466
		c-0.406,0.402-0.9,0.602-1.479,0.602h-0.906v2.053H19.008z"/>
</g>
<path fill="#FFFFFF" d="M18.496,23.035c-0.035,0.32-0.111,0.629-0.213,0.924c4.545,0.301,7.941,1.475,7.941,2.879
	c0,1.633-4.578,2.955-10.225,2.955c-5.648,0-10.226-1.322-10.226-2.955c0-1.023,2.069-1.984,4.806-2.516
	c-0.132-0.354-0.256-0.635-0.387-0.98c-4.442,0.516-7.582,1.986-7.582,3.496c0,2.139,5.994,3.871,13.391,3.871
	c7.393,0,13.387-1.732,13.387-3.871C29.389,24.949,24.697,23.375,18.496,23.035z"/>
<path fill="#FFFFFF" d="M17.59,25.102c-0.793,0.965-1.994,1.578-3.338,1.578c-1.049,0-2.011-0.375-2.759-0.996
	c-0.72,0.275-1.151,0.615-1.151,0.986c0,0.902,2.533,1.635,5.657,1.635c3.126,0,5.659-0.732,5.659-1.635
	C21.658,25.926,19.939,25.301,17.59,25.102z"/>
<g>
	<path fill="#FFFFFF" d="M24.289,8.762h1.566V7.136H26.9v1.626h1.566v0.936H26.9v1.626h-1.045V9.698h-1.566V8.762z"/>
</g>
</svg>
