<?xml version="1.0" encoding="utf-8"?>
<!-- Generator: Adobe Illustrator 23.0.3, SVG Export Plug-In . SVG Version: 6.00 Build 0)  -->
<svg version="1.1" baseProfile="tiny" xmlns="http://www.w3.org/2000/svg" xmlns:xlink="http://www.w3.org/1999/xlink" x="0px"
	 y="0px" width="32px" height="32px" viewBox="0 0 32 32" xml:space="preserve">
<g id="Layer_1">
</g>
<g id="Layer_2">
	<path fill-rule="evenodd" fill="#FFFFFF" d="M15.619,31.762c-0.387,0-0.702-0.315-0.702-0.702V15.686l-0.136-0.209
		c-1.025-0.528-1.587-1.628-1.406-2.784c0.168-1.08,1.069-2.002,2.142-2.191c0.164-0.029,0.325-0.042,0.484-0.042
		c1.466,0,2.659,1.193,2.659,2.659c0,0.993-0.56,1.903-1.44,2.359l-0.136,0.21v15.273c0,0.443-0.36,0.803-0.802,0.803H15.619z"/>
	<path fill-rule="evenodd" fill="#FFFFFF" d="M15.619,31.274c-0.118,0-0.214-0.096-0.214-0.214V15.542l-0.289-0.446
		c-0.906-0.406-1.413-1.342-1.259-2.328c0.136-0.881,0.869-1.631,1.744-1.786c0.135-0.023,0.268-0.035,0.399-0.035
		c1.196,0,2.171,0.973,2.171,2.17c0,0.852-0.506,1.628-1.287,1.979l-0.289,0.446v15.418c0,0.173-0.141,0.314-0.314,0.314H15.619z"/>
	<path fill-rule="evenodd" fill="#FFFFFF" d="M6.603,21.657c-0.233,0-0.451-0.104-0.599-0.284c-1.897-2.306-2.94-5.218-2.94-8.199
		c0-7.133,5.804-12.936,12.937-12.936c0.492,0,0.994,0.028,1.489,0.083c5.723,0.639,10.479,5.234,11.306,10.925
		c0.514,3.536-0.398,7.026-2.568,9.826c-0.142,0.185-0.357,0.291-0.588,0.291c-0.249,0-0.477-0.125-0.611-0.335l-0.068-0.108
		c-0.283-0.448-0.279-1.028,0.011-1.442c1.304-1.852,1.993-4.032,1.993-6.304c0-6.046-4.919-10.966-10.966-10.966
		c-0.423,0-0.851,0.024-1.272,0.072C9.904,2.823,5.88,6.696,5.161,11.49c-0.443,2.952,0.291,5.88,2.066,8.244
		c0.335,0.449,0.346,1.074,0.03,1.558C7.107,21.523,6.869,21.657,6.603,21.657z"/>
	<path fill-rule="evenodd" fill="#FFFFFF" d="M6.604,21.168c-0.051,0-0.147-0.014-0.222-0.106c-1.824-2.219-2.829-5.021-2.829-7.888
		c0-6.864,5.584-12.448,12.449-12.448c0.475,0,0.958,0.027,1.435,0.081c5.506,0.615,10.081,5.035,10.876,10.51
		c0.495,3.404-0.383,6.762-2.471,9.457c-0.068,0.088-0.156,0.101-0.201,0.101c-0.049,0-0.138-0.014-0.198-0.109l-0.066-0.105
		c-0.18-0.285-0.181-0.647-0.003-0.901c1.361-1.935,2.082-4.212,2.082-6.586C27.455,6.858,22.316,1.72,16,1.72
		c-0.439,0-0.885,0.025-1.326,0.074c-5.041,0.568-9.245,4.615-9.996,9.623c-0.463,3.083,0.303,6.14,2.158,8.61
		c0.211,0.283,0.217,0.684,0.011,0.997C6.763,21.156,6.65,21.168,6.604,21.168z"/>
	<path fill-rule="evenodd" fill="#FFFFFF" d="M10.3,18.703c-0.288,0-0.558-0.128-0.741-0.351c-1.221-1.485-1.894-3.362-1.894-5.282
		c0-4.596,3.739-8.335,8.335-8.335c0.315,0,0.635,0.018,0.958,0.053c3.688,0.412,6.754,3.374,7.287,7.042
		c0.331,2.277-0.257,4.525-1.655,6.329c-0.179,0.232-0.45,0.365-0.742,0.365c-0.321,0-0.613-0.161-0.784-0.432
		c-0.322-0.509-0.313-1.066-0.019-1.481c0.732-1.04,1.119-2.265,1.119-3.542c0-3.398-2.765-6.163-6.163-6.163
		c-0.237,0-0.475,0.013-0.717,0.041c-2.711,0.305-4.971,2.481-5.374,5.174c-0.248,1.661,0.164,3.306,1.16,4.634
		c0.326,0.434,0.342,1.039,0.038,1.504C10.923,18.542,10.624,18.703,10.3,18.703z"/>
	<path fill-rule="evenodd" fill="#FFFFFF" d="M10.678,17.048c-1.019-1.358-1.535-3.115-1.253-5c0.439-2.929,2.859-5.255,5.803-5.587
		c4.019-0.452,7.423,2.68,7.423,6.608c0,1.423-0.447,2.742-1.209,3.824c-0.183,0.259-0.176,0.608-0.006,0.876l0.04,0.063
		c0.165,0.262,0.538,0.273,0.728,0.028c1.245-1.607,1.886-3.704,1.557-5.96c-0.506-3.477-3.366-6.237-6.858-6.627
		c-4.738-0.529-8.75,3.165-8.75,7.796c0,1.889,0.671,3.619,1.784,4.973c0.2,0.244,0.58,0.226,0.753-0.038l0.007-0.011
		C10.885,17.704,10.885,17.324,10.678,17.048z"/>
</g>
</svg>
