<?xml version="1.0" encoding="utf-8"?>
<!-- Generator: Adobe Illustrator 23.0.3, SVG Export Plug-In . SVG Version: 6.00 Build 0)  -->
<svg version="1.1" baseProfile="tiny" xmlns="http://www.w3.org/2000/svg" xmlns:xlink="http://www.w3.org/1999/xlink" x="0px"
	 y="0px" width="32px" height="32px" viewBox="0 0 32 32" xml:space="preserve">
<g id="Layer_1">
</g>
<g id="Layer_2">
	<path fill-rule="evenodd" fill="#FFFFFF" d="M6.443,21.79c-0.238,0-0.462-0.105-0.613-0.291c-1.941-2.36-3.01-5.34-3.01-8.392
		c0-7.301,5.94-13.241,13.242-13.241c0.504,0,1.018,0.029,1.524,0.085c5.858,0.654,10.726,5.357,11.572,11.183
		c0.526,3.62-0.407,7.191-2.629,10.058c-0.146,0.188-0.365,0.297-0.602,0.297c-0.255,0-0.488-0.128-0.625-0.343l-0.069-0.11
		c-0.29-0.459-0.285-1.053,0.012-1.476c1.335-1.896,2.04-4.127,2.04-6.453c0-6.189-5.035-11.224-11.225-11.224
		c-0.433,0-0.871,0.024-1.302,0.073c-4.938,0.556-9.057,4.521-9.793,9.427c-0.453,3.022,0.298,6.019,2.114,8.438
		c0.343,0.459,0.354,1.1,0.03,1.595C6.959,21.653,6.715,21.79,6.443,21.79z"/>
	<path fill-rule="evenodd" fill="#FFFFFF" d="M6.444,21.29c-0.052,0-0.15-0.015-0.228-0.108c-1.867-2.271-2.896-5.139-2.896-8.074
		c0-7.025,5.716-12.741,12.742-12.741c0.486,0,0.98,0.028,1.469,0.083c5.636,0.629,10.318,5.154,11.133,10.757
		c0.507,3.484-0.392,6.922-2.529,9.68c-0.069,0.09-0.159,0.104-0.206,0.104c-0.05,0-0.142-0.015-0.203-0.111l-0.067-0.107
		c-0.185-0.292-0.186-0.663-0.003-0.922c1.394-1.98,2.131-4.312,2.131-6.741c0-6.465-5.26-11.724-11.725-11.724
		c-0.449,0-0.906,0.025-1.357,0.076c-5.16,0.581-9.463,4.724-10.231,9.85c-0.474,3.155,0.311,6.285,2.209,8.813
		c0.216,0.29,0.222,0.7,0.012,1.02C6.607,21.277,6.49,21.29,6.444,21.29z"/>
</g>
</svg>
