<?xml version="1.0" encoding="utf-8"?>
<!-- Generator: Adobe Illustrator 23.0.3, SVG Export Plug-In . SVG Version: 6.00 Build 0)  -->
<svg version="1.1" baseProfile="tiny" xmlns="http://www.w3.org/2000/svg" xmlns:xlink="http://www.w3.org/1999/xlink" x="0px"
	 y="0px" width="32px" height="32px" viewBox="0 0 32 32" xml:space="preserve">
<g id="Layer_1">
</g>
<g id="Layer_2">
	<path fill-rule="evenodd" fill="#FFFFFF" d="M15.672,32.134c-0.396,0-0.719-0.322-0.719-0.719V15.679l-0.14-0.214
		c-1.049-0.541-1.624-1.666-1.439-2.85c0.172-1.105,1.094-2.049,2.192-2.243c0.168-0.029,0.333-0.043,0.495-0.043
		c1.501,0,2.722,1.221,2.722,2.721c0,1.017-0.573,1.948-1.474,2.415l-0.14,0.215v15.633c0,0.453-0.368,0.822-0.821,0.822H15.672z"/>
	<path fill-rule="evenodd" fill="#FFFFFF" d="M15.672,31.634c-0.121,0-0.219-0.098-0.219-0.219V15.531l-0.296-0.456
		c-0.928-0.416-1.446-1.374-1.289-2.383c0.14-0.901,0.89-1.67,1.785-1.828c0.138-0.024,0.274-0.036,0.408-0.036
		c1.225,0,2.222,0.996,2.222,2.221c0,0.872-0.518,1.667-1.317,2.025l-0.296,0.456v15.781c0,0.177-0.145,0.322-0.321,0.322H15.672z"
		/>
</g>
</svg>
