<?xml version="1.0" encoding="utf-8"?>
<!-- Generator: Adobe Illustrator 23.0.3, SVG Export Plug-In . SVG Version: 6.00 Build 0)  -->
<svg version="1.1" baseProfile="tiny" xmlns="http://www.w3.org/2000/svg" xmlns:xlink="http://www.w3.org/1999/xlink" x="0px"
	 y="0px" width="32px" height="32px" viewBox="0 0 32 32" xml:space="preserve">
<g id="Layer_1">
</g>
<g id="Layer_2">
	<path fill-rule="evenodd" fill="#FFFFFF" d="M10.166,18.883c-0.295,0-0.57-0.131-0.758-0.358c-1.251-1.521-1.939-3.442-1.939-5.408
		c0-4.704,3.827-8.531,8.531-8.531c0.322,0,0.65,0.018,0.98,0.055c3.775,0.422,6.913,3.453,7.459,7.208
		c0.339,2.331-0.263,4.632-1.693,6.479c-0.185,0.237-0.462,0.373-0.761,0.373c-0.328,0-0.628-0.165-0.803-0.442
		c-0.328-0.521-0.32-1.091-0.02-1.516c0.749-1.064,1.146-2.318,1.146-3.626c0-3.479-2.83-6.309-6.309-6.309
		c-0.242,0-0.487,0.014-0.734,0.042c-2.774,0.312-5.088,2.539-5.501,5.296c-0.254,1.699,0.168,3.385,1.188,4.744
		c0.334,0.443,0.35,1.063,0.039,1.539C10.803,18.717,10.497,18.883,10.166,18.883L10.166,18.883z"/>
	<path fill-rule="evenodd" fill="#FFFFFF" d="M10.553,17.189c-1.043-1.39-1.572-3.188-1.282-5.118
		c0.45-2.998,2.927-5.379,5.94-5.718c4.114-0.463,7.598,2.743,7.598,6.764c0,1.457-0.458,2.807-1.237,3.914
		c-0.187,0.265-0.18,0.622-0.006,0.896l0.041,0.064c0.169,0.268,0.551,0.279,0.745,0.029c1.275-1.645,1.93-3.791,1.594-6.101
		c-0.518-3.559-3.445-6.384-7.019-6.783c-4.85-0.542-8.957,3.239-8.957,7.98c0,1.934,0.687,3.705,1.826,5.09
		c0.205,0.25,0.594,0.231,0.77-0.039l0.007-0.011C10.765,17.86,10.765,17.472,10.553,17.189z"/>
</g>
</svg>
