<?xml version="1.0" encoding="utf-8"?>
<!-- Generator: Adobe Illustrator 16.0.0, SVG Export Plug-In . SVG Version: 6.00 Build 0)  -->
<!DOCTYPE svg PUBLIC "-//W3C//DTD SVG 1.1//EN" "http://www.w3.org/Graphics/SVG/1.1/DTD/svg11.dtd">
<svg version="1.1" xmlns="http://www.w3.org/2000/svg" xmlns:xlink="http://www.w3.org/1999/xlink" x="0px" y="0px" width="32px"
	 height="32px" viewBox="0 0 32 32" enable-background="new 0 0 32 32" xml:space="preserve">
<symbol  id="dude-transit" viewBox="0 -25.1 21.25 25.118">
	<path fill-rule="evenodd" clip-rule="evenodd" fill="#FFFFFF" d="M15.5-4.2l0.75-1.05l1-3.1l3.9-2.65v-0.05
		c0.067-0.1,0.1-0.233,0.1-0.4c0-0.2-0.05-0.383-0.15-0.55c-0.167-0.233-0.383-0.35-0.65-0.35l-4.3,1.8l-1.2,1.65l-1.5-3.95
		l2.25-5.05l-3.25-6.9c-0.267-0.2-0.633-0.3-1.1-0.3c-0.3,0-0.55,0.15-0.75,0.45c-0.1,0.133-0.15,0.25-0.15,0.35
		c0,0.067,0.017,0.15,0.05,0.25c0.033,0.1,0.067,0.184,0.1,0.25l2.55,5.6L10.7-14l-3.05-4.9L0.8-18.7
		c-0.367,0.033-0.6,0.184-0.7,0.45c-0.067,0.3-0.1,0.467-0.1,0.5c0,0.5,0.2,0.767,0.6,0.8l5.7,0.15l2.15,5.4l3.1,5.65L9.4-5.6
		c-1.367-2-2.1-3.033-2.2-3.1C7.1-8.8,6.95-8.85,6.75-8.85C6.35-8.85,6.1-8.667,6-8.3C5.9-8,5.9-7.8,6-7.7H5.95l2.5,4.4l3.7,0.3
		L14-3.5L15.5-4.2z M14.55-2.9c-0.333,0.4-0.45,0.85-0.35,1.35c0.033,0.5,0.25,0.9,0.65,1.2S15.7,0.066,16.2,0
		c0.5-0.067,0.9-0.3,1.2-0.7c0.333-0.4,0.467-0.85,0.4-1.35c-0.066-0.5-0.3-0.9-0.7-1.2c-0.4-0.333-0.85-0.45-1.35-0.35
		C15.25-3.533,14.85-3.3,14.55-2.9z"/>
</symbol>
<g id="Layer_1">
</g>
<g id="Layer_2">
	<g>
		<rect x="9.278" y="13.819" fill="#FFFFFF" width="2.612" height="3.129"/>
		<polygon fill="#FFFFFF" points="5.933,12.919 8.377,12.919 8.377,9.739 5.146,9.739 		"/>
		<rect x="12.793" y="13.819" fill="#FFFFFF" width="2.611" height="3.129"/>
		<rect x="9.278" y="9.739" fill="#FFFFFF" width="2.612" height="3.18"/>
		<circle fill="#FFFFFF" cx="7.311" cy="26.457" r="0.686"/>
		<circle fill="#FFFFFF" cx="21.513" cy="26.457" r="0.686"/>
		<polygon fill="#FFFFFF" points="6.928,16.948 8.377,16.948 8.377,13.819 6.154,13.819 		"/>
		<polygon fill="#FFFFFF" points="19.822,12.919 22.283,12.919 23.126,9.739 19.822,9.739 		"/>
		<polygon fill="#FFFFFF" points="19.822,16.948 21.216,16.948 22.044,13.819 19.822,13.819 		"/>
		<path fill="#FFFFFF" d="M28.017,1.227H4.191c-1.657,0-3,1.344-3,3v23.826c0,1.656,1.343,3,3,3h23.825c1.657,0,3-1.344,3-3V4.227
			C31.017,2.57,29.674,1.227,28.017,1.227z M7.311,28.556c-1.159,0-2.102-0.941-2.102-2.098c0-1.159,0.942-2.102,2.102-2.102
			s2.099,0.942,2.099,2.102C9.409,27.614,8.47,28.556,7.311,28.556z M21.513,28.556c-1.159,0-2.099-0.941-2.099-2.098
			c0-1.159,0.939-2.102,2.099-2.102c1.157,0,2.099,0.942,2.099,2.102C23.611,27.614,22.67,28.556,21.513,28.556z M28.784,6.134
			l-3.439,3.438l-2.046,7.724c0.627,0.313,1.816,1.157,1.816,3.059c0,2.498-1.85,3.403-3.092,3.403H6.104
			c-0.579,0-1.05-0.472-1.05-1.051c0-0.58,0.471-1.051,1.05-1.051h15.92c0.367-0.012,0.989-0.196,0.989-1.302
			c0-1.133-0.801-1.283-1.045-1.302H6.104c-0.123,0-0.245-0.025-0.376-0.076c-0.032-0.012-0.059-0.027-0.086-0.044
			c-0.109-0.058-0.177-0.103-0.233-0.156c-0.035-0.031-0.064-0.064-0.096-0.102c-0.051-0.06-0.095-0.124-0.132-0.195
			c-0.021-0.045-0.042-0.088-0.06-0.133c-0.017-0.035-0.029-0.061-0.037-0.093L2.782,8.941C2.771,8.898,2.771,8.863,2.773,8.836
			L2.77,8.79C2.763,8.765,2.752,8.73,2.752,8.688c0-0.034,0.009-0.062,0.013-0.079c0.007-0.082,0.027-0.152,0.043-0.21
			c0.021-0.07,0.04-0.128,0.069-0.186c0.027-0.057,0.067-0.108,0.108-0.161C3.03,7.993,3.07,7.945,3.122,7.901
			C3.17,7.859,3.224,7.826,3.279,7.793C3.33,7.765,3.396,7.728,3.478,7.701C3.494,7.692,3.517,7.678,3.549,7.67
			c0.036-0.011,0.061-0.011,0.079-0.011l0.043,0.15v-0.15c0.053-0.011,0.09-0.021,0.133-0.021H23.88l3.202-3.201
			c0.454-0.456,1.245-0.456,1.702,0C29.249,4.905,29.249,5.666,28.784,6.134z"/>
		<rect x="16.309" y="9.739" fill="#FFFFFF" width="2.612" height="3.18"/>
		<rect x="12.793" y="9.739" fill="#FFFFFF" width="2.611" height="3.18"/>
		<rect x="16.309" y="13.819" fill="#FFFFFF" width="2.612" height="3.129"/>
	</g>
</g>
</svg>
