<?xml version="1.0" encoding="utf-8"?>
<!-- Generator: Adobe Illustrator 16.0.0, SVG Export Plug-In . SVG Version: 6.00 Build 0)  -->
<!DOCTYPE svg PUBLIC "-//W3C//DTD SVG 1.1//EN" "http://www.w3.org/Graphics/SVG/1.1/DTD/svg11.dtd">
<svg version="1.1" xmlns="http://www.w3.org/2000/svg" xmlns:xlink="http://www.w3.org/1999/xlink" x="0px" y="0px" width="32px"
	 height="32px" viewBox="0 0 32 32" enable-background="new 0 0 32 32" xml:space="preserve">
<symbol  id="dude-transit" viewBox="0 -25.1 21.25 25.118">
	<path fill-rule="evenodd" clip-rule="evenodd" fill="#FFFFFF" d="M15.5-4.2l0.75-1.05l1-3.1l3.9-2.65v-0.05
		c0.067-0.1,0.1-0.233,0.1-0.4c0-0.2-0.05-0.383-0.15-0.55c-0.167-0.233-0.383-0.35-0.65-0.35l-4.3,1.8l-1.2,1.65l-1.5-3.95
		l2.25-5.05l-3.25-6.9c-0.267-0.2-0.633-0.3-1.1-0.3c-0.3,0-0.55,0.15-0.75,0.45c-0.1,0.133-0.15,0.25-0.15,0.35
		c0,0.067,0.017,0.15,0.05,0.25c0.033,0.1,0.067,0.184,0.1,0.25l2.55,5.6L10.7-14l-3.05-4.9L0.8-18.7
		c-0.367,0.033-0.6,0.184-0.7,0.45c-0.067,0.3-0.1,0.467-0.1,0.5c0,0.5,0.2,0.767,0.6,0.8l5.7,0.15l2.15,5.4l3.1,5.65L9.4-5.6
		c-1.367-2-2.1-3.033-2.2-3.1C7.1-8.8,6.95-8.85,6.75-8.85C6.35-8.85,6.1-8.667,6-8.3C5.9-8,5.9-7.8,6-7.7H5.95l2.5,4.4l3.7,0.3
		L14-3.5L15.5-4.2z M14.55-2.9c-0.333,0.4-0.45,0.85-0.35,1.35c0.033,0.5,0.25,0.9,0.65,1.2S15.7,0.066,16.2,0
		c0.5-0.067,0.9-0.3,1.2-0.7c0.333-0.4,0.467-0.85,0.4-1.35c-0.066-0.5-0.3-0.9-0.7-1.2c-0.4-0.333-0.85-0.45-1.35-0.35
		C15.25-3.533,14.85-3.3,14.55-2.9z"/>
</symbol>
<g id="Layer_1">
</g>
<g id="Layer_2">
	<line fill="#E8E7E7" x1="8.014" y1="30.507" x2="8.014" y2="30.178"/>
	<g>
		<path fill-rule="evenodd" clip-rule="evenodd" fill="#E6E7E8" d="M7.126,13.22L3.828,9.924l-1.67-2.025
			c-1.121-1.517-1.713-2.69-1.774-3.52c0.94,0.062,2.083,0.598,3.427,1.607c0.563,0.427,1.24,1.018,2.033,1.773l3.371,3.371
			c-0.111,0.149-0.142,0.248-0.093,0.298c0.05,0.049,0.149,0.018,0.297-0.093l0.019,0.019c-0.11,0.148-0.143,0.248-0.092,0.297
			c0.049,0.05,0.148,0.018,0.297-0.093l0.094,0.093c-0.082,0.179-0.075,0.315,0.018,0.408c0.093,0.092,0.229,0.099,0.408,0.019
			l0.094,0.092c-0.112,0.148-0.143,0.247-0.094,0.297c0.051,0.049,0.149,0.019,0.297-0.093l0.02,0.02
			c-0.112,0.148-0.143,0.247-0.093,0.296c0.049,0.05,0.147,0.019,0.297-0.092l0.093,0.092c-0.093,0.167-0.086,0.303,0.019,0.409
			c0.093,0.093,0.229,0.099,0.409,0.018l0.082,0.084c-0.098,0.162-0.126,0.263-0.082,0.306c0.049,0.05,0.147,0.019,0.297-0.093
			l0.01,0.01c-0.112,0.148-0.143,0.248-0.094,0.297c0.044,0.043,0.146,0.015,0.307-0.084l0.092,0.093
			c-0.092,0.168-0.089,0.301,0.011,0.4c0.104,0.105,0.241,0.111,0.407,0.019l0.094,0.093c-0.111,0.149-0.143,0.248-0.094,0.298
			c0.051,0.049,0.15,0.019,0.299-0.094l0.018,0.019c-0.111,0.148-0.143,0.248-0.093,0.297c0.049,0.05,0.147,0.019,0.298-0.093
			l0.788,0.789c0.038,0.15,0.09,0.246,0.159,0.289c0.166,0.068,0.284,0.117,0.352,0.148l0.186,0.148l0.131-0.13l1.912-0.929
			l0.4,0.715c-0.223,0.037-0.434,0.136-0.631,0.297c-0.385,0.309-0.496,0.749-0.336,1.319c0.602,0.774,1.145,1.297,1.625,1.57
			c0.205,0.104,1.061,0.928,2.563,2.469c1.573,1.61,2.372,2.539,2.396,2.787c0.075,0.123,0.157,0.201,0.251,0.232l0.131,0.019
			c0.736,0.044,1.147,0.108,1.234,0.195c0.396,0.396,0.486,0.833,0.27,1.31c-0.143,0.329-0.377,0.675-0.706,1.041l0.019,0.018
			c0.08,0.08,0.049,0.192-0.094,0.333c-0.143,0.143-0.253,0.174-0.334,0.093l-0.018-0.019c-0.403,0.366-0.738,0.551-1.004,0.558
			c-0.322,0.012-0.554-0.009-0.696-0.065c-0.118-0.043-0.257-0.152-0.418-0.325c-0.123-0.136-0.216-0.285-0.278-0.446
			c-0.006-0.018-0.047-0.183-0.12-0.492c-0.031-0.043-0.534-0.458-1.505-1.244c-0.99-0.805-1.746-1.498-2.267-2.08
			c-1.771-1.944-2.811-3.059-3.12-3.344c-0.545-0.359-1.012-0.529-1.401-0.51c-0.379,0.019-0.864,0.226-1.459,0.623l-0.399-0.623
			l0.279-0.334l0.91-0.445l0.492-0.438l-0.093-0.241c-0.075-0.161-0.131-0.26-0.167-0.297c-0.063-0.062-0.195-0.115-0.4-0.158
			l-0.742-0.743c0.105-0.155,0.137-0.254,0.094-0.297c-0.051-0.05-0.149-0.02-0.299,0.092l-0.018-0.018
			c0.105-0.156,0.136-0.254,0.092-0.298c-0.036-0.037-0.135-0.006-0.297,0.094l-0.093-0.094c0.075-0.185,0.068-0.322-0.019-0.408
			c-0.081-0.081-0.213-0.083-0.398-0.009l-0.104-0.103c0.105-0.154,0.137-0.254,0.094-0.297c-0.037-0.037-0.137-0.007-0.298,0.093
			l-0.009-0.01c0.1-0.161,0.131-0.259,0.093-0.297c-0.05-0.05-0.148-0.018-0.298,0.093l-0.102-0.102
			c0.074-0.186,0.07-0.32-0.009-0.4c-0.087-0.086-0.224-0.093-0.409-0.019l-0.093-0.092c0.099-0.161,0.13-0.26,0.093-0.297
			c-0.049-0.049-0.148-0.02-0.297,0.093L8.37,14.464c0.105-0.155,0.136-0.253,0.093-0.296c-0.05-0.05-0.148-0.02-0.297,0.092
			l-0.103-0.103c0.087-0.173,0.084-0.306-0.009-0.399c-0.094-0.093-0.226-0.096-0.4-0.008l-0.102-0.103
			c0.105-0.155,0.137-0.254,0.093-0.297c-0.05-0.049-0.148-0.018-0.298,0.093L7.33,13.424c0.105-0.155,0.137-0.254,0.093-0.297
			C7.386,13.09,7.287,13.121,7.126,13.22z"/>
	</g>
	<g>
		<path fill-rule="evenodd" clip-rule="evenodd" fill="#FFFFFF" d="M30.681,5.14l0.584-0.753l0.112,1.04
			c0.056,0.786,0.037,1.412-0.056,1.875c-0.18,0.811-0.566,1.663-1.161,2.554c-0.532,0.792-1.241,1.631-2.126,2.517l-4.068,4.068
			c-0.043,0.043-0.074,0.068-0.092,0.074c-0.007-0.006-0.072-0.04-0.195-0.102c-0.174-0.075-0.278-0.118-0.316-0.13
			c-0.186-0.063-0.377-0.075-0.576-0.038c-0.21,0.038-0.414,0.149-0.612,0.334c-0.204,0.192-0.343,0.412-0.418,0.659
			c-0.104,0.34-0.11,0.688-0.019,1.04c0.043,0.18,0.1,0.322,0.168,0.427c0.154,0.218,0.303,0.297,0.445,0.242
			c0.074-0.05,0.131-0.081,0.167-0.093c0.062-0.037,0.114-0.052,0.157-0.046c0.149,0.037,0.232,0.108,0.251,0.214
			c0.02,0.104-0.036,0.209-0.167,0.315c-0.16,0.123-0.359,0.198-0.594,0.222c-0.291,0.031-0.535-0.052-0.734-0.25l-0.677-0.678
			c-0.075-0.074-0.134-0.121-0.177-0.14c-0.063-0.024-0.119-0.011-0.168,0.039c-0.037,0.036-0.381,0.498-1.031,1.383
			c-0.816,1.052-1.646,1.999-2.488,2.841c-0.822,0.824-1.758,1.671-2.805,2.545c-0.52,0.433-1.021,0.848-1.504,1.244
			c-0.137,0.136-0.191,0.322-0.167,0.557c0.019,0.13,0.056,0.292,0.11,0.484c0.026,0.099,0.007,0.185-0.055,0.259
			c-0.063,0.062-0.152,0.083-0.27,0.064c-0.124-0.024-0.48-0.324-1.068-0.9c-0.117,0.019-0.234,0.006-0.352-0.038
			c-0.131-0.043-0.246-0.115-0.345-0.214c-0.093-0.093-0.161-0.204-0.204-0.334c-0.043-0.117-0.056-0.235-0.037-0.353
			c-0.531-0.557-0.811-0.892-0.836-1.003c-0.023-0.124-0.003-0.214,0.064-0.269c0.068-0.067,0.156-0.087,0.261-0.055
			c0.192,0.055,0.35,0.089,0.474,0.102c0.242,0.031,0.431-0.022,0.566-0.158c0.396-0.483,0.811-0.984,1.244-1.504
			c0.867-1.053,1.712-1.991,2.535-2.815c0.842-0.841,1.789-1.671,2.842-2.488c0.885-0.651,1.348-0.994,1.384-1.031
			c0.05-0.049,0.063-0.105,0.037-0.167c-0.013-0.037-0.056-0.093-0.13-0.167l-0.678-0.677c-0.197-0.199-0.282-0.443-0.251-0.734
			c0.024-0.235,0.1-0.432,0.223-0.594c0.105-0.13,0.211-0.186,0.315-0.167c0.1,0.012,0.168,0.093,0.205,0.241
			c0.012,0.049,0,0.105-0.037,0.168c-0.02,0.031-0.051,0.086-0.093,0.167c-0.056,0.142,0.021,0.288,0.231,0.437
			c0.199,0.148,0.385,0.236,0.558,0.26h0.204l0.242,0.242l2.544-2.544c0.279-0.279,0.725-0.681,1.337-1.208
			c0.774-0.663,1.375-1.17,1.802-1.523c1.653-1.405,2.823-2.476,3.511-3.213C29.499,6.557,30.142,5.814,30.681,5.14z"/>
	</g>
	<path fill-rule="evenodd" clip-rule="evenodd" fill="none" stroke="#808285" stroke-width="0.25" stroke-miterlimit="10" d="
		M19.057,20.494c0,0-0.696,0.98-2.415,2.639"/>
</g>
</svg>
