<svg width="40" height="40" viewBox="0 0 40 40" fill="none" xmlns="http://www.w3.org/2000/svg">
<path fill-rule="evenodd" clip-rule="evenodd" d="M22.3713 8.72946C20.1245 4.68521 15.1592 3.27637 10.5435 5.58421C9.01949 6.3462 7.92425 7.81769 7.18364 9.44979C6.44571 11.076 6.10168 12.7719 6.02536 13.8404L4.55174 13.7351C4.63957 12.5055 5.02259 10.6369 5.8383 8.83931C6.65132 7.04762 7.93629 5.23605 9.88279 4.2628C15.1164 1.64603 20.985 3.19197 23.6628 8.01198C26.2599 12.6868 25.785 19.488 21.5337 23.2079C21.2713 23.4375 20.9499 23.7156 20.5986 24.0195C19.4101 25.0478 17.8798 26.3717 17.1374 27.114C16.4042 27.8472 15.8874 28.4072 15.4662 29.1214C15.0467 29.8329 14.6996 30.7375 14.3815 32.169C13.9419 34.1469 12.9288 35.2203 11.6337 35.6626C10.4223 36.0762 9.09267 35.8867 8.09843 35.6878C6.69048 35.4062 5.33893 34.6008 4.58965 33.0875C3.84821 31.5901 3.76244 29.5322 4.58253 26.8669L5.99457 27.3014C5.23879 29.7577 5.39927 31.3932 5.91361 32.432C6.42012 33.4549 7.33388 34.0283 8.38818 34.2392C9.36378 34.4343 10.3487 34.5402 11.1563 34.2644C11.8803 34.0172 12.5909 33.4163 12.9393 31.8485C13.2777 30.3253 13.6694 29.26 14.1937 28.3709C14.7164 27.4846 15.3486 26.8135 16.0928 26.0694C16.8778 25.2844 18.4816 23.897 19.673 22.8665C20.0117 22.5735 20.3171 22.3094 20.5608 22.0961C24.1888 18.9216 24.6988 12.9189 22.3713 8.72946ZM16.6717 8.49985C14.9648 8.04644 13.0178 8.58059 11.7204 9.87796C11.3168 10.2816 10.9859 10.7276 10.7174 11.1987C10.3482 11.8467 10.097 12.5426 9.93933 13.2375C10.3322 13.353 10.7801 13.5135 11.2249 13.7224C11.9625 14.0688 12.7861 14.5918 13.2901 15.3479C13.6176 15.8392 13.8954 16.6525 13.9655 17.4715C14.0348 18.2811 13.9159 19.3003 13.1978 20.0184C12.8394 20.3768 12.2872 20.7074 11.8075 20.9673C11.443 21.1648 11.0626 21.351 10.7652 21.4966C10.6604 21.5479 10.5659 21.5942 10.4861 21.6341L10.4135 21.6704L10.3349 21.69C10.3386 21.6891 10.3105 21.6963 10.2515 21.7308C10.1952 21.7637 10.1235 21.8139 10.041 21.8851C9.87557 22.0278 9.68553 22.2386 9.50572 22.5181C9.14812 23.0738 8.84447 23.8799 8.84447 24.9131H7.36709C7.36709 23.5824 7.7601 22.5007 8.26331 21.7187C8.51392 21.3292 8.79532 21.0086 9.07586 20.7665C9.31848 20.5572 9.59753 20.3748 9.88566 20.2827C9.96644 20.2426 10.0525 20.2005 10.1427 20.1563C10.4342 20.0136 10.7684 19.85 11.1037 19.6683C11.5823 19.4091 11.9617 19.1652 12.1531 18.9737C12.42 18.7069 12.5473 18.2262 12.4935 17.5975C12.4405 16.9782 12.2258 16.4147 12.0608 16.1673C11.777 15.7415 11.2399 15.3616 10.5969 15.0596C10.3028 14.9215 10.0062 14.8088 9.735 14.7207C9.68602 15.6438 9.78428 16.4662 9.94093 17.0406L8.51561 17.4293C8.25617 16.4781 8.14477 15.1178 8.35528 13.6807C8.5097 12.6266 8.84058 11.5084 9.43381 10.4673C9.76263 9.89025 10.172 9.33704 10.6758 8.8333C12.3332 7.17592 14.8183 6.47892 17.051 7.07199C19.3345 7.67857 21.2434 9.60002 21.7766 12.9324C22.3414 16.4618 20.6485 19.2508 18.6043 21.2148C18.0886 21.7104 17.5483 22.1496 17.0326 22.5586C16.9367 22.6347 16.8421 22.7094 16.7487 22.7831C16.3314 23.1126 15.938 23.4232 15.5667 23.748L14.5939 22.6362C14.996 22.2843 15.4253 21.9455 15.844 21.615C15.9348 21.5434 16.025 21.4721 16.1144 21.4012C16.6244 20.9967 17.1184 20.5937 17.5807 20.1495C19.4325 18.3703 20.7772 16.0366 20.3178 13.1658C19.8661 10.3424 18.3278 8.93975 16.6717 8.49985Z" fill="white"/>
<path fill-rule="evenodd" clip-rule="evenodd" d="M32.2246 17.8429C29.108 20.9628 29.1107 26.0185 32.2305 29.1351L31.6376 29.7287C28.1899 26.2846 28.187 20.6977 31.6311 17.25L32.2246 17.8429Z" fill="white"/>
<path fill-rule="evenodd" clip-rule="evenodd" d="M33.6405 19.3383C31.2819 21.6994 31.2839 25.5253 33.6449 27.8839L33.052 28.4774C30.3632 25.7914 30.3609 21.4342 33.0469 18.7454L33.6405 19.3383Z" fill="white"/>
<path fill-rule="evenodd" clip-rule="evenodd" d="M34.9763 20.6313C33.3081 22.3012 33.3095 25.0073 34.9794 26.6755L34.3865 27.2691C32.3888 25.2734 32.3871 22.0361 34.3827 20.0384L34.9763 20.6313Z" fill="white"/>
</svg>
