<svg width="40" height="40" viewBox="0 0 40 40" fill="none" xmlns="http://www.w3.org/2000/svg">
<path fill-rule="evenodd" clip-rule="evenodd" d="M20.4034 35C8.3954 32.1977 5.92017 16.957 5.92017 8.0708C11.5468 4.12745 27.7286 3.82809 34.722 8.0708C34.722 16.8288 32.747 32.2904 20.4034 35ZM27.9015 8.12926C28.4567 8.42266 29.4803 9.22062 29.75 11.1672C29.9178 12.3829 30.0125 15.6517 29.8803 17.9232C29.8086 19.158 29.4922 20.3329 29.1369 20.8151C28.8547 21.198 28.4804 21.6262 27.5851 21.6262H26.8285V26.9212C26.8285 27.2666 26.5483 27.5468 26.2029 27.5468H14.44C14.0947 27.5468 13.8144 27.2666 13.8144 26.9212V18.6659H13.2921C13.1191 18.6659 12.9789 18.5265 12.9789 18.3528V14.1676C12.9789 13.9946 13.1191 13.8538 13.2921 13.8538H13.8144V10.6199C13.8144 10.2745 14.0947 9.99425 14.44 9.99425H21.4809V9.49823C21.4809 9.42324 21.5421 9.3614 21.6178 9.3614H21.8796C21.9552 9.3614 22.0164 9.42324 22.0164 9.49823V9.99425H26.2029C26.5483 9.99425 26.8285 10.2745 26.8285 10.6199V21.1401C27.1831 21.1513 27.5778 21.1552 27.8199 21.1309C28.4613 21.0671 28.86 20.6316 29.0632 19.9566C29.0735 19.9228 29.0841 19.8884 29.0951 19.8528L29.0952 19.8525C29.282 19.248 29.5649 18.3323 29.5158 14.9504C29.4619 11.2277 29.3856 10.064 28.3074 8.92591C27.8975 8.49239 27.116 8.00953 25.1602 8.06413C23.3407 8.11584 22.8396 8.32379 22.4177 8.49889L22.3953 8.50818C22.1434 8.61212 21.9776 8.68974 21.9776 9.24628L21.5691 9.23904C21.5691 9.23904 21.5454 9.13379 21.5783 8.76868C21.6059 8.45686 21.9776 8.15097 22.8387 7.91677C23.0709 7.85296 24.1682 7.64706 25.5247 7.64706C26.4726 7.64706 27.541 7.93783 27.9015 8.12926ZM16.1096 24.8076H22.8907V16.7746H16.1096V24.8076ZM16.1096 14.3235H24.7425V11.7152H16.1096V14.3235ZM18.083 18.4702C18.083 18.5281 18.0362 18.5741 17.979 18.5741H17.0659C17.008 18.5741 16.9613 18.5281 16.9613 18.4702V17.7788C16.9613 17.7209 17.008 17.6748 17.0659 17.6748H17.979C18.0362 17.6748 18.083 17.7209 18.083 17.7788V18.4702ZM19.8038 18.5741C19.8617 18.5741 19.9084 18.5281 19.9084 18.4702V17.7788C19.9084 17.7209 19.8611 17.6748 19.8038 17.6748H18.8907C18.8335 17.6748 18.7861 17.7209 18.7861 17.7788V18.4702C18.7861 18.5281 18.8335 18.5741 18.8907 18.5741H19.8038ZM21.7341 18.4702C21.7341 18.5281 21.6874 18.5741 21.6301 18.5741H20.717C20.6598 18.5741 20.6131 18.5281 20.6131 18.4702V17.7788C20.6131 17.7209 20.6591 17.6748 20.717 17.6748H21.6301C21.6874 17.6748 21.7341 17.7209 21.7341 17.7788V18.4702ZM17.979 20.2952C18.0362 20.2952 18.083 20.2492 18.083 20.1913V19.4999C18.083 19.442 18.0362 19.396 17.979 19.396H17.0659C17.008 19.396 16.9613 19.442 16.9613 19.4999V20.1913C16.9613 20.2492 17.008 20.2952 17.0659 20.2952H17.979ZM19.9084 20.1913C19.9084 20.2492 19.8617 20.2952 19.8038 20.2952H18.8907C18.8335 20.2952 18.7861 20.2492 18.7861 20.1913V19.4999C18.7861 19.442 18.8335 19.396 18.8907 19.396H19.8038C19.8611 19.396 19.9084 19.442 19.9084 19.4999V20.1913ZM21.6301 20.2952C21.6874 20.2952 21.7341 20.2492 21.7341 20.1913V19.4999C21.7341 19.442 21.6874 19.396 21.6301 19.396H20.717C20.6591 19.396 20.6131 19.442 20.6131 19.4999V20.1913C20.6131 20.2492 20.6598 20.2952 20.717 20.2952H21.6301ZM18.083 21.9124C18.083 21.971 18.0362 22.0177 17.979 22.0177H17.0659C17.008 22.0177 16.9613 21.971 16.9613 21.9124V21.2223C16.9613 21.1638 17.008 21.1171 17.0659 21.1171H17.979C18.0362 21.1171 18.083 21.1638 18.083 21.2223V21.9124ZM19.8038 22.0177C19.8617 22.0177 19.9084 21.971 19.9084 21.9124V21.2223C19.9084 21.1638 19.8611 21.1171 19.8038 21.1171H18.8907C18.8335 21.1171 18.7861 21.1638 18.7861 21.2223V21.9124C18.7861 21.971 18.8335 22.0177 18.8907 22.0177H19.8038ZM21.7341 21.9124C21.7341 21.971 21.6874 22.0177 21.6301 22.0177H20.717C20.6598 22.0177 20.6131 21.971 20.6131 21.9124V21.2223C20.6131 21.1638 20.6591 21.1171 20.717 21.1171H21.6301C21.6874 21.1171 21.7341 21.1638 21.7341 21.2223V21.9124ZM17.979 23.7386C18.0362 23.7386 18.083 23.6919 18.083 23.6346V22.9426C18.083 22.8853 18.0362 22.8386 17.979 22.8386H17.0659C17.008 22.8386 16.9613 22.8853 16.9613 22.9426V23.6346C16.9613 23.6919 17.008 23.7386 17.0659 23.7386H17.979ZM19.9084 23.6346C19.9084 23.6919 19.8617 23.7386 19.8038 23.7386H18.8907C18.8335 23.7386 18.7861 23.6919 18.7861 23.6346V22.9426C18.7861 22.8853 18.8335 22.8386 18.8907 22.8386H19.8038C19.8611 22.8386 19.9084 22.8853 19.9084 22.9426V23.6346ZM21.6301 23.7386C21.6874 23.7386 21.7341 23.6919 21.7341 23.6346V22.9426C21.7341 22.8853 21.6874 22.8386 21.6301 22.8386H20.717C20.6591 22.8386 20.6131 22.8853 20.6131 22.9426V23.6346C20.6131 23.6919 20.6598 23.7386 20.717 23.7386H21.6301Z" fill="white"/>
</svg>
