<svg width="40" height="40" viewBox="0 0 40 40" fill="none" xmlns="http://www.w3.org/2000/svg">
<path d="M22.2031 37H12.4474C12.2949 32.5286 11.9596 23.3725 11.8376 22.5188C11.6852 21.4518 12.4474 20.8421 13.362 20.0799C14.2766 19.3177 20.2214 15.0496 21.2885 14.4399C22.3555 13.8301 22.8128 13.6777 23.7274 13.8301C24.642 13.9826 28.7577 15.3545 29.6723 15.6593C30.5869 15.9642 31.0442 16.7264 30.4345 17.641C29.8247 18.5556 29.3674 18.4031 28.7577 18.4031C28.148 18.4031 26.7195 18.3049 25.5 18C24.2805 17.6951 24.0323 17.7302 23.1177 18.1875C22.2031 18.6448 21.2885 19.5594 20.8312 20.3216C20.3739 21.0837 20.0686 22.7975 20.8312 24.1956C21.5938 25.5937 23.4315 25.1579 24.9558 25.1579C26.4801 25.1579 27.4513 23.5487 28.2135 22.1768C28.9757 20.8049 29.4558 20.1579 30.5 20.5C31.2243 20.7373 31.567 21.1097 31.4146 22.6341C31.2622 24.1584 30.3476 26.7498 29.8903 27.5119C29.433 28.2741 28.6406 29.2053 27.9558 29.6579C26.6554 30.5174 25 30.1405 24 32C23.0598 33.7484 22.1015 36.1362 22.2031 37Z" fill="white"/>
<path d="M10.0084 10.3242C10.1303 11.6656 11.0246 16.6248 11.3803 18.708C11.4778 19.2825 11.8376 19.0129 11.8376 18.708V10.3242C11.8376 8.79985 9.85593 8.64741 10.0084 10.3242Z" fill="white"/>
<path d="M13.362 5.59874V13.5253C14.0225 11.5944 15.435 7.39745 15.8008 6.05604C16.2581 4.37927 13.362 3.76954 13.362 5.59874Z" fill="white"/>
<path d="M17.9349 3.92197L13.8192 17.641L18.3922 14.4399C19.0019 12.255 20.3433 7.36696 20.8312 5.29387C21.441 2.70251 18.3922 2.39764 17.9349 3.92197Z" fill="white"/>
</svg>
