<svg width="42" height="42" viewBox="0 0 42 42" fill="none" xmlns="http://www.w3.org/2000/svg">
<rect width="5.58167" height="1.39542" transform="matrix(-0.312251 0.712957 1.16519 0.1911 23.0828 22.942)" fill="white"/>
<rect width="5.58167" height="1.39542" transform="matrix(1.16519 0.1911 -0.312251 0.712957 23.0917 22.9233)" fill="white"/>
<rect width="8.08226" height="1.53088" transform="matrix(0.686245 0.727371 -0.942909 0.33305 24.6967 23.3544)" fill="white"/>
<rect width="5.58167" height="1.39542" transform="matrix(1.16519 0.1911 0.312252 -0.712957 24.8469 19.0877)" fill="white"/>
<rect width="5.58167" height="1.39542" transform="matrix(0.312252 -0.712957 1.16519 0.1911 24.8165 19.0823)" fill="white"/>
<rect width="10.1938" height="1.23126" transform="matrix(-0.942909 0.33305 -0.686244 -0.727371 35.9867 15.6707)" fill="white"/>
<rect width="5.58167" height="1.39542" transform="matrix(-0.340482 0.708101 -1.15726 -0.208374 17.2404 21.9371)" fill="white"/>
<rect width="5.58167" height="1.39542" transform="matrix(-1.15726 -0.208374 -0.340482 0.708101 17.2488 21.9183)" fill="white"/>
<rect width="10.2561" height="1.1994" transform="matrix(-0.948592 0.316502 0.665333 0.746546 15.5117 21.7746)" fill="white"/>
<rect width="5.58167" height="1.39542" transform="matrix(-1.15726 -0.208374 0.340482 -0.708101 19.0165 18.0849)" fill="white"/>
<rect width="5.58167" height="1.39542" transform="matrix(0.340482 -0.708101 -1.15726 -0.208374 19.0471 18.09)" fill="white"/>
<rect width="7.98648" height="1.56411" transform="matrix(0.665334 0.746546 0.948592 -0.316502 12.4176 11.6167)" fill="white"/>
</svg>
