<svg width="54" height="54" viewBox="0 0 54 54" fill="none" xmlns="http://www.w3.org/2000/svg">
<rect width="5.34424" height="1.33606" transform="matrix(-1.08399 0.398434 -0.432264 -0.692367 41.9873 28.769)" fill="white"/>
<rect width="5.34424" height="1.33606" transform="matrix(-0.432264 -0.692367 -1.08399 0.398434 42.0145 28.7587)" fill="white"/>
<rect width="9.62508" height="1.20538" transform="matrix(-0.991785 -0.173106 0.483674 -0.863696 39.9636 28.7306)" fill="white"/>
<rect width="5.34424" height="1.33606" transform="matrix(-1.07316 0.415145 0.458484 0.682478 32.3319 16.0756)" fill="white"/>
<rect width="5.34424" height="1.33606" transform="matrix(0.458484 0.682478 -1.07316 0.415145 32.359 16.0655)" fill="white"/>
<rect width="7.85415" height="1.47456" transform="matrix(-0.517976 0.866946 0.975306 0.189069 30.9015 16.9732)" fill="white"/>
<rect width="5.34424" height="1.33606" transform="matrix(1.07316 -0.415145 -0.458484 -0.682478 20.071 37.0349)" fill="white"/>
<rect width="5.34424" height="1.33606" transform="matrix(-0.458484 -0.682478 1.07316 -0.415145 20.0437 37.045)" fill="white"/>
<rect width="7.84969" height="1.47456" transform="matrix(0.517976 -0.866946 -0.975306 -0.189069 21.2599 35.7847)" fill="white"/>
<rect width="5.34424" height="1.33606" transform="matrix(1.08399 -0.398434 0.432264 0.692367 11.0193 23.0643)" fill="white"/>
<rect width="5.34424" height="1.33606" transform="matrix(0.432264 0.692367 1.08399 -0.398434 10.9921 23.0747)" fill="white"/>
<rect width="9.64397" height="1.20538" transform="matrix(0.991785 0.173106 -0.483674 0.863696 12.8229 22.7429)" fill="white"/>
</svg>
