<svg width="40" height="40" viewBox="0 0 40 40" fill="none" xmlns="http://www.w3.org/2000/svg">
<path d="M24.0897 32.3902C25.1344 32.7505 25.3506 32.8946 26.6835 32.6784C26.6835 32.6784 31.3977 31.9593 33.096 31.7296C34.7943 31.5 35.7943 31.7296 35.7943 30.9602V28.8958C35.7943 28.547 33.8568 28.3844 33.096 27.9901C32.4593 27.66 32.0261 27.165 30.8091 27C30.2943 27 29.159 27 28.6649 27.165C28.3837 27.2589 27.8003 27.4439 27.6065 27.5113C27.3738 27.5922 26.8058 27.8787 26.1889 27.9901C25.6722 28.0834 25.0933 27.9982 24.9183 28.1032C24.6452 28.2671 24.6814 28.644 24.9183 28.9175C25.0458 29.0648 25.2316 29.1822 25.4587 29.22C26.1161 29.3296 27.2838 29.1972 27.8489 28.8958C28.1612 28.7292 28.179 29.0658 27.8489 29.3958C27.6007 29.5611 27.1821 29.8828 26.5189 29.9702C25.8582 30.0572 25.1051 30.3399 24.5365 30.2244C24.041 30.1237 22.439 30.1081 22.1678 30.0669C21.376 29.9466 20.7844 29.9657 19.7943 29.3958C18.8042 28.8259 18.357 28.9082 18.1441 29.1559C17.8606 29.4859 18.0082 29.8159 18.4742 30.2244C19.1807 30.8436 20.1819 31.0677 20.7943 31.5C21.4067 31.9323 23.0449 32.03 24.0897 32.3902Z" fill="white"/>
<path fill-rule="evenodd" clip-rule="evenodd" d="M19.0112 8.64377L22.7144 9.21079L18.9449 11.7899L22.5091 14.6325L19.1802 15.0737L19.955 19.3482L18.2439 18.3619L18.2508 11.7304L16.0973 8.13747H13.4487C13.2078 8.13747 13.0475 8.16125 12.9668 8.21006C12.8222 8.2739 12.7496 8.41033 12.7496 8.61937C12.7496 8.94042 12.9424 9.12505 13.3279 9.17324V10.1364L12.6044 10.7623H12.2677C12.0431 10.7623 11.9298 10.8743 11.9298 11.0996L12.1676 12.5534L12.5688 13.1449L12.4837 14.3033H12.7484V15.4592H12.4843V15.9167L12.5124 16.2503L12.5544 16.5313L8.80244 18.1648L10.3408 13.9171L7 12.2511L10.6049 10.7867L8.03077 6.89516L12.5763 7.52038L13.4205 4L15.7299 7.23875L19.5038 5.37999L19.0112 8.64377ZM17.8553 12.0634V18.1566L15.9765 16.9963L16.061 16.3767L16.2287 15.913L16.1868 15.5325L15.9965 15.4267V14.2657L16.2919 14.0542L16.123 13.1035L16.8496 12.6317L16.7982 11.3718L17.8553 12.0634Z" fill="white" fill-opacity="0.302"/>
<path fill-rule="evenodd" clip-rule="evenodd" d="M17.8121 12.0077L16.8483 11.4532V12.586L16.2707 13.116V14.2476H16.0303V15.4041H16.2707V16.6083H16.0303V17.7648H16.2707V18.969H16.0303V20.1255H16.2707V21.2339L16.8483 22.2215V23.0401C16.8483 23.2654 16.7357 23.3774 16.511 23.3774H12.2239C11.9993 23.3774 11.886 23.2654 11.886 23.0401V22.2215L12.4399 21.2339V20.1255H12.7052V18.969H12.4405V17.7648H12.7058V16.6083H12.4405V15.4029H12.7058V14.2463H12.4405V13.1148L11.8866 12.5847V11.0426C11.8866 10.8179 11.9999 10.7059 12.2246 10.7059H12.5613L13.2841 10.0794V9.11564C12.8986 9.06807 12.7065 8.88408 12.7065 8.56364C12.7065 8.35524 12.7784 8.21755 12.923 8.15371C13.0031 8.10552 13.164 8.08174 13.4049 8.08174H16.0535L18.294 11.6703V19.2568L17.1619 19.8113C17.001 19.8914 16.8802 19.8677 16.8008 19.7387C16.72 19.5948 16.7519 19.4584 16.8965 19.3301C17.0254 19.2174 17.2182 19.0885 17.4742 18.9445L17.8121 18.7756V12.0077Z" fill="white"/>
</svg>
