<svg width="40" height="40" viewBox="0 0 40 40" fill="none" xmlns="http://www.w3.org/2000/svg">
<path fill-rule="evenodd" clip-rule="evenodd" d="M21.7168 5.60843H17.3328C16.0371 5.60843 14.6821 6.25891 13.1495 6.99467C11.1544 7.95245 8.85834 9.05474 6 9.05474L6 21.7823C9.79057 21.7823 14.0989 25.9661 14.7543 26.7311C15.0748 27.1052 16.0667 27.5564 17.1905 28.0676C18.3652 28.602 19.684 29.2019 20.5305 29.8476C21.0163 30.2183 22.0565 31.0805 22.6577 32.0193C22.8154 32.2655 22.9546 32.435 23.0751 32.5817C23.3509 32.9173 23.5282 33.1331 23.6027 33.8751C23.7986 35.8267 26.2163 34.9017 26.848 33.6382C27.1999 32.9346 27.4798 31.1114 27.0911 30.203C27.0911 30.203 26.2163 27.9524 24.9528 26.6889C24.3715 26.1076 23.8341 25.7401 23.3836 25.4321C22.855 25.0706 22.4459 24.7909 22.2256 24.3432H22.2437L21.2937 22.5105L21.2452 22.0131C21.1014 20.5386 20.2889 19.0384 19.2668 17.823C18.2363 16.5976 17.0726 15.7548 16.3245 15.5207C16.3245 15.5207 15.9135 15.2204 16.0551 14.8663C16.1967 14.5122 16.6293 14.5469 16.6293 14.5469C17.6424 14.864 18.9592 15.8718 20.0477 17.1663C21.0408 18.3473 21.5843 19.6449 21.7938 20.3713C22.0033 21.0978 22.2158 21.8801 22.2158 22.4432C22.2158 22.4966 22.9116 23.6817 23.3025 24.3432H24.3937C24.0674 24.1172 23.2813 23.4143 23.2813 22.3015C23.2813 21.1685 23.7395 20.5207 24.1865 19.9647L24.1829 19.9618C23.7068 19.5727 22.9808 18.9793 22.8532 18.1468C22.7037 17.1713 22.89 15.4382 23.6321 15.4382C22.9553 15.4382 22.3716 14.7761 22.2257 13.2727L22.2059 13.1437C22.0509 12.1324 22.4987 11.1679 23.2813 10.6154C22.3833 10.3272 21.4999 9.36032 21.3473 8.36477C21.1881 7.3255 21.2731 6.33244 21.7168 5.60843ZM23.3047 5.60843H23.3723C23.4677 5.58226 23.5656 5.56131 23.6658 5.54595L27.0325 5.03C28.4346 4.81513 29.7454 5.77755 29.9602 7.17964L29.9696 7.24103C30.0944 8.05527 29.8222 8.83871 29.2973 9.39462L29.5678 9.35317C30.9922 9.13487 32.3239 10.1126 32.5422 11.5371L32.562 11.6661C32.6822 12.4505 32.4396 13.2069 31.9595 13.7646C33.2622 13.8258 34.3056 14.8902 34.5023 16.1735C34.6609 17.2083 34.2611 18.0288 33.7035 18.5919C33.4117 18.8867 33.0711 19.1177 32.7314 19.2816C33.8214 19.4281 34.9073 20.0741 34.8911 21.5902C34.867 23.8394 33.2388 24.354 32.2263 24.3432H25.4864C25.3829 24.2541 25.2381 24.1211 25.0452 23.9302C24.5446 23.4345 24.1474 22.7972 24.1865 22.3015C24.2256 21.8059 24.2986 21.2394 24.7258 20.7437C24.8009 20.6565 24.879 20.5908 24.9517 20.5297C25.1213 20.3869 25.2607 20.2696 25.2607 19.9647C25.2607 19.566 24.9224 19.3195 24.5721 19.0643C24.2315 18.8161 23.8795 18.5596 23.8162 18.1468C23.6321 16.9453 24.1865 16.0701 24.7305 15.8577C25.2744 15.6452 25.4249 14.583 24.411 14.583C23.9581 14.583 23.2813 14.2946 23.2358 13.1179L23.216 12.9889C23.0832 12.1223 23.8033 11.348 24.411 11.2549C25.5155 11.0856 25.2456 9.60717 24.165 9.77277C23.5613 9.8653 22.4868 9.05418 22.3575 8.20997C22.1649 6.95378 22.5061 5.93325 23.3047 5.60843Z" fill="white"/>
</svg>
