<svg width="40" height="40" viewBox="0 0 40 40" fill="none" xmlns="http://www.w3.org/2000/svg">
<path fill-rule="evenodd" clip-rule="evenodd" d="M19.3 36.6C25.5408 36.6 30.6 31.5408 30.6 25.3C30.6 19.0592 25.5408 14 19.3 14C13.0592 14 8 19.0592 8 25.3C8 31.5408 13.0592 36.6 19.3 36.6ZM28.2147 24.9259V24.4204C28.1909 24.3723 28.1483 24.3302 28.0885 24.2943C27.3905 23.8009 26.8192 23.4098 26.3739 23.1211C25.9287 22.844 25.525 22.6277 25.1638 22.4712C24.8026 22.3269 24.4359 22.2306 24.0626 22.1825C23.6898 22.1465 23.2152 22.1283 22.6372 22.1283C21.651 22.1283 20.8684 22.1582 20.2904 22.2185C19.6887 22.2787 19.3275 22.3086 19.2074 22.3086C19.1831 22.3086 19.0874 22.2909 18.9187 22.2549C18.7384 22.219 18.5459 22.1709 18.3413 22.1106C18.1483 22.0625 17.968 22.0083 17.7998 21.948C17.619 21.8999 17.4989 21.8639 17.4386 21.8396C17.4148 21.8158 17.3363 21.7317 17.2041 21.5868C17.0957 21.4303 16.9751 21.2616 16.8429 21.0813C16.6981 20.8767 16.5299 20.6416 16.3374 20.3772H16.2295L13.5398 18.5H13.2688V18.7168L15.2904 21.3883C15.2904 21.4359 15.3269 21.4663 15.3993 21.4784H15.5796L15.688 21.4425C15.7357 21.4425 15.7899 21.4541 15.8501 21.4784C15.8861 21.526 15.88 21.5924 15.8319 21.6765L15.489 22.1278V22.2185C15.4652 22.2423 15.4292 22.2661 15.3806 22.2909C15.3203 22.339 15.2301 22.3451 15.1096 22.3086C15.0498 22.3086 15.0194 22.2185 15.0194 22.0381C15.0194 21.99 15.0133 21.9419 15.0017 21.8938C15.0017 21.8457 14.9774 21.8031 14.9292 21.7671L11.7705 20.558C11.6504 20.558 11.5902 20.5879 11.5902 20.6482V20.7384C11.5304 20.7384 11.5 20.7622 11.5 20.8103L11.5902 20.9364L14.5493 23.3546C14.7783 23.4387 14.989 23.5167 15.1815 23.5892C15.338 23.6494 15.4885 23.7153 15.6328 23.7877C15.7888 23.8485 15.8912 23.89 15.9393 23.9144C15.9393 23.9387 15.9752 23.9863 16.0477 24.0587C16.0958 24.1306 16.1616 24.2213 16.2462 24.3292C16.3182 24.4376 16.4144 24.5521 16.535 24.6721L16.8966 25.2678L17.0952 25.4846C17.1195 25.5687 17.1377 25.7131 17.1494 25.9177C17.1616 26.1102 17.1975 26.3027 17.2578 26.4952C17.2578 26.7601 17.2821 27.0427 17.3302 27.3436C17.354 27.644 17.3905 27.9874 17.4386 28.3724C17.6792 29.3475 18.0824 30.2435 18.6477 31.0626C19.2252 31.869 20.0017 32.5781 20.9763 33.1926L21.0664 33.2463C21.3314 33.4271 21.5117 33.4626 21.6079 33.3542C21.7644 33.3542 21.8663 33.3238 21.9149 33.2635C21.9503 33.1921 21.9686 33.1252 21.9686 33.0654C22.0283 33.029 22.0765 32.9697 22.1129 32.8851C22.1489 32.8122 22.1666 32.7281 22.1666 32.6323V32.5245C22.1666 32.4642 22.16 32.3917 22.1489 32.3077C22.1129 32.2347 22.0339 32.1506 21.9144 32.0544C21.1085 31.5372 20.4708 30.9177 20.0012 30.1954C19.5321 29.4736 19.2069 28.6733 19.0266 27.7954C18.9663 27.374 18.9182 26.9951 18.8823 26.6578C18.8341 26.3209 18.7556 25.9906 18.6472 25.6654L18.9182 25.864C18.9785 25.9 19.015 25.9182 19.0266 25.9182C19.0388 25.9182 19.0631 25.9 19.0991 25.864C19.2313 25.7313 19.2313 25.6654 19.0991 25.6654L18.5576 25.2141C18.5094 25.2141 18.4856 25.1959 18.4856 25.1599C18.4735 25.1478 18.4735 25.13 18.4856 25.1057C18.3413 24.9137 18.1908 24.7091 18.0343 24.4923C17.8778 24.2517 17.7755 24.0896 17.7284 24.0065C17.8246 23.9584 17.8965 23.8986 17.9447 23.8262C17.9928 23.7416 18.047 23.6515 18.1073 23.5552C18.1675 23.5795 18.2577 23.6094 18.3783 23.6454C18.4988 23.6697 18.6072 23.7057 18.7034 23.7538C18.8362 23.8019 18.9679 23.8561 19.1006 23.9164H19.209C19.4374 23.9164 19.6664 23.9103 19.8948 23.8981C20.1238 23.8981 20.3578 23.8738 20.5989 23.8257C20.9358 23.7776 21.303 23.7234 21.6996 23.6631C22.1205 23.615 22.5901 23.5973 23.1073 23.6089C23.6736 23.6692 24.2809 23.8196 24.9308 24.0602C25.5802 24.313 26.2964 24.698 27.0785 25.2156C27.1991 25.2997 27.3201 25.3539 27.4397 25.3777C27.5354 25.3899 27.6382 25.3777 27.7461 25.3418C27.8419 25.3175 27.9259 25.2754 27.9984 25.2151C28.0825 25.1544 28.1427 25.0885 28.1787 25.0161C28.203 24.9923 28.2147 24.9619 28.2147 24.9259ZM19.8391 24.8352L19.0991 24.5465C19.0631 24.5465 19.0271 24.5531 18.9912 24.5642C18.943 24.5642 18.9187 24.6002 18.9187 24.6726V24.781C18.9309 24.817 18.9668 24.8352 19.0271 24.8352L19.7489 25.0156C19.7971 25.0637 19.8274 25.0758 19.8391 25.052C19.8513 25.0277 19.8811 25.0156 19.9293 25.0156C19.9293 24.8955 19.8994 24.8352 19.8391 24.8352ZM19.2434 24.2036C19.2191 24.2157 19.2074 24.2456 19.2074 24.2937C19.2074 24.4027 19.2373 24.4563 19.2976 24.4558L20.0377 24.546H20.1825C20.218 24.5344 20.2362 24.504 20.2362 24.4558C20.2362 24.4199 20.218 24.3839 20.1825 24.3479C20.1339 24.312 20.0858 24.2937 20.0377 24.2937L19.2976 24.1676C19.2733 24.1676 19.2556 24.1798 19.2434 24.2036ZM19.4242 25.5034C19.4597 25.4912 19.5144 25.4851 19.5863 25.4851C19.5863 25.4375 19.5863 25.3889 19.5868 25.3408C19.5747 25.2926 19.5326 25.2683 19.4602 25.2683L18.8468 24.9254C18.7865 24.8773 18.7506 24.8656 18.7384 24.8894C18.7267 24.9132 18.6964 24.9254 18.6482 24.9254C18.6482 25.0454 18.6781 25.1057 18.7384 25.1057L19.3883 25.4851C19.3883 25.5216 19.3999 25.5277 19.4242 25.5034Z" fill="white"/>
<path fill-rule="evenodd" clip-rule="evenodd" d="M15.1634 10.7991L15.1634 8.90182C15.4767 9.09378 15.9064 9.13058 16.3562 9.06166C16.7871 8.99563 17.2055 8.61332 17.3302 8.22468C17.5694 8.56334 17.9868 8.75716 18.4245 8.69009L18.4803 8.68153C19.131 8.61835 19.4175 8.36576 19.4175 8.07284C19.4175 8.39399 20.1676 8.47465 20.5898 8.40995C20.9501 8.35473 21.2069 8.04052 21.3753 7.83446L21.3766 7.83289C21.6172 8.02636 21.8976 8.22467 22.3879 8.22467C22.8696 8.22467 23.1739 7.88426 23.2716 7.74311L23.2716 8.21546C22.9853 8.3846 22.4724 8.6858 22.4492 8.6858C22.2056 8.6858 21.867 8.77774 21.5526 8.86841C21.2382 8.95908 20.6766 9.19429 20.1654 9.62411C19.6052 10.0952 19.169 10.6651 19.0318 11.1036C19.0318 11.1036 19.0168 11.2908 19.17 11.3521C19.3233 11.4134 19.4532 11.2355 19.4532 11.2355C19.5546 10.9117 19.9193 10.4081 20.4497 9.96209C20.9757 9.51974 21.6249 9.16811 22.2631 9.10585L22.4784 9.08484L23.2716 8.67368L23.2716 8.68157C23.4654 8.58625 23.5864 8.4092 23.7429 8.1804C23.8762 7.98543 24.0352 7.75287 24.2868 7.50128C24.8336 6.95444 25.8077 6.57582 25.8077 6.57582C26.2008 6.4076 26.9899 6.52875 27.2944 6.68102C27.8413 6.95445 28.2416 8.00079 27.397 8.0856C27.0758 8.11784 26.9824 8.19458 26.8372 8.31392C26.7737 8.36606 26.7003 8.42633 26.5938 8.49458C26.1875 8.75478 25.8143 9.20494 25.6539 9.41522C25.3744 9.78155 25.1148 10.3523 24.8835 10.8607C24.6623 11.3471 24.467 11.7764 24.3051 11.9151C24.0773 12.1102 23.1492 13.0537 22.5922 14.1576C21.5648 13.8597 20.4787 13.7 19.3553 13.7C18.3291 13.7 17.3341 13.8332 16.3865 14.0834C16.2128 13.546 15.9795 13.0601 15.7633 12.6096C15.4449 11.9463 15.1634 11.3599 15.1634 10.7991ZM16.472 14.3712C17.3925 14.129 18.3588 14 19.3553 14C20.4331 14 21.4756 14.1509 22.463 14.4327C22.2814 14.851 22.1633 15.2848 22.1633 15.7039L16.6549 15.7039C16.6549 15.2254 16.5835 14.7834 16.472 14.3712ZM15.1634 8.18532L15.1634 8.21474C15.304 8.56023 15.7456 8.70779 16.2892 8.62449C16.6546 8.56849 17.0056 8.10349 16.9656 7.8422C16.8939 7.37453 17.5337 7.2577 17.607 7.73573C17.6473 7.99876 17.9824 8.31039 18.3575 8.25291L18.4133 8.24436C18.9226 8.22468 19.0474 7.93176 19.0474 7.73573C19.0474 7.29693 19.5071 7.36205 19.599 7.59747C19.691 7.83289 20.0698 8.07284 20.5898 7.99315C20.7684 7.96577 20.8794 7.81343 20.9868 7.66599C21.0973 7.51438 21.204 7.36797 21.3766 7.36797C21.5085 7.36797 21.5593 7.42832 21.6211 7.50173C21.6475 7.53316 21.676 7.56699 21.7137 7.59949C21.9282 7.78439 22.1734 7.81598 22.3879 7.83289C22.6024 7.8498 22.8783 7.67792 23.0928 7.46123C23.1755 7.37771 23.233 7.31501 23.2716 7.2702L23.2716 4.35336C23.2763 3.91518 23.0536 3.21048 22.0801 3.20007C21.424 3.19305 21.1444 3.66302 21.081 4.13475C21.0101 3.98776 20.9101 3.84035 20.7825 3.71403C20.5388 3.47273 20.1837 3.2997 19.7358 3.36834C19.1804 3.45346 18.7198 3.90504 18.6933 4.46882C18.4519 4.26102 18.1246 4.15606 17.785 4.20809L17.7292 4.21664C17.1127 4.31112 16.6896 4.88746 16.784 5.50393L16.802 5.621C16.5614 5.39385 16.2223 5.27602 15.8699 5.33003L15.8434 5.3341C15.2365 5.42709 14.82 5.99439 14.913 6.6012L15.1363 8.05827C15.143 8.10163 15.152 8.14402 15.1634 8.18532Z" fill="white"/>
</svg>
