<svg width="40" height="40" viewBox="0 0 40 40" fill="none" xmlns="http://www.w3.org/2000/svg">
<path fill-rule="evenodd" clip-rule="evenodd" d="M19.538 11C13.1242 11 7.24865 14.5138 4.15002 19.9763C7.24865 25.4389 13.1242 28.9527 19.538 28.9527H19.538C25.9519 28.9527 31.8274 25.4389 34.926 19.9763C31.8274 14.5138 25.9518 11 19.538 11ZM31.9513 19.9763C30.7416 21.7133 29.2053 23.1524 27.4456 24.2279C28.1275 22.9624 28.5144 21.5146 28.5144 19.9763C28.5144 18.4381 28.1275 16.9902 27.4456 15.7248C29.2053 16.8003 30.7416 18.2394 31.9513 19.9763ZM10.5617 19.9763C10.5617 18.4381 10.9486 16.9902 11.6305 15.7247C9.87078 16.8002 8.33441 18.2393 7.12475 19.9763C8.33441 21.7133 9.87078 23.1524 11.6305 24.228C10.9487 22.9625 10.5617 21.5146 10.5617 19.9763ZM21.1445 25H23.0332V14.518H21.144V18.7832H17.5873V14.518H15.6997V25H17.5878V20.5151H21.1445V25Z" fill="white"/>
</svg>
