<svg width="40" height="40" viewBox="0 0 40 40" fill="none" xmlns="http://www.w3.org/2000/svg">
<path fill-rule="evenodd" clip-rule="evenodd" d="M33.0465 4.30769H6.95349C5.49226 4.30769 4.30769 5.49226 4.30769 6.95349V33.0465C4.30769 34.5077 5.49226 35.6923 6.95349 35.6923H33.0465C34.5077 35.6923 35.6923 34.5077 35.6923 33.0465V6.95349C35.6923 5.49226 34.5077 4.30769 33.0465 4.30769ZM6.95349 3C4.77004 3 3 4.77004 3 6.95349V33.0465C3 35.23 4.77004 37 6.95349 37H33.0465C35.23 37 37 35.23 37 33.0465V6.95349C37 4.77004 35.23 3 33.0465 3H6.95349Z" fill="white"/>
<path d="M11.2539 7.92775L13.1754 13.6154H12.142L11.7321 12.3771H9.81061L9.41777 13.6154H8.38443L10.3059 7.92775H11.2539ZM10.7756 9.29415L10.1181 11.4633H11.4332L10.7756 9.29415Z" fill="white"/>
<path d="M19.2276 20.6955C19.2276 20.1933 19.3344 19.7606 19.5481 19.3974C19.7618 19.0341 20.1411 18.6656 20.6859 18.2916C21.1881 17.9497 21.5246 17.6666 21.6956 17.4423C21.8772 17.2072 21.968 16.9455 21.968 16.657C21.968 16.3792 21.8505 16.1655 21.6154 16.016C21.3911 15.8557 21.0866 15.7756 20.702 15.7756C20.2746 15.7756 19.8366 15.845 19.3878 15.9839C18.9391 16.1228 18.4744 16.3204 17.9936 16.5769L17.0321 14.6698C17.5769 14.36 18.1699 14.1089 18.8109 13.9166C19.4519 13.7243 20.1464 13.6281 20.8943 13.6281C22.0481 13.6281 22.9402 13.8952 23.5706 14.4294C24.2009 14.9529 24.5161 15.6313 24.5161 16.4647C24.5161 17.1057 24.3612 17.6452 24.0513 18.0833C23.7522 18.5106 23.2821 18.9487 22.6411 19.3974C22.171 19.7179 21.8558 19.9743 21.6956 20.1666C21.5353 20.3589 21.4552 20.5993 21.4552 20.8878V21.3205H19.2276V20.6955ZM18.9391 24.0288C18.9391 23.5053 19.0833 23.1421 19.3718 22.9391C19.671 22.7254 20.0289 22.6186 20.4455 22.6186C20.8408 22.6186 21.1827 22.7254 21.4712 22.9391C21.7703 23.1421 21.9199 23.5053 21.9199 24.0288C21.9199 24.531 21.7703 24.8942 21.4712 25.1186C21.1827 25.3323 20.8408 25.4391 20.4455 25.4391C20.0289 25.4391 19.671 25.3323 19.3718 25.1186C19.0833 24.8942 18.9391 24.531 18.9391 24.0288Z" fill="white"/>
<path d="M28.6405 32V26.3124H31.4502C31.7007 26.3124 31.9142 26.4006 32.0907 26.5771C32.2672 26.7479 32.3554 26.9586 32.3554 27.2091V28.4303C32.3554 28.5612 32.3127 28.6893 32.2273 28.8146C32.1419 28.9341 32.0337 29.0138 31.9028 29.0537C32.0337 29.0765 32.1476 29.1448 32.2444 29.2587C32.3469 29.3725 32.3981 29.5092 32.3981 29.6686V31.1033C32.3981 31.3538 32.3099 31.5673 32.1334 31.7438C31.9569 31.9146 31.7434 32 31.4929 32H28.6405ZM29.6653 29.549V31.0691H31.1427C31.2053 31.0691 31.2594 31.0492 31.305 31.0094C31.3505 30.9638 31.3733 30.9097 31.3733 30.8471V29.7711C31.3733 29.7084 31.3505 29.6572 31.305 29.6173C31.2594 29.5718 31.2053 29.549 31.1427 29.549H29.6653ZM29.6653 28.6267H31.1256C31.2623 28.6153 31.3306 28.5413 31.3306 28.4047V27.4653C31.3306 27.4026 31.3078 27.3514 31.2623 27.3115C31.2167 27.266 31.1626 27.2432 31.1 27.2432H29.6653V28.6267Z" fill="white"/>
<circle cx="8.88456" cy="31.1154" r="0.980769" stroke="white" stroke-width="0.653846"/>
<path d="M13.561 27.4416C13.1948 30.0048 10.4276 28.7814 9.53845 30.4615" stroke="white" stroke-width="0.915385"/>
<line x1="14.2126" y1="26.9728" x2="12.3509" y2="27.5928" stroke="white" stroke-width="0.915385"/>
<line x1="13.8814" y1="26.6005" x2="14.5716" y2="28.673" stroke="white" stroke-width="0.915385"/>
</svg>
