<svg width="40" height="40" viewBox="0 0 40 40" fill="none" xmlns="http://www.w3.org/2000/svg">
<path fill-rule="evenodd" clip-rule="evenodd" d="M17.7978 11.6659L16.7919 11.0872V12.2697L16.1881 12.8233V14.0051H15.9366V15.2132H16.1881V16.4707H15.9366V17.6781H16.1881V18.9356H15.9366V20.1424H16.1881V21.2998L16.7919 22.3308V23.186C16.7919 23.4204 16.6747 23.5389 16.439 23.5389H11.9621C11.7277 23.5389 11.6105 23.4204 11.6105 23.186V22.3308L12.1879 21.2998V20.1424H12.4651V18.9356H12.1879V17.6781H12.4651V16.4707H12.1879V15.2132H12.4651V14.0051H12.1879V12.8233L11.6099 12.2697V10.66C11.6099 10.4256 11.7271 10.3077 11.9614 10.3077H12.3137L13.0681 9.65397V8.64667C12.6652 8.59729 12.4644 8.40439 12.4644 8.06862C12.4644 7.85136 12.5395 7.70784 12.6909 7.64134C12.7745 7.59131 12.9424 7.56563 13.1939 7.56563H15.9603L18.3002 11.3144V19.2371L17.1184 19.8159C16.9505 19.8995 16.8248 19.8744 16.7412 19.7401C16.6569 19.5894 16.6905 19.4472 16.8412 19.3129C16.9755 19.1957 17.177 19.0614 17.445 18.9106L17.7978 18.7355V11.6659Z" fill="white"/>
<path fill-rule="evenodd" clip-rule="evenodd" d="M9.84881 5V6.55967L11.182 5.78016L11.7357 6.73545L10.3518 7.54064L11.7357 8.34516L11.182 9.30111L9.84881 8.54662V10.1063H8.71642V8.49724L7.30883 9.30111L6.75515 8.34516L8.16405 7.54064L6.75515 6.73545L7.30883 5.78016L8.71642 6.60971V5H9.84881ZM21.6211 8.42021L20.6151 9.02459L21.6461 9.60264L21.2188 10.3328L20.2128 9.75406V10.9108H19.3826V9.72839L18.3259 10.3328L17.9237 9.60264L18.9303 9.02459L17.9237 8.42021L18.3516 7.6914L19.3826 8.29512V7.08834H20.2128V8.2701L21.2188 7.6914L21.6211 8.42021ZM9.29512 15.9671L8.28914 15.389V16.5458H7.4596V15.364L6.40292 15.9671L6 15.2383L7.031 14.6595L6 14.0552L6.42794 13.327L7.45894 13.9301V12.7226H8.28914V13.9051L9.29512 13.327L9.69804 14.0552L8.6914 14.6595L9.72306 15.2383L9.29512 15.9671Z" fill="white" fill-opacity="0.851"/>
<path d="M24.0897 32.3902C25.1344 32.7505 25.3506 32.8946 26.6835 32.6784C26.6835 32.6784 31.3977 31.9593 33.096 31.7296C34.7943 31.5 35.7943 31.7296 35.7943 30.9602V28.8958C35.7943 28.547 33.8568 28.3844 33.096 27.9901C32.4593 27.66 32.0261 27.165 30.8091 27C30.2943 27 29.159 27 28.6649 27.165C28.3837 27.2589 27.8003 27.4439 27.6065 27.5113C27.3738 27.5922 26.8058 27.8787 26.1889 27.9901C25.6722 28.0834 25.0933 27.9982 24.9183 28.1032C24.6452 28.2671 24.6814 28.644 24.9183 28.9175C25.0458 29.0648 25.2316 29.1822 25.4587 29.22C26.1161 29.3296 27.2838 29.1972 27.8489 28.8958C28.1612 28.7292 28.179 29.0658 27.8489 29.3958C27.6007 29.5611 27.1821 29.8828 26.5189 29.9702C25.8582 30.0572 25.1051 30.3399 24.5365 30.2244C24.041 30.1237 22.439 30.1081 22.1678 30.0669C21.376 29.9466 20.7844 29.9657 19.7943 29.3958C18.8042 28.8259 18.357 28.9082 18.1441 29.1559C17.8606 29.4859 18.0082 29.8159 18.4742 30.2244C19.1807 30.8436 20.1819 31.0677 20.7943 31.5C21.4067 31.9323 23.0449 32.03 24.0897 32.3902Z" fill="white"/>
</svg>
