<svg width="40" height="40" viewBox="0 0 40 40" fill="none" xmlns="http://www.w3.org/2000/svg">
<path fill-rule="evenodd" clip-rule="evenodd" d="M20.5188 15.4234C20.5188 15.4234 20.6689 13.8001 20.8019 13.8001L21.0631 13.941C21.0631 13.941 21.2703 14.1024 21.696 14.5856C22.008 14.947 22.5695 15.4641 22.7775 15.5983C23.134 15.8286 23.3009 15.9896 23.3009 15.9896C23.3009 15.9896 23.381 16.0785 23.5009 16.1024C23.776 16.1574 24.034 15.9214 24.2404 15.7327C24.281 15.6956 24.3197 15.6603 24.356 15.6294C24.3828 15.6046 24.837 15.3224 24.837 15.3224C25.1335 15.0868 25.4102 14.8956 25.7015 14.6945C25.9318 14.5355 26.1711 14.3701 26.4365 14.1716C26.7441 13.9419 26.9741 13.8028 27.1502 13.6963C27.2861 13.6141 27.3899 13.5514 27.4723 13.4814C27.6068 13.3675 27.6736 13.2907 27.7108 13.2481C27.7265 13.2301 27.7369 13.2181 27.7448 13.212L27.8678 13.1137L27.8698 13.117C28.2207 12.9314 28.3966 12.909 28.5277 12.8923C28.6113 12.8817 28.6768 12.8734 28.7579 12.8265C28.8413 12.7784 28.9456 12.7214 29.0499 12.6644C29.1542 12.6074 29.2586 12.5504 29.3419 12.5022L30.2559 12.0565C30.3075 12.0174 30.3777 11.9306 30.3055 11.8055C30.2342 11.682 30.1334 11.7109 30.0697 11.7292L30.0673 11.7298L29.1645 12.1473L30.2156 11.5494C30.299 11.5013 30.3215 11.3959 30.2733 11.3125C30.1883 11.1652 30.0717 11.1879 30.0231 11.216L30.2315 11.0957C30.2732 11.0716 30.3542 10.9713 30.2772 10.838C30.2002 10.7046 30.0807 10.7382 30.039 10.7623L28.8095 11.4721L29.7886 10.7742C29.8343 10.757 29.9065 10.6415 29.8502 10.5441C29.778 10.419 29.6637 10.4295 29.6081 10.4616L28.2747 11.3641C28.3029 11.2467 28.3276 11.1711 28.3519 11.0967C28.3698 11.0419 28.3875 10.9877 28.4062 10.9179C28.4227 10.8343 28.4545 10.6678 28.3042 10.5969C28.1896 10.5428 28.0717 10.6755 28.0541 10.7412C28.0231 10.8138 27.9885 10.9008 27.9329 11.0403C27.9038 11.1135 27.869 11.201 27.8259 11.3085C27.7913 11.3948 27.767 11.4879 27.7425 11.5818C27.688 11.7911 27.6324 12.0044 27.4594 12.1545L27.1045 12.2874C26.7791 12.5256 25.2342 13.1568 24.803 13.2738C24.4277 13.3757 23.7446 13.7917 23.7446 13.7917L23.464 13.5254L22.502 11.824L22.6014 11.6865L22.0021 10.131L21.5907 9.32503L21.4297 8.99121C21.2456 8.70353 21.1193 8.64691 21.0308 8.62469C21.0308 8.62469 20.9369 8.4863 20.8484 8.43094C20.7599 8.37558 20.7046 8.37013 20.7046 8.37013C20.7046 8.37013 20.7268 8.26529 20.6882 8.21539C20.6492 8.16548 20.489 8.00528 20.4391 7.98851C20.3896 7.97173 20.2236 7.93315 19.9527 7.8778C19.8377 7.85431 19.7487 7.83384 19.68 7.81806C19.5868 7.79665 19.5312 7.78386 19.4993 7.78386C19.444 7.78386 19.3664 7.83921 19.3387 7.86144C19.311 7.88367 19.1785 7.85599 19.1785 7.85599C19.1785 7.85599 19.1949 7.56872 19.1949 7.49114C19.1949 7.41356 19.1504 7.33639 19.1173 7.31417C19.0842 7.29194 18.9957 7.19255 18.9957 7.19255C18.9957 7.19255 19.1672 7.06548 19.2003 7.01558C19.2334 6.96567 19.2724 6.87719 19.311 6.7887C19.35 6.70022 19.4549 6.03091 19.4771 5.84303C19.4993 5.65516 19.4993 5.48909 19.4993 5.3897C19.4993 5.36092 19.5016 5.31056 19.5044 5.25054C19.5111 5.1024 19.5206 4.89542 19.5048 4.80887C19.4826 4.68726 19.3718 4.25028 19.311 4.10644C19.2502 3.96259 19.0732 3.6032 18.9571 3.49248C18.8409 3.38219 18.6585 3.22703 18.393 3.12764C18.1276 3.02825 17.9561 2.99512 17.8898 3.00057C17.8823 3.00119 17.8731 3.00162 17.8622 3.00213C17.7772 3.00611 17.5877 3.01499 17.2595 3.15699C17.0494 3.24967 16.7286 3.40442 16.6015 3.52058C16.4744 3.63675 16.292 3.91898 16.2367 4.07918C16.1813 4.23938 16.1096 4.4608 16.115 4.77029C16.1167 4.85999 16.1184 4.95797 16.12 5.05448C16.1241 5.29144 16.1279 5.51955 16.1318 5.59435C16.1373 5.69919 16.1817 5.94829 16.2203 6.0091C16.2593 6.06991 16.3864 6.26869 16.414 6.37395C16.4417 6.47921 16.4417 6.67254 16.4086 6.7778C16.3755 6.88306 16.3646 6.938 16.37 6.98245C16.37 6.98245 16.1876 7.07681 16.0383 7.20933C15.889 7.34227 15.8391 7.44711 15.8282 7.50246C15.8173 7.55782 15.7896 7.74024 15.7896 7.74024L15.6403 7.75702C15.6403 7.75702 15.6235 7.67985 15.5464 7.65763C15.4688 7.6354 14.7001 7.72934 14.5785 7.74611C14.4564 7.76247 14.3956 7.85641 14.3847 7.90086C14.3847 7.90086 14.3407 7.88409 14.2853 7.90631C14.23 7.92854 14.1746 7.9558 14.1801 8.00025C14.1855 8.04428 14.1855 8.14954 14.1855 8.14954C14.1855 8.14954 14.1025 8.19358 14.0639 8.24893C14.0253 8.30429 13.9977 8.3651 13.9977 8.3651C13.9711 8.37134 13.94 8.37786 13.905 8.38517C13.6632 8.43572 13.2418 8.52382 12.9471 8.81843C12.6096 9.15602 12.4162 9.46006 12.3386 9.78088C12.2611 10.1017 12.2225 10.5273 12.2279 10.6158C12.2312 10.6654 12.1919 10.7225 12.1606 10.7681C12.136 10.8039 12.1162 10.8326 12.126 10.8448C12.1387 10.8605 12.1288 10.8994 12.117 10.9462C12.108 10.9818 12.0978 11.0221 12.0954 11.0604C12.09 11.1489 12.0262 11.4797 11.9725 11.5833C11.738 12.0351 11.7724 12.22 11.7855 12.2902C11.7884 12.3055 11.7902 12.3154 11.788 12.3214C11.7811 12.3401 11.7713 12.3563 11.7605 12.3738C11.7314 12.4215 11.6958 12.4797 11.6958 12.6292C11.6073 12.7068 11.3343 13.0184 11.2957 13.3061C11.2898 13.3484 11.3372 13.3698 11.4148 13.3786L10.9648 14.7252V16.4555L11.0801 18.2089L11.034 19.2242V20.1011V20.8857L11.3108 21.3931L12.2338 21.6699L12.5106 21.3931L12.1415 20.8396V20.1015L12.3722 20.1937L12.5106 20.7934L12.8335 20.8857L12.6951 19.732L12.3722 19.1785L12.1415 18.5788L12.2799 16.9638L12.6951 15.2565L12.7874 14.703L13.2025 13.9225L13.5104 13.5225L13.6756 13.1681C13.7511 13.2 13.8303 13.2398 13.8794 13.3073C13.8794 13.3073 13.915 13.8022 13.8488 14.0454C13.7825 14.2891 13.7221 14.8162 13.6337 15.9221C13.5263 15.9221 13.502 18.2328 13.502 18.2328C13.502 18.2328 13.234 19.5521 13.2185 19.969C13.2185 19.969 13.2239 20.1736 13.213 20.2344C13.2085 20.2587 13.1919 20.2925 13.1731 20.3307C13.1446 20.3887 13.1111 20.4567 13.1078 20.5166C13.1023 20.616 13.091 21.9102 13.091 21.9102C13.091 21.9102 12.5714 22.6898 12.516 22.7951C12.4607 22.9003 12.3667 23.2211 12.3391 23.4036C12.3114 23.586 12.1734 24.2884 12.1235 24.3601C12.0736 24.4319 11.8249 24.808 11.7696 24.9795C11.7479 25.0472 11.7098 25.1545 11.6712 25.263C11.612 25.4293 11.5519 25.5986 11.5486 25.6321C11.5431 25.6874 11.5817 25.7537 11.6702 25.7868C11.6702 25.7868 11.4873 26.5224 11.1502 27.9935C11.1185 28.0698 11.2327 28.0985 11.3006 28.1156C11.3164 28.1195 11.3297 28.1229 11.338 28.126C11.3825 28.1428 11.471 28.1927 11.5041 28.2313C11.5372 28.2699 11.6865 28.3529 11.6865 28.3529C11.6865 28.3529 11.598 29.3263 11.6035 29.4647C11.6094 29.6031 11.6035 29.7578 11.5372 29.874C11.4706 29.9901 11.2881 30.6649 11.255 31.1182C11.2223 31.5716 11.2223 32.0748 11.2387 32.1524C11.246 32.187 11.2735 32.2617 11.303 32.3421C11.3394 32.441 11.3789 32.5484 11.3879 32.6003C11.4043 32.6942 11.3989 32.7663 11.3548 32.888C11.3436 32.919 11.3219 32.9684 11.2954 33.0286C11.2182 33.2045 11.1005 33.4727 11.0839 33.6457C11.0617 33.8781 11.0671 34.7353 11.0894 34.7906C11.1116 34.846 11.1669 34.846 11.2055 34.846C11.2441 34.846 11.4156 34.8405 11.4156 34.8405C11.4156 34.8405 11.3439 34.9512 11.294 34.9898C11.2528 35.0216 11.0801 35.1363 11.0023 35.1879C10.9858 35.1988 10.9735 35.2069 10.9677 35.2108C10.9346 35.233 10.8956 35.2607 10.8793 35.2993C10.8629 35.3383 10.8407 35.3769 10.8407 35.3769C10.8407 35.3769 10.7245 35.3882 10.5303 35.4448C10.337 35.5002 10.2095 35.6495 10.2041 35.8487C10.1986 36.0479 10.215 36.1749 10.215 36.1749C10.215 36.1749 10.1043 36.2135 10.0766 36.2412C10.0489 36.2689 9.98223 36.5402 10.0045 36.5842C10.0263 36.6283 10.1261 36.6505 10.1923 36.656C10.2586 36.6614 11.2818 36.6945 11.398 36.6945C11.5142 36.6945 12.6368 36.6782 12.6867 36.656C12.7079 36.6465 12.7351 36.6147 12.7659 36.579C12.8072 36.531 12.8547 36.4757 12.9023 36.4568C12.9463 36.439 13.0386 36.4353 13.1303 36.4317C13.2116 36.4285 13.2926 36.4253 13.3393 36.4123C13.4386 36.3846 13.8702 36.2739 13.8702 36.2739L13.9364 36.2295L13.9033 35.5107L13.8094 35.4167L13.7431 35.4058C13.7431 35.4058 13.7817 35.1181 13.7762 34.9743C13.8064 34.9549 13.8331 34.9439 13.8568 34.9342C13.9072 34.9136 13.9437 34.8986 13.97 34.8195C13.9953 34.7433 13.997 34.6171 13.9982 34.5237C13.9988 34.4747 13.9994 34.4347 14.0031 34.4157C14.0042 34.4104 14.0055 34.4035 14.0071 34.3951C14.0224 34.3157 14.0616 34.1118 14.0916 34.0618C14.1143 34.0238 14.098 33.8792 14.0837 33.7528C14.0772 33.6949 14.0711 33.6408 14.0694 33.6026C14.0639 33.4809 14.0861 33.3539 14.1138 33.2377C14.1415 33.1215 14.2631 32.7013 14.3353 32.5244C14.3866 32.3976 14.4636 32.0893 14.5113 31.8982C14.5302 31.8225 14.5445 31.7651 14.5508 31.7448C14.5726 31.6726 14.6334 31.0255 14.6171 30.6607C14.6003 30.2958 14.7001 29.3502 14.7664 29.0348C14.8326 28.7195 14.8158 28.454 14.755 28.2938C14.6942 28.1332 14.6888 28.1 14.6888 28.1C14.6888 28.1 14.8158 27.9952 15.015 27.9508C15.2142 27.9067 15.452 27.8178 15.6068 27.6522C15.7615 27.4865 15.9884 27.1158 16.0823 26.8172C16.1326 26.6571 16.1688 26.5034 16.1974 26.3816C16.2222 26.2761 16.2414 26.1944 16.2593 26.1533C16.2979 26.0649 16.2979 25.8489 16.2924 25.7495C16.287 25.6501 16.3092 25.0139 16.3201 24.8646C16.331 24.7153 16.4031 23.9852 16.9173 23.1171C16.9173 23.1171 16.9613 24.223 16.9504 24.3614C16.9481 24.3894 16.944 24.429 16.9392 24.4765C16.9199 24.6637 16.8882 24.9713 16.906 25.1523C16.9282 25.3792 17.0557 26.0758 17.1328 26.2695C17.2104 26.4628 17.3044 26.756 17.3044 26.8336C17.3044 26.8615 17.3015 26.9287 17.2982 27.0087C17.2922 27.1513 17.2845 27.3345 17.288 27.4089C17.2935 27.5251 17.3543 27.6413 17.3987 27.6966C17.4104 27.7112 17.4286 27.7316 17.4499 27.7553C17.5094 27.8218 17.5929 27.9151 17.6256 27.9843C17.6564 28.0501 17.6683 28.1485 17.6766 28.2168C17.6801 28.246 17.683 28.2697 17.6864 28.2829C17.6973 28.3273 17.7086 28.4381 17.5757 28.8637C17.4428 29.2898 17.3379 29.8815 17.3543 30.3348C17.3635 30.5902 17.4114 30.8895 17.4506 31.1339C17.4809 31.3233 17.5059 31.4796 17.5036 31.5569C17.5036 31.5569 17.4813 31.6894 17.4428 31.7947C17.4351 31.8156 17.4223 31.8468 17.4064 31.886C17.3422 32.0434 17.226 32.3286 17.1773 32.5856C17.1165 32.9064 17.0611 33.2218 17.0611 33.3157C17.0611 33.4096 17.1718 33.7527 17.1995 33.8244C17.2088 33.8486 17.2144 33.8734 17.2196 33.8966C17.2298 33.9422 17.2385 33.9812 17.2717 33.9959C17.3211 34.0181 17.3987 34.1289 17.3987 34.1289C17.3987 34.1289 17.4096 34.4715 17.4151 34.5159L17.4152 34.517C17.4207 34.5618 17.432 34.6544 17.509 34.6598C17.5866 34.6652 17.6474 34.6707 17.6474 34.6707C17.6474 34.6707 17.592 34.6874 17.5757 34.7814C17.565 34.8412 17.5433 35.0356 17.526 35.1904C17.5161 35.2786 17.5077 35.3539 17.5036 35.384C17.4927 35.467 17.4927 35.5224 17.4927 35.5224L17.509 36.2471C17.509 36.2471 17.6088 36.3247 17.6474 36.3523C17.686 36.38 17.7082 36.4408 17.7082 36.4408C17.7082 36.4408 17.7028 36.6069 17.769 36.6178C17.8353 36.6287 18.7038 36.7004 18.9856 36.7172C19.2674 36.7335 20.1246 36.7172 20.1691 36.7004C20.2131 36.6836 20.2408 36.6174 20.2408 36.6174C20.2408 36.6174 20.1913 36.3574 20.18 36.3351L20.1691 36.3129L20.0751 36.2353L20.0757 36.2155C20.0813 36.0168 20.0848 35.8902 20.0365 35.8151C20.0273 35.8008 20.0191 35.7848 20.0102 35.7677C19.9711 35.692 19.9206 35.5942 19.7266 35.522C19.7266 35.522 19.7707 35.4171 19.7543 35.3618C19.7449 35.3298 19.704 35.2776 19.6647 35.2275C19.636 35.1908 19.6081 35.1552 19.5941 35.1295C19.561 35.0687 19.5002 34.9802 19.5002 34.9802C19.5002 34.9802 19.5664 34.9743 19.6163 34.9634C19.6658 34.9525 19.7157 34.8476 19.7157 34.7864C19.7157 34.7252 19.7212 34.5759 19.7543 34.5042C19.778 34.4532 19.807 34.4107 19.8317 34.3745C19.842 34.3596 19.8515 34.3457 19.8596 34.3327C19.866 34.3224 19.8736 34.3121 19.8815 34.3014C19.9077 34.266 19.9371 34.2262 19.9371 34.1666C19.9371 34.1041 19.9119 33.9738 19.8963 33.8936C19.8926 33.8741 19.8894 33.8576 19.8872 33.8458C19.8837 33.8259 19.8706 33.8078 19.8562 33.7878C19.8265 33.7466 19.791 33.6973 19.821 33.608C19.8375 33.5586 19.8791 33.4818 19.9275 33.3925C20.0093 33.2415 20.1104 33.055 20.1418 32.9056C20.1917 32.6678 20.2412 32.2971 20.258 31.9708C20.2655 31.8207 20.2614 31.6296 20.2575 31.4466C20.2528 31.2317 20.2485 31.0279 20.2634 30.9144C20.2892 30.7186 20.3438 30.5083 20.3823 30.3597C20.3851 30.3488 20.3878 30.3383 20.3905 30.3281C20.4291 30.1788 20.4182 30.0463 20.3905 29.8471C20.3628 29.6479 20.4345 29.3162 20.4513 29.2386C20.4538 29.2267 20.4559 29.2141 20.4581 29.201C20.4702 29.1287 20.4846 29.0431 20.5784 29.0008C20.6363 28.9749 20.6973 28.9595 20.751 28.9459C20.7998 28.9335 20.8425 28.9227 20.8715 28.9069C20.8758 28.9045 20.8801 28.9022 20.8844 28.8999C20.9409 28.8699 20.9963 28.8405 21.0376 28.6247C21.082 28.3923 21.1038 28.0271 21.0376 27.4576C20.9758 26.9271 20.8421 26.5356 20.8017 26.4173C20.7987 26.4086 20.7962 26.4014 20.7943 26.3957C20.7884 26.3779 20.7816 26.3605 20.7751 26.3437C20.7514 26.2826 20.7306 26.2291 20.7612 26.1856C20.7856 26.151 20.8141 26.1425 20.8375 26.1355C20.8515 26.1313 20.8636 26.1277 20.8719 26.1194C20.8745 26.1168 20.8775 26.1143 20.8807 26.1115C20.9053 26.0906 20.9419 26.0594 20.8832 25.937C20.8166 25.7986 20.6564 25.2676 20.6287 25.1683C20.6153 25.1202 20.58 25.0476 20.5452 24.976C20.5079 24.8995 20.4713 24.8241 20.4626 24.7812C20.4552 24.7438 20.4759 24.5053 20.5008 24.2177C20.5312 23.8671 20.5679 23.4434 20.5679 23.2216C20.5679 22.8177 20.6232 21.2417 20.6396 20.9318C20.6445 20.8383 20.6606 20.706 20.6791 20.5536C20.7218 20.2011 20.7776 19.7412 20.739 19.4053C20.7316 19.3413 20.7197 19.2728 20.7047 19.2023C20.8524 19.3919 21.2543 19.2608 21.2867 19.2338C21.2878 19.2329 21.289 19.232 21.2902 19.231C21.3259 19.2023 21.4072 19.1371 21.3642 18.8966C21.3198 18.648 21.1042 18.3326 21.1042 18.3326L21.1487 18.2995C21.1487 18.2995 21.1818 18.2831 21.1432 18.2055C21.1042 18.1279 20.8556 17.6578 20.8556 17.6578C20.8556 17.6578 20.8283 17.6188 20.7784 17.6356C20.7289 17.652 20.6505 17.5542 20.6513 17.5194C20.6554 17.3714 20.5862 17.171 20.528 17.0027C20.5015 16.9261 20.4774 16.856 20.4634 16.8006C20.419 16.6237 20.3582 16.5134 20.2642 16.5021C20.1703 16.4907 20.104 16.4853 20.104 16.4853C20.104 16.4853 20.198 16.0705 20.2148 16.0152L20.2311 15.9598C20.2311 15.9598 20.3859 15.9544 20.419 15.9544C20.4525 15.9544 20.4966 15.9435 20.5188 15.4234Z" fill="white"/>
<path d="M30.7452 23.414L29.4319 21.1393L32.0585 21.1393L30.7452 23.414Z" fill="white"/>
<rect x="31.2506" y="19.37" width="1.01101" height="1.01101" transform="rotate(90 31.2506 19.37)" fill="white"/>
<rect x="31.2506" y="17.685" width="1.01101" height="1.01101" transform="rotate(90 31.2506 17.685)" fill="white"/>
<rect x="31.2506" y="16" width="1.01101" height="1.01101" transform="rotate(90 31.2506 16)" fill="white"/>
<path d="M36.539 31.0365C37.1177 30.2716 37.0398 29.643 36.9494 29.3501C36.8911 29.1597 36.6228 28.6906 36.2956 28.3635C35.8275 27.8954 35.3778 27.5878 35.2756 27.5296C34.8976 27.3133 34.6638 27.2906 34.5466 27.3887C34.4093 27.5033 34.3811 27.5478 34.3811 27.5478L34.5196 27.6913C34.7117 27.4992 34.7957 27.5296 34.9185 27.5807C35.1269 27.667 35.3687 27.7608 36.0259 28.3817C36.7197 29.0378 36.8228 29.4741 36.8146 29.7651C36.7939 30.53 36.4187 30.9579 35.1526 32.2613C33.9346 33.5151 33.5425 33.6861 33.2687 33.8327C32.9656 33.9955 32.6778 34.0082 32.4344 33.8089C32.3425 33.7337 32.2076 33.5962 32.0891 33.4699L35.7197 29.8394C35.8388 29.7202 35.8388 29.5268 35.7197 29.4076L34.2749 27.9628L34.4461 27.7916C34.4719 27.7657 34.4722 27.7233 34.4461 27.6972L34.3557 27.6068C34.3296 27.5807 34.2871 27.581 34.2613 27.6068L34.0901 27.778L31.6603 25.3482C31.5411 25.229 31.3477 25.229 31.2285 25.3482L30.1124 26.4642L29.9322 26.284C29.8725 26.2243 29.7755 26.2245 29.7158 26.2842L28.2715 27.7285C28.2116 27.7884 28.2118 27.8849 28.2715 27.9446L28.4517 28.1249L25.6028 30.9738C25.4836 31.093 25.4836 31.2864 25.6028 31.4056L29.6622 35.465C29.7814 35.5842 29.9748 35.5842 30.094 35.465L31.9213 33.6377C31.9906 33.7069 32.0762 33.7925 32.1824 33.8988C32.4914 34.2078 32.7684 34.1891 32.9979 34.1544C33.2869 34.1106 33.8015 33.8143 34.2524 33.4129C35.082 32.6747 36.1773 31.5139 36.539 31.0365ZM29.4645 33.3766L27.1243 31.0365L29.8965 28.2643L32.2367 30.6044L29.4645 33.3766ZM33.7216 30.3976L30.7424 27.4184L31.6426 26.5183L34.6218 29.4975L33.7216 30.3976Z" fill="white"/>
<path d="M29.9929 29.5304C29.9729 29.5504 29.9409 29.5501 29.9211 29.5304L29.606 29.2153C29.586 29.1953 29.5858 29.1633 29.6058 29.1433L29.8444 28.9047C29.8644 28.8847 29.8964 28.885 29.9163 28.9049L30.2315 29.2201C30.2512 29.2398 30.2514 29.2718 30.2315 29.2918L29.9929 29.5304Z" fill="white"/>
<path d="M30.6226 30.1604C30.6026 30.1803 30.5706 30.1801 30.5506 30.1601L30.2355 29.845C30.2158 29.8253 30.2153 29.793 30.2353 29.7731L30.4739 29.5345C30.4939 29.5145 30.5261 29.5149 30.5459 29.5347L30.861 29.8498C30.8807 29.8695 30.8812 29.9018 30.8612 29.9218L30.6226 30.1604Z" fill="white"/>
<path d="M31.2528 30.7904C31.2328 30.8104 31.2008 30.8101 31.181 30.7904L30.8659 30.4753C30.8462 30.4555 30.8459 30.4235 30.8659 30.4035L31.1045 30.1649C31.1245 30.145 31.1563 30.145 31.1763 30.1649L31.4914 30.4801C31.5111 30.4998 31.5113 30.5318 31.4914 30.5518L31.2528 30.7904Z" fill="white"/>
<path d="M29.3985 30.1245C29.3785 30.1445 29.3465 30.1442 29.3268 30.1245L29.0116 29.8094C28.9917 29.7894 28.9914 29.7574 29.0114 29.7374L29.25 29.4988C29.27 29.4788 29.302 29.4791 29.322 29.499L29.6371 29.8142C29.6568 29.8339 29.6571 29.8659 29.6371 29.8859L29.3985 30.1245Z" fill="white"/>
<path d="M30.0286 30.7545C30.0086 30.7745 29.9766 30.7742 29.9566 30.7543L29.6415 30.4392C29.6218 30.4194 29.6213 30.3872 29.6413 30.3672L29.8799 30.1286C29.8999 30.1086 29.9321 30.1091 29.9519 30.1288L30.267 30.4439C30.2867 30.4637 30.2872 30.4959 30.2672 30.5159L30.0286 30.7545Z" fill="white"/>
<path d="M30.6586 31.3845C30.6387 31.4045 30.6067 31.4043 30.5869 31.3845L30.2718 31.0694C30.252 31.0496 30.2518 31.0176 30.2718 30.9977L30.5104 30.7591C30.5304 30.7391 30.5622 30.7391 30.5821 30.7591L30.8972 31.0742C30.917 31.0939 30.9172 31.1259 30.8972 31.1459L30.6586 31.3845Z" fill="white"/>
<path d="M28.8046 30.7184C28.7844 30.7386 28.7522 30.7386 28.7324 30.7189L28.4173 30.4037C28.3973 30.3838 28.3973 30.3515 28.4175 30.3313L28.6557 30.0932C28.6759 30.073 28.7081 30.073 28.7281 30.093L29.0432 30.4081C29.063 30.4278 29.063 30.46 29.0428 30.4803L28.8046 30.7184Z" fill="white"/>
<path d="M29.4349 31.3484C29.4146 31.3686 29.3824 31.3686 29.3624 31.3486L29.0473 31.0335C29.0276 31.0138 29.0273 30.9813 29.0476 30.9611L29.2857 30.7229C29.3059 30.7027 29.3384 30.703 29.3581 30.7227L29.6732 31.0378C29.693 31.0576 29.6932 31.09 29.673 31.1102L29.4349 31.3484Z" fill="white"/>
<path d="M30.0646 31.9784C30.0444 31.9986 30.0122 31.9986 29.9925 31.9789L29.6773 31.6637C29.6576 31.644 29.6576 31.6118 29.6778 31.5916L29.9159 31.3534C29.9362 31.3332 29.9682 31.333 29.9881 31.353L30.3032 31.6681C30.323 31.6878 30.323 31.7201 30.3028 31.7403L30.0646 31.9784Z" fill="white"/>
<path d="M28.2104 31.3127C28.1906 31.3325 28.1584 31.3325 28.1387 31.3127L27.8236 30.9976C27.8036 30.9776 27.8036 30.9454 27.8233 30.9257L28.0622 30.6868C28.0819 30.6671 28.1141 30.6671 28.1341 30.6871L28.4492 31.0022C28.469 31.0219 28.469 31.0541 28.4492 31.0739L28.2104 31.3127Z" fill="white"/>
<path d="M28.8401 31.9427C28.8204 31.9625 28.7882 31.9625 28.7682 31.9425L28.4531 31.6274C28.4333 31.6076 28.4331 31.5752 28.4528 31.5554L28.6917 31.3166C28.7114 31.2968 28.7439 31.2971 28.7636 31.3168L29.0787 31.6319C29.0985 31.6517 29.0987 31.6841 29.079 31.7039L28.8401 31.9427Z" fill="white"/>
<path d="M29.4703 32.5727C29.4506 32.5925 29.4183 32.5925 29.3986 32.5727L29.0835 32.2576C29.0637 32.2379 29.0637 32.2057 29.0835 32.1859L29.3223 31.9471C29.342 31.9273 29.374 31.9271 29.394 31.9471L29.7091 32.2622C29.7289 32.2819 29.7289 32.3142 29.7091 32.3339L29.4703 32.5727Z" fill="white"/>
<line x1="31.7211" y1="10.5167" x2="33.351" y2="8.88679" stroke="white" stroke-width="0.5"/>
<line x1="31.7211" y1="10.5167" x2="33.351" y2="8.88679" stroke="white" stroke-width="0.5"/>
<line y1="-0.25" x2="2.30503" y2="-0.25" transform="matrix(0.707107 0.707107 0.707107 -0.707107 31.8978 12.5211)" stroke="white" stroke-width="0.5"/>
<line y1="-0.25" x2="2.30503" y2="-0.25" transform="matrix(0.707107 0.707107 0.707107 -0.707107 31.8978 12.5211)" stroke="white" stroke-width="0.5"/>
<line x1="32.0769" y1="11.5567" x2="34.3819" y2="11.5567" stroke="white" stroke-width="0.5"/>
<line x1="32.0769" y1="11.5567" x2="34.3819" y2="11.5567" stroke="white" stroke-width="0.5"/>
</svg>
