<svg width="40" height="40" viewBox="0 0 40 40" fill="none" xmlns="http://www.w3.org/2000/svg">
<path d="M26.1842 29.6783C26.2113 29.7585 26.2309 31.4854 26.2206 31.7736L7.26991 31.7354C7.28857 31.6915 7.52358 30.0495 7.63084 29.9767C7.74088 29.9068 7.95538 27.8924 7.99176 27.8383C8.02533 27.7842 7.05728 26.8805 7.10111 26.7797C7.14494 26.679 6.96961 25.9572 7.07686 25.794C7.18691 25.6326 5.98477 25.0451 5.7796 24.6888C5.51847 24.2346 5.26013 24.2468 5.85234 24.1106C6.14705 24.0425 6.13772 24.1423 6.34476 23.9521C6.5518 23.7646 7.15707 23.6275 7.40794 23.5473C7.65881 23.4662 8.3275 23.4568 8.3275 23.4568C8.3275 23.4568 8.3648 23.386 8.31071 23.3132C8.25662 23.2423 8.31071 22.6278 8.31071 22.5476C8.31071 22.4673 8.38345 22.2333 8.38345 22.2333L8.69122 22.126C8.69122 22.126 9.80755 21.738 9.92506 21.6942C10.0416 21.6476 10.4296 21.5403 10.5835 21.504C10.7374 21.4676 10.9882 21.6681 11.1151 21.7483C11.2419 21.8285 11.3762 22.126 11.3762 22.126C11.3762 22.126 11.4564 22.1605 11.4564 22.1167C11.4564 22.0729 11.4928 21.946 11.4835 21.8024C11.4741 21.6588 11.5469 21.3706 11.7716 21.1636C11.9964 20.9565 12.7984 20.9929 12.7984 20.9929L12.7891 20.5322C12.7891 20.5322 12.7966 20.3969 12.5448 20.1806C12.293 19.9642 12.1932 19.2778 12.1298 19.081C12.0663 18.8842 12.1372 18.3424 12.1204 18.279C12.1008 18.2156 11.9936 18.1792 11.6597 18.1251C11.3258 18.071 11.3622 17.6028 11.3258 17.3958C11.2895 17.1878 11.3258 16.7374 11.3258 16.5564C11.3258 16.3755 11.4061 15.5567 11.4573 15.4709C11.5012 15.3879 11.6541 15.3608 11.7082 15.344C11.7642 15.3273 11.891 15.344 11.9348 15.3273C11.9787 15.3077 11.9619 15.2275 11.9619 15.2004C11.9619 15.1734 11.8891 15.11 11.8351 15.0661C11.781 15.0223 11.7175 14.9589 11.7082 14.625C11.6989 14.2911 11.933 13.435 12.0598 13.1375C12.1867 12.84 13.1967 11.1184 15.5133 11.1007C17.8299 11.0829 19.0908 12.1834 19.4983 13.4816C19.6858 14.0841 19.7473 14.9384 19.7203 15.0186C19.6914 15.0988 19.5179 15.2452 19.7203 15.3842C19.822 15.455 20.1586 15.3795 20.2808 15.7329C20.3106 15.8178 20.3862 17.3986 20.2202 17.7082C20.2202 17.7082 20.1903 17.9563 19.9712 18.0029C19.5198 18.0953 19.5832 18.0813 19.5832 18.2808C19.5832 18.6101 19.476 19.2853 19.3417 19.4317C19.2148 19.5725 19.0339 19.8728 19.0339 19.8728C19.0339 19.8728 18.8614 20.0211 18.7392 20.2337C18.617 20.4464 18.5639 20.7411 18.6366 20.7411C18.7093 20.7411 19.6513 20.7635 19.7585 20.88C19.8658 20.9966 20.0439 20.9826 20.0952 21.1822C20.1586 21.4359 20.5419 21.753 20.5419 21.753C20.5419 21.753 21.7133 21.5916 21.9642 21.5748C22.2178 21.558 22.7597 21.9358 22.7765 21.9628C22.7942 21.9898 23.323 22.2995 23.3426 22.3358C23.3622 22.3722 22.8865 22.5746 22.9033 22.6287C22.9201 22.6828 23.0572 22.8096 23.1644 22.9169C23.2745 23.0241 23.2745 23.4223 23.2913 23.5025C23.3081 23.5837 23.5692 23.7105 23.696 23.7907C23.8229 23.8709 24.2276 23.8709 24.3712 23.9614C24.5158 24.0519 25.0035 24.6804 25.1472 24.9612C25.2936 25.2419 25.5715 25.9367 25.6349 25.9805C25.6983 26.0271 26.1134 26.5121 26.1936 26.7294C26.2747 26.9467 26.3111 28.5069 26.3111 28.7317C26.3111 28.9565 26.2477 29.2633 26.2206 29.3538C26.1936 29.4442 26.1572 29.5981 26.1842 29.6783Z" fill="white"/>
<path d="M18.8949 26.3153C18.6496 26.61 18.3633 28.2477 18.3158 28.3605L18.3204 28.3624L24.6547 30.2276C24.706 30.0392 24.9476 29.3967 25.3355 29.1104C25.7235 28.8222 25.7355 32.0153 25.9062 31.9482C26.0769 31.8811 27.6661 27.7767 28.3059 27.0306C28.526 26.7742 30.7652 24.396 30.8146 24.244C30.8641 24.092 31.3546 23.4261 31.7836 23.1416C32.2136 22.8581 33.1788 21.8313 33.7029 21.3212C34.2271 20.811 34.6337 19.995 34.6337 19.995C34.6337 19.995 36.429 17.3548 36.9167 16.4669C37.4026 15.5828 35.6558 14.8796 34.4341 14.0682C32.996 13.1132 32.6967 12.992 31.8312 12.3448C31.2875 11.9382 29.4726 11.3105 29.4726 11.3105C29.4726 11.3105 26.7475 9.99832 26.5414 9.90133C26.3353 9.8062 25.4288 9.48538 24.7293 9.21586C24.4067 9.09182 23.8042 8.7766 23.8042 8.7766C23.8042 8.7766 23.6317 8.64137 23.4311 8.58541C23.2306 8.53039 23.1672 8.41567 23.0357 8.30749C22.9042 8.19931 22.4892 8.00812 22.4892 8.00812C22.4892 8.00812 19.7147 7.22193 19.364 7.06712C18.7009 6.77428 15.8173 7.52223 14.4734 7.72741C14.1861 7.77124 14.077 8.48189 15.2447 8.41008C15.6942 8.3821 18.0779 8.05569 18.7634 8.32055C19.0124 8.41661 19.1365 8.75235 18.9294 8.85773C18.8875 8.87918 17.6163 8.57702 17.5352 8.57608C17.2591 8.57329 16.8991 9.02654 17.5352 9.21399C18.2253 9.4173 18.8529 9.88081 20.222 10.2305C20.6464 10.3387 21.1798 10.584 21.2283 10.5887C21.5696 10.6222 22.1796 10.792 22.2943 10.7761C22.409 10.7603 22.782 10.8918 22.782 10.8918L23.4367 11.1977C23.4367 11.1977 24.1259 11.4317 24.1819 11.5502C24.2379 11.6658 25.2124 12.0911 25.2124 12.0911C25.2124 12.0911 26.824 13.1655 26.9937 13.2681C27.1635 13.3697 30.7857 17.5394 30.9993 17.5198C31.2147 17.4984 30.7382 17.864 30.7382 17.864C30.7382 17.864 30.6552 18.1587 30.353 18.4124C30.0499 18.6642 29.7468 18.9439 29.6162 19.0521C29.4885 19.1612 28.9587 19.6602 28.8282 19.7684C28.6976 19.8766 28.1101 20.3755 27.9758 20.5602C27.8415 20.7476 26.6337 21.4536 26.6337 21.4536C26.6337 21.4536 25.6162 22.2146 25.2348 22.3862C24.8524 22.5569 22.437 22.3862 22.437 22.3862C22.437 22.3862 23.7715 24.0313 23.6447 24.064C23.5188 24.0966 22.6403 24.243 22.4323 24.2319C22.2243 24.2216 21.3318 24.6366 21.2013 24.7448C21.0707 24.8539 20.9634 25.309 20.9634 25.309C20.9634 25.309 20.3656 25.6242 19.9068 25.6765C19.448 25.7287 19.1402 26.0215 18.8949 26.3153Z" fill="white"/>
<path d="M10.5757 27.4608C10.6494 27.1199 11.1514 23.7439 11.1415 23.6326L10.0186 22.7999L9.32804 22.5703L7.2425 23.1159C7.2425 23.1159 6.86646 23.51 6.70006 23.5395C4.83791 23.8743 4.71666 24.6857 4.41453 25.7893C4.36772 25.9612 4.01981 27.3969 3.82895 27.7931C3.63801 28.1903 3.64582 29.1964 3.53653 29.3226C3.42715 29.4497 3.11666 31.6625 3.00003 31.9482L26.4516 31.9482C26.4516 31.9482 25.9307 31.6492 25.9062 31.4028C25.8777 31.1163 25.8102 30.9017 25.9062 30.8574C26.0788 30.7779 9.32174 29.8511 9.38098 29.7083C9.44031 29.5646 9.33305 29.1518 9.33305 29.1518C9.33305 29.1518 9.68156 28.6439 10.0299 28.4065C10.3782 28.1691 10.502 27.8017 10.5757 27.4608Z" fill="white"/>
</svg>
