<svg width="40" height="40" viewBox="0 0 40 40" fill="none" xmlns="http://www.w3.org/2000/svg">
<path fill-rule="evenodd" clip-rule="evenodd" d="M29.0667 2.88476H11.0518C10.0631 2.88476 9.2617 3.6862 9.2617 4.67482V21.0895C9.2617 22.0781 10.0631 22.8795 11.0518 22.8795H29.0667C30.0553 22.8795 30.8568 22.0781 30.8568 21.0895V4.67482C30.8568 3.68619 30.0553 2.88476 29.0667 2.88476ZM11.0518 2.00002C9.5745 2.00002 8.37695 3.19757 8.37695 4.67482V21.0895C8.37695 22.5667 9.5745 23.7643 11.0518 23.7643H29.0667C30.544 23.7643 31.7415 22.5667 31.7415 21.0895V4.67482C31.7415 3.19756 30.544 2.00002 29.0667 2.00002H11.0518Z" fill="white"/>
<path d="M12.9028 10.4199L14.1123 14H13.4619L13.2039 13.2206H11.9944L11.7471 14H11.0966L12.3061 10.4199H12.9028ZM12.6018 11.28L12.1879 12.6454H13.0157L12.6018 11.28Z" fill="white"/>
<path fill-rule="evenodd" clip-rule="evenodd" d="M20.2512 15.5699C22.1601 15.5699 23.7075 14.0225 23.7075 12.1136C23.7075 10.2047 22.1601 8.6573 20.2512 8.6573C18.3424 8.6573 16.7949 10.2047 16.7949 12.1136C16.7949 14.0225 18.3424 15.5699 20.2512 15.5699ZM20.2513 13.0865C20.7886 13.0865 21.2242 12.6509 21.2242 12.1136C21.2242 11.5763 20.7886 11.1407 20.2513 11.1407C19.714 11.1407 19.2784 11.5763 19.2784 12.1136C19.2784 12.6509 19.714 13.0865 20.2513 13.0865Z" fill="white"/>
<path d="M26.8136 14V10.4199H28.5821C28.7398 10.4199 28.8742 10.4754 28.9853 10.5865C29.0964 10.694 29.152 10.8266 29.152 10.9843V11.753C29.152 11.8354 29.1251 11.9161 29.0713 11.9949C29.0176 12.0702 28.9495 12.1203 28.867 12.1454C28.9495 12.1598 29.0211 12.2028 29.0821 12.2744C29.1466 12.3461 29.1788 12.4321 29.1788 12.5325V13.4356C29.1788 13.5933 29.1233 13.7277 29.0122 13.8387C28.9011 13.9463 28.7667 14 28.609 14H26.8136ZM27.4586 12.4572V13.4141H28.3886C28.428 13.4141 28.4621 13.4015 28.4908 13.3764C28.5194 13.3478 28.5338 13.3137 28.5338 13.2743V12.597C28.5338 12.5576 28.5194 12.5253 28.4908 12.5002C28.4621 12.4716 28.428 12.4572 28.3886 12.4572H27.4586ZM27.4586 11.8767H28.3779C28.4639 11.8695 28.5069 11.8229 28.5069 11.7369V11.1456C28.5069 11.1062 28.4925 11.0739 28.4639 11.0488C28.4352 11.0201 28.4012 11.0058 28.3617 11.0058H27.4586V11.8767Z" fill="white"/>
<mask id="path-5-inside-1" fill="white">
<path fill-rule="evenodd" clip-rule="evenodd" d="M8.18787 31.5105C8.18787 29.4033 12.7827 27.665 18.7161 27.4149V30.0818L14.8153 30.0818L20.2993 34.8311L25.7833 30.0818L21.8823 30.0818V27.4246C27.7118 27.707 32.1965 29.4287 32.1965 31.5105C32.1965 33.7895 26.822 35.637 20.1922 35.637C13.5624 35.637 8.18787 33.7895 8.18787 31.5105Z"/>
</mask>
<path fill-rule="evenodd" clip-rule="evenodd" d="M8.18787 31.5105C8.18787 29.4033 12.7827 27.665 18.7161 27.4149V30.0818L14.8153 30.0818L20.2993 34.8311L25.7833 30.0818L21.8823 30.0818V27.4246C27.7118 27.707 32.1965 29.4287 32.1965 31.5105C32.1965 33.7895 26.822 35.637 20.1922 35.637C13.5624 35.637 8.18787 33.7895 8.18787 31.5105Z" fill="white"/>
<path d="M18.7161 27.4149H18.8031V27.3242L18.7125 27.328L18.7161 27.4149ZM18.7161 30.0818V30.1688H18.8031V30.0818H18.7161ZM14.8153 30.0818V29.9948H14.5819L14.7583 30.1476L14.8153 30.0818ZM20.2993 34.8311L20.2423 34.8969L20.2993 34.9462L20.3563 34.8969L20.2993 34.8311ZM25.7833 30.0818L25.8403 30.1476L26.0167 29.9948H25.7833V30.0818ZM21.8823 30.0818H21.7953V30.1688H21.8823V30.0818ZM21.8823 27.4246L21.8865 27.3377L21.7953 27.3333V27.4246H21.8823ZM18.7125 27.328C15.7394 27.4533 13.0974 27.9515 11.1956 28.6851C10.2451 29.0518 9.47495 29.479 8.94087 29.9516C8.40695 30.4241 8.10087 30.9496 8.10087 31.5105H8.27486C8.27486 31.0178 8.54314 30.5359 9.05617 30.0819C9.56903 29.6281 10.3184 29.21 11.2583 28.8475C13.1373 28.1226 15.7594 27.6266 18.7198 27.5018L18.7125 27.328ZM18.8031 30.0818V27.4149H18.6291V30.0818H18.8031ZM14.8153 30.1688L18.7161 30.1688V29.9948L14.8153 29.9948V30.1688ZM20.3563 34.7653L14.8722 30.016L14.7583 30.1476L20.2423 34.8969L20.3563 34.7653ZM25.7264 30.016L20.2423 34.7653L20.3563 34.8969L25.8403 30.1476L25.7264 30.016ZM21.8823 30.1688L25.7833 30.1688V29.9948L21.8823 29.9948V30.1688ZM21.7953 27.4246V30.0818H21.9693V27.4246H21.7953ZM32.2835 31.5105C32.2835 30.9564 31.9847 30.4367 31.4627 29.9688C30.9407 29.5007 30.1875 29.0769 29.2573 28.7118C27.3961 27.9814 24.8076 27.4792 21.8865 27.3377L21.8781 27.5115C24.7866 27.6524 27.3552 28.1523 29.1937 28.8738C30.1133 29.2346 30.8456 29.6492 31.3466 30.0983C31.8477 30.5475 32.1095 31.0238 32.1095 31.5105H32.2835ZM20.1922 35.724C23.5141 35.724 26.5251 35.2613 28.7088 34.5106C29.8002 34.1355 30.6897 33.6868 31.308 33.1842C31.9256 32.6823 32.2835 32.1172 32.2835 31.5105H32.1095C32.1095 32.0433 31.7955 32.5638 31.1983 33.0492C30.6017 33.5341 29.7332 33.9745 28.6522 34.3461C26.4912 35.089 23.5001 35.55 20.1922 35.55V35.724ZM8.10087 31.5105C8.10087 32.1172 8.45872 32.6823 9.07636 33.1842C9.6947 33.6868 10.5842 34.1355 11.6756 34.5106C13.8592 35.2613 16.8703 35.724 20.1922 35.724V35.55C16.8843 35.55 13.8932 35.089 11.7321 34.3461C10.6512 33.9745 9.78265 33.5341 9.18609 33.0492C8.58883 32.5638 8.27486 32.0433 8.27486 31.5105H8.10087Z" fill="white" mask="url(#path-5-inside-1)"/>
<path fill-rule="evenodd" clip-rule="evenodd" d="M21.7949 15.0001H18.718V26.4484C15.7498 26.5715 13.0723 27.0617 11.0385 27.8013C9.8573 28.2308 8.86795 28.7535 8.16499 29.3579C7.46358 29.9609 6.99976 30.6896 6.99976 31.5192C6.99976 32.3487 7.46358 33.0775 8.16499 33.6805C8.86795 34.2848 9.8573 34.8075 11.0385 35.237C13.4047 36.0975 16.642 36.6204 20.1948 36.6204C23.7477 36.6204 26.985 36.0975 29.3512 35.237C30.5324 34.8075 31.5217 34.2848 32.2247 33.6805C32.9261 33.0775 33.3899 32.3487 33.3899 31.5192C33.3899 30.6896 32.9261 29.9609 32.2247 29.3579C31.5217 28.7535 30.5324 28.2308 29.3512 27.8013C27.3455 27.072 24.714 26.5852 21.7949 26.4538V15.0001ZM32.9138 31.5192C32.9138 34.0735 27.2193 36.1443 20.1948 36.1443C13.1703 36.1443 7.47585 34.0735 7.47585 31.5192C7.47585 28.9648 13.1703 26.8941 20.1948 26.8941C27.2193 26.8941 32.9138 28.9648 32.9138 31.5192Z" fill="white"/>
</svg>
