<svg width="40" height="40" viewBox="0 0 40 40" fill="none" xmlns="http://www.w3.org/2000/svg">
<path fill-rule="evenodd" clip-rule="evenodd" d="M5 19.6217C7.97623 14.375 13.6197 11 19.7801 11C25.9406 11 31.584 14.375 34.5603 19.6217C31.584 24.8685 25.9406 28.2435 19.7801 28.2435C13.6197 28.2435 7.97623 24.8685 5 19.6217ZM27.3754 23.7053C29.0656 22.6723 30.5412 21.2901 31.703 19.6217C30.5412 17.9534 29.0656 16.5712 27.3754 15.5381C28.0303 16.7536 28.4019 18.1443 28.4019 19.6217C28.4019 21.0992 28.0303 22.4899 27.3754 23.7053ZM12.185 15.5381C11.5301 16.7536 11.1584 18.1442 11.1584 19.6217C11.1584 21.0992 11.5301 22.4899 12.185 23.7054C10.4948 22.6724 9.01909 21.2901 7.85722 19.6217C9.01909 17.9533 10.4948 16.5711 12.185 15.5381ZM19.5 26C23.0899 26 26 23.0899 26 19.5C26 15.9101 23.0899 13 19.5 13C15.9101 13 13 15.9101 13 19.5C13 23.0899 15.9101 26 19.5 26Z" fill="white"/>
<rect x="24" y="18.9375" width="0.525001" height="9" transform="rotate(90 24 18.9375)" fill="white"/>
<rect x="19.7623" y="24" width="0.525001" height="9" transform="rotate(-180 19.7623 24)" fill="white"/>
</svg>
