<svg width="40" height="40" viewBox="0 0 40 40" fill="none" xmlns="http://www.w3.org/2000/svg">
<path fill-rule="evenodd" clip-rule="evenodd" d="M5 19.6217C7.97623 14.375 13.6197 11 19.7801 11C25.9406 11 31.584 14.375 34.5603 19.6217C31.584 24.8685 25.9406 28.2435 19.7801 28.2435C13.6197 28.2435 7.97623 24.8685 5 19.6217ZM27.3754 23.7053C29.0656 22.6723 30.5412 21.2901 31.703 19.6217C30.5412 17.9534 29.0656 16.5711 27.3754 15.5381C28.0303 16.7536 28.4019 18.1443 28.4019 19.6217C28.4019 21.0992 28.0303 22.4898 27.3754 23.7053ZM12.185 15.538C11.5301 16.7535 11.1584 18.1442 11.1584 19.6217C11.1584 21.0992 11.5301 22.4899 12.185 23.7054C10.4948 22.6724 9.01909 21.2901 7.85722 19.6217C9.01909 17.9533 10.4948 16.5711 12.185 15.538ZM24.6765 13.3127C25.0365 13.5029 25.7002 14.0204 25.8751 15.2826C25.9839 16.0709 26.0453 18.1906 25.9596 19.6636C25.9131 20.4642 25.7079 21.2261 25.4776 21.5388C25.2946 21.7871 25.0519 22.0648 24.4713 22.0648H23.9807V25.4983C23.9807 25.7222 23.799 25.9039 23.575 25.9039H15.9474C15.7235 25.9039 15.5418 25.7222 15.5418 25.4983V20.1452H15.2031C15.0909 20.1452 15 20.0547 15 19.9421V17.2282C15 17.116 15.0909 17.0248 15.2031 17.0248H15.5418V14.9277C15.5418 14.7037 15.7235 14.522 15.9474 14.522H20.5131V14.2004C20.5131 14.1518 20.5527 14.1117 20.6018 14.1117H20.7716C20.8206 14.1117 20.8603 14.1518 20.8603 14.2004V14.522H23.575C23.799 14.522 23.9807 14.7037 23.9807 14.9277V21.7495C24.2106 21.7568 24.4666 21.7593 24.6236 21.7435C25.0395 21.7022 25.298 21.4198 25.4298 20.9821L25.4505 20.9146C25.5716 20.5226 25.7551 19.9288 25.7233 17.7359C25.6883 15.3219 25.6388 14.5672 24.9397 13.8293C24.6739 13.5482 24.1671 13.235 22.8989 13.2704C21.719 13.304 21.3941 13.4388 21.1205 13.5524L21.106 13.5584C20.9426 13.6258 20.8351 13.6761 20.8351 14.037L20.5702 14.0323C20.5702 14.0323 20.5549 13.9641 20.5762 13.7273C20.5941 13.5251 20.8351 13.3268 21.3935 13.1749C21.5441 13.1335 22.2556 13 23.1352 13C23.7499 13 24.4427 13.1885 24.6765 13.3127ZM17.0301 24.1277H21.4272V18.9188H17.0301V24.1277ZM17.0301 17.3293H22.628V15.6379H17.0301V17.3293ZM18.3096 20.018C18.3096 20.0555 18.2793 20.0854 18.2422 20.0854H17.6501C17.6126 20.0854 17.5823 20.0555 17.5823 20.018V19.5697C17.5823 19.5321 17.6126 19.5023 17.6501 19.5023H18.2422C18.2793 19.5023 18.3096 19.5321 18.3096 19.5697V20.018ZM19.426 20.0854C19.4635 20.0854 19.4938 20.0555 19.4938 20.018V19.5697C19.4938 19.5321 19.4631 19.5023 19.426 19.5023H18.8339C18.7968 19.5023 18.7661 19.5321 18.7661 19.5697V20.018C18.7661 20.0555 18.7968 20.0854 18.8339 20.0854H19.426ZM20.6773 20.018C20.6773 20.0555 20.647 20.0854 20.6099 20.0854H20.0178C19.9807 20.0854 19.9504 20.0555 19.9504 20.018V19.5697C19.9504 19.5321 19.9802 19.5023 20.0178 19.5023H20.6099C20.647 19.5023 20.6773 19.5321 20.6773 19.5697V20.018ZM18.2422 21.2017C18.2793 21.2017 18.3096 21.1719 18.3096 21.1343V20.686C18.3096 20.6485 18.2793 20.6186 18.2422 20.6186H17.6501C17.6126 20.6186 17.5823 20.6485 17.5823 20.686V21.1343C17.5823 21.1719 17.6126 21.2017 17.6501 21.2017H18.2422ZM19.4938 21.1343C19.4938 21.1719 19.4635 21.2017 19.426 21.2017H18.8339C18.7968 21.2017 18.7661 21.1719 18.7661 21.1343V20.686C18.7661 20.6485 18.7968 20.6186 18.8339 20.6186H19.426C19.4631 20.6186 19.4938 20.6485 19.4938 20.686V21.1343ZM20.6099 21.2017C20.647 21.2017 20.6773 21.1719 20.6773 21.1343V20.686C20.6773 20.6485 20.647 20.6186 20.6099 20.6186H20.0178C19.9802 20.6186 19.9504 20.6485 19.9504 20.686V21.1343C19.9504 21.1719 19.9807 21.2017 20.0178 21.2017H20.6099ZM18.3096 22.2503C18.3096 22.2883 18.2793 22.3186 18.2422 22.3186H17.6501C17.6126 22.3186 17.5823 22.2883 17.5823 22.2503V21.8028C17.5823 21.7649 17.6126 21.7346 17.6501 21.7346H18.2422C18.2793 21.7346 18.3096 21.7649 18.3096 21.8028V22.2503ZM19.426 22.3186C19.4635 22.3186 19.4938 22.2883 19.4938 22.2503V21.8028C19.4938 21.7649 19.4631 21.7346 19.426 21.7346H18.8339C18.7968 21.7346 18.7661 21.7649 18.7661 21.8028V22.2503C18.7661 22.2883 18.7968 22.3186 18.8339 22.3186H19.426ZM20.6773 22.2503C20.6773 22.2883 20.647 22.3186 20.6099 22.3186H20.0178C19.9807 22.3186 19.9504 22.2883 19.9504 22.2503V21.8028C19.9504 21.7649 19.9802 21.7346 20.0178 21.7346H20.6099C20.647 21.7346 20.6773 21.7649 20.6773 21.8028V22.2503ZM18.2422 23.4345C18.2793 23.4345 18.3096 23.4042 18.3096 23.3671V22.9183C18.3096 22.8812 18.2793 22.8509 18.2422 22.8509H17.6501C17.6126 22.8509 17.5823 22.8812 17.5823 22.9183V23.3671C17.5823 23.4042 17.6126 23.4345 17.6501 23.4345H18.2422ZM19.4938 23.3671C19.4938 23.4042 19.4635 23.4345 19.426 23.4345H18.8339C18.7968 23.4345 18.7661 23.4042 18.7661 23.3671V22.9183C18.7661 22.8812 18.7968 22.8509 18.8339 22.8509H19.426C19.4631 22.8509 19.4938 22.8812 19.4938 22.9183V23.3671ZM20.6099 23.4345C20.647 23.4345 20.6773 23.4042 20.6773 23.3671V22.9183C20.6773 22.8812 20.647 22.8509 20.6099 22.8509H20.0178C19.9802 22.8509 19.9504 22.8812 19.9504 22.9183V23.3671C19.9504 23.4042 19.9807 23.4345 20.0178 23.4345H20.6099Z" fill="white"/>
</svg>
