<svg width="40" height="40" viewBox="0 0 40 40" fill="none" xmlns="http://www.w3.org/2000/svg">
<path d="M8.60754 9.85533H14.528L14.0606 19.5151H9.07495L8.60754 9.85533Z" fill="white"/>
<path d="M7.67261 6.73926H9.23063V7.67407H10.7887V6.73926H12.3467V7.67407H13.9047V6.73926H15.4627V8.29728L14.8395 8.9205H8.29582L7.67261 8.29728V6.73926Z" fill="white"/>
<path d="M26.0573 9.85533H31.9778L31.5103 19.5151H26.5247L26.0573 9.85533Z" fill="white"/>
<path d="M25.1226 6.73926H26.6806V7.67407H28.2386V6.73926H29.7966V7.67407H31.3547V6.73926H32.9127V8.29728L32.2895 8.9205H25.7458L25.1226 8.29728V6.73926Z" fill="white"/>
<path d="M15.1512 13.283H25.4342L25.7458 19.5151H14.8396L15.1512 13.283Z" fill="white"/>
<path d="M15.3069 10.1669H16.3975V11.1017H17.9556V10.1669H19.5136V11.1017H21.0716V10.1669H22.6297V11.1017H24.1877V10.1669H25.2783L25.4341 12.3482H15.1511L15.3069 10.1669Z" fill="white"/>
<rect x="19.8252" y="3.00002" width="0.934816" height="5.9205" fill="white"/>
<path d="M23.5646 4.40223L21.2275 5.34674L21.2275 3.45773L23.5646 4.40223Z" fill="white"/>
<mask id="path-9-inside-1" fill="white">
<path fill-rule="evenodd" clip-rule="evenodd" d="M8.13647 31.5102C8.13647 29.403 12.7313 27.6647 18.6647 27.4147V30.0816L14.7638 30.0816L20.2478 34.8309L25.7318 30.0816L21.8309 30.0816V27.4244C27.6603 27.7067 32.1449 29.4285 32.1449 31.5102C32.1449 33.7892 26.7705 35.6367 20.1407 35.6367C13.511 35.6367 8.13647 33.7892 8.13647 31.5102Z"/>
</mask>
<path fill-rule="evenodd" clip-rule="evenodd" d="M8.13647 31.5102C8.13647 29.403 12.7313 27.6647 18.6647 27.4147V30.0816L14.7638 30.0816L20.2478 34.8309L25.7318 30.0816L21.8309 30.0816V27.4244C27.6603 27.7067 32.1449 29.4285 32.1449 31.5102C32.1449 33.7892 26.7705 35.6367 20.1407 35.6367C13.511 35.6367 8.13647 33.7892 8.13647 31.5102Z" fill="white"/>
<path d="M18.6647 27.4147H18.7517V27.3239L18.661 27.3277L18.6647 27.4147ZM18.6647 30.0816V30.1686L18.7517 30.1686V30.0816H18.6647ZM14.7638 30.0816V29.9946L14.5305 29.9946L14.7069 30.1474L14.7638 30.0816ZM20.2478 34.8309L20.1909 34.8967L20.2478 34.946L20.3048 34.8967L20.2478 34.8309ZM25.7318 30.0816L25.7888 30.1474L25.9652 29.9946L25.7318 29.9946V30.0816ZM21.8309 30.0816H21.7439V30.1686L21.8309 30.1686V30.0816ZM21.8309 27.4244L21.8351 27.3375L21.7439 27.3331V27.4244H21.8309ZM18.661 27.3277C15.6879 27.4531 13.0459 27.9513 11.1442 28.6849C10.1937 29.0515 9.42355 29.4788 8.88947 29.9513C8.35556 30.4238 8.04948 30.9493 8.04948 31.5102H8.22347C8.22347 31.0175 8.49174 30.5356 9.00477 30.0816C9.51763 29.6278 10.267 29.2098 11.2069 28.8472C13.0859 28.1223 15.708 27.6264 18.6683 27.5016L18.661 27.3277ZM18.7517 30.0816V27.4147H18.5777V30.0816H18.7517ZM14.7638 30.1686L18.6647 30.1686V29.9946L14.7638 29.9946V30.1686ZM20.3048 34.7651L14.8208 30.0159L14.7069 30.1474L20.1909 34.8967L20.3048 34.7651ZM25.6749 30.0159L20.1909 34.7651L20.3048 34.8967L25.7888 30.1474L25.6749 30.0159ZM21.8309 30.1686L25.7318 30.1686V29.9946L21.8309 29.9946V30.1686ZM21.7439 27.4244V30.0816H21.9179V27.4244H21.7439ZM32.2319 31.5102C32.2319 30.9561 31.9332 30.4365 31.4112 29.9685C30.8891 29.5005 30.136 29.0766 29.2057 28.7115C27.3446 27.9811 24.7561 27.479 21.8351 27.3375L21.8266 27.5113C24.7351 27.6521 27.3037 28.152 29.1422 28.8735C30.0618 29.2344 30.7941 29.6489 31.2951 30.0981C31.7961 30.5472 32.058 31.0235 32.058 31.5102H32.2319ZM20.1407 35.7237C23.4626 35.7237 26.4736 35.261 28.6573 34.5104C29.7487 34.1352 30.6381 33.6865 31.2565 33.184C31.8741 32.682 32.2319 32.1169 32.2319 31.5102H32.058C32.058 32.0431 31.744 32.5635 31.1467 33.0489C30.5502 33.5338 29.6816 33.9742 28.6007 34.3458C26.4397 35.0887 23.4486 35.5497 20.1407 35.5497V35.7237ZM8.04948 31.5102C8.04948 32.1169 8.40732 32.682 9.02496 33.184C9.6433 33.6865 10.5328 34.1352 11.6242 34.5104C13.8078 35.261 16.8189 35.7237 20.1407 35.7237V35.5497C16.8328 35.5497 13.8417 35.0887 11.6807 34.3458C10.5998 33.9742 9.73125 33.5338 9.13469 33.0489C8.53744 32.5635 8.22347 32.0431 8.22347 31.5102H8.04948Z" fill="white" mask="url(#path-9-inside-1)"/>
<path fill-rule="evenodd" clip-rule="evenodd" d="M21.831 19H18.6648V26.4483C15.6973 26.5716 13.0205 27.0617 10.987 27.8012C9.8059 28.2307 8.81655 28.7533 8.11359 29.3577C7.41218 29.9607 6.94836 30.6894 6.94836 31.519C6.94836 32.3485 7.41218 33.0772 8.11359 33.6803C8.81655 34.2846 9.8059 34.8073 10.987 35.2368C13.3532 36.0972 16.5905 36.6201 20.1434 36.6201C23.6962 36.6201 26.9335 36.0972 29.2997 35.2368C30.4808 34.8073 31.4702 34.2846 32.1731 33.6803C32.8745 33.0772 33.3384 32.3485 33.3384 31.519C33.3384 30.6894 32.8745 29.9607 32.1731 29.3577C31.4702 28.7533 30.4808 28.2307 29.2997 27.8012C27.3141 27.0791 24.7151 26.5948 21.831 26.4577V19ZM18.9083 26.9155H21.3784C27.8233 27.1413 32.8623 29.1161 32.8623 31.519C32.8623 34.0733 27.1678 36.144 20.1434 36.144C13.1189 36.144 7.42445 34.0733 7.42445 31.519C7.42445 29.1161 12.4634 27.1413 18.9083 26.9155Z" fill="white"/>
</svg>
