<svg width="40" height="40" viewBox="0 0 40 40" fill="none" xmlns="http://www.w3.org/2000/svg">
<path fill-rule="evenodd" clip-rule="evenodd" d="M26.3 31.6C32.5408 31.6 37.6 26.5408 37.6 20.3C37.6 14.0592 32.5408 9 26.3 9C20.0592 9 15 14.0592 15 20.3C15 26.5408 20.0592 31.6 26.3 31.6ZM35.2147 19.9259V19.4204C35.1909 19.3723 35.1483 19.3302 35.0886 19.2943C34.3906 18.8009 33.8192 18.4098 33.3739 18.1211C32.9287 17.844 32.525 17.6277 32.1638 17.4712C31.8027 17.3269 31.4359 17.2306 31.0626 17.1825C30.6898 17.1465 30.2152 17.1283 29.6372 17.1283C28.651 17.1283 27.8684 17.1582 27.2904 17.2185C26.6887 17.2787 26.3275 17.3086 26.2075 17.3086C26.1831 17.3086 26.0874 17.2909 25.9187 17.2549C25.7384 17.219 25.5459 17.1709 25.3413 17.1106C25.1483 17.0625 24.968 17.0083 24.7998 16.948C24.619 16.8999 24.4989 16.8639 24.4386 16.8396C24.4148 16.8158 24.3363 16.7317 24.2041 16.5868C24.0957 16.4303 23.9752 16.2616 23.843 16.0813C23.6981 15.8767 23.5299 15.6416 23.3374 15.3772H23.2295L20.5398 13.5H20.2688V13.7168L22.2904 16.3883C22.2904 16.4359 22.3269 16.4663 22.3993 16.4784H22.5797L22.6881 16.4425C22.7357 16.4425 22.7899 16.4541 22.8501 16.4784C22.8861 16.526 22.88 16.5924 22.8319 16.6765L22.489 17.1278V17.2185C22.4652 17.2423 22.4292 17.2661 22.3806 17.2909C22.3203 17.339 22.2301 17.3451 22.1096 17.3086C22.0498 17.3086 22.0194 17.2185 22.0194 17.0381C22.0194 16.99 22.0133 16.9419 22.0017 16.8938C22.0017 16.8457 21.9774 16.8031 21.9293 16.7671L18.7705 15.558C18.6505 15.558 18.5902 15.5879 18.5902 15.6482V15.7384C18.5304 15.7384 18.5 15.7622 18.5 15.8103L18.5902 15.9364L21.5494 18.3546C21.7783 18.4387 21.989 18.5167 22.1815 18.5892C22.338 18.6494 22.4885 18.7153 22.6328 18.7877C22.7889 18.8485 22.8912 18.89 22.9393 18.9144C22.9393 18.9387 22.9753 18.9863 23.0477 19.0587C23.0958 19.1306 23.1617 19.2213 23.2463 19.3292C23.3182 19.4376 23.4144 19.5521 23.535 19.6721L23.8966 20.2678L24.0952 20.4846C24.1195 20.5687 24.1378 20.7131 24.1494 20.9177C24.1616 21.1102 24.1975 21.3027 24.2578 21.4952C24.2578 21.7601 24.2821 22.0427 24.3302 22.3436C24.354 22.644 24.3905 22.9874 24.4386 23.3724C24.6792 24.3475 25.0824 25.2435 25.6477 26.0626C26.2252 26.869 27.0017 27.5781 27.9763 28.1926L28.0664 28.2463C28.3314 28.4271 28.5117 28.4626 28.6079 28.3542C28.7645 28.3542 28.8663 28.3238 28.9149 28.2635C28.9504 28.1921 28.9686 28.1252 28.9686 28.0654C29.0284 28.029 29.0765 27.9697 29.113 27.8851C29.1489 27.8122 29.1666 27.7281 29.1666 27.6323V27.5245C29.1666 27.4642 29.1601 27.3917 29.1489 27.3077C29.113 27.2347 29.0339 27.1506 28.9144 27.0544C28.1085 26.5372 27.4708 25.9177 27.0012 25.1954C26.5322 24.4736 26.207 23.6733 26.0266 22.7954C25.9664 22.374 25.9182 21.9951 25.8823 21.6578C25.8341 21.3209 25.7556 20.9906 25.6472 20.6654L25.9182 20.864C25.9785 20.9 26.015 20.9182 26.0266 20.9182C26.0388 20.9182 26.0631 20.9 26.0991 20.864C26.2313 20.7313 26.2313 20.6654 26.0991 20.6654L25.5576 20.2141C25.5095 20.2141 25.4856 20.1959 25.4856 20.1599C25.4735 20.1478 25.4735 20.13 25.4856 20.1057C25.3413 19.9137 25.1908 19.7091 25.0343 19.4923C24.8778 19.2517 24.7755 19.0896 24.7284 19.0065C24.8246 18.9584 24.8965 18.8986 24.9447 18.8262C24.9928 18.7416 25.047 18.6515 25.1073 18.5552C25.1675 18.5795 25.2577 18.6094 25.3783 18.6454C25.4988 18.6697 25.6072 18.7057 25.7035 18.7538C25.8362 18.8019 25.9679 18.8561 26.1006 18.9164H26.209C26.4374 18.9164 26.6664 18.9103 26.8948 18.8981C27.1238 18.8981 27.3578 18.8738 27.5989 18.8257C27.9358 18.7776 28.303 18.7234 28.6996 18.6631C29.1206 18.615 29.5901 18.5973 30.1073 18.6089C30.6736 18.6692 31.2809 18.8196 31.9308 19.0602C32.5802 19.313 33.2964 19.698 34.0785 20.2156C34.1991 20.2997 34.3201 20.3539 34.4397 20.3777C34.5354 20.3899 34.6382 20.3777 34.7461 20.3418C34.8419 20.3175 34.926 20.2754 34.9984 20.2151C35.0825 20.1544 35.1428 20.0885 35.1787 20.0161C35.203 19.9923 35.2147 19.9619 35.2147 19.9259ZM26.8391 19.8352L26.0991 19.5465C26.0631 19.5465 26.0271 19.5531 25.9912 19.5642C25.9431 19.5642 25.9187 19.6002 25.9187 19.6726V19.781C25.9309 19.817 25.9669 19.8352 26.0271 19.8352L26.7489 20.0156C26.7971 20.0637 26.8275 20.0758 26.8391 20.052C26.8513 20.0277 26.8812 20.0156 26.9293 20.0156C26.9293 19.8955 26.8994 19.8352 26.8391 19.8352ZM26.2434 19.2036C26.2191 19.2157 26.2075 19.2456 26.2075 19.2937C26.2075 19.4027 26.2373 19.4563 26.2976 19.4558L27.0377 19.546H27.1825C27.218 19.5344 27.2362 19.504 27.2362 19.4558C27.2362 19.4199 27.218 19.3839 27.1825 19.3479C27.1339 19.312 27.0858 19.2937 27.0377 19.2937L26.2976 19.1676C26.2733 19.1676 26.2556 19.1798 26.2434 19.2036ZM26.4243 20.5034C26.4597 20.4912 26.5144 20.4851 26.5864 20.4851C26.5864 20.4375 26.5864 20.3889 26.5869 20.3408C26.5747 20.2926 26.5327 20.2683 26.4602 20.2683L25.8468 19.9254C25.7865 19.8773 25.7506 19.8656 25.7384 19.8894C25.7268 19.9132 25.6964 19.9254 25.6482 19.9254C25.6482 20.0454 25.6781 20.1057 25.7384 20.1057L26.3883 20.4851C26.3883 20.5216 26.3999 20.5277 26.4243 20.5034Z" fill="white"/>
<path fill-rule="evenodd" clip-rule="evenodd" d="M15.1749 22.2916C15.5355 22.219 15.9641 22.1668 16.4823 22.1477L16.4823 17.5889C16.0769 17.5889 15.708 17.5142 15.3769 17.3952C15.131 18.3221 15 19.2957 15 20.3C15 20.9796 15.06 21.6451 15.1749 22.2916ZM14.8821 22.3586C14.7624 21.6905 14.7 21.0025 14.7 20.3C14.7 19.2555 14.838 18.2433 15.0969 17.2805C14.2106 16.8723 13.6379 16.1717 13.4101 15.8929L13.4101 15.8929C13.3846 15.8617 13.3634 15.8359 13.3466 15.8162C13.1119 15.5422 11.9048 14.7 11.4183 14.7C10.9318 14.7 9.38751 15.1741 9.27469 15.2306C9.26676 15.2345 9.25563 15.2395 9.24179 15.2457C9.06717 15.3235 8.4608 15.594 8.4045 16.4781C8.62358 17.1622 8.65839 17.6569 8.68233 17.9971C8.70137 18.2677 8.71353 18.4404 8.806 18.5329C9.01893 18.7458 9.44481 18.683 9.61499 18.5657C9.69875 18.5146 9.79038 18.4106 9.86345 18.1886C9.93709 17.965 9.98692 17.6356 9.99456 17.1575C9.99525 17.1143 9.99527 17.0697 9.99456 17.0239L9.99192 16.8521L11.0751 16.7687L11.0925 16.9469C11.144 17.4751 11.435 18.0124 11.8011 18.4477C12.1702 18.8867 12.5871 19.1885 12.855 19.2724L12.7458 19.6212C12.383 19.5076 11.9113 19.1466 11.5214 18.683C11.1657 18.2599 10.8546 17.724 10.7534 17.16L10.3595 17.1903C10.3502 17.6727 10.2989 18.0348 10.2106 18.3029C10.1935 18.3549 10.1748 18.4039 10.1545 18.4499C10.241 18.5779 10.2992 18.7415 10.3299 18.942C10.349 19.0662 10.3865 19.3147 10.2972 19.5547C10.2495 19.6827 10.1698 19.7993 10.05 19.8942C10.368 20.0036 10.616 20.2814 10.6705 20.6369L10.6776 20.6831C10.7331 21.0453 10.5727 21.3907 10.2924 21.5887C10.614 21.6919 10.8666 21.9691 10.9212 22.3257L10.9246 22.3477C11.0016 22.8499 10.6076 23.3184 10.1054 23.3953C9.79066 23.4436 9.79066 23.0335 10.05 23.0335C10.3523 22.9872 10.6091 22.7055 10.5628 22.4031L10.5594 22.3811C10.5131 22.0787 10.2304 21.8712 9.928 21.9175C9.54095 21.9768 9.44426 21.4473 9.83988 21.3866C10.1503 21.3391 10.3633 21.0489 10.3158 20.7385L10.3087 20.6923C10.2611 20.3819 9.97093 20.1689 9.66055 20.2164C9.28555 20.2739 9.24239 19.7917 9.47676 19.7476C9.79934 19.6869 9.90934 19.5473 9.95414 19.427C10.0066 19.286 9.98777 19.1255 9.96813 18.9974C9.9557 18.9163 9.93873 18.8488 9.91872 18.7925C9.8832 18.8248 9.84543 18.8532 9.80537 18.8776C9.78137 18.8831 9.75767 18.8895 9.73239 18.8964L9.73229 18.8965L9.73228 18.8965C9.63101 18.9242 9.50443 18.9588 9.23187 18.9588C8.59306 18.9588 8.38012 18.7477 8.38012 18.32C8.38012 17.8677 8.25137 17.1407 8.04055 16.6028L2.95451 16.6028C2.59185 16.5989 2.00864 16.7832 2.00002 17.5889C1.99331 18.2164 2.51382 18.4278 2.9545 18.4278L6.95082 18.4646C6.81508 18.5239 6.67626 18.6134 6.55929 18.7316C6.35959 18.9333 6.21639 19.2272 6.2732 19.5978C6.34364 20.0575 6.71738 20.4387 7.18397 20.4607C7.01199 20.6604 6.92512 20.9313 6.96818 21.2123L6.97526 21.2585C7.05345 21.7687 7.53044 22.119 8.04065 22.0408L8.13753 22.0259C7.94954 22.225 7.85202 22.5057 7.89672 22.7973L7.90009 22.8193C7.97705 23.3215 8.44656 23.6662 8.94877 23.5893L10.1547 23.4044C10.1905 23.399 10.2256 23.3914 10.2598 23.3821L12.423 23.3821C12.8349 23.3821 13.1039 23.2144 13.4442 23.0023C13.7826 22.7914 14.1916 22.5364 14.8821 22.3586Z" fill="white"/>
</svg>
