<svg width="40" height="40" viewBox="0 0 40 40" fill="none" xmlns="http://www.w3.org/2000/svg">
<path fill-rule="evenodd" clip-rule="evenodd" d="M4.1152 33.8H36.0905L37.6371 33.8C37.5593 33.6095 37.4212 32.8191 37.2801 32.0117C37.1188 31.0889 36.9536 30.1439 36.8702 30.0469C36.8006 29.9665 36.7642 29.6359 36.721 29.2439V29.2438C36.6675 28.7569 36.6034 28.1752 36.4522 27.8607C36.2223 27.3834 35.8329 25.8506 35.6761 25.2334L35.6761 25.2333L35.6759 25.2325C35.6468 25.1179 35.6257 25.0349 35.6152 24.9964C35.5928 24.9146 35.5711 24.8339 35.5497 24.7543C35.1587 23.3004 34.8719 22.2343 32.3482 21.7805C32.1104 21.7384 31.5729 21.175 31.5729 21.175L31.5049 21.1572C31.4807 21.043 31.4454 20.9427 31.3919 20.8905C31.3648 20.8635 31.3365 20.8356 31.308 20.8076L31.3079 20.8075C31.1747 20.6765 31.0383 20.5423 31.0186 20.4786C31.0057 20.4371 31.1958 20.3344 31.3702 20.2402L31.3702 20.2402C31.5207 20.159 31.6594 20.0841 31.6465 20.06C31.631 20.0314 31.3944 19.884 31.1809 19.751L31.1808 19.751L31.1808 19.751L31.1807 19.7509C31.007 19.6427 30.8486 19.5441 30.8373 19.5268C30.8133 19.4881 30.0388 18.9482 29.6762 18.9722C29.3176 18.9962 27.6432 19.2268 27.6432 19.2268C27.6432 19.2268 27.0953 18.7736 27.0047 18.411C26.9588 18.2326 26.8421 18.1736 26.7235 18.1136C26.6525 18.0777 26.5809 18.0415 26.5234 17.9791C26.3701 17.8124 25.0237 17.7804 24.9197 17.7804C24.8157 17.7804 24.8917 17.3592 25.0663 17.0552C25.241 16.7513 25.4876 16.5393 25.4876 16.5393C25.4876 16.5393 25.7462 16.1101 25.9275 15.9088C26.1195 15.6995 26.2728 14.7343 26.2728 14.2637C26.2728 14.2286 26.2714 14.1981 26.2702 14.1713C26.2675 14.1116 26.2657 14.0707 26.2819 14.0392C26.3171 13.9708 26.4372 13.9463 26.8176 13.8685L26.8274 13.8665C27.1406 13.7998 27.1833 13.4452 27.1833 13.4452C27.4206 13.0026 27.3126 10.7431 27.2699 10.6218C27.1761 10.3501 27.0081 10.2501 26.8497 10.1559C26.6675 10.0474 26.498 9.9465 26.4688 9.60061C26.5074 9.48596 26.4194 8.26485 26.1515 7.40368C25.5689 5.54802 23.7666 3.97497 20.4552 4.0003C17.1438 4.02563 15.7001 6.48651 15.5188 6.91177C15.3375 7.33702 15.0029 8.5608 15.0162 9.03804C15.0338 9.66886 14.9711 9.7604 14.8331 9.96167C14.784 10.0332 14.7254 10.1187 14.6576 10.2472C14.5843 10.3698 14.4696 11.5402 14.4696 11.7989C14.4696 11.8734 14.4653 11.9798 14.4604 12.1007V12.1007V12.1007C14.4483 12.3996 14.4326 12.787 14.4696 12.9986C14.4795 13.055 14.4857 13.1249 14.4924 13.2017C14.521 13.528 14.5605 13.9785 14.9469 14.0411C15.4241 14.1184 15.5774 14.1704 15.6054 14.2611C15.6137 14.2922 15.6071 14.404 15.5987 14.5487V14.5487V14.5487V14.5488C15.5825 14.8255 15.5592 15.2229 15.6188 15.4075C15.6395 15.4718 15.6629 15.5727 15.691 15.6937C15.786 16.1022 15.9343 16.7407 16.212 16.9792C16.5719 17.2885 16.5612 17.4818 16.5612 17.4818L16.5746 18.1404C16.5746 18.1404 15.4281 18.0884 15.1068 18.3843C14.7856 18.6803 14.6816 19.0922 14.6949 19.2975C14.704 19.4373 14.6828 19.5661 14.6683 19.6537C14.6615 19.6947 14.6563 19.7268 14.6563 19.7467C14.6563 19.8094 14.5416 19.7601 14.5416 19.7601C14.5416 19.7601 14.3497 19.3348 14.1684 19.2202C14.1369 19.2003 14.1002 19.1753 14.0598 19.1477L14.0598 19.1477L14.0598 19.1477C13.8669 19.0163 13.5903 18.8279 13.4085 18.8709C13.1885 18.9229 12.634 19.0762 12.4673 19.1428C12.2994 19.2055 10.7037 19.7601 10.7037 19.7601L10.2637 19.9134C10.2637 19.9134 10.1598 20.248 10.1598 20.3626C10.1598 20.3883 10.1559 20.4523 10.1507 20.5372C10.1465 20.6076 10.1413 20.6922 10.1368 20.7815L8.63284 21.175C8.63284 21.175 8.09533 21.7384 7.85748 21.7805C5.33378 22.2343 5.04705 23.3004 4.65602 24.7543L4.65601 24.7544L4.656 24.7544C4.63461 24.8339 4.61291 24.9146 4.59051 24.9964C4.58002 25.035 4.55894 25.1179 4.52981 25.2326L4.52966 25.2332L4.52963 25.2333C4.37285 25.8504 3.98342 27.3833 3.75347 27.8607C3.60226 28.1752 3.53825 28.7569 3.48466 29.2439C3.44153 29.6359 3.40515 29.9665 3.33548 30.0469C3.25209 30.1439 3.08693 31.0889 2.92564 32.0117C2.78453 32.8191 2.6464 33.6095 2.5686 33.8L4.1152 33.8ZM19.1321 7.35137L18.4615 13.4768C18.1587 13.1194 17.9788 12.8687 17.8018 12.6221C17.6713 12.4403 17.5424 12.2606 17.3669 12.0421C17.1432 11.7984 16.695 11.3171 16.1283 11.6247C15.6964 11.8591 15.8411 12.5325 16.0064 12.7384C16.1624 13.002 16.3552 13.31 16.6643 13.8037C16.8264 14.0626 17.0204 14.3725 17.2579 14.7539C17.3172 14.8491 17.379 14.9469 17.442 15.0468C18.113 16.1094 18.9293 17.402 18.4615 18.2643L10.0001 32.5H18.0001L22.4221 18.698C22.735 17.4546 23.2251 16.831 23.6042 16.3487C23.8838 15.993 24.103 15.7142 24.1461 15.3202L24.4205 12.8144L24.8473 8.91635C24.8435 8.66547 24.7328 8.24635 24.176 8.18538C23.6259 8.12516 23.485 8.50682 23.3959 8.74816L23.3926 8.75707L23.4942 7.82897C23.5349 7.45773 23.2567 7.14551 22.8854 7.10486C22.2292 7.03301 22.033 7.44983 22.0092 7.66638L22.1109 6.73829C22.1312 6.55267 22.0033 6.06905 21.4093 6.00401C20.8153 5.93898 20.6462 6.39008 20.6259 6.5757L20.5322 7.43144C20.5283 7.21645 20.3306 6.82514 19.9458 6.783C19.3889 6.72203 19.1592 7.10388 19.1321 7.35137Z" fill="white"/>
<line x1="28.5321" y1="7.4017" x2="30.2695" y2="5.66429" stroke="white" stroke-width="0.55"/>
<line x1="28.5321" y1="7.4017" x2="30.2695" y2="5.66429" stroke="white" stroke-width="0.55"/>
<line y1="-0.275" x2="2.45707" y2="-0.275" transform="matrix(0.707107 0.707107 0.707107 -0.707107 28.7266 14.4034)" stroke="white" stroke-width="0.55"/>
<line y1="-0.275" x2="2.45707" y2="-0.275" transform="matrix(0.707107 0.707107 0.707107 -0.707107 28.7266 14.4034)" stroke="white" stroke-width="0.55"/>
<line x1="28.9175" y1="10.9373" x2="31.3746" y2="10.9373" stroke="white" stroke-width="0.55"/>
<line x1="28.9175" y1="10.9373" x2="31.3746" y2="10.9373" stroke="white" stroke-width="0.55"/>
<line y1="-0.275" x2="2.45707" y2="-0.275" transform="matrix(-0.707107 -0.707107 -0.707107 0.707107 13.0781 7.59616)" stroke="white" stroke-width="0.55"/>
<line y1="-0.275" x2="2.45707" y2="-0.275" transform="matrix(-0.707107 -0.707107 -0.707107 0.707107 13.0781 7.59616)" stroke="white" stroke-width="0.55"/>
<line x1="13.2726" y1="14.5978" x2="11.5352" y2="16.3353" stroke="white" stroke-width="0.55"/>
<line x1="13.2726" y1="14.5978" x2="11.5352" y2="16.3353" stroke="white" stroke-width="0.55"/>
<line y1="-0.275" x2="2.45707" y2="-0.275" transform="matrix(-1 -2.02912e-08 -2.02912e-08 1 12.8872 11.2123)" stroke="white" stroke-width="0.55"/>
<line y1="-0.275" x2="2.45707" y2="-0.275" transform="matrix(-1 -2.02912e-08 -2.02912e-08 1 12.8872 11.2123)" stroke="white" stroke-width="0.55"/>
</svg>
