<svg width="40" height="40" viewBox="0 0 40 40" fill="none" xmlns="http://www.w3.org/2000/svg">
<path d="M26.2954 31.3902C27.3401 31.7505 27.5563 31.8946 28.8892 31.6784C28.8892 31.6784 33.6034 30.9593 35.3017 30.7296C37 30.5 38 30.7296 38 29.9602V27.8958C38 27.547 36.0625 27.3844 35.3017 26.9901C34.665 26.66 34.2318 26.165 33.0148 26C32.5 26 31.3647 26 30.8706 26.165C30.5894 26.2589 30.006 26.4439 29.8122 26.5113C29.5795 26.5922 29.0115 26.8787 28.3946 26.9901C27.8779 27.0834 27.299 26.9982 27.124 27.1032C26.8509 27.2671 26.8871 27.644 27.124 27.9175C27.2515 28.0648 27.4373 28.1822 27.6643 28.22C28.3218 28.3296 29.4895 28.1972 30.0546 27.8958C30.3669 27.7292 30.3846 28.0658 30.0546 28.3958C29.8064 28.5611 29.3878 28.8828 28.7246 28.9702C28.0639 29.0572 27.3108 29.3399 26.7422 29.2244C26.2467 29.1237 24.6447 29.1081 24.3735 29.0669C23.5817 28.9466 22.9901 28.9657 22 28.3958C21.0099 27.8259 20.5627 27.9082 20.3498 28.1559C20.0663 28.4859 20.2139 28.8159 20.6799 29.2244C21.3864 29.8436 22.3876 30.0677 23 30.5C23.6124 30.9323 25.2506 31.03 26.2954 31.3902Z" fill="white"/>
<path fill-rule="evenodd" clip-rule="evenodd" d="M37.9114 18.2191C37.9282 18.2609 37.9451 18.3022 37.9617 18.344C37.9867 18.4025 37.9993 18.457 37.9993 18.5073C37.9993 18.5904 37.9493 18.7076 37.8487 18.8579L37.8114 18.9206H24.5073V19.1462H25.4844V19.998L25.622 20.1359C25.697 20.1944 25.7347 20.2943 25.7347 20.4362C25.7347 20.4865 25.7265 20.5196 25.7097 20.5365C25.6928 20.5365 25.6843 20.5492 25.6843 20.5742V20.6118C25.6843 20.7121 25.6636 20.7618 25.622 20.7618C25.597 20.7618 25.5594 20.7618 25.5094 20.7618C25.4509 20.7618 25.2546 20.7618 24.9205 20.7618C24.6034 20.7618 24.1022 20.7618 23.4172 20.7618C22.7323 20.7618 21.7555 20.7618 20.4859 20.7618C20.4441 20.7871 20.4233 20.8287 20.4233 20.8874C20.4398 20.8874 20.4609 20.8998 20.4859 20.9247L20.5736 21.0127L20.5109 21.2007H20.01L19.9474 21.138C19.9224 21.0965 19.8682 20.9708 19.7848 20.7621C19.7013 20.5703 19.6929 20.4115 19.7594 20.2862C19.7594 20.1859 19.8098 20.1363 19.9101 20.1363H19.9477C20.1568 20.1363 20.286 20.1655 20.3363 20.2239C20.4531 20.2239 20.5911 20.1905 20.7495 20.1239L18.3191 20.0983C18.3026 20.0983 18.1984 20.1278 18.0062 20.1862C17.8393 20.2278 17.6475 20.2827 17.4303 20.3489C17.2213 20.4076 17.0207 20.4622 16.8288 20.5115C16.6532 20.5534 16.5574 20.5868 16.5405 20.6121V21.4889L13.6722 21.7895V20.8877C13.5219 20.8877 13.4301 20.9082 13.3966 20.9501C13.3713 20.9916 13.3044 21.0462 13.1963 21.113C13.0957 21.213 12.9707 21.2799 12.8204 21.3133C12.6533 21.3717 12.4611 21.3886 12.2442 21.3633C12.0274 21.3468 11.7807 21.2549 11.5051 21.0877C11.4882 21.0877 11.4713 21.0958 11.4551 21.113C11.4301 21.113 11.3967 21.113 11.3548 21.113C11.3548 21.2211 11.3506 21.3506 11.3425 21.5013C11.3259 21.6681 11.2964 21.8353 11.2548 22.0022C11.2295 22.169 11.1795 22.3281 11.1045 22.4784C11.0545 22.6118 10.9961 22.6952 10.9292 22.7286C10.812 22.7958 10.6156 22.8166 10.34 22.7913C10.0644 22.7744 9.77229 22.7368 9.46325 22.6787C9.15454 22.6368 8.87018 22.5907 8.61146 22.5407C8.35306 22.4654 8.194 22.4115 8.13557 22.3781C8.07714 22.3365 7.95995 22.2112 7.78498 22.0018C7.65968 21.9018 7.53405 21.7889 7.40875 21.6636C7.28378 21.5552 7.20457 21.4967 7.17113 21.4883H5.52857C5.4617 21.9395 5.42015 22.2063 5.4036 22.2898C5.39516 22.3566 5.36983 22.3901 5.32828 22.3901C5.30361 22.4485 5.2533 22.478 5.17799 22.478C5.11112 22.478 4.96893 22.4485 4.75176 22.3901C4.58491 22.3901 4.41773 22.3901 4.25121 22.3901C4.07559 22.3816 3.96684 22.3816 3.92562 22.3901C3.8503 22.3901 3.76623 22.4024 3.67501 22.428C3.56626 22.4612 3.43707 22.4823 3.28645 22.4907C3.16926 22.5319 3.03617 22.5615 2.88522 22.578C2.71837 22.603 2.61838 22.6244 2.58495 22.6407H2.49698C2.47198 22.6407 2.45965 22.628 2.45965 22.603C2.44244 22.5702 2.43433 22.4991 2.43433 22.3904C2.43433 22.2985 2.43433 22.1401 2.43433 21.9145C2.43433 21.6808 2.43433 21.3591 2.43433 20.9497C2.47588 20.5654 2.49698 20.194 2.49698 19.8347C2.49698 19.4507 2.49698 19.1751 2.49698 19.0079C2.49698 18.9413 2.58073 18.8702 2.74758 18.7956C2.89788 18.7284 3.26924 18.7031 3.86264 18.72H4.18823L4.21323 18.695L4.25121 18.67C4.26776 18.67 4.28821 18.6573 4.31386 18.632C4.33853 18.6154 4.37196 18.5904 4.41384 18.557H7.39544C7.46231 18.5654 7.52886 18.6031 7.59573 18.67C7.74635 18.7699 7.859 18.8826 7.93398 19.0079H11.3162C11.3415 18.9413 11.3746 18.8368 11.4165 18.695C11.4583 18.5697 11.4791 18.4651 11.4791 18.382V18.307H11.5044C11.5963 18.2736 11.7593 18.2444 11.9927 18.2194C12.2179 18.2113 12.352 18.1856 12.3936 18.1441C12.4351 18.1441 12.4773 18.1356 12.5189 18.1191C12.527 18.0941 12.5523 18.073 12.5939 18.0564H13.6463V17.7429H13.258C13.2165 17.7429 13.1116 17.7597 12.9451 17.7932C12.7779 17.8182 12.5773 17.8428 12.3436 17.8682C12.1267 17.8928 11.8924 17.9143 11.6421 17.9308C11.4077 17.9308 11.2035 17.9185 11.0279 17.8928L11.0029 17.8305V17.7932C10.9779 17.5591 10.9653 17.3796 10.9653 17.2543C10.9653 17.1125 10.9653 16.9992 10.9653 16.9161C10.9653 16.8492 10.9779 16.8034 11.0029 16.7784L11.0279 16.7531H11.0902L11.3535 16.7281C11.5372 16.7197 11.7378 16.7073 11.955 16.6904C12.1887 16.6655 12.4228 16.6531 12.6565 16.6531C12.8734 16.6531 13.0405 16.6655 13.1571 16.6904C13.3074 16.6904 13.4703 16.6904 13.6459 16.6904C13.8381 16.6904 14.0381 16.6904 14.2471 16.6904C14.439 16.6904 14.6188 16.6862 14.7857 16.6778C14.9363 16.6612 15.0528 16.6531 15.1366 16.6531V16.4402C15.1197 16.4317 15.1116 16.411 15.1116 16.3775V16.1772L16.1513 16.1146H16.164L16.289 16.4652C16.289 16.482 16.2763 16.4944 16.2516 16.5028C16.2348 16.5363 16.2055 16.5528 16.1637 16.5528V16.6155H17.9802C18.1224 16.582 18.3224 16.5528 18.5817 16.5275C18.857 16.5025 19.1284 16.4733 19.3959 16.4398C19.6711 16.4148 19.926 16.3941 20.16 16.3772C20.3772 16.3688 20.5145 16.3856 20.5733 16.4275L20.6232 16.4648L20.6482 17.8928H20.5733C19.0534 17.8928 18.2393 17.8428 18.1305 17.7425V17.7928C18.0721 17.7591 17.9549 17.7386 17.7796 17.7302C17.604 17.7133 17.4037 17.7172 17.1784 17.7425V18.0308H37.8477V18.0808C37.8656 18.123 37.8864 18.1688 37.9114 18.2191ZM12.7818 20.2859H12.0803C11.8881 20.2859 11.7924 20.3735 11.7924 20.5492C11.7924 20.7582 11.8881 20.8624 12.0803 20.8624H12.7818C12.9737 20.8624 13.0701 20.7582 13.0701 20.5492C13.0704 20.3735 12.974 20.2859 12.7818 20.2859ZM8.68547 21.5013C8.80233 21.7438 8.98606 21.8772 9.23667 21.9022C9.4454 21.9606 9.69211 21.9275 9.97582 21.8019C10.118 21.7266 10.2722 21.5928 10.4394 21.4013C10.4975 21.2929 10.5394 21.1672 10.5647 21.0254C10.5897 20.8582 10.5731 20.7287 10.5144 20.6368C10.4728 20.4784 10.3183 20.3735 10.0511 20.3236C9.70866 20.2567 9.43306 20.2693 9.22466 20.3612C9.08248 20.4362 8.98249 20.4989 8.92374 20.5492C8.85687 20.5992 8.79422 20.6826 8.73579 20.7998C8.60204 21.0169 8.58516 21.2503 8.68547 21.5013Z" fill="white"/>
</svg>
