<svg width="40" height="40" viewBox="0 0 40 40" fill="none" xmlns="http://www.w3.org/2000/svg">
<path d="M25.0854 20.1512L21.3595 22.3023L21.3595 18L25.0854 20.1512Z" fill="white"/>
<rect x="17" y="19.3652" width="4.57831" height="1.5261" fill="white"/>
<path d="M32.7355 15.5212L32.5889 15.1622L32.54 14.9393L32.2101 14.5802C32.2101 14.5802 32.0126 14.2562 31.8328 14.2712L31.8344 14.2638C31.8344 14.2638 31.8711 14.2463 31.8845 14.2331C31.8961 14.221 31.9024 14.1968 31.9024 14.1968C31.9045 14.1645 31.8774 14.0769 31.8774 14.0769L31.847 13.9607L31.857 13.8024C31.857 13.8024 32.0203 13.7623 32.0427 13.7475C32.0668 13.7323 32.0584 13.7164 32.0584 13.7164C32.0584 13.7164 32.1185 13.7265 32.2091 13.6558C32.2983 13.585 32.292 13.2344 32.2769 13.0817C32.2633 12.9291 32.1387 12.6207 32.1387 12.6207C32.1387 12.6207 32.1741 12.5446 32.1574 12.502C32.1387 12.459 32.1032 12.4403 32.0833 12.4292C32.0662 12.4165 31.9279 12.3457 31.9059 12.34C31.8855 12.3342 31.858 12.3285 31.858 12.3285C31.858 12.3285 31.5687 12.1113 31.4337 12.0686C31.2978 12.0262 31.2785 12.0034 31.0052 12.0001C30.7315 11.996 30.2933 12.1389 30.0312 12.5429C29.7695 12.948 29.7695 13.4656 29.7946 13.5669C29.8196 13.6673 29.9025 13.9307 29.9025 13.9307L29.785 14.0522C29.785 14.0522 29.3354 14.1139 29.2892 14.0853C29.2429 14.058 29.2138 14.1577 28.9102 14.3454C28.6058 14.5313 28.5068 14.8035 28.1374 15.2911C28.0091 15.917 28.0832 16.2612 28.0916 16.3541C28.1016 16.4475 28.1286 16.4952 28.1286 16.4952L28.1107 16.6252C28.1107 16.6252 27.9354 16.6811 27.8615 16.6901C27.7873 16.7002 27.737 16.7076 27.6633 16.7345C27.5892 16.7631 27.6077 16.7973 27.59 16.8337C27.5713 16.8721 27.4725 17.4215 27.4434 17.5145C27.4173 17.6074 27.3852 18.1768 27.3945 18.3067C27.4041 18.4367 27.4615 18.4431 27.5536 18.4801C27.6464 18.5177 27.7002 18.5048 27.7002 18.5048C27.7002 18.5048 27.7859 18.5817 27.7134 18.6102C27.6393 18.6388 27.511 18.7322 27.4829 18.778C27.4562 18.8239 27.4829 19.3939 27.4829 19.3939C27.4829 19.3939 27.547 19.6916 27.547 19.7292C27.547 19.7669 27.547 19.7669 27.547 19.7669L27.5908 20.4002L27.5967 20.4732C27.5967 20.4732 27.6678 20.6401 27.6385 20.6453C27.6114 20.6515 27.5544 20.5887 27.5285 20.6206C27.5018 20.6523 27.4208 20.8053 27.4308 20.8312C27.4416 20.856 27.4263 20.973 27.4263 20.973C27.4263 20.973 27.4257 21.1805 27.4308 21.2027C27.4379 21.2249 27.3546 21.2677 27.386 21.3053C27.4177 21.3438 27.3222 21.4199 27.3703 21.5033C27.4177 21.5868 27.4815 21.631 27.4815 21.631L27.2835 23.2098L27.174 23.5668L27.0371 23.964C27.0371 23.964 26.9093 23.9714 26.8333 24.0792C26.758 24.1877 26.3898 25.1416 26.3792 25.3452C26.3706 25.5492 26.281 25.6567 26.2774 25.7176C26.2741 25.7776 26.336 25.8085 26.3397 25.8103L25.9524 26.7679C25.9524 26.7679 25.8007 26.8275 25.7343 26.9394C25.6685 27.0521 25.5483 27.2336 25.5483 27.2336C25.5483 27.2336 25.4056 27.5953 25.4113 27.6369C25.417 27.6772 25.4048 27.6985 25.561 27.775C25.718 27.8517 25.9357 27.9013 25.9646 27.9338C25.9923 27.9669 26.2869 28.2237 26.2965 28.2412C26.3083 28.2591 26.7309 28.5798 26.8928 28.5558C27.1495 28.5683 27.6753 28.5599 27.7002 28.5352C27.7287 28.5108 27.7271 28.3282 27.7271 28.3282C27.7271 28.3282 27.7118 28.1182 27.6261 28.0853C27.5389 28.0516 27.23 28.0031 27.1899 27.9461C27.1487 27.8879 26.976 27.18 26.9726 27.1337C26.9701 27.0893 27.0628 26.7749 27.1422 26.6497C27.2194 26.5238 27.388 26.1843 27.388 26.1843C27.388 26.1843 27.5065 26.1296 27.5222 26.1116C27.5365 26.0926 27.7038 25.8467 27.7248 25.7758C27.7466 25.7036 27.8246 25.3884 27.8246 25.3884C27.8246 25.3884 28.1331 24.9539 28.1677 24.8957C28.2017 24.8363 28.6837 24.0068 28.7379 23.883C28.7923 23.758 28.7495 23.6231 28.7495 23.6231C28.8884 23.5762 28.9216 23.334 28.8585 23.3173C28.8422 23.2849 29.036 22.9008 29.0591 22.8327C29.0798 22.7644 29.2655 22.3053 29.2655 22.3053C29.2655 22.3053 29.468 22.1171 29.5301 21.9921C29.5905 21.8681 29.6924 21.9206 29.6924 21.9206C29.6924 21.9206 29.7956 22.112 29.9076 22.1515C30.0192 22.1912 30.1691 22.3908 30.1691 22.3908L30.8492 23.4074C30.8492 23.4074 31.0433 23.6809 31.1103 23.6747C31.175 23.6688 31.3156 23.8248 31.3156 23.8248L31.4779 23.9967L31.5282 24.4059C31.5282 24.4059 31.4221 24.4785 31.4113 24.6105C31.4015 24.7427 31.5685 25.7534 31.6623 25.9333C31.7583 26.1128 31.7355 26.2516 31.7634 26.3059C31.791 26.3591 31.8599 26.3534 31.864 26.353L32.0161 27.3757C32.0161 27.3757 31.9161 27.5057 31.9155 27.6362C31.9161 27.7672 31.8672 27.971 31.8672 27.971C31.8672 27.971 31.8426 28.3434 31.8686 28.3761C31.8939 28.4077 32.0175 28.4596 32.1902 28.4439C32.3637 28.4281 32.5757 28.3574 32.6172 28.3705C32.6577 28.3843 33.0406 28.452 33.0579 28.462C33.077 28.4715 33.6777 28.4688 33.8392 28.4425C33.9999 28.4162 34.344 28.3615 34.3687 28.3366C34.397 28.3117 34.3811 28.0853 34.3811 28.0853C34.3811 28.0853 34.3587 27.9675 34.2728 27.9362C34.1852 27.904 34.0535 27.8188 33.9563 27.8106C33.8598 27.8024 33.7388 27.7732 33.6755 27.745C33.6108 27.7164 33.1041 27.1981 33.0776 27.1604C33.0528 27.1234 32.9736 26.8057 32.978 26.6567C32.9805 26.5084 32.9534 26.1296 32.9534 26.1296C32.9534 26.1296 33.0275 26.0211 33.0318 25.9974C33.0345 25.9738 33.0534 25.6758 33.0357 25.6041C33.0176 25.5309 32.9253 25.2196 32.9253 25.2196C32.9253 25.2196 32.9703 24.6864 32.9705 24.6183C32.9697 24.5494 32.9636 23.5871 32.9475 23.4529C32.9308 23.3171 32.8257 23.2238 32.8257 23.2238C32.8257 23.2238 32.7938 22.9254 32.7644 22.9049C32.7339 22.8853 32.6704 22.9244 32.6471 22.9102C32.6223 22.8954 32.648 22.2031 32.3175 21.5107C31.9867 20.8188 31.4952 20.3362 31.4952 20.3362L31.3919 19.86L31.4927 19.6616C31.4927 19.6616 31.7397 19.7757 31.8175 19.7693C31.8963 19.7636 32.1309 19.2874 32.1152 19.208C32.0969 19.1282 32.2256 17.92 32.1794 17.8285C32.1356 17.7382 32.1356 17.6415 32.046 17.5729C31.9564 17.5054 31.7941 17.4489 31.7941 17.4489C31.7941 17.4489 31.8758 17.2484 31.8916 17.2079C31.9057 17.1674 31.888 17.05 31.888 17.05C31.888 17.05 32.2608 17.2655 32.4512 17.3662C32.6425 17.4666 33.4301 17.8511 33.5543 17.8628C33.6763 17.8755 33.7478 17.8628 33.7478 17.8628C33.7478 17.8628 33.8003 17.9352 33.862 17.9376C34.107 17.9461 34.3007 17.7322 34.3107 17.7185C34.3227 17.7041 34.5206 17.6249 34.5206 17.6249C34.5206 17.6249 34.7808 17.3368 35.1439 17.0679C35.6551 16.6897 36.1749 16.0175 36.3835 15.8746C36.4165 15.865 36.4816 15.8584 36.4816 15.8584C36.4816 15.8584 36.8836 15.9388 36.9583 15.7981C37.0567 15.6133 37.12 15.4179 37.1371 15.2866C37.1394 15.2699 37.1935 15.1899 37.1935 15.1899C37.2426 15.2086 37.5532 15.2082 37.4797 14.9479C37.4941 14.9409 37.5452 14.9306 37.5452 14.9306L38.2007 14.9267C38.2007 14.9267 38.2258 14.9187 38.2276 14.9051C38.2364 14.8422 38.2329 14.6699 38.2278 14.5992C38.2272 14.5905 38.205 14.5825 38.2007 14.5825C37.8277 14.5823 36.739 14.5741 36.5635 14.5794C36.4165 14.5837 36.4262 14.8665 36.4262 14.8665L36.4114 14.9417C36.4114 14.9417 36.3079 14.9915 36.2623 15.0546C36.2026 15.1525 36.1365 15.2666 35.9866 15.3554C35.8003 15.4375 34.5202 16.1121 34.3734 16.1886C34.1991 16.2795 33.9213 16.362 33.9213 16.362L33.5545 16.0155L32.7355 15.5212Z" fill="white"/>
<path d="M36.0238 28.9822C36.332 28.7393 36.375 28.5716 36.375 28.5C36.375 28.4284 36.332 28.2607 36.0238 28.0178C35.7225 27.7804 35.2479 27.5392 34.6057 27.3252C34.2962 27.222 33.9559 27.1278 33.589 27.0442L33.5 26.3849C35.6032 26.8277 37 27.6095 37 28.5C37 29.8807 33.6421 31 29.5 31C25.3579 31 22 29.8807 22 28.5C22 27.6095 23.3968 26.8277 25.5 26.3849L25.0431 27.1339C24.8143 27.1935 24.5977 27.2574 24.3943 27.3252C23.7521 27.5392 23.2775 27.7804 22.9762 28.0178C22.668 28.2607 22.625 28.4284 22.625 28.5C22.625 28.5716 22.668 28.7393 22.9762 28.9822C23.2775 29.2196 23.7521 29.4608 24.3943 29.6748C25.6722 30.1008 27.4774 30.375 29.5 30.375C31.5226 30.375 33.3278 30.1008 34.6057 29.6748C35.2479 29.4608 35.7225 29.2196 36.0238 28.9822Z" fill="white"/>
<path d="M29.5 26C29.0111 26 28.5331 26.0156 28.0702 26.0454L27.6893 26.7005C28.2657 26.6514 28.8724 26.625 29.5 26.625C30.165 26.625 30.8065 26.6546 31.4135 26.7096L31.2101 26.0653C30.6608 26.0226 30.0883 26 29.5 26Z" fill="white"/>
<path d="M12.3244 15.5212L12.1778 15.1622L12.1289 14.9393L11.799 14.5802C11.799 14.5802 11.6015 14.2562 11.4217 14.2712L11.4233 14.2638C11.4233 14.2638 11.4599 14.2463 11.4734 14.2331C11.485 14.221 11.4913 14.1968 11.4913 14.1968C11.4933 14.1645 11.4663 14.0769 11.4663 14.0769L11.4359 13.9607L11.4459 13.8024C11.4459 13.8024 11.6092 13.7623 11.6316 13.7475C11.6556 13.7323 11.6473 13.7164 11.6473 13.7164C11.6473 13.7164 11.7074 13.7265 11.798 13.6558C11.8872 13.585 11.8809 13.2344 11.8658 13.0817C11.8521 12.9291 11.7275 12.6207 11.7275 12.6207C11.7275 12.6207 11.763 12.5446 11.7463 12.502C11.7275 12.459 11.6921 12.4403 11.6721 12.4292C11.655 12.4165 11.5168 12.3457 11.4948 12.34C11.4744 12.3342 11.4469 12.3285 11.4469 12.3285C11.4469 12.3285 11.1575 12.1113 11.0225 12.0686C10.8867 12.0262 10.8674 12.0034 10.5941 12.0001C10.3204 11.996 9.88216 12.1389 9.62008 12.5429C9.35841 12.948 9.35841 13.4656 9.38346 13.5669C9.4085 13.6673 9.49138 13.9307 9.49138 13.9307L9.37389 14.0522C9.37389 14.0522 8.92425 14.1139 8.87803 14.0853C8.8318 14.058 8.80268 14.1577 8.49906 14.3454C8.19462 14.5313 8.09565 14.8035 7.72626 15.2911C7.59797 15.917 7.67209 16.2612 7.68044 16.3541C7.69042 16.4475 7.7175 16.4952 7.7175 16.4952L7.69958 16.6252C7.69958 16.6252 7.52425 16.6811 7.45033 16.6901C7.3762 16.7002 7.32591 16.7076 7.25219 16.7345C7.17807 16.7631 7.1966 16.7973 7.17888 16.8337C7.16015 16.8721 7.06138 17.4215 7.03226 17.5145C7.0062 17.6074 6.97402 18.1768 6.98339 18.3067C6.99296 18.4367 7.05039 18.4431 7.14243 18.4801C7.23529 18.5177 7.28905 18.5048 7.28905 18.5048C7.28905 18.5048 7.37478 18.5817 7.30228 18.6102C7.22816 18.6388 7.09987 18.7322 7.07177 18.778C7.04509 18.8239 7.07177 19.3939 7.07177 19.3939C7.07177 19.3939 7.13591 19.6916 7.13591 19.7292C7.13591 19.7669 7.13591 19.7669 7.13591 19.7669L7.1797 20.4002L7.1856 20.4732C7.1856 20.4732 7.25667 20.6401 7.22735 20.6453C7.20026 20.6515 7.14324 20.5887 7.11738 20.6206C7.09071 20.6523 7.00966 20.8053 7.01964 20.8312C7.03043 20.856 7.01516 20.973 7.01516 20.973C7.01516 20.973 7.01455 21.1805 7.01964 21.2027C7.02676 21.2249 6.94348 21.2677 6.97484 21.3053C7.0066 21.3438 6.9111 21.4199 6.95916 21.5033C7.0066 21.5868 7.07034 21.631 7.07034 21.631L6.87241 23.2098L6.76285 23.5668L6.62601 23.964C6.62601 23.964 6.49812 23.9714 6.42216 24.0792C6.34682 24.1877 5.97864 25.1416 5.96805 25.3452C5.9595 25.5492 5.8699 25.6567 5.86624 25.7176C5.86298 25.7776 5.92488 25.8085 5.92855 25.8103L5.54123 26.7679C5.54123 26.7679 5.38952 26.8275 5.32313 26.9394C5.25736 27.0521 5.13721 27.2336 5.13721 27.2336C5.13721 27.2336 4.99446 27.5953 5.00017 27.6369C5.00587 27.6772 4.99365 27.6985 5.14984 27.775C5.30684 27.8517 5.52453 27.9013 5.55345 27.9338C5.58114 27.9669 5.87581 28.2237 5.88538 28.2412C5.89719 28.2591 6.31974 28.5798 6.48163 28.5558C6.73841 28.5683 7.2642 28.5599 7.28905 28.5352C7.31756 28.5108 7.31593 28.3282 7.31593 28.3282C7.31593 28.3282 7.30066 28.1182 7.21492 28.0853C7.12777 28.0516 6.81885 28.0031 6.77873 27.9461C6.7376 27.8879 6.56491 27.18 6.56145 27.1337C6.55901 27.0893 6.65166 26.7749 6.73108 26.6497C6.80826 26.5238 6.97687 26.1843 6.97687 26.1843C6.97687 26.1843 7.09539 26.1296 7.11107 26.1116C7.12532 26.0926 7.29271 25.8467 7.31369 25.7758C7.33548 25.7036 7.41347 25.3884 7.41347 25.3884C7.41347 25.3884 7.72198 24.9539 7.7566 24.8957C7.79061 24.8363 8.27262 24.0068 8.32678 23.883C8.38115 23.758 8.33839 23.6231 8.33839 23.6231C8.47727 23.5762 8.51046 23.334 8.44734 23.3173C8.43105 23.2849 8.62491 22.9008 8.64792 22.8327C8.66869 22.7644 8.85441 22.3053 8.85441 22.3053C8.85441 22.3053 9.05682 22.1171 9.11893 21.9921C9.17941 21.8681 9.28123 21.9206 9.28123 21.9206C9.28123 21.9206 9.38447 22.112 9.49648 22.1515C9.60807 22.1912 9.75795 22.3908 9.75795 22.3908L10.4381 23.4074C10.4381 23.4074 10.6322 23.6809 10.6992 23.6747C10.7639 23.6688 10.9044 23.8248 10.9044 23.8248L11.0667 23.9967L11.117 24.4059C11.117 24.4059 11.0109 24.4785 11.0001 24.6105C10.9904 24.7427 11.1573 25.7534 11.2512 25.9333C11.3471 26.1128 11.3243 26.2516 11.3522 26.3059C11.3799 26.3591 11.4487 26.3534 11.4528 26.353L11.6049 27.3757C11.6049 27.3757 11.5049 27.5057 11.5043 27.6362C11.5049 27.7672 11.4561 27.971 11.4561 27.971C11.4561 27.971 11.4314 28.3434 11.4575 28.3761C11.4828 28.4077 11.6064 28.4596 11.779 28.4439C11.9525 28.4281 12.1645 28.3574 12.2061 28.3705C12.2466 28.3843 12.6294 28.452 12.6467 28.462C12.6659 28.4715 13.2666 28.4688 13.4281 28.4425C13.5888 28.4162 13.9329 28.3615 13.9576 28.3366C13.9859 28.3117 13.97 28.0853 13.97 28.0853C13.97 28.0853 13.9476 27.9675 13.8616 27.9362C13.7741 27.904 13.6423 27.8188 13.5452 27.8106C13.4487 27.8024 13.3277 27.7732 13.2644 27.745C13.1996 27.7164 12.693 27.1981 12.6665 27.1604C12.6417 27.1234 12.5624 26.8057 12.5669 26.6567C12.5694 26.5084 12.5423 26.1296 12.5423 26.1296C12.5423 26.1296 12.6164 26.0211 12.6207 25.9974C12.6233 25.9738 12.6423 25.6758 12.6245 25.6041C12.6064 25.5309 12.5142 25.2196 12.5142 25.2196C12.5142 25.2196 12.5592 24.6864 12.5594 24.6183C12.5586 24.5494 12.5525 23.5871 12.5364 23.4529C12.5197 23.3171 12.4146 23.2238 12.4146 23.2238C12.4146 23.2238 12.3826 22.9254 12.3533 22.9049C12.3228 22.8853 12.2592 22.9244 12.236 22.9102C12.2112 22.8954 12.2368 22.2031 11.9063 21.5107C11.5756 20.8188 11.084 20.3362 11.084 20.3362L10.9808 19.86L11.0816 19.6616C11.0816 19.6616 11.3286 19.7757 11.4064 19.7693C11.4852 19.7636 11.7198 19.2874 11.7041 19.208C11.6858 19.1282 11.8145 17.92 11.7683 17.8285C11.7245 17.7382 11.7245 17.6415 11.6349 17.5729C11.5453 17.5054 11.383 17.4489 11.383 17.4489C11.383 17.4489 11.4646 17.2484 11.4805 17.2079C11.4946 17.1674 11.4768 17.05 11.4768 17.05C11.4768 17.05 11.8497 17.2655 12.0401 17.3662C12.2313 17.4666 13.019 17.8511 13.1432 17.8628C13.2652 17.8755 13.3367 17.8628 13.3367 17.8628C13.3367 17.8628 13.3892 17.9352 13.4509 17.9376C13.6959 17.9461 13.8895 17.7322 13.8995 17.7185C13.9115 17.7041 14.1095 17.6249 14.1095 17.6249C14.1095 17.6249 14.3697 17.3368 14.7328 17.0679C15.2439 16.6897 15.7638 16.0175 15.9723 15.8746C16.0053 15.865 16.0705 15.8584 16.0705 15.8584C16.0705 15.8584 16.4725 15.9388 16.5472 15.7981C16.6456 15.6133 16.7089 15.4179 16.726 15.2866C16.7282 15.2699 16.7824 15.1899 16.7824 15.1899C16.8315 15.2086 17.142 15.2082 17.0685 14.9479C17.083 14.9409 17.1341 14.9306 17.1341 14.9306L17.7896 14.9267C17.7896 14.9267 17.8146 14.9187 17.8165 14.9051C17.8252 14.8422 17.8218 14.6699 17.8167 14.5992C17.8161 14.5905 17.7939 14.5825 17.7896 14.5825C17.4165 14.5823 16.3279 14.5741 16.1524 14.5794C16.0053 14.5837 16.0151 14.8665 16.0151 14.8665L16.0002 14.9417C16.0002 14.9417 15.8968 14.9915 15.8512 15.0546C15.7915 15.1525 15.7253 15.2666 15.5755 15.3554C15.3891 15.4375 14.1091 16.1121 13.9622 16.1886C13.7879 16.2795 13.5102 16.362 13.5102 16.362L13.1434 16.0155L12.3244 15.5212Z" fill="white" fill-opacity="0.5"/>
</svg>
