<svg width="40" height="40" viewBox="0 0 40 40" fill="none" xmlns="http://www.w3.org/2000/svg">
<path fill-rule="evenodd" clip-rule="evenodd" d="M13.7218 32.1776C15.7139 33.3364 18.0294 34 20.5 34C27.9558 34 34 27.9558 34 20.5C34 18.0294 33.3364 15.7139 32.1776 13.7218L24.5888 21.3107C24.7615 21.6607 24.8478 22.0692 24.8478 22.5359V26.4724C24.8478 27.2178 24.604 27.8483 24.1176 28.3638C23.6307 28.88 23.0418 29.1391 22.3511 29.1391H21.2677V31.7803H19.2898V29.1391H18.4189C17.9448 29.1391 17.5192 29.0121 17.142 28.7574L13.7218 32.1776ZM19.274 26.6254H21.5509C21.9755 26.6254 22.1869 26.4051 22.1869 25.9651V23.7126L19.274 26.6254ZM18.6527 17.3473L21.2602 14.7398H19.3357C18.8806 14.7398 18.6527 14.9601 18.6527 15.4001V17.3473ZM23.4309 12.5691C23.0613 12.3399 22.6462 12.2255 22.1857 12.2255H21.2671V9.58426H19.2886V12.2255H18.4413C17.7659 12.2255 17.1894 12.4839 16.7101 13.0001C16.2308 13.5163 15.9917 14.1468 15.9917 14.8915V18.5747C15.9917 19.0013 16.0821 19.3885 16.2635 19.7364L8.78554 27.2144C7.64959 25.2368 7 22.9443 7 20.5C7 13.0442 13.0442 7 20.5 7C22.9443 7 25.2368 7.64959 27.2144 8.78554L23.4309 12.5691Z" fill="white"/>
<g opacity="0.5">
<path fill-rule="evenodd" clip-rule="evenodd" d="M36.6875 20.5C36.6875 29.4401 29.4401 36.6875 20.5 36.6875C16.3523 36.6875 12.5689 35.1275 9.70456 32.5623L32.5623 9.70456C35.1275 12.5689 36.6875 16.3523 36.6875 20.5ZM8.09721 30.9028L30.9028 8.09721C28.0895 5.73509 24.4609 4.3125 20.5 4.3125C11.5599 4.3125 4.3125 11.5599 4.3125 20.5C4.3125 24.4609 5.73509 28.0895 8.09721 30.9028ZM39 20.5C39 30.7173 30.7173 39 20.5 39C10.2827 39 2 30.7173 2 20.5C2 10.2827 10.2827 2 20.5 2C30.7173 2 39 10.2827 39 20.5Z" fill="white"/>
</g>
</svg>
