<svg width="40" height="40" viewBox="0 0 40 40" fill="none" xmlns="http://www.w3.org/2000/svg">
<path d="M27.4344 32.9226C27.9247 32.5241 28.0085 32.2376 28.0085 32.0924C28.0085 31.9472 27.9247 31.6607 27.4344 31.2622C26.9522 30.8703 26.1935 30.4729 25.1674 30.1202C24.7701 29.9836 24.3408 29.8565 23.8833 29.7403L24.9359 28.9949C27.4331 29.7511 29.0085 30.8585 29.0085 32.0924C29.0085 34.3714 23.634 36.2188 17.0042 36.2188C10.3745 36.2188 5 34.3714 5 32.0924C5 30.451 7.78776 29.0335 11.8244 28.3688L10.9625 29.5467C10.1845 29.71 9.47244 29.9032 8.84104 30.1202C7.815 30.4729 7.05631 30.8703 6.57405 31.2622C6.08374 31.6607 6 31.9472 6 32.0924C6 32.2376 6.08374 32.5241 6.57405 32.9226C7.05631 33.3145 7.815 33.7118 8.84104 34.0645C10.8834 34.7666 13.7696 35.2188 17.0042 35.2188C20.2389 35.2188 23.125 34.7666 25.1674 34.0645C26.1935 33.7118 26.9522 33.3145 27.4344 32.9226Z" fill="white"/>
<path d="M17.0042 28.9659L16.914 28.966L17.9299 27.978C18.5154 27.9934 19.0891 28.0231 19.6481 28.0663C19.7661 28.0755 19.8834 28.0852 20 28.0955L18.8126 29.0138C18.2248 28.9824 17.6208 28.9659 17.0042 28.9659Z" fill="white"/>
<path d="M35.1174 13.6966C35.1174 13.6966 35.1455 13.5716 35.1352 13.4589C35.1251 13.348 35.0743 13.2617 35.0743 13.2617C35.0743 13.2617 35.1168 13.1121 35.1052 13.0417C35.0799 12.8928 34.995 12.8515 34.995 12.8515C34.995 12.8515 35.0028 12.5811 34.6116 12.5997C34.5605 12.6021 34.4858 12.6221 34.4858 12.6221C34.4858 12.6221 34.2996 12.4563 34.2304 12.4722C33.9991 12.5249 34.0328 12.6064 33.8854 12.662C33.4806 12.8145 33.8329 12.9326 33.2674 13.2016C32.9217 13.3658 31.6311 13.4128 31.2054 13.4486C30.8347 13.4797 30.1699 13.6098 30.1699 13.6098L29.9865 13.4259L29.1972 11.7834L29.0706 11.0735L28.7982 10.3727L28.5418 9.56647C28.5418 9.56647 28.2731 8.922 27.9311 8.88934L27.6704 8.65528C27.6704 8.65528 27.8817 8.51966 27.9067 8.49474C27.9277 8.47212 28.0134 8.34282 28.0134 8.34282C28.015 8.28407 28.1231 8.04958 28.1231 8.04958L28.1372 7.82101L28.19 7.61288C28.19 7.61288 28.3728 7.47094 28.4144 7.44302C28.4588 7.41391 28.442 7.38546 28.442 7.38546C28.442 7.38546 28.5569 7.4006 28.7246 7.26706C28.8891 7.13382 28.8522 6.49791 28.8126 6.22167C28.7761 5.94555 28.5171 5.39198 28.5171 5.39198C28.5171 5.39198 28.5793 5.25217 28.5443 5.1755C28.5054 5.09899 28.4369 5.06612 28.3983 5.047C28.3646 5.02493 28.0967 4.90384 28.0547 4.89431C28.0157 4.8849 27.9627 4.87598 27.9627 4.87598C27.9627 4.87598 27.3968 4.49725 27.1366 4.42677C26.8757 4.35746 26.8374 4.31715 26.3173 4.32575C25.7962 4.33247 24.9734 4.61562 24.5032 5.36264C24.0344 6.11161 24.0712 7.05115 24.1259 7.23407C24.1805 7.41485 24.2304 7.72688 24.2304 7.72688L24.1587 7.82127C24.1864 7.79303 23.4043 7.67221 23.2173 7.71657C23.0214 7.78187 23.053 7.82098 22.4244 8.05594C21.9195 8.24133 21.6404 8.57312 21.1151 9.08196C20.2479 9.59765 19.3916 10.3641 19.053 10.6591C18.698 10.9682 17.746 12.1383 17.7187 12.3407C17.6913 12.5431 17.7561 12.6735 17.9123 12.9651C18.051 13.224 18.1015 13.4334 18.4241 13.7849C18.3333 14.0272 18.3555 14.4125 18.3337 14.6329C18.3105 14.8683 18.4166 14.8985 18.577 14.9951C18.7393 15.0929 18.8442 15.0876 18.8442 15.0876C18.8442 15.0876 18.981 15.2536 18.836 15.2807C18.688 15.3073 18.4179 15.4317 18.3505 15.5043C18.2861 15.5775 18.1567 16.6046 18.1567 16.6046C18.1567 16.6046 18.1833 17.158 18.1714 17.2251C18.1596 17.2922 18.1596 17.2922 18.1596 17.2922L18.0425 18.4383L18.031 18.5726C18.031 18.5726 18.112 18.8943 18.0552 18.8941C18.0024 18.8963 17.9154 18.7654 17.8566 18.8137C17.7967 18.8613 17.5964 19.108 17.6069 19.1574C17.6194 19.2055 17.5538 19.4092 17.5538 19.4092C17.5538 19.4092 17.4872 19.7797 17.49 19.821C17.4966 19.8629 17.3267 19.912 17.3738 19.9895C17.4214 20.0688 17.2182 20.1732 17.2822 20.3382C17.3449 20.503 17.4505 20.6031 17.4505 20.6031L16.204 24.0971L15.8451 24.6765L15.417 25.3133C15.417 25.3133 15.1772 25.2685 14.9891 25.4235C14.8019 25.5808 13.7034 27.0941 13.5948 27.4478C13.4898 27.8031 13.2767 27.9515 13.2436 28.0574C13.2117 28.1618 13.3126 28.2437 13.3187 28.2486L12.1839 29.7598C12.1839 29.7598 11.8773 29.7962 11.7051 29.963C11.5343 30.1316 11.2323 30.3974 11.2323 30.3974C11.2323 30.3974 10.8103 30.9698 10.8026 31.0458C10.7958 31.1193 10.7634 31.1518 11.0195 31.3571C11.2764 31.5629 11.658 31.7482 11.697 31.8192C11.7339 31.8898 12.1669 32.4753 12.1768 32.5106C12.1904 32.5474 12.8394 33.2453 13.1423 33.3343C13.1991 33.351 13.3337 33.3771 13.3337 33.3771L14.6784 33.4067C14.9053 33.4174 14.7655 33.0256 14.7052 32.8376C14.5913 32.4825 14.0081 32.5139 13.9591 32.3952C13.9084 32.2742 13.8984 30.9495 13.9122 30.8665C13.9271 30.7868 14.236 30.2755 14.4377 30.0906C14.6358 29.9038 15.0955 29.3826 15.0955 29.3826C15.0955 29.3826 15.3389 29.3401 15.3757 29.3147C15.4101 29.2881 15.8275 28.9301 15.897 28.8154C15.9684 28.698 16.2513 28.1783 16.2513 28.1783C16.2513 28.1783 17.0125 27.5527 17.1016 27.466C17.1908 27.3764 17.9445 26.7218 18.0991 26.5286C18.208 26.4386 18.6096 26.4206 18.8705 25.8253C19.2547 25.4152 20.2613 23.6669 20.3259 23.553C20.3863 23.4384 20.8538 22.6671 20.8538 22.6671C20.8538 22.6671 21.18 22.1746 21.3359 21.9714C21.4885 21.7698 21.5065 21.8516 21.5065 21.8516C21.5065 21.8516 21.6196 21.6919 22.0557 21.9305C22.2525 22.0383 22.8262 22.5508 22.8262 22.5508L24.2362 23.5705L24.7786 24.0971C24.7786 24.0971 23.8528 24.5831 23.6581 24.7289C23.4642 24.8769 22.2955 26.3375 22.1698 26.6866C22.0477 27.0371 21.8281 27.1751 21.7896 27.2796C21.7527 27.3826 21.8492 27.4697 21.8548 27.475L20.6502 28.931C20.6502 28.931 20.3429 28.952 20.1634 29.1102C19.9848 29.2707 19.6423 29.4516 19.6423 29.4516C19.6423 29.4516 19.1004 29.8717 19.0893 29.947C19.0786 30.0203 19.1668 30.2533 19.4119 30.4719C19.6577 30.691 20.0283 30.8961 20.0635 30.9693C20.097 31.0419 20.4988 31.6504 20.5069 31.6862C20.5186 31.724 21.2982 32.5463 21.5431 32.736C21.7864 32.9246 22.3059 33.3312 22.3718 33.3343C22.4423 33.3429 22.7321 33.0449 22.7321 33.0449C22.7321 33.0449 22.8646 32.8703 22.7965 32.7139C22.7277 32.554 22.6743 32.2694 22.5602 32.1261C22.4468 31.9834 22.3307 31.7816 22.2875 31.6602C22.2429 31.5364 22.2985 30.2088 22.3166 30.1262C22.3353 30.0471 22.6683 29.5507 22.8779 29.3752C23.0843 29.198 23.568 28.6992 23.568 28.6992C23.568 28.6992 23.8124 28.6688 23.8505 28.6458C23.8864 28.6207 24.3193 28.2837 24.3945 28.1717C24.4714 28.0578 24.7786 27.5514 24.7786 27.5514C24.7786 27.5514 25.5673 26.9632 25.6605 26.8807C25.7537 26.7956 27.0642 25.6139 27.2275 25.4282C27.3918 25.2397 27.6406 25.0326 27.6406 25.0326L28 24.5C27.9871 24.4344 28.5 23.5 28 23C27.6406 22.4219 27.6406 22.152 26.9464 21.1466C26.5 20.5 25.3198 19.6316 25.3198 19.6316L25.3433 18.732L25.5948 18.4106C25.5948 18.4106 26.0224 18.6962 26.1702 18.7103C26.3199 18.7261 26.9101 17.9527 26.9054 17.8057C26.8962 17.6572 27.5185 15.5409 27.46 15.362C27.4063 15.1861 27.4367 15.0135 27.2901 14.8611C27.1431 14.7108 26.8567 14.5562 26.8567 14.5562C26.8567 14.5562 27.0732 14.2249 27.1155 14.158C27.1546 14.0902 27.1585 13.8747 27.1585 13.8747C27.1585 13.8747 27.5111 14.4944 27.8362 14.7373C28.0723 15.1208 28.5633 15.7756 28.7838 15.8632C28.9998 15.9514 29.1371 15.968 29.1371 15.968C29.1371 15.968 29.1952 16.1222 29.306 16.16C29.7489 16.3072 30.2153 16.0407 30.2404 16.0222C30.2698 16.004 30.7443 15.8205 30.7443 15.8205C31.3138 15.5216 31.7598 15.3411 32.4003 15.0284C32.9806 14.745 33.2749 14.5301 33.4797 14.4146C33.6864 14.2977 33.8007 14.2809 33.8295 14.2664C34.1084 14.1465 34.2482 14.375 34.8402 14.1765C34.9934 14.1253 35.1302 14.008 35.1509 13.8758C35.1677 13.773 35.1174 13.6966 35.1174 13.6966Z" fill="white"/>
<path fill-rule="evenodd" clip-rule="evenodd" d="M32.8144 9.7136L32.9765 9.76959C33.097 9.81633 33.1885 9.86267 33.251 9.90903C33.3587 9.99225 33.4579 10.1091 33.5486 10.2595C33.6291 10.3939 33.704 10.5576 33.7735 10.7508L34.0928 11.6385C34.0962 11.6479 34.0978 11.6543 34.0974 11.6575C34.0961 11.658 34.0864 11.6652 34.0686 11.6793C34.0455 11.6997 34.0316 11.7123 34.0271 11.7171C34.005 11.7403 33.9899 11.7679 33.9815 11.7998C33.9723 11.8337 33.9744 11.8717 33.9883 11.9141C34.0025 11.958 34.0254 11.9939 34.0568 12.0222C34.1 12.0617 34.1512 12.0867 34.2098 12.0976C34.2395 12.1037 34.2645 12.1054 34.285 12.1027C34.328 12.0948 34.3503 12.0785 34.3519 12.0533C34.3498 12.0389 34.3491 12.0285 34.3498 12.022C34.3487 12.0103 34.3499 12.0013 34.354 11.9955C34.3699 11.976 34.3863 11.9686 34.4031 11.9733C34.4202 11.9777 34.4318 11.9934 34.4384 12.0201C34.4454 12.0527 34.4427 12.0872 34.4298 12.1237C34.4141 12.1692 34.3847 12.1996 34.3414 12.2152L34.1934 12.2684C34.1772 12.2742 34.1663 12.2796 34.1605 12.2847C34.1525 12.2922 34.1504 12.3012 34.1543 12.3121C34.1572 12.3203 34.2017 12.4035 34.2877 12.5617C34.3866 12.7565 34.4692 12.9459 34.5353 13.1295C34.5999 13.3092 34.6605 13.5071 34.7169 13.7233C34.7449 13.8307 34.7715 13.934 34.7964 14.0334C34.8071 14.0631 34.8308 14.0845 34.8674 14.0971C34.888 14.1035 34.9145 14.1093 34.947 14.1143C34.9633 14.1175 34.9748 14.1264 34.9815 14.1407C34.9864 14.1543 34.9834 14.1692 34.9725 14.1851C34.9601 14.2019 34.8905 14.2337 34.764 14.2808C34.7586 14.2995 34.7486 14.3161 34.7339 14.3304C34.7185 14.3467 34.6998 14.3588 34.6783 14.3666C34.6581 14.3738 34.6367 14.3761 34.6143 14.3734C34.5939 14.3718 34.5756 14.3653 34.5593 14.3544C34.4396 14.3944 34.3706 14.4124 34.3523 14.4082C34.3321 14.4034 34.3203 14.3939 34.3167 14.3798C34.3114 14.3651 34.3147 14.3508 34.3268 14.3374C34.3484 14.3129 34.3644 14.2918 34.3749 14.2743C34.3965 14.2406 34.4018 14.2089 34.3912 14.1792C34.3471 14.0867 34.3018 13.9901 34.2548 13.8895C34.1593 13.6874 34.0791 13.4966 34.0145 13.3169C33.9484 13.1331 33.8916 12.9345 33.8438 12.7214C33.8092 12.5447 33.7904 12.4523 33.7875 12.4441C33.7836 12.4332 33.7763 12.4275 33.7653 12.4269C33.7589 12.4261 33.7477 12.4287 33.7315 12.4346L33.5835 12.4878C33.5403 12.5033 33.4981 12.4987 33.4571 12.4737C33.4239 12.4536 33.3998 12.4288 33.3845 12.3992C33.3725 12.3745 33.3717 12.3549 33.3818 12.3407C33.3907 12.3268 33.4073 12.3223 33.432 12.3272C33.44 12.3287 33.4475 12.3344 33.4541 12.3443C33.4574 12.3492 33.4636 12.3577 33.4723 12.3697C33.4897 12.3881 33.5167 12.3867 33.5535 12.3658C33.5893 12.3468 33.6152 12.3254 33.6308 12.3013L33.6453 12.2711L33.6979 12.2521L33.4981 11.6967C33.4762 11.6359 33.4477 11.5419 33.4124 11.4141C33.3682 11.253 33.3348 11.1285 33.3124 11.0405C33.2194 10.6969 33.1421 10.4486 33.0809 10.2952C33.0129 10.1273 32.9476 9.98002 32.8852 9.85302L32.8144 9.7136Z" fill="white"/>
<line x1="15" y1="12.125" x2="6" y2="12.125" stroke="url(#paint0_linear)" stroke-width="0.25"/>
<line x1="16" y1="14.125" x2="7" y2="14.125" stroke="url(#paint1_linear)" stroke-width="0.25"/>
<line x1="17" y1="10.125" x2="8" y2="10.125" stroke="url(#paint2_linear)" stroke-width="0.25"/>
<defs>
<linearGradient id="paint0_linear" x1="15" y1="11" x2="6" y2="11" gradientUnits="userSpaceOnUse">
<stop stop-color="white"/>
<stop offset="1" stop-color="white" stop-opacity="0"/>
</linearGradient>
<linearGradient id="paint1_linear" x1="16" y1="13" x2="7" y2="13" gradientUnits="userSpaceOnUse">
<stop stop-color="white"/>
<stop offset="1" stop-color="white" stop-opacity="0"/>
</linearGradient>
<linearGradient id="paint2_linear" x1="17" y1="9" x2="8" y2="9" gradientUnits="userSpaceOnUse">
<stop stop-color="white"/>
<stop offset="1" stop-color="white" stop-opacity="0"/>
</linearGradient>
</defs>
</svg>
