<svg width="40" height="40" viewBox="0 0 40 40" fill="none" xmlns="http://www.w3.org/2000/svg">
<path d="M13.0283 14.4206L12.8831 14.0497L12.8347 13.8195L12.5082 13.4486C12.5082 13.4486 12.3126 13.1138 12.1346 13.1294L12.1362 13.1217C12.1362 13.1217 12.1725 13.1036 12.1858 13.0901C12.1973 13.0775 12.2035 13.0525 12.2035 13.0525C12.2056 13.0191 12.1787 12.9286 12.1787 12.9286L12.1487 12.8086L12.1586 12.645C12.1586 12.645 12.3203 12.6036 12.3424 12.5883C12.3662 12.5726 12.358 12.5563 12.358 12.5563C12.358 12.5563 12.4174 12.5667 12.5071 12.4936C12.5954 12.4205 12.5892 12.0584 12.5743 11.9005C12.5608 11.7429 12.4374 11.4243 12.4374 11.4243C12.4374 11.4243 12.4725 11.3457 12.4559 11.3017C12.4374 11.2573 12.4023 11.238 12.3826 11.2265C12.3656 11.2134 12.2287 11.1403 12.207 11.1343C12.1868 11.1284 12.1596 11.1225 12.1596 11.1225C12.1596 11.1225 11.8731 10.8981 11.7395 10.854C11.605 10.8102 11.5859 10.7866 11.3153 10.7832C11.0444 10.779 10.6105 10.9266 10.3511 11.344C10.092 11.7625 10.092 12.2971 10.1168 12.4018C10.1416 12.5055 10.2237 12.7776 10.2237 12.7776L10.1074 12.9031C10.1074 12.9031 9.66224 12.9669 9.61648 12.9373C9.57071 12.9091 9.54189 13.0121 9.24131 13.206C8.93992 13.3981 8.84195 13.6793 8.47626 14.1829C8.34925 14.8295 8.42263 15.1851 8.4309 15.2811C8.44078 15.3776 8.46759 15.4268 8.46759 15.4268L8.44985 15.5611C8.44985 15.5611 8.27627 15.6189 8.2031 15.6282C8.12972 15.6386 8.07992 15.6463 8.00694 15.6741C7.93356 15.7036 7.95191 15.7389 7.93437 15.7765C7.91582 15.8162 7.81805 16.3838 7.78922 16.4798C7.76342 16.5758 7.73157 17.164 7.74084 17.2982C7.75031 17.4325 7.80716 17.439 7.89828 17.4773C7.99021 17.5162 8.04343 17.5028 8.04343 17.5028C8.04343 17.5028 8.1283 17.5822 8.05654 17.6117C7.98316 17.6413 7.85615 17.7377 7.82833 17.7851C7.80192 17.8324 7.82833 18.4213 7.82833 18.4213C7.82833 18.4213 7.89183 18.7288 7.89183 18.7677C7.89183 18.8066 7.89183 18.8066 7.89183 18.8066L7.93518 19.4608L7.94102 19.5362C7.94102 19.5362 8.01138 19.7087 7.98235 19.714C7.95554 19.7204 7.89909 19.6556 7.87349 19.6885C7.84708 19.7212 7.76684 19.8793 7.77672 19.906C7.78741 19.9317 7.77229 20.0526 7.77229 20.0526C7.77229 20.0526 7.77168 20.2669 7.77672 20.2899C7.78378 20.3128 7.70133 20.357 7.73237 20.3959C7.76382 20.4356 7.66927 20.5142 7.71685 20.6004C7.76382 20.6867 7.82692 20.7323 7.82692 20.7323L7.63097 22.3633L7.52251 22.732L7.38704 23.1424C7.38704 23.1424 7.26044 23.15 7.18524 23.2614C7.11065 23.3735 6.74617 24.3589 6.73569 24.5692C6.72722 24.7799 6.63852 24.891 6.63489 24.9539C6.63167 25.0159 6.69295 25.0478 6.69658 25.0497L6.31315 26.0389C6.31315 26.0389 6.16296 26.1005 6.09724 26.216C6.03212 26.3325 5.91318 26.52 5.91318 26.52C5.91318 26.52 5.77186 26.8937 5.77751 26.9366C5.78315 26.9782 5.77106 27.0003 5.92568 27.0793C6.08111 27.1585 6.29661 27.2097 6.32524 27.2433C6.35266 27.2775 6.64437 27.5428 6.65384 27.5609C6.66553 27.5793 7.08384 27.9107 7.24411 27.8858C7.49832 27.8988 8.01884 27.8901 8.04343 27.8646C8.07166 27.8393 8.07004 27.6507 8.07004 27.6507C8.07004 27.6507 8.05492 27.4338 7.97005 27.3998C7.88377 27.365 7.57795 27.3149 7.53824 27.256C7.49751 27.1959 7.32656 26.4646 7.32313 26.4168C7.32072 26.3709 7.41244 26.0461 7.49106 25.9168C7.56747 25.7868 7.73439 25.4361 7.73439 25.4361C7.73439 25.4361 7.85172 25.3796 7.86724 25.3609C7.88135 25.3413 8.04706 25.0873 8.06783 25.014C8.0894 24.9394 8.16661 24.6138 8.16661 24.6138C8.16661 24.6138 8.47202 24.165 8.50629 24.1049C8.53996 24.0435 9.01713 23.1866 9.07076 23.0587C9.12458 22.9296 9.08225 22.7902 9.08225 22.7902C9.21974 22.7418 9.2526 22.4916 9.1901 22.4744C9.17398 22.4408 9.36589 22.044 9.38867 21.9737C9.40924 21.9032 9.59309 21.4288 9.59309 21.4288C9.59309 21.4288 9.79348 21.2345 9.85496 21.1053C9.91484 20.9772 10.0156 21.0314 10.0156 21.0314C10.0156 21.0314 10.1178 21.2292 10.2287 21.27C10.3392 21.311 10.4876 21.5172 10.4876 21.5172L11.1609 22.5674C11.1609 22.5674 11.353 22.8499 11.4193 22.8435C11.4834 22.8374 11.6225 22.9986 11.6225 22.9986L11.7832 23.1762L11.833 23.5989C11.833 23.5989 11.728 23.6739 11.7173 23.8102C11.7076 23.9468 11.8729 24.9908 11.9659 25.1767C12.0608 25.3621 12.0382 25.5055 12.0659 25.5616C12.0933 25.6166 12.1614 25.6107 12.1654 25.6102L12.316 26.6668C12.316 26.6668 12.217 26.801 12.2164 26.9359C12.217 27.0712 12.1687 27.2817 12.1687 27.2817C12.1687 27.2817 12.1443 27.6664 12.1701 27.7002C12.1951 27.7329 12.3174 27.7864 12.4884 27.7703C12.6602 27.7539 12.87 27.6809 12.9111 27.6945C12.9513 27.7087 13.3303 27.7786 13.3474 27.789C13.3663 27.7988 13.961 27.796 14.1209 27.7688C14.28 27.7416 14.6207 27.6851 14.6451 27.6594C14.6731 27.6337 14.6574 27.3998 14.6574 27.3998C14.6574 27.3998 14.6352 27.2781 14.5501 27.2458C14.4634 27.2125 14.333 27.1245 14.2368 27.1161C14.1413 27.1076 14.0215 27.0774 13.9588 27.0483C13.8947 27.0188 13.3932 26.4833 13.3669 26.4444C13.3423 26.4062 13.2639 26.078 13.2684 25.924C13.2708 25.7708 13.244 25.3796 13.244 25.3796C13.244 25.3796 13.3174 25.2674 13.3216 25.243C13.3242 25.2185 13.343 24.9108 13.3254 24.8366C13.3075 24.761 13.2162 24.4394 13.2162 24.4394C13.2162 24.4394 13.2607 23.8886 13.2609 23.8183C13.2601 23.7471 13.2541 22.753 13.2381 22.6143C13.2216 22.4741 13.1176 22.3777 13.1176 22.3777C13.1176 22.3777 13.0859 22.0695 13.0569 22.0482C13.0267 22.0281 12.9638 22.0684 12.9408 22.0538C12.9162 22.0385 12.9416 21.3233 12.6144 20.6081C12.287 19.8933 11.8004 19.3948 11.8004 19.3948L11.6981 18.9028L11.7979 18.6978C11.7979 18.6978 12.0425 18.8157 12.1195 18.8091C12.1975 18.8032 12.4297 18.3112 12.4142 18.2292C12.3961 18.1468 12.5235 16.8987 12.4777 16.8041C12.4344 16.7109 12.4344 16.6111 12.3457 16.5401C12.257 16.4704 12.0963 16.412 12.0963 16.412C12.0963 16.412 12.1771 16.2049 12.1929 16.1631C12.2068 16.1212 12.1892 15.9999 12.1892 15.9999C12.1892 15.9999 12.5583 16.2225 12.7468 16.3266C12.9361 16.4303 13.7159 16.8275 13.8389 16.8396C13.9596 16.8528 14.0304 16.8396 14.0304 16.8396C14.0304 16.8396 14.0824 16.9144 14.1435 16.9169C14.386 16.9256 14.5777 16.7047 14.5876 16.6905C14.5995 16.6756 14.7954 16.5938 14.7954 16.5938C14.7954 16.5938 15.0531 16.2963 15.4125 16.0184C15.9185 15.6278 16.4332 14.9334 16.6396 14.7858C16.6723 14.7758 16.7368 14.769 16.7368 14.769C16.7368 14.769 17.1347 14.852 17.2087 14.7067C17.3061 14.5158 17.3688 14.314 17.3857 14.1783C17.388 14.1611 17.4416 14.0784 17.4416 14.0784C17.4902 14.0978 17.7976 14.0973 17.7248 13.8284C17.7391 13.8212 17.7897 13.8106 17.7897 13.8106L18.4387 13.8065C18.4387 13.8065 18.4635 13.7982 18.4653 13.7842C18.4739 13.7192 18.4705 13.5412 18.4655 13.4682C18.4649 13.4592 18.4429 13.4509 18.4387 13.4509C18.0693 13.4507 16.9916 13.4422 16.8178 13.4478C16.6723 13.4522 16.682 13.7443 16.682 13.7443L16.6672 13.822C16.6672 13.822 16.5648 13.8734 16.5197 13.9387C16.4606 14.0398 16.3951 14.1577 16.2467 14.2494C16.0623 14.3342 14.795 15.0311 14.6497 15.1101C14.4771 15.204 14.2022 15.2892 14.2022 15.2892L13.8391 14.9313L13.0283 14.4206Z" fill="white"/>
<path d="M16.4871 28.6213C16.8056 28.3703 16.85 28.1971 16.85 28.1231C16.85 28.0492 16.8056 27.876 16.4871 27.625C16.1759 27.3797 15.6856 27.1306 15.0222 26.9095C14.7025 26.8029 14.3509 26.7056 13.972 26.6192L13.88 25.9381C16.0526 26.3956 17.4956 27.2032 17.4956 28.1231C17.4956 29.5495 14.0268 30.7058 9.74782 30.7058C5.46882 30.7058 2 29.5495 2 28.1231C2 27.2032 3.44299 26.3956 5.61565 25.9381L5.14363 26.7119C4.90731 26.7734 4.68349 26.8395 4.47346 26.9095C3.81002 27.1306 3.3197 27.3797 3.0085 27.625C2.69003 27.876 2.64565 28.0492 2.64565 28.1231C2.64565 28.1971 2.69003 28.3703 3.0085 28.6213C3.3197 28.8666 3.81002 29.1157 4.47346 29.3368C5.79359 29.7769 7.6584 30.0601 9.74782 30.0601C11.8372 30.0601 13.702 29.7769 15.0222 29.3368C15.6856 29.1157 16.1759 28.8666 16.4871 28.6213Z" fill="white"/>
<path d="M9.74782 25.5405C9.24273 25.5405 8.74893 25.5567 8.27079 25.5874L7.87726 26.2642C8.47278 26.2135 9.09949 26.1862 9.74782 26.1862C10.4348 26.1862 11.0975 26.2168 11.7245 26.2736L11.5144 25.608C10.947 25.5639 10.3556 25.5405 9.74782 25.5405Z" fill="white"/>
<path d="M25.0854 19.1512L21.3595 21.3023L21.3595 17L25.0854 19.1512Z" fill="white"/>
<rect x="17" y="18.3652" width="4.57831" height="1.5261" fill="white"/>
<path d="M32.4956 14.4209L32.3441 14.05L32.2936 13.8197L31.9529 13.4489C31.9529 13.4489 31.7488 13.1141 31.563 13.1296L31.5647 13.1219C31.5647 13.1219 31.6026 13.1039 31.6165 13.0903C31.6285 13.0778 31.635 13.0527 31.635 13.0527C31.6371 13.0194 31.6091 12.9289 31.6091 12.9289L31.5778 12.8088L31.5881 12.6453C31.5881 12.6453 31.7568 12.6039 31.7799 12.5886C31.8048 12.5729 31.7961 12.5565 31.7961 12.5565C31.7961 12.5565 31.8582 12.5669 31.9518 12.4938C32.0439 12.4208 32.0374 12.0586 32.0219 11.9008C32.0078 11.7432 31.879 11.4245 31.879 11.4245C31.879 11.4245 31.9156 11.3459 31.8984 11.302C31.879 11.2576 31.8424 11.2382 31.8218 11.2268C31.8041 11.2136 31.6613 11.1405 31.6386 11.1346C31.6175 11.1286 31.5891 11.1227 31.5891 11.1227C31.5891 11.1227 31.2902 10.8984 31.1507 10.8542C31.0104 10.8104 30.9904 10.7869 30.7081 10.7835C30.4254 10.7792 29.9727 10.9268 29.7019 11.3442C29.4316 11.7627 29.4316 12.2973 29.4575 12.4021C29.4834 12.5057 29.569 12.7778 29.569 12.7778L29.4476 12.9034C29.4476 12.9034 28.9831 12.9671 28.9354 12.9376C28.8876 12.9093 28.8575 13.0123 28.5439 13.2063C28.2294 13.3983 28.1271 13.6795 27.7455 14.1832C27.613 14.8298 27.6896 15.1854 27.6982 15.2814C27.7085 15.3778 27.7365 15.4271 27.7365 15.4271L27.718 15.5613C27.718 15.5613 27.5369 15.6191 27.4605 15.6285C27.3839 15.6389 27.332 15.6465 27.2558 15.6743C27.1792 15.7039 27.1984 15.7391 27.1801 15.7767C27.1607 15.8165 27.0587 16.384 27.0286 16.48C27.0017 16.5761 26.9684 17.1642 26.9781 17.2985C26.988 17.4327 27.0473 17.4393 27.1424 17.4776C27.2383 17.5164 27.2939 17.503 27.2939 17.503C27.2939 17.503 27.3824 17.5825 27.3076 17.612C27.231 17.6415 27.0985 17.738 27.0694 17.7853C27.0419 17.8327 27.0694 18.4215 27.0694 18.4215C27.0694 18.4215 27.1357 18.7291 27.1357 18.768C27.1357 18.8069 27.1357 18.8069 27.1357 18.8069L27.1809 19.4611L27.187 19.5365C27.187 19.5365 27.2604 19.709 27.2301 19.7143C27.2022 19.7207 27.1433 19.6559 27.1165 19.6888C27.089 19.7215 27.0053 19.8796 27.0156 19.9063C27.0267 19.932 27.0109 20.0529 27.0109 20.0529C27.0109 20.0529 27.0103 20.2672 27.0156 20.2902C27.0229 20.3131 26.9369 20.3573 26.9693 20.3962C27.0021 20.4359 26.9034 20.5145 26.9531 20.6007C27.0021 20.687 27.0679 20.7326 27.0679 20.7326L26.8635 22.3636L26.7503 22.7323L26.6089 23.1427C26.6089 23.1427 26.4768 23.1504 26.3984 23.2617C26.3205 23.3738 25.9402 24.3592 25.9292 24.5695C25.9204 24.7802 25.8278 24.8913 25.8241 24.9542C25.8207 25.0162 25.8846 25.0481 25.8884 25.05L25.4883 26.0392C25.4883 26.0392 25.3316 26.1008 25.263 26.2164C25.1951 26.3328 25.0709 26.5204 25.0709 26.5204C25.0709 26.5204 24.9235 26.894 24.9294 26.9369C24.9353 26.9785 24.9226 27.0006 25.084 27.0796C25.2462 27.1589 25.4711 27.2101 25.5009 27.2436C25.5295 27.2778 25.8339 27.5431 25.8438 27.5612C25.856 27.5797 26.2925 27.911 26.4598 27.8862C26.7251 27.8991 27.2682 27.8904 27.2939 27.865C27.3233 27.8397 27.3217 27.651 27.3217 27.651C27.3217 27.651 27.3059 27.4342 27.2173 27.4002C27.1273 27.3653 26.8081 27.3152 26.7667 27.2564C26.7242 27.1963 26.5458 26.4649 26.5422 26.4171C26.5397 26.3712 26.6354 26.0465 26.7175 25.9171C26.7972 25.7871 26.9714 25.4364 26.9714 25.4364C26.9714 25.4364 27.0938 25.3799 27.11 25.3612C27.1247 25.3417 27.2977 25.0876 27.3193 25.0143C27.3418 24.9398 27.4224 24.6141 27.4224 24.6141C27.4224 24.6141 27.7411 24.1653 27.7769 24.1052C27.812 24.0438 28.3099 23.1869 28.3659 23.059C28.4221 22.9299 28.3779 22.7905 28.3779 22.7905C28.5214 22.7421 28.5557 22.4919 28.4904 22.4747C28.4736 22.4411 28.6739 22.0443 28.6977 21.974C28.7191 21.9035 28.911 21.4291 28.911 21.4291C28.911 21.4291 29.1201 21.2348 29.1842 21.1056C29.2467 20.9775 29.3519 21.0317 29.3519 21.0317C29.3519 21.0317 29.4585 21.2295 29.5742 21.2703C29.6895 21.3113 29.8444 21.5175 29.8444 21.5175L30.547 22.5677C30.547 22.5677 30.7475 22.8502 30.8167 22.8438C30.8836 22.8377 31.0287 22.9989 31.0287 22.9989L31.1964 23.1765L31.2483 23.5992C31.2483 23.5992 31.1387 23.6742 31.1276 23.8106C31.1175 23.9471 31.29 24.9912 31.387 25.177C31.4861 25.3625 31.4625 25.5058 31.4913 25.5619C31.5199 25.6169 31.591 25.611 31.5952 25.6106L31.7524 26.6671C31.7524 26.6671 31.6491 26.8014 31.6485 26.9363C31.6491 27.0716 31.5986 27.2821 31.5986 27.2821C31.5986 27.2821 31.5731 27.6668 31.6001 27.7005C31.6262 27.7333 31.7538 27.7868 31.9322 27.7706C32.1115 27.7543 32.3305 27.6812 32.3734 27.6948C32.4152 27.709 32.8107 27.7789 32.8286 27.7893C32.8484 27.7991 33.469 27.7963 33.6358 27.7691C33.8018 27.742 34.1573 27.6855 34.1827 27.6598C34.212 27.6341 34.1956 27.4002 34.1956 27.4002C34.1956 27.4002 34.1724 27.2785 34.0836 27.2462C33.9932 27.2128 33.8571 27.1249 33.7567 27.1164C33.657 27.1079 33.5321 27.0777 33.4666 27.0486C33.3997 27.0191 32.8764 26.4836 32.849 26.4447C32.8233 26.4065 32.7415 26.0783 32.7461 25.9243C32.7487 25.7712 32.7207 25.3799 32.7207 25.3799C32.7207 25.3799 32.7973 25.2677 32.8017 25.2433C32.8044 25.2189 32.824 24.9111 32.8057 24.8369C32.787 24.7613 32.6917 24.4397 32.6917 24.4397C32.6917 24.4397 32.7382 23.8889 32.7384 23.8186C32.7375 23.7475 32.7312 22.7534 32.7146 22.6146C32.6973 22.4744 32.5888 22.378 32.5888 22.378C32.5888 22.378 32.5558 22.0698 32.5255 22.0486C32.4939 22.0284 32.4283 22.0687 32.4043 22.0541C32.3786 22.0388 32.4051 21.3236 32.0637 20.6084C31.7221 19.8936 31.2143 19.395 31.2143 19.395L31.1076 18.9031L31.2117 18.6981C31.2117 18.6981 31.4669 18.816 31.5473 18.8094C31.6287 18.8035 31.871 18.3115 31.8548 18.2295C31.8359 18.1471 31.9688 16.8989 31.9211 16.8044C31.8759 16.7112 31.8759 16.6113 31.7833 16.5404C31.6907 16.4707 31.5231 16.4123 31.5231 16.4123C31.5231 16.4123 31.6074 16.2052 31.6238 16.1633C31.6384 16.1215 31.6201 16.0002 31.6201 16.0002C31.6201 16.0002 32.0052 16.2228 32.2019 16.3269C32.3995 16.4306 33.2132 16.8278 33.3415 16.8399C33.4675 16.853 33.5413 16.8399 33.5413 16.8399C33.5413 16.8399 33.5956 16.9147 33.6593 16.9172C33.9124 16.9259 34.1125 16.705 34.1228 16.6908C34.1352 16.6759 34.3397 16.5941 34.3397 16.5941C34.3397 16.5941 34.6085 16.2965 34.9836 16.0187C35.5116 15.628 36.0487 14.9337 36.2641 14.786C36.2982 14.776 36.3655 14.7692 36.3655 14.7692C36.3655 14.7692 36.7807 14.8523 36.858 14.707C36.9596 14.516 37.025 14.3142 37.0427 14.1785C37.045 14.1613 37.1009 14.0787 37.1009 14.0787C37.1516 14.098 37.4724 14.0976 37.3965 13.8287C37.4114 13.8214 37.4642 13.8108 37.4642 13.8108L38.1414 13.8068C38.1414 13.8068 38.1673 13.7985 38.1692 13.7845C38.1782 13.7195 38.1746 13.5415 38.1694 13.4684C38.1687 13.4595 38.1458 13.4512 38.1414 13.4512C37.756 13.451 36.6314 13.4425 36.4501 13.448C36.2982 13.4525 36.3083 13.7445 36.3083 13.7445L36.2929 13.8223C36.2929 13.8223 36.186 13.8737 36.1389 13.9389C36.0773 14.04 36.0089 14.1579 35.8541 14.2497C35.6616 14.3344 34.3392 15.0314 34.1876 15.1104C34.0075 15.2043 33.7206 15.2894 33.7206 15.2894L33.3417 14.9315L32.4956 14.4209Z" fill="white" fill-opacity="0.5"/>
</svg>
