<svg width="40" height="40" viewBox="0 0 40 40" fill="none" xmlns="http://www.w3.org/2000/svg">
<path d="M28.5972 5.40793C28.3361 3.52341 27.3451 2.75088 26.8076 2.46683C26.4586 2.2815 25.4243 2 24.5066 2C23.1933 2 22.131 2.19934 21.9062 2.26112C21.0726 2.48785 20.7127 2.784 20.686 3.08587C20.6541 3.43934 20.6771 3.54124 20.6771 3.54124L21.0726 3.54825C21.0726 3.00945 21.233 2.9343 21.477 2.83367C21.8903 2.66235 22.361 2.45473 24.1538 2.40378C26.0472 2.35092 26.8038 2.81839 27.2006 3.23809C28.2444 4.33988 28.3183 5.46652 28.3705 9.0706C28.4208 12.5378 28.1107 13.3275 27.9323 13.9172C27.7356 14.5707 27.3496 14.9923 26.7287 15.0541C26.4943 15.0776 26.1122 15.0738 25.7689 15.063V4.87805C25.7689 4.54369 25.4976 4.27238 25.1632 4.27238H21.1101V3.79217C21.1101 3.71957 21.0509 3.6597 20.9777 3.6597H20.7242C20.6509 3.6597 20.5917 3.71957 20.5917 3.79217V4.27238H13.7752C13.4409 4.27238 13.1696 4.54369 13.1696 4.87805V8.00893H12.6639C12.4964 8.00893 12.3607 8.14522 12.3607 8.31272V12.3645C12.3607 12.5327 12.4964 12.6677 12.6639 12.6677H13.1696V20.6598C13.1696 20.9942 13.4409 21.2655 13.7752 21.2655H25.1632C25.4976 21.2655 25.7689 20.9942 25.7689 20.6598V15.5336C25.9631 15.5336 26.2032 15.5336 26.5013 15.5336C27.3681 15.5336 27.7305 15.119 28.0037 14.7484C28.3476 14.2815 28.6539 13.1441 28.7233 11.9486C28.8514 9.74951 28.7597 6.58487 28.5972 5.40793ZM21.9565 18.6136H15.3916V10.8367H21.9565V18.6136ZM23.7493 8.46366H15.3916V5.93844H23.7493V8.46366Z" fill="white"/>
<path d="M17.3022 12.4779C17.3022 12.5339 17.257 12.5785 17.2016 12.5785H16.3176C16.2615 12.5785 16.2163 12.5339 16.2163 12.4779V11.8085C16.2163 11.7525 16.2615 11.7079 16.3176 11.7079H17.2016C17.257 11.7079 17.3022 11.7525 17.3022 11.8085V12.4779Z" fill="white"/>
<path d="M19.0694 12.4779C19.0694 12.5339 19.0242 12.5785 18.9682 12.5785H18.0842C18.0288 12.5785 17.9829 12.5339 17.9829 12.4779V11.8085C17.9829 11.7525 18.0288 11.7079 18.0842 11.7079H18.9682C19.0236 11.7079 19.0694 11.7525 19.0694 11.8085V12.4779Z" fill="white"/>
<path d="M20.8368 12.4779C20.8368 12.5339 20.7916 12.5785 20.7362 12.5785H19.8522C19.7968 12.5785 19.7516 12.5339 19.7516 12.4779V11.8085C19.7516 11.7525 19.7962 11.7079 19.8522 11.7079H20.7362C20.7916 11.7079 20.8368 11.7525 20.8368 11.8085V12.4779Z" fill="white"/>
<path d="M17.3022 14.1446C17.3022 14.2006 17.257 14.2452 17.2016 14.2452H16.3176C16.2615 14.2452 16.2163 14.2006 16.2163 14.1446V13.4752C16.2163 13.4192 16.2615 13.3746 16.3176 13.3746H17.2016C17.257 13.3746 17.3022 13.4192 17.3022 13.4752V14.1446Z" fill="white"/>
<path d="M19.0694 14.1446C19.0694 14.2006 19.0242 14.2452 18.9682 14.2452H18.0842C18.0288 14.2452 17.9829 14.2006 17.9829 14.1446V13.4752C17.9829 13.4192 18.0288 13.3746 18.0842 13.3746H18.9682C19.0236 13.3746 19.0694 13.4192 19.0694 13.4752V14.1446Z" fill="white"/>
<path d="M20.8368 14.1446C20.8368 14.2006 20.7916 14.2452 20.7362 14.2452H19.8522C19.7968 14.2452 19.7516 14.2006 19.7516 14.1446V13.4752C19.7516 13.4192 19.7962 13.3746 19.8522 13.3746H20.7362C20.7916 13.3746 20.8368 13.4192 20.8368 13.4752V14.1446Z" fill="white"/>
<path d="M17.3022 15.8107C17.3022 15.8673 17.257 15.9126 17.2016 15.9126H16.3176C16.2615 15.9126 16.2163 15.8673 16.2163 15.8107V15.1426C16.2163 15.0859 16.2615 15.0407 16.3176 15.0407H17.2016C17.257 15.0407 17.3022 15.0859 17.3022 15.1426V15.8107Z" fill="white"/>
<path d="M19.0694 15.8107C19.0694 15.8673 19.0242 15.9126 18.9682 15.9126H18.0842C18.0288 15.9126 17.9829 15.8673 17.9829 15.8107V15.1426C17.9829 15.0859 18.0288 15.0407 18.0842 15.0407H18.9682C19.0236 15.0407 19.0694 15.0859 19.0694 15.1426V15.8107Z" fill="white"/>
<path d="M20.8368 15.8107C20.8368 15.8673 20.7916 15.9126 20.7362 15.9126H19.8522C19.7968 15.9126 19.7516 15.8673 19.7516 15.8107V15.1426C19.7516 15.0859 19.7962 15.0407 19.8522 15.0407H20.7362C20.7916 15.0407 20.8368 15.0859 20.8368 15.1426V15.8107Z" fill="white"/>
<path d="M17.3022 17.478C17.3022 17.5334 17.257 17.5786 17.2016 17.5786H16.3176C16.2615 17.5786 16.2163 17.5334 16.2163 17.478V16.808C16.2163 16.7526 16.2615 16.7074 16.3176 16.7074H17.2016C17.257 16.7074 17.3022 16.7526 17.3022 16.808V17.478Z" fill="white"/>
<path d="M19.0694 17.478C19.0694 17.5334 19.0242 17.5786 18.9682 17.5786H18.0842C18.0288 17.5786 17.9829 17.5334 17.9829 17.478V16.808C17.9829 16.7526 18.0288 16.7074 18.0842 16.7074H18.9682C19.0236 16.7074 19.0694 16.7526 19.0694 16.808V17.478Z" fill="white"/>
<path d="M20.8368 17.478C20.8368 17.5334 20.7916 17.5786 20.7362 17.5786H19.8522C19.7968 17.5786 19.7516 17.5334 19.7516 17.478V16.808C19.7516 16.7526 19.7962 16.7074 19.8522 16.7074H20.7362C20.7916 16.7074 20.8368 16.7526 20.8368 16.808V17.478Z" fill="white"/>
<mask id="path-14-inside-1" fill="white">
<path fill-rule="evenodd" clip-rule="evenodd" d="M8.13647 31.5102C8.13647 29.403 12.7313 27.6647 18.6647 27.4147V30.0816L14.7638 30.0816L20.2478 34.8309L25.7318 30.0816L21.8309 30.0816V27.4244C27.6603 27.7067 32.1449 29.4285 32.1449 31.5102C32.1449 33.7892 26.7705 35.6367 20.1407 35.6367C13.511 35.6367 8.13647 33.7892 8.13647 31.5102Z"/>
</mask>
<path fill-rule="evenodd" clip-rule="evenodd" d="M8.13647 31.5102C8.13647 29.403 12.7313 27.6647 18.6647 27.4147V30.0816L14.7638 30.0816L20.2478 34.8309L25.7318 30.0816L21.8309 30.0816V27.4244C27.6603 27.7067 32.1449 29.4285 32.1449 31.5102C32.1449 33.7892 26.7705 35.6367 20.1407 35.6367C13.511 35.6367 8.13647 33.7892 8.13647 31.5102Z" fill="white"/>
<path d="M18.6647 27.4147H18.7517V27.3239L18.661 27.3277L18.6647 27.4147ZM18.6647 30.0816V30.1686L18.7517 30.1686V30.0816H18.6647ZM14.7638 30.0816V29.9946L14.5305 29.9946L14.7069 30.1474L14.7638 30.0816ZM20.2478 34.8309L20.1909 34.8967L20.2478 34.946L20.3048 34.8967L20.2478 34.8309ZM25.7318 30.0816L25.7888 30.1474L25.9652 29.9946L25.7318 29.9946V30.0816ZM21.8309 30.0816H21.7439V30.1686L21.8309 30.1686V30.0816ZM21.8309 27.4244L21.8351 27.3375L21.7439 27.333V27.4244H21.8309ZM18.661 27.3277C15.6879 27.4531 13.0459 27.9513 11.1442 28.6849C10.1937 29.0515 9.42355 29.4788 8.88947 29.9513C8.35556 30.4238 8.04948 30.9493 8.04948 31.5102H8.22347C8.22347 31.0175 8.49174 30.5356 9.00477 30.0816C9.51763 29.6278 10.267 29.2098 11.2069 28.8472C13.0859 28.1223 15.708 27.6263 18.6683 27.5016L18.661 27.3277ZM18.7517 30.0816V27.4147H18.5777V30.0816H18.7517ZM14.7638 30.1686L18.6647 30.1686V29.9946L14.7638 29.9946V30.1686ZM20.3048 34.7651L14.8208 30.0159L14.7069 30.1474L20.1909 34.8967L20.3048 34.7651ZM25.6749 30.0159L20.1909 34.7651L20.3048 34.8967L25.7888 30.1474L25.6749 30.0159ZM21.8309 30.1686L25.7318 30.1686V29.9946L21.8309 29.9946V30.1686ZM21.7439 27.4244V30.0816H21.9179V27.4244H21.7439ZM32.2319 31.5102C32.2319 30.9561 31.9332 30.4364 31.4112 29.9685C30.8891 29.5005 30.136 29.0766 29.2057 28.7115C27.3446 27.9811 24.7561 27.479 21.8351 27.3375L21.8266 27.5112C24.7351 27.6521 27.3037 28.152 29.1422 28.8735C30.0618 29.2344 30.7941 29.6489 31.2951 30.098C31.7961 30.5472 32.058 31.0235 32.058 31.5102H32.2319ZM20.1407 35.7237C23.4626 35.7237 26.4736 35.261 28.6573 34.5103C29.7487 34.1352 30.6381 33.6865 31.2565 33.1839C31.8741 32.682 32.2319 32.1169 32.2319 31.5102H32.058C32.058 32.043 31.744 32.5635 31.1467 33.0489C30.5502 33.5338 29.6816 33.9742 28.6007 34.3458C26.4397 35.0887 23.4486 35.5497 20.1407 35.5497V35.7237ZM8.04948 31.5102C8.04948 32.1169 8.40732 32.682 9.02496 33.1839C9.6433 33.6865 10.5328 34.1352 11.6242 34.5103C13.8078 35.261 16.8189 35.7237 20.1407 35.7237V35.5497C16.8328 35.5497 13.8417 35.0887 11.6807 34.3458C10.5998 33.9742 9.73125 33.5338 9.13469 33.0489C8.53744 32.5635 8.22347 32.043 8.22347 31.5102H8.04948Z" fill="white" mask="url(#path-14-inside-1)"/>
<path fill-rule="evenodd" clip-rule="evenodd" d="M21.831 19H18.6648V26.4483C15.6973 26.5716 13.0205 27.0617 10.987 27.8012C9.8059 28.2307 8.81655 28.7533 8.11359 29.3577C7.41218 29.9607 6.94836 30.6894 6.94836 31.519C6.94836 32.3485 7.41218 33.0772 8.11359 33.6803C8.81655 34.2846 9.8059 34.8073 10.987 35.2368C13.3532 36.0972 16.5905 36.6201 20.1434 36.6201C23.6962 36.6201 26.9335 36.0972 29.2997 35.2368C30.4808 34.8073 31.4702 34.2846 32.1731 33.6803C32.8745 33.0772 33.3384 32.3485 33.3384 31.519C33.3384 30.6894 32.8745 29.9607 32.1731 29.3577C31.4702 28.7533 30.4808 28.2307 29.2997 27.8012C27.3141 27.0791 24.7151 26.5948 21.831 26.4577V19ZM18.9083 26.9155H21.3784C27.8233 27.1413 32.8623 29.1161 32.8623 31.519C32.8623 34.0733 27.1678 36.144 20.1434 36.144C13.1189 36.144 7.42445 34.0733 7.42445 31.519C7.42445 29.1161 12.4634 27.1413 18.9083 26.9155Z" fill="white"/>
</svg>
