<svg width="40" height="40" viewBox="0 0 40 40" fill="none" xmlns="http://www.w3.org/2000/svg">
<path d="M2.13281 36C2.13281 36 3.96595 34.9704 4.5663 34.46C4.63921 34.3928 5.87295 33.6261 5.87295 33.6261C7.31515 32.4801 8.58534 31.7214 10.2178 30.5002C11.6987 29.3929 12.5167 29.0603 13.0316 28.6251C13.551 28.1843 14.0534 28.2116 14.1263 28.1558C14.8451 27.6705 15.3475 28.256 16.9025 27.3868C17.3046 27.1624 17.6293 26.7569 17.6213 26.3661C17.6156 26.0642 17.4379 25.8694 17.4379 25.8694C17.4379 25.8694 17.455 25.4958 17.3707 25.1779C17.2876 24.8658 17.103 24.6425 17.103 24.6425C17.103 24.6425 17.1486 24.1914 17.0802 23.9955C16.9367 23.5808 16.6792 23.5045 16.6792 23.5045C16.6792 23.5045 16.5676 22.7242 15.4865 22.9748C15.3452 23.0078 15.147 23.1024 15.147 23.1024C15.147 23.1024 14.5455 22.7219 14.361 22.8016C13.7424 23.0693 13.8757 23.2869 13.4918 23.5204C12.4369 24.1629 13.4793 24.3236 12.0325 25.3819C11.1485 26.0278 7.17108 27.1822 6 27.5C4.98043 27.7768 2.13281 29.5 2.13281 29.5V36Z" fill="white"/>
<path d="M20.0022 22.15C20.1674 22.2947 20.6253 22.3311 21.0582 22.0429C21.4911 21.7547 29.8698 13.3487 30.24 13.081C30.6102 12.8133 30.9816 12.2368 31.2903 11.8051C31.5991 11.3722 37.0341 3.94815 37.2608 3.51526C37.4875 3.08237 37.1788 2.83631 36.6023 3.12452C36.0259 3.41273 29.012 8.55956 28.5802 8.84777C28.1473 9.13598 27.4069 9.69191 27.1187 10.0211C26.8304 10.3504 18.6409 18.7598 18.4039 18.9967C17.8685 19.5322 17.889 20.0676 18.1567 20.3148C18.2706 20.4196 18.8505 20.9835 18.8505 20.9835L29.0143 10.9769L29.217 11.1797L19.338 21.4642C19.3369 21.4631 19.837 22.0053 20.0022 22.15Z" fill="white"/>
<path d="M16.0105 19.4513C16.0105 19.4513 20.3565 23.844 20.6447 24.0775C21.0776 24.4272 20.9534 24.6949 20.6857 24.8191C20.418 24.9421 19.3642 25.6256 18.5657 24.9421C18.1032 24.5468 17.9459 24.4318 17.9459 24.4318L13.4393 28.1205L12.184 26.4322L15.663 22.4587C15.663 22.4587 15.5776 22.3129 15.1447 21.7365C14.7243 21.176 14.754 20.1507 15.3099 19.4923C15.6642 19.0742 16.0105 19.4513 16.0105 19.4513Z" fill="white"/>
</svg>
