<svg width="40" height="40" viewBox="0 0 40 40" fill="none" xmlns="http://www.w3.org/2000/svg">
<path d="M18.3652 13.0265H21.6126L19.9893 7.67133L18.3652 13.0265Z" fill="white"/>
<path d="M20 2C14.4766 2 10 6.47663 10 12C10 17.5234 14.4773 22.0007 20 22.0007C25.5227 22.0007 30 17.5234 30 12C30 6.47663 25.5227 2 20 2ZM23.3634 18.3395L22.3506 15.282H17.6074L16.6366 18.3395H14.0845L18.8291 4.29632H21.1702L25.9141 18.3395H23.3634Z" fill="white"/>
<mask id="path-3-inside-1" fill="white">
<path fill-rule="evenodd" clip-rule="evenodd" d="M8.13647 32.5102C8.13647 30.403 12.7313 28.6647 18.6647 28.4147V31.0816L14.7638 31.0816L20.2478 35.8309L25.7318 31.0816L21.8309 31.0816V28.4244C27.6603 28.7067 32.1449 30.4285 32.1449 32.5102C32.1449 34.7892 26.7705 36.6367 20.1407 36.6367C13.511 36.6367 8.13647 34.7892 8.13647 32.5102Z"/>
</mask>
<path fill-rule="evenodd" clip-rule="evenodd" d="M8.13647 32.5102C8.13647 30.403 12.7313 28.6647 18.6647 28.4147V31.0816L14.7638 31.0816L20.2478 35.8309L25.7318 31.0816L21.8309 31.0816V28.4244C27.6603 28.7067 32.1449 30.4285 32.1449 32.5102C32.1449 34.7892 26.7705 36.6367 20.1407 36.6367C13.511 36.6367 8.13647 34.7892 8.13647 32.5102Z" fill="white"/>
<path d="M18.6647 28.4147H18.7517V28.3239L18.661 28.3277L18.6647 28.4147ZM18.6647 31.0816V31.1686L18.7517 31.1686V31.0816H18.6647ZM14.7638 31.0816V30.9946L14.5305 30.9946L14.7069 31.1474L14.7638 31.0816ZM20.2478 35.8309L20.1909 35.8967L20.2478 35.946L20.3048 35.8967L20.2478 35.8309ZM25.7318 31.0816L25.7888 31.1474L25.9652 30.9946L25.7318 30.9946V31.0816ZM21.8309 31.0816H21.7439V31.1686L21.8309 31.1686V31.0816ZM21.8309 28.4244L21.8351 28.3375L21.7439 28.3331V28.4244H21.8309ZM18.661 28.3277C15.6879 28.4531 13.0459 28.9513 11.1442 29.6849C10.1937 30.0515 9.42355 30.4788 8.88947 30.9513C8.35556 31.4238 8.04948 31.9493 8.04948 32.5102H8.22347C8.22347 32.0175 8.49174 31.5356 9.00477 31.0816C9.51763 30.6278 10.267 30.2098 11.2069 29.8472C13.0859 29.1223 15.708 28.6264 18.6683 28.5016L18.661 28.3277ZM18.7517 31.0816V28.4147H18.5777V31.0816H18.7517ZM14.7638 31.1686L18.6647 31.1686V30.9946L14.7638 30.9946V31.1686ZM20.3048 35.7651L14.8208 31.0159L14.7069 31.1474L20.1909 35.8967L20.3048 35.7651ZM25.6749 31.0159L20.1909 35.7651L20.3048 35.8967L25.7888 31.1474L25.6749 31.0159ZM21.8309 31.1686L25.7318 31.1686V30.9946L21.8309 30.9946V31.1686ZM21.7439 28.4244V31.0816H21.9179V28.4244H21.7439ZM32.2319 32.5102C32.2319 31.9561 31.9332 31.4365 31.4112 30.9685C30.8891 30.5005 30.136 30.0766 29.2057 29.7115C27.3446 28.9811 24.7561 28.479 21.8351 28.3375L21.8266 28.5113C24.7351 28.6521 27.3037 29.152 29.1422 29.8735C30.0618 30.2344 30.7941 30.6489 31.2951 31.0981C31.7961 31.5472 32.058 32.0235 32.058 32.5102H32.2319ZM20.1407 36.7237C23.4626 36.7237 26.4736 36.261 28.6573 35.5104C29.7487 35.1352 30.6381 34.6865 31.2565 34.184C31.8741 33.682 32.2319 33.1169 32.2319 32.5102H32.058C32.058 33.0431 31.744 33.5635 31.1467 34.0489C30.5502 34.5338 29.6816 34.9742 28.6007 35.3458C26.4397 36.0887 23.4486 36.5497 20.1407 36.5497V36.7237ZM8.04948 32.5102C8.04948 33.1169 8.40732 33.682 9.02496 34.184C9.6433 34.6865 10.5328 35.1352 11.6242 35.5104C13.8078 36.261 16.8189 36.7237 20.1407 36.7237V36.5497C16.8328 36.5497 13.8417 36.0887 11.6807 35.3458C10.5998 34.9742 9.73125 34.5338 9.13469 34.0489C8.53744 33.5635 8.22347 33.0431 8.22347 32.5102H8.04948Z" fill="white" mask="url(#path-3-inside-1)"/>
<path fill-rule="evenodd" clip-rule="evenodd" d="M21.831 20H18.6648V27.4483C15.6973 27.5716 13.0205 28.0617 10.987 28.8012C9.8059 29.2307 8.81655 29.7533 8.11359 30.3577C7.41218 30.9607 6.94836 31.6894 6.94836 32.519C6.94836 33.3485 7.41218 34.0772 8.11359 34.6803C8.81655 35.2846 9.8059 35.8073 10.987 36.2368C13.3532 37.0972 16.5905 37.6201 20.1434 37.6201C23.6962 37.6201 26.9335 37.0972 29.2997 36.2368C30.4808 35.8073 31.4702 35.2846 32.1731 34.6803C32.8745 34.0772 33.3384 33.3485 33.3384 32.519C33.3384 31.6894 32.8745 30.9607 32.1731 30.3577C31.4702 29.7533 30.4808 29.2307 29.2997 28.8012C27.3141 28.0791 24.7151 27.5948 21.831 27.4577V20ZM18.9083 27.9155H21.3784C27.8233 28.1413 32.8623 30.1161 32.8623 32.519C32.8623 35.0733 27.1678 37.144 20.1434 37.144C13.1189 37.144 7.42445 35.0733 7.42445 32.519C7.42445 30.1161 12.4634 28.1413 18.9083 27.9155Z" fill="white"/>
</svg>
