<svg width="40" height="40" viewBox="0 0 40 40" fill="none" xmlns="http://www.w3.org/2000/svg">
<path fill-rule="evenodd" clip-rule="evenodd" d="M22.8117 27.2061L20.6846 30.2763L18.5575 27.2061C14.8332 27.6006 12.0784 29.007 12.0784 30.6815C12.0784 32.6619 15.9314 34.2673 20.6844 34.2673C25.4373 34.2673 29.2903 32.6619 29.2903 30.6815C29.2903 29.0071 26.5357 27.6007 22.8117 27.2061Z" fill="white"/>
<path fill-rule="evenodd" clip-rule="evenodd" d="M20.7741 27.671C20.7741 27.671 12.5073 15.7899 12.5073 11.0386C12.5073 6.2873 16.2085 2.43561 20.7741 2.43561C25.3397 2.43561 29.0409 6.2873 29.0409 11.0386C29.0409 15.7899 20.7741 27.671 20.7741 27.671ZM20.774 15.4884C18.1307 15.4884 15.988 13.3456 15.988 10.7024C15.988 8.05912 18.1307 5.91634 20.774 5.91634C23.4172 5.91634 25.56 8.05912 25.56 10.7024C25.56 13.3456 23.4172 15.4884 20.774 15.4884Z" fill="white"/>
<path d="M30.5852 29.5336C30.1095 28.9515 29.7316 28.3602 28.7176 27.8353C27.2892 27.0959 25.4436 26.45 23.3544 26.1357L24.1702 24.8633C28.9395 25.641 32.3123 27.9672 32.3123 30.716C32.3123 34.1015 27.1963 36.846 20.6562 36.846C14.1161 36.846 9 34.1015 9 30.716C9 27.9511 12.4125 25.6137 17.2262 24.8497L17.9579 26.1357C15.8687 26.45 14.0231 27.0959 12.5947 27.8353C11.6935 28.3019 11.0898 29.0815 10.7272 29.5336C10.3003 30.0659 10.1587 31.3163 10.6343 31.8984C11.1099 32.4805 11.5807 33.0718 12.5947 33.5967C14.6124 34.6412 17.4627 35.4063 20.6562 35.4063C23.8497 35.4063 26.6999 34.6412 28.7176 33.5967C29.7316 33.0718 30.1444 32.5074 30.5852 31.8984C31.1049 31.1804 31.0201 30.0659 30.5852 29.5336Z" fill="white"/>
</svg>
