<svg width="40" height="40" viewBox="0 0 40 40" fill="none" xmlns="http://www.w3.org/2000/svg">
<path fill-rule="evenodd" clip-rule="evenodd" d="M19.1746 34.3916H23.5585C24.8543 34.3916 26.2092 33.7411 27.7418 33.0053C29.7369 32.0476 32.033 30.9453 34.8914 30.9453L34.8914 18.2177C31.1008 18.2177 26.7925 14.0339 26.137 13.2689C25.8166 12.8948 24.8246 12.4436 23.7008 11.9324C22.5261 11.398 21.2073 10.7981 20.3609 10.1524C19.875 9.78169 18.8349 8.91952 18.2337 7.98071C18.076 7.73446 17.9367 7.56495 17.8163 7.41832C17.5405 7.08268 17.3632 6.86689 17.2887 6.12487C17.0927 4.17331 14.6751 5.09825 14.0433 6.36176C13.6915 7.06542 13.4116 8.88862 13.8002 9.79697C13.8002 9.79697 14.6751 12.0476 15.9386 13.3111C16.5199 13.8924 17.0572 14.2599 17.5077 14.5679C18.0364 14.9294 18.4455 15.2091 18.6657 15.6568H18.6476L19.5976 17.4895L19.6461 17.987C19.79 19.4614 20.6025 20.9616 21.6246 22.177C22.655 23.4024 23.8188 24.2452 24.5668 24.4793C24.5668 24.4793 24.9779 24.7797 24.8362 25.1337C24.6946 25.4878 24.262 25.4531 24.262 25.4531C23.249 25.136 21.9322 24.1282 20.8436 22.8337C19.8505 21.6527 19.307 20.3551 19.0975 19.6287C18.888 18.9023 18.6756 18.1199 18.6756 17.5568C18.6756 17.5034 17.9797 16.3183 17.5889 15.6568H16.4977C16.824 15.8828 17.6101 16.5857 17.6101 17.6985C17.6101 18.8314 17.1519 19.4793 16.7048 20.0352L16.7085 20.0382C17.1846 20.4273 17.9106 21.0207 18.0382 21.8532C18.1877 22.8287 18.0013 24.5618 17.2593 24.5618C17.9361 24.5618 18.5197 25.2239 18.6657 26.7273L18.6855 26.8563C18.8404 27.8676 18.3926 28.8321 17.6101 29.3846C18.5081 29.6728 19.3915 30.6397 19.544 31.6352C19.7033 32.6745 19.6182 33.6676 19.1746 34.3916ZM17.5866 34.3916H17.5191C17.4237 34.4177 17.3257 34.4387 17.2256 34.454L13.8589 34.97C12.4568 35.1849 11.146 34.2224 10.9311 32.8204L10.9217 32.759C10.7969 31.9447 11.0692 31.1613 11.594 30.6054L11.3236 30.6468C9.89914 30.8651 8.56746 29.8874 8.34917 28.4629L8.3294 28.3339C8.20918 27.5495 8.45171 26.7931 8.93184 26.2354C7.62918 26.1742 6.58577 25.1098 6.3891 23.8265C6.2305 22.7917 6.6303 21.9712 7.18784 21.4081C7.4797 21.1133 7.82031 20.8823 8.15994 20.7184C7.06997 20.5719 5.98407 19.9259 6.00029 18.4098C6.02435 16.1606 7.65261 15.646 8.66507 15.6568H15.405C15.5085 15.7459 15.6533 15.8789 15.8461 16.0698C16.3468 16.5655 16.7439 17.2028 16.7048 17.6985C16.6658 18.1941 16.5928 18.7606 16.1656 19.2563C16.0905 19.3434 16.0123 19.4092 15.9397 19.4703C15.7701 19.613 15.6306 19.7304 15.6306 20.0352C15.6306 20.434 15.9689 20.6805 16.3192 20.9357C16.6599 21.1839 17.0119 21.4404 17.0752 21.8532C17.2593 23.0546 16.7048 23.9299 16.1609 24.1423C15.6169 24.3548 15.4665 25.4169 16.4804 25.4169C16.9333 25.4169 17.6101 25.7054 17.6556 26.8821L17.6753 27.0111C17.8081 27.8777 17.0881 28.652 16.4804 28.7451C15.3758 28.9144 15.6458 30.3928 16.7264 30.2272C17.3301 30.1347 18.4045 30.9458 18.5339 31.79C18.7264 33.0462 18.3853 34.0668 17.5866 34.3916Z" fill="white"/>
</svg>
