<svg width="40" height="40" viewBox="0 0 40 40" fill="none" xmlns="http://www.w3.org/2000/svg">
<path d="M18.5982 10.9113V10.6503L18.1912 10.0803V9.65709L18.0121 9.46169L16.4002 5.35836L16.221 5.34214V5H15.8457V5.09731L15.4395 5.66728C15.4232 5.53676 15.3251 5.52054 15.1946 5.52054C15.1946 5.52054 12.5077 5.50433 12.0034 5.52054C11.4991 5.53676 11.5964 5.84646 11.5802 6.27047H11.4821V6.74235H12.215V7.96417C12.215 7.96417 12.0528 8.0777 12.0358 8.29008C12.0312 8.3565 12.0289 8.44532 12.0289 8.53414C10.5445 8.69324 10 9.08789 10 9.08789V23.2553C10 23.2553 10.8372 24.2648 13.6006 24.2648C15.9052 24.2648 17.0999 23.3202 17.0999 23.3202V9.48023L18.1426 11.0573L18.175 21.4628C18.029 21.74 17.9147 22.0165 18.0121 22.0165C18.1094 22.0165 18.4191 22.0165 18.4191 22.0165L18.6956 21.8049V10.9438L18.5982 10.9113ZM16.7748 20.3398C16.7748 20.3398 15.407 20.7553 13.5504 20.7793C11.6937 20.804 10.3012 20.3398 10.3012 20.3398V19.3142C10.3012 19.3142 11.6613 19.7297 13.5504 19.7212C15.3838 19.7135 16.7748 19.3142 16.7748 19.3142V20.3398Z" fill="white"/>
<path d="M24.0897 32.3902C25.1344 32.7505 25.3506 32.8946 26.6835 32.6784C26.6835 32.6784 31.3977 31.9593 33.096 31.7296C34.7943 31.5 35.7943 31.7296 35.7943 30.9602V28.8958C35.7943 28.547 33.8568 28.3844 33.096 27.9901C32.4593 27.66 32.0261 27.165 30.8091 27C30.2943 27 29.159 27 28.6649 27.165C28.3837 27.2589 27.8003 27.4439 27.6065 27.5113C27.3738 27.5922 26.8058 27.8787 26.1889 27.9901C25.6722 28.0834 25.0933 27.9982 24.9183 28.1032C24.6452 28.2671 24.6814 28.644 24.9183 28.9175C25.0458 29.0648 25.2316 29.1822 25.4587 29.22C26.1161 29.3296 27.2838 29.1972 27.8489 28.8958C28.1612 28.7292 28.179 29.0658 27.8489 29.3958C27.6007 29.5611 27.1821 29.8828 26.5189 29.9702C25.8582 30.0572 25.1051 30.3399 24.5365 30.2244C24.041 30.1237 22.439 30.1081 22.1678 30.0669C21.376 29.9466 20.7844 29.9657 19.7943 29.3958C18.8042 28.8259 18.357 28.9082 18.1441 29.1559C17.8606 29.4859 18.0082 29.8159 18.4742 30.2244C19.1807 30.8436 20.1819 31.0677 20.7943 31.5C21.4067 31.9323 23.0449 32.03 24.0897 32.3902Z" fill="white"/>
</svg>
