<svg width="40" height="40" viewBox="0 0 40 40" fill="none" xmlns="http://www.w3.org/2000/svg">
<path d="M29.7114 12.8716L29.517 12.3749L29.4522 12.0665L29.0148 11.5698C29.0148 11.5698 28.7529 11.1215 28.5145 11.1422L28.5166 11.132C28.5166 11.132 28.5652 11.1078 28.5831 11.0896C28.5984 11.0728 28.6068 11.0392 28.6068 11.0392C28.6095 10.9946 28.5736 10.8734 28.5736 10.8734L28.5334 10.7127L28.5466 10.4936C28.5466 10.4936 28.7631 10.4381 28.7928 10.4177C28.8247 10.3966 28.8136 10.3747 28.8136 10.3747C28.8136 10.3747 28.8933 10.3886 29.0134 10.2908C29.1317 10.1929 29.1233 9.70787 29.1033 9.4965C29.0852 9.28541 28.92 8.85869 28.92 8.85869C28.92 8.85869 28.967 8.75343 28.9448 8.69454C28.92 8.63508 28.873 8.6092 28.8466 8.59383C28.8239 8.5762 28.6406 8.47833 28.6114 8.47037C28.5844 8.4624 28.548 8.45444 28.548 8.45444C28.548 8.45444 28.1643 8.15402 27.9853 8.09485C27.8052 8.03625 27.7796 8.00467 27.4172 8.00012C27.0544 7.99443 26.4733 8.19214 26.1259 8.75115C25.7789 9.31158 25.7789 10.0276 25.8121 10.1679C25.8454 10.3067 25.9552 10.6711 25.9552 10.6711L25.7995 10.8393C25.7995 10.8393 25.2033 10.9246 25.142 10.8851C25.0807 10.8472 25.0421 10.9852 24.6396 11.2449C24.2359 11.5021 24.1047 11.8788 23.615 12.5533C23.4449 13.4192 23.5431 13.8955 23.5542 14.024C23.5674 14.1532 23.6033 14.2192 23.6033 14.2192L23.5796 14.399C23.5796 14.399 23.3471 14.4764 23.2491 14.4889C23.1508 14.5028 23.0842 14.5131 22.9864 14.5503C22.8881 14.5899 22.9127 14.6371 22.8892 14.6875C22.8644 14.7407 22.7334 15.5008 22.6948 15.6294C22.6603 15.758 22.6176 16.5457 22.63 16.7255C22.6427 16.9053 22.7189 16.9141 22.8409 16.9653C22.964 17.0174 23.0353 16.9994 23.0353 16.9994C23.0353 16.9994 23.149 17.1058 23.0528 17.1454C22.9546 17.1849 22.7845 17.3141 22.7472 17.3775C22.7118 17.441 22.7472 18.2296 22.7472 18.2296C22.7472 18.2296 22.8323 18.6415 22.8323 18.6935C22.8323 18.7456 22.8323 18.7456 22.8323 18.7456L22.8903 19.6218L22.8981 19.7228C22.8981 19.7228 22.9924 19.9538 22.9535 19.9609C22.9176 19.9694 22.842 19.8827 22.8077 19.9268C22.7723 19.9706 22.6649 20.1822 22.6781 20.2181C22.6924 20.2525 22.6721 20.4144 22.6721 20.4144C22.6721 20.4144 22.6713 20.7014 22.6781 20.7321C22.6875 20.7629 22.5771 20.822 22.6187 20.8741C22.6608 20.9273 22.5342 21.0326 22.5979 21.1481C22.6608 21.2636 22.7453 21.3247 22.7453 21.3247L22.4829 23.509L22.3376 24.0028L22.1562 24.5525C22.1562 24.5525 21.9866 24.5627 21.8859 24.7118C21.786 24.862 21.2979 26.1817 21.2839 26.4633C21.2725 26.7455 21.1537 26.8943 21.1489 26.9785C21.1445 27.0616 21.2266 27.1043 21.2315 27.1068L20.718 28.4317C20.718 28.4317 20.5168 28.5142 20.4288 28.6689C20.3416 28.8248 20.1823 29.076 20.1823 29.076C20.1823 29.076 19.993 29.5764 20.0006 29.6339C20.0081 29.6897 19.9919 29.7192 20.199 29.8251C20.4072 29.9312 20.6958 29.9997 20.7342 30.0447C20.7709 30.0905 21.1615 30.4458 21.1742 30.47C21.1899 30.4947 21.7501 30.9385 21.9648 30.9053C22.3052 30.9226 23.0023 30.9109 23.0353 30.8768C23.0731 30.843 23.0709 30.5903 23.0709 30.5903C23.0709 30.5903 23.0507 30.2999 22.937 30.2544C22.8215 30.2077 22.4119 30.1406 22.3587 30.0618C22.3041 29.9813 22.0752 29.0018 22.0706 28.9378C22.0674 28.8763 22.1902 28.4413 22.2955 28.2681C22.3978 28.094 22.6214 27.6243 22.6214 27.6243C22.6214 27.6243 22.7785 27.5486 22.7993 27.5236C22.8182 27.4974 23.0401 27.1572 23.068 27.059C23.0968 26.9592 23.2002 26.5231 23.2002 26.5231C23.2002 26.5231 23.6093 25.922 23.6552 25.8415C23.7003 25.7592 24.3393 24.6116 24.4112 24.4404C24.4832 24.2674 24.4265 24.0808 24.4265 24.0808C24.6107 24.0159 24.6547 23.6808 24.571 23.6578C24.5494 23.6128 24.8064 23.0814 24.8369 22.9872C24.8645 22.8928 25.1107 22.2575 25.1107 22.2575C25.1107 22.2575 25.3791 21.9972 25.4614 21.8243C25.5416 21.6527 25.6766 21.7253 25.6766 21.7253C25.6766 21.7253 25.8135 21.9901 25.962 22.0448C26.1099 22.0997 26.3087 22.3759 26.3087 22.3759L27.2104 23.7824C27.2104 23.7824 27.4677 24.1607 27.5566 24.1522C27.6424 24.1439 27.8287 24.3599 27.8287 24.3599L28.0439 24.5977L28.1106 25.1638C28.1106 25.1638 27.9699 25.2642 27.9556 25.4469C27.9426 25.6298 28.164 27.028 28.2885 27.277C28.4157 27.5253 28.3854 27.7173 28.4224 27.7924C28.4591 27.8661 28.5504 27.8582 28.5558 27.8576L28.7575 29.2726C28.7575 29.2726 28.6249 29.4524 28.6241 29.633C28.6249 29.8143 28.5601 30.0962 28.5601 30.0962C28.5601 30.0962 28.5274 30.6114 28.562 30.6566C28.5955 30.7004 28.7594 30.7721 28.9883 30.7505C29.2183 30.7286 29.4994 30.6307 29.5545 30.6489C29.6082 30.668 30.1158 30.7616 30.1387 30.7755C30.1641 30.7886 30.9606 30.7849 31.1747 30.7485C31.3877 30.7121 31.844 30.6364 31.8767 30.602C31.9142 30.5676 31.8931 30.2544 31.8931 30.2544C31.8931 30.2544 31.8634 30.0913 31.7495 30.0481C31.6334 30.0034 31.4587 29.8857 31.3299 29.8743C31.202 29.8629 31.0416 29.8225 30.9576 29.7835C30.8718 29.744 30.2 29.0268 30.1649 28.9748C30.132 28.9235 30.027 28.484 30.0329 28.2778C30.0362 28.0727 30.0002 27.5486 30.0002 27.5486C30.0002 27.5486 30.0985 27.3984 30.1042 27.3657C30.1077 27.333 30.1328 26.9208 30.1093 26.8215C30.0853 26.7202 29.963 26.2895 29.963 26.2895C29.963 26.2895 30.0227 25.5519 30.0229 25.4577C30.0218 25.3624 30.0137 24.031 29.9924 23.8452C29.9703 23.6575 29.831 23.5283 29.831 23.5283C29.831 23.5283 29.7886 23.1155 29.7497 23.0871C29.7092 23.0601 29.625 23.1141 29.5942 23.0945C29.5612 23.074 29.5953 22.1162 29.1571 21.1583C28.7186 20.201 28.0668 19.5333 28.0668 19.5333L27.93 18.8745L28.0636 18.5999C28.0636 18.5999 28.3911 18.7578 28.4942 18.749C28.5987 18.7411 28.9097 18.0822 28.889 17.9724C28.8647 17.862 29.0353 16.1904 28.974 16.0638C28.916 15.9389 28.916 15.8052 28.7972 15.7102C28.6784 15.6169 28.4632 15.5386 28.4632 15.5386C28.4632 15.5386 28.5714 15.2613 28.5925 15.2052C28.6111 15.1492 28.5876 14.9867 28.5876 14.9867C28.5876 14.9867 29.082 15.2849 29.3344 15.4243C29.588 15.5631 30.6323 16.0951 30.797 16.1113C30.9587 16.1289 31.0535 16.1113 31.0535 16.1113C31.0535 16.1113 31.1231 16.2114 31.2049 16.2148C31.5297 16.2265 31.7865 15.9306 31.7997 15.9116C31.8157 15.8917 32.0781 15.7821 32.0781 15.7821C32.0781 15.7821 32.4231 15.3836 32.9045 15.0115C33.5822 14.4883 34.2715 13.5583 34.548 13.3606C34.5917 13.3473 34.6781 13.3382 34.6781 13.3382C34.6781 13.3382 35.2111 13.4494 35.3102 13.2548C35.4406 12.9991 35.5245 12.7288 35.5472 12.547C35.5502 12.524 35.622 12.4133 35.622 12.4133C35.6871 12.4392 36.0988 12.4386 36.0013 12.0785C36.0205 12.0688 36.0883 12.0546 36.0883 12.0546L36.9574 12.0492C36.9574 12.0492 36.9906 12.0381 36.993 12.0193C37.0046 11.9322 37 11.6938 36.9933 11.596C36.9925 11.584 36.963 11.5729 36.9574 11.5729C36.4627 11.5727 35.0194 11.5613 34.7866 11.5687C34.5917 11.5746 34.6047 11.9658 34.6047 11.9658L34.585 12.0699C34.585 12.0699 34.4478 12.1388 34.3873 12.2261C34.3082 12.3615 34.2205 12.5194 34.0218 12.6423C33.7747 12.7558 32.0776 13.6892 31.8829 13.795C31.6518 13.9208 31.2835 14.0349 31.2835 14.0349L30.7973 13.5555L29.7114 12.8716Z" fill="white"/>
<path d="M3 18.7179L7.9892 15.8373L7.9892 21.5984L3 18.7179Z" fill="white"/>
<rect x="11.8698" y="19.8266" width="2.21742" height="2.21742" transform="rotate(-180 11.8698 19.8266)" fill="white"/>
<rect x="15.5654" y="19.8266" width="2.21742" height="2.21742" transform="rotate(-180 15.5654 19.8266)" fill="white"/>
<rect x="19.2611" y="19.8266" width="2.21742" height="2.21742" transform="rotate(-180 19.2611 19.8266)" fill="white"/>
</svg>
