<svg width="40" height="40" viewBox="0 0 40 40" fill="none" xmlns="http://www.w3.org/2000/svg">
<path fill-rule="evenodd" clip-rule="evenodd" d="M36.0905 34.8H4.11517L2.5686 34.8C2.6464 34.6095 2.78453 33.8191 2.92564 33.0117C3.08693 32.0889 3.25209 31.1439 3.33548 31.0469C3.40515 30.9665 3.44153 30.6359 3.48466 30.2439C3.53825 29.7569 3.60226 29.1752 3.75347 28.8607C3.98343 28.3833 4.37286 26.8504 4.52963 26.2333L4.52965 26.2332L4.52973 26.2329L4.52979 26.2327C4.55893 26.118 4.58002 26.035 4.59051 25.9964C4.61291 25.9146 4.63461 25.8339 4.656 25.7544L4.65601 25.7544L4.65602 25.7543C5.04705 24.3004 5.33378 23.2343 7.85748 22.7805C8.09533 22.7384 8.63284 22.175 8.63284 22.175L10.1367 21.7816C10.1412 21.6923 10.1464 21.6076 10.1506 21.5372C10.1558 21.4523 10.1597 21.3883 10.1597 21.3626C10.1597 21.248 10.2636 20.9134 10.2636 20.9134L10.7036 20.7601C10.7036 20.7601 12.2993 20.2055 12.4672 20.1428C12.6339 20.0762 13.1884 19.9229 13.4084 19.8709C13.5902 19.8279 13.8668 20.0163 14.0597 20.1477C14.1001 20.1753 14.1368 20.2003 14.1682 20.2202C14.3495 20.3348 14.5415 20.7601 14.5415 20.7601C14.5415 20.7601 14.6562 20.8094 14.6562 20.7467C14.6562 20.7268 14.6614 20.6947 14.6682 20.6537C14.6827 20.566 14.7039 20.4373 14.6948 20.2975C14.6815 20.0922 14.7855 19.6803 15.1067 19.3843C15.428 19.0884 16.5745 19.1404 16.5745 19.1404L16.5611 18.4818C16.5611 18.4818 16.5718 18.2885 16.2119 17.9792C15.9342 17.7407 15.7859 17.1022 15.6909 16.6937C15.6628 16.5727 15.6394 16.4718 15.6187 16.4075C15.5556 16.212 15.4993 15.8986 15.4628 15.6952L15.4628 15.6952L15.4628 15.6952C15.4468 15.606 15.4345 15.538 15.4272 15.5104C15.3992 15.4198 15.2626 15.2904 15.018 15.2904C14.6317 15.2279 14.5921 14.7773 14.5635 14.451C14.5568 14.3742 14.5507 14.3043 14.5408 14.248C14.5037 14.0363 14.5194 13.649 14.5316 13.3501V13.35V13.35V13.35C14.5365 13.2291 14.5408 13.1227 14.5408 13.0482C14.5408 12.7896 14.6554 12.3671 14.7287 12.2445C14.7664 12.1212 14.8135 12.0774 14.8586 12.0355C14.9407 11.9592 15.0161 11.889 15.0161 11.3559C15.0028 10.8787 15.3374 8.72882 15.5187 8.30357C15.7 7.87831 17.1437 5.41743 20.4551 5.3921C23.7665 5.36677 25.5688 6.93982 26.1514 8.79548C26.4193 9.65665 26.5073 11.8039 26.4687 11.9185C26.4891 12.0304 26.5362 12.0804 26.5966 12.1446C26.6974 12.2518 26.8356 12.3986 26.9493 12.9396C26.9919 13.061 27.0999 14.252 26.8626 14.6946C26.8626 14.6946 26.6947 15.0758 26.5067 15.1158C26.3186 15.1558 26.2727 15.2278 26.2727 15.5131C26.2727 15.9837 26.1158 16.5272 25.8918 16.9088C25.6678 17.2904 25.2181 17.9792 25.0044 18.13C24.8297 18.4339 24.8156 18.7804 24.9196 18.7804C25.0236 18.7804 26.37 18.8124 26.5233 18.9791C26.5808 19.0415 26.6524 19.0777 26.7234 19.1136C26.842 19.1736 26.9587 19.2326 27.0046 19.411C27.0952 19.7736 27.6431 20.2268 27.6431 20.2268C27.6431 20.2268 29.3175 19.9962 29.6761 19.9722C30.0387 19.9482 30.8132 20.4881 30.8372 20.5268C30.8485 20.5441 31.0069 20.6428 31.1807 20.751L31.1807 20.751C31.3943 20.884 31.6309 21.0313 31.6464 21.06C31.6593 21.0841 31.5205 21.159 31.3701 21.2402C31.1957 21.3344 31.0056 21.4371 31.0185 21.4786C31.0382 21.5423 31.1746 21.6765 31.3078 21.8075L31.3079 21.8076L31.308 21.8077C31.3364 21.8357 31.3648 21.8635 31.3917 21.8905C31.4453 21.9427 31.4806 22.043 31.5048 22.1572L31.5728 22.175C31.5728 22.175 32.1103 22.7384 32.3482 22.7805C34.8719 23.2343 35.1586 24.3004 35.5496 25.7543C35.571 25.8339 35.5928 25.9146 35.6152 25.9964C35.6256 26.035 35.6467 26.1179 35.6758 26.2325L35.676 26.2333L35.6761 26.2334C35.8329 26.8506 36.2223 28.3834 36.4522 28.8607C36.6034 29.1752 36.6674 29.7569 36.721 30.2439C36.7641 30.6359 36.8005 30.9665 36.8702 31.0469C36.9536 31.1439 37.1187 32.0889 37.28 33.0117C37.4211 33.8191 37.5593 34.6095 37.6371 34.8L36.0905 34.8ZM19.8847 26.453L15 33.4206H8.00003V31.9206C9.3312 31.3946 12.957 27.5686 14.9481 25.4676L14.9481 25.4676C15.6922 24.6824 16.208 24.1381 16.2904 24.0971C16.5673 23.9591 16.5909 23.6191 16.6207 23.1881C16.6316 23.0303 16.6434 22.8603 16.6687 22.6835C16.7633 22.0239 17.52 20.2333 17.7092 19.8564C17.8376 19.6005 17.8788 18.9973 17.9217 18.3709V18.3709C17.9419 18.0745 17.9626 17.7729 17.9929 17.5004C18.0875 16.6523 18.1821 16.4638 18.4659 15.8984C18.6077 15.6157 18.8205 15.1445 19.0334 14.6734L19.0334 14.6733L19.0334 14.6732C19.2462 14.202 19.459 13.7309 19.6009 13.4482C19.8847 12.8828 20.263 12.977 20.4522 13.0712C20.5214 13.1057 20.6413 13.1655 20.7516 13.2828C20.8619 13.1655 20.9818 13.1057 21.0511 13.0712C21.2402 12.977 21.6186 12.8828 21.9023 13.4482C22.0442 13.7309 22.257 14.2021 22.4698 14.6733C22.6827 15.1445 22.8955 15.6157 23.0374 15.8984C23.3211 16.4638 23.4157 16.6523 23.5103 17.5004C23.5407 17.7729 23.5613 18.0745 23.5816 18.3709C23.6244 18.9973 23.6657 19.6005 23.7941 19.8564C23.9832 20.2333 24.7399 22.0239 24.8345 22.6835C24.8599 22.8603 24.8716 23.0303 24.8826 23.1881C24.9124 23.6191 24.9359 23.9591 25.2129 24.0971C25.2952 24.1381 25.811 24.6824 26.5552 25.4676C28.5462 27.5686 32.172 31.3946 33.5032 31.9206V33.4206H26.5032L21.6186 26.453C21.2417 26.2027 20.9066 25.9109 20.7516 25.3568C20.5967 25.9109 20.2615 26.2027 19.8847 26.453ZM20.7516 22.932C20.7673 22.5222 20.7673 22.2401 20.7673 21.9296C20.763 21.6232 20.7577 21.2724 20.7516 20.8937C20.7456 21.2724 20.7403 21.6232 20.736 21.9296C20.736 22.2401 20.736 22.5222 20.7516 22.932Z" fill="white"/>
</svg>
