<svg width="40" height="40" viewBox="0 0 40 40" fill="none" xmlns="http://www.w3.org/2000/svg">
<path fill-rule="evenodd" clip-rule="evenodd" d="M19.8217 32.6298C8.36218 29.9554 6 15.4108 6 6.93054C11.3697 3.1673 26.8124 2.88161 33.4864 6.93054C33.4864 15.2885 31.6015 30.044 19.8217 32.6298ZM29.7929 9.60495H30.3866C30.3866 9.60495 30.4178 9.67648 30.4217 9.74607C30.4243 9.8163 30.4009 9.89889 30.4009 9.89889H29.7981L29.7623 9.94832H29.7103L29.6836 9.92296L29.6179 9.921V9.86052H28.4148L28.3661 9.88394V9.90735H27.9518V9.87678H27.8224V10.1102H26.023C26.0008 10.1376 25.9716 10.1675 25.9345 10.1857C25.8997 10.2036 25.8604 10.2086 25.8307 10.2124C25.8054 10.2156 25.787 10.218 25.7843 10.2267C25.7781 10.2442 25.7798 10.265 25.7817 10.2866C25.7843 10.317 25.787 10.3492 25.768 10.3769C25.7499 10.4036 25.713 10.4271 25.6781 10.4495C25.6491 10.468 25.6215 10.4857 25.6067 10.5037C25.5892 10.5239 25.5365 10.5869 25.4936 10.652C25.4461 10.7183 25.3317 10.7333 25.3317 10.7333L25.3154 11.0558C25.3193 11.0864 25.3252 11.1182 25.3317 11.1527C25.3967 11.5136 25.5072 11.8583 25.5072 11.8583L25.1489 11.9533C25.0702 12.2908 24.9935 12.638 24.9902 12.6855C24.987 12.7798 24.8582 13.0081 24.747 13.0959C24.6345 13.1824 24.5383 13.2045 24.5383 13.2045C24.5383 13.2045 24.4823 13.2851 24.4674 13.3027C24.455 13.3196 24.2138 13.583 23.9081 13.5725C23.8314 13.5693 23.7657 13.4802 23.7657 13.4802C23.7657 13.4802 23.6766 13.4958 23.5244 13.4802C23.3696 13.4659 22.943 13.2702 22.7044 13.1466C22.467 13.0224 22.002 12.757 22.002 12.757C22.002 12.757 22.0241 12.9014 22.0066 12.9515C21.9871 13.0009 21.885 13.248 21.885 13.248C21.885 13.248 22.0872 13.3176 22.1991 13.4009C22.2755 13.4586 22.2997 13.5324 22.3248 13.6088C22.3364 13.6443 22.3482 13.6804 22.3656 13.7156C22.4001 13.7828 22.3568 14.3399 22.3211 14.7991C22.297 15.1092 22.2764 15.3747 22.2856 15.4143C22.3051 15.5118 22.0124 16.0984 21.9142 16.1055C21.8173 16.1133 21.5091 15.9729 21.5091 15.9729L21.3836 16.2174L21.5123 16.804C21.5123 16.804 22.1256 17.3984 22.5379 18.2503C22.8166 18.8266 23.0347 19.4097 23.1558 19.7335C23.2138 19.8888 23.2496 19.9845 23.2591 19.9912C23.2717 20.0005 23.2964 19.9968 23.3227 19.9927C23.3533 19.9881 23.3862 19.983 23.4054 19.9977C23.4392 20.0263 23.4464 20.3957 23.4464 20.3957C23.4464 20.3957 23.5667 20.5219 23.5725 20.6903C23.5771 20.8369 23.5015 21.7701 23.479 22.0487C23.4759 22.0865 23.4738 22.1122 23.473 22.1223C23.4652 22.2055 23.3508 22.8546 23.3508 22.8546C23.3508 22.8546 23.4314 23.2467 23.4457 23.3384C23.46 23.4281 23.4035 23.7917 23.3976 23.8203C23.3898 23.8489 23.2858 23.9738 23.2858 23.9738C23.2858 23.9738 23.278 24.4413 23.2584 24.6228C23.2363 24.8049 23.3001 25.2035 23.3267 25.2516C23.3553 25.3011 23.9276 25.993 24.005 26.0353C24.0804 26.0769 24.2274 26.1263 24.3464 26.1471C24.4251 26.1608 24.5188 26.217 24.6036 26.2679C24.6478 26.2944 24.6895 26.3195 24.7256 26.3364C24.829 26.3845 24.8439 26.5315 24.8439 26.5315C24.8439 26.5315 24.8387 26.8111 24.801 26.8384C24.77 26.8646 24.3892 26.8913 24.1744 26.9063C24.1593 26.9074 24.1451 26.9084 24.1318 26.9093C23.9283 26.9236 23.1817 26.8599 23.1589 26.8462C23.1485 26.8389 23.019 26.8019 22.8893 26.7649C22.7674 26.7301 22.6454 26.6953 22.6218 26.6849C22.597 26.6746 22.5178 26.6849 22.4178 26.6979C22.3161 26.7112 22.1928 26.7272 22.0833 26.7272C21.8668 26.7272 21.7191 26.6498 21.6912 26.6082C21.6626 26.5653 21.7341 26.1114 21.7341 26.1114C21.7341 26.1114 21.8173 25.8668 21.831 25.7062C21.8459 25.5462 21.9845 25.398 21.9845 25.398L21.9077 24.1266C21.9025 24.1266 21.8167 24.1259 21.7881 24.0577C21.7781 24.0334 21.7769 23.9972 21.7753 23.9506C21.7724 23.8634 21.7683 23.7398 21.7035 23.5894C21.6066 23.3579 21.5104 22.1002 21.537 21.9389C21.565 21.7783 21.7048 21.7009 21.7048 21.7009L21.7673 21.0168L21.5787 20.7306C21.5787 20.7306 21.3472 20.7579 21.2659 20.7579C21.182 20.7579 20.9797 20.6812 20.9797 20.6812L19.9093 19.0879C19.9093 19.0879 19.6713 19.0879 19.5321 19.0391C19.3923 18.9904 19.1679 18.4591 19.1679 18.4591C19.1679 18.4591 19.1367 18.6899 19.0613 18.8427C18.9839 18.9969 18.7316 19.2284 18.7316 19.2284C18.7316 19.2284 18.5001 19.7942 18.474 19.8781C18.4679 19.896 18.4551 19.9287 18.4386 19.9706C18.3782 20.1245 18.2688 20.4031 18.2627 20.5355C18.2568 20.7027 18.2094 20.9199 18.1606 21.0103C18.1099 21.102 17.8933 21.1852 17.8933 21.1852C17.8933 21.1852 17.7678 21.5039 17.6689 21.6326C17.6262 21.6891 17.5761 21.718 17.5304 21.7445C17.4719 21.7784 17.4204 21.8081 17.4004 21.8862C17.3646 22.0254 17.215 22.3037 17.215 22.3037C17.215 22.3037 17.23 22.4923 17.2579 22.5834C17.284 22.6744 17.2579 22.8214 17.1318 23.1427C17.0576 23.3328 16.954 23.5348 16.8788 23.6814C16.8266 23.7829 16.7881 23.8579 16.7826 23.884C16.7682 23.9471 16.5998 24.4784 16.5153 24.5968C16.4314 24.7151 16.2577 24.708 16.2577 24.708C16.2577 24.708 15.941 25.4019 15.928 25.6113C15.9131 25.8207 15.9059 26.179 15.9092 26.2427C15.9096 26.2539 15.91 26.266 15.9104 26.2789C15.9135 26.3804 15.918 26.5263 15.9671 26.5887C16.036 26.6739 16.0659 26.8547 16.0659 26.8547C16.0659 26.8547 16.0379 27.1688 16.01 27.1759C15.9814 27.1831 15.5086 27.241 15.2029 27.239C15.002 27.239 14.5806 27.1668 14.5455 27.1311C14.5136 27.0947 14.4765 26.7708 14.4765 26.5822C14.4765 26.4479 14.5257 26.2756 14.5823 26.0769C14.6055 25.9956 14.6299 25.91 14.6528 25.8207C14.7282 25.5131 14.9773 24.5415 14.9773 24.5415C14.9773 24.5415 14.9461 24.5207 14.8771 24.4583C14.8135 24.4006 14.8189 24.2842 14.8263 24.126C14.827 24.1112 14.8277 24.096 14.8283 24.0804C14.8361 23.8977 14.87 23.7793 14.9409 23.6467C14.967 23.5966 15.0035 23.5339 15.0424 23.4674C15.107 23.3566 15.1778 23.2351 15.2172 23.1433C15.2589 23.0463 15.2637 22.9617 15.2702 22.8469C15.2735 22.7878 15.2773 22.7208 15.2868 22.64C15.3082 22.4495 15.5709 21.9956 15.6964 21.7788C15.7278 21.7246 15.7506 21.6852 15.759 21.6684C15.8012 21.5858 15.9612 21.4245 15.9612 21.4245C15.9612 21.4245 15.984 21.3192 16.0249 21.2359C16.0666 21.152 16.2337 20.9069 16.2337 20.9069C16.2337 20.9069 16.3117 20.691 16.2421 20.4042C16.1706 20.118 16.5068 18.3979 16.5068 18.3979C16.5068 18.3979 16.4275 18.3433 16.3683 18.2405C16.3343 18.1822 16.358 18.1267 16.3776 18.081C16.3925 18.0463 16.4049 18.0172 16.3878 17.9967C16.3488 17.9505 16.3013 17.8751 16.2922 17.8478C16.2857 17.8204 16.4379 17.5876 16.4379 17.5876C16.4379 17.5876 16.2916 17.4894 16.2779 17.4589C16.2656 17.427 16.3683 17.0459 16.4015 17.0069C16.434 16.9679 16.4945 16.9282 16.5283 16.9204C16.5647 16.9139 16.6505 16.9724 16.6505 16.9724L16.6427 16.8814L16.5881 16.1016V16.0555C16.5881 16.0093 16.5081 15.6425 16.5081 15.6425C16.5081 15.6425 16.475 14.9408 16.5081 14.8842C16.5432 14.8277 16.7032 14.7126 16.7956 14.6774C16.886 14.6423 17.1155 14.6202 17.1155 14.6202C17.1155 14.6202 16.475 14.5175 16.3592 14.4713C16.3034 14.4491 16.2828 14.4538 16.2751 14.4459C16.2669 14.4376 16.2729 14.4154 16.2669 14.3334C16.2551 14.1734 16.3397 13.7247 16.3722 13.6103C16.3921 13.5476 16.4076 13.2165 16.4214 12.922C16.4327 12.6788 16.4429 12.4605 16.4535 12.439C16.4756 12.3942 16.5218 12.348 16.6141 12.3129C16.6679 12.2934 16.7527 12.301 16.8323 12.3082C16.8885 12.3132 16.942 12.318 16.9803 12.3129C17.0726 12.3018 17.2911 12.2329 17.2911 12.2329L17.3132 12.0729C17.3132 12.0729 17.2794 12.0144 17.267 11.8993C17.2658 11.8856 17.2634 11.8674 17.2604 11.8448C17.2381 11.6783 17.1835 11.2685 17.3243 10.5902C17.4849 9.82151 17.8855 9.29345 18.2653 9.06453C18.6438 8.83367 19.1133 8.84603 19.1712 8.87984C19.2291 8.91496 19.3793 9.06453 19.3793 9.06453L19.5256 8.91496C19.5256 8.91496 19.4222 8.59045 19.391 8.46689C19.3598 8.34203 19.3598 7.70471 19.6862 7.20592C20.0133 6.70842 20.5596 6.53219 20.901 6.53739C21.1887 6.54068 21.2507 6.56112 21.3647 6.59869C21.3857 6.60564 21.4086 6.61317 21.4349 6.62128C21.6034 6.67396 21.9643 6.94124 21.9643 6.94124C21.9643 6.94124 21.9988 6.94839 22.0241 6.95555C22.0514 6.9627 22.2238 7.04984 22.2452 7.06545L22.2471 7.06646C22.2721 7.08025 22.3147 7.10379 22.3376 7.15519C22.3584 7.20787 22.3142 7.30152 22.3142 7.30152C22.3142 7.30152 22.4696 7.6813 22.4865 7.86925C22.5054 8.05719 22.5132 8.489 22.402 8.57614C22.2888 8.66329 22.214 8.65093 22.214 8.65093C22.214 8.65093 22.2244 8.67044 22.1945 8.6893C22.1666 8.70751 21.963 8.75693 21.963 8.75693L21.9506 8.95203L21.9884 9.0951C21.9884 9.0951 22.0222 9.20305 22.0196 9.24272C22.0196 9.24272 22.0118 9.27264 21.9975 9.28759C21.9806 9.30385 21.935 9.32531 21.935 9.32531L21.9331 9.33442C22.1574 9.31621 22.3623 9.29865 22.3623 9.29865L22.5164 9.24142L22.653 9.23882L22.692 9.17769H22.9899C22.9899 9.17769 22.9612 9.12501 22.9749 9.06453C22.9886 9.0034 23.0139 8.98975 23.0139 8.98975L23.0523 8.66068L23.1524 8.65613L23.1778 8.993L23.211 9.04632L23.4347 9.06648L23.436 9.2089H27.81V9.42286H27.9518V8.60996H28.1118V9.28694H28.1736V9.38579H28.262V9.33767H28.3791L28.4194 9.47358H28.3661V9.63877L28.4083 9.65762H29.6036V9.5991H29.668L29.7044 9.56333H29.7571L29.7929 9.60495ZM23.8502 10.4289C23.8502 10.4289 23.8158 10.4341 23.7989 10.4484C23.7989 10.449 23.7981 10.4494 23.7974 10.4499C23.7964 10.4505 23.7952 10.4512 23.7956 10.4523L23.8912 10.4679V10.4289C23.8912 10.4211 23.8502 10.4289 23.8502 10.4289ZM23.8769 11.5117C23.8769 11.5117 24.0401 11.3036 24.0948 11.2047C24.1305 11.141 24.2684 10.9752 24.3705 10.8568C24.3471 10.8614 24.3334 10.8575 24.3334 10.8575H23.7377L23.7163 10.836C23.7163 10.836 23.6714 10.849 23.6681 10.8542C23.6668 10.8601 23.5927 10.9836 23.579 11.0057C23.6213 11.0571 23.6564 11.1039 23.6701 11.1241C23.7137 11.1859 23.8769 11.5117 23.8769 11.5117ZM24.3991 10.7599C24.4316 10.7281 24.4316 10.7046 24.4316 10.7046H24.4303V10.4959C24.4303 10.4959 24.4232 10.4725 24.4024 10.4458C24.3802 10.4185 24.3328 10.4257 24.3328 10.4257H24.1513C24.1513 10.4257 24.1416 10.4231 24.0648 10.4575C24.0388 10.4692 24.0213 10.4803 24.0089 10.4939C24.0154 10.5011 24.018 10.5069 24.0193 10.5115C24.0213 10.518 24.044 10.626 24.0375 10.6455C24.0297 10.6637 24.0213 10.6825 24.0089 10.6955L24.0066 10.6978C23.9983 10.7062 23.9895 10.715 23.9764 10.7222C23.9914 10.7482 24.0076 10.7671 24.0076 10.7671L23.9855 10.7697C23.9855 10.7697 23.9666 10.7599 23.9445 10.7372C23.9304 10.7409 23.9097 10.7433 23.8894 10.7458C23.8704 10.748 23.8517 10.7503 23.8392 10.7534C23.8262 10.7573 23.8125 10.7612 23.8034 10.7638C23.8034 10.7671 23.806 10.771 23.8093 10.7729C23.8366 10.8002 23.9159 10.7957 23.9159 10.7957H24.3334C24.3334 10.7957 24.3679 10.7911 24.3991 10.7599Z" fill="white"/>
<path d="M30.4344 32.9445C30.9247 32.5461 31.0085 32.2596 31.0085 32.1144C31.0085 31.9692 30.9247 31.6827 30.4344 31.2842C29.9522 30.8923 29.1935 30.4949 28.1674 30.1422C27.8379 30.0289 27.4864 29.9222 27.115 29.8227L27.9359 29.0169C30.4331 29.7731 32.0085 30.8805 32.0085 32.1144C32.0085 34.3934 26.634 36.2408 20.0042 36.2408C13.3745 36.2408 8 34.3934 8 32.1144C8 30.9191 9.47845 29.8425 11.841 29.0889L12.6886 29.8789C12.3923 29.9621 12.1094 30.05 11.841 30.1422C10.815 30.4949 10.0563 30.8923 9.57405 31.2842C9.08374 31.6827 9 31.9692 9 32.1144C9 32.2596 9.08374 32.5461 9.57405 32.9445C10.0563 33.3365 10.815 33.7338 11.841 34.0865C13.8834 34.7886 16.7696 35.2408 20.0042 35.2408C23.2389 35.2408 26.125 34.7886 28.1674 34.0865C29.1935 33.7338 29.9522 33.3365 30.4344 32.9445Z" fill="white"/>
</svg>
