<svg width="40" height="40" viewBox="0 0 40 40" fill="none" xmlns="http://www.w3.org/2000/svg">
<path d="M22.5521 36.6996L22.627 36.7317L22.7692 36.8739C22.7692 36.8739 23.354 37 23.8596 37C24.3653 37 24.871 36.9209 24.887 36.8653C24.903 36.8097 24.8549 36.5414 24.7919 36.4623C24.7288 36.3831 24.4123 35.8614 24.3653 35.6722C24.3183 35.483 24.191 35.1826 24.191 35.1035C24.191 35.0244 24.2541 35.0083 24.2541 35.0083C24.2541 35.0083 24.3332 34.7079 24.3493 34.6128C24.3653 34.5176 24.3172 34.3444 24.3332 34.0911C24.3493 33.8377 24.3803 33.4902 24.3803 33.4432C24.3803 33.3962 24.4433 33.2379 24.5225 33.1588C24.6016 33.0797 24.7117 32.9375 24.7277 32.8114C24.7438 32.6852 24.8539 32.4318 24.7748 32.1475C24.6956 31.8631 24.4433 31.1992 24.4273 31.1522C24.4113 31.1051 24.1739 30.7726 24.1109 30.5994C24.0478 30.4252 23.9366 30.0617 23.9366 30.0617C23.9366 30.0617 23.9836 29.3818 23.9836 29.2086C23.9836 29.0343 23.8575 28.2763 23.8415 28.1181C23.8254 27.9599 23.6394 27.5494 23.6854 27.4382C23.7313 27.327 23.7655 27.1217 23.6854 27.0587C23.6052 26.9956 23.6864 26.8844 23.6854 26.7422C23.6843 26.6 23.5261 26.2366 23.5261 26.2366C23.5261 26.2366 23.7153 26.1104 23.7794 26.0623C23.8425 26.0153 24.0959 25.841 24.1109 25.7779C24.1269 25.7148 24.206 25.3984 24.1579 25.2562C24.1098 25.114 24.0317 24.7666 24.0317 24.7666C24.0317 24.7666 24.206 24.7195 24.253 24.6404C24.3001 24.5613 24.4273 24.3721 24.4273 24.1978C24.4273 24.0236 24.2851 23.7873 24.253 23.7392C24.221 23.6922 24.1109 23.597 24.0317 23.597C23.9526 23.597 23.9879 23.5339 23.9729 23.4548C23.9569 23.3757 23.9377 23.2774 23.8938 23.2528C23.85 23.2292 23.7794 23.1811 23.7399 23.1854C23.7003 23.1897 23.6052 23.1341 23.6052 23.1341C23.6052 23.1341 23.3764 22.8936 23.3679 22.8807C23.3604 22.869 23.2535 22.7268 23.2299 22.6787C23.2064 22.6316 23.123 22.5247 23.0878 22.5012C23.0525 22.4777 22.9178 22.3986 22.9178 22.3986C22.9178 22.3986 22.8504 21.9603 22.8387 21.8694C22.8269 21.7785 22.7948 21.5893 22.7948 21.5893C22.7948 21.5893 22.8419 21.554 22.8665 21.5305C22.89 21.507 22.9498 21.4909 22.9456 21.4353C22.9413 21.3797 22.9263 21.3124 22.89 21.2696C22.8547 21.2258 22.8226 21.167 22.8269 21.1552C22.8312 21.1435 22.8739 21.1232 22.8739 21.1232C22.8739 21.1232 22.89 21.0515 22.89 21.0398C22.89 21.028 22.8622 20.9254 22.8622 20.9254L22.8782 20.8741C22.8782 20.8741 22.8504 20.625 22.8461 20.6132C22.8419 20.6015 22.8579 20.424 22.8579 20.424L22.9092 20.3406L23.2652 20.3524C23.2652 20.3524 23.4673 20.3524 23.5058 20.3481C23.5453 20.3438 23.6009 20.3246 23.6009 20.3246L23.6202 20.2529H23.7698C23.7698 20.2529 23.8447 20.2604 23.8767 20.2294C23.9088 20.1973 23.9238 20.0081 23.9238 20.0081L23.9002 19.7152V19.6436L23.865 19.1497L23.8297 19.1219L23.8254 18.675H23.928C23.928 18.675 23.928 18.3746 23.928 18.3275C23.928 18.2805 23.896 17.8293 23.8928 17.7983C23.8885 17.7663 23.912 17.7513 23.912 17.7267C23.912 17.7021 23.8799 17.4659 23.8725 17.4306C23.865 17.3953 23.8254 17.1377 23.8169 17.1024C23.8094 17.0671 23.7773 16.988 23.7773 16.9559C23.7773 16.9238 23.8211 16.8608 23.8211 16.8608C23.8211 16.8608 24.0499 16.6117 24.0777 16.5133C24.1055 16.415 24.2552 15.7425 24.2595 15.6164C24.2637 15.4902 24.129 15.2411 24.1173 15.2058C24.1055 15.1706 24.1215 15.1032 24.1333 15.0636C24.1451 15.0241 24.1729 14.8894 24.1729 14.791C24.1729 14.6927 24.1568 14.0085 24.1215 13.9133C24.0863 13.8182 23.9045 13.6054 23.8767 13.5851C23.8489 13.5659 23.7271 13.2612 23.6629 13.1382C23.5998 13.0153 23.386 12.7395 23.323 12.6999C23.2599 12.6604 23.0824 12.6604 23.0268 12.6251C22.9712 12.5898 22.8568 12.5342 22.8493 12.4989C22.8419 12.4637 22.8419 12.2894 22.7938 12.2424C22.7467 12.1953 22.6868 12.1397 22.6794 12.1162C22.6719 12.0927 22.8804 12.004 22.8718 11.9879C22.8632 11.9719 22.6313 11.8361 22.6238 11.8243C22.6163 11.8126 22.379 11.6469 22.2678 11.6544C22.1577 11.6618 21.6445 11.7324 21.6445 11.7324C21.6445 11.7324 21.4767 11.5934 21.4489 11.4822C21.4264 11.3946 21.3484 11.401 21.3013 11.3497C21.2543 11.2984 20.8416 11.2887 20.8096 11.2887C20.7775 11.2887 20.801 11.1594 20.8545 11.0664C20.9079 10.9734 20.9838 10.9081 20.9838 10.9081C20.9838 10.9081 21.0629 10.7767 21.1185 10.7146C21.1773 10.6505 21.2244 10.3544 21.2244 10.21C21.2244 10.1224 21.1966 10.1288 21.3943 10.0882C21.4906 10.0679 21.5034 9.95881 21.5034 9.95881C21.5761 9.82304 21.5429 9.13028 21.5301 9.09286C21.4767 8.93784 21.3291 8.97098 21.2842 8.93998C21.1955 8.87904 21.2714 8.8149 21.2842 8.77962C21.296 8.74434 21.2693 8.37016 21.1869 8.1061C21.0084 7.53735 20.4557 7.0552 19.4401 7.06269C18.4244 7.07017 17.9818 7.82494 17.9263 7.95536C17.8707 8.08579 17.768 8.46104 17.7723 8.6075C17.7766 8.75396 17.8044 8.78176 17.8279 8.801C17.8514 8.82025 17.8835 8.84804 17.8835 8.8598C17.8835 8.87156 17.891 8.90684 17.8717 8.91539C17.8525 8.92288 17.7969 8.91539 17.7723 8.92288C17.7488 8.93036 17.6814 8.94212 17.6622 8.97847C17.6397 9.01589 17.6045 9.3751 17.6045 9.45421C17.6045 9.53332 17.5884 9.7311 17.6045 9.82197C17.6205 9.91284 17.6045 10.1181 17.7509 10.1416C17.8974 10.1651 17.9444 10.1812 17.953 10.209C17.9605 10.2368 17.9295 10.4741 17.9573 10.5607C17.9851 10.6473 18.0289 10.9477 18.139 11.0429C18.2491 11.138 18.2459 11.1968 18.2459 11.1968L18.2502 11.3989C18.2502 11.3989 17.8985 11.3828 17.8001 11.4737C17.7018 11.5646 17.6697 11.6907 17.674 11.7538C17.6782 11.8169 17.6622 11.8725 17.6622 11.8917C17.6622 11.9109 17.6269 11.896 17.6269 11.896C17.6269 11.896 17.5681 11.7655 17.5125 11.7303C17.4569 11.695 17.3468 11.6073 17.2795 11.6234C17.2121 11.6394 17.0421 11.6864 16.9908 11.7067C16.9395 11.726 16.4499 11.896 16.4499 11.896L16.3152 11.943C16.3152 11.943 16.2831 12.0456 16.2831 12.0809C16.2831 12.1162 16.2596 12.3856 16.2831 12.4166C16.3066 12.4487 16.2906 12.4797 16.2906 12.4797C16.2906 12.4797 15.9976 12.484 15.8875 12.5192C15.7774 12.5545 15.5123 12.6144 15.4214 12.6967C15.3305 12.7801 15.3348 12.7363 15.2055 12.7662C14.9457 12.8261 15.059 12.8207 15.1734 13.0196C15.2632 13.1757 15.7902 13.4333 15.7421 13.5039C15.6951 13.5755 15.7721 13.8919 15.7528 13.9358C15.7336 13.9796 16.158 14.3762 16.143 14.3997C16.127 14.4233 16.0329 15.3063 15.9848 15.3373C15.9378 15.3694 15.9613 15.5811 15.9527 15.6003C15.9453 15.6196 16.0051 16.8116 16.0051 16.8116L16.0158 17.2959L15.6887 17.4541L15.4556 17.6113L15.523 17.6273C15.523 17.6273 15.3883 17.7107 15.3733 17.7577C15.3573 17.8048 15.3498 17.8443 15.3615 17.8764C15.3733 17.9085 15.3776 17.932 15.4011 17.9437C15.4246 17.9555 15.4203 18.4419 15.4203 18.4419L15.3883 18.5488L15.4043 18.6985C15.4043 18.6985 15.3883 19.0182 15.353 19.0502C15.3177 19.0823 15.3134 19.109 15.2696 19.1454C15.2258 19.1807 15.1905 19.2405 15.1862 19.2801C15.1819 19.3196 15.2023 19.3549 15.2333 19.403C15.2653 19.4501 15.3476 19.6286 15.3594 19.7825C15.3712 19.9365 15.3787 20.0947 15.3872 20.1065C15.3947 20.1182 15.4706 20.2444 15.5016 20.269C15.5337 20.2925 15.7624 20.5063 15.8095 20.5181C15.8565 20.5298 15.9752 20.5501 16.0383 20.5501C16.1013 20.5501 16.3066 20.6057 16.3462 20.594C16.3857 20.5822 16.5204 20.5897 16.5204 20.5897C16.5204 20.5897 16.5279 20.8548 16.4884 20.9094C16.4488 20.9639 16.3782 21.4385 16.3226 21.6053C16.2671 21.771 16.1762 22.0479 16.1601 22.0832C16.1441 22.1185 16.1644 22.1505 16.1644 22.1505L16.2874 22.1944C16.2874 22.1944 16.359 22.3366 16.3226 22.3686C16.2863 22.4007 16.1762 22.4007 16.1762 22.4007L16.0896 22.4242C16.0896 22.4242 15.9592 22.8903 15.9709 22.9374C15.9827 22.9844 16.0618 23.0475 16.0618 23.0475V23.1266C16.0618 23.1266 16.0105 23.38 16.0105 23.4431C16.0105 23.5061 15.9944 23.6088 15.9944 23.6088L15.9153 23.6408L15.787 23.628L15.8458 23.0357C15.8458 23.0357 15.8929 22.4274 15.8694 22.3761C15.8458 22.3248 15.8298 22.281 15.7977 22.2927C15.7657 22.3045 15.6791 22.4189 15.6042 22.4392C15.5294 22.4595 15.4064 22.467 15.2878 22.4713C15.1691 22.4755 15.0312 22.4638 14.9874 22.42C14.9435 22.3761 14.8965 22.282 14.8644 22.282C14.8324 22.282 14.7736 22.2746 14.7736 22.3291C14.7736 22.3847 14.8056 23.9455 14.8056 23.9455L14.8644 26.1382C14.8644 26.1382 14.8366 26.2248 14.9318 26.2216C15.0269 26.2173 15.4214 26.2141 15.4535 26.2141C15.4856 26.2141 15.6 26.2301 15.6192 26.182C15.6384 26.135 15.6513 26.0324 15.6513 26.0195C15.6513 26.0078 15.6833 24.17 15.6791 24.1422C15.6748 24.1144 15.6555 24.0588 15.6833 24.0471C15.7111 24.0353 15.8458 24.0588 15.8458 24.0588C15.8458 24.0588 15.7988 25.9083 15.8063 26.0345C15.8138 26.1606 15.7742 26.8962 15.7902 26.9592C15.8063 27.0223 15.8095 27.3698 15.802 27.3976C15.7945 27.4254 15.7667 27.745 15.7667 27.745L15.7988 28.0893L15.787 28.4057L15.7197 28.9435L15.7036 29.493L15.7357 29.849V30.0863L15.6726 30.1964L15.5101 30.5481L15.4471 30.7737L15.368 31.0784L15.245 31.4376L15.1071 31.939L15.0323 32.3228L14.981 32.698L14.9927 32.9589L15.0836 33.2123L15.3049 33.3619L15.4749 33.5276L15.554 33.5747L15.5935 33.5864L15.5893 34.1787L15.5572 34.756C15.5572 34.756 15.5529 34.9142 15.5647 34.9378C15.5764 34.9613 15.6438 34.9773 15.6438 34.9773C15.6438 34.9773 15.6363 35.0682 15.6203 35.0842C15.6042 35.1003 15.4856 35.2467 15.4428 35.313C15.399 35.3804 15.2963 35.5065 15.2653 35.5343C15.2333 35.5621 15.0398 35.7396 15.0088 35.7599C14.9767 35.7791 14.8388 35.87 14.78 35.9491C14.7212 36.0282 14.6217 36.2848 14.6217 36.2848C14.6217 36.2848 14.5715 36.2955 14.5587 36.3564C14.5266 36.5029 14.4678 36.6921 14.4796 36.7477C14.4913 36.8033 14.5031 36.8503 14.5704 36.8621C14.6378 36.8739 15.3017 36.9209 15.5625 36.9134C15.8234 36.9059 16.6337 36.8739 16.7161 36.8546C16.7995 36.8354 16.8465 36.8033 16.8818 36.799C16.9171 36.7947 17.056 36.7798 17.0796 36.7798C17.1031 36.7798 17.2057 36.7605 17.2378 36.7402C17.2698 36.721 17.38 36.6493 17.3874 36.6376C17.3949 36.6258 17.474 36.5745 17.474 36.551C17.474 36.5275 17.4623 36.4163 17.4623 36.4163C17.4623 36.4163 17.4462 35.654 17.4462 35.6423C17.4462 35.6305 17.442 35.3697 17.442 35.3697L17.4024 35.2788L17.5254 35.22V35.1526L17.5414 34.3305C17.5414 34.3305 17.6002 33.8131 17.6002 33.8013C17.6002 33.7896 17.6323 33.6591 17.6397 33.6356C17.6472 33.6121 17.7659 33.3823 17.7659 33.3823L17.8888 33.1449L17.984 32.9514C17.984 32.9514 18.0984 32.7301 18.1069 32.6157C18.1144 32.5013 18.0556 32.2287 18.0513 32.1539C18.0471 32.0791 18.0556 31.5413 18.0556 31.5413C18.0556 31.5413 18.0994 31.1265 18.1027 31.0592C18.1069 30.9918 18.1027 30.4936 18.1027 30.4701C18.1027 30.4466 18.0706 30.2135 18.0706 30.2135C18.0706 30.2135 18.0353 30.1782 18.0513 30.1419C18.0674 30.1066 18.2053 29.7859 18.2053 29.7388C18.2053 29.6918 18.355 29.2407 18.371 29.1701C18.387 29.0995 18.4223 28.4987 18.4223 28.4549C18.4223 28.4111 18.4341 28.3009 18.4341 28.3009L18.6083 28.1545C18.6083 28.1545 18.6949 28.0444 18.711 27.8893C18.727 27.7354 18.7462 27.3206 18.743 27.3088C18.7388 27.2971 18.7313 27.1314 18.7313 27.1314C18.7313 27.1314 18.8029 27.1431 18.8264 27.1196C18.8499 27.0961 18.9013 26.9496 18.9013 26.9496C18.9013 26.9496 19.1044 26.2344 19.1151 26.2227C19.1258 26.2109 19.1151 26.12 19.1151 26.12L19.0905 26.0644C19.0905 26.0644 19.1076 25.9458 19.1151 25.934C19.1226 25.9222 19.1568 25.717 19.1568 25.717C19.1568 25.717 19.1963 25.7245 19.2081 25.6817C19.2198 25.6379 19.3182 25.1803 19.3182 25.1803C19.3182 25.1803 19.3503 25.0221 19.3503 24.975C19.3503 24.928 19.3428 24.8959 19.3428 24.8959C19.3428 24.8959 19.3898 24.9237 19.4262 24.9472C19.4625 24.9708 19.7619 25.1215 19.8014 25.1525C19.841 25.1846 19.857 25.1878 19.8688 25.2787C19.8805 25.3695 20.1221 26.0569 20.1489 26.12C20.1767 26.1831 20.414 26.7636 20.4332 26.8352C20.4525 26.9069 20.6075 27.1399 20.6267 27.187C20.646 27.234 20.6428 27.3687 20.6428 27.3847C20.6428 27.4008 20.6706 27.977 20.6941 28.0604C20.7176 28.1438 20.7454 28.3287 20.7775 28.3608C20.8096 28.3929 20.9517 28.503 20.9667 28.5265C20.9827 28.55 21.018 28.6847 21.018 28.6847C21.018 28.6847 21.0223 28.7756 21.0929 28.9178C21.1645 29.06 21.4125 29.4235 21.4285 29.4673C21.4446 29.5111 21.5868 29.8703 21.5868 29.9452C21.5868 30.02 21.5472 30.4583 21.5472 30.6016C21.5472 30.7438 21.5707 31.2494 21.606 31.4269C21.6413 31.6044 21.6926 32.0908 21.6926 32.0908C21.6926 32.0908 21.7364 32.3164 21.7322 32.4425C21.7279 32.5687 21.6766 32.7825 21.6883 32.8851C21.7001 32.9878 21.7674 33.1257 21.8027 33.162C21.838 33.1973 21.9011 33.2486 22.0005 33.2647C22.0989 33.2807 22.1897 33.2454 22.2261 33.316C22.2614 33.3876 22.3052 33.6442 22.3362 33.7233C22.3683 33.8024 22.4271 33.9606 22.4271 33.9606C22.4271 33.9606 22.4506 34.0515 22.4506 34.0793C22.4506 34.1071 22.4388 34.7945 22.4463 34.8576C22.4538 34.9207 22.4784 35.1377 22.4933 35.1505C22.5094 35.1623 22.5607 35.1387 22.5607 35.1387C22.5607 35.1387 22.5286 35.2767 22.5254 35.3322C22.5222 35.3878 22.4698 35.6605 22.4698 35.7513C22.4698 35.8422 22.4891 36.3639 22.4891 36.3799C22.4891 36.396 22.4966 36.582 22.4966 36.582L22.5521 36.6996Z" fill="white"/>
<path d="M16.1344 17.0992C16.1344 17.0992 15.88 16.2621 15.7955 15.9841C15.7111 15.7051 15.4716 15.0583 15.4427 14.9011C15.415 14.7451 15.3305 14.466 15.2867 14.311C15.2428 14.156 15.1669 13.9871 15.06 13.8374C14.9531 13.6867 14.4977 13.3253 14.3576 13.1457C14.2176 12.9661 13.7301 12.4016 13.5708 12.191C13.4126 11.9815 12.8043 11.076 12.6792 10.8953C12.5552 10.7146 12.243 10.1683 12.243 10.1683C12.243 10.1683 11.6315 9.21687 11.6048 9.07575C11.578 8.93463 10.9387 8.0334 10.9035 7.78217C10.8682 7.53094 10.5881 7.17173 10.5806 7.07765C10.5731 6.9825 10.479 6.78365 10.417 6.5987C10.355 6.41268 10.2267 5.97864 10.2267 5.97864L10.1882 5.76055C10.1882 5.76055 10.0674 5.5478 10.0642 5.50076C10.06 5.45265 9.93915 5.4751 9.9028 5.41417C9.86645 5.3543 9.78413 5.31261 9.73495 5.30085C9.68577 5.28909 9.32122 4.85611 9.28487 4.79624C9.24852 4.7353 9.03685 4.4659 9.03043 4.37182C9.02402 4.27774 9.02402 4.08638 9.0037 4.02437C8.98339 3.96343 9.04967 3.79986 9.12772 3.77741C9.20576 3.75603 9.32015 3.60422 9.32015 3.60422C9.32015 3.60422 9.4014 3.42355 9.4912 3.35299C9.58101 3.28243 9.76168 3.15842 9.80337 3.07503C9.84507 2.99271 10.1123 2.9724 10.2289 3.04296C10.3454 3.11352 10.4865 3.30809 10.5079 3.3701C10.5293 3.4321 10.7057 3.25998 10.7859 3.2696C10.865 3.28029 11.0146 3.58605 11.0189 3.63309C11.0221 3.68013 11.1429 4.02009 11.1173 4.10134C11.0916 4.18259 10.9815 4.39641 10.9398 4.46376C10.8981 4.53111 10.912 4.78555 10.9173 4.84863C10.9227 4.9117 10.9173 4.84863 10.9558 4.94057C10.9943 5.03251 11.0927 5.27839 11.0927 5.27839C11.0927 5.27839 11.1365 5.22815 11.206 5.30191C11.2755 5.37568 11.5438 5.783 11.5812 5.85997C11.6187 5.93588 11.7256 6.08662 11.7651 6.19459C11.8047 6.30257 11.9437 6.4501 11.9779 6.495C12.0121 6.5399 12.2622 6.91729 12.3114 7.0242C12.3606 7.1311 12.6204 7.42831 12.6204 7.42831C12.6204 7.42831 12.7369 7.7052 12.7594 7.79821C12.7829 7.89228 12.8374 8.18842 12.9272 8.32526C13.017 8.46103 13.2255 8.69837 13.3399 8.75289C13.4543 8.80741 13.729 9.07147 13.729 9.07147C13.729 9.07147 13.9674 9.29064 14.0743 9.44138C14.1812 9.59211 14.178 9.76637 14.2497 9.87221C14.3213 9.97805 14.4068 10.0657 14.5094 10.1534C14.6121 10.241 14.7724 10.2763 14.8419 10.3501C14.9114 10.4239 14.9937 10.6719 15.0301 10.7317C15.0664 10.7927 15.2386 10.9691 15.2738 11.014C15.3091 11.0589 15.4631 11.2053 15.5807 11.2919C15.6983 11.3785 15.8137 11.4331 15.9099 11.4566C16.0072 11.4812 16.1002 11.4577 16.2339 11.5432C16.3675 11.6287 16.5396 11.5988 16.6455 11.7495C16.7524 11.9002 16.9191 12.0136 16.9245 12.0766C16.9298 12.1397 17.1415 12.4252 17.1415 12.4252C17.1415 12.4252 17.6151 13.2291 17.6183 13.2761C17.6215 13.3232 17.1875 14.2757 17.1875 14.2757C17.1875 14.2757 17.5884 17.2413 17.5413 17.2446C17.4943 17.2478 16.1344 17.0992 16.1344 17.0992Z" fill="white"/>
<path d="M21.5151 13.6867C21.5333 13.6364 21.621 12.9159 21.7215 12.7822C21.822 12.6486 21.9492 12.5139 22.148 12.4807C22.3469 12.4476 22.6002 12.2969 22.6002 12.2969C22.6002 12.2969 22.6366 12.0959 22.6911 12.0456C22.7456 11.9954 23.1252 11.7944 23.216 11.7944C23.3069 11.7944 23.6864 11.711 23.741 11.6939C23.7955 11.6768 24.067 11.4758 24.067 11.4758C24.067 11.4758 24.5556 10.9734 24.7181 10.89C24.8806 10.8066 25.2783 10.488 25.2783 10.488C25.2783 10.488 25.4953 10.1534 25.5498 10.0689C25.6044 9.98553 25.893 9.59959 25.9475 9.54934C26.002 9.4991 26.2372 9.26497 26.2907 9.21472C26.3452 9.16448 26.5804 9.14737 26.7066 9.03084C26.8327 8.91324 27.0326 8.52838 27.0326 8.52838C27.0326 8.52838 27.4303 7.80996 27.4849 7.73298C27.5394 7.65708 28.1359 6.83603 28.1904 6.76868C28.245 6.70133 28.8779 5.91449 28.8779 5.91449C28.8779 5.91449 29.2039 5.47937 29.2574 5.46227C29.3119 5.44516 29.3835 5.46227 29.3835 5.46227L29.4744 5.09344C29.4744 5.09344 29.4562 5.00684 29.4562 4.95659C29.4562 4.90635 29.4926 4.65512 29.4562 4.57173C29.4199 4.48834 29.4274 4.21359 29.4092 4.16334C29.391 4.11309 29.4413 3.87897 29.4413 3.87897L29.6551 3.58283L29.8721 3.39895L30.041 3.08892C30.041 3.08892 30.1918 3.08999 30.3724 3.07288C30.5531 3.05578 30.6953 3.13382 30.768 3.16803C30.8407 3.20224 31.0214 3.4214 31.0214 3.4214C31.0214 3.4214 31.1593 3.52938 31.1956 3.57963C31.232 3.62987 31.3645 3.73357 31.4009 3.80092C31.4372 3.86828 31.5356 4.18686 31.5356 4.18686L31.4447 4.60594C31.4447 4.60594 31.1368 4.82403 31.0652 4.87428C30.9925 4.92452 30.7391 5.14261 30.7391 5.14261C30.7391 5.14261 30.6311 5.31046 30.5766 5.36071C30.5221 5.41095 30.4686 5.43126 30.4323 5.51465C30.3959 5.59804 30.3596 5.76588 30.3596 5.76588C30.3596 5.76588 30.3414 5.91662 30.3414 6.06736C30.3414 6.2181 30.2687 6.28546 30.2153 6.36884C30.1607 6.45223 29.8721 7.18989 29.8357 7.25618C29.7994 7.32353 29.4744 7.89228 29.4381 7.94252C29.4017 7.99277 29.1847 8.32739 29.1847 8.32739C29.1847 8.32739 28.9131 8.81275 28.787 9.08109C28.6608 9.34943 28.4973 9.5162 28.462 9.58355C28.4267 9.65091 28.245 9.78454 28.245 9.78454C28.245 9.78454 28.2813 10.0358 28.0643 10.2699C27.8473 10.504 27.4496 10.9734 27.2689 11.107C27.0882 11.2406 26.8894 11.5421 26.8712 11.6095C26.853 11.6768 26.0031 12.732 25.8951 12.8325C25.7872 12.933 25.2259 13.352 25.1532 13.3852C25.0805 13.4183 24.7555 13.7198 24.593 13.8545C24.4305 13.9881 24.3396 14.2736 24.3215 14.357C24.3033 14.4404 24.1771 15.2946 24.1771 15.395C24.1771 15.4955 24.0328 15.7639 23.9783 15.797C23.9238 15.8302 22.658 15.8473 22.658 15.8473L21.5183 15.1941V13.6867H21.5151Z" fill="white"/>
<line x1="18.4797" y1="5.70174" x2="16.823" y2="4.04504" stroke="white" stroke-width="0.5"/>
<line x1="18.4797" y1="5.70174" x2="16.823" y2="4.04504" stroke="white" stroke-width="0.5"/>
<line y1="-0.25" x2="2.34293" y2="-0.25" transform="matrix(0.707107 -0.707107 -0.707107 -0.707107 20.5144 5.52496)" stroke="white" stroke-width="0.5"/>
<line y1="-0.25" x2="2.34293" y2="-0.25" transform="matrix(0.707107 -0.707107 -0.707107 -0.707107 20.5144 5.52496)" stroke="white" stroke-width="0.5"/>
<line x1="19.5381" y1="5.34293" x2="19.5381" y2="3" stroke="white" stroke-width="0.5"/>
<line x1="19.5381" y1="5.34293" x2="19.5381" y2="3" stroke="white" stroke-width="0.5"/>
</svg>
