<svg width="40" height="40" viewBox="0 0 40 40" fill="none" xmlns="http://www.w3.org/2000/svg">
<path d="M35.9096 8.65352C35.7829 7.73916 35.302 7.36432 35.0412 7.22651C34.8719 7.13658 34.3701 7 33.9248 7C33.2876 7 32.7722 7.09672 32.6631 7.12669C32.2586 7.2367 32.084 7.38039 32.071 7.52686C32.0556 7.69837 32.0667 7.74781 32.0667 7.74781L32.2586 7.75121C32.2586 7.48978 32.3365 7.45332 32.4548 7.4045C32.6554 7.32137 32.8837 7.22063 33.7536 7.19591C34.6723 7.17027 35.0394 7.39708 35.2319 7.60072C35.7384 8.13531 35.7742 8.68195 35.7995 10.4306C35.824 12.1129 35.6735 12.4961 35.5869 12.7822C35.4915 13.0993 35.3042 13.3038 35.0029 13.3338C34.8892 13.3452 34.7038 13.3434 34.5372 13.3381V8.39642C34.5372 8.23419 34.4056 8.10255 34.2434 8.10255H32.2768V7.86956C32.2768 7.83433 32.2481 7.80528 32.2125 7.80528H32.0896C32.054 7.80528 32.0253 7.83433 32.0253 7.86956V8.10255H28.7179C28.5557 8.10255 28.4241 8.23419 28.4241 8.39642V9.91552H28.1787C28.0974 9.91552 28.0316 9.98165 28.0316 10.0629V12.0289C28.0316 12.1104 28.0974 12.1759 28.1787 12.1759H28.4241V16.0537C28.4241 16.216 28.5557 16.3476 28.7179 16.3476H34.2434C34.4056 16.3476 34.5372 16.216 34.5372 16.0537V13.5665C34.6315 13.5665 34.748 13.5665 34.8926 13.5665C35.3132 13.5665 35.489 13.3653 35.6216 13.1855C35.7884 12.959 35.9371 12.4071 35.9707 11.8271C36.0329 10.7601 35.9884 9.22457 35.9096 8.65352ZM32.6875 15.0609H29.5022V11.2875H32.6875V15.0609ZM33.5574 10.1362H29.5022V8.91093H33.5574V10.1362Z" fill="white"/>
<path d="M30.4291 12.0839C30.4291 12.1111 30.4071 12.1327 30.3803 12.1327H29.9514C29.9242 12.1327 29.9022 12.1111 29.9022 12.0839V11.7591C29.9022 11.7319 29.9242 11.7103 29.9514 11.7103H30.3803C30.4071 11.7103 30.4291 11.7319 30.4291 11.7591V12.0839Z" fill="white"/>
<path d="M31.2866 12.0839C31.2866 12.1111 31.2646 12.1327 31.2374 12.1327H30.8085C30.7816 12.1327 30.7594 12.1111 30.7594 12.0839V11.7591C30.7594 11.7319 30.7816 11.7103 30.8085 11.7103H31.2374C31.2643 11.7103 31.2866 11.7319 31.2866 11.7591V12.0839Z" fill="white"/>
<path d="M32.1442 12.0839C32.1442 12.1111 32.1223 12.1327 32.0954 12.1327H31.6665C31.6396 12.1327 31.6177 12.1111 31.6177 12.0839V11.7591C31.6177 11.7319 31.6393 11.7103 31.6665 11.7103H32.0954C32.1223 11.7103 32.1442 11.7319 32.1442 11.7591V12.0839Z" fill="white"/>
<path d="M30.4291 12.8925C30.4291 12.9197 30.4071 12.9413 30.3803 12.9413H29.9514C29.9242 12.9413 29.9022 12.9197 29.9022 12.8925V12.5677C29.9022 12.5406 29.9242 12.5189 29.9514 12.5189H30.3803C30.4071 12.5189 30.4291 12.5406 30.4291 12.5677V12.8925Z" fill="white"/>
<path d="M31.2866 12.8925C31.2866 12.9197 31.2646 12.9413 31.2374 12.9413H30.8085C30.7816 12.9413 30.7594 12.9197 30.7594 12.8925V12.5677C30.7594 12.5406 30.7816 12.5189 30.8085 12.5189H31.2374C31.2643 12.5189 31.2866 12.5406 31.2866 12.5677V12.8925Z" fill="white"/>
<path d="M32.1442 12.8925C32.1442 12.9197 32.1223 12.9413 32.0954 12.9413H31.6665C31.6396 12.9413 31.6177 12.9197 31.6177 12.8925V12.5677C31.6177 12.5406 31.6393 12.5189 31.6665 12.5189H32.0954C32.1223 12.5189 32.1442 12.5406 32.1442 12.5677V12.8925Z" fill="white"/>
<path d="M30.4291 13.7009C30.4291 13.7284 30.4071 13.7504 30.3803 13.7504H29.9514C29.9242 13.7504 29.9022 13.7284 29.9022 13.7009V13.3768C29.9022 13.3493 29.9242 13.3273 29.9514 13.3273H30.3803C30.4071 13.3273 30.4291 13.3493 30.4291 13.3768V13.7009Z" fill="white"/>
<path d="M31.2866 13.7009C31.2866 13.7284 31.2646 13.7504 31.2374 13.7504H30.8085C30.7816 13.7504 30.7594 13.7284 30.7594 13.7009V13.3768C30.7594 13.3493 30.7816 13.3273 30.8085 13.3273H31.2374C31.2643 13.3273 31.2866 13.3493 31.2866 13.3768V13.7009Z" fill="white"/>
<path d="M32.1442 13.7009C32.1442 13.7284 32.1223 13.7504 32.0954 13.7504H31.6665C31.6396 13.7504 31.6177 13.7284 31.6177 13.7009V13.3768C31.6177 13.3493 31.6393 13.3273 31.6665 13.3273H32.0954C32.1223 13.3273 32.1442 13.3493 32.1442 13.3768V13.7009Z" fill="white"/>
<path d="M30.4291 14.5099C30.4291 14.5368 30.4071 14.5587 30.3803 14.5587H29.9514C29.9242 14.5587 29.9022 14.5368 29.9022 14.5099V14.1848C29.9022 14.1579 29.9242 14.136 29.9514 14.136H30.3803C30.4071 14.136 30.4291 14.1579 30.4291 14.1848V14.5099Z" fill="white"/>
<path d="M31.2866 14.5099C31.2866 14.5368 31.2646 14.5587 31.2374 14.5587H30.8085C30.7816 14.5587 30.7594 14.5368 30.7594 14.5099V14.1848C30.7594 14.1579 30.7816 14.136 30.8085 14.136H31.2374C31.2643 14.136 31.2866 14.1579 31.2866 14.1848V14.5099Z" fill="white"/>
<path d="M32.1442 14.5099C32.1442 14.5368 32.1223 14.5587 32.0954 14.5587H31.6665C31.6396 14.5587 31.6177 14.5368 31.6177 14.5099V14.1848C31.6177 14.1579 31.6393 14.136 31.6665 14.136H32.0954C32.1223 14.136 32.1442 14.1579 32.1442 14.1848V14.5099Z" fill="white"/>
<path d="M31.5165 21L32.8299 23.2748H30.2032L31.5165 21Z" fill="white"/>
<rect x="31.0111" y="25.0441" width="1.01101" height="1.01101" transform="rotate(-90 31.0111 25.0441)" fill="white"/>
<rect x="31.0111" y="26.7291" width="1.01101" height="1.01101" transform="rotate(-90 31.0111 26.7291)" fill="white"/>
<rect x="31.0111" y="28.4141" width="1.01101" height="1.01101" transform="rotate(-90 31.0111 28.4141)" fill="white"/>
<path d="M20.8903 13.8885C20.7563 13.8885 20.6049 15.5251 20.6049 15.5251C20.5825 16.0494 20.5381 16.0604 20.5043 16.0604C20.4709 16.0604 20.3149 16.0659 20.3149 16.0659C20.3149 16.0659 20.3149 16.0659 20.2984 16.1217C20.2815 16.1775 20.1868 16.5957 20.1868 16.5957C20.1868 16.5957 20.2536 16.6012 20.3483 16.6126C20.443 16.624 20.5043 16.7352 20.5491 16.9136C20.5939 17.092 20.7444 17.421 20.7385 17.6383C20.7377 17.6734 20.8167 17.7719 20.8666 17.7554C20.9169 17.7385 20.9444 17.7778 20.9444 17.7778C20.9444 17.7778 21.1951 18.2518 21.2345 18.33C21.2734 18.4082 21.24 18.4247 21.24 18.4247L21.1951 18.4581C21.1951 18.4581 21.4125 18.776 21.4573 19.0268C21.5021 19.2775 21.4129 19.3392 21.3791 19.3667C21.3457 19.3946 20.9216 19.5324 20.7821 19.3206L20.459 18.3186C20.459 18.3186 20.7711 19.0547 20.8269 19.5396C20.8827 20.0246 20.7432 20.7662 20.7267 21.0786C20.7102 21.3911 20.6544 22.9799 20.6544 23.3871C20.6544 23.7942 20.5318 24.8758 20.5483 24.9595C20.5652 25.0432 20.6878 25.2495 20.7157 25.3497C20.7436 25.4499 20.9051 25.9852 20.9723 26.1247C21.0391 26.2642 20.9833 26.2862 20.9609 26.3086C20.9385 26.331 20.8886 26.3196 20.8493 26.3754C20.81 26.4312 20.8548 26.5035 20.8827 26.5873C20.9106 26.671 21.0611 27.0836 21.1279 27.6578C21.1947 28.2319 21.1727 28.6002 21.1279 28.8344C21.0831 29.0687 21.0218 29.0851 20.9605 29.119C20.8992 29.1524 20.7766 29.1638 20.6649 29.2137C20.5533 29.264 20.5533 29.3752 20.5368 29.4534C20.5199 29.5316 20.4476 29.8661 20.4755 30.0669C20.5034 30.2677 20.5144 30.4013 20.4755 30.5518C20.4366 30.7024 20.3753 30.9311 20.3474 31.1429C20.3195 31.3547 20.3584 31.879 20.3419 32.2079C20.325 32.5369 20.2751 32.9106 20.2248 33.1504C20.1745 33.3901 19.9462 33.7245 19.9014 33.8586C19.8566 33.9922 19.9572 34.037 19.9682 34.0983C19.9792 34.1596 20.0185 34.3435 20.0185 34.4217C20.0185 34.4999 19.9682 34.5443 19.9403 34.5891C19.9124 34.634 19.868 34.6894 19.8341 34.7621C19.8007 34.8344 19.7952 34.9849 19.7952 35.0466C19.7952 35.1083 19.7449 35.214 19.695 35.225C19.6447 35.236 19.5779 35.2419 19.5779 35.2419C19.5779 35.2419 19.6392 35.3312 19.6726 35.3925C19.706 35.4538 19.8177 35.5709 19.8341 35.6267C19.8506 35.6825 19.8062 35.7882 19.8062 35.7882C20.046 35.8774 20.0684 36.0055 20.1187 36.0837C20.169 36.162 20.1635 36.2956 20.1576 36.5074L20.2523 36.5856C20.2523 36.5856 20.2523 36.5856 20.2633 36.608C20.2747 36.6304 20.3246 36.8926 20.3246 36.8926C20.3246 36.8926 20.2967 36.9594 20.2523 36.9763C20.2075 36.9932 19.3433 37.0097 19.0592 36.9932C18.775 36.9763 17.8994 36.904 17.8326 36.893C17.7658 36.882 17.7713 36.7146 17.7713 36.7146C17.7713 36.7146 17.7489 36.6532 17.71 36.6253C17.6711 36.5974 17.5705 36.5192 17.5705 36.5192L17.554 35.7886C17.554 35.7886 17.554 35.7328 17.565 35.6491C17.5764 35.5654 17.6208 35.1362 17.6377 35.0415C17.6542 34.9468 17.71 34.9299 17.71 34.9299C17.71 34.9299 17.6487 34.9244 17.5705 34.9189C17.4923 34.9134 17.4813 34.8187 17.4758 34.7739C17.4703 34.7291 17.4593 34.3837 17.4593 34.3837C17.4593 34.3837 17.3811 34.272 17.3312 34.2496C17.2809 34.2272 17.2864 34.1494 17.2585 34.0767C17.2306 34.0044 17.1189 33.6586 17.1189 33.5639C17.1189 33.4692 17.1747 33.1512 17.236 32.8278C17.2974 32.5043 17.4648 32.1365 17.5037 32.0304C17.5426 31.9242 17.565 31.7906 17.565 31.7906C17.5705 31.6122 17.431 31.0156 17.4145 30.5586C17.398 30.1016 17.5037 29.505 17.6377 29.0754C17.7717 28.6463 17.7603 28.5347 17.7493 28.4898C17.7379 28.4455 17.7324 28.2835 17.688 28.1888C17.6432 28.0941 17.5041 27.9546 17.4593 27.8988C17.4145 27.843 17.3532 27.7259 17.3477 27.6087C17.3422 27.4916 17.3642 27.1069 17.3642 27.0287C17.3642 26.9504 17.2694 26.6549 17.1912 26.46C17.1134 26.2647 16.9849 25.5624 16.9625 25.3337C16.9401 25.1049 16.9959 24.6758 17.0073 24.5363C17.0183 24.3967 16.9739 23.2818 16.9739 23.2818C16.4556 24.157 16.3828 24.8931 16.3718 25.0436C16.3609 25.1941 16.3384 25.8355 16.3439 25.9357C16.3494 26.0359 16.3494 26.2537 16.3105 26.3429C16.2716 26.4321 16.2268 26.7107 16.1321 27.0122C16.0374 27.3132 15.8087 27.687 15.6527 27.854C15.4967 28.021 15.2569 28.1106 15.0561 28.155C14.8553 28.1998 14.7272 28.3055 14.7272 28.3055C14.7272 28.3055 14.7327 28.3389 14.794 28.5008C14.8553 28.6624 14.8722 28.93 14.8054 29.2479C14.7386 29.5659 14.6379 30.5193 14.6549 30.8871C14.6713 31.255 14.61 31.9073 14.5881 31.9801C14.5656 32.0524 14.443 32.5876 14.3707 32.766C14.298 32.9445 14.1754 33.3681 14.1475 33.4852C14.1196 33.6023 14.0972 33.7304 14.1027 33.8531C14.1082 33.9757 14.1585 34.2602 14.1251 34.316C14.0917 34.3718 14.0469 34.617 14.0359 34.6729C14.0249 34.7287 14.0414 34.9629 14.0025 35.08C13.9636 35.1971 13.9023 35.1747 13.8071 35.236C13.8126 35.381 13.7737 35.6711 13.7737 35.6711L13.8405 35.6821L13.9353 35.7768L13.9687 36.5015L13.9019 36.5463C13.9019 36.5463 13.4668 36.6579 13.3666 36.6858C13.2664 36.7137 13.0097 36.6968 12.926 36.7306C12.8423 36.764 12.7586 36.909 12.7087 36.9314C12.6584 36.9539 11.5266 36.9703 11.4095 36.9703C11.2923 36.9703 10.2607 36.9369 10.1939 36.9314C10.1271 36.926 10.0265 36.9035 10.0045 36.8592C9.98209 36.8148 10.0493 36.5412 10.0772 36.5133C10.1051 36.4854 10.2167 36.4465 10.2167 36.4465C10.2167 36.4465 10.2003 36.3184 10.2057 36.1176C10.2112 35.9167 10.3398 35.7662 10.5347 35.7104C10.7304 35.6533 10.8476 35.6419 10.8476 35.6419C10.8476 35.6419 10.87 35.603 10.8865 35.5637C10.9029 35.5248 10.9423 35.4969 10.9757 35.4745C11.0091 35.4521 11.2543 35.2906 11.3046 35.2517C11.3549 35.2128 11.4272 35.1012 11.4272 35.1012C11.4272 35.1012 11.2543 35.1067 11.2154 35.1067C11.1765 35.1067 11.1207 35.1067 11.0983 35.0508C11.0759 34.995 11.0704 34.1308 11.0928 33.8966C11.1152 33.6624 11.3215 33.2552 11.3659 33.1326C11.4103 33.01 11.4158 32.9373 11.3993 32.8426C11.3828 32.7479 11.2653 32.4688 11.2488 32.391C11.2323 32.3128 11.2323 31.8054 11.2653 31.3484C11.2987 30.8913 11.4826 30.2111 11.5498 30.0939C11.6166 29.9768 11.6225 29.8208 11.6166 29.6813C11.6111 29.5418 11.7003 28.5605 11.7003 28.5605C11.7003 28.5605 11.5498 28.4767 11.5164 28.4378C11.483 28.3989 11.3938 28.3486 11.349 28.3317C11.3042 28.3148 11.1203 28.2928 11.1596 28.1981C11.4995 26.7149 11.6839 25.9734 11.6839 25.9734C11.5946 25.9399 11.5557 25.8731 11.5612 25.8173C11.5667 25.7615 11.7287 25.3324 11.7841 25.1595C11.8399 24.9865 12.0906 24.6073 12.1409 24.535C12.1912 24.4627 12.3303 23.7545 12.3582 23.5706C12.3861 23.3867 12.4808 23.0632 12.5366 22.9571C12.5924 22.851 13.1163 22.065 13.1163 22.065C13.1163 22.065 13.1277 20.7602 13.1332 20.66C13.1387 20.5598 13.2279 20.4372 13.2393 20.3755C13.2503 20.3142 13.2448 20.1079 13.2448 20.1079C13.2605 19.6876 13.5306 18.3575 13.5306 18.3575C13.5306 18.3575 13.5552 16.0279 13.6634 16.0279C13.7526 14.9129 13.8135 14.3815 13.8803 14.1358C13.9471 13.8906 13.9112 13.3917 13.9112 13.3917C13.8617 13.3236 13.7818 13.2835 13.7057 13.2513L13.5391 13.6086L13.2288 14.0119L12.8102 14.7988L12.7172 15.3569L12.2986 17.0781L12.1591 18.7063L12.3916 19.3109L12.7172 19.869L12.8567 21.0321L12.5311 20.9391L12.3916 20.3345L12.1591 20.2415V20.9856L12.5311 21.5437L12.2521 21.8227L11.3215 21.5437L11.0425 21.0321V20.241V19.357L11.089 18.3334L10.9727 16.5657V14.8212L11.4264 13.4636C11.3481 13.4547 11.3004 13.4331 11.3063 13.3904C11.3452 13.1004 11.6204 12.7863 11.7096 12.708C11.7096 12.5017 11.7769 12.4679 11.8027 12.3977C11.8149 12.3639 11.7008 12.2083 11.9887 11.6536C12.0428 11.5491 12.1071 11.2156 12.1126 11.1263C12.1181 11.0371 12.1658 10.9369 12.1434 10.909C12.121 10.8811 12.2521 10.7674 12.2462 10.6782C12.2407 10.589 12.2796 10.1598 12.3578 9.83638C12.436 9.51294 12.6309 9.20641 12.9713 8.86606C13.3112 8.52613 13.8186 8.45891 14.0304 8.40902C14.0304 8.40902 14.0583 8.34771 14.0972 8.2919C14.1361 8.23609 14.2198 8.1917 14.2198 8.1917C14.2198 8.1917 14.2198 8.08557 14.2143 8.04118C14.2088 7.99636 14.2646 7.96888 14.3204 7.94647C14.3762 7.92407 14.4206 7.94098 14.4206 7.94098C14.4316 7.89616 14.4929 7.80145 14.616 7.78496C14.7386 7.76805 15.5136 7.67335 15.5918 7.69575C15.6696 7.71816 15.6865 7.79596 15.6865 7.79596L15.837 7.77905C15.837 7.77905 15.8649 7.59513 15.8759 7.53932C15.8869 7.48351 15.9372 7.37781 16.0877 7.24378C16.2382 7.11018 16.4222 7.01505 16.4222 7.01505C16.4167 6.97023 16.4277 6.91484 16.4611 6.80872C16.4945 6.7026 16.4945 6.50769 16.4666 6.40157C16.4386 6.29544 16.3105 6.09504 16.2712 6.03373C16.2323 5.97243 16.1875 5.72128 16.182 5.61558C16.1765 5.50946 16.171 5.09723 16.1651 4.78478C16.1596 4.47276 16.2319 4.24952 16.2877 4.08801C16.3435 3.9265 16.5274 3.64196 16.6555 3.52484C16.7837 3.40773 17.1071 3.25172 17.3189 3.15828C17.6922 2.99677 17.8876 3.00607 17.9544 3.00057C18.0212 2.99508 18.1941 3.02848 18.4617 3.12868C18.7294 3.22888 18.9133 3.38532 19.0304 3.49652C19.1475 3.60813 19.3259 3.97047 19.3872 4.11549C19.4486 4.26051 19.5602 4.70107 19.5826 4.82368C19.605 4.94629 19.5771 5.30863 19.5771 5.40926C19.5771 5.50946 19.5771 5.67689 19.5547 5.8663C19.5323 6.05572 19.4266 6.7305 19.3872 6.81972C19.3483 6.90893 19.309 6.99814 19.2756 7.04845C19.2422 7.09876 19.0693 7.22687 19.0693 7.22687C19.0693 7.22687 19.1585 7.32707 19.1919 7.34948C19.2253 7.37189 19.2701 7.44969 19.2701 7.5279C19.2701 7.60612 19.2536 7.89574 19.2536 7.89574C19.2536 7.89574 19.3872 7.92364 19.4152 7.90124C19.4431 7.87883 19.5213 7.82302 19.5771 7.82302C19.6329 7.82302 19.761 7.86191 20.0341 7.91772C20.3073 7.97353 20.4747 8.01243 20.5246 8.02934C20.5749 8.04625 20.7364 8.20776 20.7757 8.25808C20.8146 8.30839 20.7922 8.41409 20.7922 8.41409C20.7922 8.41409 20.848 8.41959 20.9372 8.4754C21.0264 8.53121 21.1211 8.67073 21.1211 8.67073C21.2104 8.69314 21.3376 8.75022 21.5232 9.04026L21.6856 9.3768L22.1003 10.1894L22.7045 11.7576L22.6043 11.8963L23.5742 13.6116L23.8571 13.88C23.8571 13.88 24.5458 13.4606 24.9242 13.3579C25.3589 13.2399 26.9164 12.6036 27.2445 12.3635C27.7811 11.9711 27.3946 11.9111 27.7861 11.6726C27.9291 11.5855 27.8792 11.5052 28.1087 11.4058C28.1772 11.3762 28.4005 11.5174 28.4005 11.5174C28.4005 11.5174 28.474 11.4823 28.5265 11.4701C28.9281 11.3766 28.9691 11.6667 28.9691 11.6667C28.9691 11.6667 29.0651 11.695 29.118 11.8489C29.1429 11.9212 29.1264 12.0891 29.1264 12.0891C29.1264 12.0891 29.1953 12.1715 29.2258 12.2878C29.2566 12.4057 29.2507 12.5444 29.2507 12.5444C29.2507 12.5444 29.3167 12.6163 29.3188 12.7288C29.3213 12.8733 29.2008 13.0239 29.052 13.1076C28.4749 13.4302 28.2884 13.2133 28.0216 13.393C27.9946 13.4137 27.8081 13.404 27.6153 13.5672C27.4247 13.7291 27.1207 13.8526 26.571 14.2631C25.9652 14.7163 25.4937 14.9979 24.9585 15.4232C24.9585 15.4232 24.5006 15.7078 24.4735 15.7327C24.2507 15.9222 23.9433 16.276 23.6114 16.2097C23.4905 16.1856 23.4098 16.0959 23.4098 16.0959C23.4098 16.0959 23.2415 15.9336 22.8821 15.7015C22.6724 15.5662 22.1063 15.0448 21.7917 14.6804C21.3626 14.1933 21.1537 14.0306 21.1537 14.0306L20.8903 13.8885Z" fill="white"/>
<line x1="30.4798" y1="36.1598" x2="28.8231" y2="34.5031" stroke="white" stroke-width="0.5"/>
<line x1="30.4798" y1="36.1598" x2="28.8231" y2="34.5031" stroke="white" stroke-width="0.5"/>
<line y1="-0.25" x2="2.34293" y2="-0.25" transform="matrix(0.707107 -0.707107 -0.707107 -0.707107 32.5143 35.983)" stroke="white" stroke-width="0.5"/>
<line y1="-0.25" x2="2.34293" y2="-0.25" transform="matrix(0.707107 -0.707107 -0.707107 -0.707107 32.5143 35.983)" stroke="white" stroke-width="0.5"/>
<line x1="31.5382" y1="35.801" x2="31.5382" y2="33.4581" stroke="white" stroke-width="0.5"/>
<line x1="31.5382" y1="35.801" x2="31.5382" y2="33.4581" stroke="white" stroke-width="0.5"/>
</svg>
