<svg width="40" height="40" viewBox="0 0 40 40" fill="none" xmlns="http://www.w3.org/2000/svg">
<path fill-rule="evenodd" clip-rule="evenodd" d="M25.0326 14.4475L25.0326 17.4455C25.0326 18.0164 24.8003 18.3891 24.5063 18.8607C24.0379 19.6123 23.4128 20.6151 23.3218 23.0713L17.0037 23.0713C17.0037 20.7346 15.2135 19.2714 14.6533 18.8135C14.6101 18.7782 14.5742 18.7489 14.547 18.7256C14.1672 18.4002 13 16.7273 13 16.0531C13 15.3789 13.6571 13.2385 13.7353 13.0822C13.7408 13.0712 13.7477 13.0558 13.7562 13.0366C13.8642 12.7946 14.239 11.9542 15.4644 11.8762C16.4124 12.1798 17.0981 12.228 17.5696 12.2612C17.9445 12.2876 18.184 12.3044 18.3121 12.4326C18.6072 12.7277 18.5201 13.3179 18.3576 13.5538C18.2867 13.6699 18.1426 13.7969 17.835 13.8981C17.525 14.0002 17.0685 14.0693 16.4059 14.0799C16.346 14.0808 16.2843 14.0808 16.2208 14.0799L15.9826 14.0762L15.8671 15.5774L16.1141 15.6015C16.8461 15.6729 17.5907 16.0763 18.1941 16.5836C18.8024 17.0952 19.2208 17.6729 19.337 18.0442L19.8204 17.8929C19.663 17.39 19.1627 16.7363 18.5201 16.196C17.9338 15.703 17.191 15.2718 16.4094 15.1316L16.4514 14.5856C17.1199 14.5727 17.6218 14.5016 17.9934 14.3793C18.0655 14.3555 18.1333 14.3296 18.197 14.3015C18.3745 14.4214 18.6012 14.5021 18.879 14.5447C19.0513 14.5711 19.3956 14.6231 19.7283 14.4993C19.9057 14.4332 20.0672 14.3227 20.1988 14.1567C20.3504 14.5974 20.7354 14.9412 21.228 15.0167L21.2921 15.0265C21.7941 15.1034 22.2729 14.8811 22.5472 14.4926C22.6902 14.9384 23.0744 15.2884 23.5686 15.3642L23.5991 15.3689C24.2951 15.4755 24.9444 14.9295 25.051 14.2335C25.1179 13.7973 24.5496 13.7973 24.5496 14.1567C24.4854 14.5758 24.095 14.9316 23.6759 14.8674L23.6454 14.8627C23.2263 14.7985 22.9387 14.4067 23.0029 13.9876C23.0851 13.4512 22.3512 13.3172 22.2672 13.8655C22.2012 14.2957 21.7991 14.591 21.3689 14.525L21.3049 14.5152C20.8747 14.4493 20.5794 14.0471 20.6454 13.617C20.725 13.0973 20.0567 13.0374 19.9955 13.3623C19.9114 13.8093 19.718 13.9618 19.5513 14.0239C19.3559 14.0966 19.1334 14.0705 18.9559 14.0433C18.8434 14.026 18.7499 14.0025 18.6719 13.9748C18.7167 13.9255 18.756 13.8732 18.7899 13.8176C18.7974 13.7843 18.8064 13.7514 18.816 13.7164C18.8544 13.576 18.9024 13.4006 18.9024 13.0228C18.9024 12.1375 18.6099 11.8424 18.017 11.8424C17.3902 11.8424 16.3826 11.6639 15.6371 11.3717L15.6371 4.32293C15.6317 3.82032 15.8872 3.01203 17.0037 3.00009C17.8735 2.99078 18.1664 3.71217 18.1664 4.32293L18.2175 9.8615C18.2996 9.67337 18.4237 9.48097 18.5874 9.31887C18.867 9.0421 19.2743 8.84363 19.788 8.92236C20.425 9.01999 20.9534 9.53796 20.9838 10.1846C21.2607 9.94627 21.6361 9.82587 22.0255 9.88555L22.0896 9.89537C22.7967 10.0037 23.2821 10.6648 23.1737 11.3719L23.1531 11.5062C23.4291 11.2456 23.818 11.1105 24.2222 11.1724L24.2527 11.1771C24.9487 11.2838 25.4264 11.9345 25.3198 12.6305L25.0637 14.3018C25.056 14.3515 25.0456 14.4001 25.0326 14.4475Z" fill="white"/>
<mask id="path-2-inside-1" fill="white">
<path fill-rule="evenodd" clip-rule="evenodd" d="M8.13647 32.5102C8.13647 30.403 12.7313 28.6647 18.6647 28.4147V31.0816L14.7638 31.0816L20.2478 35.8309L25.7318 31.0816L21.8309 31.0816V28.4244C27.6603 28.7067 32.1449 30.4285 32.1449 32.5102C32.1449 34.7892 26.7705 36.6367 20.1407 36.6367C13.511 36.6367 8.13647 34.7892 8.13647 32.5102Z"/>
</mask>
<path fill-rule="evenodd" clip-rule="evenodd" d="M8.13647 32.5102C8.13647 30.403 12.7313 28.6647 18.6647 28.4147V31.0816L14.7638 31.0816L20.2478 35.8309L25.7318 31.0816L21.8309 31.0816V28.4244C27.6603 28.7067 32.1449 30.4285 32.1449 32.5102C32.1449 34.7892 26.7705 36.6367 20.1407 36.6367C13.511 36.6367 8.13647 34.7892 8.13647 32.5102Z" fill="white"/>
<path d="M18.6647 28.4147H18.7517V28.3239L18.661 28.3277L18.6647 28.4147ZM18.6647 31.0816V31.1686L18.7517 31.1686V31.0816H18.6647ZM14.7638 31.0816V30.9946L14.5305 30.9946L14.7069 31.1474L14.7638 31.0816ZM20.2478 35.8309L20.1909 35.8967L20.2478 35.946L20.3048 35.8967L20.2478 35.8309ZM25.7318 31.0816L25.7888 31.1474L25.9652 30.9946L25.7318 30.9946V31.0816ZM21.8309 31.0816H21.7439V31.1686L21.8309 31.1686V31.0816ZM21.8309 28.4244L21.8351 28.3375L21.7439 28.3331V28.4244H21.8309ZM18.661 28.3277C15.6879 28.4531 13.0459 28.9513 11.1442 29.6849C10.1937 30.0515 9.42355 30.4788 8.88947 30.9513C8.35556 31.4238 8.04948 31.9493 8.04948 32.5102H8.22347C8.22347 32.0175 8.49174 31.5356 9.00477 31.0816C9.51763 30.6278 10.267 30.2098 11.2069 29.8472C13.0859 29.1223 15.708 28.6264 18.6683 28.5016L18.661 28.3277ZM18.7517 31.0816V28.4147H18.5777V31.0816H18.7517ZM14.7638 31.1686L18.6647 31.1686V30.9946L14.7638 30.9946V31.1686ZM20.3048 35.7651L14.8208 31.0159L14.7069 31.1474L20.1909 35.8967L20.3048 35.7651ZM25.6749 31.0159L20.1909 35.7651L20.3048 35.8967L25.7888 31.1474L25.6749 31.0159ZM21.8309 31.1686L25.7318 31.1686V30.9946L21.8309 30.9946V31.1686ZM21.7439 28.4244V31.0816H21.9179V28.4244H21.7439ZM32.2319 32.5102C32.2319 31.9561 31.9332 31.4365 31.4112 30.9685C30.8891 30.5005 30.136 30.0766 29.2057 29.7115C27.3446 28.9811 24.7561 28.479 21.8351 28.3375L21.8266 28.5113C24.7351 28.6521 27.3037 29.152 29.1422 29.8735C30.0618 30.2344 30.7941 30.6489 31.2951 31.0981C31.7961 31.5472 32.058 32.0235 32.058 32.5102H32.2319ZM20.1407 36.7237C23.4626 36.7237 26.4736 36.261 28.6573 35.5104C29.7487 35.1352 30.6381 34.6865 31.2565 34.184C31.8741 33.682 32.2319 33.1169 32.2319 32.5102H32.058C32.058 33.0431 31.744 33.5635 31.1467 34.0489C30.5502 34.5338 29.6816 34.9742 28.6007 35.3458C26.4397 36.0887 23.4486 36.5497 20.1407 36.5497V36.7237ZM8.04948 32.5102C8.04948 33.1169 8.40732 33.682 9.02496 34.184C9.6433 34.6865 10.5328 35.1352 11.6242 35.5104C13.8078 36.261 16.8189 36.7237 20.1407 36.7237V36.5497C16.8328 36.5497 13.8417 36.0887 11.6807 35.3458C10.5998 34.9742 9.73125 34.5338 9.13469 34.0489C8.53744 33.5635 8.22347 33.0431 8.22347 32.5102H8.04948Z" fill="white" mask="url(#path-2-inside-1)"/>
<path fill-rule="evenodd" clip-rule="evenodd" d="M21.831 20H18.6648V27.4483C15.6973 27.5716 13.0205 28.0617 10.987 28.8012C9.8059 29.2307 8.81655 29.7533 8.11359 30.3577C7.41218 30.9607 6.94836 31.6894 6.94836 32.519C6.94836 33.3485 7.41218 34.0772 8.11359 34.6803C8.81655 35.2846 9.8059 35.8073 10.987 36.2368C13.3532 37.0972 16.5905 37.6201 20.1434 37.6201C23.6962 37.6201 26.9335 37.0972 29.2997 36.2368C30.4808 35.8073 31.4702 35.2846 32.1731 34.6803C32.8745 34.0772 33.3384 33.3485 33.3384 32.519C33.3384 31.6894 32.8745 30.9607 32.1731 30.3577C31.4702 29.7533 30.4808 29.2307 29.2997 28.8012C27.3141 28.0791 24.7151 27.5948 21.831 27.4577V20ZM18.9083 27.9155H21.3784C27.8233 28.1413 32.8623 30.1161 32.8623 32.519C32.8623 35.0733 27.1678 37.144 20.1434 37.144C13.1189 37.144 7.42445 35.0733 7.42445 32.519C7.42445 30.1161 12.4634 28.1413 18.9083 27.9155Z" fill="white"/>
</svg>
