<svg width="40" height="40" viewBox="0 0 40 40" fill="none" xmlns="http://www.w3.org/2000/svg">
<mask id="path-1-inside-1" fill="white">
<path fill-rule="evenodd" clip-rule="evenodd" d="M8.13647 32.5102C8.13647 30.403 12.7313 28.6647 18.6647 28.4147V31.0816L14.7638 31.0816L20.2478 35.8309L25.7318 31.0816L21.8309 31.0816V28.4244C27.6603 28.7067 32.1449 30.4285 32.1449 32.5102C32.1449 34.7892 26.7705 36.6367 20.1407 36.6367C13.511 36.6367 8.13647 34.7892 8.13647 32.5102Z"/>
</mask>
<path fill-rule="evenodd" clip-rule="evenodd" d="M8.13647 32.5102C8.13647 30.403 12.7313 28.6647 18.6647 28.4147V31.0816L14.7638 31.0816L20.2478 35.8309L25.7318 31.0816L21.8309 31.0816V28.4244C27.6603 28.7067 32.1449 30.4285 32.1449 32.5102C32.1449 34.7892 26.7705 36.6367 20.1407 36.6367C13.511 36.6367 8.13647 34.7892 8.13647 32.5102Z" fill="white"/>
<path d="M18.6647 28.4147H18.7517V28.3239L18.661 28.3277L18.6647 28.4147ZM18.6647 31.0816V31.1686L18.7517 31.1686V31.0816H18.6647ZM14.7638 31.0816V30.9946L14.5305 30.9946L14.7069 31.1474L14.7638 31.0816ZM20.2478 35.8309L20.1909 35.8967L20.2478 35.946L20.3048 35.8967L20.2478 35.8309ZM25.7318 31.0816L25.7888 31.1474L25.9652 30.9946L25.7318 30.9946V31.0816ZM21.8309 31.0816H21.7439V31.1686L21.8309 31.1686V31.0816ZM21.8309 28.4244L21.8351 28.3375L21.7439 28.333V28.4244H21.8309ZM18.661 28.3277C15.6879 28.4531 13.0459 28.9513 11.1442 29.6849C10.1937 30.0515 9.42355 30.4788 8.88947 30.9513C8.35556 31.4238 8.04948 31.9493 8.04948 32.5102H8.22347C8.22347 32.0175 8.49174 31.5356 9.00477 31.0816C9.51763 30.6278 10.267 30.2098 11.2069 29.8472C13.0859 29.1223 15.708 28.6263 18.6683 28.5016L18.661 28.3277ZM18.7517 31.0816V28.4147H18.5777V31.0816H18.7517ZM14.7638 31.1686L18.6647 31.1686V30.9946L14.7638 30.9946V31.1686ZM20.3048 35.7651L14.8208 31.0159L14.7069 31.1474L20.1909 35.8967L20.3048 35.7651ZM25.6749 31.0159L20.1909 35.7651L20.3048 35.8967L25.7888 31.1474L25.6749 31.0159ZM21.8309 31.1686L25.7318 31.1686V30.9946L21.8309 30.9946V31.1686ZM21.7439 28.4244V31.0816H21.9179V28.4244H21.7439ZM32.2319 32.5102C32.2319 31.9561 31.9332 31.4364 31.4112 30.9685C30.8891 30.5005 30.136 30.0766 29.2057 29.7115C27.3446 28.9811 24.7561 28.479 21.8351 28.3375L21.8266 28.5112C24.7351 28.6521 27.3037 29.152 29.1422 29.8735C30.0618 30.2344 30.7941 30.6489 31.2951 31.098C31.7961 31.5472 32.058 32.0235 32.058 32.5102H32.2319ZM20.1407 36.7237C23.4626 36.7237 26.4736 36.261 28.6573 35.5103C29.7487 35.1352 30.6381 34.6865 31.2565 34.1839C31.8741 33.682 32.2319 33.1169 32.2319 32.5102H32.058C32.058 33.043 31.744 33.5635 31.1467 34.0489C30.5502 34.5338 29.6816 34.9742 28.6007 35.3458C26.4397 36.0887 23.4486 36.5497 20.1407 36.5497V36.7237ZM8.04948 32.5102C8.04948 33.1169 8.40732 33.682 9.02496 34.1839C9.6433 34.6865 10.5328 35.1352 11.6242 35.5103C13.8078 36.261 16.8189 36.7237 20.1407 36.7237V36.5497C16.8328 36.5497 13.8417 36.0887 11.6807 35.3458C10.5998 34.9742 9.73125 34.5338 9.13469 34.0489C8.53744 33.5635 8.22347 33.043 8.22347 32.5102H8.04948Z" fill="white" mask="url(#path-1-inside-1)"/>
<path fill-rule="evenodd" clip-rule="evenodd" d="M21.831 20H18.6648V27.4483C15.6973 27.5716 13.0205 28.0617 10.987 28.8012C9.8059 29.2307 8.81655 29.7533 8.11359 30.3577C7.41218 30.9607 6.94836 31.6894 6.94836 32.519C6.94836 33.3485 7.41218 34.0772 8.11359 34.6803C8.81655 35.2846 9.8059 35.8073 10.987 36.2368C13.3532 37.0972 16.5905 37.6201 20.1434 37.6201C23.6962 37.6201 26.9335 37.0972 29.2997 36.2368C30.4808 35.8073 31.4702 35.2846 32.1731 34.6803C32.8745 34.0772 33.3384 33.3485 33.3384 32.519C33.3384 31.6894 32.8745 30.9607 32.1731 30.3577C31.4702 29.7533 30.4808 29.2307 29.2997 28.8012C27.3141 28.0791 24.7151 27.5948 21.831 27.4577V20ZM18.9083 27.9155H21.3784C27.8233 28.1413 32.8623 30.1161 32.8623 32.519C32.8623 35.0733 27.1678 37.144 20.1434 37.144C13.1189 37.144 7.42445 35.0733 7.42445 32.519C7.42445 30.1161 12.4634 28.1413 18.9083 27.9155Z" fill="white"/>
<path fill-rule="evenodd" clip-rule="evenodd" d="M24.8081 13.7674L24.8081 16.725C24.8081 17.2882 24.5801 17.6559 24.2916 18.1212C23.8319 18.8626 23.2185 19.8519 23.1292 22.275L16.929 22.275C16.929 19.9698 15.1722 18.5263 14.6224 18.0746L14.6224 18.0746L14.6224 18.0745L14.6224 18.0745C14.58 18.0397 14.5448 18.0108 14.5181 17.9878C14.1455 17.6668 13 16.0165 13 15.3514C13 14.6862 13.6449 12.5748 13.7216 12.4205C13.727 12.4097 13.7337 12.3945 13.7421 12.3756L13.7421 12.3755C13.848 12.1368 14.2159 11.3077 15.4184 11.2308C16.3487 11.5303 17.0216 11.5779 17.4843 11.6106C17.8522 11.6366 18.0872 11.6533 18.213 11.7797C18.5026 12.0708 18.417 12.6531 18.2575 12.8858C18.188 13.0003 18.0466 13.1256 17.7447 13.2255C17.4405 13.3262 16.9926 13.3943 16.3423 13.4047C16.2835 13.4057 16.223 13.4057 16.1606 13.4047L15.9269 13.4011L15.8136 14.8821L16.0559 14.9059C16.7742 14.9763 17.505 15.3742 18.0971 15.8748C18.6941 16.3794 19.1046 16.9493 19.2187 17.3156L19.6931 17.1664C19.5386 16.6703 19.0476 16.0254 18.417 15.4923C17.8417 15.006 17.1128 14.5806 16.3458 14.4423L16.387 13.9037C17.043 13.8909 17.5355 13.8208 17.9002 13.7001C18.274 13.5764 18.5319 13.393 18.6818 13.1461C18.6892 13.1132 18.698 13.0808 18.7074 13.0462L18.7074 13.0461C18.7451 12.9077 18.7922 12.7346 18.7922 12.362C18.7922 11.4886 18.5051 11.1974 17.9233 11.1974C17.2798 11.1974 16.227 11.0047 15.4879 10.6924L14.6586 3.93063C14.5851 3.31097 14.7896 2.56174 15.7781 2.45713C16.7666 2.35253 17.0564 3.10821 17.1406 3.6936L17.9776 10.0221L19.1729 3.1882C19.2147 2.91393 19.3743 2.56572 19.6412 2.30002C19.9156 2.02698 20.3153 1.95112 20.8194 2.02879C21.4445 2.12511 21.874 2.5942 21.7093 3.60509C21.5968 4.29595 20.4822 10.2358 20.4822 10.2358C20.4822 10.2358 21.0854 9.32772 21.8803 9.55046L22.2674 9.65326C22.4933 9.72179 22.9838 10.133 22.9838 10.7333L22.9636 10.8658C23.2344 10.6087 23.6161 10.4754 24.0128 10.5365L24.0427 10.5411C24.7257 10.6463 25.1945 11.2883 25.0899 11.9749L24.8385 13.6236C24.831 13.6727 24.8208 13.7207 24.8081 13.7674ZM23.4013 14.6763C24.0843 14.7816 24.7215 14.243 24.8262 13.5563C24.8918 13.126 24.3341 13.126 24.3341 13.4805C24.271 13.8939 23.8879 14.245 23.4767 14.1817L23.4468 14.1771C23.0355 14.1137 22.7532 13.7272 22.8163 13.3138C22.8969 12.7846 22.1767 12.6524 22.0942 13.1933C22.0295 13.6176 21.6349 13.9089 21.2128 13.8439L21.1499 13.8342C20.7278 13.7692 20.438 13.3724 20.5027 12.9481C20.5606 12.5685 20.1053 12.5234 20.0453 12.8439C19.9965 13.1044 20.0297 13.3462 20.0645 13.4805C20.2132 13.9153 20.591 14.2544 21.0745 14.3289L21.1373 14.3386C21.63 14.4145 22.0998 14.1952 22.369 13.812C22.5094 14.2517 22.8864 14.597 23.3714 14.6717L23.4013 14.6763Z" fill="white"/>
</svg>
