<svg width="40" height="40" viewBox="0 0 40 40" fill="none" xmlns="http://www.w3.org/2000/svg">
<path fill-rule="evenodd" clip-rule="evenodd" d="M33.9767 4H6.02326C4.90584 4 4 4.90584 4 6.02326V33.9767C4 35.0942 4.90584 36 6.02326 36H33.9767C35.0942 36 36 35.0942 36 33.9767V6.02326C36 4.90584 35.0942 4 33.9767 4ZM6.02326 3C4.35356 3 3 4.35356 3 6.02326V33.9767C3 35.6464 4.35356 37 6.02326 37H33.9767C35.6464 37 37 35.6464 37 33.9767V6.02326C37 4.35356 35.6464 3 33.9767 3H6.02326Z" fill="white"/>
<rect x="11.9873" y="13.2897" width="1.76322" height="7.05289" transform="rotate(45 11.9873 13.2897)" fill="white"/>
<rect x="11.9873" y="13.2897" width="1.76322" height="7.05289" transform="rotate(45 11.9873 13.2897)" fill="white"/>
<rect x="7" y="14.5365" width="1.76322" height="7.05289" transform="rotate(-45 7 14.5365)" fill="white"/>
<rect x="7" y="14.5365" width="1.76322" height="7.05289" transform="rotate(-45 7 14.5365)" fill="white"/>
<rect x="26.9872" y="26" width="1.76322" height="7.05289" transform="rotate(45 26.9872 26)" fill="white"/>
<rect x="26.9872" y="26" width="1.76322" height="7.05289" transform="rotate(45 26.9872 26)" fill="white"/>
<rect x="22" y="27.2468" width="1.76322" height="7.05289" transform="rotate(-45 22 27.2468)" fill="white"/>
<rect x="22" y="27.2468" width="1.76322" height="7.05289" transform="rotate(-45 22 27.2468)" fill="white"/>
<rect x="31.9873" y="8" width="1.76322" height="7.05289" transform="rotate(45 31.9873 8)" fill="white"/>
<rect x="31.9873" y="8" width="1.76322" height="7.05289" transform="rotate(45 31.9873 8)" fill="white"/>
<rect x="27" y="9.2468" width="1.76322" height="7.05289" transform="rotate(-45 27 9.2468)" fill="white"/>
<rect x="27" y="9.2468" width="1.76322" height="7.05289" transform="rotate(-45 27 9.2468)" fill="white"/>
</svg>
