<svg width="40" height="40" viewBox="0 0 40 40" fill="none" xmlns="http://www.w3.org/2000/svg">
<path fill-rule="evenodd" clip-rule="evenodd" d="M19.6143 7.74037C19.6541 7.79935 19.7617 7.94681 19.9387 8.18195C20.0758 8.3605 20.1842 8.40912 20.2623 8.33021C20.3412 8.2513 20.2623 8.02573 20.0271 7.65189C19.7713 7.25893 19.8111 6.82691 20.1451 6.35424C20.1842 6.55112 20.4201 6.84604 20.8529 7.23901C21.2857 7.65189 21.5504 8.05442 21.6492 8.44818C21.6883 8.64426 21.6978 8.84114 21.6787 9.03722C21.6396 9.33214 21.5607 9.56808 21.4436 9.74503C21.2467 10.0009 21.1391 10.1675 21.1192 10.2472C21.0594 10.3851 21.1088 10.5517 21.2666 10.7486C21.4037 10.9438 21.3647 11.2093 21.1486 11.544C21.0107 11.7401 20.6967 12.114 20.2057 12.6639C19.9227 12.9796 19.5051 13.1565 18.9519 13.1948C19.089 12.9724 19.2317 12.7365 19.3799 12.4878C19.4588 12.4878 19.5082 12.4766 19.5282 12.4575L20.4129 11.2483C20.452 11.1694 20.4018 11.0419 20.2647 10.8657C20.1077 10.6888 19.9012 10.5023 19.6461 10.3046C19.3911 10.1292 19.1543 10.0009 18.9383 9.92199C18.7032 9.82474 18.5645 9.81358 18.5254 9.89329L17.6407 11.1025H17.671C17.6518 11.1423 17.6518 11.2005 17.671 11.2786C17.3322 11.6835 17.0325 12.0414 16.7719 12.3555C16.7432 12.334 16.7185 12.3085 16.6977 12.2829C16.5399 12.0669 16.3932 11.7712 16.2554 11.3982C16.0983 10.8673 16.0688 10.4353 16.1669 10.1013C16.3247 9.80561 16.4419 9.5896 16.5208 9.45171C16.6587 9.17671 16.6587 8.80368 16.5208 8.33181L16.8452 8.44977C17.1003 8.58767 17.2876 8.80368 17.4047 9.0978C17.4645 9.19664 17.4932 9.46207 17.4932 9.89409C17.4932 10.2273 17.502 10.3365 17.5227 10.2177C17.7579 9.90365 17.9053 9.57924 17.9643 9.24526C17.9842 9.04918 17.8567 8.7439 17.5817 8.33101C17.2286 7.89899 17.0126 7.6232 16.9337 7.50603C16.8157 7.32828 16.7663 6.91698 16.7854 6.26816C16.8053 5.59941 16.9034 5.17695 17.0803 5C17.1202 5.41289 17.2963 5.77636 17.6112 6.09041C17.769 6.24664 18.1915 6.42439 18.8786 6.62127C19.1543 6.70018 19.3209 6.86756 19.3799 7.12263C19.4764 7.47494 19.5553 7.68059 19.6143 7.74037Z" fill="white" fill-opacity="0.6"/>
<path fill-rule="evenodd" clip-rule="evenodd" d="M18.9362 9.92119C19.1522 10.0009 19.389 10.1292 19.644 10.3038C19.8991 10.5015 20.1063 10.688 20.2626 10.8649C20.3997 11.0419 20.4499 11.1694 20.4108 11.2475L19.5261 12.4567C19.5061 12.4758 19.4567 12.487 19.3778 12.487C18.297 14.2956 17.6577 15.3358 17.4616 15.6116C17.3827 15.7088 17.2942 16.2516 17.1954 17.2328C17.0782 18.1957 16.8718 18.894 16.5769 19.326L11.4476 26.5212C11.2906 26.6583 10.9367 26.6687 10.3859 26.5507C9.79688 26.3937 9.22617 26.1179 8.67698 25.7242C8.12619 25.3328 7.68381 24.8792 7.34904 24.3691C7.05412 23.8964 6.94651 23.5633 7.02463 23.3656L12.1554 16.1424C12.4504 15.7088 13.0402 15.288 13.925 14.8743C14.141 14.7762 14.4359 14.6383 14.8089 14.4614C15.0847 14.3235 15.2609 14.2063 15.3406 14.1083C15.4586 13.9297 16.2349 12.9876 17.6697 11.2762C17.6505 11.1981 17.6505 11.1399 17.6697 11.1001H17.6394L18.5241 9.8909C18.5624 9.81279 18.7003 9.82395 18.9362 9.92119Z" fill="white"/>
<path d="M24.0897 32.3902C25.1344 32.7505 25.3506 32.8946 26.6835 32.6784C26.6835 32.6784 31.3977 31.9593 33.096 31.7296C34.7943 31.5 35.7943 31.7296 35.7943 30.9602V28.8958C35.7943 28.547 33.8568 28.3844 33.096 27.9901C32.4593 27.66 32.0261 27.165 30.8091 27C30.2943 27 29.159 27 28.6649 27.165C28.3837 27.2589 27.8003 27.4439 27.6065 27.5113C27.3738 27.5922 26.8058 27.8787 26.1889 27.9901C25.6722 28.0834 25.0933 27.9982 24.9183 28.1032C24.6452 28.2671 24.6814 28.644 24.9183 28.9175C25.0458 29.0648 25.2316 29.1822 25.4587 29.22C26.1161 29.3296 27.2838 29.1972 27.8489 28.8958C28.1612 28.7292 28.179 29.0658 27.8489 29.3958C27.6007 29.5611 27.1821 29.8828 26.5189 29.9702C25.8582 30.0572 25.1051 30.3399 24.5365 30.2244C24.041 30.1237 22.439 30.1081 22.1678 30.0669C21.376 29.9466 20.7844 29.9657 19.7943 29.3958C18.8042 28.8259 18.357 28.9082 18.1441 29.1559C17.8606 29.4859 18.0082 29.8159 18.4742 30.2244C19.1807 30.8436 20.1819 31.0677 20.7943 31.5C21.4067 31.9323 23.0449 32.03 24.0897 32.3902Z" fill="white"/>
</svg>
