<svg width="40" height="40" viewBox="0 0 40 40" fill="none" xmlns="http://www.w3.org/2000/svg">
<path d="M18.6224 10.7134C18.6224 10.6967 18.6148 10.6806 18.5987 10.6639L17.0272 7.27078H17.0028V7.24641C17.0195 7.2297 17.0272 7.21298 17.0272 7.19697V7.14753V7.12246C17.0272 7.10645 17.0195 7.08974 17.0028 7.07302V7.04796C17.0028 7.03055 16.9937 7.01384 16.977 6.99713C16.977 6.98111 16.9687 6.96301 16.9526 6.9463L16.9269 6.92262C16.9269 6.90591 16.9185 6.88989 16.9018 6.87318C16.8851 6.85717 16.8684 6.84811 16.8517 6.84811C16.8517 6.83071 16.8426 6.81399 16.8266 6.79728C16.8092 6.79728 16.7932 6.78962 16.7758 6.77222C16.7605 6.7562 16.7438 6.73949 16.7263 6.72347H16.6268V6.6232C16.6268 6.6058 16.6351 6.58908 16.6518 6.57237C16.6518 6.55636 16.6602 6.53965 16.6769 6.52363V6.47419C16.6936 6.47419 16.7013 6.46444 16.7013 6.44912V6.39899C16.7013 6.38158 16.6936 6.36557 16.6769 6.34885V6.32379L16.6518 6.29872C16.6518 6.28131 16.6435 6.2653 16.6268 6.24928V6.19915L16.6017 6.17338V6.02437V6H15.9534V6.02437C15.9207 6.02437 15.8956 6.03273 15.8782 6.04944V6.64897H12.2128V6.69841V6.72347C12.1968 6.74019 12.171 6.74784 12.1383 6.74784C12.1209 6.76456 12.1042 6.78127 12.0889 6.79728C12.0715 6.79728 12.0548 6.80564 12.038 6.82235V6.84742H11.6892H11.5896L11.5645 6.87249C11.5478 6.8892 11.5228 6.89686 11.4893 6.89686C11.4726 6.91357 11.4559 6.93028 11.4399 6.9456C11.4232 6.9456 11.4148 6.95535 11.4148 6.97136C11.3988 6.98877 11.3807 7.00479 11.3661 7.02219C11.3661 7.03891 11.357 7.05631 11.341 7.07233C11.3236 7.08904 11.3076 7.10575 11.2909 7.12177L11.2651 7.14683V7.17051V7.22204V7.27078V7.29654V7.34668V7.37035H11.2408C11.2073 7.37035 11.1739 7.3794 11.1405 7.39612L11.1154 7.42118C11.0994 7.4379 11.082 7.4553 11.0667 7.47062L11.0416 7.49569C11.0242 7.51379 11.0165 7.52981 11.0165 7.54582V7.59526C10.9991 7.59526 10.9915 7.60431 10.9915 7.62033V7.66977V7.7206V7.74567C10.9915 7.76099 10.9991 7.77839 11.0158 7.79511V7.81948C11.0158 7.83688 11.0235 7.8536 11.0409 7.86961C11.0409 7.88632 11.0486 7.89468 11.066 7.89468C11.082 7.91278 11.0994 7.9288 11.1154 7.94551C11.1154 7.96153 11.1238 7.97824 11.1405 7.99425C11.1906 8.01027 11.2331 8.02768 11.2651 8.04439C11.2832 8.0611 11.3076 8.06876 11.341 8.06876C11.3898 8.06876 11.4315 8.07851 11.4657 8.09383H11.5402H11.5645C11.598 8.09383 11.6321 8.08617 11.6634 8.06876H11.7379C11.8876 8.05344 12.0457 8.04439 12.2121 8.04439V8.06876V8.11889V8.14396V11.2105V11.2607V11.3101H12.2873V11.3609V11.4097C12.3026 11.4264 12.3117 11.4431 12.3117 11.4591H12.5108V11.8337C12.5108 11.8505 12.5199 11.8665 12.5359 11.8825V11.9333V12.8316C11.6219 12.8552 10.0767 12.9778 8.93889 14.2527C8.35285 14.9094 7.90542 16.108 7.95549 17.3952C7.88771 19.4689 8.93889 21.2152 9.90609 22.0129C11.0276 22.9378 12.5562 23.3334 14.0581 23.3334C14.7863 23.3443 16.44 23.0016 17.6963 22.1887C18.894 21.4137 20.0689 19.3862 20.0422 17.3952C20.0178 15.5751 19.3696 14.5327 18.8195 14.0035C17.8659 13.0861 16.6047 12.9813 15.7264 12.9813V11.5587V11.5336C15.7431 11.5162 15.7508 11.4995 15.7508 11.4835C15.7675 11.4835 15.7759 11.4751 15.7759 11.4584C16.4241 11.4424 17.0641 11.4334 17.6963 11.4334C17.7123 11.4501 17.7214 11.4675 17.7214 11.4835C17.7214 11.5002 17.729 11.5169 17.7464 11.5336L20.0673 15.5249C20.1432 15.6356 20.1432 15.695 20.1432 15.7986L20.366 22.5125C20.35 22.5299 20.3333 22.5466 20.3166 22.5626H20.217C20.201 22.58 20.1843 22.596 20.1675 22.612C20.1508 22.6287 20.1348 22.6462 20.1181 22.6622L20.0923 22.6865V22.7123V22.7624V22.8119V22.862V22.8864C20.1091 22.9031 20.1181 22.9198 20.1181 22.9365C20.1508 22.9539 20.1759 22.9699 20.1926 22.986C20.226 22.986 20.2581 22.9943 20.2915 23.0103H20.4663C20.5004 22.9943 20.5331 22.986 20.5665 22.986C20.5826 22.9699 20.616 22.9539 20.6661 22.9365H20.6961C20.7135 22.9198 20.7211 22.9031 20.7211 22.8864H20.7469C20.7469 22.8697 20.7559 22.8537 20.7726 22.8363C20.7726 22.8195 20.7803 22.8028 20.7963 22.7861C20.813 22.7701 20.8214 22.7541 20.8214 22.7374L20.8465 22.7123C20.8625 22.6949 20.8715 22.6782 20.8715 22.6622V22.612C20.8875 22.596 20.8966 22.58 20.8966 22.5626V22.5125L20.8465 15.3794C20.8465 15.2793 20.8214 15.1805 20.7726 15.1057L18.7979 10.838C18.7979 10.8206 18.7881 10.8046 18.7721 10.7879C18.7554 10.7712 18.7394 10.7545 18.7227 10.7391C18.6886 10.7391 18.6719 10.7301 18.6719 10.7134H18.6224Z" fill="white"/>
<path d="M24.0897 32.3902C25.1344 32.7505 25.3506 32.8946 26.6835 32.6784C26.6835 32.6784 31.3977 31.9593 33.096 31.7296C34.7943 31.5 35.7943 31.7296 35.7943 30.9602V28.8958C35.7943 28.547 33.8568 28.3844 33.096 27.9901C32.4593 27.66 32.0261 27.165 30.8091 27C30.2943 27 29.159 27 28.6649 27.165C28.3837 27.2589 27.8003 27.4439 27.6065 27.5113C27.3738 27.5922 26.8058 27.8787 26.1889 27.9901C25.6722 28.0834 25.0933 27.9982 24.9183 28.1032C24.6452 28.2671 24.6814 28.644 24.9183 28.9175C25.0458 29.0648 25.2316 29.1822 25.4587 29.22C26.1161 29.3296 27.2838 29.1972 27.8489 28.8958C28.1612 28.7292 28.179 29.0658 27.8489 29.3958C27.6007 29.5611 27.1821 29.8828 26.5189 29.9702C25.8582 30.0572 25.1051 30.3399 24.5365 30.2244C24.041 30.1237 22.439 30.1081 22.1678 30.0669C21.376 29.9466 20.7844 29.9657 19.7943 29.3958C18.8042 28.8259 18.357 28.9082 18.1441 29.1559C17.8606 29.4859 18.0082 29.8159 18.4742 30.2244C19.1807 30.8436 20.1819 31.0677 20.7943 31.5C21.4067 31.9323 23.0449 32.03 24.0897 32.3902Z" fill="white"/>
</svg>
