<svg width="40" height="40" viewBox="0 0 40 40" fill="none" xmlns="http://www.w3.org/2000/svg">
<path fill-rule="evenodd" clip-rule="evenodd" d="M6.2439 16.9197C6.2439 11.5328 10.6109 7.16583 15.9978 7.16583C18.4382 7.16583 20.6683 8.06109 22.3794 9.54297L19.6451 9.70684L19.7591 11.6082L25.2476 11.2793L25.2453 11.2408L25.2461 11.2407L24.9191 5.78351L23.0177 5.89746L23.1178 7.56707C21.1422 6.0611 18.674 5.16583 15.9978 5.16583C9.50629 5.16583 4.2439 10.4282 4.2439 16.9197H6.2439Z" fill="white"/>
<path fill-rule="evenodd" clip-rule="evenodd" d="M29.8168 29.8105L28.3633 31.9085L26.9097 29.8105C24.3647 30.0801 22.4823 31.0411 22.4823 32.1854C22.4823 33.5387 25.1152 34.6358 28.3631 34.6358C31.611 34.6358 34.2439 33.5387 34.2439 32.1854C34.2439 31.0412 32.3616 30.0801 29.8168 29.8105Z" fill="white"/>
<path fill-rule="evenodd" clip-rule="evenodd" d="M28.4244 30.1282C28.4244 30.1282 22.7754 22.0093 22.7754 18.7625C22.7754 15.5158 25.3045 12.8837 28.4244 12.8837C31.5443 12.8837 34.0735 15.5158 34.0735 18.7625C34.0735 22.0093 28.4244 30.1282 28.4244 30.1282ZM28.4243 21.8033C26.618 21.8033 25.1538 20.339 25.1538 18.5328C25.1538 16.7265 26.618 15.2623 28.4243 15.2623C30.2305 15.2623 31.6948 16.7265 31.6948 18.5328C31.6948 20.339 30.2305 21.8033 28.4243 21.8033Z" fill="white"/>
<path d="M35.1288 31.401C34.8037 31.0032 34.5455 30.5992 33.8526 30.2405C32.8765 29.7352 31.6153 29.2938 30.1877 29.079L30.7451 28.2095C34.0042 28.741 36.309 30.3306 36.309 32.209C36.309 34.5224 32.813 36.3978 28.3438 36.3978C23.8747 36.3978 20.3787 34.5224 20.3787 32.209C20.3787 30.3196 22.7106 28.7223 26 28.2003L26.5 29.079C25.0723 29.2938 23.8112 29.7352 22.8351 30.2405C22.2192 30.5593 21.8067 31.092 21.5589 31.401C21.2672 31.7647 21.1704 32.6192 21.4954 33.017C21.8205 33.4148 22.1422 33.8188 22.8351 34.1775C24.2139 34.8912 26.1616 35.4141 28.3438 35.4141C30.5261 35.4141 32.4738 34.8912 33.8526 34.1775C34.5455 33.8188 34.8275 33.4331 35.1288 33.017C35.4839 32.5263 35.4259 31.7647 35.1288 31.401Z" fill="white"/>
</svg>
