<svg width="40" height="40" viewBox="0 0 40 40" fill="none" xmlns="http://www.w3.org/2000/svg">
<path d="M26.9119 12.435L27.1619 12.4359L27.1626 12.238L26.9701 12.1919L26.9119 12.435ZM26 14.6379L25.8232 14.4612L26.1387 14.8459L26 14.6379ZM27.67 13.5479L27.8057 13.7579L27.67 13.5479ZM29.19 12.5517V12.3017H29.1127L29.0489 12.3453L29.19 12.5517ZM23.9053 6.83621C23.9053 4.62707 25.6961 2.8362 27.9053 2.8362V2.3362C25.42 2.3362 23.4053 4.35092 23.4053 6.83621H23.9053ZM23.9053 8.30172V6.83621H23.4053V8.30172H23.9053ZM26.9701 12.1919C25.212 11.7708 23.9053 10.1886 23.9053 8.30172H23.4053C23.4053 10.4251 24.8757 12.2045 26.8536 12.6781L26.9701 12.1919ZM26.6619 12.4341C26.6601 12.9183 26.5361 13.7483 25.8232 14.4612L26.1768 14.8147C27.0156 13.9759 27.1598 12.9975 27.1619 12.4359L26.6619 12.4341ZM26.1387 14.8459C26.676 14.4877 27.2603 14.1102 27.8057 13.7579L27.5344 13.3379C26.9896 13.6899 26.4022 14.0693 25.8613 14.4299L26.1387 14.8459ZM27.8057 13.7579C28.3967 13.3761 28.9439 13.0226 29.331 12.7581L29.0489 12.3453C28.6684 12.6052 28.1276 12.9547 27.5344 13.3379L27.8057 13.7579ZM31.7156 12.3017H29.19V12.8017H31.7156V12.3017ZM35.7156 8.30172C35.7156 10.5109 33.9248 12.3017 31.7156 12.3017V12.8017C34.2009 12.8017 36.2156 10.787 36.2156 8.30172H35.7156ZM35.7156 6.83621V8.30172H36.2156V6.83621H35.7156ZM31.7156 2.8362C33.9248 2.8362 35.7156 4.62707 35.7156 6.83621H36.2156C36.2156 4.35092 34.2009 2.3362 31.7156 2.3362V2.8362ZM27.9053 2.8362H31.7156V2.3362H27.9053V2.8362Z" fill="white"/>
<path fill-rule="evenodd" clip-rule="evenodd" d="M31.6861 36.5591H4.51981L3.20581 36.5591C3.27191 36.3972 3.38927 35.7257 3.50915 35.0398C3.64618 34.2557 3.7865 33.4528 3.85735 33.3705C3.91654 33.3021 3.94745 33.0212 3.9841 32.6882C4.02962 32.2745 4.08401 31.7802 4.21248 31.513C4.40785 31.1075 4.73871 29.8051 4.8719 29.2808C4.89674 29.1831 4.9147 29.1123 4.92363 29.0795C4.94267 29.01 4.96111 28.9414 4.97929 28.8738C5.31151 27.6386 5.55512 26.7328 7.69925 26.3473C7.90133 26.3115 8.358 25.8329 8.358 25.8329L9.63574 25.4986C9.63958 25.4227 9.64394 25.3507 9.64757 25.291C9.65194 25.2188 9.65523 25.1645 9.65523 25.1427C9.65523 25.0453 9.74358 24.761 9.74358 24.761L10.1173 24.6307C10.1173 24.6307 11.473 24.1596 11.6158 24.1063C11.7573 24.0497 12.2285 23.9195 12.4154 23.8753C12.5699 23.8388 12.8049 23.9989 12.9687 24.1105L12.9687 24.1105C13.003 24.1339 13.0343 24.1551 13.0609 24.172C13.215 24.2694 13.3781 24.6307 13.3781 24.6307C13.3781 24.6307 13.4755 24.6726 13.4755 24.6194C13.4755 24.6024 13.48 24.5752 13.4857 24.5404V24.5404C13.498 24.4659 13.516 24.3565 13.5083 24.2377C13.497 24.0633 13.5853 23.7133 13.8583 23.4619C14.1313 23.2104 15.1053 23.2546 15.1053 23.2546L15.094 22.6951C15.094 22.6951 15.103 22.5309 14.7972 22.2681C14.5613 22.0654 14.4353 21.523 14.3546 21.1759C14.3307 21.0731 14.3108 20.9874 14.2932 20.9328C14.2426 20.7759 14.2624 20.4383 14.2761 20.2032V20.2032C14.2833 20.0802 14.2889 19.9852 14.2819 19.9588C14.2581 19.8817 14.1279 19.8376 13.7224 19.7719C13.3941 19.7187 13.3606 19.336 13.3363 19.0587C13.3305 18.9935 13.3253 18.9341 13.3169 18.8862C13.2855 18.7064 13.2988 18.3773 13.3091 18.1233C13.3133 18.0206 13.3169 17.9301 13.3169 17.8669C13.3169 17.6471 13.4143 16.6527 13.4766 16.5485C13.5343 16.4394 13.584 16.3668 13.6257 16.306C13.7429 16.135 13.7963 16.0572 13.7813 15.5213C13.77 15.1158 14.0542 14.0761 14.2083 13.7148C14.3623 13.3535 15.5889 11.2627 18.4023 11.2412C21.2156 11.2197 22.7469 12.5561 23.2419 14.1327C23.4695 14.8644 23.5443 15.9018 23.5114 15.9992C23.5363 16.2931 23.6802 16.3788 23.8351 16.471C23.9696 16.5511 24.1123 16.636 24.1921 16.8668C24.2283 16.9698 24.3201 18.8896 24.1185 19.2656C24.1185 19.2656 24.0822 19.5669 23.8161 19.6235L23.8078 19.6252C23.4846 19.6913 23.3826 19.7122 23.3527 19.7702C23.3389 19.797 23.3404 19.8317 23.3427 19.8825C23.3437 19.9052 23.3449 19.9312 23.3449 19.961C23.3449 20.3608 23.2147 21.1808 23.0516 21.3587C22.8975 21.5297 22.6778 21.8944 22.6778 21.8944C22.6778 21.8944 22.4683 22.0745 22.3199 22.3327C22.1715 22.5909 22.107 22.9488 22.1953 22.9488C22.2837 22.9488 23.4276 22.976 23.5578 23.1176C23.6066 23.1706 23.6675 23.2014 23.7279 23.2319C23.8286 23.2828 23.9278 23.333 23.9667 23.4845C24.0437 23.7926 24.5092 24.1777 24.5092 24.1777C24.5092 24.1777 25.9318 23.9817 26.2364 23.9614C26.5445 23.941 27.2025 24.3997 27.2229 24.4325C27.2326 24.4473 27.3672 24.5311 27.5148 24.623C27.6962 24.736 27.8973 24.8612 27.9104 24.8856C27.9214 24.906 27.8035 24.9697 27.6757 25.0387C27.5275 25.1187 27.366 25.2059 27.377 25.2412C27.3937 25.2953 27.5096 25.4093 27.6227 25.5206L27.6227 25.5206C27.647 25.5444 27.6711 25.5682 27.6941 25.5912C27.7396 25.6355 27.7696 25.7207 27.7902 25.8177L27.8479 25.8329C27.8479 25.8329 28.3046 26.3115 28.5067 26.3473C30.6508 26.7328 30.8944 27.6386 31.2266 28.8738C31.2448 28.9414 31.2633 29.01 31.2823 29.0795C31.2912 29.1123 31.3092 29.183 31.334 29.2808C31.4672 29.8051 31.7981 31.1075 31.9934 31.513C32.1219 31.7802 32.1763 32.2745 32.2218 32.6882C32.2585 33.0212 32.2894 33.3021 32.3486 33.3705C32.4194 33.4528 32.5597 34.2557 32.6968 35.0398C32.8167 35.7257 32.934 36.3972 33.0001 36.5591L31.6861 36.5591Z" fill="white"/>
<path d="M27.933 6.89637L27.7737 8.47414H27.2124L27.0607 6.89637V5H27.933V6.89637ZM27.9861 10.0519H27V9.01271H27.9861V10.0519Z" fill="white"/>
<path d="M29.933 6.89637L29.7737 8.47414H29.2124L29.0607 6.89637V5H29.933V6.89637ZM29.9861 10.0519H29V9.01271H29.9861V10.0519Z" fill="white"/>
<path d="M31.933 6.89637L31.7737 8.47414H31.2124L31.0607 6.89637V5H31.933V6.89637ZM31.9861 10.0519H31V9.01271H31.9861V10.0519Z" fill="white"/>
</svg>
