<svg width="40" height="40" viewBox="0 0 40 40" fill="none" xmlns="http://www.w3.org/2000/svg">
<path fill-rule="evenodd" clip-rule="evenodd" d="M20.5 33C27.9558 33 34 26.9558 34 19.5C34 12.0441 27.9558 5.99998 20.5 5.99998C13.0442 5.99998 7 12.0441 7 19.5C7 26.9558 13.0442 33 20.5 33ZM19.2898 28.1391V30.7803H21.2677V28.1391H22.3511C23.0418 28.1391 23.6307 27.88 24.1176 27.3638C24.604 26.8483 24.8478 26.2178 24.8478 25.4724V21.5359C24.8478 20.3169 24.259 19.4959 23.0813 19.0724C22.6414 18.9207 21.9307 18.6832 20.9497 18.3613C19.9681 18.0401 19.3669 17.8451 19.1473 17.7772C18.8175 17.6598 18.6527 17.4223 18.6527 17.0661V14.4001C18.6527 13.9601 18.8806 13.7398 19.3357 13.7398H21.4555C21.6292 13.7398 21.7776 13.8033 21.9042 13.9302C22.0296 14.0572 22.0915 14.2141 22.0915 14.4001V15.8217H24.6823V13.8915C24.6823 13.1474 24.4386 12.5163 23.9522 12.0001C23.4658 11.4833 22.877 11.2255 22.1857 11.2255H21.2671V8.58424H19.2886V11.2255H18.4413C17.7659 11.2255 17.1894 11.4839 16.7101 12.0001C16.2308 12.5163 15.9917 13.1468 15.9917 13.8915V17.5747C15.9917 18.1499 16.156 18.6534 16.4864 19.0858C16.8155 19.5175 17.2401 19.8267 17.7582 20.0128C18.5903 20.3169 19.9016 20.7493 21.6916 21.308C21.896 21.3759 22.0302 21.4566 22.0926 21.5493C22.1545 21.642 22.1869 21.8077 22.1869 22.0445V24.9651C22.1869 25.4051 21.9755 25.6254 21.5509 25.6254H19.1956C19.0231 25.6254 18.8735 25.5619 18.7481 25.435C18.6221 25.308 18.5596 25.1518 18.5596 24.9651V23.3143H15.9694V25.4724C15.9694 26.2165 16.209 26.8464 16.6877 27.3638C17.1665 27.8813 17.7435 28.1391 18.4189 28.1391H19.2898Z" fill="white"/>
</svg>
