<svg width="40" height="40" viewBox="0 0 40 40" fill="none" xmlns="http://www.w3.org/2000/svg">
<path fill-rule="evenodd" clip-rule="evenodd" d="M19.538 3C13.1242 3 7.24865 6.51378 4.15002 11.9763C7.24865 17.4389 13.1242 20.9527 19.538 20.9527H19.538C25.9519 20.9527 31.8274 17.4389 34.926 11.9763C31.8274 6.51378 25.9518 3 19.538 3ZM31.9513 11.9763C30.7416 13.7133 29.2053 15.1524 27.4456 16.2279C28.1275 14.9624 28.5144 13.5146 28.5144 11.9763C28.5144 10.4381 28.1275 8.99024 27.4456 7.72476C29.2053 8.80028 30.7416 10.2394 31.9513 11.9763ZM10.5617 11.9763C10.5617 10.4381 10.9486 8.99019 11.6305 7.7247C9.87078 8.80023 8.33441 10.2393 7.12475 11.9763C8.33441 13.7133 9.87078 15.1524 11.6305 16.228C10.9487 14.9625 10.5617 13.5146 10.5617 11.9763ZM23.2889 14.1554V13.2835C23.2729 13.2642 23.2521 13.2313 23.2261 13.1904C23.1492 13.069 23.0275 12.8768 22.853 12.7603C22.5538 12.5605 22.1554 12.4987 22.1554 12.4987V11.3652C22.2426 11.278 22.4344 11.0513 22.5042 10.842C22.5914 10.5804 22.6786 10.0573 22.6786 9.79568C22.6786 9.58642 22.5042 9.59223 22.417 9.62129V7.52863C22.417 6.65669 21.4578 5 19.4524 5C17.4469 5 16.4878 6.56949 16.4878 7.70302V9.62129C16.4006 9.56316 16.2262 9.51666 16.2262 9.79568C16.2262 10.0747 16.4006 10.6095 16.4878 10.842C16.575 11.0164 16.7842 11.3652 16.9237 11.3652C17.0633 11.3652 17.0981 12.1209 17.0981 12.4987C17.0981 12.4987 16.8365 12.6295 16.575 12.8475C16.3134 13.0655 16.2262 13.2835 16.2262 13.2835V14.1554L13.5 15.1869C13.5 15.1869 13 15.5 13 16V17.12C13 17.12 15.5 18.5 19.5 18.5C23.5 18.5 26.0791 17.12 26.0791 17.12V16C26.0791 15.3047 25.6467 15.1869 25.6467 15.1869L23.2889 14.1554Z" fill="white"/>
<mask id="path-2-inside-1" fill="white">
<path fill-rule="evenodd" clip-rule="evenodd" d="M7.18811 31.5102C7.18811 29.403 11.7829 27.6647 17.7163 27.4147V30.0816L13.8155 30.0816L19.2995 34.8309L24.7835 30.0816L20.8825 30.0816V27.4244C26.712 27.7067 31.1966 29.4285 31.1966 31.5102C31.1966 33.7892 25.8221 35.6367 19.1923 35.6367C12.5626 35.6367 7.18811 33.7892 7.18811 31.5102Z"/>
</mask>
<path fill-rule="evenodd" clip-rule="evenodd" d="M7.18811 31.5102C7.18811 29.403 11.7829 27.6647 17.7163 27.4147V30.0816L13.8155 30.0816L19.2995 34.8309L24.7835 30.0816L20.8825 30.0816V27.4244C26.712 27.7067 31.1966 29.4285 31.1966 31.5102C31.1966 33.7892 25.8221 35.6367 19.1923 35.6367C12.5626 35.6367 7.18811 33.7892 7.18811 31.5102Z" fill="white"/>
<path d="M17.7163 27.4147H17.8033V27.3239L17.7126 27.3277L17.7163 27.4147ZM17.7163 30.0816V30.1686L17.8033 30.1686V30.0816H17.7163ZM13.8155 30.0816V29.9946L13.5821 29.9946L13.7585 30.1474L13.8155 30.0816ZM19.2995 34.8309L19.2425 34.8967L19.2995 34.946L19.3564 34.8967L19.2995 34.8309ZM24.7835 30.0816L24.8404 30.1474L25.0168 29.9946L24.7835 29.9946V30.0816ZM20.8825 30.0816H20.7955V30.1686L20.8825 30.1686V30.0816ZM20.8825 27.4244L20.8867 27.3375L20.7955 27.3331V27.4244H20.8825ZM17.7126 27.3277C14.7396 27.4531 12.0976 27.9513 10.1959 28.6849C9.24536 29.0515 8.47518 29.4788 7.94111 29.9513C7.40719 30.4238 7.10112 30.9493 7.10112 31.5102H7.2751C7.2751 31.0175 7.54338 30.5356 8.0564 30.0816C8.56927 29.6278 9.31863 29.2098 10.2585 28.8472C12.1375 28.1223 14.7596 27.6264 17.72 27.5016L17.7126 27.3277ZM17.8033 30.0816V27.4147H17.6293V30.0816H17.8033ZM13.8155 30.1686L17.7163 30.1686V29.9946L13.8155 29.9946V30.1686ZM19.3564 34.7651L13.8724 30.0159L13.7585 30.1474L19.2425 34.8967L19.3564 34.7651ZM24.7265 30.0159L19.2425 34.7651L19.3564 34.8967L24.8404 30.1474L24.7265 30.0159ZM20.8825 30.1686L24.7835 30.1686V29.9946L20.8825 29.9946V30.1686ZM20.7955 27.4244V30.0816H20.9695V27.4244H20.7955ZM31.2836 31.5102C31.2836 30.9561 30.9848 30.4365 30.4628 29.9685C29.9408 29.5005 29.1876 29.0766 28.2574 28.7115C26.3962 27.9811 23.8077 27.479 20.8867 27.3375L20.8783 27.5113C23.7867 27.6521 26.3553 28.152 28.1938 28.8735C29.1134 29.2344 29.8457 29.6489 30.3467 30.0981C30.8478 30.5472 31.1096 31.0235 31.1096 31.5102H31.2836ZM19.1923 35.7237C22.5142 35.7237 25.5253 35.261 27.7089 34.5104C28.8003 34.1352 29.6898 33.6865 30.3081 33.184C30.9257 32.682 31.2836 32.1169 31.2836 31.5102H31.1096C31.1096 32.0431 30.7956 32.5635 30.1984 33.0489C29.6018 33.5338 28.7333 33.9742 27.6523 34.3458C25.4913 35.0887 22.5002 35.5497 19.1923 35.5497V35.7237ZM7.10112 31.5102C7.10112 32.1169 7.45896 32.682 8.0766 33.184C8.69493 33.6865 9.58439 34.1352 10.6758 34.5104C12.8594 35.261 15.8705 35.7237 19.1923 35.7237V35.5497C15.8844 35.5497 12.8934 35.0887 10.7323 34.3458C9.65141 33.9742 8.78289 33.5338 8.18633 33.0489C7.58907 32.5635 7.2751 32.0431 7.2751 31.5102H7.10112Z" fill="white" mask="url(#path-2-inside-1)"/>
<path fill-rule="evenodd" clip-rule="evenodd" d="M20.8826 19H17.7164V26.4483C14.7489 26.5716 12.0721 27.0617 10.0387 27.8012C8.85753 28.2307 7.86819 28.7533 7.16523 29.3577C6.46382 29.9607 6 30.6894 6 31.519C6 32.3485 6.46382 33.0772 7.16523 33.6803C7.86819 34.2846 8.85753 34.8073 10.0387 35.2368C12.4049 36.0972 15.6422 36.6201 19.195 36.6201C22.7478 36.6201 25.9851 36.0972 28.3513 35.2368C29.5325 34.8073 30.5218 34.2846 31.2248 33.6803C31.9262 33.0772 32.39 32.3485 32.39 31.519C32.39 30.6894 31.9262 29.9607 31.2248 29.3577C30.5218 28.7533 29.5325 28.2307 28.3513 27.8012C26.3657 27.0791 23.7667 26.5948 20.8826 26.4577V19ZM17.96 26.9155H20.43C26.875 27.1413 31.9139 29.1161 31.9139 31.519C31.9139 34.0733 26.2195 36.144 19.195 36.144C12.1705 36.144 6.47609 34.0733 6.47609 31.519C6.47609 29.1161 11.515 27.1413 17.96 26.9155Z" fill="white"/>
</svg>
