<svg width="40" height="40" viewBox="0 0 40 40" fill="none" xmlns="http://www.w3.org/2000/svg">
<path d="M21.8424 12.9701H18.1941V16.7229H21.8424C21.9978 16.7229 22.1301 16.6706 22.2433 16.5655C22.356 16.459 22.4123 16.3301 22.4123 16.1741V13.5182C22.4123 13.3642 22.356 13.2333 22.2433 13.1275C22.1301 13.023 21.9971 12.9701 21.8424 12.9701Z" fill="white"/>
<path d="M22.3058 10.1453V7.82526C22.3058 7.67059 22.2495 7.54034 22.1369 7.43451C22.025 7.32937 21.89 7.27713 21.7367 7.27713H18.1935V10.6928H21.7998C22.1376 10.665 22.3058 10.4825 22.3058 10.1453Z" fill="white"/>
<path d="M20 2C14.4773 2 10 6.47731 10 12.0007C10 17.5227 14.4773 22 20 22C25.5234 22 30 17.5227 30 12C30 6.47731 25.5234 2 20 2ZM24.942 16.8077C24.942 17.427 24.7236 17.9501 24.2887 18.3775C23.8525 18.8069 23.3261 19.0212 22.7074 19.0212H15.6645V4.97809H22.6016C23.2189 4.97809 23.7474 5.19246 24.1829 5.62187C24.6191 6.05061 24.8362 6.57432 24.8362 7.19232V10.207C24.8362 10.5313 24.731 10.8434 24.5194 11.1452C24.3084 11.4478 24.0418 11.6486 23.7182 11.7463C24.0418 11.8026 24.326 11.9715 24.573 12.2524C24.8179 12.5346 24.9413 12.871 24.9413 13.2652V16.8077H24.942Z" fill="white"/>
<mask id="path-4-inside-1" fill="white">
<path fill-rule="evenodd" clip-rule="evenodd" d="M8.18811 32.5102C8.18811 30.403 12.7829 28.6647 18.7163 28.4147V31.0816L14.8155 31.0816L20.2995 35.8309L25.7835 31.0816L21.8825 31.0816V28.4244C27.712 28.7067 32.1966 30.4285 32.1966 32.5102C32.1966 34.7892 26.8221 36.6367 20.1923 36.6367C13.5626 36.6367 8.18811 34.7892 8.18811 32.5102Z"/>
</mask>
<path fill-rule="evenodd" clip-rule="evenodd" d="M8.18811 32.5102C8.18811 30.403 12.7829 28.6647 18.7163 28.4147V31.0816L14.8155 31.0816L20.2995 35.8309L25.7835 31.0816L21.8825 31.0816V28.4244C27.712 28.7067 32.1966 30.4285 32.1966 32.5102C32.1966 34.7892 26.8221 36.6367 20.1923 36.6367C13.5626 36.6367 8.18811 34.7892 8.18811 32.5102Z" fill="white"/>
<path d="M18.7163 28.4147H18.8033V28.3239L18.7126 28.3277L18.7163 28.4147ZM18.7163 31.0816V31.1686L18.8033 31.1686V31.0816H18.7163ZM14.8155 31.0816V30.9946L14.5821 30.9946L14.7585 31.1474L14.8155 31.0816ZM20.2995 35.8309L20.2425 35.8967L20.2995 35.946L20.3564 35.8967L20.2995 35.8309ZM25.7835 31.0816L25.8404 31.1474L26.0168 30.9946L25.7835 30.9946V31.0816ZM21.8825 31.0816H21.7955V31.1686L21.8825 31.1686V31.0816ZM21.8825 28.4244L21.8867 28.3375L21.7955 28.333V28.4244H21.8825ZM18.7126 28.3277C15.7396 28.4531 13.0976 28.9513 11.1959 29.6849C10.2454 30.0515 9.47518 30.4788 8.94111 30.9513C8.40719 31.4238 8.10112 31.9493 8.10112 32.5102H8.2751C8.2751 32.0175 8.54338 31.5356 9.0564 31.0816C9.56927 30.6278 10.3186 30.2098 11.2585 29.8472C13.1375 29.1223 15.7596 28.6263 18.72 28.5016L18.7126 28.3277ZM18.8033 31.0816V28.4147H18.6293V31.0816H18.8033ZM14.8155 31.1686L18.7163 31.1686V30.9946L14.8155 30.9946V31.1686ZM20.3564 35.7651L14.8724 31.0159L14.7585 31.1474L20.2425 35.8967L20.3564 35.7651ZM25.7265 31.0159L20.2425 35.7651L20.3564 35.8967L25.8404 31.1474L25.7265 31.0159ZM21.8825 31.1686L25.7835 31.1686V30.9946L21.8825 30.9946V31.1686ZM21.7955 28.4244V31.0816H21.9695V28.4244H21.7955ZM32.2836 32.5102C32.2836 31.9561 31.9848 31.4364 31.4628 30.9685C30.9408 30.5005 30.1876 30.0766 29.2574 29.7115C27.3962 28.9811 24.8077 28.479 21.8867 28.3375L21.8783 28.5112C24.7867 28.6521 27.3553 29.152 29.1938 29.8735C30.1134 30.2344 30.8457 30.6489 31.3467 31.098C31.8478 31.5472 32.1096 32.0235 32.1096 32.5102H32.2836ZM20.1923 36.7237C23.5142 36.7237 26.5253 36.261 28.7089 35.5103C29.8003 35.1352 30.6898 34.6865 31.3081 34.1839C31.9257 33.682 32.2836 33.1169 32.2836 32.5102H32.1096C32.1096 33.043 31.7956 33.5635 31.1984 34.0489C30.6018 34.5338 29.7333 34.9742 28.6523 35.3458C26.4913 36.0887 23.5002 36.5497 20.1923 36.5497V36.7237ZM8.10112 32.5102C8.10112 33.1169 8.45896 33.682 9.0766 34.1839C9.69493 34.6865 10.5844 35.1352 11.6758 35.5103C13.8594 36.261 16.8705 36.7237 20.1923 36.7237V36.5497C16.8844 36.5497 13.8934 36.0887 11.7323 35.3458C10.6514 34.9742 9.78289 34.5338 9.18633 34.0489C8.58907 33.5635 8.2751 33.043 8.2751 32.5102H8.10112Z" fill="white" mask="url(#path-4-inside-1)"/>
<path fill-rule="evenodd" clip-rule="evenodd" d="M21.8826 20H18.7164V27.4483C15.7489 27.5716 13.0721 28.0617 11.0387 28.8012C9.85753 29.2307 8.86819 29.7533 8.16523 30.3577C7.46382 30.9607 7 31.6894 7 32.519C7 33.3485 7.46382 34.0772 8.16523 34.6803C8.86819 35.2846 9.85753 35.8073 11.0387 36.2368C13.4049 37.0972 16.6422 37.6201 20.195 37.6201C23.7478 37.6201 26.9851 37.0972 29.3513 36.2368C30.5325 35.8073 31.5218 35.2846 32.2248 34.6803C32.9262 34.0772 33.39 33.3485 33.39 32.519C33.39 31.6894 32.9262 30.9607 32.2248 30.3577C31.5218 29.7533 30.5325 29.2307 29.3513 28.8012C27.3657 28.0791 24.7667 27.5948 21.8826 27.4577V20ZM18.96 27.9155H21.43C27.875 28.1413 32.9139 30.1161 32.9139 32.519C32.9139 35.0733 27.2195 37.144 20.195 37.144C13.1705 37.144 7.47609 35.0733 7.47609 32.519C7.47609 30.1161 12.515 28.1413 18.96 27.9155Z" fill="white"/>
</svg>
