<?xml version="1.0" encoding="utf-8"?>
<!-- Generator: Adobe Illustrator 23.0.3, SVG Export Plug-In . SVG Version: 6.00 Build 0)  -->
<svg version="1.1" id="Layer_1" xmlns="http://www.w3.org/2000/svg" xmlns:xlink="http://www.w3.org/1999/xlink" x="0px" y="0px"
	 width="32px" height="32px" viewBox="0 0 32 32" enable-background="new 0 0 32 32" xml:space="preserve">
<g>
	<path fill="#FFFFFF" d="M18.028,31.648l0.07,0.03l0.133,0.133c0,0,0.547,0.118,1.02,0.118s0.946-0.074,0.961-0.126
		c0.015-0.052-0.03-0.303-0.089-0.377c-0.059-0.074-0.355-0.562-0.399-0.739c-0.044-0.177-0.163-0.458-0.163-0.532
		c0-0.074,0.059-0.089,0.059-0.089s0.074-0.281,0.089-0.37c0.015-0.089-0.03-0.251-0.015-0.488c0.015-0.237,0.044-0.562,0.044-0.606
		s0.059-0.192,0.133-0.266s0.177-0.207,0.192-0.325c0.015-0.118,0.118-0.355,0.044-0.621s-0.31-0.887-0.325-0.931
		c-0.015-0.044-0.237-0.355-0.296-0.517c-0.059-0.163-0.163-0.503-0.163-0.503s0.044-0.636,0.044-0.798
		c0-0.163-0.118-0.872-0.133-1.02c-0.015-0.148-0.189-0.532-0.146-0.636s0.075-0.296,0-0.355c-0.075-0.059,0.001-0.163,0-0.296
		s-0.149-0.473-0.149-0.473s0.177-0.118,0.237-0.163c0.059-0.044,0.296-0.207,0.31-0.266c0.015-0.059,0.089-0.355,0.044-0.488
		s-0.118-0.458-0.118-0.458s0.163-0.044,0.207-0.118s0.163-0.251,0.163-0.414c0-0.163-0.133-0.384-0.163-0.429
		c-0.03-0.044-0.133-0.133-0.207-0.133s-0.041-0.059-0.055-0.133c-0.015-0.074-0.033-0.166-0.074-0.189
		c-0.041-0.022-0.107-0.067-0.144-0.063c-0.037,0.004-0.126-0.048-0.126-0.048s-0.214-0.225-0.222-0.237
		c-0.007-0.011-0.107-0.144-0.129-0.189c-0.022-0.044-0.1-0.144-0.133-0.166c-0.033-0.022-0.159-0.096-0.159-0.096
		s-0.063-0.41-0.074-0.495c-0.011-0.085-0.041-0.262-0.041-0.262s0.044-0.033,0.067-0.055c0.022-0.022,0.078-0.037,0.074-0.089
		c-0.004-0.052-0.018-0.115-0.052-0.155c-0.033-0.041-0.063-0.096-0.059-0.107c0.004-0.011,0.044-0.03,0.044-0.03
		s0.015-0.067,0.015-0.078c0-0.011-0.026-0.107-0.026-0.107l0.015-0.048c0,0-0.026-0.233-0.03-0.244
		c-0.004-0.011,0.011-0.177,0.011-0.177l0.048-0.078l0.333,0.011c0,0,0.189,0,0.225-0.004c0.037-0.004,0.089-0.022,0.089-0.022
		l0.018-0.067h0.14c0,0,0.07,0.007,0.1-0.022c0.03-0.03,0.044-0.207,0.044-0.207l-0.022-0.274v-0.067l-0.033-0.462l-0.033-0.026
		l-0.004-0.418h0.096c0,0,0-0.281,0-0.325s-0.03-0.466-0.033-0.495c-0.004-0.03,0.018-0.044,0.018-0.067s-0.03-0.244-0.037-0.277
		s-0.044-0.274-0.052-0.307c-0.007-0.033-0.037-0.107-0.037-0.137c0-0.03,0.041-0.089,0.041-0.089s0.214-0.233,0.24-0.325
		c0.026-0.092,0.166-0.721,0.17-0.839s-0.122-0.351-0.133-0.384c-0.011-0.033,0.004-0.096,0.015-0.133
		c0.011-0.037,0.037-0.163,0.037-0.255s-0.015-0.732-0.048-0.821c-0.033-0.089-0.203-0.288-0.229-0.307
		c-0.026-0.018-0.14-0.303-0.2-0.418c-0.059-0.115-0.259-0.373-0.318-0.41c-0.059-0.037-0.225-0.037-0.277-0.07
		c-0.052-0.033-0.159-0.085-0.166-0.118s-0.007-0.196-0.052-0.24c-0.044-0.044-0.1-0.096-0.107-0.118
		c-0.007-0.022,0.188-0.105,0.18-0.12s-0.225-0.142-0.232-0.153s-0.229-0.166-0.333-0.159c-0.103,0.007-0.583,0.073-0.583,0.073
		s-0.157-0.13-0.183-0.234c-0.021-0.082-0.094-0.076-0.138-0.124c-0.044-0.048-0.43-0.057-0.46-0.057S16.39,7.758,16.44,7.671
		s0.121-0.148,0.121-0.148s0.074-0.123,0.126-0.181c0.055-0.06,0.099-0.337,0.099-0.472c0-0.082-0.026-0.076,0.159-0.114
		c0.09-0.019,0.102-0.121,0.102-0.121c0.068-0.127,0.037-0.775,0.025-0.81c-0.05-0.145-0.188-0.114-0.23-0.143
		c-0.083-0.057-0.012-0.117,0-0.15c0.011-0.033-0.014-0.383-0.091-0.63c-0.167-0.532-0.684-0.983-1.634-0.976
		c-0.95,0.007-1.364,0.713-1.416,0.835c-0.052,0.122-0.148,0.473-0.144,0.61c0.004,0.137,0.03,0.163,0.052,0.181
		s0.052,0.044,0.052,0.055s0.007,0.044-0.011,0.052c-0.018,0.007-0.07,0-0.093,0.007c-0.022,0.007-0.085,0.018-0.103,0.052
		C13.433,5.753,13.4,6.089,13.4,6.163c0,0.074-0.015,0.259,0,0.344s0,0.277,0.137,0.299c0.137,0.022,0.181,0.037,0.189,0.063
		c0.007,0.026-0.022,0.248,0.004,0.329c0.026,0.081,0.067,0.362,0.17,0.451c0.103,0.089,0.1,0.144,0.1,0.144l0.004,0.189
		c0,0-0.329-0.015-0.421,0.07c-0.092,0.085-0.122,0.203-0.118,0.262c0.004,0.059-0.011,0.111-0.011,0.129
		c0,0.018-0.033,0.004-0.033,0.004s-0.055-0.122-0.107-0.155c-0.052-0.033-0.155-0.115-0.218-0.1
		c-0.063,0.015-0.222,0.059-0.27,0.078c-0.048,0.018-0.506,0.177-0.506,0.177l-0.126,0.044c0,0-0.03,0.096-0.03,0.129
		s-0.022,0.285,0,0.314c0.022,0.03,0.007,0.059,0.007,0.059s-0.274,0.004-0.377,0.037c-0.103,0.033-0.351,0.089-0.436,0.166
		c-0.085,0.078-0.081,0.037-0.202,0.065c-0.243,0.056-0.137,0.051-0.03,0.237c0.084,0.146,0.577,0.387,0.532,0.453
		c-0.044,0.067,0.028,0.363,0.01,0.404c-0.018,0.041,0.379,0.412,0.365,0.434c-0.015,0.022-0.103,0.848-0.148,0.877
		c-0.044,0.03-0.022,0.228-0.03,0.246c-0.007,0.018,0.049,1.133,0.049,1.133l0.01,0.453l-0.306,0.148l-0.218,0.147l0.063,0.015
		c0,0-0.126,0.078-0.14,0.122c-0.015,0.044-0.022,0.081-0.011,0.111c0.011,0.03,0.015,0.052,0.037,0.063s0.018,0.466,0.018,0.466
		l-0.03,0.1l0.015,0.14c0,0-0.015,0.299-0.048,0.329c-0.033,0.03-0.037,0.055-0.078,0.089c-0.041,0.033-0.074,0.089-0.078,0.126
		s0.015,0.07,0.044,0.115c0.03,0.044,0.107,0.211,0.118,0.355s0.018,0.292,0.026,0.303c0.007,0.011,0.078,0.129,0.107,0.152
		c0.03,0.022,0.244,0.222,0.288,0.233s0.155,0.03,0.214,0.03s0.251,0.052,0.288,0.041c0.037-0.011,0.163-0.004,0.163-0.004
		s0.007,0.248-0.03,0.299s-0.103,0.495-0.155,0.651c-0.052,0.155-0.137,0.414-0.152,0.447c-0.015,0.033,0.004,0.063,0.004,0.063
		l0.115,0.041c0,0,0.067,0.133,0.033,0.163s-0.137,0.03-0.137,0.03l-0.081,0.022c0,0-0.122,0.436-0.111,0.48
		c0.011,0.044,0.085,0.103,0.085,0.103v0.074c0,0-0.048,0.237-0.048,0.296c0,0.059-0.015,0.155-0.015,0.155l-0.074,0.03L11.7,19.421
		l0.055-0.554c0,0,0.044-0.569,0.022-0.617c-0.022-0.048-0.037-0.089-0.067-0.078c-0.03,0.011-0.111,0.118-0.181,0.137
		s-0.185,0.026-0.296,0.03s-0.24-0.007-0.281-0.048c-0.041-0.041-0.085-0.129-0.115-0.129c-0.03,0-0.085-0.007-0.085,0.044
		c0,0.052,0.03,1.512,0.03,1.512l0.055,2.051c0,0-0.026,0.081,0.063,0.078c0.089-0.004,0.458-0.007,0.488-0.007
		c0.03,0,0.137,0.015,0.155-0.03c0.018-0.044,0.03-0.14,0.03-0.152c0-0.011,0.03-1.73,0.026-1.756
		c-0.004-0.026-0.022-0.078,0.004-0.089c0.026-0.011,0.152,0.011,0.152,0.011s-0.044,1.73-0.037,1.848
		c0.007,0.118-0.03,0.806-0.015,0.865c0.015,0.059,0.018,0.384,0.011,0.41c-0.007,0.026-0.033,0.325-0.033,0.325l0.03,0.322
		L11.7,23.89l-0.063,0.503l-0.015,0.514l0.03,0.333v0.222l-0.059,0.103l-0.152,0.329l-0.059,0.211l-0.074,0.285l-0.115,0.336
		l-0.129,0.469l-0.07,0.359l-0.048,0.351l0.011,0.244l0.085,0.237l0.207,0.14l0.159,0.155l0.074,0.044l0.037,0.011l-0.004,0.554
		l-0.03,0.54c0,0-0.004,0.148,0.007,0.17s0.074,0.037,0.074,0.037s-0.007,0.085-0.022,0.1c-0.015,0.015-0.126,0.152-0.166,0.214
		c-0.041,0.063-0.137,0.181-0.166,0.207c-0.03,0.026-0.211,0.192-0.24,0.211c-0.03,0.018-0.159,0.103-0.214,0.177
		c-0.055,0.074-0.148,0.314-0.148,0.314s-0.047,0.01-0.059,0.067c-0.03,0.137-0.085,0.314-0.074,0.366s0.022,0.096,0.085,0.107
		c0.063,0.011,0.684,0.055,0.928,0.048c0.244-0.007,1.002-0.037,1.079-0.055c0.078-0.018,0.122-0.048,0.155-0.052
		c0.033-0.004,0.163-0.018,0.185-0.018s0.118-0.018,0.148-0.037c0.03-0.018,0.133-0.085,0.14-0.096
		c0.007-0.011,0.081-0.059,0.081-0.081s-0.011-0.126-0.011-0.126s-0.015-0.713-0.015-0.724c0-0.011-0.004-0.255-0.004-0.255
		l-0.037-0.085l0.115-0.055v-0.063l0.015-0.769c0,0,0.055-0.484,0.055-0.495c0-0.011,0.03-0.133,0.037-0.155
		c0.007-0.022,0.118-0.237,0.118-0.237l0.115-0.222l0.089-0.181c0,0,0.107-0.207,0.115-0.314c0.007-0.107-0.048-0.362-0.052-0.432
		s0.004-0.573,0.004-0.573s0.041-0.388,0.044-0.451c0.004-0.063,0-0.529,0-0.551c0-0.022-0.03-0.24-0.03-0.24
		s-0.033-0.033-0.018-0.067c0.015-0.033,0.144-0.333,0.144-0.377s0.14-0.466,0.155-0.532s0.048-0.628,0.048-0.669
		s0.011-0.144,0.011-0.144l0.163-0.137c0,0,0.081-0.103,0.096-0.248c0.015-0.144,0.033-0.532,0.03-0.543
		c-0.004-0.011-0.011-0.166-0.011-0.166s0.067,0.011,0.089-0.011s0.07-0.159,0.07-0.159s0.19-0.669,0.2-0.68
		c0.01-0.011,0-0.096,0-0.096l-0.023-0.052c0,0,0.016-0.111,0.023-0.122c0.007-0.011,0.039-0.203,0.039-0.203
		s0.037,0.007,0.048-0.033c0.011-0.041,0.103-0.469,0.103-0.469s0.03-0.148,0.03-0.192s-0.007-0.074-0.007-0.074
		s0.044,0.026,0.078,0.048s0.314,0.163,0.351,0.192c0.037,0.03,0.052,0.033,0.063,0.118c0.011,0.085,0.237,0.728,0.262,0.787
		c0.026,0.059,0.248,0.602,0.266,0.669c0.018,0.067,0.163,0.285,0.181,0.329s0.015,0.17,0.015,0.185s0.026,0.554,0.048,0.632
		c0.022,0.078,0.048,0.251,0.078,0.281s0.163,0.133,0.177,0.155c0.015,0.022,0.048,0.148,0.048,0.148s0.004,0.085,0.07,0.218
		c0.067,0.133,0.299,0.473,0.314,0.514c0.015,0.041,0.148,0.377,0.148,0.447s-0.037,0.48-0.037,0.614
		c0,0.133,0.022,0.606,0.055,0.772c0.033,0.166,0.081,0.621,0.081,0.621s0.041,0.211,0.037,0.329
		c-0.004,0.118-0.052,0.318-0.041,0.414c0.011,0.096,0.074,0.225,0.107,0.259c0.033,0.033,0.092,0.081,0.185,0.096
		c0.092,0.015,0.177-0.018,0.211,0.048c0.033,0.067,0.074,0.307,0.103,0.381c0.03,0.074,0.085,0.222,0.085,0.222
		s0.022,0.085,0.022,0.111s-0.011,0.669-0.004,0.728c0.007,0.059,0.03,0.262,0.044,0.274c0.015,0.011,0.063-0.011,0.063-0.011
		s-0.03,0.129-0.033,0.181s-0.052,0.307-0.052,0.392c0,0.085,0.018,0.573,0.018,0.588c0,0.015,0.007,0.189,0.007,0.189
		L18.028,31.648z"/>
	<path fill="#FFFFFF" d="M12.025,13.314c0,0-0.238-0.783-0.317-1.043c-0.079-0.261-0.303-0.866-0.33-1.013
		c-0.026-0.146-0.105-0.407-0.146-0.552c-0.041-0.145-0.112-0.303-0.212-0.443c-0.1-0.141-0.526-0.479-0.657-0.647
		c-0.131-0.168-0.587-0.696-0.736-0.893C9.479,8.527,8.91,7.68,8.793,7.511C8.677,7.342,8.385,6.831,8.385,6.831
		s-0.572-0.89-0.597-1.022c-0.025-0.132-0.623-0.975-0.656-1.21C7.099,4.364,6.837,4.028,6.83,3.94
		C6.823,3.851,6.735,3.665,6.677,3.492c-0.058-0.174-0.178-0.58-0.178-0.58L6.463,2.708c0,0-0.113-0.199-0.116-0.243
		C6.343,2.42,6.23,2.441,6.196,2.384C6.162,2.328,6.085,2.289,6.039,2.278S5.652,1.862,5.618,1.806
		C5.584,1.749,5.386,1.497,5.38,1.409S5.374,1.142,5.355,1.084C5.336,1.027,5.398,0.874,5.471,0.853
		c0.073-0.02,0.18-0.162,0.18-0.162s0.076-0.169,0.16-0.235s0.253-0.182,0.292-0.26c0.039-0.077,0.289-0.096,0.398-0.03
		s0.241,0.248,0.261,0.306s0.185-0.103,0.26-0.094C7.096,0.388,7.236,0.674,7.24,0.718C7.243,0.762,7.356,1.08,7.332,1.156
		S7.205,1.432,7.166,1.495S7.14,1.796,7.145,1.855c0.005,0.059,0,0,0.036,0.086c0.036,0.086,0.128,0.316,0.128,0.316
		S7.35,2.21,7.415,2.279s0.316,0.45,0.351,0.522c0.035,0.071,0.135,0.212,0.172,0.313c0.037,0.101,0.167,0.239,0.199,0.281
		S8.403,3.79,8.449,3.89s0.289,0.378,0.289,0.378s0.109,0.259,0.13,0.346C8.89,4.702,8.941,4.979,9.025,5.107
		c0.084,0.127,0.279,0.349,0.386,0.4s0.364,0.298,0.364,0.298s0.223,0.205,0.323,0.346c0.1,0.141,0.097,0.304,0.164,0.403
		c0.067,0.099,0.147,0.181,0.243,0.263s0.246,0.115,0.311,0.184c0.065,0.069,0.142,0.301,0.176,0.357
		c0.034,0.057,0.195,0.222,0.228,0.264c0.033,0.042,0.177,0.179,0.287,0.26c0.11,0.081,0.218,0.132,0.308,0.154
		c0.091,0.023,0.178,0.001,0.303,0.081s0.286,0.052,0.385,0.193c0.1,0.141,0.256,0.247,0.261,0.306
		c0.005,0.059,0.203,0.326,0.203,0.326s0.443,0.752,0.446,0.796c0.003,0.044-0.403,0.935-0.403,0.935s0.375,2.774,0.331,2.777
		S12.025,13.314,12.025,13.314z"/>
	<path fill="#FFFFFF" d="M17.058,10.122c0.017-0.047,0.099-0.721,0.193-0.846c0.094-0.125,0.213-0.251,0.399-0.282
		s0.423-0.172,0.423-0.172s0.034-0.188,0.085-0.235c0.051-0.047,0.406-0.235,0.491-0.235s0.44-0.078,0.491-0.094
		c0.051-0.016,0.305-0.204,0.305-0.204s0.457-0.47,0.609-0.548c0.152-0.078,0.524-0.376,0.524-0.376s0.203-0.313,0.254-0.392
		c0.051-0.078,0.321-0.439,0.372-0.486s0.271-0.266,0.321-0.313c0.051-0.047,0.271-0.063,0.389-0.172
		c0.118-0.11,0.305-0.47,0.305-0.47s0.372-0.672,0.423-0.744c0.051-0.071,0.609-0.839,0.66-0.902
		c0.051-0.063,0.643-0.799,0.643-0.799s0.305-0.407,0.355-0.423c0.051-0.016,0.118,0,0.118,0l0.085-0.345
		c0,0-0.017-0.081-0.017-0.128c0-0.047,0.034-0.282,0-0.36c-0.034-0.078-0.027-0.335-0.044-0.382
		c-0.017-0.047,0.03-0.266,0.03-0.266l0.2-0.277l0.203-0.172l0.158-0.29c0,0,0.141,0.001,0.31-0.015
		c0.169-0.016,0.302,0.057,0.37,0.089s0.237,0.237,0.237,0.237s0.129,0.101,0.163,0.148c0.034,0.047,0.158,0.144,0.192,0.207
		c0.034,0.063,0.126,0.361,0.126,0.361l-0.085,0.392c0,0-0.288,0.204-0.355,0.251c-0.068,0.047-0.305,0.251-0.305,0.251
		s-0.101,0.157-0.152,0.204c-0.051,0.047-0.101,0.066-0.135,0.144c-0.034,0.078-0.068,0.235-0.068,0.235s-0.017,0.141-0.017,0.282
		s-0.068,0.204-0.118,0.282c-0.051,0.078-0.321,0.768-0.355,0.83c-0.034,0.063-0.338,0.595-0.372,0.642
		c-0.034,0.047-0.237,0.36-0.237,0.36s-0.254,0.454-0.372,0.705c-0.118,0.251-0.271,0.407-0.304,0.47s-0.203,0.188-0.203,0.188
		s0.034,0.235-0.169,0.454c-0.203,0.219-0.575,0.658-0.744,0.783s-0.355,0.407-0.372,0.47s-0.812,1.05-0.913,1.144
		c-0.101,0.094-0.626,0.486-0.694,0.517c-0.068,0.031-0.372,0.313-0.524,0.439c-0.152,0.125-0.237,0.392-0.254,0.47
		c-0.017,0.078-0.135,0.877-0.135,0.971s-0.135,0.345-0.186,0.376c-0.051,0.031-1.235,0.047-1.235,0.047l-1.066-0.611V10.122z"/>
</g>
</svg>
