<?xml version="1.0" encoding="utf-8"?>
<!-- Generator: Adobe Illustrator 16.0.3, SVG Export Plug-In . SVG Version: 6.00 Build 0)  -->
<!DOCTYPE svg PUBLIC "-//W3C//DTD SVG 1.1//EN" "http://www.w3.org/Graphics/SVG/1.1/DTD/svg11.dtd">
<svg version="1.1" xmlns="http://www.w3.org/2000/svg" xmlns:xlink="http://www.w3.org/1999/xlink" x="0px" y="0px" width="32px"
	 height="32px" viewBox="0 0 32 32" enable-background="new 0 0 32 32" xml:space="preserve">
<symbol  id="dude-transit" viewBox="0 -25.1 21.25 25.118">
	<path fill-rule="evenodd" clip-rule="evenodd" fill="#FFFFFF" d="M15.5-4.2l0.75-1.05l1-3.1l3.9-2.65v-0.05
		c0.067-0.1,0.1-0.233,0.1-0.4c0-0.2-0.05-0.383-0.15-0.55c-0.167-0.233-0.383-0.35-0.65-0.35l-4.3,1.8l-1.2,1.65l-1.5-3.95
		l2.25-5.05l-3.25-6.9c-0.267-0.2-0.633-0.3-1.1-0.3c-0.3,0-0.55,0.15-0.75,0.45c-0.1,0.133-0.15,0.25-0.15,0.35
		c0,0.067,0.017,0.15,0.05,0.25c0.033,0.1,0.067,0.184,0.1,0.25l2.55,5.6L10.7-14l-3.05-4.9L0.8-18.7
		c-0.367,0.033-0.6,0.184-0.7,0.45c-0.067,0.3-0.1,0.467-0.1,0.5c0,0.5,0.2,0.767,0.6,0.8l5.7,0.15l2.15,5.4l3.1,5.65L9.4-5.6
		c-1.367-2-2.1-3.033-2.2-3.1C7.1-8.8,6.95-8.85,6.75-8.85C6.35-8.85,6.1-8.667,6-8.3C5.9-8,5.9-7.8,6-7.7H5.95l2.5,4.4l3.7,0.3
		L14-3.5L15.5-4.2z M14.55-2.9c-0.333,0.4-0.45,0.85-0.35,1.35c0.033,0.5,0.25,0.9,0.65,1.2S15.7,0.066,16.2,0
		c0.5-0.067,0.9-0.3,1.2-0.7c0.333-0.4,0.467-0.85,0.4-1.35c-0.066-0.5-0.3-0.9-0.7-1.2c-0.4-0.333-0.85-0.45-1.35-0.35
		C15.25-3.533,14.85-3.3,14.55-2.9z"/>
</symbol>
<g id="Layer_1">
</g>
<g id="Layer_2">
	<rect x="14.256" y="6.614" fill="#FFFFFF" width="2.734" height="9.812"/>
	
		<rect x="17.622" y="13.405" transform="matrix(0.6156 -0.7881 0.7881 0.6156 -7.1561 22.0159)" fill="#FFFFFF" width="2.735" height="9.877"/>
	<path fill="#FFFFFF" d="M20.034,1.864c-2.605-0.742-5.242-0.707-7.684-0.057C12.34,1.81,12.33,1.813,12.318,1.815
		c-0.439,0.118-0.871,0.256-1.296,0.414c-0.032,0.012-0.065,0.02-0.099,0.032c-0.056,0.021-0.109,0.047-0.165,0.069
		c-0.252,0.1-0.504,0.201-0.75,0.315c-0.124,0.057-0.242,0.12-0.364,0.18C9.138,3.076,8.646,3.353,8.171,3.661
		C8.153,3.672,8.135,3.682,8.117,3.693C5.595,5.346,3.58,7.785,2.475,10.787c-0.529,1.364-0.88,2.816-1.02,4.322l0.143,0.001
		c-0.181,4.442,1.73,8.862,5.221,11.979l0.039-0.052c3.868,3.16,9.249,4.255,14.262,2.372c1.14-0.428,2.183-0.997,3.141-1.659
		c0.04-0.027,0.078-0.056,0.118-0.083c0.271-0.19,0.536-0.386,0.791-0.593c0.253-0.203,0.499-0.414,0.737-0.634
		c0.08-0.074,0.156-0.151,0.234-0.228c1.775-1.709,3.143-3.889,3.866-6.433C32.201,12.08,27.735,4.058,20.034,1.864z M25.475,22.374
		c-0.083,0.118-0.168,0.234-0.256,0.349c-0.158,0.212-0.316,0.423-0.489,0.624c-0.283,0.323-0.579,0.634-0.895,0.922
		c-0.063,0.06-0.134,0.113-0.199,0.171c-0.339,0.297-0.69,0.578-1.062,0.832c-0.015,0.011-0.029,0.021-0.045,0.031
		c-1.282,0.868-2.733,1.478-4.268,1.778l0.007,0.028c-3.587,0.716-7.227-0.347-9.87-2.69c-2.873-2.781-4.487-7.242-3.493-11.358
		c0.99-3.446,3.513-6.624,7.008-7.964c0.036-0.014,0.072-0.028,0.108-0.042c5.935-2.202,12.539,0.805,14.766,6.736
		C28.163,15.457,27.542,19.379,25.475,22.374z"/>
</g>
</svg>
