<?xml version="1.0" encoding="utf-8"?>
<!-- Generator: Adobe Illustrator 24.2.3, SVG Export Plug-In . SVG Version: 6.00 Build 0)  -->
<svg version="1.1" xmlns="http://www.w3.org/2000/svg" xmlns:xlink="http://www.w3.org/1999/xlink" x="0px" y="0px" width="32px"
	 height="32px" viewBox="0 0 32 32" enable-background="new 0 0 32 32" xml:space="preserve">
<symbol  id="dude-transit" viewBox="0 -25.1 21.25 25.118">
	<path fill-rule="evenodd" clip-rule="evenodd" fill="#FFFFFF" d="M15.5-4.2l0.75-1.05l1-3.1l3.9-2.65v-0.05
		c0.067-0.1,0.1-0.233,0.1-0.4c0-0.2-0.05-0.383-0.15-0.55c-0.167-0.233-0.383-0.35-0.65-0.35l-4.3,1.8l-1.2,1.65l-1.5-3.95
		l2.25-5.05l-3.25-6.9c-0.267-0.2-0.633-0.3-1.1-0.3c-0.3,0-0.55,0.15-0.75,0.45c-0.1,0.133-0.15,0.25-0.15,0.35
		c0,0.067,0.017,0.15,0.05,0.25c0.033,0.1,0.067,0.184,0.1,0.25l2.55,5.6L10.7-14l-3.05-4.9L0.8-18.7
		c-0.367,0.033-0.6,0.184-0.7,0.45c-0.067,0.3-0.1,0.467-0.1,0.5c0,0.5,0.2,0.767,0.6,0.8l5.7,0.15l2.15,5.4l3.1,5.65L9.4-5.6
		c-1.367-2-2.1-3.033-2.2-3.1C7.1-8.8,6.95-8.85,6.75-8.85C6.35-8.85,6.1-8.667,6-8.3C5.9-8,5.9-7.8,6-7.7H5.95l2.5,4.4l3.7,0.3
		L14-3.5L15.5-4.2z M14.55-2.9c-0.333,0.4-0.45,0.85-0.35,1.35c0.033,0.5,0.25,0.9,0.65,1.2c0.4,0.3,0.85,0.417,1.35,0.35
		c0.5-0.067,0.9-0.3,1.2-0.7c0.333-0.4,0.467-0.85,0.4-1.35c-0.066-0.5-0.3-0.9-0.7-1.2c-0.4-0.333-0.85-0.45-1.35-0.35
		C15.25-3.533,14.85-3.3,14.55-2.9z"/>
</symbol>
<g id="Layer_2">
	<path fill="#F7F7F5" d="M10.948,5.335c-5.406,0-9.823,1.536-10.094,3.467c0.151,1.081,1.735,1.832,2.763,2.219
		c1.827,0.669,4.44,1.11,7.331,1.11c0.816,0,1.609-0.04,2.368-0.106c1.88-1.303,4.387-2.142,7.161-2.244
		c0.274-0.311,0.516-0.645,0.564-0.963C20.493,5.979,13.674,5.325,10.948,5.335z M21.052,10.556c-5.581,0-10.105,3.273-10.105,7.31
		c0,4.037,4.524,7.31,10.105,7.31c5.581,0,10.105-3.273,10.105-7.31C31.157,13.829,26.633,10.556,21.052,10.556z M0.854,10.89v1.069
		c0.111,0.769,1.05,1.559,2.763,2.186c1.724,0.631,4.15,1.055,6.846,1.101c0.357-0.755,0.869-1.461,1.5-2.097
		c-0.335,0.012-0.672,0.016-1.015,0.016c-3.089,0-5.893-0.45-7.985-1.216C2.147,11.652,1.431,11.293,0.854,10.89L0.854,10.89z
		 M0.854,14.023v1.069c0.111,0.769,1.05,1.559,2.763,2.186c1.601,0.586,3.804,1,6.27,1.093c-0.014-0.168-0.023-0.335-0.023-0.506
		c0-0.542,0.074-1.071,0.214-1.583c-2.742-0.078-5.224-0.515-7.116-1.207C2.147,14.777,1.431,14.426,0.854,14.023z M0.854,17.156
		c0,0.354,0,0.718,0,1.069c0.111,0.769,1.05,1.559,2.763,2.186c2.536,0.898,5.174,1.097,7.455,1.11
		c-0.459-0.655-0.804-1.362-1.004-2.105c-2.737-0.079-5.216-0.516-7.105-1.207C2.147,17.91,1.431,17.559,0.854,17.156z
		 M0.843,20.289v1.232c0,2.019,4.526,3.655,10.105,3.655c1.572,0,3.05-0.135,4.376-0.367c-1.34-0.58-2.506-1.349-3.406-2.268
		c-0.32,0.011-0.641,0.025-0.97,0.025c-3.089,0-5.893-0.458-7.985-1.224C2.144,21.041,1.421,20.693,0.843,20.289L0.843,20.289z"/>
</g>
<g id="topo">
	<g id="Layer_1">
	</g>
</g>
</svg>
