<?xml version="1.0" encoding="utf-8"?>
<!-- Generator: Adobe Illustrator 16.0.3, SVG Export Plug-In . SVG Version: 6.00 Build 0)  -->
<!DOCTYPE svg PUBLIC "-//W3C//DTD SVG 1.1//EN" "http://www.w3.org/Graphics/SVG/1.1/DTD/svg11.dtd">
<svg version="1.1" xmlns="http://www.w3.org/2000/svg" xmlns:xlink="http://www.w3.org/1999/xlink" x="0px" y="0px" width="32px"
	 height="32px" viewBox="0 0 32 32" enable-background="new 0 0 32 32" xml:space="preserve">
<symbol  id="dude-transit" viewBox="0 -25.1 21.25 25.118">
	<path fill-rule="evenodd" clip-rule="evenodd" fill="#FFFFFF" d="M15.5-4.2l0.75-1.05l1-3.1l3.9-2.65v-0.05
		c0.067-0.1,0.1-0.233,0.1-0.4c0-0.2-0.05-0.383-0.15-0.55c-0.167-0.233-0.383-0.35-0.65-0.35l-4.3,1.8l-1.2,1.65l-1.5-3.95
		l2.25-5.05l-3.25-6.9c-0.267-0.2-0.633-0.3-1.1-0.3c-0.3,0-0.55,0.15-0.75,0.45c-0.1,0.133-0.15,0.25-0.15,0.35
		c0,0.067,0.017,0.15,0.05,0.25c0.033,0.1,0.067,0.184,0.1,0.25l2.55,5.6L10.7-14l-3.05-4.9L0.8-18.7
		c-0.367,0.033-0.6,0.184-0.7,0.45c-0.067,0.3-0.1,0.467-0.1,0.5c0,0.5,0.2,0.767,0.6,0.8l5.7,0.15l2.15,5.4l3.1,5.65L9.4-5.6
		c-1.367-2-2.1-3.033-2.2-3.1C7.1-8.8,6.95-8.85,6.75-8.85C6.35-8.85,6.1-8.667,6-8.3C5.9-8,5.9-7.8,6-7.7H5.95l2.5,4.4l3.7,0.3
		L14-3.5L15.5-4.2z M14.55-2.9c-0.333,0.4-0.45,0.85-0.35,1.35c0.033,0.5,0.25,0.9,0.65,1.2S15.7,0.066,16.2,0
		c0.5-0.067,0.9-0.3,1.2-0.7c0.333-0.4,0.467-0.85,0.4-1.35c-0.066-0.5-0.3-0.9-0.7-1.2c-0.4-0.333-0.85-0.45-1.35-0.35
		C15.25-3.533,14.85-3.3,14.55-2.9z"/>
</symbol>
<g id="Layer_1">
	
		<rect x="19.768" y="5.464" transform="matrix(0.7071 0.7071 -0.7071 0.7071 12.8839 -14.2616)" fill-rule="evenodd" clip-rule="evenodd" fill="#FCFCFC" width="7.778" height="5.914"/>
	
		<rect x="11.913" y="10.948" transform="matrix(0.7071 0.7071 -0.7071 0.7071 14.3213 -10.4965)" fill-rule="evenodd" clip-rule="evenodd" fill="#FCFCFC" width="15.837" height="2.182"/>
	<path fill-rule="evenodd" clip-rule="evenodd" fill="#FCFCFC" d="M17.189,9.389l-14.4,14.4l-0.562,6.062L8.29,29.29l14.4-14.401
		L17.189,9.389z M7.822,28.201l-4.226,0.391l0.392-4.225L17.865,10.49l3.834,3.833L7.822,28.201z"/>
	<polyline fill-rule="evenodd" clip-rule="evenodd" fill="#FCFCFC" points="9.087,28.146 3.576,28.593 3.656,23.151 	"/>
	<ellipse fill-rule="evenodd" clip-rule="evenodd" fill="#FCFCFC" cx="25.324" cy="6.735" rx="3.921" ry="3.942"/>
</g>
<g id="Layer_2">
</g>
</svg>
