<?xml version="1.0" encoding="utf-8"?>
<!-- Generator: Adobe Illustrator 24.3.0, SVG Export Plug-In . SVG Version: 6.00 Build 0)  -->
<svg version="1.1" id="Layer_1" xmlns="http://www.w3.org/2000/svg" xmlns:xlink="http://www.w3.org/1999/xlink" x="0px" y="0px"
	 width="32px" height="32px" viewBox="0 0 32 32" style="enable-background:new 0 0 32 32;" xml:space="preserve">
<g>
	<path style="fill:#F1EFEF;" d="M29.7,0.7H2.3c-1,0-1.8,0.8-1.8,1.8v27.2c0,1,0.8,1.8,1.8,1.8h27.2c1,0,1.9-0.6,1.9-1.6v-0.2V2.5
		C31.5,1.5,30.7,0.7,29.7,0.7z M30.2,2.8c0,0,0,2.3,0,2.9H30V5.5h-0.3v0.2h-1.5l-0.1-0.1l0.1-0.1V5.3L28,5.2h-0.3l-0.1-1h-0.4V5
		h-5.5l-0.6-0.1L21,5.1V4.8h-0.2l-0.2-0.6h-0.3V5l-1.1,0.1L19,4.9l-0.1-0.4l0.4-0.2L19.5,4l-0.1-1.7c0,0-0.2-0.2-0.4-0.4h10.2
		C29.8,1.9,30.2,2.3,30.2,2.8z M20.7,7.5h0.8L21,8.2L20.7,7.5z M22,7.2h-0.4V6.9H22V7.2z M18.3,30.2h-8L10,29.5v-0.8l0.5-1l0.4-0.2
		l0.3-0.8l0.7-1.5l0.1-0.5L12,24.1l0.4-0.7c0,0,0.7-0.7,0.9-1.1c0,0,0,0,0,0c0.1-0.2,0.2-0.4,0.3-0.7c0.1-0.4,0.2-0.9,0.2-1
		c0,0,0,0,0,0c0.1-0.2,0.7-1.1,0.8-1.2c0.1-0.1,0.2-0.4,0.2-0.4l0.4,0.5c0,0,0.3,0.1,0.4,0.1c0,0,0.3,0.4,0.7,0.9
		c0.3,0.4,0.6,0.9,0.8,1.2c0.1,0.1,0.1,0.2,0.2,0.2c0.1,0.1,0.7,0.2,0.9,0.1c0.1,0,0.2,0.2,0.3,0.4c0.1,0.2,0.1,0.4,0,0.7
		c-0.2,0.6-0.3,0.3-0.3,1.2s0.5,2.8,0.5,2.8l0.1,1.6C18.7,28.6,18.4,29,18.3,30.2C18.3,30.2,18.3,30.2,18.3,30.2L18.3,30.2z
		 M2.3,30.2c-0.3,0-0.5-0.4-0.5-0.9V2.8c0-0.5,0.2-0.9,0.5-0.9h0.4h12.8C15.4,2.1,15.1,2.5,15,3c-0.1,0.8,0,1,0.1,1.5
		C15.3,4.9,15,4.6,15,4.6s-1.5-0.4-2.3,0.9c-0.8,1.3-0.5,3.7-0.5,3.8c0,0.1-1.2,0.1-1.2,0.1s0,0.2,0,0.5c0,0.4-0.1,1-0.1,1.3
		c-0.1,0.3-0.3,1.5-0.3,1.5s0.7,0.2,0.8,0.2c0.1,0-0.6,0.4-0.6,0.4s0,0.6,0.1,0.8c0.1,0.2,0.5,2,0.3,2.1c-0.2,0.1-0.6,0.2-0.6,0.7
		c0,0.6,0.1,1.4,0.1,1.4l0.2,0.2c0,0-0.4,1-0.4,1.6c0,0.1,0,0.3,0,0.5c0,0.3,0,0.6,0.1,0.8c0,0.2,0,0.4,0,0.4l-0.2,0.4L9,24.3
		c0,0,0.2,0.9,0.1,0.8l-0.7,1.1v1l0.2,0.1L8,29.5L8,29.9v0.3H2.8H2.3z M29.3,30.2H23v-0.1l-0.5-0.4l-0.7-0.2l-1-1l-0.1-1.7l0.1-0.4
		v-1.2L20.8,25c0,0,0.3-1.7,0.3-2.8c0-0.1,0-0.2,0-0.3c0-0.1-0.1-0.3-0.1-0.5c-0.1-0.2-0.1-0.5-0.2-0.8c-0.4-1.2-1.1-2.7-1.6-3.3
		c-0.6-0.8-0.9-1-1.1-1.3c0,0,0-0.2,0-0.3c0,0,0,0,0-0.1c0-0.2,0-0.4,0-0.4l0.7,0.1l0.5-0.8l0.1-3l-0.7-0.5l0.1-0.3l0.2-0.2l1,0.5
		l0,0l0.4,0.2l1.1,0.4l0.7-0.1c0,0,0.2-0.1,0.3-0.2c0,0,0,0,0,0c0.3-0.2,0.6-0.5,0.6-0.7c0-0.4,0.2-0.6,0.2-0.9
		c0-0.3,0.3-0.4,0.5-0.4C24,9.4,24,9.3,24,9.3s-0.4-1.5-0.3-1.6c0.1-0.1,0.6-0.5,0.8-0.8c0.3,0,2.8-0.1,2.8-0.1V6.2H28V6.1h1.6
		l0.1,0.2H30V6.2l0.1,0c0,5.2,0,23.1,0,23.1C30.2,29.8,29.8,30.2,29.3,30.2z"/>
	<polygon style="fill:#F1EFEF;" points="18.3,30.2 18.3,30.2 18.3,30.2 	"/>
	
		<radialGradient id="SVGID_1_" cx="-1817.5376" cy="-121.5971" r="2.540270e-04" gradientTransform="matrix(9.491013e-16 15.5 -15.5 9.491013e-16 -1866.5 28202)" gradientUnits="userSpaceOnUse">
		<stop  offset="0" style="stop-color:#F1DD74"/>
		<stop  offset="1" style="stop-color:#CFB961"/>
	</radialGradient>
	<polygon style="fill:url(#SVGID_1_);" points="18.3,30.2 18.3,30.2 18.3,30.2 	"/>
	<path style="fill:#F1EFEF;" d="M19.5,2.3L19.5,4l-0.3,0.3l-0.4,0.2L19,4.9l0.2,0.2L20.3,5V4.2h0.3l0.2,0.6H21v0.3l0.2-0.2L21.8,5
		h5.5V4.2h0.4l0.1,1H28l0.2,0.1v0.2l-0.1,0.1l0.1,0.1h1.5V5.5H30v0.2h0.1c0-0.6,0-2.9,0-2.9c0-0.5-0.4-0.9-0.9-0.9H19.1
		C19.3,2.1,19.5,2.3,19.5,2.3z"/>
	
		<radialGradient id="SVGID_2_" cx="-1818.5117" cy="-121.6742" r="1" gradientTransform="matrix(9.491013e-16 15.5 -15.5 9.491013e-16 -1866.5 28202)" gradientUnits="userSpaceOnUse">
		<stop  offset="0" style="stop-color:#F1DD74"/>
		<stop  offset="1" style="stop-color:#CFB961"/>
	</radialGradient>
	<path style="fill:url(#SVGID_2_);" d="M19.5,2.3L19.5,4l-0.3,0.3l-0.4,0.2L19,4.9l0.2,0.2L20.3,5V4.2h0.3l0.2,0.6H21v0.3l0.2-0.2
		L21.8,5h5.5V4.2h0.4l0.1,1H28l0.2,0.1v0.2l-0.1,0.1l0.1,0.1h1.5V5.5H30v0.2h0.1c0-0.6,0-2.9,0-2.9c0-0.5-0.4-0.9-0.9-0.9H19.1
		C19.3,2.1,19.5,2.3,19.5,2.3z"/>
	<rect x="21.5" y="6.9" style="fill:#F1EFEF;" width="0.4" height="0.3"/>
	
		<radialGradient id="SVGID_3_" cx="-1818.5117" cy="-121.6742" r="1" gradientTransform="matrix(9.491013e-16 15.5 -15.5 9.491013e-16 -1866.5 28202)" gradientUnits="userSpaceOnUse">
		<stop  offset="0" style="stop-color:#F1DD74"/>
		<stop  offset="1" style="stop-color:#CFB961"/>
	</radialGradient>
	<rect x="21.5" y="6.9" style="fill:url(#SVGID_3_);" width="0.4" height="0.3"/>
	<polygon style="fill:#F1EFEF;" points="20.7,7.5 21,8.2 21.5,7.5 	"/>
	
		<radialGradient id="SVGID_4_" cx="-1818.5117" cy="-121.6742" r="1" gradientTransform="matrix(9.491013e-16 15.5 -15.5 9.491013e-16 -1866.5 28202)" gradientUnits="userSpaceOnUse">
		<stop  offset="0" style="stop-color:#F1DD74"/>
		<stop  offset="1" style="stop-color:#CFB961"/>
	</radialGradient>
	<polygon style="fill:url(#SVGID_4_);" points="20.7,7.5 21,8.2 21.5,7.5 	"/>
	<path style="fill:#F1EFEF;" d="M26.6,21c0-0.1-3.1-0.3-5.9-0.4c0.1,0.3,0.2,0.5,0.2,0.8c0.3,0,0.6,0,0.8,0
		C24,21.3,26.2,21.2,26.6,21z"/>
	
		<radialGradient id="SVGID_5_" cx="-1818.5117" cy="-121.6742" r="1" gradientTransform="matrix(9.491013e-16 15.5 -15.5 9.491013e-16 -1866.5 28202)" gradientUnits="userSpaceOnUse">
		<stop  offset="0" style="stop-color:#F1DD74"/>
		<stop  offset="1" style="stop-color:#CFB961"/>
	</radialGradient>
	<path style="fill:url(#SVGID_5_);" d="M26.6,21c0-0.1-3.1-0.3-5.9-0.4c0.1,0.3,0.2,0.5,0.2,0.8c0.3,0,0.6,0,0.8,0
		C24,21.3,26.2,21.2,26.6,21z"/>
	<path style="fill:#F1EFEF;" d="M30,6.2L30,6.2l-0.3,0.1l-0.1-0.2H28v0.1h-0.8v0.6c0,0-2.5,0.1-2.8,0.1c-0.2,0.3-0.7,0.7-0.8,0.8
		C23.5,7.8,24,9.3,24,9.3s0.1,0.1-0.1,0.1c-0.2,0-0.5,0.1-0.5,0.4c0,0.3-0.2,0.5-0.2,0.9c0,0.2-0.3,0.5-0.6,0.7l0.2,0.4l0,0l0,0
		l-0.5,3.6l1,1.4l1.7-1.3l0.6-3.6l2.8-1.7c0,0,0,0,0,0.1l0,0c-1.8,7.2-1,5.7-1,10.8c0,0.8-3.3,1.1-6.3,1.2c0,1.1-0.3,2.8-0.3,2.8
		l0.1,0.2v1.2l-0.1,0.4l0.1,1.7l1,1l0.7,0.2l0.5,0.4v0.1h6.2c0.5,0,0.9-0.4,0.9-0.9c0,0,0-17.9,0-23.1L30,6.2z"/>
	
		<radialGradient id="SVGID_6_" cx="-1818.5117" cy="-121.6742" r="1" gradientTransform="matrix(9.491013e-16 15.5 -15.5 9.491013e-16 -1866.5 28202)" gradientUnits="userSpaceOnUse">
		<stop  offset="0" style="stop-color:#F1DD74"/>
		<stop  offset="1" style="stop-color:#CFB961"/>
	</radialGradient>
	<path style="fill:url(#SVGID_6_);" d="M30,6.2L30,6.2l-0.3,0.1l-0.1-0.2H28v0.1h-0.8v0.6c0,0-2.5,0.1-2.8,0.1
		c-0.2,0.3-0.7,0.7-0.8,0.8C23.5,7.8,24,9.3,24,9.3s0.1,0.1-0.1,0.1c-0.2,0-0.5,0.1-0.5,0.4c0,0.3-0.2,0.5-0.2,0.9
		c0,0.2-0.3,0.5-0.6,0.7l0.2,0.4l0,0l0,0l-0.5,3.6l1,1.4l1.7-1.3l0.6-3.6l2.8-1.7c0,0,0,0,0,0.1l0,0c-1.8,7.2-1,5.7-1,10.8
		c0,0.8-3.3,1.1-6.3,1.2c0,1.1-0.3,2.8-0.3,2.8l0.1,0.2v1.2l-0.1,0.4l0.1,1.7l1,1l0.7,0.2l0.5,0.4v0.1h6.2c0.5,0,0.9-0.4,0.9-0.9
		c0,0,0-17.9,0-23.1L30,6.2z"/>
	<path style="fill:#F1EFEF;" d="M19.5,14.9l0.3-3.7l0.2-0.1l-1-0.5l-0.2,0.2l-0.1,0.3l0.7,0.5l-0.1,3l-0.5,0.8L18,15.3
		c0,0,0,0.2,0,0.4l0.4,0.4L19.5,14.9z"/>
	
		<radialGradient id="SVGID_7_" cx="-1818.5117" cy="-121.6742" r="1" gradientTransform="matrix(9.491013e-16 15.5 -15.5 9.491013e-16 -1866.5 28202)" gradientUnits="userSpaceOnUse">
		<stop  offset="0" style="stop-color:#F1DD74"/>
		<stop  offset="1" style="stop-color:#CFB961"/>
	</radialGradient>
	<path style="fill:url(#SVGID_7_);" d="M19.5,14.9l0.3-3.7l0.2-0.1l-1-0.5l-0.2,0.2l-0.1,0.3l0.7,0.5l-0.1,3l-0.5,0.8L18,15.3
		c0,0,0,0.2,0,0.4l0.4,0.4L19.5,14.9z"/>
	<path style="fill:#F1EFEF;" d="M2.8,1.9H2.3C2,1.9,1.8,2.3,1.8,2.8C1.8,2.3,2.3,1.9,2.8,1.9z"/>
	
		<radialGradient id="SVGID_8_" cx="-1812.2231" cy="-200.601" r="1.0008" gradientTransform="matrix(8.681828e-16 14.1785 -9.4015 5.756758e-16 -1874.7255 25710.625)" gradientUnits="userSpaceOnUse">
		<stop  offset="0" style="stop-color:#2F2F2F"/>
		<stop  offset="1" style="stop-color:#000000"/>
	</radialGradient>
	<path style="fill:url(#SVGID_8_);" d="M2.8,1.9H2.3C2,1.9,1.8,2.3,1.8,2.8C1.8,2.3,2.3,1.9,2.8,1.9z"/>
	<path style="fill:#F1EFEF;" d="M1.8,29.3c0,0.5,0.2,0.9,0.5,0.9h0.4C2.3,30.2,1.8,29.8,1.8,29.3z"/>
	
		<radialGradient id="SVGID_9_" cx="-1812.2231" cy="-200.601" r="1.0008" gradientTransform="matrix(8.681828e-16 14.1785 -9.4015 5.756758e-16 -1874.7255 25710.625)" gradientUnits="userSpaceOnUse">
		<stop  offset="0" style="stop-color:#2F2F2F"/>
		<stop  offset="1" style="stop-color:#000000"/>
	</radialGradient>
	<path style="fill:url(#SVGID_9_);" d="M1.8,29.3c0,0.5,0.2,0.9,0.5,0.9h0.4C2.3,30.2,1.8,29.8,1.8,29.3z"/>
	<path style="fill:#F1EFEF;" d="M10.5,21.4c0-0.2,0-0.5-0.1-0.8c-2.5,0.1-4.9,0.3-4.9,0.4C5.5,21.1,8,21.3,10.5,21.4z"/>
	
		<radialGradient id="SVGID_10_" cx="-1818.5117" cy="-121.6742" r="1" gradientTransform="matrix(9.491013e-16 15.5 -15.5 9.491013e-16 -1866.5 28202)" gradientUnits="userSpaceOnUse">
		<stop  offset="0" style="stop-color:#F1DD74"/>
		<stop  offset="1" style="stop-color:#CFB961"/>
	</radialGradient>
	<path style="fill:url(#SVGID_10_);" d="M10.5,21.4c0-0.2,0-0.5-0.1-0.8c-2.5,0.1-4.9,0.3-4.9,0.4C5.5,21.1,8,21.3,10.5,21.4z"/>
	
		<radialGradient id="SVGID_11_" cx="-1812.2231" cy="-200.601" r="1.0008" gradientTransform="matrix(8.681828e-16 14.1785 -9.4015 5.756758e-16 -1874.7255 25710.625)" gradientUnits="userSpaceOnUse">
		<stop  offset="0" style="stop-color:#2F2F2F"/>
		<stop  offset="1" style="stop-color:#000000"/>
	</radialGradient>
	<path style="fill:url(#SVGID_11_);" d="M10.5,21.4c0-0.2,0-0.5-0.1-0.8c-2.5,0.1-4.9,0.3-4.9,0.4C5.5,21.1,8,21.3,10.5,21.4z"/>
	<path style="fill:#F1EFEF;" d="M18.7,28.6L18.5,27c0,0-0.5-1.9-0.5-2.8s0.1-0.6,0.3-1.2c0.1-0.3,0.1-0.5,0-0.7c-1.2,0-2.1,0-2.4,0
		c-0.3,0-1.4,0-2.7,0c0,0,0,0,0,0c-0.2,0.4-0.9,1.1-0.9,1.1L12,24.1l0.1,0.6L12,25.2l-0.7,1.5L11,27.5l-0.4,0.2l-0.5,1v0.8l0.2,0.7
		h8c0,0,0,0,0,0C18.4,29,18.7,28.6,18.7,28.6z"/>
	
		<radialGradient id="SVGID_12_" cx="-1818.5117" cy="-121.6742" r="1" gradientTransform="matrix(9.491013e-16 15.5 -15.5 9.491013e-16 -1866.5 28202)" gradientUnits="userSpaceOnUse">
		<stop  offset="0" style="stop-color:#F1DD74"/>
		<stop  offset="1" style="stop-color:#CFB961"/>
	</radialGradient>
	<path style="fill:url(#SVGID_12_);" d="M18.7,28.6L18.5,27c0,0-0.5-1.9-0.5-2.8s0.1-0.6,0.3-1.2c0.1-0.3,0.1-0.5,0-0.7
		c-1.2,0-2.1,0-2.4,0c-0.3,0-1.4,0-2.7,0c0,0,0,0,0,0c-0.2,0.4-0.9,1.1-0.9,1.1L12,24.1l0.1,0.6L12,25.2l-0.7,1.5L11,27.5l-0.4,0.2
		l-0.5,1v0.8l0.2,0.7h8c0,0,0,0,0,0C18.4,29,18.7,28.6,18.7,28.6z"/>
	
		<radialGradient id="SVGID_13_" cx="-1812.2231" cy="-200.601" r="1.0008" gradientTransform="matrix(8.681828e-16 14.1785 -9.4015 5.756758e-16 -1874.7255 25710.625)" gradientUnits="userSpaceOnUse">
		<stop  offset="0" style="stop-color:#2F2F2F"/>
		<stop  offset="1" style="stop-color:#000000"/>
	</radialGradient>
	<path style="fill:url(#SVGID_13_);" d="M18.7,28.6L18.5,27c0,0-0.5-1.9-0.5-2.8s0.1-0.6,0.3-1.2c0.1-0.3,0.1-0.5,0-0.7
		c-1.2,0-2.1,0-2.4,0c-0.3,0-1.4,0-2.7,0c0,0,0,0,0,0c-0.2,0.4-0.9,1.1-0.9,1.1L12,24.1l0.1,0.6L12,25.2l-0.7,1.5L11,27.5l-0.4,0.2
		l-0.5,1v0.8l0.2,0.7h8c0,0,0,0,0,0C18.4,29,18.7,28.6,18.7,28.6z"/>
	<path style="fill:#F1EFEF;" d="M8,29.9L8,29.5l0.6-2.2l-0.2-0.1v-1l0.7-1.1C9.3,25.2,9,24.3,9,24.3l1.3-2.1C7.5,22,4.7,21.7,4.7,21
		c0.2-5.1,1-3.6-0.8-10.8l2.8,1.7l0.6,3.6L9,16.8l1-1.4l-0.5-3.6l1.2-2.1l0.3,0.2c0-0.3,0-0.5,0-0.5s1.2,0,1.2-0.1
		c0-0.1-0.3-2.5,0.5-3.8C13.5,4.2,15,4.6,15,4.6s0.3,0.3,0.2-0.1C15,4,15,3.8,15,3c0.1-0.4,0.3-0.8,0.5-1.1H2.8
		c-0.5,0-0.9,0.4-0.9,0.9v26.5c0,0.5,0.4,0.9,0.9,0.9H8V29.9z"/>
	
		<radialGradient id="SVGID_14_" cx="-1818.5117" cy="-121.6742" r="1" gradientTransform="matrix(9.491013e-16 15.5 -15.5 9.491013e-16 -1866.5 28202)" gradientUnits="userSpaceOnUse">
		<stop  offset="0" style="stop-color:#F1DD74"/>
		<stop  offset="1" style="stop-color:#CFB961"/>
	</radialGradient>
	<path style="fill:url(#SVGID_14_);" d="M8,29.9L8,29.5l0.6-2.2l-0.2-0.1v-1l0.7-1.1C9.3,25.2,9,24.3,9,24.3l1.3-2.1
		C7.5,22,4.7,21.7,4.7,21c0.2-5.1,1-3.6-0.8-10.8l2.8,1.7l0.6,3.6L9,16.8l1-1.4l-0.5-3.6l1.2-2.1l0.3,0.2c0-0.3,0-0.5,0-0.5
		s1.2,0,1.2-0.1c0-0.1-0.3-2.5,0.5-3.8C13.5,4.2,15,4.6,15,4.6s0.3,0.3,0.2-0.1C15,4,15,3.8,15,3c0.1-0.4,0.3-0.8,0.5-1.1H2.8
		c-0.5,0-0.9,0.4-0.9,0.9v26.5c0,0.5,0.4,0.9,0.9,0.9H8V29.9z"/>
	
		<radialGradient id="SVGID_15_" cx="-1812.2231" cy="-200.601" r="1.0008" gradientTransform="matrix(8.681828e-16 14.1785 -9.4015 5.756758e-16 -1874.7255 25710.625)" gradientUnits="userSpaceOnUse">
		<stop  offset="0" style="stop-color:#2F2F2F"/>
		<stop  offset="1" style="stop-color:#000000"/>
	</radialGradient>
	<path style="fill:url(#SVGID_15_);" d="M8,29.9L8,29.5l0.6-2.2l-0.2-0.1v-1l0.7-1.1C9.3,25.2,9,24.3,9,24.3l1.3-2.1
		C7.5,22,4.7,21.7,4.7,21c0.2-5.1,1-3.6-0.8-10.8l2.8,1.7l0.6,3.6L9,16.8l1-1.4l-0.5-3.6l1.2-2.1l0.3,0.2c0-0.3,0-0.5,0-0.5
		s1.2,0,1.2-0.1c0-0.1-0.3-2.5,0.5-3.8C13.5,4.2,15,4.6,15,4.6s0.3,0.3,0.2-0.1C15,4,15,3.8,15,3c0.1-0.4,0.3-0.8,0.5-1.1H2.8
		c-0.5,0-0.9,0.4-0.9,0.9v26.5c0,0.5,0.4,0.9,0.9,0.9H8V29.9z"/>
	<path style="fill:#F1EFEF;" d="M17,21.6c-0.2-0.3-0.5-0.7-0.8-1.2c0,0,0,0-0.1,0c-0.2,0-1.2,0-2.4,0.1c0,0,0,0,0,0
		c0,0.1-0.1,0.6-0.2,1c1.3,0,2.4,0.1,2.6,0.1C16.3,21.6,16.6,21.6,17,21.6z"/>
	
		<radialGradient id="SVGID_16_" cx="-1818.5117" cy="-121.6742" r="1" gradientTransform="matrix(9.491013e-16 15.5 -15.5 9.491013e-16 -1866.5 28202)" gradientUnits="userSpaceOnUse">
		<stop  offset="0" style="stop-color:#F1DD74"/>
		<stop  offset="1" style="stop-color:#CFB961"/>
	</radialGradient>
	<path style="fill:url(#SVGID_16_);" d="M17,21.6c-0.2-0.3-0.5-0.7-0.8-1.2c0,0,0,0-0.1,0c-0.2,0-1.2,0-2.4,0.1c0,0,0,0,0,0
		c0,0.1-0.1,0.6-0.2,1c1.3,0,2.4,0.1,2.6,0.1C16.3,21.6,16.6,21.6,17,21.6z"/>
	
		<radialGradient id="SVGID_17_" cx="-1812.2231" cy="-200.601" r="1.0008" gradientTransform="matrix(8.681828e-16 14.1785 -9.4015 5.756758e-16 -1874.7255 25710.625)" gradientUnits="userSpaceOnUse">
		<stop  offset="0" style="stop-color:#2F2F2F"/>
		<stop  offset="1" style="stop-color:#000000"/>
	</radialGradient>
	<path style="fill:url(#SVGID_17_);" d="M17,21.6c-0.2-0.3-0.5-0.7-0.8-1.2c0,0,0,0-0.1,0c-0.2,0-1.2,0-2.4,0.1c0,0,0,0,0,0
		c0,0.1-0.1,0.6-0.2,1c1.3,0,2.4,0.1,2.6,0.1C16.3,21.6,16.6,21.6,17,21.6z"/>
	<path style="fill:#7B670F;" d="M22.8,11.8l-0.2-0.4c0,0,0,0,0,0L22.8,11.8L22.8,11.8z"/>
	<path style="fill:#7B670F;" d="M26.7,21C26.7,21,26.6,21,26.7,21c-0.5,0.1-2.6,0.3-4.9,0.4C24.3,21.3,26.7,21.2,26.7,21z"/>
	<path style="fill:#7B670F;" d="M19.5,14.9l0.3-3.7l0.2-0.2l0,0l-0.2,0.1L19.5,14.9l-1,1.1L18,15.7c0,0,0,0,0,0.1l0.4,0.4L19.5,14.9
		z"/>
	<path style="fill:#7B670F;" d="M23.3,16.8l1.7-1.3l0.6-3.6l2.8-1.7c0,0,0,0,0-0.1l-2.8,1.7L25,15.5L23.3,16.8l-1-1.4l0,0L23.3,16.8
		z"/>
	<path style="fill:#7B670F;" d="M9.5,11.8l0.5,3.6l-1,1.4l-1.7-1.3l-0.6-3.6l-2.8-1.7c1.8,7.2,1,5.7,0.8,10.8c0,0.7,2.8,1,5.7,1.2
		l0.2-0.4c0,0,0-0.2,0-0.4c-2.5-0.1-5-0.3-5-0.4c0-0.1,2.4-0.3,4.9-0.4c0-0.2,0-0.3,0-0.5c0-0.6,0.4-1.6,0.4-1.6l-0.2-0.2
		c0,0-0.1-0.8-0.1-1.4c0-0.5,0.4-0.6,0.6-0.7c0.2-0.1-0.2-1.9-0.3-2.1c-0.1-0.2-0.1-0.8-0.1-0.8s0.7-0.4,0.6-0.4
		c-0.1,0-0.8-0.2-0.8-0.2s0.2-1.2,0.3-1.5c0-0.2,0-0.8,0.1-1.3l-0.3-0.2L9.5,11.8z"/>
	<path style="fill:#7B670F;" d="M16.2,20.4c-0.3-0.5-0.6-0.9-0.7-0.9c-0.1,0-0.4-0.1-0.4-0.1l-0.4-0.5c0,0-0.1,0.3-0.2,0.4
		c-0.1,0.1-0.6,0.9-0.8,1.2C15,20.4,15.9,20.4,16.2,20.4C16.2,20.4,16.2,20.4,16.2,20.4z"/>
	<path style="fill:#7B670F;" d="M18.4,22.2c-0.1-0.2-0.2-0.4-0.3-0.4c-0.2,0.1-0.8,0-0.9-0.1c0,0-0.1-0.1-0.2-0.2
		c-0.4,0-0.7,0-0.8,0c-0.2,0-1.3,0-2.6-0.1c-0.1,0.3-0.2,0.6-0.3,0.7c1.3,0,2.4,0,2.7,0C16.2,22.3,17.2,22.3,18.4,22.2z"/>
	<path d="M27.3,21c0-5.1-0.8-3.6,1-10.8l0,0l-2.8,1.7L25,15.5l-1.7,1.3l-1-1.4l0,0l0.5-3.6l0,0l-0.3-0.4c-0.2,0.1-0.3,0.2-0.3,0.2
		l-0.7,0.1l-1.1-0.4l-0.4-0.2l-0.2,0.2l-0.3,3.7l-1,1.2L18,15.7c0,0.2,0,0.3,0,0.3c0.2,0.3,0.5,0.5,1.1,1.3c0.4,0.6,1.1,2,1.6,3.3
		c2.8,0.1,5.9,0.2,5.9,0.4c0,0,0,0,0,0c0,0.1-2.4,0.3-4.9,0.4c-0.3,0-0.6,0-0.8,0c0,0.2,0.1,0.3,0.1,0.5c0,0.1,0,0.2,0,0.3
		C24.1,22.1,27.3,21.8,27.3,21z"/>
</g>
</svg>
