<?xml version="1.0" encoding="utf-8"?>
<!-- Generator: Adobe Illustrator 16.0.3, SVG Export Plug-In . SVG Version: 6.00 Build 0)  -->
<!DOCTYPE svg PUBLIC "-//W3C//DTD SVG 1.1//EN" "http://www.w3.org/Graphics/SVG/1.1/DTD/svg11.dtd">
<svg version="1.1" xmlns="http://www.w3.org/2000/svg" xmlns:xlink="http://www.w3.org/1999/xlink" x="0px" y="0px" width="32px"
	 height="32px" viewBox="0 0 32 32" enable-background="new 0 0 32 32" xml:space="preserve">
<symbol  id="dude-transit" viewBox="0 -25.1 21.25 25.118">
	<path fill-rule="evenodd" clip-rule="evenodd" fill="#FFFFFF" d="M15.5-4.2l0.75-1.05l1-3.1l3.9-2.65v-0.05
		c0.067-0.1,0.1-0.233,0.1-0.4c0-0.2-0.05-0.383-0.15-0.55c-0.167-0.233-0.383-0.35-0.65-0.35l-4.3,1.8l-1.2,1.65l-1.5-3.95
		l2.25-5.05l-3.25-6.9c-0.267-0.2-0.633-0.3-1.1-0.3c-0.3,0-0.55,0.15-0.75,0.45c-0.1,0.133-0.15,0.25-0.15,0.35
		c0,0.067,0.017,0.15,0.05,0.25c0.033,0.1,0.067,0.184,0.1,0.25l2.55,5.6L10.7-14l-3.05-4.9L0.8-18.7
		c-0.367,0.033-0.6,0.184-0.7,0.45c-0.067,0.3-0.1,0.467-0.1,0.5c0,0.5,0.2,0.767,0.6,0.8l5.7,0.15l2.15,5.4l3.1,5.65L9.4-5.6
		c-1.367-2-2.1-3.033-2.2-3.1C7.1-8.8,6.95-8.85,6.75-8.85C6.35-8.85,6.1-8.667,6-8.3C5.9-8,5.9-7.8,6-7.7H5.95l2.5,4.4l3.7,0.3
		L14-3.5L15.5-4.2z M14.55-2.9c-0.333,0.4-0.45,0.85-0.35,1.35c0.033,0.5,0.25,0.9,0.65,1.2S15.7,0.066,16.2,0
		c0.5-0.067,0.9-0.3,1.2-0.7c0.333-0.4,0.467-0.85,0.4-1.35c-0.066-0.5-0.3-0.9-0.7-1.2c-0.4-0.333-0.85-0.45-1.35-0.35
		C15.25-3.533,14.85-3.3,14.55-2.9z"/>
</symbol>
<g id="Layer_1">
</g>
<g id="Layer_2">
	<path fill="#F1EFEF" d="M31.417,29.627c0,0.988-0.801,1.79-1.79,1.79H2.373c-0.988,0-1.79-0.801-1.79-1.79V2.373
		c0-0.988,0.801-1.79,1.79-1.79h27.254c0.988,0,1.79,0.801,1.79,1.79V29.627z"/>
	<line fill="#E8E7E7" x1="8.014" y1="30.507" x2="8.014" y2="30.178"/>
	<path fill="#C77529" d="M30.229,29.234c0,0.508-0.411,0.918-0.919,0.918H2.792c-0.508,0-0.919-0.411-0.919-0.918V2.715
		c0-0.507,0.411-0.919,0.919-0.919H29.31c0.508,0,0.919,0.412,0.919,0.919V29.234z"/>
	<path fill="#144B83" d="M20.676,29.319c0,0.508-2.066,0.834-2.37,0.834H2.423c-0.305,0-0.55-0.411-0.55-0.918V2.715
		c0-0.507,0.246-0.919,0.55-0.919h15.883c0.304,0,0.55,0.412,0.55,0.919l-1.289,13.563L20.676,29.319z"/>
	<path fill="#F1EFEF" d="M30.052,5.941V5.739l-0.278,0.025l-0.025,0.203l-1.542-0.025l-0.101-0.126l0.101-0.101V5.537l-0.151-0.126
		l-0.278,0.025l-0.076-0.985l-0.404,0.025l-0.05,0.809h-5.484l-0.582-0.05l-0.177,0.075l-0.025-0.252h-0.202L20.6,4.476h-0.304
		l-0.025,0.833l-1.138,0.076l-0.177-0.252l-0.076-0.379l0.354-0.177l0.329-0.303l-0.076-1.719c0,0-0.456-0.581-0.733-0.708
		c-0.278-0.126-2.78-0.051-2.78-0.051s-0.796,0.683-0.91,1.44c-0.114,0.759,0.026,1.037,0.126,1.466
		c0.101,0.43-0.253,0.152-0.253,0.152s-1.542-0.379-2.325,0.935c-0.783,1.314-0.505,3.665-0.505,3.715s-1.163,0.101-1.163,0.101
		s-0.063,1.416-0.126,1.744c-0.063,0.329-0.303,1.465-0.303,1.465s0.708,0.178,0.784,0.203c0.076,0.026-0.557,0.379-0.557,0.379
		s0.026,0.606,0.126,0.783c0.101,0.177,0.48,1.997,0.303,2.073c-0.176,0.075-0.555,0.151-0.555,0.707c0,0.556,0.126,1.39,0.126,1.39
		l0.177,0.152c0,0-0.379,0.986-0.379,1.592s0.076,1.668,0.076,1.668l-1.491,2.477c0,0,0.151,0.859,0.126,0.834
		c-0.025-0.025-0.683,1.062-0.683,1.062l-0.025,0.96l0.177,0.126L8.115,29.42l-0.126,0.379l0.025,0.379l2.35,0.051l-0.151-0.885
		l-0.026-0.758l0.48-1.036l0.43-0.151l0.278-0.809l0.708-1.466l0.101-0.53l-0.076-0.62l0.379-0.669c0,0,0.657-0.657,0.859-1.062
		c0.202-0.404,0.455-1.567,0.505-1.77c0.051-0.202,0.708-1.112,0.834-1.213c0.126-0.101,0.228-0.379,0.228-0.379l0.379,0.48
		c0,0,0.303,0.076,0.43,0.076s1.516,2.199,1.618,2.275c0.101,0.076,0.708,0.151,0.885,0.126c0.176-0.025,0.48,0.48,0.252,1.061
		c-0.228,0.582-0.278,0.252-0.304,1.137c-0.025,0.885,0.493,2.743,0.493,2.743l0.088,1.58c0,0-0.304,0.53-0.43,1.668
		c-0.126,1.137,4.777,0.227,4.777,0.227L23.077,29.9l-0.455-0.404l-0.733-0.228l-1.011-1.01l-0.051-1.693l0.126-0.379v-1.163
		l-0.076-0.151c0,0,0.404-1.946,0.253-3.083c-0.152-1.137-1.339-3.664-1.896-4.474c-0.556-0.808-0.91-1.011-1.062-1.314
		c-0.033-0.067,0-0.834,0-0.834l0.708,0.101l0.48-0.758l0.127-2.957l-0.708-0.506l0.075-0.328l0.177-0.202l1.365,0.708l1.086,0.354
		l0.707-0.101c0,0,0.961-0.532,1.012-0.936c0.05-0.404,0.177-0.632,0.228-0.936c0.05-0.303,0.303-0.404,0.455-0.429
		c0.151-0.025,0.126-0.05,0.126-0.05s-0.353-1.492-0.278-1.542c0.076-0.05,0.59-0.48,0.784-0.758c0.252,0,2.805-0.101,2.805-0.101
		V6.422h0.809V6.295l1.643,0.025l0.051,0.151l0.252-0.026l0.026-0.125l0.606,0.05V5.916L30.052,5.941z M21.017,8.393l-0.303-0.721
		h0.834L21.017,8.393z M21.964,7.445h-0.379V7.066h0.379V7.445z"/>
</g>
</svg>
