<?xml version="1.0" encoding="utf-8"?>
<!-- Generator: Adobe Illustrator 16.0.3, SVG Export Plug-In . SVG Version: 6.00 Build 0)  -->
<!DOCTYPE svg PUBLIC "-//W3C//DTD SVG 1.1//EN" "http://www.w3.org/Graphics/SVG/1.1/DTD/svg11.dtd">
<svg version="1.1" id="Layer_1" xmlns="http://www.w3.org/2000/svg" xmlns:xlink="http://www.w3.org/1999/xlink" x="0px" y="0px"
	 width="32px" height="32px" viewBox="0 0 32 32" enable-background="new 0 0 32 32" xml:space="preserve">
<g id="Layer_1_1_">
	<g>
		<path fill="#FFFFFF" d="M9.1,24.9L8.2,25.8C8,26,7.7,26.2,7.5,26.4l-0.8,0.5L7.2,26.1C7.4,25.9,7.6,25.6,7.8,25.4l1-1
			C8.6,24.1,8.5,23.8,8.3,23.5l-3,2.9c-0.8,0.8-1.4,1.8-1.8,2.899L3.3,30L4,29.8c1.1-0.3,2.1-0.899,3-1.7l2.6-2.6
			C9.5,25.4,9.3,25.1,9.1,24.9z"/>
		<path fill="#FFFFFF" d="M25.9,9.1v0.7l0.8,0.8c0.1,0.1,0.2,0.1,0.3,0l0.1-0.1c0.101-0.1,0.101-0.2,0-0.3L25.9,9.1z"/>
		<path fill="#FFFFFF" d="M31,3c-0.5-0.6-1.4-0.6-2,0c-0.4,0.4-0.5,1-0.3,1.5l0,0l-2.8,2.7v1.6L26,8.9l3.6-3.5l0,0
			c0.4,0.1,1,0,1.4-0.4C31.6,4.5,31.6,3.6,31,3z"/>
	</g>
	<g>
		<path fill="#FFFFFF" d="M22.9,24.9L23.8,25.8c0.2,0.2,0.5,0.4,0.7,0.601l0.8,0.5L24.8,26.1C24.6,25.9,24.4,25.6,24.2,25.4l-1-1
			c0.2-0.301,0.3-0.601,0.5-0.9l3,2.9c0.8,0.8,1.399,1.8,1.8,2.899l0.2,0.7L28,29.8c-1.1-0.3-2.1-0.899-3-1.7l-2.6-2.6
			C22.5,25.4,22.7,25.1,22.9,24.9z"/>
		<path fill="#FFFFFF" d="M6.1,9.1v0.7l-0.8,0.8c-0.1,0.1-0.2,0.1-0.3,0l0,0c-0.1-0.1-0.1-0.2,0-0.3L6.1,9.1z"/>
		<path fill="#FFFFFF" d="M1,3c0.5-0.6,1.4-0.6,2,0c0.4,0.4,0.5,1,0.3,1.5l0,0l2.8,2.7v1.6l0,0L2.5,5.3l0,0C2,5.5,1.4,5.4,1,5
			C0.4,4.5,0.4,3.6,1,3z"/>
	</g>
	<path fill="#FFFFFF" d="M24.2,5.6L16,4.5l0,0L7.8,5.6c-0.6,0-1.1,0.5-1.1,1.1v7.1c0,12.5,8.8,15.7,8.9,15.8L16,29.7l0.4-0.101
		c0.1,0,8.7-3.199,8.8-15.399V6.7C25.2,6.1,24.8,5.6,24.2,5.6z M15.8,28.8c-0.3-0.1-7.5-3.1-8.3-13.3H16V5.2l8.1,1.1
		c0.2,0,0.4,0.2,0.4,0.4v7.5c0,0.5,0,0.9-0.1,1.3H16v13.4L15.8,28.8z"/>
</g>
<g id="Layer_2">
</g>
</svg>
