<?xml version="1.0" encoding="utf-8"?>
<!-- Generator: Adobe Illustrator 16.0.3, SVG Export Plug-In . SVG Version: 6.00 Build 0)  -->
<!DOCTYPE svg PUBLIC "-//W3C//DTD SVG 1.1//EN" "http://www.w3.org/Graphics/SVG/1.1/DTD/svg11.dtd">
<svg version="1.1" xmlns="http://www.w3.org/2000/svg" xmlns:xlink="http://www.w3.org/1999/xlink" x="0px" y="0px" width="64px"
	 height="32px" viewBox="0 0 64 32" enable-background="new 0 0 64 32" xml:space="preserve">
<symbol  id="dude-transit" viewBox="0 -25.1 21.25 25.118">
	<path fill-rule="evenodd" clip-rule="evenodd" fill="#FFFFFF" d="M15.5-4.2l0.75-1.05l1-3.1l3.9-2.65v-0.05
		c0.067-0.1,0.1-0.233,0.1-0.4c0-0.2-0.05-0.383-0.15-0.55c-0.167-0.233-0.383-0.35-0.65-0.35l-4.3,1.8l-1.2,1.65l-1.5-3.95
		l2.25-5.05l-3.25-6.9c-0.267-0.2-0.633-0.3-1.1-0.3c-0.3,0-0.55,0.15-0.75,0.45c-0.1,0.133-0.15,0.25-0.15,0.35
		c0,0.067,0.017,0.15,0.05,0.25c0.033,0.1,0.067,0.184,0.1,0.25l2.55,5.6L10.7-14l-3.05-4.9L0.8-18.7
		c-0.367,0.033-0.6,0.184-0.7,0.45c-0.067,0.3-0.1,0.467-0.1,0.5c0,0.5,0.2,0.767,0.6,0.8l5.7,0.15l2.15,5.4l3.1,5.65L9.4-5.6
		c-1.367-2-2.1-3.033-2.2-3.1C7.1-8.8,6.95-8.85,6.75-8.85C6.35-8.85,6.1-8.667,6-8.3C5.9-8,5.9-7.8,6-7.7H5.95l2.5,4.4l3.7,0.3
		L14-3.5L15.5-4.2z M14.55-2.9c-0.333,0.4-0.45,0.85-0.35,1.35c0.033,0.5,0.25,0.9,0.65,1.2S15.7,0.066,16.2,0
		c0.5-0.067,0.9-0.3,1.2-0.7c0.333-0.4,0.467-0.85,0.4-1.35c-0.066-0.5-0.3-0.9-0.7-1.2c-0.4-0.333-0.85-0.45-1.35-0.35
		C15.25-3.533,14.85-3.3,14.55-2.9z"/>
</symbol>
<g id="Layer_1">
</g>
<g id="Layer_2">
	<g>
		<path fill="#FFFFFF" d="M46.266,6.657h-0.782l-0.047-0.055h-0.069l-0.048,0.047h-0.084v0.078h-1.572l-0.056-0.025V6.485h0.069
			l-0.053-0.179h-0.153v0.063h-0.115v-0.13h-0.082V5.349h-0.212v1.069h-0.185V6.136h-5.755l-0.001-0.188l-0.295-0.026l-0.044-0.07
			l-0.033-0.443l-0.133,0.006l-0.048,0.433c0,0-0.035,0.019-0.053,0.098c-0.018,0.08,0.021,0.149,0.021,0.149h-0.392l-0.051,0.081
			l-0.18,0.003L35.71,6.256c0,0-0.27,0.022-0.564,0.047l0.002-0.012c0,0,0.062-0.028,0.082-0.049c0.021-0.02,0.029-0.06,0.029-0.06
			c0.004-0.052-0.041-0.194-0.041-0.194L35.17,5.8l0.015-0.257c0,0,0.268-0.065,0.306-0.09c0.039-0.024,0.024-0.05,0.024-0.05
			s0.1,0.016,0.249-0.098c0.146-0.115,0.137-0.683,0.111-0.93c-0.023-0.248-0.227-0.747-0.227-0.747s0.059-0.123,0.03-0.193
			c-0.03-0.069-0.089-0.1-0.12-0.118c-0.029-0.021-0.256-0.135-0.292-0.145c-0.033-0.009-0.077-0.02-0.077-0.02
			s-0.475-0.351-0.697-0.42c-0.224-0.068-0.255-0.104-0.704-0.111c-0.448-0.007-1.167,0.225-1.597,0.88
			c-0.43,0.656-0.43,1.495-0.389,1.659c0.04,0.163,0.178,0.59,0.178,0.59l-0.194,0.197c0,0-0.197-0.197-0.272-0.243
			c-0.077-0.045-0.694-0.061-1.192,0.243c-0.499,0.301-1.027,0.997-1.238,2.007c-0.212,1.012-0.091,1.57-0.077,1.721
			c0.016,0.151,0.061,0.228,0.061,0.228l-0.03,0.21c0,0-0.286,0.091-0.407,0.105c-0.121,0.016-0.362-0.044-0.483,0
			c-0.12,0.046-0.181,0.107-0.211,0.167c-0.031,0.062-0.061,1.39-0.106,1.541c-0.044,0.151-0.155,0.74-0.14,0.952
			c0.016,0.21-0.029,0.121,0.121,0.182c0.152,0.061,0.997,0.196,0.997,0.196s-0.304,0.029-0.423,0.076
			c-0.12,0.045-0.332,0.197-0.378,0.271c-0.044,0.075,0,0.997,0,0.997s0.105,0.483,0.105,0.543c0,0.061,0,0.061,0,0.061l0.072,1.026
			l0.01,0.12c0,0-0.113-0.078-0.16-0.068c-0.046,0.01-0.124,0.062-0.168,0.114c-0.043,0.051-0.178,0.553-0.162,0.595
			c0.017,0.041,0.211,0.169,0.211,0.169s-0.202,0.306-0.191,0.342c0.011,0.037,0.074,0.135,0.124,0.196
			c0.053,0.063-0.103,0.186-0.024,0.321c0.077,0.135,0.181,0.207,0.181,0.207s-0.44,2.263-0.348,2.64
			c0.093,0.377-0.012,0.661-0.012,0.661s-0.219,0.323-0.273,0.433c-0.055,0.11-0.084,0.248-0.084,0.248s-0.21,0.212-0.266,0.321
			c-0.055,0.11-0.585,0.965-0.621,1.278c-0.036,0.313-0.008,0.469-0.091,0.662c-0.084,0.193-0.274,0.487-0.364,0.662
			c-0.094,0.174-0.139,0.331-0.148,0.57c-0.01,0.238-0.026,0.414,0.065,0.497c0.092,0.082,0.132,0.11,0.132,0.11
			s-0.327,1.278-0.427,1.683c-0.104,0.405-0.232,0.753-0.232,1.002c0,0.248,0.049,0.674,0.092,0.722
			c0.044,0.046,0.6,0.141,0.864,0.142c0.4,0.002,1.024-0.073,1.062-0.083c0.036-0.009,0.073-0.422,0.073-0.422
			s-0.038-0.238-0.13-0.35c-0.073-0.092-0.07-0.325-0.076-0.455c-0.005-0.084,0.006-0.555,0.024-0.83
			c0.019-0.276,0.434-1.188,0.434-1.188s0.229,0.009,0.34-0.147c0.112-0.155,0.333-0.854,0.352-0.937
			c0.018-0.083,0.294-0.552,0.459-0.975c0.166-0.422,0.201-0.616,0.166-0.735c-0.037-0.12-0.056-0.368-0.056-0.368
			s0.197-0.366,0.244-0.549c0.046-0.183,0.225-0.164,0.354-0.333c0.13-0.169,0.295-0.588,0.295-0.588s0.285-0.109,0.351-0.23
			c0.064-0.119,0.128-0.404,0.136-0.625c0.01-0.221,0.239-0.754,0.276-0.865c0.036-0.111,0.34-0.855,0.34-0.855
			s0.332-0.304,0.434-0.507c0.101-0.202,0.141-0.505,0.141-0.505s0.295,0.699,0.479,0.763c0.184,0.064,0.496,0.064,0.496,0.064
			l1.407,2.096c0,0,0.266,0.101,0.377,0.101c0.108,0,0.413-0.036,0.413-0.036l0.248,0.377l-0.082,0.9c0,0-0.185,0.102-0.221,0.313
			c-0.036,0.211,0.091,1.867,0.219,2.171c0.13,0.304,0.074,0.524,0.111,0.616c0.036,0.09,0.149,0.091,0.155,0.091l0.103,1.672
			c0,0-0.183,0.194-0.202,0.405c-0.019,0.212-0.129,0.533-0.129,0.533s-0.093,0.598-0.056,0.653
			c0.037,0.055,0.229,0.157,0.516,0.157c0.285,0,0.643-0.083,0.708-0.056c0.064,0.028,0.681,0.193,0.708,0.212
			c0.028,0.018,1.011,0.101,1.279,0.083c0.265-0.019,0.836-0.057,0.881-0.093c0.048-0.036,0.057-0.403,0.057-0.403
			s-0.021-0.193-0.157-0.257c-0.138-0.065-0.342-0.221-0.497-0.249c-0.156-0.027-0.351-0.092-0.449-0.147
			c-0.103-0.056-0.855-0.966-0.893-1.031c-0.036-0.063-0.12-0.588-0.091-0.827c0.025-0.239,0.035-0.854,0.035-0.854
			s0.138-0.165,0.147-0.201c0.008-0.038,0.081-0.516,0.063-0.634c-0.019-0.121-0.124-0.637-0.124-0.637s0.149-0.854,0.159-0.964
			c0.009-0.111,0.14-1.665,0.131-1.884c-0.008-0.221-0.165-0.388-0.165-0.388s-0.01-0.486-0.056-0.523
			c-0.046-0.037-0.156,0.018-0.191-0.009c-0.038-0.027-0.406-1.168-0.949-2.29c-0.542-1.121-1.35-1.903-1.35-1.903l-0.169-0.772
			l0.165-0.322c0,0,0.405,0.185,0.534,0.175c0.128-0.009,0.514-0.781,0.488-0.91c-0.029-0.129,0.181-2.087,0.105-2.235
			c-0.073-0.146-0.073-0.302-0.22-0.413c-0.146-0.11-0.413-0.202-0.413-0.202s0.134-0.325,0.159-0.389
			c0.023-0.065-0.006-0.256-0.006-0.256s0.611,0.349,0.925,0.513c0.313,0.163,0.875,0.42,1.077,0.438c0.202,0.021,0.318,0,0.318,0
			s0.087,0.117,0.188,0.122c0.401,0.013,0.719-0.333,0.735-0.354c0.021-0.023,0.093-0.129,0.093-0.129s0.128-0.029,0.275-0.143
			c0.146-0.115,0.317-0.416,0.321-0.54c0.003-0.063,0.104-0.52,0.208-0.963l0.471-0.125c0,0-0.145-0.454-0.229-0.929
			c-0.008-0.045-0.016-0.087-0.022-0.127l0.022-0.424c0,0,0.149-0.02,0.212-0.107c0.057-0.085,0.128-0.169,0.148-0.195
			c0.044-0.052,0.17-0.103,0.214-0.167c0.042-0.063,0.001-0.142,0.021-0.198c0.009-0.025,0.114-0.01,0.198-0.054
			c0.049-0.024,0.087-0.063,0.116-0.099c0,0,0,0-0.001-0.001h2.369V7.015h0.169v0.041h0.546V7.024l0.063-0.03h1.582v0.08
			l0.086,0.002l0.036,0.034h0.068l0.047-0.065h0.793c0,0,0.03-0.109,0.027-0.201C46.307,6.751,46.266,6.657,46.266,6.657z
			 M37.597,7.768c0.024-0.02,0.069-0.026,0.069-0.026s0.053-0.01,0.053,0v0.051l-0.126-0.021C37.594,7.77,37.597,7.769,37.597,7.768
			z M37.987,8.763c-0.071,0.13-0.286,0.403-0.286,0.403s-0.216-0.428-0.271-0.51c-0.019-0.027-0.064-0.088-0.12-0.156
			c0.019-0.029,0.116-0.191,0.117-0.2c0.004-0.007,0.063-0.023,0.063-0.023l0.029,0.028h0.782c0,0,0.019,0.005,0.049-0.001
			C38.216,8.46,38.035,8.678,37.987,8.763z M38.431,8.104c0,0,0,0.031-0.043,0.073c-0.04,0.041-0.086,0.047-0.086,0.047h-0.549
			c0,0-0.104,0.006-0.141-0.03c-0.003-0.003-0.007-0.008-0.008-0.012c0.013-0.004,0.031-0.009,0.048-0.013
			c0.034-0.008,0.103-0.012,0.138-0.021c0.029,0.03,0.056,0.042,0.056,0.042l0.028-0.004c0,0-0.021-0.024-0.04-0.059
			c0.019-0.011,0.031-0.023,0.042-0.035c0.017-0.017,0.028-0.042,0.037-0.066C37.921,8,37.893,7.858,37.89,7.85
			c-0.002-0.006-0.005-0.013-0.014-0.023c0.017-0.018,0.04-0.033,0.073-0.048c0.101-0.045,0.114-0.042,0.114-0.042h0.238
			c0,0,0.063-0.009,0.093,0.027c0.027,0.034,0.036,0.065,0.036,0.065V8.104z"/>
		<path fill="#FFFFFF" d="M11.231,23.037c-0.119,1.171-1.11,2.081-2.314,2.081H3.023c-1.286,0-2.326-1.042-2.326-2.326v-5.037
			c0-1.284,1.04-2.326,2.326-2.326h5.894c1.189,0,2.17,0.894,2.31,2.044v0.117H3.281v5.329h7.95V23.037z"/>
		<path fill="#FFFFFF" d="M21.514,21.289v1.731h-8.461c0.115,1.176,1.107,2.097,2.315,2.097h6.181c1.284,0,2.326-1.042,2.326-2.326
			v-1.502c-0.106-1.175-1.099-2.091-2.303-2.091h-6.17v-1.677h8.297h-0.012c-0.117-1.174-1.109-2.092-2.314-2.092h-6.005
			c-1.285,0-2.326,1.042-2.326,2.325v1.442c0.114,1.177,1.106,2.097,2.314,2.097L21.514,21.289z"/>
		<g>
			<path fill="#FFFFFF" d="M55.362,25.03c-1.231,0-2.231-0.999-2.231-2.228v-5.228c0-1.228,1-2.229,2.231-2.229h6.048
				c1.228,0,2.229,1,2.229,2.229v5.228c0,1.229-1.001,2.228-2.229,2.228H55.362z M55.215,23.238h6.342v-6.087h-6.342V23.238z"/>
			<path fill="#FFFFFF" d="M42.564,25.032c-1.229,0-2.229-1-2.229-2.229v-5.227c0-1.229,0.999-2.229,2.229-2.229h6.466
				c1.1,0,2.029,0.8,2.201,1.876h-8.838v5.896h6.779v-2.114l-3.229,0.001c-0.207,0-0.924-0.046-1.392-0.638
				c-0.354-0.446-0.452-0.794-0.479-0.983h7.172v3.672c-0.112,1.118-1.064,1.976-2.216,1.976H42.564z"/>
		</g>
	</g>
</g>
</svg>
