<?xml version="1.0" encoding="utf-8"?>
<!-- Generator: Adobe Illustrator 16.0.3, SVG Export Plug-In . SVG Version: 6.00 Build 0)  -->
<!DOCTYPE svg PUBLIC "-//W3C//DTD SVG 1.1//EN" "http://www.w3.org/Graphics/SVG/1.1/DTD/svg11.dtd">
<svg version="1.1" xmlns="http://www.w3.org/2000/svg" xmlns:xlink="http://www.w3.org/1999/xlink" x="0px" y="0px" width="32px"
	 height="32px" viewBox="0 0 32 32" enable-background="new 0 0 32 32" xml:space="preserve">
<symbol  id="dude-transit" viewBox="0 -25.1 21.25 25.118">
	<path fill-rule="evenodd" clip-rule="evenodd" fill="#FFFFFF" d="M15.5-4.2l0.75-1.05l1-3.1l3.9-2.65v-0.05
		c0.067-0.1,0.1-0.233,0.1-0.4c0-0.2-0.05-0.383-0.15-0.55c-0.167-0.233-0.383-0.35-0.65-0.35l-4.3,1.8l-1.2,1.65l-1.5-3.95
		l2.25-5.05l-3.25-6.9c-0.267-0.2-0.633-0.3-1.1-0.3c-0.3,0-0.55,0.15-0.75,0.45c-0.1,0.133-0.15,0.25-0.15,0.35
		c0,0.067,0.017,0.15,0.05,0.25c0.033,0.1,0.067,0.184,0.1,0.25l2.55,5.6L10.7-14l-3.05-4.9L0.8-18.7
		c-0.367,0.033-0.6,0.184-0.7,0.45c-0.067,0.3-0.1,0.467-0.1,0.5c0,0.5,0.2,0.767,0.6,0.8l5.7,0.15l2.15,5.4l3.1,5.65L9.4-5.6
		c-1.367-2-2.1-3.033-2.2-3.1C7.1-8.8,6.95-8.85,6.75-8.85C6.35-8.85,6.1-8.667,6-8.3C5.9-8,5.9-7.8,6-7.7H5.95l2.5,4.4l3.7,0.3
		L14-3.5L15.5-4.2z M14.55-2.9c-0.333,0.4-0.45,0.85-0.35,1.35c0.033,0.5,0.25,0.9,0.65,1.2S15.7,0.066,16.2,0
		c0.5-0.067,0.9-0.3,1.2-0.7c0.333-0.4,0.467-0.85,0.4-1.35c-0.066-0.5-0.3-0.9-0.7-1.2c-0.4-0.333-0.85-0.45-1.35-0.35
		C15.25-3.533,14.85-3.3,14.55-2.9z"/>
</symbol>
<g id="Layer_1">
</g>
<g id="Layer_2">
	<path fill="#FFFFFF" d="M28.688,4.884h-0.913L27.72,4.82h-0.081l-0.056,0.055h-0.099v0.09h-1.838l-0.065-0.029V4.682h0.082
		l-0.062-0.209h-0.18v0.074h-0.136V4.395H25.19V3.354h-0.246v1.25h-0.218V4.275h-6.726l-0.002-0.219l-0.344-0.031l-0.051-0.082
		l-0.039-0.518l-0.154,0.007l-0.059,0.506c0,0-0.039,0.021-0.06,0.115c-0.021,0.093,0.023,0.174,0.023,0.174h-0.458l-0.06,0.094
		l-0.21,0.004l-0.237,0.088c0,0-0.315,0.027-0.66,0.055l0.003-0.014c0,0,0.07-0.033,0.096-0.058
		c0.022-0.023,0.034-0.069,0.034-0.069c0.004-0.061-0.048-0.227-0.048-0.227l-0.058-0.22l0.019-0.3c0,0,0.313-0.076,0.356-0.104
		c0.046-0.029,0.03-0.059,0.03-0.059s0.115,0.019,0.289-0.115c0.171-0.134,0.159-0.798,0.13-1.087
		c-0.026-0.289-0.265-0.873-0.265-0.873s0.068-0.144,0.036-0.225c-0.036-0.081-0.104-0.117-0.142-0.138
		c-0.033-0.024-0.298-0.158-0.34-0.169c-0.039-0.011-0.092-0.022-0.092-0.022s-0.555-0.411-0.814-0.492
		c-0.26-0.08-0.297-0.123-0.821-0.129c-0.525-0.008-1.365,0.263-1.868,1.028c-0.502,0.767-0.502,1.747-0.454,1.939
		c0.048,0.19,0.207,0.689,0.207,0.689l-0.225,0.23c0,0-0.231-0.23-0.32-0.284c-0.089-0.052-0.811-0.071-1.393,0.284
		c-0.584,0.352-1.2,1.164-1.447,2.346C8.356,7.584,8.498,8.236,8.514,8.412c0.019,0.177,0.071,0.267,0.071,0.267L8.551,8.925
		c0,0-0.336,0.106-0.478,0.123c-0.142,0.019-0.422-0.051-0.563,0C7.368,9.102,7.297,9.173,7.263,9.242
		c-0.036,0.073-0.069,1.625-0.125,1.801c-0.05,0.176-0.18,0.866-0.162,1.112c0.018,0.246-0.034,0.142,0.142,0.212
		c0.178,0.071,1.163,0.229,1.163,0.229s-0.353,0.034-0.492,0.088c-0.142,0.054-0.388,0.231-0.442,0.318
		c-0.051,0.087,0,1.166,0,1.166s0.123,0.564,0.123,0.635c0,0.071,0,0.071,0,0.071l0.084,1.199l0.012,0.14c0,0-0.132-0.09-0.188-0.08
		c-0.052,0.012-0.145,0.073-0.195,0.133c-0.051,0.06-0.209,0.646-0.19,0.695c0.021,0.047,0.246,0.198,0.246,0.198
		s-0.234,0.358-0.224,0.4c0.014,0.042,0.087,0.158,0.147,0.229c0.061,0.073-0.122,0.217-0.03,0.375
		c0.091,0.158,0.213,0.242,0.213,0.242s-0.517,2.645-0.407,3.085c0.107,0.441-0.013,0.773-0.013,0.773s-0.257,0.377-0.321,0.506
		c-0.063,0.128-0.098,0.29-0.098,0.29s-0.246,0.248-0.311,0.375c-0.064,0.129-0.685,1.128-0.726,1.494
		c-0.043,0.366-0.01,0.548-0.107,0.774s-0.318,0.569-0.425,0.774c-0.109,0.204-0.161,0.386-0.173,0.667
		c-0.012,0.279-0.032,0.484,0.075,0.581c0.106,0.096,0.154,0.128,0.154,0.128s-0.383,1.494-0.499,1.967
		c-0.121,0.473-0.271,0.88-0.271,1.171c0,0.29,0.057,0.788,0.106,0.844C4.383,31.889,5.031,32,5.34,32
		c0.47,0.003,1.197-0.086,1.241-0.097c0.043-0.011,0.086-0.494,0.086-0.494s-0.046-0.278-0.152-0.409
		c-0.085-0.108-0.083-0.379-0.089-0.532c-0.005-0.098,0.006-0.649,0.029-0.971c0.02-0.322,0.507-1.389,0.507-1.389
		s0.267,0.011,0.396-0.171c0.13-0.182,0.389-0.999,0.411-1.096c0.021-0.098,0.344-0.645,0.537-1.14
		c0.194-0.494,0.234-0.72,0.194-0.86c-0.043-0.14-0.066-0.43-0.066-0.43s0.23-0.428,0.285-0.642c0.055-0.214,0.263-0.192,0.413-0.39
		c0.152-0.198,0.345-0.688,0.345-0.688s0.333-0.128,0.411-0.269c0.075-0.139,0.148-0.473,0.157-0.73
		c0.012-0.259,0.281-0.882,0.325-1.011c0.04-0.129,0.396-0.999,0.396-0.999s0.388-0.356,0.507-0.593
		c0.116-0.235,0.164-0.59,0.164-0.59s0.345,0.817,0.56,0.892c0.214,0.075,0.58,0.075,0.58,0.075l1.646,2.45
		c0,0,0.311,0.118,0.44,0.118c0.125,0,0.481-0.042,0.481-0.042l0.29,0.44l-0.096,1.052c0,0-0.215,0.119-0.258,0.366
		c-0.041,0.248,0.107,2.182,0.256,2.538c0.153,0.355,0.086,0.613,0.13,0.72c0.044,0.105,0.176,0.106,0.184,0.106l0.118,1.955
		c0,0-0.213,0.228-0.236,0.474c-0.021,0.247-0.149,0.623-0.149,0.623s-0.11,0.698-0.066,0.764c0.043,0.064,0.27,0.183,0.603,0.183
		c0.334,0,0.751-0.097,0.828-0.065c0.075,0.033,0.795,0.226,0.826,0.248c0.035,0.021,1.183,0.119,1.496,0.097
		c0.311-0.022,0.978-0.066,1.029-0.109c0.058-0.042,0.066-0.472,0.066-0.472s-0.023-0.226-0.182-0.3
		c-0.162-0.076-0.399-0.259-0.583-0.291c-0.183-0.032-0.409-0.108-0.525-0.172c-0.119-0.065-0.999-1.129-1.043-1.205
		c-0.041-0.074-0.139-0.687-0.105-0.967c0.03-0.279,0.042-0.998,0.042-0.998s0.16-0.192,0.172-0.236
		c0.009-0.044,0.096-0.603,0.074-0.741c-0.022-0.141-0.146-0.744-0.146-0.744s0.176-0.998,0.188-1.126
		c0.01-0.13,0.161-1.946,0.153-2.202c-0.009-0.259-0.194-0.453-0.194-0.453s-0.011-0.568-0.063-0.612
		c-0.055-0.042-0.183,0.021-0.225-0.01c-0.045-0.032-0.475-1.366-1.109-2.677c-0.634-1.31-1.577-2.224-1.577-2.224l-0.198-0.902
		l0.193-0.376c0,0,0.474,0.216,0.623,0.204c0.151-0.011,0.601-0.913,0.571-1.063c-0.035-0.151,0.212-2.439,0.123-2.612
		c-0.084-0.171-0.084-0.354-0.256-0.484c-0.172-0.128-0.483-0.235-0.483-0.235s0.157-0.38,0.187-0.456
		c0.027-0.077-0.007-0.299-0.007-0.299s0.715,0.408,1.08,0.599c0.367,0.19,1.023,0.491,1.261,0.513c0.234,0.024,0.371,0,0.371,0
		s0.101,0.137,0.219,0.142c0.47,0.016,0.841-0.389,0.86-0.415c0.023-0.027,0.109-0.151,0.109-0.151s0.148-0.034,0.321-0.167
		c0.171-0.135,0.369-0.486,0.374-0.631c0.005-0.073,0.123-0.607,0.244-1.126l0.551-0.146c0,0-0.17-0.53-0.27-1.085
		c-0.01-0.053-0.019-0.102-0.025-0.149l0.025-0.496c0,0,0.176-0.023,0.249-0.125c0.066-0.1,0.147-0.197,0.174-0.228
		c0.05-0.061,0.197-0.12,0.248-0.195c0.05-0.073,0.002-0.166,0.025-0.231c0.009-0.029,0.132-0.012,0.231-0.063
		c0.057-0.028,0.102-0.074,0.136-0.116c0,0,0,0-0.002,0h2.769V5.302h0.199v0.047h0.637V5.313l0.075-0.036h1.85V5.37l0.101,0.003
		l0.041,0.039h0.08l0.055-0.076h0.927c0,0,0.036-0.127,0.032-0.235C28.736,4.994,28.688,4.884,28.688,4.884z M18.558,6.181
		c0.026-0.022,0.079-0.03,0.079-0.03s0.063-0.012,0.063,0v0.06l-0.147-0.024C18.552,6.184,18.558,6.183,18.558,6.181z M19.013,7.344
		c-0.084,0.152-0.335,0.472-0.335,0.472S18.427,7.315,18.36,7.22c-0.021-0.031-0.075-0.103-0.14-0.182
		c0.021-0.034,0.135-0.224,0.137-0.233c0.005-0.008,0.074-0.028,0.074-0.028l0.033,0.033h0.916c0,0,0.021,0.006,0.057-0.001
		C19.28,6.991,19.068,7.246,19.013,7.344z M19.531,6.575c0,0,0,0.036-0.05,0.085c-0.048,0.048-0.101,0.055-0.101,0.055h-0.642
		c0,0-0.122,0.007-0.164-0.035c-0.005-0.003-0.009-0.009-0.009-0.014c0.014-0.004,0.035-0.01,0.055-0.016
		c0.04-0.01,0.12-0.014,0.162-0.025c0.034,0.035,0.063,0.05,0.063,0.05l0.034-0.004c0,0-0.025-0.029-0.048-0.069
		c0.022-0.012,0.036-0.027,0.05-0.041c0.019-0.02,0.032-0.049,0.044-0.077c0.01-0.03-0.025-0.196-0.028-0.206
		c-0.002-0.007-0.006-0.016-0.016-0.027c0.019-0.021,0.046-0.038,0.086-0.056c0.118-0.053,0.133-0.049,0.133-0.049h0.279
		c0,0,0.073-0.011,0.107,0.031c0.032,0.041,0.043,0.077,0.043,0.077V6.575z"/>
</g>
</svg>
