<?xml version="1.0" encoding="utf-8"?>
<!-- Generator: Adobe Illustrator 16.0.3, SVG Export Plug-In . SVG Version: 6.00 Build 0)  -->
<!DOCTYPE svg PUBLIC "-//W3C//DTD SVG 1.1//EN" "http://www.w3.org/Graphics/SVG/1.1/DTD/svg11.dtd">
<svg version="1.1" xmlns="http://www.w3.org/2000/svg" xmlns:xlink="http://www.w3.org/1999/xlink" x="0px" y="0px" width="32px"
	 height="32px" viewBox="0 0 32 32" enable-background="new 0 0 32 32" xml:space="preserve">
<symbol  id="dude-transit" viewBox="0 -25.1 21.25 25.118">
	<path fill-rule="evenodd" clip-rule="evenodd" fill="#FFFFFF" d="M15.5-4.2l0.75-1.05l1-3.1l3.9-2.65v-0.05
		c0.067-0.1,0.1-0.233,0.1-0.4c0-0.2-0.05-0.383-0.15-0.55c-0.167-0.233-0.383-0.35-0.65-0.35l-4.3,1.8l-1.2,1.65l-1.5-3.95
		l2.25-5.05l-3.25-6.9c-0.267-0.2-0.633-0.3-1.1-0.3c-0.3,0-0.55,0.15-0.75,0.45c-0.1,0.133-0.15,0.25-0.15,0.35
		c0,0.067,0.017,0.15,0.05,0.25c0.033,0.1,0.067,0.184,0.1,0.25l2.55,5.6L10.7-14l-3.05-4.9L0.8-18.7
		c-0.367,0.033-0.6,0.184-0.7,0.45c-0.067,0.3-0.1,0.467-0.1,0.5c0,0.5,0.2,0.767,0.6,0.8l5.7,0.15l2.15,5.4l3.1,5.65L9.4-5.6
		c-1.367-2-2.1-3.033-2.2-3.1C7.1-8.8,6.95-8.85,6.75-8.85C6.35-8.85,6.1-8.667,6-8.3C5.9-8,5.9-7.8,6-7.7H5.95l2.5,4.4l3.7,0.3
		L14-3.5L15.5-4.2z M14.55-2.9c-0.333,0.4-0.45,0.85-0.35,1.35c0.033,0.5,0.25,0.9,0.65,1.2S15.7,0.066,16.2,0
		c0.5-0.067,0.9-0.3,1.2-0.7c0.333-0.4,0.467-0.85,0.4-1.35c-0.066-0.5-0.3-0.9-0.7-1.2c-0.4-0.333-0.85-0.45-1.35-0.35
		C15.25-3.533,14.85-3.3,14.55-2.9z"/>
</symbol>
<g id="Layer_1">
</g>
<g id="Layer_2">
	<line fill="#E8E7E7" x1="8.015" y1="30.507" x2="8.015" y2="30.178"/>
	<g>
		<path fill-rule="evenodd" clip-rule="evenodd" fill="#FFFFFF" d="M27.254,11.635c0,0.62,0.038,1.242-0.009,1.859
			c-0.058,0.733,0.209,1.377,0.434,2.042c0.296,0.881,0.29,1.725-0.276,2.526c-0.263,0.371-0.545,0.778-0.421,1.272
			c0.075,0.3,0.253,0.573,0.367,0.866c0.485,1.249,0.205,2.506-0.857,3.195c-0.754,0.491-1.592,0.855-2.403,1.257
			c-0.682,0.338-1.387,0.629-2.065,0.974c-0.474,0.242-0.578,0.545-0.433,1.054c0.144,0.5,0.322,0.992,0.436,1.499
			c0.132,0.583,0.252,1.193-0.246,1.68c-0.193,0.189-0.44,0.344-0.689,0.453c-0.946,0.412-1.92,0.793-2.948,0.878
			c-1.158,0.096-2.332,0.105-3.493,0.036c-0.66-0.039-1.309-0.305-1.96-0.478c-0.394-0.105-0.79-0.213-1.175-0.349
			c-0.315-0.109-0.633-0.231-0.916-0.405c-0.129-0.08-0.252-0.298-0.246-0.448c0.041-0.919,0.077-1.842,0.2-2.752
			c0.103-0.75-0.021-0.977-0.73-1.262c-1.002-0.401-2.025-0.767-2.918-1.406c-0.489-0.35-1.03-0.63-1.507-0.993
			c-0.521-0.396-0.854-0.92-0.796-1.619c0.01-0.133,0.015-0.27-0.002-0.4c-0.083-0.627,0.208-1.142,0.458-1.679
			c0.078-0.167,0.083-0.438,0.001-0.599c-0.463-0.9-0.556-1.848-0.412-2.824c0.051-0.352,0.181-0.7,0.327-1.027
			c0.376-0.841,0.227-1.694,0.094-2.545c-0.224-1.435-0.317-2.88-0.115-4.315c0.069-0.495,0.398-0.975,0.676-1.417
			c0.771-1.229,1.8-2.204,3.052-2.944C9.457,3.305,10.204,2.794,11,2.377c0.569-0.298,1.195-0.491,1.803-0.709
			c0.473-0.17,0.958-0.309,1.439-0.458c0.127-0.039,0.258-0.077,0.389-0.089c1.42-0.128,2.811-0.005,4.164,0.468
			c0.707,0.247,1.438,0.437,2.124,0.731c2.081,0.894,4.002,2.02,5.345,3.922c0.599,0.849,0.814,1.833,0.9,2.844
			c0.071,0.846,0.083,1.698,0.122,2.547C27.275,11.634,27.264,11.634,27.254,11.635z M16.472,24.841
			c-0.031,0.232-0.079,0.443-0.085,0.657c-0.012,0.461-0.005,0.923-0.005,1.385c0,1.033,0.002,2.066,0,3.099
			c0,0.211,0.018,0.411,0.301,0.386c0.507-0.045,1.027-0.045,1.516-0.167c0.83-0.208,1.643-0.488,2.458-0.75
			c0.471-0.152,0.612-0.447,0.472-0.936c-0.144-0.501-0.35-0.99-0.427-1.5c-0.068-0.453-0.152-1.016,0.05-1.37
			c0.329-0.579,0.932-0.965,1.56-1.254c1.129-0.521,2.253-1.055,3.386-1.566c0.868-0.391,1.141-1.583,0.777-2.265
			c-0.184-0.347-0.361-0.727-0.41-1.108c-0.101-0.79,0.366-1.435,0.703-2.093c0.25-0.49,0.201-0.948,0.078-1.436
			c-0.17-0.672-0.437-1.34-0.48-2.022c-0.092-1.403-0.029-2.817-0.096-4.225c-0.053-1.12-0.272-2.213-0.944-3.162
			c-1.044-1.472-2.575-2.276-4.145-3.02c-0.577-0.273-1.177-0.511-1.787-0.702c-0.876-0.274-1.771-0.494-2.658-0.731
			c-0.21-0.057-0.328,0.041-0.339,0.258c-0.009,0.158-0.017,0.315-0.016,0.473c0.028,4.475,0.059,8.95,0.082,13.425
			c0.001,0.186-0.077,0.371-0.076,0.557c0.001,0.559,0.019,1.117,0.04,1.675c0.008,0.202,0.107,0.311,0.328,0.365
			c0.21,0.053,0.43,0.17,0.588,0.319c0.483,0.456,0.957,0.926,1.404,1.417c1.079,1.18,1.059,2.558-0.056,3.63
			C18.098,24.753,17.412,25.098,16.472,24.841z M11.58,11.943c-1.039-0.01-2.043,0.127-2.987,0.603
			c-0.602,0.303-1.022,0.775-1.267,1.379C7.139,14.389,7,14.883,6.919,15.377c-0.101,0.618-0.178,1.25-0.151,1.872
			c0.019,0.433,0.16,0.896,0.368,1.28c0.461,0.854,1.302,1.19,2.206,1.261c1.194,0.094,2.326-0.198,3.319-0.897
			c0.608-0.429,1.153-0.918,1.355-1.684c0.103-0.393,0.201-0.793,0.359-1.165c0.407-0.955,0.236-1.902-0.199-2.739
			c-0.451-0.867-1.173-1.524-2.305-1.363C11.775,11.955,11.676,11.943,11.58,11.943z M15.307,24.627
			c0.074-0.148,0.128-0.217,0.145-0.294c0.121-0.59,0.227-1.184,0.353-1.774c0.05-0.235,0.125-0.468,0.219-0.688
			c0.04-0.093,0.171-0.216,0.246-0.208c0.11,0.015,0.244,0.114,0.3,0.215c0.067,0.12,0.068,0.278,0.087,0.422
			c0.06,0.481,0.087,0.969,0.187,1.443c0.031,0.154,0.265,0.402,0.366,0.384c0.802-0.149,1.815-0.849,1.54-1.996
			c-0.084-0.356-0.248-0.72-0.466-1.011c-0.483-0.644-0.949-1.323-1.74-1.652c-0.067-0.028-0.114-0.149-0.136-0.234
			c-0.08-0.315-0.213-0.4-0.511-0.273c-0.209,0.09-0.433,0.18-0.603,0.327c-0.835,0.724-1.684,1.401-2.073,2.54
			c-0.241,0.703-0.036,1.542,0.503,1.916C14.21,24.081,14.761,24.327,15.307,24.627z"/>
		<path fill-rule="evenodd" clip-rule="evenodd" fill="#FCFCFC" d="M17.512,15.06c0.009-0.584,0.011-1.189,0.339-1.763
			c0.615-1.076,1.546-1.587,2.773-1.46c0.434,0.044,0.87,0.075,1.306,0.104c1.327,0.091,2.699,1.248,2.993,2.546
			c0.112,0.497,0.193,1,0.271,1.502c0.134,0.864-0.132,1.669-0.481,2.426c-0.358,0.778-1.02,1.273-1.888,1.358
			c-0.881,0.085-1.781,0.116-2.611-0.272c-0.421-0.197-0.837-0.439-1.192-0.737C17.652,17.618,17.539,16.642,17.512,15.06z
			 M20.698,12.526c-0.801-0.096-1.431,0.146-1.942,0.777c-0.946,1.17-0.546,3.369,0.161,4.294c1.042,1.362,2.651,1.699,4.264,1.284
			c0.114-0.029,0.223-0.094,0.325-0.158c0.673-0.419,0.898-1.087,0.975-1.821c0.083-0.786-0.042-1.562-0.293-2.298
			c-0.298-0.879-0.863-1.548-1.816-1.769C21.82,12.708,21.256,12.628,20.698,12.526z"/>
	</g>
</g>
</svg>
