<?xml version="1.0" encoding="utf-8"?>
<!-- Generator: Adobe Illustrator 16.0.0, SVG Export Plug-In . SVG Version: 6.00 Build 0)  -->
<!DOCTYPE svg PUBLIC "-//W3C//DTD SVG 1.1//EN" "http://www.w3.org/Graphics/SVG/1.1/DTD/svg11.dtd">
<svg version="1.1" id="Selected_Items" xmlns="http://www.w3.org/2000/svg" xmlns:xlink="http://www.w3.org/1999/xlink" x="0px"
	 y="0px" width="33px" height="32px" viewBox="0 0 33 32" enable-background="new 0 0 33 32" xml:space="preserve">
<g>
	<g id="Selected_Items_60_">
		<path fill="#47C8F3" d="M32.998,12.653v0.998c0,0.071-0.023,0.131-0.071,0.178c-0.071,0.143-0.19,0.273-0.356,0.393
			c-0.143,0.119-0.309,0.202-0.498,0.25c-0.213,0.071-0.416,0.095-0.605,0.071c-0.236-0.047-0.475-0.154-0.713-0.32
			c-1.544-1.022-2.958-1.782-4.24-2.281c-1.283-0.475-2.482-0.772-3.6-0.891c-1.021-0.023-1.948,0.012-2.779,0.107
			c-0.783,0.119-1.508,0.226-2.173,0.321c-0.476,0.095-0.938,0.143-1.39,0.143c-0.451,0.024-0.903,0.036-1.354,0.036h-0.214
			c-0.262-0.119-0.522-0.226-0.784-0.321c-0.19-0.095-0.404-0.166-0.642-0.214c-0.238-0.071-0.416-0.13-0.535-0.178
			c-0.119,0.19-0.226,0.368-0.321,0.535c-0.095,0.143-0.237,0.261-0.427,0.356C12.389,12,12.591,12.32,12.9,12.795
			c0.309,0.428,0.606,0.832,0.891,1.211c-0.024,0.048-0.024,0.083,0,0.107c0,0.071,0.047,0.107,0.142,0.107l1.069,0.891
			c0.261,0,0.261,0.13,0,0.392c-0.071,0.071-0.119,0.107-0.143,0.107c-0.023,0-0.095-0.036-0.214-0.107l-0.535-0.392
			c0.214,0.642,0.369,1.294,0.464,1.959c0.071,0.666,0.166,1.414,0.285,2.246c0.356,1.733,0.998,3.313,1.924,4.738
			c0.927,1.426,2.186,2.649,3.777,3.67c0.236,0.19,0.392,0.356,0.463,0.5c0.022,0.166,0.035,0.309,0.035,0.428v0.213
			c0,0.189-0.035,0.355-0.106,0.499c-0.072,0.167-0.167,0.284-0.285,0.356c0,0.118-0.036,0.25-0.106,0.391
			c-0.096,0.119-0.297,0.179-0.606,0.179c-0.19,0.214-0.546,0.144-1.069-0.213l-0.178-0.106c-1.924-1.213-3.457-2.613-4.597-4.205
			c-1.116-1.617-1.912-3.386-2.387-5.311c-0.095-0.76-0.167-1.438-0.214-2.031c-0.095-0.594-0.143-1.152-0.143-1.675
			c-0.119-0.38-0.19-0.76-0.214-1.14c-0.023-0.404-0.059-0.689-0.107-0.855l-0.392-0.428L9.94,13.15
			c-0.238-0.237-0.428-0.463-0.57-0.677c-0.167-0.213-0.297-0.392-0.392-0.534c-0.143-0.143-0.214-0.237-0.214-0.285
			c-0.095-0.048-0.297-0.13-0.605-0.25c-0.285-0.143-0.582-0.273-0.891-0.392c-0.38-0.143-0.796-0.297-1.248-0.463L0.178,5.775
			L0,5.526c0-0.095,0.06-0.142,0.178-0.142V5.206c0-0.119,0.119-0.178,0.356-0.178L6.77,7.415c0.095,0.071,0.143,0.155,0.143,0.25
			C6.936,7.76,6.948,7.855,6.948,7.95c0,0.356,0.06,0.534,0.178,0.534c0.238,0.072,0.416,0.06,0.535-0.035
			C7.757,8.4,7.828,8.353,7.875,8.306V8.127l0.677-0.891C8.647,7.07,8.659,6.939,8.588,6.845c-0.119-0.048-0.226-0.071-0.32-0.071
			L8.054,6.845c-0.119,0-0.237,0-0.356,0C7.555,6.821,7.483,6.761,7.483,6.667L3.492,1.393V0.965h0.535l5.31,3.706H9.55
			c0.38,0.522,0.712,0.986,0.998,1.39c0.261,0.356,0.499,0.689,0.713,0.998c0.261,0.286,0.416,0.452,0.463,0.499
			c0.119,0.048,0.356,0.119,0.713,0.214c0.332,0.119,0.688,0.226,1.069,0.321c0.404,0.119,0.784,0.214,1.14,0.285
			c0.333,0.071,0.522,0.106,0.57,0.106c0.237,0,0.95-0.059,2.138-0.178c1.141-0.119,2.686-0.178,4.633-0.178
			c1.141,0,2.078,0.036,2.814,0.107c0.737,0.095,1.461,0.285,2.174,0.57c0.713,0.309,1.51,0.736,2.389,1.283
			c0.879,0.57,2.007,1.342,3.385,2.316C32.867,12.475,32.951,12.558,32.998,12.653z M15.002,12.902l1.461,0.57
			c0.119,0,0.178,0.119,0.178,0.356c-0.095,0-0.154,0.024-0.178,0.072c-0.023,0.047-0.083,0.023-0.178-0.072l-1.425-0.356
			c-0.119,0-0.19-0.036-0.214-0.107c0-0.095,0-0.167,0-0.214c0-0.143,0.048-0.214,0.143-0.214
			C14.86,12.915,14.931,12.902,15.002,12.902z M15.216,12.403c0-0.095,0.023-0.154,0.071-0.178c0.024-0.047,0.059-0.071,0.107-0.071
			l1.461,0.249c0.095,0,0.19,0.036,0.286,0.107c0.07,0.071,0.106,0.142,0.106,0.213c0,0.095-0.036,0.155-0.106,0.178
			c-0.096,0-0.19,0-0.286,0l-1.461-0.178C15.275,12.724,15.216,12.618,15.216,12.403z M15.964,14.755
			c-0.142,0-0.25,0.012-0.32,0.036c-0.048,0.048-0.071,0.036-0.071-0.036l-1.283-0.749c-0.119,0-0.178-0.119-0.178-0.356
			c0.095,0,0.155-0.024,0.178-0.071c0.024-0.047,0.095-0.024,0.214,0.071l1.211,0.677c0.143,0,0.226,0.048,0.25,0.143
			C15.964,14.565,15.964,14.661,15.964,14.755z"/>
	</g>
</g>
</svg>
