<?xml version="1.0" encoding="utf-8"?>
<!-- Generator: Adobe Illustrator 16.0.0, SVG Export Plug-In . SVG Version: 6.00 Build 0)  -->
<!DOCTYPE svg PUBLIC "-//W3C//DTD SVG 1.1//EN" "http://www.w3.org/Graphics/SVG/1.1/DTD/svg11.dtd">
<svg version="1.1" xmlns="http://www.w3.org/2000/svg" xmlns:xlink="http://www.w3.org/1999/xlink" x="0px" y="0px" width="32px"
	 height="32px" viewBox="0 0 32 32" enable-background="new 0 0 32 32" xml:space="preserve">
<symbol  id="dude-transit" viewBox="0 -25.1 21.25 25.118">
	<path fill-rule="evenodd" clip-rule="evenodd" fill="#FFFFFF" d="M15.5-4.2l0.75-1.05l1-3.1l3.9-2.65v-0.05
		c0.067-0.1,0.1-0.233,0.1-0.4c0-0.2-0.05-0.383-0.15-0.55c-0.167-0.233-0.383-0.35-0.65-0.35l-4.3,1.8l-1.2,1.65l-1.5-3.95
		l2.25-5.05l-3.25-6.9c-0.267-0.2-0.633-0.3-1.1-0.3c-0.3,0-0.55,0.15-0.75,0.45c-0.1,0.133-0.15,0.25-0.15,0.35
		c0,0.067,0.017,0.15,0.05,0.25c0.033,0.1,0.067,0.184,0.1,0.25l2.55,5.6L10.7-14l-3.05-4.9L0.8-18.7
		c-0.367,0.033-0.6,0.184-0.7,0.45c-0.067,0.3-0.1,0.467-0.1,0.5c0,0.5,0.2,0.767,0.6,0.8l5.7,0.15l2.15,5.4l3.1,5.65L9.4-5.6
		c-1.367-2-2.1-3.033-2.2-3.1C7.1-8.8,6.95-8.85,6.75-8.85C6.35-8.85,6.1-8.667,6-8.3C5.9-8,5.9-7.8,6-7.7H5.95l2.5,4.4l3.7,0.3
		L14-3.5L15.5-4.2z M14.55-2.9c-0.333,0.4-0.45,0.85-0.35,1.35c0.033,0.5,0.25,0.9,0.65,1.2S15.7,0.066,16.2,0
		c0.5-0.067,0.9-0.3,1.2-0.7c0.333-0.4,0.467-0.85,0.4-1.35c-0.066-0.5-0.3-0.9-0.7-1.2c-0.4-0.333-0.85-0.45-1.35-0.35
		C15.25-3.533,14.85-3.3,14.55-2.9z"/>
</symbol>
<g id="Layer_1">
</g>
<g id="Layer_2">
	<g>
		<g>
			<path fill-rule="evenodd" clip-rule="evenodd" fill="#FFFFFF" d="M25.126,15.771h0.185c0.145-0.048,0.104-0.297,0.104-0.488
				c0-0.099,0.01-0.213-0.062-0.24c-0.037-0.034-0.106-0.028-0.179-0.028h-0.388c-0.021,0.008-0.043,0.015-0.063,0.021
				c-0.02,0.029-0.054,0.06-0.064,0.092v0.369c0,0.053-0.014,0.144,0.007,0.183C24.729,15.804,24.94,15.771,25.126,15.771z
				 M26.186,16.082h-0.396c-0.036,0.03-0.091,0.048-0.113,0.092c-0.017,0.035-0.006,0.108-0.006,0.155
				c0,0.125-0.025,0.381,0.027,0.453c0.065,0.088,0.544,0.069,0.672,0.036c0.02-0.031,0.046-0.059,0.056-0.1v-0.169
				c0-0.162,0.037-0.41-0.084-0.452C26.311,16.074,26.235,16.082,26.186,16.082z M22.646,15.814v-1.428h-0.678
				c-0.063,0.141-0.167,0.268-0.247,0.395c-0.153,0.243-0.286,0.486-0.438,0.729c-0.049,0.077-0.098,0.159-0.148,0.24
				c-0.021,0.034-0.064,0.075-0.078,0.113v0.366c0.087,0.03,0.239,0.008,0.34,0.008h0.727v0.558h0.522v-0.558h0.317
				c0.034-0.094,0.008-0.308,0.008-0.423H22.646z M22.123,15.128v0.686h-0.521V15.8c0.074-0.079,0.117-0.227,0.176-0.326
				c0.056-0.093,0.119-0.192,0.177-0.283c0.071-0.114,0.111-0.261,0.169-0.38h0.021C22.146,14.925,22.145,15.032,22.123,15.128z
				 M26.354,15.036c-0.03-0.027-0.104-0.021-0.163-0.021h-0.387c-0.026,0.009-0.051,0.02-0.077,0.028
				c-0.016,0.027-0.048,0.056-0.057,0.084v0.375c0,0.051-0.013,0.138,0.006,0.177c0.063,0.125,0.281,0.092,0.466,0.092h0.185
				c0.139-0.047,0.099-0.313,0.099-0.496C26.425,15.173,26.43,15.063,26.354,15.036z M24.363,16.124
				c-0.062-0.072-0.45-0.043-0.595-0.042c-0.016,0.013-0.038,0.016-0.057,0.028c-0.029,0.023-0.05,0.06-0.076,0.086v0.529
				c0.012,0.04,0.073,0.091,0.112,0.106c0.037,0.016,0.105,0.007,0.155,0.007c0.129,0,0.433,0.029,0.465-0.056
				c0.048-0.049,0.03-0.191,0.03-0.283C24.398,16.376,24.421,16.193,24.363,16.124z M24.341,15.043
				c-0.035-0.032-0.107-0.028-0.175-0.028h-0.391c-0.054,0.039-0.118,0.05-0.14,0.121v0.205c0,0.207-0.038,0.378,0.127,0.431h0.169
				c0.16,0,0.41,0.038,0.452-0.084c0.023-0.031,0.015-0.111,0.015-0.163C24.398,15.395,24.428,15.078,24.341,15.043z M25.386,16.139
				c-0.064-0.091-0.449-0.059-0.613-0.057c-0.008,0.006-0.008,0.004-0.021,0.007c-0.027,0.035-0.078,0.057-0.092,0.107v0.198
				c0,0.187-0.037,0.403,0.113,0.444h0.147c0.14,0,0.429,0.039,0.466-0.064c0.048-0.049,0.028-0.19,0.028-0.281
				C25.414,16.378,25.437,16.208,25.386,16.139z M27.471,12.155c-0.11-0.072-0.202-0.057-0.383-0.057h-3.34
				c-0.049,0.035-0.113,0.045-0.14,0.1c-0.04,0.073-0.016,0.425-0.016,0.542v1.301c0,0.167-0.035,0.562,0.056,0.629
				c0.106,0.078,0.479,0.041,0.665,0.041h2.797c0.142,0,0.33,0.03,0.367-0.077c0.029-0.038,0.021-0.118,0.021-0.184v-1.631
				C27.499,12.6,27.516,12.329,27.471,12.155z M24.645,13.623h-0.006c-0.034-0.031-0.11-0.063-0.163-0.069v0.007
				c0.02,0.029,0.024,0.104,0.027,0.142h-0.112v-0.156h-0.007c-0.03,0.029-0.093,0.063-0.142,0.07
				c-0.014-0.031-0.031-0.063-0.043-0.098c0.038-0.017,0.097-0.047,0.12-0.078c-0.034-0.015-0.104-0.048-0.12-0.084
				c0.021-0.022,0.029-0.056,0.05-0.078c0.033,0.031,0.096,0.071,0.142,0.085v-0.148h0.112v0.014
				c-0.019,0.032-0.014,0.097-0.027,0.135h0.014c0.04-0.036,0.107-0.062,0.155-0.085c0.01,0.029,0.039,0.069,0.029,0.092
				c-0.043,0.023-0.085,0.046-0.128,0.07v0.008h0.007c0.034,0.029,0.087,0.049,0.128,0.07
				C24.668,13.554,24.657,13.588,24.645,13.623z M25.344,13.623c-0.054-0.025-0.108-0.051-0.161-0.077v0.021
				c0.02,0.03,0.029,0.094,0.035,0.135h-0.129v-0.148h-0.013c-0.015,0.014-0.107,0.071-0.113,0.063
				c-0.022-0.024-0.047-0.063-0.057-0.098c0.046-0.022,0.084-0.056,0.135-0.07V13.44c-0.037-0.011-0.121-0.049-0.135-0.084h0.007
				c0.01-0.031,0.035-0.052,0.05-0.078h0.007v0.007c0.046,0.021,0.076,0.055,0.119,0.078v-0.148h0.129
				c-0.013,0.048-0.023,0.099-0.035,0.148h0.014c0.034-0.034,0.106-0.07,0.156-0.085c0.006,0.025,0.025,0.06,0.041,0.078
				c-0.004,0.012-0.001,0.007-0.008,0.015c-0.03,0.029-0.096,0.058-0.14,0.07c0.007,0.005,0.002,0.002,0.013,0.008
				c0.039,0.034,0.105,0.042,0.143,0.078C25.377,13.552,25.37,13.597,25.344,13.623z M25.966,13.448
				c0.035,0.031,0.121,0.037,0.135,0.092c-0.018,0.021-0.023,0.057-0.036,0.083c-0.052-0.025-0.104-0.051-0.154-0.077v0.029
				c0.016,0.024,0.014,0.092,0.014,0.127h-0.113v-0.156h-0.007c-0.03,0.03-0.092,0.063-0.142,0.07
				c-0.007-0.036-0.021-0.067-0.034-0.098c0.035-0.011,0.091-0.048,0.112-0.078c-0.036-0.021-0.085-0.048-0.112-0.077
				c0.018-0.021,0.029-0.06,0.042-0.085c0.045,0.027,0.088,0.069,0.141,0.085v-0.148h0.113c-0.004,0.048-0.01,0.099-0.014,0.148
				h0.014c0.017-0.018,0.134-0.083,0.141-0.078c0.018,0.019,0.031,0.054,0.036,0.085c-0.049,0.023-0.1,0.046-0.148,0.07
				C25.958,13.445,25.953,13.442,25.966,13.448z M16.952,11.357c-0.081,0.134-0.188,0.107-0.291,0.134s-0.285,0-0.285,0
				s0.132-0.054,0.285-0.107c0.152-0.054,0.063-0.376-0.166-0.498c-0.16-0.085-0.366-0.091-0.416-0.066
				c-0.269,0.135-0.269,0.295-0.269,0.295c-0.039,0.161-0.04,0.147,0.04,0.202c0.08,0.054,0.24,0.17,0.429,0.25
				c0.188,0.08,0.459,0.187,0.647,0.121c0.188-0.067,0.106-0.466,0.106-0.466S17.033,11.222,16.952,11.357z M27.351,16.096
				c-0.03-0.022-0.104-0.015-0.154-0.015H26.8c-0.036,0.033-0.092,0.053-0.112,0.1c-0.022,0.051-0.009,0.154-0.009,0.219
				c0,0.198-0.033,0.397,0.128,0.438h0.148c0.146,0,0.421,0.04,0.459-0.07c0.031-0.039,0.021-0.129,0.021-0.197
				C27.436,16.405,27.476,16.14,27.351,16.096z M17.328,18.49c0,0-0.114,0.041-0.29,0.185c-0.174,0.145-0.03,0.438,0.199,0.433
				c0.469-0.012,0.586-0.152,0.696-0.334c0.089-0.146,0.014-0.336-0.081-0.443C17.758,18.222,17.544,18.383,17.328,18.49z
				 M0.978,3.555c0,9.271,2.58,25.168,15.108,28.093C28.963,28.82,31.021,12.692,31.021,3.555C23.729-0.87,6.848-0.558,0.978,3.555z
				 M20.302,19.399c-0.286,0.286-0.573,0.144-0.573,0.144c-0.572-0.645-1.004-0.645-1.289-0.753
				c-0.285-0.106-0.332,0.205-0.468,0.319c-0.219,0.186-0.723,0.291-1.133,0.209c0.141,1.275-0.013,3.162-0.908,3.951l-1.182-0.824
				c0.681-1.074,0.609-1.934,0.501-2.973h-0.251l-1.074,0.607l-0.467,0.143l-0.572,0.037l-3.403,1.576l-0.537,0.072l-2.528,1.175
				l-0.252-0.521l0.271-0.154l-0.177-0.75l0.357-0.217l0.609,0.609c0,0,0.763-0.371,1.085-0.551s0.241-0.559,0.491-0.738
				s3.653-1.9,3.653-1.9l5.124-2.309l0.251-0.005l-0.608-1.099c-2.616-0.188-4.747-0.18-5.146-0.209
				c-0.688-0.051-0.658,0.209-0.658,0.209v0.708h0.229v0.234h-0.229l0.014,0.394l0.201-0.013l-0.026,0.269l-0.619,0.103
				l-0.439,0.514l0.261,0.274v0.265l-0.18,0.059l-0.572-0.179l0.07-0.395l0.573-0.783l0.145-0.349l-0.112-2.161l-5.513-0.251v-0.44
				l9.674,0.367l0.096-0.959l1.396,0.062l0.53,0.538h0.188l-0.024-0.966l-0.034-0.852c0,0-0.279,0.02-0.566-0.036
				c-0.286-0.057-0.903-0.458-0.903-0.458c-0.288,0.409-0.861,1.489-1.576,2.002l-1.183-1.157c0.932-0.845,1.647-2.08,1.647-3.226
				L13.53,8.866l-3.69-1.97L9.733,6.608H9.411L9.124,6.717L8.872,6.646L8.73,6.251L6.043,4.854l0.163-0.358l3.133,1.326
				c0,0,0.358-0.86,0.395-0.968c0.036-0.108,0.25-0.108,0.501,0c0.251,0.107,0.323,0.573,0.323,0.573v0.716h0.645l3.584,1.648
				c0.316-0.54,0.356-0.646,0.752-0.538l3.51,1.434l0.179,1.182l1.457,0.954c0,0-1.204,0.029-1.779,0.013
				c-0.481-0.013-0.729,0.237-0.717,0.752c0,0-0.021,4.09,0,5.613c0.004,0.266,0.372,0.76,0.759,0.75
				c0.336-0.008,0.304,0.029,0.596,0.032c0.327,0.004,0.509,0.269,0.795,0.52C20.625,18.755,20.589,19.113,20.302,19.399z
				 M28.305,16.414c0,0.279,0.026,0.589-0.085,0.756c-0.174,0.261-0.413,0.226-0.833,0.226h-7.659c-0.303,0-0.504,0.023-0.685-0.107
				c-0.099-0.072-0.185-0.193-0.22-0.332v-4.386c0-0.206-0.032-0.61,0.028-0.756c0.052-0.122,0.164-0.244,0.284-0.297
				c0.047-0.013,0.095-0.027,0.14-0.041h8.075c0.355,0,0.596-0.035,0.799,0.127c0.195,0.154,0.155,0.548,0.155,0.896V16.414z
				 M27.196,15.015h-0.383c-0.021,0.008-0.041,0.015-0.064,0.021c-0.02,0.031-0.059,0.06-0.07,0.1v0.14
				c0,0.131-0.032,0.386,0.042,0.446c0.021,0.016,0.054,0.043,0.079,0.05h0.162c0.132,0,0.295,0.011,0.402-0.015
				c0.023-0.034,0.059-0.056,0.071-0.098v-0.156c0-0.146,0.04-0.427-0.071-0.467C27.329,15.01,27.259,15.015,27.196,15.015z
				 M20.323,15.397c0.154-0.051,0.354-0.002,0.486,0.028c0.032-0.136,0.066-0.273,0.099-0.41c-0.07-0.019-0.152-0.039-0.233-0.057
				c-0.064-0.013-0.232-0.012-0.289,0c-0.099,0.022-0.177,0.003-0.262,0.029c-0.315,0.094-0.512,0.265-0.628,0.558
				c-0.051,0.121-0.098,0.345-0.058,0.524c0.021,0.095,0.035,0.192,0.071,0.274c0.099,0.227,0.275,0.373,0.522,0.452
				c0.075,0.025,0.161,0.025,0.24,0.042c0.123,0.026,0.359-0.013,0.452-0.035c0.075-0.018,0.154,0.002,0.155-0.092
				c-0.023-0.038-0.003-0.104-0.014-0.155c-0.016-0.067-0.021-0.147-0.022-0.227c-0.034,0.006-0.056,0.026-0.083,0.036
				c-0.041,0.014-0.104,0.012-0.143,0.021c-0.271,0.06-0.522-0.13-0.586-0.282C19.906,15.8,20.102,15.469,20.323,15.397z
				 M17.688,8.543c-0.466-0.178-1.936-0.93-2.043-0.93c-0.106,0-0.251-0.259-0.395,0c-0.194,0.35-0.179,0.358-0.179,0.358
				l3.081,1.541C18.401,8.741,18.154,8.723,17.688,8.543z"/>
		</g>
	</g>
</g>
</svg>
