<?xml version="1.0" encoding="utf-8"?>
<!-- Generator: Adobe Illustrator 16.0.0, SVG Export Plug-In . SVG Version: 6.00 Build 0)  -->
<!DOCTYPE svg PUBLIC "-//W3C//DTD SVG 1.1//EN" "http://www.w3.org/Graphics/SVG/1.1/DTD/svg11.dtd">
<svg version="1.1" xmlns="http://www.w3.org/2000/svg" xmlns:xlink="http://www.w3.org/1999/xlink" x="0px" y="0px" width="32px"
	 height="32px" viewBox="0 0 32 32" enable-background="new 0 0 32 32" xml:space="preserve">
<symbol  id="dude-transit" viewBox="0 -25.1 21.25 25.118">
	<path fill-rule="evenodd" clip-rule="evenodd" fill="#FFFFFF" d="M15.5-4.2l0.75-1.05l1-3.1l3.9-2.65v-0.05
		c0.067-0.1,0.1-0.233,0.1-0.4c0-0.2-0.05-0.383-0.15-0.55c-0.167-0.233-0.383-0.35-0.65-0.35l-4.3,1.8l-1.2,1.65l-1.5-3.95
		l2.25-5.05l-3.25-6.9c-0.267-0.2-0.633-0.3-1.1-0.3c-0.3,0-0.55,0.15-0.75,0.45c-0.1,0.133-0.15,0.25-0.15,0.35
		c0,0.067,0.017,0.15,0.05,0.25c0.033,0.1,0.067,0.184,0.1,0.25l2.55,5.6L10.7-14l-3.05-4.9L0.8-18.7
		c-0.367,0.033-0.6,0.184-0.7,0.45c-0.067,0.3-0.1,0.467-0.1,0.5c0,0.5,0.2,0.767,0.6,0.8l5.7,0.15l2.15,5.4l3.1,5.65L9.4-5.6
		c-1.367-2-2.1-3.033-2.2-3.1C7.1-8.8,6.95-8.85,6.75-8.85C6.35-8.85,6.1-8.667,6-8.3C5.9-8,5.9-7.8,6-7.7H5.95l2.5,4.4l3.7,0.3
		L14-3.5L15.5-4.2z M14.55-2.9c-0.333,0.4-0.45,0.85-0.35,1.35c0.033,0.5,0.25,0.9,0.65,1.2S15.7,0.066,16.2,0
		c0.5-0.067,0.9-0.3,1.2-0.7c0.333-0.4,0.467-0.85,0.4-1.35c-0.066-0.5-0.3-0.9-0.7-1.2c-0.4-0.333-0.85-0.45-1.35-0.35
		C15.25-3.533,14.85-3.3,14.55-2.9z"/>
</symbol>
<g id="Layer_1">
</g>
<g id="Layer_2">
	<g>
		<g>
			<path fill-rule="evenodd" clip-rule="evenodd" fill="#FFFFFF" d="M31.498,14.27c0-0.465,0.054-0.99-0.207-1.197
				c-0.272-0.216-0.592-0.17-1.067-0.17H19.44c-0.061,0.019-0.124,0.038-0.187,0.056c-0.161,0.07-0.311,0.234-0.38,0.396
				c-0.08,0.195-0.036,0.735-0.036,1.009v5.857c0.046,0.186,0.159,0.347,0.292,0.444c0.241,0.174,0.51,0.142,0.915,0.142h10.227
				c0.562,0,0.881,0.047,1.113-0.301c0.148-0.224,0.113-0.638,0.113-1.01V14.27z M20.451,19.082c0.085,0.204,0.42,0.457,0.783,0.376
				c0.05-0.011,0.134-0.009,0.188-0.028c0.037-0.013,0.065-0.04,0.112-0.047c0.001,0.105,0.01,0.212,0.029,0.302
				c0.015,0.068-0.014,0.157,0.019,0.208c-0.002,0.126-0.106,0.099-0.207,0.123c-0.124,0.03-0.44,0.083-0.604,0.047
				c-0.105-0.022-0.221-0.023-0.32-0.056c-0.331-0.105-0.565-0.3-0.698-0.603c-0.047-0.11-0.066-0.241-0.095-0.368
				c-0.053-0.237,0.01-0.537,0.077-0.699c0.155-0.392,0.417-0.62,0.838-0.745c0.114-0.034,0.219-0.009,0.35-0.038
				c0.075-0.017,0.301-0.018,0.386,0c0.109,0.023,0.218,0.05,0.312,0.076c-0.043,0.182-0.088,0.364-0.131,0.547
				c-0.177-0.042-0.443-0.106-0.65-0.038C20.544,18.234,20.282,18.676,20.451,19.082z M24.365,19.261h-0.424v0.745h-0.698v-0.745
				h-0.971c-0.135,0-0.338,0.028-0.453-0.01v-0.49c0.018-0.051,0.075-0.107,0.104-0.151c0.068-0.108,0.133-0.217,0.198-0.321
				c0.203-0.323,0.381-0.648,0.585-0.972c0.106-0.17,0.244-0.34,0.33-0.528h0.905v1.907h0.435
				C24.376,18.849,24.409,19.135,24.365,19.261z M26.242,19.987c-0.044,0.114-0.449,0.075-0.621,0.075
				c-0.066,0-0.157,0.012-0.208-0.01c-0.052-0.02-0.134-0.087-0.15-0.141v-0.707c0.036-0.035,0.063-0.084,0.103-0.114
				c0.024-0.017,0.054-0.02,0.075-0.038c0.193-0.002,0.713-0.039,0.794,0.057c0.077,0.092,0.047,0.337,0.047,0.5
				C26.281,19.732,26.306,19.922,26.242,19.987z M26.281,18.309c0,0.069,0.013,0.176-0.02,0.217
				c-0.055,0.164-0.389,0.113-0.604,0.113h-0.226c-0.22-0.07-0.17-0.299-0.17-0.575v-0.274c0.028-0.093,0.114-0.109,0.188-0.16
				h0.521c0.09,0,0.187-0.006,0.234,0.037C26.321,17.712,26.281,18.134,26.281,18.309z M27.601,19.978
				c-0.05,0.137-0.436,0.084-0.622,0.084H26.78c-0.199-0.055-0.15-0.343-0.15-0.594v-0.264c0.019-0.066,0.085-0.095,0.122-0.142
				c0.02-0.004,0.02-0.002,0.028-0.01c0.22-0.003,0.734-0.045,0.82,0.076c0.067,0.092,0.038,0.321,0.038,0.473
				C27.639,19.723,27.664,19.912,27.601,19.978z M26.63,18.271V17.78c0.015-0.044,0.06-0.085,0.085-0.123
				c0.027-0.008,0.057-0.019,0.085-0.027h0.518c0.096,0,0.188-0.008,0.237,0.037c0.096,0.036,0.084,0.188,0.084,0.321
				c0,0.254,0.054,0.586-0.14,0.651h-0.246c-0.247,0-0.53,0.042-0.614-0.124C26.612,18.462,26.63,18.342,26.63,18.271z
				 M28.988,19.676v0.226c-0.014,0.054-0.049,0.091-0.075,0.132c-0.171,0.045-0.81,0.071-0.896-0.047
				c-0.071-0.096-0.037-0.438-0.037-0.604c0-0.063-0.015-0.162,0.009-0.208c0.03-0.059,0.102-0.083,0.15-0.123h0.529
				c0.067,0,0.167-0.011,0.207,0.019C29.038,19.129,28.988,19.46,28.988,19.676z M28.856,18.639H28.61
				c-0.246,0-0.538,0.042-0.622-0.124c-0.026-0.052-0.009-0.167-0.009-0.235v-0.5c0.012-0.04,0.055-0.077,0.075-0.113
				c0.035-0.013,0.068-0.025,0.104-0.037h0.518c0.079,0,0.177-0.01,0.218,0.027c0.1,0.037,0.095,0.182,0.095,0.32
				C28.988,18.222,29.042,18.576,28.856,18.639z M30.309,19.969c-0.051,0.146-0.418,0.093-0.612,0.093h-0.199
				c-0.215-0.053-0.17-0.319-0.17-0.584c0-0.087-0.019-0.225,0.011-0.292c0.027-0.061,0.103-0.089,0.15-0.132h0.529
				c0.068,0,0.166-0.011,0.206,0.019c0.167,0.058,0.113,0.412,0.113,0.633C30.337,19.796,30.351,19.917,30.309,19.969z
				 M30.337,18.28v0.208c-0.016,0.058-0.063,0.087-0.095,0.131c-0.144,0.035-0.36,0.02-0.537,0.02h-0.217
				c-0.033-0.01-0.077-0.045-0.104-0.066c-0.1-0.081-0.057-0.421-0.057-0.595v-0.188c0.016-0.053,0.066-0.092,0.095-0.132
				c0.03-0.008,0.057-0.019,0.085-0.027h0.511c0.084,0,0.179-0.009,0.225,0.027C30.391,17.709,30.337,18.083,30.337,18.28z
				 M30.394,17.119c-0.05,0.143-0.301,0.104-0.49,0.104h-3.735c-0.247,0-0.745,0.049-0.888-0.056
				c-0.122-0.09-0.074-0.617-0.074-0.84V14.59c0-0.156-0.032-0.627,0.02-0.726c0.036-0.072,0.122-0.086,0.188-0.132h4.46
				c0.241,0,0.363-0.021,0.512,0.076c0.061,0.233,0.037,0.595,0.037,0.886v2.179C30.422,16.962,30.433,17.069,30.394,17.119z
				 M26.479,15.535v-0.01c0.058-0.031,0.113-0.063,0.171-0.094c0.013-0.03-0.026-0.084-0.039-0.123
				c-0.064,0.031-0.154,0.065-0.207,0.113h-0.019c0.018-0.051,0.012-0.137,0.037-0.18v-0.019h-0.15v0.198
				c-0.062-0.018-0.146-0.072-0.188-0.113c-0.028,0.029-0.039,0.074-0.067,0.103c0.021,0.049,0.114,0.093,0.161,0.114
				c-0.032,0.042-0.11,0.081-0.161,0.104c0.015,0.048,0.039,0.09,0.057,0.132c0.066-0.01,0.148-0.055,0.189-0.094h0.01v0.208h0.15
				c-0.005-0.051-0.012-0.149-0.037-0.189v-0.008c0.07,0.008,0.173,0.052,0.218,0.093h0.008c0.017-0.047,0.032-0.093,0.048-0.141
				c-0.055-0.027-0.125-0.055-0.17-0.094H26.479z M27.413,15.525c0.059-0.016,0.146-0.055,0.188-0.094
				c0.009-0.01,0.005-0.004,0.011-0.02c-0.022-0.022-0.048-0.07-0.057-0.103c-0.064,0.02-0.161,0.068-0.207,0.113h-0.019
				c0.015-0.067,0.03-0.134,0.046-0.198h-0.171v0.198c-0.058-0.03-0.099-0.076-0.159-0.104v-0.009h-0.01
				c-0.02,0.034-0.053,0.062-0.066,0.103h-0.008c0.018,0.048,0.129,0.099,0.179,0.114v0.01c-0.068,0.019-0.118,0.065-0.179,0.094
				c0.012,0.048,0.044,0.1,0.074,0.132c0.008,0.01,0.133-0.065,0.151-0.084h0.018v0.198h0.171c-0.006-0.053-0.02-0.141-0.046-0.18
				v-0.028c0.071,0.035,0.143,0.069,0.215,0.103c0.035-0.036,0.044-0.096,0.076-0.131c-0.049-0.048-0.138-0.059-0.188-0.104
				C27.416,15.528,27.423,15.532,27.413,15.525z M28.507,15.318c-0.01-0.008-0.166,0.081-0.188,0.104h-0.019
				c0.005-0.067,0.013-0.134,0.019-0.198h-0.151v0.198c-0.071-0.022-0.128-0.078-0.188-0.113c-0.017,0.033-0.032,0.085-0.056,0.113
				c0.036,0.039,0.101,0.076,0.15,0.104c-0.029,0.04-0.104,0.089-0.15,0.104c0.017,0.042,0.036,0.084,0.045,0.132
				c0.066-0.01,0.148-0.054,0.189-0.094h0.01v0.208h0.151c0-0.047,0.002-0.137-0.019-0.17v-0.038
				c0.067,0.035,0.137,0.069,0.206,0.103c0.016-0.036,0.024-0.084,0.048-0.112c-0.018-0.073-0.132-0.081-0.18-0.123
				c-0.017-0.007-0.01-0.003-0.019-0.01c0.066-0.031,0.133-0.063,0.198-0.094C28.549,15.39,28.529,15.343,28.507,15.318z
				 M23.017,17.864c-0.075,0.121-0.161,0.253-0.235,0.377c-0.078,0.131-0.136,0.33-0.235,0.434v0.02h0.697V17.78
				c0.029-0.129,0.03-0.272,0.029-0.424h-0.029C23.166,17.516,23.112,17.712,23.017,17.864z"/>
		</g>
	</g>
	<path fill-rule="evenodd" clip-rule="evenodd" fill="#FFFFFF" d="M19.797,21.594c-0.391-0.005-0.348-0.054-0.797-0.042
		c-0.516,0.013-1.007-0.646-1.012-1.001c-0.027-2.034,0-7.496,0-7.496c-0.019-0.689,0.314-1.022,0.956-1.004
		c0.768,0.021,2.377-0.018,2.377-0.018l-1.946-1.274l-0.238-1.579l-4.688-1.915c-0.528-0.143-0.813-0.047-1.004,0.718l-4.786-2.2
		H8.229H7.798V4.825c0,0-0.096-0.622-0.431-0.766s-0.621-0.144-0.67,0C6.649,4.203,6.171,5.351,6.171,5.351l-4.02-1.771L1.77,4.059
		l3.588,1.866l0.19,0.527l0.335,0.095l0.385-0.144h0.43l0.144,0.383l4.928,2.631l1.244,0.191c0,1.531-0.957,3.18-2.2,4.307
		l1.579,1.545c0.955-0.685,1.72-2.126,2.104-2.673c0,0,0.824,0.537,1.206,0.611c0.384,0.075,0.757,0.049,0.757,0.049l0.046,1.137
		l0.032,1.29h-0.25l-0.709-0.718l-1.863-0.083l-0.128,1.282L0.669,15.866v0.587l7.362,0.335l0.149,2.886l-0.192,0.466l-0.766,1.045
		l-0.094,0.527l0.764,0.239l0.239-0.078v-0.353l-0.144-0.287l0.383-0.766l0.826-0.138l0.036-0.358l-0.269,0.018l-0.02-0.526h0.306
		v-0.312H8.945v-0.945c0,0-0.039-0.348,0.88-0.28c0.533,0.04,3.379,0.029,6.872,0.28l0.813,1.467l-0.334,0.006l-6.843,3.084
		c0,0-4.545,2.297-4.88,2.536c-0.334,0.239-0.239,0.908-0.67,1.147c-0.43,0.24-1.435,0.575-1.435,0.575L2.535,26.21l-0.479,0.288
		l0.237,1.004l-0.286,0.335l0.385,0.526l3.252-1.531l0.718-0.096l4.545-2.104l0.766-0.049l0.622-0.19l1.436-0.813h0.335
		c0.144,1.388,0.239,2.535-0.67,3.971l1.579,1.1c1.195-1.053,1.4-3.573,1.213-5.276c0.547,0.109,1.219-0.031,1.512-0.279
		c0.182-0.153,0.243-0.569,0.625-0.426c0.381,0.144,0.957,0.144,1.722,1.005c0,0,0.382,0.191,0.765-0.192
		c0.384-0.382,0.432-0.861,0.048-1.196C20.476,21.953,20.234,21.599,19.797,21.594z M16.304,13.185
		c-0.251,0.089-0.613-0.053-0.863-0.161c-0.252-0.108-0.466-0.263-0.574-0.334c-0.107-0.072-0.105-0.054-0.052-0.269
		c0,0,0-0.215,0.357-0.395c0.066-0.033,0.341-0.025,0.556,0.089c0.306,0.162,0.426,0.593,0.222,0.665
		c-0.204,0.071-0.382,0.143-0.382,0.143s0.246,0.036,0.382,0c0.138-0.036,0.28,0,0.389-0.179c0.107-0.18,0.107-0.18,0.107-0.18
		S16.555,13.095,16.304,13.185z M17.648,22.646c-0.148,0.244-0.305,0.432-0.93,0.447c-0.307,0.008-0.497-0.385-0.266-0.578
		c0.235-0.192,0.388-0.246,0.388-0.246c0.286-0.144,0.573-0.358,0.699-0.215C17.666,22.198,17.768,22.451,17.648,22.646z
		 M13.826,8.222c0,0,0,0,0.239-0.478c0.238-0.479,0.384,0,0.526,0c0.144,0,2.105,1.004,2.728,1.243
		c0.623,0.239,0.955,0.263,0.621,1.292L13.826,8.222z"/>
</g>
</svg>
