<?xml version="1.0" encoding="utf-8"?>
<!-- Generator: Adobe Illustrator 16.0.3, SVG Export Plug-In . SVG Version: 6.00 Build 0)  -->
<!DOCTYPE svg PUBLIC "-//W3C//DTD SVG 1.1 Tiny//EN" "http://www.w3.org/Graphics/SVG/1.1/DTD/svg11-tiny.dtd">
<svg version="1.1" baseProfile="tiny" xmlns="http://www.w3.org/2000/svg" xmlns:xlink="http://www.w3.org/1999/xlink" x="0px"
	 y="0px" width="32px" height="32px" viewBox="0 0 32 32" xml:space="preserve">
<g id="Layer_1">
</g>
<g id="Layer_2">
	<g>
		<path fill="#FFFFFF" d="M15.257,30.004v-3.332h-1.186c-0.919,0-1.703-0.325-2.355-0.977c-0.651-0.652-0.977-1.447-0.977-2.388
			v-2.724h3.524v2.083c0,0.235,0.085,0.433,0.257,0.593c0.17,0.16,0.373,0.24,0.608,0.24h3.204c0.577,0,0.865-0.277,0.865-0.833
			v-3.685c0-0.299-0.043-0.508-0.129-0.625c-0.085-0.117-0.267-0.219-0.544-0.305c-2.436-0.705-4.219-1.25-5.351-1.635
			c-0.705-0.234-1.282-0.625-1.73-1.169c-0.449-0.546-0.673-1.181-0.673-1.906V8.695c0-0.939,0.325-1.734,0.977-2.387
			c0.652-0.65,1.437-0.977,2.355-0.977h1.153V2h2.692v3.332h1.249c0.939,0,1.74,0.326,2.403,0.977
			c0.661,0.652,0.993,1.447,0.993,2.387v2.436h-3.525V9.338c0-0.235-0.085-0.434-0.255-0.594c-0.172-0.16-0.374-0.24-0.61-0.24
			h-2.883c-0.62,0-0.93,0.277-0.93,0.834v3.363c0,0.449,0.225,0.748,0.673,0.897c0.299,0.086,1.116,0.331,2.452,0.737
			c1.334,0.405,2.301,0.705,2.899,0.896c1.603,0.535,2.403,1.57,2.403,3.108v4.967c0,0.94-0.332,1.735-0.993,2.388
			c-0.663,0.651-1.464,0.977-2.403,0.977h-1.474v3.332H15.257z"/>
	</g>
</g>
</svg>
