<?xml version="1.0" encoding="utf-8"?>
<!-- Generator: Adobe Illustrator 16.0.0, SVG Export Plug-In . SVG Version: 6.00 Build 0)  -->
<!DOCTYPE svg PUBLIC "-//W3C//DTD SVG 1.1//EN" "http://www.w3.org/Graphics/SVG/1.1/DTD/svg11.dtd">
<svg version="1.1" xmlns="http://www.w3.org/2000/svg" xmlns:xlink="http://www.w3.org/1999/xlink" x="0px" y="0px" width="32px"
	 height="32px" viewBox="0 0 32 32" enable-background="new 0 0 32 32" xml:space="preserve">
<symbol  id="dude-transit" viewBox="0 -25.1 21.25 25.118">
	<path fill-rule="evenodd" clip-rule="evenodd" fill="#FFFFFF" d="M15.5-4.2l0.75-1.05l1-3.1l3.9-2.65v-0.05
		c0.067-0.1,0.1-0.233,0.1-0.4c0-0.2-0.05-0.383-0.15-0.55c-0.167-0.233-0.383-0.35-0.65-0.35l-4.3,1.8l-1.2,1.65l-1.5-3.95
		l2.25-5.05l-3.25-6.9c-0.267-0.2-0.633-0.3-1.1-0.3c-0.3,0-0.55,0.15-0.75,0.45c-0.1,0.133-0.15,0.25-0.15,0.35
		c0,0.067,0.017,0.15,0.05,0.25c0.033,0.1,0.067,0.184,0.1,0.25l2.55,5.6L10.7-14l-3.05-4.9L0.8-18.7
		c-0.367,0.033-0.6,0.184-0.7,0.45c-0.067,0.3-0.1,0.467-0.1,0.5c0,0.5,0.2,0.767,0.6,0.8l5.7,0.15l2.15,5.4l3.1,5.65L9.4-5.6
		c-1.367-2-2.1-3.033-2.2-3.1C7.1-8.8,6.95-8.85,6.75-8.85C6.35-8.85,6.1-8.667,6-8.3C5.9-8,5.9-7.8,6-7.7H5.95l2.5,4.4l3.7,0.3
		L14-3.5L15.5-4.2z M14.55-2.9c-0.333,0.4-0.45,0.85-0.35,1.35c0.033,0.5,0.25,0.9,0.65,1.2S15.7,0.066,16.2,0
		c0.5-0.067,0.9-0.3,1.2-0.7c0.333-0.4,0.467-0.85,0.4-1.35c-0.066-0.5-0.3-0.9-0.7-1.2c-0.4-0.333-0.85-0.45-1.35-0.35
		C15.25-3.533,14.85-3.3,14.55-2.9z"/>
</symbol>
<g id="Layer_1">
</g>
<g id="Layer_2">
	<g>
		<path fill="#FFFFFF" d="M19.94,2.104c-2.593-0.739-5.218-0.704-7.648-0.059c-0.011,0.003-0.02,0.007-0.032,0.01
			c-0.438,0.117-0.867,0.254-1.29,0.411c-0.032,0.013-0.064,0.021-0.098,0.031c-0.056,0.022-0.108,0.047-0.165,0.068
			c-0.251,0.101-0.502,0.2-0.746,0.314C9.837,2.937,9.72,3,9.599,3.061C9.094,3.31,8.604,3.585,8.132,3.894
			c-0.018,0.01-0.036,0.021-0.055,0.031c-2.51,1.646-4.448,4.099-5.616,7.062c-0.885,2.245-0.873,4.305-0.873,4.305
			c-0.181,4.422,1.723,8.821,5.196,11.924l0.04-0.052c3.85,3.146,9.207,4.236,14.197,2.361c1.135-0.425,2.172-0.992,3.126-1.652
			c0.04-0.026,0.078-0.055,0.117-0.081c0.271-0.19,0.534-0.385,0.788-0.591c0.251-0.202,0.497-0.412,0.733-0.631
			c0.08-0.074,0.155-0.15,0.233-0.227c1.769-1.701,3.129-3.871,3.85-6.403C32.053,12.273,27.607,4.287,19.94,2.104z M26.155,17.327
			h1.153c-0.22,1.869-0.889,3.655-1.951,5.194c-0.083,0.117-0.167,0.233-0.256,0.347c-0.157,0.211-0.313,0.421-0.486,0.621
			c-0.281,0.322-0.576,0.632-0.891,0.918c-0.063,0.059-0.133,0.112-0.198,0.17c-0.338,0.295-0.688,0.575-1.057,0.828
			c-0.015,0.011-0.028,0.022-0.044,0.031c-1.277,0.865-2.722,1.471-4.249,1.771l0.007,0.027c-0.286,0.058-0.571,0.084-0.856,0.118
			v-1.106c0-0.732-0.594-1.327-1.327-1.327s-1.327,0.595-1.327,1.327v1.117c-2.34-0.27-4.552-1.242-6.315-2.806
			c-1.92-1.859-3.271-4.474-3.654-7.23h1.056c0.733,0,1.327-0.594,1.327-1.327s-0.594-1.327-1.327-1.327H4.645
			c0.047-0.477,0.122-0.952,0.236-1.422c0.986-3.432,3.496-6.596,6.976-7.929c0.036-0.014,0.072-0.027,0.107-0.042
			c0.895-0.332,1.803-0.53,2.709-0.634v1.247c0,0.733,0.594,1.327,1.327,1.327s1.327-0.594,1.327-1.327V4.655
			c4.098,0.501,7.785,3.199,9.337,7.332c0.332,0.885,0.543,1.786,0.648,2.686h-1.157c-0.733,0-1.327,0.594-1.327,1.327
			S25.422,17.327,26.155,17.327z"/>
	</g>
	<path fill-rule="evenodd" clip-rule="evenodd" fill="#FFFFFF" d="M22.893,17.56c0.011-0.984-0.336-1.006-0.358-1.611
		c-0.011-0.302,0.025-1.15,0-1.968c-0.026-0.814-0.112-1.601-0.18-1.791c-0.134-0.379-0.286-1.007-1.431-1.968
		c-1.253-1.053-3.67-1.946-5.011-1.969c-1.345-0.022-2.909,0.649-4.118,1.433c-1.207,0.782-1.498,1.117-1.968,1.788
		c-0.47,0.672-0.649,1.142-0.538,2.328c0.113,1.185,0.139,0.873,0.18,1.969c0.034,0.905-0.377,1.186-0.358,1.789
		c0.03,0.901,0.369,1.089,0.358,1.432c-0.007,0.226-0.403,0.508-0.358,1.254c0.046,0.757,0.201,0.961,1.612,1.789
		c0.914,0.538,1.99,0.739,1.968,1.073c-0.033,0.492-0.157,1.298-0.179,1.79c-0.022,0.493,0.201,0.538,0.715,0.716h0.203
		c0.243-1.198,1.302-2.101,2.572-2.101s2.329,0.902,2.572,2.101h0.201c0.626-0.246,0.715-0.47,0.715-0.896
		c0-0.425-0.355-1.297-0.355-1.61c0-0.313,1.072-0.648,2.325-1.252c1.254-0.604,1.238-1.208,1.254-1.61
		c0.026-0.762-0.359-0.94-0.359-1.254C22.354,18.381,22.884,18.276,22.893,17.56z M12.332,19.349
		c-0.627,0.024-1.969,0.024-1.969-1.789c0-2.512,1.342-2.797,2.327-2.864c0.984-0.065,1.119-0.178,1.611,0.181
		c0.884,0.643,0.827,1.782,0.536,2.684c-0.212,0.66-0.448,0.916-0.895,1.253C13.496,19.148,12.959,19.327,12.332,19.349z
		 M16.449,22.213l-0.247-0.914l-0.38,0.005l-0.268,0.909c-1.03-0.279-1.443-0.693-1.433-1.253s0.324-1.141,0.895-1.611
		c0.57-0.469,0.663-0.541,1.074-0.536c0.393,0.005,0.427,0.081,0.716,0.356c0.622,0.598,1.025,0.997,1.073,1.791
		C17.927,21.743,17.02,22.18,16.449,22.213z M19.671,19.349c-0.627-0.021-1.164-0.2-1.611-0.536
		c-0.447-0.337-0.712-0.583-0.896-1.253c-0.23-0.843-0.346-2.041,0.538-2.684c0.492-0.358,0.626-0.246,1.611-0.181
		c0.982,0.067,2.324,0.353,2.324,2.864C21.638,19.373,20.296,19.373,19.671,19.349z"/>
</g>
</svg>
