<?xml version="1.0" encoding="utf-8"?>
<!-- Generator: Adobe Illustrator 16.0.0, SVG Export Plug-In . SVG Version: 6.00 Build 0)  -->
<!DOCTYPE svg PUBLIC "-//W3C//DTD SVG 1.1//EN" "http://www.w3.org/Graphics/SVG/1.1/DTD/svg11.dtd">
<svg version="1.1" xmlns="http://www.w3.org/2000/svg" xmlns:xlink="http://www.w3.org/1999/xlink" x="0px" y="0px" width="32px"
	 height="32px" viewBox="0 0 32 32" enable-background="new 0 0 32 32" xml:space="preserve">
<symbol  id="dude-transit" viewBox="0 -25.1 21.25 25.118">
	<path fill-rule="evenodd" clip-rule="evenodd" fill="#FFFFFF" d="M15.5-4.2l0.75-1.05l1-3.1l3.9-2.65v-0.05
		c0.067-0.1,0.1-0.233,0.1-0.4c0-0.2-0.05-0.383-0.15-0.55c-0.167-0.233-0.383-0.35-0.65-0.35l-4.3,1.8l-1.2,1.65l-1.5-3.95
		l2.25-5.05l-3.25-6.9c-0.267-0.2-0.633-0.3-1.1-0.3c-0.3,0-0.55,0.15-0.75,0.45c-0.1,0.133-0.15,0.25-0.15,0.35
		c0,0.067,0.017,0.15,0.05,0.25c0.033,0.1,0.067,0.184,0.1,0.25l2.55,5.6L10.7-14l-3.05-4.9L0.8-18.7
		c-0.367,0.033-0.6,0.184-0.7,0.45c-0.067,0.3-0.1,0.467-0.1,0.5c0,0.5,0.2,0.767,0.6,0.8l5.7,0.15l2.15,5.4l3.1,5.65L9.4-5.6
		c-1.367-2-2.1-3.033-2.2-3.1C7.1-8.8,6.95-8.85,6.75-8.85C6.35-8.85,6.1-8.667,6-8.3C5.9-8,5.9-7.8,6-7.7H5.95l2.5,4.4l3.7,0.3
		L14-3.5L15.5-4.2z M14.55-2.9c-0.333,0.4-0.45,0.85-0.35,1.35c0.033,0.5,0.25,0.9,0.65,1.2S15.7,0.066,16.2,0
		c0.5-0.067,0.9-0.3,1.2-0.7c0.333-0.4,0.467-0.85,0.4-1.35c-0.066-0.5-0.3-0.9-0.7-1.2c-0.4-0.333-0.85-0.45-1.35-0.35
		C15.25-3.533,14.85-3.3,14.55-2.9z"/>
</symbol>
<g id="Layer_1">
</g>
<g id="Layer_2">
	<g>
		<path fill="#FFFFFF" d="M19.94,2.104c-2.593-0.739-5.218-0.704-7.648-0.059c-0.011,0.003-0.02,0.007-0.032,0.01
			c-0.438,0.117-0.867,0.254-1.29,0.411c-0.032,0.013-0.064,0.021-0.098,0.031c-0.056,0.022-0.108,0.047-0.165,0.068
			c-0.251,0.101-0.502,0.2-0.746,0.314C9.837,2.937,9.72,3,9.599,3.061C9.094,3.31,8.604,3.585,8.132,3.894
			c-0.018,0.01-0.036,0.021-0.055,0.031c-2.51,1.646-4.448,4.099-5.616,7.062c-0.885,2.245-0.873,4.305-0.873,4.305
			c-0.181,4.422,1.723,8.821,5.196,11.924l0.04-0.052c3.85,3.146,9.207,4.236,14.197,2.361c1.135-0.425,2.172-0.992,3.126-1.652
			c0.04-0.026,0.078-0.055,0.117-0.081c0.271-0.19,0.534-0.385,0.788-0.591c0.251-0.202,0.497-0.412,0.733-0.631
			c0.08-0.074,0.155-0.15,0.233-0.227c1.769-1.701,3.129-3.871,3.85-6.403C32.053,12.273,27.607,4.287,19.94,2.104z M26.155,17.327
			h1.153c-0.22,1.869-0.889,3.655-1.951,5.194c-0.083,0.117-0.167,0.233-0.256,0.347c-0.157,0.211-0.313,0.421-0.486,0.621
			c-0.281,0.322-0.576,0.632-0.891,0.918c-0.063,0.059-0.133,0.112-0.198,0.17c-0.338,0.295-0.688,0.575-1.057,0.828
			c-0.015,0.011-0.028,0.022-0.044,0.031c-1.277,0.865-2.722,1.471-4.249,1.771l0.007,0.027c-0.286,0.058-0.571,0.084-0.856,0.118
			v-1.106c0-0.732-0.594-1.327-1.327-1.327s-1.327,0.595-1.327,1.327v1.117c-2.34-0.27-4.552-1.242-6.315-2.806
			c-1.92-1.859-3.271-4.474-3.654-7.23h1.056c0.733,0,1.327-0.594,1.327-1.327s-0.594-1.327-1.327-1.327H4.645
			c0.047-0.477,0.122-0.952,0.236-1.422c0.986-3.432,3.496-6.596,6.976-7.929c0.036-0.014,0.072-0.027,0.107-0.042
			c0.895-0.332,1.803-0.53,2.709-0.634v1.247c0,0.733,0.594,1.327,1.327,1.327s1.327-0.594,1.327-1.327V4.655
			c4.098,0.501,7.785,3.199,9.337,7.332c0.332,0.885,0.543,1.786,0.648,2.686h-1.157c-0.733,0-1.327,0.594-1.327,1.327
			S25.422,17.327,26.155,17.327z"/>
		<path fill="#FFFFFF" d="M19.69,20.364H19.55c1.578-1.116,2.614-2.952,2.614-5.033c0-3.406-2.762-6.167-6.167-6.167
			s-6.164,2.761-6.164,6.167c0,2.081,1.033,3.917,2.613,5.033h-0.143c-1.587,0-3.044,0.56-4.19,1.486
			c0.316,0.411,0.657,0.804,1.023,1.161c1.21,1.072,2.66,1.82,4.212,2.228c0.386-1.058,1.376-1.816,2.558-1.855
			c0.031-0.018,0.074-0.048,0.092-0.048c0.02,0,0.06,0.03,0.089,0.047c1.176,0.037,2.165,0.785,2.558,1.832
			c1.112-0.299,2.171-0.771,3.121-1.413c0.014-0.011,0.027-0.021,0.041-0.029c0.329-0.228,0.643-0.479,0.947-0.744
			c0.059-0.051,0.12-0.1,0.179-0.152c0.282-0.258,0.545-0.535,0.798-0.824c0.056-0.064,0.105-0.133,0.157-0.2
			C22.74,20.925,21.282,20.364,19.69,20.364z"/>
	</g>
</g>
</svg>
