<?xml version="1.0" encoding="utf-8"?>
<!-- Generator: Adobe Illustrator 16.0.0, SVG Export Plug-In . SVG Version: 6.00 Build 0)  -->
<!DOCTYPE svg PUBLIC "-//W3C//DTD SVG 1.1//EN" "http://www.w3.org/Graphics/SVG/1.1/DTD/svg11.dtd">
<svg version="1.1" xmlns="http://www.w3.org/2000/svg" xmlns:xlink="http://www.w3.org/1999/xlink" x="0px" y="0px" width="32px"
	 height="32px" viewBox="0 0 32 32" enable-background="new 0 0 32 32" xml:space="preserve">
<symbol  id="dude-transit" viewBox="0 -25.1 21.25 25.118">
	<path fill-rule="evenodd" clip-rule="evenodd" fill="#FFFFFF" d="M15.5-4.2l0.75-1.05l1-3.1l3.9-2.65v-0.05
		c0.067-0.1,0.1-0.233,0.1-0.4c0-0.2-0.05-0.383-0.15-0.55c-0.167-0.233-0.383-0.35-0.65-0.35l-4.3,1.8l-1.2,1.65l-1.5-3.95
		l2.25-5.05l-3.25-6.9c-0.267-0.2-0.633-0.3-1.1-0.3c-0.3,0-0.55,0.15-0.75,0.45c-0.1,0.133-0.15,0.25-0.15,0.35
		c0,0.067,0.017,0.15,0.05,0.25c0.033,0.1,0.067,0.184,0.1,0.25l2.55,5.6L10.7-14l-3.05-4.9L0.8-18.7
		c-0.367,0.033-0.6,0.184-0.7,0.45c-0.067,0.3-0.1,0.467-0.1,0.5c0,0.5,0.2,0.767,0.6,0.8l5.7,0.15l2.15,5.4l3.1,5.65L9.4-5.6
		c-1.367-2-2.1-3.033-2.2-3.1C7.1-8.8,6.95-8.85,6.75-8.85C6.35-8.85,6.1-8.667,6-8.3C5.9-8,5.9-7.8,6-7.7H5.95l2.5,4.4l3.7,0.3
		L14-3.5L15.5-4.2z M14.55-2.9c-0.333,0.4-0.45,0.85-0.35,1.35c0.033,0.5,0.25,0.9,0.65,1.2S15.7,0.066,16.2,0
		c0.5-0.067,0.9-0.3,1.2-0.7c0.333-0.4,0.467-0.85,0.4-1.35c-0.066-0.5-0.3-0.9-0.7-1.2c-0.4-0.333-0.85-0.45-1.35-0.35
		C15.25-3.533,14.85-3.3,14.55-2.9z"/>
</symbol>
<g id="Layer_1">
	<g>
		<g>
			<path fill-rule="evenodd" clip-rule="evenodd" fill="#FFFFFF" d="M28.443,16.63c0.02-1.734-0.59-1.773-0.629-2.836
				c-0.021-0.533,0.044-2.025,0-3.465c-0.045-1.434-0.198-2.816-0.315-3.15c-0.236-0.67-0.504-1.773-2.52-3.464
				c-2.206-1.852-6.459-3.426-8.82-3.465c-2.363-0.04-5.119,1.142-7.246,2.52C6.787,4.147,6.275,4.738,5.449,5.92
				c-0.828,1.181-1.143,2.007-0.946,4.095C4.7,12.101,4.747,11.55,4.818,13.48c0.06,1.594-0.665,2.088-0.63,3.15
				c0.052,1.586,0.648,1.917,0.63,2.52c-0.013,0.396-0.709,0.893-0.63,2.205c0.08,1.336,0.354,1.693,2.835,3.15
				c1.61,0.945,3.504,1.299,3.465,1.889c-0.058,0.865-0.275,2.285-0.314,3.15c-0.039,0.867,0.354,0.945,1.259,1.26
				c0.907,0.316,3.032,0.984,5.356,0.945c2.323-0.039,3.308-0.512,4.41-0.945c1.102-0.432,1.26-0.826,1.26-1.574
				s-0.63-2.283-0.63-2.836c0-0.551,1.89-1.141,4.095-2.205c2.206-1.063,2.18-2.125,2.206-2.834
				c0.047-1.338-0.631-1.654-0.631-2.205C27.499,18.074,28.431,17.891,28.443,16.63z M16.317,3.807c1.702,0,3.082,1.378,3.082,3.082
				c0,1.702-1.38,3.08-3.082,3.08c-1.704,0-3.082-1.378-3.082-3.08C13.235,5.186,14.613,3.807,16.317,3.807z M9.858,19.875
				c-1.103,0.039-3.465,0.039-3.465-3.151c0-4.42,2.362-4.922,4.095-5.041c1.733-0.117,1.969-0.314,2.836,0.316
				c1.556,1.131,1.456,3.137,0.944,4.725c-0.375,1.163-0.788,1.614-1.575,2.206C11.906,19.52,10.961,19.834,9.858,19.875z
				 M17.104,24.914l-0.434-1.607L16,23.313l-0.472,1.602c-1.812-0.492-2.54-1.221-2.52-2.205c0.02-0.984,0.571-2.008,1.574-2.834
				c1.005-0.828,1.167-0.955,1.891-0.945c0.691,0.01,0.752,0.143,1.26,0.629c1.097,1.051,1.807,1.752,1.891,3.15
				C19.706,24.086,18.107,24.855,17.104,24.914z M22.773,19.875c-1.103-0.041-2.047-0.355-2.835-0.945
				c-0.787-0.592-1.252-1.027-1.575-2.206C17.956,15.24,17.753,13.13,19.31,12c0.866-0.631,1.102-0.434,2.835-0.316
				c1.731,0.119,4.095,0.621,4.095,5.041C26.239,19.914,23.876,19.914,22.773,19.875z"/>
		</g>
	</g>
</g>
<g id="Layer_2">
</g>
</svg>
