<svg width="40" height="40" viewBox="0 0 40 40" fill="none" xmlns="http://www.w3.org/2000/svg">
<path fill-rule="evenodd" clip-rule="evenodd" d="M19.6429 11C12.706 11 6.35132 14.8003 3 20.7083C6.35132 26.6163 12.706 30.4167 19.6429 30.4167C26.5797 30.4167 32.9344 26.6163 36.2857 20.7083C32.9344 14.8003 26.5797 11 19.6429 11ZM9.93465 20.7083C9.93465 22.3721 10.3532 23.9381 11.0906 25.3068C9.18736 24.1435 7.52565 22.587 6.21731 20.7083C7.52565 18.8296 9.18736 17.2731 11.0906 16.1099C10.3532 17.4786 9.93465 19.0446 9.93465 20.7083ZM29.3513 20.7083C29.3513 22.372 28.9329 23.9379 28.1955 25.3065C30.0986 24.1433 31.7602 22.5869 33.0684 20.7083C31.7602 18.8298 30.0986 17.2734 28.1955 16.1101C28.9329 17.4788 29.3513 19.0447 29.3513 20.7083ZM23.6998 23.0651V22.1221C23.6824 22.1012 23.6599 22.0657 23.6319 22.0214C23.5487 21.8901 23.417 21.6823 23.2282 21.5562C22.9047 21.3402 22.4738 21.2733 22.4738 21.2733V20.0473C22.5681 19.953 22.7756 19.7079 22.851 19.4815C22.9453 19.1986 23.0396 18.6328 23.0396 18.3499C23.0396 18.1235 22.851 18.1298 22.7567 18.1613V15.8979C22.7567 14.9549 21.7194 13.1631 19.5503 13.1631C17.3813 13.1631 16.344 14.8606 16.344 16.0865V18.1613C16.2497 18.0984 16.0611 18.0481 16.0611 18.3499C16.0611 18.6516 16.2497 19.23 16.344 19.4815C16.4383 19.6701 16.6646 20.0473 16.8155 20.0473C16.9664 20.0473 17.0041 20.8647 17.0041 21.2733C17.0041 21.2733 16.7212 21.4148 16.4383 21.6505C16.1554 21.8863 16.0611 22.1221 16.0611 22.1221V23.0651L13.1126 24.1808C13.1126 24.1808 12.5718 24.5194 12.5718 25.0601V26.2715C12.5718 26.2715 15.2757 27.764 19.6019 27.764C23.928 27.764 26.7175 26.2715 26.7175 26.2715V25.0601C26.7175 24.3081 26.2498 24.1808 26.2498 24.1808L23.6998 23.0651Z" fill="white"/>
</svg>
