<?xml version="1.0" encoding="utf-8"?>
<!-- Generator: Adobe Illustrator 16.0.0, SVG Export Plug-In . SVG Version: 6.00 Build 0)  -->
<!DOCTYPE svg PUBLIC "-//W3C//DTD SVG 1.1//EN" "http://www.w3.org/Graphics/SVG/1.1/DTD/svg11.dtd">
<svg version="1.1" id="Layer_1" xmlns="http://www.w3.org/2000/svg" xmlns:xlink="http://www.w3.org/1999/xlink" x="0px" y="0px"
	 width="20.104px" height="32px" viewBox="0 0 20.104 32" enable-background="new 0 0 20.104 32" xml:space="preserve">
<g id="Layer_1_1_">
</g>
<g>
	<path fill="#FFFFFF" d="M16.379,10.295l-3.227-3.538c-0.127-0.14-0.281-0.252-0.453-0.351c0.561-0.628,0.912-1.449,0.912-2.355
		c0-1.958-1.593-3.551-3.549-3.551c-1.957,0-3.55,1.593-3.55,3.551c0,0.905,0.351,1.723,0.909,2.351
		C7.241,6.504,7.076,6.62,6.942,6.771L3.72,10.305c-0.365,0.4-0.555,0.922-0.529,1.465c0.025,0.545,0.263,1.048,0.667,1.415
		c0.372,0.342,0.86,0.533,1.371,0.533c0.061,0,0.118-0.003,0.177-0.008v4.905h1.044v0.135H5.406v2.953H5.63v9.004l8.723-0.018
		l0.009-8.986h0.335v-2.953H13.68v-0.135h1.017v-4.91c0.061,0.004,0.119,0.007,0.18,0.007c0.508,0,0.995-0.188,1.372-0.532
		c0.403-0.368,0.641-0.872,0.666-1.417C16.938,11.217,16.748,10.696,16.379,10.295z M10.064,1.497c1.434,0,2.594,1.162,2.594,2.595
		s-1.16,2.595-2.594,2.595c-1.436,0-2.594-1.162-2.594-2.595S8.628,1.497,10.064,1.497z M9.713,29.71H6.63v-1.771h3.083V29.71z
		 M9.724,27.249H6.63v-1.182h3.094V27.249z M9.724,25.308H6.63v-0.797h3.094V25.308z M6.63,23.774v-0.398h3.083v0.398H6.63z
		 M9.724,22.767H6.63v-0.197h3.094V22.767z M13.44,29.694h-2.882v-1.773h2.882V29.694z M13.449,27.231h-2.893v-1.18h2.893V27.231z
		 M13.449,25.292h-2.893v-0.797h2.893V25.292z M10.558,23.757V23.36h2.882v0.396H10.558z M13.449,22.749h-2.893v-0.197h2.893V22.749
		z M15.604,12.512c-0.207,0.188-0.469,0.284-0.729,0.284c-0.293,0-0.588-0.122-0.802-0.355l-1.352-1.482v2.476h1.017v4.264h-1.017
		v2.047h1.017v1.041h-1.06c-0.101,0.504-0.524,0.891-1.057,0.891c-0.533,0-0.956-0.387-1.061-0.891h-0.348v-1.041h0.307v-5.758
		H9.604v5.758h0.282v1.041H9.563c-0.101,0.504-0.523,0.891-1.06,0.891c-0.532,0-0.956-0.387-1.058-0.891H6.363v-1.041h1.043v-2.047
		H6.363v-4.264h1.043v-2.5l-1.377,1.509c-0.213,0.235-0.508,0.355-0.8,0.355c-0.262,0-0.521-0.093-0.729-0.282
		c-0.444-0.404-0.478-1.089-0.073-1.53l3.229-3.539c0.129-0.143,0.293-0.226,0.463-0.282c0.178-0.092,0.373-0.158,0.587-0.158h2.716
		c0.217,0,0.413,0.066,0.593,0.16c0.158,0.058,0.313,0.14,0.433,0.275l3.229,3.54C16.08,11.423,16.046,12.107,15.604,12.512z"/>
	<g>
		<path fill="#939598" d="M10.064,6.686c1.434,0,2.594-1.162,2.594-2.595s-1.16-2.595-2.594-2.595c-1.436,0-2.594,1.162-2.594,2.595
			S8.628,6.686,10.064,6.686z"/>
	</g>
	<g>
		<path fill="#939598" d="M12.447,7.442c-0.12-0.135-0.273-0.217-0.433-0.275c-0.18-0.093-0.376-0.16-0.593-0.16H8.705
			c-0.214,0-0.409,0.065-0.587,0.158c-0.17,0.056-0.334,0.139-0.464,0.282l-3.229,3.539c-0.403,0.441-0.371,1.126,0.073,1.53
			c0.206,0.188,0.467,0.282,0.729,0.282c0.292,0,0.587-0.12,0.8-0.355l1.377-1.509v2.5H6.363v4.264h1.043v2.047H6.363v1.041h1.084
			c0.102,0.504,0.524,0.891,1.058,0.891c0.535,0,0.959-0.387,1.06-0.891h0.323v-1.041H9.604v-5.758h0.919v5.758h-0.307v1.041h0.348
			c0.104,0.504,0.527,0.891,1.061,0.891s0.956-0.387,1.057-0.891h1.061v-1.041h-1.018v-2.047h1.018v-4.264h-1.018v-2.476
			l1.352,1.482c0.214,0.233,0.509,0.355,0.802,0.355c0.26,0,0.521-0.096,0.729-0.284c0.442-0.403,0.478-1.088,0.071-1.529
			L12.447,7.442z"/>
	</g>
	<g>
		<rect x="10.558" y="26.052" fill="#939598" width="2.893" height="1.18"/>
	</g>
	<g>
		<rect x="10.558" y="23.36" fill="#939598" width="2.882" height="0.396"/>
	</g>
	<g>
		<rect x="10.558" y="22.552" fill="#939598" width="2.893" height="0.197"/>
	</g>
	<g>
		<rect x="10.558" y="27.921" fill="#939598" width="2.882" height="1.771"/>
	</g>
	<g>
		<rect x="10.558" y="24.495" fill="#939598" width="2.893" height="0.797"/>
	</g>
	<g>
		<rect x="6.63" y="26.069" fill="#939598" width="3.094" height="1.18"/>
	</g>
	<g>
		<rect x="6.63" y="23.376" fill="#939598" width="3.083" height="0.396"/>
	</g>
	<g>
		<rect x="6.63" y="22.569" fill="#939598" width="3.094" height="0.197"/>
	</g>
	<g>
		<rect x="6.63" y="27.938" fill="#939598" width="3.083" height="1.771"/>
	</g>
	<g>
		<rect x="6.63" y="24.511" fill="#939598" width="3.094" height="0.797"/>
	</g>
</g>
</svg>
