<?xml version="1.0" encoding="utf-8"?>
<!-- Generator: Adobe Illustrator 16.0.0, SVG Export Plug-In . SVG Version: 6.00 Build 0)  -->
<!DOCTYPE svg PUBLIC "-//W3C//DTD SVG 1.1//EN" "http://www.w3.org/Graphics/SVG/1.1/DTD/svg11.dtd">
<svg version="1.1" id="Layer_1" xmlns="http://www.w3.org/2000/svg" xmlns:xlink="http://www.w3.org/1999/xlink" x="0px" y="0px"
	 width="20.104px" height="32px" viewBox="0 0 20.104 32" enable-background="new 0 0 20.104 32" xml:space="preserve">
<g id="Layer_1_1_">
</g>
<g>
	<circle fill="#FFFFFF" cx="10.064" cy="4.219" r="2.713"/>
	<path fill="#FFFFFF" d="M15.931,11.424l-3.375-3.701c-0.127-0.141-0.287-0.227-0.453-0.288c-0.188-0.097-0.393-0.167-0.619-0.167
		H8.645c-0.224,0-0.429,0.068-0.614,0.165c-0.178,0.058-0.35,0.145-0.484,0.294L4.172,11.43c-0.422,0.461-0.389,1.177,0.075,1.599
		c0.215,0.197,0.488,0.296,0.762,0.296c0.305,0,0.613-0.126,0.836-0.371l1.439-1.578v2.612H6.196v4.464h1.089v2.14H6.196v1.088
		h1.133c0.105,0.527,0.548,0.933,1.105,0.933s1.001-0.405,1.106-0.933h0.338v-1.088H9.584v-6.025h0.96v6.025h-0.319v1.088h0.363
		c0.106,0.527,0.55,0.933,1.106,0.933s1-0.405,1.105-0.933h1.107v-1.088h-1.063v-2.14h1.063v-4.464h-1.063v-2.588l1.412,1.549
		c0.223,0.245,0.531,0.371,0.838,0.371c0.271,0,0.545-0.099,0.762-0.296C16.32,12.602,16.355,11.885,15.931,11.424z"/>
</g>
<g>
	<path fill="#FFFFFF" d="M10.534,29.221"/>
	<path fill="#FFFFFF" d="M10.534,28.5"/>
	<path fill="#FFFFFF" d="M10.534,31.074"/>
	<path fill="#FFFFFF" d="M10.534,23.607"/>
	<path fill="#FFFFFF" d="M10.534,24.452"/>
	<path fill="#FFFFFF" d="M10.534,23.814"/>
	<path fill="#FFFFFF" d="M10.534,27.268"/>
	<path fill="#FFFFFF" d="M10.534,26.472"/>
	<path fill="#FFFFFF" d="M10.534,25.639"/>
	<path fill="#FFFFFF" d="M10.534,24.866"/>
	<rect x="10.534" y="27.268" fill="#FFFFFF" width="3.023" height="1.232"/>
	<rect x="10.534" y="24.452" fill="#FFFFFF" width="3.014" height="0.414"/>
	<rect x="10.534" y="23.607" fill="#FFFFFF" width="3.023" height="0.207"/>
	<rect x="10.534" y="29.221" fill="#FFFFFF" width="3.014" height="1.854"/>
	<rect x="10.534" y="25.639" fill="#FFFFFF" width="3.023" height="0.833"/>
</g>
<g>
	<path fill="#FFFFFF" d="M6.429,29.237"/>
	<path fill="#FFFFFF" d="M6.429,28.517"/>
	<path fill="#FFFFFF" d="M6.429,31.091"/>
	<path fill="#FFFFFF" d="M6.429,23.624"/>
	<path fill="#FFFFFF" d="M6.429,24.469"/>
	<path fill="#FFFFFF" d="M6.429,23.831"/>
	<path fill="#FFFFFF" d="M6.429,27.284"/>
	<path fill="#FFFFFF" d="M6.429,26.488"/>
	<path fill="#FFFFFF" d="M6.429,25.656"/>
	<path fill="#FFFFFF" d="M6.429,24.884"/>
	<rect x="6.429" y="27.284" fill="#FFFFFF" width="3.234" height="1.232"/>
	<rect x="6.429" y="24.469" fill="#FFFFFF" width="3.224" height="0.415"/>
	<rect x="6.429" y="23.624" fill="#FFFFFF" width="3.234" height="0.207"/>
	<rect x="6.429" y="29.237" fill="#FFFFFF" width="3.224" height="1.854"/>
	<rect x="6.429" y="25.656" fill="#FFFFFF" width="3.234" height="0.832"/>
</g>
</svg>
