<?xml version="1.0" encoding="utf-8"?>
<!-- Generator: Adobe Illustrator 16.0.0, SVG Export Plug-In . SVG Version: 6.00 Build 0)  -->
<!DOCTYPE svg PUBLIC "-//W3C//DTD SVG 1.1//EN" "http://www.w3.org/Graphics/SVG/1.1/DTD/svg11.dtd">
<svg version="1.1" id="Layer_1" xmlns="http://www.w3.org/2000/svg" xmlns:xlink="http://www.w3.org/1999/xlink" x="0px" y="0px"
	 width="65.792px" height="57.5px" viewBox="0 0 65.792 57.5" enable-background="new 0 0 65.792 57.5" xml:space="preserve">
<g id="Layer_1_1_">
	
		<image overflow="visible" enable-background="new    " width="61" height="75" xlink:href="F283B31F.jpeg"  transform="matrix(0.7378 0 0 0.7301 -8263.334 -7722.498)">
	</image>
</g>
<g id="Layer_2">
	<g id="Layer_2_1_">
	</g>
	<polygon fill="#FFFFFF" points="47.17,20.286 42.36,20.286 42.336,24.065 45.651,24.065 57.733,37.7 45.674,51.798 18.952,51.798 
		7.095,37.7 18.929,24.065 22.884,24.065 22.907,20.286 17.411,20.286 2.529,37.7 17.411,55.118 47.17,55.118 62.049,37.7 	"/>
	<g>
		<path fill="#FFFFFF" d="M30.729,35.47v-3.873h-1.378c-1.068,0-1.98-0.377-2.737-1.137c-0.757-0.758-1.137-1.682-1.137-2.772
			v-3.165h4.097v2.421c0,0.272,0.1,0.502,0.299,0.688c0.197,0.187,0.436,0.279,0.707,0.279h3.727c0.67,0,1.005-0.324,1.005-0.968
			v-4.284c0-0.347-0.052-0.59-0.147-0.727c-0.101-0.135-0.313-0.254-0.637-0.354c-2.83-0.82-4.904-1.453-6.219-1.898
			c-0.82-0.273-1.492-0.728-2.012-1.359c-0.522-0.635-0.783-1.373-0.783-2.217v-5.401c0-1.092,0.379-2.017,1.137-2.772
			c0.758-0.758,1.669-1.137,2.738-1.137h1.339V2.921h3.129v3.873h1.452c1.095,0,2.025,0.377,2.793,1.137
			c0.771,0.756,1.156,1.683,1.156,2.772v2.831H35.16v-2.085c0-0.272-0.099-0.502-0.297-0.688c-0.199-0.187-0.436-0.279-0.709-0.279
			h-3.354c-0.719,0-1.08,0.322-1.08,0.968v3.91c0,0.522,0.262,0.871,0.783,1.042c0.348,0.1,1.297,0.386,2.85,0.857
			c1.552,0.472,2.676,0.819,3.369,1.043c1.863,0.621,2.795,1.824,2.795,3.612v5.773c0,1.093-0.385,2.019-1.153,2.772
			c-0.771,0.758-1.702,1.137-2.795,1.137h-1.713v3.873H30.729z"/>
	</g>
</g>
<g>
	<path fill="#FFFFFF" d="M42.143,35.483c0,0-4.167-0.336-3.532,2.379c0.488,2.069,3.966,1.304,3.966,1.304L42.143,35.483z"/>
	<path fill="#FFFFFF" d="M43.795,38.846c0,0,1.285-0.097,2.742-0.055c1.221,0.034,1.813,0.339,3.348,0.168
		c1.394-0.152,2.427-1.247,1.947-2.825c-0.48-1.578-2.839-1.837-4.252-1.662c-1.414,0.174-4.146,1.012-4.146,1.012L43.795,38.846z"
		/>
</g>
<g>
	<path fill="#FFFFFF" d="M41.245,10.7h3.245V7.331h2.164V10.7h3.243v1.939h-3.243v3.368H44.49V12.64h-3.245V10.7z"/>
</g>
<g>
	<path fill="#FFFFFF" d="M16.234,38.52c0,0-4.165,0.352-3.092,2.926c0.819,1.961,4.124,0.634,4.124,0.634L16.234,38.52z"/>
	<path fill="#FFFFFF" d="M18.417,41.563c0,0,1.25-0.306,2.694-0.505c1.212-0.166,1.847,0.037,3.33-0.381
		c1.35-0.381,2.189-1.63,1.458-3.108c-0.732-1.479-3.104-1.346-4.468-0.941c-1.365,0.402-3.925,1.68-3.925,1.68L18.417,41.563z"/>
	<path fill="#FFFFFF" d="M29.444,44.39c0,0-3.563-0.011-3.595,2.116c-0.047,2.787,3.953,1.571,3.953,1.571L29.444,44.39z"/>
	<path fill="#FFFFFF" d="M39.136,45.383c0.132-1.645-1.111-2.492-2.508-2.347c-1.533,0.16-2.047,0.583-3.233,0.878
		c-1.417,0.352-2.688,0.528-2.688,0.528l0.361,3.362c0,0,2.848,0.238,4.268,0.106C36.749,47.782,39.001,47.029,39.136,45.383z"/>
</g>
</svg>
