<?xml version="1.0" encoding="utf-8"?>
<!-- Generator: Adobe Illustrator 16.0.3, SVG Export Plug-In . SVG Version: 6.00 Build 0)  -->
<!DOCTYPE svg PUBLIC "-//W3C//DTD SVG 1.1//EN" "http://www.w3.org/Graphics/SVG/1.1/DTD/svg11.dtd">
<svg version="1.1" xmlns="http://www.w3.org/2000/svg" xmlns:xlink="http://www.w3.org/1999/xlink" x="0px" y="0px" width="32px"
	 height="32px" viewBox="0 0 32 32" enable-background="new 0 0 32 32" xml:space="preserve">
<symbol  id="dude-transit" viewBox="0 -25.1 21.25 25.118">
	<path fill-rule="evenodd" clip-rule="evenodd" fill="#FFFFFF" d="M15.5-4.2l0.75-1.05l1-3.1l3.9-2.65v-0.05
		c0.067-0.1,0.1-0.233,0.1-0.4c0-0.2-0.05-0.383-0.15-0.55c-0.167-0.233-0.383-0.35-0.65-0.35l-4.3,1.8l-1.2,1.65l-1.5-3.95
		l2.25-5.05l-3.25-6.9c-0.267-0.2-0.633-0.3-1.1-0.3c-0.3,0-0.55,0.15-0.75,0.45c-0.1,0.133-0.15,0.25-0.15,0.35
		c0,0.067,0.017,0.15,0.05,0.25c0.033,0.1,0.067,0.184,0.1,0.25l2.55,5.6L10.7-14l-3.05-4.9L0.8-18.7
		c-0.367,0.033-0.6,0.184-0.7,0.45c-0.067,0.3-0.1,0.467-0.1,0.5c0,0.5,0.2,0.767,0.6,0.8l5.7,0.15l2.15,5.4l3.1,5.65L9.4-5.6
		c-1.367-2-2.1-3.033-2.2-3.1C7.1-8.8,6.95-8.85,6.75-8.85C6.35-8.85,6.1-8.667,6-8.3C5.9-8,5.9-7.8,6-7.7H5.95l2.5,4.4l3.7,0.3
		L14-3.5L15.5-4.2z M14.55-2.9c-0.333,0.4-0.45,0.85-0.35,1.35c0.033,0.5,0.25,0.9,0.65,1.2S15.7,0.066,16.2,0
		c0.5-0.067,0.9-0.3,1.2-0.7c0.333-0.4,0.467-0.85,0.4-1.35c-0.066-0.5-0.3-0.9-0.7-1.2c-0.4-0.333-0.85-0.45-1.35-0.35
		C15.25-3.533,14.85-3.3,14.55-2.9z"/>
</symbol>
<g id="Layer_1">
</g>
<g id="Layer_2">
	<path fill="#FFFFFF" d="M30.802,29.306c-0.193-0.381-1.241-2.371-5.776-2.917c2.811-2.629,4.578-6.36,4.578-10.513
		c0-7.957-6.45-14.407-14.407-14.407S0.789,7.918,0.789,15.875c0,7.957,6.45,14.407,14.407,14.407c2.623,0,5.077-0.713,7.195-1.938
		c0.61-0.039,1.232-0.062,1.865-0.042c1.791,0.06,3.594,0.41,4.949,1.334C30.116,30.256,31.016,29.726,30.802,29.306z M22.153,12.41
		c1.913,0,3.465,1.552,3.465,3.465c0,1.913-1.552,3.465-3.465,3.465s-3.465-1.552-3.465-3.465
		C18.688,13.961,20.24,12.41,22.153,12.41z M15.196,6.149c1.913,0,3.465,1.552,3.465,3.465c0,1.914-1.552,3.465-3.465,3.465
		s-3.465-1.552-3.465-3.465C11.731,7.701,13.283,6.149,15.196,6.149z M7.889,19.34c-1.913,0-3.466-1.552-3.466-3.465
		c0-1.914,1.553-3.465,3.466-3.465c1.912,0,3.465,1.552,3.465,3.465C11.354,17.788,9.801,19.34,7.889,19.34z M11.731,23.231
		c0-1.914,1.552-3.465,3.465-3.465s3.465,1.552,3.465,3.465c0,1.913-1.552,3.465-3.465,3.465S11.731,25.144,11.731,23.231z"/>
</g>
</svg>
