<?xml version="1.0" encoding="utf-8"?>
<!-- Generator: Adobe Illustrator 16.0.3, SVG Export Plug-In . SVG Version: 6.00 Build 0)  -->
<!DOCTYPE svg PUBLIC "-//W3C//DTD SVG 1.1//EN" "http://www.w3.org/Graphics/SVG/1.1/DTD/svg11.dtd">
<svg version="1.1" xmlns="http://www.w3.org/2000/svg" xmlns:xlink="http://www.w3.org/1999/xlink" x="0px" y="0px" width="32px"
	 height="32px" viewBox="0 0 32 32" enable-background="new 0 0 32 32" xml:space="preserve">
<g id="Layer_1">
	<path fill-rule="evenodd" clip-rule="evenodd" fill="#FCFCFC" d="M11.281,1c-5.486,0-9.935,4.447-9.935,9.935
		c0,5.487,4.449,9.934,9.935,9.934c5.486,0,9.934-4.447,9.934-9.934C21.215,5.447,16.767,1,11.281,1z M11.281,18.234
		c-4.032,0-7.299-3.269-7.299-7.299c0-4.032,3.268-7.299,7.299-7.299c4.03,0,7.299,3.268,7.299,7.299
		C18.581,14.965,15.312,18.234,11.281,18.234z"/>
	
		<rect x="15.85" y="21.547" transform="matrix(0.7071 0.7071 -0.7071 0.7071 22.3832 -9.2065)" fill-rule="evenodd" clip-rule="evenodd" fill="#FFFFFF" width="12.909" height="1.732"/>
	
		<rect x="17.157" y="23.289" transform="matrix(0.7071 0.7071 -0.7071 0.7071 24.8278 -10.1769)" fill-rule="evenodd" clip-rule="evenodd" fill="#FCFCFC" width="15.083" height="3.184"/>
</g>
<g id="Layer_2">
</g>
</svg>
