<?xml version="1.0" encoding="utf-8"?>
<!-- Generator: Adobe Illustrator 23.0.3, SVG Export Plug-In . SVG Version: 6.00 Build 0)  -->
<svg version="1.1" baseProfile="tiny" xmlns="http://www.w3.org/2000/svg" xmlns:xlink="http://www.w3.org/1999/xlink" x="0px"
	 y="0px" width="32px" height="32px" viewBox="0 0 32 32" xml:space="preserve">
<g id="Layer_2">
	<g>
		<path fill="#FFFFFF" stroke="#FFFFFF" stroke-width="0.9059" stroke-miterlimit="10" d="M12.335,10.342
			c0-2.034,1.648-3.683,3.683-3.683c2.034,0,3.682,1.648,3.682,3.683c0,2.033-1.648,3.683-3.682,3.683
			C13.982,14.025,12.335,12.375,12.335,10.342z"/>
		<path fill="#FFFFFF" stroke="#FFFFFF" stroke-width="0.9059" stroke-miterlimit="10" d="M22.139,19.112
			c-0.241-1.697-2.866-3.035-6.078-3.035c-3.212,0-5.837,1.338-6.077,3.035H9.961v6.136c0,0-0.019,0.18,0.134,0.18
			c0.243,0,11.911,0,11.911,0s0.155,0.042,0.155-0.169s0-6.147,0-6.147H22.139z"/>
		
			<path fill="#FFFFFF" stroke="#FFFFFF" stroke-width="0.885" stroke-linecap="round" stroke-linejoin="round" stroke-miterlimit="10" d="
			M11.19,8.61c-0.19-0.032-0.385-0.048-0.585-0.048c-1.946,0-3.522,1.576-3.522,3.521c0,1.946,1.576,3.523,3.522,3.523
			c0.978,0,1.864-0.4,2.502-1.044c0,0-1.561-1.088-2.02-2.675C10.635,10.321,11.19,8.61,11.19,8.61z"/>
		
			<path fill="#FFFFFF" stroke="#FFFFFF" stroke-width="0.885" stroke-linecap="round" stroke-linejoin="round" stroke-miterlimit="10" d="
			M8.069,24.096H4.531v-4.093h0.025c0.207-1.471,2.159-2.678,4.743-3.021c0,0-1.23,0.817-1.23,1.923S8.069,24.096,8.069,24.096z"/>
		
			<path fill="#FFFFFF" stroke="#FFFFFF" stroke-width="0.885" stroke-linecap="round" stroke-linejoin="round" stroke-miterlimit="10" d="
			M23.71,24.025h3.512v-4.093h-0.025c-0.207-1.471-2.158-2.678-4.743-3.021c0,0,1.256,0.45,1.256,1.923
			C23.71,20.414,23.71,24.025,23.71,24.025z"/>
		
			<path fill="#FFFFFF" stroke="#FFFFFF" stroke-width="0.885" stroke-linecap="round" stroke-linejoin="round" stroke-miterlimit="10" d="
			M20.731,8.539c0.19-0.032,0.385-0.048,0.585-0.048c1.946,0,3.522,1.576,3.522,3.521c0,1.946-1.576,3.523-3.522,3.523
			c-0.978,0-1.864-0.4-2.502-1.044c0,0,1.561-1.088,2.02-2.675C21.286,10.25,20.731,8.539,20.731,8.539z"/>
		
			<path fill="#FFFFFF" stroke="#FFFFFF" stroke-width="0.885" stroke-linecap="round" stroke-linejoin="round" stroke-miterlimit="10" d="
			M28.752,23.403h1.67v-3.112h-0.019c-0.157-1.118-0.641-2.036-2.606-2.297c0,0,0.955,0.342,0.955,1.462
			C28.752,20.658,28.752,23.403,28.752,23.403z"/>
		
			<path fill="#FFFFFF" stroke="#FFFFFF" stroke-width="0.885" stroke-linecap="round" stroke-linejoin="round" stroke-miterlimit="10" d="
			M26.374,11.589c0.132-0.022,0.268-0.033,0.408-0.033c1.355,0,2.454,1.098,2.454,2.453c0,1.355-1.098,2.454-2.454,2.454
			c-0.681,0-1.299-0.278-1.743-0.727c0,0,1.088-0.758,1.407-1.863C26.761,12.781,26.374,11.589,26.374,11.589z"/>
		
			<path fill="#FFFFFF" stroke="#FFFFFF" stroke-width="0.885" stroke-linecap="round" stroke-linejoin="round" stroke-miterlimit="10" d="
			M2.916,23.387h-1.67v-3.112h0.019c0.157-1.118,0.641-2.036,2.606-2.297c0,0-0.955,0.342-0.955,1.462
			C2.916,20.642,2.916,23.387,2.916,23.387z"/>
		
			<path fill="#FFFFFF" stroke="#FFFFFF" stroke-width="0.885" stroke-linecap="round" stroke-linejoin="round" stroke-miterlimit="10" d="
			M5.294,11.573c-0.132-0.022-0.268-0.033-0.408-0.033c-1.355,0-2.454,1.098-2.454,2.453c0,1.355,1.098,2.454,2.454,2.454
			c0.681,0,1.299-0.278,1.743-0.727c0,0-1.088-0.758-1.407-1.863C4.907,12.765,5.294,11.573,5.294,11.573z"/>
	</g>
</g>
<g id="topo">
	<g id="Layer_1">
	</g>
</g>
</svg>
