<?xml version="1.0" encoding="utf-8"?>
<!-- Generator: Adobe Illustrator 16.0.0, SVG Export Plug-In . SVG Version: 6.00 Build 0)  -->
<!DOCTYPE svg PUBLIC "-//W3C//DTD SVG 1.1//EN" "http://www.w3.org/Graphics/SVG/1.1/DTD/svg11.dtd">
<svg version="1.1" xmlns="http://www.w3.org/2000/svg" xmlns:xlink="http://www.w3.org/1999/xlink" x="0px" y="0px" width="32px"
	 height="32px" viewBox="0 0 32 32" enable-background="new 0 0 32 32" xml:space="preserve">
<symbol  id="dude-transit" viewBox="0 -25.1 21.25 25.118">
	<path fill-rule="evenodd" clip-rule="evenodd" fill="#FFFFFF" d="M15.5-4.2l0.75-1.05l1-3.1l3.9-2.65v-0.05
		c0.067-0.1,0.1-0.233,0.1-0.4c0-0.2-0.05-0.383-0.15-0.55c-0.167-0.233-0.383-0.35-0.65-0.35l-4.3,1.8l-1.2,1.65l-1.5-3.95
		l2.25-5.05l-3.25-6.9c-0.267-0.2-0.633-0.3-1.1-0.3c-0.3,0-0.55,0.15-0.75,0.45c-0.1,0.133-0.15,0.25-0.15,0.35
		c0,0.067,0.017,0.15,0.05,0.25c0.033,0.1,0.067,0.184,0.1,0.25l2.55,5.6L10.7-14l-3.05-4.9L0.8-18.7
		c-0.367,0.033-0.6,0.184-0.7,0.45c-0.067,0.3-0.1,0.467-0.1,0.5c0,0.5,0.2,0.767,0.6,0.8l5.7,0.15l2.15,5.4l3.1,5.65L9.4-5.6
		c-1.367-2-2.1-3.033-2.2-3.1C7.1-8.8,6.95-8.85,6.75-8.85C6.35-8.85,6.1-8.667,6-8.3C5.9-8,5.9-7.8,6-7.7H5.95l2.5,4.4l3.7,0.3
		L14-3.5L15.5-4.2z M14.55-2.9c-0.333,0.4-0.45,0.85-0.35,1.35c0.033,0.5,0.25,0.9,0.65,1.2S15.7,0.066,16.2,0
		c0.5-0.067,0.9-0.3,1.2-0.7c0.333-0.4,0.467-0.85,0.4-1.35c-0.066-0.5-0.3-0.9-0.7-1.2c-0.4-0.333-0.85-0.45-1.35-0.35
		C15.25-3.533,14.85-3.3,14.55-2.9z"/>
</symbol>
<g id="Layer_1">
</g>
<g id="Layer_2">
	<g>
		<circle fill="none" stroke="#FFFFFF" stroke-width="0.9059" stroke-miterlimit="10" cx="16.023" cy="8.383" r="4.948"/>
		<path fill="none" stroke="#FFFFFF" stroke-width="0.9059" stroke-miterlimit="10" d="M24.248,20.166
			c-0.323-2.28-3.851-4.078-8.166-4.078s-7.843,1.798-8.165,4.078H7.886v8.244c0,0-0.025,0.241,0.181,0.241
			c0.326,0,16.004,0,16.004,0s0.208,0.057,0.208-0.227s0-8.259,0-8.259H24.248z"/>
		
			<path fill="none" stroke="#FFFFFF" stroke-width="0.885" stroke-linecap="round" stroke-linejoin="round" stroke-miterlimit="10" d="
			M12.445,13.957c-0.857,0.865-2.048,1.402-3.362,1.402c-2.614,0-4.732-2.119-4.732-4.733s2.118-4.731,4.732-4.731
			c0.269,0,0.531,0.021,0.786,0.064"/>
		
			<path fill="none" stroke="#FFFFFF" stroke-width="0.885" stroke-linecap="round" stroke-linejoin="round" stroke-miterlimit="10" d="
			M7.328,17.208c-3.473,0.46-6.095,2.082-6.373,4.059H0.922v5.5h4.76"/>
		
			<path fill="none" stroke="#FFFFFF" stroke-width="0.885" stroke-linecap="round" stroke-linejoin="round" stroke-miterlimit="10" d="
			M17.914,20.559"/>
		
			<path fill="none" stroke="#FFFFFF" stroke-width="0.885" stroke-linecap="round" stroke-linejoin="round" stroke-miterlimit="10" d="
			M19.588,13.957c0.856,0.865,2.048,1.402,3.362,1.402c2.614,0,4.731-2.119,4.731-4.733s-2.117-4.731-4.731-4.731
			c-0.268,0-0.531,0.021-0.787,0.064"/>
		
			<path fill="none" stroke="#FFFFFF" stroke-width="0.885" stroke-linecap="round" stroke-linejoin="round" stroke-miterlimit="10" d="
			M24.672,17.208c3.474,0.46,6.095,2.082,6.373,4.059h0.033v5.5h-4.76"/>
		
			<path fill="none" stroke="#FFFFFF" stroke-width="0.885" stroke-linecap="round" stroke-linejoin="round" stroke-miterlimit="10" d="
			M14.822,20.559"/>
		<path fill="#FFFFFF" d="M5.25,24.985"/>
	</g>
</g>
</svg>
