<?xml version="1.0" encoding="utf-8"?>
<!-- Generator: Adobe Illustrator 16.0.0, SVG Export Plug-In . SVG Version: 6.00 Build 0)  -->
<!DOCTYPE svg PUBLIC "-//W3C//DTD SVG 1.1//EN" "http://www.w3.org/Graphics/SVG/1.1/DTD/svg11.dtd">
<svg version="1.1" xmlns="http://www.w3.org/2000/svg" xmlns:xlink="http://www.w3.org/1999/xlink" x="0px" y="0px" width="32px"
	 height="32px" viewBox="0 0 32 32" enable-background="new 0 0 32 32" xml:space="preserve">
<symbol  id="dude-transit" viewBox="0 -25.1 21.25 25.118">
	<path fill-rule="evenodd" clip-rule="evenodd" fill="#FFFFFF" d="M15.5-4.2l0.75-1.05l1-3.1l3.9-2.65v-0.05
		c0.067-0.1,0.1-0.233,0.1-0.4c0-0.2-0.05-0.383-0.15-0.55c-0.167-0.233-0.383-0.35-0.65-0.35l-4.3,1.8l-1.2,1.65l-1.5-3.95
		l2.25-5.05l-3.25-6.9c-0.267-0.2-0.633-0.3-1.1-0.3c-0.3,0-0.55,0.15-0.75,0.45c-0.1,0.133-0.15,0.25-0.15,0.35
		c0,0.067,0.017,0.15,0.05,0.25c0.033,0.1,0.067,0.184,0.1,0.25l2.55,5.6L10.7-14l-3.05-4.9L0.8-18.7
		c-0.367,0.033-0.6,0.184-0.7,0.45c-0.067,0.3-0.1,0.467-0.1,0.5c0,0.5,0.2,0.767,0.6,0.8l5.7,0.15l2.15,5.4l3.1,5.65L9.4-5.6
		c-1.367-2-2.1-3.033-2.2-3.1C7.1-8.8,6.95-8.85,6.75-8.85C6.35-8.85,6.1-8.667,6-8.3C5.9-8,5.9-7.8,6-7.7H5.95l2.5,4.4l3.7,0.3
		L14-3.5L15.5-4.2z M14.55-2.9c-0.333,0.4-0.45,0.85-0.35,1.35c0.033,0.5,0.25,0.9,0.65,1.2S15.7,0.066,16.2,0
		c0.5-0.067,0.9-0.3,1.2-0.7c0.333-0.4,0.467-0.85,0.4-1.35c-0.066-0.5-0.3-0.9-0.7-1.2c-0.4-0.333-0.85-0.45-1.35-0.35
		C15.25-3.533,14.85-3.3,14.55-2.9z"/>
</symbol>
<g id="Layer_1">
</g>
<g id="Layer_2">
	<g>
		<g>
			<path fill-rule="evenodd" clip-rule="evenodd" fill="#FFFFFF" d="M14.878,12.585l0.085-0.085v-0.184h-0.068
				c-0.021,0.098-0.043,0.187-0.072,0.269H14.878z M0.944,3.631c0,9.291,2.588,25.226,15.143,28.156
				c12.906-2.833,14.971-18.999,14.971-28.156C23.746-0.805,6.827-0.492,0.944,3.631z M27.323,14.273l-0.032-0.018
				c0,0-0.017-0.08-0.092-0.085c-0.072-0.006-0.134,0.043-0.134,0.043h-0.428l-0.024,0.054l-0.104,0.013l-0.055-0.098h-4.121v0.08
				h0.061v0.281h0.055v-0.079h0.537v0.146h0.075v0.092h-0.05v0.269h-0.067v0.049l0.05,0.061h0.14
				c0.019-0.055,0.104-0.042,0.104-0.042c0.251,0.012,0.207,0.086,0.207,0.171h0.143v0.031h1.662v-0.031h0.258v-0.049h0.091v0.062
				h0.138v-0.067c0.157-0.009,0.174,0.101,0.184,0.174c0.009,0.074-0.037,0.174-0.201,0.156v-0.064H25.59l0.018,0.056h-0.111
				l0.011-0.073h-0.129v0.11h-0.239l-0.026-0.028h-0.203v-0.082h-1.457l-0.011,0.055l-0.072,0.091l-0.239,0.045l-0.192-0.091
				l-0.22,0.018l-0.128-0.045l-0.074-0.138l0.02-0.174l0.101-0.155l0.008-0.166l-0.201-0.009v-0.119l-0.046-0.019l-0.019,0.202
				l-0.101,0.111l-4.963-0.019c0,0-0.568,0.688-0.706,0.798c-0.138,0.111-0.329,0.248-0.505,0.267l-1.771,0.027l-0.082-0.083
				c0,0-2.101,0.01-2.211,0c-0.109-0.009-0.155-0.018-0.192-0.046c-0.036-0.027-0.091-0.083-0.119-0.138
				c-0.028-0.055-0.074-0.028-0.074-0.028s-0.183,0.331-0.183,0.386S11.444,16.3,11.353,16.3s-0.146,0.104-0.175,0.174
				c-0.036,0.091-0.064,0.211-0.064,0.211s-0.118,0.119-0.164,0.166c-0.046,0.045-0.147,0.192-0.12,0.293
				c0.027,0.101,0.036,0.192-0.036,0.248c-0.073,0.055-0.294-0.01-0.56-0.147c-0.267-0.138-0.402-0.174-0.413-0.33
				c-0.013-0.211,0.339-0.678,0.688-0.936c0.348-0.257,0.284-0.238,0.293-0.413c0.009-0.174-0.055-0.275-0.055-0.275l-1.083-0.01
				v0.34L9.289,15.64v0.064l-0.037,0.027l-0.119,0.037l-0.028-0.082h-0.1l-1.944,0.743l-0.285,0.137H6.52v0.89l0.174,0.037
				l-0.019,0.21L6.49,17.787l-0.319-0.009v-0.321l0.155-0.027v-0.872l-0.266,0.009l-0.064,0.138l-0.202,0.019l-0.008-0.064
				L5.702,16.64l-0.019,0.083l-0.192,0.009l-0.072-0.101c0,0-0.129,0.083-0.167,0.118c-0.037,0.038-0.154-0.054-0.154-0.054
				c-0.551-0.027-0.409-1.027-0.413-1.22c-0.02-0.661,0.064-1.22,0.355-1.211l0.313-0.018l0.045,0.072l0.047,0.01l0.056-0.082
				l0.164,0.009l0.092,0.073l0.064-0.082l0.175,0.009l0.035,0.101h0.863l0.166,0.129l0.008,0.312l0.816,0.018l0.02-0.293
				l-0.083-0.109c0,0-0.331,0-0.458,0.009c-0.129,0.01-0.193-0.083-0.193-0.083l0.008-0.339c0,0-0.054-0.184,0.156-0.192h2.396
				c0,0,0.229-0.046,0.22,0.109l-0.028,0.239l-0.146,0.027l-0.138,0.23L9.582,14.43H8.601c0,0-0.018-0.065-0.082-0.083
				c-0.065-0.019-0.083,0.037-0.083,0.037l-0.018,0.44l0.99-0.019l0.009-0.137L9.6,14.649l0.01,0.155l0.854,0.009
				c0,0,0.11-0.045,0.174-0.1c0.063-0.055,0.174-0.028,0.267-0.038c0.092-0.008,0.21-0.055,0.514-0.165
				c0.302-0.11,0.551-0.174,0.936-0.248c-0.005-0.07,0.04-0.146,0.104-0.22c-0.094,0.004-0.209,0.021-0.355,0.063
				c-0.566,0.163-1.08,0.378-1.08,0.378s0-0.891,0.109-1.107c0,0-0.621,0.701-1.188,0.756c0,0,0.162-1.188,0.432-1.322
				c0,0-1.591,0.082-1.808-0.108c0,0,0.62-0.863,1.215-0.89c0,0-1.105-0.323-1.296-0.836c0,0,0.945-0.243,1.351-0.135
				c0,0-0.758-0.54-0.919-1.187c0,0,0.919-0.081,1.241,0.215c0,0-0.859-1.064-0.882-1.617c-0.001-0.05,0.005-0.096,0.018-0.137
				c0,0,0.847,0.014,1.144,0.499c0,0-1.144-1.794-0.414-3.062c0,0-0.087,1.372,1.241,2.563c1.551,1.39,2.672,1.808,3.372,2.86
				c0.271,0.406,0.324,0.81,0.288,1.155l0.325-0.006c0,0,0.21-0.034,0.226-0.161c0.006-0.048,0.038-0.076,0.089-0.089l-0.513-0.963
				c-0.203-0.966-2.614-2.261-3.21-2.867c-0.751-0.765-0.014-2.709-0.014-2.709c0.202,0.102,1.028,1.081,1.028,1.081
				c-0.325-0.915,0.405-2.026,0.405-2.026C13.381,4.4,14.23,5.469,14.23,5.469c0.34-1.495,1.918-1.507,1.918-1.507
				c-0.357,0.005-0.812,1.463-1.124,2.99s1.003,3.641,1.387,4.56c0.093,0.222,0.141,0.438,0.162,0.642
				c0.305,0.132,0.555,0.26,0.555,0.26h1.358c0,0,0.048,0.171,0.036,0.44c-0.012,0.269-0.061,0.514-0.061,0.514h-1.284
				c0,0-0.454-0.121-0.648-0.172c-0.014-0.003-0.025-0.002-0.038-0.004l-0.018,0.006c-0.033,0.118-0.063,0.204-0.073,0.248
				l-0.107-0.202l-0.009-0.002v0.273c0,0,0.709-0.025,0.795,0.036c0.085,0.062,0.024,0.135,0.024,0.135l0.098-0.012l0.05,0.049
				h0.293l0.183,0.025l0.454,0.085h8.304l0.024-0.122h0.062l0.03,0.042l0.452,0.013c0.018,0.057,0.279,0.182,0.222-0.013H28.1
				c0,0,0.104,0.105,0.104,0.239c0,0.135-0.104,0.281-0.104,0.281H27.323z M27.915,13.882c-0.078,0-0.109,0.006-0.109,0.006
				l-0.013,0.079l-0.065,0.006l-0.026-0.085l-0.135-0.006l-0.006,0.214l0.117,0.006l0.041-0.061l0.093-0.006l0.025,0.066
				l0.109-0.006c0,0,0.03-0.03,0.024-0.122C27.963,13.882,27.996,13.882,27.915,13.882z M21.061,14.676l-0.079,0.08v0.085h0.635
				l0.038-0.042v-0.098l-0.081-0.025H21.061z M20.032,14.683l-0.061,0.055l0.012,0.11h0.631l0.018-0.104l-0.061-0.062H20.032z
				 M19.085,14.683l-0.061,0.062l-0.006,0.104h0.624l0.029-0.055l0.005-0.086l-0.042-0.024H19.085z M18.076,14.671l-0.079,0.098
				l-0.007,0.067h0.08l0.563,0.006l0.037-0.067v-0.074l-0.087-0.03H18.076z M13.136,15.294h-0.852c0,0-0.201,0.159-0.183,0.306
				c0.019,0.147,0.087,0.208,0.087,0.208l-0.063,0.042c0,0-0.104-0.085-0.097-0.287c0.005-0.202,0.091-0.27,0.091-0.27h-0.244
				c0,0-0.131,0.03-0.131,0.288c0,0.256,0.124,0.312,0.228,0.318c0.104,0.006,0.931,0,0.931,0c0.17-0.007,0.17-0.098,0.25-0.276
				C13.232,15.447,13.222,15.294,13.136,15.294z M8.236,14.676l-0.05-0.024h-0.06l-0.044,0.03l-0.005,0.122l0.146-0.005
				L8.236,14.676z M8.401,15.759l-0.103,0.049H7.901l-0.038-0.037l-0.006-0.11H7.051v0.661l1.693-0.612l0.02-0.055H8.427
				L8.401,15.759z M14.505,13.374h1.442l0.013-0.141l-0.061-0.048h-0.361l-0.079,0.079h-0.514l-0.104-0.067h-0.327
				c-0.003,0.005-0.007,0.011-0.01,0.016V13.374z M14.89,12.316h0.005c0.012-0.06,0.024-0.12,0.031-0.184l-0.036,0V12.316z
				 M13.182,14.376c0,0,0.918-0.377,0.945-0.486c0.02-0.078,0.252-0.47,0.378-0.678v-0.016h0.01c0.042-0.07,0.07-0.116,0.07-0.116
				s0.135-0.197,0.237-0.497h-0.299l-0.364,0.634v0.311H14.04c-0.056-0.073-0.138-0.055-0.138-0.055l-0.082,0.028l-0.019,0.175
				h-0.66c-0.19,0-0.519,0.176-0.685,0.366c0.271-0.012,0.346,0.09,0.346,0.09L13.182,14.376z M15.607,11.957l0.522,0.981
				l-0.452-0.991C15.653,11.959,15.629,11.96,15.607,11.957z M15.619,11.876c-0.017,0.001-0.04-0.004-0.054,0l0.008,0.015
				C15.583,11.885,15.599,11.88,15.619,11.876z M16.58,12.276c-0.002-0.041-0.002-0.08-0.007-0.123
				c-0.149-0.065-0.31-0.128-0.463-0.181C16.238,12.049,16.426,12.172,16.58,12.276z M15.607,11.957l-0.034-0.065
				C15.536,11.916,15.562,11.949,15.607,11.957z M16.838,12.453c0,0-0.113-0.079-0.258-0.176c0.021,0.374-0.045,0.698-0.104,0.914
				c0.005,0,0.01,0.001,0.016,0.001l0.264-0.09L16.838,12.453z M16.13,12.938l0.137,0.299l0.018,0.005v-0.014L16.13,12.938z
				 M15.975,11.904c-0.188-0.04-0.295-0.041-0.355-0.028c0.117-0.01,0.292,0.03,0.491,0.097
				C16.048,11.937,15.996,11.909,15.975,11.904z M16.415,13.191l-0.131-0.019v0.055l0.009,0.017l0.025,0.007l0.155-0.053
				c0-0.002,0.001-0.005,0.002-0.008C16.442,13.189,16.415,13.191,16.415,13.191z"/>
		</g>
	</g>
</g>
</svg>
