<svg width="40" height="40" viewBox="0 0 40 40" fill="none" xmlns="http://www.w3.org/2000/svg">
<path d="M11.2509 14.4206L11.1058 14.0497L11.0574 13.8195L10.7308 13.4486C10.7308 13.4486 10.5353 13.1138 10.3573 13.1294L10.3589 13.1217C10.3589 13.1217 10.3952 13.1036 10.4085 13.0901C10.4199 13.0775 10.4262 13.0525 10.4262 13.0525C10.4282 13.0191 10.4014 12.9286 10.4014 12.9286L10.3714 12.8086L10.3812 12.645C10.3812 12.645 10.5429 12.6036 10.5651 12.5883C10.5889 12.5726 10.5806 12.5563 10.5806 12.5563C10.5806 12.5563 10.6401 12.5667 10.7298 12.4936C10.8181 12.4205 10.8118 12.0584 10.7969 11.9005C10.7834 11.7429 10.66 11.4243 10.66 11.4243C10.66 11.4243 10.6951 11.3457 10.6786 11.3017C10.66 11.2573 10.625 11.238 10.6052 11.2265C10.5883 11.2134 10.4514 11.1403 10.4296 11.1343C10.4095 11.1284 10.3822 11.1225 10.3822 11.1225C10.3822 11.1225 10.0958 10.8981 9.96213 10.854C9.82766 10.8102 9.80851 10.7866 9.53797 10.7832C9.26703 10.779 8.8332 10.9266 8.57374 11.344C8.31469 11.7625 8.31469 12.2971 8.33949 12.4018C8.36429 12.5055 8.44634 12.7776 8.44634 12.7776L8.33002 12.9031C8.33002 12.9031 7.88489 12.9669 7.83913 12.9373C7.79337 12.9091 7.76454 13.0121 7.46396 13.206C7.16258 13.3981 7.06461 13.6793 6.69891 14.1829C6.57191 14.8295 6.64529 15.1851 6.65355 15.2811C6.66343 15.3776 6.69024 15.4268 6.69024 15.4268L6.6725 15.5611C6.6725 15.5611 6.49893 15.6189 6.42575 15.6282C6.35237 15.6386 6.30258 15.6463 6.2296 15.6741C6.15622 15.7036 6.17456 15.7389 6.15703 15.7765C6.13848 15.8162 6.04071 16.3838 6.01188 16.4798C5.98607 16.5758 5.95422 17.164 5.9635 17.2982C5.97297 17.4325 6.02982 17.439 6.12094 17.4773C6.21287 17.5162 6.26609 17.5028 6.26609 17.5028C6.26609 17.5028 6.35096 17.5822 6.27919 17.6117C6.20581 17.6413 6.07881 17.7377 6.05099 17.7851C6.02458 17.8324 6.05099 18.4213 6.05099 18.4213C6.05099 18.4213 6.11449 18.7288 6.11449 18.7677C6.11449 18.8066 6.11449 18.8066 6.11449 18.8066L6.15783 19.4608L6.16368 19.5362C6.16368 19.5362 6.23404 19.7087 6.20501 19.714C6.17819 19.7204 6.12175 19.6556 6.09614 19.6885C6.06974 19.7212 5.9895 19.8793 5.99938 19.906C6.01006 19.9317 5.99494 20.0526 5.99494 20.0526C5.99494 20.0526 5.99434 20.2669 5.99938 20.2899C6.00643 20.3128 5.92398 20.357 5.95503 20.3959C5.98648 20.4356 5.89193 20.5142 5.93951 20.6004C5.98648 20.6867 6.04958 20.7323 6.04958 20.7323L5.85363 22.3633L5.74517 22.732L5.6097 23.1424C5.6097 23.1424 5.4831 23.15 5.4079 23.2614C5.33331 23.3735 4.96883 24.3589 4.95834 24.5692C4.94988 24.7799 4.86118 24.891 4.85755 24.9539C4.85432 25.0159 4.91561 25.0478 4.91923 25.0497L4.5358 26.0389C4.5358 26.0389 4.38561 26.1005 4.31989 26.216C4.25478 26.3325 4.13584 26.52 4.13584 26.52C4.13584 26.52 3.99452 26.8937 4.00016 26.9366C4.00581 26.9782 3.99371 27.0003 4.14834 27.0793C4.30377 27.1585 4.51927 27.2097 4.5479 27.2433C4.57531 27.2775 4.86702 27.5428 4.8765 27.5609C4.88819 27.5793 5.3065 27.9107 5.46677 27.8858C5.72098 27.8988 6.24149 27.8901 6.26609 27.8646C6.29431 27.8393 6.2927 27.6507 6.2927 27.6507C6.2927 27.6507 6.27758 27.4338 6.19271 27.3998C6.10643 27.365 5.80061 27.3149 5.76089 27.256C5.72017 27.1959 5.54922 26.4646 5.54579 26.4168C5.54337 26.3709 5.6351 26.0461 5.71372 25.9168C5.79012 25.7868 5.95704 25.4361 5.95704 25.4361C5.95704 25.4361 6.07437 25.3796 6.0899 25.3609C6.10401 25.3413 6.26972 25.0873 6.29048 25.014C6.31205 24.9394 6.38926 24.6138 6.38926 24.6138C6.38926 24.6138 6.69468 24.165 6.72895 24.1049C6.76262 24.0435 7.23979 23.1866 7.29342 23.0587C7.34724 22.9296 7.30491 22.7902 7.30491 22.7902C7.44239 22.7418 7.47525 22.4916 7.41276 22.4744C7.39663 22.4408 7.58855 22.044 7.61133 21.9737C7.63189 21.9032 7.81575 21.4288 7.81575 21.4288C7.81575 21.4288 8.01613 21.2345 8.07762 21.1053C8.13749 20.9772 8.23829 21.0314 8.23829 21.0314C8.23829 21.0314 8.3405 21.2292 8.45138 21.27C8.56185 21.311 8.71022 21.5172 8.71022 21.5172L9.38355 22.5674C9.38355 22.5674 9.57567 22.8499 9.64199 22.8435C9.7061 22.8374 9.8452 22.9986 9.8452 22.9986L10.0059 23.1762L10.0557 23.5989C10.0557 23.5989 9.95063 23.6739 9.93995 23.8102C9.93027 23.9468 10.0956 24.9908 10.1885 25.1767C10.2835 25.3621 10.2609 25.5055 10.2885 25.5616C10.3159 25.6166 10.3841 25.6107 10.3881 25.6102L10.5387 26.6668C10.5387 26.6668 10.4397 26.801 10.4391 26.9359C10.4397 27.0712 10.3913 27.2817 10.3913 27.2817C10.3913 27.2817 10.3669 27.6664 10.3927 27.7002C10.4177 27.7329 10.5401 27.7864 10.7111 27.7703C10.8828 27.7539 11.0927 27.6809 11.1338 27.6945C11.1739 27.7087 11.5529 27.7786 11.57 27.789C11.589 27.7988 12.1837 27.796 12.3436 27.7688C12.5026 27.7416 12.8433 27.6851 12.8677 27.6594C12.8957 27.6337 12.88 27.3998 12.88 27.3998C12.88 27.3998 12.8578 27.2781 12.7728 27.2458C12.6861 27.2125 12.5556 27.1245 12.4595 27.1161C12.3639 27.1076 12.2442 27.0774 12.1815 27.0483C12.1174 27.0188 11.6158 26.4833 11.5896 26.4444C11.565 26.4062 11.4866 26.078 11.491 25.924C11.4934 25.7708 11.4666 25.3796 11.4666 25.3796C11.4666 25.3796 11.54 25.2674 11.5442 25.243C11.5469 25.2185 11.5656 24.9108 11.5481 24.8366C11.5301 24.761 11.4388 24.4394 11.4388 24.4394C11.4388 24.4394 11.4834 23.8886 11.4836 23.8183C11.4828 23.7471 11.4767 22.753 11.4608 22.6143C11.4442 22.4741 11.3402 22.3777 11.3402 22.3777C11.3402 22.3777 11.3086 22.0695 11.2795 22.0482C11.2493 22.0281 11.1864 22.0684 11.1634 22.0538C11.1388 22.0385 11.1642 21.3233 10.837 20.6081C10.5097 19.8933 10.023 19.3948 10.023 19.3948L9.9208 18.9028L10.0206 18.6978C10.0206 18.6978 10.2651 18.8157 10.3421 18.8091C10.4201 18.8032 10.6524 18.3112 10.6369 18.2292C10.6187 18.1468 10.7461 16.8987 10.7004 16.8041C10.657 16.7109 10.657 16.6111 10.5683 16.5401C10.4796 16.4704 10.3189 16.412 10.3189 16.412C10.3189 16.412 10.3998 16.2049 10.4155 16.1631C10.4294 16.1212 10.4119 15.9999 10.4119 15.9999C10.4119 15.9999 10.781 16.2225 10.9695 16.3266C11.1588 16.4303 11.9386 16.8275 12.0615 16.8396C12.1823 16.8528 12.253 16.8396 12.253 16.8396C12.253 16.8396 12.3051 16.9144 12.3661 16.9169C12.6087 16.9256 12.8004 16.7047 12.8103 16.6905C12.8221 16.6756 13.0181 16.5938 13.0181 16.5938C13.0181 16.5938 13.2757 16.2963 13.6352 16.0184C14.1412 15.6278 14.6559 14.9334 14.8623 14.7858C14.8949 14.7758 14.9595 14.769 14.9595 14.769C14.9595 14.769 15.3574 14.852 15.4314 14.7067C15.5288 14.5158 15.5915 14.314 15.6084 14.1783C15.6106 14.1611 15.6642 14.0784 15.6642 14.0784C15.7128 14.0978 16.0202 14.0973 15.9475 13.8284C15.9618 13.8212 16.0124 13.8106 16.0124 13.8106L16.6613 13.8065C16.6613 13.8065 16.6861 13.7982 16.6879 13.7842C16.6966 13.7192 16.6932 13.5412 16.6881 13.4682C16.6875 13.4592 16.6656 13.4509 16.6613 13.4509C16.292 13.4507 15.2143 13.4422 15.0405 13.4478C14.8949 13.4522 14.9046 13.7443 14.9046 13.7443L14.8899 13.822C14.8899 13.822 14.7875 13.8734 14.7423 13.9387C14.6833 14.0398 14.6178 14.1577 14.4694 14.2494C14.2849 14.3342 13.0177 15.0311 12.8723 15.1101C12.6998 15.204 12.4248 15.2892 12.4248 15.2892L12.0617 14.9313L11.2509 14.4206Z" fill="white"/>
<path d="M23.3081 19.1512L19.5821 21.3023L19.5821 17L23.3081 19.1512Z" fill="white"/>
<rect x="15.2227" y="18.3652" width="4.57831" height="1.5261" fill="white"/>
<path d="M30.7183 14.4209L30.5668 14.05L30.5163 13.8197L30.1755 13.4489C30.1755 13.4489 29.9715 13.1141 29.7857 13.1296L29.7874 13.1219C29.7874 13.1219 29.8253 13.1039 29.8391 13.0903C29.8511 13.0778 29.8576 13.0527 29.8576 13.0527C29.8598 13.0194 29.8318 12.9289 29.8318 12.9289L29.8004 12.8088L29.8107 12.6453C29.8107 12.6453 29.9794 12.6039 30.0026 12.5886C30.0274 12.5729 30.0188 12.5565 30.0188 12.5565C30.0188 12.5565 30.0808 12.5669 30.1745 12.4938C30.2666 12.4208 30.2601 12.0586 30.2445 11.9008C30.2304 11.7432 30.1017 11.4245 30.1017 11.4245C30.1017 11.4245 30.1383 11.3459 30.121 11.302C30.1017 11.2576 30.0651 11.2382 30.0445 11.2268C30.0268 11.2136 29.8839 11.1405 29.8612 11.1346C29.8402 11.1286 29.8118 11.1227 29.8118 11.1227C29.8118 11.1227 29.5129 10.8984 29.3734 10.8542C29.2331 10.8104 29.2131 10.7869 28.9308 10.7835C28.648 10.7792 28.1953 10.9268 27.9246 11.3442C27.6543 11.7627 27.6543 12.2973 27.6802 12.4021C27.706 12.5057 27.7916 12.7778 27.7916 12.7778L27.6703 12.9034C27.6703 12.9034 27.2058 12.9671 27.158 12.9376C27.1103 12.9093 27.0802 13.0123 26.7665 13.2063C26.452 13.3983 26.3498 13.6795 25.9682 14.1832C25.8357 14.8298 25.9122 15.1854 25.9209 15.2814C25.9312 15.3778 25.9591 15.4271 25.9591 15.4271L25.9406 15.5613C25.9406 15.5613 25.7595 15.6191 25.6831 15.6285C25.6066 15.6389 25.5546 15.6465 25.4785 15.6743C25.4019 15.7039 25.421 15.7391 25.4027 15.7767C25.3834 15.8165 25.2813 16.384 25.2513 16.48C25.2243 16.5761 25.1911 17.1642 25.2008 17.2985C25.2107 17.4327 25.27 17.4393 25.3651 17.4776C25.461 17.5164 25.5165 17.503 25.5165 17.503C25.5165 17.503 25.6051 17.5825 25.5302 17.612C25.4536 17.6415 25.3211 17.738 25.2921 17.7853C25.2645 17.8327 25.2921 18.4215 25.2921 18.4215C25.2921 18.4215 25.3583 18.7291 25.3583 18.768C25.3583 18.8069 25.3583 18.8069 25.3583 18.8069L25.4036 19.4611L25.4097 19.5365C25.4097 19.5365 25.4831 19.709 25.4528 19.7143C25.4248 19.7207 25.3659 19.6559 25.3392 19.6888C25.3116 19.7215 25.2279 19.8796 25.2382 19.9063C25.2494 19.932 25.2336 20.0529 25.2336 20.0529C25.2336 20.0529 25.233 20.2672 25.2382 20.2902C25.2456 20.3131 25.1595 20.3573 25.1919 20.3962C25.2248 20.4359 25.1261 20.5145 25.1757 20.6007C25.2248 20.687 25.2906 20.7326 25.2906 20.7326L25.0861 22.3636L24.973 22.7323L24.8316 23.1427C24.8316 23.1427 24.6995 23.1504 24.621 23.2617C24.5432 23.3738 24.1628 24.3592 24.1519 24.5695C24.1431 24.7802 24.0505 24.8913 24.0467 24.9542C24.0433 25.0162 24.1073 25.0481 24.1111 25.05L23.711 26.0392C23.711 26.0392 23.5542 26.1008 23.4857 26.2164C23.4177 26.3328 23.2936 26.5204 23.2936 26.5204C23.2936 26.5204 23.1461 26.894 23.152 26.9369C23.1579 26.9785 23.1453 27.0006 23.3066 27.0796C23.4688 27.1589 23.6937 27.2101 23.7236 27.2436C23.7522 27.2778 24.0566 27.5431 24.0665 27.5612C24.0787 27.5797 24.5152 27.911 24.6824 27.8862C24.9477 27.8991 25.4909 27.8904 25.5165 27.865C25.546 27.8397 25.5443 27.651 25.5443 27.651C25.5443 27.651 25.5285 27.4342 25.44 27.4002C25.3499 27.3653 25.0308 27.3152 24.9894 27.2564C24.9469 27.1963 24.7685 26.4649 24.7649 26.4171C24.7624 26.3712 24.8581 26.0465 24.9401 25.9171C25.0199 25.7871 25.194 25.4364 25.194 25.4364C25.194 25.4364 25.3165 25.3799 25.3327 25.3612C25.3474 25.3417 25.5203 25.0876 25.542 25.0143C25.5645 24.9398 25.6451 24.6141 25.6451 24.6141C25.6451 24.6141 25.9638 24.1653 25.9995 24.1052C26.0347 24.0438 26.5326 23.1869 26.5886 23.059C26.6447 22.9299 26.6006 22.7905 26.6006 22.7905C26.744 22.7421 26.7783 22.4919 26.7131 22.4747C26.6963 22.4411 26.8965 22.0443 26.9203 21.974C26.9418 21.9035 27.1336 21.4291 27.1336 21.4291C27.1336 21.4291 27.3427 21.2348 27.4069 21.1056C27.4694 20.9775 27.5745 21.0317 27.5745 21.0317C27.5745 21.0317 27.6812 21.2295 27.7969 21.2703C27.9122 21.3113 28.067 21.5175 28.067 21.5175L28.7696 22.5677C28.7696 22.5677 28.9701 22.8502 29.0393 22.8438C29.1062 22.8377 29.2514 22.9989 29.2514 22.9989L29.419 23.1765L29.471 23.5992C29.471 23.5992 29.3614 23.6742 29.3502 23.8106C29.3401 23.9471 29.5126 24.9912 29.6096 25.177C29.7087 25.3625 29.6851 25.5058 29.714 25.5619C29.7426 25.6169 29.8137 25.611 29.8179 25.6106L29.975 26.6671C29.975 26.6671 29.8717 26.8014 29.8711 26.9363C29.8717 27.0716 29.8213 27.2821 29.8213 27.2821C29.8213 27.2821 29.7958 27.6668 29.8227 27.7005C29.8488 27.7333 29.9765 27.7868 30.1549 27.7706C30.3341 27.7543 30.5531 27.6812 30.596 27.6948C30.6379 27.709 31.0334 27.7789 31.0513 27.7893C31.071 27.7991 31.6916 27.7963 31.8584 27.7691C32.0244 27.742 32.3799 27.6855 32.4054 27.6598C32.4346 27.6341 32.4182 27.4002 32.4182 27.4002C32.4182 27.4002 32.3951 27.2785 32.3063 27.2462C32.2158 27.2128 32.0797 27.1249 31.9794 27.1164C31.8797 27.1079 31.7547 27.0777 31.6893 27.0486C31.6224 27.0191 31.099 26.4836 31.0717 26.4447C31.046 26.4065 30.9642 26.0783 30.9688 25.9243C30.9713 25.7712 30.9433 25.3799 30.9433 25.3799C30.9433 25.3799 31.0199 25.2677 31.0243 25.2433C31.0271 25.2189 31.0466 24.9111 31.0283 24.8369C31.0096 24.7613 30.9143 24.4397 30.9143 24.4397C30.9143 24.4397 30.9608 23.8889 30.961 23.8186C30.9602 23.7475 30.9539 22.7534 30.9372 22.6146C30.92 22.4744 30.8114 22.378 30.8114 22.378C30.8114 22.378 30.7784 22.0698 30.7481 22.0486C30.7166 22.0284 30.6509 22.0687 30.627 22.0541C30.6013 22.0388 30.6278 21.3236 30.2864 20.6084C29.9447 19.8936 29.4369 19.395 29.4369 19.395L29.3303 18.9031L29.4344 18.6981C29.4344 18.6981 29.6896 18.816 29.7699 18.8094C29.8513 18.8035 30.0937 18.3115 30.0775 18.2295C30.0585 18.1471 30.1915 16.8989 30.1437 16.8044C30.0985 16.7112 30.0985 16.6113 30.006 16.5404C29.9134 16.4707 29.7457 16.4123 29.7457 16.4123C29.7457 16.4123 29.8301 16.2052 29.8465 16.1633C29.861 16.1215 29.8427 16.0002 29.8427 16.0002C29.8427 16.0002 30.2279 16.2228 30.4246 16.3269C30.6221 16.4306 31.4358 16.8278 31.5641 16.8399C31.6901 16.853 31.764 16.8399 31.764 16.8399C31.764 16.8399 31.8183 16.9147 31.882 16.9172C32.1351 16.9259 32.3351 16.705 32.3454 16.6908C32.3578 16.6759 32.5623 16.5941 32.5623 16.5941C32.5623 16.5941 32.8312 16.2965 33.2063 16.0187C33.7343 15.628 34.2713 14.9337 34.4867 14.786C34.5208 14.776 34.5881 14.7692 34.5881 14.7692C34.5881 14.7692 35.0034 14.8523 35.0806 14.707C35.1822 14.516 35.2476 14.3142 35.2653 14.1785C35.2676 14.1613 35.3236 14.0787 35.3236 14.0787C35.3743 14.098 35.6951 14.0976 35.6191 13.8287C35.6341 13.8214 35.6869 13.8108 35.6869 13.8108L36.3641 13.8068C36.3641 13.8068 36.3899 13.7985 36.3918 13.7845C36.4009 13.7195 36.3973 13.5415 36.392 13.4684C36.3914 13.4595 36.3685 13.4512 36.3641 13.4512C35.9787 13.451 34.854 13.4425 34.6727 13.448C34.5208 13.4525 34.5309 13.7445 34.5309 13.7445L34.5156 13.8223C34.5156 13.8223 34.4087 13.8737 34.3616 13.9389C34.2999 14.04 34.2316 14.1579 34.0767 14.2497C33.8843 14.3344 32.5619 15.0314 32.4102 15.1104C32.2302 15.2043 31.9432 15.2894 31.9432 15.2894L31.5643 14.9315L30.7183 14.4209Z" fill="white" fill-opacity="0.5"/>
</svg>
