<svg width="40" height="40" viewBox="0 0 40 40" fill="none" xmlns="http://www.w3.org/2000/svg">
<path d="M24.0854 20.1512L20.3595 22.3023L20.3595 18L24.0854 20.1512Z" fill="white"/>
<rect x="16" y="19.3652" width="4.57831" height="1.5261" fill="white"/>
<path d="M31.7355 15.5212L31.5889 15.1622L31.54 14.9393L31.2101 14.5802C31.2101 14.5802 31.0126 14.2562 30.8328 14.2712L30.8344 14.2638C30.8344 14.2638 30.8711 14.2463 30.8845 14.2331C30.8961 14.221 30.9024 14.1968 30.9024 14.1968C30.9045 14.1645 30.8774 14.0769 30.8774 14.0769L30.847 13.9607L30.857 13.8024C30.857 13.8024 31.0203 13.7623 31.0427 13.7475C31.0668 13.7323 31.0584 13.7164 31.0584 13.7164C31.0584 13.7164 31.1185 13.7265 31.2091 13.6558C31.2983 13.585 31.292 13.2344 31.2769 13.0817C31.2633 12.9291 31.1387 12.6207 31.1387 12.6207C31.1387 12.6207 31.1741 12.5446 31.1574 12.502C31.1387 12.459 31.1032 12.4403 31.0833 12.4292C31.0662 12.4165 30.9279 12.3457 30.9059 12.34C30.8855 12.3342 30.858 12.3285 30.858 12.3285C30.858 12.3285 30.5687 12.1113 30.4337 12.0686C30.2978 12.0262 30.2785 12.0034 30.0052 12.0001C29.7315 11.996 29.2933 12.1389 29.0312 12.5429C28.7695 12.948 28.7695 13.4656 28.7946 13.5669C28.8196 13.6673 28.9025 13.9307 28.9025 13.9307L28.785 14.0522C28.785 14.0522 28.3354 14.1139 28.2892 14.0853C28.2429 14.058 28.2138 14.1577 27.9102 14.3454C27.6058 14.5313 27.5068 14.8035 27.1374 15.2911C27.0091 15.917 27.0832 16.2612 27.0916 16.3541C27.1016 16.4475 27.1286 16.4952 27.1286 16.4952L27.1107 16.6252C27.1107 16.6252 26.9354 16.6811 26.8615 16.6901C26.7873 16.7002 26.737 16.7076 26.6633 16.7345C26.5892 16.7631 26.6077 16.7973 26.59 16.8337C26.5713 16.8721 26.4725 17.4215 26.4434 17.5145C26.4173 17.6074 26.3852 18.1768 26.3945 18.3067C26.4041 18.4367 26.4615 18.4431 26.5536 18.4801C26.6464 18.5177 26.7002 18.5048 26.7002 18.5048C26.7002 18.5048 26.7859 18.5817 26.7134 18.6102C26.6393 18.6388 26.511 18.7322 26.4829 18.778C26.4562 18.8239 26.4829 19.3939 26.4829 19.3939C26.4829 19.3939 26.547 19.6916 26.547 19.7292C26.547 19.7669 26.547 19.7669 26.547 19.7669L26.5908 20.4002L26.5967 20.4732C26.5967 20.4732 26.6678 20.6401 26.6385 20.6453C26.6114 20.6515 26.5544 20.5887 26.5285 20.6206C26.5018 20.6523 26.4208 20.8053 26.4308 20.8312C26.4416 20.856 26.4263 20.973 26.4263 20.973C26.4263 20.973 26.4257 21.1805 26.4308 21.2027C26.4379 21.2249 26.3546 21.2677 26.386 21.3053C26.4177 21.3438 26.3222 21.4199 26.3703 21.5033C26.4177 21.5868 26.4815 21.631 26.4815 21.631L26.2835 23.2098L26.174 23.5668L26.0371 23.964C26.0371 23.964 25.9093 23.9714 25.8333 24.0792C25.758 24.1877 25.3898 25.1416 25.3792 25.3452C25.3706 25.5492 25.281 25.6567 25.2774 25.7176C25.2741 25.7776 25.336 25.8085 25.3397 25.8103L24.9524 26.7679C24.9524 26.7679 24.8007 26.8275 24.7343 26.9394C24.6685 27.0521 24.5483 27.2336 24.5483 27.2336C24.5483 27.2336 24.4056 27.5953 24.4113 27.6369C24.417 27.6772 24.4048 27.6985 24.561 27.775C24.718 27.8517 24.9357 27.9013 24.9646 27.9338C24.9923 27.9669 25.2869 28.2237 25.2965 28.2412C25.3083 28.2591 25.7309 28.5798 25.8928 28.5558C26.1495 28.5683 26.6753 28.5599 26.7002 28.5352C26.7287 28.5108 26.7271 28.3282 26.7271 28.3282C26.7271 28.3282 26.7118 28.1182 26.6261 28.0853C26.5389 28.0516 26.23 28.0031 26.1899 27.9461C26.1487 27.8879 25.976 27.18 25.9726 27.1337C25.9701 27.0893 26.0628 26.7749 26.1422 26.6497C26.2194 26.5238 26.388 26.1843 26.388 26.1843C26.388 26.1843 26.5065 26.1296 26.5222 26.1116C26.5365 26.0926 26.7038 25.8467 26.7248 25.7758C26.7466 25.7036 26.8246 25.3884 26.8246 25.3884C26.8246 25.3884 27.1331 24.9539 27.1677 24.8957C27.2017 24.8363 27.6837 24.0068 27.7379 23.883C27.7923 23.758 27.7495 23.6231 27.7495 23.6231C27.8884 23.5762 27.9216 23.334 27.8585 23.3173C27.8422 23.2849 28.036 22.9008 28.0591 22.8327C28.0798 22.7644 28.2655 22.3053 28.2655 22.3053C28.2655 22.3053 28.468 22.1171 28.5301 21.9921C28.5905 21.8681 28.6924 21.9206 28.6924 21.9206C28.6924 21.9206 28.7956 22.112 28.9076 22.1515C29.0192 22.1912 29.1691 22.3908 29.1691 22.3908L29.8492 23.4074C29.8492 23.4074 30.0433 23.6809 30.1103 23.6747C30.175 23.6688 30.3156 23.8248 30.3156 23.8248L30.4779 23.9967L30.5282 24.4059C30.5282 24.4059 30.4221 24.4785 30.4113 24.6105C30.4015 24.7427 30.5685 25.7534 30.6623 25.9333C30.7583 26.1128 30.7355 26.2516 30.7634 26.3059C30.791 26.3591 30.8599 26.3534 30.864 26.353L31.0161 27.3757C31.0161 27.3757 30.9161 27.5057 30.9155 27.6362C30.9161 27.7672 30.8672 27.971 30.8672 27.971C30.8672 27.971 30.8426 28.3434 30.8686 28.3761C30.8939 28.4077 31.0175 28.4596 31.1902 28.4439C31.3637 28.4281 31.5757 28.3574 31.6172 28.3705C31.6577 28.3843 32.0406 28.452 32.0579 28.462C32.077 28.4715 32.6777 28.4688 32.8392 28.4425C32.9999 28.4162 33.344 28.3615 33.3687 28.3366C33.397 28.3117 33.3811 28.0853 33.3811 28.0853C33.3811 28.0853 33.3587 27.9675 33.2728 27.9362C33.1852 27.904 33.0535 27.8188 32.9563 27.8106C32.8598 27.8024 32.7388 27.7732 32.6755 27.745C32.6108 27.7164 32.1041 27.1981 32.0776 27.1604C32.0528 27.1234 31.9736 26.8057 31.978 26.6567C31.9805 26.5084 31.9534 26.1296 31.9534 26.1296C31.9534 26.1296 32.0275 26.0211 32.0318 25.9974C32.0345 25.9738 32.0534 25.6758 32.0357 25.6041C32.0176 25.5309 31.9253 25.2196 31.9253 25.2196C31.9253 25.2196 31.9703 24.6864 31.9705 24.6183C31.9697 24.5494 31.9636 23.5871 31.9475 23.4529C31.9308 23.3171 31.8257 23.2238 31.8257 23.2238C31.8257 23.2238 31.7938 22.9254 31.7644 22.9049C31.7339 22.8853 31.6704 22.9244 31.6471 22.9102C31.6223 22.8954 31.648 22.2031 31.3175 21.5107C30.9867 20.8188 30.4952 20.3362 30.4952 20.3362L30.3919 19.86L30.4927 19.6616C30.4927 19.6616 30.7397 19.7757 30.8175 19.7693C30.8963 19.7636 31.1309 19.2874 31.1152 19.208C31.0969 19.1282 31.2256 17.92 31.1794 17.8285C31.1356 17.7382 31.1356 17.6415 31.046 17.5729C30.9564 17.5054 30.7941 17.4489 30.7941 17.4489C30.7941 17.4489 30.8758 17.2484 30.8916 17.2079C30.9057 17.1674 30.888 17.05 30.888 17.05C30.888 17.05 31.2608 17.2655 31.4512 17.3662C31.6425 17.4666 32.4301 17.8511 32.5543 17.8628C32.6763 17.8755 32.7478 17.8628 32.7478 17.8628C32.7478 17.8628 32.8003 17.9352 32.862 17.9376C33.107 17.9461 33.3007 17.7322 33.3107 17.7185C33.3227 17.7041 33.5206 17.6249 33.5206 17.6249C33.5206 17.6249 33.7808 17.3368 34.1439 17.0679C34.6551 16.6897 35.1749 16.0175 35.3835 15.8746C35.4165 15.865 35.4816 15.8584 35.4816 15.8584C35.4816 15.8584 35.8836 15.9388 35.9583 15.7981C36.0567 15.6133 36.12 15.4179 36.1371 15.2866C36.1394 15.2699 36.1935 15.1899 36.1935 15.1899C36.2426 15.2086 36.5532 15.2082 36.4797 14.9479C36.4941 14.9409 36.5452 14.9306 36.5452 14.9306L37.2007 14.9267C37.2007 14.9267 37.2258 14.9187 37.2276 14.9051C37.2364 14.8422 37.2329 14.6699 37.2278 14.5992C37.2272 14.5905 37.205 14.5825 37.2007 14.5825C36.8277 14.5823 35.739 14.5741 35.5635 14.5794C35.4165 14.5837 35.4262 14.8665 35.4262 14.8665L35.4114 14.9417C35.4114 14.9417 35.3079 14.9915 35.2623 15.0546C35.2026 15.1525 35.1365 15.2666 34.9866 15.3554C34.8003 15.4375 33.5202 16.1121 33.3734 16.1886C33.1991 16.2795 32.9213 16.362 32.9213 16.362L32.5545 16.0155L31.7355 15.5212Z" fill="white"/>
<path d="M11.3244 15.5212L11.1778 15.1622L11.1289 14.9393L10.799 14.5802C10.799 14.5802 10.6015 14.2562 10.4217 14.2712L10.4233 14.2638C10.4233 14.2638 10.4599 14.2463 10.4734 14.2331C10.485 14.221 10.4913 14.1968 10.4913 14.1968C10.4933 14.1645 10.4663 14.0769 10.4663 14.0769L10.4359 13.9607L10.4459 13.8024C10.4459 13.8024 10.6092 13.7623 10.6316 13.7475C10.6556 13.7323 10.6473 13.7164 10.6473 13.7164C10.6473 13.7164 10.7074 13.7265 10.798 13.6558C10.8872 13.585 10.8809 13.2344 10.8658 13.0817C10.8521 12.9291 10.7275 12.6207 10.7275 12.6207C10.7275 12.6207 10.763 12.5446 10.7463 12.502C10.7275 12.459 10.6921 12.4403 10.6721 12.4292C10.655 12.4165 10.5168 12.3457 10.4948 12.34C10.4744 12.3342 10.4469 12.3285 10.4469 12.3285C10.4469 12.3285 10.1575 12.1113 10.0225 12.0686C9.88671 12.0262 9.86736 12.0034 9.59408 12.0001C9.32039 11.996 8.88216 12.1389 8.62008 12.5429C8.35841 12.948 8.35841 13.4656 8.38346 13.5669C8.4085 13.6673 8.49138 13.9307 8.49138 13.9307L8.37389 14.0522C8.37389 14.0522 7.92425 14.1139 7.87803 14.0853C7.8318 14.058 7.80268 14.1577 7.49906 14.3454C7.19462 14.5313 7.09565 14.8035 6.72626 15.2911C6.59797 15.917 6.67209 16.2612 6.68044 16.3541C6.69042 16.4475 6.7175 16.4952 6.7175 16.4952L6.69958 16.6252C6.69958 16.6252 6.52425 16.6811 6.45033 16.6901C6.3762 16.7002 6.32591 16.7076 6.25219 16.7345C6.17807 16.7631 6.1966 16.7973 6.17888 16.8337C6.16015 16.8721 6.06138 17.4215 6.03226 17.5145C6.0062 17.6074 5.97402 18.1768 5.98339 18.3067C5.99296 18.4367 6.05039 18.4431 6.14243 18.4801C6.23529 18.5177 6.28905 18.5048 6.28905 18.5048C6.28905 18.5048 6.37478 18.5817 6.30228 18.6102C6.22816 18.6388 6.09987 18.7322 6.07177 18.778C6.04509 18.8239 6.07177 19.3939 6.07177 19.3939C6.07177 19.3939 6.13591 19.6916 6.13591 19.7292C6.13591 19.7669 6.13591 19.7669 6.13591 19.7669L6.1797 20.4002L6.1856 20.4732C6.1856 20.4732 6.25667 20.6401 6.22735 20.6453C6.20026 20.6515 6.14324 20.5887 6.11738 20.6206C6.09071 20.6523 6.00966 20.8053 6.01964 20.8312C6.03043 20.856 6.01516 20.973 6.01516 20.973C6.01516 20.973 6.01455 21.1805 6.01964 21.2027C6.02676 21.2249 5.94348 21.2677 5.97484 21.3053C6.0066 21.3438 5.9111 21.4199 5.95916 21.5033C6.0066 21.5868 6.07034 21.631 6.07034 21.631L5.87241 23.2098L5.76285 23.5668L5.62601 23.964C5.62601 23.964 5.49812 23.9714 5.42216 24.0792C5.34682 24.1877 4.97864 25.1416 4.96805 25.3452C4.9595 25.5492 4.8699 25.6567 4.86624 25.7176C4.86298 25.7776 4.92488 25.8085 4.92855 25.8103L4.54123 26.7679C4.54123 26.7679 4.38952 26.8275 4.32313 26.9394C4.25736 27.0521 4.13721 27.2336 4.13721 27.2336C4.13721 27.2336 3.99446 27.5953 4.00017 27.6369C4.00587 27.6772 3.99365 27.6985 4.14984 27.775C4.30684 27.8517 4.52453 27.9013 4.55345 27.9338C4.58114 27.9669 4.87581 28.2237 4.88538 28.2412C4.89719 28.2591 5.31974 28.5798 5.48163 28.5558C5.73841 28.5683 6.2642 28.5599 6.28905 28.5352C6.31756 28.5108 6.31593 28.3282 6.31593 28.3282C6.31593 28.3282 6.30066 28.1182 6.21492 28.0853C6.12777 28.0516 5.81885 28.0031 5.77873 27.9461C5.7376 27.8879 5.56491 27.18 5.56145 27.1337C5.55901 27.0893 5.65166 26.7749 5.73108 26.6497C5.80826 26.5238 5.97687 26.1843 5.97687 26.1843C5.97687 26.1843 6.09539 26.1296 6.11107 26.1116C6.12532 26.0926 6.29271 25.8467 6.31369 25.7758C6.33548 25.7036 6.41347 25.3884 6.41347 25.3884C6.41347 25.3884 6.72198 24.9539 6.7566 24.8957C6.79061 24.8363 7.27262 24.0068 7.32678 23.883C7.38115 23.758 7.33839 23.6231 7.33839 23.6231C7.47727 23.5762 7.51046 23.334 7.44734 23.3173C7.43105 23.2849 7.62491 22.9008 7.64792 22.8327C7.66869 22.7644 7.85441 22.3053 7.85441 22.3053C7.85441 22.3053 8.05682 22.1171 8.11893 21.9921C8.17941 21.8681 8.28123 21.9206 8.28123 21.9206C8.28123 21.9206 8.38447 22.112 8.49648 22.1515C8.60807 22.1912 8.75795 22.3908 8.75795 22.3908L9.43809 23.4074C9.43809 23.4074 9.63216 23.6809 9.69916 23.6747C9.76391 23.6688 9.90442 23.8248 9.90442 23.8248L10.0667 23.9967L10.117 24.4059C10.117 24.4059 10.0109 24.4785 10.0001 24.6105C9.99036 24.7427 10.1573 25.7534 10.2512 25.9333C10.3471 26.1128 10.3243 26.2516 10.3522 26.3059C10.3799 26.3591 10.4487 26.3534 10.4528 26.353L10.6049 27.3757C10.6049 27.3757 10.5049 27.5057 10.5043 27.6362C10.5049 27.7672 10.4561 27.971 10.4561 27.971C10.4561 27.971 10.4314 28.3434 10.4575 28.3761C10.4828 28.4077 10.6064 28.4596 10.779 28.4439C10.9525 28.4281 11.1645 28.3574 11.2061 28.3705C11.2466 28.3843 11.6294 28.452 11.6467 28.462C11.6659 28.4715 12.2666 28.4688 12.4281 28.4425C12.5888 28.4162 12.9329 28.3615 12.9576 28.3366C12.9859 28.3117 12.97 28.0853 12.97 28.0853C12.97 28.0853 12.9476 27.9675 12.8616 27.9362C12.7741 27.904 12.6423 27.8188 12.5452 27.8106C12.4487 27.8024 12.3277 27.7732 12.2644 27.745C12.1996 27.7164 11.693 27.1981 11.6665 27.1604C11.6417 27.1234 11.5624 26.8057 11.5669 26.6567C11.5694 26.5084 11.5423 26.1296 11.5423 26.1296C11.5423 26.1296 11.6164 26.0211 11.6207 25.9974C11.6233 25.9738 11.6423 25.6758 11.6245 25.6041C11.6064 25.5309 11.5142 25.2196 11.5142 25.2196C11.5142 25.2196 11.5592 24.6864 11.5594 24.6183C11.5586 24.5494 11.5525 23.5871 11.5364 23.4529C11.5197 23.3171 11.4146 23.2238 11.4146 23.2238C11.4146 23.2238 11.3826 22.9254 11.3533 22.9049C11.3228 22.8853 11.2592 22.9244 11.236 22.9102C11.2112 22.8954 11.2368 22.2031 10.9063 21.5107C10.5756 20.8188 10.084 20.3362 10.084 20.3362L9.98079 19.86L10.0816 19.6616C10.0816 19.6616 10.3286 19.7757 10.4064 19.7693C10.4852 19.7636 10.7198 19.2874 10.7041 19.208C10.6858 19.1282 10.8145 17.92 10.7683 17.8285C10.7245 17.7382 10.7245 17.6415 10.6349 17.5729C10.5453 17.5054 10.383 17.4489 10.383 17.4489C10.383 17.4489 10.4646 17.2484 10.4805 17.2079C10.4946 17.1674 10.4768 17.05 10.4768 17.05C10.4768 17.05 10.8497 17.2655 11.0401 17.3662C11.2313 17.4666 12.019 17.8511 12.1432 17.8628C12.2652 17.8755 12.3367 17.8628 12.3367 17.8628C12.3367 17.8628 12.3892 17.9352 12.4509 17.9376C12.6959 17.9461 12.8895 17.7322 12.8995 17.7185C12.9115 17.7041 13.1095 17.6249 13.1095 17.6249C13.1095 17.6249 13.3697 17.3368 13.7328 17.0679C14.2439 16.6897 14.7638 16.0175 14.9723 15.8746C15.0053 15.865 15.0705 15.8584 15.0705 15.8584C15.0705 15.8584 15.4725 15.9388 15.5472 15.7981C15.6456 15.6133 15.7089 15.4179 15.726 15.2866C15.7282 15.2699 15.7824 15.1899 15.7824 15.1899C15.8315 15.2086 16.142 15.2082 16.0685 14.9479C16.083 14.9409 16.1341 14.9306 16.1341 14.9306L16.7896 14.9267C16.7896 14.9267 16.8146 14.9187 16.8165 14.9051C16.8252 14.8422 16.8218 14.6699 16.8167 14.5992C16.8161 14.5905 16.7939 14.5825 16.7896 14.5825C16.4165 14.5823 15.3279 14.5741 15.1524 14.5794C15.0053 14.5837 15.0151 14.8665 15.0151 14.8665L15.0002 14.9417C15.0002 14.9417 14.8968 14.9915 14.8512 15.0546C14.7915 15.1525 14.7253 15.2666 14.5755 15.3554C14.3891 15.4375 13.1091 16.1121 12.9622 16.1886C12.7879 16.2795 12.5102 16.362 12.5102 16.362L12.1434 16.0155L11.3244 15.5212Z" fill="white" fill-opacity="0.5"/>
</svg>
