<?xml version="1.0" encoding="utf-8"?>
<!-- Generator: Adobe Illustrator 23.0.3, SVG Export Plug-In . SVG Version: 6.00 Build 0)  -->
<svg version="1.1" baseProfile="tiny" xmlns="http://www.w3.org/2000/svg" xmlns:xlink="http://www.w3.org/1999/xlink" x="0px"
	 y="0px" width="32px" height="32px" viewBox="0 0 32 32" xml:space="preserve">
<g id="Layer_2">
	<g>
		<path fill="none" stroke="#FFFFFF" stroke-width="0.9059" stroke-miterlimit="10" d="M4.859,8.605c0-2.276,1.843-4.12,4.12-4.12
			c2.275,0,4.119,1.844,4.119,4.12c0,2.274-1.844,4.12-4.119,4.12C6.702,12.725,4.859,10.88,4.859,8.605z"/>
		<path fill="none" stroke="#FFFFFF" stroke-width="0.9059" stroke-miterlimit="10" d="M15.826,18.416
			c-0.269-1.899-3.206-3.395-6.799-3.395c-3.593,0-6.53,1.497-6.798,3.395H2.203v6.864c0,0-0.021,0.201,0.15,0.201
			c0.272,0,13.325,0,13.325,0s0.173,0.047,0.173-0.189s0-6.876,0-6.876H15.826z"/>
		
			<path fill="none" stroke="#FFFFFF" stroke-width="0.885" stroke-linecap="round" stroke-linejoin="round" stroke-miterlimit="10" d="
			M17.584,23.912h3.929v-4.579h-0.028c-0.232-1.646-2.414-2.996-5.306-3.379c0,0,1.405,0.504,1.405,2.151
			C17.584,19.873,17.584,23.912,17.584,23.912z"/>
		
			<path fill="none" stroke="#FFFFFF" stroke-width="0.885" stroke-linecap="round" stroke-linejoin="round" stroke-miterlimit="10" d="
			M14.252,6.587c0.212-0.036,0.431-0.054,0.654-0.054c2.177,0,3.94,1.763,3.94,3.939c0,2.177-1.764,3.941-3.94,3.941
			c-1.094,0-2.086-0.447-2.799-1.168c0,0,1.747-1.218,2.259-2.992C14.872,8.502,14.252,6.587,14.252,6.587z"/>
		
			<path fill="none" stroke="#FFFFFF" stroke-width="0.885" stroke-linecap="round" stroke-linejoin="round" stroke-miterlimit="10" d="
			M23.183,23.71h3.33v-3.881h-0.023c-0.196-1.395-2.046-2.54-4.497-2.864c0,0,1.191,0.427,1.191,1.824
			C23.183,20.286,23.183,23.71,23.183,23.71z"/>
		
			<path fill="none" stroke="#FFFFFF" stroke-width="0.885" stroke-linecap="round" stroke-linejoin="round" stroke-miterlimit="10" d="
			M20.358,9.026c0.18-0.03,0.365-0.046,0.555-0.046c1.845,0,3.34,1.494,3.34,3.339c0,1.845-1.495,3.34-3.34,3.34
			c-0.928,0-1.768-0.379-2.373-0.99c0,0,1.48-1.032,1.915-2.536C20.884,10.649,20.358,9.026,20.358,9.026z"/>
		
			<path fill="none" stroke="#FFFFFF" stroke-width="0.885" stroke-linecap="round" stroke-linejoin="round" stroke-miterlimit="10" d="
			M28.128,23.27h1.67v-3.112h-0.019c-0.157-1.118-0.641-2.036-2.606-2.297c0,0,0.955,0.342,0.955,1.462
			C28.128,20.525,28.128,23.27,28.128,23.27z"/>
		
			<path fill="none" stroke="#FFFFFF" stroke-width="0.885" stroke-linecap="round" stroke-linejoin="round" stroke-miterlimit="10" d="
			M25.75,11.455c0.132-0.022,0.268-0.033,0.408-0.033c1.355,0,2.454,1.098,2.454,2.453c0,1.355-1.098,2.454-2.454,2.454
			c-0.681,0-1.299-0.278-1.743-0.727c0,0,1.088-0.758,1.407-1.863C26.136,12.648,25.75,11.455,25.75,11.455z"/>
	</g>
</g>
<g id="topo">
	<g id="Layer_1">
	</g>
</g>
</svg>
