<?xml version="1.0" encoding="utf-8"?>
<!-- Generator: Adobe Illustrator 16.0.3, SVG Export Plug-In . SVG Version: 6.00 Build 0)  -->
<!DOCTYPE svg PUBLIC "-//W3C//DTD SVG 1.1//EN" "http://www.w3.org/Graphics/SVG/1.1/DTD/svg11.dtd">
<svg version="1.1" xmlns="http://www.w3.org/2000/svg" xmlns:xlink="http://www.w3.org/1999/xlink" x="0px" y="0px" width="32px"
	 height="32px" viewBox="0 0 32 32" enable-background="new 0 0 32 32" xml:space="preserve">
<g id="Layer_1">
	<g>
		<path fill="#FFFFFF" d="M22.165,9.515c0-3.828-3.103-6.93-6.93-6.93c-2.98,0-5.513,1.884-6.492,4.524l8.898,8.899
			C20.281,15.028,22.165,12.495,22.165,9.515z"/>
		<path fill="#FFFFFF" d="M27.652,24.815h-0.047c-0.329-2.328-2.882-4.318-6.514-5.358l6.562,6.562V24.815z"/>
		<path fill="#FFFFFF" d="M3.046,24.815H2.998v4.6h17.136L10.047,19.328C6.158,20.325,3.389,22.385,3.046,24.815z"/>
		<path fill="#A54F4F" d="M8.743,7.109"/>
	</g>
	
		<rect x="13.16" y="3.05" transform="matrix(0.7071 -0.7071 0.7071 0.7071 -8.8392 16.0786)" fill="#FFFFFF" width="3.658" height="31.319"/>
</g>
<g id="Layer_2">
</g>
</svg>
