<?xml version="1.0" encoding="utf-8"?>
<!-- Generator: Adobe Illustrator 16.0.3, SVG Export Plug-In . SVG Version: 6.00 Build 0)  -->
<!DOCTYPE svg PUBLIC "-//W3C//DTD SVG 1.1//EN" "http://www.w3.org/Graphics/SVG/1.1/DTD/svg11.dtd">
<svg version="1.1" xmlns="http://www.w3.org/2000/svg" xmlns:xlink="http://www.w3.org/1999/xlink" x="0px" y="0px" width="32px"
	 height="32px" viewBox="0 0 32 32" enable-background="new 0 0 32 32" xml:space="preserve">
<symbol  id="dude-transit" viewBox="0 -25.1 21.25 25.118">
	<path fill-rule="evenodd" clip-rule="evenodd" fill="#FFFFFF" d="M15.5-4.2l0.75-1.05l1-3.1l3.9-2.65v-0.05
		c0.067-0.1,0.1-0.233,0.1-0.4c0-0.2-0.05-0.383-0.15-0.55c-0.167-0.233-0.383-0.35-0.65-0.35l-4.3,1.8l-1.2,1.65l-1.5-3.95
		l2.25-5.05l-3.25-6.9c-0.267-0.2-0.633-0.3-1.1-0.3c-0.3,0-0.55,0.15-0.75,0.45c-0.1,0.133-0.15,0.25-0.15,0.35
		c0,0.067,0.017,0.15,0.05,0.25c0.033,0.1,0.067,0.184,0.1,0.25l2.55,5.6L10.7-14l-3.05-4.9L0.8-18.7
		c-0.367,0.033-0.6,0.184-0.7,0.45c-0.067,0.3-0.1,0.467-0.1,0.5c0,0.5,0.2,0.767,0.6,0.8l5.7,0.15l2.15,5.4l3.1,5.65L9.4-5.6
		c-1.367-2-2.1-3.033-2.2-3.1C7.1-8.8,6.95-8.85,6.75-8.85C6.35-8.85,6.1-8.667,6-8.3C5.9-8,5.9-7.8,6-7.7H5.95l2.5,4.4l3.7,0.3
		L14-3.5L15.5-4.2z M14.55-2.9c-0.333,0.4-0.45,0.85-0.35,1.35c0.033,0.5,0.25,0.9,0.65,1.2S15.7,0.066,16.2,0
		c0.5-0.067,0.9-0.3,1.2-0.7c0.333-0.4,0.467-0.85,0.4-1.35c-0.066-0.5-0.3-0.9-0.7-1.2c-0.4-0.333-0.85-0.45-1.35-0.35
		C15.25-3.533,14.85-3.3,14.55-2.9z"/>
</symbol>
<g id="Layer_1">
	<g>
		<rect x="4.268" y="16.338" fill="#F9F9FA" width="10.293" height="15.323"/>
		<rect x="18.566" y="16.338" fill="#F9F9FA" width="10.293" height="15.323"/>
		<path fill="#F9F9FA" d="M19.438,8.674c1.361-0.172,2.693-0.521,3.998-1.34c1.877-1.178,1.406-3.655,0.429-5.364
			c-1.119-1.956-3.411-0.486-4.622,0.483c-1.045,0.838-2.115,1.902-2.701,3.177c-0.295-1.92-0.713-4.014-2.342-4.78
			c-1.876-0.883-4.727-0.58-6.462,0.57C5.55,2.869,6.405,5.19,8.146,6.577c1.296,1.032,2.953,1.698,4.655,2.098H2.506v5.919h12.055
			V9.13h4.006v5.463H30.62V8.674H19.438z M14.695,6.981c-1.514-0.261-2.975-0.777-4.413-1.413C9.631,5.281,9.034,4.876,8.541,4.331
			C7.658,3.354,9.222,2.824,9.872,2.644c1.229-0.341,3.164-0.648,4.048,0.556c0.689,0.94,0.792,2.466,0.971,3.772
			C14.823,6.975,14.749,6.978,14.695,6.981z M20.095,4.275c0.938-0.835,2.096-1.884,2.677-0.2c0.719,2.086-2.168,2.643-4.74,2.806
			C18.334,5.818,19.366,4.923,20.095,4.275z"/>
	</g>
</g>
<g id="Layer_2">
</g>
</svg>
