<?xml version="1.0" encoding="utf-8"?>
<!-- Generator: Adobe Illustrator 16.0.3, SVG Export Plug-In . SVG Version: 6.00 Build 0)  -->
<!DOCTYPE svg PUBLIC "-//W3C//DTD SVG 1.1//EN" "http://www.w3.org/Graphics/SVG/1.1/DTD/svg11.dtd">
<svg version="1.1" xmlns="http://www.w3.org/2000/svg" xmlns:xlink="http://www.w3.org/1999/xlink" x="0px" y="0px" width="32px"
	 height="32px" viewBox="0 0 32 32" enable-background="new 0 0 32 32" xml:space="preserve">
<symbol  id="dude-transit" viewBox="0 -25.1 21.25 25.118">
	<path fill-rule="evenodd" clip-rule="evenodd" fill="#FFFFFF" d="M15.5-4.2l0.75-1.05l1-3.1l3.9-2.65v-0.05
		c0.067-0.1,0.1-0.233,0.1-0.4c0-0.2-0.05-0.383-0.15-0.55c-0.167-0.233-0.383-0.35-0.65-0.35l-4.3,1.8l-1.2,1.65l-1.5-3.95
		l2.25-5.05l-3.25-6.9c-0.267-0.2-0.633-0.3-1.1-0.3c-0.3,0-0.55,0.15-0.75,0.45c-0.1,0.133-0.15,0.25-0.15,0.35
		c0,0.067,0.017,0.15,0.05,0.25c0.033,0.1,0.067,0.184,0.1,0.25l2.55,5.6L10.7-14l-3.05-4.9L0.8-18.7
		c-0.367,0.033-0.6,0.184-0.7,0.45c-0.067,0.3-0.1,0.467-0.1,0.5c0,0.5,0.2,0.767,0.6,0.8l5.7,0.15l2.15,5.4l3.1,5.65L9.4-5.6
		c-1.367-2-2.1-3.033-2.2-3.1C7.1-8.8,6.95-8.85,6.75-8.85C6.35-8.85,6.1-8.667,6-8.3C5.9-8,5.9-7.8,6-7.7H5.95l2.5,4.4l3.7,0.3
		L14-3.5L15.5-4.2z M14.55-2.9c-0.333,0.4-0.45,0.85-0.35,1.35c0.033,0.5,0.25,0.9,0.65,1.2S15.7,0.066,16.2,0
		c0.5-0.067,0.9-0.3,1.2-0.7c0.333-0.4,0.467-0.85,0.4-1.35c-0.066-0.5-0.3-0.9-0.7-1.2c-0.4-0.333-0.85-0.45-1.35-0.35
		C15.25-3.533,14.85-3.3,14.55-2.9z"/>
</symbol>
<g id="Layer_1">
</g>
<g id="Layer_2">
	<g>
		<g>
			<path fill="#FFFFFF" d="M8.03,19.887c-0.089,0-0.181-0.003-0.264-0.014c-0.089-0.045-0.396-0.481-0.396-1.447
				c0-1.036,0.106-1.302,0.34-1.885l0.092-0.229c0.113-0.291,0.248-0.551,0.378-0.803c0.21-0.409,0.428-0.832,0.542-1.332
				c0.162-0.712,0.945-2.953,1.829-4.019c1.27-1.536,3.125-2.282,5.672-2.282c3.312,0,4.307,1.05,5.458,2.265l0.071,0.074
				c0.511,0.54,1.238,1.714,1.799,4.238c0.146,0.652,0.361,1.057,0.569,1.447c0.114,0.215,0.236,0.441,0.356,0.731
				c0.233,0.567,0.27,0.978,0.3,1.845c0.021,0.59-0.067,1.041-0.148,1.247c-0.045,0.114-0.077,0.152-0.084,0.159
				c0,0-0.039,0.004-0.101,0.004c-0.099,0-0.221-0.009-0.356-0.018c-0.105-0.007-0.218-0.015-0.336-0.021
				c-0.003-0.027-0.006-0.052-0.007-0.065c-0.031-0.385-0.031-0.546-0.031-1.059c0-0.077-0.024-0.769-0.883-1.265l-0.101-0.06
				c-0.688-0.409-1.468-0.872-6.507-0.872c-5.485,0-6.358,0.674-6.828,1.036C8.93,17.923,8.4,18.331,8.4,18.892v0.979
				C8.31,19.878,8.174,19.887,8.03,19.887z"/>
			<path fill="#FFFFFF" d="M16.224,8.376c3.097,0,3.936,0.885,5.096,2.108l0.07,0.074c0.383,0.404,1.11,1.463,1.679,4.024
				c0.156,0.698,0.388,1.133,0.611,1.553c0.117,0.219,0.228,0.426,0.335,0.684c0.204,0.497,0.234,0.854,0.264,1.674
				c0.012,0.367-0.021,0.656-0.06,0.844c-0.005-0.155-0.005-0.326-0.005-0.612c0-0.174-0.055-1.074-1.133-1.698l-0.095-0.056
				c-0.898-0.534-1.967-0.942-6.763-0.942c-5.219,0-6.419,0.589-7.133,1.14c-0.528,0.407-1.187,0.913-1.19,1.717
				c-0.018-0.131-0.029-0.283-0.029-0.459c0-0.939,0.083-1.146,0.305-1.699l0.092-0.233c0.103-0.259,0.227-0.5,0.357-0.755
				c0.225-0.438,0.457-0.889,0.585-1.45c0.15-0.657,0.908-2.824,1.728-3.813C12.106,9.063,13.835,8.376,16.224,8.376 M16.224,7.376
				c-3.462,0-5.157,1.375-6.057,2.463c-0.967,1.165-1.765,3.494-1.932,4.227s-0.599,1.298-0.898,2.063s-0.466,1.032-0.466,2.297
				s0.466,1.896,0.832,1.943c0.104,0.014,0.217,0.018,0.327,0.018c0.281,0,0.539-0.03,0.539-0.03s0.034,0.014,0.08,0.014
				c0.099,0,0.251-0.062,0.251-0.446c0-0.566,0-0.732,0-1.032s0.368-0.599,0.801-0.932c0.432-0.333,1.33-0.932,6.522-0.932
				s5.725,0.499,6.357,0.864c0.633,0.366,0.633,0.832,0.633,0.832c0,0.533,0,0.7,0.033,1.1c0.017,0.202,0.051,0.51,0.34,0.519
				c0.34,0.01,0.646,0.044,0.857,0.044c0.292,0,0.487-0.066,0.65-0.48c0.113-0.289,0.204-0.814,0.183-1.447
				c-0.03-0.858-0.066-1.359-0.338-2.02c-0.344-0.826-0.694-1.176-0.895-2.074c-0.132-0.593-0.699-3.195-1.93-4.494
				C20.885,8.575,19.819,7.376,16.224,7.376L16.224,7.376z"/>
		</g>
	</g>
</g>
</svg>
