<svg width="40" height="40" viewBox="0 0 40 40" fill="none" xmlns="http://www.w3.org/2000/svg">
<path d="M4.2594 17.2346H12.2347L11.605 30.2468H4.88903L4.2594 17.2346Z" fill="white"/>
<path d="M3 13.037H5.09876V14.2963H7.19751V13.037H9.29627V14.2963H11.395V13.037H13.4938V15.1358L12.6543 15.9753H3.8395L3 15.1358V13.037Z" fill="white"/>
<path d="M27.7653 17.2346H35.7405L35.1109 30.2468H28.3949L27.7653 17.2346Z" fill="white"/>
<path d="M26.5061 13.037H28.6049V14.2963H30.7036V13.037H32.8024V14.2963H34.9011V13.037H36.9999V15.1358L36.1604 15.9753H27.3456L26.5061 15.1358V13.037Z" fill="white"/>
<path d="M13.0742 21.8518H26.926L27.3457 30.2468H12.6544L13.0742 21.8518Z" fill="white"/>
<path d="M13.2839 17.6543H14.753V18.9136H16.8517V17.6543H18.9505V18.9136H21.0493V17.6543H23.148V18.9136H25.2468V17.6543H26.7159L26.9258 20.5926H13.074L13.2839 17.6543Z" fill="white"/>
<rect x="19.3702" y="8.00002" width="1.25925" height="7.97528" fill="white"/>
<path d="M24.4075 9.88889L21.2593 11.1612L21.2593 8.61659L24.4075 9.88889Z" fill="white"/>
</svg>
