<?xml version="1.0" encoding="utf-8"?>
<!-- Generator: Adobe Illustrator 16.0.0, SVG Export Plug-In . SVG Version: 6.00 Build 0)  -->
<!DOCTYPE svg PUBLIC "-//W3C//DTD SVG 1.1//EN" "http://www.w3.org/Graphics/SVG/1.1/DTD/svg11.dtd">
<svg version="1.1" xmlns="http://www.w3.org/2000/svg" xmlns:xlink="http://www.w3.org/1999/xlink" x="0px" y="0px" width="24px"
	 height="32px" viewBox="0 0 24 32" enable-background="new 0 0 24 32" xml:space="preserve">
<symbol  id="dude-transit" viewBox="0 -25.1 21.25 25.118">
	<path fill-rule="evenodd" clip-rule="evenodd" fill="#FFFFFF" d="M15.5-4.2l0.75-1.05l1-3.1l3.9-2.65v-0.05
		c0.067-0.1,0.1-0.233,0.1-0.4c0-0.2-0.05-0.383-0.15-0.55c-0.167-0.233-0.383-0.35-0.65-0.35l-4.3,1.8l-1.2,1.65l-1.5-3.95
		l2.25-5.05l-3.25-6.9c-0.267-0.2-0.633-0.3-1.1-0.3c-0.3,0-0.55,0.15-0.75,0.45c-0.1,0.133-0.15,0.25-0.15,0.35
		c0,0.067,0.017,0.15,0.05,0.25c0.033,0.1,0.067,0.184,0.1,0.25l2.55,5.6L10.7-14l-3.05-4.9L0.8-18.7
		c-0.367,0.033-0.6,0.184-0.7,0.45c-0.067,0.3-0.1,0.467-0.1,0.5c0,0.5,0.2,0.767,0.6,0.8l5.7,0.15l2.15,5.4l3.1,5.65L9.4-5.6
		c-1.367-2-2.1-3.033-2.2-3.1C7.1-8.8,6.95-8.85,6.75-8.85C6.35-8.85,6.1-8.667,6-8.3C5.9-8,5.9-7.8,6-7.7H5.95l2.5,4.4l3.7,0.3
		L14-3.5L15.5-4.2z M14.55-2.9c-0.333,0.4-0.45,0.85-0.35,1.35c0.033,0.5,0.25,0.9,0.65,1.2S15.7,0.066,16.2,0
		c0.5-0.067,0.9-0.3,1.2-0.7c0.333-0.4,0.467-0.85,0.4-1.35c-0.066-0.5-0.3-0.9-0.7-1.2c-0.4-0.333-0.85-0.45-1.35-0.35
		C15.25-3.533,14.85-3.3,14.55-2.9z"/>
</symbol>
<g id="Layer_1">
	<g>
		<circle cx="18.019" cy="5.867" r="2.079"/>
		<path d="M22.709,17.534c-0.772-0.228-4.19-1.772-4.19-1.772s-0.16-0.114-0.388-0.331c-0.224-0.219-1.41-1.281-1.41-1.281
			l-1.424,3.833c0,0-0.098,0.259,0.028,0.485c0.131,0.226,2.195,4.932,2.195,4.932s0.193,0.288,0.159,0.451
			c-0.029,0.158-3.575,7.574-3.575,7.574s-0.265,0.521-0.521,0.556c-0.258,0.033-0.644,0.037-0.994-0.105
			c-0.455-0.186-0.869-0.646-0.774-0.936c0.095-0.286,2.869-6.477,2.869-6.477s0.033-0.064,0-0.257
			c-0.033-0.197-2.722-4.58-2.722-4.58s-3.046,4.9-3.146,5.126c-0.096,0.227-0.548,0.405-0.548,0.405l-7.283-0.276
			c0,0-0.482,0.065-0.675-0.289c-0.194-0.356-0.2-1.346,0.107-1.619c0.246-0.218,0.858-0.187,0.858-0.187l5.769-0.16l2.29-5.672
			l0.386-0.711l3.286-5.915l-2.418-0.112c0,0-2.093,2.936-2.449,3.351c-0.352,0.421-0.966,0.163-1.192-0.029
			c-0.222-0.192-0.61-0.645-0.289-1.097C6.935,12.055,8.787,8.7,9.32,7.737C9.411,7.572,9.881,7.44,9.881,7.44l3.563-0.205
			l0.758,0.063L15.36,7.64l1.386,0.515c0,0,0.709,0.129,0.934,0.58c0.228,0.452,0.807,1.481,0.807,1.481l0.772,2.516l0.131,0.385
			l3.866,2.58c0,0,0.516,0.258,0.581,0.452c0.064,0.191,0.29,0.643,0,0.998C23.546,17.5,23.481,17.759,22.709,17.534z"/>
	</g>
	<g>
		<circle fill="#FFFFFF" cx="17.863" cy="5.433" r="2.079"/>
		<path fill="#FFFFFF" d="M22.554,17.101c-0.772-0.229-4.189-1.773-4.189-1.773s-0.16-0.114-0.389-0.331
			c-0.224-0.219-1.41-1.281-1.41-1.281l-1.424,3.833c0,0-0.098,0.259,0.029,0.485c0.131,0.226,2.194,4.932,2.194,4.932
			s0.193,0.288,0.16,0.451c-0.03,0.158-3.576,7.574-3.576,7.574s-0.265,0.521-0.521,0.556c-0.258,0.033-0.644,0.037-0.994-0.105
			c-0.454-0.186-0.869-0.646-0.774-0.936c0.095-0.286,2.869-6.476,2.869-6.476s0.033-0.065,0-0.258
			c-0.033-0.197-2.722-4.58-2.722-4.58s-3.046,4.9-3.145,5.126c-0.097,0.227-0.548,0.406-0.548,0.406L0.83,24.447
			c0,0-0.481,0.064-0.675-0.29c-0.194-0.356-0.2-1.346,0.107-1.619c0.246-0.218,0.858-0.187,0.858-0.187l5.769-0.16l2.29-5.672
			l0.386-0.711l3.286-5.914l-2.418-0.113c0,0-2.093,2.936-2.449,3.351c-0.352,0.421-0.966,0.163-1.192-0.029
			c-0.222-0.192-0.61-0.645-0.289-1.097c0.276-0.386,2.129-3.74,2.662-4.703c0.091-0.164,0.561-0.297,0.561-0.297l3.563-0.205
			l0.758,0.064l1.159,0.34l1.386,0.515c0,0,0.709,0.129,0.935,0.58c0.227,0.452,0.806,1.481,0.806,1.481l0.772,2.516l0.131,0.386
			l3.866,2.579c0,0,0.517,0.258,0.581,0.452c0.064,0.191,0.29,0.643,0,0.998C23.391,17.065,23.327,17.324,22.554,17.101z"/>
	</g>
</g>
<g id="Layer_2">
</g>
</svg>
