<?xml version="1.0" encoding="utf-8"?>
<!-- Generator: Adobe Illustrator 16.0.0, SVG Export Plug-In . SVG Version: 6.00 Build 0)  -->
<!DOCTYPE svg PUBLIC "-//W3C//DTD SVG 1.1//EN" "http://www.w3.org/Graphics/SVG/1.1/DTD/svg11.dtd">
<svg version="1.1" xmlns="http://www.w3.org/2000/svg" xmlns:xlink="http://www.w3.org/1999/xlink" x="0px" y="0px" width="20px"
	 height="32px" viewBox="0 0 20 32" enable-background="new 0 0 20 32" xml:space="preserve">
<symbol  id="dude-transit" viewBox="0 -25.1 21.25 25.118">
	<path fill-rule="evenodd" clip-rule="evenodd" fill="#FFFFFF" d="M15.5-4.2l0.75-1.05l1-3.1l3.9-2.65v-0.05
		c0.067-0.1,0.1-0.233,0.1-0.4c0-0.2-0.05-0.383-0.15-0.55c-0.167-0.233-0.383-0.35-0.65-0.35l-4.3,1.8l-1.2,1.65l-1.5-3.95
		l2.25-5.05l-3.25-6.9c-0.267-0.2-0.633-0.3-1.1-0.3c-0.3,0-0.55,0.15-0.75,0.45c-0.1,0.133-0.15,0.25-0.15,0.35
		c0,0.067,0.017,0.15,0.05,0.25c0.033,0.1,0.067,0.184,0.1,0.25l2.55,5.6L10.7-14l-3.05-4.9L0.8-18.7
		c-0.367,0.033-0.6,0.184-0.7,0.45c-0.067,0.3-0.1,0.467-0.1,0.5c0,0.5,0.2,0.767,0.6,0.8l5.7,0.15l2.15,5.4l3.1,5.65L9.4-5.6
		c-1.367-2-2.1-3.033-2.2-3.1C7.1-8.8,6.95-8.85,6.75-8.85C6.35-8.85,6.1-8.667,6-8.3C5.9-8,5.9-7.8,6-7.7H5.95l2.5,4.4l3.7,0.3
		L14-3.5L15.5-4.2z M14.55-2.9c-0.333,0.4-0.45,0.85-0.35,1.35c0.033,0.5,0.25,0.9,0.65,1.2S15.7,0.066,16.2,0
		c0.5-0.067,0.9-0.3,1.2-0.7c0.333-0.4,0.467-0.85,0.4-1.35c-0.066-0.5-0.3-0.9-0.7-1.2c-0.4-0.333-0.85-0.45-1.35-0.35
		C15.25-3.533,14.85-3.3,14.55-2.9z"/>
</symbol>
<g id="Layer_1">
</g>
<g id="Layer_2">
	<g>
		
			<path fill="none" stroke="#000000" stroke-width="0.2" stroke-linecap="round" stroke-linejoin="round" stroke-miterlimit="10" d="
			M13.688,15.186c0,0,2.459-1.5,3-1.75s0.541-1,0.541-1.313s-0.604-3-0.791-3.625c-0.063-0.21-0.232-0.526-0.497-0.853"/>
		
			<path fill="none" stroke="#000000" stroke-width="0.2" stroke-linecap="round" stroke-linejoin="round" stroke-miterlimit="10" d="
			M11.205,31.4c0.211,0.142,0.476,0.227,0.749,0.227c0.625,0,1.234-0.441,1.234-1.003s0-20.813,0-20.813h1.104"/>
		
			<path fill="none" stroke="#000000" stroke-width="0.2" stroke-linecap="round" stroke-linejoin="round" stroke-miterlimit="10" d="
			M7.396,31.46c0.355,0.191,0.762,0.167,0.762,0.167s1.281-0.067,1.281-1.004s0-11.5,0-11.5c-0.014-0.541,1.063-0.66,1.063-0.082"/>
		
			<polyline fill="none" stroke="#000000" stroke-width="0.2" stroke-linecap="round" stroke-linejoin="round" stroke-miterlimit="10" points="
			4.938,12.062 4.813,11.874 5.438,9.811 6.626,9.811 		"/>
		
			<path fill="none" stroke="#000000" stroke-width="0.2" stroke-linecap="round" stroke-linejoin="round" stroke-miterlimit="10" d="
			M3.084,13.396c0.132,0.193,0.373,0.248,0.479,0.29c0.313,0.125,2.925,1.367,2.925,1.367l-0.003-2.148"/>
		
			<path fill="none" stroke="#000000" stroke-width="0.2" stroke-linecap="round" stroke-linejoin="round" stroke-miterlimit="10" d="
			M11.987,1.544C12.309,1.964,12.5,2.49,12.5,3.061c0,1.381-1.12,2.5-2.5,2.5c-0.412,0-0.802-0.1-1.145-0.277"/>
	</g>
	<g opacity="0.4">
		<path fill="#FFFFFF" d="M5.309,9.716h1.438c0,0-0.027,19.75,0,20.75c0.031,1.141,1.281,1.067,1.281,1.067s1.281-0.067,1.281-1.004
			s0-11.5,0-11.5c-0.016-0.641,1.313-0.625,1.313,0.063s0,10.875,0,11.438s0.578,1.003,1.203,1.003s1.234-0.441,1.234-1.003
			s0-20.813,0-20.813h1.313l0.563,2.125c0,0,0.188,0-0.313,0.313s-1.063,0.625-1.063,0.625v2.313c0,0,2.459-1.5,3-1.75
			s0.541-1,0.541-1.313s-0.604-3-0.791-3.625s-1.313-2.188-3.125-2.188s-5.063,0-6.563,0S3.746,7.388,3.465,8.294
			c-0.193,0.623-0.594,2.453-0.806,3.523c-0.134,0.674,0.462,1.648,0.774,1.773s2.925,1.367,2.925,1.367L6.355,12.81l-1.511-0.749
			l-0.161-0.283L5.309,9.716z"/>
		<circle fill="#FFFFFF" cx="9.87" cy="2.966" r="2.5"/>
	</g>
</g>
</svg>
