<?xml version="1.0" encoding="utf-8"?>
<!-- Generator: Adobe Illustrator 16.0.0, SVG Export Plug-In . SVG Version: 6.00 Build 0)  -->
<!DOCTYPE svg PUBLIC "-//W3C//DTD SVG 1.1//EN" "http://www.w3.org/Graphics/SVG/1.1/DTD/svg11.dtd">
<svg version="1.1" xmlns="http://www.w3.org/2000/svg" xmlns:xlink="http://www.w3.org/1999/xlink" x="0px" y="0px" width="20px"
	 height="32px" viewBox="0 0 20 32" enable-background="new 0 0 20 32" xml:space="preserve">
<symbol  id="dude-transit" viewBox="0 -25.1 21.25 25.118">
	<path fill-rule="evenodd" clip-rule="evenodd" fill="#FFFFFF" d="M15.5-4.2l0.75-1.05l1-3.1l3.9-2.65v-0.05
		c0.067-0.1,0.1-0.233,0.1-0.4c0-0.2-0.05-0.383-0.15-0.55c-0.167-0.233-0.383-0.35-0.65-0.35l-4.3,1.8l-1.2,1.65l-1.5-3.95
		l2.25-5.05l-3.25-6.9c-0.267-0.2-0.633-0.3-1.1-0.3c-0.3,0-0.55,0.15-0.75,0.45c-0.1,0.133-0.15,0.25-0.15,0.35
		c0,0.067,0.017,0.15,0.05,0.25c0.033,0.1,0.067,0.184,0.1,0.25l2.55,5.6L10.7-14l-3.05-4.9L0.8-18.7
		c-0.367,0.033-0.6,0.184-0.7,0.45c-0.067,0.3-0.1,0.467-0.1,0.5c0,0.5,0.2,0.767,0.6,0.8l5.7,0.15l2.15,5.4l3.1,5.65L9.4-5.6
		c-1.367-2-2.1-3.033-2.2-3.1C7.1-8.8,6.95-8.85,6.75-8.85C6.35-8.85,6.1-8.667,6-8.3C5.9-8,5.9-7.8,6-7.7H5.95l2.5,4.4l3.7,0.3
		L14-3.5L15.5-4.2z M14.55-2.9c-0.333,0.4-0.45,0.85-0.35,1.35c0.033,0.5,0.25,0.9,0.65,1.2S15.7,0.066,16.2,0
		c0.5-0.067,0.9-0.3,1.2-0.7c0.333-0.4,0.467-0.85,0.4-1.35c-0.066-0.5-0.3-0.9-0.7-1.2c-0.4-0.333-0.85-0.45-1.35-0.35
		C15.25-3.533,14.85-3.3,14.55-2.9z"/>
</symbol>
<g id="Layer_1">
</g>
<g id="Layer_2">
	<g>
		<circle cx="12.432" cy="2.892" r="2.517"/>
		<path d="M18.913,8.364c-0.19-0.629-1.322-2.202-3.146-2.202s-5.096,0-6.604,0c-1.511,0-2.518,1.18-2.801,2.092
			c-0.194,0.627-0.368,1.182-0.629,2.249c-0.063,0.253-0.334,0.63-0.704,0.61C4.73,11.098,3.077,11.08,2.18,11.069v-0.587
			c0-0.156-0.131-0.285-0.285-0.293c-0.406-0.021-0.439,0.242-0.439,0.398v0.478c-0.706,0.027-1.038,0.32-1.038,0.979
			c0,0.635,0.436,0.887,1.195,0.887c1.233,0,3.55,0.208,4.246,0.057c0.696-0.151,1.308-0.322,1.572-1.196
			c0.266-0.874,0.661-2.107,0.661-2.107h1.194c0,0-0.027,19.88,0,20.886c0.032,1.148,1.29,1.074,1.29,1.074s1.29-0.067,1.29-1.011
			s0-11.575,0-11.575c-0.016-0.644,1.321-0.628,1.321,0.063c0,0.692,0,10.947,0,11.513c0,0.567,0.582,1.01,1.211,1.01
			s1.242-0.443,1.242-1.01c0-0.566,0-20.949,0-20.949h1.321l0.566,2.14c0,0,0.188,0-0.314,0.314
			c-0.503,0.314-1.069,0.629-1.069,0.629v2.328c0,0,2.475-1.51,3.019-1.762c0.545-0.252,0.545-1.006,0.545-1.321
			S19.101,8.994,18.913,8.364z"/>
	</g>
	<g>
		<circle fill="#FFFFFF" cx="12.159" cy="2.61" r="2.517"/>
		<path fill="#FFFFFF" d="M18.641,8.083c-0.19-0.629-1.322-2.202-3.146-2.202s-5.096,0-6.604,0c-1.511,0-2.518,1.18-2.801,2.092
			C5.895,8.6,5.721,9.155,5.46,10.222c-0.063,0.253-0.334,0.63-0.704,0.61c-0.298-0.016-1.951-0.034-2.849-0.044v-0.587
			c0-0.156-0.131-0.285-0.285-0.293c-0.406-0.021-0.439,0.242-0.439,0.398v0.478c-0.706,0.027-1.038,0.32-1.038,0.979
			c0,0.635,0.436,0.887,1.195,0.887c1.233,0,3.55,0.208,4.246,0.057c0.696-0.151,1.308-0.322,1.572-1.196
			c0.266-0.874,0.661-2.107,0.661-2.107h1.194c0,0-0.027,19.88,0,20.886c0.032,1.148,1.29,1.074,1.29,1.074s1.29-0.067,1.29-1.011
			s0-11.575,0-11.575c-0.016-0.644,1.321-0.628,1.321,0.063c0,0.692,0,10.947,0,11.513c0,0.567,0.582,1.01,1.211,1.01
			s1.242-0.443,1.242-1.01c0-0.566,0-20.949,0-20.949h1.321l0.566,2.14c0,0,0.188,0-0.314,0.314
			c-0.503,0.314-1.069,0.629-1.069,0.629v2.328c0,0,2.475-1.51,3.019-1.762c0.545-0.252,0.545-1.006,0.545-1.321
			S18.828,8.712,18.641,8.083z"/>
	</g>
</g>
</svg>
