<?xml version="1.0" encoding="utf-8"?>
<!-- Generator: Adobe Illustrator 16.0.3, SVG Export Plug-In . SVG Version: 6.00 Build 0)  -->
<!DOCTYPE svg PUBLIC "-//W3C//DTD SVG 1.1//EN" "http://www.w3.org/Graphics/SVG/1.1/DTD/svg11.dtd">
<svg version="1.1" xmlns="http://www.w3.org/2000/svg" xmlns:xlink="http://www.w3.org/1999/xlink" x="0px" y="0px" width="32px"
	 height="32px" viewBox="0 0 32 32" enable-background="new 0 0 32 32" xml:space="preserve">
<symbol  id="dude-transit" viewBox="0 -25.1 21.25 25.118">
	<path fill-rule="evenodd" clip-rule="evenodd" fill="#FFFFFF" d="M15.5-4.2l0.75-1.05l1-3.1l3.9-2.65v-0.05
		c0.067-0.1,0.1-0.233,0.1-0.4c0-0.2-0.05-0.383-0.15-0.55c-0.167-0.233-0.383-0.35-0.65-0.35l-4.3,1.8l-1.2,1.65l-1.5-3.95
		l2.25-5.05l-3.25-6.9c-0.267-0.2-0.633-0.3-1.1-0.3c-0.3,0-0.55,0.15-0.75,0.45c-0.1,0.133-0.15,0.25-0.15,0.35
		c0,0.067,0.017,0.15,0.05,0.25c0.033,0.1,0.067,0.184,0.1,0.25l2.55,5.6L10.7-14l-3.05-4.9L0.8-18.7
		c-0.367,0.033-0.6,0.184-0.7,0.45c-0.067,0.3-0.1,0.467-0.1,0.5c0,0.5,0.2,0.767,0.6,0.8l5.7,0.15l2.15,5.4l3.1,5.65L9.4-5.6
		c-1.367-2-2.1-3.033-2.2-3.1C7.1-8.8,6.95-8.85,6.75-8.85C6.35-8.85,6.1-8.667,6-8.3C5.9-8,5.9-7.8,6-7.7H5.95l2.5,4.4l3.7,0.3
		L14-3.5L15.5-4.2z M14.55-2.9c-0.333,0.4-0.45,0.85-0.35,1.35c0.033,0.5,0.25,0.9,0.65,1.2S15.7,0.066,16.2,0
		c0.5-0.067,0.9-0.3,1.2-0.7c0.333-0.4,0.467-0.85,0.4-1.35c-0.066-0.5-0.3-0.9-0.7-1.2c-0.4-0.333-0.85-0.45-1.35-0.35
		C15.25-3.533,14.85-3.3,14.55-2.9z"/>
</symbol>
<g id="Layer_1">
</g>
<g id="Layer_2">
	<line fill="#E8E7E7" x1="8.015" y1="30.507" x2="8.015" y2="30.178"/>
	<g>
		<g>
			<path fill-rule="evenodd" clip-rule="evenodd" fill="#FFFFFF" d="M17.727,21.026c-0.232-0.216-0.524-0.2-0.81-0.205
				c-0.106-0.214-0.276-0.317-0.519-0.326c-0.386-0.014-0.602-0.244-0.603-0.63c-0.001-2.205,0-4.41,0-6.615
				c0-0.062-0.004-0.145,0.031-0.184c0.253-0.284,0.471-0.605,0.942-0.556c0.374,0.039,0.756,0.009,1.134,0.006
				c0.087,0,0.176-0.014,0.262-0.032c0.099-0.022,0.191-0.072,0.188-0.187c-0.003-0.1-0.089-0.141-0.176-0.174
				c-0.11-0.042-0.232-0.04-0.328-0.137c-0.146-0.147-0.325-0.259-0.483-0.391c-0.164-0.137-0.324-0.281-0.412-0.507
				c-0.15-0.383-0.136-0.771-0.144-1.163c-0.003-0.115,0.001-0.24-0.099-0.311c-0.266-0.188-0.526-0.392-0.892-0.333
				c-0.102,0.017-0.235,0.04-0.305-0.085c-0.074-0.134-0.191-0.152-0.328-0.152c-0.139,0-0.27-0.034-0.376-0.134
				c-0.067-0.062-0.15-0.084-0.239-0.105c-0.247-0.058-0.537,0.008-0.719-0.243c-0.012-0.017-0.044-0.028-0.066-0.027
				c-0.26,0.016-0.48-0.088-0.697-0.215c-0.065-0.038-0.155-0.032-0.233-0.046c-0.255-0.045-0.51-0.002-0.766-0.003
				c-0.2,0-0.302,0.077-0.297,0.286c0.002,0.067,0.024,0.155-0.066,0.187c-0.09,0.032-0.144-0.041-0.211-0.084
				c-0.231-0.146-0.384-0.44-0.721-0.397c-0.021,0.002-0.053-0.009-0.064-0.025c-0.129-0.183-0.345-0.178-0.524-0.256
				C9.969,7.877,9.76,7.703,9.478,7.729C9.467,7.73,9.446,7.713,9.441,7.701C9.379,7.502,9.219,7.496,9.051,7.5
				C8.982,7.502,8.925,7.476,8.892,7.412C8.829,7.285,8.72,7.253,8.59,7.258c-0.1,0.005-0.19-0.017-0.259-0.098
				C8.229,7.043,8.086,7.009,7.944,6.979c-0.07-0.014-0.149-0.008-0.2-0.069c-0.173-0.217-0.417-0.21-0.643-0.168
				C6.875,6.785,6.854,6.687,6.859,6.515C6.865,6.337,6.877,6.154,6.773,6C6.661,5.832,6.617,5.65,6.618,5.453
				c0-0.089-0.004-0.171-0.112-0.216c-0.277-0.117-0.597-0.06-0.713,0.205c-0.108,0.247-0.256,0.474-0.338,0.73
				C5.376,6.413,5.295,6.42,5.068,6.326C4.795,6.213,4.542,6.045,4.254,5.977C4.089,5.938,3.951,5.873,3.8,5.803
				c-0.21-0.098-0.382-0.273-0.606-0.323C2.902,5.415,2.692,5.146,2.371,5.165C2.35,5.167,2.322,5.127,2.303,5.103
				c-0.121-0.15-0.29-0.164-0.46-0.158C1.625,4.952,1.569,5.057,1.653,5.28C1.649,5.308,1.646,5.336,1.642,5.363
				C1.514,5.388,1.569,5.475,1.596,5.53c0.081,0.167,0.229,0.267,0.399,0.322c0.31,0.101,0.622,0.218,0.904,0.36
				c0.268,0.135,0.572,0.193,0.822,0.404c0.184,0.154,0.42,0.332,0.711,0.34c0.084,0.002,0.163,0.088,0.194,0.169
				c0.061,0.152,0.159,0.27,0.26,0.393c0.127,0.154,0.457,0.263,0.568,0.12c0.189-0.243,0.372-0.05,0.419,0.034
				C5.986,7.868,6.189,7.932,6.325,8.08c0.049,0.054,0.109,0.103,0.107,0.183C6.43,8.375,6.505,8.424,6.578,8.491
				c0.261,0.241,0.626,0.246,0.915,0.433c0.277,0.18,0.599,0.286,0.9,0.425c0.258,0.12,0.508,0.268,0.78,0.356
				c0.279,0.09,0.542,0.227,0.796,0.358c0.312,0.161,0.644,0.254,0.965,0.365c0.37,0.126,0.426,0.233,0.212,0.564
				c-0.149,0.231-0.212,0.514-0.329,0.765c-0.108,0.229-0.071,0.528-0.274,0.754c-0.245,0.273-0.392,0.618-0.673,0.875
				c-0.2,0.182-0.365,0.413-0.544,0.624c-0.051,0.059-0.046,0.135,0.014,0.17c0.169,0.097,0.278,0.259,0.427,0.38
				c0.273,0.221,0.585,0.397,0.817,0.668c0.107,0.125,0.485,0.146,0.552,0.021c0.154-0.286,0.43-0.463,0.633-0.7
				c0.281-0.324,0.482-0.689,0.729-1.028c0.199-0.271,0.266-0.272,0.565-0.123c0.246,0.122,0.543,0.134,0.745,0.355
				c0.016,0.019,0.061,0.011,0.093,0.016c0.241,0.036,0.479,0.309,0.447,0.546c-0.027,0.2-0.035,0.394-0.001,0.596
				c0.039,0.236-0.035,0.263-0.268,0.259c-0.224-0.004-0.312-0.213-0.481-0.256c-0.435-0.109-0.875-0.211-1.332-0.168
				c-0.285,0.027-0.46,0.215-0.466,0.511c-0.005,0.232-0.006,0.466-0.003,0.699c0.002,0.126-0.035,0.198-0.177,0.192
				c-0.354-0.014-0.709,0.025-1.059-0.053c-0.4-0.091-0.811-0.107-1.216-0.13c-0.762-0.044-1.526-0.042-2.29-0.062
				c-0.465-0.013-0.937,0.006-1.396-0.06c-0.964-0.138-1.933-0.167-2.903-0.182c-0.185-0.003-0.371-0.004-0.555-0.01
				c-0.651-0.02-1.303-0.132-1.955,0.008c0,0.225,0,0.451,0,0.676c0.21,0.078,0.424,0.118,0.651,0.142
				c0.438,0.048,0.878,0.075,1.317,0.089c1.51,0.048,3.029-0.083,4.527,0.236c0.176,0.038,0.225,0.098,0.223,0.262
				c-0.005,0.579,0,1.157-0.004,1.736c0,0.086-0.007,0.183-0.044,0.258c-0.228,0.453-0.336,0.96-0.642,1.375
				c-0.041,0.055-0.061,0.117,0.024,0.16c-0.001,0.06-0.002,0.118-0.002,0.178c-0.025,0.159,0.18,0.325,0.368,0.299
				c0.086,0.001,0.173,0.003,0.26,0.005c0.132,0.078,0.196-0.017,0.224-0.113c0.033-0.11,0.159-0.245-0.037-0.334
				c-0.029-0.066-0.045-0.136-0.029-0.209c0.032-0.067,0.031-0.133-0.004-0.199c-0.01-0.011-0.01-0.023,0.001-0.035
				c0.127,0.005,0.203-0.1,0.23-0.179c0.066-0.19,0.194-0.206,0.355-0.191c0.063,0.006,0.129,0.007,0.192,0.001
				c0.176-0.018,0.401-0.312,0.325-0.445c-0.077-0.132-0.036-0.265-0.061-0.395c-0.019-0.097,0.102-0.196-0.011-0.285
				c-0.021-0.066-0.042-0.131-0.063-0.197C8.049,18.248,8.05,18,8.095,17.754c0.009-0.019,0.018-0.038,0.026-0.057
				c0.183-0.117,0.388-0.112,0.594-0.107c0.262,0.006,0.524,0.006,0.787,0.006c0.075,0,0.162,0.025,0.219-0.055
				c0.607-0.002,1.214-0.022,1.821,0.014c0.174,0.177,0.361,0.104,0.547,0.028c0.029,0.002,0.058,0.004,0.088,0.005
				c-0.006,0.089,0.058,0.094,0.123,0.115c0.326,0.102,0.664,0.114,0.998,0.13c0.223,0.009,0.461,0.075,0.676-0.058
				c0.141-0.012,0.281-0.009,0.419,0.017c0.024,0.136,0.125,0.086,0.206,0.087c0.096,0.259,0.239,0.495,0.399,0.715
				c0.163,0.222,0.163,0.288-0.057,0.437c-0.098,0.066-0.205,0.124-0.261,0.236c-0.026,0.007-0.053,0.013-0.08,0.02
				c-0.08-0.087-0.213-0.077-0.266-0.032c-0.193,0.163-0.449,0.198-0.641,0.341c-0.223,0.166-0.491,0.236-0.73,0.352
				c-0.22,0.107-0.416,0.224-0.597,0.379c-0.019,0.003-0.038,0.007-0.056,0.01c-0.104-0.074-0.178-0.018-0.25,0.056
				c-0.108,0.109-0.234,0.172-0.392,0.136c-0.05-0.011-0.104-0.022-0.133,0.022c-0.124,0.193-0.347,0.182-0.525,0.261
				c-0.072,0.033-0.167,0.022-0.228,0.065c-0.303,0.214-0.691,0.233-0.999,0.437c-0.206,0.138-0.465,0.168-0.674,0.28
				c-0.315,0.171-0.65,0.295-0.962,0.465c-0.209,0.115-0.451,0.179-0.633,0.311c-0.247,0.18-0.539,0.275-0.769,0.463
				C6.541,23,6.258,23.089,6.148,23.365c-0.005,0.011-0.014,0.013-0.024,0.007c-0.236-0.073-0.321,0.157-0.479,0.241
				c-0.026,0.007-0.052,0.015-0.078,0.022c-0.055-0.083-0.122-0.035-0.164,0.001c-0.145,0.125-0.313,0.172-0.497,0.212
				c-0.188,0.041-0.469,0.594-0.423,0.793c0.001,0.005,0.013,0.008,0.021,0.012c0.003,0.052-0.004,0.101-0.038,0.143
				c-0.313,0.065-0.565,0.273-0.849,0.403c-0.287,0.133-0.557,0.256-0.872,0.272c-0.03-0.029-0.059-0.058-0.088-0.086
				c-0.062-0.132-0.123-0.267-0.309-0.243c-0.141-0.058-0.177-0.287-0.385-0.234c-0.283-0.093-0.399-0.003-0.348,0.285
				c0.021,0.12,0.032,0.245,0.153,0.337c0.142,0.11,0.142,0.489,0.017,0.618c-0.076,0.078-0.169,0.141-0.107,0.262
				c0.061,0.117,0.163,0.165,0.299,0.163c0.182-0.003,0.372-0.038,0.53,0.101c0.067,0.059,0.109-0.017,0.165-0.041
				c0.251-0.107,0.426-0.324,0.68-0.441c0.207-0.095,0.426-0.172,0.626-0.282c0.502-0.278,0.986-0.596,1.58-0.656
				c0.124-0.012,0.255-0.044,0.34-0.16c0.046-0.063,0.123-0.08,0.192-0.091c0.293-0.048,0.516-0.255,0.799-0.342
				c0.227-0.069,0.433-0.193,0.683-0.169c0.107,0.011,0.214-0.003,0.28-0.103c0.069-0.104,0.161-0.141,0.283-0.147
				c0.086-0.004,0.189-0.021,0.241-0.094c0.103-0.141,0.249-0.165,0.399-0.186c0.069-0.009,0.125-0.035,0.169-0.084
				c0.199-0.217,0.55-0.149,0.74-0.392c0.02-0.024,0.093-0.01,0.141-0.01c0.145-0.001,0.29,0,0.434-0.002
				c0.299-0.003,0.577-0.022,0.772-0.319c0.167-0.254,0.494-0.305,0.75-0.432c0.26-0.128,0.498,0.09,0.5,0.396
				c0.002,0.33,0,0.66-0.002,0.99c-0.001,0.063,0.007,0.149-0.028,0.186c-0.316,0.321-0.086,0.851-0.445,1.152
				c-0.014,0.011-0.006,0.046-0.011,0.07c-0.022,0.128-0.06,0.247-0.161,0.341c-0.103,0.095-0.129,0.254-0.033,0.322
				c0.156,0.11,0.284,0.256,0.468,0.336c0.27,0.119,0.545,0.238,0.766,0.444c0.139,0.129,0.295,0.126,0.421-0.008
				c0.131-0.14,0.206-0.303,0.282-0.481c0.1-0.231,0.271-0.43,0.24-0.705c-0.001-0.018,0.021-0.046,0.04-0.057
				c0.19-0.126,0.18-0.321,0.191-0.516c0.013-0.205-0.062-0.423,0.076-0.61c0.131-0.177,0.166-0.377,0.165-0.591
				c-0.001-0.362,0.002-0.725,0.003-1.086c0-0.227-0.055-0.467,0.245-0.579c0.07-0.026,0.108-0.107,0.195-0.036
				c0.054,0.044,0.127,0.047,0.18,0.002c0.121-0.101,0.26-0.118,0.408-0.112c0.088,0.003,0.149-0.041,0.205-0.106
				c0.382-0.454,0.382-0.452,0.883-0.201c0.029,0.015,0.062,0.021,0.092,0.031c0.386,0.128,0.724,0.325,0.971,0.66
				c0.083,0.112,0.197,0.142,0.341,0.125c0.216-0.023,0.387-0.122,0.568-0.231c0.272-0.166,0.403-0.819,0.147-1.019
				C18.265,21.267,18.033,21.069,17.727,21.026z M13.626,13.248c-0.285-0.018-0.442-0.147-0.439-0.357
				c0.006-0.313,0.059-0.38,0.297-0.375c0.267,0.005,0.35,0.11,0.343,0.432C13.816,13.085,13.861,13.261,13.626,13.248z
				 M15.166,21.757c-0.107,0.031-0.212,0.067-0.319,0.098c-0.224,0.063-0.352-0.049-0.312-0.272
				c0.008-0.048,0.016-0.094-0.008-0.139l0.003-0.002c0.156-0.122,0.302-0.267,0.494-0.306c-0.192,0.039-0.338,0.184-0.494,0.306
				c0.287,0.018,0.485-0.165,0.702-0.306c0.025,0,0.051,0,0.076-0.001c0.031,0.073,0.067,0.145,0.089,0.22
				C15.446,21.536,15.346,21.705,15.166,21.757z"/>
			<path fill-rule="evenodd" clip-rule="evenodd" fill="#FFFFFF" d="M31.258,16.018c-0.394-0.012-0.79-0.003-1.183-0.003
				c0-0.009,0-0.019,0-0.029c-0.291,0-0.581,0.008-0.87-0.001c-0.562-0.017-0.582-0.001-0.561,0.568
				c0.009,0.269,0.099,0.359,0.371,0.349c0.756-0.025,1.511-0.055,2.267-0.087c0.096-0.004,0.19-0.03,0.283-0.053
				c0.117-0.027,0.167-0.107,0.184-0.224C31.789,16.257,31.586,16.027,31.258,16.018z"/>
			<path fill-rule="evenodd" clip-rule="evenodd" fill="#FFFFFF" d="M28.976,14.472c0.571-0.345,1.143-0.69,1.7-1.056
				c0.124-0.081,0.244-0.245,0.211-0.4c-0.063-0.307-0.462-0.449-0.733-0.268c-0.405,0.272-0.865,0.438-1.282,0.684
				c-0.131,0.077-0.219,0.154-0.218,0.31c0.001,0.104,0,0.208,0,0.295c-0.006,0.082-0.009,0.147-0.018,0.209
				c-0.016,0.11-0.001,0.211,0.085,0.285C28.825,14.62,28.904,14.515,28.976,14.472z"/>
			<path fill-rule="evenodd" clip-rule="evenodd" fill="#FFFFFF" d="M22.309,21.093c-0.221-0.042-0.447-0.031-0.668,0.001
				c-0.115,0.017-0.23,0.09-0.26,0.195c-0.084,0.303-0.311,0.54-0.375,0.849c-0.011,0.055-0.021,0.109-0.025,0.128
				c0.006,0.311,0.13,0.458,0.393,0.45c0.2-0.007,0.318-0.177,0.413-0.328c0.218-0.349,0.402-0.718,0.627-1.062
				C22.527,21.153,22.43,21.115,22.309,21.093z"/>
			<path fill-rule="evenodd" clip-rule="evenodd" fill="#FFFFFF" d="M28.159,21.631c-0.224-0.547-0.28-0.587-0.744-0.554
				c-0.065,0-0.129,0-0.193,0c-0.11,0.002-0.24-0.033-0.294,0.103c-0.044,0.111,0.04,0.192,0.098,0.28
				c0.209,0.319,0.422,0.638,0.617,0.965c0.163,0.273,0.342,0.339,0.605,0.189c0.196-0.112,0.26-0.401,0.11-0.603
				C28.268,21.892,28.215,21.765,28.159,21.631z"/>
			<path fill-rule="evenodd" clip-rule="evenodd" fill="#FFFFFF" d="M30.228,19.044c-0.153-0.104-0.269-0.287-0.465-0.318
				c-0.129-0.021-0.2-0.1-0.296-0.168c-0.198-0.14-0.381-0.323-0.636-0.368c-0.171-0.03-0.368-0.009-0.39,0.181
				c-0.032,0.272-0.032,0.572,0.079,0.823c0.176,0.398,0.601,0.516,0.956,0.702c0.076,0.039,0.166,0.04,0.212,0.13
				c0.045,0.086,0.127,0.11,0.218,0.13c0.076,0.018,0.173,0.021,0.216,0.094c0.078,0.137,0.196,0.152,0.308,0.14
				c0.171,0,0.171,0,0.499-0.278c0.196-0.167,0.149-0.392-0.007-0.593C30.733,19.282,30.456,19.2,30.228,19.044z"/>
			<path fill-rule="evenodd" clip-rule="evenodd" fill="#FFFFFF" d="M24.952,20.99c-0.183-0.017-0.367-0.021-0.551,0.011
				c-0.236,0.042-0.349,0.159-0.336,0.41c0.025,0.496,0.049,0.994,0.046,1.49c-0.002,0.266,0.144,0.471,0.221,0.704
				c0.026,0.08,0.119,0.1,0.201,0.113c0.407,0.068,0.676-0.153,0.682-0.566c0.005-0.297,0.001-0.595,0.001-0.892
				c0.001,0,0.002,0,0.004,0c0-0.322-0.004-0.644,0.001-0.964C25.225,21.104,25.122,21.007,24.952,20.99z"/>
			<path fill-rule="evenodd" clip-rule="evenodd" fill="#FFFFFF" d="M24.277,11.997c0.254,0.064,0.511,0.045,0.765,0.017
				c0.145-0.017,0.181-0.132,0.179-0.269c-0.005-0.345-0.001-0.691-0.001-1.037c-0.002,0-0.004,0-0.006,0
				c0-0.353,0.004-0.707-0.001-1.061c-0.005-0.254-0.098-0.343-0.352-0.358c-0.072-0.004-0.145-0.003-0.218-0.003
				c-0.299,0-0.497,0.167-0.525,0.461c-0.061,0.656-0.05,1.315-0.052,1.972C24.066,11.873,24.131,11.96,24.277,11.997z"/>
			<path fill-rule="evenodd" clip-rule="evenodd" fill="#FFFFFF" d="M27.061,12.088c0.126-0.075,0.232-0.068,0.354,0.02
				c0.164,0.12,0.57-0.046,0.59-0.253c0.027-0.274,0.238-0.439,0.355-0.657c0.102-0.19,0.192-0.364,0.184-0.634
				c0,0.005,0.005-0.043,0-0.09c-0.019-0.167-0.059-0.325-0.241-0.382c-0.21-0.064-0.465-0.125-0.619,0.031
				c-0.248,0.251-0.371,0.606-0.608,0.877c-0.004,0.005-0.004,0.016-0.003,0.023c0.015,0.262-0.225,0.385-0.342,0.566
				c-0.097,0.151-0.185,0.233-0.074,0.409C26.767,12.178,26.901,12.184,27.061,12.088z"/>
			<path fill-rule="evenodd" clip-rule="evenodd" fill="#FFFFFF" d="M21.189,11.331c0.026,0.011,0.021,0.088,0.029,0.136
				c0.052,0.321,0.321,0.558,0.645,0.564c0.081,0.002,0.162,0,0.242,0c0,0.001,0,0.002,0,0.003c0.097,0,0.194-0.008,0.29,0.001
				c0.224,0.021,0.282-0.095,0.264-0.292c-0.009-0.101-0.045-0.185-0.105-0.264c-0.261-0.34-0.455-0.722-0.69-1.078
				c-0.113-0.173-0.257-0.353-0.547-0.357c-0.288-0.003-0.326,0.213-0.458,0.353c-0.104,0.109-0.112,0.243-0.021,0.349
				C20.989,10.924,20.944,11.212,21.189,11.331z"/>
			<path fill-rule="evenodd" clip-rule="evenodd" fill="#FFFFFF" d="M27.718,19.303c-0.002-1.859-0.003-3.719,0.001-5.579
				c0-0.614-0.17-0.793-0.784-0.793c-1.626,0-3.252,0-4.878,0c0,0.004,0,0.009,0,0.014c-1.336,0-2.673,0-4.009,0
				c-0.371,0-0.742-0.007-1.111,0.002c-0.395,0.009-0.678,0.279-0.678,0.663c-0.003,1.972,0,3.944,0.001,5.917
				c0,0.099,0.035,0.176,0.086,0.265c0.173,0.294,0.442,0.337,0.742,0.338c1.256,0.003,2.512,0.014,3.768,0.016
				c2.005,0.003,4.009,0.001,6.014,0.002C27.579,20.147,27.719,20.004,27.718,19.303z M17.771,18.614
				c0.129,0.277,0.406,0.338,0.694,0.326c0.11-0.004,0.208,0.003,0.263,0.119c0.055,0.115,0.032,0.221-0.03,0.321
				c-0.024,0.039-0.062,0.081-0.104,0.094c-0.64,0.202-1.376-0.062-1.586-0.735c-0.007-0.025,0.013-0.057,0.02-0.086
				c0-0.021,0-0.041,0-0.061c0.01-0.326,0.11-0.627,0.255-0.916c0.013-0.026,0.004-0.062,0.006-0.092l0.011,0.009l-0.011-0.009
				c0.138-0.23,0.36-0.326,0.608-0.37c0.207-0.037,0.417-0.03,0.626-0.016c0.152,0.009,0.25,0.085,0.238,0.241
				c-0.011,0.145-0.041,0.297-0.242,0.298c-0.065,0.001-0.129,0.007-0.194,0.009C17.838,17.763,17.563,18.172,17.771,18.614z
				 M21.152,18.749c-0.193,0.085-0.291,0.182-0.28,0.41c0.008,0.171-0.102,0.298-0.297,0.315c-0.217,0.02-0.279-0.126-0.309-0.292
				c-0.072-0.396-0.069-0.396-0.467-0.4c-0.169-0.001-0.338-0.009-0.506-0.001c-0.221,0.01-0.305-0.107-0.307-0.307
				c-0.001-0.164,0.046-0.304,0.143-0.446c0.228-0.336,0.449-0.679,0.631-1.04c0.209-0.414,0.388-0.542,0.839-0.502
				c0.178,0.016,0.283,0.098,0.281,0.289c-0.002,0.193,0,0.385,0,0.578c-0.002,0-0.005,0-0.008,0c0,0.137,0.006,0.273-0.001,0.41
				c-0.011,0.232,0.018,0.418,0.287,0.51C21.362,18.343,21.358,18.658,21.152,18.749z M22.558,19.538
				c-0.36-0.004-0.492-0.137-0.49-0.498c0.001-0.38,0.119-0.493,0.512-0.489c0.35,0.002,0.478,0.141,0.477,0.511
				C23.057,19.381,22.889,19.541,22.558,19.538z M22.575,18.243c-0.351,0-0.514-0.153-0.517-0.482
				c-0.005-0.444,0.048-0.498,0.488-0.501c0.446-0.004,0.524,0.07,0.525,0.503C23.072,18.072,22.895,18.242,22.575,18.243z
				 M23.793,19.538c-0.388-0.004-0.464-0.087-0.461-0.499c0.003-0.421,0.074-0.476,0.491-0.494c0.307-0.012,0.452,0.169,0.468,0.511
				C24.306,19.356,24.1,19.54,23.793,19.538z M23.761,18.223c-0.352-0.011-0.439-0.12-0.428-0.536
				c0.01-0.409,0.047-0.437,0.523-0.428c0.326,0.007,0.444,0.148,0.437,0.521C24.288,18.059,24.079,18.233,23.761,18.223z
				 M25.019,19.503c-0.344-0.004-0.407-0.081-0.401-0.489c0.005-0.398,0.045-0.437,0.444-0.434c0.3,0.003,0.368,0.092,0.363,0.479
				C25.419,19.415,25.336,19.506,25.019,19.503z M25.293,17.324c-0.047,0.154,0.046,0.298,0.028,0.452
				c-0.011,0.081-0.003,0.183-0.1,0.194c-0.163,0.017-0.359,0.085-0.482-0.042c-0.107-0.112-0.04-0.286-0.012-0.437
				c0.02-0.103,0.16-0.082,0.164-0.188C25.025,17.286,25.161,17.273,25.293,17.324c0.114,0.075,0.172,0.284,0.159,0.479
				C25.465,17.608,25.407,17.399,25.293,17.324z M26.56,19.287c-0.126,0.17-0.31,0.088-0.465,0.082
				c-0.145-0.005-0.128-0.151-0.147-0.26c-0.027-0.16,0.069-0.312,0.023-0.471l0.008-0.006c0.235,0.082,0.569-0.088,0.693,0.274
				c0.026,0.092,0.026,0.185,0.002,0.277C26.6,19.181,26.591,19.244,26.56,19.287z M25.954,17.838c0-0.167,0.014-0.333,0.021-0.5
				l0.006-0.006c0.079,0.008,0.158,0.022,0.237,0.024c0.325,0.004,0.494,0.268,0.343,0.569c-0.092,0.187-0.286,0.081-0.435,0.097
				C26.004,18.035,25.955,17.943,25.954,17.838z M26.421,16.852c-0.668,0.002-1.335,0-2.002,0c-0.651,0-1.302,0.002-1.954-0.001
				c-0.359-0.002-0.421-0.068-0.42-0.425c0-0.772-0.001-1.544,0-2.316c0.001-0.381,0.064-0.448,0.451-0.449
				c1.303-0.002,2.606-0.001,3.909,0.001c0.28,0,0.399,0.112,0.401,0.395c0.006,0.82,0.004,1.64,0.001,2.46
				C26.806,16.725,26.659,16.851,26.421,16.852z"/>
			<path fill-rule="evenodd" clip-rule="evenodd" fill="#FFFFFF" d="M20.682,20.258c-0.333-0.008-0.369,0.022-0.372,0.299
				c0.009,0.101-0.026,0.243,0.161,0.246c0.186,0.003,0.551-0.242,0.54-0.366C20.992,20.22,20.819,20.261,20.682,20.258z"/>
			<path fill-rule="evenodd" clip-rule="evenodd" fill="#FFFFFF" d="M20.127,17.296c-0.087,0.269-0.355,0.439-0.379,0.739
				c-0.007,0.086-0.014,0.157,0.082,0.199c0.19,0.084,0.398-0.02,0.431-0.228c0.016-0.102,0.014-0.208,0.02-0.318
				c-0.008-0.113-0.008-0.234-0.03-0.352C20.24,17.28,20.161,17.189,20.127,17.296z"/>
			<path fill-rule="evenodd" clip-rule="evenodd" fill="#FFFFFF" d="M23.075,15.07c-0.206-0.009-0.246,0.136-0.254,0.276
				c-0.007,0.132,0.062,0.246,0.216,0.249c0.18,0.019,0.302-0.062,0.306-0.229C23.346,15.208,23.274,15.077,23.075,15.07z"/>
			<path fill-rule="evenodd" clip-rule="evenodd" fill="#FFFFFF" d="M24.783,14.979c-0.112,0.005-0.317,0.24-0.28,0.369
				c0.041,0.142,0.068,0.332,0.262,0.363c0.17,0.028,0.379-0.181,0.38-0.357C25.146,15.161,24.962,14.97,24.783,14.979z"/>
			<path fill-rule="evenodd" clip-rule="evenodd" fill="#FFFFFF" d="M24.1,15.041c-0.07-0.085-0.17-0.079-0.265-0.042
				c-0.154,0.059-0.253,0.17-0.261,0.338c-0.01,0.198,0.162,0.256,0.289,0.344c0.074,0.052,0.158,0.053,0.218-0.015
				c0.062-0.068,0.181-0.13,0.079-0.253c0.003-0.029,0.007-0.057,0.011-0.085C24.268,15.204,24.165,15.121,24.1,15.041z"/>
		</g>
	</g>
</g>
</svg>
