<?xml version="1.0" encoding="utf-8"?>
<!-- Generator: Adobe Illustrator 24.3.0, SVG Export Plug-In . SVG Version: 6.00 Build 0)  -->
<svg version="1.1" baseProfile="tiny" id="Layer_1" xmlns="http://www.w3.org/2000/svg" xmlns:xlink="http://www.w3.org/1999/xlink"
	 x="0px" y="0px" width="32px" height="32px" viewBox="0 0 32 32" overflow="visible" xml:space="preserve">
<g id="Layer_1_1_">
</g>
<g id="Layer_2_1_">
	<g>
		<path fill="#FFFFFF" d="M16,9.9l1.4,4.4l0.2,0.6h0.6h5.3l-3.7,2.7l-0.5,0.3l0.2,0.6l1.4,4.4l-4.4-3.1L16,19.5l-0.5,0.4l-4.1,3.1
			l1.3-4.4l0.2-0.6l-0.5-0.3l-3.6-2.4h4.9h0.6l0.2-0.6L16,9.9 M16,1.9l-3.8,11.2H0.1l9.4,6.2L6.3,30.1l9.7-7.2l10.1,7.2l-3.4-10.8
			l9.2-6.6H19.4L16,1.9L16,1.9z"/>
	</g>
</g>
</svg>
