<?xml version="1.0" encoding="utf-8"?>
<!-- Generator: Adobe Illustrator 16.0.3, SVG Export Plug-In . SVG Version: 6.00 Build 0)  -->
<!DOCTYPE svg PUBLIC "-//W3C//DTD SVG 1.1//EN" "http://www.w3.org/Graphics/SVG/1.1/DTD/svg11.dtd">
<svg version="1.1" xmlns="http://www.w3.org/2000/svg" xmlns:xlink="http://www.w3.org/1999/xlink" x="0px" y="0px" width="32px"
	 height="32px" viewBox="0 0 32 32" enable-background="new 0 0 32 32" xml:space="preserve">
<symbol  id="dude-transit" viewBox="0 -25.1 21.25 25.118">
	<path fill-rule="evenodd" clip-rule="evenodd" fill="#FFFFFF" d="M15.5-4.2l0.75-1.05l1-3.1l3.9-2.65v-0.05
		c0.067-0.1,0.1-0.233,0.1-0.4c0-0.2-0.05-0.383-0.15-0.55c-0.167-0.233-0.383-0.35-0.65-0.35l-4.3,1.8l-1.2,1.65l-1.5-3.95
		l2.25-5.05l-3.25-6.9c-0.267-0.2-0.633-0.3-1.1-0.3c-0.3,0-0.55,0.15-0.75,0.45c-0.1,0.133-0.15,0.25-0.15,0.35
		c0,0.067,0.017,0.15,0.05,0.25c0.033,0.1,0.067,0.184,0.1,0.25l2.55,5.6L10.7-14l-3.05-4.9L0.8-18.7
		c-0.367,0.033-0.6,0.184-0.7,0.45c-0.067,0.3-0.1,0.467-0.1,0.5c0,0.5,0.2,0.767,0.6,0.8l5.7,0.15l2.15,5.4l3.1,5.65L9.4-5.6
		c-1.367-2-2.1-3.033-2.2-3.1C7.1-8.8,6.95-8.85,6.75-8.85C6.35-8.85,6.1-8.667,6-8.3C5.9-8,5.9-7.8,6-7.7H5.95l2.5,4.4l3.7,0.3
		L14-3.5L15.5-4.2z M14.55-2.9c-0.333,0.4-0.45,0.85-0.35,1.35c0.033,0.5,0.25,0.9,0.65,1.2S15.7,0.066,16.2,0
		c0.5-0.067,0.9-0.3,1.2-0.7c0.333-0.4,0.467-0.85,0.4-1.35c-0.066-0.5-0.3-0.9-0.7-1.2c-0.4-0.333-0.85-0.45-1.35-0.35
		C15.25-3.533,14.85-3.3,14.55-2.9z"/>
</symbol>
<g id="Layer_1">
</g>
<g id="Layer_2">
	<line fill="#E8E7E7" x1="8.015" y1="30.507" x2="8.015" y2="30.178"/>
	<g>
		<path fill-rule="evenodd" clip-rule="evenodd" fill="#FCFCFC" d="M21.371,8.958c-1.074,0-2.147,0-3.221,0.001
			c-0.476,0-0.538-0.042-0.7-0.485c-0.187-0.51-0.992-0.877-1.544-0.667c-0.605,0.23-1.06,0.629-1.243,1.282
			c-0.084,0.3-0.021,0.465,0.258,0.589c0.171,0.077,0.296,0.203,0.218,0.369c-0.042,0.091-0.234,0.158-0.356,0.156
			c-0.42-0.006-0.883-0.478-0.896-0.894c-0.011-0.333,0-0.668,0.002-1.001c0.001-0.279-0.071-0.368-0.352-0.347
			c-0.469,0.035-0.938,0.07-1.399,0.151c-1.751,0.308-3.517,0.353-5.285,0.26C5.449,8.297,4.048,8.166,2.647,8.049
			c-0.418-0.035-0.7,0.112-0.901,0.486C1.672,8.672,1.485,8.748,1.35,8.851c-0.1-0.15-0.244-0.288-0.289-0.454
			C1.008,8.203,1.036,7.986,1.036,7.779c-0.001-0.285-0.045-0.547-0.222-0.79c-0.167-0.23-0.166-0.516,0-0.738
			c0.181-0.245,0.212-0.504,0.228-0.786c0.015-0.258,0.025-0.526,0.106-0.767c0.102-0.3,0.258-0.312,0.47-0.079
			c0.066,0.073,0.121,0.156,0.171,0.24c0.166,0.274,0.385,0.447,0.726,0.417C3.09,5.225,3.667,5.189,4.241,5.129
			C6.815,4.857,9.386,4.8,11.957,5.183c0.508,0.075,1.019,0.129,1.531,0.18c0.313,0.031,0.406-0.07,0.401-0.386
			c-0.004-0.27,0.011-0.542-0.011-0.812c-0.048-0.578,0.421-0.885,0.815-1.04c0.167-0.066,0.358-0.056,0.445,0.133
			c0.096,0.208-0.052,0.302-0.225,0.383c-0.229,0.107-0.353,0.304-0.269,0.55c0.112,0.333,0.256,0.661,0.413,0.977
			c0.033,0.067,0.182,0.105,0.28,0.107c0.497,0.012,0.993-0.001,1.488,0.01c1.252,0.027,2.507,0.029,3.758,0.101
			c2.051,0.117,4.099,0.302,6.149,0.417c1.391,0.078,2.775-0.086,4.155-0.246c0.045-0.005,0.091-0.014,0.135-0.015
			c0.28-0.008,0.374,0.115,0.203,0.326c-0.379,0.464-0.778,0.916-1.199,1.342c-0.76,0.77-1.75,1.096-2.758,1.385
			c-1.117,0.32-2.264,0.321-3.407,0.357C23.032,8.979,22.201,8.958,21.371,8.958z"/>
		<path fill-rule="evenodd" clip-rule="evenodd" fill="#FCFCFC" d="M15.708,28.91c-0.984,0-1.967,0.002-2.95-0.001
			c-0.479-0.001-0.557-0.087-0.557-0.576c0.006-2.012,0.008-4.023,0.018-6.035c0-0.199-0.074-0.311-0.269-0.333
			c-0.117-0.015-0.235-0.025-0.351-0.025c-0.838-0.001-1.676,0-2.516-0.001c-0.107,0-0.22-0.002-0.319-0.034
			c-0.393-0.123-0.432-0.268-0.183-0.596c0.688-0.907,1.37-1.819,2.063-2.723c0.763-0.996,1.538-1.981,2.301-2.977
			c0.425-0.555,0.835-1.121,1.257-1.68c0.373-0.494,0.743-0.988,1.13-1.472c0.256-0.323,0.506-0.301,0.759,0.027
			c0.709,0.925,1.426,1.844,2.133,2.769c0.496,0.649,0.974,1.311,1.468,1.96c0.412,0.542,0.84,1.074,1.254,1.615
			c0.401,0.528,0.795,1.063,1.194,1.594c0.227,0.3,0.456,0.599,0.685,0.898c0.222,0.29,0.183,0.443-0.156,0.559
			c-0.108,0.037-0.228,0.053-0.343,0.054c-0.848,0.005-1.695,0.005-2.543,0.005c-0.492,0-0.563,0.083-0.561,0.575
			c0.008,1.787,0.004,3.572,0.006,5.358c0,0.181,0.014,0.361,0.01,0.542c-0.01,0.344-0.155,0.493-0.498,0.495
			c-1.01,0.004-2.021,0.001-3.03,0.001C15.708,28.909,15.708,28.91,15.708,28.91z M18.571,24.835c0-0.991-0.001-1.983,0-2.976
			c0-0.447,0.154-0.605,0.597-0.608c0.55-0.003,1.101,0,1.652-0.001c0.27,0,0.541,0.004,0.811-0.006
			c0.146-0.006,0.273-0.079,0.157-0.239c-0.274-0.376-0.572-0.736-0.857-1.105c-0.422-0.545-0.846-1.09-1.262-1.64
			c-0.49-0.643-0.973-1.291-1.46-1.934c-0.433-0.571-0.872-1.139-1.306-1.709c-0.304-0.399-0.598-0.808-0.906-1.203
			c-0.204-0.259-0.331-0.267-0.528-0.019c-0.379,0.477-0.739,0.969-1.113,1.451c-0.414,0.539-0.842,1.068-1.253,1.61
			c-0.494,0.649-0.968,1.314-1.466,1.96c-0.667,0.866-1.35,1.72-2.017,2.585c-0.029,0.039,0.014,0.192,0.062,0.217
			c0.081,0.042,0.192,0.03,0.291,0.03c0.767,0.003,1.533-0.002,2.3,0.004c0.403,0.003,0.55,0.13,0.55,0.501
			c0.007,2.002,0.008,4.004,0.004,6.006c-0.001,0.401,0.076,0.511,0.471,0.513c1.615,0.004,3.229,0.003,4.843,0
			c0.351,0,0.432-0.092,0.432-0.434C18.571,26.838,18.571,25.836,18.571,24.835z"/>
		<path fill-rule="evenodd" clip-rule="evenodd" fill="#FCFCFC" d="M15.692,20.471c-1.416,0-2.833,0.003-4.247-0.006
			c-0.119-0.001-0.237-0.085-0.355-0.131c0.045-0.101,0.076-0.214,0.139-0.301c0.44-0.588,0.883-1.174,1.333-1.756
			c0.688-0.892,1.388-1.78,2.081-2.671c0.291-0.375,0.576-0.754,0.861-1.134c0.124-0.164,0.232-0.167,0.361,0.001
			c0.541,0.715,1.086,1.426,1.631,2.137c0.399,0.519,0.8,1.037,1.199,1.556c0.416,0.539,0.831,1.079,1.247,1.617
			c0.088,0.114,0.181,0.225,0.268,0.339c0.13,0.17,0.075,0.31-0.136,0.345c-0.052,0.009-0.108,0.004-0.162,0.004
			C18.505,20.471,17.098,20.471,15.692,20.471z"/>
		<path fill-rule="evenodd" clip-rule="evenodd" fill="#FCFCFC" d="M15.687,24.529c0.641,0,1.28-0.004,1.92,0.001
			c0.346,0.004,0.4,0.057,0.405,0.388c0.008,0.721,0.008,1.441,0.008,2.162c0,0.232-0.106,0.374-0.358,0.374
			c-1.317,0-2.631,0-3.948,0.003c-0.258,0-0.357-0.145-0.358-0.373c-0.004-0.748,0.002-1.496,0.001-2.243
			c-0.001-0.226,0.103-0.325,0.33-0.323c0.667,0.004,1.333,0.001,2,0.001C15.687,24.523,15.687,24.526,15.687,24.529z"/>
		<path fill-rule="evenodd" clip-rule="evenodd" fill="#FCFCFC" d="M15.662,23.897c-0.621,0-1.243,0.003-1.865-0.002
			c-0.364-0.002-0.444-0.091-0.442-0.448c0.001-0.622,0-1.243,0-1.864c0-0.328,0.043-0.384,0.373-0.385
			c1.289-0.005,2.577-0.005,3.865,0c0.378,0.001,0.414,0.053,0.416,0.427c0.003,0.613,0.007,1.225,0.011,1.837
			c0.004,0.316-0.089,0.427-0.412,0.429c-0.648,0.008-1.297,0.003-1.947,0.003C15.662,23.895,15.662,23.896,15.662,23.897z"/>
	</g>
</g>
</svg>
