<svg width="40" height="40" viewBox="0 0 40 40" fill="none" xmlns="http://www.w3.org/2000/svg">
<path fill-rule="evenodd" clip-rule="evenodd" d="M17.9202 29.4578L20.1921 32.737L22.464 29.4578C26.4418 29.8792 29.3842 31.3814 29.3842 33.17C29.3842 35.2852 25.2687 37 20.1921 37C15.1154 37 11 35.2852 11 33.17C11 31.3814 13.9423 29.8792 17.9202 29.4578Z" fill="white"/>
<path fill-rule="evenodd" clip-rule="evenodd" d="M20.0963 29.9542C20.0963 29.9542 28.9262 17.2639 28.9262 12.1889C28.9262 7.11403 24.9729 3 20.0963 3C15.2197 3 11.2665 7.11403 11.2665 12.1889C11.2665 17.2639 20.0963 29.9542 20.0963 29.9542ZM20.0963 16.9418C22.9196 16.9418 25.2083 14.6531 25.2083 11.8298C25.2083 9.00655 22.9196 6.71783 20.0963 6.71783C17.273 6.71783 14.9843 9.00655 14.9843 11.8298C14.9843 14.6531 17.273 16.9418 20.0963 16.9418Z" fill="white"/>
</svg>
