<?xml version="1.0" encoding="utf-8"?>
<!-- Generator: Adobe Illustrator 23.0.3, SVG Export Plug-In . SVG Version: 6.00 Build 0)  -->
<svg version="1.1" xmlns="http://www.w3.org/2000/svg" xmlns:xlink="http://www.w3.org/1999/xlink" x="0px" y="0px"
	 width="90.095px" height="55.142px" viewBox="0 0 90.095 55.142" enable-background="new 0 0 90.095 55.142" xml:space="preserve">
<symbol  id="dude-transit" viewBox="0 -25.1 21.25 25.118">
	<path fill-rule="evenodd" clip-rule="evenodd" fill="#FFFFFF" d="M15.5-4.2l0.75-1.05l1-3.1l3.9-2.65v-0.05
		c0.067-0.1,0.1-0.233,0.1-0.4c0-0.2-0.05-0.383-0.15-0.55c-0.167-0.233-0.383-0.35-0.65-0.35l-4.3,1.8l-1.2,1.65l-1.5-3.95
		l2.25-5.05l-3.25-6.9c-0.267-0.2-0.633-0.3-1.1-0.3c-0.3,0-0.55,0.15-0.75,0.45c-0.1,0.133-0.15,0.25-0.15,0.35
		c0,0.067,0.017,0.15,0.05,0.25c0.033,0.1,0.067,0.184,0.1,0.25l2.55,5.6L10.7-14l-3.05-4.9L0.8-18.7
		c-0.367,0.033-0.6,0.184-0.7,0.45c-0.067,0.3-0.1,0.467-0.1,0.5c0,0.5,0.2,0.767,0.6,0.8l5.7,0.15l2.15,5.4l3.1,5.65L9.4-5.6
		c-1.367-2-2.1-3.033-2.2-3.1C7.1-8.8,6.95-8.85,6.75-8.85C6.35-8.85,6.1-8.667,6-8.3C5.9-8,5.9-7.8,6-7.7H5.95l2.5,4.4l3.7,0.3
		L14-3.5L15.5-4.2z M14.55-2.9c-0.333,0.4-0.45,0.85-0.35,1.35c0.033,0.5,0.25,0.9,0.65,1.2c0.4,0.3,0.85,0.417,1.35,0.35
		c0.5-0.067,0.9-0.3,1.2-0.7c0.333-0.4,0.467-0.85,0.4-1.35c-0.066-0.5-0.3-0.9-0.7-1.2c-0.4-0.333-0.85-0.45-1.35-0.35
		C15.25-3.533,14.85-3.3,14.55-2.9z"/>
</symbol>
<g id="Layer_1">
</g>
<g id="Layer_2">
	
		<radialGradient id="SVGID_1_" cx="14.5799" cy="27.5709" r="21.0406" fx="30.6235" fy="24.3189" gradientTransform="matrix(1 0 0 2 0 -27.5709)" gradientUnits="userSpaceOnUse">
		<stop  offset="0" style="stop-color:#FAF394"/>
		<stop  offset="0.2473" style="stop-color:#ECD964"/>
		<stop  offset="0.5916" style="stop-color:#D2BE5F"/>
		<stop  offset="0.9962" style="stop-color:#8B7B53"/>
		<stop  offset="1" style="stop-color:#8C7C54"/>
	</radialGradient>
	<path fill="url(#SVGID_1_)" d="M4.724,31.995c-0.76,0.121-1.884-0.203-2.761-1.214c-0.674-0.782-1.089-2.419-1.296-3.482
		c-0.203-0.998-0.095-1.071,0.7-0.795c0.894,0.328,2.38,0.756,3.089,1.542c0.189,0.213,0.343,0.44,0.483,0.67
		c-0.286-1.507-0.442-2.967-0.459-4.36c-0.041,0.306-0.106,0.589-0.22,0.808c-0.302,0.592-0.372,0.674-0.912,0.523
		c-0.687-0.177-1.564-0.903-2.044-2.143c-0.372-0.981-0.298-2.609-0.194-3.638c0.086-0.981,0.194-1.015,0.804-0.449
		c0.678,0.635,1.849,1.594,2.238,2.575c0.194,0.478,0.288,0.952,0.333,1.404c0.037-1.429,0.195-2.791,0.451-4.07
		c-0.022,0.032-0.039,0.079-0.062,0.108c-0.38,0.475-0.445,0.54-0.886,0.238c-0.54-0.363-1.123-1.305-1.274-2.64
		c-0.104-1.033,0.302-2.566,0.601-3.521c0.289-0.903,0.389-0.894,0.778-0.194c0.445,0.804,1.231,2.052,1.357,3.115
		c0.031,0.249,0.033,0.488,0.032,0.725c0.348-1.159,0.767-2.238,1.228-3.223C6.43,14.182,6.3,14.178,5.954,13.949
		c-0.54-0.363-1.08-1.227-1.089-2.415c0-0.92,0.613-2.242,1.05-3.067c0.406-0.791,0.514-0.773,0.86-0.134
		c0.389,0.743,1.097,1.897,1.115,2.834c0.005,0.24-0.019,0.469-0.05,0.694c0.605-1,1.235-1.862,1.839-2.564
		C9.633,9.329,9.589,9.378,9.544,9.404C9.03,9.69,8.943,9.724,8.606,9.344C8.192,8.877,7.894,7.918,8.157,6.76
		C8.347,5.857,9.211,4.7,9.786,3.987c0.54-0.683,0.635-0.639,0.812,0.06c0.194,0.799,0.583,2.082,0.389,2.994
		c-0.114,0.56-0.324,1.063-0.581,1.47c0.145-0.144,0.287-0.28,0.425-0.403c1.038-0.926,1.732-1.478,2.103-1.715
		c-0.341,0.008-0.429-0.075-0.501-0.497c-0.104-0.665,0.177-1.78,1.063-2.834c0.691-0.817,2.126-1.603,3.059-2.061
		c0.877-0.436,0.946-0.363,0.7,0.432c-0.281,0.912-0.661,2.38-1.352,3.232c-0.842,1.02-1.905,1.65-2.657,1.711
		c-0.01,0.001-0.014,0.001-0.024,0.001c-0.156,0.286-0.877,1.066-2.134,2.219c0.213-0.122,0.453-0.233,0.718-0.328
		c0.929-0.328,2.514-0.203,3.551-0.16c0.946,0.043,1.011,0.125,0.311,0.769c-0.691,0.648-1.789,1.56-2.705,1.832
		c-1.106,0.32-2.134,0.16-2.692-0.125c-0.441-0.229-0.441-0.302-0.328-0.752c0.006-0.026,0.029-0.053,0.037-0.079
		c-0.776,0.904-1.562,2.04-2.269,3.384c0.212-0.205,0.452-0.406,0.748-0.592c0.86-0.549,2.488-0.795,3.534-0.989
		c0.959-0.181,1.045-0.112,0.462,0.696c-0.583,0.795-1.486,1.927-2.337,2.389c-1.02,0.557-2.061,0.648-2.674,0.497
		c-0.382-0.083-0.474-0.147-0.497-0.374c-0.45,1.072-0.836,2.24-1.125,3.5c0.206-0.376,0.491-0.76,0.89-1.117
		c0.769-0.691,2.337-1.171,3.292-1.512c0.834-0.285,0.946-0.246,0.7,0.557c-0.229,0.855-0.704,2.186-1.447,2.877
		c-0.955,0.894-2.16,1.257-2.964,1.223c-0.582-0.016-0.663-0.104-0.757-0.543c-0.228,1.453-0.328,3.003-0.24,4.646
		c0.112-0.451,0.346-0.952,0.721-1.446c0.601-0.778,1.992-1.521,2.825-2.009c0.726-0.441,0.834-0.423,0.752,0.363
		c-0.082,0.821-0.302,2.139-0.877,2.916c-0.734,1.002-1.806,1.568-2.558,1.706c-0.483,0.08-0.61,0.036-0.746-0.229
		c0.148,1.336,0.405,2.72,0.821,4.154c-0.051-0.583,0.079-1.316,0.482-2.089c0.488-0.946,1.84-2.018,2.64-2.7
		c0.7-0.6,0.817-0.6,0.886,0.255c0.065,0.903,0.078,2.355-0.385,3.296c-0.601,1.214-1.637,2.026-2.415,2.311
		c-0.595,0.216-0.695,0.154-0.958-0.255c0.338,1.04,0.759,2.104,1.26,3.186c0.029-0.376,0.106-0.783,0.251-1.207
		c0.354-1.046,1.56-2.329,2.26-3.149c0.626-0.726,0.752-0.734,0.937,0.117c0.207,0.916,0.445,2.376,0.117,3.413
		c-0.423,1.326-1.352,2.303-2.1,2.717c-0.185,0.101-0.312,0.153-0.422,0.181c0.475,0.859,1.007,1.729,1.596,2.608
		c-0.048-0.426-0.032-0.909,0.07-1.428c0.212-1.063,1.223-2.471,1.797-3.357c0.514-0.795,0.631-0.817,0.929-0.017
		c0.324,0.855,0.752,2.255,0.566,3.314c-0.246,1.352-1.02,2.432-1.706,2.929c-0.193,0.14-0.32,0.207-0.432,0.242
		c0.697,0.893,1.42,1.675,2.153,2.403c-0.223-0.527-0.349-1.214-0.308-2c0.069-1.132,0.912-2.778,1.391-3.798
		c0.415-0.903,0.531-0.955,0.972-0.143c0.467,0.851,1.128,2.251,1.084,3.391c-0.052,1.46-0.7,2.709-1.344,3.327
		c-0.253,0.249-0.402,0.362-0.551,0.376c0.893,0.766,1.799,1.433,2.713,2.001c-0.398-0.547-0.703-1.309-0.801-2.198
		c-0.125-1.171,0.566-2.877,0.938-3.94c0.32-0.946,0.454-1.002,1.097-0.194c0.687,0.868,1.689,2.285,1.849,3.452
		c0.194,1.495-0.346,2.8-0.981,3.469c-0.186,0.192-0.317,0.288-0.443,0.342c1.292,0.651,2.581,1.155,3.839,1.515
		c-0.858-0.566-1.642-1.667-1.931-2.986c-0.263-1.223,0.441-2.938,0.804-4.009c0.32-0.938,0.471-0.989,1.344-0.078
		c0.916,0.946,2.29,2.514,2.583,3.728c0.38,1.56-0.168,2.86-0.886,3.495c-0.124,0.107-0.226,0.185-0.322,0.244
		c0.401,0.085,0.8,0.164,1.19,0.227c3.655,0.601,3.309,2.285-0.276,1.586c-0.353-0.068-0.712-0.144-1.074-0.227
		c0.38,0.24,0.443,0.431,0.404,1.005c-0.065,0.968-0.782,2.203-2.285,2.86c-1.154,0.505-3.258,0.346-4.601,0.186
		c-1.257-0.143-1.309-0.307-0.752-1.132c0.652-0.946,1.594-2.558,2.743-3.098c0.688-0.319,1.414-0.47,2.092-0.485
		c-1.005-0.326-2.025-0.724-3.046-1.212c0.314,0.355,0.315,0.552,0.073,1.083c-0.389,0.851-1.486,1.763-3.115,1.922
		c-1.274,0.13-3.214-0.605-4.424-1.128c-1.145-0.497-1.145-0.657-0.328-1.249c0.929-0.678,2.38-1.875,3.664-2.035
		c0.595-0.07,1.174-0.042,1.707,0.06c-0.859-0.546-1.71-1.166-2.542-1.872c0.337,0.511,0.375,0.676,0.018,1.185
		c-0.501,0.7-1.637,1.357-3.124,1.257c-1.171-0.065-2.8-1.02-3.815-1.676c-0.95-0.622-0.933-0.756-0.099-1.179
		c0.963-0.462,2.476-1.326,3.664-1.274c0.828,0.039,1.58,0.274,2.182,0.613c-0.986-0.959-1.941-2.046-2.844-3.297
		c0.02,0.032,0.045,0.064,0.063,0.096c0.38,0.721,0.419,0.847-0.035,1.352c-0.575,0.639-1.78,1.166-3.249,0.903
		c-1.149-0.212-2.657-1.335-3.594-2.117c-0.877-0.726-0.842-0.86,0.043-1.179c1.002-0.354,2.609-1.028,3.78-0.842
		c1.238,0.198,2.268,0.831,2.825,1.542c-0.245-0.347-0.488-0.696-0.725-1.067c-0.722-1.131-1.33-2.243-1.873-3.342
		c0.053,0.361-0.03,0.495-0.428,0.745c-0.639,0.423-1.806,0.592-3.011,0.009c-0.937-0.441-1.974-1.771-2.601-2.661
		c-0.592-0.834-0.523-0.933,0.32-1.002c0.946-0.069,2.488-0.281,3.452,0.16c0.624,0.28,1.139,0.681,1.52,1.12
		c-0.484-1.138-0.888-2.256-1.202-3.349C5.371,31.781,5.323,31.906,4.724,31.995z"/>
	
		<radialGradient id="SVGID_2_" cx="73.1851" cy="27.5709" r="21.0406" fx="89.2287" fy="24.3189" gradientTransform="matrix(-1 0 0 2 148.7375 -27.5709)" gradientUnits="userSpaceOnUse">
		<stop  offset="0" style="stop-color:#FAF394"/>
		<stop  offset="0.2473" style="stop-color:#ECD964"/>
		<stop  offset="0.5916" style="stop-color:#D2BE5F"/>
		<stop  offset="0.9962" style="stop-color:#8B7B53"/>
		<stop  offset="1" style="stop-color:#8C7C54"/>
	</radialGradient>
	<path fill="url(#SVGID_2_)" d="M85.408,31.995c0.76,0.121,1.884-0.203,2.761-1.214c0.674-0.782,1.089-2.419,1.296-3.482
		c0.203-0.998,0.095-1.071-0.7-0.795c-0.894,0.328-2.38,0.756-3.089,1.542c-0.189,0.213-0.343,0.44-0.483,0.67
		c0.286-1.507,0.442-2.967,0.459-4.36c0.041,0.306,0.106,0.589,0.22,0.808c0.302,0.592,0.372,0.674,0.912,0.523
		c0.687-0.177,1.564-0.903,2.044-2.143c0.372-0.981,0.298-2.609,0.194-3.638c-0.086-0.981-0.194-1.015-0.804-0.449
		c-0.678,0.635-1.849,1.594-2.238,2.575c-0.194,0.478-0.288,0.952-0.333,1.404c-0.037-1.429-0.195-2.791-0.451-4.07
		c0.022,0.032,0.039,0.079,0.062,0.108c0.38,0.475,0.445,0.54,0.886,0.238c0.54-0.363,1.123-1.305,1.274-2.64
		c0.104-1.033-0.302-2.566-0.601-3.521c-0.289-0.903-0.389-0.894-0.778-0.194c-0.445,0.804-1.231,2.052-1.357,3.115
		c-0.031,0.249-0.033,0.488-0.032,0.725c-0.348-1.159-0.767-2.238-1.228-3.223c0.279,0.208,0.409,0.203,0.755-0.025
		c0.54-0.363,1.08-1.227,1.089-2.415c0-0.92-0.613-2.242-1.05-3.067c-0.406-0.791-0.514-0.773-0.86-0.134
		c-0.389,0.743-1.097,1.897-1.115,2.834c-0.005,0.24,0.019,0.469,0.05,0.694c-0.605-1-1.235-1.862-1.839-2.564
		c0.045,0.032,0.089,0.081,0.134,0.107c0.514,0.285,0.601,0.32,0.938-0.06c0.415-0.467,0.713-1.426,0.449-2.584
		c-0.19-0.903-1.054-2.061-1.629-2.774c-0.54-0.683-0.635-0.639-0.812,0.06c-0.194,0.799-0.583,2.082-0.389,2.994
		c0.114,0.56,0.324,1.063,0.581,1.47c-0.145-0.144-0.287-0.28-0.425-0.403c-1.038-0.926-1.732-1.478-2.103-1.715
		c0.341,0.008,0.429-0.075,0.501-0.497c0.104-0.665-0.177-1.78-1.063-2.834c-0.691-0.817-2.126-1.603-3.059-2.061
		c-0.877-0.436-0.946-0.363-0.7,0.432c0.281,0.912,0.661,2.38,1.352,3.232c0.842,1.02,1.905,1.65,2.657,1.711
		c0.01,0.001,0.014,0.001,0.024,0.001c0.156,0.286,0.877,1.066,2.134,2.219c-0.213-0.122-0.453-0.233-0.718-0.328
		c-0.929-0.328-2.514-0.203-3.551-0.16c-0.946,0.043-1.011,0.125-0.311,0.769c0.691,0.648,1.789,1.56,2.705,1.832
		c1.106,0.32,2.134,0.16,2.692-0.125c0.441-0.229,0.441-0.302,0.328-0.752c-0.006-0.026-0.029-0.053-0.037-0.079
		c0.776,0.904,1.562,2.04,2.269,3.384c-0.212-0.205-0.452-0.406-0.748-0.592c-0.86-0.549-2.488-0.795-3.534-0.989
		c-0.959-0.181-1.045-0.112-0.462,0.696c0.583,0.795,1.486,1.927,2.337,2.389c1.02,0.557,2.061,0.648,2.674,0.497
		c0.382-0.083,0.474-0.147,0.497-0.374c0.45,1.072,0.836,2.24,1.125,3.5c-0.206-0.376-0.491-0.76-0.89-1.117
		c-0.769-0.691-2.337-1.171-3.292-1.512c-0.834-0.285-0.946-0.246-0.7,0.557c0.229,0.855,0.704,2.186,1.447,2.877
		c0.955,0.894,2.16,1.257,2.964,1.223c0.582-0.016,0.663-0.104,0.757-0.543c0.228,1.453,0.328,3.003,0.24,4.646
		c-0.112-0.451-0.346-0.952-0.721-1.446c-0.601-0.778-1.992-1.521-2.825-2.009c-0.726-0.441-0.834-0.423-0.752,0.363
		c0.082,0.821,0.302,2.139,0.877,2.916c0.734,1.002,1.806,1.568,2.558,1.706c0.483,0.08,0.61,0.036,0.746-0.229
		c-0.148,1.336-0.405,2.72-0.821,4.154c0.051-0.583-0.079-1.316-0.482-2.089c-0.488-0.946-1.84-2.018-2.64-2.7
		c-0.7-0.6-0.817-0.6-0.886,0.255c-0.065,0.903-0.078,2.355,0.385,3.296c0.601,1.214,1.637,2.026,2.415,2.311
		c0.595,0.216,0.695,0.154,0.958-0.255c-0.338,1.04-0.759,2.104-1.26,3.186c-0.029-0.376-0.106-0.783-0.251-1.207
		c-0.354-1.046-1.56-2.329-2.26-3.149c-0.626-0.726-0.752-0.734-0.937,0.117c-0.207,0.916-0.445,2.376-0.117,3.413
		c0.423,1.326,1.352,2.303,2.1,2.717c0.185,0.101,0.312,0.153,0.422,0.181c-0.475,0.859-1.007,1.729-1.596,2.608
		c0.048-0.426,0.032-0.909-0.07-1.428c-0.212-1.063-1.223-2.471-1.797-3.357c-0.514-0.795-0.631-0.817-0.929-0.017
		c-0.324,0.855-0.752,2.255-0.566,3.314c0.246,1.352,1.02,2.432,1.706,2.929c0.193,0.14,0.32,0.207,0.432,0.242
		c-0.697,0.893-1.42,1.675-2.153,2.403c0.223-0.527,0.349-1.214,0.308-2c-0.069-1.132-0.912-2.778-1.391-3.798
		c-0.415-0.903-0.531-0.955-0.972-0.143c-0.467,0.851-1.128,2.251-1.084,3.391c0.052,1.46,0.7,2.709,1.344,3.327
		c0.253,0.249,0.402,0.362,0.551,0.376c-0.893,0.766-1.799,1.433-2.713,2.001c0.398-0.547,0.703-1.309,0.801-2.198
		c0.125-1.171-0.566-2.877-0.938-3.94c-0.32-0.946-0.454-1.002-1.097-0.194c-0.687,0.868-1.689,2.285-1.849,3.452
		c-0.194,1.495,0.346,2.8,0.981,3.469c0.186,0.192,0.317,0.288,0.443,0.342c-1.292,0.651-2.581,1.155-3.839,1.515
		c0.858-0.566,1.642-1.667,1.931-2.986c0.263-1.223-0.441-2.938-0.804-4.009c-0.32-0.938-0.471-0.989-1.344-0.078
		c-0.916,0.946-2.29,2.514-2.583,3.728c-0.38,1.56,0.168,2.86,0.886,3.495c0.124,0.107,0.226,0.185,0.322,0.244
		c-0.401,0.085-0.8,0.164-1.19,0.227c-3.655,0.601-3.309,2.285,0.276,1.586c0.353-0.068,0.712-0.144,1.074-0.227
		c-0.38,0.24-0.443,0.431-0.404,1.005c0.065,0.968,0.782,2.203,2.285,2.86c1.154,0.505,3.258,0.346,4.601,0.186
		c1.257-0.143,1.309-0.307,0.752-1.132c-0.652-0.946-1.594-2.558-2.743-3.098c-0.688-0.319-1.414-0.47-2.092-0.485
		c1.005-0.326,2.025-0.724,3.046-1.212c-0.314,0.355-0.315,0.552-0.073,1.083c0.389,0.851,1.486,1.763,3.115,1.922
		c1.274,0.13,3.214-0.605,4.424-1.128c1.145-0.497,1.145-0.657,0.328-1.249c-0.929-0.678-2.38-1.875-3.664-2.035
		c-0.595-0.07-1.174-0.042-1.707,0.06c0.859-0.546,1.71-1.166,2.542-1.872c-0.337,0.511-0.375,0.676-0.018,1.185
		c0.501,0.7,1.637,1.357,3.124,1.257c1.171-0.065,2.8-1.02,3.815-1.676c0.95-0.622,0.933-0.756,0.099-1.179
		c-0.963-0.462-2.476-1.326-3.664-1.274c-0.828,0.039-1.58,0.274-2.182,0.613c0.986-0.959,1.941-2.046,2.844-3.297
		c-0.02,0.032-0.045,0.064-0.063,0.096c-0.38,0.721-0.419,0.847,0.035,1.352c0.575,0.639,1.78,1.166,3.249,0.903
		c1.149-0.212,2.657-1.335,3.594-2.117c0.877-0.726,0.842-0.86-0.043-1.179c-1.002-0.354-2.609-1.028-3.78-0.842
		c-1.238,0.198-2.268,0.831-2.825,1.542c0.245-0.347,0.488-0.696,0.725-1.067c0.722-1.131,1.33-2.243,1.873-3.342
		c-0.053,0.361,0.03,0.495,0.428,0.745c0.639,0.423,1.806,0.592,3.011,0.009c0.938-0.441,1.974-1.771,2.601-2.661
		c0.592-0.834,0.523-0.933-0.32-1.002c-0.946-0.069-2.488-0.281-3.452,0.16c-0.624,0.28-1.139,0.681-1.52,1.12
		c0.484-1.138,0.888-2.256,1.202-3.349C84.761,31.781,84.809,31.906,85.408,31.995z"/>
</g>
</svg>
