<?xml version="1.0" encoding="utf-8"?>
<!-- Generator: Adobe Illustrator 16.0.3, SVG Export Plug-In . SVG Version: 6.00 Build 0)  -->
<!DOCTYPE svg PUBLIC "-//W3C//DTD SVG 1.1//EN" "http://www.w3.org/Graphics/SVG/1.1/DTD/svg11.dtd">
<svg version="1.1" xmlns="http://www.w3.org/2000/svg" xmlns:xlink="http://www.w3.org/1999/xlink" x="0px" y="0px" width="32px"
	 height="32px" viewBox="0 0 32 32" enable-background="new 0 0 32 32" xml:space="preserve">
<g id="Layer_1">
	<polygon fill="#FFFFFF" points="21.469,14 15.969,3 10.469,14 2.969,7.5 4.469,27.5 15.969,27.5 16.052,27.5 27.469,27.5 
		28.969,7.5 	"/>
	<rect x="4.469" y="29" fill="#FFFFFF" width="23" height="2"/>
	<path fill="#FFFFFF" d="M4.969,7.5c0,1.104-0.896,2-2,2l0,0c-1.104,0-2-0.896-2-2l0,0c0-1.104,0.896-2,2-2l0,0
		C4.073,5.5,4.969,6.396,4.969,7.5L4.969,7.5z"/>
	<path fill="#FFFFFF" d="M30.969,7.5c0,1.104-0.896,2-2,2l0,0c-1.104,0-2-0.896-2-2l0,0c0-1.104,0.896-2,2-2l0,0
		C30.073,5.5,30.969,6.396,30.969,7.5L30.969,7.5z"/>
	<path fill="#FFFFFF" d="M17.969,3c0,1.104-0.896,2-2,2l0,0c-1.104,0-2-0.896-2-2l0,0c0-1.104,0.896-2,2-2l0,0
		C17.073,1,17.969,1.896,17.969,3L17.969,3z"/>
</g>
<g id="Layer_2">
</g>
</svg>
