<?xml version="1.0" encoding="utf-8"?>
<!-- Generator: Adobe Illustrator 16.0.3, SVG Export Plug-In . SVG Version: 6.00 Build 0)  -->
<!DOCTYPE svg PUBLIC "-//W3C//DTD SVG 1.1//EN" "http://www.w3.org/Graphics/SVG/1.1/DTD/svg11.dtd">
<svg version="1.1" xmlns="http://www.w3.org/2000/svg" xmlns:xlink="http://www.w3.org/1999/xlink" x="0px" y="0px" width="32px"
	 height="32px" viewBox="0 0 32 32" enable-background="new 0 0 32 32" xml:space="preserve">
<symbol  id="dude-transit" viewBox="0 -25.1 21.25 25.118">
	<path fill-rule="evenodd" clip-rule="evenodd" fill="#FFFFFF" d="M15.5-4.2l0.75-1.05l1-3.1l3.9-2.65v-0.05
		c0.067-0.1,0.1-0.233,0.1-0.4c0-0.2-0.05-0.383-0.15-0.55c-0.167-0.233-0.383-0.35-0.65-0.35l-4.3,1.8l-1.2,1.65l-1.5-3.95
		l2.25-5.05l-3.25-6.9c-0.267-0.2-0.633-0.3-1.1-0.3c-0.3,0-0.55,0.15-0.75,0.45c-0.1,0.133-0.15,0.25-0.15,0.35
		c0,0.067,0.017,0.15,0.05,0.25c0.033,0.1,0.067,0.184,0.1,0.25l2.55,5.6L10.7-14l-3.05-4.9L0.8-18.7
		c-0.367,0.033-0.6,0.184-0.7,0.45c-0.067,0.3-0.1,0.467-0.1,0.5c0,0.5,0.2,0.767,0.6,0.8l5.7,0.15l2.15,5.4l3.1,5.65L9.4-5.6
		c-1.367-2-2.1-3.033-2.2-3.1C7.1-8.8,6.95-8.85,6.75-8.85C6.35-8.85,6.1-8.667,6-8.3C5.9-8,5.9-7.8,6-7.7H5.95l2.5,4.4l3.7,0.3
		L14-3.5L15.5-4.2z M14.55-2.9c-0.333,0.4-0.45,0.85-0.35,1.35c0.033,0.5,0.25,0.9,0.65,1.2S15.7,0.066,16.2,0
		c0.5-0.067,0.9-0.3,1.2-0.7c0.333-0.4,0.467-0.85,0.4-1.35c-0.066-0.5-0.3-0.9-0.7-1.2c-0.4-0.333-0.85-0.45-1.35-0.35
		C15.25-3.533,14.85-3.3,14.55-2.9z"/>
</symbol>
<g id="Layer_1">
	<polyline fill="#FFFFFF" points="27.884,19.945 27.884,10.788 32,15.365 	"/>
	<g>
		<path fill="#FEFEFE" d="M15.432,4.397L1.931,0.459C1.416,0.459,1,0.88,1,1.398v25.569c0,0.519,0.416,0.938,0.931,0.938
			l13.501,3.938c0.514,0,0.932-0.421,0.932-0.939V5.335C16.363,4.817,15.945,4.397,15.432,4.397z M13.083,20.2
			c-0.639-0.213-1.194-0.797-1.194-1.961c0-0.928,0.47-1.816,1.226-1.563c0.829,0.276,1.133,1.218,1.133,2.146
			C14.247,19.746,13.726,20.415,13.083,20.2z"/>
		<path fill="#FEFEFE" d="M25.244,3.208c0-2.835-2.805-2.804-2.805-2.804H5.851l7.264,2.245c0,0,5.013,0,7.243,0
			c2.512,0,2.282,1.923,2.282,1.923s0,2.538,0,7.343c0.805,0,1.734,0,2.604,0C25.244,7.192,25.244,4.623,25.244,3.208z"/>
		<path fill="#FEFEFE" d="M22.64,18.817c0,3.798,0,5.216,0,6.055c0,2.1-1.763,1.763-1.763,1.763h-3.259v2.46c0,0,2.248,0,5.044,0
			s2.582-2.582,2.582-2.582s0-2.567,0-7.695C24.451,18.817,23.559,18.817,22.64,18.817z"/>
		<path fill="#FEFEFE" d="M28.219,16.817v-2.902c0,0-7.383,0-8.975,0c0,0.97,0,1.945,0,2.902
			C20.966,16.817,28.216,16.817,28.219,16.817z"/>
	</g>
</g>
<g id="Layer_2">
</g>
</svg>
