<?xml version="1.0" encoding="utf-8"?>
<!-- Generator: Adobe Illustrator 16.0.3, SVG Export Plug-In . SVG Version: 6.00 Build 0)  -->
<!DOCTYPE svg PUBLIC "-//W3C//DTD SVG 1.1//EN" "http://www.w3.org/Graphics/SVG/1.1/DTD/svg11.dtd">
<svg version="1.1" xmlns="http://www.w3.org/2000/svg" xmlns:xlink="http://www.w3.org/1999/xlink" x="0px" y="0px" width="32px"
	 height="32px" viewBox="0 0 32 32" enable-background="new 0 0 32 32" xml:space="preserve">
<g id="Layer_1">
	<path fill="#FFFFFF" d="M23.32,15.828l0.023,10.633H5.013V9.122l12.202,0.034l2.579-3.612H2.787c-0.747,0-1.354,0.659-1.354,0.473
		v21.55c0,1.814,0.606,2.473,1.354,2.473h22.906c0.747,0,1.354-0.659,1.354-2.473V12.249L23.32,15.828z"/>
	<polygon fill-rule="evenodd" clip-rule="evenodd" fill="#FFFFFF" points="27.974,1.704 30.501,1.72 30.566,12.278 28.04,12.262 	
		"/>
	<polygon fill-rule="evenodd" clip-rule="evenodd" fill="#FFFFFF" points="30.494,1.713 30.51,4.241 19.952,4.174 19.936,1.647 	"/>
	
		<rect x="15.89" y="7.986" transform="matrix(0.7071 -0.7071 0.7071 0.7071 0.2307 18.9354)" fill-rule="evenodd" clip-rule="evenodd" fill="#FFFFFF" width="14.167" height="2.407"/>
</g>
<g id="Layer_2">
</g>
</svg>
