<?xml version="1.0" encoding="utf-8"?>
<!-- Generator: Adobe Illustrator 16.0.3, SVG Export Plug-In . SVG Version: 6.00 Build 0)  -->
<!DOCTYPE svg PUBLIC "-//W3C//DTD SVG 1.1//EN" "http://www.w3.org/Graphics/SVG/1.1/DTD/svg11.dtd">
<svg version="1.1" xmlns="http://www.w3.org/2000/svg" xmlns:xlink="http://www.w3.org/1999/xlink" x="0px" y="0px" width="32px"
	 height="32px" viewBox="0 0 32 32" enable-background="new 0 0 32 32" xml:space="preserve">
<g id="Layer_1">
	<path fill="#FFFFFF" d="M14.707,11.18c0-1.048,0.319-2.022,0.865-2.83c-0.5-0.19-1.04-0.299-1.607-0.299
		c-2.497,0-4.522,2.025-4.522,4.522s2.025,4.523,4.522,4.523c1.33,0,2.522-0.578,3.349-1.492
		C15.76,14.741,14.707,13.083,14.707,11.18z"/>
	<path fill="#FFFFFF" d="M10.833,22.35h0.036c0.224-1.587,1.863-2.958,4.237-3.752c-0.355-0.026-0.714-0.043-1.082-0.043
		c-4.234,0-7.697,1.764-8.013,4.002H5.979v3.001h4.853V22.35z"/>
	<circle fill="#FFFFFF" cx="21.154" cy="10.91" r="5.348"/>
	<path fill="#FFFFFF" d="M30.699,22.716c-0.375-2.646-4.468-4.732-9.476-4.732s-9.102,2.086-9.476,4.732h-0.037v3.55h19.024v-3.55
		H30.699z"/>
	<path fill="#FFFFFF" d="M8.35,13.163c0-0.812,0.247-1.566,0.67-2.192c-0.387-0.146-0.806-0.231-1.245-0.231
		c-1.935,0-3.502,1.568-3.502,3.503c0,1.934,1.568,3.502,3.502,3.502c1.03,0,1.954-0.447,2.594-1.155
		C9.166,15.921,8.35,14.637,8.35,13.163z"/>
	<path fill="#FFFFFF" d="M5.023,22.039H5.05c0.173-1.229,1.443-2.292,3.282-2.906c-0.275-0.02-0.553-0.034-0.838-0.034
		c-3.28,0-5.961,1.366-6.206,3.1H1.264v2.325h3.759V22.039z"/>
</g>
<g id="Layer_2">
</g>
</svg>
