<?xml version="1.0" encoding="utf-8"?>
<!-- Generator: Adobe Illustrator 16.0.0, SVG Export Plug-In . SVG Version: 6.00 Build 0)  -->
<!DOCTYPE svg PUBLIC "-//W3C//DTD SVG 1.1//EN" "http://www.w3.org/Graphics/SVG/1.1/DTD/svg11.dtd">
<svg version="1.1" xmlns="http://www.w3.org/2000/svg" xmlns:xlink="http://www.w3.org/1999/xlink" x="0px" y="0px" width="32px"
	 height="32px" viewBox="0 0 32 32" enable-background="new 0 0 32 32" xml:space="preserve">
<symbol  id="dude-transit" viewBox="0 -25.1 21.25 25.118">
	<path fill-rule="evenodd" clip-rule="evenodd" fill="#FFFFFF" d="M15.5-4.2l0.75-1.05l1-3.1l3.9-2.65v-0.05
		c0.067-0.1,0.1-0.233,0.1-0.4c0-0.2-0.05-0.383-0.15-0.55c-0.167-0.233-0.383-0.35-0.65-0.35l-4.3,1.8l-1.2,1.65l-1.5-3.95
		l2.25-5.05l-3.25-6.9c-0.267-0.2-0.633-0.3-1.1-0.3c-0.3,0-0.55,0.15-0.75,0.45c-0.1,0.133-0.15,0.25-0.15,0.35
		c0,0.067,0.017,0.15,0.05,0.25c0.033,0.1,0.067,0.184,0.1,0.25l2.55,5.6L10.7-14l-3.05-4.9L0.8-18.7
		c-0.367,0.033-0.6,0.184-0.7,0.45c-0.067,0.3-0.1,0.467-0.1,0.5c0,0.5,0.2,0.767,0.6,0.8l5.7,0.15l2.15,5.4l3.1,5.65L9.4-5.6
		c-1.367-2-2.1-3.033-2.2-3.1C7.1-8.8,6.95-8.85,6.75-8.85C6.35-8.85,6.1-8.667,6-8.3C5.9-8,5.9-7.8,6-7.7H5.95l2.5,4.4l3.7,0.3
		L14-3.5L15.5-4.2z M14.55-2.9c-0.333,0.4-0.45,0.85-0.35,1.35c0.033,0.5,0.25,0.9,0.65,1.2S15.7,0.066,16.2,0
		c0.5-0.067,0.9-0.3,1.2-0.7c0.333-0.4,0.467-0.85,0.4-1.35c-0.066-0.5-0.3-0.9-0.7-1.2c-0.4-0.333-0.85-0.45-1.35-0.35
		C15.25-3.533,14.85-3.3,14.55-2.9z"/>
</symbol>
<g id="Layer_1">
</g>
<g id="Layer_2">
	<g>
		<path fill="#FFFFFF" d="M17.253,20.745h-4.397v-2.584c0-0.927,0.154-1.621,0.463-2.084s0.926-0.938,1.852-1.427
			c0.206-0.103,0.643-0.328,1.312-0.676c0.669-0.347,1.183-0.61,1.544-0.79c0.591-0.334,0.887-0.746,0.887-1.235V8.208
			c0-0.283-0.103-0.521-0.309-0.714c-0.206-0.193-0.45-0.289-0.732-0.289h-3.742c-0.283,0-0.527,0.096-0.733,0.289
			c-0.206,0.192-0.309,0.431-0.309,0.714v2.237H8.651v-3.24c0-1.132,0.392-2.09,1.177-2.874c0.784-0.785,1.729-1.177,2.836-1.177
			h6.597c1.131,0,2.096,0.392,2.893,1.177c0.797,0.784,1.196,1.742,1.196,2.874v5.979c0,0.643-0.129,1.183-0.386,1.62
			c-0.258,0.438-0.515,0.746-0.771,0.926c-0.258,0.18-0.694,0.45-1.312,0.81c-0.206,0.129-0.515,0.303-0.926,0.521
			c-0.412,0.219-0.771,0.418-1.08,0.598c-0.309,0.181-0.554,0.322-0.733,0.425c-0.592,0.36-0.888,0.759-0.888,1.195V20.745z
			 M17.678,28.846h-5.015v-5.285h5.015V28.846z"/>
	</g>
</g>
</svg>
