<?xml version="1.0" encoding="utf-8"?>
<!-- Generator: Adobe Illustrator 16.0.0, SVG Export Plug-In . SVG Version: 6.00 Build 0)  -->
<!DOCTYPE svg PUBLIC "-//W3C//DTD SVG 1.1//EN" "http://www.w3.org/Graphics/SVG/1.1/DTD/svg11.dtd">
<svg version="1.1" xmlns="http://www.w3.org/2000/svg" xmlns:xlink="http://www.w3.org/1999/xlink" x="0px" y="0px" width="32px"
	 height="32px" viewBox="0 0 32 32" enable-background="new 0 0 32 32" xml:space="preserve">
<symbol  id="dude-transit" viewBox="0 -25.1 21.25 25.118">
	<path fill-rule="evenodd" clip-rule="evenodd" fill="#FFFFFF" d="M15.5-4.2l0.75-1.05l1-3.1l3.9-2.65v-0.05
		c0.067-0.1,0.1-0.233,0.1-0.4c0-0.2-0.05-0.383-0.15-0.55c-0.167-0.233-0.383-0.35-0.65-0.35l-4.3,1.8l-1.2,1.65l-1.5-3.95
		l2.25-5.05l-3.25-6.9c-0.267-0.2-0.633-0.3-1.1-0.3c-0.3,0-0.55,0.15-0.75,0.45c-0.1,0.133-0.15,0.25-0.15,0.35
		c0,0.067,0.017,0.15,0.05,0.25c0.033,0.1,0.067,0.184,0.1,0.25l2.55,5.6L10.7-14l-3.05-4.9L0.8-18.7
		c-0.367,0.033-0.6,0.184-0.7,0.45c-0.067,0.3-0.1,0.467-0.1,0.5c0,0.5,0.2,0.767,0.6,0.8l5.7,0.15l2.15,5.4l3.1,5.65L9.4-5.6
		c-1.367-2-2.1-3.033-2.2-3.1C7.1-8.8,6.95-8.85,6.75-8.85C6.35-8.85,6.1-8.667,6-8.3C5.9-8,5.9-7.8,6-7.7H5.95l2.5,4.4l3.7,0.3
		L14-3.5L15.5-4.2z M14.55-2.9c-0.333,0.4-0.45,0.85-0.35,1.35c0.033,0.5,0.25,0.9,0.65,1.2S15.7,0.066,16.2,0
		c0.5-0.067,0.9-0.3,1.2-0.7c0.333-0.4,0.467-0.85,0.4-1.35c-0.066-0.5-0.3-0.9-0.7-1.2c-0.4-0.333-0.85-0.45-1.35-0.35
		C15.25-3.533,14.85-3.3,14.55-2.9z"/>
</symbol>
<g id="Layer_1">
</g>
<g id="Layer_2">
	<g>
		<path fill="#FFFFFF" d="M12.375,9.625h1.438c0,0-0.027,19.75,0,20.75c0.031,1.141,1.281,1.067,1.281,1.067
			s1.281-0.067,1.281-1.004s0-11.5,0-11.5c-0.016-0.641,1.313-0.625,1.313,0.063s0,10.875,0,11.438s0.578,1.003,1.203,1.003
			s1.234-0.441,1.234-1.003s0-20.813,0-20.813h1.313L22,11.75c0,0,0.188,0-0.313,0.313s-1.063,0.625-1.063,0.625V15
			c0,0,2.459-1.5,3-1.75s0.541-1,0.541-1.313s-0.604-3-0.791-3.625s-1.313-2.188-3.125-2.188s-5.063,0-6.563,0
			s-2.875,1.172-3.156,2.078c-0.193,0.623-0.594,2.453-0.806,3.523c-0.134,0.674,0.462,1.648,0.774,1.773s2.925,1.367,2.925,1.367
			l-0.003-2.148l-1.511-0.749l-0.161-0.283L12.375,9.625z"/>
		<circle fill="#FFFFFF" cx="16.937" cy="2.875" r="2.5"/>
	</g>
	<g opacity="0.5">
		<g>
			<path fill-rule="evenodd" clip-rule="evenodd" fill="#FFFFFF" d="M27.521,16.072c0.017-1.51-0.517-1.545-0.549-2.475
				c-0.017-0.465,0.038-1.766,0-3.023c-0.042-1.25-0.177-2.456-0.279-2.749c-0.204-0.583-0.441-1.548-2.197-3.026
				c-1.92-1.613-5.639-2.985-7.697-3.023c-2.059-0.032-4.466,1.002-6.325,2.201c-1.85,1.204-2.301,1.72-3.021,2.749
				C6.732,7.755,6.452,8.478,6.63,10.3c0.172,1.819,0.209,1.341,0.269,3.023c0.055,1.392-0.58,1.822-0.542,2.749
				c0.042,1.387,0.559,1.671,0.542,2.201c-0.011,0.344-0.612,0.779-0.542,1.924c0.063,1.166,0.306,1.478,2.472,2.746
				c1.397,0.825,3.059,1.134,3.026,1.65c-0.06,0.755-0.242,1.994-0.274,2.752c-0.038,0.752,0.307,0.822,1.097,1.096
				c0.79,0.277,2.644,0.86,4.671,0.828c2.026-0.038,2.891-0.449,3.848-0.828c0.968-0.376,1.102-0.72,1.102-1.373
				c0-0.656-0.548-1.994-0.548-2.475c0-0.481,1.649-0.997,3.573-1.924c1.92-0.927,1.903-1.854,1.92-2.472
				c0.048-1.169-0.549-1.443-0.549-1.924C26.693,17.333,27.511,17.174,27.521,16.072z M11.3,18.819
				c-0.957,0.037-3.025,0.037-3.025-2.747c0-3.856,2.068-4.294,3.58-4.399c1.51-0.104,1.714-0.274,2.466,0.277
				c1.366,0.986,1.274,2.739,0.829,4.123c-0.323,1.013-0.688,1.408-1.376,1.924C13.086,18.512,12.268,18.786,11.3,18.819z
				 M17.626,23.221l-0.381-1.406l-0.581,0.008l-0.414,1.398c-1.579-0.43-2.22-1.067-2.197-1.925
				c0.016-0.859,0.499-1.752,1.371-2.477c0.875-0.721,1.02-0.831,1.654-0.823c0.597,0.008,0.651,0.126,1.097,0.549
				c0.952,0.919,1.574,1.528,1.645,2.751C19.895,22.498,18.503,23.167,17.626,23.221z M22.576,18.819
				c-0.968-0.033-1.789-0.307-2.478-0.823c-0.688-0.516-1.092-0.895-1.376-1.924c-0.354-1.292-0.531-3.136,0.822-4.123
				c0.764-0.551,0.963-0.381,2.479-0.277c1.51,0.105,3.573,0.543,3.573,4.399C25.597,18.856,23.533,18.856,22.576,18.819z"/>
		</g>
	</g>
</g>
</svg>
