<?xml version="1.0" encoding="utf-8"?>
<!-- Generator: Adobe Illustrator 16.0.0, SVG Export Plug-In . SVG Version: 6.00 Build 0)  -->
<!DOCTYPE svg PUBLIC "-//W3C//DTD SVG 1.1//EN" "http://www.w3.org/Graphics/SVG/1.1/DTD/svg11.dtd">
<svg version="1.1" xmlns="http://www.w3.org/2000/svg" xmlns:xlink="http://www.w3.org/1999/xlink" x="0px" y="0px" width="32px"
	 height="32px" viewBox="0 0 32 32" enable-background="new 0 0 32 32" xml:space="preserve">
<symbol  id="dude-transit" viewBox="0 -25.1 21.25 25.118">
	<path fill-rule="evenodd" clip-rule="evenodd" fill="#FFFFFF" d="M15.5-4.2l0.75-1.05l1-3.1l3.9-2.65v-0.05
		c0.067-0.1,0.1-0.233,0.1-0.4c0-0.2-0.05-0.383-0.15-0.55c-0.167-0.233-0.383-0.35-0.65-0.35l-4.3,1.8l-1.2,1.65l-1.5-3.95
		l2.25-5.05l-3.25-6.9c-0.267-0.2-0.633-0.3-1.1-0.3c-0.3,0-0.55,0.15-0.75,0.45c-0.1,0.133-0.15,0.25-0.15,0.35
		c0,0.067,0.017,0.15,0.05,0.25c0.033,0.1,0.067,0.184,0.1,0.25l2.55,5.6L10.7-14l-3.05-4.9L0.8-18.7
		c-0.367,0.033-0.6,0.184-0.7,0.45c-0.067,0.3-0.1,0.467-0.1,0.5c0,0.5,0.2,0.767,0.6,0.8l5.7,0.15l2.15,5.4l3.1,5.65L9.4-5.6
		c-1.367-2-2.1-3.033-2.2-3.1C7.1-8.8,6.95-8.85,6.75-8.85C6.35-8.85,6.1-8.667,6-8.3C5.9-8,5.9-7.8,6-7.7H5.95l2.5,4.4l3.7,0.3
		L14-3.5L15.5-4.2z M14.55-2.9c-0.333,0.4-0.45,0.85-0.35,1.35c0.033,0.5,0.25,0.9,0.65,1.2S15.7,0.066,16.2,0
		c0.5-0.067,0.9-0.3,1.2-0.7c0.333-0.4,0.467-0.85,0.4-1.35c-0.066-0.5-0.3-0.9-0.7-1.2c-0.4-0.333-0.85-0.45-1.35-0.35
		C15.25-3.533,14.85-3.3,14.55-2.9z"/>
</symbol>
<g id="Layer_1">
</g>
<g id="Layer_2">
	<g>
		<path fill="#FFFFFF" d="M18.716,17.689h-5.378v5.532h5.378c0.229,0,0.424-0.077,0.591-0.232c0.166-0.157,0.249-0.347,0.249-0.577
			v-3.915c0-0.227-0.083-0.42-0.249-0.576C19.14,17.767,18.944,17.689,18.716,17.689z"/>
		<path fill="#FFFFFF" d="M19.399,13.525v-3.42c0-0.228-0.083-0.42-0.249-0.576c-0.165-0.155-0.364-0.232-0.59-0.232h-5.223v5.035
			h5.316C19.151,14.291,19.399,14.022,19.399,13.525z"/>
		<path fill="#FFFFFF" d="M16,1.518c-8.141,0-14.741,6.6-14.741,14.742C1.259,24.4,7.859,31,16,31c8.142,0,14.741-6.6,14.741-14.741
			C30.741,8.118,24.142,1.518,16,1.518z M23.285,23.346c0,0.913-0.322,1.684-0.963,2.314c-0.643,0.633-1.419,0.949-2.331,0.949
			H9.609V5.908h10.226c0.91,0,1.689,0.316,2.331,0.949c0.643,0.632,0.963,1.404,0.963,2.315v4.444c0,0.478-0.155,0.938-0.467,1.383
			c-0.311,0.446-0.704,0.742-1.181,0.886c0.477,0.083,0.896,0.332,1.26,0.746c0.361,0.416,0.543,0.912,0.543,1.493V23.346z"/>
	</g>
</g>
</svg>
