<?xml version="1.0" encoding="utf-8"?>
<!-- Generator: Adobe Illustrator 16.0.0, SVG Export Plug-In . SVG Version: 6.00 Build 0)  -->
<!DOCTYPE svg PUBLIC "-//W3C//DTD SVG 1.1//EN" "http://www.w3.org/Graphics/SVG/1.1/DTD/svg11.dtd">
<svg version="1.1" xmlns="http://www.w3.org/2000/svg" xmlns:xlink="http://www.w3.org/1999/xlink" x="0px" y="0px" width="32px"
	 height="32px" viewBox="0 0 32 32" enable-background="new 0 0 32 32" xml:space="preserve">
<symbol  id="dude-transit" viewBox="0 -25.1 21.25 25.118">
	<path fill-rule="evenodd" clip-rule="evenodd" fill="#FFFFFF" d="M15.5-4.2l0.75-1.05l1-3.1l3.9-2.65v-0.05
		c0.067-0.1,0.1-0.233,0.1-0.4c0-0.2-0.05-0.383-0.15-0.55c-0.167-0.233-0.383-0.35-0.65-0.35l-4.3,1.8l-1.2,1.65l-1.5-3.95
		l2.25-5.05l-3.25-6.9c-0.267-0.2-0.633-0.3-1.1-0.3c-0.3,0-0.55,0.15-0.75,0.45c-0.1,0.133-0.15,0.25-0.15,0.35
		c0,0.067,0.017,0.15,0.05,0.25c0.033,0.1,0.067,0.184,0.1,0.25l2.55,5.6L10.7-14l-3.05-4.9L0.8-18.7
		c-0.367,0.033-0.6,0.184-0.7,0.45c-0.067,0.3-0.1,0.467-0.1,0.5c0,0.5,0.2,0.767,0.6,0.8l5.7,0.15l2.15,5.4l3.1,5.65L9.4-5.6
		c-1.367-2-2.1-3.033-2.2-3.1C7.1-8.8,6.95-8.85,6.75-8.85C6.35-8.85,6.1-8.667,6-8.3C5.9-8,5.9-7.8,6-7.7H5.95l2.5,4.4l3.7,0.3
		L14-3.5L15.5-4.2z M14.55-2.9c-0.333,0.4-0.45,0.85-0.35,1.35c0.033,0.5,0.25,0.9,0.65,1.2S15.7,0.066,16.2,0
		c0.5-0.067,0.9-0.3,1.2-0.7c0.333-0.4,0.467-0.85,0.4-1.35c-0.066-0.5-0.3-0.9-0.7-1.2c-0.4-0.333-0.85-0.45-1.35-0.35
		C15.25-3.533,14.85-3.3,14.55-2.9z"/>
</symbol>
<g id="Layer_1">
</g>
<g id="Layer_2">
	<path fill="#47C8F3" d="M12.375,12.586l0.719-0.918c0.978,0.459,1.157,0.599,2.674,0.639s4.352-0.639,5.749-0.639
		c1.397,0,3.114,0.359,4.191,0.918s3.313,1.797,3.913,2.236c0.599,0.439,1.473-0.163,1.637-0.399
		c0.359-0.519,0.359-1.158-0.28-1.598c-0.639-0.439-3.712-2.634-4.75-3.113c-1.038-0.479-2.555-0.679-4.99-0.679
		s-4.83,0.24-5.988,0.24c-1.158,0-2.674-0.279-3.433-0.758L10.02,6.039L4.87,2.446c-0.367-0.279-0.838,0.12-0.559,0.439
		s3.633,4.95,3.633,4.95l1.038,0.04v0.279L8.064,9.232H7.584l-0.12-0.567c0,0-5.469-2.307-5.868-2.506
		c-0.399-0.2-0.758,0.439-0.399,0.718c0.359,0.279,5.309,4.391,5.309,4.391l2.555,0.998c0.639,0.878,1.995,2.404,2.116,2.915
		c0.359,1.517,0.519,5.309,0.918,6.506c0.399,1.198,1.853,4.352,4.631,6.468c0.838,0.639,1.796,1.277,2.155,1.437
		c0.359,0.16,0.878-0.039,1.078-0.318c0.2-0.28,0.759-1.397,0.2-1.916c-0.559-0.52-3.553-2.315-4.711-5.271
		c-1.158-2.953-0.838-6.467-1.716-7.664C12.854,13.225,12.375,12.586,12.375,12.586z"/>
</g>
</svg>
