<svg width="40" height="40" viewBox="0 0 40 40" fill="none" xmlns="http://www.w3.org/2000/svg">
<path fill-rule="evenodd" clip-rule="evenodd" d="M33.501 4.34707H6.07249C4.56728 4.34707 3.34706 5.56729 3.34706 7.07252V32.0645C3.34706 33.5697 4.56728 34.7899 6.07249 34.7899H33.501C35.0062 34.7899 36.2265 33.5697 36.2265 32.0645V7.07251C36.2265 5.56729 35.0062 4.34707 33.501 4.34707ZM6.07249 3.00002C3.82332 3.00002 2 4.82334 2 7.07252V32.0645C2 34.3137 3.82332 36.137 6.07249 36.137H33.501C35.7502 36.137 37.5735 34.3137 37.5735 32.0645V7.07251C37.5735 4.82333 35.7502 3.00002 33.501 3.00002H6.07249Z" fill="white"/>
<path d="M8.89087 16.2069L10.7324 21.6578H9.74206L9.3492 20.471H7.50768L7.13119 21.6578H6.14085L7.98238 16.2069H8.89087ZM8.43253 17.5164L7.80232 19.5953H9.06274L8.43253 17.5164Z" fill="white"/>
<path fill-rule="evenodd" clip-rule="evenodd" d="M20.079 24.5247C22.9853 24.5247 25.3414 22.1687 25.3414 19.2624C25.3414 16.356 22.9853 14 20.079 14C17.1727 14 14.8167 16.356 14.8167 19.2624C14.8167 22.1687 17.1727 24.5247 20.079 24.5247ZM20.079 20.7437C20.8972 20.7437 21.5604 20.0805 21.5604 19.2624C21.5604 18.4442 20.8972 17.781 20.079 17.781C19.2609 17.781 18.5977 18.4442 18.5977 19.2624C18.5977 20.0805 19.2609 20.7437 20.079 20.7437Z" fill="white"/>
<path d="M30.0705 21.6578V16.2069H32.7632C33.0033 16.2069 33.2079 16.2915 33.3771 16.4606C33.5462 16.6243 33.6308 16.8262 33.6308 17.0663V18.2367C33.6308 18.3622 33.5899 18.4849 33.508 18.605C33.4262 18.7195 33.3225 18.7959 33.197 18.8341C33.3225 18.856 33.4316 18.9214 33.5244 19.0306C33.6226 19.1397 33.6717 19.2706 33.6717 19.4234V20.7984C33.6717 21.0385 33.5871 21.2431 33.418 21.4123C33.2488 21.576 33.0442 21.6578 32.8042 21.6578H30.0705ZM31.0527 19.3088V20.7657H32.4686C32.5286 20.7657 32.5804 20.7466 32.6241 20.7084C32.6677 20.6647 32.6896 20.6129 32.6896 20.5529V19.5216C32.6896 19.4616 32.6677 19.4125 32.6241 19.3743C32.5804 19.3307 32.5286 19.3088 32.4686 19.3088H31.0527ZM31.0527 18.4249H32.4522C32.5832 18.414 32.6486 18.3431 32.6486 18.2121V17.3118C32.6486 17.2518 32.6268 17.2027 32.5832 17.1645C32.5395 17.1208 32.4877 17.099 32.4277 17.099H31.0527V18.4249Z" fill="white"/>
</svg>
