<?xml version="1.0" encoding="utf-8"?>
<!-- Generator: Adobe Illustrator 23.0.3, SVG Export Plug-In . SVG Version: 6.00 Build 0)  -->
<svg version="1.1" baseProfile="tiny" id="Layer_1" xmlns="http://www.w3.org/2000/svg" xmlns:xlink="http://www.w3.org/1999/xlink"
	 x="0px" y="0px" width="101.851px" height="99.78px" viewBox="0 0 101.851 99.78" xml:space="preserve">
<path id="Path_125" fill="#8C8C8C" d="M51.1,0L39.348,40.721l11.864,13.77L51.1,0z"/>
<path id="Path_126" fill="#FFFFFF" d="M51.1,0l11.36,40.896L50.992,54.227L51.1,0z"/>
<path id="Path_129" fill="#FFFFFF" d="M39.33,40.721l11.586,13.448L0,42.088L39.33,40.721z"/>
<path id="Path_130" fill="#8C8C8C" d="M50.955,54.208l-18.511,7.003L0.002,41.907L50.955,54.208z"/>
<path id="Path_133" fill="#FFFFFF" d="M18.469,99.78l13.918-38.562l18.693-7.051L18.469,99.78z"/>
<path id="Path_134" fill="#8C8C8C" d="M18.466,99.778l32.447-25.044l-0.005-20.482L18.466,99.778z"/>
<path id="Path_135" fill="#8C8C8C" d="M62.419,40.87L50.937,54.169l50.914-12.081L62.419,40.87z"/>
<path id="Path_136" fill="#FFFFFF" d="M50.896,54.208l18.511,7.003l32.44-19.304L50.896,54.208z"/>
<path id="Path_137" fill="#8C8C8C" d="M83.366,99.759L69.447,61.197l-18.693-7.051L83.366,99.759z"/>
<path id="Path_138" fill="#FFFFFF" d="M83.369,99.758L50.922,74.714l0.005-20.482L83.369,99.758z"/>
</svg>
