<svg width="40" height="40" viewBox="0 0 40 40" fill="none" xmlns="http://www.w3.org/2000/svg">
<path fill-rule="evenodd" clip-rule="evenodd" d="M29.6367 22.5725L29.6367 27.2405C29.6367 28.1294 29.2769 28.7097 28.8215 29.444C28.0959 30.6143 27.1278 32.1756 26.9869 36L17.2011 36C17.2011 32.3617 14.4284 30.0835 13.5607 29.3705C13.4938 29.3155 13.4382 29.2698 13.3961 29.2335C12.8079 28.7269 11 26.1223 11 25.0725C11 24.0227 12.0178 20.6902 12.1389 20.4467C12.1474 20.4296 12.158 20.4056 12.1713 20.3757C12.3385 19.9989 12.919 18.6904 14.8169 18.5689C16.2852 19.0416 17.3472 19.1168 18.0775 19.1684C18.6582 19.2095 19.0291 19.2357 19.2276 19.4353C19.6847 19.8948 19.5497 20.8138 19.2979 21.181C19.1882 21.3618 18.965 21.5595 18.4886 21.7172C18.0084 21.8761 17.3014 21.9836 16.2752 22.0001C16.1824 22.0016 16.0868 22.0016 15.9884 22.0001L15.6195 21.9944L15.4407 24.3318L15.8231 24.3693C16.9568 24.4805 18.1102 25.1085 19.0448 25.8985C19.987 26.695 20.6349 27.5945 20.8149 28.1727L21.5636 27.9371C21.3198 27.1541 20.545 26.1363 19.5497 25.2949C18.6416 24.5273 17.4911 23.856 16.2806 23.6376L16.3456 22.7876C17.381 22.7675 18.1583 22.6568 18.7339 22.4663C19.3239 22.271 19.731 21.9815 19.9676 21.5918C19.9792 21.54 19.9931 21.4887 20.008 21.4341C20.0674 21.2156 20.1417 20.9424 20.1417 20.3543C20.1417 18.9758 19.6887 18.5163 18.7705 18.5163C17.7548 18.5163 16.0932 18.2121 14.9266 17.7192L13.6177 7.04711C13.5017 6.06911 13.8245 4.8866 15.3847 4.7215C16.9449 4.5564 17.4022 5.7491 17.5351 6.67302L18.8561 16.6613L20.7426 5.87535C20.8086 5.44246 21.0605 4.89289 21.4818 4.47353C21.9148 4.04259 22.5457 3.92287 23.3413 4.04545C24.328 4.19747 25.0058 4.93784 24.7459 6.53332C24.5682 7.6237 22.8091 16.9986 22.8091 16.9986C22.8091 16.9986 23.7612 15.5653 25.0158 15.9169L25.6267 16.0791C25.9833 16.1873 26.7575 16.8363 26.7575 17.7838L26.7256 17.9928C27.153 17.5872 27.7554 17.3767 28.3814 17.4732L28.4286 17.4804C29.5066 17.6465 30.2466 18.6597 30.0814 19.7434L29.6847 22.3456C29.6729 22.423 29.6568 22.4987 29.6367 22.5725ZM27.4163 24.0071C28.4943 24.1731 29.5 23.323 29.6652 22.2393C29.7687 21.5601 28.8885 21.5601 28.8885 22.1197C28.7891 22.7722 28.1844 23.3263 27.5353 23.2263L27.4881 23.219C26.839 23.119 26.3935 22.509 26.493 21.8565C26.6203 21.0213 25.4836 20.8126 25.3534 21.6663C25.2513 22.3361 24.6284 22.7959 23.9622 22.6932L23.863 22.6779C23.1967 22.5753 22.7394 21.9491 22.8415 21.2794C22.9328 20.6803 22.2142 20.6091 22.1196 21.1149C22.0426 21.526 22.0949 21.9077 22.1498 22.1197C22.3846 22.8059 22.9809 23.3411 23.744 23.4587L23.8432 23.474C24.6207 23.5938 25.3622 23.2476 25.7871 22.6428C26.0087 23.3369 26.6037 23.8819 27.3691 23.9998L27.4163 24.0071Z" fill="white"/>
</svg>
