<svg width="40" height="40" viewBox="0 0 40 40" fill="none" xmlns="http://www.w3.org/2000/svg">
<path fill-rule="evenodd" clip-rule="evenodd" d="M20.4049 35.2896C8.16511 32.4331 5.64209 16.8982 5.64209 7.84053C11.3774 3.82105 27.8716 3.51591 35 7.84053C35 16.7676 32.9868 32.5277 20.4049 35.2896ZM31.0551 10.697H31.6893C31.6893 10.697 31.7226 10.7734 31.7268 10.8478C31.7296 10.9228 31.7046 11.011 31.7046 11.011H31.0607L31.0225 11.0638H30.9669L30.9384 11.0367L30.8683 11.0346V10.97H29.5833L29.5312 10.995V11.02H29.0887V10.9874H28.9505V11.2367H27.0285C27.0049 11.2659 26.9737 11.2979 26.9341 11.3173C26.8969 11.3364 26.855 11.3418 26.8232 11.3458C26.7961 11.3493 26.7765 11.3518 26.7736 11.3611C26.767 11.3799 26.7689 11.402 26.7708 11.4251C26.7736 11.4576 26.7765 11.4919 26.7563 11.5215C26.7369 11.55 26.6975 11.5752 26.6602 11.5991C26.6293 11.6189 26.5997 11.6378 26.584 11.657C26.5652 11.6785 26.509 11.7459 26.4631 11.8153C26.4124 11.8862 26.2902 11.9022 26.2902 11.9022L26.2728 12.2467C26.277 12.2793 26.2832 12.3134 26.2902 12.3502C26.3596 12.7357 26.4777 13.1038 26.4777 13.1038L26.095 13.2052C26.011 13.5657 25.929 13.9366 25.9255 13.9873C25.922 14.0881 25.7845 14.3319 25.6657 14.4256C25.5456 14.518 25.4428 14.5416 25.4428 14.5416C25.4428 14.5416 25.383 14.6278 25.3671 14.6465C25.3539 14.6646 25.0962 14.9459 24.7697 14.9348C24.6877 14.9313 24.6176 14.8361 24.6176 14.8361C24.6176 14.8361 24.5224 14.8528 24.3599 14.8361C24.1946 14.8209 23.7389 14.6118 23.484 14.4798C23.2305 14.3471 22.7338 14.0638 22.7338 14.0638C22.7338 14.0638 22.7575 14.218 22.7387 14.2714C22.7179 14.3242 22.6088 14.5882 22.6088 14.5882C22.6088 14.5882 22.8248 14.6625 22.9443 14.7514C23.0259 14.8131 23.0518 14.8919 23.0785 14.9735C23.091 15.0114 23.1036 15.0499 23.1221 15.0876C23.159 15.1593 23.1128 15.7544 23.0747 16.2448C23.0489 16.5761 23.0269 16.8596 23.0367 16.9019C23.0575 17.0061 22.7449 17.6326 22.6401 17.6402C22.5366 17.6486 22.2073 17.4985 22.2073 17.4985L22.0733 17.7597L22.2108 18.3862C22.2108 18.3862 22.8658 19.0211 23.3062 19.931C23.6038 20.5465 23.8368 21.1694 23.9661 21.5152C24.0282 21.6811 24.0664 21.7833 24.0765 21.7905C24.09 21.8004 24.1163 21.7964 24.1444 21.7921C24.1771 21.7871 24.2123 21.7817 24.2328 21.7974C24.2689 21.828 24.2765 22.2225 24.2765 22.2225C24.2765 22.2225 24.405 22.3573 24.4113 22.5372C24.4162 22.6937 24.3355 23.6904 24.3113 23.988C24.3081 24.0284 24.3058 24.0559 24.305 24.0667C24.2967 24.1556 24.1744 24.8488 24.1744 24.8488C24.1744 24.8488 24.2606 25.2676 24.2758 25.3656C24.2911 25.4614 24.2307 25.8497 24.2244 25.8803C24.2161 25.9108 24.105 26.0442 24.105 26.0442C24.105 26.0442 24.0966 26.5436 24.0758 26.7374C24.0522 26.9319 24.1203 27.3577 24.1487 27.4091C24.1793 27.4619 24.7905 28.2009 24.8732 28.2461C24.9538 28.2905 25.1108 28.3433 25.2379 28.3655C25.3219 28.3802 25.4219 28.4402 25.5126 28.4946C25.5597 28.5228 25.6043 28.5496 25.6428 28.5677C25.7533 28.6191 25.7692 28.7761 25.7692 28.7761C25.7692 28.7761 25.7637 29.0747 25.7234 29.1039C25.6903 29.1318 25.2835 29.1603 25.0541 29.1764C25.038 29.1775 25.0228 29.1786 25.0086 29.1796C24.7912 29.1949 23.9938 29.1268 23.9695 29.1122C23.9584 29.1044 23.8201 29.0649 23.6815 29.0254C23.5513 28.9883 23.421 28.9511 23.3958 28.94C23.3693 28.929 23.2847 28.94 23.1779 28.9539C23.0693 28.968 22.9376 28.9851 22.8207 28.9851C22.5894 28.9851 22.4317 28.9025 22.4018 28.858C22.3713 28.8122 22.4477 28.3273 22.4477 28.3273C22.4477 28.3273 22.5366 28.0662 22.5512 27.8946C22.5671 27.7237 22.7151 27.5654 22.7151 27.5654L22.6331 26.2074C22.6276 26.2074 22.5359 26.2067 22.5053 26.1338C22.4947 26.1079 22.4934 26.0692 22.4917 26.0194C22.4886 25.9263 22.4842 25.7943 22.415 25.6337C22.3115 25.3864 22.2087 24.0431 22.2372 23.8708C22.2671 23.6992 22.4164 23.6166 22.4164 23.6166L22.4831 22.8859L22.2817 22.5802C22.2817 22.5802 22.0344 22.6094 21.9475 22.6094C21.8579 22.6094 21.6419 22.5274 21.6419 22.5274L20.4986 20.8257C20.4986 20.8257 20.2444 20.8257 20.0957 20.7736C19.9464 20.7215 19.7068 20.154 19.7068 20.154C19.7068 20.154 19.6734 20.4006 19.5929 20.5638C19.5102 20.7284 19.2407 20.9757 19.2407 20.9757C19.2407 20.9757 18.9934 21.58 18.9656 21.6696C18.9591 21.6888 18.9454 21.7237 18.9278 21.7684C18.8633 21.9328 18.7464 22.2304 18.7399 22.3718C18.7336 22.5504 18.6829 22.7824 18.6308 22.8789C18.5767 22.9768 18.3454 23.0658 18.3454 23.0658C18.3454 23.0658 18.2113 23.4061 18.1057 23.5436C18.06 23.604 18.0066 23.6349 17.9577 23.6631C17.8952 23.6993 17.8403 23.7311 17.8189 23.8145C17.7806 23.9632 17.6209 24.2605 17.6209 24.2605C17.6209 24.2605 17.6369 24.4619 17.6667 24.5591C17.6945 24.6564 17.6667 24.8134 17.532 25.1565C17.4528 25.3596 17.3421 25.5753 17.2617 25.7319C17.2061 25.8404 17.165 25.9205 17.159 25.9483C17.1437 26.0157 16.9638 26.5832 16.8735 26.7096C16.7839 26.836 16.5984 26.8284 16.5984 26.8284C16.5984 26.8284 16.2602 27.5695 16.2463 27.7932C16.2303 28.0169 16.2227 28.3996 16.2261 28.4676C16.2266 28.4796 16.227 28.4925 16.2274 28.5062C16.2308 28.6147 16.2355 28.7706 16.288 28.8372C16.3616 28.9282 16.3935 29.1213 16.3935 29.1213C16.3935 29.1213 16.3637 29.4568 16.3338 29.4644C16.3032 29.472 15.7983 29.5339 15.4718 29.5318C15.2572 29.5318 14.8071 29.4547 14.7696 29.4165C14.7355 29.3776 14.6959 29.0317 14.6959 28.8302C14.6959 28.6868 14.7484 28.5027 14.8089 28.2905C14.8337 28.2037 14.8598 28.1122 14.8842 28.0169C14.9647 27.6883 15.2308 26.6506 15.2308 26.6506C15.2308 26.6506 15.1974 26.6284 15.1238 26.5617C15.0559 26.5001 15.0616 26.3758 15.0695 26.2068C15.0702 26.191 15.071 26.1747 15.0717 26.1581C15.08 25.9629 15.1162 25.8365 15.1919 25.6948C15.2198 25.6414 15.2588 25.5744 15.3003 25.5033C15.3693 25.385 15.445 25.2552 15.4871 25.1572C15.5316 25.0535 15.5367 24.9632 15.5436 24.8406C15.5472 24.7775 15.5513 24.7059 15.5614 24.6196C15.5842 24.4162 15.8648 23.9314 15.9989 23.6997C16.0324 23.6418 16.0568 23.5998 16.0657 23.5818C16.1108 23.4936 16.2817 23.3214 16.2817 23.3214C16.2817 23.3214 16.306 23.2088 16.3498 23.1199C16.3942 23.0303 16.5727 22.7685 16.5727 22.7685C16.5727 22.7685 16.6561 22.5379 16.5818 22.2315C16.5054 21.9259 16.8645 20.0887 16.8645 20.0887C16.8645 20.0887 16.7797 20.0304 16.7165 19.9206C16.6802 19.8583 16.7056 19.799 16.7265 19.7502C16.7423 19.7131 16.7557 19.682 16.7374 19.6601C16.6957 19.6108 16.645 19.5302 16.6353 19.5011C16.6283 19.4719 16.7908 19.2232 16.7908 19.2232C16.7908 19.2232 16.6346 19.1183 16.62 19.0857C16.6068 19.0517 16.7165 18.6446 16.7519 18.603C16.7867 18.5613 16.8513 18.5189 16.8874 18.5106C16.9263 18.5036 17.018 18.5661 17.018 18.5661L17.0096 18.4689L16.9513 17.6361V17.5868C16.9513 17.5374 16.8659 17.1457 16.8659 17.1457C16.8659 17.1457 16.8304 16.3962 16.8659 16.3358C16.9034 16.2754 17.0742 16.1524 17.1729 16.1149C17.2694 16.0774 17.5146 16.0538 17.5146 16.0538C17.5146 16.0538 16.8304 15.944 16.7068 15.8947C16.6472 15.871 16.6252 15.876 16.6169 15.8676C16.6082 15.8587 16.6146 15.835 16.6082 15.7475C16.5957 15.5766 16.686 15.0973 16.7207 14.9751C16.742 14.9081 16.7585 14.5545 16.7732 14.2399C16.7853 13.9801 16.7962 13.747 16.8075 13.7241C16.8311 13.6762 16.8804 13.6268 16.9791 13.5893C17.0365 13.5686 17.1271 13.5767 17.2121 13.5843C17.2721 13.5897 17.3293 13.5948 17.3701 13.5893C17.4688 13.5775 17.7022 13.5039 17.7022 13.5039L17.7258 13.333C17.7258 13.333 17.6897 13.2705 17.6765 13.1476C17.6751 13.1329 17.6725 13.1135 17.6693 13.0893C17.6456 12.9115 17.5872 12.4739 17.7376 11.7493C17.9092 10.9283 18.337 10.3643 18.7427 10.1198C19.1469 9.87324 19.6484 9.88643 19.7102 9.92255C19.7721 9.96006 19.9325 10.1198 19.9325 10.1198L20.0888 9.96006C20.0888 9.96006 19.9784 9.61346 19.945 9.48148C19.9117 9.34812 19.9117 8.66741 20.2604 8.13465C20.6097 7.60329 21.1932 7.41505 21.5579 7.42061C21.8651 7.42412 21.9313 7.44595 22.0531 7.48608C22.0756 7.4935 22.1 7.50154 22.1281 7.51021C22.308 7.56647 22.6935 7.85195 22.6935 7.85195C22.6935 7.85195 22.7304 7.85959 22.7575 7.86723C22.7866 7.87487 22.9707 7.96795 22.9936 7.98462L22.9956 7.98569C23.0223 8.00043 23.0678 8.02557 23.0922 8.08048C23.1145 8.13674 23.0672 8.23676 23.0672 8.23676C23.0672 8.23676 23.2333 8.64241 23.2513 8.84314C23.2715 9.04388 23.2798 9.5051 23.161 9.59817C23.0402 9.69125 22.9603 9.67805 22.9603 9.67805C22.9603 9.67805 22.9714 9.69889 22.9394 9.71903C22.9096 9.73848 22.6922 9.79127 22.6922 9.79127L22.679 9.99965L22.7192 10.1525C22.7192 10.1525 22.7554 10.2678 22.7526 10.3101C22.7526 10.3101 22.7443 10.3421 22.729 10.3581C22.7109 10.3754 22.6623 10.3984 22.6623 10.3984L22.6602 10.4081C22.8998 10.3886 23.1186 10.3699 23.1186 10.3699L23.2833 10.3087L23.4291 10.306L23.4708 10.2407H23.7889C23.7889 10.2407 23.7584 10.1844 23.773 10.1198C23.7875 10.0545 23.8146 10.0399 23.8146 10.0399L23.8556 9.68847L23.9626 9.68361L23.9897 10.0434L24.0251 10.1004L24.264 10.1219L24.2654 10.274H28.9373V10.5025H29.0887V9.63429H29.2596V10.3574H29.3256V10.4629H29.42V10.4115H29.5451L29.5881 10.5567H29.5312V10.7331L29.5763 10.7533H30.853V10.6908H30.9218L30.9607 10.6526H31.0169L31.0551 10.697ZM24.7079 11.5771C24.7079 11.5771 24.6711 11.5826 24.653 11.5979C24.653 11.5985 24.6523 11.599 24.6514 11.5995C24.6503 11.6002 24.6491 11.6009 24.6495 11.6021L24.7516 11.6188V11.5771C24.7516 11.5688 24.7079 11.5771 24.7079 11.5771ZM24.7364 12.7336C24.7364 12.7336 24.9107 12.5113 24.9691 12.4057C25.0073 12.3377 25.1545 12.1605 25.2636 12.0341C25.2386 12.039 25.224 12.0348 25.224 12.0348H24.5877L24.5648 12.0119C24.5648 12.0119 24.5169 12.0258 24.5134 12.0314C24.512 12.0376 24.4328 12.1696 24.4182 12.1932C24.4634 12.2481 24.5009 12.2981 24.5155 12.3196C24.562 12.3856 24.7364 12.7336 24.7364 12.7336ZM25.2941 11.9306C25.3289 11.8966 25.3289 11.8716 25.3289 11.8716H25.3275V11.6486C25.3275 11.6486 25.3198 11.6236 25.2976 11.5951C25.274 11.566 25.2233 11.5736 25.2233 11.5736H25.0295C25.0295 11.5736 25.0191 11.5708 24.9371 11.6076C24.9093 11.6202 24.8906 11.632 24.8774 11.6465C24.8843 11.6542 24.8871 11.6604 24.8885 11.6653C24.8906 11.6722 24.9149 11.7875 24.9079 11.8084C24.8996 11.8278 24.8906 11.848 24.8774 11.8619L24.8749 11.8643C24.866 11.8733 24.8566 11.8827 24.8426 11.8904C24.8586 11.9181 24.876 11.9383 24.876 11.9383L24.8524 11.9411C24.8524 11.9411 24.8322 11.9306 24.8086 11.9063C24.7935 11.9103 24.7714 11.9129 24.7497 11.9155C24.7294 11.918 24.7095 11.9203 24.6961 11.9237C24.6822 11.9279 24.6676 11.932 24.6579 11.9348C24.6579 11.9383 24.6607 11.9424 24.6641 11.9445C24.6933 11.9737 24.778 11.9688 24.778 11.9688H25.224C25.224 11.9688 25.2608 11.964 25.2941 11.9306Z" fill="white"/>
</svg>
