<?xml version="1.0" encoding="utf-8"?>
<!-- Generator: Adobe Illustrator 16.0.0, SVG Export Plug-In . SVG Version: 6.00 Build 0)  -->
<!DOCTYPE svg PUBLIC "-//W3C//DTD SVG 1.1//EN" "http://www.w3.org/Graphics/SVG/1.1/DTD/svg11.dtd">
<svg version="1.1" xmlns="http://www.w3.org/2000/svg" xmlns:xlink="http://www.w3.org/1999/xlink" x="0px" y="0px" width="32px"
	 height="32px" viewBox="0 0 32 32" enable-background="new 0 0 32 32" xml:space="preserve">
<symbol  id="dude-transit" viewBox="0 -25.1 21.25 25.118">
	<path fill-rule="evenodd" clip-rule="evenodd" fill="#FFFFFF" d="M15.5-4.2l0.75-1.05l1-3.1l3.9-2.65v-0.05
		c0.067-0.1,0.1-0.233,0.1-0.4c0-0.2-0.05-0.383-0.15-0.55c-0.167-0.233-0.383-0.35-0.65-0.35l-4.3,1.8l-1.2,1.65l-1.5-3.95
		l2.25-5.05l-3.25-6.9c-0.267-0.2-0.633-0.3-1.1-0.3c-0.3,0-0.55,0.15-0.75,0.45c-0.1,0.133-0.15,0.25-0.15,0.35
		c0,0.067,0.017,0.15,0.05,0.25c0.033,0.1,0.067,0.184,0.1,0.25l2.55,5.6L10.7-14l-3.05-4.9L0.8-18.7
		c-0.367,0.033-0.6,0.184-0.7,0.45c-0.067,0.3-0.1,0.467-0.1,0.5c0,0.5,0.2,0.767,0.6,0.8l5.7,0.15l2.15,5.4l3.1,5.65L9.4-5.6
		c-1.367-2-2.1-3.033-2.2-3.1C7.1-8.8,6.95-8.85,6.75-8.85C6.35-8.85,6.1-8.667,6-8.3C5.9-8,5.9-7.8,6-7.7H5.95l2.5,4.4l3.7,0.3
		L14-3.5L15.5-4.2z M14.55-2.9c-0.333,0.4-0.45,0.85-0.35,1.35c0.033,0.5,0.25,0.9,0.65,1.2S15.7,0.066,16.2,0
		c0.5-0.067,0.9-0.3,1.2-0.7c0.333-0.4,0.467-0.85,0.4-1.35c-0.066-0.5-0.3-0.9-0.7-1.2c-0.4-0.333-0.85-0.45-1.35-0.35
		C15.25-3.533,14.85-3.3,14.55-2.9z"/>
</symbol>
<g id="Layer_1">
</g>
<g id="Layer_2">
	<path fill="#FFFFFF" d="M25.707,5.799C24.979,7.625,22.923,8.266,22.16,8.5c-0.249,0.072-0.519,0.143-0.798,0.212
		c-1.497-1.105-4.004-2.009-5.444-2.032c-1.54-0.026-3.337,0.745-4.725,1.642c-0.206,0.134-0.384,0.255-0.548,0.368
		c-0.261-0.062-0.521-0.125-0.772-0.19C9.11,8.265,7.058,7.625,6.328,5.801c-0.196-0.49-0.694-1.048-0.972,0.001
		c-0.403,1.52-0.46,3.778,1.677,5.728c0.559,0.458,0.961,0.879,1.267,1.253c0.007,0.087,0.01,0.169,0.019,0.264
		c0.129,1.36,0.159,1.001,0.206,2.259c0.038,1.04-0.434,1.361-0.41,2.054c0.032,1.034,0.422,1.249,0.41,1.643
		c-0.009,0.259-0.463,0.582-0.41,1.438c0.052,0.872,0.23,1.104,1.848,2.055c1.05,0.616,2.284,0.847,2.259,1.231
		c-0.038,0.564-0.18,1.488-0.205,2.054c-0.025,0.566,0.23,0.616,0.821,0.822c0.592,0.205,1.976,0.642,3.491,0.616
		c1.515-0.026,2.156-0.335,2.875-0.616c0.719-0.282,0.821-0.54,0.821-1.028c0-0.487-0.41-1.488-0.41-1.848
		c0-0.358,1.231-0.744,2.67-1.437c1.438-0.694,1.421-1.388,1.438-1.85c0.031-0.872-0.41-1.077-0.41-1.438
		c0-0.7,0.607-0.821,0.614-1.643c0.014-1.131-0.384-1.156-0.408-1.849c-0.015-0.348,0.027-1.32,0-2.259
		c-0.007-0.204-0.017-0.404-0.029-0.599c0.342-0.289,0.825-0.656,1.513-1.123c2.136-1.946,2.081-4.201,1.68-5.721
		C26.402,4.757,25.902,5.309,25.707,5.799z M11.811,19.412c-0.719,0.025-2.261,0.025-2.261-2.054c0-2.882,1.542-3.209,2.671-3.286
		c1.13-0.076,1.283-0.205,1.85,0.205c1.014,0.738,0.949,2.046,0.615,3.081c-0.244,0.757-0.515,1.053-1.026,1.438
		C13.145,19.18,12.527,19.386,11.811,19.412z M16.533,22.698l-0.282-1.05l-0.437,0.005l-0.309,1.045
		c-1.181-0.321-1.656-0.796-1.643-1.438c0.013-0.642,0.373-1.308,1.026-1.848c0.655-0.539,0.762-0.623,1.233-0.616
		c0.451,0.008,0.49,0.094,0.821,0.41c0.714,0.686,1.179,1.143,1.232,2.054C18.23,22.157,17.188,22.66,16.533,22.698z M20.229,19.412
		c-0.719-0.026-1.334-0.232-1.848-0.616c-0.514-0.385-0.815-0.669-1.026-1.438c-0.266-0.968-0.398-2.343,0.616-3.081
		c0.564-0.41,0.719-0.281,1.849-0.205c1.128,0.077,2.669,0.404,2.669,3.286C22.489,19.438,20.948,19.438,20.229,19.412z"/>
</g>
</svg>
