<?xml version="1.0" encoding="utf-8"?>
<!-- Generator: Adobe Illustrator 16.0.0, SVG Export Plug-In . SVG Version: 6.00 Build 0)  -->
<!DOCTYPE svg PUBLIC "-//W3C//DTD SVG 1.1//EN" "http://www.w3.org/Graphics/SVG/1.1/DTD/svg11.dtd">
<svg version="1.1" xmlns="http://www.w3.org/2000/svg" xmlns:xlink="http://www.w3.org/1999/xlink" x="0px" y="0px" width="32px"
	 height="32px" viewBox="0 0 32 32" enable-background="new 0 0 32 32" xml:space="preserve">
<symbol  id="dude-transit" viewBox="0 -25.1 21.25 25.118">
	<path fill-rule="evenodd" clip-rule="evenodd" fill="#FFFFFF" d="M15.5-4.2l0.75-1.05l1-3.1l3.9-2.65v-0.05
		c0.067-0.1,0.1-0.233,0.1-0.4c0-0.2-0.05-0.383-0.15-0.55c-0.167-0.233-0.383-0.35-0.65-0.35l-4.3,1.8l-1.2,1.65l-1.5-3.95
		l2.25-5.05l-3.25-6.9c-0.267-0.2-0.633-0.3-1.1-0.3c-0.3,0-0.55,0.15-0.75,0.45c-0.1,0.133-0.15,0.25-0.15,0.35
		c0,0.067,0.017,0.15,0.05,0.25c0.033,0.1,0.067,0.184,0.1,0.25l2.55,5.6L10.7-14l-3.05-4.9L0.8-18.7
		c-0.367,0.033-0.6,0.184-0.7,0.45c-0.067,0.3-0.1,0.467-0.1,0.5c0,0.5,0.2,0.767,0.6,0.8l5.7,0.15l2.15,5.4l3.1,5.65L9.4-5.6
		c-1.367-2-2.1-3.033-2.2-3.1C7.1-8.8,6.95-8.85,6.75-8.85C6.35-8.85,6.1-8.667,6-8.3C5.9-8,5.9-7.8,6-7.7H5.95l2.5,4.4l3.7,0.3
		L14-3.5L15.5-4.2z M14.55-2.9c-0.333,0.4-0.45,0.85-0.35,1.35c0.033,0.5,0.25,0.9,0.65,1.2S15.7,0.066,16.2,0
		c0.5-0.067,0.9-0.3,1.2-0.7c0.333-0.4,0.467-0.85,0.4-1.35c-0.066-0.5-0.3-0.9-0.7-1.2c-0.4-0.333-0.85-0.45-1.35-0.35
		C15.25-3.533,14.85-3.3,14.55-2.9z"/>
</symbol>
<g id="Layer_1">
</g>
<g id="Layer_2">
	<path fill="#FFFFFF" d="M26.707,4.709c-0.82,2.055-3.133,2.774-3.99,3.038c-0.28,0.082-0.584,0.161-0.897,0.238
		c-1.685-1.243-4.505-2.26-6.125-2.286C13.962,5.67,11.94,6.538,10.38,7.547c-0.232,0.15-0.432,0.286-0.616,0.414
		C9.47,7.892,9.178,7.82,8.895,7.746C8.036,7.482,5.728,6.764,4.906,4.711c-0.221-0.552-0.78-1.179-1.093,0.001
		c-0.454,1.71-0.518,4.25,1.887,6.443c0.628,0.516,1.08,0.988,1.425,1.409c0.007,0.098,0.011,0.19,0.021,0.297
		c0.145,1.53,0.179,1.126,0.231,2.541c0.043,1.17-0.487,1.531-0.461,2.311c0.036,1.163,0.475,1.405,0.461,1.848
		c-0.01,0.291-0.521,0.654-0.461,1.617c0.058,0.98,0.259,1.241,2.078,2.311c1.182,0.693,2.569,0.953,2.541,1.386
		c-0.043,0.635-0.202,1.675-0.23,2.311c-0.028,0.637,0.259,0.693,0.924,0.925c0.666,0.23,2.223,0.722,3.928,0.693
		c1.703-0.029,2.426-0.377,3.234-0.693c0.809-0.317,0.924-0.607,0.924-1.156s-0.462-1.675-0.462-2.079
		c0-0.403,1.386-0.837,3.004-1.616c1.617-0.781,1.598-1.561,1.617-2.08c0.035-0.981-0.462-1.212-0.462-1.617
		c0-0.788,0.684-0.924,0.691-1.848c0.015-1.272-0.432-1.301-0.46-2.08c-0.016-0.391,0.031-1.485,0-2.541
		c-0.007-0.229-0.019-0.455-0.032-0.673c0.384-0.325,0.928-0.738,1.701-1.264c2.402-2.189,2.342-4.726,1.89-6.436
		C27.489,3.536,26.927,4.157,26.707,4.709z M11.074,20.022c-0.809,0.029-2.543,0.029-2.543-2.31c0-3.242,1.734-3.61,3.004-3.697
		c1.271-0.086,1.443-0.23,2.081,0.23c1.141,0.831,1.067,2.302,0.691,3.467c-0.274,0.852-0.578,1.184-1.154,1.617
		C12.575,19.762,11.881,19.993,11.074,20.022z M16.387,23.72l-0.317-1.181l-0.491,0.005l-0.347,1.176
		c-1.328-0.361-1.863-0.896-1.849-1.618c0.015-0.722,0.42-1.472,1.155-2.079c0.737-0.606,0.856-0.7,1.388-0.692
		c0.507,0.008,0.551,0.104,0.924,0.461c0.803,0.771,1.325,1.285,1.386,2.311C18.296,23.111,17.124,23.677,16.387,23.72z
		 M20.545,20.022c-0.809-0.029-1.501-0.261-2.079-0.692c-0.577-0.434-0.917-0.753-1.154-1.617c-0.299-1.089-0.448-2.636,0.693-3.467
		c0.635-0.461,0.809-0.316,2.079-0.23c1.27,0.087,3.003,0.455,3.003,3.697C23.087,20.052,21.354,20.052,20.545,20.022z"/>
</g>
</svg>
