<?xml version="1.0" encoding="utf-8"?>
<!-- Generator: Adobe Illustrator 16.0.0, SVG Export Plug-In . SVG Version: 6.00 Build 0)  -->
<!DOCTYPE svg PUBLIC "-//W3C//DTD SVG 1.1//EN" "http://www.w3.org/Graphics/SVG/1.1/DTD/svg11.dtd">
<svg version="1.1" xmlns="http://www.w3.org/2000/svg" xmlns:xlink="http://www.w3.org/1999/xlink" x="0px" y="0px" width="32px"
	 height="32px" viewBox="0 0 32 32" enable-background="new 0 0 32 32" xml:space="preserve">
<symbol  id="dude-transit" viewBox="0 -25.1 21.25 25.118">
	<path fill-rule="evenodd" clip-rule="evenodd" fill="#FFFFFF" d="M15.5-4.2l0.75-1.05l1-3.1l3.9-2.65v-0.05
		c0.067-0.1,0.1-0.233,0.1-0.4c0-0.2-0.05-0.383-0.15-0.55c-0.167-0.233-0.383-0.35-0.65-0.35l-4.3,1.8l-1.2,1.65l-1.5-3.95
		l2.25-5.05l-3.25-6.9c-0.267-0.2-0.633-0.3-1.1-0.3c-0.3,0-0.55,0.15-0.75,0.45c-0.1,0.133-0.15,0.25-0.15,0.35
		c0,0.067,0.017,0.15,0.05,0.25c0.033,0.1,0.067,0.184,0.1,0.25l2.55,5.6L10.7-14l-3.05-4.9L0.8-18.7
		c-0.367,0.033-0.6,0.184-0.7,0.45c-0.067,0.3-0.1,0.467-0.1,0.5c0,0.5,0.2,0.767,0.6,0.8l5.7,0.15l2.15,5.4l3.1,5.65L9.4-5.6
		c-1.367-2-2.1-3.033-2.2-3.1C7.1-8.8,6.95-8.85,6.75-8.85C6.35-8.85,6.1-8.667,6-8.3C5.9-8,5.9-7.8,6-7.7H5.95l2.5,4.4l3.7,0.3
		L14-3.5L15.5-4.2z M14.55-2.9c-0.333,0.4-0.45,0.85-0.35,1.35c0.033,0.5,0.25,0.9,0.65,1.2S15.7,0.066,16.2,0
		c0.5-0.067,0.9-0.3,1.2-0.7c0.333-0.4,0.467-0.85,0.4-1.35c-0.066-0.5-0.3-0.9-0.7-1.2c-0.4-0.333-0.85-0.45-1.35-0.35
		C15.25-3.533,14.85-3.3,14.55-2.9z"/>
</symbol>
<g id="Layer_1">
</g>
<g id="Layer_2">
	<path fill="#BCBEC0" d="M16,5.562C10.234,5.562,5.563,10.234,5.563,16c0,5.765,4.672,10.439,10.438,10.439S26.438,21.765,26.438,16
		C26.438,10.234,21.766,5.562,16,5.562z M21.295,10.117v8.798h-0.022c0.121,0.793-0.781,1.674-1.797,2.059
		c-1.129,0.424-2.299,0.079-2.617-0.771c-0.258-0.686,0.123-1.482,0.866-1.992c0.187-0.148,0.406-0.275,0.651-0.367
		c0.405-0.151,0.814-0.182,1.176-0.118c0.292,0.031,0.556,0.12,0.78,0.252V11.97l-6.846,0.766v7.578h-0.009
		c0.006,0.741-0.892,1.519-1.829,1.873c-1.128,0.424-2.299,0.079-2.617-0.771c-0.318-0.851,0.336-1.884,1.463-2.311
		c0.735-0.276,1.485-0.222,2.01,0.085v-6.726v-0.43v-1.693l8.791-0.908V10.117z"/>
	<path fill="#FFFFFF" d="M16.066,2.015c-7.773-0.001-14.1,6.326-14.102,14.1c0,7.774,6.324,14.103,14.1,14.104
		c7.773,0.001,14.102-6.326,14.102-14.1C30.168,8.343,23.842,2.016,16.066,2.015z M27.914,16.117c0,2.77-0.963,5.311-2.559,7.329
		L8.738,6.825c2.018-1.596,4.561-2.558,7.328-2.558C22.6,4.269,27.916,9.585,27.914,16.117z M4.219,16.115
		c0-2.917,1.064-5.589,2.822-7.654l16.678,16.684c-2.064,1.756-4.736,2.82-7.654,2.82C9.533,27.964,4.217,22.648,4.219,16.115z"/>
</g>
</svg>
