<svg width="40" height="40" viewBox="0 0 40 40" fill="none" xmlns="http://www.w3.org/2000/svg">
<path fill-rule="evenodd" clip-rule="evenodd" d="M29.1838 22.562L29.1838 27.3419C29.1838 28.252 28.8134 28.8462 28.3447 29.5982C27.5978 30.7964 26.6013 32.3952 26.4562 36.3112L16.3832 36.3112C16.3832 32.5857 13.5291 30.2529 12.6359 29.5229C12.567 29.4665 12.5098 29.4198 12.4664 29.3826C11.861 28.8639 10 26.1969 10 25.1219C9.99999 24.047 11.0477 20.6346 11.1723 20.3853C11.1811 20.3678 11.192 20.3432 11.2057 20.3126C11.3778 19.9268 11.9753 18.5869 13.929 18.4626C15.4404 18.9466 16.5336 19.0236 17.2853 19.0764C17.8831 19.1185 18.2648 19.1454 18.4692 19.3497C18.9397 19.8202 18.8007 20.7612 18.5416 21.1372C18.4286 21.3223 18.1988 21.5248 17.7084 21.6862C17.2142 21.849 16.4864 21.959 15.4301 21.9759C15.3345 21.9775 15.2361 21.9775 15.1348 21.9759L14.7552 21.9701L14.5711 24.3635L14.9648 24.4019C16.1318 24.5158 17.319 25.1588 18.281 25.9677C19.2508 26.7833 19.9178 27.7043 20.1031 28.2963L20.8738 28.0551C20.6228 27.2533 19.8252 26.2112 18.8007 25.3497C17.866 24.5637 16.6817 23.8763 15.4357 23.6527L15.5026 22.7823C16.5684 22.7617 17.3685 22.6483 17.961 22.4533C18.0759 22.4154 18.1841 22.3741 18.2856 22.3293C18.5685 22.5204 18.93 22.6492 19.373 22.7171C19.6476 22.7591 20.1966 22.8421 20.7269 22.6446C21.0097 22.5393 21.2673 22.3632 21.4771 22.0984C21.7188 22.801 22.3326 23.3491 23.118 23.4695L23.2201 23.4851C24.0205 23.6078 24.7838 23.2534 25.2211 22.6341C25.4492 23.3448 26.0617 23.9028 26.8496 24.0235L26.8982 24.031C28.0078 24.2011 29.043 23.3306 29.2131 22.2209C29.3197 21.5255 28.4136 21.5255 28.4136 22.0984C28.3112 22.7665 27.6888 23.3339 27.0207 23.2315L26.9721 23.2241C26.304 23.1217 25.8453 22.4971 25.9477 21.8289C26.0788 20.9737 24.9087 20.7601 24.7747 21.6342C24.6696 22.32 24.0285 22.7908 23.3426 22.6857L23.2405 22.67C22.5547 22.5649 22.084 21.9238 22.1891 21.238C22.316 20.4094 21.2505 20.314 21.1531 20.8319C21.019 21.5446 20.7106 21.7877 20.4447 21.8867C20.1332 22.0027 19.7786 21.961 19.4955 21.9176C19.3162 21.8901 19.1671 21.8526 19.0427 21.8084C19.1142 21.7299 19.1769 21.6464 19.2309 21.5579C19.2428 21.5048 19.2572 21.4523 19.2725 21.3964C19.3337 21.1726 19.4102 20.893 19.4102 20.2907C19.4102 18.8792 18.9438 18.4087 17.9986 18.4087C16.9994 18.4087 15.3929 18.1242 14.2043 17.6584L14.2043 6.42033C14.1958 5.61902 14.6031 4.33035 16.3832 4.31131C17.7699 4.29648 18.2368 5.44659 18.2368 6.42033L18.3183 15.2505C18.4492 14.9506 18.6471 14.6439 18.9081 14.3854C19.3538 13.9442 20.0032 13.6277 20.8222 13.7533C21.8378 13.9089 22.6802 14.7347 22.7287 15.7657C23.1701 15.3857 23.7687 15.1937 24.3895 15.2889L24.4916 15.3045C25.619 15.4773 26.3928 16.5313 26.2201 17.6586L26.1872 17.8727C26.6272 17.4573 27.2473 17.2418 27.8917 17.3406L27.9403 17.348C29.0499 17.5181 29.8116 18.5555 29.6416 19.6652L29.2332 22.3297C29.2211 22.409 29.2045 22.4865 29.1838 22.562Z" fill="white"/>
</svg>
