<?xml version="1.0" encoding="utf-8"?>
<!-- Generator: Adobe Illustrator 16.0.0, SVG Export Plug-In . SVG Version: 6.00 Build 0)  -->
<!DOCTYPE svg PUBLIC "-//W3C//DTD SVG 1.1//EN" "http://www.w3.org/Graphics/SVG/1.1/DTD/svg11.dtd">
<svg version="1.1" id="Layer_1" xmlns="http://www.w3.org/2000/svg" xmlns:xlink="http://www.w3.org/1999/xlink" x="0px" y="0px"
	 width="128px" height="128px" viewBox="0 0 128 128" enable-background="new 0 0 128 128" xml:space="preserve">
<path fill="#FFFFFF" d="M96.906,84.896c0.33,0,0.615-0.119,0.854-0.357c0.229-0.227,0.342-0.508,0.342-0.838V72.43l-6.32,12.436
	l0.273,0.031H96.906L96.906,84.896z M92.055,68.227c-0.33,0-0.613,0.113-0.854,0.342c-0.228,0.24-0.342,0.525-0.342,0.855v11.238
	l6.319-12.4l-0.272-0.033h-4.852V68.227z M102.559,83.088h4.836v4.695h-4.836V83.088z M55.759,86.877h1.538v1.367h-1.538
	c-0.557,0-1.042-0.199-1.452-0.598c-0.398-0.398-0.598-0.883-0.598-1.451v-1.537h1.367v1.537c0,0.195,0.063,0.354,0.188,0.479
	C55.401,86.811,55.566,86.877,55.759,86.877z M53.71,79.791h1.367v3.125H53.71V79.791z M61.396,86.877v1.367h-2.63v-1.367H61.396z
	 M62.865,86.877h2.629v1.367h-2.629V86.877z M66.964,86.877h2.647v1.367h-2.647V86.877z M71.08,88.246v-1.367h1.521
	c0.193,0,0.354-0.066,0.478-0.203c0.138-0.127,0.205-0.283,0.205-0.48v-1.537h1.384v1.537c0,0.57-0.199,1.055-0.597,1.451
	c-0.4,0.398-0.883,0.6-1.453,0.6H71.08L71.08,88.246z M76.137,75.881h2.854l2.356,3.723l2.356-3.723h2.853l-3.792,5.959l3.792,5.943
	h-2.853l-2.356-3.725l-2.356,3.725h-2.854l3.792-5.943L76.137,75.881z M73.283,79.773h1.384v3.143h-1.384V79.773z M73.283,73.166
	v-3.129h1.384v3.129H73.283z M73.283,74.906h1.384v3.125h-1.384V74.906z M56.427,54.991h15.491v23.996l-1.605,3.537h1.605v2.99
	H56.443v-2.99h1.605l-1.605-3.555L56.427,54.991z M73.283,65.17h1.384v3.125h-1.384V65.17z M64.181,35.86
	c-0.593,0-1.163,0.067-1.708,0.204l-0.325-1.332c1.367-0.343,2.728-0.343,4.083,0l-0.342,1.332
	C65.342,35.927,64.771,35.86,64.181,35.86z M69.1,37.96c-0.421-0.434-0.895-0.813-1.418-1.146l0.7-1.178
	c1.071,0.637,2.022,1.56,2.853,2.767L70.09,39.19C69.828,38.781,69.498,38.371,69.1,37.96z M71.013,40.78l1.229-0.6
	c0.49,1.002,0.895,2.096,1.214,3.278l-1.315,0.377C71.832,42.72,71.457,41.701,71.013,40.78z M73.898,45.289
	c0.217,1.037,0.389,2.135,0.514,3.296l-1.35,0.154c-0.137-1.173-0.301-2.233-0.496-3.178L73.898,45.289z M55.077,63.428H53.71
	v-3.126h1.367V63.428z M53.71,55.417h1.367v3.143H53.71V55.417z M55.077,53.694H53.71v-0.685c0-0.787,0.028-1.652,0.085-2.597
	l1.35,0.084c-0.092,1.538-0.114,2.513-0.069,2.92L55.077,53.694L55.077,53.694z M56.427,53.674V53.4
	c-0.035-1.752,0.096-3.659,0.392-5.719c0.603-4.123,1.748-7.045,3.433-8.764c1.082-1.129,2.392-1.693,3.929-1.693
	c1.537,0,2.853,0.564,3.945,1.693c1.685,1.719,2.823,4.641,3.416,8.764c0.296,2.06,0.421,3.972,0.376,5.735v0.258H56.427z
	 M55.794,45.561c-0.183,0.942-0.348,2.005-0.496,3.178l-1.35-0.154c0.149-1.229,0.326-2.326,0.529-3.296L55.794,45.561z
	 M56.135,40.18l1.213,0.601c-0.443,0.92-0.82,1.939-1.127,3.057l-1.297-0.379C55.253,42.251,55.657,41.16,56.135,40.18z
	 M58.27,39.191l-1.126-0.771c0.819-1.195,1.765-2.121,2.834-2.781l0.718,1.178c-0.524,0.319-1.003,0.702-1.436,1.145
	C58.919,38.312,58.589,38.724,58.27,39.191z M113.662,50.105c-1.23-4.373-3.012-8.523-5.346-12.451L74.668,62.352v1.076h-1.383
	V50.651l28.934-21.229c-4.816-5.319-10.477-9.451-16.979-12.4c-6.717-3.052-13.795-4.577-21.23-4.577
	c-6.981,0-13.665,1.354-20.052,4.065c-6.172,2.605-11.638,6.289-16.397,11.052c-4.76,4.758-8.443,10.219-11.051,16.379
	c-2.71,6.388-4.065,13.071-4.065,20.053c0,4.691,0.62,9.275,1.862,13.75c1.207,4.338,2.955,8.459,5.243,12.363l35.527-26.081v14.024
	H53.71v-0.307L25.613,98.375c4.817,5.375,10.493,9.551,17.029,12.535c6.765,3.1,13.887,4.646,21.368,4.646
	c6.979,0,13.664-1.354,20.051-4.064c6.161-2.607,11.622-6.291,16.383-11.051c4.758-4.76,8.441-10.225,11.051-16.396
	c2.709-6.389,4.063-13.072,4.063-20.053C115.558,59.255,114.926,54.625,113.662,50.105z M102.9,64.947h4.101l-0.068,4.135
	c-0.057,2.98-0.12,5.031-0.188,6.148l-0.377,5.48h-2.715c-0.25-2.936-0.403-4.83-0.461-5.688c-0.08-1.104-0.154-3.113-0.222-6.027
	L102.9,64.947z M92.055,65.152h4.852c1.184,0,2.19,0.416,3.023,1.246c0.831,0.844,1.246,1.852,1.246,3.023v14.277
	c0,1.176-0.416,2.176-1.246,3.008c-0.843,0.844-1.852,1.266-3.023,1.266h-4.852c-1.172,0-2.18-0.422-3.021-1.266
	c-0.832-0.832-1.248-1.832-1.248-3.008V69.422c0-1.172,0.416-2.182,1.248-3.023C89.875,65.568,90.883,65.152,92.055,65.152z
	 M88.041,7.06c7.392,3.134,13.938,7.551,19.643,13.257c5.705,5.705,10.124,12.253,13.254,19.642
	c3.245,7.651,4.868,15.663,4.868,24.033c0,8.37-1.623,16.381-4.868,24.034c-3.131,7.389-7.55,13.941-13.254,19.656
	c-5.705,5.707-12.251,10.123-19.643,13.256c-7.651,3.246-15.662,4.867-24.031,4.867c-8.37,0-16.386-1.621-24.049-4.867
	c-7.392-3.133-13.938-7.549-19.643-13.256c-5.705-5.715-10.124-12.27-13.255-19.656c-3.245-7.652-4.868-15.664-4.868-24.034
	c0-8.37,1.623-16.382,4.868-24.033c3.131-7.389,7.55-13.937,13.255-19.642c5.704-5.706,12.251-10.123,19.643-13.257
	C47.624,3.817,55.64,2.195,64.01,2.195C72.379,2.195,80.39,3.817,88.041,7.06z"/>
</svg>
