<?xml version="1.0" encoding="utf-8"?>
<!-- Generator: Adobe Illustrator 16.0.0, SVG Export Plug-In . SVG Version: 6.00 Build 0)  -->
<!DOCTYPE svg PUBLIC "-//W3C//DTD SVG 1.1//EN" "http://www.w3.org/Graphics/SVG/1.1/DTD/svg11.dtd">
<svg version="1.1" xmlns="http://www.w3.org/2000/svg" xmlns:xlink="http://www.w3.org/1999/xlink" x="0px" y="0px"
	 width="20.104px" height="32px" viewBox="0 0 20.104 32" enable-background="new 0 0 20.104 32" xml:space="preserve">
<symbol  id="dude-transit" viewBox="0 -25.1 21.25 25.118">
	<path fill-rule="evenodd" clip-rule="evenodd" fill="#FFFFFF" d="M15.5-4.2l0.75-1.05l1-3.1l3.9-2.65v-0.05
		c0.067-0.1,0.1-0.233,0.1-0.4c0-0.2-0.05-0.383-0.15-0.55c-0.167-0.233-0.383-0.35-0.65-0.35l-4.3,1.8l-1.2,1.65l-1.5-3.95
		l2.25-5.05l-3.25-6.9c-0.267-0.2-0.633-0.3-1.1-0.3c-0.3,0-0.55,0.15-0.75,0.45c-0.1,0.133-0.15,0.25-0.15,0.35
		c0,0.067,0.017,0.15,0.05,0.25c0.033,0.1,0.067,0.184,0.1,0.25l2.55,5.6L10.7-14l-3.05-4.9L0.8-18.7
		c-0.367,0.033-0.6,0.184-0.7,0.45c-0.067,0.3-0.1,0.467-0.1,0.5c0,0.5,0.2,0.767,0.6,0.8l5.7,0.15l2.15,5.4l3.1,5.65L9.4-5.6
		c-1.367-2-2.1-3.033-2.2-3.1C7.1-8.8,6.95-8.85,6.75-8.85C6.35-8.85,6.1-8.667,6-8.3C5.9-8,5.9-7.8,6-7.7H5.95l2.5,4.4l3.7,0.3
		L14-3.5L15.5-4.2z M14.55-2.9c-0.333,0.4-0.45,0.85-0.35,1.35c0.033,0.5,0.25,0.9,0.65,1.2S15.7,0.066,16.2,0
		c0.5-0.067,0.9-0.3,1.2-0.7c0.333-0.4,0.467-0.85,0.4-1.35c-0.066-0.5-0.3-0.9-0.7-1.2c-0.4-0.333-0.85-0.45-1.35-0.35
		C15.25-3.533,14.85-3.3,14.55-2.9z"/>
</symbol>
<g id="Layer_1">
</g>
<g id="Layer_2">
	<g>
		<circle fill="#FFFFFF" cx="9.826" cy="20.694" r="1.557"/>
		<path fill="#FFFFFF" d="M12.52,17.854c-0.345-0.105-0.709,0.089-0.814,0.434l-0.409,1.339c0.219,0.3,0.348,0.669,0.348,1.068
			c0,1.002-0.815,1.817-1.817,1.817c-1.003,0-1.817-0.815-1.817-1.817c0-0.358,0.104-0.692,0.283-0.974l-0.438-1.434
			c-0.104-0.345-0.47-0.539-0.813-0.434c-0.346,0.105-0.539,0.47-0.434,0.814l1.588,5.198v7.141c0,0.36,0.291,0.652,0.651,0.652
			c0.361,0,0.652-0.292,0.652-0.652v-2.271h0.588v2.336c0,0.36,0.292,0.652,0.652,0.652c0.359,0,0.652-0.292,0.652-0.652v-7.292
			l1.561-5.111C13.058,18.324,12.863,17.959,12.52,17.854z"/>
	</g>
	<g>
		<path fill="#FFFFFF" d="M10.028,0.359c-5.493,0-9.946,3.883-9.946,8.674c0,0.797,0.124,1.569,0.355,2.303
			c0,0,5.971,7.113,5.971,7.113c0.019-0.151,0.074-0.293,0.161-0.416l-5.755-6.846c0.442-0.149,0.94-0.234,1.467-0.234
			c1.063,0,2.008,0.342,2.612,0.873l2.374,5.822c0.016,0,0.031-0.002,0.046-0.002c0.149,0,0.292,0.036,0.417,0.1L5.231,11.62
			c0.552-0.412,1.316-0.667,2.162-0.667c0.93,0,1.761,0.308,2.319,0.792v7.224c0.064-0.006,0.129-0.011,0.195-0.011
			s0.132,0.004,0.195,0.011v-7.187c0.559-0.506,1.408-0.829,2.359-0.829c0.843,0,1.604,0.253,2.155,0.661l-2.478,6.073
			c0.085-0.026,0.176-0.04,0.27-0.04c0.055,0,0.109,0.005,0.164,0.016l2.356-5.778c0.002,0.001,0.003,0.002,0.005,0.004
			c0.6-0.566,1.577-0.936,2.682-0.936c0.584,0,1.132,0.104,1.607,0.284l-6.067,6.799c0.085,0.121,0.14,0.261,0.159,0.41
			c0,0,6.279-7.045,6.282-7.044c0.245-0.753,0.376-1.547,0.376-2.369C19.975,4.242,15.521,0.359,10.028,0.359z"/>
	</g>
</g>
</svg>
