<?xml version="1.0" encoding="utf-8"?>
<!-- Generator: Adobe Illustrator 16.0.0, SVG Export Plug-In . SVG Version: 6.00 Build 0)  -->
<!DOCTYPE svg PUBLIC "-//W3C//DTD SVG 1.1//EN" "http://www.w3.org/Graphics/SVG/1.1/DTD/svg11.dtd">
<svg version="1.1" id="Layer_1" xmlns="http://www.w3.org/2000/svg" xmlns:xlink="http://www.w3.org/1999/xlink" x="0px" y="0px"
	 width="21.886px" height="32px" viewBox="0 0 21.886 32" enable-background="new 0 0 21.886 32" xml:space="preserve">
<g id="Layer_1_1_">
</g>
<g>
	<path fill="none" d="M7.642,12.231l2.07,5.075v-4.909C9.147,12.09,8.308,12.021,7.642,12.231z"/>
	<path fill="none" d="M11.949,12.42v4.773c0.038-0.045,0.08-0.082,0.123-0.121l1.977-4.844C13.372,12.02,12.518,12.097,11.949,12.42
		z"/>
	<path fill="none" d="M4.17,12.138l1.974,2.348l-0.782-1.918C5.048,12.35,4.63,12.2,4.17,12.138z"/>
	<path fill="none" d="M15.521,14.545l2.16-2.421c-0.54,0.054-1.028,0.229-1.374,0.493L15.521,14.545z"/>
	<path fill="#FFFFFF" d="M21.19,9.373c0.002-2.443-1.081-4.734-3.046-6.448c-1.929-1.683-4.486-2.609-7.201-2.609
		c-5.649,0-10.246,4.063-10.246,9.057c0,0.512,0.048,1.023,0.145,1.526L0.716,10.94l0.178,0.211c0.05,0.221,0.109,0.44,0.178,0.658
		l0.055,0.178l5.712,6.804l0.075,0.092l1.379,4.516v6.545c0,0.854,0.694,1.547,1.547,1.547c0.311,0,0.601-0.092,0.843-0.25
		c0.259,0.195,0.58,0.311,0.929,0.311c0.852,0,1.546-0.693,1.546-1.547v-6.686l1.283-4.197l0.279-0.314c0,0,4.442-4.985,5.601-6.281
		h0.262l0.21-0.646c0.067-0.207,0.126-0.415,0.178-0.626l0.188-0.211l-0.132-0.05C21.135,10.46,21.19,9.918,21.19,9.373z
		 M13.683,18.393l-1.463,4.785v6.826c0,0.338-0.273,0.609-0.609,0.609c-0.338,0-0.61-0.271-0.61-0.609v-2.188h-0.551v2.127
		c0,0.338-0.272,0.611-0.61,0.611s-0.61-0.273-0.61-0.611v-6.686l-1.486-4.865c-0.098-0.322,0.082-0.664,0.407-0.764
		c0.32-0.098,0.664,0.084,0.76,0.406l0.411,1.342c-0.167,0.266-0.265,0.578-0.265,0.914c0,0.938,0.762,1.701,1.701,1.701
		c0.938,0,1.7-0.764,1.7-1.701c0-0.373-0.121-0.719-0.326-1.002l0.384-1.252c0.098-0.322,0.438-0.504,0.762-0.408
		C13.597,17.729,13.781,18.07,13.683,18.393z M12.212,20.289c0,0.805-0.652,1.459-1.457,1.459c-0.806,0-1.459-0.654-1.459-1.459
		s0.653-1.459,1.459-1.459C11.56,18.83,12.212,19.484,12.212,20.289z M11.949,17.193V12.42c0.568-0.323,1.423-0.4,2.1-0.191
		l-1.977,4.844C12.03,17.111,11.988,17.148,11.949,17.193z M9.712,17.307l-2.07-5.075c0.666-0.21,1.505-0.142,2.07,0.166V17.307z
		 M19.902,11.59c-0.003-0.001-5.882,6.594-5.882,6.594c-0.017-0.139-0.068-0.268-0.148-0.383l5.681-6.366
		c-0.444-0.168-0.958-0.265-1.504-0.265c-1.036,0-1.95,0.346-2.513,0.875c-0.002-0.001-0.003-0.002-0.004-0.003l-2.207,5.41
		c-0.051-0.01-0.101-0.016-0.152-0.016c-0.089,0-0.174,0.016-0.253,0.039l2.32-5.686c-0.517-0.383-1.229-0.619-2.018-0.619
		c-0.891,0-1.685,0.302-2.209,0.776v6.728c-0.059-0.006-0.12-0.008-0.183-0.008c-0.062,0-0.123,0.002-0.183,0.008v-6.763
		c-0.523-0.454-1.3-0.742-2.172-0.742c-0.791,0-1.506,0.238-2.023,0.625l2.34,5.735c-0.117-0.061-0.25-0.094-0.391-0.094
		c-0.014,0-0.027,0.002-0.043,0.002l-2.223-5.451c-0.564-0.498-1.45-0.817-2.445-0.817c-0.493,0-0.959,0.079-1.373,0.219
		l5.387,6.408c-0.081,0.117-0.133,0.25-0.149,0.391l-5.591-6.66c-0.215-0.688-0.332-1.41-0.332-2.156
		c0-4.485,4.169-8.121,9.311-8.121c5.144,0,9.313,3.636,9.311,8.121C20.253,10.142,20.131,10.884,19.902,11.59z M15.521,14.545
		l0.786-1.928c0.346-0.264,0.834-0.439,1.374-0.493L15.521,14.545z M6.144,14.486L4.17,12.138c0.46,0.062,0.878,0.212,1.191,0.43
		L6.144,14.486z"/>
	<circle fill="#939598" cx="10.755" cy="20.289" r="1.459"/>
	<path fill="#939598" d="M13.277,17.629c-0.323-0.096-0.664,0.086-0.762,0.408l-0.384,1.252c0.205,0.283,0.326,0.629,0.326,1.002
		c0,0.938-0.763,1.701-1.7,1.701c-0.939,0-1.701-0.764-1.701-1.701c0-0.336,0.098-0.648,0.265-0.914l-0.411-1.342
		c-0.096-0.322-0.439-0.504-0.76-0.406c-0.325,0.1-0.505,0.441-0.407,0.764l1.486,4.865v6.686c0,0.338,0.272,0.611,0.61,0.611
		s0.61-0.273,0.61-0.611v-2.127H11v2.188c0,0.338,0.272,0.609,0.61,0.609c0.336,0,0.609-0.271,0.609-0.609v-6.826l1.463-4.785
		C13.781,18.07,13.597,17.729,13.277,17.629z"/>
	<path fill="#939598" d="M10.943,1.25c-5.142,0-9.311,3.636-9.311,8.121c0,0.746,0.117,1.469,0.332,2.156l5.591,6.66
		c0.017-0.141,0.068-0.273,0.149-0.391l-5.387-6.408c0.414-0.14,0.88-0.219,1.373-0.219c0.995,0,1.881,0.32,2.445,0.817l2.223,5.451
		c0.016,0,0.029-0.002,0.043-0.002c0.141,0,0.273,0.033,0.391,0.094l-2.34-5.735c0.518-0.386,1.232-0.625,2.023-0.625
		c0.872,0,1.648,0.288,2.172,0.742v6.763c0.06-0.006,0.121-0.008,0.183-0.008c0.063,0,0.124,0.002,0.183,0.008v-6.728
		c0.524-0.475,1.318-0.776,2.209-0.776c0.789,0,1.501,0.236,2.018,0.619l-2.32,5.686c0.079-0.023,0.164-0.039,0.253-0.039
		c0.052,0,0.102,0.006,0.152,0.016l2.207-5.41c0.001,0.001,0.002,0.002,0.004,0.003c0.563-0.529,1.477-0.875,2.513-0.875
		c0.546,0,1.06,0.097,1.504,0.265l-5.681,6.366c0.08,0.115,0.132,0.244,0.148,0.383c0,0,5.879-6.595,5.882-6.594
		c0.229-0.706,0.352-1.448,0.352-2.218C20.256,4.886,16.086,1.25,10.943,1.25z"/>
</g>
</svg>
