<svg width="66" height="79" viewBox="0 0 66 79" fill="none" xmlns="http://www.w3.org/2000/svg">
<g filter="url(#filter0_d)">
<path fill-rule="evenodd" clip-rule="evenodd" d="M46.6415 16.0526L32.3631 0.0284424L18.7877 15.2636C7.70962 20.2659 0 31.41 0 44.3549C0 61.9745 14.2836 76.2581 31.9032 76.2581C49.5229 76.2581 63.8064 61.9745 63.8064 44.3549C63.8064 32.052 56.8425 21.3756 46.6415 16.0526ZM60.8064 44.3549C60.8064 60.3177 47.866 73.2581 31.9032 73.2581C15.9404 73.2581 3 60.3177 3 44.3549C3 28.3921 15.9404 15.4516 31.9032 15.4516C47.866 15.4516 60.8064 28.3921 60.8064 44.3549Z" fill="white"/>
</g>
<defs>
<filter id="filter0_d" x="0" y="0.0284424" width="65.8064" height="78.2296" filterUnits="userSpaceOnUse" color-interpolation-filters="sRGB">
<feFlood flood-opacity="0" result="BackgroundImageFix"/>
<feColorMatrix in="SourceAlpha" type="matrix" values="0 0 0 0 0 0 0 0 0 0 0 0 0 0 0 0 0 0 127 0"/>
<feOffset dx="1" dy="1"/>
<feGaussianBlur stdDeviation="0.5"/>
<feColorMatrix type="matrix" values="0 0 0 0 0 0 0 0 0 0 0 0 0 0 0 0 0 0 0.5 0"/>
<feBlend mode="normal" in2="BackgroundImageFix" result="effect1_dropShadow"/>
<feBlend mode="normal" in="SourceGraphic" in2="effect1_dropShadow" result="shape"/>
</filter>
</defs>
</svg>
