<?xml version="1.0" encoding="utf-8"?>
<!-- Generator: Adobe Illustrator 16.2.0, SVG Export Plug-In . SVG Version: 6.00 Build 0)  -->
<!DOCTYPE svg PUBLIC "-//W3C//DTD SVG 1.1//EN" "http://www.w3.org/Graphics/SVG/1.1/DTD/svg11.dtd">
<svg version="1.1" id="Layer_1" xmlns="http://www.w3.org/2000/svg" xmlns:xlink="http://www.w3.org/1999/xlink" x="0px" y="0px"
	 width="32px" height="32px" viewBox="0 0 32 32" enable-background="new 0 0 32 32" xml:space="preserve">
<g id="Layer_1_1_">
</g>
<g>
	<path fill-rule="evenodd" clip-rule="evenodd" fill="#586871" d="M15.899,27.387c0,0-9.86-4.363-9.86-10.619
		c0-5.683,0-9.471,0-9.471s2.465-0.049,5.067-0.776c2.456-0.687,4.793-1.979,4.793-1.979s1.907,1.188,4.774,1.988
		c2.866,0.8,5.086,0.767,5.086,0.767s0,3.099,0,9.471C25.76,24.172,15.899,27.387,15.899,27.387z"/>
</g>
<g>
	<linearGradient id="SVGID_1_" gradientUnits="userSpaceOnUse" x1="24.8789" y1="15.9634" x2="6.8706" y2="15.9634">
		<stop  offset="0" style="stop-color:#425059"/>
		<stop  offset="0.0165" style="stop-color:#404D56"/>
		<stop  offset="0.1569" style="stop-color:#343C45"/>
		<stop  offset="0.3096" style="stop-color:#2D323B"/>
		<stop  offset="0.4961" style="stop-color:#2B2F38"/>
		<stop  offset="0.5424" style="stop-color:#343C45"/>
		<stop  offset="0.6148" style="stop-color:#3C4750"/>
		<stop  offset="0.7168" style="stop-color:#414E57"/>
		<stop  offset="1" style="stop-color:#425059"/>
	</linearGradient>
	<path fill-rule="evenodd" clip-rule="evenodd" fill="url(#SVGID_1_)" d="M15.874,26.395c0,0-9.004-3.982-9.004-9.697
		c0-5.189,0-8.648,0-8.648s2.252-0.044,4.627-0.709c2.242-0.626,4.377-1.808,4.377-1.808s1.742,1.084,4.36,1.815
		s4.645,0.701,4.645,0.701s0,2.83,0,8.648C24.879,23.459,15.874,26.395,15.874,26.395z"/>
</g>
<g opacity="0.2">
	<g>
		<defs>
			<rect id="SVGID_2_" x="9.145" y="11.439" width="13.605" height="5.65"/>
		</defs>
		<clipPath id="SVGID_3_">
			<use xlink:href="#SVGID_2_"  overflow="visible"/>
		</clipPath>
		<path clip-path="url(#SVGID_3_)" fill="#FFFFFF" d="M16.973,12.577c0,0,0,0.006-0.008,0.015c-0.009,0.009-0.019,0.01-0.019,0.01
			h-0.113c0,0-0.021,0.001-0.029-0.006c-0.001,0-0.002-0.001-0.002-0.002c0.003-0.001,0.007-0.002,0.01-0.002
			c0.008-0.002,0.021-0.002,0.029-0.004c0.006,0.006,0.011,0.009,0.011,0.009l0.006-0.001c0,0-0.004-0.005-0.008-0.012
			c0.004-0.002,0.007-0.005,0.009-0.007c0.003-0.003,0.006-0.009,0.008-0.014c0.001-0.005-0.005-0.035-0.005-0.037
			c-0.001-0.001-0.001-0.002-0.003-0.005c0.003-0.003,0.008-0.007,0.015-0.01c0.021-0.01,0.023-0.009,0.023-0.009h0.05
			c0,0,0.014-0.002,0.02,0.005s0.007,0.014,0.007,0.014V12.577L16.973,12.577z M16.881,12.713c-0.015,0.027-0.059,0.083-0.059,0.083
			s-0.045-0.089-0.057-0.105c-0.004-0.005-0.014-0.018-0.024-0.033c0.003-0.006,0.023-0.04,0.024-0.041
			c0-0.002,0.013-0.005,0.013-0.005l0.006,0.005h0.162c0,0,0.004,0.001,0.011,0C16.929,12.651,16.891,12.696,16.881,12.713
			L16.881,12.713z M16.801,12.507c0.005-0.004,0.014-0.005,0.014-0.005s0.011-0.002,0.011,0v0.011L16.801,12.507
			C16.8,12.507,16.8,12.507,16.801,12.507L16.801,12.507z M18.599,12.276h-0.162l-0.01-0.011h-0.015l-0.01,0.01h-0.018v0.016h-0.326
			l-0.012-0.005v-0.045h0.015l-0.011-0.037h-0.032v0.013h-0.023V12.19h-0.018v-0.185h-0.044v0.222h-0.038v-0.059h-1.193
			l-0.001-0.039l-0.061-0.006l-0.01-0.015l-0.007-0.092l-0.027,0.001l-0.01,0.09c0,0-0.007,0.004-0.011,0.021
			s0.004,0.031,0.004,0.031h-0.081l-0.011,0.017l-0.037,0.001l-0.042,0.016c0,0-0.056,0.005-0.117,0.01l0-0.002
			c0,0,0.013-0.006,0.017-0.01s0.006-0.013,0.006-0.013c0.001-0.011-0.009-0.04-0.009-0.04l-0.01-0.039l0.003-0.053
			c0,0,0.055-0.014,0.063-0.019c0.008-0.005,0.005-0.01,0.005-0.01s0.021,0.003,0.052-0.021c0.03-0.024,0.028-0.142,0.023-0.193
			c-0.005-0.051-0.047-0.155-0.047-0.155s0.012-0.026,0.006-0.04c-0.006-0.015-0.019-0.021-0.025-0.024
			c-0.006-0.004-0.053-0.028-0.061-0.03c-0.007-0.002-0.016-0.004-0.016-0.004s-0.099-0.073-0.145-0.087
			c-0.046-0.014-0.053-0.021-0.146-0.023s-0.242,0.047-0.332,0.183c-0.089,0.136-0.089,0.31-0.081,0.344
			c0.008,0.034,0.037,0.123,0.037,0.123l-0.041,0.041c0,0-0.041-0.041-0.057-0.05c-0.016-0.009-0.144-0.013-0.248,0.05
			c-0.103,0.063-0.213,0.207-0.257,0.417c-0.044,0.21-0.019,0.326-0.016,0.357c0.003,0.032,0.012,0.047,0.012,0.047l-0.006,0.044
			c0,0-0.06,0.019-0.085,0.021c-0.025,0.003-0.075-0.009-0.1,0c-0.025,0.01-0.038,0.022-0.043,0.035
			c-0.007,0.013-0.013,0.289-0.022,0.32c-0.009,0.031-0.032,0.153-0.029,0.197c0.003,0.044-0.006,0.025,0.025,0.038
			c0.032,0.013,0.207,0.041,0.207,0.041s-0.063,0.006-0.088,0.016c-0.025,0.01-0.069,0.041-0.078,0.057s0,0.207,0,0.207
			s0.021,0.101,0.021,0.113c0,0.013,0,0.013,0,0.013l0.015,0.213l0.002,0.025c0,0-0.023-0.016-0.033-0.014
			c-0.009,0.002-0.025,0.013-0.035,0.023s-0.037,0.115-0.034,0.124s0.044,0.035,0.044,0.035s-0.042,0.063-0.04,0.071
			c0.002,0.008,0.015,0.028,0.026,0.041s-0.021,0.039-0.005,0.066s0.038,0.043,0.038,0.043s-0.091,0.469-0.072,0.548
			c0.019,0.078-0.002,0.137-0.002,0.137s-0.045,0.067-0.057,0.09c-0.012,0.023-0.018,0.052-0.018,0.052s-0.043,0.044-0.055,0.066
			c-0.011,0.023-0.121,0.2-0.129,0.265c-0.007,0.065-0.002,0.098-0.019,0.138s-0.057,0.101-0.075,0.137
			c-0.02,0.036-0.029,0.068-0.031,0.118s-0.006,0.086,0.013,0.103s0.027,0.023,0.027,0.023s-0.067,0.266-0.088,0.35
			c-0.021,0.083-0.048,0.156-0.048,0.207c0,0.052,0.01,0.141,0.019,0.15c0.009,0.01,0.125,0.029,0.18,0.029
			c0.083,0,0.212-0.016,0.22-0.018c0.007-0.002,0.015-0.087,0.015-0.087s-0.008-0.05-0.027-0.073
			c-0.016-0.019-0.015-0.067-0.016-0.094c-0.001-0.018,0.001-0.115,0.005-0.173c0.004-0.057,0.09-0.246,0.09-0.246
			s0.048,0.002,0.071-0.031c0.023-0.032,0.069-0.177,0.072-0.194c0.004-0.017,0.062-0.115,0.096-0.202
			c0.034-0.088,0.042-0.128,0.034-0.153c-0.008-0.025-0.011-0.076-0.011-0.076s0.041-0.076,0.05-0.114
			c0.009-0.038,0.046-0.034,0.073-0.069c0.027-0.035,0.062-0.122,0.062-0.122s0.059-0.023,0.072-0.048
			c0.014-0.025,0.027-0.084,0.029-0.129c0.002-0.046,0.049-0.157,0.057-0.18s0.07-0.177,0.07-0.177s0.069-0.063,0.09-0.105
			s0.029-0.105,0.029-0.105s0.062,0.145,0.1,0.159c0.038,0.013,0.103,0.013,0.103,0.013l0.292,0.435c0,0,0.055,0.021,0.078,0.021
			c0.022,0,0.085-0.007,0.085-0.007l0.052,0.078l-0.017,0.187c0,0-0.038,0.021-0.046,0.065c-0.007,0.044,0.019,0.387,0.045,0.45
			c0.027,0.063,0.016,0.109,0.023,0.128c0.008,0.019,0.031,0.019,0.032,0.019l0.021,0.347c0,0-0.038,0.04-0.042,0.084
			s-0.027,0.11-0.027,0.11s-0.019,0.124-0.011,0.136c0.007,0.012,0.047,0.032,0.106,0.032c0.06,0,0.134-0.017,0.147-0.011
			c0.013,0.006,0.141,0.04,0.146,0.044c0.006,0.003,0.21,0.021,0.266,0.017c0.055-0.004,0.173-0.012,0.183-0.019
			c0.01-0.008,0.012-0.084,0.012-0.084s-0.004-0.04-0.032-0.054s-0.071-0.046-0.104-0.052s-0.072-0.019-0.093-0.03
			c-0.021-0.012-0.178-0.2-0.186-0.214c-0.008-0.013-0.024-0.122-0.02-0.171c0.006-0.05,0.008-0.177,0.008-0.177
			s0.028-0.034,0.03-0.042s0.018-0.107,0.014-0.131c-0.004-0.025-0.025-0.132-0.025-0.132s0.031-0.177,0.033-0.2
			c0.001-0.023,0.028-0.345,0.026-0.391c-0.002-0.046-0.034-0.081-0.034-0.081s-0.002-0.101-0.011-0.108
			c-0.01-0.008-0.033,0.003-0.041-0.002c-0.007-0.006-0.084-0.243-0.196-0.475s-0.28-0.395-0.28-0.395l-0.035-0.16l0.035-0.066
			c0,0,0.083,0.038,0.11,0.036c0.026-0.002,0.106-0.162,0.101-0.189c-0.006-0.027,0.038-0.433,0.022-0.463
			c-0.015-0.031-0.015-0.063-0.045-0.086c-0.031-0.023-0.086-0.042-0.086-0.042s0.028-0.067,0.033-0.081
			c0.005-0.014-0.001-0.053-0.001-0.053s0.126,0.072,0.192,0.106c0.064,0.034,0.182,0.087,0.224,0.091c0.042,0.004,0.065,0,0.065,0
			s0.019,0.024,0.039,0.025c0.084,0.003,0.149-0.069,0.153-0.073c0.004-0.005,0.019-0.027,0.019-0.027s0.026-0.006,0.057-0.03
			c0.031-0.024,0.066-0.086,0.067-0.112c0-0.013,0.021-0.108,0.043-0.2l0.098-0.026c0,0-0.03-0.094-0.048-0.192
			c-0.002-0.009-0.003-0.018-0.004-0.026l0.004-0.088c0,0,0.031-0.004,0.044-0.022c0.012-0.018,0.026-0.035,0.031-0.041
			c0.009-0.011,0.035-0.021,0.044-0.035c0.009-0.013,0-0.029,0.005-0.041c0.002-0.005,0.023-0.002,0.04-0.011
			c0.011-0.005,0.019-0.013,0.025-0.021c0,0,0,0-0.001,0h0.492v-0.064h0.034v0.009h0.113v-0.007l0.014-0.006h0.328v0.016l0.018,0
			l0.008,0.007h0.014l0.01-0.013h0.165c0,0,0.006-0.023,0.006-0.042C18.607,12.296,18.599,12.276,18.599,12.276L18.599,12.276z"/>
	</g>
	<path fill="#FFFFFF" d="M11.33,15.675c-0.024,0.243-0.23,0.432-0.48,0.432H9.627c-0.267,0-0.482-0.216-0.482-0.482v-1.045
		c0-0.267,0.216-0.482,0.482-0.482h1.223c0.247,0,0.45,0.185,0.479,0.424v0.024H9.681v1.105h1.649V15.675L11.33,15.675z"/>
	<path fill="#FFFFFF" d="M13.463,15.313v0.359h-1.755c0.024,0.244,0.229,0.435,0.48,0.435h1.282c0.267,0,0.482-0.216,0.482-0.482
		v-0.312c-0.022-0.244-0.228-0.434-0.478-0.434h-1.28V14.53h1.721h-0.002c-0.024-0.243-0.23-0.434-0.48-0.434h-1.246
		c-0.267,0-0.482,0.216-0.482,0.482v0.299c0.023,0.244,0.229,0.435,0.48,0.435L13.463,15.313L13.463,15.313z"/>
	<path fill="#FFFFFF" d="M20.456,15.717h1.315v-1.263h-1.315V15.717L20.456,15.717z M20.486,16.088
		c-0.256,0-0.463-0.207-0.463-0.462v-1.085c0-0.255,0.207-0.462,0.463-0.462h1.254c0.256,0,0.463,0.207,0.463,0.462v1.085
		c0,0.255-0.207,0.462-0.463,0.462H20.486L20.486,16.088z"/>
	<path fill="#FFFFFF" d="M17.831,16.089c-0.255,0-0.463-0.208-0.463-0.462v-1.084c0-0.255,0.208-0.462,0.463-0.462h1.342
		c0.228,0,0.421,0.166,0.456,0.389h-1.833v1.223h1.406v-0.439l-0.67,0c-0.043,0-0.191-0.009-0.289-0.132
		c-0.073-0.092-0.094-0.165-0.099-0.204h1.487v0.762c-0.023,0.232-0.221,0.41-0.459,0.41H17.831L17.831,16.089z"/>
	<path fill="#FFFFFF" d="M22.532,14.135h0.043l0.066,0.168l0.065-0.168h0.043v0.208h-0.027V14.16h-0.001l-0.073,0.183h-0.015
		L22.56,14.16h-0.001v0.183h-0.026V14.135L22.532,14.135z M22.401,14.158h-0.067v-0.023h0.161v0.023h-0.067v0.185h-0.026V14.158
		L22.401,14.158z"/>
</g>
</svg>
