<?xml version="1.0" encoding="utf-8"?>
<!-- Generator: Adobe Illustrator 16.2.0, SVG Export Plug-In . SVG Version: 6.00 Build 0)  -->
<!DOCTYPE svg PUBLIC "-//W3C//DTD SVG 1.1//EN" "http://www.w3.org/Graphics/SVG/1.1/DTD/svg11.dtd">
<svg version="1.1" id="Layer_1" xmlns="http://www.w3.org/2000/svg" xmlns:xlink="http://www.w3.org/1999/xlink" x="0px" y="0px"
	 width="32px" height="32px" viewBox="0 0 32 32" enable-background="new 0 0 32 32" xml:space="preserve">
<g id="Layer_1_1_">
</g>
<path fill="none" stroke="#FFFFFF" stroke-width="0.885" stroke-linecap="round" stroke-linejoin="round" stroke-miterlimit="10" d="
	M17.911,19.456"/>
<path fill="none" stroke="#FFFFFF" stroke-width="0.885" stroke-linecap="round" stroke-linejoin="round" stroke-miterlimit="10" d="
	M14.819,19.456"/>
<path fill="#FFFFFF" d="M5.247,23.883"/>
<linearGradient id="SVGID_1_" gradientUnits="userSpaceOnUse" x1="470.3496" y1="797.4336" x2="502.5908" y2="797.4336" gradientTransform="matrix(0 1 -1 0 813.4375 -470.5898)">
	<stop  offset="0" style="stop-color:#38454D"/>
	<stop  offset="1" style="stop-color:#232B34"/>
</linearGradient>
<rect x="-0.083" y="-0.24" fill-rule="evenodd" clip-rule="evenodd" fill="url(#SVGID_1_)" width="32.173" height="32.24"/>
<g opacity="0.1">
	<image overflow="visible" width="99" height="108" xlink:href="6F03BD87.png"  transform="matrix(1 0 0 1 -33.5 -44.6934)">
	</image>
</g>
<path fill-rule="evenodd" clip-rule="evenodd" fill="#586871" d="M22.369,10.959c0,3.961-3.098,9.119-6.917,9.119
	c-3.82,0-6.918-5.098-6.918-9.119c0-4.697,0.994-9.121,6.918-9.121C20.88,1.838,22.369,6.02,22.369,10.959z"/>
<path fill-rule="evenodd" clip-rule="evenodd" fill="#586871" d="M32.117,24.258c0-1.104-0.945-1.857-2.102-2.102l-9.783-2.641
	c0,0-0.905,0.946-2.123,1.479c-0.735,0.321-1.609,0.563-2.658,0.563c-1.045,0-1.813-0.222-2.639-0.594
	c-1.233-0.556-2.25-1.477-2.25-1.477l-8.734,2.67c-1.281,0.275-2,0.896-2,2V30c0,0.522,0.008,2,0.008,2s1.41,0,1.992,0h28.188
	c0.58,0,2.074,0,2.074,0s0.027-1.476,0.027-2V24.258z"/>
</svg>
