<?xml version="1.0" encoding="utf-8"?>
<!-- Generator: Adobe Illustrator 16.0.0, SVG Export Plug-In . SVG Version: 6.00 Build 0)  -->
<!DOCTYPE svg PUBLIC "-//W3C//DTD SVG 1.1//EN" "http://www.w3.org/Graphics/SVG/1.1/DTD/svg11.dtd">
<svg version="1.1" xmlns="http://www.w3.org/2000/svg" xmlns:xlink="http://www.w3.org/1999/xlink" x="0px" y="0px" width="32px"
	 height="32px" viewBox="0 0 32 32" enable-background="new 0 0 32 32" xml:space="preserve">
<symbol  id="dude-transit" viewBox="0 -25.1 21.25 25.118">
	<path fill-rule="evenodd" clip-rule="evenodd" fill="#FFFFFF" d="M15.5-4.2l0.75-1.05l1-3.1l3.9-2.65v-0.05
		c0.067-0.1,0.1-0.233,0.1-0.4c0-0.2-0.05-0.383-0.15-0.55c-0.167-0.233-0.383-0.35-0.65-0.35l-4.3,1.8l-1.2,1.65l-1.5-3.95
		l2.25-5.05l-3.25-6.9c-0.267-0.2-0.633-0.3-1.1-0.3c-0.3,0-0.55,0.15-0.75,0.45c-0.1,0.133-0.15,0.25-0.15,0.35
		c0,0.067,0.017,0.15,0.05,0.25c0.033,0.1,0.067,0.184,0.1,0.25l2.55,5.6L10.7-14l-3.05-4.9L0.8-18.7
		c-0.367,0.033-0.6,0.184-0.7,0.45c-0.067,0.3-0.1,0.467-0.1,0.5c0,0.5,0.2,0.767,0.6,0.8l5.7,0.15l2.15,5.4l3.1,5.65L9.4-5.6
		c-1.367-2-2.1-3.033-2.2-3.1C7.1-8.8,6.95-8.85,6.75-8.85C6.35-8.85,6.1-8.667,6-8.3C5.9-8,5.9-7.8,6-7.7H5.95l2.5,4.4l3.7,0.3
		L14-3.5L15.5-4.2z M14.55-2.9c-0.333,0.4-0.45,0.85-0.35,1.35c0.033,0.5,0.25,0.9,0.65,1.2S15.7,0.066,16.2,0
		c0.5-0.067,0.9-0.3,1.2-0.7c0.333-0.4,0.467-0.85,0.4-1.35c-0.066-0.5-0.3-0.9-0.7-1.2c-0.4-0.333-0.85-0.45-1.35-0.35
		C15.25-3.533,14.85-3.3,14.55-2.9z"/>
</symbol>
<g id="Layer_1">
</g>
<g id="Layer_2">
	<g>
		<rect x="0.502" y="0.502" fill-rule="evenodd" clip-rule="evenodd" fill="#2B2F38" width="30.996" height="30.996"/>
		<path fill="#586770" d="M30.996,1.004v29.992H1.004V1.004H30.996 M32,0H0v32h32V0L32,0z"/>
	</g>
	<path fill-rule="evenodd" clip-rule="evenodd" fill="#425059" d="M15.054,0.958h15.926v30.114H18.021c0,0,0.177-5.383-0.613-9.117
		c-0.483-2.292-1.951-2.261-2.221-5.008C14.418,9.136,15.054,0.958,15.054,0.958z"/>
	<path fill="#586770" d="M29.967,5.583l-0.901-0.001L29.01,5.519l-0.08,0l-0.056,0.054h-0.096v0.089l-1.813-0.005l-0.064-0.029
		V5.328l0.081,0l-0.061-0.203l-0.177,0v0.072h-0.134V5.05h-0.094V4.038l-0.243-0.001v1.214l-0.214,0l0.001-0.32l-6.595-0.014
		l-0.002-0.212l-0.336-0.031l-0.05-0.08l-0.038-0.501l-0.149,0.007l-0.055,0.49c0,0-0.042,0.021-0.063,0.11
		C18.755,4.792,18.8,4.871,18.8,4.871L18.352,4.87L18.294,4.96L18.09,4.964L17.857,5.05c0,0-0.308,0.025-0.645,0.051l0.002-0.014
		c0,0,0.071-0.031,0.093-0.056c0.023-0.022,0.035-0.067,0.035-0.067c0.004-0.059-0.048-0.22-0.048-0.22L17.24,4.531l0.017-0.29
		c0,0,0.305-0.074,0.35-0.101c0.045-0.027,0.027-0.056,0.027-0.056s0.112,0.018,0.282-0.111c0.169-0.129,0.159-0.771,0.131-1.051
		c-0.027-0.28-0.258-0.845-0.258-0.845s0.066-0.138,0.033-0.218c-0.033-0.077-0.102-0.111-0.136-0.133
		c-0.033-0.022-0.293-0.152-0.332-0.163s-0.088-0.022-0.088-0.022s-0.542-0.396-0.796-0.475c-0.253-0.078-0.289-0.118-0.799-0.125
		c-0.512-0.007-1.326,0.254-1.816,0.994c-0.486,0.739-0.488,1.685-0.442,1.87c0.047,0.184,0.201,0.666,0.201,0.666l-0.222,0.222
		c0,0-0.222-0.222-0.307-0.273c-0.088-0.051-0.789-0.07-1.354,0.27c-0.564,0.339-1.164,1.121-1.404,2.26
		c-0.241,1.14-0.105,1.769-0.09,1.939c0.017,0.17,0.068,0.257,0.068,0.257l-0.033,0.237c0,0-0.326,0.101-0.463,0.116
		C9.674,9.515,9.4,9.447,9.266,9.496c-0.137,0.051-0.205,0.12-0.24,0.187c-0.034,0.069-0.069,1.565-0.121,1.735
		c-0.05,0.169-0.175,0.833-0.16,1.07c0.018,0.238-0.033,0.137,0.137,0.206c0.171,0.069,1.126,0.228,1.126,0.228
		s-0.342,0.031-0.478,0.083c-0.138,0.05-0.375,0.22-0.427,0.303c-0.051,0.085-0.002,1.124-0.002,1.124s0.118,0.546,0.118,0.614
		c0,0.067,0,0.067,0,0.067L9.3,16.27l0.009,0.134c0,0-0.127-0.089-0.18-0.078c-0.053,0.012-0.14,0.068-0.188,0.128
		c-0.051,0.057-0.203,0.621-0.187,0.668s0.239,0.193,0.239,0.193s-0.228,0.344-0.218,0.383c0.014,0.042,0.084,0.153,0.142,0.223
		c0.059,0.072-0.117,0.208-0.03,0.361c0.088,0.153,0.204,0.236,0.204,0.236s-0.5,2.547-0.396,2.974
		c0.104,0.426-0.014,0.746-0.014,0.746s-0.247,0.36-0.31,0.484C8.31,22.846,8.276,23,8.276,23s-0.237,0.236-0.302,0.359
		c-0.063,0.123-0.662,1.08-0.703,1.433c-0.041,0.352-0.01,0.528-0.104,0.745c-0.094,0.215-0.308,0.544-0.412,0.74
		c-0.105,0.195-0.156,0.372-0.167,0.641c-0.012,0.269-0.032,0.466,0.072,0.562c0.104,0.094,0.147,0.126,0.147,0.126
		s-0.369,1.436-0.483,1.89c-0.117,0.455-0.262,0.847-0.263,1.127c0,0.28,0.053,0.761,0.102,0.816
		c0.049,0.053,0.676,0.169,0.977,0.176c0.45,0.01,1.156-0.063,1.197-0.075c0.041-0.009,0.083-0.476,0.083-0.476
		s-0.042-0.269-0.144-0.397c-0.084-0.104-0.08-0.368-0.089-0.516c-0.005-0.096,0.008-0.626,0.03-0.937
		c0.021-0.312,0.493-1.333,0.493-1.333s0.259,0.013,0.386-0.161c0.126-0.173,0.376-0.959,0.396-1.052
		c0.022-0.094,0.336-0.621,0.523-1.095c0.187-0.475,0.229-0.692,0.187-0.828c-0.04-0.136-0.061-0.417-0.061-0.417
		s0.224-0.41,0.276-0.617c0.053-0.207,0.254-0.182,0.4-0.372c0.15-0.189,0.338-0.66,0.338-0.66s0.323-0.121,0.395-0.255
		c0.073-0.136,0.146-0.456,0.156-0.706c0.012-0.249,0.272-0.849,0.315-0.973c0.041-0.125,0.387-0.962,0.387-0.962
		s0.376-0.34,0.491-0.568c0.114-0.227,0.161-0.568,0.161-0.568s0.335,0.792,0.544,0.867c0.207,0.075,0.563,0.079,0.563,0.079
		l1.6,2.388c0,0,0.302,0.117,0.429,0.119c0.124,0.002,0.471-0.036,0.471-0.036l0.282,0.431l-0.095,1.02c0,0-0.208,0.113-0.251,0.351
		c-0.043,0.24,0.103,2.118,0.247,2.464c0.147,0.348,0.085,0.596,0.128,0.7c0.04,0.103,0.169,0.105,0.175,0.105l0.116,1.899
		c0,0-0.209,0.217-0.23,0.455c-0.021,0.24-0.147,0.603-0.147,0.603s-0.105,0.676-0.064,0.74c0.042,0.062,0.263,0.181,0.587,0.187
		c0.325,0.005,0.734-0.083,0.81-0.049c0.074,0.032,0.776,0.23,0.81,0.253c0.031,0.02,1.156,0.132,1.462,0.118
		c0.306-0.017,0.958-0.048,1.009-0.09c0.056-0.041,0.066-0.458,0.066-0.458s-0.021-0.219-0.179-0.295
		c-0.159-0.076-0.391-0.257-0.569-0.292c-0.18-0.035-0.4-0.11-0.518-0.175c-0.114-0.065-0.977-1.11-1.018-1.185
		c-0.042-0.073-0.138-0.669-0.106-0.941c0.032-0.271,0.044-0.969,0.044-0.969s0.155-0.186,0.168-0.227
		c0.009-0.042,0.093-0.584,0.072-0.719c-0.021-0.136-0.14-0.724-0.14-0.724s0.173-0.967,0.183-1.092
		c0.011-0.125,0.161-1.887,0.15-2.137c-0.009-0.25-0.188-0.44-0.188-0.44s-0.011-0.553-0.063-0.595s-0.178,0.019-0.222-0.013
		c-0.04-0.031-0.459-1.329-1.078-2.606c-0.619-1.276-1.54-2.168-1.54-2.168l-0.19-0.875l0.19-0.363c0,0,0.459,0.212,0.607,0.202
		c0.146-0.009,0.584-0.88,0.556-1.024c-0.032-0.148,0.207-2.363,0.124-2.531c-0.083-0.166-0.083-0.343-0.25-0.469
		c-0.17-0.125-0.474-0.23-0.474-0.23s0.157-0.366,0.185-0.439s-0.007-0.29-0.007-0.29s0.695,0.398,1.054,0.585
		c0.357,0.187,0.999,0.482,1.23,0.504c0.23,0.023,0.363,0.002,0.363,0.002s0.099,0.132,0.214,0.138
		c0.46,0.018,0.823-0.373,0.844-0.396c0.021-0.026,0.104-0.146,0.104-0.146s0.146-0.032,0.313-0.161
		c0.17-0.129,0.365-0.469,0.371-0.61c0.002-0.071,0.121-0.589,0.236-1.092l0.539-0.139c0,0-0.164-0.515-0.261-1.054
		c-0.011-0.052-0.018-0.1-0.026-0.145l0.026-0.48c0,0,0.171-0.022,0.242-0.121c0.066-0.097,0.149-0.191,0.172-0.22
		c0.051-0.058,0.194-0.116,0.245-0.188c0.049-0.071,0.001-0.162,0.022-0.226c0.012-0.028,0.132-0.011,0.226-0.06
		c0.057-0.027,0.103-0.073,0.136-0.112c0,0,0,0-0.002-0.001l2.721,0.007V5.93l0.195,0v0.046l0.627,0V5.941l0.074-0.034l1.823,0.005
		v0.091l0.099,0.002l0.04,0.039h0.08l0.055-0.075l0.914,0.002c0,0,0.034-0.1,0.032-0.204C30.015,5.664,29.967,5.583,29.967,5.583z
		 M20.009,6.766c0.027-0.022,0.08-0.029,0.08-0.029s0.059-0.013,0.059,0v0.058l-0.145-0.023C20.005,6.769,20.007,6.768,20.009,6.766
		z M20.454,7.895c-0.08,0.147-0.328,0.455-0.328,0.455s-0.246-0.486-0.308-0.578c-0.023-0.03-0.078-0.099-0.139-0.178
		c0.021-0.032,0.132-0.215,0.136-0.225c0.005-0.008,0.069-0.026,0.069-0.026l0.034,0.032l0.895,0.002c0,0,0.021,0.007,0.055-0.001
		C20.715,7.554,20.508,7.8,20.454,7.895z M20.962,7.15c0,0,0,0.035-0.05,0.082c-0.048,0.047-0.098,0.053-0.098,0.053l-0.629-0.002
		c0,0-0.115,0.008-0.16-0.034c-0.004-0.003-0.007-0.008-0.009-0.014c0.016-0.005,0.035-0.01,0.056-0.015
		c0.038-0.009,0.116-0.012,0.156-0.024c0.035,0.033,0.062,0.048,0.062,0.048l0.034-0.005c0,0-0.023-0.025-0.047-0.065
		c0.021-0.013,0.038-0.027,0.049-0.039c0.019-0.021,0.033-0.049,0.043-0.078c0.01-0.027-0.023-0.189-0.026-0.198
		c-0.003-0.007-0.005-0.015-0.017-0.028c0.02-0.019,0.047-0.036,0.085-0.054c0.114-0.052,0.13-0.046,0.13-0.046l0.273,0.001
		c0,0,0.072-0.011,0.104,0.03c0.033,0.04,0.044,0.075,0.044,0.075V7.15z"/>
</g>
</svg>
