<?xml version="1.0" encoding="utf-8"?>
<!-- Generator: Adobe Illustrator 16.0.3, SVG Export Plug-In . SVG Version: 6.00 Build 0)  -->
<!DOCTYPE svg PUBLIC "-//W3C//DTD SVG 1.1//EN" "http://www.w3.org/Graphics/SVG/1.1/DTD/svg11.dtd">
<svg version="1.1" xmlns="http://www.w3.org/2000/svg" xmlns:xlink="http://www.w3.org/1999/xlink" x="0px" y="0px" width="32px"
	 height="32px" viewBox="0 0 32 32" enable-background="new 0 0 32 32" xml:space="preserve">
<g id="Layer_1">
	<path fill="#FFFFFF" d="M27.968,1.354H4.395c-1.726,0-3.125,1.399-3.125,3.126v23.573c0,1.727,1.399,3.126,3.125,3.126h23.574
		c1.726,0,3.125-1.399,3.125-3.126V4.48C31.094,2.753,29.694,1.354,27.968,1.354z M16.104,4.769c3.281,0,5.94,2.659,5.94,5.94
		c0,3.28-2.659,5.939-5.94,5.939c-3.281,0-5.939-2.659-5.939-5.939C10.165,7.428,12.823,4.769,16.104,4.769z M26.746,27.764H5.616
		v-3.943h0.042c0.415-2.938,4.961-5.256,10.523-5.256c5.562,0,10.109,2.318,10.524,5.256h0.041V27.764z"/>
</g>
<g id="Layer_2">
</g>
</svg>
