<?xml version="1.0" encoding="utf-8"?>
<!-- Generator: Adobe Illustrator 16.0.3, SVG Export Plug-In . SVG Version: 6.00 Build 0)  -->
<!DOCTYPE svg PUBLIC "-//W3C//DTD SVG 1.1//EN" "http://www.w3.org/Graphics/SVG/1.1/DTD/svg11.dtd">
<svg version="1.1" xmlns="http://www.w3.org/2000/svg" xmlns:xlink="http://www.w3.org/1999/xlink" x="0px" y="0px" width="32px"
	 height="32px" viewBox="0 0 32 32" enable-background="new 0 0 32 32" xml:space="preserve">
<symbol  id="dude-transit" viewBox="0 -25.1 21.25 25.118">
	<path fill-rule="evenodd" clip-rule="evenodd" fill="#FFFFFF" d="M15.5-4.2l0.75-1.05l1-3.1l3.9-2.65v-0.05
		c0.067-0.1,0.1-0.233,0.1-0.4c0-0.2-0.05-0.383-0.15-0.55c-0.167-0.233-0.383-0.35-0.65-0.35l-4.3,1.8l-1.2,1.65l-1.5-3.95
		l2.25-5.05l-3.25-6.9c-0.267-0.2-0.633-0.3-1.1-0.3c-0.3,0-0.55,0.15-0.75,0.45c-0.1,0.133-0.15,0.25-0.15,0.35
		c0,0.067,0.017,0.15,0.05,0.25c0.033,0.1,0.067,0.184,0.1,0.25l2.55,5.6L10.7-14l-3.05-4.9L0.8-18.7
		c-0.367,0.033-0.6,0.184-0.7,0.45c-0.067,0.3-0.1,0.467-0.1,0.5c0,0.5,0.2,0.767,0.6,0.8l5.7,0.15l2.15,5.4l3.1,5.65L9.4-5.6
		c-1.367-2-2.1-3.033-2.2-3.1C7.1-8.8,6.95-8.85,6.75-8.85C6.35-8.85,6.1-8.667,6-8.3C5.9-8,5.9-7.8,6-7.7H5.95l2.5,4.4l3.7,0.3
		L14-3.5L15.5-4.2z M14.55-2.9c-0.333,0.4-0.45,0.85-0.35,1.35c0.033,0.5,0.25,0.9,0.65,1.2S15.7,0.066,16.2,0
		c0.5-0.067,0.9-0.3,1.2-0.7c0.333-0.4,0.467-0.85,0.4-1.35c-0.066-0.5-0.3-0.9-0.7-1.2c-0.4-0.333-0.85-0.45-1.35-0.35
		C15.25-3.533,14.85-3.3,14.55-2.9z"/>
</symbol>
<g id="Layer_1">
	<g>
		<g id="Layer_1_2_">
			<path fill-rule="evenodd" clip-rule="evenodd" fill="#FFFFFF" d="M31.285,6.308L28.96,8.634l-1.88,1.86l-2.901-0.67l-7.646,7.627
				c0.174,0.386,0.26,0.801,0.26,1.247c0,0.844-0.304,1.563-0.911,2.158c-0.595,0.606-1.314,0.911-2.157,0.911
				c-0.832,0-1.557-0.305-2.177-0.911c-0.608-0.596-0.913-1.314-0.913-2.158c0-0.831,0.305-1.557,0.913-2.177
				c0.62-0.607,1.345-0.913,2.177-0.913c0.482,0,0.924,0.101,1.32,0.299l7.684-7.646l-0.689-2.958l0.447-0.445l3.403-3.387
				l0.818-0.818l0.205,0.818l0.837,3.441l1.21,0.279l2.79,0.65L31.285,6.308z M18.431,6.979c0.05,0.024,0.105,0.048,0.167,0.072
				c0.038,0.014,0.074,0.025,0.111,0.038c0.968,0.397,1.867,0.905,2.697,1.525l-1.617,1.6c-0.608-0.421-1.267-0.775-1.972-1.061
				c-0.025-0.012-0.057-0.024-0.094-0.037c-0.05-0.025-0.093-0.043-0.131-0.056C17.433,9,17.276,8.943,17.128,8.895
				c-0.187-0.062-0.366-0.112-0.539-0.148c-0.235-0.062-0.472-0.118-0.707-0.169c-0.123-0.036-0.255-0.062-0.391-0.073
				c-0.186-0.024-0.365-0.05-0.54-0.075c-0.024-0.011-0.049-0.018-0.074-0.018c-0.36-0.037-0.731-0.056-1.115-0.056
				c-1.39,0-2.704,0.26-3.944,0.781c-1.24,0.52-2.352,1.259-3.329,2.213c-0.98,0.992-1.731,2.12-2.252,3.386
				c-0.533,1.267-0.8,2.587-0.8,3.963c0,1.363,0.267,2.673,0.8,3.925c0.521,1.253,1.271,2.368,2.252,3.349
				c0.978,0.992,2.089,1.743,3.329,2.251c0.322,0.137,0.657,0.254,1.005,0.353c0.298,0.101,0.607,0.181,0.931,0.242
				c0.086,0.014,0.173,0.03,0.26,0.057c0.124,0.012,0.247,0.03,0.372,0.055c0.186,0.026,0.379,0.044,0.576,0.057l0.801,0.037h0.018
				c0.025,0,0.05,0,0.074,0c1.377,0,2.697-0.26,3.964-0.781c1.264-0.509,2.38-1.259,3.349-2.251c0.979-0.991,1.722-2.108,2.23-3.348
				c0.522-1.253,0.782-2.567,0.782-3.944c0-1.365-0.26-2.686-0.782-3.963c-0.284-0.72-0.649-1.389-1.097-2.009l1.619-1.618
				c0.657,0.856,1.189,1.792,1.599,2.809c0.633,1.551,0.948,3.163,0.948,4.837c0,1.675-0.315,3.273-0.948,4.8
				c-0.619,1.524-1.531,2.889-2.734,4.092c-1.178,1.216-2.536,2.135-4.074,2.753c-1.549,0.635-3.168,0.949-4.855,0.949
				c-0.024,0-0.049,0-0.074,0c-0.012,0-0.024,0-0.037,0l-0.968-0.037c-0.235-0.024-0.471-0.049-0.707-0.074
				c-0.148-0.024-0.297-0.05-0.446-0.074c-0.11-0.024-0.217-0.044-0.315-0.057c-0.396-0.086-0.781-0.186-1.154-0.297
				c-0.408-0.124-0.812-0.267-1.208-0.428c-1.514-0.62-2.872-1.538-4.074-2.753c-1.19-1.203-2.109-2.567-2.754-4.093
				c-0.644-1.525-0.967-3.126-0.967-4.8c0-1.675,0.323-3.286,0.967-4.837C2.76,12.36,3.679,10.99,4.869,9.787
				C6.071,8.608,7.43,7.704,8.943,7.071s3.119-0.949,4.818-0.949c0.458,0,0.911,0.025,1.357,0.076c0.024,0,0.05,0.005,0.074,0.018
				c0.223,0.024,0.446,0.056,0.67,0.092c0.161,0.014,0.321,0.038,0.483,0.076c0.285,0.062,0.571,0.129,0.855,0.204
				c0.211,0.049,0.429,0.111,0.652,0.186C18.04,6.836,18.232,6.903,18.431,6.979z M16.607,11.313
				c0.038,0.012,0.075,0.025,0.111,0.036c0.025,0.013,0.05,0.02,0.074,0.02c0.422,0.173,0.825,0.384,1.21,0.632l-1.525,1.544
				c-0.137-0.075-0.273-0.137-0.41-0.186c-0.025,0-0.049-0.006-0.074-0.019c-0.013-0.013-0.03-0.024-0.056-0.038
				c-0.087-0.024-0.174-0.056-0.26-0.093c-0.1-0.037-0.198-0.062-0.299-0.074c-0.135-0.038-0.267-0.068-0.391-0.092
				c-0.073-0.026-0.148-0.044-0.223-0.057c-0.111,0-0.21-0.007-0.297-0.02l-0.039-0.019c-0.197-0.023-0.408-0.037-0.632-0.037
				c-0.769,0-1.494,0.149-2.177,0.447c-0.693,0.285-1.308,0.688-1.841,1.21c-0.546,0.557-0.968,1.189-1.265,1.896
				c-0.298,0.694-0.446,1.426-0.446,2.195c0,0.757,0.148,1.487,0.446,2.195c0.297,0.682,0.719,1.296,1.265,1.842
				c0.533,0.557,1.147,0.974,1.841,1.245c0.174,0.087,0.361,0.156,0.559,0.205c0.16,0.05,0.335,0.093,0.521,0.131
				c0.037,0.013,0.08,0.023,0.13,0.037c0.074,0.013,0.143,0.024,0.204,0.037c0.1,0.012,0.205,0.02,0.316,0.02l0.465,0.018
				c0.013,0,0.032,0,0.057,0c0.756,0,1.488-0.149,2.194-0.447c0.694-0.271,1.315-0.688,1.86-1.245
				c0.533-0.546,0.942-1.16,1.229-1.842c0.297-0.694,0.447-1.427,0.447-2.195c0-0.757-0.15-1.487-0.447-2.195
				c-0.063-0.149-0.125-0.292-0.187-0.428l1.525-1.508c0.224,0.36,0.415,0.738,0.577,1.135c0.396,0.98,0.596,1.997,0.596,3.052
				s-0.199,2.059-0.596,3.014c-0.397,0.955-0.974,1.811-1.73,2.566c-0.732,0.771-1.581,1.347-2.549,1.73
				c-0.979,0.409-1.996,0.614-3.051,0.614c-0.024,0-0.044,0-0.055,0h-0.02l-0.614-0.038c-0.148-0.011-0.297-0.023-0.446-0.037
				c-0.086-0.024-0.18-0.043-0.278-0.055c-0.075-0.013-0.144-0.025-0.205-0.037c-0.248-0.05-0.49-0.113-0.725-0.187
				c-0.248-0.075-0.498-0.161-0.745-0.261c-0.955-0.396-1.811-0.973-2.566-1.73c-0.757-0.756-1.333-1.618-1.731-2.585
				c-0.409-0.955-0.612-1.96-0.612-3.014c0-1.056,0.203-2.065,0.612-3.033c0.398-0.967,0.975-1.829,1.731-2.585
				c0.756-0.744,1.611-1.313,2.566-1.711c0.942-0.397,1.947-0.596,3.014-0.596c0.297,0,0.582,0.013,0.856,0.037
				c0.024,0,0.043,0.006,0.055,0.018c0.137,0.014,0.28,0.033,0.429,0.057c0.099,0.013,0.198,0.024,0.298,0.037
				c0.174,0.05,0.354,0.094,0.539,0.13c0.124,0.038,0.259,0.081,0.409,0.13C16.365,11.221,16.483,11.263,16.607,11.313z"/>
		</g>
	</g>
</g>
<g id="Layer_2">
</g>
</svg>
