<?xml version="1.0" encoding="utf-8"?>
<!-- Generator: Adobe Illustrator 16.0.3, SVG Export Plug-In . SVG Version: 6.00 Build 0)  -->
<!DOCTYPE svg PUBLIC "-//W3C//DTD SVG 1.1//EN" "http://www.w3.org/Graphics/SVG/1.1/DTD/svg11.dtd">
<svg version="1.1" xmlns="http://www.w3.org/2000/svg" xmlns:xlink="http://www.w3.org/1999/xlink" x="0px" y="0px" width="32px"
	 height="32px" viewBox="0 0 32 32" enable-background="new 0 0 32 32" xml:space="preserve">
<symbol  id="dude-transit" viewBox="0 -25.1 21.25 25.118">
	<path fill-rule="evenodd" clip-rule="evenodd" fill="#FFFFFF" d="M15.5-4.2l0.75-1.05l1-3.1l3.9-2.65v-0.05
		c0.067-0.1,0.1-0.233,0.1-0.4c0-0.2-0.05-0.383-0.15-0.55c-0.167-0.233-0.383-0.35-0.65-0.35l-4.3,1.8l-1.2,1.65l-1.5-3.95
		l2.25-5.05l-3.25-6.9c-0.267-0.2-0.633-0.3-1.1-0.3c-0.3,0-0.55,0.15-0.75,0.45c-0.1,0.133-0.15,0.25-0.15,0.35
		c0,0.067,0.017,0.15,0.05,0.25c0.033,0.1,0.067,0.184,0.1,0.25l2.55,5.6L10.7-14l-3.05-4.9L0.8-18.7
		c-0.367,0.033-0.6,0.184-0.7,0.45c-0.067,0.3-0.1,0.467-0.1,0.5c0,0.5,0.2,0.767,0.6,0.8l5.7,0.15l2.15,5.4l3.1,5.65L9.4-5.6
		c-1.367-2-2.1-3.033-2.2-3.1C7.1-8.8,6.95-8.85,6.75-8.85C6.35-8.85,6.1-8.667,6-8.3C5.9-8,5.9-7.8,6-7.7H5.95l2.5,4.4l3.7,0.3
		L14-3.5L15.5-4.2z M14.55-2.9c-0.333,0.4-0.45,0.85-0.35,1.35c0.033,0.5,0.25,0.9,0.65,1.2S15.7,0.066,16.2,0
		c0.5-0.067,0.9-0.3,1.2-0.7c0.333-0.4,0.467-0.85,0.4-1.35c-0.066-0.5-0.3-0.9-0.7-1.2c-0.4-0.333-0.85-0.45-1.35-0.35
		C15.25-3.533,14.85-3.3,14.55-2.9z"/>
</symbol>
<g id="Layer_1">
	<polyline fill="#FFFFFF" points="26.031,29.939 26.031,17.388 31.674,23.662 	"/>
	<g>
		<path fill="#FEFEFE" d="M5.51,6.177c-1.582,0-5.328,0-5.328,0v5.979c0,0,1.498,0,5.328,0c1.195,0,2.078,0.95,3.996,3.363
			c1.023-1.287,2.209-2.725,3.332-4.11C10.104,8.17,7.893,6.177,5.51,6.177z"/>
		<path fill="#FEFEFE" d="M21.496,26.809c4.781,0,4.988,0,4.994,0V20.83c0,0-2.83,0-4.994,0c-0.967,0-2.014-0.991-3.998-3.442
			c-1.332,1.868-0.666,1.121-2.996,4.11C17.148,24.768,19.002,26.809,21.496,26.809z"/>
		<path fill="#FEFEFE" d="M21.496,12.076c2.164,0,4.994,0,4.994,0V6.098c-0.006,0-0.213,0-4.994,0c-2.494,0-5.311,2.978-7.957,6.247
			c1.166,1.383,2.297,2.816,3.342,4.108C18.863,14.002,20.529,12.076,21.496,12.076z"/>
		<path fill="#FEFEFE" d="M5.51,20.751c-3.83,0-5.328,0-5.328,0v5.979c0,0,3.746,0,5.328,0c2.383,0,5.297-2.93,8.029-6.168
			c-1.121-1.386-2.213-2.821-3.236-4.108C8.385,18.867,6.705,20.751,5.51,20.751z"/>
		<path fill="#FEFEFE" d="M10.303,16.453c1.023,1.287,2.115,2.723,3.236,4.108c1.166-1.383,2.297-2.816,3.342-4.108
			c-1.045-1.292-2.176-2.726-3.342-4.108C12.418,13.73,11.326,15.166,10.303,16.453z"/>
	</g>
	<polyline fill="#FFFFFF" points="26.031,15.435 26.031,2.5 31.818,8.967 	"/>
</g>
<g id="Layer_2">
</g>
</svg>
