<?xml version="1.0" encoding="utf-8"?>
<!-- Generator: Adobe Illustrator 16.0.3, SVG Export Plug-In . SVG Version: 6.00 Build 0)  -->
<!DOCTYPE svg PUBLIC "-//W3C//DTD SVG 1.1//EN" "http://www.w3.org/Graphics/SVG/1.1/DTD/svg11.dtd">
<svg version="1.1" xmlns="http://www.w3.org/2000/svg" xmlns:xlink="http://www.w3.org/1999/xlink" x="0px" y="0px" width="32px"
	 height="32px" viewBox="0 0 32 32" enable-background="new 0 0 32 32" xml:space="preserve">
<g id="Layer_1">
</g>
<g id="Layer_2">
	<path fill="#FFFFFF" d="M4.494,15.139c0.43-4.208,3.256-8.482,7.484-10.07c5.945-2.233,12.576,0.777,14.808,6.723
		c2.233,5.946-0.777,12.576-6.723,14.81c-4.189,1.573-8.707,0.53-11.798-2.295l3.288-3.911l-9.475,0.82l0.837,9.454l3.42-4.068
		c3.896,3.498,9.542,4.776,14.782,2.809c7.497-2.815,11.292-11.175,8.477-18.671C26.78,3.24,18.42-0.555,10.923,2.261
		C5.612,4.255,1.992,9.3,1.456,15.109L4.494,15.139z"/>
	<rect x="14.256" y="6.614" fill="#FFFFFF" width="2.734" height="9.812"/>
	
		<rect x="17.622" y="13.405" transform="matrix(0.6157 -0.788 0.788 0.6157 -7.1564 22.0133)" fill="#FFFFFF" width="2.735" height="9.877"/>
</g>
</svg>
