<?xml version="1.0" encoding="utf-8"?>
<!-- Generator: Adobe Illustrator 16.0.3, SVG Export Plug-In . SVG Version: 6.00 Build 0)  -->
<!DOCTYPE svg PUBLIC "-//W3C//DTD SVG 1.1//EN" "http://www.w3.org/Graphics/SVG/1.1/DTD/svg11.dtd">
<svg version="1.1" xmlns="http://www.w3.org/2000/svg" xmlns:xlink="http://www.w3.org/1999/xlink" x="0px" y="0px" width="32px"
	 height="32px" viewBox="0 0 32 32" enable-background="new 0 0 32 32" xml:space="preserve">
<g id="Layer_1">
</g>
<g id="Layer_2">
	<path fill="#FFFFFF" d="M27.744,16.954c-0.43,4.208-3.256,8.482-7.484,10.07c-5.945,2.233-12.576-0.777-14.808-6.723
		c-2.233-5.946,0.777-12.576,6.723-14.81c4.189-1.573,8.707-0.53,11.798,2.295l-3.288,3.911l9.475-0.82l-0.837-9.454l-3.42,4.068
		c-3.896-3.498-9.542-4.776-14.782-2.809C3.622,5.499-0.173,13.858,2.643,21.355c2.815,7.498,11.175,11.293,18.672,8.477
		c5.311-1.994,8.932-7.04,9.468-12.848L27.744,16.954z"/>
</g>
</svg>
