<?xml version="1.0" encoding="utf-8"?>
<!-- Generator: Adobe Illustrator 23.0.3, SVG Export Plug-In . SVG Version: 6.00 Build 0)  -->
<svg version="1.1" xmlns="http://www.w3.org/2000/svg" xmlns:xlink="http://www.w3.org/1999/xlink" x="0px" y="0px" width="32px"
	 height="32px" viewBox="0 0 32 32" enable-background="new 0 0 32 32" xml:space="preserve">
<symbol  id="dude-transit" viewBox="0 -25.1 21.25 25.118">
	<path fill-rule="evenodd" clip-rule="evenodd" fill="#FFFFFF" d="M15.5-4.2l0.75-1.05l1-3.1l3.9-2.65v-0.05
		c0.067-0.1,0.1-0.233,0.1-0.4c0-0.2-0.05-0.383-0.15-0.55c-0.167-0.233-0.383-0.35-0.65-0.35l-4.3,1.8l-1.2,1.65l-1.5-3.95
		l2.25-5.05l-3.25-6.9c-0.267-0.2-0.633-0.3-1.1-0.3c-0.3,0-0.55,0.15-0.75,0.45c-0.1,0.133-0.15,0.25-0.15,0.35
		c0,0.067,0.017,0.15,0.05,0.25c0.033,0.1,0.067,0.184,0.1,0.25l2.55,5.6L10.7-14l-3.05-4.9L0.8-18.7
		c-0.367,0.033-0.6,0.184-0.7,0.45c-0.067,0.3-0.1,0.467-0.1,0.5c0,0.5,0.2,0.767,0.6,0.8l5.7,0.15l2.15,5.4l3.1,5.65L9.4-5.6
		c-1.367-2-2.1-3.033-2.2-3.1C7.1-8.8,6.95-8.85,6.75-8.85C6.35-8.85,6.1-8.667,6-8.3C5.9-8,5.9-7.8,6-7.7H5.95l2.5,4.4l3.7,0.3
		L14-3.5L15.5-4.2z M14.55-2.9c-0.333,0.4-0.45,0.85-0.35,1.35c0.033,0.5,0.25,0.9,0.65,1.2c0.4,0.3,0.85,0.417,1.35,0.35
		c0.5-0.067,0.9-0.3,1.2-0.7c0.333-0.4,0.467-0.85,0.4-1.35c-0.066-0.5-0.3-0.9-0.7-1.2c-0.4-0.333-0.85-0.45-1.35-0.35
		C15.25-3.533,14.85-3.3,14.55-2.9z"/>
</symbol>
<g id="Layer_1">
</g>
<g id="Layer_2">
	<g>
		
			<rect x="11.369" y="14.628" transform="matrix(0.7069 -0.7073 0.7073 0.7069 -9.2911 14.4546)" fill="#FFFFFF" width="2.856" height="7.623"/>
		
			<rect x="11.489" y="14.73" transform="matrix(0.7068 -0.7074 0.7074 0.7068 -5.9479 17.9651)" fill="#FFFFFF" width="14.419" height="2.856"/>
	</g>
	<g>
		<g>
			<polyline fill="none" stroke="#FFFFFF" stroke-width="2.5238" stroke-miterlimit="10" points="31.382,23.984 25.543,25.622 
				23.906,19.783 			"/>
			<path fill="none" stroke="#FFFFFF" stroke-width="2.5238" stroke-miterlimit="10" d="M25.68,24.746
				c2.25-2.325,3.635-5.493,3.633-8.984c0.001-7.137-5.784-12.923-12.921-12.922c-1.947,0.001-3.795,0.434-5.451,1.204"/>
		</g>
		<g>
			<polyline fill="none" stroke="#FFFFFF" stroke-width="2.5238" stroke-miterlimit="10" points="0.718,8.629 6.558,6.991 
				8.196,12.829 			"/>
			<path fill="none" stroke="#FFFFFF" stroke-width="2.5238" stroke-miterlimit="10" d="M6.421,7.867
				c-2.25,2.325-3.634,5.492-3.633,8.984c-0.001,7.137,5.784,12.923,12.921,12.922c1.918-0.001,3.739-0.421,5.377-1.171"/>
		</g>
	</g>
</g>
</svg>
