<?xml version="1.0" encoding="utf-8"?>
<!-- Generator: Adobe Illustrator 16.0.0, SVG Export Plug-In . SVG Version: 6.00 Build 0)  -->
<!DOCTYPE svg PUBLIC "-//W3C//DTD SVG 1.1//EN" "http://www.w3.org/Graphics/SVG/1.1/DTD/svg11.dtd">
<svg version="1.1" xmlns="http://www.w3.org/2000/svg" xmlns:xlink="http://www.w3.org/1999/xlink" x="0px" y="0px" width="32px"
	 height="32px" viewBox="0 0 32 32" enable-background="new 0 0 32 32" xml:space="preserve">
<symbol  id="dude-transit" viewBox="0 -25.1 21.25 25.118">
	<path fill-rule="evenodd" clip-rule="evenodd" fill="#FFFFFF" d="M15.5-4.2l0.75-1.05l1-3.1l3.9-2.65v-0.05
		c0.067-0.1,0.1-0.233,0.1-0.4c0-0.2-0.05-0.383-0.15-0.55c-0.167-0.233-0.383-0.35-0.65-0.35l-4.3,1.8l-1.2,1.65l-1.5-3.95
		l2.25-5.05l-3.25-6.9c-0.267-0.2-0.633-0.3-1.1-0.3c-0.3,0-0.55,0.15-0.75,0.45c-0.1,0.133-0.15,0.25-0.15,0.35
		c0,0.067,0.017,0.15,0.05,0.25c0.033,0.1,0.067,0.184,0.1,0.25l2.55,5.6L10.7-14l-3.05-4.9L0.8-18.7
		c-0.367,0.033-0.6,0.184-0.7,0.45c-0.067,0.3-0.1,0.467-0.1,0.5c0,0.5,0.2,0.767,0.6,0.8l5.7,0.15l2.15,5.4l3.1,5.65L9.4-5.6
		c-1.367-2-2.1-3.033-2.2-3.1C7.1-8.8,6.95-8.85,6.75-8.85C6.35-8.85,6.1-8.667,6-8.3C5.9-8,5.9-7.8,6-7.7H5.95l2.5,4.4l3.7,0.3
		L14-3.5L15.5-4.2z M14.55-2.9c-0.333,0.4-0.45,0.85-0.35,1.35c0.033,0.5,0.25,0.9,0.65,1.2S15.7,0.066,16.2,0
		c0.5-0.067,0.9-0.3,1.2-0.7c0.333-0.4,0.467-0.85,0.4-1.35c-0.066-0.5-0.3-0.9-0.7-1.2c-0.4-0.333-0.85-0.45-1.35-0.35
		C15.25-3.533,14.85-3.3,14.55-2.9z"/>
</symbol>
<g id="Layer_1">
</g>
<g id="Layer_2">
	<path fill="#F1F2F2" d="M20.985,2.143c-0.216,0-0.303,0.181-0.303,0.181s-9.469,16.328-9.604,16.533
		c-0.161,0.245-0.093,0.452,0.175,0.452c0.318,0,19.387,0,19.387,0s0.241,0.031,0.31-0.135c0.065-0.158-0.055-0.324-0.055-0.324
		L21.278,2.308C21.278,2.308,21.193,2.143,20.985,2.143z M20.989,18.242c-0.59,0-1.065-0.477-1.065-1.065
		c0-0.589,0.476-1.066,1.065-1.066c0.589,0,1.065,0.477,1.065,1.066C22.055,17.765,21.578,18.242,20.989,18.242z M20.017,7.163
		h1.943v8.162h-1.943V7.163z"/>
	<g>
		<path fill="#FFFFFF" d="M2.406,25.373v5.199H26.25v-5.199H2.406z M6.973,29.147H4.154v-2.349h2.818V29.147z"/>
		<path fill="#FFFFFF" d="M2.406,17.952v5.2H26.25l-0.109-2.597l-13.083-0.007c0,0-2.328,0.003-2.995,0.003
			c-0.804,0-1.205-0.564-0.769-1.26c0.379-0.603,0.837-1.339,0.837-1.339H2.406z M6.973,21.727H4.154v-2.35h2.818V21.727z"/>
		<path fill="#FFFFFF" d="M2.406,10.182v5.199h9.078l3.094-5.199H2.406z M6.973,13.956H4.154v-2.348h2.818V13.956z"/>
	</g>
</g>
</svg>
