<?xml version="1.0" encoding="utf-8"?>
<!-- Generator: Adobe Illustrator 16.0.0, SVG Export Plug-In . SVG Version: 6.00 Build 0)  -->
<!DOCTYPE svg PUBLIC "-//W3C//DTD SVG 1.1//EN" "http://www.w3.org/Graphics/SVG/1.1/DTD/svg11.dtd">
<svg version="1.1" xmlns="http://www.w3.org/2000/svg" xmlns:xlink="http://www.w3.org/1999/xlink" x="0px" y="0px" width="32px"
	 height="32px" viewBox="0 0 32 32" enable-background="new 0 0 32 32" xml:space="preserve">
<symbol  id="dude-transit" viewBox="0 -25.1 21.25 25.118">
	<path fill-rule="evenodd" clip-rule="evenodd" fill="#FFFFFF" d="M15.5-4.2l0.75-1.05l1-3.1l3.9-2.65v-0.05
		c0.067-0.1,0.1-0.233,0.1-0.4c0-0.2-0.05-0.383-0.15-0.55c-0.167-0.233-0.383-0.35-0.65-0.35l-4.3,1.8l-1.2,1.65l-1.5-3.95
		l2.25-5.05l-3.25-6.9c-0.267-0.2-0.633-0.3-1.1-0.3c-0.3,0-0.55,0.15-0.75,0.45c-0.1,0.133-0.15,0.25-0.15,0.35
		c0,0.067,0.017,0.15,0.05,0.25c0.033,0.1,0.067,0.184,0.1,0.25l2.55,5.6L10.7-14l-3.05-4.9L0.8-18.7
		c-0.367,0.033-0.6,0.184-0.7,0.45c-0.067,0.3-0.1,0.467-0.1,0.5c0,0.5,0.2,0.767,0.6,0.8l5.7,0.15l2.15,5.4l3.1,5.65L9.4-5.6
		c-1.367-2-2.1-3.033-2.2-3.1C7.1-8.8,6.95-8.85,6.75-8.85C6.35-8.85,6.1-8.667,6-8.3C5.9-8,5.9-7.8,6-7.7H5.95l2.5,4.4l3.7,0.3
		L14-3.5L15.5-4.2z M14.55-2.9c-0.333,0.4-0.45,0.85-0.35,1.35c0.033,0.5,0.25,0.9,0.65,1.2S15.7,0.066,16.2,0
		c0.5-0.067,0.9-0.3,1.2-0.7c0.333-0.4,0.467-0.85,0.4-1.35c-0.066-0.5-0.3-0.9-0.7-1.2c-0.4-0.333-0.85-0.45-1.35-0.35
		C15.25-3.533,14.85-3.3,14.55-2.9z"/>
</symbol>
<g id="Layer_1">
</g>
<g id="Layer_2">
	<path fill="#FFFFFF" d="M16,3C8.82,3,3,8.82,3,16s5.82,13,13,13s13-5.82,13-13S23.18,3,16,3z M24.509,21.101l-1.953-0.31
		c0.165-1.049,0.102-2.099-0.189-3.123c-0.53-1.861-1.755-3.404-3.446-4.345c-1.695-0.942-3.647-1.164-5.509-0.633
		c-1.31,0.374-2.461,1.098-3.358,2.083l1.564-0.007l0.008,1.977l-4.852,0.021l-0.021-4.852l1.978-0.008l0.006,1.386
		c1.123-1.177,2.534-2.047,4.134-2.503c2.367-0.676,4.857-0.391,7.012,0.807c2.152,1.197,3.711,3.161,4.387,5.53
		C24.638,18.428,24.72,19.765,24.509,21.101z"/>
</g>
</svg>
