<svg width="1020" height="1459" viewBox="0 0 1020 1459" fill="none" xmlns="http://www.w3.org/2000/svg">
<rect width="1020" height="1459" rx="14" fill="url(#paint0_linear)"/>
<g filter="url(#filter0_f)">
<circle cx="166.453" cy="789.79" r="3.72229" transform="rotate(90 166.453 789.79)" fill="#D19696" fill-opacity="0.3"/>
<circle cx="166.453" cy="881.276" r="3.72229" transform="rotate(90 166.453 881.276)" fill="#D19696" fill-opacity="0.3"/>
<circle cx="166.453" cy="972.761" r="3.72229" transform="rotate(90 166.453 972.761)" fill="#D19696" fill-opacity="0.3"/>
<circle cx="166.453" cy="1064.25" r="3.72229" transform="rotate(90 166.453 1064.25)" fill="#D19696" fill-opacity="0.3"/>
<circle cx="103.588" cy="789.79" r="3.72229" transform="rotate(90 103.588 789.79)" fill="#D19696" fill-opacity="0.3"/>
<circle cx="103.588" cy="881.276" r="3.72229" transform="rotate(90 103.588 881.276)" fill="#D19696" fill-opacity="0.3"/>
<circle cx="103.588" cy="972.761" r="3.72229" transform="rotate(90 103.588 972.761)" fill="#D19696" fill-opacity="0.3"/>
<circle cx="103.588" cy="1064.25" r="3.72229" transform="rotate(90 103.588 1064.25)" fill="#D19696" fill-opacity="0.3"/>
<circle cx="223.444" cy="789.79" r="3.72229" transform="rotate(90 223.444 789.79)" fill="#D19696" fill-opacity="0.3"/>
<circle cx="223.444" cy="881.275" r="3.72229" transform="rotate(90 223.444 881.275)" fill="#D19696" fill-opacity="0.3"/>
<circle cx="223.444" cy="972.761" r="3.72229" transform="rotate(90 223.444 972.761)" fill="#D19696" fill-opacity="0.3"/>
<circle cx="223.444" cy="1064.25" r="3.72229" transform="rotate(90 223.444 1064.25)" fill="#D19696" fill-opacity="0.3"/>
<circle cx="223.445" cy="1149.72" r="3.72229" transform="rotate(90 223.445 1149.72)" fill="#D19696" fill-opacity="0.3"/>
<circle cx="223.445" cy="1241.21" r="3.72229" transform="rotate(90 223.445 1241.21)" fill="#D19696" fill-opacity="0.3"/>
<circle cx="223.445" cy="1332.69" r="3.72229" transform="rotate(90 223.445 1332.69)" fill="#D19696" fill-opacity="0.3"/>
<circle cx="223.445" cy="1424.18" r="3.72229" transform="rotate(90 223.445 1424.18)" fill="#D19696" fill-opacity="0.3"/>
<circle cx="40.7223" cy="789.79" r="3.72229" transform="rotate(90 40.7223 789.79)" fill="#D19696" fill-opacity="0.3"/>
<circle cx="40.7223" cy="881.276" r="3.72229" transform="rotate(90 40.7223 881.276)" fill="#D19696" fill-opacity="0.3"/>
<circle cx="40.7223" cy="972.761" r="3.72229" transform="rotate(90 40.7223 972.761)" fill="#D19696" fill-opacity="0.3"/>
<circle cx="40.7223" cy="1064.25" r="3.72229" transform="rotate(90 40.7223 1064.25)" fill="#D19696" fill-opacity="0.3"/>
<circle cx="166.454" cy="1149.82" r="3.72229" transform="rotate(90 166.454 1149.82)" fill="#D19696" fill-opacity="0.3"/>
<circle cx="166.454" cy="1241.3" r="3.72229" transform="rotate(90 166.454 1241.3)" fill="#D19696" fill-opacity="0.3"/>
<circle cx="166.454" cy="1332.79" r="3.72229" transform="rotate(90 166.454 1332.79)" fill="#D19696" fill-opacity="0.3"/>
<circle cx="166.454" cy="1424.27" r="3.72229" transform="rotate(90 166.454 1424.27)" fill="#D19696" fill-opacity="0.3"/>
<circle cx="103.589" cy="1149.82" r="3.72229" transform="rotate(90 103.589 1149.82)" fill="#D19696" fill-opacity="0.3"/>
<circle cx="103.589" cy="1241.3" r="3.72229" transform="rotate(90 103.589 1241.3)" fill="#D19696" fill-opacity="0.3"/>
<circle cx="103.589" cy="1332.79" r="3.72229" transform="rotate(90 103.589 1332.79)" fill="#D19696" fill-opacity="0.3"/>
<circle cx="103.589" cy="1424.27" r="3.72229" transform="rotate(90 103.589 1424.27)" fill="#D19696" fill-opacity="0.3"/>
<circle cx="40.723" cy="1149.82" r="3.72229" transform="rotate(90 40.723 1149.82)" fill="#D19696" fill-opacity="0.3"/>
<circle cx="40.723" cy="1241.3" r="3.72229" transform="rotate(90 40.723 1241.3)" fill="#D19696" fill-opacity="0.3"/>
<circle cx="40.723" cy="1332.79" r="3.72229" transform="rotate(90 40.723 1332.79)" fill="#D19696" fill-opacity="0.3"/>
<circle cx="40.723" cy="1424.27" r="3.72229" transform="rotate(90 40.723 1424.27)" fill="#D19696" fill-opacity="0.3"/>
<circle cx="980.207" cy="789.79" r="3.72229" transform="rotate(90 980.207 789.79)" fill="#D19696" fill-opacity="0.3"/>
<circle cx="980.207" cy="881.275" r="3.72229" transform="rotate(90 980.207 881.275)" fill="#D19696" fill-opacity="0.3"/>
<circle cx="980.207" cy="972.761" r="3.72229" transform="rotate(90 980.207 972.761)" fill="#D19696" fill-opacity="0.3"/>
<circle cx="980.207" cy="1064.25" r="3.72229" transform="rotate(90 980.207 1064.25)" fill="#D19696" fill-opacity="0.3"/>
<circle cx="917.341" cy="789.79" r="3.72229" transform="rotate(90 917.341 789.79)" fill="#D19696" fill-opacity="0.3"/>
<circle cx="917.341" cy="881.275" r="3.72229" transform="rotate(90 917.341 881.275)" fill="#D19696" fill-opacity="0.3"/>
<circle cx="917.341" cy="972.761" r="3.72229" transform="rotate(90 917.341 972.761)" fill="#D19696" fill-opacity="0.3"/>
<circle cx="917.341" cy="1064.25" r="3.72229" transform="rotate(90 917.341 1064.25)" fill="#D19696" fill-opacity="0.3"/>
<circle cx="854.476" cy="789.79" r="3.72229" transform="rotate(90 854.476 789.79)" fill="#D19696" fill-opacity="0.3"/>
<circle cx="854.476" cy="881.275" r="3.72229" transform="rotate(90 854.476 881.275)" fill="#D19696" fill-opacity="0.3"/>
<circle cx="854.476" cy="972.761" r="3.72229" transform="rotate(90 854.476 972.761)" fill="#D19696" fill-opacity="0.3"/>
<circle cx="854.476" cy="1064.25" r="3.72229" transform="rotate(90 854.476 1064.25)" fill="#D19696" fill-opacity="0.3"/>
<circle cx="980.207" cy="1149.82" r="3.72229" transform="rotate(90 980.207 1149.82)" fill="#D19696" fill-opacity="0.3"/>
<circle cx="980.207" cy="1241.3" r="3.72229" transform="rotate(90 980.207 1241.3)" fill="#D19696" fill-opacity="0.3"/>
<circle cx="980.207" cy="1332.79" r="3.72229" transform="rotate(90 980.207 1332.79)" fill="#D19696" fill-opacity="0.3"/>
<circle cx="980.207" cy="1424.27" r="3.72229" transform="rotate(90 980.207 1424.27)" fill="#D19696" fill-opacity="0.3"/>
<circle cx="917.341" cy="1149.82" r="3.72229" transform="rotate(90 917.341 1149.82)" fill="#D19696" fill-opacity="0.3"/>
<circle cx="917.341" cy="1241.3" r="3.72229" transform="rotate(90 917.341 1241.3)" fill="#D19696" fill-opacity="0.3"/>
<circle cx="917.341" cy="1332.79" r="3.72229" transform="rotate(90 917.341 1332.79)" fill="#D19696" fill-opacity="0.3"/>
<circle cx="917.341" cy="1424.27" r="3.72229" transform="rotate(90 917.341 1424.27)" fill="#D19696" fill-opacity="0.3"/>
<circle cx="854.476" cy="1149.82" r="3.72229" transform="rotate(90 854.476 1149.82)" fill="#D19696" fill-opacity="0.3"/>
<circle cx="854.476" cy="1241.3" r="3.72229" transform="rotate(90 854.476 1241.3)" fill="#D19696" fill-opacity="0.3"/>
<circle cx="854.476" cy="1332.79" r="3.72229" transform="rotate(90 854.476 1332.79)" fill="#D19696" fill-opacity="0.3"/>
<circle cx="854.476" cy="1424.27" r="3.72229" transform="rotate(90 854.476 1424.27)" fill="#D19696" fill-opacity="0.3"/>
<circle cx="789.176" cy="789.79" r="3.72229" transform="rotate(90 789.176 789.79)" fill="#D19696" fill-opacity="0.3"/>
<circle cx="789.176" cy="881.275" r="3.72229" transform="rotate(90 789.176 881.275)" fill="#D19696" fill-opacity="0.3"/>
<circle cx="789.176" cy="972.761" r="3.72229" transform="rotate(90 789.176 972.761)" fill="#D19696" fill-opacity="0.3"/>
<circle cx="789.176" cy="1064.25" r="3.72229" transform="rotate(90 789.176 1064.25)" fill="#D19696" fill-opacity="0.3"/>
<circle cx="726.311" cy="789.79" r="3.72229" transform="rotate(90 726.311 789.79)" fill="#D19696" fill-opacity="0.3"/>
<circle cx="726.311" cy="881.275" r="3.72229" transform="rotate(90 726.311 881.275)" fill="#D19696" fill-opacity="0.3"/>
<circle cx="726.311" cy="972.761" r="3.72229" transform="rotate(90 726.311 972.761)" fill="#D19696" fill-opacity="0.3"/>
<circle cx="726.311" cy="1064.25" r="3.72229" transform="rotate(90 726.311 1064.25)" fill="#D19696" fill-opacity="0.3"/>
<circle cx="663.445" cy="789.79" r="3.72229" transform="rotate(90 663.445 789.79)" fill="#D19696" fill-opacity="0.3"/>
<circle cx="663.445" cy="881.275" r="3.72229" transform="rotate(90 663.445 881.275)" fill="#D19696" fill-opacity="0.3"/>
<circle cx="663.445" cy="972.761" r="3.72229" transform="rotate(90 663.445 972.761)" fill="#D19696" fill-opacity="0.3"/>
<circle cx="663.445" cy="1064.25" r="3.72229" transform="rotate(90 663.445 1064.25)" fill="#D19696" fill-opacity="0.3"/>
<circle cx="789.176" cy="1149.82" r="3.72229" transform="rotate(90 789.176 1149.82)" fill="#D19696" fill-opacity="0.3"/>
<circle cx="789.176" cy="1241.3" r="3.72229" transform="rotate(90 789.176 1241.3)" fill="#D19696" fill-opacity="0.3"/>
<circle cx="789.176" cy="1332.79" r="3.72229" transform="rotate(90 789.176 1332.79)" fill="#D19696" fill-opacity="0.3"/>
<circle cx="789.176" cy="1424.27" r="3.72229" transform="rotate(90 789.176 1424.27)" fill="#D19696" fill-opacity="0.3"/>
<circle cx="726.311" cy="1149.82" r="3.72229" transform="rotate(90 726.311 1149.82)" fill="#D19696" fill-opacity="0.3"/>
<circle cx="726.311" cy="1241.3" r="3.72229" transform="rotate(90 726.311 1241.3)" fill="#D19696" fill-opacity="0.3"/>
<circle cx="726.311" cy="1332.79" r="3.72229" transform="rotate(90 726.311 1332.79)" fill="#D19696" fill-opacity="0.3"/>
<circle cx="726.311" cy="1424.27" r="3.72229" transform="rotate(90 726.311 1424.27)" fill="#D19696" fill-opacity="0.3"/>
<circle cx="663.445" cy="1149.82" r="3.72229" transform="rotate(90 663.445 1149.82)" fill="#D19696" fill-opacity="0.3"/>
<circle cx="663.445" cy="1241.3" r="3.72229" transform="rotate(90 663.445 1241.3)" fill="#D19696" fill-opacity="0.3"/>
<circle cx="663.445" cy="1332.79" r="3.72229" transform="rotate(90 663.445 1332.79)" fill="#D19696" fill-opacity="0.3"/>
<circle cx="663.445" cy="1424.27" r="3.72229" transform="rotate(90 663.445 1424.27)" fill="#D19696" fill-opacity="0.3"/>
<circle cx="407.176" cy="789.79" r="3.72229" transform="rotate(90 407.176 789.79)" fill="#D19696" fill-opacity="0.3"/>
<circle cx="407.176" cy="881.275" r="3.72229" transform="rotate(90 407.176 881.275)" fill="#D19696" fill-opacity="0.3"/>
<circle cx="407.176" cy="972.761" r="3.72229" transform="rotate(90 407.176 972.761)" fill="#D19696" fill-opacity="0.3"/>
<circle cx="407.176" cy="1064.25" r="3.72229" transform="rotate(90 407.176 1064.25)" fill="#D19696" fill-opacity="0.3"/>
<circle cx="344.311" cy="789.79" r="3.72229" transform="rotate(90 344.311 789.79)" fill="#D19696" fill-opacity="0.3"/>
<circle cx="344.311" cy="881.275" r="3.72229" transform="rotate(90 344.311 881.275)" fill="#D19696" fill-opacity="0.3"/>
<circle cx="344.311" cy="972.761" r="3.72229" transform="rotate(90 344.311 972.761)" fill="#D19696" fill-opacity="0.3"/>
<circle cx="344.311" cy="1064.25" r="3.72229" transform="rotate(90 344.311 1064.25)" fill="#D19696" fill-opacity="0.3"/>
<circle cx="281.445" cy="789.79" r="3.72229" transform="rotate(90 281.445 789.79)" fill="#D19696" fill-opacity="0.3"/>
<circle cx="281.445" cy="881.275" r="3.72229" transform="rotate(90 281.445 881.275)" fill="#D19696" fill-opacity="0.3"/>
<circle cx="281.445" cy="972.761" r="3.72229" transform="rotate(90 281.445 972.761)" fill="#D19696" fill-opacity="0.3"/>
<circle cx="281.445" cy="1064.25" r="3.72229" transform="rotate(90 281.445 1064.25)" fill="#D19696" fill-opacity="0.3"/>
<circle cx="407.176" cy="1149.82" r="3.72229" transform="rotate(90 407.176 1149.82)" fill="#D19696" fill-opacity="0.3"/>
<circle cx="407.176" cy="1241.3" r="3.72229" transform="rotate(90 407.176 1241.3)" fill="#D19696" fill-opacity="0.3"/>
<circle cx="407.176" cy="1332.79" r="3.72229" transform="rotate(90 407.176 1332.79)" fill="#D19696" fill-opacity="0.3"/>
<circle cx="407.176" cy="1424.27" r="3.72229" transform="rotate(90 407.176 1424.27)" fill="#D19696" fill-opacity="0.3"/>
<circle cx="344.311" cy="1149.82" r="3.72229" transform="rotate(90 344.311 1149.82)" fill="#D19696" fill-opacity="0.3"/>
<circle cx="344.311" cy="1241.3" r="3.72229" transform="rotate(90 344.311 1241.3)" fill="#D19696" fill-opacity="0.3"/>
<circle cx="344.311" cy="1332.79" r="3.72229" transform="rotate(90 344.311 1332.79)" fill="#D19696" fill-opacity="0.3"/>
<circle cx="344.311" cy="1424.27" r="3.72229" transform="rotate(90 344.311 1424.27)" fill="#D19696" fill-opacity="0.3"/>
<circle cx="281.445" cy="1149.82" r="3.72229" transform="rotate(90 281.445 1149.82)" fill="#D19696" fill-opacity="0.3"/>
<circle cx="281.445" cy="1241.3" r="3.72229" transform="rotate(90 281.445 1241.3)" fill="#D19696" fill-opacity="0.3"/>
<circle cx="281.445" cy="1332.79" r="3.72229" transform="rotate(90 281.445 1332.79)" fill="#D19696" fill-opacity="0.3"/>
<circle cx="281.445" cy="1424.27" r="3.72229" transform="rotate(90 281.445 1424.27)" fill="#D19696" fill-opacity="0.3"/>
<circle cx="598.176" cy="789.79" r="3.72229" transform="rotate(90 598.176 789.79)" fill="#D19696" fill-opacity="0.3"/>
<circle cx="598.176" cy="881.275" r="3.72229" transform="rotate(90 598.176 881.275)" fill="#D19696" fill-opacity="0.3"/>
<circle cx="598.176" cy="972.761" r="3.72229" transform="rotate(90 598.176 972.761)" fill="#D19696" fill-opacity="0.3"/>
<circle cx="598.176" cy="1064.25" r="3.72229" transform="rotate(90 598.176 1064.25)" fill="#D19696" fill-opacity="0.3"/>
<circle cx="535.311" cy="789.79" r="3.72229" transform="rotate(90 535.311 789.79)" fill="#D19696" fill-opacity="0.3"/>
<circle cx="535.311" cy="881.275" r="3.72229" transform="rotate(90 535.311 881.275)" fill="#D19696" fill-opacity="0.3"/>
<circle cx="535.311" cy="972.761" r="3.72229" transform="rotate(90 535.311 972.761)" fill="#D19696" fill-opacity="0.3"/>
<circle cx="535.311" cy="1064.25" r="3.72229" transform="rotate(90 535.311 1064.25)" fill="#D19696" fill-opacity="0.3"/>
<circle cx="472.445" cy="789.79" r="3.72229" transform="rotate(90 472.445 789.79)" fill="#D19696" fill-opacity="0.3"/>
<circle cx="472.445" cy="881.275" r="3.72229" transform="rotate(90 472.445 881.275)" fill="#D19696" fill-opacity="0.3"/>
<circle cx="472.445" cy="972.761" r="3.72229" transform="rotate(90 472.445 972.761)" fill="#D19696" fill-opacity="0.3"/>
<circle cx="472.445" cy="1064.25" r="3.72229" transform="rotate(90 472.445 1064.25)" fill="#D19696" fill-opacity="0.3"/>
<circle cx="598.176" cy="1149.82" r="3.72229" transform="rotate(90 598.176 1149.82)" fill="#D19696" fill-opacity="0.3"/>
<circle cx="598.176" cy="1241.3" r="3.72229" transform="rotate(90 598.176 1241.3)" fill="#D19696" fill-opacity="0.3"/>
<circle cx="598.176" cy="1332.79" r="3.72229" transform="rotate(90 598.176 1332.79)" fill="#D19696" fill-opacity="0.3"/>
<circle cx="598.176" cy="1424.27" r="3.72229" transform="rotate(90 598.176 1424.27)" fill="#D19696" fill-opacity="0.3"/>
<circle cx="535.311" cy="1149.82" r="3.72229" transform="rotate(90 535.311 1149.82)" fill="#D19696" fill-opacity="0.3"/>
<circle cx="535.311" cy="1241.3" r="3.72229" transform="rotate(90 535.311 1241.3)" fill="#D19696" fill-opacity="0.3"/>
<circle cx="535.311" cy="1332.79" r="3.72229" transform="rotate(90 535.311 1332.79)" fill="#D19696" fill-opacity="0.3"/>
<circle cx="535.311" cy="1424.27" r="3.72229" transform="rotate(90 535.311 1424.27)" fill="#D19696" fill-opacity="0.3"/>
<circle cx="472.445" cy="1149.82" r="3.72229" transform="rotate(90 472.445 1149.82)" fill="#D19696" fill-opacity="0.3"/>
<circle cx="472.445" cy="1241.3" r="3.72229" transform="rotate(90 472.445 1241.3)" fill="#D19696" fill-opacity="0.3"/>
<circle cx="472.445" cy="1332.79" r="3.72229" transform="rotate(90 472.445 1332.79)" fill="#D19696" fill-opacity="0.3"/>
<circle cx="472.445" cy="1424.27" r="3.72229" transform="rotate(90 472.445 1424.27)" fill="#D19696" fill-opacity="0.3"/>
</g>
<g filter="url(#filter1_d)">
<rect x="19" y="626" width="982" height="129" fill="url(#paint1_radial)"/>
</g>
<g filter="url(#filter2_d)">
<rect x="42" y="35" width="941.908" height="554.932" fill="#946F6F"/>
<rect x="42" y="35" width="941.908" height="554.932" fill="url(#paint2_radial)"/>
</g>
<line x1="37" y1="33" x2="63.0676" y2="33" stroke="#9B9B9B" stroke-width="4"/>
<line x1="39" y1="35" x2="39" y2="61.0676" stroke="#9B9B9B" stroke-width="4"/>
<line x1="40" y1="589.933" x2="40" y2="563.865" stroke="#9B9B9B" stroke-width="4"/>
<line x1="42.0002" y1="587.933" x2="68.0679" y2="587.933" stroke="#9B9B9B" stroke-width="4"/>
<path d="M44 55H985" stroke="white" stroke-opacity="0.15" stroke-width="6"/>
<path d="M44 43H985" stroke="white" stroke-opacity="0.15" stroke-width="6"/>
<path d="M44 31H985" stroke="white" stroke-opacity="0.15" stroke-width="6"/>
<path d="M44 247H985" stroke="white" stroke-opacity="0.15" stroke-width="6"/>
<path d="M44 235H985" stroke="white" stroke-opacity="0.15" stroke-width="6"/>
<path d="M44 295H985" stroke="white" stroke-opacity="0.15" stroke-width="6"/>
<path d="M44 283H985" stroke="white" stroke-opacity="0.15" stroke-width="6"/>
<path d="M44 271H985" stroke="white" stroke-opacity="0.15" stroke-width="6"/>
<path d="M44 259H985" stroke="white" stroke-opacity="0.15" stroke-width="6"/>
<path d="M44 199H985" stroke="white" stroke-opacity="0.15" stroke-width="6"/>
<path d="M44 187H985" stroke="white" stroke-opacity="0.15" stroke-width="6"/>
<path d="M44 223H985" stroke="white" stroke-opacity="0.15" stroke-width="6"/>
<path d="M44 211H985" stroke="white" stroke-opacity="0.15" stroke-width="6"/>
<path d="M44 127H985" stroke="white" stroke-opacity="0.15" stroke-width="6"/>
<path d="M44 115H985" stroke="white" stroke-opacity="0.15" stroke-width="6"/>
<path d="M44 175H985" stroke="white" stroke-opacity="0.15" stroke-width="6"/>
<path d="M44 163H985" stroke="white" stroke-opacity="0.15" stroke-width="6"/>
<path d="M44 151H985" stroke="white" stroke-opacity="0.15" stroke-width="6"/>
<path d="M44 139H985" stroke="white" stroke-opacity="0.15" stroke-width="6"/>
<path d="M44 79H985" stroke="white" stroke-opacity="0.15" stroke-width="6"/>
<path d="M44 67H985" stroke="white" stroke-opacity="0.15" stroke-width="6"/>
<path d="M44 103H985" stroke="white" stroke-opacity="0.15" stroke-width="6"/>
<path d="M44 91H985" stroke="white" stroke-opacity="0.15" stroke-width="6"/>
<path d="M44 487H985" stroke="white" stroke-opacity="0.15" stroke-width="6"/>
<path d="M44 475H985" stroke="white" stroke-opacity="0.15" stroke-width="6"/>
<path d="M44 535H985" stroke="white" stroke-opacity="0.15" stroke-width="6"/>
<path d="M44 523H985" stroke="white" stroke-opacity="0.15" stroke-width="6"/>
<path d="M44 511H985" stroke="white" stroke-opacity="0.15" stroke-width="6"/>
<path d="M44 499H985" stroke="white" stroke-opacity="0.15" stroke-width="6"/>
<path d="M44 439H985" stroke="white" stroke-opacity="0.15" stroke-width="6"/>
<path d="M44 427H985" stroke="white" stroke-opacity="0.15" stroke-width="6"/>
<path d="M44 463H985" stroke="white" stroke-opacity="0.15" stroke-width="6"/>
<path d="M44 451H985" stroke="white" stroke-opacity="0.15" stroke-width="6"/>
<path d="M44 367H985" stroke="white" stroke-opacity="0.15" stroke-width="6"/>
<path d="M44 355H985" stroke="white" stroke-opacity="0.15" stroke-width="6"/>
<path d="M44 415H985" stroke="white" stroke-opacity="0.15" stroke-width="6"/>
<path d="M44 403H985" stroke="white" stroke-opacity="0.15" stroke-width="6"/>
<path d="M44 391H985" stroke="white" stroke-opacity="0.15" stroke-width="6"/>
<path d="M44 379H985" stroke="white" stroke-opacity="0.15" stroke-width="6"/>
<path d="M44 319H985" stroke="white" stroke-opacity="0.15" stroke-width="6"/>
<path d="M44 307H985" stroke="white" stroke-opacity="0.15" stroke-width="6"/>
<path d="M44 343H985" stroke="white" stroke-opacity="0.15" stroke-width="6"/>
<path d="M44 331H985" stroke="white" stroke-opacity="0.15" stroke-width="6"/>
<path d="M44 559H985" stroke="white" stroke-opacity="0.15" stroke-width="6"/>
<path d="M44 547H985" stroke="white" stroke-opacity="0.15" stroke-width="6"/>
<path d="M44 571H985" stroke="white" stroke-opacity="0.15" stroke-width="6"/>
<path d="M44 583H985" stroke="white" stroke-opacity="0.15" stroke-width="6"/>
<rect x="80" y="817.511" width="260.938" height="260.938" rx="22" fill="black" fill-opacity="0.3"/>
<rect x="383" y="817" width="257.347" height="260.938" rx="22" fill="black" fill-opacity="0.3"/>
<rect x="682" y="817" width="257.347" height="260.938" rx="22" fill="black" fill-opacity="0.3"/>
<rect x="80" y="1123.51" width="260.938" height="260.938" rx="22" fill="black" fill-opacity="0.3"/>
<rect x="383" y="1123" width="257.347" height="260.938" rx="22" fill="black" fill-opacity="0.3"/>
<rect x="682" y="1123" width="257.347" height="260.938" rx="22" fill="black" fill-opacity="0.3"/>
<line x1="987.908" y1="590.933" x2="961.84" y2="590.933" stroke="#9B9B9B" stroke-width="4"/>
<line x1="985.908" y1="588.933" x2="985.908" y2="562.865" stroke="#9B9B9B" stroke-width="4"/>
<defs>
<filter id="filter0_f" x="31" y="780.067" width="958.929" height="653.929" filterUnits="userSpaceOnUse" color-interpolation-filters="sRGB">
<feFlood flood-opacity="0" result="BackgroundImageFix"/>
<feBlend mode="normal" in="SourceGraphic" in2="BackgroundImageFix" result="shape"/>
<feGaussianBlur stdDeviation="3" result="effect1_foregroundBlur"/>
</filter>
<filter id="filter1_d" x="19" y="626" width="982" height="137" filterUnits="userSpaceOnUse" color-interpolation-filters="sRGB">
<feFlood flood-opacity="0" result="BackgroundImageFix"/>
<feColorMatrix in="SourceAlpha" type="matrix" values="0 0 0 0 0 0 0 0 0 0 0 0 0 0 0 0 0 0 127 0"/>
<feOffset dy="8"/>
<feColorMatrix type="matrix" values="0 0 0 0 0 0 0 0 0 0 0 0 0 0 0 0 0 0 0.75 0"/>
<feBlend mode="normal" in2="BackgroundImageFix" result="effect1_dropShadow"/>
<feBlend mode="normal" in="SourceGraphic" in2="effect1_dropShadow" result="shape"/>
</filter>
<filter id="filter2_d" x="32" y="25" width="961.908" height="574.932" filterUnits="userSpaceOnUse" color-interpolation-filters="sRGB">
<feFlood flood-opacity="0" result="BackgroundImageFix"/>
<feColorMatrix in="SourceAlpha" type="matrix" values="0 0 0 0 0 0 0 0 0 0 0 0 0 0 0 0 0 0 127 0"/>
<feOffset/>
<feGaussianBlur stdDeviation="5"/>
<feColorMatrix type="matrix" values="0 0 0 0 0 0 0 0 0 0 0 0 0 0 0 0 0 0 0.5 0"/>
<feBlend mode="normal" in2="BackgroundImageFix" result="effect1_dropShadow"/>
<feBlend mode="normal" in="SourceGraphic" in2="effect1_dropShadow" result="shape"/>
</filter>
<linearGradient id="paint0_linear" x1="510" y1="0" x2="510" y2="1459" gradientUnits="userSpaceOnUse">
<stop stop-color="#C28686"/>
<stop offset="0.286458" stop-color="#A75858"/>
<stop offset="0.479167" stop-color="#6A2E2E"/>
</linearGradient>
<radialGradient id="paint1_radial" cx="0" cy="0" r="1" gradientUnits="userSpaceOnUse" gradientTransform="translate(510 691) rotate(90) scale(159 434.367)">
<stop stop-color="#E6BABA"/>
<stop offset="0.8125" stop-color="#D29494"/>
<stop offset="0.984375" stop-color="#C68D8D"/>
</radialGradient>
<radialGradient id="paint2_radial" cx="0" cy="0" r="1" gradientUnits="userSpaceOnUse" gradientTransform="translate(512.954 312.466) rotate(88.0281) scale(379.14 643.433)">
<stop stop-color="white" stop-opacity="0"/>
<stop offset="1" stop-opacity="0.3"/>
</radialGradient>
</defs>
</svg>
