<svg width="181" height="223" viewBox="0 0 181 223" fill="none" xmlns="http://www.w3.org/2000/svg">
<g filter="url(#filter0_f)">
<rect x="6.45703" y="4.19086" width="170" height="214" fill="black" fill-opacity="0.4"/>
</g>
<path fill-rule="evenodd" clip-rule="evenodd" d="M170.314 175.754C170.376 175.94 170.445 176.133 170.501 176.319C170.245 175.809 170.321 176.05 170.28 175.749C170.024 175.673 169.768 175.604 169.508 175.542C169.528 175.48 169.556 175.418 169.577 175.356C169.508 175.356 169.438 175.356 169.376 175.356C169.508 175.142 169.639 174.922 169.763 174.703C169.777 174.716 169.791 174.73 169.805 174.744C169.832 174.654 169.86 174.572 169.894 174.482C169.556 173.657 169.991 174.372 169.012 173.67C168.97 173.746 168.929 173.815 168.888 173.891C168.922 174.606 168.957 175.309 168.998 176.018C168.77 176.183 168.563 176.348 168.35 176.521C168.053 176.266 167.756 175.99 167.461 175.709C167.516 175.44 167.551 175.192 167.606 174.911C167.765 175.215 167.938 175.495 168.096 175.799C168.449 173.741 168.622 173.962 169.394 172.454C169.47 172.516 169.539 172.578 169.615 172.64C169.677 172.557 169.76 172.592 170.504 172.15C170.539 172.468 170.58 172.769 170.622 173.086C170.476 173.107 170.338 173.121 170.2 173.134C170.311 173.224 170.414 173.314 170.525 173.403C170.504 173.465 170.483 173.521 170.47 173.576C170.843 173.521 171.207 173.479 171.573 173.438V163.444C171.373 163.43 171.179 163.396 170.979 163.382C171.173 163.141 171.373 162.9 171.573 162.66V161.194C171.463 161.387 171.345 161.587 171.235 161.764C171.152 161.716 171.076 161.674 170.986 161.626C171.179 161.44 171.387 161.247 171.571 161.07V157.549C171.516 157.514 171.447 157.487 171.399 157.445C171.468 157.342 171.523 157.245 171.571 157.142V152.393C170.998 152.558 170.426 152.737 169.846 152.903C170.508 151.726 170.867 151.305 171.571 151.546V143.321C171.288 143.638 171.387 142.178 170.863 142.496C170.946 140.617 170.774 140.941 170.863 139.049C171.16 139.159 171.274 138.82 171.571 138.93V130.024C171.544 130.031 171.516 130.038 171.475 130.038C171.447 129.728 171.392 129.419 171.364 129.123C171.475 129.185 171.502 129.192 171.565 129.233V123.431C171.482 123.444 171.406 123.451 171.309 123.465C171.281 123.169 171.24 122.846 171.198 122.543C171.385 122.646 171.482 122.688 171.565 122.722V108.281C171.254 108.55 170.945 108.798 170.647 108.955C169.896 108.143 170.558 108.672 169.613 108.143C170.316 106.113 171.021 106.601 171.475 104.164C171.502 104.171 171.544 104.171 171.571 104.178V103.104C171.502 103.166 171.461 103.207 171.33 103.318C171.413 103.214 171.489 103.111 171.571 103.001V95.561C171.502 95.5679 171.433 95.5817 171.371 95.5886C171.44 95.4025 171.509 95.2026 171.571 95.0164V93.4534C171.558 93.4534 171.544 93.4534 171.53 93.4603C171.558 93.3776 171.558 93.3569 171.571 93.3017V73.0734C171.475 73.3423 171.385 73.6111 171.288 73.8782C170.777 73.6301 170.281 73.3819 169.777 73.1424C170.219 71.2157 169.784 72.8459 170.998 71.5655C171.191 71.8619 171.385 72.1428 171.571 72.4392V70.678C171.343 70.6642 171.122 70.6573 170.889 70.6435C171.193 70.2368 171.394 70.0593 171.571 69.9422V0.245979L171.281 0.009884H163.658C163.561 0.196002 163.499 0.375228 163.347 0.621662C163.271 0.414864 163.202 0.208066 163.119 0.009884H158.29C158.4 0.0650302 158.497 0.113283 158.608 0.161536C158.338 0.133963 158.069 0.0994966 157.801 0.08571C157.815 0.0581369 157.829 0.0305638 157.842 0.00299072H157.045H154.055H153.696H152.233H151.956H149.908H149.5H148.143H146.682V0.009884H144.625C144.621 0.00643736 144.614 0.00643736 144.611 0.00299072H142.886C142.875 0.00471404 142.863 0.00816068 142.851 0.009884H142.21C142.21 0.00816068 142.208 0.00471404 142.208 0.00299072H141.953C141.951 0.00471404 141.949 0.00816068 141.948 0.009884H139.474C139.469 0.0202239 139.464 0.0305638 139.461 0.0409037C139.312 0.10639 139.16 0.164983 139.017 0.225299C139.017 0.223576 139.015 0.220129 139.015 0.218406C139.364 0.0116073 139.331 0.0219472 139.455 0.00299072H133.659H131.274H129.872C129.873 0.00471404 129.877 0.00816068 129.878 0.009884H129.526C129.524 0.00816068 129.521 0.00471404 129.516 0.00299072H129.409H128.053H127.777H125.728H125.321H123.963H120.431H118.706H118.03H117.775H115.277H107.096H97.3911H93.6035H93.2443H91.7814H91.505H89.4567H89.0491H87.6933H84.1613H82.4359H81.7606H81.5049H79.0075H70.8261H68.0298H64.2422H63.883H62.4201H62.1438H60.0954H59.6878H58.332H54.8H53.0746H52.3993H52.1437H49.6462H41.4648H37.8706V0.009884H35.1245H33.9345C34.045 0.0650302 34.1418 0.113283 34.2523 0.161536C33.9829 0.133963 33.7134 0.0994966 33.4457 0.08571C33.4613 0.0581369 33.4751 0.0305638 33.4889 0.00299072H29.7013C29.8464 0.140856 30.0122 0.271828 30.1435 0.416587C29.874 0.271828 29.6046 0.140856 29.3421 0.00299072H27.8792C28.273 0.285615 28.6581 0.568239 29.0726 0.862927C28.8101 1.91587 28.8101 1.39199 29.0035 2.13646C28.8654 2.3984 28.741 2.65345 28.589 2.92057C28.0087 2.41047 27.4094 1.89519 26.8239 1.3782C27.0657 1.068 27.3213 0.759528 27.5821 0.442437C27.5907 0.299402 27.5907 0.147749 27.6046 0.00299072H25.5562C25.6115 0.0650302 25.6667 0.12707 25.7151 0.182216C25.0311 0.306295 25.3766 0.361441 25.1486 0.00299072H23.7893C22.9275 0.292508 21.8998 0.547559 21.4992 0.704381C20.8929 -0.0176891 20.5268 0.251149 20.2573 0.00299072H18.5319C18.3178 0.0443504 18.0967 0.0926033 17.8774 0.133963C17.8704 0.0926033 17.8566 0.0443504 17.8566 0.00299072H17.601C17.5872 0.0236705 17.5734 0.0443504 17.5596 0.0581369C17.4905 0.0443504 17.4352 0.0305638 17.373 0.0167773C17.4905 0.540666 17.5872 1.06283 17.6839 1.58672C17.2159 1.53157 16.7115 1.46264 16.2228 1.4006C15.8082 0.258042 16.6373 1.06283 15.506 0.113283C15.4421 0.382121 15.4283 0.5062 15.4145 0.642342C15.601 0.738848 15.7944 0.82846 15.9861 0.924966C15.8411 1.18691 15.7098 1.44024 15.5785 1.70908C15.4905 1.51089 15.3937 1.31788 15.297 1.11798C15.2487 1.18002 15.1519 1.25584 14.848 1.66255C14.9585 1.11798 15.0621 0.568239 15.1658 0.0167773C14.9879 0.0994966 14.7944 0.168429 14.6217 0.244255C15.0293 0.00299072 14.974 0.0236705 15.1036 0.00299072H6.92387C7.31593 0.0994966 7.67518 0.189109 8.08278 0.278722C8.07587 0.42348 8.06896 0.554453 8.05515 0.697488C8.19332 0.752634 8.31076 0.807781 8.44893 0.856034C8.41957 0.931859 8.41957 0.938753 8.39885 1.00079C8.66137 0.945646 8.9308 0.897393 9.21233 0.842247C8.41957 1.51779 8.98607 1.28342 8.30904 1.2972C8.00679 2.26054 8.22613 1.7918 9.02752 3.18941C8.84099 3.23077 8.64755 3.27213 8.46793 3.31349C8.20541 3.45824 7.94979 3.61679 7.68209 3.77534C7.46792 3.62368 7.21231 3.45824 6.99123 3.30659C7.10868 2.57763 7.22612 1.84005 7.35048 1.11108C6.76498 0.663022 7.00505 0.84914 6.81161 0.009884H1.60258L1.03262 0.626832L0.583569 1.11453V26.873C0.873727 26.9764 1.1967 27.066 1.02571 27.8777C0.880636 27.8639 0.728648 27.8432 0.583569 27.8294V28.7031C0.825367 28.3585 1.13625 28.0017 1.69412 27.6433C1.81156 27.7881 1.92901 27.9328 2.05336 28.0776C2.06027 28.8272 2.08099 29.5786 2.09481 30.3144C1.27442 30.2938 1.51449 30.2179 0.85991 30.5833C0.770099 30.5143 0.680288 30.4454 0.583569 30.3834V32.2342C0.728648 32.3583 0.880636 32.4755 1.01881 32.5927C0.984264 32.8546 0.956629 33.1166 0.922087 33.3768C0.804642 33.2044 0.694105 33.0114 0.57666 32.8253V40.308C0.663017 40.2821 0.652654 40.2873 0.832276 40.5354C0.756282 40.501 0.680288 40.4613 0.597386 40.42V41.1214C0.692378 40.9404 0.778735 40.7578 0.866819 40.5699C0.937631 40.6027 1.00844 40.6406 1.08098 40.6733L1.31587 41.3402C1.24679 41.485 1.1777 41.6366 1.10862 41.7883C0.935904 41.7073 0.756282 41.6246 0.57666 41.535V73.232L0.970447 74.0092C0.832276 74.1746 0.714831 74.3676 0.57666 74.5331V98.1632C0.721739 98.1701 0.887544 98.1908 1.21052 98.2391C0.189782 100.49 2.09308 98.9473 1.72175 100.69C1.45232 100.662 1.18979 100.634 0.928995 100.6C0.770099 100.467 0.701014 100.31 0.57666 100.173V101.425C0.666471 101.412 0.749373 101.405 0.832276 101.391C0.749373 101.453 0.666471 101.52 0.57666 101.582V102.553C1.10171 101.941 1.22434 101.21 2.39706 100.454C2.52141 100.598 2.62504 100.743 2.74939 100.888C2.76321 101.637 2.78394 102.389 2.79775 103.132C1.97737 103.097 2.22435 103.028 1.56285 103.387C1.23815 103.145 0.90827 102.897 0.57666 102.663V105.093C0.694105 104.976 0.797733 104.865 0.915178 104.741C1.18461 104.962 1.45404 105.175 1.72175 105.394C1.6803 105.656 1.65266 105.918 1.61812 106.178C1.46613 105.93 1.30724 105.668 1.15525 105.415C1.13452 105.553 1.12071 105.601 1.09998 105.725C1.31415 105.96 1.53522 106.208 1.74766 106.44C1.50586 106.365 1.27097 106.289 1.0309 106.206C0.913451 106.907 0.782189 107.245 0.581842 107.7V111.548C0.740738 111.521 0.913451 111.5 1.06544 111.472C0.92036 111.583 0.77528 111.7 0.630201 111.824C0.616384 111.817 0.595659 111.81 0.581842 111.803V114.748C0.664744 114.817 0.726921 114.886 0.809823 114.955C0.726921 115.114 0.664744 115.272 0.581842 115.424V115.555C0.609476 115.548 0.63711 115.541 0.664744 115.541C0.595659 116.003 0.58875 116.256 0.581842 116.456V123.884C0.809823 123.898 1.01708 123.918 1.36078 123.911C1.30551 124.695 1.25715 125.495 1.2157 126.286C1.00844 126.321 0.794279 126.348 0.581842 126.376V139.681C0.809823 139.426 1.12071 139.185 1.63021 138.835C1.83056 139.173 2.05163 139.502 2.25025 139.833C1.69757 140.254 1.14661 140.672 0.580114 141.1V141.698C0.676834 141.677 0.752828 141.656 0.842639 141.636C0.966992 142.111 1.07753 142.592 1.20188 143.075C1.00153 143.185 0.78737 143.288 0.581842 143.399V168.583C1.20188 168.335 1.07926 168.335 1.98946 168.452C0.947994 170.703 2.8582 169.167 2.49378 170.917C2.22435 170.875 1.96873 170.848 1.70102 170.813C1.03262 170.317 0.839184 169.733 0.583569 168.783V170.744C0.62502 170.696 0.645745 170.682 0.687197 170.62C0.763191 170.662 0.832276 170.696 0.915178 170.737C0.804642 170.965 0.707922 171.185 0.590477 171.418C0.590477 171.418 0.590477 171.418 0.583569 171.411V173.165C0.721739 173.29 0.846093 173.407 0.977355 173.531C0.90827 173.682 0.832276 173.834 0.763191 173.979C0.707922 173.951 0.645745 173.924 0.590477 173.896V175.018C0.659563 175.053 0.728648 175.08 0.790825 175.108C0.721739 175.252 0.652654 175.39 0.590477 175.535V176.257L0.818459 176.223L0.590477 176.698V177.544C0.645745 177.544 0.763191 177.538 1.18979 177.793C1.22434 177.71 1.26579 177.641 1.30724 177.565C1.25197 176.884 1.1967 176.223 1.14834 175.549C1.33487 175.356 1.51449 175.163 1.70102 174.97C1.97046 175.19 2.23989 175.411 2.5076 175.63C2.46614 175.892 2.43851 176.154 2.41088 176.414C2.25198 176.152 2.08617 175.897 1.9411 175.644C1.68548 177.653 1.52658 177.467 0.892726 179.023C0.789098 178.954 0.699287 178.878 0.595659 178.816V185.389C0.650927 185.527 0.768372 185.713 1.20188 186.063C0.994626 186.214 0.794279 186.373 0.595659 186.518V191.391C0.602567 191.384 0.602567 191.384 0.609476 191.378C0.82364 191.481 1.05853 191.577 1.29169 191.688C1.14661 191.998 1.00153 192.3 0.856456 192.603C0.766645 192.561 0.690651 192.52 0.593931 192.479V205.274C0.739011 205.247 0.890998 205.219 1.02917 205.192C0.93245 205.529 0.842639 205.865 0.759736 206.196C0.704468 206.127 0.6492 206.058 0.60084 205.996V208.254C1.13971 208.282 0.642291 208.082 1.28997 208.942C1.49722 209.217 1.71139 209.493 1.93073 209.774C1.49549 209.367 1.04817 208.983 0.606021 208.576V213.848L0.77528 213.993H6.3591C6.36601 213.986 6.36601 213.979 6.36601 213.972C6.37292 213.979 6.38674 213.986 6.40055 213.993H30.558C30.6754 213.944 30.7859 213.896 30.9103 213.848C30.71 213.958 30.703 213.965 30.6754 213.993H35.1487H39.5114H40.1591H40.9H40.9415H41.9588H44.2835H44.6635H45.0676C45.0607 213.994 45.0572 213.998 45.0486 214H47.2075V213.993H64.5151H65.1058H65.2233H70.2682H70.3097H74.061H74.7087H76.5083H78.8331H79.213H79.6172C79.6103 213.994 79.6068 213.998 79.5982 214H81.7571V213.993H94.4653C94.5828 213.944 94.6933 213.896 94.8177 213.848C94.6173 213.958 94.6104 213.965 94.5828 213.993H100.783H103.419H104.066H105.866H106.535C106.541 213.986 106.541 213.979 106.541 213.972C106.548 213.979 106.562 213.986 106.576 213.993H108.191H108.571H108.975C108.968 213.994 108.965 213.998 108.956 214H111.115V213.993H124.96H130.713H130.732C130.737 213.991 130.74 213.989 130.745 213.987C130.749 213.989 130.751 213.991 130.754 213.993H130.849H139.685H140.333H142.132H144.457H144.837H145.241C145.234 213.994 145.231 213.998 145.222 214H147.381V213.993H154.908C155.026 213.944 155.136 213.896 155.26 213.848C155.06 213.958 155.053 213.965 155.026 213.993H163.862C163.986 213.903 164.11 213.82 164.242 213.731C162.221 213.586 162.393 213.421 160.792 212.864C161.027 212.505 161.262 212.149 161.509 211.797C161.931 211.873 162.343 211.956 162.765 212.038C162.723 212.114 162.703 212.19 162.675 212.273C161.944 212.638 162.537 212.183 162.062 213.105C162.145 213.14 162.214 213.167 162.304 213.209C162.972 213.112 163.628 213.029 164.297 212.933C164.497 213.112 164.704 213.284 164.91 213.457C164.765 213.636 164.647 213.822 164.509 213.994H166.309C166.544 213.65 166.786 213.3 167.005 212.962C167.489 213.362 168.033 213.486 168.634 213.994H169.014C169.021 213.746 169.034 213.498 169.055 213.259C169.559 212.516 170.145 212.316 171.214 211.964C171.539 212.666 171.525 212.474 171.428 213.424C169.407 212.619 170.331 213.858 169.4 214.003H171.295L171.559 213.825V211.628C171.249 211.566 170.932 211.504 170.615 211.442C170.601 211.256 170.587 211.063 170.559 210.885C170.628 210.734 170.684 210.575 170.746 210.417C171.264 210.755 171.449 210.865 171.552 210.948V192.232C171.539 192.219 171.539 192.219 171.525 192.205C171.539 192.198 171.552 192.191 171.552 192.184V187.302H171.566V177.165V176.962V176.092C171.155 175.975 170.742 175.864 170.314 175.754ZM2.03954 37.4886C1.93591 37.723 1.83229 37.9436 1.72866 38.1693C1.44541 37.6265 1.51449 37.5782 1.47304 36.9509C1.65957 37.1302 1.85301 37.3094 2.03954 37.4886ZM0.970447 39.7668C0.486849 38.9138 1.08098 38.6588 2.17771 38.383C1.74938 39.4635 1.79083 38.7484 1.86683 39.629C1.56285 39.6772 1.26579 39.7255 0.970447 39.7668ZM1.34178 78.7862C1.14834 78.4967 0.954902 78.2141 0.756282 77.9263C0.714831 77.6161 0.67338 77.3145 0.618111 77.0112C1.47995 77.9677 1.54904 77.4438 1.34178 78.7862ZM0.666471 70.423C0.922087 70.0714 1.19152 69.7147 1.45232 69.37C1.51449 69.8319 1.58358 70.2989 1.64576 70.7538C1.31415 70.6367 0.991172 70.5195 0.666471 70.423ZM1.22434 56.2504C1.07926 56.1746 0.927268 56.1056 0.768372 56.0298C1.56113 55.4111 0.782189 55.7058 1.77529 55.6714C1.59049 55.8592 1.41087 56.0522 1.22434 56.2504ZM1.72866 53.4293C1.78393 53.7326 1.82538 54.0273 1.86683 54.3237C1.5974 53.6913 1.70102 54.2479 1.72866 53.4293ZM2.05336 42.774C1.64576 42.0795 1.74938 42.6086 2.15008 41.9761C2.23298 42.0175 2.30897 42.0589 2.38497 42.1002C2.26752 42.326 2.1639 42.5397 2.05336 42.774ZM0.81155 114.392C1.10171 114.909 0.935904 114.481 1.05335 115.059C0.977355 114.84 0.894453 114.605 0.81155 114.392ZM1.40396 146.206C1.21743 146.006 1.0309 145.792 0.858183 145.573C1.18979 145.374 1.52658 145.153 1.85819 144.955C1.948 145.313 2.024 145.67 2.12072 146.028C1.88065 146.089 1.65266 146.158 1.40396 146.206ZM2.54905 108.693C2.5905 108.989 2.64577 109.311 2.68031 109.622C2.3487 109.497 2.01191 109.387 1.68721 109.27C1.97737 109.086 2.26752 108.879 2.54905 108.693ZM2.7563 110.304C2.64577 110.538 2.54214 110.759 2.4316 110.992C2.14835 110.44 2.21053 110.385 2.17599 109.753C2.36252 109.939 2.56977 110.125 2.7563 110.304ZM2.88756 111.198C2.45924 112.286 2.49378 111.564 2.57668 112.451C2.2727 112.486 1.96873 112.534 1.67339 112.575C1.20361 111.729 1.78393 111.467 2.88756 111.198ZM3.081 114.909C2.97738 115.129 2.86684 115.357 2.74939 115.589C2.3487 114.902 2.45924 115.417 2.84611 114.785C2.92902 114.826 3.00501 114.874 3.081 114.909ZM1.15007 114.275C1.29515 113.971 1.43332 113.668 1.5784 113.366C1.43332 113.297 1.27442 113.222 1.12934 113.153C1.63367 113.111 1.27442 112.967 1.5784 113.366C1.6613 113.401 1.73039 113.442 1.81329 113.477C1.89619 113.69 1.97218 113.911 2.05509 114.137C1.97909 114.288 1.91001 114.447 1.83401 114.599C1.61121 114.481 1.38323 114.378 1.15007 114.275ZM1.94282 129.054C1.78393 128.985 1.62503 128.923 1.47995 128.84C2.2658 128.228 1.48686 128.516 2.48687 128.482C2.31588 128.668 2.12244 128.861 1.94282 129.054ZM2.44542 126.245C2.48687 126.548 2.52832 126.838 2.57668 127.139C2.29516 126.507 2.41088 127.063 2.44542 126.245ZM0.721739 171.749C1.02571 171.694 1.32796 171.646 1.62503 171.611C1.47995 171.721 1.32796 171.839 1.18288 171.956C1.02571 171.887 0.873727 171.818 0.721739 171.749ZM2.34352 173.614C1.99809 173.359 1.6613 173.097 1.31587 172.85C1.89619 172.225 1.96355 171.459 3.18463 170.682C3.30208 170.827 3.41261 170.972 3.53697 171.116C3.55078 171.866 3.5646 172.624 3.59223 173.36C2.7563 173.34 3.01192 173.264 2.34352 173.614ZM3.52315 180.531C3.41261 180.765 3.30898 180.986 3.19845 181.219C2.92211 180.662 2.98428 180.621 2.94283 179.986C3.13627 180.174 3.32971 180.352 3.52315 180.531ZM3.65268 181.427C3.22436 182.515 3.2589 181.792 3.3418 182.673C3.03092 182.721 2.74249 182.77 2.43851 182.811C1.96355 181.949 2.54905 181.701 3.65268 181.427ZM3.85994 185.136C3.7425 185.356 3.63887 185.577 3.53524 185.803C3.12073 185.129 3.22436 185.644 3.62505 185.018C3.70104 185.053 3.77704 185.101 3.85994 185.136ZM1.27269 185.853C0.989445 185.315 1.05162 185.267 1.01708 184.634C1.20361 184.813 1.41087 185 1.5974 185.172C1.48686 185.405 1.38323 185.632 1.27269 185.853ZM1.58358 184.62C1.86683 185.144 1.70102 184.703 1.82538 185.287C1.74248 185.067 1.66648 184.841 1.58358 184.62ZM1.41777 182.039C1.25888 181.97 1.09998 181.908 0.947994 181.832C1.25197 181.777 1.55594 181.736 1.85128 181.694C1.70793 181.804 1.55594 181.922 1.41777 182.039ZM1.91519 184.496C2.06718 184.2 2.19844 183.898 2.35043 183.602C2.19844 183.533 2.03954 183.45 1.89446 183.388C2.39879 183.347 2.03954 183.195 2.35043 183.602C2.42642 183.636 2.49551 183.671 2.57841 183.705C2.66131 183.926 2.7373 184.146 2.82021 184.372C2.74421 184.517 2.67513 184.676 2.60604 184.834C2.37633 184.717 2.15008 184.614 1.91519 184.496ZM2.11554 185.887C3.45406 186.74 2.77012 186.823 3.46788 188C3.04646 188.241 2.60604 188.482 2.1708 188.715C2.1639 187.772 2.14317 186.837 2.11554 185.887ZM2.70103 199.288C2.54905 199.212 2.40397 199.15 2.24507 199.074C3.03092 198.455 2.25198 198.75 3.25199 198.709C3.07409 198.895 2.88066 199.088 2.70103 199.288ZM3.21227 196.473C3.25372 196.777 3.29517 197.066 3.33662 197.368C3.06028 196.734 3.18463 197.285 3.21227 196.473ZM3.25372 194.202C3.34353 193.878 3.43334 193.535 3.53697 193.204C3.73731 193.473 3.9722 193.756 4.15701 194.023C3.86685 194.092 3.56287 194.154 3.25372 194.202ZM3.54215 190.828C4.63888 189.858 4.1501 190.552 4.65269 189.196C5.71488 189.63 5.4869 189.561 6.2952 190.297C4.0672 191.041 5.12247 191.455 3.54215 190.828ZM6.41955 3.05154C6.35737 3.01018 6.28138 2.97572 6.19848 2.93436C6.12939 2.6793 6.06031 2.43115 5.99813 2.18471C6.0534 2.10199 6.09485 2.01238 6.1363 1.92966C6.31592 2.12267 6.49555 2.32947 6.68898 2.52248C6.59227 2.70171 6.51627 2.87404 6.41955 3.05154ZM16.8773 2.00549C17.0017 1.95723 17.1191 1.90209 17.2228 1.86073C17.3471 2.01927 17.4508 2.17782 17.5596 2.34326C17.278 2.31568 17.0224 2.3019 16.7392 2.26743C16.7875 2.17782 16.8359 2.10199 16.8773 2.00549ZM13.6839 0.46484C13.7737 0.92669 13.8566 1.38682 13.9464 1.83488C13.7875 1.86073 13.6286 1.89519 13.4904 1.92277C13.0897 1.53157 12.6977 1.12487 12.3039 0.725061C12.7737 0.649235 13.2279 0.559623 13.6839 0.46484ZM9.38504 2.21918C9.42649 2.13646 9.48176 2.04685 9.53012 1.96413C9.74428 2.07442 9.96536 2.18471 10.2054 2.3019C9.93772 2.26743 9.66138 2.24675 9.38504 2.21918ZM10.4075 0.759528C10.5042 0.924966 10.6148 1.08351 10.7253 1.24206C11.3868 1.65565 11.3453 1.76595 12.0569 2.55006C11.0414 3.32038 11.6493 2.87921 10.5301 2.78443C10.9308 1.46264 10.069 2.63967 10.4075 0.759528ZM12.145 193.437C11.6545 193.361 11.1588 193.306 10.6752 193.251C10.7305 192.761 10.7996 192.274 10.8617 191.784C11.3315 191.695 11.7858 191.605 12.2348 191.515C12.2763 191.66 12.2901 191.826 12.3384 191.97C12.2694 192.453 12.1934 192.956 12.145 193.437ZM13.4628 2.59831C13.9878 2.86715 14.5043 3.12909 15.0431 3.38242C14.3747 3.38931 13.7184 3.38242 13.0569 3.38931C13.1934 3.12047 13.3246 2.86542 13.4628 2.59831ZM13.1105 4.4009C13.1657 4.31129 13.221 4.22857 13.2555 4.13206C13.3799 4.0907 13.4904 4.03556 13.6079 3.9873C13.7115 4.15274 13.822 4.31818 13.9395 4.47673C13.6701 4.44915 13.3868 4.42158 13.1105 4.4009ZM14.1243 209.708C14.221 209.474 14.3177 209.24 14.4075 209C14.8842 209.633 14.7115 209.221 14.8221 209.991C14.5872 209.895 14.3523 209.805 14.1243 209.708ZM14.2556 189.706C14.1657 189.251 14.0828 188.791 13.9999 188.336C14.2694 188.122 14.5526 187.908 14.8203 187.703C15.0569 189.301 15.8359 188.338 14.2556 189.706ZM14.6562 5.5021C14.449 5.22637 14.2486 4.95064 14.0224 4.67663C14.4853 4.58702 14.9464 4.5043 15.4024 4.40779C15.145 4.78003 14.898 5.13848 14.6562 5.5021ZM16.601 3.23077C16.1951 2.83268 15.8082 2.43287 15.4145 2.03306C16.5112 2.67413 15.7392 1.97791 16.601 3.23077ZM16.5388 3.8098C16.5803 3.89252 16.6148 3.96145 16.6563 4.04245C17.0155 4.06313 16.5941 3.92009 17.4162 4.97304C17.2573 4.99372 17.1122 5.02819 16.9533 5.06265C16.5596 4.66284 16.1675 4.26993 15.7668 3.86495C16.202 3.98903 16.4352 4.0166 16.5803 4.03039C16.5596 3.95456 16.5457 3.9132 16.5388 3.8098ZM17.3817 211.037C16.9948 211.065 16.6373 211.099 16.2573 211.12C16.3195 210.782 16.3678 210.432 16.4162 210.094C17.1537 210.281 16.9879 210.219 17.4784 210.803C17.4438 210.885 17.4162 210.954 17.3817 211.037ZM15.8981 193.182C16.354 193.092 16.8221 193.01 17.2642 192.92C17.3886 193.532 17.506 194.138 17.6166 194.75C16.373 194.161 16.7668 194.428 15.8981 193.182ZM16.829 188.749C17.1951 188.991 17.5596 189.246 17.9188 189.485C16.9326 189.018 17.6356 189.508 16.829 188.749ZM20.0363 211.849C19.8083 211.766 19.5734 211.656 19.3402 211.566C20.0017 211.125 19.4784 211.256 20.1192 211.621C20.0915 211.697 20.0639 211.773 20.0363 211.849ZM21.7617 212.29C21.5337 212.187 21.2988 212.097 21.0587 212C21.3282 212.021 21.5907 212.042 21.8584 212.063C21.8169 212.138 21.8031 212.214 21.7617 212.29ZM21.9137 211.265C21.5959 211.134 21.2936 210.996 20.9827 210.885C20.266 210.246 20.1554 210.493 19.2176 209.881C19.8584 209.66 20.962 210.377 22.1969 210.555C22.0985 210.796 22.0035 211.03 21.9137 211.265ZM22.4577 211.216C23.1261 210.775 22.6097 210.913 23.2574 211.265C23.1192 211.389 22.9741 211.52 22.829 211.644C22.6995 211.499 22.589 211.361 22.4577 211.216ZM23.7962 213.95C23.4854 213.819 23.1762 213.695 22.8653 213.564C22.9758 213.329 23.0518 213.095 23.1486 212.855C23.4733 212.986 23.7686 213.11 24.0864 213.248C23.9828 213.474 23.9068 213.701 23.7962 213.95ZM23.6373 211.697C23.6926 211.539 23.7617 211.38 23.817 211.228C23.9068 211.442 24.0104 211.663 24.1002 211.888C23.9413 211.814 23.7962 211.752 23.6373 211.697ZM23.7617 4.11138C24.0242 4.13896 24.3075 4.16653 24.589 4.18032C23.8584 4.73178 24.3696 4.64906 23.7617 4.11138ZM25.817 212.318C25.5476 212.111 25.2643 211.904 24.9759 211.699C25.2937 211.837 25.6097 211.961 25.9137 212.092C25.8861 212.173 25.8584 212.235 25.817 212.318ZM27.722 105.586C27.8118 105.248 27.9085 104.919 28.0053 104.581C28.3092 104.519 28.6184 104.464 28.9224 104.402C28.5148 104.8 28.121 105.186 27.722 105.586ZM30.6944 208.332C30.4319 208.318 30.1763 208.297 29.9017 208.283C30.5355 207.796 30.0606 207.865 30.6944 208.332ZM29.9707 212.111C29.9431 212.193 29.9155 212.262 29.874 212.338C29.6875 212.173 29.4802 212 29.2799 211.828C30.0191 211.683 29.4111 211.616 29.9707 212.111ZM30.3421 213.894C30.1141 213.798 29.8723 213.708 29.6391 213.612C30.178 213.302 30.2246 213.371 30.8602 213.295C30.6806 213.501 30.5079 213.701 30.3421 213.894ZM31.2954 0.966326C31.2195 0.725061 31.1573 0.47001 31.102 0.223576C31.254 0.306295 31.3922 0.375228 31.558 0.451054C31.4457 0.614769 31.3645 0.800887 31.2954 0.966326ZM31.8671 0.938753C32.026 0.800887 32.2057 0.663022 32.3645 0.525156C32.4613 0.683702 32.5787 0.856034 32.6892 1.00769C31.9362 1.49711 32.4889 1.35924 31.8671 0.938753ZM33.4682 213.543C33.5235 213.391 33.5925 213.233 33.6478 213.081C33.7238 213.377 33.786 213.672 33.8343 213.969C33.71 213.825 33.5925 213.688 33.4682 213.543ZM35.1262 2.54489C34.5062 2.36566 33.7514 1.92277 32.8948 1.76422C33.0053 1.50228 33.1366 1.23344 33.2886 0.980112C33.5718 1.12487 33.8879 1.28342 34.178 1.42818C34.5891 1.87279 34.8136 1.94689 35.1262 2.10199V2.54489ZM51.3716 188.749C51.7378 188.991 52.1022 189.246 52.4615 189.485C51.4753 189.018 52.1782 189.508 51.3716 188.749ZM54.5789 211.849C54.351 211.766 54.1161 211.656 53.8829 211.566C54.5444 211.125 54.0211 211.256 54.6618 211.621C54.6342 211.697 54.6066 211.773 54.5789 211.849ZM56.3043 212.29C56.0764 212.187 55.8415 212.097 55.6014 212C55.8708 212.021 56.1334 212.042 56.4011 212.063C56.3596 212.138 56.3458 212.214 56.3043 212.29ZM57.3734 211.644C57.2422 211.499 57.1316 211.361 57.0004 211.216C57.6688 210.775 57.1524 210.913 57.8 211.265C57.6636 211.389 57.5185 211.52 57.3734 211.644ZM60.3596 212.318C60.0902 212.111 59.807 211.904 59.5185 211.699C59.8363 211.837 60.1524 211.961 60.4564 212.092C60.4287 212.173 60.4011 212.235 60.3596 212.318ZM64.5013 201.852V202.126C64.484 202.038 64.4702 201.95 64.4512 201.862C64.4685 201.859 64.484 201.855 64.5013 201.852ZM64.5134 212.111C64.4858 212.193 64.4581 212.262 64.4167 212.338C64.2302 212.173 64.0229 212 63.8225 211.828C64.5618 211.683 63.9538 211.616 64.5134 212.111ZM64.5151 213.744C64.4029 213.7 64.2923 213.657 64.1818 213.61C64.3182 213.531 64.4236 213.477 64.5151 213.439V213.744ZM64.4443 208.283C64.472 208.263 64.4858 208.249 64.5082 208.23V208.256C64.7949 208.271 64.7897 208.225 64.8191 208.306C64.6947 208.299 64.5739 208.29 64.4443 208.283ZM78.1318 209.75C78.0973 209.736 78.0628 209.722 78.0282 209.708C78.0679 209.614 78.1042 209.515 78.1439 209.419C78.1232 209.569 78.118 209.679 78.1318 209.75ZM78.5308 209.695C78.5844 209.7 78.6379 209.702 78.6914 209.707C78.6932 209.726 78.6949 209.741 78.6966 209.764C78.6413 209.741 78.5861 209.717 78.5308 209.695ZM80.5446 210.782C80.4272 210.806 80.3167 210.829 80.201 210.853C80.2165 210.758 80.2303 210.663 80.2459 210.568C80.3288 210.572 80.4393 210.572 80.6207 210.556C80.5999 210.63 80.5723 210.706 80.5446 210.782ZM81.2856 211.037C81.1112 211.049 80.9454 211.061 80.7778 211.075C80.7709 211.013 80.7692 210.948 80.7588 210.887C80.8279 210.736 80.8832 210.577 80.9454 210.418C81.0472 210.486 81.1284 210.537 81.2061 210.587C81.258 210.653 81.3011 210.708 81.3823 210.805C81.3478 210.885 81.3201 210.954 81.2856 211.037ZM81.7519 189.454V189.439C81.7761 189.454 81.8003 189.472 81.8227 189.487C81.7934 189.472 81.7778 189.466 81.7519 189.454ZM82.258 196.039C82.1958 195.729 82.1267 195.427 82.0714 195.124C82.3754 195.062 82.6915 195 83.0024 194.952C82.5205 195.956 82.9955 195.234 82.258 196.039ZM83.9402 211.849C83.7122 211.766 83.4773 211.656 83.2442 211.566C83.9056 211.125 83.3823 211.256 84.0231 211.621C83.9955 211.697 83.9678 211.773 83.9402 211.849ZM85.6656 212.29C85.4376 212.187 85.2027 212.097 84.9627 212C85.2321 212.021 85.4946 212.042 85.7623 212.063C85.7209 212.138 85.7071 212.214 85.6656 212.29ZM86.7347 211.644C86.6034 211.499 86.4929 211.361 86.3616 211.216C87.03 210.775 86.5136 210.913 87.1613 211.265C87.0249 211.389 86.8798 211.52 86.7347 211.644ZM87.5413 211.697C87.5965 211.539 87.6656 211.38 87.7209 211.228C87.8107 211.442 87.9143 211.663 88.0041 211.888C87.8452 211.814 87.7002 211.752 87.5413 211.697ZM89.7209 212.318C89.4515 212.111 89.1682 211.904 88.8798 211.699C89.1976 211.837 89.5136 211.961 89.8176 212.092C89.79 212.173 89.7624 212.235 89.7209 212.318ZM94.5983 208.332C94.3358 208.318 94.0802 208.297 93.8056 208.283C94.4394 207.796 93.9645 207.865 94.5983 208.332ZM93.8747 212.111C93.847 212.193 93.8194 212.262 93.7779 212.338C93.5914 212.173 93.3842 212 93.1838 211.828C93.923 211.683 93.3151 211.616 93.8747 212.111ZM94.246 213.894C94.018 213.798 93.7762 213.708 93.5431 213.612C94.0819 213.302 94.1286 213.371 94.7641 213.295C94.5845 213.501 94.4118 213.701 94.246 213.894ZM97.3721 213.543C97.4274 213.391 97.4965 213.233 97.5517 213.081C97.6277 213.377 97.6899 213.672 97.7383 213.969C97.6139 213.825 97.4965 213.688 97.3721 213.543ZM100.785 213.026C100.654 212.976 100.517 212.926 100.351 212.867C100.493 212.652 100.64 212.438 100.785 212.223V213.026ZM117.003 188.749C117.369 188.991 117.733 189.246 118.093 189.485C117.106 189.018 117.809 189.508 117.003 188.749ZM118.528 196.039C118.466 195.729 118.396 195.427 118.341 195.124C118.645 195.062 118.961 195 119.272 194.952C118.79 195.956 119.265 195.234 118.528 196.039ZM120.21 211.849C119.982 211.766 119.747 211.656 119.514 211.566C120.175 211.125 119.652 211.256 120.293 211.621C120.265 211.697 120.238 211.773 120.21 211.849ZM121.935 212.29C121.707 212.187 121.473 212.097 121.232 212C121.502 212.021 121.764 212.042 122.032 212.063C121.991 212.138 121.977 212.214 121.935 212.29ZM123.005 211.644C122.873 211.499 122.763 211.361 122.631 211.216C123.3 210.775 122.783 210.913 123.431 211.265C123.295 211.389 123.15 211.52 123.005 211.644ZM126.236 209.729C126.238 209.724 126.239 209.721 126.241 209.715C126.258 209.736 126.272 209.757 126.29 209.777C126.272 209.76 126.253 209.745 126.236 209.729ZM131.485 0.935306C131.476 0.928413 131.462 0.918073 131.455 0.91118C131.386 0.687148 131.328 0.452777 131.276 0.223576C131.428 0.306295 131.566 0.375228 131.732 0.451054C131.626 0.606152 131.55 0.778484 131.485 0.935306ZM132.041 0.938753C132.16 0.835354 132.288 0.731955 132.412 0.630279C132.41 0.652682 132.41 0.675085 132.407 0.697488C132.524 0.744018 132.63 0.790547 132.744 0.83363C132.758 0.85431 132.771 0.87499 132.787 0.897393C132.775 0.933583 132.768 0.955986 132.752 1.00079C132.782 0.993899 132.815 0.988729 132.844 0.983559C132.849 0.992176 132.854 1.00079 132.861 1.00769C132.11 1.49711 132.663 1.35924 132.041 0.938753ZM133.868 1.99342C133.873 1.98481 133.879 1.97447 133.884 1.96413C133.98 2.0141 134.089 2.06753 134.191 2.1175C134.086 2.07442 133.979 2.03306 133.868 1.99342ZM134.97 2.43459C135.056 1.94689 134.813 2.08131 134.72 1.7625C135.107 2.05719 135.353 2.02444 136.043 2.58452C135.74 2.6862 135.378 2.59142 134.97 2.43459ZM138.132 1.8659C138.084 1.78663 138.039 1.70908 137.96 1.585C138.015 1.48849 138.056 1.41267 138.105 1.32305C138.138 1.32133 138.169 1.31961 138.202 1.31616C138.234 1.48849 138.267 1.66255 138.3 1.83143C138.241 1.8435 138.189 1.85556 138.132 1.8659ZM140.599 2.87059C140.599 2.81545 140.599 2.74479 140.597 2.66724C140.666 2.7896 140.768 2.95848 140.956 3.23077C140.832 3.11186 140.718 2.99123 140.599 2.87059ZM143.569 209.881C143.639 209.857 143.732 209.879 143.811 209.876C143.88 209.962 143.989 209.993 144.069 210.165C143.929 210.096 143.775 210.015 143.569 209.881ZM143.284 2.18127C143.029 1.74699 142.787 1.32822 142.561 0.893947C143.072 1.10764 143.582 1.32822 144.107 1.54019C143.823 1.7625 143.554 1.97447 143.284 2.18127ZM146.176 210.782C145.925 210.832 145.689 210.882 145.449 210.932C145.416 210.92 145.385 210.904 145.352 210.892C145.948 210.341 145.304 210.641 146.252 210.555C146.231 210.63 146.203 210.706 146.176 210.782ZM146.395 210.942C146.393 210.923 146.392 210.904 146.39 210.885C146.44 210.777 146.481 210.663 146.525 210.549C146.533 210.551 146.542 210.555 146.55 210.556C146.497 210.687 146.447 210.813 146.395 210.942ZM155.813 202.515C155.378 202.757 154.958 202.998 154.523 203.231C154.44 202.776 154.364 202.322 154.26 201.86C154.723 201.771 155.184 201.688 155.64 201.592C155.711 201.904 155.758 202.207 155.813 202.515ZM155.048 208.332C154.785 208.318 154.53 208.297 154.255 208.283C154.889 207.796 154.414 207.865 155.048 208.332ZM147.234 211.599C147.198 211.592 147.162 211.585 147.127 211.578C147.02 211.458 146.924 211.339 146.811 211.216C147.48 210.775 146.963 210.913 147.611 211.265C147.49 211.373 147.362 211.489 147.234 211.599ZM148.15 213.95C147.896 213.843 147.644 213.739 147.39 213.634V213.134C147.424 213.041 147.464 212.95 147.502 212.854C147.827 212.984 148.122 213.109 148.44 213.246C148.336 213.474 148.26 213.701 148.15 213.95ZM147.991 211.697C148.046 211.539 148.115 211.38 148.171 211.228C148.26 211.442 148.364 211.663 148.454 211.888C148.295 211.814 148.15 211.752 147.991 211.697ZM150.171 212.318C149.901 212.111 149.618 211.904 149.329 211.699C149.647 211.837 149.963 211.961 150.267 212.092C150.24 212.173 150.212 212.235 150.171 212.318ZM151.855 212.193C151.343 211.883 150.834 211.587 150.316 211.285C150.454 210.35 150.523 210.817 150.24 210.163C150.329 209.929 150.412 209.702 150.523 209.462C151.171 209.91 151.792 210.356 152.419 210.791C152.219 211.073 152.012 211.356 151.811 211.637C151.827 211.821 151.841 212.007 151.855 212.193ZM154.469 189.384C154.186 189.604 153.917 189.818 153.649 190.023C153.393 189.589 153.152 189.17 152.925 188.736C153.433 188.949 153.944 189.17 154.469 189.384ZM154.324 212.111C154.297 212.193 154.269 212.262 154.228 212.338C154.041 212.173 153.834 212 153.633 211.828C154.373 211.683 153.765 211.616 154.324 212.111ZM154.696 213.894C154.468 213.798 154.226 213.708 153.993 213.612C154.532 213.302 154.578 213.371 155.214 213.295C155.034 213.501 154.861 213.701 154.696 213.894ZM157.822 213.543C157.877 213.391 157.946 213.233 158.001 213.081C158.077 213.377 158.14 213.672 158.188 213.969C158.064 213.825 157.946 213.688 157.822 213.543ZM154.462 212.442C154.898 212.007 157.057 211.52 157.642 211.299C158.608 212.207 158.829 211.251 159.305 212.524C157.739 212.138 156.635 213.019 154.462 212.442ZM157.248 1.76422C157.359 1.50228 157.49 1.23344 157.642 0.980112C157.925 1.12487 158.241 1.28342 158.532 1.42818C159.193 2.14335 159.338 1.86934 160.222 2.58452C159.511 2.82579 158.483 1.9917 157.248 1.76422ZM159.511 0.607876C159.566 0.518263 159.608 0.435544 159.649 0.339038C159.87 0.44933 160.091 0.566516 160.317 0.676808C159.594 1.17312 160.14 1.03526 159.511 0.607876ZM169.741 175.885C169.699 176.161 169.651 176.409 169.609 176.669C169.52 176.621 169.437 176.579 169.354 176.531C169.48 176.333 169.611 176.099 169.741 175.885ZM166.361 169.471C166.877 168.425 166.81 169.161 166.761 168.225C167.1 168.239 167.437 168.232 167.775 168.245C168.28 169.209 167.609 169.374 166.361 169.471ZM167.107 171.087C166.9 170.873 166.685 170.653 166.487 170.427C166.625 170.213 166.749 169.986 166.874 169.774C167.162 170.386 167.093 170.441 167.107 171.087ZM167.907 167.441C167.817 167.385 167.741 167.33 167.651 167.303C167.568 167.041 167.492 166.8 167.402 166.553C167.499 166.408 167.568 166.264 167.665 166.119C167.906 166.264 168.162 166.422 168.416 166.56C168.238 166.855 168.072 167.158 167.907 167.441C168.065 167.544 168.245 167.627 168.404 167.751C167.837 167.694 168.224 167.901 167.907 167.441ZM168.39 169.498C168.563 169.402 168.736 169.305 168.901 169.209C169.067 169.312 169.24 169.402 169.413 169.505C169.065 169.512 168.727 169.505 168.39 169.498ZM169.9 170.986C170.492 169.429 169.603 168.101 170.452 166.002C170.894 166.539 171.231 168.866 171.438 169.519C170.335 170.31 171.369 170.758 169.9 170.986ZM171.211 165.278C171.3 166.069 171.432 165.457 170.824 165.931C170.741 165.876 170.651 165.835 170.568 165.786C170.784 165.623 171.003 165.45 171.211 165.278ZM169.872 158.305C170.114 158.457 170.369 158.602 170.623 158.76C170.451 159.043 170.285 159.339 170.112 159.627C169.856 159.489 169.608 159.331 169.347 159.179C169.521 158.891 169.701 158.588 169.872 158.305ZM169.183 165.252C169.473 165.878 169.397 165.905 169.425 166.581C169.217 166.353 169.003 166.133 168.798 165.907C168.92 165.691 169.052 165.471 169.183 165.252ZM168.789 166.496C168.478 165.912 168.651 166.386 168.547 165.767C168.63 166.015 168.713 166.257 168.789 166.496ZM168.01 151.045C168.176 151.155 168.349 151.245 168.514 151.348C167.618 151.865 168.501 151.672 167.376 151.555C167.589 151.388 167.803 151.217 168.01 151.045ZM167.362 153.901C167.328 153.57 167.286 153.261 167.238 152.937C167.527 153.647 167.416 153.054 167.362 153.901ZM166.651 164.935C167.086 165.712 166.989 165.156 166.513 165.754C166.437 165.691 166.347 165.643 166.257 165.602C166.395 165.388 166.52 165.169 166.651 164.935ZM164.775 2.55695C165.01 2.66724 165.224 2.77753 165.464 2.89472C165.319 3.15666 165.195 3.41172 165.057 3.67883C164.672 2.95504 164.803 3.43756 164.775 2.55695ZM165.798 8.52653C165.922 9.1383 166.039 9.74491 166.15 10.3567C164.908 9.76387 165.302 10.0327 164.432 8.78675C164.886 8.69713 165.356 8.61614 165.798 8.52653ZM164.278 74.2642C163.739 75.2345 164.257 74.54 163.457 75.2896C163.734 74.9656 164.001 74.602 164.278 74.2642ZM161.939 210.074C161.836 210.115 161.725 210.17 161.615 210.212C161.504 210.074 161.373 209.922 161.248 209.777C161.518 209.805 161.773 209.819 162.041 209.839C162.015 209.915 161.967 209.991 161.939 210.074ZM161.547 207.727C161.83 207.982 161.83 207.72 162.045 208.476C161.884 208.228 161.704 207.975 161.547 207.727ZM162.14 1.58672C162.195 1.49021 162.236 1.41439 162.285 1.32478C162.678 1.2972 163.057 1.26963 163.451 1.24895C163.347 1.62808 163.257 2.01927 163.147 2.4053C162.409 2.17782 162.568 2.26054 162.14 1.58672ZM163.72 211.051C163.685 211.141 163.658 211.223 163.609 211.292C163.381 211.196 163.153 211.106 162.913 211.01C163.024 210.775 163.1 210.541 163.21 210.308C163.368 210.562 163.54 210.81 163.72 211.051ZM162.905 212.373C163.077 212.173 163.264 211.966 163.43 211.768C163.478 212.071 163.547 212.359 163.616 212.662C163.375 212.559 163.147 212.462 162.905 212.373ZM164.319 211.582C163.808 211.899 164.236 211.713 163.658 211.864C163.891 211.773 164.105 211.671 164.319 211.582ZM164.727 212.573C164.492 212.476 164.264 212.38 164.038 212.283C164.3 212.304 164.563 212.318 164.817 212.338C164.782 212.414 164.761 212.49 164.727 212.573ZM165.167 209.488C164.628 209.26 164.084 209.04 163.539 208.814C164.172 208.807 164.808 208.793 165.449 208.78C165.361 209.021 165.264 209.248 165.167 209.488ZM164.478 207.844C164.748 207.858 165.003 207.871 165.264 207.899C165.236 207.975 165.209 208.044 165.181 208.126C165.071 208.175 164.96 208.216 164.849 208.271C164.72 208.126 164.602 207.989 164.478 207.844ZM166.319 212.669C166.167 212.614 166.001 212.552 165.856 212.483C165.946 212.249 166.029 212.014 166.133 211.775C166.368 211.878 166.596 211.968 166.829 212.064C166.658 212.269 166.492 212.476 166.319 212.669ZM167.907 212.779C167.962 212.628 168.038 212.462 168.093 212.311C168.148 212.614 168.217 212.91 168.28 213.205C168.155 213.06 168.024 212.922 167.907 212.779ZM168.335 211.051C168.21 210.906 168.079 210.768 167.955 210.624C167.266 210.286 167.307 210.182 166.513 209.495C167.423 208.807 166.879 209.205 167.976 209.267C167.748 210.439 168.425 209.391 168.335 211.051ZM169.114 212.462C168.879 212.366 168.651 212.276 168.404 212.173C169.079 211.739 168.549 211.863 169.204 212.228C169.183 212.311 169.155 212.38 169.114 212.462ZM168.342 209.695C168.604 209.722 168.867 209.729 169.121 209.75C169.093 209.833 169.059 209.908 169.045 209.984C168.803 209.888 168.575 209.791 168.342 209.695ZM170.356 210.782C170.045 210.844 169.748 210.906 169.452 210.968C170.21 210.301 169.438 210.644 170.432 210.555C170.411 210.63 170.383 210.706 170.356 210.782ZM169.741 192.894C169.706 192.584 169.665 192.282 169.623 191.965C169.955 192.075 170.278 192.2 170.616 192.317C170.321 192.508 170.031 192.708 169.741 192.894Z" fill="url(#paint0_linear)"/>
<g opacity="0.16">
<path fill-rule="evenodd" clip-rule="evenodd" d="M160.458 80.2303L160.377 84.7102C160.192 88.0809 159.781 90.729 159.136 92.6537C157.941 96.0021 155.841 99.416 152.84 102.885C150.153 105.97 146.692 109.154 142.455 112.443L122.993 127.556C122.789 127.716 122.642 127.806 122.561 127.822C122.538 127.792 122.28 127.613 121.786 127.282C121.088 126.876 120.664 126.634 120.513 126.56C119.759 126.199 118.948 126.044 118.086 126.095C117.171 126.141 116.242 126.504 115.304 127.188C114.332 127.896 113.623 128.756 113.173 129.768C112.546 131.158 112.335 132.63 112.539 134.18C112.628 134.965 112.787 135.599 113.02 136.084C113.564 137.088 114.153 137.509 114.788 137.348C115.13 137.176 115.382 137.075 115.547 137.044C115.832 136.917 116.063 136.88 116.245 136.932C116.856 137.168 117.172 137.513 117.193 137.97C117.22 138.429 116.923 138.846 116.317 139.224C115.564 139.663 114.683 139.875 113.671 139.853C112.416 139.83 111.424 139.344 110.686 138.395L108.169 135.152C107.894 134.797 107.666 134.567 107.492 134.467C107.243 134.328 106.998 134.349 106.762 134.533C106.584 134.671 104.878 136.448 101.644 139.863C97.6082 143.9 93.5731 147.482 89.5466 150.608C85.6058 153.668 81.1799 156.773 76.2674 159.925C73.8259 161.488 71.4744 162.982 69.2078 164.409C68.5571 164.915 68.2188 165.675 68.1987 166.689C68.2102 167.25 68.28 167.953 68.4182 168.799C68.4671 169.234 68.3433 169.593 68.0403 169.875C67.7445 170.103 67.3508 170.15 66.862 170.008C66.3467 169.836 64.9949 168.37 62.8032 165.608C62.2936 165.626 61.7984 165.508 61.3226 165.263C60.7957 165.008 60.3459 164.646 59.9773 164.172C59.6326 163.728 59.4022 163.216 59.2885 162.641C59.1654 162.117 59.1755 161.61 59.3166 161.121C57.353 158.469 56.346 156.9 56.3036 156.413C56.2618 155.873 56.4022 155.502 56.7218 155.303C57.0478 155.049 57.4264 155.018 57.859 155.203C58.6429 155.544 59.2957 155.773 59.8154 155.892C60.8245 156.153 61.6559 156.029 62.3073 155.523C64.2514 153.682 66.2812 151.773 68.4002 149.795C72.6455 145.786 76.7396 142.252 80.6796 139.192C84.7068 136.064 89.1766 133.045 94.0877 130.133C98.1984 127.845 100.34 126.631 100.517 126.493C100.754 126.309 100.839 126.08 100.764 125.804C100.733 125.639 100.579 125.378 100.302 125.023L97.7845 121.779C97.0482 120.832 96.8214 119.748 97.1101 118.525C97.3411 117.54 97.7629 116.739 98.3754 116.12C98.8915 115.625 99.3702 115.442 99.8056 115.579C100.221 115.685 100.467 116.062 100.544 116.714C100.571 116.93 100.489 117.161 100.297 117.405C100.202 117.526 100.042 117.747 99.8128 118.065C99.4997 118.641 99.7517 119.301 100.567 120.046C101.33 120.781 102.074 121.249 102.796 121.446L103.664 121.557L104.56 122.712L116.735 113.257C118.068 112.222 120.176 110.751 123.065 108.843C126.706 106.439 129.529 104.603 131.535 103.332C139.311 98.2435 144.854 94.3178 148.17 91.5546C151.786 88.5085 154.919 85.6941 157.57 83.1166L160.458 80.2303Z" fill="#3F311E"/>
<path fill-rule="evenodd" clip-rule="evenodd" d="M13.1108 80.2303L13.1922 84.7102C13.3772 88.0809 13.7882 90.729 14.4331 92.6537C15.6279 96.0021 17.7282 99.416 20.7283 102.885C23.4159 105.97 26.8766 109.154 31.114 112.443L50.5754 127.556C50.7798 127.716 50.9266 127.806 51.0073 127.822C51.031 127.792 51.2887 127.613 51.7825 127.282C52.4806 126.876 52.9046 126.634 53.0557 126.56C53.8101 126.199 54.6206 126.044 55.4828 126.095C56.3977 126.141 57.3269 126.504 58.2648 127.188C59.2372 127.896 59.9462 128.756 60.3961 129.768C61.023 131.158 61.2339 132.63 61.0302 134.18C60.9409 134.965 60.7819 135.599 60.5487 136.084C60.0052 137.088 59.4157 137.509 58.7809 137.348C58.439 137.176 58.1863 137.075 58.0222 137.044C57.7372 136.917 57.5054 136.88 57.324 136.932C56.713 137.168 56.3963 137.513 56.3761 137.97C56.3487 138.429 56.646 138.846 57.2521 139.224C58.0042 139.663 58.8853 139.875 59.898 139.853C61.1526 139.83 62.1451 139.344 62.8829 138.395L65.4 135.152C65.6749 134.797 65.9024 134.567 66.0766 134.467C66.3256 134.328 66.5711 134.349 66.8071 134.533C66.9849 134.671 68.6908 136.448 71.9248 139.863C75.9606 143.9 79.9957 147.482 84.0221 150.608C87.9629 153.668 92.3888 156.773 97.3013 159.925C99.7428 161.488 102.094 162.982 104.361 164.409C105.012 164.915 105.35 165.675 105.37 166.689C105.359 167.25 105.289 167.953 105.151 168.799C105.102 169.234 105.225 169.593 105.528 169.875C105.824 170.103 106.218 170.15 106.707 170.008C107.222 169.836 108.574 168.37 110.766 165.608C111.275 165.626 111.77 165.508 112.246 165.263C112.773 165.008 113.223 164.646 113.591 164.172C113.936 163.728 114.167 163.216 114.28 162.641C114.403 162.117 114.393 161.61 114.252 161.121C116.216 158.469 117.223 156.9 117.265 156.413C117.307 155.873 117.167 155.502 116.847 155.303C116.521 155.049 116.142 155.018 115.71 155.203C114.926 155.544 114.273 155.773 113.753 155.892C112.744 156.153 111.913 156.029 111.261 155.523C109.317 153.682 107.288 151.773 105.169 149.795C100.923 145.786 96.8292 142.252 92.8891 139.192C88.8619 136.064 84.3921 133.045 79.481 130.133C75.3704 127.845 73.2283 126.631 73.0512 126.493C72.8144 126.309 72.7295 126.08 72.8044 125.804C72.836 125.639 72.9901 125.378 73.2665 125.023L75.7842 121.779C76.5206 120.832 76.7473 119.748 76.4587 118.525C76.2276 117.54 75.8058 116.739 75.1933 116.12C74.6772 115.625 74.1986 115.442 73.7631 115.579C73.3478 115.685 73.1016 116.062 73.0246 116.714C72.998 116.93 73.0793 117.161 73.2715 117.405C73.3672 117.526 73.527 117.747 73.7559 118.065C74.069 118.641 73.8171 119.301 73.0016 120.046C72.2386 120.781 71.4951 121.249 70.7724 121.446L69.9044 121.557L69.009 122.712L56.8332 113.258C55.5001 112.223 53.3919 110.752 50.5027 108.844C46.862 106.44 44.0391 104.604 42.033 103.333C34.2565 98.2442 28.7142 94.3185 25.3982 91.5553C21.782 88.5092 18.6488 85.6949 15.9979 83.1173L13.1108 80.2303Z" fill="#564C3D"/>
<path d="M85.6915 25.4658L75.6146 55.3367L44.3042 54.9768L69.1366 72.2515L59.7795 101.762L85.3317 84.8477L111.244 102.122L101.167 73.3312L126.719 54.9768L95.0487 54.6169L85.6915 25.4658Z" fill="#564C3D"/>
</g>
<defs>
<filter id="filter0_f" x="2.45703" y="0.190857" width="178" height="222" filterUnits="userSpaceOnUse" color-interpolation-filters="sRGB">
<feFlood flood-opacity="0" result="BackgroundImageFix"/>
<feBlend mode="normal" in="SourceGraphic" in2="BackgroundImageFix" result="shape"/>
<feGaussianBlur stdDeviation="2" result="effect1_foregroundBlur"/>
</filter>
<linearGradient id="paint0_linear" x1="34" y1="0.0029952" x2="146" y2="214.003" gradientUnits="userSpaceOnUse">
<stop stop-color="#CEC3A5"/>
<stop offset="0.505861" stop-color="#918564"/>
<stop offset="1" stop-color="#484028"/>
</linearGradient>
</defs>
</svg>
