<svg width="181" height="224" viewBox="0 0 181 224" fill="none" xmlns="http://www.w3.org/2000/svg">
<g filter="url(#filter0_f)">
<rect x="6.60767" y="5.34906" width="170" height="214" fill="black" fill-opacity="0.4"/>
</g>
<path fill-rule="evenodd" clip-rule="evenodd" d="M170.639 175.912C170.701 176.098 170.771 176.291 170.826 176.477C170.57 175.967 170.646 176.209 170.605 175.907C170.349 175.831 170.094 175.762 169.833 175.7C169.853 175.638 169.881 175.576 169.902 175.514C169.833 175.514 169.764 175.514 169.701 175.514C169.833 175.3 169.964 175.08 170.088 174.861C170.102 174.875 170.116 174.888 170.13 174.902C170.157 174.813 170.185 174.73 170.22 174.64C169.881 173.815 170.316 174.53 169.337 173.829C169.296 173.904 169.254 173.973 169.213 174.049C169.247 174.764 169.282 175.468 169.323 176.176C169.095 176.341 168.888 176.507 168.676 176.679C168.379 176.424 168.081 176.148 167.786 175.867C167.841 175.598 167.876 175.35 167.931 175.069C168.09 175.373 168.263 175.654 168.422 175.957C168.774 173.899 168.947 174.12 169.719 172.612C169.795 172.674 169.864 172.736 169.94 172.798C170.002 172.715 170.085 172.75 170.829 172.309C170.864 172.626 170.905 172.927 170.947 173.244C170.802 173.265 170.663 173.279 170.525 173.293C170.636 173.382 170.739 173.472 170.85 173.562C170.829 173.624 170.809 173.679 170.795 173.734C171.168 173.679 171.532 173.637 171.898 173.596V163.602C171.698 163.589 171.505 163.554 171.304 163.54C171.498 163.299 171.698 163.058 171.898 162.818V161.352C171.788 161.545 171.67 161.745 171.56 161.922C171.477 161.874 171.401 161.833 171.311 161.784C171.505 161.598 171.712 161.405 171.897 161.228V157.707C171.841 157.673 171.772 157.645 171.724 157.604C171.793 157.5 171.848 157.404 171.897 157.3V152.551C171.323 152.716 170.752 152.895 170.171 153.061C170.833 151.884 171.192 151.463 171.897 151.705V143.479C171.613 143.796 171.712 142.337 171.189 142.654C171.271 140.775 171.099 141.099 171.189 139.207C171.486 139.317 171.6 138.978 171.897 139.088V130.182C171.869 130.189 171.841 130.196 171.8 130.196C171.772 129.886 171.717 129.577 171.689 129.281C171.8 129.343 171.828 129.35 171.89 129.391V123.589C171.807 123.603 171.731 123.609 171.634 123.623C171.607 123.327 171.565 123.005 171.524 122.701C171.71 122.805 171.807 122.846 171.89 122.88V108.439C171.579 108.708 171.27 108.956 170.973 109.113C170.221 108.301 170.883 108.83 169.938 108.301C170.641 106.271 171.346 106.759 171.8 104.322C171.828 104.329 171.869 104.329 171.897 104.336V103.262C171.828 103.324 171.786 103.366 171.655 103.476C171.738 103.372 171.814 103.269 171.897 103.159V95.7192C171.828 95.7261 171.759 95.7399 171.696 95.7468C171.765 95.5607 171.834 95.3608 171.897 95.1746V93.6116C171.883 93.6116 171.869 93.6116 171.855 93.6185C171.883 93.5358 171.883 93.5151 171.897 93.4599V73.2316C171.8 73.5005 171.71 73.7693 171.613 74.0364C171.102 73.7883 170.607 73.5401 170.102 73.3006C170.544 71.3739 170.109 73.0042 171.323 71.7237C171.517 72.0201 171.71 72.301 171.897 72.5975V70.8362C171.669 70.8224 171.448 70.8155 171.214 70.8018C171.518 70.395 171.719 70.2175 171.897 70.1004V0.404182L171.607 0.168087H163.983C163.886 0.354206 163.824 0.533431 163.672 0.779865C163.596 0.573067 163.527 0.366269 163.444 0.168087H158.615C158.726 0.223233 158.822 0.271486 158.933 0.319739C158.663 0.292166 158.394 0.2577 158.126 0.243913C158.14 0.21634 158.154 0.188767 158.168 0.161194H157.37H154.38H154.021H152.558H152.282H150.233H149.826H148.468H147.007V0.168087H144.95C144.946 0.16464 144.94 0.16464 144.936 0.161194H143.211C143.2 0.162917 143.188 0.166364 143.176 0.168087H142.535C142.535 0.166364 142.534 0.162917 142.534 0.161194H142.278C142.276 0.162917 142.275 0.166364 142.273 0.168087H139.8C139.794 0.178427 139.789 0.188767 139.786 0.199107C139.637 0.264593 139.485 0.323186 139.342 0.383502C139.342 0.381779 139.34 0.378332 139.34 0.376609C139.689 0.16981 139.656 0.18015 139.781 0.161194H133.984H131.599H130.197C130.198 0.162917 130.202 0.166364 130.204 0.168087H129.851C129.85 0.166364 129.846 0.162917 129.841 0.161194H129.734H128.378H128.102H126.053H125.646H124.288H120.756H119.031H118.356H118.1H115.603H107.421H97.7163H93.9287H93.5695H92.1066H91.8302H89.7819H89.3742H88.0184H84.4865H82.7611H82.0858H81.8301H79.3327H71.1513H68.355H64.5674H64.2082H62.7453H62.469H60.4206H60.013H58.6572H55.1252H53.3998H52.7245H52.4689H49.9714H41.79H38.1958V0.168087H35.4497H34.2597C34.3702 0.223233 34.467 0.271486 34.5775 0.319739C34.3081 0.292166 34.0386 0.2577 33.7709 0.243913C33.7865 0.21634 33.8003 0.188767 33.8141 0.161194H30.0265C30.1716 0.299059 30.3374 0.430032 30.4686 0.57479C30.1992 0.430032 29.9298 0.299059 29.6673 0.161194H28.2044C28.5982 0.443818 28.9833 0.726442 29.3978 1.02113C29.1353 2.07408 29.1353 1.55019 29.3287 2.29466C29.1906 2.55661 29.0662 2.81166 28.9142 3.07877C28.3339 2.56867 27.7346 2.0534 27.1491 1.5364C27.3909 1.2262 27.6465 0.917731 27.9073 0.60064C27.9159 0.457605 27.9159 0.305953 27.9298 0.161194H25.8814C25.9367 0.223233 25.9919 0.285273 26.0403 0.340419C25.3563 0.464498 25.7018 0.519644 25.4738 0.161194H24.1145C23.2527 0.450711 22.225 0.705763 21.8243 0.862585C21.2181 0.140514 20.852 0.409352 20.5825 0.161194H18.8571C18.643 0.202553 18.4219 0.250806 18.2025 0.292166C18.1956 0.250806 18.1818 0.202553 18.1818 0.161194H17.9262C17.9124 0.181874 17.8986 0.202553 17.8848 0.21634C17.8157 0.202553 17.7604 0.188767 17.6982 0.17498C17.8157 0.698869 17.9124 1.22103 18.0091 1.74492C17.5411 1.68978 17.0367 1.62084 16.548 1.55881C16.1334 0.416245 16.9625 1.22103 15.8312 0.271486C15.7673 0.540324 15.7535 0.664403 15.7397 0.800545C15.9262 0.897051 16.1196 0.986664 16.3113 1.08317C16.1663 1.34511 16.035 1.59844 15.9037 1.86728C15.8157 1.6691 15.7189 1.47609 15.6222 1.27618C15.5739 1.33822 15.4771 1.41405 15.1732 1.82075C15.2837 1.27618 15.3873 0.726442 15.4909 0.17498C15.3131 0.2577 15.1196 0.326632 14.9469 0.402458C15.3545 0.161194 15.2992 0.181874 15.4288 0.161194H7.24907C7.64113 0.2577 8.00037 0.347312 8.40798 0.436925C8.40107 0.581684 8.39416 0.712656 8.38034 0.855691C8.51851 0.910837 8.63596 0.965984 8.77413 1.01424C8.74477 1.09006 8.74477 1.09696 8.72404 1.159C8.98657 1.10385 9.256 1.0556 9.53752 1.00045C8.74477 1.67599 9.31127 1.44162 8.63423 1.45541C8.33198 2.41874 8.55133 1.95 9.35272 3.34761C9.16619 3.38897 8.97275 3.43033 8.79313 3.47169C8.5306 3.61645 8.27499 3.77499 8.00728 3.93354C7.79312 3.78189 7.5375 3.61645 7.31643 3.4648C7.43387 2.73583 7.55132 1.99825 7.67567 1.26929C7.09017 0.821225 7.33024 1.00734 7.13681 0.168087H1.92777L1.35782 0.785035L0.908764 1.27273V27.0312C1.19892 27.1346 1.5219 27.2242 1.35091 28.0359C1.20583 28.0221 1.05384 28.0014 0.908764 27.9876V28.8613C1.15056 28.5167 1.46145 28.16 2.01931 27.8015C2.13676 27.9463 2.2542 28.091 2.37855 28.2358C2.38546 28.9854 2.40619 29.7368 2.42001 30.4726C1.59962 30.452 1.83969 30.3761 1.18511 30.7415C1.09529 30.6726 1.00548 30.6036 0.908764 30.5416V32.3924C1.05384 32.5165 1.20583 32.6337 1.344 32.7509C1.30946 33.0128 1.28182 33.2748 1.24728 33.535C1.12984 33.3627 1.0193 33.1696 0.901855 32.9835V40.4662C0.988212 40.4403 0.977849 40.4455 1.15747 40.6937C1.08148 40.6592 1.00548 40.6195 0.922581 40.5782V41.2796C1.01757 41.0986 1.10393 40.916 1.19201 40.7281C1.26283 40.7609 1.33364 40.7988 1.40618 40.8315L1.64107 41.4984C1.57198 41.6432 1.5029 41.7948 1.43381 41.9465C1.2611 41.8655 1.08148 41.7828 0.901855 41.6932V73.3902L1.29564 74.1674C1.15747 74.3328 1.04003 74.5258 0.901855 74.6913V98.3214C1.04693 98.3283 1.21274 98.349 1.53571 98.3973C0.514978 100.648 2.41828 99.1055 2.04694 100.848C1.77751 100.82 1.51499 100.793 1.25419 100.758C1.09529 100.626 1.02621 100.469 0.901855 100.331V101.584C0.991666 101.57 1.07457 101.563 1.15747 101.549C1.07457 101.611 0.991666 101.678 0.901855 101.74V102.711C1.4269 102.099 1.54953 101.368 2.72225 100.612C2.84661 100.756 2.95024 100.901 3.07459 101.046C3.08841 101.796 3.10913 102.547 3.12295 103.29C2.30256 103.255 2.54954 103.186 1.88805 103.545C1.56335 103.304 1.23347 103.055 0.901855 102.821V105.251C1.0193 105.134 1.12293 105.023 1.24037 104.899C1.50981 105.12 1.77924 105.334 2.04694 105.552C2.00549 105.814 1.97786 106.076 1.94332 106.337C1.79133 106.088 1.63243 105.826 1.48045 105.573C1.45972 105.711 1.4459 105.759 1.42518 105.883C1.63934 106.118 1.86041 106.366 2.07285 106.599C1.83105 106.523 1.59616 106.447 1.35609 106.364C1.23865 107.066 1.10738 107.403 0.907037 107.858V111.706C1.06593 111.679 1.23865 111.658 1.39063 111.631C1.24555 111.741 1.10048 111.858 0.955397 111.982C0.94158 111.975 0.920854 111.968 0.907037 111.961V114.907C0.989939 114.976 1.05212 115.045 1.13502 115.113C1.05212 115.272 0.989939 115.431 0.907037 115.582V115.713C0.934671 115.706 0.962305 115.699 0.989939 115.699C0.920854 116.161 0.913945 116.415 0.907037 116.614V124.042C1.13502 124.056 1.34227 124.076 1.68597 124.07C1.63071 124.854 1.58235 125.653 1.54089 126.444C1.33364 126.479 1.11947 126.506 0.907037 126.534V139.84C1.13502 139.585 1.4459 139.343 1.95541 138.993C2.15575 139.331 2.37683 139.66 2.57545 139.991C2.02276 140.412 1.47181 140.831 0.90531 141.258V141.856C1.00203 141.835 1.07802 141.815 1.16783 141.794C1.29219 142.269 1.40272 142.75 1.52708 143.233C1.32673 143.343 1.11257 143.447 0.907037 143.557V168.741C1.52708 168.493 1.40445 168.493 2.31465 168.61C1.27319 170.861 3.1834 169.326 2.81897 171.075C2.54954 171.033 2.29392 171.006 2.02622 170.971C1.35782 170.475 1.16438 169.891 0.908764 168.941V170.902C0.950215 170.854 0.970941 170.84 1.01239 170.778C1.08839 170.82 1.15747 170.854 1.24037 170.896C1.12984 171.123 1.03312 171.344 0.915673 171.576C0.915673 171.576 0.915673 171.576 0.908764 171.569V173.324C1.04693 173.448 1.17129 173.565 1.30255 173.689C1.23347 173.841 1.15747 173.992 1.08839 174.137C1.03312 174.11 0.970941 174.082 0.915673 174.054V175.176C0.984758 175.211 1.05384 175.238 1.11602 175.266C1.04693 175.411 0.977849 175.549 0.915673 175.693V176.415L1.14365 176.381L0.915673 176.857V177.703C0.970941 177.703 1.08839 177.696 1.51499 177.951C1.54953 177.868 1.59098 177.799 1.63243 177.723C1.57716 177.043 1.5219 176.381 1.47354 175.707C1.66007 175.514 1.83969 175.321 2.02622 175.128C2.29565 175.349 2.56508 175.569 2.83279 175.788C2.79134 176.05 2.76371 176.312 2.73607 176.572C2.57717 176.31 2.41137 176.055 2.26629 175.802C2.01067 177.811 1.85178 177.625 1.21792 179.181C1.11429 179.112 1.02448 179.037 0.920854 178.974V185.547C0.976122 185.685 1.09357 185.871 1.52708 186.221C1.31982 186.373 1.11947 186.531 0.920854 186.676V191.55C0.927762 191.543 0.927762 191.543 0.934671 191.536C1.14884 191.639 1.38373 191.736 1.61689 191.846C1.47181 192.156 1.32673 192.458 1.18165 192.761C1.09184 192.72 1.01585 192.678 0.919127 192.637V205.433C1.06421 205.405 1.21619 205.377 1.35436 205.35C1.25764 205.688 1.16783 206.024 1.08493 206.355C1.02966 206.286 0.974395 206.217 0.926035 206.155V208.412C1.4649 208.44 0.967487 208.24 1.61516 209.1C1.82242 209.376 2.03658 209.651 2.25593 209.932C1.82069 209.525 1.37336 209.141 0.931217 208.734V214.006L1.10048 214.151H6.6843C6.69121 214.144 6.69121 214.137 6.69121 214.13C6.69811 214.137 6.71193 214.144 6.72575 214.151H30.8832C31.0006 214.103 31.1111 214.054 31.2355 214.006C31.0351 214.116 31.0282 214.123 31.0006 214.151H35.4739H39.8366H40.4843H41.2252H41.2667H42.284H44.6087H44.9887H45.3928C45.3859 214.153 45.3824 214.156 45.3738 214.158H47.5327V214.151H64.8403H65.431H65.5484H70.5934H70.6349H74.3862H75.0339H76.8335H79.1583H79.5382H79.9424C79.9355 214.153 79.932 214.156 79.9234 214.158H82.0823V214.151H94.7905C94.908 214.103 95.0185 214.054 95.1429 214.006C94.9425 214.116 94.9356 214.123 94.908 214.151H101.108H103.744H104.392H106.191H106.86C106.867 214.144 106.867 214.137 106.867 214.13C106.874 214.137 106.887 214.144 106.901 214.151H108.516H108.896H109.3C109.293 214.153 109.29 214.156 109.281 214.158H111.44V214.151H125.285H131.038H131.057C131.062 214.149 131.066 214.147 131.071 214.146C131.074 214.147 131.076 214.149 131.079 214.151H131.174H140.01H140.658H142.458H144.782H145.162H145.567C145.56 214.153 145.556 214.156 145.548 214.158H147.706V214.151H155.233C155.351 214.103 155.461 214.054 155.586 214.006C155.385 214.116 155.378 214.123 155.351 214.151H164.187C164.311 214.061 164.435 213.979 164.567 213.889C162.546 213.744 162.719 213.579 161.118 213.022C161.353 212.664 161.587 212.307 161.834 211.955C162.256 212.031 162.669 212.114 163.09 212.197C163.049 212.272 163.028 212.348 163 212.431C162.27 212.796 162.862 212.341 162.387 213.263C162.47 213.298 162.539 213.325 162.629 213.367C163.297 213.27 163.954 213.188 164.622 213.091C164.822 213.27 165.03 213.443 165.235 213.615C165.09 213.794 164.973 213.98 164.834 214.153H166.634C166.869 213.808 167.111 213.458 167.33 213.12C167.814 213.52 168.358 213.644 168.959 214.153H169.339C169.346 213.904 169.36 213.656 169.38 213.417C169.885 212.674 170.47 212.474 171.539 212.123C171.864 212.824 171.85 212.633 171.753 213.582C169.733 212.777 170.657 214.016 169.726 214.161H171.62L171.885 213.984V211.786C171.574 211.724 171.258 211.662 170.94 211.6C170.926 211.414 170.912 211.221 170.885 211.044C170.954 210.892 171.009 210.734 171.071 210.575C171.589 210.913 171.774 211.023 171.878 211.106V192.39C171.864 192.377 171.864 192.377 171.85 192.363C171.864 192.356 171.878 192.349 171.878 192.342V187.46H171.891V177.324V177.12V176.25C171.48 176.133 171.068 176.022 170.639 175.912ZM2.36474 37.6468C2.26111 37.8812 2.15748 38.1018 2.05385 38.3275C1.7706 37.7847 1.83969 37.7364 1.79824 37.1091C1.98477 37.2884 2.17821 37.4676 2.36474 37.6468ZM1.29564 39.925C0.812045 39.072 1.40618 38.817 2.50291 38.5412C2.07458 39.6217 2.11603 38.9066 2.19202 39.7872C1.88805 39.8354 1.59098 39.8837 1.29564 39.925ZM1.66698 78.9444C1.47354 78.6549 1.2801 78.3723 1.08148 78.0845C1.04003 77.7743 0.998575 77.4727 0.943307 77.1694C1.80515 78.1259 1.87423 77.602 1.66698 78.9444ZM0.991666 70.5812C1.24728 70.2296 1.51671 69.8729 1.77751 69.5282C1.83969 69.9901 1.90877 70.4571 1.97095 70.912C1.63934 70.7949 1.31637 70.6777 0.991666 70.5812ZM1.54953 56.4086C1.40445 56.3328 1.25246 56.2638 1.09357 56.188C1.88632 55.5693 1.10738 55.864 2.10049 55.8296C1.91568 56.0174 1.73606 56.2104 1.54953 56.4086ZM2.05385 53.5875C2.10912 53.8908 2.15057 54.1855 2.19202 54.4819C1.92259 53.8495 2.02622 54.4061 2.05385 53.5875ZM2.37855 42.9322C1.97095 42.2377 2.07458 42.7668 2.47527 42.1343C2.55818 42.1757 2.63417 42.2171 2.71016 42.2584C2.59272 42.4842 2.48909 42.6979 2.37855 42.9322ZM1.13675 114.55C1.4269 115.067 1.2611 114.64 1.37854 115.217C1.30255 114.998 1.21965 114.764 1.13675 114.55ZM1.72915 146.364C1.54262 146.164 1.35609 145.951 1.18338 145.732C1.51499 145.532 1.85178 145.311 2.18339 145.113C2.2732 145.471 2.34919 145.828 2.44591 146.187C2.20584 146.247 1.97786 146.316 1.72915 146.364ZM2.87424 108.851C2.91569 109.147 2.97096 109.47 3.0055 109.78C2.67389 109.656 2.3371 109.545 2.0124 109.428C2.30256 109.244 2.59272 109.037 2.87424 108.851ZM3.0815 110.462C2.97096 110.697 2.86733 110.917 2.7568 111.15C2.47355 110.598 2.53572 110.543 2.50118 109.911C2.68771 110.097 2.89497 110.283 3.0815 110.462ZM3.21276 111.357C2.78443 112.444 2.81897 111.722 2.90188 112.609C2.5979 112.644 2.29392 112.692 1.99859 112.734C1.5288 111.887 2.10912 111.625 3.21276 111.357ZM3.4062 115.067C3.30257 115.288 3.19203 115.515 3.07459 115.748C2.67389 115.06 2.78443 115.575 3.17131 114.943C3.25421 114.984 3.3302 115.032 3.4062 115.067ZM1.47526 114.433C1.62034 114.129 1.75851 113.826 1.90359 113.525C1.75851 113.456 1.59962 113.38 1.45454 113.311C1.95886 113.269 1.59962 113.125 1.90359 113.525C1.9865 113.559 2.05558 113.6 2.13848 113.635C2.22139 113.849 2.29738 114.069 2.38028 114.295C2.30429 114.447 2.2352 114.605 2.15921 114.757C1.93641 114.64 1.70843 114.536 1.47526 114.433ZM2.26802 129.212C2.10912 129.143 1.95023 129.081 1.80515 128.998C2.59099 128.386 1.81205 128.674 2.81206 128.64C2.64108 128.826 2.44764 129.019 2.26802 129.212ZM2.77061 126.403C2.81206 126.706 2.85352 126.996 2.90188 127.297C2.62035 126.665 2.73607 127.221 2.77061 126.403ZM1.04693 171.907C1.35091 171.852 1.65316 171.804 1.95023 171.769C1.80515 171.88 1.65316 171.997 1.50808 172.114C1.35091 172.045 1.19892 171.976 1.04693 171.907ZM2.66871 173.772C2.32329 173.517 1.9865 173.255 1.64107 173.008C2.22139 172.383 2.28874 171.618 3.50983 170.84C3.62727 170.985 3.73781 171.13 3.86216 171.275C3.87598 172.024 3.8898 172.783 3.91743 173.518C3.0815 173.498 3.33711 173.422 2.66871 173.772ZM3.84834 180.689C3.73781 180.924 3.63418 181.144 3.52364 181.377C3.2473 180.82 3.30948 180.779 3.26803 180.145C3.46147 180.332 3.65491 180.51 3.84834 180.689ZM3.97788 181.585C3.54955 182.673 3.58409 181.951 3.667 182.831C3.35611 182.88 3.06768 182.928 2.7637 182.969C2.28874 182.107 2.87424 181.859 3.97788 181.585ZM4.18514 185.294C4.06769 185.514 3.96406 185.735 3.86043 185.961C3.44592 185.287 3.54955 185.802 3.95025 185.177C4.02624 185.211 4.10223 185.259 4.18514 185.294ZM1.59789 186.011C1.31464 185.473 1.37682 185.425 1.34227 184.792C1.5288 184.972 1.73606 185.158 1.92259 185.33C1.81205 185.563 1.70843 185.79 1.59789 186.011ZM1.90877 184.779C2.19202 185.302 2.02622 184.861 2.15057 185.446C2.06767 185.225 1.99168 184.999 1.90877 184.779ZM1.74297 182.197C1.58407 182.128 1.42518 182.066 1.27319 181.99C1.57716 181.935 1.88114 181.894 2.17648 181.852C2.03313 181.963 1.88114 182.08 1.74297 182.197ZM2.24038 184.655C2.39237 184.358 2.52363 184.057 2.67562 183.76C2.52363 183.691 2.36474 183.608 2.21966 183.546C2.72398 183.505 2.36474 183.353 2.67562 183.76C2.75161 183.795 2.8207 183.829 2.9036 183.864C2.98651 184.084 3.0625 184.305 3.1454 184.53C3.06941 184.675 3.00032 184.834 2.93124 184.992C2.70153 184.875 2.47527 184.772 2.24038 184.655ZM2.44073 186.045C3.77926 186.898 3.09531 186.981 3.79308 188.158C3.37166 188.399 2.93124 188.641 2.496 188.873C2.48909 187.931 2.46837 186.995 2.44073 186.045ZM3.02623 199.446C2.87424 199.37 2.72916 199.308 2.57027 199.232C3.35611 198.613 2.57717 198.908 3.57718 198.867C3.39929 199.053 3.20585 199.246 3.02623 199.446ZM3.53746 196.632C3.57891 196.935 3.62036 197.224 3.66181 197.526C3.38547 196.892 3.50983 197.443 3.53746 196.632ZM3.57891 194.36C3.66872 194.036 3.75853 193.693 3.86216 193.362C4.06251 193.631 4.2974 193.914 4.4822 194.181C4.19204 194.25 3.88807 194.312 3.57891 194.36ZM3.86734 190.986C4.96407 190.016 4.47529 190.71 4.97789 189.354C6.04008 189.788 5.8121 189.719 6.62039 190.455C4.39239 191.2 5.44767 191.613 3.86734 190.986ZM6.74475 3.20974C6.68257 3.16839 6.60658 3.13392 6.52367 3.09256C6.45459 2.83751 6.3855 2.58935 6.32333 2.34292C6.37859 2.2602 6.42005 2.17058 6.4615 2.08786C6.64112 2.28088 6.82074 2.48767 7.01418 2.68069C6.91746 2.85991 6.84147 3.03224 6.74475 3.20974ZM17.2025 2.16369C17.3269 2.11544 17.4443 2.06029 17.548 2.01893C17.6723 2.17748 17.7759 2.33602 17.8848 2.50146C17.6032 2.47389 17.3476 2.4601 17.0644 2.42563C17.1127 2.33602 17.1611 2.2602 17.2025 2.16369ZM14.0091 0.623043C14.0989 1.08489 14.1818 1.54502 14.2716 1.99308C14.1127 2.01893 13.9538 2.0534 13.8156 2.08097C13.4149 1.68978 13.0229 1.28307 12.6291 0.883264C13.0989 0.807438 13.5531 0.717826 14.0091 0.623043ZM9.71023 2.37738C9.75169 2.29466 9.80695 2.20505 9.85531 2.12233C10.0695 2.23262 10.2906 2.34292 10.5306 2.4601C10.2629 2.42563 9.98658 2.40495 9.71023 2.37738ZM10.7327 0.917731C10.8294 1.08317 10.94 1.24171 11.0505 1.40026C11.712 1.81386 11.6705 1.92415 12.3821 2.70826C11.3666 3.47858 11.9745 3.03741 10.8553 2.94263C11.256 1.62084 10.3942 2.79787 10.7327 0.917731ZM12.4702 193.595C11.9797 193.519 11.484 193.464 11.0004 193.409C11.0557 192.92 11.1248 192.432 11.1869 191.942C11.6567 191.853 12.1109 191.763 12.56 191.674C12.6015 191.818 12.6153 191.984 12.6636 192.129C12.5945 192.611 12.5186 193.114 12.4702 193.595ZM13.788 2.75651C14.313 3.02535 14.8295 3.28729 15.3683 3.54062C14.6999 3.54752 14.0436 3.54062 13.3821 3.54752C13.5186 3.27868 13.6498 3.02363 13.788 2.75651ZM13.4357 4.5591C13.4909 4.46949 13.5462 4.38677 13.5807 4.29027C13.7051 4.24891 13.8156 4.19376 13.9331 4.14551C14.0367 4.31095 14.1472 4.47638 14.2647 4.63493C13.9953 4.60736 13.712 4.57978 13.4357 4.5591ZM14.4495 209.867C14.5462 209.632 14.6429 209.398 14.7327 209.158C15.2094 209.791 15.0367 209.379 15.1472 210.149C14.9124 210.053 14.6775 209.963 14.4495 209.867ZM14.5808 189.864C14.4909 189.409 14.408 188.949 14.3251 188.494C14.5946 188.28 14.8778 188.067 15.1455 187.862C15.3821 189.459 16.1611 188.496 14.5808 189.864ZM14.9814 5.6603C14.7742 5.38457 14.5738 5.10884 14.3476 4.83483C14.8105 4.74522 15.2716 4.6625 15.7276 4.566C15.4702 4.93823 15.2232 5.29668 14.9814 5.6603ZM16.9262 3.38897C16.5203 2.99088 16.1334 2.59107 15.7397 2.19126C16.8364 2.83234 16.0644 2.13612 16.9262 3.38897ZM16.864 3.96801C16.9055 4.05072 16.94 4.11966 16.9815 4.20065C17.3407 4.22133 16.9193 4.0783 17.7414 5.13125C17.5825 5.15192 17.4374 5.18639 17.2785 5.22086C16.8847 4.82105 16.4927 4.42813 16.092 4.02315C16.5272 4.14723 16.7604 4.1748 16.9055 4.18859C16.8847 4.11276 16.8709 4.0714 16.864 3.96801ZM17.7069 211.195C17.32 211.223 16.9625 211.257 16.5825 211.278C16.6447 210.94 16.693 210.59 16.7414 210.253C17.4789 210.439 17.3131 210.377 17.8036 210.961C17.769 211.044 17.7414 211.113 17.7069 211.195ZM16.2233 193.34C16.6792 193.25 17.1473 193.168 17.5894 193.078C17.7138 193.69 17.8312 194.296 17.9418 194.908C16.6982 194.319 17.092 194.586 16.2233 193.34ZM17.1542 188.908C17.5203 189.149 17.8848 189.404 18.244 189.644C17.2578 189.177 17.9607 189.666 17.1542 188.908ZM20.3615 212.007C20.1335 211.924 19.8986 211.814 19.6654 211.724C20.3269 211.283 19.8036 211.414 20.4444 211.78C20.4167 211.855 20.3891 211.931 20.3615 212.007ZM22.0869 212.448C21.8589 212.345 21.624 212.255 21.3839 212.159C21.6534 212.179 21.9159 212.2 22.1836 212.221C22.1421 212.297 22.1283 212.372 22.0869 212.448ZM22.2389 211.423C21.9211 211.292 21.6188 211.154 21.3079 211.044C20.5912 210.404 20.4806 210.651 19.5428 210.039C20.1836 209.818 21.2872 210.535 22.5221 210.713C22.4237 210.954 22.3287 211.188 22.2389 211.423ZM22.7829 211.375C23.4513 210.933 22.9349 211.071 23.5826 211.423C23.4444 211.547 23.2993 211.678 23.1542 211.802C23.0247 211.657 22.9142 211.519 22.7829 211.375ZM24.1214 214.108C23.8106 213.977 23.5014 213.853 23.1905 213.722C23.301 213.487 23.377 213.253 23.4738 213.013C23.7985 213.144 24.0938 213.269 24.4116 213.406C24.308 213.632 24.232 213.86 24.1214 214.108ZM23.9625 211.855C24.0178 211.697 24.0869 211.538 24.1422 211.387C24.232 211.6 24.3356 211.821 24.4254 212.047C24.2665 211.973 24.1214 211.911 23.9625 211.855ZM24.0869 4.26959C24.3494 4.29716 24.6327 4.32473 24.9142 4.33852C24.1836 4.88998 24.6948 4.80726 24.0869 4.26959ZM26.1422 212.476C25.8727 212.269 25.5895 212.062 25.3011 211.857C25.6189 211.995 25.9349 212.119 26.2389 212.25C26.2113 212.331 26.1836 212.393 26.1422 212.476ZM28.0472 105.744C28.137 105.406 28.2337 105.077 28.3305 104.739C28.6344 104.677 28.9436 104.622 29.2476 104.56C28.84 104.958 28.4462 105.344 28.0472 105.744ZM31.0196 208.49C30.7571 208.476 30.5015 208.455 30.2268 208.441C30.8607 207.954 30.3857 208.023 31.0196 208.49ZM30.2959 212.269C30.2683 212.352 30.2407 212.421 30.1992 212.496C30.0127 212.331 29.8054 212.159 29.6051 211.986C30.3443 211.842 29.7363 211.774 30.2959 212.269ZM30.6673 214.053C30.4393 213.956 30.1975 213.867 29.9643 213.77C30.5032 213.46 30.5498 213.529 31.1854 213.453C31.0058 213.66 30.8331 213.86 30.6673 214.053ZM31.6206 1.12453C31.5447 0.883264 31.4825 0.628213 31.4272 0.381779C31.5792 0.464498 31.7174 0.533431 31.8832 0.609257C31.7709 0.772972 31.6897 0.95909 31.6206 1.12453ZM32.1923 1.09696C32.3512 0.95909 32.5308 0.821225 32.6897 0.683359C32.7865 0.841905 32.9039 1.01424 33.0144 1.16589C32.2614 1.65531 32.8141 1.51745 32.1923 1.09696ZM33.7934 213.701C33.8486 213.549 33.9177 213.391 33.973 213.239C34.049 213.536 34.1112 213.83 34.1595 214.127C34.0352 213.984 33.9177 213.846 33.7934 213.701ZM35.4514 2.70309C34.8314 2.52386 34.0766 2.08097 33.22 1.92243C33.3305 1.66048 33.4618 1.39164 33.6138 1.13832C33.897 1.28307 34.2131 1.44162 34.5032 1.58638C34.9143 2.03099 35.1388 2.1051 35.4514 2.2602V2.70309ZM51.6968 188.908C52.063 189.149 52.4274 189.404 52.7867 189.644C51.8005 189.177 52.5034 189.666 51.6968 188.908ZM54.9041 212.007C54.6761 211.924 54.4413 211.814 54.2081 211.724C54.8696 211.283 54.3463 211.414 54.987 211.78C54.9594 211.855 54.9318 211.931 54.9041 212.007ZM56.6295 212.448C56.4016 212.345 56.1667 212.255 55.9266 212.159C56.196 212.179 56.4585 212.2 56.7263 212.221C56.6848 212.297 56.671 212.372 56.6295 212.448ZM57.6986 211.802C57.5674 211.657 57.4568 211.519 57.3256 211.375C57.994 210.933 57.4776 211.071 58.1252 211.423C57.9888 211.547 57.8437 211.678 57.6986 211.802ZM60.6848 212.476C60.4154 212.269 60.1322 212.062 59.8437 211.857C60.1615 211.995 60.4776 212.119 60.7816 212.25C60.7539 212.331 60.7263 212.393 60.6848 212.476ZM64.8265 202.01V202.284C64.8092 202.196 64.7954 202.108 64.7764 202.02C64.7937 202.017 64.8092 202.014 64.8265 202.01ZM64.8386 212.269C64.811 212.352 64.7833 212.421 64.7419 212.496C64.5554 212.331 64.3481 212.159 64.1477 211.986C64.887 211.842 64.279 211.774 64.8386 212.269ZM64.8403 213.903C64.7281 213.858 64.6175 213.815 64.507 213.768C64.6434 213.689 64.7488 213.636 64.8403 213.598V213.903ZM64.7695 208.441C64.7971 208.421 64.811 208.407 64.8334 208.388V208.414C65.1201 208.429 65.1149 208.383 65.1443 208.464C65.0199 208.457 64.899 208.448 64.7695 208.441ZM78.457 209.908C78.4225 209.894 78.388 209.88 78.3534 209.867C78.3931 209.772 78.4294 209.674 78.4691 209.577C78.4484 209.727 78.4432 209.837 78.457 209.908ZM78.856 209.853C78.9095 209.858 78.9631 209.86 79.0166 209.865C79.0184 209.884 79.0201 209.899 79.0218 209.922C78.9665 209.899 78.9113 209.875 78.856 209.853ZM80.8698 210.94C80.7524 210.964 80.6419 210.987 80.5262 211.011C80.5417 210.916 80.5555 210.821 80.5711 210.727C80.654 210.73 80.7645 210.73 80.9458 210.715C80.9251 210.789 80.8975 210.864 80.8698 210.94ZM81.6108 211.195C81.4363 211.207 81.2705 211.219 81.103 211.233C81.0961 211.171 81.0944 211.106 81.084 211.045C81.1531 210.894 81.2084 210.735 81.2705 210.577C81.3724 210.644 81.4536 210.696 81.5313 210.746C81.5832 210.811 81.6263 210.866 81.7075 210.963C81.673 211.044 81.6453 211.113 81.6108 211.195ZM82.0771 189.613V189.597C82.1013 189.613 82.1255 189.63 82.1479 189.645C82.1186 189.63 82.103 189.625 82.0771 189.613ZM82.5832 196.197C82.521 195.887 82.4519 195.586 82.3966 195.282C82.7006 195.22 83.0167 195.158 83.3276 195.11C82.8457 196.115 83.3206 195.393 82.5832 196.197ZM84.2654 212.007C84.0374 211.924 83.8025 211.814 83.5694 211.724C84.2308 211.283 83.7075 211.414 84.3483 211.78C84.3207 211.855 84.293 211.931 84.2654 212.007ZM85.9908 212.448C85.7628 212.345 85.5279 212.255 85.2879 212.159C85.5573 212.179 85.8198 212.2 86.0875 212.221C86.0461 212.297 86.0322 212.372 85.9908 212.448ZM87.0599 211.802C86.9286 211.657 86.8181 211.519 86.6868 211.375C87.3552 210.933 86.8388 211.071 87.4865 211.423C87.3501 211.547 87.205 211.678 87.0599 211.802ZM87.8665 211.855C87.9217 211.697 87.9908 211.538 88.0461 211.387C88.1359 211.6 88.2395 211.821 88.3293 212.047C88.1704 211.973 88.0254 211.911 87.8665 211.855ZM90.0461 212.476C89.7767 212.269 89.4934 212.062 89.205 211.857C89.5228 211.995 89.8388 212.119 90.1428 212.25C90.1152 212.331 90.0876 212.393 90.0461 212.476ZM94.9235 208.49C94.661 208.476 94.4054 208.455 94.1308 208.441C94.7646 207.954 94.2897 208.023 94.9235 208.49ZM94.1999 212.269C94.1722 212.352 94.1446 212.421 94.1031 212.496C93.9166 212.331 93.7094 212.159 93.509 211.986C94.2482 211.842 93.6403 211.774 94.1999 212.269ZM94.5712 214.053C94.3432 213.956 94.1014 213.867 93.8683 213.77C94.4071 213.46 94.4538 213.529 95.0893 213.453C94.9097 213.66 94.737 213.86 94.5712 214.053ZM97.6973 213.701C97.7526 213.549 97.8217 213.391 97.8769 213.239C97.9529 213.536 98.0151 213.83 98.0635 214.127C97.9391 213.984 97.8217 213.846 97.6973 213.701ZM101.11 213.184C100.979 213.134 100.842 213.084 100.677 213.026C100.818 212.81 100.965 212.596 101.11 212.381V213.184ZM117.328 188.908C117.694 189.149 118.058 189.404 118.418 189.644C117.432 189.177 118.134 189.666 117.328 188.908ZM118.853 196.197C118.791 195.887 118.722 195.586 118.666 195.282C118.97 195.22 119.286 195.158 119.597 195.11C119.115 196.115 119.59 195.393 118.853 196.197ZM120.535 212.007C120.307 211.924 120.072 211.814 119.839 211.724C120.501 211.283 119.977 211.414 120.618 211.78C120.59 211.855 120.563 211.931 120.535 212.007ZM122.261 212.448C122.033 212.345 121.798 212.255 121.558 212.159C121.827 212.179 122.09 212.2 122.357 212.221C122.316 212.297 122.302 212.372 122.261 212.448ZM123.33 211.802C123.198 211.657 123.088 211.519 122.957 211.375C123.625 210.933 123.109 211.071 123.756 211.423C123.62 211.547 123.475 211.678 123.33 211.802ZM126.561 209.887C126.563 209.882 126.565 209.879 126.566 209.874C126.584 209.894 126.597 209.915 126.615 209.936C126.597 209.918 126.578 209.903 126.561 209.887ZM131.81 1.09351C131.801 1.08662 131.787 1.07628 131.781 1.06938C131.711 0.845351 131.653 0.61098 131.601 0.381779C131.753 0.464498 131.891 0.533431 132.057 0.609257C131.952 0.764355 131.876 0.936687 131.81 1.09351ZM132.366 1.09696C132.485 0.993557 132.613 0.890158 132.737 0.788482C132.736 0.810885 132.736 0.833288 132.732 0.855691C132.85 0.902221 132.955 0.94875 133.069 0.991833C133.083 1.01251 133.097 1.03319 133.112 1.0556C133.1 1.09179 133.093 1.11419 133.078 1.159C133.107 1.1521 133.14 1.14693 133.169 1.14176C133.174 1.15038 133.18 1.159 133.186 1.16589C132.435 1.65531 132.988 1.51745 132.366 1.09696ZM134.193 2.15163C134.199 2.14301 134.204 2.13267 134.209 2.12233C134.306 2.17231 134.414 2.22573 134.516 2.27571C134.411 2.23262 134.304 2.19126 134.193 2.15163ZM135.295 2.5928C135.382 2.1051 135.138 2.23952 135.045 1.9207C135.432 2.21539 135.679 2.18265 136.368 2.74273C136.066 2.8444 135.703 2.74962 135.295 2.5928ZM138.458 2.0241C138.409 1.94483 138.364 1.86728 138.285 1.7432C138.34 1.64669 138.382 1.57087 138.43 1.48126C138.463 1.47953 138.494 1.47781 138.527 1.47436C138.56 1.64669 138.592 1.82075 138.625 1.98963C138.566 2.0017 138.515 2.01376 138.458 2.0241ZM140.924 3.0288C140.924 2.97365 140.924 2.90299 140.922 2.82544C140.991 2.9478 141.093 3.11669 141.282 3.38897C141.157 3.27006 141.043 3.14943 140.924 3.0288ZM143.895 210.039C143.964 210.015 144.057 210.037 144.136 210.034C144.206 210.12 144.314 210.151 144.394 210.323C144.254 210.254 144.1 210.173 143.895 210.039ZM143.61 2.33947C143.354 1.90519 143.112 1.48643 142.886 1.05215C143.397 1.26584 143.907 1.48643 144.432 1.69839C144.149 1.9207 143.879 2.13267 143.61 2.33947ZM146.501 210.94C146.25 210.99 146.014 211.04 145.774 211.09C145.741 211.078 145.71 211.063 145.677 211.051C146.273 210.499 145.629 210.799 146.577 210.713C146.556 210.789 146.529 210.864 146.501 210.94ZM146.72 211.101C146.719 211.082 146.717 211.063 146.715 211.044C146.765 210.935 146.807 210.821 146.85 210.708C146.858 210.709 146.867 210.713 146.876 210.715C146.822 210.846 146.772 210.971 146.72 211.101ZM156.138 202.674C155.703 202.915 155.283 203.156 154.848 203.389C154.765 202.934 154.689 202.481 154.586 202.019C155.048 201.929 155.51 201.846 155.966 201.75C156.036 202.062 156.083 202.365 156.138 202.674ZM155.373 208.49C155.111 208.476 154.855 208.455 154.58 208.441C155.214 207.954 154.739 208.023 155.373 208.49ZM147.56 211.757C147.523 211.75 147.487 211.743 147.453 211.736C147.345 211.616 147.249 211.497 147.136 211.375C147.805 210.933 147.288 211.071 147.936 211.423C147.815 211.531 147.687 211.647 147.56 211.757ZM148.475 214.108C148.221 214.001 147.969 213.898 147.715 213.792V213.293C147.75 213.2 147.789 213.108 147.827 213.012C148.152 213.143 148.447 213.267 148.765 213.405C148.662 213.632 148.586 213.86 148.475 214.108ZM148.316 211.855C148.371 211.697 148.44 211.538 148.496 211.387C148.586 211.6 148.689 211.821 148.779 212.047C148.62 211.973 148.475 211.911 148.316 211.855ZM150.496 212.476C150.226 212.269 149.943 212.062 149.655 211.857C149.972 211.995 150.289 212.119 150.592 212.25C150.565 212.331 150.537 212.393 150.496 212.476ZM152.18 212.352C151.668 212.042 151.159 211.745 150.641 211.444C150.779 210.508 150.848 210.975 150.565 210.322C150.655 210.087 150.738 209.86 150.848 209.62C151.496 210.068 152.118 210.515 152.744 210.949C152.544 211.232 152.337 211.514 152.137 211.795C152.152 211.979 152.166 212.166 152.18 212.352ZM154.795 189.542C154.511 189.762 154.242 189.976 153.974 190.181C153.719 189.747 153.477 189.328 153.251 188.894C153.758 189.108 154.27 189.328 154.795 189.542ZM154.65 212.269C154.622 212.352 154.594 212.421 154.553 212.496C154.366 212.331 154.159 212.159 153.959 211.986C154.698 211.842 154.09 211.774 154.65 212.269ZM155.021 214.053C154.793 213.956 154.551 213.867 154.318 213.77C154.857 213.46 154.903 213.529 155.539 213.453C155.359 213.66 155.187 213.86 155.021 214.053ZM158.147 213.701C158.202 213.549 158.271 213.391 158.327 213.239C158.403 213.536 158.465 213.83 158.513 214.127C158.389 213.984 158.271 213.846 158.147 213.701ZM154.788 212.6C155.223 212.166 157.382 211.678 157.967 211.457C158.933 212.365 159.154 211.409 159.631 212.683C158.064 212.297 156.96 213.177 154.788 212.6ZM157.574 1.92243C157.684 1.66048 157.815 1.39164 157.967 1.13832C158.251 1.28307 158.567 1.44162 158.857 1.58638C159.518 2.30156 159.663 2.02755 160.548 2.74273C159.836 2.98399 158.808 2.1499 157.574 1.92243ZM159.836 0.766079C159.891 0.676466 159.933 0.593747 159.974 0.497241C160.195 0.607533 160.416 0.724719 160.643 0.835011C159.919 1.33133 160.465 1.19346 159.836 0.766079ZM170.066 176.043C170.024 176.319 169.976 176.567 169.935 176.827C169.845 176.779 169.762 176.738 169.679 176.689C169.805 176.491 169.936 176.257 170.066 176.043ZM166.686 169.629C167.202 168.583 167.135 169.319 167.087 168.383C167.425 168.397 167.762 168.39 168.1 168.404C168.605 169.367 167.935 169.532 166.686 169.629ZM167.432 171.245C167.225 171.032 167.011 170.811 166.812 170.585C166.95 170.372 167.075 170.144 167.199 169.932C167.487 170.544 167.418 170.599 167.432 171.245ZM168.232 167.599C168.142 167.544 168.066 167.489 167.976 167.461C167.893 167.199 167.817 166.958 167.727 166.711C167.824 166.567 167.893 166.422 167.99 166.277C168.232 166.422 168.487 166.58 168.741 166.718C168.563 167.013 168.398 167.316 168.232 167.599C168.391 167.702 168.57 167.785 168.729 167.909C168.163 167.852 168.549 168.059 168.232 167.599ZM168.715 169.656C168.888 169.56 169.061 169.463 169.227 169.367C169.392 169.47 169.565 169.56 169.738 169.663C169.391 169.67 169.052 169.663 168.715 169.656ZM170.225 171.144C170.817 169.588 169.928 168.259 170.777 166.16C171.22 166.698 171.556 169.024 171.764 169.677C170.66 170.468 171.695 170.916 170.225 171.144ZM171.536 165.436C171.626 166.227 171.757 165.615 171.149 166.089C171.066 166.034 170.976 165.993 170.893 165.944C171.109 165.781 171.328 165.608 171.536 165.436ZM170.197 158.464C170.439 158.615 170.695 158.76 170.948 158.918C170.776 159.201 170.61 159.498 170.437 159.785C170.182 159.647 169.933 159.489 169.672 159.337C169.847 159.049 170.026 158.746 170.197 158.464ZM169.508 165.41C169.798 166.036 169.722 166.063 169.75 166.739C169.543 166.511 169.328 166.291 169.123 166.065C169.246 165.85 169.377 165.629 169.508 165.41ZM169.114 166.654C168.803 166.07 168.976 166.544 168.872 165.926C168.955 166.174 169.038 166.415 169.114 166.654ZM168.335 151.203C168.501 151.313 168.674 151.403 168.84 151.506C167.943 152.023 168.826 151.83 167.701 151.713C167.914 151.546 168.128 151.376 168.335 151.203ZM167.688 154.059C167.653 153.728 167.612 153.419 167.563 153.095C167.852 153.805 167.741 153.213 167.688 154.059ZM166.976 165.093C167.411 165.87 167.315 165.314 166.838 165.912C166.762 165.85 166.672 165.801 166.582 165.76C166.72 165.546 166.845 165.328 166.976 165.093ZM165.1 2.71515C165.335 2.82544 165.549 2.93574 165.79 3.05292C165.644 3.31487 165.52 3.56992 165.382 3.83703C164.997 3.11324 165.128 3.59577 165.1 2.71515ZM166.123 8.68473C166.247 9.29651 166.365 9.90311 166.475 10.5149C165.233 9.92207 165.627 10.1909 164.757 8.94495C165.211 8.85534 165.681 8.77434 166.123 8.68473ZM164.603 74.4224C164.064 75.3927 164.582 74.6982 163.783 75.4478C164.059 75.1238 164.327 74.7602 164.603 74.4224ZM162.264 210.232C162.161 210.273 162.05 210.329 161.94 210.37C161.829 210.232 161.698 210.08 161.574 209.936C161.843 209.963 162.099 209.977 162.366 209.998C162.34 210.073 162.292 210.149 162.264 210.232ZM161.872 207.885C162.156 208.14 162.156 207.878 162.37 208.635C162.209 208.386 162.03 208.133 161.872 207.885ZM162.465 1.74492C162.52 1.64842 162.562 1.57259 162.61 1.48298C163.004 1.45541 163.382 1.42783 163.776 1.40715C163.672 1.78628 163.582 2.17748 163.472 2.5635C162.734 2.33602 162.893 2.41874 162.465 1.74492ZM164.045 211.209C164.011 211.299 163.983 211.381 163.935 211.45C163.707 211.354 163.479 211.264 163.239 211.168C163.349 210.933 163.425 210.699 163.536 210.466C163.693 210.72 163.866 210.968 164.045 211.209ZM163.23 212.531C163.403 212.331 163.589 212.124 163.755 211.926C163.803 212.229 163.872 212.517 163.942 212.82C163.7 212.717 163.472 212.621 163.23 212.531ZM164.644 211.74C164.133 212.057 164.562 211.871 163.983 212.023C164.216 211.931 164.43 211.83 164.644 211.74ZM165.052 212.731C164.817 212.634 164.589 212.538 164.363 212.441C164.625 212.462 164.888 212.476 165.142 212.496C165.107 212.572 165.087 212.648 165.052 212.731ZM165.492 209.646C164.954 209.419 164.41 209.198 163.864 208.972C164.498 208.965 165.133 208.952 165.774 208.938C165.686 209.179 165.589 209.407 165.492 209.646ZM164.803 208.002C165.073 208.016 165.328 208.03 165.589 208.057C165.562 208.133 165.534 208.202 165.506 208.285C165.396 208.333 165.285 208.374 165.175 208.429C165.045 208.285 164.928 208.147 164.803 208.002ZM166.644 212.827C166.492 212.772 166.327 212.71 166.182 212.641C166.271 212.407 166.354 212.172 166.458 211.933C166.693 212.036 166.921 212.126 167.154 212.222C166.983 212.428 166.817 212.634 166.644 212.827ZM168.232 212.938C168.287 212.786 168.363 212.621 168.418 212.469C168.473 212.772 168.543 213.069 168.605 213.363C168.48 213.219 168.349 213.081 168.232 212.938ZM168.66 211.209C168.536 211.064 168.404 210.927 168.28 210.782C167.591 210.444 167.632 210.341 166.838 209.653C167.748 208.965 167.204 209.363 168.301 209.426C168.073 210.597 168.75 209.55 168.66 211.209ZM169.439 212.621C169.204 212.524 168.976 212.434 168.729 212.331C169.404 211.897 168.874 212.021 169.529 212.386C169.508 212.469 169.48 212.538 169.439 212.621ZM168.667 209.853C168.929 209.88 169.192 209.887 169.446 209.908C169.418 209.991 169.384 210.067 169.37 210.142C169.128 210.046 168.9 209.949 168.667 209.853ZM170.681 210.94C170.37 211.002 170.073 211.064 169.777 211.126C170.536 210.459 169.764 210.802 170.757 210.713C170.736 210.789 170.708 210.864 170.681 210.94ZM170.066 193.052C170.031 192.742 169.99 192.44 169.948 192.123C170.28 192.234 170.603 192.358 170.942 192.475C170.646 192.666 170.356 192.866 170.066 193.052Z" fill="url(#paint0_linear)"/>
<path d="M32.1357 133.625L45.0593 116.133L24.158 110.123L42.7917 98.9084L25.7812 85.3575L47.2882 82.1272L36.7583 63.0982L57.8643 68.3442L55.418 46.734L72.9099 59.6576L78.9197 38.7563L90.1344 57.39L103.685 40.3795L106.916 61.8865L125.945 51.3566L120.699 72.4626L142.309 70.0163L129.385 87.5082L150.287 93.518L131.653 104.733L148.663 118.284L127.156 121.514L137.686 140.543L116.58 135.297L119.026 156.907L101.535 143.983L95.5248 164.885L84.3101 146.251L70.7592 163.262L67.5289 141.755L48.4999 152.285L53.7459 131.179L32.1357 133.625Z" fill="#944F39" fill-opacity="0.55"/>
<defs>
<filter id="filter0_f" x="2.60767" y="1.34906" width="178" height="222" filterUnits="userSpaceOnUse" color-interpolation-filters="sRGB">
<feFlood flood-opacity="0" result="BackgroundImageFix"/>
<feBlend mode="normal" in="SourceGraphic" in2="BackgroundImageFix" result="shape"/>
<feGaussianBlur stdDeviation="2" result="effect1_foregroundBlur"/>
</filter>
<linearGradient id="paint0_linear" x1="0.901861" y1="-6.02184" x2="137.812" y2="228.645" gradientUnits="userSpaceOnUse">
<stop stop-color="#CC9685"/>
<stop offset="0.477684" stop-color="#BB654A"/>
<stop offset="1" stop-color="#791D00"/>
</linearGradient>
</defs>
</svg>
