<svg width="1020" height="1459" viewBox="0 0 1020 1459" fill="none" xmlns="http://www.w3.org/2000/svg">
<line x1="971.908" y1="338.932" x2="945.84" y2="338.932" stroke="#9B9B9B" stroke-width="4"/>
<line x1="969.908" y1="336.932" x2="969.908" y2="310.864" stroke="#9B9B9B" stroke-width="4"/>
<rect y="-0.000976562" width="1020" height="1459" rx="14" fill="url(#paint0_linear)"/>
<g filter="url(#filter0_f)">
<circle cx="166.453" cy="789.789" r="3.72229" transform="rotate(90 166.453 789.789)" fill="#9A84C1" fill-opacity="0.4"/>
<circle cx="166.453" cy="881.275" r="3.72229" transform="rotate(90 166.453 881.275)" fill="#9A84C1" fill-opacity="0.4"/>
<circle cx="166.453" cy="972.76" r="3.72229" transform="rotate(90 166.453 972.76)" fill="#9A84C1" fill-opacity="0.4"/>
<circle cx="166.453" cy="1064.25" r="3.72229" transform="rotate(90 166.453 1064.25)" fill="#9A84C1" fill-opacity="0.4"/>
<circle cx="103.587" cy="789.789" r="3.72229" transform="rotate(90 103.587 789.789)" fill="#9A84C1" fill-opacity="0.4"/>
<circle cx="103.587" cy="881.275" r="3.72229" transform="rotate(90 103.587 881.275)" fill="#9A84C1" fill-opacity="0.4"/>
<circle cx="103.587" cy="972.76" r="3.72229" transform="rotate(90 103.587 972.76)" fill="#9A84C1" fill-opacity="0.4"/>
<circle cx="103.587" cy="1064.25" r="3.72229" transform="rotate(90 103.587 1064.25)" fill="#9A84C1" fill-opacity="0.4"/>
<circle cx="223.444" cy="789.789" r="3.72229" transform="rotate(90 223.444 789.789)" fill="#9A84C1" fill-opacity="0.4"/>
<circle cx="223.444" cy="881.275" r="3.72229" transform="rotate(90 223.444 881.275)" fill="#9A84C1" fill-opacity="0.4"/>
<circle cx="223.444" cy="972.76" r="3.72229" transform="rotate(90 223.444 972.76)" fill="#9A84C1" fill-opacity="0.4"/>
<circle cx="223.444" cy="1064.25" r="3.72229" transform="rotate(90 223.444 1064.25)" fill="#9A84C1" fill-opacity="0.4"/>
<circle cx="223.445" cy="1149.72" r="3.72229" transform="rotate(90 223.445 1149.72)" fill="#9A84C1" fill-opacity="0.4"/>
<circle cx="223.445" cy="1241.21" r="3.72229" transform="rotate(90 223.445 1241.21)" fill="#9A84C1" fill-opacity="0.4"/>
<circle cx="223.445" cy="1332.69" r="3.72229" transform="rotate(90 223.445 1332.69)" fill="#9A84C1" fill-opacity="0.4"/>
<circle cx="223.445" cy="1424.18" r="3.72229" transform="rotate(90 223.445 1424.18)" fill="#9A84C1" fill-opacity="0.4"/>
<circle cx="40.722" cy="789.789" r="3.72229" transform="rotate(90 40.722 789.789)" fill="#9A84C1" fill-opacity="0.4"/>
<circle cx="40.722" cy="881.275" r="3.72229" transform="rotate(90 40.722 881.275)" fill="#9A84C1" fill-opacity="0.4"/>
<circle cx="40.722" cy="972.76" r="3.72229" transform="rotate(90 40.722 972.76)" fill="#9A84C1" fill-opacity="0.4"/>
<circle cx="40.722" cy="1064.25" r="3.72229" transform="rotate(90 40.722 1064.25)" fill="#9A84C1" fill-opacity="0.4"/>
<circle cx="166.453" cy="1149.82" r="3.72229" transform="rotate(90 166.453 1149.82)" fill="#9A84C1" fill-opacity="0.4"/>
<circle cx="166.453" cy="1241.3" r="3.72229" transform="rotate(90 166.453 1241.3)" fill="#9A84C1" fill-opacity="0.4"/>
<circle cx="166.453" cy="1332.79" r="3.72229" transform="rotate(90 166.453 1332.79)" fill="#9A84C1" fill-opacity="0.4"/>
<circle cx="166.453" cy="1424.27" r="3.72229" transform="rotate(90 166.453 1424.27)" fill="#9A84C1" fill-opacity="0.4"/>
<circle cx="103.588" cy="1149.82" r="3.72229" transform="rotate(90 103.588 1149.82)" fill="#9A84C1" fill-opacity="0.4"/>
<circle cx="103.588" cy="1241.3" r="3.72229" transform="rotate(90 103.588 1241.3)" fill="#9A84C1" fill-opacity="0.4"/>
<circle cx="103.588" cy="1332.79" r="3.72229" transform="rotate(90 103.588 1332.79)" fill="#9A84C1" fill-opacity="0.4"/>
<circle cx="103.588" cy="1424.27" r="3.72229" transform="rotate(90 103.588 1424.27)" fill="#9A84C1" fill-opacity="0.4"/>
<circle cx="40.723" cy="1149.82" r="3.72229" transform="rotate(90 40.723 1149.82)" fill="#9A84C1" fill-opacity="0.4"/>
<circle cx="40.723" cy="1241.3" r="3.72229" transform="rotate(90 40.723 1241.3)" fill="#9A84C1" fill-opacity="0.4"/>
<circle cx="40.723" cy="1332.79" r="3.72229" transform="rotate(90 40.723 1332.79)" fill="#9A84C1" fill-opacity="0.4"/>
<circle cx="40.723" cy="1424.27" r="3.72229" transform="rotate(90 40.723 1424.27)" fill="#9A84C1" fill-opacity="0.4"/>
<circle cx="980.206" cy="789.789" r="3.72229" transform="rotate(90 980.206 789.789)" fill="#9A84C1" fill-opacity="0.4"/>
<circle cx="980.206" cy="881.275" r="3.72229" transform="rotate(90 980.206 881.275)" fill="#9A84C1" fill-opacity="0.4"/>
<circle cx="980.206" cy="972.76" r="3.72229" transform="rotate(90 980.206 972.76)" fill="#9A84C1" fill-opacity="0.4"/>
<circle cx="980.206" cy="1064.25" r="3.72229" transform="rotate(90 980.206 1064.25)" fill="#9A84C1" fill-opacity="0.4"/>
<circle cx="917.341" cy="789.789" r="3.72229" transform="rotate(90 917.341 789.789)" fill="#9A84C1" fill-opacity="0.4"/>
<circle cx="917.341" cy="881.275" r="3.72229" transform="rotate(90 917.341 881.275)" fill="#9A84C1" fill-opacity="0.4"/>
<circle cx="917.341" cy="972.76" r="3.72229" transform="rotate(90 917.341 972.76)" fill="#9A84C1" fill-opacity="0.4"/>
<circle cx="917.341" cy="1064.25" r="3.72229" transform="rotate(90 917.341 1064.25)" fill="#9A84C1" fill-opacity="0.4"/>
<circle cx="854.476" cy="789.789" r="3.72229" transform="rotate(90 854.476 789.789)" fill="#9A84C1" fill-opacity="0.4"/>
<circle cx="854.476" cy="881.275" r="3.72229" transform="rotate(90 854.476 881.275)" fill="#9A84C1" fill-opacity="0.4"/>
<circle cx="854.476" cy="972.76" r="3.72229" transform="rotate(90 854.476 972.76)" fill="#9A84C1" fill-opacity="0.4"/>
<circle cx="854.476" cy="1064.25" r="3.72229" transform="rotate(90 854.476 1064.25)" fill="#9A84C1" fill-opacity="0.4"/>
<circle cx="980.206" cy="1149.82" r="3.72229" transform="rotate(90 980.206 1149.82)" fill="#9A84C1" fill-opacity="0.4"/>
<circle cx="980.206" cy="1241.3" r="3.72229" transform="rotate(90 980.206 1241.3)" fill="#9A84C1" fill-opacity="0.4"/>
<circle cx="980.206" cy="1332.79" r="3.72229" transform="rotate(90 980.206 1332.79)" fill="#9A84C1" fill-opacity="0.4"/>
<circle cx="980.206" cy="1424.27" r="3.72229" transform="rotate(90 980.206 1424.27)" fill="#9A84C1" fill-opacity="0.4"/>
<circle cx="917.341" cy="1149.82" r="3.72229" transform="rotate(90 917.341 1149.82)" fill="#9A84C1" fill-opacity="0.4"/>
<circle cx="917.341" cy="1241.3" r="3.72229" transform="rotate(90 917.341 1241.3)" fill="#9A84C1" fill-opacity="0.4"/>
<circle cx="917.341" cy="1332.79" r="3.72229" transform="rotate(90 917.341 1332.79)" fill="#9A84C1" fill-opacity="0.4"/>
<circle cx="917.341" cy="1424.27" r="3.72229" transform="rotate(90 917.341 1424.27)" fill="#9A84C1" fill-opacity="0.4"/>
<circle cx="854.476" cy="1149.82" r="3.72229" transform="rotate(90 854.476 1149.82)" fill="#9A84C1" fill-opacity="0.4"/>
<circle cx="854.476" cy="1241.3" r="3.72229" transform="rotate(90 854.476 1241.3)" fill="#9A84C1" fill-opacity="0.4"/>
<circle cx="854.476" cy="1332.79" r="3.72229" transform="rotate(90 854.476 1332.79)" fill="#9A84C1" fill-opacity="0.4"/>
<circle cx="854.476" cy="1424.27" r="3.72229" transform="rotate(90 854.476 1424.27)" fill="#9A84C1" fill-opacity="0.4"/>
<circle cx="789.176" cy="789.789" r="3.72229" transform="rotate(90 789.176 789.789)" fill="#9A84C1" fill-opacity="0.4"/>
<circle cx="789.176" cy="881.275" r="3.72229" transform="rotate(90 789.176 881.275)" fill="#9A84C1" fill-opacity="0.4"/>
<circle cx="789.176" cy="972.76" r="3.72229" transform="rotate(90 789.176 972.76)" fill="#9A84C1" fill-opacity="0.4"/>
<circle cx="789.176" cy="1064.25" r="3.72229" transform="rotate(90 789.176 1064.25)" fill="#9A84C1" fill-opacity="0.4"/>
<circle cx="726.311" cy="789.789" r="3.72229" transform="rotate(90 726.311 789.789)" fill="#9A84C1" fill-opacity="0.4"/>
<circle cx="726.311" cy="881.275" r="3.72229" transform="rotate(90 726.311 881.275)" fill="#9A84C1" fill-opacity="0.4"/>
<circle cx="726.311" cy="972.76" r="3.72229" transform="rotate(90 726.311 972.76)" fill="#9A84C1" fill-opacity="0.4"/>
<circle cx="726.311" cy="1064.25" r="3.72229" transform="rotate(90 726.311 1064.25)" fill="#9A84C1" fill-opacity="0.4"/>
<circle cx="663.446" cy="789.789" r="3.72229" transform="rotate(90 663.446 789.789)" fill="#9A84C1" fill-opacity="0.4"/>
<circle cx="663.446" cy="881.275" r="3.72229" transform="rotate(90 663.446 881.275)" fill="#9A84C1" fill-opacity="0.4"/>
<circle cx="663.446" cy="972.76" r="3.72229" transform="rotate(90 663.446 972.76)" fill="#9A84C1" fill-opacity="0.4"/>
<circle cx="663.446" cy="1064.25" r="3.72229" transform="rotate(90 663.446 1064.25)" fill="#9A84C1" fill-opacity="0.4"/>
<circle cx="789.176" cy="1149.82" r="3.72229" transform="rotate(90 789.176 1149.82)" fill="#9A84C1" fill-opacity="0.4"/>
<circle cx="789.176" cy="1241.3" r="3.72229" transform="rotate(90 789.176 1241.3)" fill="#9A84C1" fill-opacity="0.4"/>
<circle cx="789.176" cy="1332.79" r="3.72229" transform="rotate(90 789.176 1332.79)" fill="#9A84C1" fill-opacity="0.4"/>
<circle cx="789.176" cy="1424.27" r="3.72229" transform="rotate(90 789.176 1424.27)" fill="#9A84C1" fill-opacity="0.4"/>
<circle cx="726.311" cy="1149.82" r="3.72229" transform="rotate(90 726.311 1149.82)" fill="#9A84C1" fill-opacity="0.4"/>
<circle cx="726.311" cy="1241.3" r="3.72229" transform="rotate(90 726.311 1241.3)" fill="#9A84C1" fill-opacity="0.4"/>
<circle cx="726.311" cy="1332.79" r="3.72229" transform="rotate(90 726.311 1332.79)" fill="#9A84C1" fill-opacity="0.4"/>
<circle cx="726.311" cy="1424.27" r="3.72229" transform="rotate(90 726.311 1424.27)" fill="#9A84C1" fill-opacity="0.4"/>
<circle cx="663.446" cy="1149.82" r="3.72229" transform="rotate(90 663.446 1149.82)" fill="#9A84C1" fill-opacity="0.4"/>
<circle cx="663.446" cy="1241.3" r="3.72229" transform="rotate(90 663.446 1241.3)" fill="#9A84C1" fill-opacity="0.4"/>
<circle cx="663.446" cy="1332.79" r="3.72229" transform="rotate(90 663.446 1332.79)" fill="#9A84C1" fill-opacity="0.4"/>
<circle cx="663.446" cy="1424.27" r="3.72229" transform="rotate(90 663.446 1424.27)" fill="#9A84C1" fill-opacity="0.4"/>
<circle cx="407.176" cy="789.789" r="3.72229" transform="rotate(90 407.176 789.789)" fill="#9A84C1" fill-opacity="0.4"/>
<circle cx="407.176" cy="881.275" r="3.72229" transform="rotate(90 407.176 881.275)" fill="#9A84C1" fill-opacity="0.4"/>
<circle cx="407.176" cy="972.76" r="3.72229" transform="rotate(90 407.176 972.76)" fill="#9A84C1" fill-opacity="0.4"/>
<circle cx="407.176" cy="1064.25" r="3.72229" transform="rotate(90 407.176 1064.25)" fill="#9A84C1" fill-opacity="0.4"/>
<circle cx="344.311" cy="789.789" r="3.72229" transform="rotate(90 344.311 789.789)" fill="#9A84C1" fill-opacity="0.4"/>
<circle cx="344.311" cy="881.275" r="3.72229" transform="rotate(90 344.311 881.275)" fill="#9A84C1" fill-opacity="0.4"/>
<circle cx="344.311" cy="972.76" r="3.72229" transform="rotate(90 344.311 972.76)" fill="#9A84C1" fill-opacity="0.4"/>
<circle cx="344.311" cy="1064.25" r="3.72229" transform="rotate(90 344.311 1064.25)" fill="#9A84C1" fill-opacity="0.4"/>
<circle cx="281.446" cy="789.789" r="3.72229" transform="rotate(90 281.446 789.789)" fill="#9A84C1" fill-opacity="0.4"/>
<circle cx="281.446" cy="881.275" r="3.72229" transform="rotate(90 281.446 881.275)" fill="#9A84C1" fill-opacity="0.4"/>
<circle cx="281.446" cy="972.76" r="3.72229" transform="rotate(90 281.446 972.76)" fill="#9A84C1" fill-opacity="0.4"/>
<circle cx="281.446" cy="1064.25" r="3.72229" transform="rotate(90 281.446 1064.25)" fill="#9A84C1" fill-opacity="0.4"/>
<circle cx="407.176" cy="1149.82" r="3.72229" transform="rotate(90 407.176 1149.82)" fill="#9A84C1" fill-opacity="0.4"/>
<circle cx="407.176" cy="1241.3" r="3.72229" transform="rotate(90 407.176 1241.3)" fill="#9A84C1" fill-opacity="0.4"/>
<circle cx="407.176" cy="1332.79" r="3.72229" transform="rotate(90 407.176 1332.79)" fill="#9A84C1" fill-opacity="0.4"/>
<circle cx="407.176" cy="1424.27" r="3.72229" transform="rotate(90 407.176 1424.27)" fill="#9A84C1" fill-opacity="0.4"/>
<circle cx="344.311" cy="1149.82" r="3.72229" transform="rotate(90 344.311 1149.82)" fill="#9A84C1" fill-opacity="0.4"/>
<circle cx="344.311" cy="1241.3" r="3.72229" transform="rotate(90 344.311 1241.3)" fill="#9A84C1" fill-opacity="0.4"/>
<circle cx="344.311" cy="1332.79" r="3.72229" transform="rotate(90 344.311 1332.79)" fill="#9A84C1" fill-opacity="0.4"/>
<circle cx="344.311" cy="1424.27" r="3.72229" transform="rotate(90 344.311 1424.27)" fill="#9A84C1" fill-opacity="0.4"/>
<circle cx="281.446" cy="1149.82" r="3.72229" transform="rotate(90 281.446 1149.82)" fill="#9A84C1" fill-opacity="0.4"/>
<circle cx="281.446" cy="1241.3" r="3.72229" transform="rotate(90 281.446 1241.3)" fill="#9A84C1" fill-opacity="0.4"/>
<circle cx="281.446" cy="1332.79" r="3.72229" transform="rotate(90 281.446 1332.79)" fill="#9A84C1" fill-opacity="0.4"/>
<circle cx="281.446" cy="1424.27" r="3.72229" transform="rotate(90 281.446 1424.27)" fill="#9A84C1" fill-opacity="0.4"/>
<circle cx="598.176" cy="789.789" r="3.72229" transform="rotate(90 598.176 789.789)" fill="#9A84C1" fill-opacity="0.4"/>
<circle cx="598.176" cy="881.275" r="3.72229" transform="rotate(90 598.176 881.275)" fill="#9A84C1" fill-opacity="0.4"/>
<circle cx="598.176" cy="972.76" r="3.72229" transform="rotate(90 598.176 972.76)" fill="#9A84C1" fill-opacity="0.4"/>
<circle cx="598.176" cy="1064.25" r="3.72229" transform="rotate(90 598.176 1064.25)" fill="#9A84C1" fill-opacity="0.4"/>
<circle cx="535.311" cy="789.789" r="3.72229" transform="rotate(90 535.311 789.789)" fill="#9A84C1" fill-opacity="0.4"/>
<circle cx="535.311" cy="881.275" r="3.72229" transform="rotate(90 535.311 881.275)" fill="#9A84C1" fill-opacity="0.4"/>
<circle cx="535.311" cy="972.76" r="3.72229" transform="rotate(90 535.311 972.76)" fill="#9A84C1" fill-opacity="0.4"/>
<circle cx="535.311" cy="1064.25" r="3.72229" transform="rotate(90 535.311 1064.25)" fill="#9A84C1" fill-opacity="0.4"/>
<circle cx="472.446" cy="789.789" r="3.72229" transform="rotate(90 472.446 789.789)" fill="#9A84C1" fill-opacity="0.4"/>
<circle cx="472.446" cy="881.275" r="3.72229" transform="rotate(90 472.446 881.275)" fill="#9A84C1" fill-opacity="0.4"/>
<circle cx="472.446" cy="972.76" r="3.72229" transform="rotate(90 472.446 972.76)" fill="#9A84C1" fill-opacity="0.4"/>
<circle cx="472.446" cy="1064.25" r="3.72229" transform="rotate(90 472.446 1064.25)" fill="#9A84C1" fill-opacity="0.4"/>
<circle cx="598.176" cy="1149.82" r="3.72229" transform="rotate(90 598.176 1149.82)" fill="#9A84C1" fill-opacity="0.4"/>
<circle cx="598.176" cy="1241.3" r="3.72229" transform="rotate(90 598.176 1241.3)" fill="#9A84C1" fill-opacity="0.4"/>
<circle cx="598.176" cy="1332.79" r="3.72229" transform="rotate(90 598.176 1332.79)" fill="#9A84C1" fill-opacity="0.4"/>
<circle cx="598.176" cy="1424.27" r="3.72229" transform="rotate(90 598.176 1424.27)" fill="#9A84C1" fill-opacity="0.4"/>
<circle cx="535.311" cy="1149.82" r="3.72229" transform="rotate(90 535.311 1149.82)" fill="#9A84C1" fill-opacity="0.4"/>
<circle cx="535.311" cy="1241.3" r="3.72229" transform="rotate(90 535.311 1241.3)" fill="#9A84C1" fill-opacity="0.4"/>
<circle cx="535.311" cy="1332.79" r="3.72229" transform="rotate(90 535.311 1332.79)" fill="#9A84C1" fill-opacity="0.4"/>
<circle cx="535.311" cy="1424.27" r="3.72229" transform="rotate(90 535.311 1424.27)" fill="#9A84C1" fill-opacity="0.4"/>
<circle cx="472.446" cy="1149.82" r="3.72229" transform="rotate(90 472.446 1149.82)" fill="#9A84C1" fill-opacity="0.4"/>
<circle cx="472.446" cy="1241.3" r="3.72229" transform="rotate(90 472.446 1241.3)" fill="#9A84C1" fill-opacity="0.4"/>
<circle cx="472.446" cy="1332.79" r="3.72229" transform="rotate(90 472.446 1332.79)" fill="#9A84C1" fill-opacity="0.4"/>
<circle cx="472.446" cy="1424.27" r="3.72229" transform="rotate(90 472.446 1424.27)" fill="#9A84C1" fill-opacity="0.4"/>
</g>
<g filter="url(#filter1_d)">
<rect x="40" y="36.999" width="941.908" height="554.932" fill="#807496"/>
<rect x="40" y="36.999" width="941.908" height="554.932" fill="url(#paint1_radial)"/>
</g>
<line x1="35" y1="34.999" x2="61.0676" y2="34.999" stroke="#9B9B9B" stroke-width="4"/>
<line x1="37" y1="36.999" x2="37" y2="63.0667" stroke="#9B9B9B" stroke-width="4"/>
<line x1="38" y1="591.932" x2="38" y2="565.865" stroke="#9B9B9B" stroke-width="4"/>
<line x1="40" y1="589.932" x2="66.0676" y2="589.932" stroke="#9B9B9B" stroke-width="4"/>
<line y1="-2" x2="26.0676" y2="-2" transform="matrix(-1 0 0 1 988.068 36.999)" stroke="#9B9B9B" stroke-width="4"/>
<line y1="-2" x2="26.0676" y2="-2" transform="matrix(8.74232e-08 1 1 -8.74232e-08 988.068 36.999)" stroke="#9B9B9B" stroke-width="4"/>
<line y1="-2" x2="26.0676" y2="-2" transform="matrix(-1.31134e-07 -1 -1 1.31134e-07 983.068 591.932)" stroke="#9B9B9B" stroke-width="4"/>
<line y1="-2" x2="26.0676" y2="-2" transform="matrix(-1 2.18557e-07 2.18557e-07 1 983.068 591.932)" stroke="#9B9B9B" stroke-width="4"/>
<path d="M42 61.999H983" stroke="white" stroke-opacity="0.15" stroke-width="6"/>
<path d="M42 49.999H983" stroke="white" stroke-opacity="0.15" stroke-width="6"/>
<path d="M42 37.999H983" stroke="white" stroke-opacity="0.15" stroke-width="6"/>
<path d="M42 253.999H983" stroke="white" stroke-opacity="0.15" stroke-width="6"/>
<path d="M42 241.999H983" stroke="white" stroke-opacity="0.15" stroke-width="6"/>
<path d="M42 301.999H983" stroke="white" stroke-opacity="0.15" stroke-width="6"/>
<path d="M42 289.999H983" stroke="white" stroke-opacity="0.15" stroke-width="6"/>
<path d="M42 277.999H983" stroke="white" stroke-opacity="0.15" stroke-width="6"/>
<path d="M42 265.999H983" stroke="white" stroke-opacity="0.15" stroke-width="6"/>
<path d="M42 205.999H983" stroke="white" stroke-opacity="0.15" stroke-width="6"/>
<path d="M42 193.999H983" stroke="white" stroke-opacity="0.15" stroke-width="6"/>
<path d="M42 229.999H983" stroke="white" stroke-opacity="0.15" stroke-width="6"/>
<path d="M42 217.999H983" stroke="white" stroke-opacity="0.15" stroke-width="6"/>
<path d="M42 133.999H983" stroke="white" stroke-opacity="0.15" stroke-width="6"/>
<path d="M42 121.999H983" stroke="white" stroke-opacity="0.15" stroke-width="6"/>
<path d="M42 181.999H983" stroke="white" stroke-opacity="0.15" stroke-width="6"/>
<path d="M42 169.999H983" stroke="white" stroke-opacity="0.15" stroke-width="6"/>
<path d="M42 157.999H983" stroke="white" stroke-opacity="0.15" stroke-width="6"/>
<path d="M42 145.999H983" stroke="white" stroke-opacity="0.15" stroke-width="6"/>
<path d="M42 85.999H983" stroke="white" stroke-opacity="0.15" stroke-width="6"/>
<path d="M42 73.999H983" stroke="white" stroke-opacity="0.15" stroke-width="6"/>
<path d="M42 109.999H983" stroke="white" stroke-opacity="0.15" stroke-width="6"/>
<path d="M42 97.999H983" stroke="white" stroke-opacity="0.15" stroke-width="6"/>
<path d="M42 493.999H983" stroke="white" stroke-opacity="0.15" stroke-width="6"/>
<path d="M42 481.999H983" stroke="white" stroke-opacity="0.15" stroke-width="6"/>
<path d="M42 541.999H983" stroke="white" stroke-opacity="0.15" stroke-width="6"/>
<path d="M42 529.999H983" stroke="white" stroke-opacity="0.15" stroke-width="6"/>
<path d="M42 517.999H983" stroke="white" stroke-opacity="0.15" stroke-width="6"/>
<path d="M42 505.999H983" stroke="white" stroke-opacity="0.15" stroke-width="6"/>
<path d="M42 445.999H983" stroke="white" stroke-opacity="0.15" stroke-width="6"/>
<path d="M42 433.999H983" stroke="white" stroke-opacity="0.15" stroke-width="6"/>
<path d="M42 469.999H983" stroke="white" stroke-opacity="0.15" stroke-width="6"/>
<path d="M42 457.999H983" stroke="white" stroke-opacity="0.15" stroke-width="6"/>
<path d="M42 373.999H983" stroke="white" stroke-opacity="0.15" stroke-width="6"/>
<path d="M42 361.999H983" stroke="white" stroke-opacity="0.15" stroke-width="6"/>
<path d="M42 421.999H983" stroke="white" stroke-opacity="0.15" stroke-width="6"/>
<path d="M42 409.999H983" stroke="white" stroke-opacity="0.15" stroke-width="6"/>
<path d="M42 397.999H983" stroke="white" stroke-opacity="0.15" stroke-width="6"/>
<path d="M42 385.999H983" stroke="white" stroke-opacity="0.15" stroke-width="6"/>
<path d="M42 325.999H983" stroke="white" stroke-opacity="0.15" stroke-width="6"/>
<path d="M42 313.999H983" stroke="white" stroke-opacity="0.15" stroke-width="6"/>
<path d="M42 349.999H983" stroke="white" stroke-opacity="0.15" stroke-width="6"/>
<path d="M42 337.999H983" stroke="white" stroke-opacity="0.15" stroke-width="6"/>
<path d="M42 565.999H983" stroke="white" stroke-opacity="0.15" stroke-width="6"/>
<path d="M42 553.999H983" stroke="white" stroke-opacity="0.15" stroke-width="6"/>
<path d="M42 577.999H983" stroke="white" stroke-opacity="0.15" stroke-width="6"/>
<path d="M42 589.999H983" stroke="white" stroke-opacity="0.15" stroke-width="6"/>
<rect x="83" y="829.51" width="260.938" height="260.938" rx="22" fill="black" fill-opacity="0.3"/>
<rect x="386" y="829" width="257.347" height="260.938" rx="22" fill="black" fill-opacity="0.3"/>
<rect x="685" y="829" width="257.347" height="260.938" rx="22" fill="black" fill-opacity="0.3"/>
<rect x="83" y="1135.51" width="260.938" height="260.938" rx="22" fill="black" fill-opacity="0.3"/>
<rect x="386" y="1135" width="257.347" height="260.938" rx="22" fill="black" fill-opacity="0.3"/>
<rect x="685" y="1135" width="257.347" height="260.938" rx="22" fill="black" fill-opacity="0.3"/>
<g filter="url(#filter2_d)">
<rect x="19" y="628" width="982" height="129" fill="url(#paint2_radial)"/>
</g>
<defs>
<filter id="filter0_f" x="31" y="780.067" width="958.929" height="653.929" filterUnits="userSpaceOnUse" color-interpolation-filters="sRGB">
<feFlood flood-opacity="0" result="BackgroundImageFix"/>
<feBlend mode="normal" in="SourceGraphic" in2="BackgroundImageFix" result="shape"/>
<feGaussianBlur stdDeviation="3" result="effect1_foregroundBlur"/>
</filter>
<filter id="filter1_d" x="30" y="26.999" width="961.908" height="574.932" filterUnits="userSpaceOnUse" color-interpolation-filters="sRGB">
<feFlood flood-opacity="0" result="BackgroundImageFix"/>
<feColorMatrix in="SourceAlpha" type="matrix" values="0 0 0 0 0 0 0 0 0 0 0 0 0 0 0 0 0 0 127 0"/>
<feOffset/>
<feGaussianBlur stdDeviation="5"/>
<feColorMatrix type="matrix" values="0 0 0 0 0 0 0 0 0 0 0 0 0 0 0 0 0 0 0.5 0"/>
<feBlend mode="normal" in2="BackgroundImageFix" result="effect1_dropShadow"/>
<feBlend mode="normal" in="SourceGraphic" in2="effect1_dropShadow" result="shape"/>
</filter>
<filter id="filter2_d" x="19" y="628" width="982" height="137" filterUnits="userSpaceOnUse" color-interpolation-filters="sRGB">
<feFlood flood-opacity="0" result="BackgroundImageFix"/>
<feColorMatrix in="SourceAlpha" type="matrix" values="0 0 0 0 0 0 0 0 0 0 0 0 0 0 0 0 0 0 127 0"/>
<feOffset dy="8"/>
<feColorMatrix type="matrix" values="0 0 0 0 0 0 0 0 0 0 0 0 0 0 0 0 0 0 0.75 0"/>
<feBlend mode="normal" in2="BackgroundImageFix" result="effect1_dropShadow"/>
<feBlend mode="normal" in="SourceGraphic" in2="effect1_dropShadow" result="shape"/>
</filter>
<linearGradient id="paint0_linear" x1="510" y1="-0.000976563" x2="510" y2="1459" gradientUnits="userSpaceOnUse">
<stop stop-color="#9B85C1"/>
<stop offset="0.286458" stop-color="#6A4BA4"/>
<stop offset="0.479167" stop-color="#3F3258"/>
</linearGradient>
<radialGradient id="paint1_radial" cx="0" cy="0" r="1" gradientUnits="userSpaceOnUse" gradientTransform="translate(510.954 314.465) rotate(88.0281) scale(379.14 643.433)">
<stop stop-color="white" stop-opacity="0"/>
<stop offset="1" stop-opacity="0.3"/>
</radialGradient>
<radialGradient id="paint2_radial" cx="0" cy="0" r="1" gradientUnits="userSpaceOnUse" gradientTransform="translate(510 693) rotate(90) scale(159 434.367)">
<stop stop-color="#B3A4CD"/>
<stop offset="0.8125" stop-color="#8F7DAD"/>
<stop offset="0.984375" stop-color="#8876A8"/>
</radialGradient>
</defs>
</svg>
