<svg width="201" height="251" viewBox="0 0 201 251" fill="none" xmlns="http://www.w3.org/2000/svg">
<rect x="0.344971" y="0.414062" width="200" height="250" rx="6" fill="#C8C8BC"/>
<path fill-rule="evenodd" clip-rule="evenodd" d="M1.82162 205.75C1.7489 205.967 1.66811 206.192 1.60347 206.41C1.90244 205.814 1.81355 206.096 1.86203 205.743C2.161 205.655 2.45996 205.574 2.76498 205.502C2.74074 205.43 2.70844 205.357 2.68419 205.285C2.76498 205.285 2.84578 205.285 2.9185 205.285C2.76498 205.035 2.61147 204.777 2.46602 204.522C2.44986 204.538 2.43369 204.554 2.41753 204.57C2.38521 204.465 2.35291 204.369 2.3125 204.264C2.70844 203.3 2.19937 204.135 3.34473 203.316C3.3932 203.405 3.44171 203.485 3.49019 203.574C3.44978 204.409 3.40938 205.23 3.3609 206.057C3.62755 206.251 3.86995 206.444 4.11841 206.645C4.46585 206.347 4.81329 206.025 5.15872 205.697C5.09409 205.383 5.0537 205.093 4.98906 204.765C4.80322 205.12 4.6012 205.448 4.41536 205.802C4.00327 203.399 3.80125 203.656 2.8983 201.895C2.80942 201.968 2.72862 202.04 2.63974 202.113C2.56702 202.016 2.47006 202.056 1.59943 201.541C1.55902 201.912 1.51054 202.264 1.46207 202.634C1.63174 202.658 1.79335 202.674 1.95496 202.69C1.82567 202.795 1.70447 202.9 1.57518 203.004C1.59943 203.077 1.62367 203.141 1.63983 203.206C1.20351 203.141 0.777283 203.093 0.34903 203.045V191.374C0.583359 191.358 0.80957 191.318 1.0439 191.301C0.817657 191.02 0.583359 190.738 0.34903 190.458V188.745C0.478317 188.971 0.615662 189.204 0.744949 189.412C0.841904 189.355 0.930801 189.307 1.03584 189.251C0.809601 189.033 0.567184 188.808 0.351044 188.601V184.489C0.41568 184.449 0.49649 184.416 0.553055 184.368C0.47226 184.247 0.407608 184.135 0.351044 184.014V178.467C1.0217 178.661 1.69034 178.87 2.36906 179.063C1.59538 177.689 1.17522 177.197 0.351044 177.479V167.873C0.682327 168.244 0.567169 166.539 1.17924 166.909C1.08229 164.716 1.28429 165.094 1.17924 162.884C0.831802 163.013 0.698486 162.617 0.351044 162.745V152.344C0.383362 152.353 0.41568 152.361 0.464157 152.361C0.496475 151.998 0.561127 151.638 0.593445 151.292C0.464157 151.364 0.431839 151.372 0.359116 151.421V144.644C0.45607 144.661 0.544968 144.669 0.658096 144.685C0.690414 144.339 0.738876 143.962 0.787354 143.608C0.569183 143.729 0.45607 143.777 0.359116 143.817V126.952C0.722717 127.266 1.08432 127.556 1.43176 127.739C2.31049 126.791 1.53679 127.409 2.64175 126.791C1.8196 124.42 0.995422 124.99 0.464157 122.144C0.431839 122.152 0.383362 122.152 0.351044 122.16V120.906C0.431839 120.979 0.480331 121.027 0.63385 121.156C0.536896 121.035 0.447998 120.914 0.351044 120.786V112.097C0.431839 112.106 0.51265 112.122 0.585373 112.13C0.504578 111.912 0.423767 111.679 0.351044 111.462V109.636C0.367203 109.636 0.383362 109.636 0.399521 109.644C0.367203 109.548 0.367203 109.523 0.351044 109.459V85.8357C0.464172 86.1496 0.569183 86.4636 0.682312 86.7755C1.28024 86.4857 1.86002 86.1959 2.44986 85.9162C1.93272 83.6662 2.44179 85.57 1.0217 84.0747C0.795456 84.4209 0.569214 84.7489 0.351044 85.0951V83.0382C0.617691 83.0221 0.876236 83.0141 1.14894 82.998C0.793411 82.523 0.559113 82.3157 0.351044 82.1789C0.351044 82.1789 0.344986 10.9676 0.344986 5.75674C0.344986 0.545847 5.02335 0.501487 5.02335 0.501487C0.929779 0.501438 29.3075 0.501487 33.9019 0.501487C33.914 0.503499 33.9281 0.507524 33.9423 0.509537H34.6917L34.6937 0.501487H34.9927C34.9947 0.503499 34.9967 0.507524 34.9988 0.509537H37.8914C37.8975 0.521612 37.9036 0.533688 37.9076 0.545763C38.0813 0.62224 38.2591 0.690667 38.4268 0.761106L38.4288 0.753056C38.0207 0.51155 38.0591 0.523625 37.9137 0.501487H44.6929H47.4826H49.1228C49.1208 0.503499 49.1168 0.507524 49.1148 0.509537H49.5269C49.5289 0.507524 49.5329 0.503499 49.539 0.501487H49.6642H51.25H51.5732H53.9689H54.4457H56.0334H60.1644H62.1824H62.9722H63.2712H66.1922H75.7611H87.1117H91.5416H91.9618H93.6728H93.996H96.3918H96.8685H98.4542H102.585H104.603H105.393H105.692H108.613H118.182H121.452H125.882H126.302H128.013H128.337H130.732H131.209H132.795H136.926H138.944H139.734H140.033H142.954H152.523H156.726V0.509537H159.938H161.33C161.201 0.573938 161.088 0.63029 160.958 0.686642C161.273 0.654441 161.589 0.614189 161.902 0.598088C161.883 0.565887 161.867 0.533688 161.851 0.501487H166.281C166.111 0.662491 165.917 0.815444 165.764 0.984498C166.079 0.815444 166.394 0.662491 166.701 0.501487H168.412C167.952 0.831545 167.501 1.1616 167.016 1.50575C167.323 2.73542 167.323 2.12361 167.097 2.99303C167.259 3.29894 167.404 3.59679 167.582 3.90874C168.261 3.31302 168.962 2.71127 169.646 2.1075C169.364 1.74525 169.065 1.385 168.76 1.01469C168.75 0.847646 168.75 0.670541 168.733 0.501487H171.129C171.065 0.573939 171 0.64639 170.943 0.710791C171.743 0.855695 171.339 0.920097 171.606 0.501487H173.196C174.204 0.839595 175.406 1.13745 175.874 1.32059C176.583 0.477335 177.012 0.791294 177.327 0.501487H179.345C179.595 0.549788 179.854 0.606139 180.11 0.65444C180.118 0.606139 180.134 0.549788 180.134 0.501487H180.433C180.45 0.525637 180.466 0.549788 180.482 0.565888C180.563 0.549788 180.627 0.533687 180.7 0.517587C180.563 1.1294 180.45 1.73921 180.336 2.35102C180.884 2.28662 181.474 2.20612 182.045 2.13367C182.53 0.799345 181.561 1.73921 182.884 0.63029C182.958 0.944248 182.975 1.08915 182.991 1.24814C182.773 1.36085 182.546 1.4655 182.322 1.5782C182.492 1.88411 182.645 2.17996 182.799 2.49391C182.902 2.26247 183.015 2.03706 183.128 1.80361C183.185 1.87606 183.298 1.96461 183.653 2.43957C183.524 1.80361 183.403 1.1616 183.282 0.517587C183.49 0.614189 183.716 0.694691 183.918 0.783244C183.441 0.501486 183.506 0.525637 183.354 0.501487H192.921C192.463 0.61419 192.043 0.718842 191.566 0.823495C191.574 0.992549 191.582 1.1455 191.598 1.31254C191.437 1.37695 191.299 1.44135 191.138 1.4977C191.172 1.58625 191.172 1.5943 191.196 1.66675C190.889 1.60235 190.574 1.546 190.245 1.4816C191.172 2.27052 190.509 1.99681 191.301 2.01291C191.655 3.13793 193.488 0.926135 192.55 2.55831C194.512 1.07909 192.212 3.87654 192.422 3.92484C192.729 4.09389 191.721 4.72181 192.035 4.90696C192.285 4.72986 192.584 4.53665 192.843 4.35955C192.705 3.50824 192.568 2.64687 192.422 1.79556C193.107 1.27229 192.826 1.48965 193.053 0.509537H190.461H195.756L198.022 3.14598L200.337 4.90696V31.8812C199.998 32.0019 199.62 32.1066 199.82 33.0545C199.989 33.0384 200.167 33.0142 200.337 32.9981V34.0185C200.054 33.616 199.69 33.1994 199.038 32.7808C198.901 32.9498 198.763 33.1189 198.618 33.2879C198.61 34.1634 198.586 35.0409 198.569 35.9002C199.529 35.8761 199.248 35.7875 200.014 36.2142C200.119 36.1337 200.224 36.0532 200.337 35.9807V38.1422C200.167 38.2871 199.989 38.424 199.828 38.5608C199.868 38.8668 199.901 39.1727 199.941 39.4766C200.078 39.2753 200.208 39.0499 200.345 38.8325V47.571C200.244 47.5409 200.256 47.5469 200.046 47.8367C200.135 47.7964 200.224 47.7502 200.321 47.7019V48.521C200.21 48.3097 200.109 48.0963 200.006 47.877C199.923 47.9152 199.84 47.9595 199.755 47.9977L199.48 48.7766C199.561 48.9456 199.642 49.1227 199.723 49.2998C199.925 49.2052 200.135 49.1086 200.345 49.004V86.0208L199.884 86.9285C200.046 87.1217 200.183 87.3471 200.345 87.5403V115.136C200.175 115.144 199.981 115.169 199.604 115.225C200.797 117.853 198.571 116.052 199.006 118.087C199.321 118.055 199.628 118.022 199.933 117.982C200.119 117.827 200.2 117.644 200.345 117.483V118.946C200.24 118.93 200.143 118.922 200.046 118.906C200.143 118.978 200.24 119.057 200.345 119.129V120.262C199.731 119.548 199.587 118.695 198.216 117.811C198.07 117.98 197.949 118.149 197.804 118.318C197.788 119.194 197.763 120.071 197.747 120.939C198.707 120.898 198.418 120.818 199.192 121.236C199.571 120.955 199.957 120.665 200.345 120.391V123.229C200.208 123.092 200.086 122.963 199.949 122.818C199.634 123.076 199.319 123.325 199.006 123.581C199.054 123.887 199.086 124.193 199.127 124.497C199.305 124.207 199.49 123.901 199.668 123.605C199.692 123.766 199.709 123.823 199.733 123.967C199.482 124.241 199.224 124.531 198.975 124.803C199.258 124.714 199.533 124.626 199.814 124.529C199.951 125.348 200.105 125.743 200.339 126.274V130.768C200.153 130.736 199.951 130.712 199.773 130.679C199.943 130.808 200.113 130.945 200.282 131.09C200.299 131.082 200.323 131.074 200.339 131.066V134.505C200.242 134.586 200.169 134.666 200.072 134.747C200.169 134.932 200.242 135.117 200.339 135.294V135.447C200.307 135.439 200.274 135.431 200.242 135.431C200.323 135.97 200.331 136.266 200.339 136.5V145.174C200.072 145.19 199.83 145.214 199.428 145.206C199.493 146.122 199.549 147.055 199.598 147.979C199.84 148.019 200.09 148.052 200.339 148.084V163.623C200.072 163.325 199.709 163.043 199.113 162.635C198.878 163.029 198.62 163.413 198.388 163.8C199.034 164.291 199.678 164.78 200.341 165.279V165.977C200.228 165.953 200.139 165.929 200.034 165.905C199.888 166.46 199.759 167.022 199.614 167.586C199.848 167.714 200.099 167.835 200.339 167.964V197.375C199.614 197.085 199.757 197.085 198.693 197.222C199.911 199.851 197.676 198.058 198.103 200.1C198.418 200.052 198.717 200.02 199.03 199.98C199.812 199.4 200.038 198.718 200.337 197.609V199.899C200.288 199.843 200.264 199.827 200.216 199.754C200.127 199.802 200.046 199.843 199.949 199.891C200.078 200.157 200.191 200.414 200.329 200.686C200.329 200.686 200.329 200.686 200.337 200.678V202.727C200.175 202.872 200.03 203.008 199.876 203.153C199.957 203.33 200.046 203.508 200.127 203.677C200.191 203.644 200.264 203.612 200.329 203.58V204.89C200.248 204.93 200.167 204.963 200.094 204.995C200.175 205.164 200.256 205.325 200.329 205.494V206.337L200.062 206.297L200.329 206.852V207.841C200.264 207.841 200.127 207.833 199.628 208.13C199.587 208.034 199.539 207.953 199.49 207.865C199.555 207.07 199.62 206.297 199.676 205.51C199.458 205.285 199.248 205.059 199.03 204.834C198.715 205.091 198.4 205.349 198.087 205.605C198.135 205.911 198.167 206.216 198.2 206.52C198.386 206.214 198.579 205.917 198.749 205.621C199.048 207.967 199.234 207.75 199.975 209.567C200.097 209.487 200.202 209.398 200.323 209.326V217.002C200.258 217.163 200.121 217.38 199.614 217.789C199.856 217.966 200.09 218.151 200.323 218.32V224.011C200.315 224.003 200.315 224.003 200.307 223.995C200.056 224.116 199.781 224.229 199.509 224.358C199.678 224.72 199.848 225.072 200.018 225.426C200.123 225.378 200.212 225.33 200.325 225.281V240.225C200.155 240.192 199.977 240.16 199.816 240.128C199.929 240.522 200.034 240.915 200.131 241.301C200.195 241.221 200.26 241.14 200.317 241.068V243.704C199.686 243.736 200.268 243.503 199.511 244.507C199.268 244.829 199.018 245.151 198.761 245.479C199.27 245.004 199.794 244.556 200.311 244.081V245.738L195.621 250.406H193.582C193.574 250.398 193.574 250.39 193.574 250.382C193.566 250.39 193.55 250.398 193.533 250.406H165.279C165.142 250.35 165.012 250.293 164.867 250.237C165.101 250.366 165.109 250.374 165.142 250.406H159.91H154.807H154.05H153.183H153.135H151.945H149.226H148.781H148.309C148.317 250.408 148.321 250.412 148.331 250.414H145.806V250.406H125.563H124.872H124.735H118.834H118.786H114.398H113.641H111.536H108.817H108.373H107.9C107.908 250.408 107.912 250.412 107.922 250.414H105.397V250.406H90.5336C90.3963 250.35 90.267 250.293 90.1216 250.237C90.3559 250.366 90.364 250.374 90.3963 250.406H83.1443H80.0618H79.3043H77.1994H76.4176C76.4095 250.398 76.4095 250.39 76.4095 250.382C76.4015 250.39 76.3853 250.398 76.3691 250.406H74.4804H74.036H73.5633C73.5714 250.408 73.5754 250.412 73.5855 250.414H71.0605V250.406H54.8679H48.1391H48.1169C48.1108 250.404 48.1068 250.402 48.1007 250.4C48.0967 250.402 48.0947 250.404 48.0906 250.406H47.9795H37.645H36.8875H34.7826H32.0636H31.6192H31.1465C31.1546 250.408 31.1586 250.412 31.1687 250.414H28.6437V250.406H19.8404C19.703 250.35 19.5737 250.293 19.4283 250.237C19.6626 250.366 19.6707 250.374 19.703 250.406H9.36848C9.22304 250.301 9.07759 250.205 8.92407 250.1C11.2875 249.931 11.0855 249.738 12.9581 249.088C12.6834 248.669 12.4086 248.253 12.1198 247.842C11.6269 247.931 11.1441 248.027 10.6512 248.124C10.6997 248.212 10.724 248.301 10.7563 248.398C11.6107 248.824 10.9178 248.293 11.4734 249.37C11.3764 249.41 11.2956 249.442 11.1906 249.49C10.4088 249.378 9.64119 249.281 8.85944 249.168C8.62511 249.378 8.38272 249.579 8.14233 249.78C8.31201 249.989 8.44937 250.207 8.61098 250.408H5.05316C4.77844 250.006 5.94856 249.597 5.69202 249.203C5.1264 249.669 4.52303 249.506 3.82005 250.1L3.52309 249.929C3.515 249.639 3.3185 249.828 3.29425 249.549C2.70441 248.681 3.13789 248.447 1.8875 248.036C1.50774 248.855 4.22028 248.737 1.8875 248.93C4.25095 247.99 2.03171 249.637 3.12051 249.806L1.83267 249.035L1.29813 248.345L1.57225 247.717C1.93585 247.644 1.09846 247.5 1.47015 247.427C1.48631 247.21 1.50247 246.985 1.53479 246.777C1.45399 246.6 1.38934 246.415 1.31662 246.23C0.710602 246.624 0.494446 245.642 0.373245 245.738V224.994C0.389404 224.977 0.38942 224.977 0.405579 224.961C0.38942 224.953 0.373245 224.945 0.373245 224.937V219.236H0.357101V207.398V207.16V206.144C0.837875 206.007 1.32065 205.878 1.82162 205.75ZM198.634 44.2785C198.755 44.5522 198.876 44.8098 198.998 45.0735C199.329 44.4395 199.248 44.3832 199.297 43.6506C199.078 43.8599 198.852 44.0692 198.634 44.2785ZM199.884 46.9391C200.45 45.9429 199.755 45.645 198.472 45.323C198.973 46.5849 198.925 45.7497 198.836 46.7781C199.192 46.8344 199.539 46.8908 199.884 46.9391ZM199.45 92.5073C199.676 92.1692 199.903 91.8391 200.135 91.503C200.183 91.1408 200.232 90.7886 200.296 90.4344C199.288 91.5513 199.208 90.9395 199.45 92.5073ZM200.24 82.7404C199.941 82.3298 199.626 81.9132 199.321 81.5107C199.248 82.0501 199.167 82.5955 199.095 83.1268C199.482 82.9899 199.86 82.8531 200.24 82.7404ZM199.587 66.1892C199.757 66.1006 199.935 66.0201 200.121 65.9316C199.194 65.2091 200.105 65.5532 198.943 65.5129C199.159 65.7323 199.369 65.9577 199.587 66.1892ZM198.998 62.8946C198.933 63.2488 198.884 63.593 198.836 63.9391C199.151 63.2005 199.03 63.8506 198.998 62.8946ZM198.618 50.451C199.095 49.6399 198.973 50.2578 198.505 49.5192C198.408 49.5675 198.319 49.6158 198.23 49.6641C198.367 49.9277 198.489 50.1773 198.618 50.451ZM200.07 134.089C199.731 134.692 199.925 134.193 199.787 134.867C199.876 134.612 199.973 134.338 200.07 134.089ZM199.377 171.242C199.596 171.009 199.814 170.759 200.016 170.504C199.628 170.27 199.234 170.013 198.846 169.781C198.741 170.2 198.652 170.616 198.539 171.035C198.82 171.105 199.086 171.186 199.377 171.242ZM198.038 127.433C197.99 127.779 197.925 128.156 197.885 128.518C198.272 128.373 198.666 128.244 199.046 128.107C198.707 127.892 198.367 127.65 198.038 127.433ZM197.796 129.315C197.925 129.589 198.046 129.846 198.175 130.118C198.507 129.474 198.434 129.409 198.474 128.671C198.256 128.888 198.014 129.106 197.796 129.315ZM197.642 130.359C198.143 131.629 198.103 130.786 198.006 131.822C198.361 131.863 198.717 131.919 199.062 131.967C199.612 130.979 198.933 130.673 197.642 130.359ZM197.416 134.692C197.537 134.95 197.666 135.216 197.804 135.487C198.272 134.684 198.143 135.286 197.691 134.547C197.594 134.596 197.505 134.652 197.416 134.692ZM199.674 133.952C199.505 133.598 199.343 133.243 199.173 132.891C199.343 132.811 199.529 132.722 199.699 132.642C199.109 132.593 199.529 132.424 199.173 132.891C199.076 132.931 198.996 132.98 198.899 133.02C198.802 133.27 198.713 133.527 198.616 133.791C198.705 133.968 198.786 134.153 198.874 134.33C199.135 134.193 199.402 134.073 199.674 133.952ZM198.747 151.211C198.933 151.131 199.119 151.058 199.288 150.962C198.369 150.247 199.28 150.583 198.111 150.543C198.311 150.761 198.537 150.986 198.747 151.211ZM198.159 147.931C198.111 148.285 198.062 148.623 198.006 148.975C198.335 148.237 198.2 148.887 198.159 147.931ZM200.175 201.072C199.82 201.008 199.466 200.952 199.119 200.911C199.288 201.04 199.466 201.177 199.636 201.314C199.82 201.233 199.998 201.153 200.175 201.072ZM198.278 203.25C198.682 202.952 199.076 202.646 199.48 202.358C198.802 201.628 198.723 200.734 197.295 199.827C197.157 199.996 197.028 200.165 196.883 200.334C196.866 201.209 196.85 202.095 196.818 202.954C197.796 202.93 197.497 202.841 198.278 203.25ZM196.899 211.328C197.028 211.602 197.149 211.86 197.279 212.131C197.602 211.481 197.529 211.433 197.578 210.692C197.351 210.912 197.125 211.119 196.899 211.328ZM196.747 212.375C197.248 213.645 197.208 212.801 197.111 213.83C197.474 213.886 197.812 213.943 198.167 213.991C198.723 212.985 198.038 212.695 196.747 212.375ZM196.505 216.706C196.642 216.963 196.763 217.221 196.885 217.485C197.369 216.698 197.248 217.3 196.78 216.569C196.691 216.609 196.602 216.666 196.505 216.706ZM199.531 217.543C199.862 216.915 199.789 216.859 199.83 216.12C199.612 216.329 199.369 216.547 199.151 216.748C199.28 217.02 199.402 217.285 199.531 217.543ZM199.167 216.104C198.836 216.716 199.03 216.201 198.884 216.883C198.981 216.625 199.07 216.362 199.167 216.104ZM199.361 213.089C199.547 213.009 199.733 212.936 199.911 212.848C199.555 212.783 199.2 212.735 198.854 212.687C199.022 212.816 199.2 212.952 199.361 213.089ZM198.779 215.959C198.602 215.613 198.448 215.261 198.27 214.915C198.448 214.834 198.634 214.738 198.804 214.665C198.214 214.617 198.634 214.44 198.27 214.915C198.182 214.955 198.101 214.995 198.004 215.035C197.907 215.293 197.818 215.551 197.721 215.814C197.81 215.983 197.891 216.169 197.971 216.354C198.24 216.217 198.505 216.096 198.779 215.959ZM198.545 217.583C196.98 218.58 197.78 218.676 196.963 220.051C197.456 220.332 197.971 220.614 198.48 220.886C198.489 219.785 198.513 218.692 198.545 217.583ZM197.86 233.233C198.038 233.144 198.208 233.072 198.394 232.983C197.474 232.261 198.386 232.605 197.216 232.557C197.424 232.774 197.65 232.999 197.86 233.233ZM197.262 229.946C197.214 230.301 197.165 230.639 197.117 230.991C197.44 230.25 197.295 230.894 197.262 229.946ZM197.214 227.294C197.109 226.916 197.004 226.515 196.883 226.129C196.648 226.443 196.374 226.773 196.157 227.085C196.497 227.165 196.852 227.238 197.214 227.294ZM196.877 223.353C195.594 222.22 196.166 223.031 195.578 221.447C194.335 221.955 194.602 221.874 193.657 222.733C196.262 223.603 195.028 224.086 196.877 223.353ZM193.511 4.06169C193.584 4.01339 193.673 3.97314 193.77 3.92484C193.851 3.62698 193.931 3.33717 194.004 3.04938C193.939 2.95278 193.891 2.84812 193.842 2.75152C193.632 2.97693 193.422 3.21843 193.196 3.44384C193.309 3.65314 193.398 3.8544 193.511 4.06169ZM181.28 2.84007C181.134 2.78372 180.997 2.71932 180.876 2.67102C180.73 2.85617 180.609 3.04133 180.482 3.23453C180.811 3.20233 181.11 3.18623 181.441 3.14598C181.385 3.04133 181.328 2.95278 181.28 2.84007ZM185.015 1.04085C184.91 1.58021 184.813 2.11757 184.708 2.64083C184.894 2.67102 185.08 2.71127 185.241 2.74347C185.71 2.28662 186.168 1.81166 186.629 1.34475C186.079 1.25619 185.548 1.15154 185.015 1.04085ZM190.043 3.08963C189.994 2.99303 189.93 2.88837 189.873 2.79177C189.623 2.92058 189.364 3.04938 189.083 3.18623C189.396 3.14598 189.72 3.12183 190.043 3.08963ZM188.847 1.385C188.734 1.5782 188.605 1.76336 188.475 1.94851C187.702 2.43152 187.75 2.56033 186.918 3.47604C188.106 4.37565 187.395 3.86043 188.703 3.74974C188.235 2.20612 189.243 3.58069 188.847 1.385ZM186.815 226.4C187.388 226.312 187.968 226.247 188.534 226.183C188.469 225.611 188.388 225.042 188.316 224.47C187.766 224.366 187.235 224.261 186.71 224.156C186.661 224.325 186.645 224.519 186.589 224.688C186.669 225.251 186.758 225.839 186.815 226.4ZM185.273 3.53239C184.659 3.84635 184.055 4.15226 183.425 4.4481C184.207 4.45615 184.974 4.4481 185.748 4.45615C185.589 4.14219 185.435 3.84434 185.273 3.53239ZM185.686 5.63752C185.621 5.53286 185.556 5.43626 185.516 5.32356C185.37 5.27526 185.241 5.21086 185.104 5.15451C184.983 5.34771 184.853 5.54091 184.716 5.72607C185.031 5.69387 185.362 5.66167 185.686 5.63752ZM184.5 245.403C184.387 245.129 184.274 244.855 184.169 244.576C183.611 245.314 183.813 244.833 183.684 245.733C183.958 245.62 184.233 245.516 184.5 245.403ZM184.346 222.043C184.451 221.512 184.548 220.974 184.645 220.443C184.33 220.194 183.999 219.944 183.686 219.705C183.409 221.57 182.498 220.445 184.346 222.043ZM183.878 6.92354C184.12 6.60153 184.354 6.27952 184.619 5.95953C184.078 5.85487 183.538 5.75827 183.005 5.64557C183.306 6.08028 183.595 6.49889 183.878 6.92354ZM181.603 4.271C182.078 3.8061 182.53 3.33918 182.991 2.87227C181.708 3.62094 182.611 2.80787 181.603 4.271ZM181.676 4.94721C181.627 5.04382 181.587 5.12432 181.538 5.21891C181.118 5.24306 181.611 5.07602 180.65 6.30569C180.835 6.32984 181.005 6.37009 181.191 6.41034C181.652 5.94343 182.11 5.48456 182.579 5.01161C182.07 5.15652 181.797 5.18872 181.627 5.20482C181.652 5.11627 181.668 5.06797 181.676 4.94721ZM180.69 246.954C181.142 246.987 181.561 247.027 182.005 247.051C181.932 246.657 181.876 246.248 181.819 245.854C180.957 246.071 181.151 245.999 180.577 246.681C180.617 246.777 180.65 246.858 180.69 246.954ZM182.425 226.102C181.892 225.998 181.344 225.901 180.827 225.797C180.682 226.511 180.545 227.219 180.415 227.934C181.87 227.246 181.409 227.558 182.425 226.102ZM181.336 220.926C180.908 221.208 180.482 221.506 180.062 221.786C181.215 221.24 180.393 221.812 181.336 220.926ZM177.585 247.902C177.852 247.806 178.127 247.677 178.399 247.572C177.626 247.057 178.238 247.21 177.488 247.637C177.521 247.725 177.553 247.814 177.585 247.902ZM175.567 248.418C175.834 248.297 176.109 248.192 176.389 248.08C176.074 248.104 175.767 248.128 175.454 248.152C175.503 248.241 175.519 248.329 175.567 248.418ZM175.389 247.22C175.761 247.067 176.115 246.906 176.478 246.777C177.317 246.031 177.446 246.319 178.543 245.604C177.793 245.346 176.502 246.184 175.058 246.391C175.173 246.673 175.284 246.946 175.389 247.22ZM174.753 247.164C173.971 246.649 174.575 246.81 173.818 247.22C173.979 247.365 174.149 247.518 174.319 247.663C174.47 247.494 174.6 247.333 174.753 247.164ZM173.188 250.356C173.551 250.203 173.913 250.058 174.276 249.905C174.147 249.631 174.058 249.357 173.945 249.078C173.565 249.231 173.22 249.376 172.848 249.537C172.969 249.8 173.058 250.066 173.188 250.356ZM173.373 247.725C173.309 247.54 173.228 247.355 173.163 247.178C173.058 247.427 172.937 247.685 172.832 247.949C173.018 247.862 173.188 247.79 173.373 247.725ZM173.228 5.29941C172.921 5.33161 172.59 5.36381 172.26 5.37991C173.115 6.02393 172.517 5.92732 173.228 5.29941ZM170.824 248.45C171.139 248.208 171.471 247.967 171.808 247.727C171.436 247.888 171.067 248.033 170.711 248.186C170.743 248.281 170.776 248.353 170.824 248.45ZM168.596 123.804C168.491 123.41 168.378 123.026 168.265 122.631C167.909 122.559 167.548 122.494 167.192 122.422C167.669 122.887 168.129 123.338 168.596 123.804ZM165.12 243.795C165.427 243.779 165.726 243.755 166.047 243.738C165.305 243.169 165.861 243.249 165.12 243.795ZM165.966 248.208C165.998 248.305 166.031 248.385 166.079 248.474C166.297 248.281 166.54 248.079 166.774 247.878C165.909 247.709 166.62 247.631 165.966 248.208ZM165.532 250.291C165.798 250.179 166.081 250.074 166.354 249.961C165.724 249.599 165.669 249.679 164.926 249.591C165.136 249.832 165.338 250.066 165.532 250.291ZM164.417 1.6265C164.505 1.34474 164.578 1.04689 164.643 0.759093C164.465 0.855696 164.303 0.936198 164.11 1.02475C164.241 1.21594 164.336 1.4333 164.417 1.6265ZM163.748 1.5943C163.562 1.4333 163.352 1.27229 163.166 1.11129C163.053 1.29644 162.916 1.4977 162.786 1.6748C163.667 2.24637 163.021 2.08536 163.748 1.5943ZM161.875 249.881C161.811 249.704 161.73 249.518 161.665 249.341C161.576 249.688 161.504 250.032 161.447 250.378C161.593 250.211 161.73 250.05 161.875 249.881ZM159.936 3.47C160.661 3.26069 161.544 2.74347 162.546 2.55831C162.417 2.25241 162.263 1.93845 162.085 1.6426C161.754 1.81166 161.384 1.99681 161.045 2.16587C160.564 2.68511 160.302 2.77165 159.936 2.95278V3.47ZM140.936 220.926C140.507 221.208 140.081 221.506 139.661 221.786C140.814 221.24 139.992 221.812 140.936 220.926ZM137.184 247.902C137.451 247.806 137.726 247.677 137.998 247.572C137.225 247.057 137.837 247.21 137.087 247.637C137.12 247.725 137.152 247.814 137.184 247.902ZM135.166 248.418C135.433 248.297 135.708 248.192 135.989 248.08C135.673 248.104 135.366 248.128 135.053 248.152C135.102 248.241 135.118 248.329 135.166 248.418ZM133.916 247.663C134.07 247.494 134.199 247.333 134.352 247.164C133.571 246.649 134.175 246.81 133.417 247.22C133.577 247.365 133.746 247.518 133.916 247.663ZM130.423 248.45C130.738 248.208 131.07 247.967 131.407 247.727C131.035 247.888 130.666 248.033 130.31 248.186C130.343 248.281 130.375 248.353 130.423 248.45ZM125.579 236.228V236.548C125.6 236.445 125.616 236.342 125.638 236.24C125.618 236.236 125.6 236.232 125.579 236.228ZM125.565 248.208C125.597 248.305 125.63 248.385 125.678 248.474C125.896 248.281 126.139 248.079 126.373 247.878C125.509 247.709 126.22 247.631 125.565 248.208ZM125.563 250.116C125.694 250.064 125.824 250.014 125.953 249.959C125.793 249.867 125.67 249.804 125.563 249.76V250.116ZM125.646 243.738C125.614 243.714 125.597 243.698 125.571 243.676V243.706C125.236 243.724 125.242 243.67 125.208 243.765C125.353 243.757 125.494 243.746 125.646 243.738ZM109.637 245.451C109.678 245.435 109.718 245.419 109.758 245.403C109.712 245.292 109.669 245.177 109.623 245.065C109.647 245.24 109.653 245.369 109.637 245.451ZM109.171 245.387C109.108 245.393 109.045 245.395 108.983 245.401C108.981 245.423 108.979 245.441 108.977 245.467C109.041 245.441 109.106 245.413 109.171 245.387ZM106.815 246.657C106.953 246.685 107.082 246.711 107.217 246.739C107.199 246.628 107.183 246.518 107.165 246.407C107.068 246.411 106.938 246.411 106.726 246.393C106.751 246.48 106.783 246.568 106.815 246.657ZM105.949 246.954C106.153 246.969 106.347 246.983 106.542 246.999C106.551 246.926 106.553 246.85 106.565 246.779C106.484 246.602 106.419 246.417 106.347 246.232C106.227 246.31 106.132 246.371 106.041 246.429C105.981 246.506 105.93 246.57 105.835 246.683C105.876 246.777 105.908 246.858 105.949 246.954ZM105.403 221.749V221.731C105.375 221.749 105.347 221.769 105.32 221.788C105.355 221.769 105.373 221.763 105.403 221.749ZM104.811 229.439C104.884 229.077 104.965 228.725 105.029 228.371C104.674 228.298 104.304 228.226 103.941 228.169C104.504 229.343 103.949 228.499 104.811 229.439ZM102.844 247.902C103.11 247.806 103.385 247.677 103.658 247.572C102.884 247.057 103.496 247.21 102.747 247.637C102.779 247.725 102.811 247.814 102.844 247.902ZM100.826 248.418C101.092 248.297 101.367 248.192 101.648 248.08C101.333 248.104 101.026 248.128 100.713 248.152C100.761 248.241 100.777 248.329 100.826 248.418ZM99.5753 247.663C99.7289 247.494 99.8581 247.333 100.012 247.164C99.2299 246.649 99.8339 246.81 99.0764 247.22C99.236 247.365 99.4057 247.518 99.5753 247.663ZM98.632 247.725C98.5673 247.54 98.4865 247.355 98.4219 247.178C98.3169 247.427 98.1957 247.685 98.0906 247.949C98.2765 247.862 98.4461 247.79 98.632 247.725ZM96.0827 248.45C96.3978 248.208 96.7291 247.967 97.0665 247.727C96.6948 247.888 96.3251 248.033 95.9696 248.186C96.0019 248.281 96.0342 248.353 96.0827 248.45ZM90.3781 243.795C90.6852 243.779 90.9841 243.755 91.3053 243.738C90.5639 243.169 91.1195 243.249 90.3781 243.795ZM91.2245 248.208C91.2568 248.305 91.2891 248.385 91.3376 248.474C91.5558 248.281 91.7982 248.079 92.0325 247.878C91.1679 247.709 91.879 247.631 91.2245 248.208ZM90.7902 250.291C91.0568 250.179 91.3396 250.074 91.6124 249.961C90.9821 249.599 90.9276 249.679 90.1842 249.591C90.3943 249.832 90.5963 250.066 90.7902 250.291ZM87.1339 249.881C87.0693 249.704 86.9885 249.518 86.9238 249.341C86.835 249.688 86.7622 250.032 86.7057 250.378C86.8511 250.211 86.9885 250.05 87.1339 249.881ZM83.1423 249.277C83.2959 249.219 83.4554 249.16 83.6494 249.092C83.4837 248.84 83.312 248.591 83.1423 248.339V249.277ZM64.1741 220.926C63.7459 221.208 63.3197 221.506 62.8995 221.786C64.053 221.24 63.2308 221.812 64.1741 220.926ZM62.3905 229.439C62.4632 229.077 62.544 228.725 62.6086 228.371C62.2531 228.298 61.8834 228.226 61.5198 228.169C62.0834 229.343 61.5279 228.499 62.3905 229.439ZM60.423 247.902C60.6896 247.806 60.9643 247.677 61.237 247.572C60.4633 247.057 61.0754 247.21 60.326 247.637C60.3583 247.725 60.3906 247.814 60.423 247.902ZM58.4049 248.418C58.6716 248.297 58.9463 248.192 59.2271 248.08C58.912 248.104 58.6049 248.128 58.2918 248.152C58.3403 248.241 58.3565 248.329 58.4049 248.418ZM57.1545 247.663C57.308 247.494 57.4373 247.333 57.5909 247.164C56.8091 246.649 57.4131 246.81 56.6556 247.22C56.8152 247.365 56.9848 247.518 57.1545 247.663ZM53.375 245.427C53.373 245.421 53.371 245.417 53.369 245.411C53.3488 245.435 53.3326 245.459 53.3124 245.483C53.3326 245.463 53.3548 245.445 53.375 245.427ZM47.2361 1.59028C47.2462 1.58223 47.2624 1.57015 47.2705 1.5621C47.3513 1.30047 47.42 1.02676 47.4806 0.759093C47.3028 0.855696 47.1412 0.936198 46.9473 1.02475C47.0705 1.20588 47.1594 1.40713 47.2361 1.59028ZM46.5857 1.5943C46.4463 1.47355 46.2968 1.3528 46.1514 1.23406C46.1534 1.26022 46.1534 1.28638 46.1574 1.31254C46.0201 1.36688 45.8968 1.42122 45.7635 1.47154C45.7474 1.49569 45.7312 1.51984 45.713 1.546C45.7272 1.58826 45.7353 1.61443 45.7534 1.66675C45.7191 1.6587 45.6807 1.65267 45.6464 1.64663C45.6403 1.65669 45.6342 1.66675 45.6262 1.6748C46.5049 2.24637 45.8585 2.08536 46.5857 1.5943ZM44.4485 2.82599C44.4424 2.81592 44.4364 2.80385 44.4303 2.79177C44.3172 2.85014 44.1899 2.91253 44.0707 2.97089C44.194 2.92058 44.3192 2.87227 44.4485 2.82599ZM43.1597 3.3412C43.0587 2.77165 43.3435 2.92862 43.4526 2.5563C43.0001 2.90045 42.7113 2.86221 41.9053 3.51629C42.2588 3.63503 42.683 3.52434 43.1597 3.3412ZM39.461 2.67706C39.5176 2.58448 39.5701 2.49391 39.663 2.34901C39.5984 2.23631 39.5499 2.14775 39.4933 2.0431C39.455 2.04109 39.4186 2.03908 39.3802 2.03505C39.3418 2.23631 39.3034 2.43957 39.2651 2.6368C39.3337 2.65089 39.3943 2.66498 39.461 2.67706ZM36.5764 3.85037C36.5764 3.78597 36.5764 3.70346 36.5784 3.61289C36.4976 3.75578 36.3784 3.95301 36.1582 4.271C36.3037 4.13213 36.437 3.99125 36.5764 3.85037ZM33.1019 245.604C33.0211 245.576 32.912 245.602 32.8191 245.598C32.7383 245.699 32.6111 245.735 32.5181 245.936C32.6817 245.856 32.8615 245.761 33.1019 245.604ZM33.4352 3.04535C33.7342 2.53819 34.017 2.04914 34.2816 1.54198C33.6837 1.79153 33.0878 2.04914 32.4737 2.29668C32.805 2.5563 33.1201 2.80385 33.4352 3.04535ZM30.0537 246.657C30.3466 246.715 30.6234 246.773 30.9041 246.832C30.9425 246.818 30.9789 246.8 31.0172 246.785C30.3203 246.141 31.0738 246.492 29.9648 246.391C29.989 246.48 30.0214 246.568 30.0537 246.657ZM29.7971 246.844C29.7991 246.822 29.8012 246.8 29.8032 246.777C29.7446 246.651 29.6961 246.518 29.6456 246.385C29.6355 246.387 29.6255 246.391 29.6154 246.393C29.678 246.546 29.7365 246.693 29.7971 246.844ZM18.7819 237.002C19.2909 237.284 19.7818 237.566 20.2908 237.838C20.3878 237.306 20.4767 236.777 20.5979 236.238C20.0565 236.133 19.5172 236.036 18.9839 235.924C18.9011 236.288 18.8465 236.642 18.7819 237.002ZM19.6767 243.795C19.9838 243.779 20.2828 243.755 20.604 243.738C19.8626 243.169 20.4181 243.249 19.6767 243.795ZM28.8154 247.611C28.8578 247.603 28.9002 247.594 28.9406 247.586C29.0659 247.446 29.179 247.307 29.3103 247.164C28.5286 246.649 29.1325 246.81 28.375 247.22C28.5164 247.347 28.6659 247.482 28.8154 247.611ZM27.7448 250.356C28.0417 250.231 28.3367 250.11 28.6336 249.987V249.404C28.5932 249.295 28.5467 249.188 28.5023 249.076C28.1225 249.229 27.7771 249.374 27.4054 249.535C27.5266 249.8 27.6155 250.066 27.7448 250.356ZM27.9306 247.725C27.866 247.54 27.7852 247.355 27.7206 247.178C27.6155 247.427 27.4943 247.685 27.3893 247.949C27.5751 247.862 27.7448 247.79 27.9306 247.725ZM25.3813 248.45C25.6965 248.208 26.0278 247.967 26.3651 247.727C25.9934 247.888 25.6237 248.033 25.2682 248.186C25.3005 248.281 25.3329 248.353 25.3813 248.45ZM23.4118 248.305C24.0097 247.943 24.6057 247.596 25.2117 247.244C25.0501 246.151 24.9693 246.697 25.3005 245.934C25.1955 245.66 25.0985 245.395 24.9693 245.115C24.2117 245.638 23.4845 246.16 22.7513 246.667C22.9856 246.997 23.228 247.327 23.4623 247.655C23.4441 247.87 23.428 248.088 23.4118 248.305ZM20.3535 221.667C20.6848 221.924 20.9999 222.174 21.313 222.413C21.612 221.906 21.8948 221.417 22.1594 220.91C21.5655 221.16 20.9676 221.417 20.3535 221.667ZM20.5231 248.208C20.5555 248.305 20.5878 248.385 20.6363 248.474C20.8544 248.281 21.0968 248.079 21.3311 247.878C20.4666 247.709 21.1776 247.631 20.5231 248.208ZM20.0888 250.291C20.3555 250.179 20.6383 250.074 20.911 249.961C20.2807 249.599 20.2262 249.679 19.4828 249.591C19.6929 249.832 19.8949 250.066 20.0888 250.291ZM16.4326 249.881C16.3679 249.704 16.2871 249.518 16.2225 249.341C16.1336 249.688 16.0609 250.032 16.0043 250.378C16.1498 250.211 16.2871 250.05 16.4326 249.881ZM20.3615 248.595C19.8525 248.088 17.3275 247.518 16.6427 247.26C15.5135 248.321 15.2549 247.204 14.6974 248.691C16.5295 248.241 17.8203 249.269 20.3615 248.595ZM2.49228 205.902C2.54076 206.224 2.59732 206.514 2.6458 206.818C2.75084 206.762 2.84782 206.714 2.94478 206.657C2.79732 206.426 2.64378 206.152 2.49228 205.902ZM6.4455 198.412C5.84151 197.19 5.92029 198.049 5.97685 196.957C5.58092 196.973 5.18703 196.965 4.79109 196.981C4.20125 198.106 4.985 198.299 6.4455 198.412ZM5.57283 200.3C5.81523 200.05 6.06575 199.792 6.29805 199.529C6.13644 199.279 5.99098 199.014 5.84554 198.766C5.50819 199.48 5.58899 199.545 5.57283 200.3ZM4.63756 196.041C4.7426 195.977 4.83148 195.912 4.93652 195.88C5.03348 195.574 5.12236 195.292 5.2274 195.004C5.11427 194.835 5.03349 194.666 4.92036 194.497C4.63756 194.666 4.33859 194.852 4.04164 195.013C4.24971 195.357 4.44363 195.711 4.63756 196.041C4.45172 196.162 4.24162 196.258 4.05579 196.403C4.71835 196.337 4.26587 196.578 4.63756 196.041ZM4.07195 198.444C3.86993 198.331 3.66794 198.219 3.47401 198.106C3.28009 198.227 3.07811 198.331 2.8761 198.452C3.28212 198.46 3.67804 198.452 4.07195 198.444ZM2.30644 200.181C1.61357 198.363 2.65388 196.812 1.66002 194.36C1.14288 194.988 0.748978 197.705 0.506577 198.468C1.79738 199.392 0.587387 199.915 2.30644 200.181ZM0.773224 193.515C0.668182 194.439 0.514664 193.725 1.22572 194.278C1.32268 194.214 1.42772 194.165 1.52467 194.109C1.27217 193.918 1.01562 193.716 0.773224 193.515ZM2.33876 185.372C2.05595 185.55 1.75699 185.719 1.46004 185.904C1.66205 186.234 1.85596 186.58 2.05797 186.916C2.35693 186.755 2.64781 186.57 2.95284 186.393C2.74881 186.057 2.53874 185.702 2.33876 185.372ZM3.14474 193.485C2.80537 194.216 2.89427 194.248 2.86195 195.037C3.10435 194.771 3.35484 194.513 3.59523 194.25C3.45181 193.998 3.29826 193.741 3.14474 193.485ZM3.60533 194.938C3.96893 194.256 3.76692 194.809 3.88812 194.087C3.79117 194.377 3.69421 194.658 3.60533 194.938ZM4.51636 176.894C4.32243 177.022 4.12044 177.127 3.92651 177.248C4.97491 177.852 3.94267 177.626 5.25772 177.489C5.00926 177.294 4.75876 177.095 4.51636 176.894ZM5.27386 180.228C5.31427 179.842 5.36276 179.482 5.41933 179.103C5.08199 179.933 5.21124 179.24 5.27386 180.228ZM6.10612 193.115C5.59708 194.022 5.71022 193.372 6.26775 194.071C6.35663 193.998 6.46165 193.942 6.5667 193.894C6.40509 193.644 6.25964 193.388 6.10612 193.115ZM8.88167 87.2263C9.51192 88.3594 8.9059 87.5484 9.84117 88.4238C9.51796 88.0455 9.20488 87.6208 8.88167 87.2263ZM11.6168 245.829C11.738 245.878 11.8673 245.942 11.9966 245.99C12.1259 245.829 12.2794 245.652 12.4248 245.483C12.1097 245.516 11.8107 245.532 11.4976 245.556C11.5279 245.644 11.5845 245.733 11.6168 245.829ZM12.0753 243.088C11.7441 243.386 11.7441 243.08 11.4936 243.964C11.6815 243.674 11.8915 243.378 12.0753 243.088ZM9.53415 246.971C9.57455 247.075 9.60686 247.172 9.66342 247.252C9.93007 247.14 10.1967 247.035 10.4775 246.922C10.3482 246.649 10.2593 246.375 10.13 246.103C9.94621 246.399 9.74423 246.689 9.53415 246.971ZM10.4876 248.514C10.2856 248.281 10.0674 248.039 9.87349 247.808C9.81693 248.162 9.73613 248.498 9.65533 248.852C9.93814 248.732 10.2048 248.619 10.4876 248.514ZM8.83319 247.59C9.43112 247.961 8.93016 247.743 9.60687 247.921C9.33417 247.814 9.08368 247.695 8.83319 247.59ZM8.35645 248.748C8.63116 248.635 8.89784 248.522 9.16246 248.41C8.85541 248.434 8.54836 248.45 8.2514 248.474C8.29181 248.563 8.31604 248.651 8.35645 248.748ZM7.84134 245.145C8.47159 244.88 9.10791 244.622 9.74625 244.358C9.0049 244.35 8.26151 244.334 7.51207 244.318C7.6151 244.6 7.72821 244.865 7.84134 245.145ZM8.64732 243.225C8.3322 243.241 8.03326 243.257 7.72824 243.29C7.76056 243.378 7.79286 243.459 7.82518 243.555C7.95447 243.612 8.08374 243.66 8.21303 243.724C8.36453 243.555 8.50188 243.394 8.64732 243.225ZM6.49399 248.86C6.67175 248.796 6.86566 248.724 7.03534 248.643C6.9303 248.369 6.83334 248.096 6.71214 247.816C6.43742 247.937 6.17076 248.041 5.89806 248.154C6.09804 248.393 6.29198 248.635 6.49399 248.86ZM4.63756 248.989C4.57292 248.812 4.48404 248.619 4.4194 248.442C4.35477 248.796 4.27397 249.142 4.20125 249.486C4.34669 249.317 4.5002 249.156 4.63756 248.989ZM3.22556 248.619C3.50027 248.506 3.76692 248.402 4.05579 248.281C3.26595 247.774 3.88611 247.919 3.12051 248.345C3.14476 248.442 3.17708 248.522 3.22556 248.619ZM4.12851 245.387C3.82146 245.419 3.51443 245.427 3.21748 245.451C3.2498 245.548 3.29021 245.636 3.30637 245.725C3.58917 245.612 3.8558 245.499 4.12851 245.387ZM1.77315 246.657C2.13675 246.729 2.48419 246.802 2.82962 246.874C1.94283 246.095 2.84578 246.496 1.68425 246.391C1.7085 246.48 1.74083 246.568 1.77315 246.657ZM2.49228 225.766C2.53268 225.404 2.58116 225.052 2.62964 224.682C2.24179 224.81 1.86404 224.955 1.46811 225.092C1.81354 225.316 2.15291 225.549 2.49228 225.766Z" fill="#E0E0E0"/>
<path d="M190.988 5.17283C190.988 7.75274 193.083 9.84416 195.667 9.84416C198.25 9.84416 200.345 7.75274 200.345 5.17283C200.345 2.59292 198.25 0.501487 195.667 0.501487C193.083 0.501487 190.988 2.59292 190.988 5.17283Z" fill="#E0E0E0"/>
<path d="M0.373245 245.738C0.373245 248.318 2.46782 250.41 5.05161 250.41C7.63539 250.41 9.72998 248.318 9.72998 245.738C9.72998 243.158 7.63539 241.067 5.05161 241.067C2.46782 241.067 0.373245 243.158 0.373245 245.738Z" fill="#E0E0E0"/>
<path d="M190.952 245.738C190.952 248.318 193.046 250.409 195.63 250.409C198.214 250.409 200.308 248.318 200.308 245.738C200.308 243.158 198.214 241.066 195.63 241.066C193.046 241.066 190.952 243.158 190.952 245.738Z" fill="#E0E0E0"/>
<path fill-rule="evenodd" clip-rule="evenodd" d="M53.4343 86.7704C53.4343 115.557 61.4911 164.918 100.613 174C140.826 165.222 147.255 115.144 147.255 86.7704C124.481 73.0337 71.7651 74.0025 53.4343 86.7704ZM123.151 106.416C123.419 106.351 123.641 106.158 123.869 106.043C124.478 105.73 125.099 105.441 125.68 105.124C126.689 104.578 127.726 104.112 128.725 103.593C129.031 103.435 129.353 103.249 129.649 103.118C129.758 103.069 129.868 103.081 129.955 103.016C130.623 103.007 131.186 103.047 131.46 103.423C131.888 104.01 131.848 105.233 131.289 105.668C130.826 106.028 130.258 106.242 129.752 106.553C128.55 107.285 127.304 107.981 126.092 108.729C125.458 109.12 124.79 109.484 124.144 109.884C123.838 110.074 123.525 110.359 123.151 110.465V106.416V106.416ZM115.556 99.886C115.693 99.7712 115.731 99.6004 115.831 99.4451C116.134 98.967 116.44 98.4764 116.755 97.9827C117.283 97.1474 117.867 96.2997 118.398 95.4676C118.735 94.9366 118.994 94.387 119.353 93.8685C119.572 93.5549 119.944 93.4555 120.243 93.2226C121.252 93.1947 122.376 94.0921 122.02 95.2285C121.845 95.7998 121.433 96.3711 121.133 96.8617C120.887 97.2592 120.762 97.6877 120.518 98.0851C120.093 98.7775 119.684 99.5196 119.322 100.262C118.423 99.8488 116.886 99.9606 115.559 99.9575V99.886H115.556ZM105.641 97.9143C105.725 97.5169 105.597 97.0077 105.676 96.6537C105.763 96.2594 105.635 95.7501 105.71 95.3962V94.7503C105.71 94.1821 105.663 93.4493 105.779 92.9121C105.791 92.2446 105.804 91.577 105.813 90.9063C105.95 90.3257 106.363 89.8941 106.94 89.7512C107.721 89.5587 108.427 90.158 108.652 90.5306C108.876 90.9094 108.823 92.0521 108.823 92.6389V93.2226C108.892 95.4676 108.961 97.7094 109.029 99.9544H105.572C105.566 99.3365 105.516 98.4764 105.641 97.9143ZM92.641 94.1417C92.7846 93.8064 93.1625 93.5363 93.4654 93.3593C93.5809 93.291 93.7371 93.2972 93.8432 93.2226C94.9518 93.232 95.2235 93.9679 95.6545 94.651C96.3727 95.7874 97.0472 96.9673 97.7748 98.1193C98.0247 98.5167 98.2682 98.9297 98.5274 99.3427C98.6461 99.5352 98.8241 99.7215 98.9053 99.9544H95.0049C94.8738 99.4327 94.4897 98.9421 94.2523 98.4919C93.8432 97.7063 93.5528 96.868 93.0907 96.1134C92.794 95.6322 92.3162 94.9149 92.641 94.1417ZM98.593 135.867C98.1902 136.302 97.8592 137.106 97.5313 137.634C96.863 138.699 96.1822 139.798 95.5139 140.863C95.2329 141.313 94.652 142.341 93.7339 142.09C93.0907 141.91 92.2475 141.155 92.5723 140.149C92.6909 139.779 92.9376 139.463 93.0875 139.131C93.4279 138.357 93.7714 137.656 94.1118 136.886C94.2617 136.544 94.5146 136.218 94.6239 135.83H98.593V135.867V135.867ZM108.683 144.707C108.514 145.083 107.758 145.785 107.075 145.626C106.406 145.471 105.966 145.064 105.81 144.403C105.8 143.779 105.788 143.158 105.775 142.531C105.666 142.015 105.707 141.316 105.707 140.764V140.152C105.635 139.823 105.754 139.335 105.672 138.963C105.601 138.634 105.716 138.146 105.638 137.774C105.522 137.233 105.566 136.429 105.569 135.836H109.026C108.958 137.969 108.889 140.099 108.82 142.229V142.807C108.82 143.391 108.883 144.257 108.683 144.707ZM77.7172 131.936C76.2494 131.936 75.2689 132.054 74.4007 131.427C73.9167 131.079 73.5045 130.492 73.3421 129.828V108.711C73.3421 107.72 73.1797 105.773 73.4764 105.071C73.7231 104.488 74.2665 103.892 74.8473 103.643C75.0753 103.572 75.3032 103.507 75.5312 103.438H114.622C116.343 103.438 117.502 103.271 118.485 104.05C119.428 104.795 119.238 106.689 119.238 108.369V127.207C119.238 128.549 119.363 130.045 118.829 130.846C117.982 132.107 116.83 131.933 114.791 131.933H77.7172V131.936ZM120.927 142.055C120.225 142.341 119.506 141.655 119.285 141.307C118.488 140.056 117.786 138.786 116.992 137.535C116.693 137.066 116.103 136.355 115.931 135.833H118.426C118.676 135.684 119.141 135.821 119.385 135.662H119.762C120.515 137.125 121.268 138.587 122.02 140.05C122.345 141.084 121.542 141.807 120.927 142.055ZM131.46 131.924C131.154 132.34 130.161 132.458 129.58 132.194C128.959 131.911 128.313 131.492 127.732 131.138C126.814 130.582 125.83 130.154 124.928 129.61C124.478 129.334 123.997 129.126 123.56 128.862C123.45 128.797 123.204 128.772 123.151 128.657V124.748C123.485 124.835 123.772 125.121 124.041 125.291C124.69 125.701 125.352 126.083 125.989 126.481C127.288 127.294 128.606 128.058 129.887 128.862C130.317 129.132 130.777 129.316 131.186 129.61C131.785 130.039 131.948 131.259 131.46 131.924ZM133.959 119.069H132.522C131.929 119.193 131.014 119.134 130.367 119.134H129.649C129.056 119.261 128.141 119.202 127.494 119.202H126.776C126.367 119.292 125.793 119.14 125.34 119.24C124.737 119.367 123.806 119.308 123.151 119.308V115.871C123.778 115.868 124.718 115.821 125.271 115.939C125.646 116.02 126.136 115.902 126.467 115.973H127.082C127.641 115.973 128.344 115.93 128.862 116.042H129.787C130.677 116.079 131.563 116.11 132.453 116.144C133.037 116.156 133.618 116.169 134.196 116.178C134.711 116.318 135.623 117.051 135.426 117.88C135.236 118.699 134.808 118.886 133.959 119.069ZM115.206 106.702C114.669 106.354 114.226 106.428 113.358 106.428H97.1815C96.9442 106.593 96.6319 106.643 96.4976 106.903C96.3134 107.26 96.4289 108.953 96.4289 109.521V115.778C96.4289 116.585 96.2572 118.482 96.7037 118.805C97.2221 119.181 99.024 119.007 99.9202 119.007H113.464C114.151 119.007 115.056 119.143 115.241 118.631C115.381 118.451 115.344 118.066 115.344 117.746V109.89C115.341 108.847 115.422 107.543 115.206 106.702ZM101.522 113.775H101.491C101.329 113.626 100.954 113.467 100.704 113.433V113.467C100.795 113.61 100.82 113.964 100.841 114.147H100.292V113.399H100.261C100.111 113.539 99.8078 113.7 99.5767 113.738C99.508 113.585 99.4174 113.433 99.3706 113.263C99.5517 113.182 99.8359 113.039 99.9514 112.887C99.7828 112.812 99.4393 112.657 99.3706 112.48C99.4674 112.374 99.508 112.21 99.611 112.107C99.7672 112.256 100.07 112.452 100.295 112.514V111.803H100.845V111.871C100.748 112.024 100.77 112.337 100.707 112.514H100.776C100.963 112.343 101.291 112.222 101.525 112.107C101.566 112.247 101.713 112.443 101.663 112.548C101.46 112.66 101.254 112.775 101.044 112.887V112.924H101.082C101.238 113.07 101.497 113.169 101.697 113.263C101.638 113.436 101.582 113.604 101.522 113.775ZM104.91 113.775C104.648 113.651 104.389 113.526 104.127 113.399V113.502C104.227 113.644 104.273 113.955 104.298 114.147H103.68V113.433H103.611C103.543 113.508 103.093 113.775 103.068 113.738C102.952 113.623 102.837 113.436 102.793 113.263C103.015 113.16 103.193 112.992 103.443 112.924V112.887C103.262 112.837 102.859 112.651 102.793 112.48H102.828C102.874 112.334 102.99 112.232 103.068 112.107H103.099V112.138C103.318 112.244 103.471 112.406 103.68 112.514V111.803H104.298C104.242 112.039 104.183 112.278 104.127 112.514H104.195C104.367 112.356 104.714 112.182 104.948 112.107C104.982 112.225 105.07 112.399 105.151 112.48C105.129 112.539 105.142 112.514 105.117 112.548C104.967 112.688 104.648 112.831 104.433 112.887C104.47 112.915 104.442 112.902 104.501 112.924C104.686 113.089 105.004 113.126 105.185 113.3C105.063 113.43 105.032 113.648 104.91 113.775ZM107.918 112.927C108.093 113.079 108.511 113.107 108.567 113.368C108.486 113.471 108.449 113.644 108.395 113.775C108.143 113.651 107.893 113.526 107.646 113.399V113.536C107.721 113.654 107.712 113.98 107.712 114.147H107.165V113.399H107.131C106.981 113.542 106.684 113.7 106.447 113.738C106.409 113.564 106.338 113.415 106.275 113.263C106.45 113.21 106.725 113.033 106.822 112.887C106.647 112.791 106.412 112.657 106.275 112.511C106.363 112.415 106.422 112.225 106.478 112.104C106.7 112.232 106.903 112.437 107.162 112.511V111.8H107.708C107.687 112.036 107.662 112.275 107.643 112.511H107.708C107.79 112.43 108.358 112.111 108.392 112.135C108.477 112.225 108.542 112.399 108.564 112.545C108.327 112.657 108.086 112.772 107.846 112.884C107.89 112.918 107.861 112.905 107.918 112.927ZM91.8447 124.32V117.448H88.5626C88.2534 118.122 87.7538 118.737 87.3666 119.355C86.6296 120.516 85.9801 121.693 85.2462 122.857C85.0089 123.236 84.7747 123.624 84.528 124.015C84.4249 124.177 84.2157 124.375 84.1501 124.559V126.325C84.5717 126.465 85.2993 126.36 85.7927 126.36H89.3121V129.045H91.8415V126.36H93.3811C93.5341 125.903 93.4185 124.872 93.4154 124.32H91.8447ZM89.3121 121.016V124.316H86.7826V124.248C87.148 123.872 87.3541 123.155 87.6383 122.683C87.9162 122.236 88.2222 121.761 88.4939 121.326C88.8374 120.774 89.0373 120.066 89.3152 119.488H89.4182C89.4182 120.038 89.4151 120.553 89.3121 121.016ZM80.5932 122.311C81.349 122.065 82.317 122.295 82.9509 122.447C83.1102 121.789 83.2695 121.131 83.4287 120.475C83.0852 120.385 82.6949 120.286 82.2983 120.202C81.9891 120.137 81.1741 120.143 80.8962 120.202C80.4246 120.305 80.0436 120.215 79.6314 120.339C78.1013 120.792 77.155 121.612 76.5867 123.028C76.3494 123.612 76.1183 124.689 76.3119 125.543C76.4149 125.999 76.4805 126.471 76.6523 126.869C77.1301 127.965 77.9857 128.663 79.1817 129.045C79.544 129.163 79.9624 129.17 80.3465 129.25C80.9367 129.378 82.0859 129.185 82.5325 129.08C82.8979 128.993 83.2757 129.092 83.2851 128.639C83.1695 128.452 83.2695 128.136 83.2164 127.89C83.1446 127.567 83.1165 127.179 83.1133 126.8C82.9385 126.831 82.8354 126.925 82.7042 126.971C82.5075 127.04 82.2015 127.033 82.0204 127.074C80.6994 127.362 79.4909 126.45 79.1786 125.714C78.579 124.251 79.5315 122.658 80.5932 122.311ZM99.1988 120.475H97.3189C97.0504 120.659 96.7412 120.715 96.635 121.053V122.04C96.635 123.034 96.457 123.863 97.2502 124.115H98.0715C98.8491 124.115 100.061 124.301 100.261 123.705C100.376 123.559 100.329 123.174 100.329 122.925C100.329 122.298 100.473 120.777 100.054 120.612C99.8827 120.457 99.5267 120.475 99.1988 120.475ZM103.849 124.115H104.739C105.441 123.882 105.251 122.68 105.251 121.764C105.251 121.286 105.291 120.739 104.945 120.609C104.77 120.444 104.43 120.472 104.089 120.472H102.209C102.106 120.507 102 120.541 101.9 120.575C101.813 120.711 101.644 120.857 101.594 121.016V122.789C101.594 123.043 101.528 123.478 101.625 123.671C101.928 124.267 102.959 124.115 103.849 124.115ZM109.801 120.578C109.648 120.441 109.301 120.475 109.014 120.475H107.134C107.009 120.519 106.884 120.566 106.756 120.612C106.678 120.739 106.528 120.876 106.481 121.019V122.823C106.481 123.071 106.422 123.487 106.516 123.674C106.818 124.27 107.883 124.118 108.773 124.118H109.663C110.335 123.894 110.141 122.615 110.141 121.736C110.144 121.233 110.166 120.705 109.801 120.578ZM113.873 120.475H112.024C111.921 120.51 111.821 120.544 111.718 120.578C111.609 120.721 111.431 120.864 111.375 121.053V121.733C111.375 122.363 111.212 123.587 111.578 123.879C111.678 123.956 111.834 124.08 111.955 124.118H112.742C113.379 124.118 114.166 124.17 114.691 124.049C114.8 123.891 114.978 123.782 115.035 123.574V122.826C115.035 122.118 115.228 120.77 114.691 120.581C114.519 120.444 114.176 120.475 113.873 120.475ZM100.158 125.813C99.864 125.471 97.9778 125.599 97.2814 125.611C97.2034 125.676 97.0941 125.686 97.0098 125.748C96.863 125.853 96.7631 126.03 96.6319 126.158V128.707C96.6975 128.899 96.9941 129.142 97.1784 129.216C97.3626 129.291 97.6905 129.253 97.931 129.253C98.5524 129.253 100.02 129.393 100.189 128.98C100.414 128.744 100.326 128.061 100.326 127.617C100.329 127.027 100.435 126.142 100.158 125.813ZM105.117 125.881C104.801 125.444 102.937 125.596 102.141 125.608C102.103 125.633 102.106 125.627 102.037 125.642C101.9 125.81 101.66 125.919 101.594 126.155V127.105C101.594 128.002 101.419 129.048 102.141 129.247H102.859C103.533 129.247 104.932 129.434 105.117 128.94C105.341 128.707 105.254 128.021 105.254 127.583C105.251 127.04 105.357 126.214 105.117 125.881ZM108.983 125.611H107.065C106.884 125.754 106.628 125.838 106.519 126.052C106.437 126.223 106.484 126.574 106.484 126.8C106.484 127.397 106.366 128.636 106.622 128.977C106.937 129.406 109.251 129.312 109.873 129.148C109.969 129.002 110.097 128.868 110.147 128.673V127.853C110.147 127.074 110.325 125.881 109.738 125.676C109.588 125.568 109.229 125.611 108.983 125.611ZM114.625 125.676C114.479 125.568 114.12 125.608 113.873 125.608H111.955C111.784 125.763 111.506 125.86 111.409 126.083C111.3 126.328 111.375 126.825 111.375 127.136C111.375 128.092 111.203 129.052 111.993 129.247H112.711C113.417 129.247 114.744 129.44 114.931 128.906C115.084 128.719 115.035 128.285 115.035 127.952C115.031 127.161 115.231 125.888 114.625 125.676Z" fill="#BEBEBE" fill-opacity="0.75"/>
</svg>
