<svg width="1020" height="1459" viewBox="0 0 1020 1459" fill="none" xmlns="http://www.w3.org/2000/svg">
<rect width="1020" height="1459" rx="14" fill="url(#paint0_linear)"/>
<g filter="url(#filter0_f)">
<circle cx="166.453" cy="789.79" r="3.72229" transform="rotate(90 166.453 789.79)" fill="#B17ED8" fill-opacity="0.3"/>
<circle cx="166.453" cy="881.276" r="3.72229" transform="rotate(90 166.453 881.276)" fill="#B17ED8" fill-opacity="0.3"/>
<circle cx="166.453" cy="972.761" r="3.72229" transform="rotate(90 166.453 972.761)" fill="#B17ED8" fill-opacity="0.3"/>
<circle cx="166.453" cy="1064.25" r="3.72229" transform="rotate(90 166.453 1064.25)" fill="#B17ED8" fill-opacity="0.3"/>
<circle cx="103.587" cy="789.79" r="3.72229" transform="rotate(90 103.587 789.79)" fill="#B17ED8" fill-opacity="0.3"/>
<circle cx="103.587" cy="881.276" r="3.72229" transform="rotate(90 103.587 881.276)" fill="#B17ED8" fill-opacity="0.3"/>
<circle cx="103.587" cy="972.761" r="3.72229" transform="rotate(90 103.587 972.761)" fill="#B17ED8" fill-opacity="0.3"/>
<circle cx="103.587" cy="1064.25" r="3.72229" transform="rotate(90 103.587 1064.25)" fill="#B17ED8" fill-opacity="0.3"/>
<circle cx="223.444" cy="789.79" r="3.72229" transform="rotate(90 223.444 789.79)" fill="#B17ED8" fill-opacity="0.3"/>
<circle cx="223.444" cy="881.275" r="3.72229" transform="rotate(90 223.444 881.275)" fill="#B17ED8" fill-opacity="0.3"/>
<circle cx="223.444" cy="972.761" r="3.72229" transform="rotate(90 223.444 972.761)" fill="#B17ED8" fill-opacity="0.3"/>
<circle cx="223.444" cy="1064.25" r="3.72229" transform="rotate(90 223.444 1064.25)" fill="#B17ED8" fill-opacity="0.3"/>
<circle cx="223.445" cy="1149.72" r="3.72229" transform="rotate(90 223.445 1149.72)" fill="#B17ED8" fill-opacity="0.3"/>
<circle cx="223.445" cy="1241.21" r="3.72229" transform="rotate(90 223.445 1241.21)" fill="#B17ED8" fill-opacity="0.3"/>
<circle cx="223.445" cy="1332.69" r="3.72229" transform="rotate(90 223.445 1332.69)" fill="#B17ED8" fill-opacity="0.3"/>
<circle cx="223.445" cy="1424.18" r="3.72229" transform="rotate(90 223.445 1424.18)" fill="#B17ED8" fill-opacity="0.3"/>
<circle cx="40.722" cy="789.79" r="3.72229" transform="rotate(90 40.722 789.79)" fill="#B17ED8" fill-opacity="0.3"/>
<circle cx="40.722" cy="881.276" r="3.72229" transform="rotate(90 40.722 881.276)" fill="#B17ED8" fill-opacity="0.3"/>
<circle cx="40.722" cy="972.761" r="3.72229" transform="rotate(90 40.722 972.761)" fill="#B17ED8" fill-opacity="0.3"/>
<circle cx="40.722" cy="1064.25" r="3.72229" transform="rotate(90 40.722 1064.25)" fill="#B17ED8" fill-opacity="0.3"/>
<circle cx="166.453" cy="1149.82" r="3.72229" transform="rotate(90 166.453 1149.82)" fill="#B17ED8" fill-opacity="0.3"/>
<circle cx="166.453" cy="1241.3" r="3.72229" transform="rotate(90 166.453 1241.3)" fill="#B17ED8" fill-opacity="0.3"/>
<circle cx="166.453" cy="1332.79" r="3.72229" transform="rotate(90 166.453 1332.79)" fill="#B17ED8" fill-opacity="0.3"/>
<circle cx="166.453" cy="1424.27" r="3.72229" transform="rotate(90 166.453 1424.27)" fill="#B17ED8" fill-opacity="0.3"/>
<circle cx="103.588" cy="1149.82" r="3.72229" transform="rotate(90 103.588 1149.82)" fill="#B17ED8" fill-opacity="0.3"/>
<circle cx="103.588" cy="1241.3" r="3.72229" transform="rotate(90 103.588 1241.3)" fill="#B17ED8" fill-opacity="0.3"/>
<circle cx="103.588" cy="1332.79" r="3.72229" transform="rotate(90 103.588 1332.79)" fill="#B17ED8" fill-opacity="0.3"/>
<circle cx="103.588" cy="1424.27" r="3.72229" transform="rotate(90 103.588 1424.27)" fill="#B17ED8" fill-opacity="0.3"/>
<circle cx="40.723" cy="1149.82" r="3.72229" transform="rotate(90 40.723 1149.82)" fill="#B17ED8" fill-opacity="0.3"/>
<circle cx="40.723" cy="1241.3" r="3.72229" transform="rotate(90 40.723 1241.3)" fill="#B17ED8" fill-opacity="0.3"/>
<circle cx="40.723" cy="1332.79" r="3.72229" transform="rotate(90 40.723 1332.79)" fill="#B17ED8" fill-opacity="0.3"/>
<circle cx="40.723" cy="1424.27" r="3.72229" transform="rotate(90 40.723 1424.27)" fill="#B17ED8" fill-opacity="0.3"/>
<circle cx="980.207" cy="789.79" r="3.72229" transform="rotate(90 980.207 789.79)" fill="#B17ED8" fill-opacity="0.3"/>
<circle cx="980.207" cy="881.275" r="3.72229" transform="rotate(90 980.207 881.275)" fill="#B17ED8" fill-opacity="0.3"/>
<circle cx="980.207" cy="972.761" r="3.72229" transform="rotate(90 980.207 972.761)" fill="#B17ED8" fill-opacity="0.3"/>
<circle cx="980.207" cy="1064.25" r="3.72229" transform="rotate(90 980.207 1064.25)" fill="#B17ED8" fill-opacity="0.3"/>
<circle cx="917.341" cy="789.79" r="3.72229" transform="rotate(90 917.341 789.79)" fill="#B17ED8" fill-opacity="0.3"/>
<circle cx="917.341" cy="881.275" r="3.72229" transform="rotate(90 917.341 881.275)" fill="#B17ED8" fill-opacity="0.3"/>
<circle cx="917.341" cy="972.761" r="3.72229" transform="rotate(90 917.341 972.761)" fill="#B17ED8" fill-opacity="0.3"/>
<circle cx="917.341" cy="1064.25" r="3.72229" transform="rotate(90 917.341 1064.25)" fill="#B17ED8" fill-opacity="0.3"/>
<circle cx="854.476" cy="789.79" r="3.72229" transform="rotate(90 854.476 789.79)" fill="#B17ED8" fill-opacity="0.3"/>
<circle cx="854.476" cy="881.275" r="3.72229" transform="rotate(90 854.476 881.275)" fill="#B17ED8" fill-opacity="0.3"/>
<circle cx="854.476" cy="972.761" r="3.72229" transform="rotate(90 854.476 972.761)" fill="#B17ED8" fill-opacity="0.3"/>
<circle cx="854.476" cy="1064.25" r="3.72229" transform="rotate(90 854.476 1064.25)" fill="#B17ED8" fill-opacity="0.3"/>
<circle cx="980.207" cy="1149.82" r="3.72229" transform="rotate(90 980.207 1149.82)" fill="#B17ED8" fill-opacity="0.3"/>
<circle cx="980.207" cy="1241.3" r="3.72229" transform="rotate(90 980.207 1241.3)" fill="#B17ED8" fill-opacity="0.3"/>
<circle cx="980.207" cy="1332.79" r="3.72229" transform="rotate(90 980.207 1332.79)" fill="#B17ED8" fill-opacity="0.3"/>
<circle cx="980.207" cy="1424.27" r="3.72229" transform="rotate(90 980.207 1424.27)" fill="#B17ED8" fill-opacity="0.3"/>
<circle cx="917.341" cy="1149.82" r="3.72229" transform="rotate(90 917.341 1149.82)" fill="#B17ED8" fill-opacity="0.3"/>
<circle cx="917.341" cy="1241.3" r="3.72229" transform="rotate(90 917.341 1241.3)" fill="#B17ED8" fill-opacity="0.3"/>
<circle cx="917.341" cy="1332.79" r="3.72229" transform="rotate(90 917.341 1332.79)" fill="#B17ED8" fill-opacity="0.3"/>
<circle cx="917.341" cy="1424.27" r="3.72229" transform="rotate(90 917.341 1424.27)" fill="#B17ED8" fill-opacity="0.3"/>
<circle cx="854.476" cy="1149.82" r="3.72229" transform="rotate(90 854.476 1149.82)" fill="#B17ED8" fill-opacity="0.3"/>
<circle cx="854.476" cy="1241.3" r="3.72229" transform="rotate(90 854.476 1241.3)" fill="#B17ED8" fill-opacity="0.3"/>
<circle cx="854.476" cy="1332.79" r="3.72229" transform="rotate(90 854.476 1332.79)" fill="#B17ED8" fill-opacity="0.3"/>
<circle cx="854.476" cy="1424.27" r="3.72229" transform="rotate(90 854.476 1424.27)" fill="#B17ED8" fill-opacity="0.3"/>
<circle cx="789.176" cy="789.79" r="3.72229" transform="rotate(90 789.176 789.79)" fill="#B17ED8" fill-opacity="0.3"/>
<circle cx="789.176" cy="881.275" r="3.72229" transform="rotate(90 789.176 881.275)" fill="#B17ED8" fill-opacity="0.3"/>
<circle cx="789.176" cy="972.761" r="3.72229" transform="rotate(90 789.176 972.761)" fill="#B17ED8" fill-opacity="0.3"/>
<circle cx="789.176" cy="1064.25" r="3.72229" transform="rotate(90 789.176 1064.25)" fill="#B17ED8" fill-opacity="0.3"/>
<circle cx="726.311" cy="789.79" r="3.72229" transform="rotate(90 726.311 789.79)" fill="#B17ED8" fill-opacity="0.3"/>
<circle cx="726.311" cy="881.275" r="3.72229" transform="rotate(90 726.311 881.275)" fill="#B17ED8" fill-opacity="0.3"/>
<circle cx="726.311" cy="972.761" r="3.72229" transform="rotate(90 726.311 972.761)" fill="#B17ED8" fill-opacity="0.3"/>
<circle cx="726.311" cy="1064.25" r="3.72229" transform="rotate(90 726.311 1064.25)" fill="#B17ED8" fill-opacity="0.3"/>
<circle cx="663.446" cy="789.79" r="3.72229" transform="rotate(90 663.446 789.79)" fill="#B17ED8" fill-opacity="0.3"/>
<circle cx="663.446" cy="881.275" r="3.72229" transform="rotate(90 663.446 881.275)" fill="#B17ED8" fill-opacity="0.3"/>
<circle cx="663.446" cy="972.761" r="3.72229" transform="rotate(90 663.446 972.761)" fill="#B17ED8" fill-opacity="0.3"/>
<circle cx="663.446" cy="1064.25" r="3.72229" transform="rotate(90 663.446 1064.25)" fill="#B17ED8" fill-opacity="0.3"/>
<circle cx="789.176" cy="1149.82" r="3.72229" transform="rotate(90 789.176 1149.82)" fill="#B17ED8" fill-opacity="0.3"/>
<circle cx="789.176" cy="1241.3" r="3.72229" transform="rotate(90 789.176 1241.3)" fill="#B17ED8" fill-opacity="0.3"/>
<circle cx="789.176" cy="1332.79" r="3.72229" transform="rotate(90 789.176 1332.79)" fill="#B17ED8" fill-opacity="0.3"/>
<circle cx="789.176" cy="1424.27" r="3.72229" transform="rotate(90 789.176 1424.27)" fill="#B17ED8" fill-opacity="0.3"/>
<circle cx="726.311" cy="1149.82" r="3.72229" transform="rotate(90 726.311 1149.82)" fill="#B17ED8" fill-opacity="0.3"/>
<circle cx="726.311" cy="1241.3" r="3.72229" transform="rotate(90 726.311 1241.3)" fill="#B17ED8" fill-opacity="0.3"/>
<circle cx="726.311" cy="1332.79" r="3.72229" transform="rotate(90 726.311 1332.79)" fill="#B17ED8" fill-opacity="0.3"/>
<circle cx="726.311" cy="1424.27" r="3.72229" transform="rotate(90 726.311 1424.27)" fill="#B17ED8" fill-opacity="0.3"/>
<circle cx="663.446" cy="1149.82" r="3.72229" transform="rotate(90 663.446 1149.82)" fill="#B17ED8" fill-opacity="0.3"/>
<circle cx="663.446" cy="1241.3" r="3.72229" transform="rotate(90 663.446 1241.3)" fill="#B17ED8" fill-opacity="0.3"/>
<circle cx="663.446" cy="1332.79" r="3.72229" transform="rotate(90 663.446 1332.79)" fill="#B17ED8" fill-opacity="0.3"/>
<circle cx="663.446" cy="1424.27" r="3.72229" transform="rotate(90 663.446 1424.27)" fill="#B17ED8" fill-opacity="0.3"/>
<circle cx="407.176" cy="789.79" r="3.72229" transform="rotate(90 407.176 789.79)" fill="#B17ED8" fill-opacity="0.3"/>
<circle cx="407.176" cy="881.275" r="3.72229" transform="rotate(90 407.176 881.275)" fill="#B17ED8" fill-opacity="0.3"/>
<circle cx="407.176" cy="972.761" r="3.72229" transform="rotate(90 407.176 972.761)" fill="#B17ED8" fill-opacity="0.3"/>
<circle cx="407.176" cy="1064.25" r="3.72229" transform="rotate(90 407.176 1064.25)" fill="#B17ED8" fill-opacity="0.3"/>
<circle cx="344.311" cy="789.79" r="3.72229" transform="rotate(90 344.311 789.79)" fill="#B17ED8" fill-opacity="0.3"/>
<circle cx="344.311" cy="881.275" r="3.72229" transform="rotate(90 344.311 881.275)" fill="#B17ED8" fill-opacity="0.3"/>
<circle cx="344.311" cy="972.761" r="3.72229" transform="rotate(90 344.311 972.761)" fill="#B17ED8" fill-opacity="0.3"/>
<circle cx="344.311" cy="1064.25" r="3.72229" transform="rotate(90 344.311 1064.25)" fill="#B17ED8" fill-opacity="0.3"/>
<circle cx="281.446" cy="789.79" r="3.72229" transform="rotate(90 281.446 789.79)" fill="#B17ED8" fill-opacity="0.3"/>
<circle cx="281.446" cy="881.275" r="3.72229" transform="rotate(90 281.446 881.275)" fill="#B17ED8" fill-opacity="0.3"/>
<circle cx="281.446" cy="972.761" r="3.72229" transform="rotate(90 281.446 972.761)" fill="#B17ED8" fill-opacity="0.3"/>
<circle cx="281.446" cy="1064.25" r="3.72229" transform="rotate(90 281.446 1064.25)" fill="#B17ED8" fill-opacity="0.3"/>
<circle cx="407.176" cy="1149.82" r="3.72229" transform="rotate(90 407.176 1149.82)" fill="#B17ED8" fill-opacity="0.3"/>
<circle cx="407.176" cy="1241.3" r="3.72229" transform="rotate(90 407.176 1241.3)" fill="#B17ED8" fill-opacity="0.3"/>
<circle cx="407.176" cy="1332.79" r="3.72229" transform="rotate(90 407.176 1332.79)" fill="#B17ED8" fill-opacity="0.3"/>
<circle cx="407.176" cy="1424.27" r="3.72229" transform="rotate(90 407.176 1424.27)" fill="#B17ED8" fill-opacity="0.3"/>
<circle cx="344.311" cy="1149.82" r="3.72229" transform="rotate(90 344.311 1149.82)" fill="#B17ED8" fill-opacity="0.3"/>
<circle cx="344.311" cy="1241.3" r="3.72229" transform="rotate(90 344.311 1241.3)" fill="#B17ED8" fill-opacity="0.3"/>
<circle cx="344.311" cy="1332.79" r="3.72229" transform="rotate(90 344.311 1332.79)" fill="#B17ED8" fill-opacity="0.3"/>
<circle cx="344.311" cy="1424.27" r="3.72229" transform="rotate(90 344.311 1424.27)" fill="#B17ED8" fill-opacity="0.3"/>
<circle cx="281.446" cy="1149.82" r="3.72229" transform="rotate(90 281.446 1149.82)" fill="#B17ED8" fill-opacity="0.3"/>
<circle cx="281.446" cy="1241.3" r="3.72229" transform="rotate(90 281.446 1241.3)" fill="#B17ED8" fill-opacity="0.3"/>
<circle cx="281.446" cy="1332.79" r="3.72229" transform="rotate(90 281.446 1332.79)" fill="#B17ED8" fill-opacity="0.3"/>
<circle cx="281.446" cy="1424.27" r="3.72229" transform="rotate(90 281.446 1424.27)" fill="#B17ED8" fill-opacity="0.3"/>
<circle cx="598.176" cy="789.79" r="3.72229" transform="rotate(90 598.176 789.79)" fill="#B17ED8" fill-opacity="0.3"/>
<circle cx="598.176" cy="881.275" r="3.72229" transform="rotate(90 598.176 881.275)" fill="#B17ED8" fill-opacity="0.3"/>
<circle cx="598.176" cy="972.761" r="3.72229" transform="rotate(90 598.176 972.761)" fill="#B17ED8" fill-opacity="0.3"/>
<circle cx="598.176" cy="1064.25" r="3.72229" transform="rotate(90 598.176 1064.25)" fill="#B17ED8" fill-opacity="0.3"/>
<circle cx="535.311" cy="789.79" r="3.72229" transform="rotate(90 535.311 789.79)" fill="#B17ED8" fill-opacity="0.3"/>
<circle cx="535.311" cy="881.275" r="3.72229" transform="rotate(90 535.311 881.275)" fill="#B17ED8" fill-opacity="0.3"/>
<circle cx="535.311" cy="972.761" r="3.72229" transform="rotate(90 535.311 972.761)" fill="#B17ED8" fill-opacity="0.3"/>
<circle cx="535.311" cy="1064.25" r="3.72229" transform="rotate(90 535.311 1064.25)" fill="#B17ED8" fill-opacity="0.3"/>
<circle cx="472.446" cy="789.79" r="3.72229" transform="rotate(90 472.446 789.79)" fill="#B17ED8" fill-opacity="0.3"/>
<circle cx="472.446" cy="881.275" r="3.72229" transform="rotate(90 472.446 881.275)" fill="#B17ED8" fill-opacity="0.3"/>
<circle cx="472.446" cy="972.761" r="3.72229" transform="rotate(90 472.446 972.761)" fill="#B17ED8" fill-opacity="0.3"/>
<circle cx="472.446" cy="1064.25" r="3.72229" transform="rotate(90 472.446 1064.25)" fill="#B17ED8" fill-opacity="0.3"/>
<circle cx="598.176" cy="1149.82" r="3.72229" transform="rotate(90 598.176 1149.82)" fill="#B17ED8" fill-opacity="0.3"/>
<circle cx="598.176" cy="1241.3" r="3.72229" transform="rotate(90 598.176 1241.3)" fill="#B17ED8" fill-opacity="0.3"/>
<circle cx="598.176" cy="1332.79" r="3.72229" transform="rotate(90 598.176 1332.79)" fill="#B17ED8" fill-opacity="0.3"/>
<circle cx="598.176" cy="1424.27" r="3.72229" transform="rotate(90 598.176 1424.27)" fill="#B17ED8" fill-opacity="0.3"/>
<circle cx="535.311" cy="1149.82" r="3.72229" transform="rotate(90 535.311 1149.82)" fill="#B17ED8" fill-opacity="0.3"/>
<circle cx="535.311" cy="1241.3" r="3.72229" transform="rotate(90 535.311 1241.3)" fill="#B17ED8" fill-opacity="0.3"/>
<circle cx="535.311" cy="1332.79" r="3.72229" transform="rotate(90 535.311 1332.79)" fill="#B17ED8" fill-opacity="0.3"/>
<circle cx="535.311" cy="1424.27" r="3.72229" transform="rotate(90 535.311 1424.27)" fill="#B17ED8" fill-opacity="0.3"/>
<circle cx="472.446" cy="1149.82" r="3.72229" transform="rotate(90 472.446 1149.82)" fill="#B17ED8" fill-opacity="0.3"/>
<circle cx="472.446" cy="1241.3" r="3.72229" transform="rotate(90 472.446 1241.3)" fill="#B17ED8" fill-opacity="0.3"/>
<circle cx="472.446" cy="1332.79" r="3.72229" transform="rotate(90 472.446 1332.79)" fill="#B17ED8" fill-opacity="0.3"/>
<circle cx="472.446" cy="1424.27" r="3.72229" transform="rotate(90 472.446 1424.27)" fill="#B17ED8" fill-opacity="0.3"/>
</g>
<rect x="80" y="817.511" width="260.938" height="260.938" rx="22" fill="black" fill-opacity="0.3"/>
<rect x="383" y="817" width="257.347" height="260.938" rx="22" fill="black" fill-opacity="0.3"/>
<rect x="682" y="817" width="257.347" height="260.938" rx="22" fill="black" fill-opacity="0.3"/>
<rect x="80" y="1123.51" width="260.938" height="260.938" rx="22" fill="black" fill-opacity="0.3"/>
<rect x="383" y="1123" width="257.347" height="260.938" rx="22" fill="black" fill-opacity="0.3"/>
<rect x="682" y="1123" width="257.347" height="260.938" rx="22" fill="black" fill-opacity="0.3"/>
<g filter="url(#filter1_d)">
<rect x="43" y="37" width="941.908" height="554.932" fill="#8A758C"/>
<rect x="43" y="37" width="941.908" height="554.932" fill="url(#paint1_radial)"/>
</g>
<line x1="38" y1="35" x2="64.0676" y2="35" stroke="#9B9B9B" stroke-width="4"/>
<line x1="40" y1="37" x2="40" y2="63.0676" stroke="#9B9B9B" stroke-width="4"/>
<line x1="986.136" y1="33.9658" x2="986.136" y2="60.0334" stroke="#9B9B9B" stroke-width="4"/>
<line x1="984.136" y1="35.9658" x2="958.068" y2="35.9658" stroke="#9B9B9B" stroke-width="4"/>
<line x1="984.908" y1="593.933" x2="958.84" y2="593.933" stroke="#9B9B9B" stroke-width="4"/>
<line x1="982.908" y1="591.933" x2="982.908" y2="565.865" stroke="#9B9B9B" stroke-width="4"/>
<line x1="41" y1="591.933" x2="41" y2="565.865" stroke="#9B9B9B" stroke-width="4"/>
<line x1="43" y1="589.933" x2="69.0676" y2="589.933" stroke="#9B9B9B" stroke-width="4"/>
<path d="M47 55H988" stroke="white" stroke-opacity="0.15" stroke-width="6"/>
<path d="M47 43H988" stroke="white" stroke-opacity="0.15" stroke-width="6"/>
<path d="M47 31H988" stroke="white" stroke-opacity="0.15" stroke-width="6"/>
<path d="M47 247H988" stroke="white" stroke-opacity="0.15" stroke-width="6"/>
<path d="M47 235H988" stroke="white" stroke-opacity="0.15" stroke-width="6"/>
<path d="M47 295H988" stroke="white" stroke-opacity="0.15" stroke-width="6"/>
<path d="M47 283H988" stroke="white" stroke-opacity="0.15" stroke-width="6"/>
<path d="M47 271H988" stroke="white" stroke-opacity="0.15" stroke-width="6"/>
<path d="M47 259H988" stroke="white" stroke-opacity="0.15" stroke-width="6"/>
<path d="M47 199H988" stroke="white" stroke-opacity="0.15" stroke-width="6"/>
<path d="M47 187H988" stroke="white" stroke-opacity="0.15" stroke-width="6"/>
<path d="M47 223H988" stroke="white" stroke-opacity="0.15" stroke-width="6"/>
<path d="M47 211H988" stroke="white" stroke-opacity="0.15" stroke-width="6"/>
<path d="M47 127H988" stroke="white" stroke-opacity="0.15" stroke-width="6"/>
<path d="M47 115H988" stroke="white" stroke-opacity="0.15" stroke-width="6"/>
<path d="M47 175H988" stroke="white" stroke-opacity="0.15" stroke-width="6"/>
<path d="M47 163H988" stroke="white" stroke-opacity="0.15" stroke-width="6"/>
<path d="M47 151H988" stroke="white" stroke-opacity="0.15" stroke-width="6"/>
<path d="M47 139H988" stroke="white" stroke-opacity="0.15" stroke-width="6"/>
<path d="M47 79H988" stroke="white" stroke-opacity="0.15" stroke-width="6"/>
<path d="M47 67H988" stroke="white" stroke-opacity="0.15" stroke-width="6"/>
<path d="M47 103H988" stroke="white" stroke-opacity="0.15" stroke-width="6"/>
<path d="M47 91H988" stroke="white" stroke-opacity="0.15" stroke-width="6"/>
<path d="M47 487H988" stroke="white" stroke-opacity="0.15" stroke-width="6"/>
<path d="M47 475H988" stroke="white" stroke-opacity="0.15" stroke-width="6"/>
<path d="M47 535H988" stroke="white" stroke-opacity="0.15" stroke-width="6"/>
<path d="M47 523H988" stroke="white" stroke-opacity="0.15" stroke-width="6"/>
<path d="M47 511H988" stroke="white" stroke-opacity="0.15" stroke-width="6"/>
<path d="M47 499H988" stroke="white" stroke-opacity="0.15" stroke-width="6"/>
<path d="M47 439H988" stroke="white" stroke-opacity="0.15" stroke-width="6"/>
<path d="M47 427H988" stroke="white" stroke-opacity="0.15" stroke-width="6"/>
<path d="M47 463H988" stroke="white" stroke-opacity="0.15" stroke-width="6"/>
<path d="M47 451H988" stroke="white" stroke-opacity="0.15" stroke-width="6"/>
<path d="M47 367H988" stroke="white" stroke-opacity="0.15" stroke-width="6"/>
<path d="M47 355H988" stroke="white" stroke-opacity="0.15" stroke-width="6"/>
<path d="M47 415H988" stroke="white" stroke-opacity="0.15" stroke-width="6"/>
<path d="M47 403H988" stroke="white" stroke-opacity="0.15" stroke-width="6"/>
<path d="M47 391H988" stroke="white" stroke-opacity="0.15" stroke-width="6"/>
<path d="M47 379H988" stroke="white" stroke-opacity="0.15" stroke-width="6"/>
<path d="M47 319H988" stroke="white" stroke-opacity="0.15" stroke-width="6"/>
<path d="M47 307H988" stroke="white" stroke-opacity="0.15" stroke-width="6"/>
<path d="M47 343H988" stroke="white" stroke-opacity="0.15" stroke-width="6"/>
<path d="M47 331H988" stroke="white" stroke-opacity="0.15" stroke-width="6"/>
<path d="M47 559H988" stroke="white" stroke-opacity="0.15" stroke-width="6"/>
<path d="M47 547H988" stroke="white" stroke-opacity="0.15" stroke-width="6"/>
<path d="M47 571H988" stroke="white" stroke-opacity="0.15" stroke-width="6"/>
<path d="M47 583H988" stroke="white" stroke-opacity="0.15" stroke-width="6"/>
<g filter="url(#filter2_d)">
<rect x="19" y="627" width="982" height="129" fill="url(#paint2_radial)"/>
</g>
<defs>
<filter id="filter0_f" x="31" y="780.067" width="958.929" height="653.929" filterUnits="userSpaceOnUse" color-interpolation-filters="sRGB">
<feFlood flood-opacity="0" result="BackgroundImageFix"/>
<feBlend mode="normal" in="SourceGraphic" in2="BackgroundImageFix" result="shape"/>
<feGaussianBlur stdDeviation="3" result="effect1_foregroundBlur"/>
</filter>
<filter id="filter1_d" x="33" y="27" width="961.908" height="574.932" filterUnits="userSpaceOnUse" color-interpolation-filters="sRGB">
<feFlood flood-opacity="0" result="BackgroundImageFix"/>
<feColorMatrix in="SourceAlpha" type="matrix" values="0 0 0 0 0 0 0 0 0 0 0 0 0 0 0 0 0 0 127 0"/>
<feOffset/>
<feGaussianBlur stdDeviation="5"/>
<feColorMatrix type="matrix" values="0 0 0 0 0 0 0 0 0 0 0 0 0 0 0 0 0 0 0.5 0"/>
<feBlend mode="normal" in2="BackgroundImageFix" result="effect1_dropShadow"/>
<feBlend mode="normal" in="SourceGraphic" in2="effect1_dropShadow" result="shape"/>
</filter>
<filter id="filter2_d" x="19" y="627" width="982" height="137" filterUnits="userSpaceOnUse" color-interpolation-filters="sRGB">
<feFlood flood-opacity="0" result="BackgroundImageFix"/>
<feColorMatrix in="SourceAlpha" type="matrix" values="0 0 0 0 0 0 0 0 0 0 0 0 0 0 0 0 0 0 127 0"/>
<feOffset dy="8"/>
<feColorMatrix type="matrix" values="0 0 0 0 0 0 0 0 0 0 0 0 0 0 0 0 0 0 0.75 0"/>
<feBlend mode="normal" in2="BackgroundImageFix" result="effect1_dropShadow"/>
<feBlend mode="normal" in="SourceGraphic" in2="effect1_dropShadow" result="shape"/>
</filter>
<linearGradient id="paint0_linear" x1="510" y1="0" x2="510" y2="1459" gradientUnits="userSpaceOnUse">
<stop stop-color="#A781C4"/>
<stop offset="0.286458" stop-color="#875B8C"/>
<stop offset="0.404387" stop-color="#75437B"/>
<stop offset="0.533242" stop-color="#5A335F"/>
</linearGradient>
<radialGradient id="paint1_radial" cx="0" cy="0" r="1" gradientUnits="userSpaceOnUse" gradientTransform="translate(513.954 314.466) rotate(88.0281) scale(379.14 643.433)">
<stop stop-color="white" stop-opacity="0"/>
<stop offset="1" stop-opacity="0.3"/>
</radialGradient>
<radialGradient id="paint2_radial" cx="0" cy="0" r="1" gradientUnits="userSpaceOnUse" gradientTransform="translate(510 692) rotate(90) scale(159 434.367)">
<stop stop-color="#C1A4D7"/>
<stop offset="0.8125" stop-color="#AC86CA"/>
<stop offset="0.984375" stop-color="#A181B9"/>
</radialGradient>
</defs>
</svg>
