<svg width="180" height="223" viewBox="0 0 180 223" fill="none" xmlns="http://www.w3.org/2000/svg">
<g filter="url(#filter0_f)">
<rect x="5.45715" y="4.19086" width="170" height="214" fill="black" fill-opacity="0.4"/>
</g>
<path fill-rule="evenodd" clip-rule="evenodd" d="M170.696 175.754C170.759 175.94 170.828 176.133 170.883 176.319C170.627 175.809 170.703 176.05 170.662 175.749C170.406 175.673 170.151 175.604 169.89 175.542C169.91 175.48 169.938 175.418 169.959 175.356C169.89 175.356 169.821 175.356 169.758 175.356C169.89 175.142 170.021 174.922 170.145 174.703C170.159 174.716 170.173 174.73 170.187 174.744C170.214 174.654 170.242 174.572 170.277 174.482C169.938 173.657 170.373 174.372 169.394 173.67C169.353 173.746 169.311 173.815 169.27 173.891C169.304 174.606 169.339 175.309 169.38 176.018C169.152 176.183 168.945 176.348 168.733 176.521C168.436 176.266 168.138 175.99 167.843 175.709C167.898 175.44 167.933 175.192 167.988 174.911C168.147 175.215 168.32 175.495 168.479 175.799C168.831 173.741 169.004 173.962 169.776 172.454C169.852 172.516 169.921 172.578 169.997 172.64C170.059 172.557 170.142 172.592 170.886 172.15C170.921 172.468 170.962 172.769 171.004 173.086C170.859 173.107 170.721 173.121 170.582 173.134C170.693 173.224 170.797 173.314 170.907 173.403C170.886 173.465 170.866 173.521 170.852 173.576C171.225 173.521 171.589 173.479 171.955 173.438V163.444C171.755 163.43 171.562 163.396 171.361 163.382C171.555 163.141 171.755 162.9 171.955 162.66V161.194C171.845 161.387 171.727 161.587 171.617 161.764C171.534 161.716 171.458 161.674 171.368 161.626C171.562 161.44 171.769 161.247 171.954 161.07V157.549C171.898 157.514 171.829 157.487 171.781 157.445C171.85 157.342 171.905 157.245 171.954 157.142V152.393C171.38 152.558 170.809 152.737 170.228 152.903C170.89 151.726 171.249 151.305 171.954 151.546V143.321C171.67 143.638 171.769 142.179 171.246 142.496C171.328 140.617 171.156 140.941 171.246 139.049C171.543 139.159 171.657 138.82 171.954 138.93V130.024C171.926 130.031 171.898 130.038 171.857 130.038C171.829 129.728 171.774 129.419 171.746 129.123C171.857 129.185 171.885 129.192 171.947 129.233V123.431C171.864 123.444 171.788 123.451 171.691 123.465C171.664 123.169 171.622 122.846 171.581 122.543C171.767 122.646 171.864 122.688 171.947 122.722V108.281C171.636 108.55 171.327 108.798 171.03 108.955C170.278 108.143 170.94 108.672 169.995 108.143C170.698 106.113 171.403 106.601 171.857 104.164C171.885 104.171 171.926 104.171 171.954 104.178V103.104C171.885 103.166 171.843 103.207 171.712 103.318C171.795 103.214 171.871 103.111 171.954 103.001V95.561C171.885 95.5679 171.816 95.5817 171.753 95.5886C171.822 95.4025 171.891 95.2026 171.954 95.0164V93.4534C171.94 93.4534 171.926 93.4534 171.912 93.4603C171.94 93.3776 171.94 93.3569 171.954 93.3017V73.0734C171.857 73.3423 171.767 73.6111 171.67 73.8782C171.159 73.6301 170.664 73.3819 170.159 73.1424C170.601 71.2157 170.166 72.846 171.38 71.5655C171.574 71.8619 171.767 72.1428 171.954 72.4392V70.678C171.726 70.6642 171.505 70.6573 171.271 70.6435C171.575 70.2368 171.776 70.0593 171.954 69.9422V0.245979L171.664 0.009884H164.04C163.943 0.196002 163.881 0.375228 163.729 0.621662C163.653 0.414864 163.584 0.208066 163.501 0.009884H158.672C158.783 0.0650302 158.879 0.113283 158.99 0.161536C158.72 0.133963 158.451 0.0994966 158.183 0.08571C158.197 0.0581369 158.211 0.0305638 158.225 0.00299072H157.427H154.437H154.078H152.615H152.339H150.29H149.883H148.525H147.064V0.009884H145.007C145.003 0.00643736 144.997 0.00643736 144.993 0.00299072H143.268C143.257 0.00471404 143.245 0.00816068 143.233 0.009884H142.592C142.592 0.00816068 142.591 0.00471404 142.591 0.00299072H142.335C142.333 0.00471404 142.332 0.00816068 142.33 0.009884H139.857C139.851 0.0202239 139.846 0.0305638 139.843 0.0409037C139.694 0.10639 139.542 0.164983 139.399 0.225299C139.399 0.223576 139.397 0.220129 139.397 0.218406C139.746 0.0116073 139.713 0.0219472 139.838 0.00299072H134.041H131.656H130.254C130.256 0.00471404 130.259 0.00816068 130.261 0.009884H129.908C129.907 0.00816068 129.903 0.00471404 129.898 0.00299072H129.791H128.435H128.159H126.11H125.703H124.345H120.813H119.088H118.413H118.157H115.66H107.478H97.7733H93.9857H93.6265H92.1636H91.8872H89.8389H89.4313H88.0755H84.5435H82.8181H82.1428H81.8871H79.3897H71.2083H68.412H64.6244H64.2652H62.8023H62.526H60.4776H60.07H58.7142H55.1822H53.4568H52.7815H52.5259H50.0284H41.847H38.2528V0.009884H35.5067H34.3167C34.4272 0.0650302 34.524 0.113283 34.6345 0.161536C34.3651 0.133963 34.0956 0.0994966 33.8279 0.08571C33.8435 0.0581369 33.8573 0.0305638 33.8711 0.00299072H30.0835C30.2286 0.140856 30.3944 0.271828 30.5257 0.416587C30.2562 0.271828 29.9868 0.140856 29.7243 0.00299072H28.2614C28.6552 0.285615 29.0403 0.568239 29.4548 0.862927C29.1923 1.91587 29.1923 1.39199 29.3857 2.13646C29.2476 2.3984 29.1232 2.65345 28.9712 2.92057C28.3909 2.41047 27.7916 1.89519 27.2061 1.3782C27.4479 1.068 27.7035 0.759528 27.9643 0.442437C27.973 0.299402 27.973 0.147749 27.9868 0.00299072H25.9384C25.9937 0.0650302 26.0489 0.12707 26.0973 0.182216C25.4133 0.306295 25.7588 0.361441 25.5308 0.00299072H24.1715C23.3097 0.292508 22.282 0.547559 21.8814 0.704381C21.2751 -0.0176891 20.909 0.251149 20.6395 0.00299072H18.9141C18.7 0.0443504 18.4789 0.0926033 18.2596 0.133963C18.2526 0.0926033 18.2388 0.0443504 18.2388 0.00299072H17.9832C17.9694 0.0236705 17.9556 0.0443504 17.9418 0.0581369C17.8727 0.0443504 17.8174 0.0305638 17.7552 0.0167773C17.8727 0.540666 17.9694 1.06283 18.0661 1.58672C17.5981 1.53157 17.0937 1.46264 16.605 1.4006C16.1904 0.258042 17.0195 1.06283 15.8882 0.113283C15.8243 0.382121 15.8105 0.5062 15.7967 0.642342C15.9832 0.738848 16.1766 0.82846 16.3683 0.924966C16.2233 1.18691 16.092 1.44024 15.9607 1.70908C15.8727 1.51089 15.7759 1.31788 15.6792 1.11798C15.6309 1.18002 15.5341 1.25584 15.2302 1.66255C15.3407 1.11798 15.4443 0.568239 15.548 0.0167773C15.3701 0.0994966 15.1766 0.168429 15.0039 0.244255C15.4115 0.00299072 15.3562 0.0236705 15.4858 0.00299072H7.30608C7.69814 0.0994966 8.05738 0.189109 8.46498 0.278722C8.45807 0.42348 8.45117 0.554453 8.43735 0.697488C8.57552 0.752634 8.69296 0.807781 8.83114 0.856033C8.80177 0.93186 8.80177 0.938753 8.78105 1.00079C9.04357 0.945646 9.31301 0.897393 9.59453 0.842247C8.80177 1.51779 9.36827 1.28342 8.69124 1.2972C8.38899 2.26054 8.60834 1.7918 9.40973 3.18941C9.22319 3.23077 9.02976 3.27213 8.85013 3.31349C8.58761 3.45824 8.33199 3.61679 8.06429 3.77534C7.85012 3.62368 7.59451 3.45824 7.37343 3.30659C7.49088 2.57763 7.60832 1.84005 7.73268 1.11108C7.14718 0.663022 7.38725 0.84914 7.19381 0.009884H1.98478L1.41483 0.626832L0.965771 1.11453V26.873C1.25593 26.9764 1.5789 27.066 1.40792 27.8777C1.26284 27.8639 1.11085 27.8432 0.965771 27.8294V28.7031C1.20757 28.3585 1.51845 28.0017 2.07632 27.6433C2.19376 27.7881 2.31121 27.9328 2.43556 28.0776C2.44247 28.8272 2.4632 29.5786 2.47701 30.3144C1.65662 30.2938 1.8967 30.2179 1.24211 30.5833C1.1523 30.5143 1.06249 30.4454 0.965771 30.3834V32.2342C1.11085 32.3583 1.26284 32.4755 1.40101 32.5927C1.36647 32.8546 1.33883 33.1166 1.30429 33.3768C1.18684 33.2044 1.07631 33.0114 0.958862 32.8253V40.308C1.04522 40.2821 1.03486 40.2873 1.21448 40.5354C1.13848 40.501 1.06249 40.4613 0.979588 40.42V41.1214C1.07458 40.9404 1.16094 40.7578 1.24902 40.5699C1.31983 40.6027 1.39065 40.6406 1.46319 40.6733L1.69808 41.3402C1.62899 41.485 1.5599 41.6366 1.49082 41.7883C1.31811 41.7073 1.13848 41.6246 0.958862 41.535V73.232L1.35265 74.0092C1.21448 74.1746 1.09703 74.3676 0.958862 74.5331V98.1632C1.10394 98.1701 1.26975 98.1908 1.59272 98.2391C0.571984 100.49 2.47529 98.9473 2.10395 100.69C1.83452 100.662 1.57199 100.634 1.3112 100.6C1.1523 100.467 1.08322 100.31 0.958862 100.173V101.425C1.04867 101.412 1.13158 101.405 1.21448 101.391C1.13158 101.453 1.04867 101.52 0.958862 101.582V102.553C1.48391 101.941 1.60654 101.21 2.77926 100.454C2.90361 100.598 3.00724 100.743 3.1316 100.888C3.14541 101.637 3.16614 102.389 3.17996 103.132C2.35957 103.097 2.60655 103.028 1.94506 103.387C1.62035 103.145 1.29047 102.897 0.958862 102.663V105.093C1.07631 104.976 1.17994 104.865 1.29738 104.741C1.56681 104.962 1.83625 105.175 2.10395 105.394C2.0625 105.656 2.03487 105.918 2.00032 106.178C1.84834 105.93 1.68944 105.668 1.53745 105.415C1.51673 105.553 1.50291 105.601 1.48218 105.725C1.69635 105.96 1.91742 106.208 2.12986 106.44C1.88806 106.364 1.65317 106.289 1.4131 106.206C1.29565 106.907 1.16439 107.245 0.964044 107.7V111.548C1.12294 111.521 1.29565 111.5 1.44764 111.472C1.30256 111.583 1.15748 111.7 1.0124 111.824C0.998586 111.817 0.977861 111.81 0.964044 111.803V114.748C1.04695 114.817 1.10912 114.886 1.19203 114.955C1.10912 115.114 1.04695 115.272 0.964044 115.424V115.555C0.991678 115.548 1.01931 115.541 1.04695 115.541C0.977861 116.003 0.970952 116.256 0.964044 116.456V123.884C1.19203 123.898 1.39928 123.918 1.74298 123.911C1.68771 124.695 1.63935 125.495 1.5979 126.286C1.39065 126.321 1.17648 126.348 0.964044 126.376V139.681C1.19203 139.426 1.50291 139.185 2.01241 138.835C2.21276 139.173 2.43383 139.502 2.63245 139.833C2.07977 140.254 1.52882 140.672 0.962317 141.1V141.698C1.05904 141.677 1.13503 141.656 1.22484 141.636C1.34919 142.111 1.45973 142.592 1.58408 143.075C1.38374 143.185 1.16957 143.288 0.964044 143.399V168.583C1.58408 168.335 1.46146 168.335 2.37166 168.452C1.3302 170.703 3.24041 169.167 2.87598 170.917C2.60655 170.875 2.35093 170.848 2.08323 170.813C1.41483 170.317 1.22139 169.733 0.965771 168.783V170.744C1.00722 170.696 1.02795 170.682 1.0694 170.62C1.14539 170.662 1.21448 170.696 1.29738 170.737C1.18684 170.965 1.09012 171.185 0.972679 171.418C0.972679 171.418 0.972679 171.418 0.965771 171.411V173.166C1.10394 173.29 1.2283 173.407 1.35956 173.531C1.29047 173.682 1.21448 173.834 1.14539 173.979C1.09012 173.951 1.02795 173.924 0.972679 173.896V175.018C1.04176 175.053 1.11085 175.08 1.17303 175.108C1.10394 175.252 1.03486 175.39 0.972679 175.535V176.257L1.20066 176.223L0.972679 176.698V177.544C1.02795 177.544 1.14539 177.538 1.57199 177.793C1.60654 177.71 1.64799 177.641 1.68944 177.565C1.63417 176.884 1.5789 176.223 1.53054 175.549C1.71707 175.356 1.8967 175.163 2.08323 174.97C2.35266 175.19 2.62209 175.411 2.8898 175.63C2.84835 175.892 2.82071 176.154 2.79308 176.414C2.63418 176.152 2.46838 175.897 2.3233 175.644C2.06768 177.653 1.90879 177.467 1.27493 179.023C1.1713 178.954 1.08149 178.878 0.977861 178.816V185.389C1.03313 185.527 1.15057 185.713 1.58408 186.063C1.37683 186.214 1.17648 186.373 0.977861 186.518V191.391C0.984769 191.384 0.984769 191.384 0.991678 191.378C1.20584 191.481 1.44073 191.577 1.6739 191.688C1.52882 191.998 1.38374 192.3 1.23866 192.603C1.14885 192.561 1.07285 192.52 0.976134 192.479V205.274C1.12121 205.247 1.2732 205.219 1.41137 205.192C1.31465 205.529 1.22484 205.865 1.14194 206.196C1.08667 206.127 1.0314 206.058 0.983042 205.996V208.254C1.52191 208.282 1.02449 208.082 1.67217 208.942C1.87942 209.217 2.09359 209.493 2.31293 209.774C1.8777 209.367 1.43037 208.983 0.988224 208.576V213.848L1.15748 213.993H6.7413C6.74821 213.986 6.74821 213.979 6.74821 213.972C6.75512 213.979 6.76894 213.986 6.78276 213.993H30.9402C31.0576 213.944 31.1681 213.896 31.2925 213.848C31.0922 213.958 31.0852 213.965 31.0576 213.993H35.5309H39.8936H40.5413H41.2822H41.3237H42.341H44.6657H45.0457H45.4498C45.4429 213.994 45.4395 213.998 45.4308 214H47.5897V213.993H64.8973H65.488H65.6055H70.6504H70.6919H74.4432H75.0909H76.8905H79.2153H79.5952H79.9994C79.9925 213.994 79.989 213.998 79.9804 214H82.1393V213.993H94.8475C94.965 213.944 95.0755 213.896 95.1999 213.848C94.9995 213.958 94.9926 213.965 94.965 213.993H101.165H103.801H104.449H106.248H106.917C106.924 213.986 106.924 213.979 106.924 213.972C106.931 213.979 106.944 213.986 106.958 213.993H108.573H108.953H109.357C109.35 213.994 109.347 213.998 109.338 214H111.497V213.993H125.342H131.095H131.114C131.119 213.991 131.123 213.989 131.128 213.987C131.131 213.989 131.133 213.991 131.136 213.993H131.231H140.067H140.715H142.515H144.839H145.219H145.624C145.617 213.994 145.613 213.998 145.605 214H147.763V213.993H155.29C155.408 213.944 155.518 213.896 155.643 213.848C155.442 213.958 155.435 213.965 155.408 213.993H164.244C164.368 213.903 164.492 213.82 164.624 213.731C162.603 213.586 162.776 213.42 161.175 212.864C161.41 212.505 161.644 212.149 161.891 211.797C162.313 211.873 162.726 211.956 163.147 212.038C163.106 212.114 163.085 212.19 163.057 212.273C162.327 212.638 162.919 212.183 162.444 213.105C162.527 213.14 162.596 213.167 162.686 213.209C163.354 213.112 164.011 213.029 164.679 212.933C164.879 213.112 165.087 213.284 165.292 213.457C165.147 213.636 165.03 213.822 164.891 213.994H166.691C166.926 213.65 167.168 213.3 167.387 212.962C167.871 213.362 168.415 213.486 169.016 213.994H169.396C169.403 213.746 169.417 213.498 169.437 213.259C169.942 212.516 170.527 212.316 171.596 211.964C171.921 212.666 171.907 212.474 171.81 213.424C169.79 212.619 170.714 213.858 169.783 214.003H171.677L171.942 213.825V211.628C171.631 211.566 171.315 211.504 170.997 211.442C170.983 211.256 170.969 211.063 170.942 210.886C171.011 210.734 171.066 210.575 171.128 210.417C171.646 210.755 171.831 210.865 171.935 210.948V192.232C171.921 192.219 171.921 192.219 171.907 192.205C171.921 192.198 171.935 192.191 171.935 192.184V187.302H171.948V177.165V176.962V176.092C171.537 175.975 171.125 175.864 170.696 175.754ZM2.42174 37.4886C2.31812 37.723 2.21449 37.9436 2.11086 38.1693C1.82761 37.6265 1.8967 37.5782 1.85524 36.9509C2.04177 37.1302 2.23521 37.3094 2.42174 37.4886ZM1.35265 39.7668C0.869051 38.9138 1.46319 38.6588 2.55991 38.383C2.13159 39.4635 2.17304 38.7484 2.24903 39.629C1.94506 39.6772 1.64799 39.7255 1.35265 39.7668ZM1.72398 78.7862C1.53054 78.4967 1.3371 78.2141 1.13848 77.9263C1.09703 77.6161 1.05558 77.3145 1.00031 77.0112C1.86215 77.9677 1.93124 77.4438 1.72398 78.7862ZM1.04867 70.423C1.30429 70.0714 1.57372 69.7147 1.83452 69.37C1.8967 69.8319 1.96578 70.2989 2.02796 70.7538C1.69635 70.6367 1.37337 70.5195 1.04867 70.423ZM1.60654 56.2504C1.46146 56.1746 1.30947 56.1056 1.15057 56.0298C1.94333 55.4111 1.16439 55.7058 2.15749 55.6714C1.97269 55.8592 1.79307 56.0522 1.60654 56.2504ZM2.11086 53.4293C2.16613 53.7326 2.20758 54.0273 2.24903 54.3237C1.9796 53.6913 2.08323 54.2479 2.11086 53.4293ZM2.43556 42.774C2.02796 42.0795 2.13159 42.6086 2.53228 41.9761C2.61518 42.0175 2.69118 42.0589 2.76717 42.1002C2.64973 42.326 2.5461 42.5397 2.43556 42.774ZM1.19375 114.392C1.48391 114.909 1.31811 114.481 1.43555 115.059C1.35956 114.84 1.27665 114.605 1.19375 114.392ZM1.78616 146.206C1.59963 146.006 1.4131 145.792 1.24039 145.573C1.57199 145.374 1.90879 145.153 2.2404 144.955C2.33021 145.313 2.4062 145.67 2.50292 146.028C2.26285 146.089 2.03487 146.158 1.78616 146.206ZM2.93125 108.693C2.9727 108.989 3.02797 109.311 3.06251 109.622C2.7309 109.497 2.39411 109.387 2.06941 109.27C2.35957 109.086 2.64973 108.879 2.93125 108.693ZM3.1385 110.304C3.02797 110.538 2.92434 110.759 2.8138 110.992C2.53055 110.44 2.59273 110.385 2.55819 109.753C2.74472 109.939 2.95197 110.125 3.1385 110.304ZM3.26977 111.198C2.84144 112.286 2.87598 111.564 2.95888 112.451C2.65491 112.486 2.35093 112.534 2.05559 112.575C1.58581 111.729 2.16613 111.467 3.26977 111.198ZM3.46321 114.909C3.35958 115.129 3.24904 115.357 3.1316 115.589C2.7309 114.902 2.84144 115.417 3.22832 114.785C3.31122 114.826 3.38721 114.874 3.46321 114.909ZM1.53227 114.275C1.67735 113.971 1.81552 113.668 1.9606 113.366C1.81552 113.297 1.65662 113.222 1.51154 113.153C2.01587 113.111 1.65662 112.967 1.9606 113.366C2.0435 113.401 2.11259 113.442 2.19549 113.477C2.27839 113.69 2.35439 113.911 2.43729 114.137C2.36129 114.288 2.29221 114.447 2.21622 114.599C1.99342 114.481 1.76543 114.378 1.53227 114.275ZM2.32502 129.054C2.16613 128.985 2.00723 128.923 1.86215 128.84C2.648 128.228 1.86906 128.516 2.86907 128.482C2.69809 128.668 2.50465 128.861 2.32502 129.054ZM2.82762 126.245C2.86907 126.548 2.91052 126.838 2.95888 127.139C2.67736 126.507 2.79308 127.063 2.82762 126.245ZM1.10394 171.749C1.40792 171.694 1.71017 171.646 2.00723 171.611C1.86215 171.721 1.71017 171.839 1.56509 171.956C1.40792 171.887 1.25593 171.818 1.10394 171.749ZM2.72572 173.614C2.38029 173.359 2.0435 173.097 1.69808 172.85C2.27839 172.225 2.34575 171.459 3.56683 170.682C3.68428 170.827 3.79481 170.972 3.91917 171.116C3.93299 171.866 3.9468 172.624 3.97444 173.36C3.1385 173.34 3.39412 173.264 2.72572 173.614ZM3.90535 180.531C3.79481 180.765 3.69119 180.986 3.58065 181.219C3.30431 180.662 3.36649 180.621 3.32503 179.986C3.51847 180.174 3.71191 180.352 3.90535 180.531ZM4.03489 181.427C3.60656 182.515 3.6411 181.792 3.724 182.673C3.41312 182.721 3.12469 182.77 2.82071 182.811C2.34575 181.949 2.93125 181.701 4.03489 181.427ZM4.24214 185.136C4.1247 185.356 4.02107 185.577 3.91744 185.803C3.50293 185.129 3.60656 185.644 4.00725 185.018C4.08325 185.053 4.15924 185.101 4.24214 185.136ZM1.6549 185.853C1.37165 185.315 1.43382 185.267 1.39928 184.634C1.58581 184.813 1.79307 185 1.9796 185.172C1.86906 185.405 1.76543 185.632 1.6549 185.853ZM1.96578 184.62C2.24903 185.144 2.08323 184.703 2.20758 185.287C2.12468 185.067 2.04868 184.841 1.96578 184.62ZM1.79998 182.039C1.64108 181.97 1.48218 181.908 1.3302 181.832C1.63417 181.777 1.93815 181.736 2.23349 181.694C2.09013 181.804 1.93815 181.922 1.79998 182.039ZM2.29739 184.496C2.44938 184.2 2.58064 183.898 2.73263 183.602C2.58064 183.533 2.42174 183.45 2.27666 183.388C2.78099 183.347 2.42174 183.195 2.73263 183.602C2.80862 183.636 2.87771 183.671 2.96061 183.705C3.04351 183.926 3.11951 184.146 3.20241 184.372C3.12641 184.517 3.05733 184.676 2.98824 184.834C2.75853 184.717 2.53228 184.614 2.29739 184.496ZM2.49774 185.887C3.83627 186.74 3.15232 186.823 3.85008 188C3.42866 188.241 2.98824 188.482 2.55301 188.715C2.5461 187.772 2.52537 186.837 2.49774 185.887ZM3.08324 199.288C2.93125 199.212 2.78617 199.15 2.62727 199.074C3.41312 198.455 2.63418 198.75 3.63419 198.709C3.4563 198.895 3.26286 199.088 3.08324 199.288ZM3.59447 196.473C3.63592 196.777 3.67737 197.066 3.71882 197.368C3.44248 196.734 3.56683 197.285 3.59447 196.473ZM3.63592 194.202C3.72573 193.878 3.81554 193.535 3.91917 193.204C4.11952 193.473 4.35441 193.756 4.53921 194.023C4.24905 194.092 3.94508 194.154 3.63592 194.202ZM3.92435 190.828C5.02108 189.858 4.5323 190.552 5.0349 189.196C6.09708 189.63 5.8691 189.561 6.6774 190.297C4.4494 191.041 5.50468 191.455 3.92435 190.828ZM6.80175 3.05154C6.73958 3.01018 6.66358 2.97572 6.58068 2.93436C6.5116 2.6793 6.44251 2.43115 6.38033 2.18471C6.4356 2.10199 6.47705 2.01238 6.5185 1.92966C6.69813 2.12267 6.87775 2.32947 7.07119 2.52248C6.97447 2.70171 6.89847 2.87404 6.80175 3.05154ZM17.2595 2.00549C17.3839 1.95723 17.5013 1.90209 17.605 1.86073C17.7293 2.01927 17.833 2.17782 17.9418 2.34326C17.6602 2.31568 17.4046 2.3019 17.1214 2.26743C17.1697 2.17782 17.2181 2.10199 17.2595 2.00549ZM14.0661 0.46484C14.1559 0.92669 14.2388 1.38682 14.3286 1.83488C14.1697 1.86073 14.0108 1.89519 13.8726 1.92277C13.4719 1.53157 13.0799 1.12487 12.6861 0.725061C13.1559 0.649235 13.6101 0.559623 14.0661 0.46484ZM9.76724 2.21918C9.80869 2.13646 9.86396 2.04685 9.91232 1.96413C10.1265 2.07442 10.3476 2.18471 10.5876 2.3019C10.3199 2.26743 10.0436 2.24675 9.76724 2.21918ZM10.7897 0.759528C10.8864 0.924966 10.997 1.08351 11.1075 1.24206C11.769 1.65565 11.7275 1.76595 12.4391 2.55006C11.4236 3.32038 12.0315 2.87921 10.9123 2.78443C11.313 1.46264 10.4512 2.63967 10.7897 0.759528ZM12.5272 193.437C12.0367 193.361 11.541 193.306 11.0574 193.251C11.1127 192.761 11.1818 192.274 11.2439 191.784C11.7137 191.695 12.168 191.605 12.617 191.515C12.6585 191.66 12.6723 191.826 12.7206 191.97C12.6516 192.453 12.5756 192.956 12.5272 193.437ZM13.845 2.59831C14.3701 2.86715 14.8865 3.12909 15.4253 3.38242C14.7569 3.38931 14.1006 3.38242 13.4391 3.38931C13.5756 3.12047 13.7068 2.86542 13.845 2.59831ZM13.4927 4.4009C13.5479 4.31129 13.6032 4.22857 13.6377 4.13206C13.7621 4.0907 13.8726 4.03556 13.9901 3.9873C14.0937 4.15274 14.2042 4.31818 14.3217 4.47673C14.0523 4.44915 13.769 4.42158 13.4927 4.4009ZM14.5065 209.708C14.6032 209.474 14.6999 209.24 14.7897 209C15.2664 209.633 15.0937 209.221 15.2043 209.991C14.9694 209.895 14.7345 209.805 14.5065 209.708ZM14.6378 189.706C14.5479 189.251 14.465 188.791 14.3821 188.336C14.6516 188.122 14.9348 187.908 15.2025 187.703C15.4391 189.301 16.2181 188.338 14.6378 189.706ZM15.0385 5.5021C14.8312 5.22637 14.6308 4.95064 14.4046 4.67663C14.8675 4.58702 15.3286 4.5043 15.7846 4.40779C15.5272 4.78003 15.2803 5.13848 15.0385 5.5021ZM16.9832 3.23077C16.5773 2.83268 16.1904 2.43287 15.7967 2.03306C16.8934 2.67413 16.1214 1.97791 16.9832 3.23077ZM16.921 3.8098C16.9625 3.89252 16.997 3.96145 17.0385 4.04245C17.3977 4.06313 16.9763 3.92009 17.7984 4.97304C17.6395 4.99372 17.4944 5.02819 17.3355 5.06265C16.9418 4.66284 16.5497 4.26993 16.149 3.86495C16.5842 3.98903 16.8174 4.0166 16.9625 4.03039C16.9418 3.95456 16.9279 3.9132 16.921 3.8098ZM17.7639 211.037C17.377 211.065 17.0195 211.099 16.6395 211.12C16.7017 210.782 16.75 210.432 16.7984 210.095C17.5359 210.281 17.3701 210.219 17.8606 210.803C17.826 210.885 17.7984 210.954 17.7639 211.037ZM16.2803 193.182C16.7362 193.092 17.2043 193.01 17.6464 192.92C17.7708 193.532 17.8882 194.138 17.9988 194.75C16.7552 194.161 17.149 194.428 16.2803 193.182ZM17.2112 188.749C17.5773 188.991 17.9418 189.246 18.301 189.485C17.3148 189.018 18.0178 189.508 17.2112 188.749ZM20.4185 211.849C20.1905 211.766 19.9556 211.656 19.7224 211.566C20.3839 211.125 19.8606 211.256 20.5014 211.621C20.4737 211.697 20.4461 211.773 20.4185 211.849ZM22.1439 212.29C21.9159 212.187 21.681 212.097 21.4409 212C21.7104 212.021 21.9729 212.042 22.2406 212.063C22.1991 212.138 22.1853 212.214 22.1439 212.29ZM22.2959 211.265C21.9781 211.134 21.6758 210.996 21.3649 210.886C20.6482 210.246 20.5376 210.493 19.5998 209.881C20.2406 209.66 21.3442 210.377 22.5791 210.555C22.4807 210.796 22.3857 211.03 22.2959 211.265ZM22.8399 211.216C23.5083 210.775 22.9919 210.913 23.6396 211.265C23.5014 211.389 23.3563 211.52 23.2112 211.644C23.0817 211.499 22.9712 211.361 22.8399 211.216ZM24.1784 213.95C23.8676 213.819 23.5584 213.695 23.2475 213.564C23.3581 213.329 23.434 213.095 23.5308 212.855C23.8555 212.986 24.1508 213.11 24.4686 213.248C24.365 213.474 24.289 213.701 24.1784 213.95ZM24.0195 211.697C24.0748 211.539 24.1439 211.38 24.1992 211.228C24.289 211.442 24.3926 211.663 24.4824 211.888C24.3235 211.814 24.1784 211.752 24.0195 211.697ZM24.1439 4.11138C24.4064 4.13896 24.6897 4.16653 24.9712 4.18032C24.2406 4.73178 24.7518 4.64906 24.1439 4.11138ZM26.1992 212.318C25.9298 212.111 25.6465 211.904 25.3581 211.699C25.6759 211.837 25.9919 211.961 26.2959 212.092C26.2683 212.173 26.2406 212.235 26.1992 212.318ZM28.1042 105.586C28.194 105.248 28.2907 104.919 28.3875 104.581C28.6914 104.519 29.0006 104.464 29.3046 104.402C28.897 104.8 28.5032 105.186 28.1042 105.586ZM31.0766 208.332C30.8141 208.318 30.5585 208.297 30.2839 208.283C30.9177 207.796 30.4428 207.865 31.0766 208.332ZM30.3529 212.111C30.3253 212.194 30.2977 212.262 30.2562 212.338C30.0697 212.173 29.8624 212 29.6621 211.828C30.4013 211.683 29.7933 211.616 30.3529 212.111ZM30.7243 213.894C30.4963 213.798 30.2545 213.708 30.0213 213.612C30.5602 213.302 30.6068 213.371 31.2424 213.295C31.0628 213.501 30.8901 213.701 30.7243 213.894ZM31.6777 0.966326C31.6017 0.725061 31.5395 0.47001 31.4842 0.223576C31.6362 0.306295 31.7744 0.375228 31.9402 0.451054C31.8279 0.614769 31.7467 0.800887 31.6777 0.966326ZM32.2493 0.938753C32.4082 0.800887 32.5879 0.663022 32.7467 0.525156C32.8435 0.683702 32.9609 0.856033 33.0714 1.00769C32.3184 1.49711 32.8711 1.35924 32.2493 0.938753ZM33.8504 213.543C33.9057 213.391 33.9747 213.233 34.03 213.081C34.106 213.377 34.1682 213.672 34.2165 213.969C34.0922 213.825 33.9747 213.688 33.8504 213.543ZM35.5084 2.54489C34.8884 2.36566 34.1336 1.92277 33.277 1.76422C33.3875 1.50228 33.5188 1.23344 33.6708 0.980112C33.954 1.12487 34.2701 1.28342 34.5602 1.42818C34.9713 1.87279 35.1958 1.94689 35.5084 2.10199V2.54489ZM51.7538 188.749C52.12 188.991 52.4844 189.246 52.8437 189.485C51.8575 189.018 52.5604 189.508 51.7538 188.749ZM54.9611 211.849C54.7332 211.766 54.4983 211.656 54.2651 211.566C54.9266 211.125 54.4033 211.256 55.044 211.621C55.0164 211.697 54.9888 211.773 54.9611 211.849ZM56.6865 212.29C56.4586 212.187 56.2237 212.097 55.9836 212C56.253 212.021 56.5156 212.042 56.7833 212.063C56.7418 212.138 56.728 212.214 56.6865 212.29ZM57.7556 211.644C57.6244 211.499 57.5138 211.361 57.3826 211.216C58.051 210.775 57.5346 210.913 58.1822 211.265C58.0458 211.389 57.9007 211.52 57.7556 211.644ZM60.7418 212.318C60.4724 212.111 60.1892 211.904 59.9007 211.699C60.2185 211.837 60.5346 211.961 60.8386 212.092C60.8109 212.173 60.7833 212.235 60.7418 212.318ZM64.8835 201.852V202.126C64.8662 202.038 64.8524 201.95 64.8334 201.862C64.8507 201.859 64.8662 201.855 64.8835 201.852ZM64.8956 212.111C64.868 212.194 64.8403 212.262 64.7989 212.338C64.6124 212.173 64.4051 212 64.2048 211.828C64.944 211.683 64.336 211.616 64.8956 212.111ZM64.8973 213.744C64.7851 213.7 64.6745 213.657 64.564 213.61C64.7004 213.531 64.8058 213.477 64.8973 213.439V213.744ZM64.8265 208.283C64.8542 208.263 64.868 208.249 64.8904 208.23V208.256C65.1771 208.271 65.1719 208.225 65.2013 208.306C65.077 208.299 64.9561 208.29 64.8265 208.283ZM78.514 209.75C78.4795 209.736 78.445 209.722 78.4104 209.708C78.4501 209.614 78.4864 209.515 78.5261 209.419C78.5054 209.569 78.5002 209.679 78.514 209.75ZM78.913 209.695C78.9666 209.7 79.0201 209.702 79.0736 209.707C79.0754 209.726 79.0771 209.741 79.0788 209.764C79.0236 209.741 78.9683 209.717 78.913 209.695ZM80.9269 210.782C80.8094 210.806 80.6989 210.829 80.5832 210.853C80.5987 210.758 80.6125 210.663 80.6281 210.568C80.711 210.572 80.8215 210.572 81.0029 210.556C80.9821 210.63 80.9545 210.706 80.9269 210.782ZM81.6678 211.037C81.4934 211.049 81.3276 211.061 81.16 211.075C81.1531 211.013 81.1514 210.948 81.141 210.887C81.2101 210.736 81.2654 210.577 81.3276 210.418C81.4295 210.486 81.5106 210.537 81.5883 210.587C81.6402 210.653 81.6833 210.708 81.7645 210.805C81.73 210.885 81.7023 210.954 81.6678 211.037ZM82.1341 189.454V189.439C82.1583 189.454 82.1825 189.472 82.2049 189.487C82.1756 189.472 82.16 189.466 82.1341 189.454ZM82.6402 196.039C82.578 195.729 82.5089 195.427 82.4536 195.124C82.7576 195.062 83.0737 195 83.3846 194.952C82.9027 195.956 83.3777 195.234 82.6402 196.039ZM84.3224 211.849C84.0944 211.766 83.8595 211.656 83.6264 211.566C84.2879 211.125 83.7645 211.256 84.4053 211.621C84.3777 211.697 84.35 211.773 84.3224 211.849ZM86.0478 212.29C85.8198 212.187 85.5849 212.097 85.3449 212C85.6143 212.021 85.8768 212.042 86.1445 212.063C86.1031 212.138 86.0893 212.214 86.0478 212.29ZM87.1169 211.644C86.9856 211.499 86.8751 211.361 86.7438 211.216C87.4122 210.775 86.8958 210.913 87.5435 211.265C87.4071 211.389 87.262 211.52 87.1169 211.644ZM87.9235 211.697C87.9787 211.539 88.0478 211.38 88.1031 211.228C88.1929 211.442 88.2965 211.663 88.3863 211.888C88.2274 211.814 88.0824 211.752 87.9235 211.697ZM90.1031 212.318C89.8337 212.111 89.5504 211.904 89.262 211.699C89.5798 211.837 89.8959 211.961 90.1998 212.092C90.1722 212.173 90.1446 212.235 90.1031 212.318ZM94.9805 208.332C94.718 208.318 94.4624 208.297 94.1878 208.283C94.8216 207.796 94.3467 207.865 94.9805 208.332ZM94.2569 212.111C94.2292 212.194 94.2016 212.262 94.1602 212.338C93.9736 212.173 93.7664 212 93.566 211.828C94.3052 211.683 93.6973 211.616 94.2569 212.111ZM94.6282 213.894C94.4002 213.798 94.1584 213.708 93.9253 213.612C94.4641 213.302 94.5108 213.371 95.1463 213.295C94.9667 213.501 94.794 213.701 94.6282 213.894ZM97.7543 213.543C97.8096 213.391 97.8787 213.233 97.9339 213.081C98.0099 213.377 98.0721 213.672 98.1205 213.969C97.9961 213.825 97.8787 213.688 97.7543 213.543ZM101.167 213.026C101.036 212.976 100.899 212.926 100.734 212.867C100.875 212.652 101.022 212.438 101.167 212.223V213.026ZM117.385 188.749C117.751 188.991 118.115 189.246 118.475 189.485C117.489 189.018 118.191 189.508 117.385 188.749ZM118.91 196.039C118.848 195.729 118.779 195.427 118.723 195.124C119.027 195.062 119.343 195 119.654 194.952C119.172 195.956 119.647 195.234 118.91 196.039ZM120.592 211.849C120.364 211.766 120.129 211.656 119.896 211.566C120.558 211.125 120.034 211.256 120.675 211.621C120.647 211.697 120.62 211.773 120.592 211.849ZM122.318 212.29C122.09 212.187 121.855 212.097 121.615 212C121.884 212.021 122.147 212.042 122.414 212.063C122.373 212.138 122.359 212.214 122.318 212.29ZM123.387 211.644C123.255 211.499 123.145 211.361 123.014 211.216C123.682 210.775 123.166 210.913 123.813 211.265C123.677 211.389 123.532 211.52 123.387 211.644ZM126.618 209.729C126.62 209.724 126.622 209.721 126.623 209.715C126.641 209.736 126.654 209.757 126.672 209.777C126.654 209.76 126.635 209.745 126.618 209.729ZM131.867 0.935306C131.858 0.928413 131.844 0.918073 131.838 0.91118C131.768 0.687148 131.71 0.452777 131.658 0.223576C131.81 0.306295 131.948 0.375228 132.114 0.451054C132.009 0.606152 131.933 0.778484 131.867 0.935306ZM132.423 0.938753C132.542 0.835354 132.67 0.731955 132.794 0.630279C132.793 0.652682 132.793 0.675085 132.789 0.697488C132.907 0.744018 133.012 0.790547 133.126 0.83363C133.14 0.85431 133.154 0.87499 133.169 0.897393C133.157 0.933583 133.15 0.955986 133.135 1.00079C133.164 0.993899 133.197 0.988729 133.226 0.983559C133.231 0.992176 133.237 1.00079 133.243 1.00769C132.492 1.49711 133.045 1.35924 132.423 0.938753ZM134.25 1.99342C134.256 1.98481 134.261 1.97447 134.266 1.96413C134.363 2.0141 134.471 2.06753 134.573 2.1175C134.468 2.07442 134.361 2.03306 134.25 1.99342ZM135.352 2.43459C135.439 1.94689 135.195 2.08131 135.102 1.7625C135.489 2.05719 135.736 2.02444 136.425 2.58452C136.123 2.6862 135.76 2.59142 135.352 2.43459ZM138.515 1.8659C138.466 1.78663 138.421 1.70908 138.342 1.585C138.397 1.48849 138.439 1.41267 138.487 1.32305C138.52 1.32133 138.551 1.31961 138.584 1.31616C138.617 1.48849 138.649 1.66255 138.682 1.83143C138.623 1.8435 138.572 1.85556 138.515 1.8659ZM140.981 2.87059C140.981 2.81545 140.981 2.74479 140.979 2.66724C141.048 2.7896 141.15 2.95848 141.339 3.23077C141.214 3.11186 141.1 2.99123 140.981 2.87059ZM143.952 209.881C144.021 209.857 144.114 209.879 144.193 209.876C144.263 209.962 144.371 209.993 144.451 210.165C144.311 210.096 144.157 210.015 143.952 209.881ZM143.667 2.18127C143.411 1.74699 143.169 1.32822 142.943 0.893947C143.454 1.10764 143.964 1.32822 144.489 1.54019C144.206 1.7625 143.936 1.97447 143.667 2.18127ZM146.558 210.782C146.307 210.832 146.071 210.882 145.831 210.932C145.798 210.92 145.767 210.904 145.734 210.892C146.33 210.341 145.686 210.641 146.634 210.555C146.613 210.63 146.586 210.706 146.558 210.782ZM146.777 210.942C146.776 210.923 146.774 210.904 146.772 210.886C146.822 210.777 146.864 210.663 146.907 210.549C146.915 210.551 146.924 210.555 146.933 210.556C146.879 210.687 146.829 210.813 146.777 210.942ZM156.195 202.515C155.76 202.757 155.34 202.998 154.905 203.231C154.822 202.776 154.746 202.322 154.643 201.86C155.106 201.771 155.567 201.688 156.023 201.592C156.093 201.904 156.14 202.207 156.195 202.515ZM155.43 208.332C155.168 208.318 154.912 208.297 154.637 208.283C155.271 207.796 154.796 207.865 155.43 208.332ZM147.617 211.599C147.58 211.592 147.544 211.585 147.51 211.578C147.402 211.458 147.306 211.339 147.193 211.216C147.862 210.775 147.345 210.913 147.993 211.265C147.872 211.373 147.744 211.489 147.617 211.599ZM148.532 213.95C148.278 213.843 148.026 213.739 147.772 213.634V213.134C147.807 213.041 147.846 212.95 147.884 212.854C148.209 212.985 148.504 213.109 148.822 213.246C148.719 213.474 148.643 213.701 148.532 213.95ZM148.373 211.697C148.428 211.539 148.497 211.38 148.553 211.228C148.643 211.442 148.746 211.663 148.836 211.888C148.677 211.814 148.532 211.752 148.373 211.697ZM150.553 212.318C150.283 212.111 150 211.904 149.712 211.699C150.029 211.837 150.346 211.961 150.649 212.092C150.622 212.173 150.594 212.235 150.553 212.318ZM152.237 212.193C151.725 211.883 151.216 211.587 150.698 211.285C150.836 210.35 150.905 210.817 150.622 210.163C150.712 209.929 150.795 209.702 150.905 209.462C151.553 209.91 152.175 210.356 152.802 210.791C152.601 211.073 152.394 211.356 152.194 211.637C152.209 211.821 152.223 212.007 152.237 212.193ZM154.852 189.384C154.568 189.604 154.299 189.818 154.031 190.023C153.776 189.589 153.534 189.17 153.308 188.736C153.815 188.949 154.327 189.17 154.852 189.384ZM154.707 212.111C154.679 212.194 154.651 212.262 154.61 212.338C154.423 212.173 154.216 212 154.016 211.828C154.755 211.683 154.147 211.616 154.707 212.111ZM155.078 213.894C154.85 213.798 154.608 213.708 154.375 213.612C154.914 213.302 154.96 213.371 155.596 213.295C155.416 213.501 155.244 213.701 155.078 213.894ZM158.204 213.543C158.259 213.391 158.328 213.233 158.384 213.081C158.46 213.377 158.522 213.672 158.57 213.969C158.446 213.825 158.328 213.688 158.204 213.543ZM154.845 212.442C155.28 212.007 157.439 211.52 158.024 211.299C158.99 212.207 159.211 211.251 159.688 212.524C158.121 212.138 157.017 213.019 154.845 212.442ZM157.631 1.76422C157.741 1.50228 157.872 1.23344 158.024 0.980112C158.308 1.12487 158.624 1.28342 158.914 1.42818C159.575 2.14335 159.72 1.86934 160.605 2.58452C159.893 2.82579 158.865 1.9917 157.631 1.76422ZM159.893 0.607876C159.948 0.518263 159.99 0.435544 160.031 0.339038C160.252 0.44933 160.473 0.566516 160.7 0.676808C159.976 1.17312 160.522 1.03526 159.893 0.607876ZM170.123 175.885C170.081 176.161 170.033 176.409 169.992 176.669C169.902 176.621 169.819 176.579 169.736 176.531C169.862 176.333 169.993 176.099 170.123 175.885ZM166.743 169.471C167.259 168.425 167.192 169.161 167.144 168.225C167.482 168.239 167.819 168.232 168.157 168.245C168.662 169.209 167.992 169.374 166.743 169.471ZM167.489 171.087C167.282 170.873 167.068 170.653 166.869 170.427C167.007 170.213 167.132 169.986 167.256 169.774C167.544 170.386 167.475 170.441 167.489 171.087ZM168.289 167.441C168.199 167.385 168.123 167.33 168.033 167.303C167.95 167.041 167.874 166.8 167.784 166.553C167.881 166.408 167.95 166.264 168.047 166.119C168.289 166.264 168.544 166.422 168.798 166.56C168.62 166.855 168.455 167.158 168.289 167.441C168.448 167.544 168.627 167.627 168.786 167.751C168.22 167.694 168.607 167.901 168.289 167.441ZM168.772 169.498C168.945 169.402 169.118 169.305 169.284 169.209C169.449 169.312 169.622 169.402 169.795 169.505C169.448 169.512 169.109 169.505 168.772 169.498ZM170.282 170.986C170.874 169.429 169.985 168.101 170.835 166.002C171.277 166.539 171.613 168.866 171.821 169.519C170.717 170.31 171.752 170.758 170.282 170.986ZM171.593 165.278C171.683 166.069 171.814 165.457 171.206 165.931C171.123 165.876 171.033 165.834 170.95 165.786C171.166 165.623 171.385 165.45 171.593 165.278ZM170.254 158.305C170.496 158.457 170.752 158.602 171.005 158.76C170.833 159.043 170.667 159.339 170.494 159.627C170.239 159.489 169.99 159.331 169.729 159.179C169.904 158.891 170.083 158.588 170.254 158.305ZM169.565 165.252C169.855 165.878 169.779 165.905 169.807 166.581C169.6 166.353 169.385 166.133 169.18 165.907C169.303 165.691 169.434 165.471 169.565 165.252ZM169.171 166.496C168.86 165.912 169.033 166.386 168.929 165.767C169.012 166.015 169.095 166.257 169.171 166.496ZM168.392 151.045C168.558 151.155 168.731 151.245 168.897 151.348C168 151.865 168.883 151.672 167.758 151.555C167.971 151.388 168.185 151.217 168.392 151.045ZM167.745 153.901C167.71 153.57 167.669 153.261 167.62 152.937C167.909 153.647 167.798 153.054 167.745 153.901ZM167.033 164.935C167.468 165.712 167.372 165.156 166.895 165.754C166.819 165.691 166.729 165.643 166.639 165.602C166.777 165.388 166.902 165.169 167.033 164.935ZM165.157 2.55695C165.392 2.66724 165.606 2.77753 165.847 2.89472C165.701 3.15666 165.577 3.41171 165.439 3.67883C165.054 2.95504 165.185 3.43756 165.157 2.55695ZM166.18 8.52653C166.304 9.1383 166.422 9.74491 166.532 10.3567C165.29 9.76387 165.684 10.0327 164.814 8.78675C165.268 8.69713 165.738 8.61614 166.18 8.52653ZM164.66 74.2642C164.121 75.2345 164.639 74.54 163.84 75.2896C164.116 74.9656 164.384 74.602 164.66 74.2642ZM162.321 210.074C162.218 210.115 162.107 210.17 161.997 210.212C161.886 210.074 161.755 209.922 161.631 209.777C161.9 209.805 162.156 209.819 162.423 209.839C162.397 209.915 162.349 209.991 162.321 210.074ZM161.929 207.727C162.213 207.982 162.213 207.72 162.427 208.476C162.266 208.228 162.087 207.975 161.929 207.727ZM162.522 1.58672C162.577 1.49021 162.619 1.41439 162.667 1.32478C163.061 1.2972 163.439 1.26963 163.833 1.24895C163.729 1.62808 163.639 2.01927 163.529 2.4053C162.791 2.17782 162.95 2.26054 162.522 1.58672ZM164.102 211.051C164.068 211.141 164.04 211.223 163.992 211.292C163.764 211.196 163.536 211.106 163.296 211.01C163.406 210.775 163.482 210.541 163.593 210.308C163.75 210.562 163.923 210.81 164.102 211.051ZM163.287 212.373C163.46 212.173 163.646 211.966 163.812 211.768C163.86 212.071 163.929 212.359 163.999 212.662C163.757 212.559 163.529 212.462 163.287 212.373ZM164.701 211.582C164.19 211.899 164.619 211.713 164.04 211.864C164.273 211.773 164.487 211.671 164.701 211.582ZM165.109 212.573C164.874 212.476 164.646 212.38 164.42 212.283C164.682 212.304 164.945 212.318 165.199 212.338C165.164 212.414 165.144 212.49 165.109 212.573ZM165.549 209.488C165.011 209.26 164.467 209.04 163.921 208.814C164.555 208.807 165.19 208.793 165.831 208.78C165.743 209.021 165.646 209.248 165.549 209.488ZM164.86 207.844C165.13 207.858 165.385 207.871 165.646 207.899C165.619 207.975 165.591 208.044 165.563 208.126C165.453 208.175 165.342 208.216 165.232 208.271C165.102 208.126 164.985 207.989 164.86 207.844ZM166.701 212.669C166.549 212.614 166.384 212.552 166.239 212.483C166.328 212.249 166.411 212.014 166.515 211.775C166.75 211.878 166.978 211.968 167.211 212.064C167.04 212.269 166.874 212.476 166.701 212.669ZM168.289 212.779C168.344 212.628 168.42 212.462 168.475 212.311C168.53 212.614 168.6 212.91 168.662 213.205C168.537 213.06 168.406 212.922 168.289 212.779ZM168.717 211.051C168.593 210.906 168.461 210.768 168.337 210.624C167.648 210.286 167.689 210.182 166.895 209.495C167.805 208.807 167.261 209.205 168.358 209.267C168.13 210.439 168.807 209.391 168.717 211.051ZM169.496 212.462C169.261 212.366 169.033 212.276 168.786 212.173C169.461 211.739 168.931 211.863 169.586 212.228C169.565 212.311 169.537 212.38 169.496 212.462ZM168.724 209.695C168.986 209.722 169.249 209.729 169.503 209.75C169.475 209.833 169.441 209.908 169.427 209.984C169.185 209.888 168.957 209.791 168.724 209.695ZM170.738 210.782C170.427 210.844 170.13 210.906 169.834 210.968C170.593 210.301 169.821 210.644 170.814 210.555C170.793 210.63 170.765 210.706 170.738 210.782ZM170.123 192.894C170.088 192.584 170.047 192.282 170.005 191.965C170.337 192.075 170.66 192.2 170.999 192.317C170.703 192.508 170.413 192.708 170.123 192.894Z" fill="url(#paint0_linear)"/>
<g opacity="0.13">
<path d="M156.156 104.282C156.156 104.282 152.947 104.943 149.832 103.811C156.063 99.662 156.156 95.0425 156.156 95.0425C156.156 95.0425 151.437 95.8915 148.794 94.4768C154.834 89.2915 155.213 81.4651 155.213 81.4651C155.213 81.4651 152.664 82.5966 148.604 82.7857C154.834 75.8083 152.098 69.3966 152.098 69.3966C152.098 69.3966 147.943 72.3196 142.658 74.3935C146.717 63.9281 144.734 56.8573 144.734 56.8573C144.734 56.8573 140.108 62.0425 136.522 63.9281C138.503 51.8604 135.199 46.4861 135.199 46.4861C135.199 46.4861 134.161 50.1639 129.724 53.2744C129.251 40.4518 126.515 39.6977 126.515 39.6977C126.515 39.6977 125.287 42.9024 123.492 44.9771C122.738 32.6261 119.622 32.2487 119.622 32.2487C119.622 32.2487 119.528 34.3234 118.3 37.9055C118.111 30.1748 112.919 25.8378 113.108 27.1577C113.297 28.4775 112.447 41.0176 112.447 41.0176C112.447 41.0176 154.609 114.863 128.764 119.568C121.361 120.915 108.383 116.593 87.241 103.244C87.6191 107.204 88.6572 124.836 93.9433 134.075C99.2309 143.316 106.782 146.898 106.782 146.898C106.782 146.898 111.314 144.824 110.464 144.352C109.615 143.881 108.293 141.9 109.898 142.749C111.503 143.597 111.408 143.316 111.408 143.316L113.202 141.806L115.563 142.089C115.563 142.089 132.177 142.467 129.912 141.053C127.648 139.639 121.983 135.773 121.983 135.773C121.983 135.773 109.805 135.396 126.137 135.678C142.469 135.962 149.55 124.271 149.55 124.271C149.55 124.271 147.378 124.458 145.113 123.328C154.458 119.555 152.666 116.351 152.666 116.351C152.666 116.351 147.474 116.634 145.868 115.125C157.006 110.882 156.156 104.282 156.156 104.282Z" fill="#1E2A31"/>
<path d="M44.1289 119.573C18.2821 114.869 60.4447 41.0237 60.4447 41.0237C60.4447 41.0237 59.5949 28.4837 59.7833 27.1638C59.9723 25.844 54.7797 30.1809 54.5914 37.9117C53.3642 34.3296 53.27 32.2549 53.27 32.2549C53.27 32.2549 50.1543 32.6323 49.3987 44.9833C47.605 42.9086 46.3779 39.7039 46.3779 39.7039C46.3779 39.7039 43.6403 40.458 43.168 53.2806C38.7316 50.17 37.6928 46.4922 37.6928 46.4922C37.6928 46.4922 34.388 51.8666 36.3707 63.9343C32.7834 62.0479 28.158 56.8627 28.158 56.8627C28.158 56.8627 26.1753 63.9335 30.2349 74.3989C24.9481 72.325 20.7943 69.402 20.7943 69.402C20.7943 69.402 18.0567 75.813 24.2874 82.7911C20.227 82.602 17.6793 81.4705 17.6793 81.4705C17.6793 81.4705 18.0567 89.2969 24.0983 94.4822C21.4557 95.8962 16.7346 95.0479 16.7346 95.0479C16.7346 95.0479 16.8295 99.6674 23.0595 103.817C19.9438 104.948 16.7346 104.288 16.7346 104.288C16.7346 104.288 15.8849 110.888 27.025 115.13C25.4197 116.639 20.227 116.356 20.227 116.356C20.227 116.356 18.4341 119.561 27.7806 123.334C25.5146 124.464 23.3435 124.276 23.3435 124.276C23.3435 124.276 30.424 135.967 46.756 135.684C63.0888 135.401 50.9099 135.778 50.9099 135.778C50.9099 135.778 45.2456 139.644 42.9811 141.058C40.7144 142.472 57.3304 142.095 57.3304 142.095L59.6913 141.811L61.4842 143.321C61.4842 143.321 61.3908 143.603 62.9954 142.755C64.6 141.906 63.2786 143.886 62.4289 144.357C61.5792 144.829 66.1104 146.903 66.1104 146.903C66.1104 146.903 73.6639 143.321 78.95 134.081C84.2368 124.841 85.2749 107.21 85.6523 103.25C64.5088 116.599 51.5305 120.921 44.1289 119.573Z" fill="#1E2A31"/>
<path d="M58.8286 102.091C58.6403 107.182 58.4512 114.725 58.1672 116.233C57.884 117.742 55.9961 119.91 52.6921 118.591C48.255 117.082 45.2334 110.954 46.9329 94.1711C51.3692 69.7516 68.7928 31.8675 68.7928 31.8675C68.7928 31.8675 62.2269 30.2466 61.1873 40.052C59.9609 40.3353 59.4885 38.7329 59.4885 38.7329C59.4885 38.7329 57.5058 40.7127 57.8832 46.8418C55.9005 47.7843 55.5231 43.3531 55.5231 43.3531C55.5231 43.3531 53.1629 46.1812 53.8243 54.95C52.219 54.6675 51.3685 51.273 51.3685 51.273C51.3685 51.273 48.0652 52.8761 48.7258 65.887C45.8933 64.0956 43.9113 59.8528 43.9113 59.8528C43.9113 59.8528 40.7956 64.6613 44.1946 75.2216C40.5123 72.2045 38.6245 70.413 38.6245 70.413C38.6245 70.413 34.9423 76.4473 41.4563 87.6668C36.4527 83.5189 33.0537 80.4076 33.0537 80.4076C33.0537 80.4076 31.3549 84.273 36.3585 93.5127C31.7331 90.873 27.1062 87.6668 27.1062 87.6668C27.1062 87.6668 25.7849 93.7017 33.9034 100.962C30.7885 100.301 26.0681 99.1702 26.0681 99.1702C26.0681 99.1702 26.3514 104.45 32.0156 108.127C27.012 108.787 25.2184 108.598 25.2184 108.598C25.2184 108.598 29.7489 115.953 36.641 117.932C30.5986 120.007 29.3715 120.385 29.3715 120.385C29.3715 120.385 30.0321 123.685 43.6273 123.59C43.9106 124.627 31.4484 126.701 31.4484 126.701C31.4484 126.701 33.6202 131.32 51.6517 130.001C51.4619 131.415 45.421 134.433 45.421 134.433C45.421 134.433 55.6165 134.622 55.8997 134.622C56.183 134.622 76.2922 111.522 76.2922 111.522L68.7386 105.77C68.7409 105.768 65.9091 102.091 58.8286 102.091Z" fill="#1E2A31"/>
<path d="M148.295 108.593C148.295 108.593 146.501 108.782 141.497 108.122C147.162 104.444 147.445 99.1648 147.445 99.1648C147.445 99.1648 142.725 100.296 139.609 100.956C147.729 93.6963 146.406 87.6613 146.406 87.6613C146.406 87.6613 141.781 90.8675 137.155 93.5073C142.158 84.2676 140.46 80.4022 140.46 80.4022C140.46 80.4022 137.06 83.5135 132.058 87.6613C138.571 76.4419 134.89 70.4076 134.89 70.4076C134.89 70.4076 133 72.1991 129.32 75.2162C132.717 64.6566 129.601 59.8473 129.601 59.8473C129.601 59.8473 127.62 64.0901 124.787 65.8816C125.448 52.8707 122.144 51.2676 122.144 51.2676C122.144 51.2676 121.294 54.6621 119.689 54.9446C120.35 46.1765 117.99 43.3477 117.99 43.3477C117.99 43.3477 117.613 47.7788 115.629 46.8364C116.008 40.7073 114.024 38.7275 114.024 38.7275C114.024 38.7275 113.553 40.3298 112.325 40.0466C111.287 30.2411 104.719 31.862 104.719 31.862C104.719 31.862 122.143 69.747 126.58 94.1657C128.279 110.949 125.258 117.076 120.821 118.585C117.517 119.905 115.629 117.736 115.345 116.228C115.062 114.72 114.873 107.177 114.684 102.086C107.604 102.086 104.771 105.763 104.771 105.763L97.219 111.514C97.219 111.514 117.327 134.614 117.611 134.614C117.894 134.614 128.089 134.426 128.089 134.426C128.089 134.426 122.049 131.408 121.859 129.994C139.892 131.313 142.062 126.693 142.062 126.693C142.062 126.693 129.6 124.619 129.885 123.582C143.478 123.677 144.14 120.377 144.14 120.377C144.14 120.377 142.912 119.999 136.869 117.924C143.765 115.948 148.295 108.593 148.295 108.593Z" fill="#1E2A31"/>
<path d="M54.6318 168.787C54.6424 168.769 54.6522 168.751 54.662 168.733C54.6642 168.697 54.6665 168.665 54.6688 168.63C54.665 168.659 54.662 168.684 54.662 168.684C54.662 168.684 54.6499 168.727 54.6318 168.787Z" fill="#8D9BA4"/>
<path d="M50.6616 172.315C50.1507 172.422 49.582 172.477 48.9391 172.455C49.5093 172.496 50.0884 172.457 50.6616 172.315Z" fill="#8D9BA4"/>
<path d="M53.9997 138.088C52.0162 142.52 49.6583 148.978 48.902 172.451C48.902 172.452 48.9264 172.455 48.939 172.455C49.5819 172.477 50.1506 172.422 50.6615 172.315C53.606 171.702 54.409 168.479 54.409 168.479C54.409 168.479 54.346 152.514 58.9558 143.462C65.6122 130.389 86.3813 105.278 86.3813 105.278L86.1715 104.987L82.4166 99.8094C82.4158 99.8094 55.9825 133.657 53.9997 138.088Z" fill="#1E2A31"/>
<path d="M118.347 168.63C118.35 168.665 118.351 168.697 118.354 168.733C118.363 168.751 118.373 168.769 118.382 168.787C118.365 168.727 118.354 168.684 118.354 168.684C118.354 168.684 118.351 168.659 118.347 168.63Z" fill="#8D9BA4"/>
<path d="M124.074 172.454C123.433 172.476 122.863 172.421 122.353 172.314C122.925 172.457 123.504 172.495 124.074 172.454Z" fill="#8D9BA4"/>
<path d="M128.173 146.951C126.409 134.757 116.969 123.223 116.969 123.223L95.2246 94.1518L99.7232 84.2514L98.6228 54.8358L95.3195 52.4778C95.3195 52.4778 87.2484 77.0515 87.766 77.0864C89.1815 77.1806 90.221 78.123 90.221 80.4809C90.221 83.7806 86.5084 83.7494 86.5084 83.7494V83.7806H86.5069L86.5084 83.7494C86.5084 83.7494 82.7935 83.7806 82.7935 80.4809C82.7935 78.123 83.8316 77.1806 85.2486 77.0864C85.7676 77.0515 77.6958 52.4778 77.6958 52.4778L74.3917 54.8358L73.2906 84.2514L77.79 94.1518L56.0458 123.223C56.0458 123.223 46.6059 134.757 44.8426 146.951C43.0808 159.144 43.4901 165.714 43.5213 168.447C43.5398 170.025 46.0831 172.227 48.903 172.45C49.6593 148.977 52.0173 142.519 54.0007 138.087C55.9835 133.656 82.4169 99.8086 82.4169 99.8086L86.1718 104.986C86.3023 104.836 86.3816 104.742 86.3816 104.742V104.711H86.6337V104.742C86.6337 104.742 86.7145 104.836 86.8428 104.986L90.5977 99.8086C90.5977 99.8086 117.033 133.656 119.014 138.087C120.997 142.519 123.357 148.977 124.112 172.45C126.931 172.226 129.475 170.025 129.493 168.447C129.525 165.714 129.934 159.144 128.173 146.951Z" fill="#1E2A31"/>
<path d="M90.5985 99.8094L86.8436 104.987L86.6345 105.278C86.6345 105.278 107.404 130.389 114.059 143.462C118.668 152.514 118.605 168.479 118.605 168.479C118.605 168.479 119.409 171.702 122.354 172.315C122.864 172.422 123.433 172.477 124.075 172.455C124.089 172.455 124.114 172.452 124.114 172.451C123.358 148.978 120.998 142.52 119.015 138.088C117.033 133.657 90.5985 99.8094 90.5985 99.8094Z" fill="#1E2A31"/>
<path d="M87.821 113.057H86.9772V120.978H87.821V113.057Z" fill="#5A7383"/>
<path d="M85.5967 112.887L84.7633 112.755L83.5262 120.578L84.3597 120.709L85.5967 112.887Z" fill="#5A7383"/>
<path d="M83.1988 112.34L82.3857 112.115L80.2656 119.745L81.0786 119.971L83.1988 112.34Z" fill="#5A7383"/>
<path d="M90.5779 120.71L91.4106 120.578L90.1729 112.756L89.3402 112.888L90.5779 120.71Z" fill="#5A7383"/>
<path d="M93.851 119.971L94.6648 119.745L92.5462 112.114L91.7324 112.34L93.851 119.971Z" fill="#5A7383"/>
</g>
<defs>
<filter id="filter0_f" x="1.45715" y="0.190857" width="178" height="222" filterUnits="userSpaceOnUse" color-interpolation-filters="sRGB">
<feFlood flood-opacity="0" result="BackgroundImageFix"/>
<feBlend mode="normal" in="SourceGraphic" in2="BackgroundImageFix" result="shape"/>
<feGaussianBlur stdDeviation="2" result="effect1_foregroundBlur"/>
</filter>
<linearGradient id="paint0_linear" x1="0.958871" y1="-6.18005" x2="166.6" y2="210.713" gradientUnits="userSpaceOnUse">
<stop stop-color="#B4CEF4"/>
<stop offset="1" stop-color="#182944"/>
</linearGradient>
</defs>
</svg>
