<svg width="1020" height="1459" viewBox="0 0 1020 1459" fill="none" xmlns="http://www.w3.org/2000/svg">
<rect width="1020" height="1459" rx="14" fill="url(#paint0_linear)"/>
<g filter="url(#filter0_f)">
<circle cx="166.453" cy="789.79" r="3.72229" transform="rotate(90 166.453 789.79)" fill="#536983" fill-opacity="0.5"/>
<circle cx="166.453" cy="881.276" r="3.72229" transform="rotate(90 166.453 881.276)" fill="#536983" fill-opacity="0.5"/>
<circle cx="166.453" cy="972.761" r="3.72229" transform="rotate(90 166.453 972.761)" fill="#536983" fill-opacity="0.5"/>
<circle cx="166.453" cy="1064.25" r="3.72229" transform="rotate(90 166.453 1064.25)" fill="#536983" fill-opacity="0.5"/>
<circle cx="103.587" cy="789.79" r="3.72229" transform="rotate(90 103.587 789.79)" fill="#536983" fill-opacity="0.5"/>
<circle cx="103.587" cy="881.276" r="3.72229" transform="rotate(90 103.587 881.276)" fill="#536983" fill-opacity="0.5"/>
<circle cx="103.587" cy="972.761" r="3.72229" transform="rotate(90 103.587 972.761)" fill="#536983" fill-opacity="0.5"/>
<circle cx="103.587" cy="1064.25" r="3.72229" transform="rotate(90 103.587 1064.25)" fill="#536983" fill-opacity="0.5"/>
<circle cx="223.444" cy="789.79" r="3.72229" transform="rotate(90 223.444 789.79)" fill="#536983" fill-opacity="0.5"/>
<circle cx="223.444" cy="881.275" r="3.72229" transform="rotate(90 223.444 881.275)" fill="#536983" fill-opacity="0.5"/>
<circle cx="223.444" cy="972.761" r="3.72229" transform="rotate(90 223.444 972.761)" fill="#536983" fill-opacity="0.5"/>
<circle cx="223.444" cy="1064.25" r="3.72229" transform="rotate(90 223.444 1064.25)" fill="#536983" fill-opacity="0.5"/>
<circle cx="223.445" cy="1149.72" r="3.72229" transform="rotate(90 223.445 1149.72)" fill="#536983" fill-opacity="0.5"/>
<circle cx="223.445" cy="1241.21" r="3.72229" transform="rotate(90 223.445 1241.21)" fill="#536983" fill-opacity="0.5"/>
<circle cx="223.445" cy="1332.69" r="3.72229" transform="rotate(90 223.445 1332.69)" fill="#536983" fill-opacity="0.5"/>
<circle cx="223.445" cy="1424.18" r="3.72229" transform="rotate(90 223.445 1424.18)" fill="#536983" fill-opacity="0.5"/>
<circle cx="40.722" cy="789.79" r="3.72229" transform="rotate(90 40.722 789.79)" fill="#536983" fill-opacity="0.5"/>
<circle cx="40.722" cy="881.276" r="3.72229" transform="rotate(90 40.722 881.276)" fill="#536983" fill-opacity="0.5"/>
<circle cx="40.722" cy="972.761" r="3.72229" transform="rotate(90 40.722 972.761)" fill="#536983" fill-opacity="0.5"/>
<circle cx="40.722" cy="1064.25" r="3.72229" transform="rotate(90 40.722 1064.25)" fill="#536983" fill-opacity="0.5"/>
<circle cx="166.453" cy="1149.82" r="3.72229" transform="rotate(90 166.453 1149.82)" fill="#536983" fill-opacity="0.5"/>
<circle cx="166.453" cy="1241.3" r="3.72229" transform="rotate(90 166.453 1241.3)" fill="#536983" fill-opacity="0.5"/>
<circle cx="166.453" cy="1332.79" r="3.72229" transform="rotate(90 166.453 1332.79)" fill="#536983" fill-opacity="0.5"/>
<circle cx="166.453" cy="1424.27" r="3.72229" transform="rotate(90 166.453 1424.27)" fill="#536983" fill-opacity="0.5"/>
<circle cx="103.588" cy="1149.82" r="3.72229" transform="rotate(90 103.588 1149.82)" fill="#536983" fill-opacity="0.5"/>
<circle cx="103.588" cy="1241.3" r="3.72229" transform="rotate(90 103.588 1241.3)" fill="#536983" fill-opacity="0.5"/>
<circle cx="103.588" cy="1332.79" r="3.72229" transform="rotate(90 103.588 1332.79)" fill="#536983" fill-opacity="0.5"/>
<circle cx="103.588" cy="1424.27" r="3.72229" transform="rotate(90 103.588 1424.27)" fill="#536983" fill-opacity="0.5"/>
<circle cx="40.723" cy="1149.82" r="3.72229" transform="rotate(90 40.723 1149.82)" fill="#536983" fill-opacity="0.5"/>
<circle cx="40.723" cy="1241.3" r="3.72229" transform="rotate(90 40.723 1241.3)" fill="#536983" fill-opacity="0.5"/>
<circle cx="40.723" cy="1332.79" r="3.72229" transform="rotate(90 40.723 1332.79)" fill="#536983" fill-opacity="0.5"/>
<circle cx="40.723" cy="1424.27" r="3.72229" transform="rotate(90 40.723 1424.27)" fill="#536983" fill-opacity="0.5"/>
<circle cx="980.206" cy="789.79" r="3.72229" transform="rotate(90 980.206 789.79)" fill="#536983" fill-opacity="0.5"/>
<circle cx="980.206" cy="881.275" r="3.72229" transform="rotate(90 980.206 881.275)" fill="#536983" fill-opacity="0.5"/>
<circle cx="980.206" cy="972.761" r="3.72229" transform="rotate(90 980.206 972.761)" fill="#536983" fill-opacity="0.5"/>
<circle cx="980.206" cy="1064.25" r="3.72229" transform="rotate(90 980.206 1064.25)" fill="#536983" fill-opacity="0.5"/>
<circle cx="917.341" cy="789.79" r="3.72229" transform="rotate(90 917.341 789.79)" fill="#536983" fill-opacity="0.5"/>
<circle cx="917.341" cy="881.275" r="3.72229" transform="rotate(90 917.341 881.275)" fill="#536983" fill-opacity="0.5"/>
<circle cx="917.341" cy="972.761" r="3.72229" transform="rotate(90 917.341 972.761)" fill="#536983" fill-opacity="0.5"/>
<circle cx="917.341" cy="1064.25" r="3.72229" transform="rotate(90 917.341 1064.25)" fill="#536983" fill-opacity="0.5"/>
<circle cx="854.476" cy="789.79" r="3.72229" transform="rotate(90 854.476 789.79)" fill="#536983" fill-opacity="0.5"/>
<circle cx="854.476" cy="881.275" r="3.72229" transform="rotate(90 854.476 881.275)" fill="#536983" fill-opacity="0.5"/>
<circle cx="854.476" cy="972.761" r="3.72229" transform="rotate(90 854.476 972.761)" fill="#536983" fill-opacity="0.5"/>
<circle cx="854.476" cy="1064.25" r="3.72229" transform="rotate(90 854.476 1064.25)" fill="#536983" fill-opacity="0.5"/>
<circle cx="980.206" cy="1149.82" r="3.72229" transform="rotate(90 980.206 1149.82)" fill="#536983" fill-opacity="0.5"/>
<circle cx="980.206" cy="1241.3" r="3.72229" transform="rotate(90 980.206 1241.3)" fill="#536983" fill-opacity="0.5"/>
<circle cx="980.206" cy="1332.79" r="3.72229" transform="rotate(90 980.206 1332.79)" fill="#536983" fill-opacity="0.5"/>
<circle cx="980.206" cy="1424.27" r="3.72229" transform="rotate(90 980.206 1424.27)" fill="#536983" fill-opacity="0.5"/>
<circle cx="917.341" cy="1149.82" r="3.72229" transform="rotate(90 917.341 1149.82)" fill="#536983" fill-opacity="0.5"/>
<circle cx="917.341" cy="1241.3" r="3.72229" transform="rotate(90 917.341 1241.3)" fill="#536983" fill-opacity="0.5"/>
<circle cx="917.341" cy="1332.79" r="3.72229" transform="rotate(90 917.341 1332.79)" fill="#536983" fill-opacity="0.5"/>
<circle cx="917.341" cy="1424.27" r="3.72229" transform="rotate(90 917.341 1424.27)" fill="#536983" fill-opacity="0.5"/>
<circle cx="854.476" cy="1149.82" r="3.72229" transform="rotate(90 854.476 1149.82)" fill="#536983" fill-opacity="0.5"/>
<circle cx="854.476" cy="1241.3" r="3.72229" transform="rotate(90 854.476 1241.3)" fill="#536983" fill-opacity="0.5"/>
<circle cx="854.476" cy="1332.79" r="3.72229" transform="rotate(90 854.476 1332.79)" fill="#536983" fill-opacity="0.5"/>
<circle cx="854.476" cy="1424.27" r="3.72229" transform="rotate(90 854.476 1424.27)" fill="#536983" fill-opacity="0.5"/>
<circle cx="789.176" cy="789.79" r="3.72229" transform="rotate(90 789.176 789.79)" fill="#536983" fill-opacity="0.5"/>
<circle cx="789.176" cy="881.275" r="3.72229" transform="rotate(90 789.176 881.275)" fill="#536983" fill-opacity="0.5"/>
<circle cx="789.176" cy="972.761" r="3.72229" transform="rotate(90 789.176 972.761)" fill="#536983" fill-opacity="0.5"/>
<circle cx="789.176" cy="1064.25" r="3.72229" transform="rotate(90 789.176 1064.25)" fill="#536983" fill-opacity="0.5"/>
<circle cx="726.311" cy="789.79" r="3.72229" transform="rotate(90 726.311 789.79)" fill="#536983" fill-opacity="0.5"/>
<circle cx="726.311" cy="881.275" r="3.72229" transform="rotate(90 726.311 881.275)" fill="#536983" fill-opacity="0.5"/>
<circle cx="726.311" cy="972.761" r="3.72229" transform="rotate(90 726.311 972.761)" fill="#536983" fill-opacity="0.5"/>
<circle cx="726.311" cy="1064.25" r="3.72229" transform="rotate(90 726.311 1064.25)" fill="#536983" fill-opacity="0.5"/>
<circle cx="663.446" cy="789.79" r="3.72229" transform="rotate(90 663.446 789.79)" fill="#536983" fill-opacity="0.5"/>
<circle cx="663.446" cy="881.275" r="3.72229" transform="rotate(90 663.446 881.275)" fill="#536983" fill-opacity="0.5"/>
<circle cx="663.446" cy="972.761" r="3.72229" transform="rotate(90 663.446 972.761)" fill="#536983" fill-opacity="0.5"/>
<circle cx="663.446" cy="1064.25" r="3.72229" transform="rotate(90 663.446 1064.25)" fill="#536983" fill-opacity="0.5"/>
<circle cx="789.176" cy="1149.82" r="3.72229" transform="rotate(90 789.176 1149.82)" fill="#536983" fill-opacity="0.5"/>
<circle cx="789.176" cy="1241.3" r="3.72229" transform="rotate(90 789.176 1241.3)" fill="#536983" fill-opacity="0.5"/>
<circle cx="789.176" cy="1332.79" r="3.72229" transform="rotate(90 789.176 1332.79)" fill="#536983" fill-opacity="0.5"/>
<circle cx="789.176" cy="1424.27" r="3.72229" transform="rotate(90 789.176 1424.27)" fill="#536983" fill-opacity="0.5"/>
<circle cx="726.311" cy="1149.82" r="3.72229" transform="rotate(90 726.311 1149.82)" fill="#536983" fill-opacity="0.5"/>
<circle cx="726.311" cy="1241.3" r="3.72229" transform="rotate(90 726.311 1241.3)" fill="#536983" fill-opacity="0.5"/>
<circle cx="726.311" cy="1332.79" r="3.72229" transform="rotate(90 726.311 1332.79)" fill="#536983" fill-opacity="0.5"/>
<circle cx="726.311" cy="1424.27" r="3.72229" transform="rotate(90 726.311 1424.27)" fill="#536983" fill-opacity="0.5"/>
<circle cx="663.446" cy="1149.82" r="3.72229" transform="rotate(90 663.446 1149.82)" fill="#536983" fill-opacity="0.5"/>
<circle cx="663.446" cy="1241.3" r="3.72229" transform="rotate(90 663.446 1241.3)" fill="#536983" fill-opacity="0.5"/>
<circle cx="663.446" cy="1332.79" r="3.72229" transform="rotate(90 663.446 1332.79)" fill="#536983" fill-opacity="0.5"/>
<circle cx="663.446" cy="1424.27" r="3.72229" transform="rotate(90 663.446 1424.27)" fill="#536983" fill-opacity="0.5"/>
<circle cx="407.176" cy="789.79" r="3.72229" transform="rotate(90 407.176 789.79)" fill="#536983" fill-opacity="0.5"/>
<circle cx="407.176" cy="881.275" r="3.72229" transform="rotate(90 407.176 881.275)" fill="#536983" fill-opacity="0.5"/>
<circle cx="407.176" cy="972.761" r="3.72229" transform="rotate(90 407.176 972.761)" fill="#536983" fill-opacity="0.5"/>
<circle cx="407.176" cy="1064.25" r="3.72229" transform="rotate(90 407.176 1064.25)" fill="#536983" fill-opacity="0.5"/>
<circle cx="344.311" cy="789.79" r="3.72229" transform="rotate(90 344.311 789.79)" fill="#536983" fill-opacity="0.5"/>
<circle cx="344.311" cy="881.275" r="3.72229" transform="rotate(90 344.311 881.275)" fill="#536983" fill-opacity="0.5"/>
<circle cx="344.311" cy="972.761" r="3.72229" transform="rotate(90 344.311 972.761)" fill="#536983" fill-opacity="0.5"/>
<circle cx="344.311" cy="1064.25" r="3.72229" transform="rotate(90 344.311 1064.25)" fill="#536983" fill-opacity="0.5"/>
<circle cx="281.446" cy="789.79" r="3.72229" transform="rotate(90 281.446 789.79)" fill="#536983" fill-opacity="0.5"/>
<circle cx="281.446" cy="881.275" r="3.72229" transform="rotate(90 281.446 881.275)" fill="#536983" fill-opacity="0.5"/>
<circle cx="281.446" cy="972.761" r="3.72229" transform="rotate(90 281.446 972.761)" fill="#536983" fill-opacity="0.5"/>
<circle cx="281.446" cy="1064.25" r="3.72229" transform="rotate(90 281.446 1064.25)" fill="#536983" fill-opacity="0.5"/>
<circle cx="407.176" cy="1149.82" r="3.72229" transform="rotate(90 407.176 1149.82)" fill="#536983" fill-opacity="0.5"/>
<circle cx="407.176" cy="1241.3" r="3.72229" transform="rotate(90 407.176 1241.3)" fill="#536983" fill-opacity="0.5"/>
<circle cx="407.176" cy="1332.79" r="3.72229" transform="rotate(90 407.176 1332.79)" fill="#536983" fill-opacity="0.5"/>
<circle cx="407.176" cy="1424.27" r="3.72229" transform="rotate(90 407.176 1424.27)" fill="#536983" fill-opacity="0.5"/>
<circle cx="344.311" cy="1149.82" r="3.72229" transform="rotate(90 344.311 1149.82)" fill="#536983" fill-opacity="0.5"/>
<circle cx="344.311" cy="1241.3" r="3.72229" transform="rotate(90 344.311 1241.3)" fill="#536983" fill-opacity="0.5"/>
<circle cx="344.311" cy="1332.79" r="3.72229" transform="rotate(90 344.311 1332.79)" fill="#536983" fill-opacity="0.5"/>
<circle cx="344.311" cy="1424.27" r="3.72229" transform="rotate(90 344.311 1424.27)" fill="#536983" fill-opacity="0.5"/>
<circle cx="281.446" cy="1149.82" r="3.72229" transform="rotate(90 281.446 1149.82)" fill="#536983" fill-opacity="0.5"/>
<circle cx="281.446" cy="1241.3" r="3.72229" transform="rotate(90 281.446 1241.3)" fill="#536983" fill-opacity="0.5"/>
<circle cx="281.446" cy="1332.79" r="3.72229" transform="rotate(90 281.446 1332.79)" fill="#536983" fill-opacity="0.5"/>
<circle cx="281.446" cy="1424.27" r="3.72229" transform="rotate(90 281.446 1424.27)" fill="#536983" fill-opacity="0.5"/>
<circle cx="598.176" cy="789.79" r="3.72229" transform="rotate(90 598.176 789.79)" fill="#536983" fill-opacity="0.5"/>
<circle cx="598.176" cy="881.275" r="3.72229" transform="rotate(90 598.176 881.275)" fill="#536983" fill-opacity="0.5"/>
<circle cx="598.176" cy="972.761" r="3.72229" transform="rotate(90 598.176 972.761)" fill="#536983" fill-opacity="0.5"/>
<circle cx="598.176" cy="1064.25" r="3.72229" transform="rotate(90 598.176 1064.25)" fill="#536983" fill-opacity="0.5"/>
<circle cx="535.311" cy="789.79" r="3.72229" transform="rotate(90 535.311 789.79)" fill="#536983" fill-opacity="0.5"/>
<circle cx="535.311" cy="881.275" r="3.72229" transform="rotate(90 535.311 881.275)" fill="#536983" fill-opacity="0.5"/>
<circle cx="535.311" cy="972.761" r="3.72229" transform="rotate(90 535.311 972.761)" fill="#536983" fill-opacity="0.5"/>
<circle cx="535.311" cy="1064.25" r="3.72229" transform="rotate(90 535.311 1064.25)" fill="#536983" fill-opacity="0.5"/>
<circle cx="472.446" cy="789.79" r="3.72229" transform="rotate(90 472.446 789.79)" fill="#536983" fill-opacity="0.5"/>
<circle cx="472.446" cy="881.275" r="3.72229" transform="rotate(90 472.446 881.275)" fill="#536983" fill-opacity="0.5"/>
<circle cx="472.446" cy="972.761" r="3.72229" transform="rotate(90 472.446 972.761)" fill="#536983" fill-opacity="0.5"/>
<circle cx="472.446" cy="1064.25" r="3.72229" transform="rotate(90 472.446 1064.25)" fill="#536983" fill-opacity="0.5"/>
<circle cx="598.176" cy="1149.82" r="3.72229" transform="rotate(90 598.176 1149.82)" fill="#536983" fill-opacity="0.5"/>
<circle cx="598.176" cy="1241.3" r="3.72229" transform="rotate(90 598.176 1241.3)" fill="#536983" fill-opacity="0.5"/>
<circle cx="598.176" cy="1332.79" r="3.72229" transform="rotate(90 598.176 1332.79)" fill="#536983" fill-opacity="0.5"/>
<circle cx="598.176" cy="1424.27" r="3.72229" transform="rotate(90 598.176 1424.27)" fill="#536983" fill-opacity="0.5"/>
<circle cx="535.311" cy="1149.82" r="3.72229" transform="rotate(90 535.311 1149.82)" fill="#536983" fill-opacity="0.5"/>
<circle cx="535.311" cy="1241.3" r="3.72229" transform="rotate(90 535.311 1241.3)" fill="#536983" fill-opacity="0.5"/>
<circle cx="535.311" cy="1332.79" r="3.72229" transform="rotate(90 535.311 1332.79)" fill="#536983" fill-opacity="0.5"/>
<circle cx="535.311" cy="1424.27" r="3.72229" transform="rotate(90 535.311 1424.27)" fill="#536983" fill-opacity="0.5"/>
<circle cx="472.446" cy="1149.82" r="3.72229" transform="rotate(90 472.446 1149.82)" fill="#536983" fill-opacity="0.5"/>
<circle cx="472.446" cy="1241.3" r="3.72229" transform="rotate(90 472.446 1241.3)" fill="#536983" fill-opacity="0.5"/>
<circle cx="472.446" cy="1332.79" r="3.72229" transform="rotate(90 472.446 1332.79)" fill="#536983" fill-opacity="0.5"/>
<circle cx="472.446" cy="1424.27" r="3.72229" transform="rotate(90 472.446 1424.27)" fill="#536983" fill-opacity="0.5"/>
</g>
<rect x="81" y="823.511" width="260.938" height="260.938" rx="22" fill="black" fill-opacity="0.3"/>
<rect x="384" y="823" width="257.347" height="260.938" rx="22" fill="black" fill-opacity="0.3"/>
<rect x="683" y="823" width="257.347" height="260.938" rx="22" fill="black" fill-opacity="0.3"/>
<rect x="81" y="1129.51" width="260.938" height="260.938" rx="22" fill="black" fill-opacity="0.3"/>
<rect x="384" y="1129" width="257.347" height="260.938" rx="22" fill="black" fill-opacity="0.3"/>
<rect x="683" y="1129" width="257.347" height="260.938" rx="22" fill="black" fill-opacity="0.3"/>
<g filter="url(#filter1_d)">
<rect x="19" y="628" width="982" height="129" fill="url(#paint1_radial)"/>
</g>
<g filter="url(#filter2_d)">
<rect x="41" y="40" width="941.908" height="554.932" fill="#76809D"/>
<rect x="41" y="40" width="941.908" height="554.932" fill="url(#paint2_radial)"/>
</g>
<line x1="36" y1="38" x2="62.0676" y2="38" stroke="#9B9B9B" stroke-width="4"/>
<line x1="38" y1="40" x2="38" y2="66.0676" stroke="#9B9B9B" stroke-width="4"/>
<line x1="984.136" y1="36.9658" x2="984.136" y2="63.0334" stroke="#9B9B9B" stroke-width="4"/>
<line x1="982.136" y1="38.9658" x2="956.068" y2="38.9658" stroke="#9B9B9B" stroke-width="4"/>
<line x1="982.908" y1="596.933" x2="956.841" y2="596.933" stroke="#9B9B9B" stroke-width="4"/>
<line x1="980.908" y1="594.933" x2="980.908" y2="568.865" stroke="#9B9B9B" stroke-width="4"/>
<line x1="39" y1="594.933" x2="39" y2="568.865" stroke="#9B9B9B" stroke-width="4"/>
<line x1="41" y1="592.933" x2="67.0676" y2="592.933" stroke="#9B9B9B" stroke-width="4"/>
<path d="M40 66H981" stroke="white" stroke-opacity="0.15" stroke-width="6"/>
<path d="M40 54H981" stroke="white" stroke-opacity="0.15" stroke-width="6"/>
<path d="M40 42H981" stroke="white" stroke-opacity="0.15" stroke-width="6"/>
<path d="M40 258H981" stroke="white" stroke-opacity="0.15" stroke-width="6"/>
<path d="M40 246H981" stroke="white" stroke-opacity="0.15" stroke-width="6"/>
<path d="M40 306H981" stroke="white" stroke-opacity="0.15" stroke-width="6"/>
<path d="M40 294H981" stroke="white" stroke-opacity="0.15" stroke-width="6"/>
<path d="M40 282H981" stroke="white" stroke-opacity="0.15" stroke-width="6"/>
<path d="M40 270H981" stroke="white" stroke-opacity="0.15" stroke-width="6"/>
<path d="M40 210H981" stroke="white" stroke-opacity="0.15" stroke-width="6"/>
<path d="M40 198H981" stroke="white" stroke-opacity="0.15" stroke-width="6"/>
<path d="M40 234H981" stroke="white" stroke-opacity="0.15" stroke-width="6"/>
<path d="M40 222H981" stroke="white" stroke-opacity="0.15" stroke-width="6"/>
<path d="M40 138H981" stroke="white" stroke-opacity="0.15" stroke-width="6"/>
<path d="M40 126H981" stroke="white" stroke-opacity="0.15" stroke-width="6"/>
<path d="M40 186H981" stroke="white" stroke-opacity="0.15" stroke-width="6"/>
<path d="M40 174H981" stroke="white" stroke-opacity="0.15" stroke-width="6"/>
<path d="M40 162H981" stroke="white" stroke-opacity="0.15" stroke-width="6"/>
<path d="M40 150H981" stroke="white" stroke-opacity="0.15" stroke-width="6"/>
<path d="M40 90H981" stroke="white" stroke-opacity="0.15" stroke-width="6"/>
<path d="M40 78H981" stroke="white" stroke-opacity="0.15" stroke-width="6"/>
<path d="M40 114H981" stroke="white" stroke-opacity="0.15" stroke-width="6"/>
<path d="M40 102H981" stroke="white" stroke-opacity="0.15" stroke-width="6"/>
<path d="M40 498H981" stroke="white" stroke-opacity="0.15" stroke-width="6"/>
<path d="M40 486H981" stroke="white" stroke-opacity="0.15" stroke-width="6"/>
<path d="M40 546H981" stroke="white" stroke-opacity="0.15" stroke-width="6"/>
<path d="M40 534H981" stroke="white" stroke-opacity="0.15" stroke-width="6"/>
<path d="M40 522H981" stroke="white" stroke-opacity="0.15" stroke-width="6"/>
<path d="M40 510H981" stroke="white" stroke-opacity="0.15" stroke-width="6"/>
<path d="M40 450H981" stroke="white" stroke-opacity="0.15" stroke-width="6"/>
<path d="M40 438H981" stroke="white" stroke-opacity="0.15" stroke-width="6"/>
<path d="M40 474H981" stroke="white" stroke-opacity="0.15" stroke-width="6"/>
<path d="M40 462H981" stroke="white" stroke-opacity="0.15" stroke-width="6"/>
<path d="M40 378H981" stroke="white" stroke-opacity="0.15" stroke-width="6"/>
<path d="M40 366H981" stroke="white" stroke-opacity="0.15" stroke-width="6"/>
<path d="M40 426H981" stroke="white" stroke-opacity="0.15" stroke-width="6"/>
<path d="M40 414H981" stroke="white" stroke-opacity="0.15" stroke-width="6"/>
<path d="M40 402H981" stroke="white" stroke-opacity="0.15" stroke-width="6"/>
<path d="M40 390H981" stroke="white" stroke-opacity="0.15" stroke-width="6"/>
<path d="M40 330H981" stroke="white" stroke-opacity="0.15" stroke-width="6"/>
<path d="M40 318H981" stroke="white" stroke-opacity="0.15" stroke-width="6"/>
<path d="M40 354H981" stroke="white" stroke-opacity="0.15" stroke-width="6"/>
<path d="M40 342H981" stroke="white" stroke-opacity="0.15" stroke-width="6"/>
<path d="M40 570H981" stroke="white" stroke-opacity="0.15" stroke-width="6"/>
<path d="M40 558H981" stroke="white" stroke-opacity="0.15" stroke-width="6"/>
<path d="M40 582H981" stroke="white" stroke-opacity="0.15" stroke-width="6"/>
<path d="M40 594H981" stroke="white" stroke-opacity="0.15" stroke-width="6"/>
<defs>
<filter id="filter0_f" x="31" y="780.067" width="958.929" height="653.929" filterUnits="userSpaceOnUse" color-interpolation-filters="sRGB">
<feFlood flood-opacity="0" result="BackgroundImageFix"/>
<feBlend mode="normal" in="SourceGraphic" in2="BackgroundImageFix" result="shape"/>
<feGaussianBlur stdDeviation="3" result="effect1_foregroundBlur"/>
</filter>
<filter id="filter1_d" x="15" y="628" width="990" height="137" filterUnits="userSpaceOnUse" color-interpolation-filters="sRGB">
<feFlood flood-opacity="0" result="BackgroundImageFix"/>
<feColorMatrix in="SourceAlpha" type="matrix" values="0 0 0 0 0 0 0 0 0 0 0 0 0 0 0 0 0 0 127 0"/>
<feOffset dy="4"/>
<feGaussianBlur stdDeviation="2"/>
<feColorMatrix type="matrix" values="0 0 0 0 0 0 0 0 0 0 0 0 0 0 0 0 0 0 0.25 0"/>
<feBlend mode="normal" in2="BackgroundImageFix" result="effect1_dropShadow"/>
<feBlend mode="normal" in="SourceGraphic" in2="effect1_dropShadow" result="shape"/>
</filter>
<filter id="filter2_d" x="31" y="30" width="961.908" height="574.932" filterUnits="userSpaceOnUse" color-interpolation-filters="sRGB">
<feFlood flood-opacity="0" result="BackgroundImageFix"/>
<feColorMatrix in="SourceAlpha" type="matrix" values="0 0 0 0 0 0 0 0 0 0 0 0 0 0 0 0 0 0 127 0"/>
<feOffset/>
<feGaussianBlur stdDeviation="5"/>
<feColorMatrix type="matrix" values="0 0 0 0 0 0 0 0 0 0 0 0 0 0 0 0 0 0 0.5 0"/>
<feBlend mode="normal" in2="BackgroundImageFix" result="effect1_dropShadow"/>
<feBlend mode="normal" in="SourceGraphic" in2="effect1_dropShadow" result="shape"/>
</filter>
<linearGradient id="paint0_linear" x1="510" y1="0" x2="510" y2="1459" gradientUnits="userSpaceOnUse">
<stop stop-color="#5B688C"/>
<stop offset="0.286458" stop-color="#424D6B"/>
<stop offset="0.479167" stop-color="#293553"/>
<stop offset="1" stop-color="#293553"/>
</linearGradient>
<radialGradient id="paint1_radial" cx="0" cy="0" r="1" gradientUnits="userSpaceOnUse" gradientTransform="translate(510 693) rotate(90) scale(159 434.367)">
<stop stop-color="#A7B6E6"/>
<stop offset="0.8125" stop-color="#8191C5"/>
<stop offset="0.984375" stop-color="#7D8CBC"/>
</radialGradient>
<radialGradient id="paint2_radial" cx="0" cy="0" r="1" gradientUnits="userSpaceOnUse" gradientTransform="translate(511.954 317.466) rotate(88.0281) scale(379.14 643.433)">
<stop stop-color="white" stop-opacity="0"/>
<stop offset="1" stop-opacity="0.3"/>
</radialGradient>
</defs>
</svg>
