<svg width="200" height="250" viewBox="0 0 200 250" fill="none" xmlns="http://www.w3.org/2000/svg">
<rect width="200" height="250" rx="6" fill="#C8C8BC"/>
<path fill-rule="evenodd" clip-rule="evenodd" d="M1.47665 205.248C1.40393 205.465 1.32314 205.691 1.2585 205.908C1.55746 205.312 1.46858 205.594 1.51706 205.242C1.81603 205.153 2.11499 205.073 2.42001 205.001C2.39577 204.928 2.36346 204.856 2.33922 204.783C2.42002 204.783 2.50081 204.783 2.57353 204.783C2.42001 204.534 2.26649 204.276 2.12105 204.02C2.10489 204.036 2.08872 204.053 2.07256 204.069C2.04023 203.964 2.00793 203.867 1.96753 203.763C2.36346 202.799 1.85439 203.634 2.99976 202.815C3.04824 202.903 3.09674 202.984 3.14522 203.072C3.10482 203.908 3.06441 204.729 3.01593 205.556C3.28258 205.749 3.52497 205.942 3.77344 206.144C4.12088 205.846 4.46832 205.524 4.81375 205.196C4.74911 204.882 4.70873 204.592 4.64409 204.264C4.45825 204.618 4.25623 204.946 4.07039 205.3C3.6583 202.897 3.45629 203.155 2.55333 201.394C2.46445 201.466 2.38365 201.539 2.29477 201.611C2.22205 201.515 2.12509 201.555 1.25446 201.04C1.21405 201.41 1.16558 201.762 1.1171 202.133C1.28678 202.157 1.44838 202.173 1.60999 202.189C1.4807 202.294 1.35949 202.398 1.23021 202.503C1.25445 202.575 1.2787 202.64 1.29486 202.704C0.858532 202.64 0.432307 202.591 0.00405884 202.543V190.872C0.238383 190.856 0.464604 190.816 0.698929 190.8C0.472684 190.518 0.238383 190.236 0.00405884 189.957V188.244C0.133341 188.469 0.270696 188.703 0.399979 188.91C0.496941 188.854 0.58583 188.806 0.690872 188.749C0.464628 188.532 0.222217 188.306 0.006073 188.099V183.987C0.0707142 183.947 0.151523 183.915 0.208084 183.867C0.127283 183.746 0.0626341 183.633 0.006073 183.512V177.966C0.676726 178.159 1.34536 178.368 2.02409 178.562C1.25042 177.187 0.830249 176.696 0.006073 176.978V167.372C0.337359 167.742 0.222203 166.038 0.834274 166.408C0.737312 164.214 0.939316 164.592 0.834274 162.383C0.486828 162.512 0.35352 162.115 0.006073 162.244V151.843C0.0383936 151.851 0.0707055 151.859 0.119186 151.859C0.151507 151.497 0.216153 151.137 0.248474 150.79C0.119192 150.863 0.0868663 150.871 0.0141449 150.919V144.143C0.111107 144.159 0.200003 144.167 0.313126 144.183C0.345446 143.837 0.393902 143.461 0.442383 143.107C0.224219 143.227 0.111107 143.276 0.0141449 143.316V126.451C0.377752 126.765 0.739345 127.054 1.08679 127.238C1.96551 126.29 1.19182 126.907 2.29678 126.29C1.47463 123.919 0.650457 124.488 0.119186 121.643C0.0868658 121.651 0.0383936 121.651 0.006073 121.659V120.405C0.0868745 120.477 0.135356 120.526 0.288879 120.654C0.191918 120.534 0.103035 120.413 0.006073 120.284V111.596C0.0868745 111.604 0.167681 111.62 0.240402 111.628C0.159601 111.411 0.0787944 111.177 0.006073 110.96V109.135C0.0222333 109.135 0.0383899 109.135 0.0545502 109.143C0.0222295 109.046 0.0222333 109.022 0.006073 108.958V85.3342C0.119195 85.6482 0.224219 85.9621 0.337341 86.2741C0.935273 85.9843 1.51504 85.6945 2.10489 85.4147C1.58776 83.1647 2.09681 85.0686 0.676727 83.5732C0.450483 83.9194 0.224237 84.2475 0.006073 84.5936V82.5368C0.272718 82.5207 0.531265 82.5126 0.80397 82.4965C0.448444 82.0216 0.214137 81.8143 0.006073 81.6774C0.006073 81.6774 1.52588e-05 10.4662 1.52588e-05 5.25528C1.52588e-05 0.0443826 4.67838 2.18416e-05 4.67838 2.18416e-05C0.584808 -2.7302e-05 28.9625 2.18416e-05 33.5569 2.18416e-05C33.569 0.00203439 33.5831 0.00605936 33.5973 0.00807191H34.3467L34.3488 2.18416e-05H34.6477C34.6497 0.00203439 34.6518 0.00605936 34.6538 0.00807191H37.5465C37.5525 0.0201472 37.5586 0.0322227 37.5626 0.044298C37.7364 0.120775 37.9141 0.189202 38.0818 0.259641L38.0838 0.251591C37.6758 0.0100848 37.7141 0.0221599 37.5687 2.18416e-05H44.3479H47.1376H48.7779C48.7759 0.00203439 48.7718 0.00605936 48.7698 0.00807191H49.1819C49.1839 0.00605936 49.188 0.00203439 49.194 2.18416e-05H49.3192H50.905H51.2282H53.624H54.1007H55.6884H59.8194H61.8374H62.6273H62.9262H65.8472H75.4161H86.7667H91.1967H91.6168H93.3278H93.651H96.0468H96.5235H98.1093H102.24H104.258H105.048H105.347H108.268H117.837H121.107H125.537H125.958H127.668H127.992H130.387H130.864H132.45H136.581H138.599H139.389H139.688H142.609H152.178H156.381V0.00807191H159.593H160.985C160.856 0.0724736 160.743 0.128825 160.613 0.185177C160.928 0.152976 161.244 0.112724 161.557 0.0966235C161.538 0.0644226 161.522 0.0322227 161.506 2.18416e-05H165.936C165.766 0.161026 165.572 0.313979 165.419 0.483034C165.734 0.313979 166.049 0.161026 166.356 2.18416e-05H168.067C167.607 0.33008 167.156 0.66014 166.671 1.00429C166.978 2.23395 166.978 1.62214 166.752 2.49156C166.914 2.79747 167.059 3.09533 167.237 3.40727C167.916 2.81156 168.617 2.2098 169.301 1.60604C169.019 1.24378 168.72 0.883532 168.415 0.513223C168.405 0.346181 168.405 0.169076 168.388 2.18416e-05H170.784C170.72 0.0724737 170.655 0.144925 170.598 0.209327C171.398 0.35423 170.994 0.418633 171.261 2.18416e-05H172.851C173.859 0.33813 175.061 0.635987 175.529 0.81913C176.238 -0.0241295 176.667 0.289829 176.982 2.18416e-05H179C179.25 0.0483231 179.509 0.104674 179.765 0.152976C179.773 0.104674 179.79 0.0483231 179.79 2.18416e-05H180.088C180.105 0.0241725 180.121 0.0483228 180.137 0.0644232C180.218 0.0483228 180.282 0.0322224 180.355 0.016122C180.218 0.627938 180.105 1.23774 179.992 1.84956C180.539 1.78516 181.129 1.70465 181.7 1.6322C182.185 0.29788 181.216 1.23774 182.539 0.128825C182.614 0.442783 182.63 0.587687 182.646 0.746679C182.428 0.859382 182.201 0.964034 181.977 1.07674C182.147 1.38264 182.3 1.67849 182.454 1.99245C182.557 1.76101 182.67 1.5356 182.783 1.30214C182.84 1.37459 182.953 1.46315 183.308 1.93811C183.179 1.30214 183.058 0.660138 182.937 0.016122C183.145 0.112724 183.371 0.193226 183.573 0.281779C183.096 2.15173e-05 183.161 0.0241725 183.009 2.18416e-05H192.576C192.118 0.112725 191.698 0.217377 191.221 0.32203C191.229 0.491084 191.237 0.644038 191.253 0.81108C191.092 0.875481 190.954 0.939885 190.793 0.996236C190.827 1.08479 190.827 1.09284 190.851 1.16529C190.544 1.10089 190.229 1.04454 189.9 0.980136C190.827 1.76906 190.164 1.49535 190.956 1.51145C191.31 2.63647 193.143 0.42467 192.205 2.05685C194.167 0.577624 191.867 3.37507 192.077 3.42337C192.384 3.59243 191.376 4.22034 191.69 4.4055C191.94 4.22839 192.239 4.03519 192.498 3.85808C192.36 3.00677 192.223 2.1454 192.077 1.29409C192.762 0.770829 192.481 0.988184 192.708 0.00807191H190.116H195.411L197.677 2.64451L199.992 4.4055V31.3797C199.653 31.5005 199.275 31.6051 199.475 32.553C199.644 32.5369 199.822 32.5128 199.992 32.4967V33.517C199.709 33.1145 199.346 32.6979 198.693 32.2793C198.556 32.4484 198.418 32.6174 198.273 32.7865C198.265 33.6619 198.241 34.5394 198.224 35.3988C199.184 35.3746 198.903 35.2861 199.669 35.7127C199.774 35.6322 199.879 35.5517 199.992 35.4793V37.6408C199.822 37.7857 199.644 37.9225 199.483 38.0594C199.523 38.3653 199.556 38.6712 199.596 38.9751C199.733 38.7738 199.863 38.5484 200 38.3311V47.0696C199.899 47.0394 199.911 47.0454 199.701 47.3352C199.79 47.295 199.879 47.2487 199.976 47.2004V48.0195C199.865 47.8082 199.764 47.5949 199.661 47.3755C199.578 47.4137 199.495 47.458 199.41 47.4962L199.135 48.2751C199.216 48.4441 199.297 48.6213 199.378 48.7984C199.58 48.7038 199.79 48.6072 200 48.5025V85.5194L199.539 86.427C199.701 86.6202 199.838 86.8456 200 87.0388V114.635C199.83 114.643 199.636 114.667 199.259 114.724C200.452 117.352 198.226 115.551 198.661 117.585C198.976 117.553 199.283 117.521 199.588 117.481C199.774 117.326 199.855 117.143 200 116.982V118.445C199.895 118.429 199.798 118.421 199.701 118.404C199.798 118.477 199.895 118.555 200 118.628V119.761C199.386 119.046 199.242 118.193 197.871 117.31C197.725 117.479 197.604 117.648 197.459 117.817C197.443 118.692 197.418 119.57 197.402 120.437C198.362 120.397 198.073 120.316 198.847 120.735C199.226 120.453 199.612 120.163 200 119.89V122.727C199.863 122.591 199.741 122.462 199.604 122.317C199.289 122.574 198.974 122.824 198.661 123.08C198.709 123.386 198.742 123.691 198.782 123.995C198.96 123.706 199.146 123.4 199.323 123.104C199.348 123.265 199.364 123.321 199.388 123.466C199.137 123.74 198.879 124.03 198.63 124.301C198.913 124.213 199.188 124.124 199.469 124.028C199.606 124.847 199.76 125.241 199.994 125.772V130.266C199.808 130.234 199.606 130.21 199.428 130.178C199.598 130.307 199.768 130.444 199.937 130.588C199.954 130.58 199.978 130.572 199.994 130.564V134.004C199.897 134.084 199.824 134.165 199.727 134.245C199.824 134.43 199.897 134.616 199.994 134.793V134.946C199.962 134.938 199.929 134.93 199.897 134.93C199.978 135.469 199.986 135.765 199.994 135.998V144.672C199.727 144.688 199.485 144.713 199.083 144.704C199.148 145.62 199.204 146.554 199.253 147.478C199.495 147.518 199.745 147.55 199.994 147.582V163.121C199.727 162.823 199.364 162.542 198.768 162.133C198.533 162.528 198.275 162.912 198.043 163.298C198.689 163.789 199.333 164.279 199.996 164.778V165.476C199.883 165.452 199.794 165.428 199.689 165.404C199.543 165.959 199.414 166.521 199.269 167.084C199.503 167.213 199.754 167.334 199.994 167.462V196.874C199.269 196.584 199.412 196.584 198.348 196.721C199.566 199.349 197.332 197.556 197.758 199.599C198.073 199.551 198.372 199.518 198.685 199.478C199.467 198.898 199.693 198.216 199.992 197.107V199.398C199.943 199.341 199.919 199.325 199.871 199.253C199.782 199.301 199.701 199.341 199.604 199.39C199.733 199.655 199.846 199.913 199.984 200.184C199.984 200.184 199.984 200.184 199.992 200.176V202.225C199.83 202.37 199.685 202.507 199.531 202.652C199.612 202.829 199.701 203.006 199.782 203.175C199.846 203.143 199.919 203.111 199.984 203.079V204.389C199.903 204.429 199.822 204.461 199.75 204.493C199.83 204.662 199.911 204.823 199.984 204.992V205.836L199.717 205.795L199.984 206.351V207.339C199.919 207.339 199.782 207.331 199.283 207.629C199.242 207.532 199.194 207.452 199.146 207.363C199.21 206.568 199.275 205.795 199.331 205.009C199.113 204.783 198.903 204.558 198.685 204.332C198.37 204.59 198.055 204.848 197.742 205.103C197.79 205.409 197.822 205.715 197.855 206.019C198.041 205.713 198.234 205.415 198.404 205.119C198.703 207.466 198.889 207.249 199.63 209.066C199.752 208.985 199.857 208.897 199.978 208.824V216.5C199.913 216.661 199.776 216.879 199.269 217.287C199.511 217.464 199.745 217.649 199.978 217.818V223.51C199.97 223.502 199.97 223.502 199.962 223.494C199.711 223.615 199.436 223.727 199.164 223.856C199.333 224.218 199.503 224.571 199.673 224.925C199.778 224.876 199.867 224.828 199.98 224.78V239.723C199.81 239.691 199.632 239.659 199.471 239.626C199.584 240.021 199.689 240.413 199.786 240.8C199.851 240.719 199.915 240.639 199.972 240.566V243.203C199.341 243.235 199.923 243.001 199.166 244.006C198.923 244.328 198.673 244.65 198.416 244.978C198.925 244.503 199.449 244.054 199.966 243.579V245.236L195.276 249.905H193.237C193.229 249.896 193.229 249.888 193.229 249.88C193.221 249.888 193.205 249.896 193.188 249.905H164.934C164.797 249.848 164.668 249.792 164.522 249.736C164.756 249.864 164.764 249.872 164.797 249.905H159.565H154.462H153.705H152.838H152.79H151.6H148.881H148.436H147.964C147.972 249.907 147.976 249.911 147.986 249.913H145.461V249.905H125.218H124.527H124.39H118.489H118.441H114.053H113.296H111.191H108.472H108.028H107.555C107.563 249.907 107.567 249.911 107.577 249.913H105.052V249.905H90.1887C90.0513 249.848 89.922 249.792 89.7766 249.736C90.0109 249.864 90.019 249.872 90.0513 249.905H82.7994H79.7168H78.9593H76.8544H76.0726C76.0646 249.896 76.0646 249.888 76.0646 249.88C76.0565 249.888 76.0403 249.896 76.0242 249.905H74.1354H73.691H73.2183C73.2264 249.907 73.2305 249.911 73.2406 249.913H70.7155V249.905H54.5229H47.7941H47.7719C47.7658 249.903 47.7618 249.901 47.7558 249.899C47.7517 249.901 47.7497 249.903 47.7456 249.905H47.6345H37.3H36.5425H34.4376H31.7187H31.2742H30.8016C30.8096 249.907 30.8137 249.911 30.8238 249.913H28.2987V249.905H19.4954C19.358 249.848 19.2288 249.792 19.0833 249.736C19.3177 249.864 19.3257 249.872 19.358 249.905H9.02351C8.87807 249.8 8.73262 249.703 8.5791 249.599C10.9425 249.43 10.7406 249.236 12.6131 248.586C12.3384 248.168 12.0637 247.751 11.7748 247.341C11.2819 247.429 10.7991 247.526 10.3063 247.622C10.3547 247.711 10.379 247.799 10.4113 247.896C11.2658 248.323 10.5729 247.791 11.1284 248.868C11.0314 248.908 10.9506 248.941 10.8456 248.989C10.0638 248.876 9.29622 248.78 8.51447 248.667C8.28014 248.876 8.03775 249.077 7.79736 249.279C7.96705 249.488 8.1044 249.705 8.26601 249.907H4.70819C4.43347 249.504 5.60359 249.096 5.34705 248.701C4.78144 249.168 4.17806 249.005 3.47508 249.599L3.17812 249.428C3.17004 249.138 2.97352 249.327 2.94928 249.047C2.35943 248.18 2.79293 247.945 1.54253 247.535C1.16276 248.354 3.8753 248.235 1.54253 248.429C3.90597 247.489 1.68674 249.135 2.77554 249.305L1.4877 248.534L0.953156 247.844L1.22728 247.215C1.59089 247.143 0.753496 246.998 1.12518 246.926C1.14134 246.709 1.1575 246.483 1.18982 246.276C1.10902 246.099 1.04437 245.914 0.971649 245.729C0.365638 246.123 0.149477 245.14 0.0282745 245.237V224.492C0.0444348 224.476 0.0444476 224.476 0.0606079 224.46C0.0444476 224.452 0.0282745 224.444 0.0282745 224.436V218.734H0.0121307V206.896V206.659V205.643C0.4929 205.506 0.975684 205.377 1.47665 205.248ZM198.289 43.777C198.41 44.0507 198.531 44.3084 198.653 44.572C198.984 43.938 198.903 43.8817 198.952 43.1491C198.733 43.3584 198.507 43.5677 198.289 43.777ZM199.539 46.4376C200.105 45.4414 199.41 45.1436 198.127 44.8216C198.628 46.0834 198.58 45.2482 198.491 46.2766C198.847 46.333 199.194 46.3893 199.539 46.4376ZM199.105 92.0058C199.331 91.6677 199.558 91.3377 199.79 91.0016C199.838 90.6393 199.887 90.2871 199.952 89.9329C198.944 91.0499 198.863 90.438 199.105 92.0058ZM199.895 82.2389C199.596 81.8283 199.281 81.4117 198.976 81.0092C198.903 81.5486 198.822 82.094 198.75 82.6253C199.137 82.4885 199.515 82.3516 199.895 82.2389ZM199.242 65.6877C199.412 65.5991 199.59 65.5186 199.776 65.4301C198.849 64.7076 199.76 65.0517 198.598 65.0115C198.814 65.2308 199.024 65.4562 199.242 65.6877ZM198.653 62.3931C198.588 62.7474 198.54 63.0915 198.491 63.4377C198.806 62.699 198.685 63.3491 198.653 62.3931ZM198.273 49.9495C198.75 49.1385 198.628 49.7563 198.16 49.0177C198.063 49.066 197.974 49.1143 197.885 49.1626C198.022 49.4263 198.144 49.6758 198.273 49.9495ZM199.725 133.587C199.386 134.191 199.58 133.692 199.442 134.366C199.531 134.11 199.628 133.837 199.725 133.587ZM199.032 170.741C199.251 170.507 199.469 170.258 199.671 170.002C199.283 169.769 198.889 169.511 198.501 169.28C198.396 169.698 198.307 170.115 198.194 170.534C198.475 170.604 198.742 170.684 199.032 170.741ZM197.693 126.932C197.645 127.278 197.58 127.654 197.54 128.016C197.927 127.872 198.321 127.743 198.701 127.606C198.362 127.391 198.022 127.149 197.693 126.932ZM197.451 128.813C197.58 129.087 197.701 129.345 197.83 129.616C198.162 128.972 198.089 128.908 198.129 128.169C197.911 128.387 197.669 128.604 197.451 128.813ZM197.297 129.858C197.798 131.128 197.758 130.285 197.661 131.321C198.016 131.361 198.372 131.418 198.717 131.466C199.267 130.478 198.588 130.172 197.297 129.858ZM197.071 134.191C197.192 134.449 197.321 134.714 197.459 134.986C197.927 134.183 197.798 134.785 197.346 134.046C197.249 134.094 197.16 134.151 197.071 134.191ZM199.329 133.45C199.16 133.096 198.998 132.742 198.828 132.39C198.998 132.309 199.184 132.221 199.354 132.14C198.764 132.092 199.184 131.923 198.828 132.39C198.731 132.43 198.651 132.478 198.554 132.518C198.457 132.768 198.368 133.026 198.271 133.289C198.36 133.466 198.441 133.652 198.529 133.829C198.79 133.692 199.057 133.571 199.329 133.45ZM198.402 150.71C198.588 150.629 198.774 150.557 198.944 150.46C198.024 149.746 198.935 150.082 197.766 150.042C197.966 150.259 198.192 150.485 198.402 150.71ZM197.814 147.429C197.766 147.784 197.717 148.122 197.661 148.474C197.99 147.735 197.855 148.385 197.814 147.429ZM199.83 200.571C199.475 200.506 199.121 200.45 198.774 200.41C198.944 200.539 199.121 200.676 199.291 200.812C199.475 200.732 199.653 200.651 199.83 200.571ZM197.934 202.748C198.338 202.451 198.731 202.145 199.135 201.857C198.457 201.126 198.378 200.233 196.95 199.325C196.812 199.494 196.683 199.663 196.538 199.832C196.521 200.708 196.505 201.593 196.473 202.453C197.451 202.428 197.152 202.34 197.934 202.748ZM196.554 210.827C196.683 211.101 196.804 211.358 196.934 211.63C197.257 210.98 197.184 210.932 197.233 210.191C197.006 210.41 196.78 210.618 196.554 210.827ZM196.402 211.873C196.903 213.143 196.863 212.3 196.766 213.328C197.13 213.385 197.467 213.441 197.822 213.489C198.378 212.483 197.693 212.193 196.402 211.873ZM196.16 216.204C196.297 216.462 196.418 216.72 196.54 216.983C197.024 216.196 196.903 216.798 196.435 216.068C196.346 216.108 196.257 216.164 196.16 216.204ZM199.186 217.042C199.517 216.414 199.444 216.357 199.485 215.619C199.267 215.828 199.024 216.045 198.806 216.247C198.935 216.518 199.057 216.784 199.186 217.042ZM198.822 215.603C198.491 216.214 198.685 215.699 198.54 216.381C198.636 216.124 198.725 215.86 198.822 215.603ZM199.016 212.588C199.202 212.507 199.388 212.435 199.566 212.346C199.21 212.282 198.855 212.234 198.509 212.185C198.677 212.314 198.855 212.451 199.016 212.588ZM198.434 215.458C198.257 215.112 198.103 214.759 197.925 214.413C198.103 214.333 198.289 214.236 198.459 214.164C197.869 214.115 198.289 213.938 197.925 214.413C197.837 214.453 197.756 214.494 197.659 214.534C197.562 214.792 197.473 215.049 197.376 215.313C197.465 215.482 197.546 215.667 197.626 215.852C197.895 215.715 198.16 215.595 198.434 215.458ZM198.2 217.082C196.635 218.078 197.435 218.175 196.618 219.549C197.111 219.831 197.626 220.113 198.136 220.384C198.144 219.284 198.168 218.191 198.2 217.082ZM197.515 232.731C197.693 232.643 197.863 232.57 198.049 232.482C197.13 231.759 198.041 232.104 196.871 232.055C197.079 232.273 197.305 232.498 197.515 232.731ZM196.917 229.445C196.869 229.799 196.82 230.137 196.772 230.489C197.095 229.749 196.95 230.393 196.917 229.445ZM196.869 226.792C196.764 226.414 196.659 226.014 196.538 225.627C196.303 225.941 196.029 226.271 195.812 226.583C196.152 226.664 196.507 226.736 196.869 226.792ZM196.532 222.852C195.249 221.719 195.821 222.53 195.233 220.946C193.99 221.453 194.257 221.373 193.312 222.232C195.918 223.101 194.683 223.584 196.532 222.852ZM193.166 3.56023C193.239 3.51192 193.328 3.47167 193.425 3.42337C193.506 3.12551 193.586 2.83571 193.659 2.54791C193.594 2.45131 193.546 2.34666 193.497 2.25006C193.287 2.47546 193.077 2.71697 192.851 2.94237C192.964 3.15168 193.053 3.35293 193.166 3.56023ZM180.935 2.33861C180.789 2.28226 180.652 2.21785 180.531 2.16955C180.385 2.35471 180.264 2.53986 180.137 2.73307C180.466 2.70087 180.765 2.68476 181.096 2.64451C181.04 2.53986 180.983 2.45131 180.935 2.33861ZM184.67 0.539385C184.565 1.07875 184.468 1.6161 184.363 2.13936C184.549 2.16955 184.735 2.20981 184.896 2.24201C185.365 1.78516 185.823 1.31019 186.284 0.843281C185.734 0.754729 185.203 0.650076 184.67 0.539385ZM189.698 2.58816C189.649 2.49156 189.585 2.38691 189.528 2.29031C189.278 2.41911 189.019 2.54791 188.738 2.68477C189.051 2.64452 189.375 2.62036 189.698 2.58816ZM188.502 0.883533C188.389 1.07674 188.26 1.26189 188.13 1.44705C187.357 1.93006 187.405 2.05886 186.573 2.97457C187.761 3.87418 187.05 3.35897 188.359 3.24828C187.89 1.70465 188.898 3.07923 188.502 0.883533ZM186.47 225.899C187.043 225.81 187.623 225.746 188.189 225.681C188.124 225.11 188.043 224.54 187.971 223.969C187.421 223.864 186.89 223.759 186.365 223.655C186.316 223.824 186.3 224.017 186.244 224.186C186.324 224.75 186.413 225.337 186.47 225.899ZM184.928 3.03093C184.314 3.34488 183.71 3.65079 183.08 3.94664C183.862 3.95469 184.63 3.94664 185.403 3.95469C185.244 3.64073 185.09 3.34287 184.928 3.03093ZM185.341 5.13605C185.276 5.0314 185.211 4.9348 185.171 4.82209C185.025 4.77379 184.896 4.70939 184.759 4.65304C184.638 4.84625 184.508 5.03945 184.371 5.2246C184.686 5.1924 185.017 5.1602 185.341 5.13605ZM184.155 244.901C184.042 244.628 183.929 244.354 183.824 244.074C183.266 244.813 183.468 244.332 183.339 245.231C183.613 245.119 183.888 245.014 184.155 244.901ZM184.001 221.542C184.106 221.01 184.203 220.473 184.3 219.942C183.985 219.692 183.654 219.443 183.341 219.203C183.064 221.069 182.153 219.944 184.001 221.542ZM183.533 6.42207C183.775 6.10007 184.009 5.77806 184.274 5.45806C183.733 5.35341 183.193 5.25681 182.66 5.1441C182.961 5.57881 183.25 5.99743 183.533 6.42207ZM181.258 3.76953C181.733 3.30463 182.185 2.83772 182.646 2.37081C181.363 3.11948 182.266 2.30641 181.258 3.76953ZM181.331 4.44575C181.282 4.54235 181.242 4.62285 181.193 4.71744C180.773 4.74159 181.266 4.57455 180.305 5.80422C180.49 5.82837 180.66 5.86862 180.846 5.90887C181.307 5.44196 181.765 4.9831 182.234 4.51015C181.725 4.65505 181.452 4.68725 181.282 4.70335C181.307 4.6148 181.323 4.5665 181.331 4.44575ZM180.345 246.453C180.798 246.485 181.216 246.525 181.66 246.55C181.587 246.155 181.531 245.747 181.474 245.352C180.612 245.57 180.806 245.497 180.232 246.179C180.272 246.276 180.305 246.356 180.345 246.453ZM182.08 225.601C181.547 225.496 181 225.4 180.482 225.295C180.337 226.01 180.2 226.718 180.07 227.432C181.525 226.744 181.064 227.056 182.08 225.601ZM180.991 220.425C180.563 220.706 180.137 221.004 179.717 221.284C180.87 220.739 180.048 221.31 180.991 220.425ZM177.24 247.401C177.507 247.304 177.782 247.176 178.054 247.071C177.281 246.556 177.893 246.709 177.143 247.135C177.176 247.224 177.208 247.312 177.24 247.401ZM175.222 247.916C175.489 247.795 175.764 247.691 176.044 247.578C175.729 247.602 175.422 247.626 175.109 247.65C175.158 247.739 175.174 247.828 175.222 247.916ZM175.044 246.719C175.416 246.566 175.77 246.405 176.133 246.276C176.972 245.529 177.101 245.817 178.198 245.103C177.448 244.845 176.157 245.682 174.713 245.89C174.828 246.171 174.939 246.445 175.044 246.719ZM174.408 246.662C173.626 246.147 174.23 246.308 173.473 246.719C173.634 246.864 173.804 247.017 173.974 247.161C174.125 246.992 174.255 246.831 174.408 246.662ZM172.843 249.854C173.206 249.701 173.568 249.556 173.931 249.403C173.802 249.13 173.713 248.856 173.6 248.576C173.22 248.729 172.875 248.874 172.503 249.035C172.624 249.299 172.713 249.564 172.843 249.854ZM173.028 247.224C172.964 247.039 172.883 246.854 172.818 246.676C172.713 246.926 172.592 247.184 172.487 247.447C172.673 247.361 172.843 247.288 173.028 247.224ZM172.883 4.79794C172.576 4.83014 172.245 4.86235 171.915 4.87845C172.77 5.52246 172.172 5.42586 172.883 4.79794ZM170.479 247.948C170.794 247.707 171.126 247.465 171.463 247.226C171.091 247.387 170.722 247.532 170.366 247.685C170.398 247.779 170.431 247.852 170.479 247.948ZM168.251 123.303C168.146 122.909 168.033 122.524 167.92 122.13C167.564 122.057 167.203 121.993 166.847 121.92C167.324 122.385 167.784 122.836 168.251 123.303ZM164.775 243.293C165.082 243.277 165.381 243.253 165.702 243.237C164.96 242.667 165.516 242.748 164.775 243.293ZM165.621 247.707C165.653 247.803 165.686 247.884 165.734 247.973C165.952 247.779 166.195 247.578 166.429 247.377C165.564 247.208 166.275 247.129 165.621 247.707ZM165.187 249.79C165.453 249.677 165.736 249.572 166.009 249.46C165.379 249.098 165.324 249.178 164.581 249.089C164.791 249.331 164.993 249.564 165.187 249.79ZM164.072 1.12504C164.16 0.843279 164.233 0.545423 164.298 0.257628C164.12 0.354231 163.958 0.434733 163.765 0.523285C163.896 0.714477 163.991 0.931832 164.072 1.12504ZM163.403 1.09284C163.217 0.931833 163.007 0.770829 162.821 0.609824C162.708 0.794979 162.571 0.996235 162.441 1.17334C163.322 1.7449 162.676 1.5839 163.403 1.09284ZM161.53 249.379C161.466 249.202 161.385 249.017 161.32 248.84C161.231 249.186 161.159 249.53 161.102 249.876C161.248 249.709 161.385 249.548 161.53 249.379ZM159.591 2.96853C160.316 2.75923 161.199 2.242 162.201 2.05685C162.072 1.75094 161.918 1.43698 161.74 1.14114C161.409 1.31019 161.04 1.49535 160.7 1.6644C160.219 2.18364 159.957 2.27018 159.591 2.45131V2.96853ZM140.591 220.425C140.162 220.706 139.736 221.004 139.316 221.284C140.469 220.739 139.647 221.31 140.591 220.425ZM136.839 247.401C137.106 247.304 137.381 247.176 137.654 247.071C136.88 246.556 137.492 246.709 136.742 247.135C136.775 247.224 136.807 247.312 136.839 247.401ZM134.821 247.916C135.088 247.795 135.363 247.691 135.644 247.578C135.328 247.602 135.021 247.626 134.708 247.65C134.757 247.739 134.773 247.828 134.821 247.916ZM133.571 247.161C133.725 246.992 133.854 246.831 134.007 246.662C133.226 246.147 133.83 246.308 133.072 246.719C133.232 246.864 133.401 247.017 133.571 247.161ZM130.078 247.948C130.394 247.707 130.725 247.465 131.062 247.226C130.69 247.387 130.321 247.532 129.965 247.685C129.998 247.779 130.03 247.852 130.078 247.948ZM125.234 235.726V236.046C125.255 235.943 125.271 235.841 125.293 235.738C125.273 235.734 125.255 235.73 125.234 235.726ZM125.22 247.707C125.253 247.803 125.285 247.884 125.333 247.973C125.551 247.779 125.794 247.578 126.028 247.377C125.164 247.208 125.875 247.129 125.22 247.707ZM125.218 249.615C125.349 249.562 125.479 249.512 125.608 249.458C125.448 249.365 125.325 249.303 125.218 249.259V249.615ZM125.301 243.237C125.269 243.213 125.253 243.197 125.226 243.175V243.205C124.891 243.223 124.897 243.169 124.863 243.263C125.008 243.255 125.149 243.245 125.301 243.237ZM109.292 244.95C109.333 244.934 109.373 244.917 109.413 244.901C109.367 244.791 109.325 244.676 109.278 244.563C109.302 244.738 109.308 244.867 109.292 244.95ZM108.826 244.885C108.763 244.891 108.7 244.893 108.638 244.899C108.636 244.921 108.634 244.94 108.632 244.966C108.696 244.94 108.761 244.911 108.826 244.885ZM106.47 246.155C106.608 246.183 106.737 246.209 106.872 246.238C106.854 246.127 106.838 246.016 106.82 245.906C106.723 245.91 106.593 245.91 106.381 245.892C106.406 245.978 106.438 246.067 106.47 246.155ZM105.604 246.453C105.808 246.467 106.002 246.481 106.197 246.497C106.206 246.425 106.208 246.348 106.22 246.278C106.139 246.101 106.074 245.916 106.002 245.731C105.882 245.809 105.787 245.869 105.697 245.928C105.636 246.004 105.585 246.069 105.49 246.181C105.531 246.276 105.563 246.356 105.604 246.453ZM105.058 221.248V221.23C105.03 221.248 105.002 221.268 104.975 221.286C105.01 221.268 105.028 221.262 105.058 221.248ZM104.466 228.938C104.539 228.576 104.62 228.223 104.684 227.869C104.329 227.797 103.959 227.724 103.596 227.668C104.159 228.841 103.604 227.998 104.466 228.938ZM102.499 247.401C102.765 247.304 103.04 247.176 103.313 247.071C102.539 246.556 103.151 246.709 102.402 247.135C102.434 247.224 102.466 247.312 102.499 247.401ZM100.481 247.916C100.747 247.795 101.022 247.691 101.303 247.578C100.988 247.602 100.681 247.626 100.368 247.65C100.416 247.739 100.432 247.828 100.481 247.916ZM99.2304 247.161C99.3839 246.992 99.5132 246.831 99.6667 246.662C98.8849 246.147 99.4889 246.308 98.7314 246.719C98.891 246.864 99.0607 247.017 99.2304 247.161ZM98.287 247.224C98.2224 247.039 98.1416 246.854 98.0769 246.676C97.9719 246.926 97.8507 247.184 97.7457 247.447C97.9315 247.361 98.1012 247.288 98.287 247.224ZM95.7377 247.948C96.0529 247.707 96.3841 247.465 96.7215 247.226C96.3498 247.387 95.9801 247.532 95.6246 247.685C95.6569 247.779 95.6892 247.852 95.7377 247.948ZM90.0331 243.293C90.3402 243.277 90.6391 243.253 90.9603 243.237C90.219 242.667 90.7745 242.748 90.0331 243.293ZM90.8795 247.707C90.9119 247.803 90.9442 247.884 90.9927 247.973C91.2108 247.779 91.4532 247.578 91.6875 247.377C90.823 247.208 91.534 247.129 90.8795 247.707ZM90.4452 249.79C90.7119 249.677 90.9947 249.572 91.2674 249.46C90.6371 249.098 90.5826 249.178 89.8392 249.089C90.0493 249.331 90.2513 249.564 90.4452 249.79ZM86.789 249.379C86.7243 249.202 86.6435 249.017 86.5789 248.84C86.49 249.186 86.4173 249.53 86.3607 249.876C86.5061 249.709 86.6435 249.548 86.789 249.379ZM82.7974 248.776C82.9509 248.717 83.1105 248.659 83.3044 248.59C83.1387 248.339 82.967 248.089 82.7974 247.838V248.776ZM63.8292 220.425C63.4009 220.706 62.9747 221.004 62.5546 221.284C63.708 220.739 62.8858 221.31 63.8292 220.425ZM62.0455 228.938C62.1182 228.576 62.199 228.223 62.2637 227.869C61.9081 227.797 61.5385 227.724 61.1749 227.668C61.7385 228.841 61.1829 227.998 62.0455 228.938ZM60.078 247.401C60.3446 247.304 60.6194 247.176 60.8921 247.071C60.1184 246.556 60.7305 246.709 59.981 247.135C60.0133 247.224 60.0457 247.312 60.078 247.401ZM58.06 247.916C58.3266 247.795 58.6013 247.691 58.8821 247.578C58.567 247.602 58.2599 247.626 57.9468 247.65C57.9953 247.739 58.0115 247.828 58.06 247.916ZM56.8096 247.161C56.9631 246.992 57.0924 246.831 57.2459 246.662C56.4641 246.147 57.0681 246.308 56.3106 246.719C56.4702 246.864 56.6399 247.017 56.8096 247.161ZM53.0301 244.925C53.0281 244.919 53.026 244.915 53.024 244.909C53.0038 244.934 52.9876 244.958 52.9674 244.982C52.9876 244.962 53.0099 244.944 53.0301 244.925ZM46.8912 1.08881C46.9013 1.08076 46.9174 1.06869 46.9255 1.06064C47.0063 0.799005 47.075 0.525298 47.1356 0.257628C46.9578 0.354231 46.7962 0.434733 46.6023 0.523285C46.7255 0.704415 46.8144 0.90567 46.8912 1.08881ZM46.2407 1.09284C46.1013 0.972084 45.9519 0.851331 45.8064 0.73259C45.8084 0.758753 45.8084 0.784916 45.8125 0.81108C45.6751 0.865418 45.5519 0.919758 45.4185 0.970072C45.4024 0.994223 45.3862 1.01837 45.368 1.04454C45.3822 1.0868 45.3903 1.11296 45.4085 1.16529C45.3741 1.15724 45.3357 1.1512 45.3014 1.14516C45.2953 1.15523 45.2893 1.16529 45.2812 1.17334C46.1599 1.7449 45.5135 1.5839 46.2407 1.09284ZM44.1035 2.32452C44.0975 2.31446 44.0914 2.30238 44.0853 2.29031C43.9722 2.34867 43.845 2.41106 43.7258 2.46942C43.849 2.41911 43.9742 2.37081 44.1035 2.32452ZM42.8147 2.83973C42.7137 2.27018 42.9986 2.42716 43.1076 2.05484C42.6551 2.39898 42.3663 2.36075 41.5603 3.01483C41.9138 3.13357 42.338 3.02288 42.8147 2.83973ZM39.116 2.17559C39.1726 2.08301 39.2251 1.99245 39.3181 1.84754C39.2534 1.73484 39.2049 1.64629 39.1484 1.54164C39.11 1.53962 39.0736 1.53761 39.0352 1.53359C38.9969 1.73484 38.9585 1.93811 38.9201 2.13534C38.9888 2.14943 39.0494 2.16352 39.116 2.17559ZM36.2314 3.34891C36.2314 3.28451 36.2314 3.20199 36.2334 3.11143C36.1526 3.25432 36.0335 3.45155 35.8133 3.76953C35.9587 3.63067 36.092 3.48979 36.2314 3.34891ZM32.757 245.103C32.6762 245.074 32.5671 245.101 32.4742 245.097C32.3934 245.197 32.2661 245.233 32.1732 245.435C32.3368 245.354 32.5166 245.26 32.757 245.103ZM33.0903 2.54389C33.3892 2.03673 33.672 1.54767 33.9367 1.04051C33.3387 1.29007 32.7428 1.54767 32.1287 1.79522C32.46 2.05484 32.7751 2.30238 33.0903 2.54389ZM29.7087 246.155C30.0016 246.214 30.2784 246.272 30.5592 246.33C30.5976 246.316 30.6339 246.298 30.6723 246.284C29.9754 245.64 30.7288 245.99 29.6198 245.89C29.6441 245.978 29.6764 246.067 29.7087 246.155ZM29.4522 246.342C29.4542 246.32 29.4562 246.298 29.4582 246.276C29.3997 246.149 29.3512 246.016 29.3007 245.883C29.2906 245.885 29.2805 245.89 29.2704 245.892C29.333 246.044 29.3916 246.191 29.4522 246.342ZM18.4369 236.501C18.946 236.783 19.4368 237.064 19.9459 237.336C20.0428 236.805 20.1317 236.276 20.2529 235.736C19.7115 235.632 19.1722 235.535 18.6389 235.422C18.5561 235.787 18.5015 236.141 18.4369 236.501ZM19.3318 243.293C19.6388 243.277 19.9378 243.253 20.259 243.237C19.5176 242.667 20.0731 242.748 19.3318 243.293ZM28.4704 247.109C28.5128 247.101 28.5553 247.093 28.5957 247.085C28.7209 246.944 28.834 246.805 28.9653 246.662C28.1836 246.147 28.7876 246.308 28.0301 246.719C28.1715 246.845 28.3209 246.98 28.4704 247.109ZM27.3998 249.854C27.6968 249.729 27.9917 249.609 28.2886 249.486V248.902C28.2482 248.794 28.2018 248.687 28.1573 248.574C27.7776 248.727 27.4321 248.872 27.0604 249.033C27.1816 249.299 27.2705 249.564 27.3998 249.854ZM27.5857 247.224C27.521 247.039 27.4402 246.854 27.3756 246.676C27.2705 246.926 27.1493 247.184 27.0443 247.447C27.2301 247.361 27.3998 247.288 27.5857 247.224ZM25.0364 247.948C25.3515 247.707 25.6828 247.465 26.0201 247.226C25.6484 247.387 25.2788 247.532 24.9232 247.685C24.9556 247.779 24.9879 247.852 25.0364 247.948ZM23.0668 247.803C23.6648 247.441 24.2607 247.095 24.8667 246.743C24.7051 245.65 24.6243 246.195 24.9556 245.433C24.8505 245.159 24.7536 244.893 24.6243 244.614C23.8668 245.137 23.1396 245.658 22.4063 246.165C22.6406 246.495 22.883 246.825 23.1173 247.153C23.0991 247.369 23.083 247.586 23.0668 247.803ZM20.0085 221.165C20.3398 221.423 20.6549 221.672 20.968 221.912C21.267 221.405 21.5498 220.916 21.8144 220.409C21.2205 220.658 20.6226 220.916 20.0085 221.165ZM20.1782 247.707C20.2105 247.803 20.2428 247.884 20.2913 247.973C20.5095 247.779 20.7519 247.578 20.9862 247.377C20.1216 247.208 20.8327 247.129 20.1782 247.707ZM19.7439 249.79C20.0105 249.677 20.2933 249.572 20.566 249.46C19.9358 249.098 19.8812 249.178 19.1379 249.089C19.3479 249.331 19.5499 249.564 19.7439 249.79ZM16.0876 249.379C16.023 249.202 15.9421 249.017 15.8775 248.84C15.7886 249.186 15.7159 249.53 15.6594 249.876C15.8048 249.709 15.9422 249.548 16.0876 249.379ZM20.0166 248.093C19.5075 247.586 16.9825 247.017 16.2977 246.759C15.1685 247.82 14.9099 246.703 14.3524 248.19C16.1846 247.739 17.4754 248.767 20.0166 248.093ZM2.14731 205.401C2.19579 205.723 2.25235 206.013 2.30083 206.317C2.40587 206.26 2.50285 206.212 2.59981 206.156C2.45234 205.924 2.29881 205.651 2.14731 205.401ZM6.10052 197.91C5.49653 196.689 5.57532 197.548 5.63188 196.455C5.23595 196.471 4.84205 196.463 4.44612 196.479C3.85627 197.604 4.64004 197.798 6.10052 197.91ZM5.22786 199.798C5.47026 199.548 5.72077 199.291 5.95308 199.027C5.79148 198.778 5.64601 198.512 5.50056 198.264C5.16322 198.979 5.24402 199.043 5.22786 199.798ZM4.29259 195.54C4.39763 195.475 4.48651 195.411 4.59155 195.379C4.68851 195.073 4.77739 194.791 4.88243 194.503C4.76931 194.334 4.68852 194.165 4.57539 193.996C4.29259 194.165 3.99362 194.35 3.69667 194.511C3.90473 194.855 4.09866 195.209 4.29259 195.54C4.10674 195.66 3.89666 195.757 3.71082 195.902C4.37339 195.835 3.9209 196.077 4.29259 195.54ZM3.72697 197.942C3.52497 197.83 3.32297 197.717 3.12904 197.604C2.93512 197.725 2.73313 197.83 2.53113 197.951C2.93716 197.959 3.33307 197.951 3.72697 197.942ZM1.96147 199.679C1.2686 197.862 2.30891 196.31 1.31505 193.859C0.797918 194.487 0.40401 197.204 0.161606 197.967C1.45241 198.89 0.242419 199.414 1.96147 199.679ZM0.428253 193.014C0.323211 193.938 0.169699 193.223 0.880753 193.777C0.977714 193.712 1.08274 193.664 1.1797 193.607C0.927198 193.416 0.670658 193.215 0.428253 193.014ZM1.99379 184.871C1.71098 185.048 1.41201 185.217 1.11507 185.402C1.31707 185.732 1.51099 186.079 1.713 186.415C2.01196 186.254 2.30284 186.068 2.60786 185.891C2.40384 185.555 2.19377 185.201 1.99379 184.871ZM2.79977 192.984C2.46041 193.714 2.5493 193.746 2.51698 194.535C2.75939 194.27 3.00987 194.012 3.25026 193.748C3.10684 193.497 2.9533 193.239 2.79977 192.984ZM3.26036 194.437C3.62397 193.754 3.42195 194.308 3.54315 193.585C3.44619 193.875 3.34924 194.157 3.26036 194.437ZM4.17139 176.392C3.97746 176.521 3.77547 176.626 3.58154 176.746C4.62994 177.35 3.5977 177.125 4.91275 176.988C4.66429 176.793 4.41379 176.593 4.17139 176.392ZM4.92889 179.727C4.96929 179.34 5.01779 178.98 5.07436 178.602C4.73701 179.431 4.86627 178.739 4.92889 179.727ZM5.76115 192.613C5.2521 193.521 5.36524 192.871 5.92278 193.569C6.01166 193.497 6.11668 193.44 6.22173 193.392C6.06012 193.143 5.91468 192.887 5.76115 192.613ZM8.5367 86.7249C9.16695 87.858 8.56092 87.0469 9.4962 87.9224C9.17299 87.544 8.8599 87.1193 8.5367 86.7249ZM11.2718 245.328C11.393 245.376 11.5223 245.441 11.6516 245.489C11.7809 245.328 11.9344 245.151 12.0798 244.982C11.7647 245.014 11.4658 245.03 11.1526 245.054C11.1829 245.143 11.2395 245.231 11.2718 245.328ZM11.7304 242.587C11.3991 242.885 11.3991 242.579 11.1486 243.462C11.3365 243.173 11.5466 242.877 11.7304 242.587ZM9.18918 246.469C9.22958 246.574 9.26189 246.67 9.31845 246.751C9.5851 246.638 9.85174 246.534 10.1325 246.421C10.0032 246.147 9.91435 245.873 9.78506 245.602C9.60124 245.898 9.39926 246.187 9.18918 246.469ZM10.1426 248.013C9.94062 247.779 9.72244 247.538 9.52852 247.306C9.47196 247.661 9.39117 247.997 9.31036 248.351C9.59317 248.23 9.85982 248.117 10.1426 248.013ZM8.48822 247.089C9.08615 247.459 8.58519 247.242 9.2619 247.419C8.9892 247.312 8.73871 247.194 8.48822 247.089ZM8.01147 248.246C8.2862 248.134 8.55286 248.021 8.81749 247.908C8.51044 247.932 8.20338 247.948 7.90643 247.973C7.94683 248.061 7.97107 248.15 8.01147 248.246ZM7.49637 244.644C8.12662 244.378 8.76294 244.12 9.40128 243.857C8.65992 243.849 7.91653 243.833 7.1671 243.817C7.27012 244.098 7.38325 244.364 7.49637 244.644ZM8.30235 242.724C7.98723 242.74 7.6883 242.756 7.38327 242.788C7.41559 242.877 7.44789 242.957 7.48021 243.054C7.60949 243.11 7.73877 243.158 7.86806 243.223C8.01956 243.054 8.15691 242.893 8.30235 242.724ZM6.14902 248.359C6.32678 248.295 6.52069 248.222 6.69037 248.142C6.58533 247.868 6.48837 247.594 6.36717 247.314C6.09245 247.435 5.82579 247.54 5.55309 247.653C5.75307 247.892 5.94701 248.133 6.14902 248.359ZM4.29259 248.488C4.22795 248.311 4.13907 248.117 4.07443 247.94C4.00979 248.295 3.929 248.641 3.85628 248.985C4.00172 248.816 4.15522 248.655 4.29259 248.488ZM2.88058 248.117C3.15531 248.005 3.42195 247.9 3.71082 247.779C2.92098 247.272 3.54114 247.417 2.77554 247.844C2.79978 247.94 2.8321 248.021 2.88058 248.117ZM3.78354 244.885C3.47649 244.917 3.16946 244.925 2.87251 244.95C2.90483 245.046 2.94523 245.135 2.9614 245.223C3.2442 245.111 3.51083 244.998 3.78354 244.885ZM1.42818 246.155C1.79178 246.228 2.13922 246.3 2.48465 246.373C1.59785 245.594 2.5008 245.994 1.33928 245.89C1.36352 245.978 1.39586 246.067 1.42818 246.155ZM2.14731 225.265C2.18771 224.903 2.23619 224.55 2.28467 224.18C1.89682 224.309 1.51907 224.454 1.12314 224.591C1.46857 224.814 1.80794 225.048 2.14731 225.265Z" fill="#E0E0E0"/>
<path d="M190.643 4.67136C190.643 7.25127 192.738 9.3427 195.322 9.3427C197.905 9.3427 200 7.25127 200 4.67136C200 2.09145 197.905 2.18416e-05 195.322 2.18416e-05C192.738 2.18416e-05 190.643 2.09145 190.643 4.67136Z" fill="#E0E0E0"/>
<path d="M0.0282745 245.237C0.0282745 247.817 2.12285 249.908 4.70663 249.908C7.29042 249.908 9.38501 247.817 9.38501 245.237C9.38501 242.657 7.29042 240.565 4.70663 240.565C2.12285 240.565 0.0282745 242.657 0.0282745 245.237Z" fill="#E0E0E0"/>
<path d="M190.607 245.236C190.607 247.816 192.701 249.908 195.285 249.908C197.869 249.908 199.963 247.816 199.963 245.236C199.963 242.656 197.869 240.565 195.285 240.565C192.701 240.565 190.607 242.656 190.607 245.236Z" fill="#E0E0E0"/>
<path fill-rule="evenodd" clip-rule="evenodd" d="M151.989 128.087C151.989 128.087 149.616 128.575 147.312 127.739C151.92 124.671 151.989 121.255 151.989 121.255C151.989 121.255 148.499 121.883 146.545 120.837C151.011 117.003 151.291 111.216 151.291 111.216C151.291 111.216 149.407 112.053 146.405 112.193C151.011 107.034 148.988 102.293 148.988 102.293C148.988 102.293 145.916 104.454 142.008 105.988C145.01 98.2496 143.543 93.0215 143.543 93.0215C143.543 93.0215 140.123 96.8554 137.471 98.2496C138.936 89.3268 136.493 85.3531 136.493 85.3531C136.493 85.3531 135.726 88.0725 132.445 90.3724C132.095 80.8915 130.072 80.3339 130.072 80.3339C130.072 80.3339 129.164 82.7035 127.838 84.2375C127.279 75.1053 124.976 74.8262 124.976 74.8262C124.976 74.8262 124.906 76.3602 123.999 79.0088C123.859 73.2928 120.02 70.0861 120.159 71.062C120.276 71.8746 119.86 78.4397 119.717 80.6136C119.673 80.6098 119.628 80.6027 119.581 80.5919C118.813 73.3419 113.957 74.5404 113.957 74.5404C113.957 74.5404 126.84 102.552 130.121 120.607C131.377 133.016 129.143 137.547 125.863 138.662C125.533 138.794 125.223 138.879 124.932 138.924C124.19 138.745 123.411 138.526 122.594 138.267C122.158 137.865 121.895 137.355 121.813 136.92C121.65 136.047 121.529 132.444 121.417 129.114C121.386 128.187 121.355 127.282 121.325 126.463C116.09 126.463 113.995 129.182 113.995 129.182L113.589 129.491L106.937 120.597L110.263 113.276L109.449 91.5269L107.007 89.7834C107.007 89.7834 101.039 107.953 101.422 107.979C102.468 108.048 103.237 108.745 103.237 110.489C103.237 112.928 100.492 112.905 100.492 112.905C100.492 112.905 97.7453 112.928 97.7453 110.489C97.7453 108.745 98.5128 108.048 99.5605 107.979C99.9443 107.953 93.9761 89.7834 93.9761 89.7834L91.5331 91.5269L90.7189 113.276L94.0457 120.597L87.5237 129.316L87.3533 129.187C87.3549 129.185 85.2611 126.466 80.0259 126.466C79.996 127.276 79.966 128.169 79.9353 129.084L79.9353 129.085L79.9353 129.085L79.9353 129.085L79.9353 129.085C79.8232 132.424 79.7017 136.048 79.5369 136.923C79.4693 137.283 79.278 137.694 78.9678 138.052C77.9798 138.384 77.0457 138.659 76.1634 138.878C75.9482 138.829 75.7232 138.76 75.4886 138.666C72.2079 137.551 69.9738 133.019 71.2304 120.61C74.5105 102.555 87.3933 74.5438 87.3933 74.5438C87.3933 74.5438 82.5385 73.3453 81.7699 80.5954C81.5323 80.6503 81.3329 80.6094 81.1681 80.5192C81.0199 78.2522 80.6175 71.867 80.7318 71.0664C80.8716 70.0905 77.0322 73.2972 76.8929 79.0132C75.9856 76.3646 75.916 74.8306 75.916 74.8306C75.916 74.8306 73.6122 75.1097 73.0536 84.2419C71.7273 82.7079 70.82 80.3383 70.82 80.3383C70.82 80.3383 68.7959 80.8959 68.4466 90.3768C65.1665 88.0769 64.3984 85.3575 64.3984 85.3575C64.3984 85.3575 61.9548 89.3313 63.4208 98.254C60.7684 96.8593 57.3484 93.0254 57.3484 93.0254C57.3484 93.0254 55.8824 98.2534 58.8841 105.991C54.9751 104.458 51.9038 102.297 51.9038 102.297C51.9038 102.297 49.8796 107.037 54.4866 112.197C51.4844 112.057 49.6006 111.22 49.6006 111.22C49.6006 111.22 49.8796 117.007 54.3468 120.841C52.3928 121.886 48.9021 121.259 48.9021 121.259C48.9021 121.259 48.9723 124.675 53.5787 127.743C51.2749 128.579 48.9021 128.091 48.9021 128.091C48.9021 128.091 48.2738 132.971 56.5107 136.108C55.3238 137.223 51.4844 137.014 51.4844 137.014C51.4844 137.014 50.1587 139.384 57.0694 142.173C55.3939 143.009 53.7887 142.87 53.7887 142.87C53.7887 142.87 59.0239 151.514 71.0996 151.305C71.5317 151.297 71.9368 151.29 72.3163 151.284C72.0291 151.901 71.7516 152.537 71.4899 153.188C70.3278 153.968 69.0629 154.807 68.3085 155.278C67.7264 155.641 68.8282 155.845 70.5146 155.956C70.1522 157.159 69.8646 158.393 69.6848 159.636C68.5276 167.645 68.6373 172.373 68.6923 174.745L68.6923 174.745L68.6924 174.747L68.6924 174.748L68.6924 174.749C68.6993 175.045 68.7053 175.305 68.7079 175.529C68.7216 176.696 70.6016 178.324 72.6863 178.489L72.6862 178.49C72.6862 178.491 72.6886 178.491 72.6921 178.491C72.6982 178.492 72.7077 178.493 72.7136 178.493C73.189 178.509 73.6095 178.469 73.9872 178.39C76.1643 177.936 76.7581 175.553 76.7581 175.553C76.7581 175.553 76.7115 163.749 80.1199 157.056C80.3103 156.683 80.5162 156.295 80.7363 155.896L81.9895 156.952C81.9895 156.952 81.9204 157.16 83.1068 156.533C84.2932 155.905 83.3162 157.369 82.6879 157.718C82.0596 158.067 85.41 159.6 85.41 159.6C85.41 159.6 90.995 156.952 94.9034 150.119C96.8395 146.736 98.0049 141.83 98.7221 137.385L98.287 140.136L98.9033 140.233L99.8179 134.449L99.2017 134.352L98.8027 136.875C99.2287 134.127 99.4852 131.587 99.6504 129.736C100.129 129.149 100.398 128.823 100.398 128.823L100.243 128.608L99.7995 127.997L99.7996 127.996L100.243 128.608C100.34 128.496 100.398 128.427 100.398 128.427V128.404H100.585V128.427L100.643 128.495L100.739 128.608L101.103 128.106L101.103 128.107L100.74 128.608L100.585 128.823C100.585 128.823 100.817 129.103 101.232 129.612C101.665 134.505 102.746 144.446 105.989 150.116C109.899 156.948 115.482 159.596 115.482 159.596C115.482 159.596 118.833 158.063 118.205 157.714C117.577 157.366 116.599 155.901 117.786 156.529C118.972 157.156 118.903 156.948 118.903 156.948L120.216 155.842C120.448 156.26 120.664 156.666 120.863 157.056C124.271 163.749 124.224 175.553 124.224 175.553C124.224 175.553 124.818 177.936 126.995 178.39L127.01 178.393C127.422 178.494 127.839 178.522 128.249 178.493L128.268 178.493C128.278 178.493 128.297 178.491 128.297 178.49L128.297 178.489C130.38 178.323 132.261 176.696 132.275 175.529C132.277 175.305 132.283 175.045 132.29 174.749C132.346 172.378 132.456 167.65 131.298 159.636C131.118 158.389 130.829 157.152 130.465 155.946C132.102 155.834 133.156 155.631 132.584 155.275C131.856 154.82 130.652 154.022 129.524 153.265C129.253 152.586 128.964 151.924 128.665 151.282L129.065 151.288L129.793 151.301C141.869 151.51 147.104 142.866 147.104 142.866C147.104 142.866 145.498 143.005 143.823 142.169C150.733 139.38 149.408 137.01 149.408 137.01C149.408 137.01 145.569 137.22 144.382 136.104C152.617 132.967 151.989 128.087 151.989 128.087ZM100.492 112.905V112.907L100.491 112.928H100.491L100.492 112.905ZM101.474 127.596L103.516 124.78L103.516 124.779L101.473 127.596L101.474 127.596ZM99.4833 127.56L97.4668 124.779C97.4668 124.779 96.8509 125.568 95.8295 126.884C96.8506 125.568 97.4664 124.78 97.4665 124.78L99.4828 127.56L99.4833 127.56ZM125.025 91.6073L125.035 91.4706L125.096 91.5921C125.073 91.598 125.049 91.6031 125.025 91.6073ZM128.795 99.694C128.8 99.5916 128.805 99.4901 128.809 99.3896L128.912 99.6172C128.873 99.6434 128.834 99.669 128.795 99.694ZM134.171 115.798C134.415 115.378 134.639 114.968 134.846 114.567C134.903 114.743 134.96 114.918 135.017 115.092C134.743 115.322 134.46 115.558 134.171 115.798ZM79.2946 84.8234C79.145 85.1026 78.9883 85.3964 78.8251 85.704C78.9745 85.7285 79.1412 85.7039 79.3269 85.6157C79.3099 85.3404 79.2994 85.0764 79.2946 84.8234ZM76.2679 90.653C76.1414 90.9045 76.0135 91.1596 75.8844 91.4183C76.0217 91.5153 76.1688 91.5832 76.3258 91.6108C76.3009 91.2802 76.2817 90.9611 76.2679 90.653ZM72.5077 98.4615C72.3697 98.762 72.2316 99.0646 72.0935 99.3691C72.2439 99.4875 72.3982 99.5976 72.556 99.6974C72.5343 99.2689 72.5183 98.8572 72.5077 98.4615ZM69.11 106.297L69.0418 106.465L69.2057 106.599C69.173 106.498 69.1411 106.397 69.11 106.297ZM66.2298 114.019C66.1431 114.277 66.0577 114.535 65.9735 114.792C66.3596 115.117 66.7627 115.454 67.181 115.801C66.8239 115.186 66.5082 114.592 66.2298 114.019ZM76.9228 175.781C76.9306 175.767 76.9379 175.755 76.9451 175.741L76.9501 175.665L76.9451 175.705C76.9451 175.705 76.9362 175.737 76.9228 175.781ZM73.9872 178.39C73.6095 178.469 73.189 178.51 72.7137 178.493C73.1353 178.523 73.5634 178.495 73.9872 178.39ZM124.035 175.69L124.033 175.665C124.036 175.687 124.038 175.705 124.038 175.705L124.042 175.718L124.047 175.739C124.05 175.751 124.054 175.765 124.059 175.781C124.052 175.767 124.045 175.755 124.038 175.741L124.036 175.716L124.035 175.69ZM100.839 134.575H101.463V140.431H100.839V134.575Z" fill="#BEBEBE" fill-opacity="0.75"/>
</svg>
