<?xml version="1.0" encoding="UTF-8" standalone="no"?>
<svg
   xmlns:dc="http://purl.org/dc/elements/1.1/"
   xmlns:cc="http://creativecommons.org/ns#"
   xmlns:rdf="http://www.w3.org/1999/02/22-rdf-syntax-ns#"
   xmlns:svg="http://www.w3.org/2000/svg"
   xmlns="http://www.w3.org/2000/svg"
   xmlns:sodipodi="http://sodipodi.sourceforge.net/DTD/sodipodi-0.dtd"
   xmlns:inkscape="http://www.inkscape.org/namespaces/inkscape"
   version="1.1"
   x="0px"
   y="0px"
   width="33.697px"
   height="33.697px"
   viewBox="0 0 33.697 33.697"
   enable-background="new 0 0 33.697 33.697"
   xml:space="preserve"
   id="svg53"
   sodipodi:docname="retake_site_pip_arrow.svg"
   inkscape:version="1.0 (4035a4fb49, 2020-05-01)"><metadata
   id="metadata59"><rdf:RDF><cc:Work
       rdf:about=""><dc:format>image/svg+xml</dc:format><dc:type
         rdf:resource="http://purl.org/dc/dcmitype/StillImage" /><dc:title /></cc:Work></rdf:RDF></metadata><defs
   id="defs57" /><sodipodi:namedview
   inkscape:document-rotation="0"
   pagecolor="#ffffff"
   bordercolor="#666666"
   borderopacity="1"
   objecttolerance="10"
   gridtolerance="10"
   guidetolerance="10"
   inkscape:pageopacity="0"
   inkscape:pageshadow="2"
   inkscape:window-width="1900"
   inkscape:window-height="1743"
   id="namedview55"
   showgrid="false"
   inkscape:zoom="29.913643"
   inkscape:cx="16.848499"
   inkscape:cy="16.848499"
   inkscape:window-x="0"
   inkscape:window-y="0"
   inkscape:window-maximized="0"
   inkscape:current-layer="Layer_1" />
<symbol
   id="dude-transit"
   viewBox="0 -25.1 21.25 25.118">
	<path
   fill-rule="evenodd"
   clip-rule="evenodd"
   fill="#FFFFFF"
   d="M15.5-4.2l0.75-1.05l1-3.1l3.9-2.65v-0.05   c0.067-0.1,0.1-0.233,0.1-0.4c0-0.2-0.05-0.383-0.15-0.55c-0.167-0.233-0.383-0.35-0.65-0.35l-4.3,1.8l-1.2,1.65l-1.5-3.95   l2.25-5.05l-3.25-6.9c-0.267-0.2-0.633-0.3-1.1-0.3c-0.3,0-0.55,0.15-0.75,0.45c-0.1,0.133-0.15,0.25-0.15,0.35   c0,0.067,0.017,0.15,0.05,0.25c0.033,0.1,0.067,0.184,0.1,0.25l2.55,5.6L10.7-14l-3.05-4.9L0.8-18.7   c-0.367,0.033-0.6,0.184-0.7,0.45c-0.067,0.3-0.1,0.467-0.1,0.5c0,0.5,0.2,0.767,0.6,0.8l5.7,0.15l2.15,5.4l3.1,5.65L9.4-5.6   c-1.367-2-2.1-3.033-2.2-3.1C7.1-8.8,6.95-8.85,6.75-8.85C6.35-8.85,6.1-8.667,6-8.3C5.9-8,5.9-7.8,6-7.7H5.95l2.5,4.4l3.7,0.3   L14-3.5L15.5-4.2z M14.55-2.9c-0.333,0.4-0.45,0.85-0.35,1.35c0.033,0.5,0.25,0.9,0.65,1.2S15.7,0.066,16.2,0   c0.5-0.067,0.9-0.3,1.2-0.7c0.333-0.4,0.467-0.85,0.4-1.35c-0.066-0.5-0.3-0.9-0.7-1.2c-0.4-0.333-0.85-0.45-1.35-0.35   C15.25-3.533,14.85-3.3,14.55-2.9z"
   id="path44" />
</symbol>
<g
   id="Layer_1">
	<g
   id="layer1"
   transform="matrix(0.75,0,0,0.75,3.9991338,2.3516451)"
   style="fill:#ff00ff">
		<path
   id="path12"
   fill="#FFFFFF"
   d="M1.133,3.223l16,32l16-32H1.133z"
   style="fill:#ff00ff" />
	</g>
	<g
   id="layer1-8"
   transform="matrix(0.67508858,0,0,0.60103943,5.1974569,4.0806558)"
   style="fill:#ff00ff">
		<path
   id="path12-2"
   fill="#FFFFFF"
   d="M6.12,5.999l11.134,25.074l11.23-25.018L6.12,5.999z"
   style="fill:#ff00ff" />
	</g>
</g>
<g
   id="Layer_2">
</g>
</svg>
