<svg width="40" height="40" viewBox="0 0 40 40" fill="none" xmlns="http://www.w3.org/2000/svg">
<path fill-rule="evenodd" clip-rule="evenodd" d="M7 17.9197C7 12.5328 11.367 8.16583 16.7539 8.16583C19.1943 8.16583 21.4244 9.06108 23.1355 10.543L20.4012 10.7068L20.5151 12.6082L26.0037 12.2793L26.0014 12.2408L26.0022 12.2408L25.6751 6.78352L23.7738 6.89747L23.8738 8.56705C21.8983 7.06109 19.4301 6.16583 16.7539 6.16583C10.2624 6.16583 5 11.4282 5 17.9197H7Z" fill="white"/>
<path fill-rule="evenodd" clip-rule="evenodd" d="M30.5728 30.8106L29.1193 32.9086L27.6658 30.8105C25.1208 31.0801 23.2384 32.0412 23.2384 33.1855C23.2384 34.5388 25.8713 35.6358 29.1192 35.6358C32.3671 35.6358 35 34.5388 35 33.1855C35 32.0412 33.1177 31.0802 30.5728 30.8106Z" fill="white"/>
<path fill-rule="evenodd" clip-rule="evenodd" d="M29.1805 31.1282C29.1805 31.1282 23.5315 23.0093 23.5315 19.7625C23.5315 16.5158 26.0606 13.8837 29.1805 13.8837C32.3004 13.8837 34.8296 16.5158 34.8296 19.7625C34.8296 23.0093 29.1805 31.1282 29.1805 31.1282ZM29.1804 22.8033C27.3742 22.8033 25.9099 21.339 25.9099 19.5328C25.9099 17.7265 27.3742 16.2623 29.1804 16.2623C30.9867 16.2623 32.451 17.7265 32.451 19.5328C32.451 21.339 30.9867 22.8033 29.1804 22.8033Z" fill="white"/>
</svg>
