<?xml version="1.0" encoding="utf-8"?>
<!-- Generator: Adobe Illustrator 24.3.0, SVG Export Plug-In . SVG Version: 6.00 Build 0)  -->
<svg version="1.1" id="Layer_1" xmlns="http://www.w3.org/2000/svg" xmlns:xlink="http://www.w3.org/1999/xlink" x="0px" y="0px"
	 width="32px" height="32px" viewBox="0 0 32 32" enable-background="new 0 0 32 32" xml:space="preserve">
<g id="Layer_1_1_">
</g>
<path fill="#FFFFFF" d="M27.1,22.3v3.4c0,1.6-1.3,3-3,3H7.9c-1.6,0-3-1.3-3-3v-3.4h-4v4.2c0,3,2.5,5.5,5.5,5.5h19.3
	c3,0,5.5-2.5,5.5-5.5v-4.2H27.1z"/>
<rect x="14.1" y="0.9" fill="#FFFFFF" width="3.9" height="20.3"/>
<rect x="10.5" y="12.4" transform="matrix(0.7071 -0.7071 0.7071 0.7071 -10.0215 14.3173)" fill="#FFFFFF" width="3.6" height="13.6"/>
<rect x="17.9" y="12.3" transform="matrix(0.7071 0.7071 -0.7071 0.7071 19.3499 -8.2759)" fill="#FFFFFF" width="3.6" height="13.8"/>
</svg>
