<?xml version="1.0" encoding="utf-8"?>
<!-- Generator: Adobe Illustrator 16.0.0, SVG Export Plug-In . SVG Version: 6.00 Build 0)  -->
<!DOCTYPE svg PUBLIC "-//W3C//DTD SVG 1.1//EN" "http://www.w3.org/Graphics/SVG/1.1/DTD/svg11.dtd">
<svg version="1.1" xmlns="http://www.w3.org/2000/svg" xmlns:xlink="http://www.w3.org/1999/xlink" x="0px" y="0px" width="32px"
	 height="32px" viewBox="0 0 32 32" enable-background="new 0 0 32 32" xml:space="preserve">
<symbol  id="dude-transit" viewBox="0 -25.1 21.25 25.118">
	<path fill-rule="evenodd" clip-rule="evenodd" fill="#FFFFFF" d="M15.5-4.2l0.75-1.05l1-3.1l3.9-2.65v-0.05
		c0.067-0.1,0.1-0.233,0.1-0.4c0-0.2-0.05-0.383-0.15-0.55c-0.167-0.233-0.383-0.35-0.65-0.35l-4.3,1.8l-1.2,1.65l-1.5-3.95
		l2.25-5.05l-3.25-6.9c-0.267-0.2-0.633-0.3-1.1-0.3c-0.3,0-0.55,0.15-0.75,0.45c-0.1,0.133-0.15,0.25-0.15,0.35
		c0,0.067,0.017,0.15,0.05,0.25c0.033,0.1,0.067,0.184,0.1,0.25l2.55,5.6L10.7-14l-3.05-4.9L0.8-18.7
		c-0.367,0.033-0.6,0.184-0.7,0.45c-0.067,0.3-0.1,0.467-0.1,0.5c0,0.5,0.2,0.767,0.6,0.8l5.7,0.15l2.15,5.4l3.1,5.65L9.4-5.6
		c-1.367-2-2.1-3.033-2.2-3.1C7.1-8.8,6.95-8.85,6.75-8.85C6.35-8.85,6.1-8.667,6-8.3C5.9-8,5.9-7.8,6-7.7H5.95l2.5,4.4l3.7,0.3
		L14-3.5L15.5-4.2z M14.55-2.9c-0.333,0.4-0.45,0.85-0.35,1.35c0.033,0.5,0.25,0.9,0.65,1.2S15.7,0.066,16.2,0
		c0.5-0.067,0.9-0.3,1.2-0.7c0.333-0.4,0.467-0.85,0.4-1.35c-0.066-0.5-0.3-0.9-0.7-1.2c-0.4-0.333-0.85-0.45-1.35-0.35
		C15.25-3.533,14.85-3.3,14.55-2.9z"/>
</symbol>
<g id="Layer_1">
</g>
<g id="Layer_2">
	<g>
		<g>
			<path fill-rule="evenodd" clip-rule="evenodd" fill="#FFFFFF" d="M1.087,3.538c0,9.271,2.58,25.168,15.108,28.093
				c12.877-2.827,14.936-18.955,14.936-28.093C23.838-0.887,6.957-0.574,1.087,3.538z M14.75,20.628
				c-0.771,0.118-0.926,0.062-1.481-0.443c-0.05-0.1-0.1-0.198-0.148-0.297c-0.146-0.093-0.508,0.021-0.593-0.148v-0.148
				c-0.051-0.252,0.139-0.256,0.147-0.297c-0.049-0.493-0.098-0.987-0.147-1.481c0.05,0,0.05-0.147,0-0.147
				c-0.05-0.198-0.1-0.396-0.148-0.593c-0.147-0.099-0.444-0.592-0.444-0.741c-0.05,0-0.247-0.396-0.297-0.593
				c-0.246-0.049-0.493-0.099-0.74-0.147c-0.097,0.181-0.24,0.21-0.297,0.296c0,0.099-0.101,0.113-0.194,0.444
				c0,0.364-0.053,0.741-0.103,0.741c-0.098,0.296-0.196,0.593-0.296,0.889c-0.098,0.05-0.196,0.099-0.296,0.148
				c0,0.099-0.098,0.296-0.147,0.296c0,0.346-0.1,1.038-0.149,1.038c-0.049,0.196-0.098,0.395-0.147,0.592
				c0.05,0,0.05,0.593,0,0.593c0,0.149-0.1,0.445-0.148,0.445c0,0.147-0.099,0.443-0.147,0.443c0,0.25,0.091,0.5,0.091,0.749
				c0,0.244-0.091,0.488-0.091,0.732c-0.379,0.207-0.461,0.383-1.038,0.445c-0.161-0.308-0.239-0.263-0.296-0.741
				c0.394-0.439,0.396-1.778,0.444-1.778c-0.099-0.346-0.198-1.036-0.148-1.036v-1.037c0.05,0,0.05-0.149,0-0.149v-0.592
				c-0.05,0-0.05-0.148,0-0.148c0.134-0.449,0.079-0.815,0.297-1.185c0.099-0.05,0.107-0.164,0.207-0.214
				c0-0.146,0.09-0.231,0.09-0.379v-0.297c0.232-0.503,0.473-0.97,0.592-1.63c-0.05,0-0.147-0.099-0.147-0.148
				C8.823,14.108,8.773,14,8.625,14c-0.056-0.649-0.246-0.767,0.051-1.373h0.147c0-0.098,0.099-0.297,0.148-0.297
				c0.063-0.252-0.14-0.258-0.148-0.296c-0.14-0.623,0.066-1.346,0.148-1.777c-0.464,0.108-0.67,0.337-1.186,0.444
				c-0.049-0.099-0.317-0.092-0.297-0.296C7.5,10.531,7.401,9.238,7.342,9.071C6.938,8.895,6.311,8.61,5.563,8.775
				c0,0,0.003,0.194-0.296,0.147V8.775H3.192V8.626H2.6V8.183h0.444c0.003-0.531,0.003-0.456-0.07-0.839h0.594
				c0.06,0.631,0.229,0.323,0.366,0.839h1.334c0.14-0.268,0.204-0.234,0.296-0.593c1.531-0.05,3.28-0.1,4.812-0.148
				c-0.017-0.131-0.108-0.297-0.141-0.426c-0.328-1.328-0.686-2.802,1.403-2.687c0.284,0.124,0.372,0.193,0.534,0.562
				c0.418,0.702-0.402,2.029,0.06,2.551V7.59h0.592c0.099,0.147,0.197,0.297,0.297,0.443c0.246,0.199,0.493,0.396,0.741,0.593
				c0,0.149,0.098,0.445,0.146,0.445c0,0.1,0.1,0.296,0.149,0.296c0.098,0.593,0.197,1.186,0.296,1.778
				c-0.188,0.15-0.471,0.525-0.592,0.741h-0.149c0-0.05-0.296-0.148-0.443-0.148c-0.031-0.016-0.155-0.221-0.297-0.296
				c-0.05,0.246-0.248,0.74-0.297,0.74c0.247,1.086,0.494,2.174,0.741,3.26c0.053,0.229,0.149,0.197,0.149,0.296
				c0.048,0,0.146,0.197,0.146,0.297c0.219,0.401,0.445,0.938,0.445,1.037c0.075,0.143,0.091,0.196-0.019,0.552
				c-0.001,0.003-0.001,0.005-0.002,0.008c-0.012,0-0.008-0.003,0.001-0.007c-0.023,0.007-0.061,0.019-0.13,0.04
				c0,0.147-0.099,0.444-0.146,0.444c-0.182,0.66,0.229,0.917,0,1.334h0.146c0.168,0.292,0.18,0.26,0.594,0.444
				c0.023,0.119,0.233,0.259,0.258,0.378C14.885,20.393,14.725,20.5,14.75,20.628z M28.973,9.528c0,0.05,0,0.049,0,0.098h-1.926
				c-0.261,0.602-0.642,1.007-1.481,1.037c-0.118,0.527-0.909,1.444-1.333,1.631h-1.037c0-0.05-0.593-0.148-0.89-0.148
				c0-0.05-0.396-0.148-0.593-0.148c0-0.049-0.197-0.148-0.296-0.148c0,0.05-0.099,0.148-0.148,0.148c0.05,0.297,0.05,0.89,0,0.89
				c0,0.099-0.099,0.296-0.148,0.296c0,0.099-0.422,0.784-0.444,1.63c0.198,0.148,0.143,0.383,0.34,0.531
				c-0.004,0.184-0.021,0.298,0.104,0.654c0.05,0,0.347,0.593,0.444,0.889c0.05,0,0.148,0.197,0.148,0.297
				c0.148,0.098,0.297,0.197,0.444,0.297v0.592c0.05,0,0.05,0.147,0,0.147c0,0.198-0.098,0.593-0.147,0.593v1.038
				c-0.054,0.128-0.47,0.128-0.297,0.74h0.148c0.19,0.523-0.091,0.249,0.296,0.594c0,0.048,0.297,0.246,0.297,0.296
				c0.236,0.121,0.468-0.062,0.593,0.147v0.445c-0.343,0.129-0.652,0.15-1.186,0.147c-0.148-0.197-0.292-0.18-0.439-0.377
				c-0.197,0.05-0.4-0.116-0.598-0.066c0,0-0.272-0.286-0.296-0.297c0.093-0.222,0.052-0.311,0.147-0.593c0.05,0,0.05-0.691,0-1.037
				c-0.05,0-0.001,0-0.05,0c0-0.396-0.096-0.704-0.096-1.099c0.049,0,0.046-0.087,0.096-0.087c-0.099-0.247-0.147-0.495-0.247-0.741
				c-0.146-0.05-0.296-0.099-0.443-0.147c-0.093-0.515-0.174-0.653-0.67-0.776c0,0.049-0.071-0.015-0.071,0.035
				c-0.447,0.321-0.063,0.197-0.296,0.592c-0.148,0.1-0.297,0.198-0.444,0.297c0,0.494-0.099,1.481-0.148,1.481
				c0,0.099-0.147,0.321-0.147,0.419c-0.297,0.248-0.445,0.372-0.742,0.619c0,0.099-0.109,0.27-0.109,0.369
				c-0.147,0.099-0.08,0.151-0.229,0.25c0,0.1-0.173,0.433-0.173,0.531h-0.147c0,0.297,0.066,0.33,0.066,0.627
				c-0.253,0.819-0.15,1.372-1.186,1.481c-0.169-0.168-0.001-0.059-0.297-0.147c-0.003-0.5-0.001-0.844,0.148-1.186h0.148
				c0.05-0.346,0.247-1.038,0.297-1.038c0-0.196,0.099-0.592,0.147-0.592c0-0.1,0.099-0.296,0.148-0.296
				c0-0.297,0.099-0.89,0.147-0.89c0-0.296,0.1-0.889,0.148-0.889c0.046-0.255-0.138-0.251-0.148-0.297c0-0.79,0.1-2.37,0.148-2.37
				c0-0.84,0.238-1.69,0.238-2.529c0.599-2.05,0.017-4.455,2.28-4.879c0.004-0.495,0.078-0.671,0.148-1.037
				c0.14-0.079,0.258-0.275,0.296-0.297c0.149,0,0.104-0.24,0.593-0.443c0.296-0.1,0.593-0.102,0.889-0.199c0,0.049,0,0,0,0.05
				c0.898,0.131,0.681,0.429,1.038,1.038h0.147c0.05,0.147,0.099,0.296,0.148,0.443h1.038V7.997c0.098,0.05,0.196,0.098,0.296,0.147
				c0.197-0.05,0.395-0.098,0.593-0.147c0,0,0.069,0.176,0.297,0.147c0,0,0.063-0.187,0.296-0.147v0.147h0.592V7.997
				c0.494-0.05,0.988-0.099,1.482-0.148V8.59c0.691,0.05,1.383,0.099,2.073,0.147v0.149h0.149v0.442c0.79,0,1.324,0.011,1.324,0.011
				l0.019,0.157C30.465,9.497,29.472,9.533,28.973,9.528z M24.825,8.737h1.629c0.031,0.007,0.048,0.219,0.297,0.149
				c0.049-0.1,0.099-0.198,0.148-0.297c-0.692-0.05-1.383-0.1-2.074-0.148V8.737z M22.157,8.887h0.89
				c0.049-0.1,0.099-0.198,0.148-0.297c-0.255-0.097-0.466-0.141-0.89-0.148C22.256,8.59,22.207,8.737,22.157,8.887z M23.937,8.59
				V8.441h-0.445C23.564,8.505,23.677,8.716,23.937,8.59z M24.083,8.441C24.253,8.61,24.084,8.5,24.38,8.59
				C24.211,8.421,24.38,8.531,24.083,8.441z"/>
		</g>
	</g>
</g>
</svg>
