<?xml version="1.0" encoding="utf-8"?>
<!-- Generator: Adobe Illustrator 24.3.0, SVG Export Plug-In . SVG Version: 6.00 Build 0)  -->
<svg version="1.1" id="Layer_1" xmlns="http://www.w3.org/2000/svg" xmlns:xlink="http://www.w3.org/1999/xlink" x="0px" y="0px"
	 width="40px" height="40px" viewBox="0 0 40 40" enable-background="new 0 0 40 40" xml:space="preserve">
<path fill="#FFFFFF" d="M27.6,8.1H5.1c-2.4,0-4.4,2-4.4,4.4v22.4c0,2.4,2,4.4,4.4,4.4h22.4c2.4,0,4.4-2,4.4-4.4V12.5
	C32,10,30,8.1,27.6,8.1z M29.2,34.4c0,1.2-1,2.2-2.2,2.2H5.7c-1.2,0-2.2-1-2.2-2.2V13c0-1.2,1-2.2,2.2-2.2H27c1.2,0,2.2,1,2.2,2.2
	V34.4z"/>
<path fill="#FFFFFF" d="M34.9,0.7H12.4C10,0.7,8,2.6,8,5.1v0.2h2.8c0.2-1,1.1-1.8,2.1-1.8h21.3c1.2,0,2.2,1,2.2,2.2V27
	c0,1-0.7,1.9-1.7,2.1v2.9h0.1c2.4,0,4.4-2,4.4-4.4V5.1C39.3,2.6,37.3,0.7,34.9,0.7z"/>
<rect x="9.6" y="21.5" transform="matrix(0.7071 -0.7071 0.7071 0.7071 -15.4411 15.6394)" fill="#FFFFFF" width="3.2" height="10"/>
<rect x="17.2" y="14.8" transform="matrix(0.7071 0.7071 -0.7071 0.7071 22.2507 -6.3107)" fill="#FFFFFF" width="3.2" height="17.8"/>
</svg>
