<?xml version="1.0" encoding="utf-8"?>
<!-- Generator: Adobe Illustrator 22.0.1, SVG Export Plug-In . SVG Version: 6.00 Build 0)  -->
<svg version="1.1" id="Layer_1" xmlns="http://www.w3.org/2000/svg" xmlns:xlink="http://www.w3.org/1999/xlink" x="0px" y="0px"
	 width="64px" height="64px" viewBox="0 0 64 64" enable-background="new 0 0 64 64" xml:space="preserve">
<path fill="#FFFFFF" d="M21.375,49.255c-1.541,0.89-2.069,2.86-1.179,4.402c0.89,1.541,2.86,2.069,4.402,1.179
	c1.541-0.89,2.069-2.86,1.179-4.402C24.886,48.893,22.916,48.365,21.375,49.255z"/>
<path fill="#FFFFFF" d="M48.772,49.255c-1.541,0.89-2.069,2.86-1.179,4.402c0.89,1.541,2.86,2.069,4.402,1.179
	c1.541-0.89,2.069-2.86,1.179-4.402C52.284,48.893,50.313,48.365,48.772,49.255z"/>
<path fill="#FFFFFF" d="M62.26,12.173c-0.437-0.757-1.23-1.17-2.046-1.171H13.583l-2.912-5.97V5H0.813H0.374v4.781h0.438h6.856
	l13.186,27.031l-5.671,7.516c-0.011,0.014-0.021,0.028-0.031,0.042l-0.321,0.426l0.073,0.055c-0.176,0.497-0.15,1.062,0.135,1.554
	c0.345,0.598,0.971,0.924,1.615,0.925v0.006h36.952V43.25H20.665l3.555-4.712h29.386v-0.096l0.273,0.096l8.615-24.534l-0.01-0.004
	C62.652,13.407,62.593,12.75,62.26,12.173z"/>
</svg>
