<?xml version="1.0" encoding="utf-8"?>
<!-- Generator: Adobe Illustrator 16.0.3, SVG Export Plug-In . SVG Version: 6.00 Build 0)  -->
<!DOCTYPE svg PUBLIC "-//W3C//DTD SVG 1.1//EN" "http://www.w3.org/Graphics/SVG/1.1/DTD/svg11.dtd">
<svg version="1.1" xmlns="http://www.w3.org/2000/svg" xmlns:xlink="http://www.w3.org/1999/xlink" x="0px" y="0px" width="32px"
	 height="32px" viewBox="0 0 32 32" enable-background="new 0 0 32 32" xml:space="preserve">
<g id="Layer_1">
	<path fill="#FFFFFF" d="M15.805,2.25c-7.732,0-14,6.268-14,14s6.268,14,14,14s14-6.268,14-14S23.537,2.25,15.805,2.25z
		 M20.052,8.75c1.243,0,2.25,1.679,2.25,3.75s-1.007,3.75-2.25,3.75s-2.25-1.679-2.25-3.75S18.81,8.75,20.052,8.75z M11.552,8.75
		c1.243,0,2.25,1.679,2.25,3.75s-1.007,3.75-2.25,3.75s-2.25-1.679-2.25-3.75S10.31,8.75,11.552,8.75z M24.368,20.773
		c-1.494,3.232-4.771,5.977-8.566,5.977c-3.806,0-7.056-2.757-8.543-6.004c-0.471,0.378-0.861,0.606-0.936,0.524
		c-0.092-0.103,0.333-0.634,0.95-1.188c0.617-0.553,1.191-0.918,1.284-0.815c0.091,0.102-0.153,0.439-0.754,0.983
		c1.365,2.82,4.665,4.5,8,4.5c3.327,0,6.628-1.69,8-4.5c-0.597-0.555-0.812-0.883-0.72-0.983c0.094-0.101,0.663,0.272,1.271,0.834
		c0.608,0.563,1.025,1.1,0.932,1.202C25.211,21.384,24.829,21.154,24.368,20.773z"/>
</g>
<g id="Layer_2">
</g>
</svg>
