<?xml version="1.0" encoding="utf-8"?>
<!-- Generator: Adobe Illustrator 16.0.0, SVG Export Plug-In . SVG Version: 6.00 Build 0)  -->
<!DOCTYPE svg PUBLIC "-//W3C//DTD SVG 1.1//EN" "http://www.w3.org/Graphics/SVG/1.1/DTD/svg11.dtd">
<svg version="1.1" xmlns="http://www.w3.org/2000/svg" xmlns:xlink="http://www.w3.org/1999/xlink" x="0px" y="0px" width="32px"
	 height="32px" viewBox="0 0 32 32" enable-background="new 0 0 32 32" xml:space="preserve">
<symbol  id="dude-transit" viewBox="0 -25.1 21.25 25.118">
	<path fill-rule="evenodd" clip-rule="evenodd" fill="#FFFFFF" d="M15.5-4.2l0.75-1.05l1-3.1l3.9-2.65v-0.05
		c0.067-0.1,0.1-0.233,0.1-0.4c0-0.2-0.05-0.383-0.15-0.55c-0.167-0.233-0.383-0.35-0.65-0.35l-4.3,1.8l-1.2,1.65l-1.5-3.95
		l2.25-5.05l-3.25-6.9c-0.267-0.2-0.633-0.3-1.1-0.3c-0.3,0-0.55,0.15-0.75,0.45c-0.1,0.133-0.15,0.25-0.15,0.35
		c0,0.067,0.017,0.15,0.05,0.25c0.033,0.1,0.067,0.184,0.1,0.25l2.55,5.6L10.7-14l-3.05-4.9L0.8-18.7
		c-0.367,0.033-0.6,0.184-0.7,0.45c-0.067,0.3-0.1,0.467-0.1,0.5c0,0.5,0.2,0.767,0.6,0.8l5.7,0.15l2.15,5.4l3.1,5.65L9.4-5.6
		c-1.367-2-2.1-3.033-2.2-3.1C7.1-8.8,6.95-8.85,6.75-8.85C6.35-8.85,6.1-8.667,6-8.3C5.9-8,5.9-7.8,6-7.7H5.95l2.5,4.4l3.7,0.3
		L14-3.5L15.5-4.2z M14.55-2.9c-0.333,0.4-0.45,0.85-0.35,1.35c0.033,0.5,0.25,0.9,0.65,1.2S15.7,0.066,16.2,0
		c0.5-0.067,0.9-0.3,1.2-0.7c0.333-0.4,0.467-0.85,0.4-1.35c-0.066-0.5-0.3-0.9-0.7-1.2c-0.4-0.333-0.85-0.45-1.35-0.35
		C15.25-3.533,14.85-3.3,14.55-2.9z"/>
</symbol>
<g id="Layer_1">
	<g>
		<path fill="#FFFFFF" d="M15.353,25.106c-0.099,0-0.373-0.036-0.784-0.365c-1.125-0.899-5.204-4.64-5.245-4.678
			C9.138,19.894,8.896,19.8,8.645,19.8H4.537v-7.108h4.11c0.248,0,0.487-0.092,0.672-0.258c0.045-0.041,4.505-4.057,5.237-4.671
			c0.344-0.288,0.561-0.319,0.638-0.319c0.197,0,0.242,0.243,0.242,0.328v17.326C15.416,25.102,15.389,25.106,15.353,25.106z"/>
		<path fill="#FFFFFF" d="M14.433,9.203v14.109c-1.306-1.136-3.519-3.15-4.431-3.988c-0.371-0.34-0.854-0.528-1.357-0.528H5.541
			v-5.101h3.106c0.496,0,0.975-0.184,1.344-0.516C10.957,12.309,13.196,10.297,14.433,9.203 M15.194,6.44
			c-0.375,0-0.813,0.16-1.282,0.553c-0.755,0.632-5.265,4.694-5.265,4.694H3.533v9.116h5.111c0,0,4.133,3.791,5.297,4.722
			c0.527,0.422,1.012,0.584,1.411,0.584c0.661,0,1.088-0.447,1.088-0.901c0-0.729,0-16.711,0-17.438
			C16.44,7.08,15.943,6.44,15.194,6.44L15.194,6.44z"/>
	</g>
</g>
<g id="Layer_2">
</g>
</svg>
