<?xml version="1.0" encoding="utf-8"?>
<!-- Generator: Adobe Illustrator 24.3.0, SVG Export Plug-In . SVG Version: 6.00 Build 0)  -->
<svg version="1.1" id="Layer_1" xmlns="http://www.w3.org/2000/svg" xmlns:xlink="http://www.w3.org/1999/xlink" x="0px" y="0px"
	 width="40px" height="40px" viewBox="0 0 40 40" enable-background="new 0 0 40 40" xml:space="preserve">
<circle fill="#4C421A" cx="19.9" cy="20" r="19.4"/>
<polygon fill="#080808" points="1.9,25.2 10.6,15.8 13,18.2 21.5,9.8 27.5,4.2 32.8,6.9 36.7,13.2 38.7,18.8 37.5,25.4 34.7,31.5 
	29.1,36.5 20.3,38.2 11.5,37.2 6.5,33.3 2.2,27 "/>
<g>
	
		<rect x="19.2" y="9.9" transform="matrix(6.123234e-17 -1 1 6.123234e-17 12.0445 34.1033)" fill="#FFFFFF" width="7.7" height="2.3"/>
	
		<rect x="0.2" y="17.9" transform="matrix(0.7071 -0.7071 0.7071 0.7071 -11.4896 10.4831)" fill="#FFFFFF" width="13.4" height="2.3"/>
	<rect x="16.4" y="7.2" fill="#FFFFFF" width="7.8" height="2.3"/>
	<rect x="9.1" y="15.4" transform="matrix(0.7071 0.7071 -0.7071 0.7071 15.2625 -3.733)" fill="#FFFFFF" width="6" height="2.3"/>
	
		<rect x="10.7" y="12.7" transform="matrix(0.7071 -0.7071 0.7071 0.7071 -4.6799 16.4748)" fill="#FFFFFF" width="13.7" height="2.3"/>
</g>
<polygon fill="#CCB248" points="35.9,31.4 27.1,36.5 27.1,15.3 35.9,15.3 "/>
<rect x="16" y="21.2" fill="#CCB248" width="8.8" height="16.3"/>
<polygon fill="#B29930" points="13.6,37.6 4.9,32.3 4.9,25.4 13.6,25.4 "/>
<circle fill="none" stroke="#FFFFFF" stroke-width="2" stroke-miterlimit="10" cx="20" cy="20" r="18.4"/>
</svg>
