<?xml version="1.0" encoding="utf-8"?>
<!-- Generator: Adobe Illustrator 16.0.0, SVG Export Plug-In . SVG Version: 6.00 Build 0)  -->
<!DOCTYPE svg PUBLIC "-//W3C//DTD SVG 1.1//EN" "http://www.w3.org/Graphics/SVG/1.1/DTD/svg11.dtd">
<svg version="1.1" id="Layer_1" xmlns="http://www.w3.org/2000/svg" xmlns:xlink="http://www.w3.org/1999/xlink" x="0px" y="0px"
	 width="32px" height="32px" viewBox="0 0 32 32" enable-background="new 0 0 32 32" xml:space="preserve">
<path fill="#A51C1C" d="M16,0.068L2.173,8.051V24.02L16,32.001l13.83-7.981V8.051L16,0.068z"/>
<radialGradient id="gradient_1_" cx="-2503.1396" cy="1807.3066" r="162.7603" gradientTransform="matrix(-0.1526 -0.0598 -0.0716 0.1829 -234.1926 -471.5842)" gradientUnits="userSpaceOnUse">
	<stop  offset="0" style="stop-color:#AA1A1A"/>
	<stop  offset="0.5518" style="stop-color:#5C0C0C"/>
	<stop  offset="0.7632" style="stop-color:#2A0303"/>
	<stop  offset="0.9261" style="stop-color:#170000"/>
</radialGradient>
<path id="gradient" display="none" fill="url(#gradient_1_)" d="M24.303,9.335h-0.218V9.018c0-0.019-0.016-0.035-0.035-0.035h-0.131
	c-0.021,0-0.035,0.016-0.035,0.035c0,0-0.023,0.193-0.17,0.317h-0.606c-0.004-0.028-0.015-0.057-0.042-0.071
	c-0.011-0.006-0.031-0.017-0.234-0.018c-0.014-0.012-0.026-0.025-0.029-0.031c-0.004-0.013-0.004-0.032-0.004-0.046
	c0-0.012,0-0.022-0.001-0.029c-0.011-0.077-0.066-0.086-0.085-0.088C22.708,9.051,22.7,9.05,22.476,9.05
	c-0.221,0-0.529,0.001-0.604,0.001l-0.063-0.043c-0.01-0.007-0.021-0.01-0.03-0.01h-1.025l-0.03-0.031
	c-0.011-0.01-0.024-0.016-0.038-0.016l0,0l-0.424,0.002c-0.01,0-0.021,0.003-0.029,0.009L20.085,9.06
	c-0.01,0.003-0.023,0.007-0.032,0.007c-0.024,0-2.041-0.015-2.063-0.016c-0.027,0.002-0.119,0.007-0.164,0.031
	c-0.037,0.02-0.158,0.162-0.261,0.284l-0.756,0.04c-0.005-0.007-0.01-0.013-0.013-0.019c0.01-0.013,0.023-0.033,0.023-0.058
	c0-0.005,0-0.017-0.018-0.088c0.064-0.017,0.105-0.041,0.121-0.072c0.017-0.035,0.005-0.083-0.025-0.186
	c-0.007-0.028-0.02-0.065-0.02-0.076c-0.004-0.065-0.004-0.154,0-0.178c0.007-0.008,0.023-0.023,0.037-0.034
	c0.045-0.041,0.074-0.069,0.08-0.102c0.006-0.022,0.002-0.06-0.006-0.138c-0.004-0.045-0.009-0.101-0.007-0.121
	c0.001-0.013,0.003-0.026,0.005-0.04c0.006-0.041,0.014-0.087,0.004-0.146c-0.022-0.173-0.105-0.338-0.134-0.384
	c0.001-0.003,0.003-0.008,0.003-0.012c0.006-0.023,0.016-0.058,0.006-0.107c-0.015-0.08-0.101-0.212-0.11-0.228
	c-0.013-0.02-0.039-0.028-0.062-0.02c-0.023,0.008-0.037,0.031-0.035,0.056c0,0.003,0,0.009-0.002,0.016
	c-0.009-0.001-0.019-0.004-0.026-0.007c-0.048-0.102-0.071-0.11-0.087-0.115c-0.016-0.005-0.041-0.006-0.082-0.008
	c-0.018,0-0.047-0.002-0.053-0.003c-0.004-0.001-0.389-0.128-0.442-0.134L15.944,7.2c-0.045-0.004-0.121-0.013-0.168-0.013
	c-0.015,0-0.027,0-0.037,0.003c-0.014,0.002-0.07,0.005-0.119,0.008c-0.123,0.008-0.164,0.012-0.182,0.018
	c-0.031,0.01-0.096,0.044-0.134,0.079c-0.03,0.028-0.294,0.272-0.333,0.315c-0.008,0.008-0.02,0.02-0.031,0.03
	c-0.04,0.037-0.095,0.086-0.112,0.159C14.811,7.873,14.76,8.167,14.76,8.29c0,0.19,0.037,0.308,0.063,0.393
	c0.011,0.035,0.02,0.064,0.024,0.091c0.018,0.099,0.031,0.218,0.031,0.219c0,0.009,0.004,0.018,0.009,0.024l0.025,0.035L14.8,8.986
	c-0.005-0.003-0.01-0.005-0.016-0.006c-0.085-0.019-0.386-0.18-0.391-0.182c-0.008-0.004-0.017-0.006-0.024-0.006L14.073,8.79
	c-0.021,0.001-0.04,0.011-0.048,0.03c0,0-0.273,0.353-0.289,0.36c-0.016,0.008-0.026,0.022-0.03,0.04
	c-0.003,0.017,0.003,0.034,0.015,0.046l0.02,0.02l-0.003,0.005l-0.169,0.072c-0.003,0.001-0.207,0.14-0.207,0.14
	c-0.024,0.017-0.03,0.049-0.015,0.073c0.021,0.034,0.043,0.074,0.046,0.085c0.002,0.009-0.001,0.034-0.006,0.055
	c-0.003,0.011,0.116,0.124,0.131,0.151c-0.001,0.022-0.012,0.077-0.024,0.129c-0.066,0.019-0.378,0.766-0.385,0.828
	c-0.007,0.062-0.005,0.139-0.004,0.207c0.001,0.05,0.002,0.101-0.002,0.119c-0.003,0.021-0.146,0.7-0.153,0.786
	c-0.01,0.092,0.025,0.377,0.029,0.416c0.001,0.007,0.021,0.17,0.024,0.176l0.065,0.111c-0.04,0.099-0.037,0.124-0.037,0.132
	c0.003,0.026,0.009,0.063,0.009,0.063l0,0c0.002,0.026,0.001,0.072-0.009,0.09c-0.024,0.041-0.259,0.222-0.26,0.225
	c-0.001,0.002-0.046,0.147-0.045,0.157c0.002,0.021-0.185,0.788-0.193,0.825c-0.001,0.006-0.001,0.013-0.001,0.019
	c0.004,0.026,0.013,0.108,0.007,0.148c-0.005,0.03-0.227,0.718-0.233,0.748c-0.005,0.026-0.008,0.048-0.01,0.07
	c-0.003,0.034-0.006,0.067-0.023,0.115c-0.03,0.081-0.069,0.164-0.07,0.165c-0.007,0.015-0.007,0.032,0,0.046
	c0.004,0.009,0.042,0.083,0.124,0.12c0.031,0.013,0.055,0.031,0.07,0.043c-0.008,0.271,0.037,0.499,0.037,0.499
	c0.039,0.174-0.048,1.169-0.048,1.169l-0.105,0.197c-0.002,0.006-0.019,0.469-0.016,0.512l-0.1,0.146
	c-0.006,0.012-0.009,0.021-0.008,0.033c0,0.009,0.014,0.201,0.029,0.293c0.013,0.07,0.021,0.225,0.023,0.271
	c-0.009,0.017-0.114,0.469-0.132,0.49c-0.019,0.024-0.105,0.198-0.109,0.243c-0.002,0.024,0.003,0.172,0.007,0.256
	c-0.104,0.032-0.342,0.214-0.342,0.252c0,0.067-0.638,1.298-0.639,1.31l-0.017,0.343l-0.107,0.12
	c-0.015,0.017-0.018,0.041-0.008,0.061l0.142,0.276c-0.114,0.194-0.119,0.214-0.12,0.224c-0.003,0.018-0.001,0.045,0.004,0.07
	c-0.011,0-0.02,0-0.02,0c-0.025-0.001-0.046,0.014-0.054,0.037l-0.082,0.262c-0.006,0.018-0.002,0.033,0.006,0.047
	c0.036,0.055,0.066,0.065,0.082,0.067c-0.008,0.032-0.02,0.271-0.028,0.294c-0.007,0.02-0.018,0.038-0.031,0.063
	c-0.035,0.062-0.076,0.139-0.082,0.238c-0.005,0.098,0.019,0.307,0.021,0.333c0.007,0.065,0.013,0.112,0.025,0.138
	c0.037,0.078,0.336,0.145,0.393,0.149c0.018,0.002,0.05,0.003,0.097,0.003c0.186,0,0.561-0.014,0.565-0.014
	c0.001,0,0.002-0.002,0.004-0.002l0.156-0.016c0.023-0.004,0.042-0.021,0.046-0.043l0.044-0.207l-0.005-0.087
	c-0.004-0.016-0.015-0.059-0.036-0.124c-0.028-0.089-0.038-0.143-0.038-0.143c-0.002-0.014,0.004-0.32,0.011-0.354
	c0.001-0.002,0.002-0.003,0.003-0.003c0.014-0.009,0.037-0.024,0.042-0.056c0.001-0.008,0.265-0.377,0.272-0.404
	c0.003-0.009,0.01-0.033-0.016-0.271c0-0.004-0.001-0.008-0.003-0.01l-0.045-0.125c0.012-0.004,0.021-0.013,0.028-0.022
	c0,0,0.822-1.136,0.828-1.147c0.005-0.008,0.075-0.464,0.104-0.556l0.313-0.416c0.005-0.007,0.009-0.015,0.01-0.024l0.315-0.602
	c0.006-0.009,0.009-0.02,0.009-0.029l-0.004-0.254l0.104-0.419c0.01-0.019,0.022-0.034,0.028-0.038
	C13.971,18.621,14,18.609,14,18.609c0.017-0.006,0.029-0.021,0.032-0.039c0.008-0.039,0.179-0.596,0.182-0.648
	c0.002-0.051,0.005-0.129,0.009-0.146c0.003-0.012,0.024-0.045,0.038-0.064c0.022-0.036,0.06-0.354,0.069-0.38
	c0.007-0.015,0.219-0.47,0.236-0.539l0.093-0.03l0.064,0.18c0.004,0.011,0.013,0.021,0.024,0.027l0.414,0.305
	c0.039,0.059,0.883,1.31,0.883,1.31c0.007,0.009,0.016,0.017,0.027,0.021c0,0,0.292,0.174,0.298,0.188
	c0.004,0.005,0.004,0.009,0.006,0.012l-0.088,0.215c-0.004,0.014-0.004,0.029,0.002,0.043c0.067,0.133,0.078,0.145,0.084,0.148
	c0.02,0.02,0.129,0.137,0.178,0.158c0.018,0.02,0.066,0.128,0.027,0.168l-0.244,0.189c-0.016,0.01-0.023,0.031-0.021,0.051
	c0,0,0.086,0.309,0.091,0.324c-0.005,0.02-0.023,0.641-0.023,0.641c-0.001,0.008,0,0.015,0.002,0.021l0.164,0.493l-0.061,0.379
	c-0.006,0.011-0.008,0.024-0.006,0.036l0.135,0.271l-0.082,0.143l-0.004-0.002c-0.019-0.008,0.088,0.377,0.088,0.377l-0.078,0.125
	c-0.006,0.009-0.008,0.02-0.008,0.027l-0.002,0.231l-0.031,0.093c-0.008,0.022,0,0.047,0.021,0.061l0.052,0.037l-0.035,0.119
	c-0.004,0.009-0.004,0.016-0.002,0.021l0.028,0.247c0.003,0.024,0.021,0.043,0.044,0.047l0.445,0.072c0.002,0,0.005,0,0.006,0
	l0.369,0.021c0.689,0.088,0.802,0.104,0.82,0.104l0,0c0,0,0.49,0.039,0.69,0.004c0.202-0.035,0.267-0.04,0.289-0.04l0,0
	c0.013,0.003,0.024,0.002,0.037-0.002c0.021-0.011,0.032-0.031,0.03-0.055l-0.019-0.178c-0.001-0.013-0.008-0.024-0.017-0.033
	l-0.051-0.047c-0.018-0.027-0.08-0.121-0.164-0.164c-0.088-0.045-0.288-0.109-0.299-0.112c-0.006-0.002-0.013-0.003-0.019-0.002
	l-0.054,0.003l-0.04-0.061c-0.005-0.006-0.095-0.058-0.095-0.058l-0.135-0.083l-0.068-0.104c-0.006-0.006-0.162-0.099-0.162-0.099
	l0.005-0.069c0.001-0.021-0.011-0.041-0.028-0.051l-0.047-0.025l0.042-0.075c0.009-0.019,0.009-0.042-0.004-0.058l-0.19-0.254
	l0.127-0.238c0.008-0.016,0.01-0.029,0.006-0.042c-0.002-0.007-0.021-0.064-0.045-0.101c-0.015-0.021-0.051-0.065-0.072-0.097
	c0.039-0.079,0.218-0.692,0.227-0.712c0.035-0.073-0.057-1.492-0.061-1.566l0.127-0.385c0.002-0.007,0.003-0.016,0.002-0.021
	l-0.032-0.324l0.009-0.117c0-0.027-0.017-0.05-0.041-0.057c0,0-0.021-0.006-0.039-0.033c-0.019-0.03-0.052-0.193-0.052-0.193
	l0.007-0.188c0-0.012-0.005-0.022-0.01-0.031c-0.002-0.004-0.218-0.321-0.26-0.389c-0.046-0.075-0.398-0.739-0.414-0.773
	c-0.014-0.029-0.021-0.076-0.023-0.091c0-0.009-0.005-0.017-0.01-0.024c0,0-0.438-0.57-0.484-0.645
	c-0.049-0.073-0.373-0.691-0.404-0.767c-0.032-0.075-0.061-0.138-0.1-0.227c0.072-0.033,0.146-0.07,0.166-0.087
	c0.027-0.024,0.06-0.047,0.063-0.056c0.007-0.011,0.002-0.046,0-0.059c-0.022-0.111-0.088-0.187-0.088-0.218
	c0-0.046,0.042-0.207,0.042-0.208c0.001-0.01,0-0.02-0.004-0.029c0,0-0.223-0.461-0.221-0.544c0-0.083,0.144-0.414,0.144-0.414
	c0.005-0.013,0.005-0.028-0.002-0.041c0,0-0.046-0.07-0.04-0.12c0.006-0.05,0.063-0.117,0.063-0.117
	c0.014-0.014,0.018-0.033,0.012-0.05l-0.022-0.08c0.088-0.106,0.249-0.575,0.249-0.575c0.004-0.007,0.007-0.014,0.007-0.022
	c0,0,0.007-0.035,0.007-0.074c0.002-0.022,0.03-0.042,0.055-0.036c0.103,0.028,0.363,0.162,0.363,0.162l0.148,0.074
	c0.016,0.007,0.035,0.01,0.049,0c0.157-0.118,0.192-0.238,0.336-0.377c0.09,0.025,0.417,0.179,0.451,0.196
	c0.03,0.016,0.068,0.018,0.09,0.018c0.028,0,0.102-0.005,0.141-0.047c0.033-0.036,0.256-0.294,0.276-0.325
	c0.009-0.009,0.054-0.062,0.099-0.111c0.166-0.189,0.242-0.305,0.262-0.341c0.02-0.039,0.216-0.355,0.326-0.533
	c0.064,0.076,0.184,0.209,0.266,0.278c0.115,0.097,0.332,0.245,0.341,0.25c0.013,0.008,0.025,0.011,0.04,0.009l0.059-0.011
	l0.039,0.015c0.025,0.01,0.055-0.001,0.066-0.025l0.256-0.476c0.014-0.024,0.006-0.054-0.016-0.069
	c-0.003-0.002-0.279-0.201-0.395-0.334c-0.088-0.103-0.168-0.243-0.207-0.315c0.039-0.021,0.086-0.047,0.106-0.068
	c0.021-0.025,0.049-0.05,0.049-0.05c0.013-0.011,0.019-0.027,0.019-0.043v-0.052l0.01-0.006c0.016-0.01,0.023-0.027,0.023-0.045
	l-0.004-0.114c0.032-0.008,0.07-0.023,0.092-0.051c0.021-0.026,0.033-0.071,0.039-0.104c0.049-0.014,0.174-0.014,0.211-0.027
	c0.018-0.006,0.033-0.056,0.062-0.062c0.046-0.005,0.813-0.012,1.317-0.015c0.002,0,0.005,0,0.007,0
	c0.024-0.003,0.112-0.017,0.151-0.061c0.021-0.021,0.068-0.062,0.099-0.085l0.688,0.002c0.01,0.019,0.021,0.032,0.031,0.04
	c0.018,0.011,0.039,0.016,0.074,0.016c0.006,0,0.012,0,0.012,0h0.198c0.001,0,0.003,0,0.005,0c0.036,0,0.063-0.012,0.081-0.035
	c0.003-0.006,0.009-0.014,0.015-0.021h0.998c0.023,0,0.066-0.004,0.09-0.033c0.006-0.006,0.012-0.013,0.015-0.021h0.087
	c0.027,0,0.053-0.024,0.053-0.054V9.388C24.355,9.359,24.331,9.335,24.303,9.335z M18.368,10.129
	c0.006-0.016,0.041-0.048,0.057-0.063c0.008-0.007,0.016-0.014,0.02-0.017c0.008-0.006,0.036-0.016,0.063-0.025
	c-0.001,0.019-0.001,0.035,0.002,0.041c0.008,0.018,0.048,0.053,0.057,0.06c0.01,0.006,0.02,0.003,0.024-0.009
	c0.005-0.012,0.008-0.012,0.008-0.047c0-0.019,0.003-0.048,0.006-0.076c0.031-0.011,0.06-0.023,0.079-0.038
	c0.027-0.02,0.047-0.046,0.053-0.077c0-0.001,0-0.002,0-0.004l0.053,0.009v0.235c0,0.023-0.02,0.041-0.041,0.041h-0.381
	C18.366,10.151,18.368,10.141,18.368,10.129z M18.835,10.689c-0.043,0.044-0.078,0.079-0.11,0.11
	c-0.06,0.057-0.104,0.102-0.157,0.17c-0.045,0.058-0.203,0.165-0.283,0.209c-0.096-0.047-0.449-0.217-0.473-0.229
	c-0.068-0.034-0.097-0.055-0.107-0.066c0.014-0.033,0.063-0.105,0.097-0.151c0.021-0.031,0.041-0.06,0.056-0.084
	c0.028-0.044,0.039-0.048,0.08-0.063c0.021-0.006,0.044-0.015,0.075-0.029c0.021-0.009,0.039-0.016,0.058-0.023
	c0.068-0.027,0.137-0.052,0.168-0.157c0.012-0.041,0.018-0.048,0.018-0.047c0.001-0.001,0.003-0.001,0.005-0.002
	c0.011-0.004,0.026-0.011,0.047-0.028c0.019-0.015,0.028-0.036,0.039-0.058h0.462c0.034,0,0.061-0.027,0.061-0.062v-0.128
	l0.114,0.012c0.003,0.037,0.009,0.093,0.021,0.156c0.014,0.081,0.043,0.176,0.06,0.224C19.016,10.493,18.913,10.611,18.835,10.689z"
	/>
<path id="No_gradient" d="M25.66,8.104h-0.275V7.704c0-0.024-0.02-0.045-0.044-0.045h-0.165c-0.025,0-0.044,0.021-0.044,0.045
	c0,0-0.03,0.243-0.214,0.399h-0.766c-0.004-0.035-0.019-0.072-0.053-0.089c-0.014-0.008-0.04-0.021-0.296-0.022
	c-0.018-0.016-0.033-0.032-0.037-0.04c-0.004-0.016-0.004-0.04-0.004-0.058c0-0.015,0-0.028-0.002-0.036
	c-0.014-0.097-0.084-0.108-0.107-0.111c-0.005-0.001-0.015-0.003-0.298-0.003c-0.279,0-0.668,0.001-0.761,0.001l-0.081-0.054
	c-0.013-0.009-0.025-0.012-0.038-0.012h-1.293l-0.038-0.04c-0.014-0.012-0.03-0.02-0.048-0.02l0,0l-0.535,0.002
	c-0.013,0-0.027,0.003-0.037,0.011L20.34,7.757c-0.013,0.004-0.03,0.009-0.041,0.009c-0.03,0-2.574-0.019-2.603-0.021
	c-0.034,0.003-0.15,0.009-0.207,0.04C17.442,7.81,17.29,7.989,17.16,8.144l-0.954,0.05c-0.005-0.01-0.012-0.017-0.016-0.024
	c0.012-0.017,0.029-0.042,0.029-0.074c0-0.005,0-0.021-0.022-0.111c0.081-0.021,0.133-0.051,0.153-0.091
	c0.02-0.044,0.005-0.104-0.032-0.235c-0.009-0.035-0.024-0.082-0.024-0.095c-0.006-0.083-0.006-0.195,0-0.225
	c0.007-0.01,0.028-0.029,0.046-0.043c0.057-0.052,0.093-0.086,0.102-0.129c0.007-0.027,0.002-0.075-0.008-0.173
	c-0.004-0.057-0.011-0.127-0.008-0.153c0.001-0.017,0.004-0.033,0.006-0.05c0.007-0.052,0.018-0.11,0.005-0.185
	c-0.029-0.218-0.133-0.426-0.169-0.483c0.001-0.005,0.003-0.011,0.003-0.016c0.007-0.029,0.021-0.073,0.007-0.135
	c-0.018-0.101-0.126-0.267-0.139-0.287c-0.016-0.026-0.049-0.035-0.078-0.026c-0.029,0.01-0.046,0.04-0.044,0.071
	c0,0.004,0,0.011-0.002,0.02c-0.011-0.001-0.023-0.005-0.033-0.009c-0.06-0.129-0.09-0.139-0.11-0.145
	c-0.02-0.007-0.052-0.008-0.104-0.011c-0.022,0-0.059-0.002-0.066-0.003c-0.005-0.001-0.49-0.162-0.558-0.169l-0.029-0.002
	c-0.057-0.005-0.153-0.017-0.212-0.017c-0.019,0-0.034,0-0.046,0.004c-0.018,0.002-0.088,0.006-0.15,0.01
	c-0.155,0.01-0.207,0.016-0.229,0.023c-0.039,0.013-0.121,0.055-0.169,0.1c-0.038,0.036-0.371,0.343-0.42,0.397
	c-0.011,0.01-0.025,0.025-0.04,0.038c-0.05,0.047-0.119,0.108-0.141,0.2c-0.021,0.094-0.085,0.464-0.085,0.62
	c0,0.239,0.046,0.389,0.079,0.496c0.013,0.044,0.025,0.081,0.03,0.115c0.022,0.125,0.039,0.275,0.039,0.277
	c0,0.01,0.005,0.022,0.012,0.03l0.032,0.044l-0.141-0.083c-0.007-0.004-0.014-0.007-0.021-0.008
	c-0.107-0.024-0.487-0.227-0.493-0.229c-0.009-0.005-0.021-0.007-0.03-0.007l-0.373-0.003c-0.027,0.001-0.051,0.013-0.062,0.038
	c0,0-0.344,0.446-0.364,0.455c-0.02,0.009-0.033,0.027-0.038,0.05c-0.004,0.021,0.003,0.042,0.019,0.058l0.025,0.025l-0.003,0.006
	l-0.213,0.09c-0.004,0.002-0.261,0.177-0.261,0.177c-0.031,0.022-0.038,0.062-0.019,0.092c0.026,0.043,0.054,0.093,0.058,0.107
	c0.002,0.011-0.001,0.042-0.008,0.069c-0.003,0.014,0.146,0.157,0.166,0.191c-0.001,0.027-0.015,0.096-0.031,0.162
	c-0.083,0.024-0.477,0.967-0.485,1.044c-0.009,0.078-0.006,0.175-0.005,0.261c0.001,0.063,0.002,0.127-0.002,0.15
	c-0.004,0.026-0.184,0.884-0.193,0.992c-0.013,0.116,0.031,0.475,0.036,0.525c0.001,0.008,0.026,0.214,0.03,0.221l0.082,0.141
	c-0.05,0.124-0.046,0.156-0.046,0.167c0.003,0.032,0.011,0.079,0.011,0.079l0,0c0.003,0.033,0.001,0.091-0.011,0.113
	c-0.03,0.052-0.327,0.281-0.328,0.284c-0.001,0.002-0.058,0.186-0.057,0.199c0.002,0.026-0.233,0.993-0.243,1.04
	c-0.001,0.008-0.001,0.017-0.001,0.024c0.005,0.033,0.017,0.136,0.009,0.187c-0.006,0.039-0.287,0.906-0.294,0.944
	c-0.005,0.033-0.01,0.061-0.012,0.089c-0.004,0.042-0.008,0.084-0.029,0.145c-0.038,0.103-0.086,0.207-0.088,0.208
	c-0.009,0.019-0.009,0.041,0,0.058c0.005,0.011,0.053,0.104,0.156,0.151c0.039,0.017,0.07,0.039,0.088,0.055
	c-0.01,0.342,0.047,0.629,0.047,0.629c0.049,0.219-0.061,1.475-0.061,1.475l-0.132,0.25c-0.002,0.007-0.024,0.591-0.021,0.646
	l-0.126,0.184c-0.007,0.015-0.011,0.028-0.01,0.043c0,0.01,0.018,0.254,0.036,0.369c0.017,0.089,0.027,0.283,0.029,0.343
	c-0.011,0.02-0.144,0.591-0.166,0.618c-0.024,0.03-0.133,0.25-0.138,0.307c-0.002,0.03,0.003,0.217,0.008,0.322
	c-0.131,0.041-0.431,0.27-0.431,0.318c0,0.085-0.805,1.637-0.806,1.652L8.85,23.602l-0.135,0.151
	c-0.019,0.021-0.022,0.052-0.01,0.076l0.179,0.349c-0.144,0.245-0.15,0.27-0.151,0.281c-0.003,0.023-0.001,0.058,0.005,0.09
	c-0.015,0-0.025,0-0.025,0c-0.032-0.001-0.058,0.017-0.068,0.047l-0.104,0.329c-0.007,0.022-0.003,0.042,0.008,0.06
	c0.045,0.069,0.083,0.082,0.104,0.085C8.641,25.11,8.627,25.41,8.616,25.44c-0.008,0.024-0.023,0.048-0.039,0.078
	c-0.044,0.078-0.096,0.176-0.104,0.301c-0.005,0.123,0.024,0.387,0.027,0.42c0.008,0.083,0.016,0.143,0.031,0.174
	c0.047,0.099,0.424,0.183,0.496,0.189c0.023,0.003,0.063,0.004,0.123,0.004c0.234,0,0.708-0.018,0.712-0.018
	c0.001,0,0.002-0.003,0.005-0.003l0.197-0.02c0.029-0.006,0.053-0.027,0.058-0.055l0.056-0.261l-0.007-0.11
	c-0.005-0.02-0.018-0.074-0.044-0.156c-0.036-0.111-0.048-0.18-0.048-0.18c-0.002-0.018,0.005-0.404,0.014-0.445
	c0.001-0.003,0.002-0.004,0.004-0.004c0.017-0.012,0.046-0.03,0.053-0.071c0.001-0.009,0.333-0.475,0.343-0.509
	c0.003-0.011,0.012-0.042-0.021-0.343c0-0.005-0.001-0.01-0.004-0.013l-0.056-0.157c0.014-0.005,0.026-0.016,0.035-0.029
	c0,0,1.037-1.433,1.045-1.447c0.006-0.009,0.094-0.585,0.131-0.7l0.395-0.524c0.006-0.01,0.011-0.02,0.012-0.031l0.397-0.759
	c0.008-0.012,0.011-0.025,0.011-0.037l-0.005-0.32l0.131-0.528c0.012-0.023,0.028-0.043,0.035-0.048
	c0.027-0.021,0.063-0.035,0.064-0.035c0.021-0.008,0.037-0.025,0.041-0.05c0.009-0.049,0.226-0.75,0.229-0.817
	c0.003-0.063,0.007-0.163,0.012-0.185c0.004-0.014,0.03-0.058,0.048-0.081c0.028-0.046,0.076-0.446,0.087-0.479
	c0.009-0.019,0.276-0.593,0.297-0.68l0.118-0.039l0.081,0.227c0.005,0.014,0.017,0.028,0.031,0.035l0.522,0.384
	c0.049,0.074,1.113,1.652,1.113,1.652c0.01,0.012,0.021,0.021,0.035,0.025c0,0,0.369,0.221,0.376,0.237
	c0.005,0.006,0.005,0.011,0.008,0.015l-0.111,0.271c-0.005,0.018-0.005,0.036,0.003,0.054c0.085,0.168,0.098,0.183,0.105,0.188
	c0.025,0.024,0.163,0.173,0.224,0.2c0.022,0.024,0.084,0.16,0.035,0.211l-0.308,0.239c-0.02,0.013-0.03,0.039-0.026,0.064
	c0,0,0.108,0.389,0.114,0.408c-0.006,0.024-0.029,0.809-0.029,0.809c-0.001,0.01,0,0.019,0.002,0.026l0.207,0.622l-0.076,0.479
	c-0.007,0.014-0.01,0.031-0.007,0.046l0.17,0.342l-0.104,0.18l-0.005-0.003c-0.023-0.009,0.111,0.477,0.111,0.477l-0.099,0.158
	c-0.007,0.011-0.01,0.023-0.01,0.034l-0.002,0.291l-0.04,0.117c-0.01,0.029,0,0.06,0.026,0.076l0.065,0.048l-0.044,0.15
	c-0.005,0.011-0.005,0.02-0.003,0.026l0.036,0.313c0.003,0.03,0.026,0.054,0.055,0.059l0.563,0.091c0.003,0,0.005,0,0.006,0
	l0.467,0.027c0.869,0.11,1.012,0.13,1.034,0.131l0,0c0,0,0.619,0.049,0.872,0.004c0.254-0.044,0.337-0.05,0.364-0.05l0,0
	c0.017,0.004,0.03,0.002,0.046-0.002c0.027-0.015,0.041-0.039,0.04-0.069l-0.024-0.225c-0.002-0.016-0.01-0.03-0.021-0.042
	l-0.065-0.059c-0.021-0.034-0.101-0.152-0.206-0.207c-0.111-0.057-0.363-0.139-0.377-0.142c-0.008-0.002-0.017-0.003-0.024-0.002
	l-0.066,0.003l-0.051-0.076c-0.006-0.007-0.119-0.073-0.119-0.073l-0.17-0.104l-0.087-0.132c-0.008-0.006-0.204-0.123-0.204-0.123
	l0.006-0.089c0.001-0.025-0.014-0.052-0.035-0.063l-0.06-0.031l0.054-0.096c0.01-0.023,0.01-0.053-0.006-0.072l-0.24-0.32
	l0.16-0.301c0.01-0.019,0.013-0.036,0.008-0.053c-0.003-0.01-0.027-0.082-0.057-0.128c-0.02-0.026-0.064-0.082-0.092-0.121
	c0.05-0.101,0.275-0.874,0.286-0.897c0.045-0.093-0.071-1.884-0.076-1.977l0.159-0.485c0.003-0.01,0.004-0.02,0.003-0.027
	l-0.04-0.409l0.011-0.147c0-0.034-0.021-0.063-0.052-0.071c0,0-0.025-0.008-0.05-0.042c-0.023-0.038-0.064-0.244-0.064-0.244
	l0.008-0.235c0-0.016-0.005-0.03-0.012-0.041c-0.003-0.005-0.274-0.404-0.327-0.49c-0.058-0.094-0.503-0.932-0.522-0.975
	c-0.018-0.038-0.028-0.097-0.03-0.115c0-0.011-0.005-0.021-0.012-0.03c0,0-0.552-0.72-0.611-0.813
	c-0.062-0.093-0.471-0.872-0.511-0.968c-0.041-0.095-0.076-0.175-0.125-0.286c0.09-0.042,0.185-0.088,0.209-0.11
	c0.035-0.03,0.075-0.059,0.08-0.071c0.009-0.014,0.002-0.058,0-0.074c-0.028-0.14-0.111-0.236-0.111-0.275
	c0-0.058,0.053-0.261,0.053-0.262c0-0.014,0-0.025-0.005-0.038c0,0-0.281-0.582-0.278-0.686c0-0.105,0.181-0.522,0.181-0.522
	c0.006-0.016,0.006-0.035-0.002-0.052c0,0-0.058-0.088-0.05-0.151c0.007-0.063,0.079-0.148,0.079-0.148
	c0.017-0.018,0.022-0.042,0.015-0.063l-0.028-0.101c0.111-0.134,0.314-0.726,0.314-0.726c0.004-0.009,0.008-0.018,0.008-0.028
	c0,0,0.009-0.045,0.009-0.093c0.002-0.028,0.038-0.053,0.068-0.045c0.129,0.034,0.459,0.204,0.459,0.204l0.188,0.093
	c0.018,0.009,0.044,0.013,0.062,0c0.197-0.148,0.241-0.3,0.423-0.476c0.113,0.032,0.526,0.226,0.569,0.248
	c0.038,0.02,0.086,0.022,0.113,0.022c0.035,0,0.128-0.006,0.178-0.059c0.042-0.046,0.323-0.371,0.348-0.411
	c0.012-0.011,0.068-0.077,0.125-0.14c0.209-0.238,0.306-0.384,0.33-0.43c0.025-0.049,0.272-0.448,0.412-0.673
	c0.081,0.096,0.23,0.264,0.335,0.351c0.145,0.122,0.419,0.309,0.43,0.315c0.015,0.01,0.031,0.014,0.05,0.011l0.075-0.015l0.049,0.02
	c0.031,0.013,0.068-0.001,0.083-0.031l0.323-0.601c0.018-0.03,0.007-0.067-0.02-0.086C20.77,10.251,20.421,10,20.275,9.832
	c-0.11-0.13-0.212-0.307-0.262-0.397c0.05-0.026,0.109-0.06,0.135-0.086c0.025-0.032,0.062-0.063,0.062-0.063
	c0.017-0.014,0.023-0.033,0.023-0.054V9.166l0.012-0.007c0.021-0.012,0.03-0.034,0.03-0.057l-0.004-0.144
	c0.039-0.01,0.088-0.03,0.115-0.064c0.026-0.033,0.041-0.09,0.049-0.132c0.062-0.018,0.22-0.018,0.266-0.033
	c0.023-0.008,0.043-0.071,0.079-0.079c0.057-0.006,1.025-0.016,1.661-0.019c0.002,0,0.006,0,0.008,0
	c0.032-0.004,0.143-0.021,0.191-0.077c0.026-0.027,0.086-0.079,0.125-0.107l0.868,0.002c0.012,0.024,0.026,0.041,0.039,0.05
	c0.022,0.014,0.049,0.021,0.094,0.021c0.007,0,0.015,0,0.015,0h0.251c0,0,0.003,0,0.006,0c0.045,0,0.078-0.015,0.102-0.044
	c0.004-0.007,0.012-0.018,0.02-0.026h1.258c0.03,0,0.084-0.005,0.114-0.042c0.007-0.008,0.015-0.017,0.018-0.026h0.109
	c0.035,0,0.067-0.031,0.067-0.068V8.171C25.727,8.134,25.696,8.104,25.66,8.104z M18.174,9.105c0.007-0.02,0.052-0.06,0.071-0.079
	c0.01-0.009,0.021-0.018,0.025-0.022c0.01-0.007,0.045-0.02,0.078-0.031c-0.001,0.024-0.001,0.044,0.003,0.052
	c0.009,0.022,0.06,0.067,0.07,0.076c0.014,0.007,0.025,0.004,0.032-0.011c0.005-0.016,0.009-0.016,0.009-0.06
	c0-0.024,0.004-0.06,0.008-0.095c0.04-0.015,0.075-0.029,0.1-0.048c0.035-0.025,0.059-0.058,0.066-0.098c0-0.001,0-0.002,0-0.004
	l0.067,0.01v0.297c0,0.029-0.025,0.052-0.052,0.052h-0.48C18.172,9.133,18.174,9.121,18.174,9.105z M18.763,9.812
	c-0.055,0.055-0.099,0.1-0.139,0.138c-0.075,0.073-0.133,0.129-0.199,0.215c-0.056,0.073-0.256,0.208-0.356,0.264
	c-0.12-0.06-0.567-0.274-0.597-0.289c-0.086-0.043-0.122-0.07-0.135-0.083c0.017-0.042,0.079-0.133,0.122-0.19
	c0.024-0.039,0.052-0.076,0.069-0.106c0.036-0.056,0.05-0.06,0.102-0.08c0.026-0.007,0.055-0.019,0.095-0.036
	c0.025-0.012,0.049-0.021,0.072-0.029c0.086-0.035,0.172-0.066,0.212-0.199c0.015-0.051,0.022-0.06,0.022-0.059
	c0.001-0.001,0.003-0.001,0.006-0.002c0.014-0.005,0.032-0.015,0.06-0.036c0.023-0.019,0.035-0.045,0.049-0.072h0.583
	c0.043,0,0.076-0.035,0.076-0.078V9.007l0.145,0.015c0.004,0.047,0.011,0.118,0.025,0.197c0.018,0.102,0.054,0.222,0.075,0.282
	C18.991,9.564,18.86,9.713,18.763,9.812z"/>
<path display="none" fill="#A51C1C" d="M16.003,31.995l13.823-7.98L29.824,8.052l-13.821-7.98L2.179,8.052v15.962L16.003,31.995z
	 M18.566,2.816l7.678,4.419l-0.031,8.793l2.529-4.309v8.78l-7.568,4.402h4.949l-7.609,4.393l-7.597-4.451l2.481,4.4L5.78,24.834
	l-0.004-8.807l-2.515,4.327v-8.74l7.643-4.349L5.855,7.217L13.458,2.8l7.622,4.396L18.566,2.816z"/>
<g id="leg_spike_gradient" display="none">
	<linearGradient id="SVGID_1_" gradientUnits="userSpaceOnUse" x1="15.0688" y1="11.0938" x2="15.0688" y2="22.6563">
		<stop  offset="0" style="stop-color:#AA1A1A"/>
		<stop  offset="0.4385" style="stop-color:#5C0C0C"/>
		<stop  offset="0.645" style="stop-color:#2A0303"/>
		<stop  offset="0.867" style="stop-color:#170000"/>
	</linearGradient>
	<path display="inline" fill="url(#SVGID_1_)" d="M17.592,23.582l-0.196-6.866c-0.012-0.014-0.055-0.069-0.111-0.144l-0.199,6.971
		l0.345,0.02C17.489,23.568,17.54,23.575,17.592,23.582z M15.266,14.718l-0.074,2.597c0.032,0.047,0.086,0.129,0.155,0.229
		L15.266,14.718z M16.643,14.898l-0.001,0.036C16.644,14.925,16.644,14.911,16.643,14.898z M18.297,23.669l-0.027-0.978
		c-0.044-0.025-0.092-0.055-0.092-0.055l0.005-0.07c0.001-0.021-0.01-0.041-0.027-0.051l-0.048-0.024l0.042-0.075
		c0.01-0.02,0.008-0.042-0.004-0.059l-0.191-0.254l0.129-0.237c0.008-0.015,0.009-0.029,0.004-0.042
		c-0.002-0.008-0.021-0.064-0.045-0.1c-0.014-0.022-0.049-0.066-0.071-0.098c0.039-0.079,0.218-0.693,0.228-0.712
		c0.034-0.073-0.058-1.492-0.062-1.565l0.032-0.105l-0.022-0.874c-0.019-0.06-0.036-0.152-0.036-0.152l0.006-0.188
		c0.002-0.01-0.004-0.021-0.009-0.03c-0.002-0.002-0.083-0.119-0.153-0.228l-0.168,5.834c0.375,0.049,0.449,0.059,0.465,0.06
		C18.249,23.665,18.268,23.666,18.297,23.669z M14.57,16.792l0.059-0.021l-0.059-2.054l-0.063,2.234
		C14.539,16.878,14.564,16.813,14.57,16.792z M18.973,23.115c-0.097-0.037-0.216-0.075-0.224-0.077
		c-0.006-0.002-0.012-0.003-0.019-0.002l-0.054,0.003l-0.04-0.061c-0.004-0.006-0.095-0.058-0.095-0.058l-0.045-0.028l-0.023,0.785
		c0.156,0.006,0.354,0.01,0.466-0.01c0.017-0.003,0.032-0.005,0.046-0.008L18.973,23.115z M16.673,15.633
		c-0.016-0.033-0.033-0.065-0.049-0.095l-0.108,3.801c0.015,0.013,0.026,0.021,0.038,0.027c0.018,0.02,0.066,0.128,0.027,0.168
		l-0.073,0.058l-0.041,1.413l0.083,0.25l-0.061,0.379c-0.006,0.011-0.008,0.024-0.006,0.036l0.135,0.271l-0.082,0.143l-0.004-0.002
		c-0.019-0.008,0.088,0.377,0.088,0.377l-0.078,0.125c-0.006,0.009-0.008,0.02-0.008,0.027l-0.002,0.231l-0.031,0.093
		c-0.008,0.022,0,0.047,0.021,0.061l0.052,0.037l-0.035,0.119c-0.004,0.009-0.004,0.016-0.002,0.021l0.028,0.247
		c0.003,0.024,0.021,0.043,0.044,0.047l0.291,0.046L16.673,15.633z M13.188,14.718l-0.182,6.354
		c0.042-0.059,0.067-0.096,0.068-0.098c0.005-0.008,0.075-0.464,0.104-0.556l0.167-0.221L13.188,14.718z M11.277,20.723
		c-0.146,0.287-0.28,0.549-0.281,0.555l-0.017,0.343l-0.075,0.084l-0.005,0.167l0.106,0.206c-0.094,0.159-0.114,0.2-0.118,0.216
		l-0.001,0.05c0.001,0.011,0.002,0.019,0.003,0.028c-0.001,0-0.002,0-0.004,0l-0.044,1.555c0.103,0.041,0.244,0.07,0.281,0.074
		c0.018,0.002,0.05,0.003,0.097,0.003c0.043,0,0.096-0.001,0.152-0.002L11.277,20.723z M12.498,14.718l-0.21,7.349
		c0.075-0.103,0.243-0.336,0.405-0.561L12.498,14.718z M19.229,23.629c0.014,0.003,0.023,0.002,0.037-0.002
		c0.021-0.011,0.032-0.031,0.03-0.055l-0.019-0.178c0-0.013-0.008-0.024-0.017-0.033l-0.052-0.047
		c-0.006-0.01-0.02-0.028-0.034-0.049l-0.011,0.367C19.202,23.63,19.219,23.629,19.229,23.629L19.229,23.629z M11.969,23.014
		c0.014-0.01,0.037-0.025,0.042-0.057c0-0.001,0.008-0.014,0.02-0.03l-0.092-3.194c-0.099,0.047-0.252,0.16-0.293,0.216
		l-0.116,4.048c0.134-0.003,0.251-0.007,0.254-0.007c0.001,0,0.002-0.001,0.004-0.001l0.156-0.018
		c0.023-0.003,0.042-0.021,0.046-0.041l0.044-0.209l-0.005-0.086c-0.004-0.016-0.015-0.059-0.036-0.124
		c-0.028-0.089-0.038-0.143-0.038-0.143c-0.002-0.013,0.004-0.32,0.011-0.354C11.967,23.014,11.968,23.014,11.969,23.014z
		 M15.854,18.296c0.112,0.167,0.192,0.286,0.192,0.286c0.005,0.007,0.013,0.012,0.021,0.016l-0.111-3.879L15.854,18.296z
		 M13.878,14.718l-0.138,4.804l0.076-0.145c0.006-0.009,0.009-0.02,0.009-0.029l-0.004-0.254l0.104-0.419
		c0.01-0.019,0.022-0.034,0.028-0.038c0.012-0.01,0.027-0.017,0.038-0.021L13.878,14.718z M12.283,22.553
		c0.002-0.008,0.007-0.027-0.005-0.16l-0.005,0.181C12.278,22.564,12.283,22.557,12.283,22.553z"/>
</g>
</svg>
