<?xml version="1.0" encoding="utf-8"?>
<!-- Generator: Adobe Illustrator 16.0.0, SVG Export Plug-In . SVG Version: 6.00 Build 0)  -->
<!DOCTYPE svg PUBLIC "-//W3C//DTD SVG 1.1//EN" "http://www.w3.org/Graphics/SVG/1.1/DTD/svg11.dtd">
<svg version="1.1" xmlns="http://www.w3.org/2000/svg" xmlns:xlink="http://www.w3.org/1999/xlink" x="0px" y="0px" width="32px"
	 height="32px" viewBox="0 0 32 32" enable-background="new 0 0 32 32" xml:space="preserve">
<symbol  id="dude-transit" viewBox="0 -25.1 21.25 25.118">
	<path fill-rule="evenodd" clip-rule="evenodd" fill="#FFFFFF" d="M15.5-4.2l0.75-1.05l1-3.1l3.9-2.65v-0.05
		c0.067-0.1,0.1-0.233,0.1-0.4c0-0.2-0.05-0.383-0.15-0.55c-0.167-0.233-0.383-0.35-0.65-0.35l-4.3,1.8l-1.2,1.65l-1.5-3.95
		l2.25-5.05l-3.25-6.9c-0.267-0.2-0.633-0.3-1.1-0.3c-0.3,0-0.55,0.15-0.75,0.45c-0.1,0.133-0.15,0.25-0.15,0.35
		c0,0.067,0.017,0.15,0.05,0.25c0.033,0.1,0.067,0.184,0.1,0.25l2.55,5.6L10.7-14l-3.05-4.9L0.8-18.7
		c-0.367,0.033-0.6,0.184-0.7,0.45c-0.067,0.3-0.1,0.467-0.1,0.5c0,0.5,0.2,0.767,0.6,0.8l5.7,0.15l2.15,5.4l3.1,5.65L9.4-5.6
		c-1.367-2-2.1-3.033-2.2-3.1C7.1-8.8,6.95-8.85,6.75-8.85C6.35-8.85,6.1-8.667,6-8.3C5.9-8,5.9-7.8,6-7.7H5.95l2.5,4.4l3.7,0.3
		L14-3.5L15.5-4.2z M14.55-2.9c-0.333,0.4-0.45,0.85-0.35,1.35c0.033,0.5,0.25,0.9,0.65,1.2S15.7,0.066,16.2,0
		c0.5-0.067,0.9-0.3,1.2-0.7c0.333-0.4,0.467-0.85,0.4-1.35c-0.066-0.5-0.3-0.9-0.7-1.2c-0.4-0.333-0.85-0.45-1.35-0.35
		C15.25-3.533,14.85-3.3,14.55-2.9z"/>
</symbol>
<g id="Layer_1">
</g>
<g id="Layer_2">
	<g>
		<g>
			<path fill-rule="evenodd" clip-rule="evenodd" fill="#FFFFFF" d="M21.61,16.846c0.009-0.808-0.275-0.828-0.291-1.322
				c-0.012-0.249,0.018-0.942,0-1.613c-0.025-0.668-0.094-1.312-0.148-1.469c-0.11-0.311-0.234-0.824-1.174-1.61
				c-1.027-0.863-3.008-1.598-4.107-1.616c-1.101-0.019-2.384,0.533-3.375,1.174c-0.989,0.642-1.227,0.917-1.612,1.468
				c-0.387,0.551-0.532,0.935-0.442,1.907c0.094,0.972,0.113,0.715,0.147,1.613c0.03,0.742-0.31,0.972-0.292,1.469
				c0.024,0.738,0.3,0.892,0.292,1.171c-0.006,0.188-0.328,0.415-0.292,1.028c0.036,0.623,0.165,0.788,1.319,1.467
				c0.75,0.441,1.633,0.604,1.614,0.882c-0.027,0.402-0.128,1.063-0.146,1.465c-0.02,0.403,0.164,0.439,0.585,0.588
				c0.423,0.146,1.413,0.459,2.495,0.44c1.082-0.021,1.539-0.239,2.054-0.44c0.513-0.203,0.587-0.386,0.587-0.732
				c0-0.35-0.293-1.063-0.293-1.32c0-0.259,0.879-0.533,1.908-1.027c1.024-0.497,1.012-0.992,1.024-1.321
				c0.021-0.623-0.293-0.771-0.293-1.028C21.171,17.516,21.604,17.432,21.61,16.846z M12.955,18.311
				c-0.513,0.019-1.612,0.019-1.612-1.465c0-2.061,1.1-2.293,1.906-2.349c0.806-0.057,0.918-0.147,1.32,0.146
				c0.724,0.527,0.678,1.46,0.439,2.202c-0.174,0.539-0.366,0.75-0.732,1.024C13.91,18.146,13.47,18.293,12.955,18.311z
				 M16.331,20.657l-0.204-0.748l-0.312,0.002l-0.219,0.746c-0.845-0.227-1.184-0.567-1.175-1.024
				c0.011-0.46,0.268-0.936,0.733-1.322c0.469-0.386,0.544-0.444,0.88-0.44c0.322,0.006,0.351,0.065,0.587,0.296
				c0.513,0.487,0.843,0.813,0.881,1.467C17.541,20.274,16.797,20.63,16.331,20.657z M18.97,18.311
				c-0.515-0.018-0.953-0.164-1.32-0.44c-0.366-0.274-0.582-0.478-0.733-1.024c-0.188-0.692-0.284-1.675,0.441-2.202
				c0.403-0.294,0.512-0.203,1.319-0.146c0.806,0.056,1.906,0.288,1.906,2.349C20.583,18.329,19.482,18.329,18.97,18.311z"/>
		</g>
	</g>
	<g>
		<g>
			<polyline fill="none" stroke="#FFFFFF" stroke-width="2.5238" stroke-miterlimit="10" points="29.166,12.008 26.75,16.308 
				22.451,13.892 			"/>
			<path fill="none" stroke="#FFFFFF" stroke-width="2.5238" stroke-miterlimit="10" d="M26.325,15.726
				c-0.043-2.631-1.068-5.249-3.077-7.256C19.145,4.365,12.49,4.364,8.387,8.469c-1.119,1.12-1.933,2.432-2.442,3.827"/>
		</g>
		<g>
			<polyline fill="none" stroke="#FFFFFF" stroke-width="2.5238" stroke-miterlimit="10" points="2.703,20.812 5.119,16.512 
				9.418,18.927 			"/>
			<path fill="none" stroke="#FFFFFF" stroke-width="2.5238" stroke-miterlimit="10" d="M5.544,17.094
				c0.043,2.631,1.068,5.248,3.077,7.256c4.104,4.104,10.758,4.105,14.861,0.001c1.103-1.104,1.908-2.393,2.419-3.766"/>
		</g>
	</g>
</g>
</svg>
