<?xml version="1.0" encoding="utf-8"?>
<!-- Generator: Adobe Illustrator 23.0.6, SVG Export Plug-In . SVG Version: 6.00 Build 0)  -->
<svg version="1.1" xmlns="http://www.w3.org/2000/svg" xmlns:xlink="http://www.w3.org/1999/xlink" x="0px" y="0px"
	 width="32.217px" height="32.505px" viewBox="0 0 32.217 32.505" enable-background="new 0 0 32.217 32.505" xml:space="preserve">
<symbol  id="dude-transit" viewBox="0 -25.1 21.25 25.118">
	<path fill-rule="evenodd" clip-rule="evenodd" fill="#FFFFFF" d="M15.5-4.2l0.75-1.05l1-3.1l3.9-2.65v-0.05
		c0.067-0.1,0.1-0.233,0.1-0.4c0-0.2-0.05-0.383-0.15-0.55c-0.167-0.233-0.383-0.35-0.65-0.35l-4.3,1.8l-1.2,1.65l-1.5-3.95
		l2.25-5.05l-3.25-6.9c-0.267-0.2-0.633-0.3-1.1-0.3c-0.3,0-0.55,0.15-0.75,0.45c-0.1,0.133-0.15,0.25-0.15,0.35
		c0,0.067,0.017,0.15,0.05,0.25c0.033,0.1,0.067,0.184,0.1,0.25l2.55,5.6L10.7-14l-3.05-4.9L0.8-18.7
		c-0.367,0.033-0.6,0.184-0.7,0.45c-0.067,0.3-0.1,0.467-0.1,0.5c0,0.5,0.2,0.767,0.6,0.8l5.7,0.15l2.15,5.4l3.1,5.65L9.4-5.6
		c-1.367-2-2.1-3.033-2.2-3.1C7.1-8.8,6.95-8.85,6.75-8.85C6.35-8.85,6.1-8.667,6-8.3C5.9-8,5.9-7.8,6-7.7H5.95l2.5,4.4l3.7,0.3
		L14-3.5L15.5-4.2z M14.55-2.9c-0.333,0.4-0.45,0.85-0.35,1.35c0.033,0.5,0.25,0.9,0.65,1.2c0.4,0.3,0.85,0.417,1.35,0.35
		c0.5-0.067,0.9-0.3,1.2-0.7c0.333-0.4,0.467-0.85,0.4-1.35c-0.066-0.5-0.3-0.9-0.7-1.2c-0.4-0.333-0.85-0.45-1.35-0.35
		C15.25-3.533,14.85-3.3,14.55-2.9z"/>
</symbol>
<g id="Layer_1">
</g>
<g id="Layer_2">
	<g>
		<g>
			<g>
				<polygon fill="#FCDC55" points="15.88,0.599 13.767,6.859 7.207,6.785 12.411,10.402 10.451,16.587 15.806,13.044 
					21.235,16.661 19.122,10.63 24.477,6.785 17.84,6.708 				"/>
			</g>
			<g>
				<g>
					<g id="Selected_Items_38_">
						<path fill="#FCDC55" d="M31.546,13.075l-0.015,0.938c-0.038,0.707-0.125,1.262-0.261,1.665
							c-0.25,0.703-0.69,1.418-1.318,2.144c-0.564,0.646-1.288,1.313-2.177,2.003l-4.077,3.168
							c-0.046,0.033-0.074,0.051-0.092,0.054c-0.003-0.005-0.059-0.043-0.161-0.112c-0.148-0.084-0.238-0.135-0.268-0.151
							c-0.159-0.077-0.327-0.107-0.509-0.097c-0.192,0.008-0.386,0.087-0.582,0.23c-0.204,0.148-0.352,0.327-0.447,0.542
							c-0.13,0.289-0.174,0.598-0.133,0.923c0.018,0.163,0.051,0.299,0.102,0.398c0.112,0.212,0.237,0.299,0.37,0.266
							c0.072-0.033,0.123-0.056,0.158-0.064c0.059-0.028,0.107-0.036,0.146-0.023c0.128,0.051,0.194,0.123,0.199,0.217
							c0.005,0.095-0.056,0.184-0.184,0.261c-0.156,0.095-0.342,0.14-0.554,0.133c-0.263-0.003-0.473-0.107-0.626-0.304l-0.529-0.68
							c-0.057-0.074-0.102-0.122-0.141-0.143c-0.051-0.031-0.102-0.026-0.153,0.013c-0.036,0.028-0.393,0.401-1.071,1.117
							c-0.846,0.848-1.694,1.599-2.537,2.253c-0.825,0.641-1.753,1.29-2.782,1.952c-0.511,0.327-1.004,0.641-1.479,0.94
							c-0.138,0.105-0.207,0.263-0.212,0.475c0.003,0.117,0.018,0.266,0.046,0.444c0.01,0.092-0.015,0.166-0.079,0.225
							c-0.061,0.048-0.146,0.056-0.248,0.028c-0.107-0.036-0.391-0.342-0.848-0.922c-0.11,0.005-0.212-0.02-0.312-0.072
							c-0.11-0.056-0.204-0.13-0.283-0.23c-0.069-0.092-0.12-0.202-0.143-0.319c-0.025-0.11-0.023-0.217,0.005-0.319
							c-0.411-0.554-0.621-0.884-0.631-0.986c-0.008-0.112,0.023-0.192,0.09-0.232c0.067-0.054,0.148-0.061,0.237-0.023
							c0.164,0.074,0.302,0.12,0.409,0.145c0.212,0.054,0.386,0.028,0.524-0.077c0.409-0.388,0.833-0.787,1.277-1.201
							c0.889-0.841,1.747-1.582,2.573-2.223c0.843-0.657,1.781-1.288,2.811-1.898c0.861-0.48,1.308-0.733,1.346-0.761
							c0.051-0.038,0.066-0.089,0.053-0.145c-0.008-0.033-0.041-0.09-0.099-0.164l-0.526-0.679
							c-0.156-0.199-0.202-0.427-0.141-0.682c0.049-0.207,0.136-0.376,0.263-0.503c0.11-0.105,0.21-0.143,0.302-0.112
							c0.087,0.02,0.138,0.1,0.153,0.235c0.008,0.046-0.01,0.095-0.051,0.146c-0.021,0.025-0.054,0.071-0.102,0.138
							c-0.067,0.123-0.013,0.26,0.158,0.414c0.161,0.156,0.317,0.256,0.468,0.294l0.181,0.023l0.189,0.245l2.55-1.983
							c0.281-0.22,0.723-0.524,1.326-0.925c0.764-0.503,1.357-0.889,1.776-1.155c1.63-1.068,2.792-1.891,3.487-2.468
							c0.756-0.639,1.413-1.229,1.97-1.768L31.546,13.075z"/>
					</g>
				</g>
			</g>
			<g>
				<g>
					<g id="Selected_Items_37_">
						<path fill="#FCDC55" d="M0.671,13.075l0.015,0.938c0.038,0.707,0.125,1.262,0.26,1.665c0.251,0.703,0.69,1.418,1.321,2.144
							c0.562,0.646,1.288,1.313,2.174,2.003l4.08,3.168c0.041,0.033,0.074,0.051,0.089,0.054c0.005-0.005,0.059-0.043,0.164-0.112
							c0.146-0.084,0.235-0.135,0.268-0.151c0.156-0.077,0.327-0.107,0.506-0.097c0.192,0.008,0.389,0.087,0.583,0.23
							c0.204,0.148,0.352,0.327,0.447,0.542c0.133,0.289,0.177,0.598,0.133,0.923c-0.018,0.163-0.051,0.299-0.1,0.398
							c-0.115,0.212-0.237,0.299-0.371,0.266c-0.074-0.033-0.125-0.056-0.158-0.064c-0.061-0.028-0.11-0.036-0.145-0.023
							c-0.13,0.051-0.197,0.123-0.199,0.217c-0.008,0.095,0.056,0.184,0.182,0.261c0.158,0.095,0.342,0.14,0.554,0.133
							c0.263-0.003,0.473-0.107,0.626-0.304l0.529-0.68c0.056-0.074,0.105-0.122,0.14-0.143c0.051-0.031,0.105-0.026,0.153,0.013
							c0.036,0.028,0.394,0.401,1.073,1.117c0.843,0.848,1.689,1.599,2.535,2.253c0.825,0.641,1.755,1.29,2.785,1.952
							c0.508,0.327,1.001,0.641,1.477,0.94c0.138,0.105,0.21,0.263,0.215,0.475c-0.003,0.117-0.02,0.266-0.049,0.444
							c-0.01,0.092,0.015,0.166,0.079,0.225c0.061,0.048,0.145,0.056,0.248,0.028c0.107-0.036,0.391-0.342,0.851-0.922
							c0.105,0.005,0.212-0.02,0.309-0.072c0.112-0.056,0.204-0.13,0.281-0.23c0.074-0.092,0.123-0.202,0.145-0.319
							c0.026-0.11,0.023-0.217-0.005-0.319c0.411-0.554,0.621-0.884,0.631-0.986c0.008-0.112-0.02-0.192-0.089-0.232
							c-0.067-0.054-0.146-0.061-0.235-0.023c-0.163,0.074-0.304,0.12-0.414,0.145c-0.21,0.054-0.383,0.028-0.521-0.077
							c-0.404-0.388-0.833-0.787-1.277-1.201c-0.889-0.841-1.745-1.582-2.573-2.223c-0.843-0.657-1.778-1.288-2.808-1.898
							c-0.863-0.48-1.31-0.733-1.349-0.761c-0.049-0.038-0.067-0.089-0.051-0.145c0.005-0.033,0.038-0.09,0.095-0.164l0.529-0.679
							c0.153-0.199,0.202-0.427,0.143-0.682c-0.048-0.207-0.138-0.376-0.266-0.503c-0.107-0.105-0.209-0.143-0.299-0.112
							c-0.087,0.02-0.138,0.1-0.156,0.235c-0.005,0.046,0.01,0.095,0.051,0.146c0.02,0.025,0.056,0.071,0.102,0.138
							c0.067,0.123,0.013,0.26-0.158,0.414c-0.161,0.156-0.314,0.256-0.467,0.294l-0.182,0.023l-0.189,0.245l-2.55-1.983
							c-0.279-0.217-0.72-0.524-1.326-0.925c-0.764-0.503-1.357-0.889-1.776-1.155c-1.632-1.068-2.792-1.891-3.487-2.468
							c-0.756-0.639-1.413-1.229-1.97-1.768L0.671,13.075z"/>
					</g>
				</g>
			</g>
		</g>
	</g>
</g>
<g id="topo">
</g>
</svg>
