<?xml version="1.0" encoding="utf-8"?>
<!-- Generator: Adobe Illustrator 23.0.3, SVG Export Plug-In . SVG Version: 6.00 Build 0)  -->
<svg version="1.1" xmlns="http://www.w3.org/2000/svg" xmlns:xlink="http://www.w3.org/1999/xlink" x="0px" y="0px"
	 width="69.903px" height="69.903px" viewBox="0 0 69.903 69.903" enable-background="new 0 0 69.903 69.903" xml:space="preserve">
<symbol  id="dude-transit" viewBox="0 -25.1 21.25 25.118">
	<path fill-rule="evenodd" clip-rule="evenodd" fill="#FFFFFF" d="M15.5-4.2l0.75-1.05l1-3.1l3.9-2.65v-0.05
		c0.067-0.1,0.1-0.233,0.1-0.4c0-0.2-0.05-0.383-0.15-0.55c-0.167-0.233-0.383-0.35-0.65-0.35l-4.3,1.8l-1.2,1.65l-1.5-3.95
		l2.25-5.05l-3.25-6.9c-0.267-0.2-0.633-0.3-1.1-0.3c-0.3,0-0.55,0.15-0.75,0.45c-0.1,0.133-0.15,0.25-0.15,0.35
		c0,0.067,0.017,0.15,0.05,0.25c0.033,0.1,0.067,0.184,0.1,0.25l2.55,5.6L10.7-14l-3.05-4.9L0.8-18.7
		c-0.367,0.033-0.6,0.184-0.7,0.45c-0.067,0.3-0.1,0.467-0.1,0.5c0,0.5,0.2,0.767,0.6,0.8l5.7,0.15l2.15,5.4l3.1,5.65L9.4-5.6
		c-1.367-2-2.1-3.033-2.2-3.1C7.1-8.8,6.95-8.85,6.75-8.85C6.35-8.85,6.1-8.667,6-8.3C5.9-8,5.9-7.8,6-7.7H5.95l2.5,4.4l3.7,0.3
		L14-3.5L15.5-4.2z M14.55-2.9c-0.333,0.4-0.45,0.85-0.35,1.35c0.033,0.5,0.25,0.9,0.65,1.2c0.4,0.3,0.85,0.417,1.35,0.35
		c0.5-0.067,0.9-0.3,1.2-0.7c0.333-0.4,0.467-0.85,0.4-1.35c-0.066-0.5-0.3-0.9-0.7-1.2c-0.4-0.333-0.85-0.45-1.35-0.35
		C15.25-3.533,14.85-3.3,14.55-2.9z"/>
</symbol>
<g id="Layer_1">
</g>
<g id="Layer_2">
	<g>
		<polygon fill="#FFFFFF" points="34.298,2.396 29.635,16.213 15.153,16.049 26.64,24.035 22.315,37.687 34.135,29.866 
			46.119,37.851 41.455,24.537 53.275,16.049 38.624,15.88 		"/>
		<g>
			<g>
				<g id="Selected_Items_13_">
					<path fill="#FFFFFF" d="M68.879,27.728l-0.033,2.07c-0.085,1.561-0.277,2.785-0.575,3.676c-0.553,1.551-1.523,3.13-2.91,4.732
						c-1.246,1.426-2.842,2.898-4.805,4.421l-9,6.993c-0.101,0.073-0.164,0.113-0.203,0.119c-0.006-0.011-0.13-0.096-0.355-0.248
						c-0.327-0.186-0.525-0.299-0.592-0.333c-0.35-0.169-0.722-0.237-1.122-0.214c-0.423,0.017-0.851,0.192-1.285,0.507
						c-0.451,0.327-0.778,0.722-0.987,1.195c-0.287,0.637-0.383,1.319-0.293,2.036c0.039,0.361,0.112,0.659,0.225,0.879
						c0.248,0.468,0.524,0.66,0.817,0.587c0.158-0.073,0.27-0.124,0.349-0.141c0.13-0.062,0.237-0.079,0.322-0.051
						c0.282,0.112,0.429,0.27,0.44,0.479c0.012,0.209-0.123,0.406-0.406,0.576c-0.344,0.209-0.756,0.31-1.224,0.293
						c-0.581-0.006-1.044-0.237-1.382-0.671l-1.167-1.5c-0.125-0.164-0.226-0.27-0.311-0.315c-0.112-0.068-0.225-0.057-0.338,0.028
						c-0.079,0.062-0.868,0.885-2.363,2.465c-1.866,1.872-3.739,3.53-5.599,4.974c-1.822,1.415-3.869,2.848-6.142,4.308
						c-1.127,0.722-2.216,1.415-3.265,2.075c-0.304,0.231-0.457,0.58-0.468,1.049c0.006,0.259,0.039,0.587,0.101,0.981
						c0.022,0.203-0.034,0.367-0.175,0.496c-0.135,0.107-0.322,0.124-0.547,0.062c-0.237-0.079-0.863-0.756-1.872-2.036
						c-0.243,0.011-0.468-0.045-0.689-0.158c-0.243-0.124-0.451-0.288-0.625-0.508c-0.153-0.203-0.266-0.445-0.316-0.705
						c-0.056-0.242-0.051-0.479,0.011-0.704c-0.908-1.224-1.37-1.952-1.393-2.177c-0.017-0.248,0.051-0.423,0.198-0.513
						c0.147-0.119,0.327-0.135,0.524-0.051c0.361,0.164,0.666,0.265,0.903,0.321c0.468,0.119,0.851,0.062,1.156-0.169
						c0.902-0.857,1.839-1.737,2.82-2.65c1.962-1.855,3.857-3.491,5.678-4.907c1.861-1.449,3.931-2.842,6.204-4.19
						c1.9-1.06,2.887-1.618,2.972-1.681c0.112-0.085,0.146-0.197,0.118-0.321c-0.017-0.073-0.09-0.198-0.219-0.361l-1.162-1.5
						c-0.344-0.44-0.446-0.942-0.311-1.506c0.107-0.457,0.3-0.829,0.581-1.111c0.243-0.232,0.462-0.316,0.666-0.248
						c0.191,0.045,0.304,0.22,0.338,0.519c0.017,0.101-0.022,0.209-0.112,0.322c-0.046,0.056-0.119,0.157-0.226,0.304
						c-0.147,0.27-0.028,0.575,0.349,0.913c0.356,0.345,0.7,0.564,1.032,0.649l0.4,0.051l0.417,0.542l5.629-4.376
						c0.62-0.485,1.595-1.156,2.927-2.041c1.686-1.111,2.995-1.963,3.919-2.549c3.598-2.357,6.164-4.173,7.698-5.448
						c1.67-1.41,3.119-2.712,4.348-3.902L68.879,27.728z"/>
				</g>
			</g>
		</g>
		<g>
			<g>
				<g id="Selected_Items_14_">
					<path fill="#FFFFFF" d="M0.727,27.728l0.034,2.07c0.085,1.561,0.277,2.785,0.575,3.676c0.553,1.551,1.523,3.13,2.916,4.732
						c1.24,1.426,2.842,2.898,4.799,4.421l9.007,6.993c0.09,0.073,0.163,0.113,0.197,0.119c0.012-0.011,0.13-0.096,0.361-0.248
						c0.322-0.186,0.519-0.299,0.592-0.333c0.344-0.169,0.722-0.237,1.116-0.214c0.423,0.017,0.858,0.192,1.286,0.507
						c0.451,0.327,0.778,0.722,0.987,1.195c0.293,0.637,0.39,1.319,0.293,2.036c-0.04,0.361-0.113,0.659-0.22,0.879
						c-0.254,0.468-0.524,0.66-0.818,0.587c-0.163-0.073-0.276-0.124-0.349-0.141c-0.135-0.062-0.243-0.079-0.321-0.051
						c-0.288,0.112-0.435,0.27-0.44,0.479c-0.017,0.209,0.124,0.406,0.401,0.576c0.349,0.209,0.756,0.31,1.224,0.293
						c0.58-0.006,1.044-0.237,1.382-0.671l1.167-1.5c0.124-0.164,0.231-0.27,0.31-0.315c0.113-0.068,0.232-0.057,0.338,0.028
						c0.079,0.062,0.869,0.885,2.368,2.465c1.861,1.872,3.728,3.53,5.595,4.974c1.821,1.415,3.874,2.848,6.147,4.308
						c1.122,0.722,2.21,1.415,3.259,2.075c0.304,0.231,0.462,0.58,0.474,1.049c-0.006,0.259-0.045,0.587-0.107,0.981
						c-0.022,0.203,0.034,0.367,0.175,0.496c0.135,0.107,0.321,0.124,0.547,0.062c0.236-0.079,0.862-0.756,1.878-2.036
						c0.232,0.011,0.468-0.045,0.682-0.158c0.248-0.124,0.451-0.288,0.621-0.508c0.164-0.203,0.271-0.445,0.321-0.705
						c0.057-0.242,0.051-0.479-0.011-0.704c0.908-1.224,1.371-1.952,1.393-2.177c0.017-0.248-0.045-0.423-0.197-0.513
						c-0.147-0.119-0.322-0.135-0.519-0.051c-0.361,0.164-0.671,0.265-0.913,0.321c-0.462,0.119-0.846,0.062-1.15-0.169
						c-0.892-0.857-1.839-1.737-2.82-2.65c-1.963-1.855-3.852-3.491-5.679-4.907c-1.861-1.449-3.925-2.842-6.198-4.19
						c-1.906-1.06-2.893-1.618-2.977-1.681c-0.107-0.085-0.147-0.197-0.113-0.321c0.011-0.073,0.085-0.198,0.209-0.361l1.168-1.5
						c0.338-0.44,0.445-0.942,0.316-1.506c-0.107-0.457-0.304-0.829-0.587-1.111c-0.236-0.232-0.462-0.316-0.659-0.248
						c-0.192,0.045-0.304,0.22-0.345,0.519c-0.011,0.101,0.023,0.209,0.113,0.322c0.045,0.056,0.124,0.157,0.225,0.304
						c0.147,0.27,0.028,0.575-0.349,0.913c-0.355,0.345-0.693,0.564-1.032,0.649l-0.401,0.051l-0.417,0.542l-5.628-4.376
						c-0.615-0.479-1.59-1.156-2.927-2.041c-1.686-1.111-2.995-1.963-3.919-2.549c-3.603-2.357-6.164-4.173-7.698-5.448
						c-1.67-1.41-3.119-2.712-4.348-3.902L0.727,27.728z"/>
				</g>
			</g>
		</g>
	</g>
</g>
</svg>
