<?xml version="1.0" encoding="utf-8"?>
<!-- Generator: Adobe Illustrator 16.0.3, SVG Export Plug-In . SVG Version: 6.00 Build 0)  -->
<!DOCTYPE svg PUBLIC "-//W3C//DTD SVG 1.1//EN" "http://www.w3.org/Graphics/SVG/1.1/DTD/svg11.dtd">
<svg version="1.1" xmlns="http://www.w3.org/2000/svg" xmlns:xlink="http://www.w3.org/1999/xlink" x="0px" y="0px" width="32px"
	 height="32px" viewBox="0 0 32 32" enable-background="new 0 0 32 32" xml:space="preserve">
<g id="Layer_1">
	<polygon fill="#FFFFFF" points="15.969,15.738 0.969,8.738 15.969,2.238 30.969,8.738 	"/>
	<path fill="#FFFFFF" d="M6.469,12.738l9.5,4.5l9.5-4.5v6c0,0-4-2-9.5,3.5c-5.5-6-9.5-3.5-9.5-3.5"/>
	<polygon fill="#FFFFFF" points="28.156,24.738 27.156,24.738 27.156,11.738 28.156,11.238 	"/>
	<path fill="#FFFFFF" d="M26.406,19.488c0-0.69,0.56-1.25,1.25-1.25l0,0c0.69,0,1.25,0.56,1.25,1.25l0,0c0,0.69-0.56,1.25-1.25,1.25
		l0,0C26.966,20.738,26.406,20.178,26.406,19.488L26.406,19.488z"/>
	<path fill="#FFFFFF" d="M26.406,20.56c0,0.69,0.56,1.25,1.25,1.25l0,0c0.69,0,1.25-0.56,1.25-1.25l0,0c0-0.691-0.56-1.25-1.25-1.25
		l0,0C26.966,19.31,26.406,19.869,26.406,20.56L26.406,20.56z"/>
	<rect x="26.406" y="21.452" fill="#FFFFFF" width="2.5" height="8.214"/>
</g>
<g id="Layer_2">
</g>
</svg>
