<svg width="233" height="98" viewBox="0 0 233 98" fill="none" xmlns="http://www.w3.org/2000/svg">
<path d="M116.499 5.92046C117.923 11.8002 112.743 16.9608 106.858 15.5319C104.097 14.86 101.839 12.5951 101.176 9.83505C99.7699 3.9679 104.925 -1.17689 110.8 0.236271C113.564 0.898691 115.829 3.16038 116.499 5.92046Z" fill="white"/>
<path fill-rule="evenodd" clip-rule="evenodd" d="M98.974 29.1778H97.7452V55.7099C97.7452 55.7099 98 58 95.5 58C93 58 93 55.7099 93 55.7099V24C93 20 94.6519 18.1375 98.576 18.1375H118.5H119.424C123.348 18.1375 125 20 125 24V55.7099C125 55.7099 125 58 122.5 58C120 58 120.255 55.7099 120.255 55.7099V29.1778H118.912V94.8299C118.912 96.6058 116.988 97.9969 115.014 97.9969C113.04 97.9969 111.214 96.6058 111.214 94.8299V58.7501C111.214 56.5799 107.016 56.5294 107.067 58.5514V94.8268C107.067 97.7856 103.02 97.9938 103.02 97.9938C103.02 97.9938 99.0719 98.2303 98.974 94.6312C98.8887 91.4768 98.974 29.1778 98.974 29.1778ZM108.599 27.6967C108.306 27.5496 108.104 27.246 108.104 26.8956C108.104 26.4012 108.506 26 109 26C109.494 26 109.896 26.4012 109.896 26.8956C109.896 27.246 109.694 27.5496 109.401 27.6967L111.463 31.8214L114.145 29.4971C114.008 29.34 113.926 29.1349 113.926 28.9106C113.926 28.4162 114.327 28.015 114.821 28.015C115.316 28.015 115.717 28.4162 115.717 28.9106C115.717 29.405 115.316 29.8062 114.821 29.8062C114.799 29.8062 114.777 29.8054 114.754 29.8037L114.15 37.8667H109.037H109H103.85L103.246 29.8037C103.223 29.8054 103.201 29.8062 103.179 29.8062C102.684 29.8062 102.283 29.405 102.283 28.9106C102.283 28.4162 102.684 28.015 103.179 28.015C103.673 28.015 104.074 28.4162 104.074 28.9106C104.074 29.1349 103.992 29.34 103.855 29.4971L106.537 31.8214L108.599 27.6967Z" fill="white"/>
<path d="M125.974 29.1778H124.745V55.7099C124.745 55.7099 125 58 122.5 58C120 58 120 55.7099 120 55.7099V24C120 20 121.652 18.1375 125.576 18.1375H145.5H146.424C150.348 18.1375 152 20 152 24V55.7099C152 55.7099 152 58 149.5 58C147 58 147.255 55.7099 147.255 55.7099V29.1778H145.912V94.8299C145.912 96.6058 143.988 97.9969 142.014 97.9969C140.04 97.9969 138.214 96.6058 138.214 94.8299V58.7501C138.214 56.5799 134.016 56.5294 134.067 58.5514V94.8268C134.067 97.7856 130.02 97.9938 130.02 97.9938C130.02 97.9938 126.072 98.2303 125.974 94.6312C125.889 91.4768 125.974 29.1778 125.974 29.1778Z" fill="white"/>
<path d="M143.499 5.92046C144.923 11.8002 139.743 16.9608 133.858 15.5319C131.097 14.86 128.839 12.5951 128.176 9.83505C126.77 3.9679 131.925 -1.17689 137.8 0.236271C140.564 0.898691 142.829 3.16038 143.499 5.92046Z" fill="white"/>
<path d="M152.974 29.1778H151.745V55.7099C151.745 55.7099 152 58 149.5 58C147 58 147 55.7099 147 55.7099V24C147 20 148.652 18.1375 152.576 18.1375H172.5H173.424C177.348 18.1375 179 20 179 24V55.7099C179 55.7099 179 58 176.5 58C174 58 174.255 55.7099 174.255 55.7099V29.1778H172.912V94.8299C172.912 96.6058 170.988 97.9969 169.014 97.9969C167.04 97.9969 165.214 96.6058 165.214 94.8299V58.7501C165.214 56.5799 161.016 56.5294 161.067 58.5514V94.8268C161.067 97.7856 157.02 97.9938 157.02 97.9938C157.02 97.9938 153.072 98.2303 152.974 94.6312C152.889 91.4768 152.974 29.1778 152.974 29.1778Z" fill="white"/>
<path d="M170.499 5.92046C171.923 11.8002 166.743 16.9608 160.858 15.5319C158.097 14.86 155.839 12.5951 155.176 9.83505C153.77 3.9679 158.925 -1.17689 164.8 0.236271C167.564 0.898691 169.829 3.16038 170.499 5.92046Z" fill="white"/>
<path d="M179.974 29.1778H178.745V55.7099C178.745 55.7099 179 58 176.5 58C174 58 174 55.7099 174 55.7099V24C174 20 175.652 18.1375 179.576 18.1375H199.5H200.424C204.348 18.1375 206 20 206 24V55.7099C206 55.7099 206 58 203.5 58C201 58 201.255 55.7099 201.255 55.7099V29.1778H199.912V94.8299C199.912 96.6058 197.988 97.9969 196.014 97.9969C194.04 97.9969 192.214 96.6058 192.214 94.8299V58.7501C192.214 56.5799 188.016 56.5294 188.067 58.5514V94.8268C188.067 97.7856 184.02 97.9938 184.02 97.9938C184.02 97.9938 180.072 98.2303 179.974 94.6312C179.889 91.4768 179.974 29.1778 179.974 29.1778Z" fill="white"/>
<path d="M197.499 5.92046C198.923 11.8002 193.743 16.9608 187.858 15.5319C185.097 14.86 182.839 12.5951 182.176 9.83505C180.77 3.9679 185.925 -1.17689 191.8 0.236271C194.564 0.898691 196.829 3.16038 197.499 5.92046Z" fill="white"/>
<path d="M206.974 29.1778H205.745V55.7099C205.745 55.7099 206 58 203.5 58C201 58 201 55.7099 201 55.7099V24C201 20 202.652 18.1375 206.576 18.1375H226.5H227.424C231.348 18.1375 233 20 233 24V55.7099C233 55.7099 233 58 230.5 58C228 58 228.255 55.7099 228.255 55.7099V29.1778H226.912V94.8299C226.912 96.6058 224.988 97.9969 223.014 97.9969C221.04 97.9969 219.214 96.6058 219.214 94.8299V58.7501C219.214 56.5799 215.016 56.5294 215.067 58.5514V94.8268C215.067 97.7856 211.02 97.9938 211.02 97.9938C211.02 97.9938 207.072 98.2303 206.974 94.6312C206.889 91.4768 206.974 29.1778 206.974 29.1778Z" fill="white"/>
<path d="M224.499 5.92046C225.923 11.8002 220.743 16.9608 214.858 15.5319C212.097 14.86 209.839 12.5951 209.176 9.83505C207.77 3.9679 212.925 -1.17689 218.8 0.236271C221.564 0.898691 223.829 3.16038 224.499 5.92046Z" fill="white"/>
<path d="M40.0213 16C17.9178 16 0 33.9178 0 56.0213C0 78.1222 17.9178 96.04 40.0213 96.04C62.1222 96.04 80.04 78.1222 80.04 56.0213C80.04 33.9178 62.1222 16 40.0213 16ZM6.27456 58.3153H21.6506C21.7865 63.0153 22.3167 67.4861 23.1906 71.5812H9.98069C7.8865 67.5633 6.59695 63.0712 6.27456 58.3153ZM42.2407 36.5449V22.3279C45.7311 23.9185 49.1894 29.0793 51.4887 36.5449H42.2407ZM52.5545 40.648C53.4577 44.6419 54.0359 49.11 54.1637 53.9138H42.2381V40.648H52.5545ZM37.8019 22.3279V36.5449H28.5513C30.8506 29.0793 34.3116 23.9185 37.8019 22.3279ZM37.8019 40.648V53.9138H25.8736C26.0041 49.1073 26.5796 44.6419 27.4829 40.648H37.8019ZM21.6452 53.9165H6.26657C6.55965 49.1633 7.82522 44.6738 9.88477 40.6506H23.1266C22.2687 44.7458 21.7625 49.2219 21.6452 53.9165ZM25.8789 58.3153H37.8019V71.5812H27.5468C26.6276 67.5953 26.0308 63.1272 25.8789 58.3153ZM37.8019 75.687V89.6189C34.3569 88.0523 30.9492 82.998 28.6498 75.687H37.8019ZM42.2407 89.6162V75.6843H51.3901C49.0935 82.9953 45.6858 88.0496 42.2407 89.6162ZM42.2407 71.5812V58.3153H54.1611C54.0092 63.1272 53.4151 67.5953 52.4932 71.5812H42.2407ZM58.3894 58.3153H73.7654C73.443 63.0712 72.1535 67.5633 70.0593 71.5812H56.8468C57.7233 67.4861 58.2535 63.0153 58.3894 58.3153ZM58.3947 53.9165C58.2749 49.2219 57.7713 44.7484 56.9107 40.6506H70.1526C72.2121 44.6765 73.4777 49.1633 73.7708 53.9165H58.3947ZM67.6747 36.5449H55.8982C54.4275 31.3334 52.3919 26.9132 49.9567 23.6494C57.1985 25.8768 63.3957 30.4888 67.6747 36.5449ZM30.0833 23.6494C27.6507 26.9132 25.6125 31.3334 24.1444 36.5449H12.3626C16.6442 30.4888 22.8415 25.8794 30.0833 23.6494ZM12.5092 75.687H24.2217C25.7057 80.8398 27.7413 85.1987 30.1739 88.4093C22.9721 86.2192 16.8014 81.6711 12.5092 75.687ZM49.8661 88.4093C52.296 85.1987 54.3343 80.8372 55.813 75.687H67.5308C63.2386 81.6711 57.0679 86.2192 49.8661 88.4093Z" fill="white"/>
</svg>
