<svg width="228" height="98" viewBox="0 0 228 98" fill="none" xmlns="http://www.w3.org/2000/svg">
<path d="M111.499 5.92046C112.923 11.8002 107.743 16.9608 101.858 15.5319C99.0974 14.86 96.8389 12.5951 96.1756 9.83505C94.7699 3.9679 99.925 -1.17689 105.8 0.236271C108.564 0.898691 110.829 3.16038 111.499 5.92046Z" fill="white"/>
<path fill-rule="evenodd" clip-rule="evenodd" d="M93.9739 29.1778H92.7452V55.7099C92.7452 55.7099 93 58 90.5 58C88 58 88 55.7099 88 55.7099V24C88 20 89.6519 18.1375 93.5759 18.1375H113.5H114.424C118.348 18.1375 120 20 120 24V55.7099C120 55.7099 120 58 117.5 58C115 58 115.255 55.7099 115.255 55.7099V29.1778H113.912V94.8299C113.912 96.6058 111.988 97.9969 110.014 97.9969C108.04 97.9969 106.214 96.6058 106.214 94.8299V58.7501C106.214 56.5799 102.016 56.5294 102.067 58.5514V94.8268C102.067 97.7856 98.0203 97.9938 98.0203 97.9938C98.0203 97.9938 94.0719 98.2303 93.9739 94.6312C93.8887 91.4768 93.9739 29.1778 93.9739 29.1778ZM103.599 28.6967C103.306 28.5496 103.104 28.246 103.104 27.8956C103.104 27.4012 103.506 27 104 27C104.494 27 104.896 27.4012 104.896 27.8956C104.896 28.246 104.694 28.5496 104.401 28.6967L106.463 32.8214L109.145 30.4971C109.008 30.34 108.926 30.1349 108.926 29.9106C108.926 29.4162 109.327 29.015 109.821 29.015C110.316 29.015 110.717 29.4162 110.717 29.9106C110.717 30.405 110.316 30.8062 109.821 30.8062C109.799 30.8062 109.777 30.8054 109.754 30.8037L109.15 38.8667H104.037H104H98.8503L98.2456 30.8037C98.2235 30.8054 98.2011 30.8062 98.1786 30.8062C97.6842 30.8062 97.283 30.405 97.283 29.9106C97.283 29.4162 97.6842 29.015 98.1786 29.015C98.673 29.015 99.0742 29.4162 99.0742 29.9106C99.0742 30.1349 98.9916 30.34 98.8553 30.4971L101.537 32.8214L103.599 28.6967Z" fill="white"/>
<path d="M120.974 29.1778H119.745V55.7099C119.745 55.7099 120 58 117.5 58C115 58 115 55.7099 115 55.7099V24C115 20 116.652 18.1375 120.576 18.1375H140.5H141.424C145.348 18.1375 147 20 147 24V55.7099C147 55.7099 147 58 144.5 58C142 58 142.255 55.7099 142.255 55.7099V29.1778H140.912V94.8299C140.912 96.6058 138.988 97.9969 137.014 97.9969C135.04 97.9969 133.214 96.6058 133.214 94.8299V58.7501C133.214 56.5799 129.016 56.5294 129.067 58.5514V94.8268C129.067 97.7856 125.02 97.9938 125.02 97.9938C125.02 97.9938 121.072 98.2303 120.974 94.6312C120.889 91.4768 120.974 29.1778 120.974 29.1778Z" fill="white"/>
<path d="M138.499 5.92046C139.923 11.8002 134.743 16.9608 128.858 15.5319C126.097 14.86 123.839 12.5951 123.176 9.83505C121.77 3.9679 126.925 -1.17689 132.8 0.236271C135.564 0.898691 137.829 3.16038 138.499 5.92046Z" fill="white"/>
<path d="M147.974 29.1778H146.745V55.7099C146.745 55.7099 147 58 144.5 58C142 58 142 55.7099 142 55.7099V24C142 20 143.652 18.1375 147.576 18.1375H167.5H168.424C172.348 18.1375 174 20 174 24V55.7099C174 55.7099 174 58 171.5 58C169 58 169.255 55.7099 169.255 55.7099V29.1778H167.912V94.8299C167.912 96.6058 165.988 97.9969 164.014 97.9969C162.04 97.9969 160.214 96.6058 160.214 94.8299V58.7501C160.214 56.5799 156.016 56.5294 156.067 58.5514V94.8268C156.067 97.7856 152.02 97.9938 152.02 97.9938C152.02 97.9938 148.072 98.2303 147.974 94.6312C147.889 91.4768 147.974 29.1778 147.974 29.1778Z" fill="white"/>
<path d="M165.499 5.92046C166.923 11.8002 161.743 16.9608 155.858 15.5319C153.097 14.86 150.839 12.5951 150.176 9.83505C148.77 3.9679 153.925 -1.17689 159.8 0.236271C162.564 0.898691 164.829 3.16038 165.499 5.92046Z" fill="white"/>
<path d="M174.974 29.1778H173.745V55.7099C173.745 55.7099 174 58 171.5 58C169 58 169 55.7099 169 55.7099V24C169 20 170.652 18.1375 174.576 18.1375H194.5H195.424C199.348 18.1375 201 20 201 24V55.7099C201 55.7099 201 58 198.5 58C196 58 196.255 55.7099 196.255 55.7099V29.1778H194.912V94.8299C194.912 96.6058 192.988 97.9969 191.014 97.9969C189.04 97.9969 187.214 96.6058 187.214 94.8299V58.7501C187.214 56.5799 183.016 56.5294 183.067 58.5514V94.8268C183.067 97.7856 179.02 97.9938 179.02 97.9938C179.02 97.9938 175.072 98.2303 174.974 94.6312C174.889 91.4768 174.974 29.1778 174.974 29.1778Z" fill="white"/>
<path d="M192.499 5.92046C193.923 11.8002 188.743 16.9608 182.858 15.5319C180.097 14.86 177.839 12.5951 177.176 9.83505C175.77 3.9679 180.925 -1.17689 186.8 0.236271C189.564 0.898691 191.829 3.16038 192.499 5.92046Z" fill="white"/>
<path d="M201.974 29.1778H200.745V55.7099C200.745 55.7099 201 58 198.5 58C196 58 196 55.7099 196 55.7099V24C196 20 197.652 18.1375 201.576 18.1375H221.5H222.424C226.348 18.1375 228 20 228 24V55.7099C228 55.7099 228 58 225.5 58C223 58 223.255 55.7099 223.255 55.7099V29.1778H221.912V94.8299C221.912 96.6058 219.988 97.9969 218.014 97.9969C216.04 97.9969 214.214 96.6058 214.214 94.8299V58.7501C214.214 56.5799 210.016 56.5294 210.067 58.5514V94.8268C210.067 97.7856 206.02 97.9938 206.02 97.9938C206.02 97.9938 202.072 98.2303 201.974 94.6312C201.889 91.4768 201.974 29.1778 201.974 29.1778Z" fill="white"/>
<path d="M219.499 5.92046C220.923 11.8002 215.743 16.9608 209.858 15.5319C207.097 14.86 204.839 12.5951 204.176 9.83505C202.77 3.9679 207.925 -1.17689 213.8 0.236271C216.564 0.898691 218.829 3.16038 219.499 5.92046Z" fill="white"/>
<path fill-rule="evenodd" clip-rule="evenodd" d="M13.0255 42.4048H43.6066V42.4049H57.7945L49.9615 34.569L54.4689 30.0616L65.4911 41.0853L70 45.5927L66.6774 48.9109L65.4911 50.1001L54.4689 61.1193L49.9615 56.6119L57.7945 48.7789H27.2134V48.7788H13.0255L20.8585 56.6118L16.3511 61.1192L5.32888 50.1L4.14264 48.9108L0.820007 45.5926L5.32888 41.0852L16.3511 30.0615L20.8585 34.5689L13.0255 42.4048Z" fill="white"/>
</svg>
