<svg width="32" height="98" viewBox="0 0 32 98" fill="none" xmlns="http://www.w3.org/2000/svg">
<path d="M5.97396 29.1775H4.74521V55.7096C4.74521 55.7096 5 57.9998 2.5 57.9998C0 57.9998 0 55.7096 0 55.7096V23.9998C0 19.9998 1.65192 18.1372 5.57596 18.1372H25.5H26.424C30.3481 18.1372 32 19.9998 32 23.9998V55.7096C32 55.7096 32 57.9998 29.5 57.9998C27 57.9998 27.2548 55.7096 27.2548 55.7096V29.1775H25.912V94.8297C25.912 96.6056 23.9883 97.9967 22.0141 97.9967C20.0399 97.9967 18.2141 96.6056 18.2141 94.8297V58.7499C18.2141 56.5796 14.0161 56.5292 14.0667 58.5511V94.8265C14.0667 97.7853 10.0203 97.9935 10.0203 97.9935C10.0203 97.9935 6.07188 98.2301 5.97396 94.6309C5.88867 91.4766 5.97396 29.1775 5.97396 29.1775Z" fill="white"/>
<path d="M23.4986 5.92046C24.9232 11.8002 19.7429 16.9608 13.8582 15.5319C11.0974 14.86 8.83891 12.5951 8.17558 9.83505C6.76993 3.9679 11.925 -1.17689 17.8003 0.236271C20.5642 0.898691 22.829 3.16038 23.4986 5.92046Z" fill="white"/>
</svg>
