<svg width="57" height="107" viewBox="0 0 57 107" fill="none" xmlns="http://www.w3.org/2000/svg">
<path d="M0.838145 3.91128C0.375246 2.90838 0.812998 1.72012 1.81589 1.25722L2.72384 0.838145C3.72674 0.375246 4.915 0.812998 5.3779 1.81589L15.8627 24.5318C17.5 27.1371 18.576 26.9485 21.1756 27.1371L36.4986 26.9485C39.5265 26.9485 39.928 27.2505 41.1829 24.5318L51.6677 1.81589C52.1306 0.812998 53.3188 0.375246 54.3217 0.838145L55.2297 1.25722C56.2326 1.72012 56.6703 2.90838 56.2074 3.91128L44.3645 29.5696C41 36.5 39.9743 37.5 38.912 41.5V103.83C38.912 105.605 36.9883 106.997 35.0141 106.997C33.0398 106.997 31.2141 105.605 31.2141 103.83V67.7498C31.2141 65.5796 27.0161 65.5291 27.0667 67.551V103.826C27.0667 106.785 23.0203 106.993 23.0203 106.993C23.0203 106.993 19.0719 107.23 18.974 103.631C18.8887 100.476 18.576 41.5 18.576 41.5C17.1124 37.5 14.8371 34.4697 13.2264 30.751L0.838145 3.91128Z" fill="#38BC3F"/>
<path d="M26.8582 24.5318C32.7429 25.9607 37.9232 20.8001 36.4986 14.9204C35.829 12.1603 33.5642 9.89861 30.8003 9.23619C24.925 7.82302 19.7699 12.9678 21.1756 18.835C21.8389 21.5951 24.0974 23.8599 26.8582 24.5318Z" fill="#38BC3F"/>
</svg>
