<svg width="270" height="98" viewBox="0 0 270 98" fill="none" xmlns="http://www.w3.org/2000/svg">
<path d="M99.974 29.1778H98.7452V55.7099C98.7452 55.7099 99 58 96.5 58C94 58 94 55.7099 94 55.7099V24C94 20 95.6519 18.1375 99.576 18.1375H119.5H120.424C124.348 18.1375 126 20 126 24V55.7099C126 55.7099 126 58 123.5 58C121 58 121.255 55.7099 121.255 55.7099V29.1778H119.912V94.8299C119.912 96.6058 117.988 97.9969 116.014 97.9969C114.04 97.9969 112.214 96.6058 112.214 94.8299V58.7501C112.214 56.5799 108.016 56.5294 108.067 58.5514V94.8268C108.067 97.7856 104.02 97.9938 104.02 97.9938C104.02 97.9938 100.072 98.2303 99.974 94.6312C99.8887 91.4768 99.974 29.1778 99.974 29.1778Z" fill="white"/>
<path d="M117.499 5.92046C118.923 11.8002 113.743 16.9608 107.858 15.5319C105.097 14.86 102.839 12.5951 102.176 9.83505C100.77 3.9679 105.925 -1.17689 111.8 0.236271C114.564 0.898691 116.829 3.16038 117.499 5.92046Z" fill="white"/>
<path d="M135.974 29.1778H134.745V55.7099C134.745 55.7099 135 58 132.5 58C130 58 130 55.7099 130 55.7099V24C130 20 131.652 18.1375 135.576 18.1375H155.5H156.424C160.348 18.1375 162 20 162 24V55.7099C162 55.7099 162 58 159.5 58C157 58 157.255 55.7099 157.255 55.7099V29.1778H155.912V94.8299C155.912 96.6058 153.988 97.9969 152.014 97.9969C150.04 97.9969 148.214 96.6058 148.214 94.8299V58.7501C148.214 56.5799 144.016 56.5294 144.067 58.5514V94.8268C144.067 97.7856 140.02 97.9938 140.02 97.9938C140.02 97.9938 136.072 98.2303 135.974 94.6312C135.889 91.4768 135.974 29.1778 135.974 29.1778Z" fill="white"/>
<path d="M153.499 5.92046C154.923 11.8002 149.743 16.9608 143.858 15.5319C141.097 14.86 138.839 12.5951 138.176 9.83505C136.77 3.9679 141.925 -1.17689 147.8 0.236271C150.564 0.898691 152.829 3.16038 153.499 5.92046Z" fill="white"/>
<path d="M171.974 29.1778H170.745V55.7099C170.745 55.7099 171 58 168.5 58C166 58 166 55.7099 166 55.7099V24C166 20 167.652 18.1375 171.576 18.1375H191.5H192.424C196.348 18.1375 198 20 198 24V55.7099C198 55.7099 198 58 195.5 58C193 58 193.255 55.7099 193.255 55.7099V29.1778H191.912V94.8299C191.912 96.6058 189.988 97.9969 188.014 97.9969C186.04 97.9969 184.214 96.6058 184.214 94.8299V58.7501C184.214 56.5799 180.016 56.5294 180.067 58.5514V94.8268C180.067 97.7856 176.02 97.9938 176.02 97.9938C176.02 97.9938 172.072 98.2303 171.974 94.6312C171.889 91.4768 171.974 29.1778 171.974 29.1778Z" fill="white"/>
<path d="M189.499 5.92046C190.923 11.8002 185.743 16.9608 179.858 15.5319C177.097 14.86 174.839 12.5951 174.176 9.83505C172.77 3.9679 177.925 -1.17689 183.8 0.236271C186.564 0.898691 188.829 3.16038 189.499 5.92046Z" fill="white"/>
<path d="M207.974 29.1778H206.745V55.7099C206.745 55.7099 207 58 204.5 58C202 58 202 55.7099 202 55.7099V24C202 20 203.652 18.1375 207.576 18.1375H227.5H228.424C232.348 18.1375 234 20 234 24V55.7099C234 55.7099 234 58 231.5 58C229 58 229.255 55.7099 229.255 55.7099V29.1778H227.912V94.8299C227.912 96.6058 225.988 97.9969 224.014 97.9969C222.04 97.9969 220.214 96.6058 220.214 94.8299V58.7501C220.214 56.5799 216.016 56.5294 216.067 58.5514V94.8268C216.067 97.7856 212.02 97.9938 212.02 97.9938C212.02 97.9938 208.072 98.2303 207.974 94.6312C207.889 91.4768 207.974 29.1778 207.974 29.1778Z" fill="white"/>
<path d="M225.499 5.92046C226.923 11.8002 221.743 16.9608 215.858 15.5319C213.097 14.86 210.839 12.5951 210.176 9.83505C208.77 3.9679 213.925 -1.17689 219.8 0.236271C222.564 0.898691 224.829 3.16038 225.499 5.92046Z" fill="white"/>
<path d="M243.974 29.1778H242.745V55.7099C242.745 55.7099 243 58 240.5 58C238 58 238 55.7099 238 55.7099V24C238 20 239.652 18.1375 243.576 18.1375H263.5H264.424C268.348 18.1375 270 20 270 24V55.7099C270 55.7099 270 58 267.5 58C265 58 265.255 55.7099 265.255 55.7099V29.1778H263.912V94.8299C263.912 96.6058 261.988 97.9969 260.014 97.9969C258.04 97.9969 256.214 96.6058 256.214 94.8299V58.7501C256.214 56.5799 252.016 56.5294 252.067 58.5514V94.8268C252.067 97.7856 248.02 97.9938 248.02 97.9938C248.02 97.9938 244.072 98.2303 243.974 94.6312C243.889 91.4768 243.974 29.1778 243.974 29.1778Z" fill="white"/>
<path d="M261.499 5.92046C262.923 11.8002 257.743 16.9608 251.858 15.5319C249.097 14.86 246.839 12.5951 246.176 9.83505C244.77 3.9679 249.925 -1.17689 255.8 0.236271C258.564 0.898691 260.829 3.16038 261.499 5.92046Z" fill="white"/>
<path d="M40.0218 11C17.918 11 0 28.918 0 51.0218C0 73.123 17.918 91.041 40.0218 91.041C62.123 91.041 80.041 73.123 80.041 51.0218C80.041 28.918 62.123 11 40.0218 11ZM6.27464 53.3159H21.6508C21.7867 58.0159 22.3169 62.4867 23.1909 66.5819H9.98081C7.8866 62.564 6.59703 58.0718 6.27464 53.3159ZM42.2413 31.5451V17.3279C45.7316 18.9186 49.19 24.0795 51.4894 31.5451H42.2413ZM52.5551 35.6483C53.4584 39.6422 54.0365 44.1104 54.1644 48.9143H42.2386V35.6483H52.5551ZM37.8024 17.3279V31.5451H28.5516C30.851 24.0795 34.312 18.9186 37.8024 17.3279ZM37.8024 35.6483V48.9143H25.8739C26.0045 44.1077 26.58 39.6422 27.4832 35.6483H37.8024ZM21.6455 48.917H6.26665C6.55973 44.1637 7.82532 39.6742 9.88489 35.651H23.1269C22.269 39.7461 21.7628 44.2223 21.6455 48.917ZM25.8792 53.3159H37.8024V66.5819H27.5471C26.6279 62.5959 26.0311 58.1278 25.8792 53.3159ZM37.8024 70.6877V84.6198C34.3573 83.0531 30.9496 77.9988 28.6502 70.6877H37.8024ZM42.2413 84.6171V70.685H51.3908C49.0941 77.9961 45.6863 83.0505 42.2413 84.6171ZM42.2413 66.5819V53.3159H54.1618C54.0099 58.1278 53.4157 62.5959 52.4938 66.5819H42.2413ZM58.3901 53.3159H73.7664C73.444 58.0718 72.1544 62.564 70.0602 66.5819H56.8475C57.7241 62.4867 58.2543 58.0159 58.3901 53.3159ZM58.3955 48.917C58.2756 44.2223 57.772 39.7488 56.9114 35.651H70.1534C72.213 39.6768 73.4786 44.1637 73.7717 48.917H58.3955ZM67.6756 31.5451H55.8989C54.4282 26.3336 52.3926 21.9133 49.9573 18.6495C57.1992 20.8769 63.3965 25.489 67.6756 31.5451ZM30.0836 18.6495C27.6511 21.9133 25.6128 26.3336 24.1447 31.5451H12.3628C16.6445 25.489 22.8418 20.8796 30.0836 18.6495ZM12.5093 70.6877H24.222C25.7061 75.8406 27.7416 80.1996 30.1742 83.4102C22.9724 81.22 16.8017 76.6719 12.5093 70.6877ZM49.8668 83.4102C52.2967 80.1996 54.3349 75.838 55.8137 70.6877H67.5317C63.2393 76.6719 57.0686 81.22 49.8668 83.4102Z" fill="white"/>
</svg>
