<?xml version="1.0" encoding="utf-8"?>
<!-- Generator: Adobe Illustrator 23.0.3, SVG Export Plug-In . SVG Version: 6.00 Build 0)  -->
<svg version="1.1" baseProfile="tiny" xmlns="http://www.w3.org/2000/svg" xmlns:xlink="http://www.w3.org/1999/xlink" x="0px"
	 y="0px" width="32px" height="32px" viewBox="0 0 32 32" xml:space="preserve">
<g id="Layer_2">
	<g>
		<path fill="#FFFFFF" stroke="#FFFFFF" stroke-width="0.9059" stroke-miterlimit="10" d="M11.075,8.383
			c0-2.733,2.214-4.948,4.948-4.948c2.733,0,4.947,2.215,4.947,4.948c0,2.731-2.215,4.948-4.947,4.948
			C13.289,13.331,11.075,11.114,11.075,8.383z"/>
		<path fill="#FFFFFF" stroke="#FFFFFF" stroke-width="0.9059" stroke-miterlimit="10" d="M24.248,20.166
			c-0.323-2.28-3.851-4.078-8.166-4.078c-4.315,0-7.843,1.798-8.165,4.078H7.886v8.244c0,0-0.025,0.241,0.181,0.241
			c0.326,0,16.004,0,16.004,0s0.208,0.057,0.208-0.227c0-0.283,0-8.259,0-8.259H24.248z"/>
		
			<path fill="#FFFFFF" stroke="#FFFFFF" stroke-width="0.885" stroke-linecap="round" stroke-linejoin="round" stroke-miterlimit="10" d="
			M9.869,5.959C9.614,5.916,9.352,5.894,9.083,5.894c-2.614,0-4.732,2.117-4.732,4.732c0,2.614,2.118,4.733,4.732,4.733
			c1.314,0,2.505-0.537,3.362-1.402c0,0-2.098-1.462-2.714-3.594C9.123,8.259,9.869,5.959,9.869,5.959z"/>
		
			<path fill="#FFFFFF" stroke="#FFFFFF" stroke-width="0.885" stroke-linecap="round" stroke-linejoin="round" stroke-miterlimit="10" d="
			M5.676,26.767H0.922v-5.5h0.033c0.278-1.977,2.9-3.599,6.373-4.059c0,0-1.653,1.097-1.653,2.584S5.676,26.767,5.676,26.767z"/>
		
			<path fill="#FFFFFF" stroke="#FFFFFF" stroke-width="0.885" stroke-linecap="round" stroke-linejoin="round" stroke-miterlimit="10" d="
			M26.359,26.767h4.719v-5.5h-0.033c-0.278-1.977-2.899-3.599-6.373-4.059c0,0,1.687,0.605,1.687,2.584
			C26.359,21.916,26.359,26.767,26.359,26.767z"/>
		
			<path fill="#FFFFFF" stroke="#FFFFFF" stroke-width="0.885" stroke-linecap="round" stroke-linejoin="round" stroke-miterlimit="10" d="
			M22.357,5.959c0.255-0.043,0.517-0.065,0.786-0.065c2.614,0,4.732,2.117,4.732,4.732c0,2.614-2.118,4.733-4.732,4.733
			c-1.314,0-2.505-0.537-3.362-1.402c0,0,2.098-1.462,2.714-3.594C23.102,8.259,22.357,5.959,22.357,5.959z"/>
	</g>
</g>
<g id="topo">
	<g id="Layer_1">
	</g>
</g>
</svg>
