<?xml version="1.0" encoding="utf-8"?>
<!-- Generator: Adobe Illustrator 23.0.3, SVG Export Plug-In . SVG Version: 6.00 Build 0)  -->
<svg version="1.1" baseProfile="tiny" xmlns="http://www.w3.org/2000/svg" xmlns:xlink="http://www.w3.org/1999/xlink" x="0px"
	 y="0px" width="32px" height="32px" viewBox="0 0 32 32" xml:space="preserve">
<g id="Layer_2">
	<g>
		<path fill="none" stroke="#FFFFFF" stroke-width="0.9059" stroke-miterlimit="10" d="M11.075,8.383
			c0-2.733,2.214-4.948,4.948-4.948c2.733,0,4.947,2.215,4.947,4.948c0,2.731-2.215,4.948-4.947,4.948
			C13.289,13.331,11.075,11.114,11.075,8.383z"/>
		<path fill="none" stroke="#FFFFFF" stroke-width="0.9059" stroke-miterlimit="10" d="M24.248,20.166
			c-0.323-2.28-3.851-4.078-8.166-4.078c-4.315,0-7.843,1.798-8.165,4.078H7.886v8.244c0,0-0.025,0.241,0.181,0.241
			c0.326,0,16.004,0,16.004,0s0.208,0.057,0.208-0.227c0-0.283,0-8.259,0-8.259H24.248z"/>
		
			<path fill="none" stroke="#FFFFFF" stroke-width="0.885" stroke-linecap="round" stroke-linejoin="round" stroke-miterlimit="10" d="
			M12.445,13.957c-0.857,0.865-2.048,1.402-3.362,1.402c-2.614,0-4.732-2.119-4.732-4.733c0-2.614,2.118-4.732,4.732-4.732
			c0.269,0,0.531,0.022,0.786,0.065"/>
		
			<path fill="none" stroke="#FFFFFF" stroke-width="0.885" stroke-linecap="round" stroke-linejoin="round" stroke-miterlimit="10" d="
			M7.328,17.208c-3.473,0.46-6.095,2.082-6.373,4.059H0.922v5.5h4.76"/>
		
			<path fill="none" stroke="#FFFFFF" stroke-width="0.885" stroke-linecap="round" stroke-linejoin="round" stroke-miterlimit="10" d="
			M19.588,13.957c0.856,0.865,2.048,1.402,3.362,1.402c2.614,0,4.731-2.119,4.731-4.733c0-2.614-2.117-4.732-4.731-4.732
			c-0.268,0-0.531,0.022-0.787,0.065"/>
		
			<path fill="none" stroke="#FFFFFF" stroke-width="0.885" stroke-linecap="round" stroke-linejoin="round" stroke-miterlimit="10" d="
			M24.672,17.208c3.474,0.46,6.095,2.082,6.373,4.059h0.033v5.5h-4.76"/>
	</g>
</g>
<g id="topo">
	<g id="Layer_1">
	</g>
</g>
</svg>
