<svg width="32" height="32" viewBox="0 0 32 32" fill="none" xmlns="http://www.w3.org/2000/svg">
<path d="M11.2665 14.0235C8.56746 16.7225 8.56676 21.0988 11.2665 23.7985C13.9655 26.4975 18.3425 26.4975 21.0415 23.7985C23.7413 21.0988 23.7406 16.7225 21.0415 14.0235C18.3418 11.3237 13.9669 11.323 11.2665 14.0235ZM16.4404 12.8589L17.407 19.2334C17.407 19.2334 17.2401 20.263 16.0642 20.1293C14.6493 19.9688 14.7483 18.9534 14.7483 18.9534L15.6704 12.984C15.6704 12.984 15.6527 12.5011 16.1179 12.5364C16.3555 12.5548 16.4404 12.8589 16.4404 12.8589Z" fill="white"/>
<path d="M25.746 11.449L27.246 9.88399C27.316 9.80799 27.289 9.66699 27.183 9.57099L24.567 7.16799C24.462 7.07099 24.32 7.05499 24.25 7.13099L22.798 8.73399C21.364 7.79599 19.721 7.15099 17.951 6.88899V4.41199H19.755C20.053 4.41199 20.294 4.22499 20.294 3.99499V1.73899C20.294 1.50899 20.053 1.32199 19.755 1.32199H12.349C12.051 1.32199 11.81 1.50899 11.81 1.73899V3.99499C11.81 4.22499 12.051 4.41199 12.349 4.41199H14.102V6.93299C12.411 7.22099 10.837 7.85699 9.46 8.76699L7.978 7.12999C7.908 7.05399 7.767 7.06999 7.661 7.16699L5.045 9.56999C4.94 9.66699 4.912 9.80799 4.982 9.88399L6.527 11.495C4.944 13.548 4 16.118 4 18.911C4 25.624 9.441 31.065 16.154 31.065C22.867 31.065 28.309 25.624 28.309 18.911C28.309 16.098 27.351 13.509 25.746 11.449ZM16.154 28.862C10.658 28.862 6.203 24.407 6.203 18.911C6.203 13.415 10.658 8.95999 16.154 8.95999C21.65 8.95999 26.105 13.415 26.105 18.911C26.105 24.407 21.65 28.862 16.154 28.862Z" fill="white"/>
</svg>
