<?xml version="1.0" encoding="utf-8"?>
<!-- Generator: Adobe Illustrator 23.0.3, SVG Export Plug-In . SVG Version: 6.00 Build 0)  -->
<svg version="1.1" baseProfile="tiny" xmlns="http://www.w3.org/2000/svg" xmlns:xlink="http://www.w3.org/1999/xlink" x="0px"
	 y="0px" width="32px" height="32px" viewBox="0 0 32 32" xml:space="preserve">
<g id="Layer_2">
	<g>
		<path fill="#FFFFFF" stroke="#FFFFFF" stroke-width="0.9059" stroke-miterlimit="10" d="M7.928,8.337
			c0-2.733,2.214-4.948,4.948-4.948c2.733,0,4.947,2.215,4.947,4.948c0,2.731-2.215,4.948-4.947,4.948
			C10.142,13.286,7.928,11.069,7.928,8.337z"/>
		<path fill="#FFFFFF" stroke="#FFFFFF" stroke-width="0.9059" stroke-miterlimit="10" d="M21.101,20.121
			c-0.323-2.28-3.851-4.078-8.166-4.078c-4.315,0-7.843,1.798-8.165,4.078H4.739v8.244c0,0-0.025,0.241,0.181,0.241
			c0.326,0,16.004,0,16.004,0s0.208,0.057,0.208-0.227c0-0.283,0-8.259,0-8.259H21.101z"/>
		
			<path fill="#FFFFFF" stroke="#FFFFFF" stroke-width="0.885" stroke-linecap="round" stroke-linejoin="round" stroke-miterlimit="10" d="
			M23.213,26.721h4.719v-5.5h-0.033c-0.278-1.977-2.899-3.599-6.373-4.059c0,0,1.687,0.605,1.687,2.584
			C23.213,21.87,23.213,26.721,23.213,26.721z"/>
		
			<path fill="#FFFFFF" stroke="#FFFFFF" stroke-width="0.885" stroke-linecap="round" stroke-linejoin="round" stroke-miterlimit="10" d="
			M19.21,5.914c0.255-0.043,0.517-0.064,0.786-0.064c2.614,0,4.732,2.117,4.732,4.732c0,2.614-2.118,4.733-4.732,4.733
			c-1.314,0-2.505-0.537-3.362-1.402c0,0,2.098-1.462,2.714-3.594C19.955,8.213,19.21,5.914,19.21,5.914z"/>
	</g>
</g>
<g id="topo">
	<g id="Layer_1">
	</g>
</g>
</svg>
