<?xml version="1.0" encoding="utf-8"?>
<!-- Generator: Adobe Illustrator 16.0.0, SVG Export Plug-In . SVG Version: 6.00 Build 0)  -->
<!DOCTYPE svg PUBLIC "-//W3C//DTD SVG 1.1//EN" "http://www.w3.org/Graphics/SVG/1.1/DTD/svg11.dtd">
<svg version="1.1" xmlns="http://www.w3.org/2000/svg" xmlns:xlink="http://www.w3.org/1999/xlink" x="0px" y="0px" width="32px"
	 height="32px" viewBox="0 0 32 32" enable-background="new 0 0 32 32" xml:space="preserve">
<symbol  id="dude-transit" viewBox="0 -25.1 21.25 25.118">
	<path fill-rule="evenodd" clip-rule="evenodd" fill="#FFFFFF" d="M15.5-4.2l0.75-1.05l1-3.1l3.9-2.65v-0.05
		c0.067-0.1,0.1-0.233,0.1-0.4c0-0.2-0.05-0.383-0.15-0.55c-0.167-0.233-0.383-0.35-0.65-0.35l-4.3,1.8l-1.2,1.65l-1.5-3.95
		l2.25-5.05l-3.25-6.9c-0.267-0.2-0.633-0.3-1.1-0.3c-0.3,0-0.55,0.15-0.75,0.45c-0.1,0.133-0.15,0.25-0.15,0.35
		c0,0.067,0.017,0.15,0.05,0.25c0.033,0.1,0.067,0.184,0.1,0.25l2.55,5.6L10.7-14l-3.05-4.9L0.8-18.7
		c-0.367,0.033-0.6,0.184-0.7,0.45c-0.067,0.3-0.1,0.467-0.1,0.5c0,0.5,0.2,0.767,0.6,0.8l5.7,0.15l2.15,5.4l3.1,5.65L9.4-5.6
		c-1.367-2-2.1-3.033-2.2-3.1C7.1-8.8,6.95-8.85,6.75-8.85C6.35-8.85,6.1-8.667,6-8.3C5.9-8,5.9-7.8,6-7.7H5.95l2.5,4.4l3.7,0.3
		L14-3.5L15.5-4.2z M14.55-2.9c-0.333,0.4-0.45,0.85-0.35,1.35c0.033,0.5,0.25,0.9,0.65,1.2S15.7,0.066,16.2,0
		c0.5-0.067,0.9-0.3,1.2-0.7c0.333-0.4,0.467-0.85,0.4-1.35c-0.066-0.5-0.3-0.9-0.7-1.2c-0.4-0.333-0.85-0.45-1.35-0.35
		C15.25-3.533,14.85-3.3,14.55-2.9z"/>
</symbol>
<g id="Layer_1">
</g>
<g id="Layer_2">
	<g>
		
			<rect x="12.29" y="9.319" transform="matrix(0.707 -0.7073 0.7073 0.707 -5.5142 13.7823)" fill="#FFFFFF" width="3.169" height="8.453"/>
		
			<rect x="18.835" y="3.021" transform="matrix(0.7074 0.7068 -0.7068 0.7074 13.7598 -11.2084)" fill="#FFFFFF" width="3.167" height="15.99"/>
	</g>
	<g>
		<polygon fill="#FFFFFF" points="21.871,21.437 22.692,21.437 22.282,20.605 		"/>
		<path fill="#FFFFFF" d="M22.284,19.821c-1.243,0-2.355,0.611-2.501,1.449c-0.164,0.948,0.945,1.813,2.501,1.813
			c1.555,0,2.666-0.864,2.502-1.813C24.641,20.433,23.526,19.821,22.284,19.821z M23.189,22.37l-0.294-0.551h-1.232l-0.284,0.551
			h-0.688l1.324-2.241h0.538l1.321,2.241H23.189z"/>
	</g>
	<g>
		<path fill="#FFFFFF" d="M8.471,25.542H7.547l-0.021,0.645h0.965c0.041,0,0.077-0.009,0.104-0.028
			c0.029-0.019,0.044-0.042,0.043-0.069l-0.019-0.456c-0.001-0.025-0.019-0.048-0.046-0.064C8.545,25.551,8.511,25.542,8.471,25.542
			z"/>
		<path fill="#FFFFFF" d="M8.571,25.09l-0.015-0.35c-0.001-0.022-0.015-0.041-0.042-0.058c-0.027-0.015-0.06-0.022-0.097-0.022
			H7.574l-0.017,0.516h0.892C8.532,25.172,8.574,25.144,8.571,25.09z"/>
		<path fill="#FFFFFF" d="M8.004,23.932c-1.248,0-2.364,0.612-2.507,1.452c-0.161,0.947,0.951,1.81,2.507,1.811
			c1.556,0,2.669-0.863,2.507-1.811C10.368,24.544,9.252,23.932,8.004,23.932z M9.312,26.202c0.009,0.112-0.041,0.208-0.151,0.286
			c-0.112,0.081-0.253,0.121-0.421,0.121H6.827l0.168-2.276h1.614c0.143,0,0.269,0.03,0.375,0.091
			c0.107,0.06,0.164,0.136,0.171,0.223L9.193,25.1c0.004,0.052-0.019,0.1-0.066,0.147c-0.049,0.048-0.114,0.08-0.193,0.096
			c0.081,0.01,0.155,0.037,0.22,0.082s0.102,0.101,0.106,0.166L9.312,26.202z"/>
	</g>
	
		<path fill="none" stroke="#F9F9FA" stroke-width="1.4156" stroke-linecap="round" stroke-linejoin="round" stroke-miterlimit="10" d="
		M20.983,17.113h5.356c0.514,0,0.93,0.241,0.93,0.539l3.481,11.888c0,0.299-0.415,0.54-0.93,0.54H2.272
		c-0.515,0-0.93-0.241-0.93-0.54l3.481-11.888c0-0.298,0.415-0.539,0.93-0.539h4.307"/>
</g>
</svg>
