<?xml version="1.0" encoding="utf-8"?>
<!-- Generator: Adobe Illustrator 16.0.0, SVG Export Plug-In . SVG Version: 6.00 Build 0)  -->
<!DOCTYPE svg PUBLIC "-//W3C//DTD SVG 1.1//EN" "http://www.w3.org/Graphics/SVG/1.1/DTD/svg11.dtd">
<svg version="1.1" xmlns="http://www.w3.org/2000/svg" xmlns:xlink="http://www.w3.org/1999/xlink" x="0px" y="0px" width="32px"
	 height="32px" viewBox="0 0 32 32" enable-background="new 0 0 32 32" xml:space="preserve">
<symbol  id="dude-transit" viewBox="0 -25.1 21.25 25.118">
	<path fill-rule="evenodd" clip-rule="evenodd" fill="#FFFFFF" d="M15.5-4.2l0.75-1.05l1-3.1l3.9-2.65v-0.05
		c0.067-0.1,0.1-0.233,0.1-0.4c0-0.2-0.05-0.383-0.15-0.55c-0.167-0.233-0.383-0.35-0.65-0.35l-4.3,1.8l-1.2,1.65l-1.5-3.95
		l2.25-5.05l-3.25-6.9c-0.267-0.2-0.633-0.3-1.1-0.3c-0.3,0-0.55,0.15-0.75,0.45c-0.1,0.133-0.15,0.25-0.15,0.35
		c0,0.067,0.017,0.15,0.05,0.25c0.033,0.1,0.067,0.184,0.1,0.25l2.55,5.6L10.7-14l-3.05-4.9L0.8-18.7
		c-0.367,0.033-0.6,0.184-0.7,0.45c-0.067,0.3-0.1,0.467-0.1,0.5c0,0.5,0.2,0.767,0.6,0.8l5.7,0.15l2.15,5.4l3.1,5.65L9.4-5.6
		c-1.367-2-2.1-3.033-2.2-3.1C7.1-8.8,6.95-8.85,6.75-8.85C6.35-8.85,6.1-8.667,6-8.3C5.9-8,5.9-7.8,6-7.7H5.95l2.5,4.4l3.7,0.3
		L14-3.5L15.5-4.2z M14.55-2.9c-0.333,0.4-0.45,0.85-0.35,1.35c0.033,0.5,0.25,0.9,0.65,1.2S15.7,0.066,16.2,0
		c0.5-0.067,0.9-0.3,1.2-0.7c0.333-0.4,0.467-0.85,0.4-1.35c-0.066-0.5-0.3-0.9-0.7-1.2c-0.4-0.333-0.85-0.45-1.35-0.35
		C15.25-3.533,14.85-3.3,14.55-2.9z"/>
</symbol>
<g id="Layer_1">
</g>
<g id="Layer_2">
	<path fill="#F9F9FA" d="M27.965,2.035H4.046c-1.133,0-2.051,0.918-2.051,2.051v23.919c0,1.133,0.918,2.051,2.051,2.051h23.919
		c1.133,0,2.051-0.918,2.051-2.051V4.086C30.016,2.953,29.098,2.035,27.965,2.035z M28.287,28.188H3.85V3.75h24.438V28.188z"/>
	<rect x="3.85" y="3.75" opacity="0.3" fill="#F9F9FA" width="24.438" height="24.438"/>
	<g opacity="0.5">
		<g>
			<g>
				<path fill-rule="evenodd" clip-rule="evenodd" fill="#FFFFFF" d="M26.363,17.014c-0.046-0.156-0.045-0.422-0.045-0.644
					c0-0.229,0.016-0.546-0.067-0.644c-0.031-0.06-0.576-0.111-0.576-0.111c-0.092,0.018-0.221-0.023-0.223-0.021
					c-0.072-0.016-0.052-0.022-0.11-0.045v-1.731c0.006-0.014,0.064-0.039,0.066-0.044v-0.311c0-0.209-0.057-0.892,0.022-1.021
					c0.01-0.079-0.011-0.057,0.044-0.089c0.032-0.017,0.106-0.017,0.178-0.022v-0.089h-0.111c0.021-0.07-0.012-0.034,0.045-0.066
					c0.002-0.056,0.003-0.083,0.022-0.11v0.021h0.022c0.014,0.004,0.054,0.033,0.066,0.111h0.044
					c0.019-0.05,0.024-0.121,0.022-0.199c0.11-0.008,0.222-0.016,0.333-0.022c-0.023-0.137-0.086-0.112-0.089-0.289h0.066v0.111
					c0.023-0.034,0.023-0.092,0.022-0.155c0.088-0.009,0.177-0.016,0.267-0.022c0.028-0.583,0-1.149,0-1.687h0.066v0.199
					c0.035-0.054,0.032-0.692,0.021-0.71V9.313h-0.043C26.404,9.45,26.369,9.73,26.43,9.823c-0.007,0.051-0.011,0.056-0.021,0.088
					H26.34c-0.014-0.037-0.004-0.021-0.021-0.044V9.401c-0.016-0.036-0.065-0.039-0.089-0.089c-0.128,0.021-0.265,0.047-0.444,0.045
					V9.291h0.312c-0.089-0.058-0.357-0.025-0.488-0.022c0.041-0.315,0.09-0.864,0-1.176c-0.07-0.242,0.045-0.447,0.044-0.688h-0.088
					V7.76h-0.067c0.006-0.111,0.025-0.289-0.045-0.333c0.007-0.335,0.065-0.561-0.154-0.644V5.718c0-0.165,0.042-0.332-0.089-0.378
					V5.273h-2.796c-0.052,0.4-0.048,0.951-0.045,1.421c-0.058-0.004-0.076-0.01-0.111-0.023v-1.22
					c-0.044,0.069-0.021,0.248-0.021,0.354v0.889c-0.187,0-0.355,0.013-0.488,0V6.85h-0.133V6.694h-0.09
					c0.003,0.057,0.003,0.082,0.022,0.11V6.85c-0.251-0.018-0.492-0.001-0.777,0V6.694h-0.088V6.85h-0.133V6.694h-0.268
					c0.024,0.057,0.033,0.065,0.089,0.089V6.85h-1.841v0.066h-0.2v0.088h0.2V7.16c0.237,0.005,0.17,0.319,0.154,0.6h-0.088
					c-0.002,0.103-0.002,0.17,0.044,0.222V8.07c-0.052-0.017-0.05-0.023-0.089-0.044V7.938c-0.066,0.007-0.133,0.015-0.199,0.021
					V7.893c0.046-0.009,0.043-0.006,0.066-0.022c0.055-0.027,0.033-0.039,0.089-0.066V7.76h-0.089
					c0.013,0.033,0.016,0.036,0.022,0.088c-0.206-0.007-0.528,0-0.799,0V7.87h0.665c-0.042,0.076-0.624,0.088-0.688,0.044h-0.045
					c0.007-0.051,0.015-0.103,0.021-0.154h-0.133c0.026,0.017,0.038,0.017,0.089,0.021c-0.018,0.146-0.063,0.136-0.044,0.245h-0.066
					C17.442,7.903,17.4,7.92,17.396,7.76h-0.021V7.737h-0.066c0.029,0.114,0.086,0.273,0.11,0.399
					c-0.046-0.009-0.043-0.006-0.066-0.022h-0.044c-0.02-0.098-0.009-0.158,0-0.267h-0.045c-0.013,0.285-0.023,0.588-0.021,0.91
					h0.088c0.021,0.086,0.058,0.187,0.045,0.2c-0.03,0.08-0.072,0.105-0.178,0.11c0.022,0.019,0.006,0.009,0.045,0.022
					c-0.074,0.152-0.473-0.01-0.6,0.178c-0.057-0.002-0.082-0.002-0.111-0.022H16.51c0.037-0.024,0.058-0.017,0.133-0.021V9.18
					c-0.184,0-0.392,0.019-0.466-0.021c-0.085,0.004-0.098,0.039-0.2,0.021v0.045h0.134c-0.038,0.061-0.125,0.05-0.223,0.044v-0.11
					h-0.066c-0.007-0.104-0.015-0.208-0.022-0.312c-0.069-0.016-0.046-0.015-0.088-0.044V8.758c0.068,0.013,0.054,0.004,0.088,0.045
					h0.022c-0.007-0.066-0.015-0.134-0.022-0.2c-0.018,0.026-0.018,0.037-0.021,0.089h-0.066c-0.003-0.287-0.023-0.57-0.022-0.71
					h0.066c0.021,0.024-0.002,0.002,0.022,0.022c-0.011,0.105-0.063,0.328,0,0.422c0.02,0.022-0.002,0.001,0.021,0.021
					c0.065-0.197,0.005-0.453,0-0.644c-0.108-0.015-0.163-0.046-0.311-0.044c0.044,0.031,0.128,0.043,0.2,0.044V7.87
					c-0.247-0.007-0.265-0.112-0.556-0.11v0.066h-0.399V7.76h-1.02v0.066h-0.399V7.76h-0.312v0.066
					c-0.416-0.001-0.705,0.022-1.065,0.021c0.021-0.176-0.003-0.53,0.021-0.665h-0.021c-0.087-0.067-0.516-0.072-0.755-0.067V7.049
					c-0.104,0.004-0.112,0.021-0.177,0.045v0.089c-0.272,0.002-0.299-0.025-0.511-0.044c0,0-0.015-0.418,0-0.444V6.671
					c-0.099,0.015-0.227,0.036-0.311-0.021c-0.055-0.03-0.044-0.058-0.044-0.154c-0.085-0.03-0.164-0.038-0.223-0.09
					C9.9,6.382,9.904,6.385,9.896,6.339C9.251,6.342,8.387,6.298,8.12,6.316c-0.053,0.004-0.175,0.032-0.222,0
					c-0.13-0.088,0.023-0.398-0.045-0.554c-0.081-0.19-0.051-0.486-0.043-0.844C7.393,4.913,7.016,4.941,6.546,4.94v3.174h-0.29
					v0.089h0.29v0.134h-0.29v0.066c0.097,0.007,0.193,0.015,0.29,0.022C6.525,8.578,6.418,8.575,6.322,8.646H6.279
					C6.29,8.561,6.308,8.543,6.346,8.492C6.307,8.478,6.323,8.487,6.301,8.47H6.256v0.71H6.189
					c-0.043,0.279-0.022,0.828-0.089,1.154h0.067v0.089c0.085,0.002,0.112,0.004,0.154,0.044c0.049,0.021,0.033,0.02,0.066,0.044
					v0.045c-0.078-0.011-0.055,0.011-0.088-0.045H6.256c0.017,0.188,0.092,1.013,0,1.154v0.312c0.063,0.014,0.143,0.038,0.199,0
					h0.29c-0.03-0.043-0.03-0.02-0.045-0.09h0.178v0.067H6.812c0.021,0.017,0.061,0.032,0.089,0.045c0.01-0.053,0.003-0.034,0-0.112
					c0.038,0.015,0.021,0.005,0.045,0.023c0.074,0.078-0.023,0.392,0,0.555c0.052,0.385,0.006,0.934,0,1.309
					c-0.213,0.002-0.551,0.034-0.689,0v0.022H6.234c0.112,0.539-0.05,1.272,0.021,1.952h0.267v0.066
					c0.334-0.001,0.467-0.067,0.799-0.066v0.089H6.967v0.046h0.487c-0.028-0.055-0.044-0.053-0.109-0.068v-0.066
					c0.114,0.005,0.181,0,0.332,0v0.066c0.074-0.007,0.147-0.015,0.222-0.021c0.004,0.073,0.011,0.193,0.045,0.244
					c0.019,0.078,0.02-0.009,0.043,0.066h0.444c0.022,0.012,0.033,0.064,0.089,0.089v1.154c-0.185-0.002-0.799-0.048-0.909,0.021
					c-0.037,0.021-0.033,0.323-0.023,0.378H7.3V17.68c-0.113,0.038-0.317,0.024-0.467,0.021v0.045
					c0.087-0.001,0.035-0.004,0.134-0.022v0.089H6.878c-0.015,0.086-0.015,0.086-0.09,0.111c0.012,0.097,0.009,0.089,0.09,0.11
					c-0.008,0.081-0.033,0.124,0,0.178c0.001,0.085-0.003,0.168-0.022,0.222c-0.051-0.007-0.054-0.01-0.089-0.021
					c0.021-0.104,0.03-0.207,0.021-0.333H6.767c-0.023-0.018-0.02-0.015-0.066-0.022c0.001,0.158,0.011,0.257,0.045,0.355v1.73
					h0.066c-0.009,0.045-0.006,0.043-0.023,0.066c0.021,0.077,0.032,0.061,0.067,0.111h0.09v0.133H6.833v0.044h0.112v0.711H6.788
					v0.066c-0.044-0.009-0.041-0.005-0.066-0.021H6.7v0.644c0.023,0.067,0.083,0.307,0.045,0.422
					C6.73,22.325,6.715,22.332,6.7,22.34c-0.057,0.165,0.002,0.544,0.045,0.644c0.043,0.099-0.027,0.255,0.021,0.333
					c-0.011,0.085-0.227,0.374-0.288,0.421c-0.029,0.022-0.067-0.006-0.09,0.022c-0.028,0.04-0.001,0.087-0.043,0.111
					c-0.023-0.008-0.045-0.015-0.066-0.021c-0.015,0.008-0.166,0.226-0.179,0.243H6.034c0.001,0.701,0.022,1.417,0.021,2.086h1.443
					c0.159,0,0.498,0.038,0.577,0c0.052,0.008,0.056,0.011,0.089,0.022v0.156h2.641c0.223,0.029,0.806,0.115,1.087,0.043
					c0.354-0.09,0.885-0.027,1.31-0.043c0.12-0.005,0.08-0.031,0.112-0.045h1.464v0.133c0.152,0.005,0.604,0.053,0.666-0.045
					c0.111,0.016,0.096,0.054,0.178,0.09v0.089h-0.111V26.49c-0.073,0.113,0.015,0.271,0.021,0.399c0.069,0,0.236,0.033,0.267,0.021
					c0.008-0.021,0.016-0.045,0.022-0.066c0.11-0.059,0.35,0.03,0.399,0.045h0.289v-0.045c0.214,0.008,0.429,0.015,0.643,0.021
					c0.266,0.001,0.693-0.038,0.799,0.023h0.134v-0.045h-0.088c0.021-0.082,0.039-0.061,0.066-0.133
					c0.147,0.027,0.065,0.018,0.221,0v-0.155c-0.017,0.022-0.007,0.006-0.021,0.044h-0.066c0.01-0.045,0.018-0.147,0.021-0.155
					c0.022-0.007,0.045-0.015,0.066-0.021c0,0-0.07-0.079-0.044-0.133c0.039-0.08,0.063-0.039,0.066-0.2h1.043
					c0.052-0.019,0.116-0.044,0.222-0.045c0.005-0.081,0.032-0.098,0.045-0.133v-0.312c0-0.325-0.039-0.734,0.022-1.021
					c0.026-0.126-0.035-0.308,0.022-0.399c-0.022-0.059-0.03-0.038-0.045-0.111c-0.037,0.008-0.29,0.021-0.354-0.021h-0.045
					c-0.022-0.129,0.016-0.132,0.045-0.244c0.051,0.007,0.054,0.01,0.088,0.021c0.008-0.021,0.015-0.044,0.022-0.066H19.35v-0.022
					h-0.088c0-0.252,0.003-0.536-0.022-0.754c0.058,0.005,0.074,0.01,0.11,0.022v-0.022h0.022v-0.066
					c-0.036,0.008-0.074,0.015-0.11,0.021v-0.066h0.021v-0.021c0.119,0.01,0.077,0.029,0.111,0.044
					c0.138,0.061,0.344-0.031,0.443-0.044v0.088c-0.045,0.01-0.042,0.006-0.066,0.022h-0.044c0.197,0.127,1.208,0.007,1.42,0.045
					c0.022-0.018,0.006-0.009,0.045-0.022c0.003-0.376,0.031-0.771-0.067-1.221c-0.018-0.084,0.015-0.192,0.022-0.243
					c0.014-0.095-0.013-0.208-0.022-0.267c-0.028-0.191,0.027-0.446,0.022-0.599c-0.022-0.682,0-1.31,0-2.021
					c0-0.397,0.1-1.486-0.155-1.598c0.054-0.097,0.488-0.118,0.532,0.045h0.044v-0.09c0.223,0.005,0.055,0.056,0.179,0.134
					c0.033,0.021,0.087,0.004,0.11,0.022c0.107,0.161-0.056,0.355,0.022,0.487c0.027,0.046,0.05,0.002,0.066,0.089H21.88
					c0.022,0.019,0.061,0.033,0.09,0.044c-0.012,0.069-0.015,0.055,0,0.112c-0.035,0.012-0.038,0.016-0.09,0.021
					c-0.007,0.037-0.015,0.074-0.022,0.111h0.089v1.797c0.034,0.069,0.173,0.119,0.067,0.2v0.044h0.089v0.089h0.088v-0.066h0.066
					v0.066h0.978v-0.066h0.021c0.077-0.063,0.234-0.071,0.378-0.066v0.088h-0.245v0.045c0.115,0.003,0.22,0.04,0.289,0.021
					c0.037-0.009,0.031-0.074,0.089-0.066c0.072,0.012,0.174,0.106,0.311,0.066c0.125-0.034,0.384-0.034,0.555,0
					c0.22,0.048,0.501-0.076,0.6-0.021h0.154c0.014-0.061,0.035-0.104,0-0.155V19.81c-0.031,0.019-0.055-0.016-0.044,0.044h0.022
					c-0.033,0.056,0.005,0.026-0.066,0.045c-0.003-0.115-0.012-0.137,0.088-0.155c-0.032-0.055,0.006-0.026-0.066-0.045
					c-0.002-0.09-0.014-0.232,0.022-0.288v-0.089h0.044v0.111h1.065v-1.731h-0.133C26.32,17.499,26.404,17.157,26.363,17.014z
					 M25.497,9.269c0.073,0.017,0.052,0.022,0.111,0.044v0.066c-0.07-0.012-0.065-0.02-0.111-0.044V9.269z M6.367,9.202
					C6.35,9.225,6.359,9.208,6.346,9.246H6.279C6.287,9.201,6.284,9.204,6.301,9.18V9.136h0.021v0.022h0.045V9.202z M6.612,11.954
					c-0.076-0.003-0.187-0.006-0.2,0c-0.056-0.032-0.026,0.005-0.045-0.067h0.245V11.954z M14.667,13.241h-0.066
					c0.008-0.022,0.016-0.044,0.022-0.066C14.678,13.207,14.649,13.169,14.667,13.241z M14.667,14.15v0.133
					c-0.057-0.028-0.075-0.061-0.088-0.133c-0.02,0.029-0.021,0.055-0.022,0.111H14.49v-0.178c0.061-0.001,0.102-0.001,0.133-0.021
					h0.044C14.659,14.125,14.646,14.108,14.667,14.15z M14.601,12.73c0.015,0.02,0.03,0.07,0.045,0.089
					c-0.027,0.064-0.008,0.019-0.066,0.045C14.581,12.801,14.587,12.77,14.601,12.73z M12.582,10.444h0.066v0.045h-0.066V10.444z
					 M12.315,10.444c-0.014,0.039-0.004,0.022-0.023,0.045v0.021h-0.021c-0.008-0.021-0.015-0.044-0.021-0.066H12.315z
					 M10.872,10.467h0.089v0.066h-0.089V10.467z M10.518,7.648c0.074,0.008,0.145,0.006,0.177,0h0.045
					c-0.021,0.083-0.044,0.08-0.111,0.111c-0.008,0.074-0.005,0.047,0,0.133h0.066c0.013,0.055,0.021,0.082,0.022,0.155
					c-0.091-0.006-0.063-0.005-0.155,0c0.009-0.146,0.052-0.272-0.044-0.333V7.648z M10.739,9.202
					c-0.032,0.054,0.006,0.025-0.066,0.044v-0.11h0.066C10.736,9.199,10.724,9.167,10.739,9.202z M10.65,9.158v0.044
					c-0.119-0.035-0.101-0.754-0.089-1.132h0.066C10.626,8.381,10.602,9.059,10.65,9.158z M9.03,12.864h0.066v0.066H9.03V12.864z
					 M8.409,11.887h0.11v0.067h-0.11V11.887z M8.564,11.977v0.066H8.498v-0.066H8.564z M8.52,15.66
					c-0.042-0.012,0.003-0.012,0-0.045c0.011,0.018,0.049,0.009,0.045,0.045H8.52z M7.699,13.796H7.654v-1.819
					c0.138-0.004,0.21-0.032,0.266-0.111h0.045c-0.019,0.071,0.012,0.034-0.045,0.066c0.022,0.092,0.002,0.038,0.066,0.067
					c0.009-0.045,0.017-0.089,0.023-0.134h0.377v0.066c-0.047-0.01-0.05-0.003-0.133,0v0.045h0.222v0.709
					c0.032,0.073,0.08,0.128,0.089,0.245h0.089c-0.02,0.071,0.012,0.033-0.044,0.066v0.044h0.088
					c-0.012-0.033-0.016-0.037-0.021-0.089h0.088v0.089H9.03v-0.089h0.089v0.089h0.066v-0.089h0.089
					c-0.019-0.11,0.006-0.151,0.022-0.267h0.066v0.179h0.045c-0.001-0.065-0.002-0.121,0.021-0.155
					c-0.021-0.106-0.017-0.07-0.088-0.067v-0.089h0.066c0.012-0.061,0.022-0.114,0.021-0.199c0.12-0.034,0.261-0.272,0.378-0.354
					V11.91c0.067,0.002,0.089,0.012,0.11,0c0.177-0.084,0.07-0.134,0.11-0.2c0.021-0.032,0.126-0.056,0.156-0.089
					c0.017-0.031,0.008-0.028-0.022-0.066v-0.022c0.056,0.011,0.112-0.011,0.199-0.022c0.02-0.187,0.051-0.571,0.045-0.933
					c0.052-0.007,0.104-0.014,0.155-0.021v-0.045h-0.088v-0.066h0.066v-0.021h0.021v-0.111h0.066v0.066h0.111v0.133h-0.066v0.045
					c0.287,0.036,1.087-0.018,1.486,0v-0.066h0.066v0.066c0.269,0.037,0.393,0.007,0.532-0.133h0.066
					c-0.025,0.068-0.035,0.07-0.109,0.088c0.007,0.022,0.015,0.045,0.021,0.066c0.106-0.007,0.868-0.039,0.933,0h0.045v-0.044
					c-0.043-0.03-0.019-0.029-0.089-0.044v-0.045c0.079,0.011,0.056-0.012,0.089,0.045h0.311c-0.009,0.03-0.016,0.059-0.023,0.088
					c0.039-0.014,0.023-0.004,0.045-0.021c0.058,0.005,0.075,0.01,0.111,0.021v1.776c-0.058,0.004-0.076,0.01-0.111,0.022
					c0.032,0.054-0.006,0.025,0.067,0.044c-0.016,0.081-0.032,0.072-0.045,0.155c0.029-0.008,0.059-0.015,0.089-0.022
					c0.008-0.074,0.015-0.148,0.022-0.222h0.066c0,0.166-0.04,0.205-0.066,0.311c-0.038,0.008-0.074,0.016-0.111,0.022v0.045
					c0.134,0,0.279,0.013,0.355-0.045c0.073,0.016,0.051,0.021,0.11,0.045v0.354c-0.643,0.061-1.5,0-2.219,0v0.066
					c-0.07-0.026-0.645-0.099-0.732-0.066c-0.007,0.015-0.015,0.029-0.023,0.045c-0.159,0.053-0.297-0.079-0.354,0.021
					c-0.055-0.033-0.025,0.006-0.045-0.066c-0.115,0.012-0.175,0.019-0.288,0v0.021h-0.021c0.014,0.039,0.004,0.023,0.021,0.045
					v0.022c0.016,0.02,0.043-0.042,0.045-0.044c0.071,0.019,0.034-0.014,0.066,0.044h0.022v0.022
					c-0.045,0.022-0.089,0.044-0.134,0.066c0.036,0.051,0.049,0.032,0.067,0.11h-0.067v0.022h-0.021
					c0.012,0.055,0.02,0.082,0.021,0.155h0.067c-0.013,0.132-0.158,0.657-0.067,0.799v0.089c-0.034-0.013-0.053-0.019-0.111-0.021
					v0.088c-0.136-0.015-0.114-0.063-0.287-0.066v-0.089h-0.312v0.089c-0.266,0.001-0.5,0.04-0.71,0.045v-0.066
					c-0.024,0.02-0.001-0.003-0.022,0.021c-0.186,0.001-0.407-0.002-0.466-0.044v-0.577C8.775,13.759,7.775,13.737,7.699,13.796z
					 M12.093,15.128c0.055,0.032,0.026-0.007,0.045,0.066h-0.066v-0.022h0.021V15.128z M11.85,15.46v-0.022
					c0.014,0.008,0.029,0.016,0.043,0.022v-0.022h0.023v0.067c-0.047-0.009-0.043-0.006-0.066-0.023h0.021V15.46H11.85z
					 M11.227,14.328h0.067v0.067h-0.067V14.328z M11.205,14.307H11.16c0.021-0.054,0.025-0.036,0.045-0.09
					c0.038,0.016,0.021,0.005,0.045,0.022h0.022C11.247,14.288,11.24,14.272,11.205,14.307z M11.027,14.396v0.021
					c-0.057-0.005-0.075-0.01-0.11-0.021c-0.017-0.079-0.024-0.183-0.022-0.289h0.066c0.007,0.082,0.016,0.162,0.022,0.244h0.089
					v0.066H11.05v-0.021H11.027z M11.05,13.33c-0.004,0.052-0.004,0.063-0.022,0.088c-0.023,0.018-0.021,0.015-0.066,0.022v-0.133
					h0.066v0.022H11.05z M11.027,13.552v0.022h0.022v0.199h-0.066c-0.007-0.074-0.016-0.148-0.022-0.222H11.027z M11.027,14.217
					V14.15h0.045c0.014,0.039,0.005,0.022,0.021,0.045C11.07,14.212,11.074,14.209,11.027,14.217z M11.36,22.14
					c-0.171,0.036-0.743,0.087-0.865-0.021c-0.022-0.027-0.005-0.021-0.021-0.066h0.887V22.14z M14.689,24.07
					c-0.038,0.015-0.021,0.005-0.044,0.022h-0.045c0.018-0.051,0.023-0.049,0.045-0.089h0.044V24.07z M14.689,21.874
					c-0.004,0.058-0.011,0.075-0.022,0.111c-0.081-0.009-0.162-0.016-0.243-0.022v1.375h0.089v0.355h0.11
					c0.013,0.136,0.061,0.144,0.066,0.289c-0.076-0.02-0.056-0.012-0.089-0.066h-0.044c0.008,0.059,0.015,0.118,0.022,0.177
					c-0.1-0.002-0.105,0.009-0.134-0.066c-0.017,0.024-0.014,0.021-0.021,0.066c-0.17-0.002-0.509-0.032-0.6,0h-0.133
					c0.02,0.072-0.015,0.133,0.022,0.2v0.022h-1.089c-0.002-0.076-0.005-0.187,0-0.2c-0.045-0.071-0.106-0.034-0.154-0.022v-2.308
					h0.111v0.134c0.024-0.038,0.023-0.109,0.021-0.179c-0.171-0.006-0.248-0.094-0.354-0.133h-0.444v0.066h-0.133v-0.066H11.56
					v0.066H11.45v0.289c-0.331,0.002-0.921,0.061-1.133-0.022c-0.046-0.033-0.063-0.058-0.089-0.111
					c-0.012-0.019-0.028-0.559,0-0.599c0.023-0.018,0.137-0.025,0.245-0.022V21.12c-0.082-0.009-0.163-0.017-0.245-0.022
					c0.014-0.053,0.026-0.07,0.045-0.111h0.2v-0.199c0.133-0.009,0.266-0.016,0.398-0.022v0.066h0.022
					c0.014-0.036,0.02-0.054,0.022-0.11c0.051-0.007,0.063-0.006,0.089-0.023c0.017-0.023,0.014-0.021,0.021-0.066h0.111
					c0.001,0.116-0.007,0.145-0.089,0.178v0.045h0.133c0-0.107,0.008-0.211,0.022-0.29h-0.022v-0.021H11.05
					c0.001-0.208-0.071-0.992-0.089-1.021c0.01-0.046,0.005-0.043,0.022-0.067v-0.021c0.092,0.063,0.012,0.301,0.089,0.377v0.333
					c0.037-0.007,0.074-0.014,0.11-0.022v-0.267h-0.066v-0.021h-0.022v-0.71h-0.222c-0.045-0.23-0.048-0.549-0.089-0.755h0.067
					c-0.053-0.14,0.025-0.21,0-0.311c-0.013-0.046-0.098-0.107-0.067-0.177c0.016-0.008,0.03-0.017,0.044-0.023
					c0.001-0.064,0.002-0.121-0.021-0.155V17.68h-0.022v0.11h-0.066v-0.11c-0.049,0.017-0.087,0.03-0.133,0
					c-0.081,0.02-0.067,0.014-0.089,0.088h-0.267v-0.443c-0.232,0.025-0.647,0-0.954,0v-1.176c0.022-0.033,0.183-0.099,0.222-0.111
					c0.005-0.101,0.02-0.206-0.044-0.244v-0.045h1.265c0.134,0.003,0.292,0.113,0.443,0.045c0.008-0.022,0.017-0.045,0.022-0.066
					c0.134-0.008,0.268-0.015,0.4-0.022v0.179h0.089c-0.032-0.056,0.005-0.026-0.067-0.046v-0.066h0.134
					c0.007-0.073,0.014-0.147,0.021-0.222h0.09v0.155h0.043v-0.155h0.066c0.013-0.028,0.028-0.087,0.045-0.111
					c0.032-0.021,0.073-0.022,0.134-0.022c0.031-0.082,0.009-0.111,0.111-0.133c-0.034-0.055,0.005-0.025-0.066-0.044v-0.2
					c-0.018,0.024-0.015,0.021-0.023,0.067h-0.066c0.015-0.089,0.024-0.076,0.023-0.134c0.077,0.018,0.055,0.028,0.133,0.044v0.156
					c0.071-0.111,0.019-0.714,0.021-0.844h0.333v0.067h0.289v0.066h0.066c-0.009-0.045-0.016-0.089-0.022-0.134h0.066v-0.066h0.312
					c0.014,0.021,0.028,0.045,0.044,0.066c0.118,0.05,1.087-0.021,1.087-0.021c0.056,0.031,0.025-0.006,0.045,0.066H14.4v0.11
					c0.051-0.011,0.026-0.019,0.067,0h0.089c-0.034-0.049-0.044-0.06-0.044-0.155h0.066c0.012,0.243,0.046,0.563,0.044,0.866h-0.199
					v0.021H14.4c0.016,0.039,0.005,0.022,0.023,0.045c-0.005,0.187-0.048,0.611,0.066,0.622v0.287h-0.066v-0.221
					c-0.044,0.063-0.026,0.25-0.023,0.354c0.02-0.026,0.02-0.038,0.023-0.089h0.066c-0.003,0.205-0.076,0.226-0.09,0.399h0.067
					v-0.111c0.068,0.002,0.113,0.009,0.155,0.022v0.044c-0.173,0.013-0.12,0.287-0.11,0.512c-0.128,0.017-0.265,0.045-0.444,0.044
					c-0.021,0.276-0.023,0.621-0.022,0.932h-0.311v0.066h-0.066v-0.066H13.58v0.089h-0.089c0.029,0.053-0.011,0.016,0.044,0.044
					c-0.022,0.15-0.09,0.201-0.088,0.399h-0.089v0.489c0.116,0,0.199,0.006,0.267,0c0.019,0.025,0.018,0.024,0.044,0.044
					c0.003,0.218,0.03,0.754,0.066,0.799c0.164,0.084,0.609,0.012,0.932,0.044c-0.011,0.087-0.021,0.071-0.044,0.133h-0.066
					c0.02-0.07-0.013-0.033,0.044-0.066V20.01c-0.392,0-0.538,0.044-0.887,0.044v0.089h0.665c-0.049-0.009-0.006-0.094,0-0.111
					c0.051,0.008,0.056,0.011,0.089,0.022v0.089H14.4c0.061,0.176,0.026,0.493,0.023,0.711h0.199v0.066h-0.066v0.288h0.133
					C14.69,21.426,14.633,21.729,14.689,21.874z M14.667,17.036c-0.002,0.057-0.003,0.082-0.021,0.111
					c-0.009,0.045-0.006,0.042-0.022,0.066c-0.038-0.023,0-0.001-0.044,0c0.007-0.06,0.014-0.118,0.021-0.178H14.667z
					 M14.557,17.191v0.044h-0.089v-0.066h0.066v0.022H14.557z M13.669,18.212v-0.022h0.066v0.09h-0.066
					c0.007-0.023,0.014-0.045,0.022-0.067H13.669z M13.558,18.7v0.066h-0.066V18.7H13.558z M14.623,20.143v0.066h-0.089v-0.066
					H14.623z M21.059,19.344v0.021h0.022v-0.021h0.021v0.066h-0.066C21.046,19.365,21.041,19.368,21.059,19.344z M21.836,6.738
					c0.131-0.002,0.302-0.011,0.399,0.022V6.85h-0.399V6.738z M20.394,6.805h0.066V6.85h-0.066V6.805z M18.551,8.247v0.134
					c-0.057-0.031-0.059-0.055-0.066-0.134H18.551z M18.484,10.045c0.007-0.021,0.015-0.044,0.022-0.066
					c0.036,0.03,0.026,0.014,0.044,0.066H18.484z M18.529,10.134V10.2c-0.056-0.033-0.026,0.006-0.045-0.066H18.529z M18.507,9.068
					h0.044C18.53,9.107,18.543,9.094,18.507,9.068z M18.484,8.892V8.825h0.045v0.021h0.021C18.518,8.902,18.557,8.873,18.484,8.892z
					 M18.463,8.713c0.038-0.014,0.021-0.004,0.044-0.021h0.022c-0.012,0.051-0.02,0.024,0,0.066
					c-0.024,0.017-0.021,0.014-0.066,0.022V8.713z M17.686,10.688v-0.022h0.066v0.067c-0.046-0.009-0.043-0.006-0.066-0.023h0.022
					v-0.021H17.686z M17.529,10.8c0.075,0.007,0.149,0.015,0.223,0.022v0.066c-0.11,0.002-0.165-0.005-0.223-0.045V10.8z
					 M17.508,8.758V8.78h-0.022v0.045c-0.055-0.032-0.026,0.005-0.044-0.067H17.508z M17.33,10.866
					c0.033,0.014,0.02,0.053,0.045,0.066c0.113-0.063,0.231,0.053,0.355-0.022h0.11c-0.039-0.12-0.001-0.117,0.022-0.267h0.066
					v-0.066c0.124,0.005,0.294,0.055,0.377,0c0.252,0.003,0.099-0.047,0.178-0.177c0.049-0.079,0.066,0.042,0.089-0.066
					c0.052,0.016,0.05,0.022,0.089,0.044c-0.029,0.05-0.058,0.047-0.111,0.066v0.111h0.133c0,0.218-0.013,0.517,0,0.666
					c-0.017,0.022-0.007,0.005-0.021,0.044h-0.155c-0.007,0.244,0.033,0.582-0.044,0.755c-0.05,0.111,0.006,0.282,0.066,0.311
					c0.001,0.229,0.041,0.565-0.022,0.754h-0.134c-0.002-0.167-0.002-0.23,0-0.399h0.09v-0.287c-0.045-0.008-0.09-0.016-0.134-0.022
					v0.732c-0.263,0.002-0.567-0.011-0.71,0v-0.289c-0.209-0.041-0.51-0.024-0.755-0.021V12.73
					c-0.017,0.023-0.014,0.021-0.021,0.067c-0.105-0.025-0.086-0.07-0.2-0.089c-0.015,0.117-0.06,0.073-0.089,0.133
					c-0.017,0.033,0.042,0.111,0.022,0.177c-0.011,0.035-0.036,0.049-0.045,0.111c-0.154,0-0.363-0.046-0.399-0.045h-0.044
					c-0.043,0.02,0.044,0.023,0.044,0.023v0.044c-0.101-0.019-0.06-0.026-0.134-0.067c-0.046,0.015-0.076,0.055-0.177,0.045
					c0.003-0.008,0.009-0.07-0.022-0.045v0.045h-0.066c0.03-0.035,0.015-0.024,0.066-0.045c-0.038-0.035-0.068-0.055-0.133-0.066
					v-0.088c0.078,0.017,0.055,0.027,0.133,0.044c-0.005-0.184,0.002-0.253,0-0.399c-0.075-0.015-0.068-0.026-0.133-0.044
					c0.008-0.053,0.016-0.104,0.022-0.155h0.022c0.022-0.018,0.02-0.015,0.066-0.022c-0.009,0.071-0.027,0.086,0,0.133v0.022h0.021
					c0.015-0.042,0.022-0.088,0.022-0.155c0.082-0.008,0.162-0.016,0.244-0.022c-0.012-0.146-0.063-0.151-0.067-0.311h0.067
					c0.002,0.063,0.01,0.095,0.022,0.133h0.089c-0.025-0.063-0.003-0.041-0.066-0.066c0.019-0.071-0.013-0.033,0.044-0.066v-0.044
					c-0.052,0.007-0.104,0.015-0.156,0.022c-0.006-0.11-0.037-0.097,0.046-0.134v-0.022h-0.022v-0.044
					c-0.039,0.001-0.162,0.021-0.2,0.044c-0.046-0.009-0.043-0.006-0.066-0.022h-0.022c0.029-0.05,0.058-0.047,0.111-0.066v-0.089
					c-0.056,0.033-0.026-0.005-0.045,0.066h-0.066v-0.066h0.066c0.02-0.142,0.085-0.56,0-0.688v-0.044
					C16.095,10.878,17.066,11.056,17.33,10.866z M18.352,12.575v-0.089h0.066v0.089H18.352z M16.976,14.239
					c-0.012,0.058-0.034,0.135-0.066,0.178v0.022c-0.016-0.008-0.029-0.016-0.045-0.022v0.022h-0.021
					c0.019-0.048,0.02-0.124,0.044-0.156C16.921,14.244,16.906,14.252,16.976,14.239z M15.688,12.664v-0.045
					c0.038-0.014,0.021-0.004,0.044-0.021c0.018,0.023,0.015,0.021,0.022,0.066H15.688z M15.732,9.046h0.066v0.112h-0.066V9.046z
					 M15.755,9.202h0.022v0.044h-0.045c-0.008-0.021-0.015-0.044-0.021-0.066C15.749,9.194,15.731,9.184,15.755,9.202z
					 M15.711,10.933c0.06,0.177,0.024,0.493,0.021,0.711h-0.066v-0.711H15.711z M15.666,7.893h0.089
					c-0.015,0.037-0.004,0.021-0.022,0.045c-0.024,0.017-0.021,0.014-0.066,0.021V7.893z M15.666,8.979v0.066
					c-0.017-0.022-0.014-0.02-0.022-0.066H15.666z M15.666,19.565v-0.111h0.089c0.001,0.131-0.015,0.211-0.044,0.289
					c-0.096,0-0.176,0.009-0.245,0.021v-0.021c-0.018-0.023-0.008-0.005-0.021-0.045C15.51,19.652,15.599,19.605,15.666,19.565z
					 M17.863,21.829h-0.066v-0.021h-0.022c0.008-0.046,0.005-0.043,0.022-0.067v-0.044h0.066V21.829z M17.885,21.607h-0.266v0.089
					h0.089v0.133h-0.089v0.09h0.133c0.001,0.104,0.015,0.303,0,0.354c-0.018,0.062-0.063,0.059-0.066,0.178
					c-0.003,0.148,0.047,0.408,0,0.487c-0.011,0.087-0.229,0.173-0.333,0.179v-0.09h-0.089v0.067
					c-0.059,0.006-0.117,0.015-0.178,0.022c0.03,0.066,0.051,0.045,0.066,0.133c-0.051-0.005-0.062-0.005-0.089-0.022
					c-0.058-0.022-0.076-0.046-0.11-0.089c-0.017-0.023-0.014-0.021-0.022-0.066c0.083-0.003,0.088-0.008,0.133,0v-0.045
					c-0.059-0.006-0.087,0.007-0.133-0.021c-0.019,0.025-0.019,0.037-0.021,0.089c-0.322,0.061-0.853-0.03-1.132,0.022v-0.045
					c0.038-0.015,0.021-0.005,0.044-0.021h1.021v-0.045h-1.044v-0.155c-0.101,0.043-0.078,0.067-0.066,0.177
					c-0.038-0.014-0.021-0.004-0.044-0.021c-0.087-0.019-0.079-0.08-0.045-0.178c-0.045-0.017-0.104-0.023-0.178-0.022
					c0.005-0.24,0.041-0.96-0.066-0.998c-0.001-0.135,0.021-0.145,0.045-0.178h0.021v-0.022c-0.055-0.011-0.019-0.004-0.088,0V19.81
					h0.066c0.002,0.183,0.047,0.78-0.022,0.888v0.511h0.022c0.091-0.273,0.024-1.069,0.021-1.421h0.333v-0.333h1.287
					c0.219,0,0.452-0.017,0.578,0.067c-0.029,0.115-0.044,0.055-0.045,0.177h0.066v-0.066h0.066v0.022
					c0.018,0.024,0.014,0.021,0.022,0.066h-0.066v0.133c-0.072-0.019-0.034,0.014-0.066-0.044h-0.022v0.333h0.089v0.354h0.089
					c0.002,0.135-0.007,0.259-0.022,0.312c0.017,0.022,0.008,0.005,0.022,0.045c0.068,0.007,0.034,0.008,0.088,0v0.021
					c0.019,0.028,0.013,0.163-0.021,0.178c0.022,0.018,0.006,0.009,0.044,0.022c-0.044,0.067,0.021,0.038-0.044,0.111
					c0.015,0.06-0.015,0.035,0.044,0.044c-0.007,0.014-0.015,0.03-0.022,0.044h0.022C17.909,21.389,17.913,21.527,17.885,21.607z
					 M17.797,19.787v-0.044c0.085,0.02,0.056,0.013,0.066,0.11h-0.066C17.8,19.791,17.813,19.822,17.797,19.787z M19.705,19.478
					h-0.044c0.007-0.023,0.015-0.045,0.021-0.067h0.045c-0.016,0.038-0.005,0.022-0.022,0.044V19.478z M19.661,18.456v-0.022
					c0.028,0.008,0.059,0.015,0.088,0.022v0.066h-0.066C19.674,18.478,19.678,18.48,19.661,18.456z M19.971,19.565h-0.243v-0.066
					c0.108,0.003,0.22-0.005,0.243-0.021h0.045C20,19.528,19.993,19.527,19.971,19.565z M22.036,17.68
					c-0.025,0.017-0.021,0.014-0.066,0.021v-0.066h0.088C22.043,17.674,22.053,17.656,22.036,17.68z M22.058,17.368H21.97v-0.066
					c0.021,0.008,0.044,0.015,0.066,0.022v-0.022h0.021V17.368z M21.48,14.75v-0.067h-0.312v0.067
					c-0.104,0.006-0.247,0.022-0.287-0.044c-0.018,0.023-0.015,0.02-0.022,0.066c-0.14,0.004-0.907,0.109-0.933,0.155
					c-0.092-0.021-0.038-0.002-0.066-0.066h-0.111c-0.017,0.465-0.021,1.008-0.021,1.509c0,0.167-0.022,0.495,0.021,0.555v0.111
					c0.056-0.033,0.026,0.006,0.045-0.067c0.094,0.001,0.188,0.006,0.244,0.045h0.044v0.067c-0.085,0.002-0.113,0.005-0.155,0.044
					c-0.153,0.093-0.089,1.24-0.089,1.598c0,0.135-0.036,0.396,0.022,0.488c0.009,0.083,0.018,0.082,0.044,0.133
					c0.061,0,0.103,0,0.134-0.022h0.044c-0.018,0.058-0.027,0.053-0.044,0.111c-0.255,0.011-0.342-0.109-0.333-0.354h0.066V18.7
					h-0.066v-0.089h0.066v-1.265c-0.077,0.12-0.025,0.839-0.022,1.043c-0.507,0.033-1.248,0.044-1.886,0.044
					c-0.307,0-0.72-0.037-0.954,0c-0.026-0.04-0.049-0.063-0.089-0.088v-0.156c-0.057-0.002-0.082-0.003-0.111-0.022h-0.022
					c-0.01-0.043,0.01-0.027,0.022-0.044v-0.022h-0.066c0.032-0.815,0.021-1.721,0.021-2.573c0-0.206-0.055-0.873,0.022-0.999
					c0.008-0.022,0.016-0.045,0.022-0.066h0.111v0.066h-0.09v2.553c0,0.198,0.054,0.832-0.021,0.953v0.045
					c0.038,0.008,0.073,0.015,0.111,0.021v0.089h0.044v-2.552c0-0.326-0.066-0.908,0.022-1.176h1.753
					c-0.008-0.082-0.015-0.163-0.022-0.245h0.111c0.019-0.142,0.939-0.09,1.176-0.11c-0.017-0.094-0.013-0.271-0.066-0.333
					c0.043-0.021,0.017-0.008,0.066,0c0.019-0.049,0.024-0.12,0.022-0.199h0.089v0.177h0.066c-0.007-0.074-0.015-0.148-0.021-0.222
					h-0.09v-1.198c0.058-0.004,0.076-0.009,0.111-0.021c0.003-0.195,0.053-0.86-0.021-0.978c-0.017-0.01-0.105-0.019-0.179-0.021
					c-0.001-0.092-0.055-0.234-0.044-0.268h0.044v-0.266c-0.023-0.057-0.042-0.059-0.044-0.178h1.243
					c0.164,0,0.377-0.036,0.443,0.066c0.017-0.023,0.015-0.021,0.022-0.066h0.067v0.178c0.061-0.023,0.046-0.034,0.133-0.044v0.089
					h0.089c-0.021,0.07,0.012,0.034-0.045,0.066c0.073,0.048,0.286,0.026,0.399,0.021v-0.088c0.137,0.01,0.265-0.022,0.333,0.021
					h0.066c-0.044,0.07-0.221,0.051-0.333,0.045c0.115,0.074,0.479,0.026,0.645,0.021v-0.088h0.421
					c-0.008,0.045-0.005,0.042-0.021,0.066v0.021c0.104,0.007,0.103,0.009,0.199,0v0.755c-0.066-0.003-0.062-0.016-0.089,0
					c-0.038,0.015-0.021,0.005-0.044,0.022c-0.018,0.024-0.015,0.02-0.022,0.066h0.11v0.066h-0.021v0.022
					c-0.08-0.011-0.056,0.013-0.089-0.044h-0.044c-0.016,0.357-0.09,0.854-0.022,1.242c0.016,0.089,0.104,0.147,0.11,0.311h-0.088
					c0.071,0.057,0.112,0.048,0.199,0.045c0,0.411-0.02,0.9,0,1.242c-0.343-0.071-0.852-0.047-1.265-0.044v0.134
					C21.838,14.73,21.822,14.753,21.48,14.75z M19.838,13.574h0.066v0.022h-0.022c-0.013,0.038-0.003,0.021-0.021,0.044
					C19.854,13.618,19.846,13.597,19.838,13.574z M19.949,12.021v-0.066h0.066v0.066H19.949z M23.322,11.887h0.066
					c-0.026,0.193,0.085,1.005-0.021,1.177v0.021h-0.045C23.324,12.746,23.382,12.137,23.322,11.887z M22.257,19.987
					c-0.073-0.03-0.045-0.007-0.044-0.066h0.044V19.987z M23.234,19.987v-0.066h0.044v0.022h0.022
					C23.268,19.998,23.306,19.969,23.234,19.987z M23.301,14.729h-0.933v-0.067h0.933V14.729z M23.322,14.661h0.089v0.067h-0.089
					V14.661z M23.589,19.898c-0.029,0.054-0.07,0.052-0.111,0.089h-0.11v-0.044c0.046-0.018,0.122-0.035,0.177-0.045v-0.134h0.067
					C23.604,19.825,23.617,19.853,23.589,19.898z M25.364,19.943c-0.008,0.029-0.015,0.059-0.022,0.088h-0.044v-0.088H25.364z
					 M26.408,19.344h-0.135v-0.133h0.135V19.344z M26.408,18.988h-0.135v-0.133h0.135V18.988z M26.408,18.634h-0.135V18.5h0.135
					V18.634z M26.408,18.279h-0.135v-0.134h0.135V18.279z M26.408,17.79v0.134h-0.135V17.79H26.408z M22.279,5.273h-0.044v0.045
					h0.044V5.273z M25.386,5.739c0-0.092,0.015-0.23-0.021-0.288v1.198C25.437,6.539,25.386,5.926,25.386,5.739z M8.01,5.651
					C7.985,5.631,8.008,5.652,7.986,5.63H7.898c0.028,0.05,0.038,0.048,0.045,0.133C7.996,5.732,7.996,5.717,8.01,5.651z
					 M10.118,6.339h-0.045v0.045h0.045V6.339z M18.64,6.694h-0.311v0.089h0.311V6.694z M20.061,6.716V6.694h-1.021v0.089
					c0.104,0,0.958-0.041,0.999-0.067H20.061z M10.739,7.049c0.023,0.017,0.021,0.014,0.066,0.021
					C10.782,7.055,10.786,7.058,10.739,7.049z M10.895,7.07v0.045h0.022C10.902,7.077,10.913,7.094,10.895,7.07z M10.54,7.715h0.021
					c-0.015-0.038-0.005-0.021-0.021-0.044V7.715z M12.625,7.76c-0.061-0.042-0.232-0.025-0.333-0.022
					C12.354,7.778,12.526,7.763,12.625,7.76z M17.264,8.869h0.022c-0.015-0.038-0.004-0.021-0.022-0.044V8.869z M17.33,8.979h0.022
					c-0.015-0.038-0.004-0.021-0.022-0.044V8.979z M26.318,9.225V9.18c-0.06-0.008-0.119-0.015-0.178-0.021
					C26.147,9.234,26.18,9.229,26.318,9.225z M6.101,9.202V9.18H5.989V10.2h0.09C6.076,9.96,6.037,9.311,6.101,9.202z M5.901,10.378
					c0.054-0.021,0.034-0.024,0.088-0.044v-0.111c-0.032,0.012-0.036,0.015-0.088,0.021V10.378z M26.43,10.244
					c0.017,0.217,0,0.512,0,0.844c0,0.121,0.022,0.352,0,0.399v0.134h0.045c-0.006-0.125-0.055-0.294,0-0.377
					C26.478,11.05,26.515,10.324,26.43,10.244z M13.735,10.533v0.044h0.022C13.742,10.539,13.754,10.556,13.735,10.533z
					 M13.78,10.533v0.044h0.021C13.787,10.539,13.797,10.556,13.78,10.533z M13.824,10.533v0.044h0.022
					C13.832,10.539,13.842,10.556,13.824,10.533z M13.868,10.533v0.044h0.022C13.876,10.539,13.887,10.556,13.868,10.533z
					 M13.913,10.533v0.044h0.021C13.921,10.539,13.931,10.556,13.913,10.533z M13.957,10.533v0.044h0.022
					C13.966,10.539,13.976,10.556,13.957,10.533z M19.904,10.666H19.86C19.896,10.693,19.879,10.702,19.904,10.666z M17.93,10.777
					h-0.045v0.045h0.045V10.777z M23.345,10.977h-0.044v0.645h0.021C23.372,11.462,23.336,11.168,23.345,10.977z M23.411,11.088
					v0.045h0.022C23.419,11.095,23.43,11.111,23.411,11.088z M10.474,11.354c0.018-0.022,0.008-0.005,0.021-0.044
					c-0.021-0.009-0.044-0.015-0.067-0.022c-0.019,0.063,0.01,0.024,0,0.089C10.467,11.362,10.451,11.372,10.474,11.354z
					 M18.373,11.311h-0.044v0.644h0.044V11.311z M23.411,11.443v0.044h0.022C23.419,11.449,23.43,11.466,23.411,11.443z
					 M10.474,11.532c-0.055,0.021-0.036,0.024-0.09,0.045v0.044h0.09V11.532z M16.132,11.932h0.045
					c-0.008-0.089-0.015-0.178-0.022-0.267c-0.082,0.003-0.196,0.01-0.244-0.021h-0.022c0.044,0.069,0.134,0.042,0.178,0.11
					C16.123,11.788,16.13,11.845,16.132,11.932z M15.954,11.776v-0.022H15.91C15.933,11.771,15.915,11.762,15.954,11.776z
					 M16.065,11.91c-0.015-0.039-0.005-0.023-0.021-0.045v0.045H16.065z M10.118,11.887c-0.054,0.021-0.035,0.025-0.09,0.045v0.045
					h0.09V11.887z M9.763,12.198h0.022v-0.066c-0.03,0.007-0.06,0.014-0.089,0.021v0.066h0.066V12.198z M9.763,12.331
					c-0.04-0.034-0.08-0.042-0.155-0.045c-0.023,0.017-0.02,0.014-0.066,0.023v0.021h0.021C9.595,12.347,9.678,12.334,9.763,12.331z
					 M16.154,12.354c0.022-0.032-0.015-0.038-0.022-0.044C16.085,12.314,16.129,12.343,16.154,12.354z M16.62,12.709h-0.044
					c0.022,0.018,0.005,0.008,0.044,0.021V12.709z M8.387,12.864h0.044V12.73H8.387V12.864z M16.554,12.73v0.045h0.022
					C16.562,12.737,16.571,12.753,16.554,12.73z M14.445,12.753c0.001,0.063,0.001,0.121-0.021,0.155v0.11h0.044
					C14.47,12.933,14.479,12.804,14.445,12.753z M18.44,12.908h0.022c-0.016-0.038-0.006-0.022-0.022-0.044V12.908z M23.345,13.463
					h-0.044v1.043h0.044C23.34,14.154,23.324,13.801,23.345,13.463z M23.411,13.574v0.044h0.022
					C23.419,13.58,23.43,13.597,23.411,13.574z M23.411,13.93v0.044h0.022C23.419,13.936,23.43,13.951,23.411,13.93z M23.411,14.283
					v0.045h0.022C23.419,14.29,23.43,14.307,23.411,14.283z M10.717,14.307v0.044h0.022C10.726,14.313,10.735,14.328,10.717,14.307z
					 M13.535,14.417c-0.043-0.029-0.145-0.024-0.221-0.021C13.357,14.424,13.458,14.42,13.535,14.417z M14.356,14.417
					c-0.054-0.036-0.198-0.025-0.288-0.021C14.123,14.432,14.267,14.42,14.356,14.417z M12.848,14.483
					c-0.032-0.021-0.14-0.032-0.178-0.044c-0.023,0.018-0.021,0.014-0.066,0.022C12.65,14.494,12.767,14.486,12.848,14.483z
					 M20.615,14.772V14.75H20.57C20.594,14.769,20.575,14.759,20.615,14.772z M12.116,15.527h0.133v-0.09
					c-0.063,0.023-0.047,0.035-0.133,0.044V15.527z M26.097,15.594c-0.034-0.023-0.092-0.023-0.156-0.022
					c0.023,0.029,0.043,0.039,0.067,0.066C26.05,15.607,26.027,15.607,26.097,15.594z M26.408,15.704h0.043v-0.133h-0.133
					C26.347,15.635,26.38,15.641,26.408,15.704z M6.256,15.837v0.046h0.133C6.364,15.84,6.335,15.85,6.256,15.837z M9.808,15.837
					c0.05,0.075,0.235,0.046,0.354,0.046h1.021C11.053,15.799,10.066,15.834,9.808,15.837z M26.43,16.925v0.022h0.021v-1.021h-0.043
					C26.404,16.125,26.354,16.806,26.43,16.925z M8.054,16.192c0.038,0.061,0.324,0.063,0.355,0.044
					c0.037-0.014,0.021-0.003,0.044-0.021C8.348,16.193,8.192,16.19,8.054,16.192z M9.363,16.592h0.045v-0.399H9.363V16.592z
					 M8.387,16.947h0.044v-0.312H8.387V16.947z M9.363,17.28h0.045v-0.289H9.363V17.28z M21.747,17.302h0.089v-0.044h-0.089V17.302z
					 M10.273,17.368c0.026,0.08,0.037,0.246,0.044,0.333c0.039-0.056,0.04-0.299,0-0.354C10.294,17.365,10.313,17.355,10.273,17.368
					z M21.88,17.856h0.022c-0.015-0.037-0.005-0.021-0.022-0.044V17.856z M6.655,18.013v-0.089H6.612
					c0.008,0.045,0.005,0.042,0.021,0.066v0.022H6.655z M13.381,18.346v0.021h0.021v-0.133h-0.044
					C13.36,18.291,13.361,18.316,13.381,18.346z M6.612,20.143h0.043v-1.73H6.612V20.143z M21.88,19.965h0.044v-0.133H21.88V19.965z
					 M11.139,20.476h0.044c0.006-0.113,0.016-0.237-0.044-0.289V20.476z M6.612,20.276h0.043c-0.019-0.071,0.013-0.035-0.043-0.067
					V20.276z M10.317,21.63v-0.022h-0.044C10.296,21.625,10.278,21.615,10.317,21.63z M6.612,22.273h0.021
					c0.02-0.066-0.009-0.146,0.021-0.2c-0.007-0.078-0.001-0.074-0.043-0.11V22.273z M17.642,22.273v0.022
					c0.034-0.025,0.017-0.025,0.066-0.044v-0.067h-0.089C17.624,22.235,17.623,22.248,17.642,22.273z M15.666,22.762h0.133v-0.089
					h-0.133V22.762z M6.612,23.383v0.044h0.021c0.013-0.126,0.059-0.332-0.021-0.421C6.609,23.118,6.596,23.343,6.612,23.383z
					 M12.67,24.249h0.977v-0.067H12.67V24.249z M19.527,26.179v-0.045h-0.133C19.391,26.223,19.419,26.192,19.527,26.179z
					 M19.661,26.179h0.044v-0.045h-0.044V26.179z M8.031,26.246v0.111h0.022c0.015-0.039,0.005-0.022,0.022-0.045
					C8.058,26.241,8.089,26.277,8.031,26.246z M13.358,26.533h0.954c0.117,0,0.322,0.027,0.399-0.021
					c0.017-0.023,0.014-0.02,0.021-0.066h-1.375V26.533z M8.254,26.533h3.639V26.49H8.254V26.533z M18.284,26.533
					c-0.014-0.037-0.004-0.021-0.021-0.043v0.043H18.284z"/>
			</g>
		</g>
	</g>
	<polygon fill="#FFFFFF" points="22.801,16.18 22.805,16.176 14.3,7.565 11.857,10.036 17.947,16.203 11.857,22.369 14.3,24.84 
		22.565,16.472 22.822,16.201 	"/>
</g>
</svg>
