<?xml version="1.0" encoding="utf-8"?>
<!-- Generator: Adobe Illustrator 16.0.0, SVG Export Plug-In . SVG Version: 6.00 Build 0)  -->
<!DOCTYPE svg PUBLIC "-//W3C//DTD SVG 1.1//EN" "http://www.w3.org/Graphics/SVG/1.1/DTD/svg11.dtd">
<svg version="1.1" xmlns="http://www.w3.org/2000/svg" xmlns:xlink="http://www.w3.org/1999/xlink" x="0px" y="0px" width="32px"
	 height="32px" viewBox="0 0 32 32" enable-background="new 0 0 32 32" xml:space="preserve">
<symbol  id="dude-transit" viewBox="0 -25.1 21.25 25.118">
	<path fill-rule="evenodd" clip-rule="evenodd" fill="#FFFFFF" d="M15.5-4.2l0.75-1.05l1-3.1l3.9-2.65v-0.05
		c0.067-0.1,0.1-0.233,0.1-0.4c0-0.2-0.05-0.383-0.15-0.55c-0.167-0.233-0.383-0.35-0.65-0.35l-4.3,1.8l-1.2,1.65l-1.5-3.95
		l2.25-5.05l-3.25-6.9c-0.267-0.2-0.633-0.3-1.1-0.3c-0.3,0-0.55,0.15-0.75,0.45c-0.1,0.133-0.15,0.25-0.15,0.35
		c0,0.067,0.017,0.15,0.05,0.25c0.033,0.1,0.067,0.184,0.1,0.25l2.55,5.6L10.7-14l-3.05-4.9L0.8-18.7
		c-0.367,0.033-0.6,0.184-0.7,0.45c-0.067,0.3-0.1,0.467-0.1,0.5c0,0.5,0.2,0.767,0.6,0.8l5.7,0.15l2.15,5.4l3.1,5.65L9.4-5.6
		c-1.367-2-2.1-3.033-2.2-3.1C7.1-8.8,6.95-8.85,6.75-8.85C6.35-8.85,6.1-8.667,6-8.3C5.9-8,5.9-7.8,6-7.7H5.95l2.5,4.4l3.7,0.3
		L14-3.5L15.5-4.2z M14.55-2.9c-0.333,0.4-0.45,0.85-0.35,1.35c0.033,0.5,0.25,0.9,0.65,1.2S15.7,0.066,16.2,0
		c0.5-0.067,0.9-0.3,1.2-0.7c0.333-0.4,0.467-0.85,0.4-1.35c-0.066-0.5-0.3-0.9-0.7-1.2c-0.4-0.333-0.85-0.45-1.35-0.35
		C15.25-3.533,14.85-3.3,14.55-2.9z"/>
</symbol>
<g id="Layer_1">
</g>
<g id="Layer_2">
	<g>
		<path fill="#FFFFFF" d="M11.24,20.458c0,1.042-0.844,1.887-1.887,1.887l0,0c-1.041,0-1.887-0.845-1.887-1.887V15.15
			c0-1.042,0.846-1.887,1.887-1.887l0,0c1.043,0,1.887,0.845,1.887,1.887V20.458z"/>
		<path fill="#FFFFFF" d="M15.303,20.706c0,1.042-0.845,1.887-1.887,1.887l0,0c-1.042,0-1.887-0.845-1.887-1.887v-7.049
			c0-1.042,0.845-1.886,1.887-1.886l0,0c1.042,0,1.887,0.844,1.887,1.886V20.706z"/>
		<g>
			<path fill="#FFFFFF" d="M19.441,18.008l4.528,1.176c-0.262-0.416-0.536-0.891-0.761-1.505V4.95c0-1.042-0.845-1.887-1.887-1.887
				s-1.887,0.845-1.887,1.887V14c0.002,0.039,0.006,0.076,0.006,0.116V18.008z"/>
			<path fill="#FFFFFF" d="M20.632,22.64l-2.481-0.583c-0.229,0.094-0.479,0.148-0.741,0.148c-0.855,0-1.587-0.553-1.886-1.335
				c-0.089,1.236-1.05,1.962-2.152,1.962c-0.981,0-1.842-0.653-2.006-1.621c-0.281,0.842-1.074,1.449-2.012,1.449
				c-0.889,0-1.648-0.547-1.964-1.323c-0.067,0.572-0.116,1.213-0.063,1.634c0.332,2.565,1.65,5.747,3.529,5.747l6.381,0.219
				c4.198-0.253,5.142-1.535,7.697-7.241c-0.069-0.008-4.172,0.482-4.172,0.482S20.659,22.646,20.632,22.64z"/>
		</g>
		<path fill="#FFFFFF" d="M18.141,21.815c-1.005-0.278-1.593-1.318-1.314-2.322l0,0c0.278-1.004,1.319-1.592,2.322-1.314
			l4.507,1.087c1.004,0.279,1.592,1.318,1.313,2.322l0,0c-0.277,1.004-1.317,1.593-2.322,1.314L18.141,21.815z"/>
		<path fill="#FFFFFF" d="M16.563,19.453c0.295-1.134,1.453-1.814,2.587-1.52l0.1,0.026v-4.905c0-1.042-0.823-1.886-1.841-1.886
			c-1.016,0-1.84,0.844-1.84,1.886v7.049c0,1.042,0.824,1.887,1.84,1.887c0.137,0,0.27-0.016,0.398-0.045
			C16.843,21.546,16.294,20.49,16.563,19.453z"/>
	</g>
</g>
</svg>
