<?xml version="1.0" encoding="utf-8"?>
<!-- Generator: Adobe Illustrator 16.0.0, SVG Export Plug-In . SVG Version: 6.00 Build 0)  -->
<!DOCTYPE svg PUBLIC "-//W3C//DTD SVG 1.1//EN" "http://www.w3.org/Graphics/SVG/1.1/DTD/svg11.dtd">
<svg version="1.1" xmlns="http://www.w3.org/2000/svg" xmlns:xlink="http://www.w3.org/1999/xlink" x="0px" y="0px" width="32px"
	 height="32px" viewBox="0 0 32 32" enable-background="new 0 0 32 32" xml:space="preserve">
<symbol  id="dude-transit" viewBox="0 -25.1 21.25 25.118">
	<path fill-rule="evenodd" clip-rule="evenodd" fill="#FFFFFF" d="M15.5-4.2l0.75-1.05l1-3.1l3.9-2.65v-0.05
		c0.067-0.1,0.1-0.233,0.1-0.4c0-0.2-0.05-0.383-0.15-0.55c-0.167-0.233-0.383-0.35-0.65-0.35l-4.3,1.8l-1.2,1.65l-1.5-3.95
		l2.25-5.05l-3.25-6.9c-0.267-0.2-0.633-0.3-1.1-0.3c-0.3,0-0.55,0.15-0.75,0.45c-0.1,0.133-0.15,0.25-0.15,0.35
		c0,0.067,0.017,0.15,0.05,0.25c0.033,0.1,0.067,0.184,0.1,0.25l2.55,5.6L10.7-14l-3.05-4.9L0.8-18.7
		c-0.367,0.033-0.6,0.184-0.7,0.45c-0.067,0.3-0.1,0.467-0.1,0.5c0,0.5,0.2,0.767,0.6,0.8l5.7,0.15l2.15,5.4l3.1,5.65L9.4-5.6
		c-1.367-2-2.1-3.033-2.2-3.1C7.1-8.8,6.95-8.85,6.75-8.85C6.35-8.85,6.1-8.667,6-8.3C5.9-8,5.9-7.8,6-7.7H5.95l2.5,4.4l3.7,0.3
		L14-3.5L15.5-4.2z M14.55-2.9c-0.333,0.4-0.45,0.85-0.35,1.35c0.033,0.5,0.25,0.9,0.65,1.2S15.7,0.066,16.2,0
		c0.5-0.067,0.9-0.3,1.2-0.7c0.333-0.4,0.467-0.85,0.4-1.35c-0.066-0.5-0.3-0.9-0.7-1.2c-0.4-0.333-0.85-0.45-1.35-0.35
		C15.25-3.533,14.85-3.3,14.55-2.9z"/>
</symbol>
<g id="Layer_1">
</g>
<g id="Layer_2">
	<circle fill="#FFFFFF" cx="10.51" cy="15.297" r="5.348"/>
	<path fill="#FFFFFF" d="M27.609,2.439c0,0-0.298,0.289-0.69,1.137c-0.392,0.849-2.003,1.238-2.861,1.287
		c-0.858,0.05-1.694,0.294-2.351,0.673c-0.492,0.287-1.15,0.877-1.446,1.153l-0.313-0.517l-0.686,0.417l9.862,15.782l0.685-0.416
		l-6.39-10.059c0.159-0.14,0.425-0.378,0.852-0.774c0.844-0.786,1.929-0.887,2.947-0.983c1.021-0.096,1.942-0.525,2.618-1.017
		c0.674-0.491,1.237-1.454,1.237-1.454L27.609,2.439z"/>
	<path fill="#FFFFFF" d="M28.835,17.144c-0.977-0.531-2.198-0.168-2.728,0.809l-3,5.821l-5.045,0.644
		c-2.585-1.625-5.292-2.046-7.482-2.046c-5.008,0-9.102,2.086-9.477,4.732H1.066v3.549h19.025v-2.11l3.781-0.702
		c0.502,0.021,0.965-0.154,1.329-0.445c0.413-0.17,0.774-0.469,1.004-0.892l3.438-6.631C30.175,18.896,29.813,17.674,28.835,17.144z
		"/>
</g>
</svg>
