<?xml version="1.0" encoding="utf-8"?>
<!-- Generator: Adobe Illustrator 23.0.6, SVG Export Plug-In . SVG Version: 6.00 Build 0)  -->
<svg version="1.1" xmlns="http://www.w3.org/2000/svg" xmlns:xlink="http://www.w3.org/1999/xlink" x="0px" y="0px"
	 width="42.816px" height="32.103px" viewBox="0 0 42.816 32.103" enable-background="new 0 0 42.816 32.103" xml:space="preserve">
<symbol  id="dude-transit" viewBox="0 -25.1 21.25 25.118">
	<path fill-rule="evenodd" clip-rule="evenodd" fill="#FFFFFF" d="M15.5-4.2l0.75-1.05l1-3.1l3.9-2.65v-0.05
		c0.067-0.1,0.1-0.233,0.1-0.4c0-0.2-0.05-0.383-0.15-0.55c-0.167-0.233-0.383-0.35-0.65-0.35l-4.3,1.8l-1.2,1.65l-1.5-3.95
		l2.25-5.05l-3.25-6.9c-0.267-0.2-0.633-0.3-1.1-0.3c-0.3,0-0.55,0.15-0.75,0.45c-0.1,0.133-0.15,0.25-0.15,0.35
		c0,0.067,0.017,0.15,0.05,0.25c0.033,0.1,0.067,0.184,0.1,0.25l2.55,5.6L10.7-14l-3.05-4.9L0.8-18.7
		c-0.367,0.033-0.6,0.184-0.7,0.45c-0.067,0.3-0.1,0.467-0.1,0.5c0,0.5,0.2,0.767,0.6,0.8l5.7,0.15l2.15,5.4l3.1,5.65L9.4-5.6
		c-1.367-2-2.1-3.033-2.2-3.1C7.1-8.8,6.95-8.85,6.75-8.85C6.35-8.85,6.1-8.667,6-8.3C5.9-8,5.9-7.8,6-7.7H5.95l2.5,4.4l3.7,0.3
		L14-3.5L15.5-4.2z M14.55-2.9c-0.333,0.4-0.45,0.85-0.35,1.35c0.033,0.5,0.25,0.9,0.65,1.2c0.4,0.3,0.85,0.417,1.35,0.35
		c0.5-0.067,0.9-0.3,1.2-0.7c0.333-0.4,0.467-0.85,0.4-1.35c-0.066-0.5-0.3-0.9-0.7-1.2c-0.4-0.333-0.85-0.45-1.35-0.35
		C15.25-3.533,14.85-3.3,14.55-2.9z"/>
</symbol>
<g id="Layer_1">
</g>
<g id="Layer_2">
	<g>
		<defs>
			<path id="SVGID_112_" d="M0.002,0.015v32.103h42.816V0.015H0.002z M15.248,20.639l-1.335-9.117h2.259l0.727,6.424l2.974-6.424
				h2.277l-4.568,9.117H15.248z M28.897,13.542l-0.146,0.827h-2.088l0.078-0.442c0.025-0.141-0.005-0.26-0.089-0.356
				c-0.085-0.096-0.197-0.144-0.335-0.144h-1.708c-0.152,0-0.29,0.048-0.414,0.144c-0.125,0.096-0.199,0.215-0.224,0.356
				l-0.044,0.25c-0.047,0.269,0.054,0.449,0.304,0.538c0.168,0.051,0.626,0.199,1.374,0.443c0.748,0.243,1.289,0.423,1.623,0.538
				c0.893,0.321,1.258,0.942,1.095,1.866l-0.186,1.058c-0.1,0.565-0.38,1.042-0.841,1.433c-0.462,0.391-0.97,0.587-1.527,0.587
				h-3.17c-0.544,0-0.975-0.195-1.291-0.587c-0.318-0.391-0.426-0.868-0.327-1.433l0.149-0.846h2.088l-0.081,0.462
				c-0.025,0.141,0.005,0.26,0.089,0.356c0.085,0.096,0.196,0.144,0.335,0.144h1.898c0.139,0,0.268-0.048,0.386-0.144
				c0.118-0.096,0.19-0.215,0.215-0.356l0.051-0.288c0.088-0.282-0.012-0.468-0.301-0.558c-1.118-0.333-2.117-0.66-2.996-0.981
				c-0.393-0.141-0.693-0.375-0.901-0.702c-0.208-0.327-0.274-0.708-0.197-1.144l0.18-1.019c0.099-0.564,0.376-1.042,0.831-1.433
				c0.455-0.391,0.954-0.587,1.498-0.587h3.018c0.557,0,0.996,0.195,1.32,0.587C28.884,12.5,28.996,12.978,28.897,13.542z"/>
		</defs>
		<clipPath id="SVGID_1_">
			<use xlink:href="#SVGID_112_"  overflow="visible"/>
		</clipPath>
		<g clip-path="url(#SVGID_1_)">
			<rect x="-0.137" y="-0.031" opacity="0.8" fill="#FFFFFF" width="2.683" height="2.683"/>
			<rect x="2.546" y="-0.031" opacity="0.6" fill="#FFFFFF" width="2.683" height="2.683"/>
			<rect x="-0.137" y="2.658" opacity="0.2" fill="#FFFFFF" width="2.683" height="2.683"/>
			<rect x="2.546" y="2.658" opacity="0.4" fill="#FFFFFF" width="2.683" height="2.683"/>
			<rect x="-0.137" y="5.332" opacity="0.7" fill="#FFFFFF" width="2.683" height="2.683"/>
			<rect x="2.546" y="5.332" opacity="0.5" fill="#FFFFFF" width="2.683" height="2.683"/>
			<rect x="-0.137" y="8.021" fill="#FFFFFF" width="2.683" height="2.683"/>
			<rect x="2.546" y="8.021" opacity="0.4" fill="#FFFFFF" width="2.683" height="2.683"/>
			<rect x="-0.137" y="10.711" opacity="0.5" fill="#FFFFFF" width="2.683" height="2.683"/>
			<rect x="2.546" y="10.711" opacity="0.7" fill="#FFFFFF" width="2.683" height="2.683"/>
			<rect x="-0.137" y="13.4" opacity="0" fill="#FFFFFF" width="2.683" height="2.683"/>
			<rect x="2.546" y="13.4" opacity="0.2" fill="#FFFFFF" width="2.683" height="2.683"/>
			<rect x="-0.137" y="16.074" opacity="0.25" fill="#FFFFFF" width="2.683" height="2.683"/>
			<rect x="2.546" y="16.074" opacity="0.8" fill="#FFFFFF" width="2.683" height="2.683"/>
			<rect x="-0.137" y="18.763" opacity="0.4" fill="#FFFFFF" width="2.683" height="2.683"/>
			<rect x="2.546" y="18.763" opacity="0.15" fill="#FFFFFF" width="2.683" height="2.683"/>
			<rect x="-0.137" y="21.452" opacity="0.7" fill="#FFFFFF" width="2.683" height="2.683"/>
			<rect x="2.546" y="21.452" opacity="0.9" fill="#FFFFFF" width="2.683" height="2.683"/>
			<rect x="-0.137" y="24.141" opacity="0.2" fill="#FFFFFF" width="2.683" height="2.683"/>
			<rect x="2.546" y="24.141" opacity="0.6" fill="#FFFFFF" width="2.683" height="2.683"/>
			<rect x="-0.137" y="26.815" opacity="0.8" fill="#FFFFFF" width="2.683" height="2.683"/>
			<rect x="2.546" y="26.815" opacity="0.5" fill="#FFFFFF" width="2.683" height="2.683"/>
			<rect x="-0.137" y="29.505" opacity="0.4" fill="#FFFFFF" width="2.683" height="2.683"/>
			<rect x="2.546" y="29.505" opacity="0" fill="#FFFFFF" width="2.683" height="2.683"/>
			<rect x="5.21" y="-0.031" opacity="0.8" fill="#FFFFFF" width="2.683" height="2.683"/>
			<rect x="7.893" y="-0.031" opacity="0.7" fill="#FFFFFF" width="2.683" height="2.683"/>
			<rect x="5.21" y="2.658" opacity="0" fill="#FFFFFF" width="2.683" height="2.683"/>
			<rect x="7.893" y="2.65" opacity="0.4" fill="#FFFFFF" width="2.683" height="2.683"/>
			<rect x="5.21" y="5.332" opacity="0.6" fill="#FFFFFF" width="2.683" height="2.683"/>
			<rect x="7.893" y="5.332" opacity="0.25" fill="#FFFFFF" width="2.683" height="2.683"/>
			<rect x="5.21" y="8.021" opacity="0.8" fill="#FFFFFF" width="2.683" height="2.683"/>
			<rect x="7.893" y="8.021" opacity="0.5" fill="#FFFFFF" width="2.683" height="2.683"/>
			<rect x="5.21" y="10.711" opacity="0.15" fill="#FFFFFF" width="2.683" height="2.683"/>
			<rect x="7.893" y="10.703" opacity="0.4" fill="#FFFFFF" width="2.683" height="2.683"/>
			<rect x="5.21" y="13.4" opacity="0.32" fill="#FFFFFF" width="2.683" height="2.683"/>
			<rect x="7.893" y="13.4" opacity="0.5" fill="#FFFFFF" width="2.683" height="2.683"/>
			<rect x="5.21" y="16.074" fill="#FFFFFF" width="2.683" height="2.683"/>
			<rect x="7.893" y="16.074" opacity="0.6" fill="#FFFFFF" width="2.683" height="2.683"/>
			<rect x="5.21" y="18.763" opacity="0.6" fill="#FFFFFF" width="2.683" height="2.683"/>
			<rect x="7.893" y="18.763" fill="#FFFFFF" width="2.683" height="2.683"/>
			<rect x="5.21" y="21.452" opacity="0" fill="#FFFFFF" width="2.683" height="2.683"/>
			<rect x="7.893" y="21.452" opacity="0.3" fill="#FFFFFF" width="2.683" height="2.683"/>
			<rect x="5.21" y="24.141" opacity="0.4" fill="#FFFFFF" width="2.683" height="2.683"/>
			<rect x="7.893" y="24.141" opacity="0.9" fill="#FFFFFF" width="2.683" height="2.683"/>
			<rect x="5.21" y="26.815" opacity="0.4" fill="#FFFFFF" width="2.683" height="2.683"/>
			<rect x="7.893" y="26.815" opacity="0.8" fill="#FFFFFF" width="2.683" height="2.683"/>
			<rect x="5.21" y="29.505" opacity="0.15" fill="#FFFFFF" width="2.683" height="2.683"/>
			<rect x="7.893" y="29.505" opacity="0.6" fill="#FFFFFF" width="2.683" height="2.683"/>
			<rect x="10.639" y="-0.031" fill="#FFFFFF" width="2.683" height="2.683"/>
			<rect x="13.322" y="-0.031" opacity="0" fill="#FFFFFF" width="2.683" height="2.683"/>
			<rect x="10.639" y="2.658" opacity="0.6" fill="#FFFFFF" width="2.683" height="2.683"/>
			<rect x="13.322" y="2.658" opacity="0.18" fill="#FFFFFF" width="2.683" height="2.683"/>
			<rect x="10.639" y="5.332" opacity="0.8" fill="#FFFFFF" width="2.683" height="2.683"/>
			<rect x="13.322" y="5.332" opacity="0.5" fill="#FFFFFF" width="2.683" height="2.683"/>
			<rect x="10.639" y="8.021" opacity="0.6" fill="#FFFFFF" width="2.683" height="2.683"/>
			<rect x="13.322" y="8.021" fill="#FFFFFF" width="2.683" height="2.683"/>
			<rect x="10.639" y="10.711" fill="#FFFFFF" width="2.683" height="2.683"/>
			<rect x="13.322" y="10.711" opacity="0.2" fill="#FFFFFF" width="2.683" height="2.683"/>
			<rect x="10.639" y="13.4" opacity="0.9" fill="#FFFFFF" width="2.683" height="2.683"/>
			<rect x="13.322" y="13.4" opacity="0.6" fill="#FFFFFF" width="2.683" height="2.683"/>
			<rect x="10.639" y="16.066" opacity="0.4" fill="#FFFFFF" width="2.683" height="2.683"/>
			<rect x="13.322" y="16.074" fill="#FFFFFF" width="2.683" height="2.683"/>
			<rect x="10.639" y="18.763" fill="#FFFFFF" width="2.683" height="2.683"/>
			<rect x="13.322" y="18.763" opacity="0.6" fill="#FFFFFF" width="2.683" height="2.683"/>
			<rect x="10.639" y="21.452" opacity="0.9" fill="#FFFFFF" width="2.683" height="2.683"/>
			<rect x="13.322" y="21.452" opacity="0.6" fill="#FFFFFF" width="2.683" height="2.683"/>
			<rect x="10.639" y="24.141" opacity="0.32" fill="#FFFFFF" width="2.683" height="2.683"/>
			<rect x="13.322" y="24.141" opacity="0" fill="#FFFFFF" width="2.683" height="2.683"/>
			<rect x="10.639" y="26.815" opacity="0.7" fill="#FFFFFF" width="2.683" height="2.683"/>
			<rect x="13.322" y="26.815" opacity="0" fill="#FFFFFF" width="2.683" height="2.683"/>
			<rect x="10.639" y="29.505" fill="#FFFFFF" width="2.683" height="2.683"/>
			<rect x="13.322" y="29.505" opacity="0.6" fill="#FFFFFF" width="2.683" height="2.683"/>
			<rect x="15.986" y="-0.031" opacity="0.6" fill="#FFFFFF" width="2.683" height="2.683"/>
			<rect x="18.67" y="-0.031" opacity="0.5" fill="#FFFFFF" width="2.683" height="2.683"/>
			<rect x="15.986" y="2.658" opacity="0.8" fill="#FFFFFF" width="2.683" height="2.683"/>
			<rect x="18.67" y="2.658" opacity="0.25" fill="#FFFFFF" width="2.683" height="2.683"/>
			<rect x="15.986" y="5.324" opacity="0.4" fill="#FFFFFF" width="2.683" height="2.683"/>
			<rect x="18.67" y="5.332" opacity="0.7" fill="#FFFFFF" width="2.683" height="2.683"/>
			<rect x="15.986" y="8.014" opacity="0.39" fill="#FFFFFF" width="2.683" height="2.683"/>
			<rect x="18.67" y="8.021" fill="#FFFFFF" width="2.683" height="2.683"/>
			<rect x="15.986" y="10.711" opacity="0.6" fill="#FFFFFF" width="2.683" height="2.683"/>
			<rect x="18.67" y="10.711" opacity="0.19" fill="#FFFFFF" width="2.683" height="2.683"/>
			<rect x="15.986" y="13.4" opacity="0.5" fill="#FFFFFF" width="2.683" height="2.683"/>
			<rect x="18.67" y="13.4" fill="#FFFFFF" width="2.683" height="2.683"/>
			<rect x="15.986" y="16.074" opacity="0.2" fill="#FFFFFF" width="2.683" height="2.683"/>
			<rect x="18.67" y="16.074" opacity="0.8" fill="#FFFFFF" width="2.683" height="2.683"/>
			<rect x="15.986" y="18.763" opacity="0.9" fill="#FFFFFF" width="2.683" height="2.683"/>
			<rect x="18.67" y="18.763" fill="#FFFFFF" width="2.683" height="2.683"/>
			<rect x="15.986" y="21.452" opacity="0.4" fill="#FFFFFF" width="2.683" height="2.683"/>
			<rect x="18.67" y="21.452" fill="#FFFFFF" width="2.683" height="2.683"/>
			<rect x="15.986" y="24.141" fill="#FFFFFF" width="2.683" height="2.683"/>
			<rect x="18.67" y="24.141" opacity="0.2" fill="#FFFFFF" width="2.683" height="2.683"/>
			<rect x="15.986" y="26.808" opacity="0.4" fill="#FFFFFF" width="2.683" height="2.683"/>
			<rect x="18.67" y="26.815" opacity="0.2" fill="#FFFFFF" width="2.683" height="2.683"/>
			<rect x="15.986" y="29.505" opacity="0.25" fill="#FFFFFF" width="2.683" height="2.683"/>
			<rect x="18.67" y="29.505" opacity="0.4" fill="#FFFFFF" width="2.683" height="2.683"/>
			<rect x="21.374" y="-0.031" opacity="0.2" fill="#FFFFFF" width="2.683" height="2.683"/>
			<rect x="24.058" y="-0.031" opacity="0.4" fill="#FFFFFF" width="2.683" height="2.683"/>
			<rect x="21.374" y="2.658" opacity="0.5" fill="#FFFFFF" width="2.683" height="2.683"/>
			<rect x="24.058" y="2.658" fill="#FFFFFF" width="2.683" height="2.683"/>
			<rect x="21.374" y="5.332" opacity="0.2" fill="#FFFFFF" width="2.683" height="2.683"/>
			<rect x="24.058" y="5.332" opacity="0.6" fill="#FFFFFF" width="2.683" height="2.683"/>
			<rect x="21.374" y="8.021" opacity="0.5" fill="#FFFFFF" width="2.683" height="2.683"/>
			<rect x="24.058" y="8.021" opacity="0.9" fill="#FFFFFF" width="2.683" height="2.683"/>
			<rect x="21.374" y="10.711" opacity="0.6" fill="#FFFFFF" width="2.683" height="2.683"/>
			<rect x="24.058" y="10.711" opacity="0.25" fill="#FFFFFF" width="2.683" height="2.683"/>
			<rect x="21.374" y="13.4" opacity="0.7" fill="#FFFFFF" width="2.683" height="2.683"/>
			<rect x="24.058" y="13.4" opacity="0.4" fill="#FFFFFF" width="2.683" height="2.683"/>
			<rect x="21.374" y="16.074" fill="#FFFFFF" width="2.683" height="2.683"/>
			<rect x="24.058" y="16.074" opacity="0.5" fill="#FFFFFF" width="2.683" height="2.683"/>
			<rect x="21.374" y="18.763" opacity="0.3" fill="#FFFFFF" width="2.683" height="2.683"/>
			<rect x="24.058" y="18.763" opacity="0.9" fill="#FFFFFF" width="2.683" height="2.683"/>
			<rect x="21.374" y="21.452" opacity="0.5" fill="#FFFFFF" width="2.683" height="2.683"/>
			<rect x="24.058" y="21.452" fill="#FFFFFF" width="2.683" height="2.683"/>
			<rect x="21.374" y="24.141" opacity="0.8" fill="#FFFFFF" width="2.683" height="2.683"/>
			<rect x="24.058" y="24.141" opacity="0.5" fill="#FFFFFF" width="2.683" height="2.683"/>
			<rect x="21.374" y="26.815" opacity="0.6" fill="#FFFFFF" width="2.683" height="2.683"/>
			<rect x="24.058" y="26.815" opacity="0.7" fill="#FFFFFF" width="2.683" height="2.683"/>
			<rect x="21.374" y="29.505" opacity="0.6" fill="#FFFFFF" width="2.683" height="2.683"/>
			<rect x="24.058" y="29.505" opacity="0.6" fill="#FFFFFF" width="2.683" height="2.683"/>
			<rect x="26.722" y="-0.031" opacity="0.5" fill="#FFFFFF" width="2.683" height="2.683"/>
			<rect x="29.405" y="-0.031" fill="#FFFFFF" width="2.683" height="2.683"/>
			<rect x="26.722" y="2.658" opacity="0.6" fill="#FFFFFF" width="2.683" height="2.683"/>
			<rect x="29.405" y="2.658" opacity="0.3" fill="#FFFFFF" width="2.683" height="2.683"/>
			<rect x="26.722" y="5.332" opacity="0.4" fill="#FFFFFF" width="2.683" height="2.683"/>
			<rect x="29.405" y="5.332" opacity="0.32" fill="#FFFFFF" width="2.683" height="2.683"/>
			<rect x="26.722" y="8.021" fill="#FFFFFF" width="2.683" height="2.683"/>
			<rect x="29.405" y="8.021" opacity="0.18" fill="#FFFFFF" width="2.683" height="2.683"/>
			<rect x="26.722" y="10.711" opacity="0.41" fill="#FFFFFF" width="2.683" height="2.683"/>
			<rect x="29.405" y="10.711" opacity="0.32" fill="#FFFFFF" width="2.683" height="2.683"/>
			<rect x="26.722" y="13.4" fill="#FFFFFF" width="2.683" height="2.683"/>
			<rect x="29.405" y="13.4" opacity="0.6" fill="#FFFFFF" width="2.683" height="2.683"/>
			<rect x="26.722" y="16.074" opacity="0.6" fill="#FFFFFF" width="2.683" height="2.683"/>
			<rect x="29.405" y="16.074" opacity="0.15" fill="#FFFFFF" width="2.683" height="2.683"/>
			<rect x="26.722" y="18.763" opacity="0.5" fill="#FFFFFF" width="2.683" height="2.683"/>
			<rect x="29.405" y="18.763" fill="#FFFFFF" width="2.683" height="2.683"/>
			<rect x="26.722" y="21.452" opacity="0.7" fill="#FFFFFF" width="2.683" height="2.683"/>
			<rect x="29.405" y="21.452" opacity="0.7" fill="#FFFFFF" width="2.683" height="2.683"/>
			<rect x="26.722" y="24.141" opacity="0.2" fill="#FFFFFF" width="2.683" height="2.683"/>
			<rect x="29.405" y="24.141" fill="#FFFFFF" width="2.683" height="2.683"/>
			<rect x="26.722" y="26.815" opacity="0" fill="#FFFFFF" width="2.683" height="2.683"/>
			<rect x="29.405" y="26.815" opacity="0.7" fill="#FFFFFF" width="2.683" height="2.683"/>
			<rect x="26.722" y="29.497" opacity="0.4" fill="#FFFFFF" width="2.683" height="2.683"/>
			<rect x="29.405" y="29.505" fill="#FFFFFF" width="2.683" height="2.683"/>
			<rect x="32.151" y="-0.031" opacity="0.32" fill="#FFFFFF" width="2.683" height="2.683"/>
			<rect x="34.834" y="-0.031" opacity="0.2" fill="#FFFFFF" width="2.683" height="2.683"/>
			<rect x="32.151" y="2.658" opacity="0" fill="#FFFFFF" width="2.683" height="2.683"/>
			<rect x="34.834" y="2.658" fill="#FFFFFF" width="2.683" height="2.683"/>
			<rect x="32.151" y="5.332" opacity="0.6" fill="#FFFFFF" width="2.683" height="2.683"/>
			<rect x="34.834" y="5.332" opacity="0.09" fill="#FFFFFF" width="2.683" height="2.683"/>
			<rect x="32.151" y="8.021" fill="#FFFFFF" width="2.683" height="2.683"/>
			<rect x="34.834" y="8.021" opacity="0.32" fill="#FFFFFF" width="2.683" height="2.683"/>
			<rect x="32.151" y="10.711" opacity="0.8" fill="#FFFFFF" width="2.683" height="2.683"/>
			<rect x="34.834" y="10.711" opacity="0.2" fill="#FFFFFF" width="2.683" height="2.683"/>
			<rect x="32.151" y="13.4" fill="#FFFFFF" width="2.683" height="2.683"/>
			<rect x="34.834" y="13.4" opacity="0" fill="#FFFFFF" width="2.683" height="2.683"/>
			<rect x="32.151" y="16.074" opacity="0.9" fill="#FFFFFF" width="2.683" height="2.683"/>
			<rect x="34.834" y="16.074" opacity="0.5" fill="#FFFFFF" width="2.683" height="2.683"/>
			<rect x="32.151" y="18.755" opacity="0.4" fill="#FFFFFF" width="2.683" height="2.683"/>
			<rect x="34.834" y="18.755" opacity="0" fill="#FFFFFF" width="2.683" height="2.683"/>
			<rect x="32.151" y="21.452" opacity="0.9" fill="#FFFFFF" width="2.683" height="2.683"/>
			<rect x="34.834" y="21.452" opacity="0.8" fill="#FFFFFF" width="2.683" height="2.683"/>
			<rect x="32.151" y="24.141" opacity="0.15" fill="#FFFFFF" width="2.683" height="2.683"/>
			<rect x="34.834" y="24.141" opacity="0.5" fill="#FFFFFF" width="2.683" height="2.683"/>
			<rect x="32.151" y="26.815" opacity="0.2" fill="#FFFFFF" width="2.683" height="2.683"/>
			<rect x="34.834" y="26.815" opacity="0.6" fill="#FFFFFF" width="2.683" height="2.683"/>
			<rect x="32.151" y="29.505" opacity="0.5" fill="#FFFFFF" width="2.683" height="2.683"/>
			<rect x="34.834" y="29.505" opacity="0.25" fill="#FFFFFF" width="2.683" height="2.683"/>
			<rect x="37.498" y="-0.031" opacity="0.8" fill="#FFFFFF" width="2.683" height="2.683"/>
			<rect x="40.181" y="-0.031" opacity="0.8" fill="#FFFFFF" width="2.683" height="2.683"/>
			<rect x="37.498" y="2.658" opacity="0.2" fill="#FFFFFF" width="2.683" height="2.683"/>
			<rect x="40.181" y="2.658" fill="#FFFFFF" width="2.683" height="2.683"/>
			<rect x="37.498" y="5.332" fill="#FFFFFF" width="2.683" height="2.683"/>
			<rect x="40.181" y="5.332" opacity="0.9" fill="#FFFFFF" width="2.683" height="2.683"/>
			<rect x="37.498" y="8.021" opacity="0.6" fill="#FFFFFF" width="2.683" height="2.683"/>
			<rect x="40.181" y="8.021" fill="#FFFFFF" width="2.683" height="2.683"/>
			<rect x="37.498" y="10.711" fill="#FFFFFF" width="2.683" height="2.683"/>
			<rect x="40.181" y="10.711" opacity="0.32" fill="#FFFFFF" width="2.683" height="2.683"/>
			<rect x="37.498" y="13.4" opacity="0.9" fill="#FFFFFF" width="2.683" height="2.683"/>
			<rect x="40.181" y="13.4" opacity="0.6" fill="#FFFFFF" width="2.683" height="2.683"/>
			<rect x="37.498" y="16.074" opacity="0.5" fill="#FFFFFF" width="2.683" height="2.683"/>
			<rect x="40.181" y="16.074" opacity="0.66" fill="#FFFFFF" width="2.683" height="2.683"/>
			<rect x="37.498" y="18.763" opacity="0.2" fill="#FFFFFF" width="2.683" height="2.683"/>
			<rect x="40.181" y="18.763" opacity="0.5" fill="#FFFFFF" width="2.683" height="2.683"/>
			<rect x="37.498" y="21.452" fill="#FFFFFF" width="2.683" height="2.683"/>
			<rect x="40.181" y="21.452" opacity="0.6" fill="#FFFFFF" width="2.683" height="2.683"/>
			<rect x="37.498" y="24.141" opacity="0" fill="#FFFFFF" width="2.683" height="2.683"/>
			<rect x="40.181" y="24.141" opacity="0.25" fill="#FFFFFF" width="2.683" height="2.683"/>
			<rect x="37.498" y="26.815" opacity="0.32" fill="#FFFFFF" width="2.683" height="2.683"/>
			<rect x="40.181" y="26.815" opacity="0.6" fill="#FFFFFF" width="2.683" height="2.683"/>
			<rect x="37.498" y="29.505" opacity="0.9" fill="#FFFFFF" width="2.683" height="2.683"/>
			<rect x="40.181" y="29.505" opacity="0.2" fill="#FFFFFF" width="2.683" height="2.683"/>
		</g>
	</g>
</g>
<g id="topo">
</g>
</svg>
