<?xml version="1.0" encoding="utf-8"?>
<!-- Generator: Adobe Illustrator 23.0.6, SVG Export Plug-In . SVG Version: 6.00 Build 0)  -->
<svg version="1.1" xmlns="http://www.w3.org/2000/svg" xmlns:xlink="http://www.w3.org/1999/xlink" x="0px" y="0px"
	 width="42.816px" height="32.103px" viewBox="0 0 42.816 32.103" enable-background="new 0 0 42.816 32.103" xml:space="preserve">
<symbol  id="dude-transit" viewBox="0 -25.1 21.25 25.118">
	<path fill-rule="evenodd" clip-rule="evenodd" fill="#FFFFFF" d="M15.5-4.2l0.75-1.05l1-3.1l3.9-2.65v-0.05
		c0.067-0.1,0.1-0.233,0.1-0.4c0-0.2-0.05-0.383-0.15-0.55c-0.167-0.233-0.383-0.35-0.65-0.35l-4.3,1.8l-1.2,1.65l-1.5-3.95
		l2.25-5.05l-3.25-6.9c-0.267-0.2-0.633-0.3-1.1-0.3c-0.3,0-0.55,0.15-0.75,0.45c-0.1,0.133-0.15,0.25-0.15,0.35
		c0,0.067,0.017,0.15,0.05,0.25c0.033,0.1,0.067,0.184,0.1,0.25l2.55,5.6L10.7-14l-3.05-4.9L0.8-18.7
		c-0.367,0.033-0.6,0.184-0.7,0.45c-0.067,0.3-0.1,0.467-0.1,0.5c0,0.5,0.2,0.767,0.6,0.8l5.7,0.15l2.15,5.4l3.1,5.65L9.4-5.6
		c-1.367-2-2.1-3.033-2.2-3.1C7.1-8.8,6.95-8.85,6.75-8.85C6.35-8.85,6.1-8.667,6-8.3C5.9-8,5.9-7.8,6-7.7H5.95l2.5,4.4l3.7,0.3
		L14-3.5L15.5-4.2z M14.55-2.9c-0.333,0.4-0.45,0.85-0.35,1.35c0.033,0.5,0.25,0.9,0.65,1.2c0.4,0.3,0.85,0.417,1.35,0.35
		c0.5-0.067,0.9-0.3,1.2-0.7c0.333-0.4,0.467-0.85,0.4-1.35c-0.066-0.5-0.3-0.9-0.7-1.2c-0.4-0.333-0.85-0.45-1.35-0.35
		C15.25-3.533,14.85-3.3,14.55-2.9z"/>
</symbol>
<g id="Layer_1">
</g>
<g id="Layer_2">
	<path fill="#FFFFFF" d="M0-0.033V32.07h42.816V-0.033H0z M15.246,20.591l-1.335-9.117h2.259l0.727,6.424l2.974-6.424h2.277
		l-4.568,9.117H15.246z M28.895,13.494l-0.146,0.827h-2.088l0.078-0.442c0.025-0.141-0.005-0.26-0.089-0.356
		c-0.085-0.096-0.197-0.144-0.335-0.144h-1.708c-0.152,0-0.29,0.048-0.414,0.144c-0.125,0.096-0.199,0.215-0.224,0.356l-0.044,0.25
		c-0.047,0.269,0.054,0.449,0.304,0.538c0.168,0.051,0.626,0.199,1.374,0.443c0.748,0.243,1.289,0.423,1.623,0.538
		c0.893,0.321,1.258,0.942,1.095,1.866l-0.186,1.058c-0.1,0.565-0.38,1.042-0.841,1.433c-0.462,0.391-0.97,0.587-1.527,0.587h-3.17
		c-0.544,0-0.975-0.195-1.291-0.587c-0.318-0.391-0.426-0.868-0.327-1.433l0.149-0.846h2.088l-0.081,0.462
		c-0.025,0.141,0.005,0.26,0.089,0.356c0.085,0.096,0.196,0.144,0.335,0.144h1.898c0.139,0,0.268-0.048,0.386-0.144
		c0.118-0.096,0.19-0.215,0.215-0.356l0.051-0.288c0.088-0.282-0.012-0.468-0.301-0.558c-1.118-0.333-2.117-0.66-2.996-0.981
		c-0.393-0.141-0.693-0.375-0.901-0.702c-0.208-0.327-0.274-0.708-0.197-1.144l0.18-1.019c0.099-0.564,0.376-1.042,0.831-1.433
		c0.455-0.391,0.954-0.587,1.498-0.587h3.018c0.557,0,0.996,0.195,1.32,0.587C28.883,12.452,28.995,12.93,28.895,13.494z"/>
</g>
<g id="topo">
</g>
</svg>
