<?xml version="1.0" encoding="utf-8"?>
<!-- Generator: Adobe Illustrator 16.0.0, SVG Export Plug-In . SVG Version: 6.00 Build 0)  -->
<!DOCTYPE svg PUBLIC "-//W3C//DTD SVG 1.1//EN" "http://www.w3.org/Graphics/SVG/1.1/DTD/svg11.dtd">
<svg version="1.1" xmlns="http://www.w3.org/2000/svg" xmlns:xlink="http://www.w3.org/1999/xlink" x="0px" y="0px" width="32px"
	 height="32px" viewBox="0 0 32 32" enable-background="new 0 0 32 32" xml:space="preserve">
<g id="Layer_1">
</g>
<g id="Layer_2">
	<g>
		<path fill="#FFFFFF" d="M16,7.95c-3.828,0-6.931,3.103-6.931,6.93c0,3.827,3.103,6.931,6.931,6.931c3.827,0,6.93-3.104,6.93-6.931
			C22.93,11.052,19.827,7.95,16,7.95z M16,19.38c-2.486,0-4.499-2.015-4.499-4.5c0-2.485,2.013-4.5,4.499-4.5
			c2.485,0,4.499,2.015,4.499,4.5C20.499,17.365,18.485,19.38,16,19.38z"/>
		<path fill="#FFFFFF" d="M18,14.88c0,1.104-0.896,2-2,2l0,0c-1.104,0-2-0.896-2-2l0,0c0-1.104,0.896-2,2-2l0,0
			C17.104,12.88,18,13.776,18,14.88L18,14.88z"/>
		<g>
			<path fill="none" d="M16,9.772c-4.837,0-9.225,2.34-11.922,6.228c2.697,3.888,7.085,6.228,11.922,6.228s9.225-2.34,11.922-6.228
				C25.225,12.112,20.837,9.772,16,9.772z"/>
			<path fill="#FFFFFF" d="M16,7.345C9.84,7.345,4.197,10.733,1.221,16C4.197,21.267,9.84,24.655,16,24.655S27.803,21.267,30.779,16
				C27.803,10.733,22.16,7.345,16,7.345z M16,22.228c-4.837,0-9.225-2.34-11.922-6.228C6.775,12.112,11.163,9.772,16,9.772
				s9.225,2.34,11.922,6.228C25.225,19.888,20.837,22.228,16,22.228z"/>
		</g>
	</g>
</g>
</svg>
