<?xml version="1.0" encoding="utf-8"?>
<!-- Generator: Adobe Illustrator 16.0.0, SVG Export Plug-In . SVG Version: 6.00 Build 0)  -->
<!DOCTYPE svg PUBLIC "-//W3C//DTD SVG 1.1//EN" "http://www.w3.org/Graphics/SVG/1.1/DTD/svg11.dtd">
<svg version="1.1" xmlns="http://www.w3.org/2000/svg" xmlns:xlink="http://www.w3.org/1999/xlink" x="0px" y="0px" width="32px"
	 height="32px" viewBox="0 0 32 32" enable-background="new 0 0 32 32" xml:space="preserve">
<g id="Layer_1">
</g>
<g id="Layer_2">
	<g>
		<g>
			<g>
				
					<rect x="18.569" y="23.493" transform="matrix(0.7071 0.7071 -0.7071 0.7071 24.5555 -10.5601)" fill-rule="evenodd" clip-rule="evenodd" fill="#FFFFFF" width="12.91" height="1.733"/>
				
					<rect x="20.539" y="23.635" transform="matrix(0.7071 0.7071 -0.7071 0.7071 25.4008 -10.8674)" fill-rule="evenodd" clip-rule="evenodd" fill="#FCFCFC" width="10.557" height="3.183"/>
				<path fill="#FFFFFF" d="M16,7.95c-3.828,0-6.931,3.103-6.931,6.93c0,3.827,3.103,6.931,6.931,6.931
					c3.827,0,6.93-3.104,6.93-6.931C22.93,11.052,19.827,7.95,16,7.95z M16,19.38c-2.486,0-4.499-2.015-4.499-4.5
					c0-2.485,2.013-4.5,4.499-4.5c2.485,0,4.499,2.015,4.499,4.5C20.499,17.365,18.485,19.38,16,19.38z"/>
			</g>
			<path fill="#FFFFFF" d="M18,14.787c0,1.104-0.896,2-2,2l0,0c-1.104,0-2-0.896-2-2l0,0c0-1.104,0.896-2,2-2l0,0
				C17.104,12.787,18,13.683,18,14.787L18,14.787z"/>
		</g>
		
			<rect x="18.569" y="23.493" transform="matrix(0.7071 0.7071 -0.7071 0.7071 24.5555 -10.5601)" fill-rule="evenodd" clip-rule="evenodd" fill="#FFFFFF" width="12.91" height="1.733"/>
		
			<rect x="20.539" y="23.635" transform="matrix(0.7071 0.7071 -0.7071 0.7071 25.4008 -10.8674)" fill-rule="evenodd" clip-rule="evenodd" fill="#FCFCFC" width="10.557" height="3.183"/>
		<path fill="#FFFFFF" d="M18.839,22.619l0.55-0.55l-0.215-0.215c-1.025,0.236-2.085,0.374-3.174,0.374
			c-4.837,0-9.225-2.34-11.922-6.228C6.775,12.112,11.163,9.772,16,9.772s9.225,2.34,11.922,6.228
			c-0.956,1.378-2.138,2.542-3.464,3.494l1.714,1.714c1.854-1.395,3.442-3.147,4.607-5.208C27.803,10.733,22.16,7.345,16,7.345
			S4.197,10.733,1.221,16C4.197,21.267,9.84,24.655,16,24.655c1.474,0,2.912-0.21,4.296-0.579L18.839,22.619z"/>
	</g>
</g>
</svg>
