<?xml version="1.0" encoding="utf-8"?>
<!-- Generator: Adobe Illustrator 16.0.3, SVG Export Plug-In . SVG Version: 6.00 Build 0)  -->
<!DOCTYPE svg PUBLIC "-//W3C//DTD SVG 1.1//EN" "http://www.w3.org/Graphics/SVG/1.1/DTD/svg11.dtd">
<svg version="1.1" id="Layer_1" xmlns="http://www.w3.org/2000/svg" xmlns:xlink="http://www.w3.org/1999/xlink" x="0px" y="0px"
	 width="32px" height="32px" viewBox="0 0 32 32" enable-background="new 0 0 32 32" xml:space="preserve">
<g>
	<path fill="#FDFDFE" d="M1.155,16.623c0,0-0.02,5.594-0.062,5.527c-0.042-0.067,8.861-5.035,14.733-12.71c0-0.448,0-5.319,0-7.34
		C9.808,11.342,1.155,16.623,1.155,16.623z"/>
	<path fill="#FDFDFE" d="M30.538,16.646c0,0-8.695-5.26-14.712-14.502c0,2.021,0,6.915,0,7.362
		c5.872,7.676,14.815,12.6,14.773,12.667C30.56,22.239,30.538,16.646,30.538,16.646z"/>
</g>
<g>
	<path fill="#FDFDFE" d="M1.314,24.751c0,0-0.021,4.923-0.062,4.864c-0.042-0.059,8.861-4.431,14.733-11.188
		c0-0.394,0-4.682,0-6.461C9.967,20.102,1.314,24.751,1.314,24.751z"/>
	<path fill="#FDFDFE" d="M30.677,24.751c0,0-8.688-4.717-14.706-12.851c0,1.779,0,6.139,0,6.534
		c5.872,6.757,14.81,11.123,14.768,11.182S30.677,24.751,30.677,24.751z"/>
</g>
</svg>
