<?xml version="1.0" encoding="utf-8"?>
<!-- Generator: Adobe Illustrator 16.0.0, SVG Export Plug-In . SVG Version: 6.00 Build 0)  -->
<!DOCTYPE svg PUBLIC "-//W3C//DTD SVG 1.1//EN" "http://www.w3.org/Graphics/SVG/1.1/DTD/svg11.dtd">
<svg version="1.1" id="Layer_1" xmlns="http://www.w3.org/2000/svg" xmlns:xlink="http://www.w3.org/1999/xlink" x="0px" y="0px"
	 width="64px" height="64px" viewBox="0 0 64 64" enable-background="new 0 0 64 64" xml:space="preserve">
<g id="Layer_1_1_">
	
		<image overflow="visible" enable-background="new    " width="61" height="75" xlink:href="F283B31F.jpeg"  transform="matrix(0.7378 0 0 0.7301 -8263.334 -7722.499)">
	</image>
</g>
<g id="Layer_2">
	<g id="Layer_2_1_">
	</g>
	<polygon fill="#FFFFFF" points="47.996,21.21 42.833,21.21 42.807,25.269 46.368,25.269 59.343,39.913 46.393,55.053 
		17.694,55.053 4.96,39.913 17.669,25.269 21.916,25.269 21.941,21.21 16.038,21.21 0.056,39.913 16.038,58.618 47.996,58.618 
		63.979,39.913 	"/>
	<g>
		<path fill="#FFFFFF" d="M30.341,39.016v-4.16h-1.479c-1.147,0-2.127-0.406-2.94-1.221s-1.22-1.807-1.22-2.979v-3.399h4.399v2.6
			c0,0.294,0.106,0.54,0.32,0.74c0.213,0.2,0.467,0.3,0.76,0.3h4c0.721,0,1.08-0.347,1.08-1.04v-4.6c0-0.373-0.055-0.634-0.16-0.78
			c-0.106-0.146-0.334-0.273-0.681-0.38c-3.04-0.88-5.267-1.561-6.68-2.04c-0.88-0.293-1.601-0.78-2.16-1.46
			c-0.561-0.681-0.84-1.474-0.84-2.38v-5.801c0-1.173,0.406-2.166,1.22-2.979s1.793-1.22,2.94-1.22h1.439v-4.16h3.36v4.16h1.56
			c1.174,0,2.174,0.406,3,1.22c0.826,0.813,1.24,1.807,1.24,2.979v3.04h-4.4v-2.239c0-0.293-0.105-0.54-0.318-0.74
			c-0.215-0.2-0.467-0.3-0.762-0.3h-3.6c-0.773,0-1.16,0.347-1.16,1.04v4.199c0,0.561,0.28,0.935,0.84,1.12
			c0.373,0.107,1.394,0.414,3.061,0.92c1.666,0.507,2.873,0.881,3.62,1.12c2,0.667,3,1.96,3,3.88v6.2
			c0,1.174-0.414,2.167-1.24,2.979c-0.827,0.813-1.827,1.221-3,1.221h-1.84v4.16H30.341z"/>
	</g>
</g>
</svg>
