<?xml version="1.0" encoding="utf-8"?>
<!-- Generator: Adobe Illustrator 16.0.3, SVG Export Plug-In . SVG Version: 6.00 Build 0)  -->
<!DOCTYPE svg PUBLIC "-//W3C//DTD SVG 1.1//EN" "http://www.w3.org/Graphics/SVG/1.1/DTD/svg11.dtd">
<svg version="1.1" xmlns="http://www.w3.org/2000/svg" xmlns:xlink="http://www.w3.org/1999/xlink" x="0px" y="0px" width="32px"
	 height="32px" viewBox="0 0 32 32" enable-background="new 0 0 32 32" xml:space="preserve">
<symbol  id="dude-transit" viewBox="0 -25.1 21.25 25.118">
	<path fill-rule="evenodd" clip-rule="evenodd" fill="#FFFFFF" d="M15.5-4.2l0.75-1.05l1-3.1l3.9-2.65v-0.05
		c0.067-0.1,0.1-0.233,0.1-0.4c0-0.2-0.05-0.383-0.15-0.55c-0.167-0.233-0.383-0.35-0.65-0.35l-4.3,1.8l-1.2,1.65l-1.5-3.95
		l2.25-5.05l-3.25-6.9c-0.267-0.2-0.633-0.3-1.1-0.3c-0.3,0-0.55,0.15-0.75,0.45c-0.1,0.133-0.15,0.25-0.15,0.35
		c0,0.067,0.017,0.15,0.05,0.25c0.033,0.1,0.067,0.184,0.1,0.25l2.55,5.6L10.7-14l-3.05-4.9L0.8-18.7
		c-0.367,0.033-0.6,0.184-0.7,0.45c-0.067,0.3-0.1,0.467-0.1,0.5c0,0.5,0.2,0.767,0.6,0.8l5.7,0.15l2.15,5.4l3.1,5.65L9.4-5.6
		c-1.367-2-2.1-3.033-2.2-3.1C7.1-8.8,6.95-8.85,6.75-8.85C6.35-8.85,6.1-8.667,6-8.3C5.9-8,5.9-7.8,6-7.7H5.95l2.5,4.4l3.7,0.3
		L14-3.5L15.5-4.2z M14.55-2.9c-0.333,0.4-0.45,0.85-0.35,1.35c0.033,0.5,0.25,0.9,0.65,1.2S15.7,0.066,16.2,0
		c0.5-0.067,0.9-0.3,1.2-0.7c0.333-0.4,0.467-0.85,0.4-1.35c-0.066-0.5-0.3-0.9-0.7-1.2c-0.4-0.333-0.85-0.45-1.35-0.35
		C15.25-3.533,14.85-3.3,14.55-2.9z"/>
</symbol>
<g id="Layer_1">
	<path fill-rule="evenodd" clip-rule="evenodd" fill="#FCFCFC" d="M10.001,29.92c0.041-0.586,0.768-1.489,2.053-1.431
		c0.86,0.039,1.072-0.406,1.28-1.081c0.226-0.73,0.728-2.831,0.875-3.534c-1.028-0.413-3.271-0.888-4.263-1.2
		c-1.612-0.508-3.446-2.943-3.778-6.216c-0.157-1.551,0.158-1.682,0.208-3.25c0.009-0.291,0.475-0.768,0.716-0.896
		c0.935-0.496,1.324-1.262,1.297-2.265C8.375,9.563,8.489,9.249,8.911,8.93c1.137-0.86-0.033-1.911-1.16-2.721
		c0.479,1.333,1.516,2.077,0.25,2.667C7.883,8.93,7.64,9.322,7.626,9.5c-0.029,0.374,0.022,0.44-0.004,0.814
		c-0.051,0.693-0.394,1.263-1.087,1.335c-0.455,0.047-1.054-0.113-1.392-0.407c-0.508-0.439-0.53-1.106-0.158-1.714
		c0.219-0.356,0.441-0.191,0.724-0.611c-0.908-0.275-3.69-0.775-4.708-1.083C1.825,7.349,4.475,6.698,5.117,6.32
		C4.915,5.914,4.624,5.574,4.599,5.215C4.572,4.837,4.692,4.207,4.934,4.098c0.644-0.29,0.776-0.802,0.994-1.354
		C6.226,1.99,7.225,2.008,8.043,2.208C8.87,2.412,9.048,2.938,8.959,3.917C8.929,4.26,9.096,4.531,9.057,4.718
		c0.969,0.701,1.998,1.252,2.765,2.054c0.727,0.76,1.183,1.779,1.748,2.69c0.21,0.339,0.431,0.68,0.585,1.046
		c0.76,1.803,2.299,2.882,3.982,3.057c0.247,0.025,0.639-0.11,0.781-0.357c1.416-2.458,3.978-3.06,6.25-3.708
		c0.969-0.276,1.956-1.758,2.97-1.793c1.045-0.037,1.341,0.456,0.939,1.449c-0.222,0.548-0.564,1.046-0.868,1.594
		c0.471,0.902,0.586,2.29-1.189,3.792c0.68,0.832-0.217,1.521-0.846,2.441c-0.494,0.723-1.219,1.289-1.849,1.917
		c-0.225,0.224-0.545,0.382-0.699,0.643c-1.179,1.983-1.899,3.161-4.006,3.998c-0.265,0.105-0.559,0.407-0.631,0.674
		c-0.262,0.958,0.345,3.286,0.246,4.191c0.784,0.445,1.116,0.555,1.849,0.97c-0.034,0.08,0.331,0.465,0.296,0.545
		C17.172,29.92,14.451,29.92,10.001,29.92z M17.467,24.03c-1.107,0-0.768,0.009-1.757,0.009c-0.212,1.021-0.847,3.334-1.071,4.42
		c0.966,0,1.813,0.02,2.657-0.018c0.165-0.007,0.421-0.214,0.461-0.373C17.976,27.202,17.266,24.988,17.467,24.03z"/>
</g>
<g id="Layer_2">
</g>
</svg>
