<?xml version="1.0" encoding="utf-8"?>
<!-- Generator: Adobe Illustrator 16.0.0, SVG Export Plug-In . SVG Version: 6.00 Build 0)  -->
<!DOCTYPE svg PUBLIC "-//W3C//DTD SVG 1.1//EN" "http://www.w3.org/Graphics/SVG/1.1/DTD/svg11.dtd">
<svg version="1.1" xmlns="http://www.w3.org/2000/svg" xmlns:xlink="http://www.w3.org/1999/xlink" x="0px" y="0px" width="32px"
	 height="32px" viewBox="0 0 32 32" enable-background="new 0 0 32 32" xml:space="preserve">
<symbol  id="dude-transit" viewBox="0 -25.1 21.25 25.118">
	<path fill-rule="evenodd" clip-rule="evenodd" fill="#FFFFFF" d="M15.5-4.2l0.75-1.05l1-3.1l3.9-2.65v-0.05
		c0.067-0.1,0.1-0.233,0.1-0.4c0-0.2-0.05-0.383-0.15-0.55c-0.167-0.233-0.383-0.35-0.65-0.35l-4.3,1.8l-1.2,1.65l-1.5-3.95
		l2.25-5.05l-3.25-6.9c-0.267-0.2-0.633-0.3-1.1-0.3c-0.3,0-0.55,0.15-0.75,0.45c-0.1,0.133-0.15,0.25-0.15,0.35
		c0,0.067,0.017,0.15,0.05,0.25c0.033,0.1,0.067,0.184,0.1,0.25l2.55,5.6L10.7-14l-3.05-4.9L0.8-18.7
		c-0.367,0.033-0.6,0.184-0.7,0.45c-0.067,0.3-0.1,0.467-0.1,0.5c0,0.5,0.2,0.767,0.6,0.8l5.7,0.15l2.15,5.4l3.1,5.65L9.4-5.6
		c-1.367-2-2.1-3.033-2.2-3.1C7.1-8.8,6.95-8.85,6.75-8.85C6.35-8.85,6.1-8.667,6-8.3C5.9-8,5.9-7.8,6-7.7H5.95l2.5,4.4l3.7,0.3
		L14-3.5L15.5-4.2z M14.55-2.9c-0.333,0.4-0.45,0.85-0.35,1.35c0.033,0.5,0.25,0.9,0.65,1.2S15.7,0.066,16.2,0
		c0.5-0.067,0.9-0.3,1.2-0.7c0.333-0.4,0.467-0.85,0.4-1.35c-0.066-0.5-0.3-0.9-0.7-1.2c-0.4-0.333-0.85-0.45-1.35-0.35
		C15.25-3.533,14.85-3.3,14.55-2.9z"/>
</symbol>
<g id="Layer_1">
</g>
<g id="Layer_2">
	<g>
		<polygon fill="#FFFFFF" points="24.48,10.625 24.835,12.1 31.368,5.526 21.934,5.526 17.926,9.81 		"/>
		<polygon fill="#FFFFFF" points="7.527,12.038 8.956,10.625 14.185,9.927 10.068,5.526 0.636,5.526 7.441,12.376 		"/>
		<path fill="#FFFFFF" d="M11.035,23.446c0,0-3.605-2.042-3.508-2.869l0,0L0.49,27.625h9.436l3.313-3.535
			C12.048,23.75,11.035,23.446,11.035,23.446z"/>
		<path fill="#FFFFFF" d="M24.785,20.89l-3.793,2.557c0,0-1.044,0.415-2.067,0.817l3.151,3.361h9.434L24.785,20.89z"/>
	</g>
	<g>
		<g>
			<path fill-rule="evenodd" clip-rule="evenodd" fill="#E6E7E8" d="M25.33,17.396c0.017-1.331-0.453-1.363-0.483-2.182
				c-0.016-0.407,0.034-1.555,0-2.663c-0.036-1.104-0.152-2.166-0.242-2.422c-0.182-0.517-0.388-1.365-1.938-2.667
				c-1.697-1.422-4.969-2.634-6.785-2.665c-1.817-0.03-3.935,0.879-5.573,1.939C8.675,7.796,8.281,8.251,7.646,9.159
				c-0.638,0.909-0.88,1.545-0.729,3.149c0.151,1.606,0.188,1.183,0.242,2.665c0.046,1.228-0.511,1.607-0.484,2.423
				c0.039,1.222,0.498,1.473,0.484,1.938c-0.01,0.306-0.545,0.688-0.484,1.695c0.063,1.03,0.272,1.305,2.182,2.424
				c1.237,0.728,2.694,1.001,2.664,1.455c-0.046,0.663-0.213,1.755-0.242,2.422c-0.03,0.667,0.272,0.728,0.968,0.968
				c0.697,0.244,2.331,0.759,4.12,0.728c1.788-0.029,2.544-0.394,3.392-0.728c0.847-0.333,0.968-0.634,0.968-1.211
				c0-0.575-0.482-1.754-0.482-2.179s1.451-0.88,3.148-1.697c1.697-0.815,1.677-1.635,1.697-2.182
				c0.035-1.028-0.485-1.271-0.485-1.695C24.604,18.507,25.32,18.365,25.33,17.396z M11.036,19.818
				c-0.848,0.031-2.664,0.031-2.664-2.422c0-3.396,1.816-3.786,3.149-3.877c1.333-0.092,1.514-0.24,2.181,0.243
				c1.196,0.87,1.12,2.412,0.727,3.634c-0.289,0.895-0.606,1.242-1.212,1.695C12.611,19.548,11.886,19.789,11.036,19.818z
				 M16.61,23.695l-0.333-1.236l-0.516,0.005l-0.365,1.231c-1.393-0.379-1.952-0.938-1.937-1.695
				c0.015-0.757,0.438-1.545,1.211-2.182c0.772-0.635,0.897-0.733,1.454-0.727c0.53,0.009,0.577,0.11,0.968,0.485
				c0.845,0.809,1.39,1.348,1.455,2.423C18.61,23.058,17.382,23.649,16.61,23.695z M20.97,19.818
				c-0.848-0.029-1.574-0.271-2.18-0.727c-0.606-0.453-0.964-0.79-1.212-1.695c-0.313-1.14-0.469-2.764,0.727-3.634
				c0.667-0.483,0.85-0.335,2.182-0.243c1.332,0.091,3.149,0.48,3.149,3.877C23.636,19.85,21.818,19.85,20.97,19.818z"/>
		</g>
	</g>
</g>
</svg>
