<?xml version="1.0" encoding="utf-8"?>
<!-- Generator: Adobe Illustrator 16.0.0, SVG Export Plug-In . SVG Version: 6.00 Build 0)  -->
<!DOCTYPE svg PUBLIC "-//W3C//DTD SVG 1.1//EN" "http://www.w3.org/Graphics/SVG/1.1/DTD/svg11.dtd">
<svg version="1.1" id="Layer_1" xmlns="http://www.w3.org/2000/svg" xmlns:xlink="http://www.w3.org/1999/xlink" x="0px" y="0px"
	 width="256px" height="256px" viewBox="0 0 256 256" enable-background="new 0 0 256 256" xml:space="preserve">
<g>
	<path fill-rule="evenodd" clip-rule="evenodd" fill="#DB1A21" d="M3.031,127.814c0-14.242-0.004-28.482,0.002-42.725
		c0.002-5.273,2.355-7.664,7.574-7.666c20.154-0.008,40.309-0.006,60.463-0.002c5.654,0,8.086,2.398,8.084,7.996
		c-0.004,20.156-0.014,40.311-0.027,60.463c-0.004,5.18-2.217,7.359-7.504,7.365c-10.91,0.014-21.82-0.002-32.73,0.008
		c-3.57,0.004-4.045,0.486-4.072,4.018c-0.037,4.83-0.045,9.66-0.107,14.49c-0.059,4.432-2.404,6.785-6.789,6.805
		c-5.996,0.025-11.992,0.025-17.988,0c-4.408-0.02-6.91-2.545-6.916-7.029C3,156.963,3.012,142.389,3.012,127.814
		C3.018,127.814,3.025,127.814,3.031,127.814z M34.746,115.293c0,9.324-0.008,18.652,0.004,27.979
		c0.004,3.176,0.607,3.756,3.818,3.773c1.998,0.01,3.996,0.008,5.996-0.006c1.934-0.012,2.906-0.986,2.904-2.936
		c-0.004-19.154-0.01-38.307-0.002-57.459c0.002-2.088-1.029-3.043-3.076-3.025c-1.914,0.014-3.83-0.008-5.744,0.002
		c-3.357,0.014-3.895,0.547-3.898,3.941C34.74,96.805,34.746,106.049,34.746,115.293z"/>
	<path fill-rule="evenodd" clip-rule="evenodd" fill="#DB1A21" d="M91.885,128.09c0-14.332-0.006-28.666,0.002-42.998
		c0.004-5.369,2.264-7.666,7.547-7.668c21.582-0.008,43.166-0.004,64.748-0.002c1.775,0.002,3.613-0.162,3.799,2.439
		c0.205,2.869-0.521,3.746-3.492,3.75c-12.248,0.016-24.498,0.004-36.748,0.01c-3.705,0-4.191,0.488-4.191,4.152
		c0.002,22.666,0.006,45.332,0.012,67.998c0.002,3.471,0.455,3.941,3.848,3.953c3.834,0.014,7.668-0.051,11.5,0.021
		c2.326,0.043,3.322-0.941,3.299-3.285c-0.064-5.998-0.006-12-0.029-18c-0.01-2.873-0.514-3.252-3.316-3.482
		c-1.545-0.127-3.131-0.465-4.563-1.041c-1.652-0.664-2.535-2.043-2.502-3.951c0.055-2.916-0.039-5.834,0.031-8.75
		c0.072-3.033,1.592-4.646,4.668-4.678c8.5-0.084,17-0.098,25.5-0.016c3.105,0.029,5.938,3.018,5.949,6.295
		c0.053,16.582,0.049,33.164-0.016,49.746c-0.012,3.428-2.639,5.957-6.121,5.963c-21.25,0.041-42.498,0.045-63.748,0
		c-3.826-0.008-6.172-2.717-6.186-6.957c-0.033-9.834-0.004-19.666-0.002-29.5c0.002-4.666,0-9.332,0-14
		C91.877,128.09,91.881,128.09,91.885,128.09z"/>
	<path fill-rule="evenodd" clip-rule="evenodd" fill="#DB1A21" d="M180.623,127.838c0-14.16-0.004-28.32,0.002-42.479
		c0.002-5.588,2.316-7.93,7.83-7.938c5.414-0.008,10.828-0.012,16.242,0.002c5.08,0.014,7.701,2.609,7.703,7.666
		c0.008,20.988,0.002,41.979,0.004,62.967c0,4.639,1.311,5.959,5.898,5.963c9.162,0.004,18.324-0.012,27.486,0.029
		c1.4,0.008,2.83,0.148,4.191,0.467c1.922,0.449,2.975,1.816,2.986,3.799c0.039,5.914,0.018,11.826,0.021,17.74
		c0.002,1.635-0.822,2.461-2.441,2.508c-0.582,0.016-1.166,0.01-1.748,0.01c-20.156,0-40.313,0.004-60.471,0
		c-5.434-0.002-7.709-2.287-7.711-7.758c-0.006-14.326-0.002-28.652-0.002-42.977C180.619,127.838,180.621,127.838,180.623,127.838z
		"/>
</g>
</svg>
