<?xml version="1.0" encoding="utf-8"?>
<!-- Generator: Adobe Illustrator 16.0.0, SVG Export Plug-In . SVG Version: 6.00 Build 0)  -->
<!DOCTYPE svg PUBLIC "-//W3C//DTD SVG 1.1//EN" "http://www.w3.org/Graphics/SVG/1.1/DTD/svg11.dtd">
<svg version="1.1" id="Layer_1" xmlns="http://www.w3.org/2000/svg" xmlns:xlink="http://www.w3.org/1999/xlink" x="0px" y="0px"
	 width="256px" height="256px" viewBox="0 0 256 256" enable-background="new 0 0 256 256" xml:space="preserve">
<g>
	<path fill-rule="evenodd" clip-rule="evenodd" fill="#FCFDFF" d="M1.375,150.421c5.57,0.006,11.139-0.002,16.709,0.031
		c1.277,0.008,2.565,0.089,3.833,0.256c3.101,0.406,4.599,1.796,4.986,4.901c0.388,3.095,0.409,6.224-0.087,9.315
		c-0.496,3.096-2.123,4.541-5.262,4.781c-1.656,0.126-3.321,0.2-4.983,0.21c-4.808,0.027-9.616,0.011-14.425,0.007
		c-0.258,0-0.514-0.043-0.771-0.065C1.375,163.378,1.375,156.899,1.375,150.421z M7.265,164.845c3.865,0,7.669,0.042,11.473-0.023
		c1.541-0.026,2.259-0.764,2.355-2.308c0.095-1.512,0.109-3.04,0.001-4.55c-0.131-1.852-0.879-2.488-2.754-2.536
		c-2.475-0.063-4.946-0.096-7.42-0.13c-1.209-0.016-2.417-0.003-3.655-0.003C7.265,158.538,7.265,161.72,7.265,164.845z"/>
	<path fill-rule="evenodd" clip-rule="evenodd" fill="#FCFDFF" d="M219.943,170.029c0.469-0.075,0.947-0.092,1.412-0.179
		c1.717-0.319,3.267-0.862,3.877-2.762c0.491-1.529,0.385-3.079,0.334-4.632c-2.027,0-3.989,0-5.932,0
		c-0.053,0.376-0.098,0.704-0.145,1.035c-0.166,1.191-0.506,1.547-1.721,1.671c-0.827,0.083-1.662,0.138-2.492,0.129
		c-2.187-0.025-4.375-0.057-6.561-0.161c-1.074-0.051-1.652-0.596-1.842-1.652c-0.384-2.122-0.367-4.26-0.012-6.383
		c0.223-1.331,0.872-1.914,2.225-1.938c2.684-0.044,5.373-0.087,8.053,0.023c1.461,0.061,2.064,0.043,2.125,2.052
		c0.003,0.061,0.053,0.121,0.076,0.172c1.965,0,3.908,0,5.957,0c-0.064-1.055-0.043-2.083-0.205-3.08
		c-0.386-2.346-1.352-3.396-3.713-3.75c-1.895-0.286-3.832-0.426-5.748-0.404c-3.444,0.042-6.895,0.146-10.324,0.425
		c-2.658,0.217-4.084,1.6-4.396,3.879c-0.147,1.081-0.224,2.18-0.213,3.27c0.028,2.736,0.049,5.474,0.223,8.201
		c0.11,1.727,1.102,2.977,2.797,3.497c0.899,0.275,1.852,0.371,2.776,0.57l7.04,0.167L219.943,170.029z"/>
	<path fill-rule="evenodd" clip-rule="evenodd" fill="#FCFDFF" d="M254.625,170c-0.165-0.025-0.33-0.072-0.496-0.072
		c-2.856-0.004-5.714-0.003-8.611-0.003c-2.314-1.972-4.696-3.907-6.961-5.972c-1.155-1.056-2.316-1.75-3.92-1.467
		c-0.317,0.055-0.652,0.009-1.025,0.009c0,2.483,0,4.905,0,7.38c-2.01,0-3.972,0-5.967,0c0-6.452,0-12.896,0-19.387
		c1.957,0,3.916,0,5.938,0c0,2.342,0,4.664,0,7.024c1.101,0,2.14,0,3.239,0c2.408-2.248,4.854-4.54,7.317-6.811
		c0.219-0.2,0.558-0.383,0.843-0.386c2.832-0.03,5.664-0.018,8.707-0.018c-3.834,3.304-7.541,6.497-11.295,9.732
		c1.689,1.37,3.326,2.699,4.965,4.027c2.199,1.782,4.395,3.565,6.602,5.336c0.186,0.151,0.441,0.217,0.664,0.321
		C254.625,169.81,254.625,169.905,254.625,170z"/>
	<path fill-rule="evenodd" clip-rule="evenodd" fill="#F06722" d="M70.261,85.821c0.146,0.766,0.309,1.529,0.429,2.3
		c0.04,0.247,0.062,0.57-0.061,0.759c-1.028,1.582-2.091,3.14-3.268,4.89c-0.427-1.07-0.807-1.899-1.07-2.764
		c-0.074-0.244,0.125-0.64,0.311-0.882c1.106-1.448,2.245-2.872,3.373-4.303C70.07,85.821,70.166,85.821,70.261,85.821z"/>
	<path fill-rule="evenodd" clip-rule="evenodd" fill="#FCFDFF" d="M55.8,169.895c0-6.476,0-12.919,0-19.409
		c7.168,0,14.325,0,21.534,0c0,1.479,0,2.966,0,4.538c-5.182,0-10.38,0-15.622,0c0,0.976,0,1.865,0,2.804c4.913,0,9.833,0,14.802,0
		c0,1.437,0,2.829,0,4.3c-4.896,0-9.832,0-14.807,0c0,1.044,0,2.009,0,3.057c5.213,0,10.434,0,15.752,0c0,1.506,0,2.934,0,4.362
		c0.056,0.012,0.113,0.023,0.17,0.035c3.379-6.361,6.76-12.722,10.15-19.105c3.076,0,6.143,0,9.284,0
		c3.361,6.418,6.74,12.871,10.159,19.398c-2.281,0-4.48,0-6.775,0c-0.521-1.007-1.069-2.074-1.628-3.156c-4.291,0-8.573,0-12.902,0
		c-0.536,1.047-1.083,2.112-1.63,3.177C74.779,169.895,65.311,169.895,55.8,169.895z M96.67,162.315
		c-1.262-2.488-2.484-4.901-3.697-7.292c-0.42,0-0.794,0-1.179,0c-1.229,2.429-2.448,4.839-3.689,7.292
		C90.99,162.315,93.775,162.315,96.67,162.315z"/>
	<path fill-rule="evenodd" clip-rule="evenodd" fill="#FCFDFF" d="M127.184,169.898c-1.684,0-3.322,0-4.998,0
		c-2.441-4.84-4.881-9.674-7.326-14.521c-0.327,0-0.628,0-0.937,0c0,4.835,0,9.653,0,14.51c-1.89,0-3.808,0-5.763,0
		c0-6.458,0-12.921,0-19.416c3.57,0,7.113,0,10.745,0c1.892,4.121,3.806,8.286,5.769,12.563c1.944-4.231,3.854-8.388,5.771-12.564
		c3.555,0,7.09,0,10.672,0c0,6.478,0,12.939,0,19.428c-1.918,0-3.816,0-5.746,0c0-4.818,0-9.635,0-14.502c-0.236,0-0.508,0-0.875,0
		C132.085,160.178,129.646,165.013,127.184,169.898z"/>
	<path fill-rule="evenodd" clip-rule="evenodd" fill="#FCFDFF" d="M35.386,164.999c0,1.691,0,3.279,0,4.897
		c-1.964,0-3.884,0-5.862,0c0-6.459,0-12.918,0-19.456c0.26,0,0.516,0,0.77,0c5.572,0,11.145-0.006,16.717,0.006
		c0.998,0.001,1.998,0.044,2.991,0.125c1.776,0.145,3.327,1.422,3.517,3.194c0.193,1.83,0.199,3.698,0.08,5.536
		c-0.11,1.764-1.265,2.732-2.999,3.021c0.038,0.042,0.061,0.087,0.089,0.094c2.417,0.501,2.762,1.6,2.844,3.675
		c0.047,1.256,0.008,2.515,0.008,3.803c-1.97,0-3.886,0-5.84,0c-0.055-1.003-0.098-1.996-0.162-2.985
		c-0.08-1.219-0.518-1.696-1.721-1.856c-0.422-0.057-0.853-0.053-1.281-0.053C41.516,164.996,38.496,164.999,35.386,164.999z
		 M35.463,155.294c0,1.649,0,3.226,0,4.829c2.484,0,4.912,0.013,7.34-0.004c1.166-0.008,2.331-0.041,3.491-0.124
		c0.919-0.066,1.349-0.488,1.384-1.402c0.04-1.111,0.488-2.375-0.889-3.086c-0.102-0.054-0.227-0.072-0.343-0.083
		c-0.307-0.032-0.614-0.07-0.923-0.073c-3.094-0.022-6.188-0.039-9.281-0.055C35.986,155.293,35.73,155.294,35.463,155.294z"/>
	<path fill-rule="evenodd" clip-rule="evenodd" fill="#FCFDFF" d="M169.762,169.904c-2.097,0-4.117,0-6.217,0
		c0-2.338,0-4.658,0-7.013c-4.494,0-8.908,0-13.368,0c0,2.333,0,4.635,0,6.986c-2.101,0-4.155,0-6.252,0c0-6.454,0-12.896,0-19.388
		c2.063,0,4.118,0,6.239,0c0,2.288,0,4.562,0,6.878c4.461,0,8.857,0,13.328,0c0-2.267,0-4.543,0-6.873c2.126,0,4.179,0,6.27,0
		C169.762,156.954,169.762,163.396,169.762,169.904z"/>
	<path fill-rule="evenodd" clip-rule="evenodd" fill="#FCFDFF" d="M190.253,150.464c3.376,6.447,6.753,12.893,10.17,19.419
		c-2.313,0-4.516,0-6.775,0c-0.534-1.037-1.085-2.105-1.632-3.169c-4.313,0-8.594,0-12.896,0c-0.554,1.072-1.103,2.136-1.647,3.191
		c-2.264,0-4.469,0-6.817,0c3.469-6.529,6.898-12.987,10.325-19.441C184.079,150.464,187.121,150.464,190.253,150.464z
		 M181.299,162.317c2.889,0,5.68,0,8.568,0c-1.26-2.486-2.486-4.902-3.696-7.289c-0.425,0-0.8,0-1.182,0
		C183.762,157.452,182.547,159.854,181.299,162.317z"/>
	<path fill-rule="evenodd" clip-rule="evenodd" fill="#F06722" d="M2.167,145.413c0.206-0.181,0.398-0.382,0.62-0.542
		c2.297-1.651,4.598-3.295,6.9-4.938c0.954-0.681,1.988-1.069,3.193-1c2.421,0.14,4.844,0.232,7.266,0.355
		c0.227,0.011,0.447,0.106,0.838,0.202c-0.236,0.329-0.362,0.611-0.576,0.784c-1.992,1.622-4.008,3.214-5.998,4.837
		c-0.736,0.6-1.59,0.716-2.475,0.708c-2.95-0.022-5.899-0.066-8.849-0.105c-0.29-0.003-0.581-0.036-0.87-0.056
		C2.2,145.577,2.184,145.494,2.167,145.413z"/>
	<path fill-rule="evenodd" clip-rule="evenodd" fill="#F06722" d="M20.95,145.683c0.245-0.301,0.391-0.541,0.591-0.716
		c1.627-1.427,3.267-2.839,4.895-4.263c0.874-0.768,1.879-1.005,3.029-0.93c2.276,0.153,4.559,0.231,6.836,0.352
		c0.366,0.019,0.729,0.104,1.246,0.18c-0.208,0.365-0.303,0.632-0.48,0.822c-1.301,1.387-2.592,2.79-3.953,4.115
		c-0.355,0.343-0.956,0.603-1.447,0.609c-3.354,0.042-6.711,0.009-10.065-0.008C21.426,145.84,21.254,145.759,20.95,145.683z"/>
	<path fill-rule="evenodd" clip-rule="evenodd" fill="#F06722" d="M39.799,145.811c0.196-0.335,0.29-0.552,0.434-0.726
		c0.92-1.12,1.898-2.196,2.771-3.352c0.936-1.238,2.205-1.227,3.539-1.154c1.943,0.105,3.889,0.183,5.833,0.291
		c0.579,0.034,1.155,0.124,1.854,0.204c-0.136,0.414-0.177,0.697-0.312,0.923c-0.655,1.101-1.344,2.183-2.004,3.282
		c-0.299,0.499-0.711,0.726-1.29,0.722c-3.308-0.019-6.614-0.021-9.921-0.041C40.452,145.961,40.201,145.88,39.799,145.811z"/>
	<path fill-rule="evenodd" clip-rule="evenodd" fill="#F06722" d="M37.264,125.519c-0.207,0.316-0.313,0.584-0.504,0.755
		c-1.787,1.605-3.581,3.205-5.398,4.776c-0.251,0.216-0.652,0.416-0.961,0.385c-2.496-0.25-4.985-0.559-7.682-0.874
		c0.271-0.359,0.382-0.586,0.561-0.728c2.07-1.638,4.151-3.262,6.229-4.892c0.842-0.66,1.744-0.848,2.806-0.573
		c1.376,0.357,2.782,0.595,4.175,0.894C36.709,125.31,36.92,125.403,37.264,125.519z"/>
	<path fill-rule="evenodd" clip-rule="evenodd" fill="#F06722" d="M58.535,145.843c0.695-1.418,1.298-2.75,2.011-4.023
		c0.148-0.264,0.696-0.424,1.062-0.424c1.471-0.006,2.943,0.063,4.415,0.12c1.333,0.049,2.661,0.115,3.991,0.177
		c0.996,0.047,1.166,0.258,0.986,1.215c-0.15,0.816-0.319,1.631-0.447,2.451c-0.079,0.512-0.356,0.772-0.854,0.77
		c-3.451-0.026-6.902-0.058-10.354-0.1C59.127,146.028,58.91,145.933,58.535,145.843z"/>
	<path fill-rule="evenodd" clip-rule="evenodd" fill="#F06722" d="M36.035,132.11c0.202-0.27,0.317-0.475,0.479-0.631
		c1.484-1.44,2.977-2.869,4.465-4.303c0.597-0.576,1.312-0.75,2.104-0.598c1.627,0.312,3.252,0.638,4.875,0.976
		c0.24,0.048,0.463,0.176,0.793,0.307c-0.215,0.354-0.349,0.654-0.553,0.894c-1.077,1.265-2.185,2.505-3.256,3.777
		c-0.43,0.509-0.943,0.677-1.578,0.597c-2.211-0.279-4.423-0.553-6.634-0.834C36.53,132.267,36.336,132.191,36.035,132.11z"/>
	<path fill-rule="evenodd" clip-rule="evenodd" fill="#F06722" d="M60.704,130.07c-0.554,1.032-1.017,1.934-1.515,2.816
		c-1.206,2.135-0.721,1.927-3.072,1.675c-1.888-0.201-3.776-0.404-5.664-0.617c-0.248-0.028-0.488-0.122-0.728-0.183
		c0-0.145-0.029-0.232,0.003-0.275c1.094-1.463,2.154-2.952,3.322-4.353c0.253-0.303,0.916-0.445,1.35-0.382
		c1.807,0.256,3.6,0.612,5.391,0.948C60.054,129.75,60.296,129.901,60.704,130.07z"/>
	<path fill-rule="evenodd" clip-rule="evenodd" fill="#F06722" d="M89.277,146.081c-0.338,0.074-0.562,0.166-0.784,0.165
		c-3.397-0.024-6.794-0.071-10.192-0.088c-0.68-0.003-0.94-0.277-0.901-0.946c0.04-0.687,0.021-1.377,0.03-2.067
		c0.012-0.843,0.187-1.057,1.058-1.049c1.423,0.012,2.847,0.079,4.271,0.133c1.424,0.053,2.847,0.126,4.27,0.179
		c0.719,0.027,1.201,0.298,1.403,1.05C88.662,144.317,88.973,145.154,89.277,146.081z"/>
	<path fill-rule="evenodd" clip-rule="evenodd" fill="#F06722" d="M40.17,115.911c0.346-0.216,0.722-0.391,1.025-0.651
		c1.514-1.3,3.01-2.62,4.51-3.936c1.17-1.027,1.38-1.058,2.745-0.349c0.83,0.431,1.653,0.876,2.585,1.369
		c-0.262,0.4-0.41,0.723-0.643,0.96c-1.349,1.375-2.723,2.723-4.074,4.097c-0.541,0.549-1.098,0.714-1.852,0.407
		c-1.115-0.458-2.268-0.826-3.402-1.235c-0.215-0.078-0.422-0.178-0.633-0.267C40.344,116.174,40.258,116.042,40.17,115.911z"/>
	<path fill-rule="evenodd" clip-rule="evenodd" fill="#F06722" d="M72.928,132.133c-0.232,1.355-0.454,2.651-0.705,4.114
		c-2.95-0.298-5.79-0.584-8.705-0.88c0.041-0.337,0.023-0.556,0.098-0.737c0.428-1.056,0.881-2.099,1.316-3.151
		c0.197-0.479,0.555-0.747,1.053-0.672c2.111,0.315,4.218,0.663,6.324,1.011C72.48,131.846,72.635,131.979,72.928,132.133z"/>
	<path fill-rule="evenodd" clip-rule="evenodd" fill="#F06722" d="M94.497,142.9c0.511-0.084,0.788-0.178,1.063-0.167
		c2.94,0.12,5.882,0.248,8.821,0.4c0.315,0.015,0.709,0.102,0.92,0.308c0.908,0.89,1.762,1.835,2.688,2.818
		c-0.336,0.045-0.674,0.133-1.01,0.13c-3.136-0.025-6.272-0.092-9.408-0.085c-0.899,0.003-1.48-0.28-1.853-1.108
		C95.384,144.455,94.957,143.756,94.497,142.9z"/>
	<path fill-rule="evenodd" clip-rule="evenodd" fill="#F06722" d="M58.089,115.663c0.02,0.843-2.986,4.904-3.905,5.317
		c-1.654-0.528-3.363-1.073-5.188-1.654c0.158-0.3,0.233-0.544,0.389-0.717c1.243-1.378,2.504-2.738,3.753-4.108
		c0.52-0.57,1.085-0.669,1.787-0.315C55.979,114.715,57.061,115.186,58.089,115.663z"/>
	<path fill-rule="evenodd" clip-rule="evenodd" fill="#F06722" d="M86.549,137.646c-3.097-0.301-6.021-0.586-8.992-0.875
		c0-1.294-0.033-2.384,0.014-3.472c0.024-0.582,0.524-0.627,0.965-0.565c1.693,0.235,3.381,0.494,5.07,0.75
		c2.342,0.355,1.852,0.283,2.475,2.275C86.252,136.314,86.362,136.889,86.549,137.646z"/>
	<path fill-rule="evenodd" clip-rule="evenodd" fill="#F06722" d="M66.113,119.009c-0.553,1.729-1.396,3.167-2.197,4.817
		c-1.953-0.558-3.863-1.103-5.822-1.663c0.092-0.29,0.109-0.46,0.192-0.588c0.814-1.253,1.638-2.5,2.466-3.745
		c0.367-0.551,0.832-0.699,1.47-0.419C63.453,117.945,64.706,118.435,66.113,119.009z"/>
	<path fill-rule="evenodd" clip-rule="evenodd" fill="#F06722" d="M111.876,143.466c0.268-0.02,0.536-0.064,0.803-0.056
		c2.921,0.094,5.842,0.194,8.761,0.295c0.119,0.003,0.251-0.005,0.352,0.042c1.697,0.801,3.393,1.61,5.088,2.418
		c-0.026,0.101-0.051,0.2-0.078,0.3c-0.577,0-1.154,0.003-1.732,0c-2.854-0.015-5.707-0.042-8.561-0.04
		c-0.821,0-1.529-0.21-2.166-0.741c-0.829-0.692-1.691-1.346-2.541-2.016C111.828,143.602,111.852,143.533,111.876,143.466z"/>
	<path fill-rule="evenodd" clip-rule="evenodd" fill="#F06722" d="M100.938,138.886c-0.818-0.061-1.639-0.113-2.456-0.185
		c-1.939-0.171-3.877-0.359-5.815-0.525c-0.544-0.046-0.854-0.34-1.064-0.812c-0.279-0.629-0.595-1.24-0.872-1.869
		c-0.108-0.246-0.154-0.518-0.279-0.96c0.746,0.066,1.348,0.096,1.941,0.174c1.74,0.227,3.482,0.456,5.219,0.721
		c0.359,0.055,0.787,0.19,1.023,0.439c0.84,0.893,1.612,1.853,2.412,2.786C101.01,138.733,100.974,138.81,100.938,138.886z"/>
	<path fill-rule="evenodd" clip-rule="evenodd" fill="#F06722" d="M74.513,122.13c-0.223,1.494-0.421,2.812-0.644,4.312
		c-2.154-0.555-4.167-1.073-6.32-1.627c0.58-1.574,1.098-2.976,1.653-4.482C71.096,120.723,72.729,121.463,74.513,122.13z"/>
	<path fill-rule="evenodd" clip-rule="evenodd" fill="#F06722" d="M62.307,100.18c-1.537,1.795-3.021,3.531-4.594,5.37
		c-1.019-0.864-1.926-1.635-2.99-2.539c1.777-1.962,3.544-3.775,5.504-5.553C60.969,98.429,61.568,99.214,62.307,100.18z"/>
	<path fill-rule="evenodd" clip-rule="evenodd" fill="#F06722" d="M145.609,146.538c-3.498,0-6.999,0.014-10.497-0.015
		c-0.532-0.005-1.091-0.141-1.587-0.342c-1.296-0.528-2.563-1.122-3.84-1.698c-0.18-0.081-0.339-0.209-0.473-0.472
		c0.908,0,1.82-0.023,2.729,0.006c1.972,0.064,3.947,0.104,5.913,0.26c1.099,0.086,2.204,0.311,3.267,0.607
		c1.39,0.39,2.743,0.913,4.11,1.381c0.144,0.048,0.28,0.116,0.421,0.174C145.639,146.473,145.625,146.506,145.609,146.538z"/>
	<path fill-rule="evenodd" clip-rule="evenodd" fill="#F06722" d="M62.846,109.363c-1.035-0.743-2.046-1.468-3.193-2.29
		c1.214-1.854,2.572-3.503,4.063-5.212c0.803,0.835,1.502,1.564,2.289,2.383c-0.054,0.221-0.053,0.55-0.199,0.784
		c-0.855,1.366-1.744,2.709-2.627,4.058C63.129,109.16,63.037,109.205,62.846,109.363z"/>
	<path fill-rule="evenodd" clip-rule="evenodd" fill="#F06722" d="M84.27,128.917c-2.34-0.549-4.441-1.043-6.488-1.526
		c0-1.423,0-2.663,0-3.993c0.376,0.032,0.662,0.009,0.918,0.086c1.291,0.39,2.572,0.812,3.859,1.209
		c0.572,0.177,0.915,0.507,1.027,1.129C83.761,126.788,84.008,127.742,84.27,128.917z"/>
	<path fill-rule="evenodd" clip-rule="evenodd" fill="#F06722" d="M103.77,136.256c0.528,0.052,1.057,0.09,1.583,0.155
		c1.908,0.231,3.819,0.454,5.724,0.723c0.432,0.063,0.881,0.229,1.252,0.459c1.11,0.688,2.186,1.434,3.277,2.152
		c0.097,0.063,0.212,0.095,0.318,0.142c-0.042,0.073-0.083,0.147-0.125,0.22c-0.479-0.036-0.955-0.069-1.433-0.109
		c-2.345-0.19-4.689-0.375-7.032-0.582c-0.273-0.023-0.598-0.097-0.793-0.268c-0.979-0.853-1.926-1.747-2.885-2.626
		C103.695,136.434,103.732,136.345,103.77,136.256z"/>
	<path fill-rule="evenodd" clip-rule="evenodd" fill="#F06722" d="M146.646,144.721c5.589-0.479,14.433,0.539,18.073,1.984
		c-0.917,0-1.661,0.002-2.406,0c-2.453-0.007-4.906-0.031-7.359-0.018c-2.523,0.013-4.812-1.004-7.193-1.607
		C147.383,144.985,147.017,144.842,146.646,144.721z"/>
	<path fill-rule="evenodd" clip-rule="evenodd" fill="#F06722" d="M67.988,106.13c0.82,0.72,1.642,1.421,2.437,2.154
		c0.11,0.103,0.169,0.381,0.114,0.526c-0.521,1.41-1.07,2.809-1.676,4.372c-1.295-0.792-2.436-1.488-3.545-2.167
		C65.262,110.333,67.155,106.808,67.988,106.13z"/>
	<path fill-rule="evenodd" clip-rule="evenodd" fill="#F06722" d="M86.869,126.186c0.383,0.025,0.607,0.006,0.813,0.061
		c1.481,0.403,2.96,0.816,4.436,1.242c0.243,0.071,0.541,0.167,0.683,0.353c0.777,1.026,1.515,2.083,2.268,3.132
		c-0.043,0.057-0.086,0.114-0.128,0.171c-0.8-0.152-1.601-0.298-2.397-0.459c-1.136-0.232-2.265-0.484-3.402-0.706
		c-0.607-0.118-1.017-0.392-1.22-1.023C87.641,128.085,87.275,127.24,86.869,126.186z"/>
	<path fill-rule="evenodd" clip-rule="evenodd" fill="#F06722" d="M130.966,141.241c-2.212-0.157-4.382-0.313-6.551-0.469
		c-0.306-0.022-0.613-0.061-0.922-0.066c-1.062-0.016-2.05-0.246-2.978-0.811c-1.057-0.645-2.16-1.214-3.203-1.906
		C122.068,138.168,126.759,138.546,130.966,141.241z"/>
	<path fill-rule="evenodd" clip-rule="evenodd" fill="#F06722" d="M75.154,116.627c-1.326-0.708-2.63-1.402-4.004-2.135
		c0.475-1.505,0.91-2.89,1.379-4.379c0.342,0.161,0.562,0.23,0.741,0.356c0.699,0.492,1.417,0.967,2.064,1.521
		c0.251,0.216,0.491,0.636,0.47,0.944c-0.078,1.112-0.266,2.215-0.426,3.321C75.365,116.358,75.264,116.451,75.154,116.627z"/>
	<path fill-rule="evenodd" clip-rule="evenodd" fill="#F06722" d="M96.845,128.763c0.616,0.138,1.238,0.266,1.851,0.416
		c0.854,0.208,1.692,0.476,2.553,0.64c1.012,0.193,1.875,0.62,2.642,1.301c0.774,0.689,1.589,1.338,2.327,2.174
		c-0.558-0.099-1.115-0.195-1.672-0.299c-1.514-0.282-3.035-0.539-4.537-0.87c-0.412-0.091-0.85-0.339-1.141-0.642
		c-0.762-0.798-1.451-1.667-2.169-2.506C96.747,128.905,96.797,128.833,96.845,128.763z"/>
	<path fill-rule="evenodd" clip-rule="evenodd" fill="#F06722" d="M131.36,139.396c5.132,0.164,10.157,0.917,15.134,2.887
		c-0.492-0.033-0.822-0.055-1.152-0.079c-0.355-0.024-0.71-0.046-1.065-0.073c-2.414-0.185-4.863-0.173-7.228-0.617
		c-1.971-0.371-3.843-1.274-5.76-1.943C131.313,139.514,131.336,139.456,131.36,139.396z"/>
	<path fill-rule="evenodd" clip-rule="evenodd" fill="#F06722" d="M82.288,119.95c-0.425-0.177-0.769-0.31-1.104-0.463
		c-0.883-0.4-1.756-0.828-2.648-1.207c-0.482-0.204-0.705-0.517-0.68-1.036c0.053-1.076,0.092-2.152,0.139-3.316
		c0.289,0.09,0.447,0.117,0.582,0.188c0.25,0.133,0.487,0.292,0.73,0.44C81.969,116.182,82.191,116.571,82.288,119.95z"/>
	<path fill-rule="evenodd" clip-rule="evenodd" fill="#F06722" d="M107.037,131.369c3.983,0.41,7.713,1.494,11.07,3.947
		c-1.159-0.186-2.226-0.354-3.29-0.527c-0.771-0.124-1.538-0.306-2.314-0.367C110.197,134.239,108.813,132.47,107.037,131.369z"/>
	<path fill-rule="evenodd" clip-rule="evenodd" fill="#F06722" d="M69.729,98.303c-0.548-0.987-1.027-1.846-1.573-2.83
		c0.985-1.555,1.983-3.135,3.082-4.871c0.632,1.646,1.356,3.015,0.259,4.542c-0.506,0.705-0.824,1.543-1.239,2.316
		C70.127,97.704,69.966,97.929,69.729,98.303z"/>
	<path fill-rule="evenodd" clip-rule="evenodd" fill="#F06722" d="M89.838,123.034c-0.258-0.083-0.521-0.153-0.775-0.251
		c-0.859-0.334-1.697-0.741-2.578-1.001c-1.025-0.303-1.574-0.926-1.774-1.961c-0.144-0.742-0.396-1.464-0.599-2.197
		c0.068-0.054,0.135-0.108,0.203-0.162c1.247,0.696,2.676,1.198,3.691,2.144c0.896,0.839,1.334,2.171,1.976,3.285
		C89.934,122.938,89.886,122.985,89.838,123.034z"/>
	<path fill-rule="evenodd" clip-rule="evenodd" fill="#F06722" d="M72.798,102.728c-0.644-0.882-1.208-1.637-1.741-2.412
		c-0.094-0.137-0.133-0.394-0.07-0.542c0.598-1.406,1.223-2.803,1.96-4.19c0.593,1.26,1.755,2.298,1.029,3.898
		c-0.358,0.793-0.563,1.657-0.847,2.485C73.057,102.177,72.95,102.378,72.798,102.728z"/>
	<path fill-rule="evenodd" clip-rule="evenodd" fill="#F06722" d="M117.864,133.56c4.366,0.525,8.475,1.684,12.349,3.5
		C127.594,137.402,120.142,135.323,117.864,133.56z"/>
	<path fill-rule="evenodd" clip-rule="evenodd" fill="#F06722" d="M90.939,120.967c3.031,0.862,5.423,2.443,7.225,5.095
		c-0.942-0.325-1.764-0.736-2.63-0.882c-2.286-0.384-3.418-2.032-4.454-3.825C91.025,121.262,91.004,121.148,90.939,120.967z"/>
	<path fill-rule="evenodd" clip-rule="evenodd" fill="#F06722" d="M74.147,104.397c0.358-1.429,0.709-2.831,1.077-4.296
		c1.734,1.568,2.209,4.2,1.243,6.802C75.701,106.075,74.973,105.289,74.147,104.397z"/>
	<path fill-rule="evenodd" clip-rule="evenodd" fill="#F06722" d="M78.122,104.478c2.419,1.648,2.666,3.938,2.746,6.508
		c-0.94-0.85-1.764-1.58-2.567-2.331c-0.107-0.1-0.168-0.297-0.171-0.45C78.117,107.002,78.122,105.798,78.122,104.478z"/>
	<path fill-rule="evenodd" clip-rule="evenodd" fill="#F06722" d="M98.418,124.164c3.178,0.846,5.977,2.422,8.525,4.563
		C103.641,128.008,100.477,127.117,98.418,124.164z"/>
	<path fill-rule="evenodd" clip-rule="evenodd" fill="#F06722" d="M85.877,114.804c-1.049-0.781-1.961-1.456-2.865-2.143
		c-0.127-0.096-0.258-0.243-0.296-0.391c-0.287-1.14-0.551-2.286-0.851-3.552C84.191,110.137,85.129,112.281,85.877,114.804z"/>
	<path fill-rule="evenodd" clip-rule="evenodd" fill="#F06722" d="M116.284,131.262c-1.786-0.449-3.642-0.722-5.337-1.397
		c-1.603-0.639-3.036-1.698-4.547-2.573c0.031-0.063,0.063-0.126,0.092-0.188c0.754,0.249,1.498,0.514,2.258,0.739
		c2.671,0.787,5.1,2.104,7.523,3.43L116.284,131.262z"/>
	<path fill-rule="evenodd" clip-rule="evenodd" fill="#F06722" d="M91.418,118.207c-2.602-1.009-4.367-2.749-5.075-5.441
		C88.571,114.043,90.087,116.016,91.418,118.207z"/>
	<path fill-rule="evenodd" clip-rule="evenodd" fill="#F06722" d="M98.114,122.141c-2.566-0.986-4.68-2.535-6.091-4.996
		c2.377,1.252,4.289,3.059,6.176,4.898C98.17,122.075,98.143,122.107,98.114,122.141z"/>
	<path fill-rule="evenodd" clip-rule="evenodd" fill="#F06722" d="M98.723,121.242c1.707,1.021,3.42,2.033,5.12,3.065
		c0.603,0.367,1.174,0.782,1.737,1.21c-2.697-0.764-4.939-2.28-6.961-4.167C98.654,121.315,98.688,121.279,98.723,121.242z"/>
	<path fill-rule="evenodd" clip-rule="evenodd" fill="#F06722" d="M98.619,121.351c-0.066-0.049-0.133-0.098-0.197-0.148
		c0.017-0.031,0.032-0.062,0.05-0.093c0.083,0.044,0.167,0.087,0.251,0.132C98.688,121.279,98.654,121.315,98.619,121.351z"/>
	<path fill-rule="evenodd" clip-rule="evenodd" fill="#F06722" d="M116.273,131.272c0.043,0.019,0.088,0.037,0.032,0.014
		c0.039,0.044,0.009,0.01-0.021-0.025L116.273,131.272z"/>
	<path fill-rule="evenodd" clip-rule="evenodd" fill="#F06722" d="M98.199,122.042c0.052,0.044,0.104,0.087,0.313,0.262
		c-0.251-0.103-0.325-0.133-0.398-0.164C98.143,122.107,98.17,122.075,98.199,122.042z"/>
</g>
</svg>
