<?xml version="1.0" encoding="utf-8"?>
<!-- Generator: Adobe Illustrator 16.0.0, SVG Export Plug-In . SVG Version: 6.00 Build 0)  -->
<!DOCTYPE svg PUBLIC "-//W3C//DTD SVG 1.1//EN" "http://www.w3.org/Graphics/SVG/1.1/DTD/svg11.dtd">
<svg version="1.1" id="Layer_1" xmlns="http://www.w3.org/2000/svg" xmlns:xlink="http://www.w3.org/1999/xlink" x="0px" y="0px"
	 width="256px" height="256px" viewBox="0 0 256 256" enable-background="new 0 0 256 256" xml:space="preserve">
<g>
	<path fill-rule="evenodd" clip-rule="evenodd" fill="#FFFFFF" d="M1.364,156.741c0.124-0.473,0.241-0.929,0.364-1.384
		c2.971-11.092,5.942-22.182,8.914-33.273c1.783-6.653,3.568-13.308,5.349-19.963c0.384-1.437,1.268-2.387,2.701-2.81
		c0.299-0.089,0.606-0.123,0.92-0.123c1.623,0.004,3.246,0.001,4.868,0.002c1.922,0.001,3.548,1.221,4.063,3.063
		c0.822,2.939,1.635,5.882,2.452,8.823c1.682,6.052,3.363,12.104,5.046,18.156c0.024,0.087,0.06,0.171,0.091,0.259
		c0.158-0.057,0.219-0.185,0.302-0.287c6.105-7.477,12.21-14.955,18.314-22.435c1.479-1.812,2.953-3.628,4.436-5.437
		c0.975-1.189,2.219-1.915,3.754-2.116c0.147-0.02,0.296-0.025,0.445-0.025c2.853-0.002,5.706-0.001,8.56-0.001
		c0.492,0,0.496,0.002,0.366,0.488c-1.231,4.635-2.464,9.27-3.698,13.902c-2.425,9.112-4.85,18.224-7.276,27.335
		c-1.373,5.155-2.748,10.312-4.123,15.467c-0.021,0.078-0.048,0.155-0.063,0.233c-0.024,0.125-0.091,0.19-0.222,0.184
		c-0.068-0.004-0.135,0.002-0.203,0.002c-2.42,0-4.841,0.008-7.262-0.005c-1.376-0.007-2.378-0.641-2.954-1.896
		c-0.328-0.717-0.328-1.462-0.123-2.22c1.077-3.977,2.147-7.955,3.222-11.933c1.606-5.946,3.214-11.892,4.818-17.841
		c0.043-0.162,0.14-0.323,0.08-0.516c-0.17,0.038-0.225,0.191-0.31,0.303c-2.225,2.894-4.445,5.791-6.667,8.688
		c-2.625,3.422-5.25,6.844-7.875,10.267c-0.754,0.982-1.731,1.611-2.948,1.866c-0.24,0.051-0.482,0.06-0.726,0.06
		c-1.731,0.001-3.462,0.004-5.192,0c-1.704-0.004-3.116-1.074-3.549-2.725c-0.946-3.606-1.873-7.218-2.807-10.826
		c-0.65-2.512-1.299-5.022-1.949-7.532c-0.02-0.075-0.018-0.161-0.133-0.236c-0.122,0.443-0.24,0.865-0.353,1.288
		c-2.712,10.124-5.421,20.251-8.137,30.375c-0.412,1.537-1.409,2.485-2.97,2.83c-0.212,0.047-0.429,0.052-0.645,0.052
		c-2.84,0.002-5.679,0.002-8.519,0C1.62,156.8,1.51,156.819,1.364,156.741z M54.552,122.269l0.017,0.012l0.002-0.021L54.552,122.269
		z"/>
	<path fill-rule="evenodd" clip-rule="evenodd" fill="#FFFFFF" d="M206.664,156.783c-0.148,0.006-0.295,0.019-0.443,0.019
		c-1.953,0-3.906,0-5.859,0c-0.147,0-0.295-0.013-0.443-0.019c-0.055-0.075-0.108-0.153-0.167-0.227
		c-0.884-1.103-1.582-2.316-2.076-3.638c-0.906-2.423-1.734-4.872-2.53-7.333c-0.29-0.896-0.586-1.789-0.879-2.682
		c-0.024-0.105-0.042-0.212-0.074-0.314c-1.032-3.369-2.006-6.755-2.822-10.184c-0.622-2.614-1.227-5.232-1.539-7.908
		c-0.088-0.755,0.016-1.402,0.719-1.833c0.197-0.12,0.188-0.272,0.071-0.445c-0.106-0.156-0.212-0.313-0.311-0.475
		c-0.724-1.185-0.637-2.362,0.294-3.393c1.445-1.597,3.027-3.048,4.743-4.354c0.15-0.113,0.317-0.207,0.466-0.323
		c1.038-0.815,2.197-0.641,3.326-0.327c0.492,0.137,0.941,0.189,1.423,0.078c2.223-0.516,4.426-1.107,6.589-1.838
		c0.806-0.272,1.605-0.564,2.367-0.948c0.387-0.194,0.459-0.384,0.312-0.786c-0.226-0.619-0.666-1.005-1.294-1.179
		c-0.445-0.122-0.902-0.163-1.364-0.169c-0.837-0.01-1.675-0.009-2.51-0.078c-0.663-0.055-1.316-0.158-1.931-0.426
		c-0.737-0.318-1.226-0.853-1.438-1.645c-0.188-0.702-0.16-1.391,0.06-2.075c0.352-1.096,1.061-1.93,1.948-2.63
		c0.839-0.663,1.805-1.079,2.806-1.422c1.021-0.351,2.047-0.683,3.071-1.023c0.99-0.028,1.979-0.027,2.968-0.001
		c-0.188,0.072-0.375,0.15-0.567,0.214c-1.139,0.384-2.284,0.749-3.417,1.148c-1.394,0.493-2.723,1.121-3.916,2.008
		c-0.436,0.324-0.837,0.688-1.131,1.151c-0.303,0.479-0.489,0.992-0.418,1.572c0.095,0.783,0.589,1.279,1.336,1.339
		c0.741,0.058,1.483,0.1,2.222,0.175c0.954,0.097,1.912,0.189,2.834,0.468c1.018,0.309,1.854,0.861,2.354,1.843
		c0.174,0.341,0.349,0.366,0.678,0.106c2.199-1.73,4.396-3.465,6.574-5.223c0.563-0.455,0.886-1.023,1.014-1.698
		c0.134-0.708,0.535-1.194,1.104-1.578c0.464-0.313,0.979-0.518,1.517-0.661c1.094-0.292,2.191-0.576,3.288-0.863
		c0.858-0.006,1.716-0.015,2.574-0.016c0.67-0.001,1.341,0.007,2.011,0.012c0.207,0.175,0.375,0.386,0.551,0.589
		c0.24,0.274,0.479,0.549,0.72,0.822c0.147,0.168,0.32,0.268,0.555,0.293c0.35,0.038,0.68,0.17,0.996,0.325
		c1.141,0.56,2.135,1.324,3.008,2.236c0.812,0.849,1.576,1.741,2.367,2.61c2.972,3.269,5.859,6.608,8.557,10.109
		c0.749,0.972,1.481,1.958,2.222,2.938c-0.243,0.938-0.48,1.879-0.731,2.815c-0.885,3.308-1.775,6.614-2.665,9.922
		c-0.028,0.104-0.065,0.205-0.099,0.308c-0.11-0.078-0.224-0.151-0.331-0.233c-1.164-0.905-2.357-1.769-3.563-2.617
		c-1.913-1.344-3.831-2.682-5.829-3.898c-0.683-0.417-1.411-0.747-2.182-0.959c-0.799-0.219-1.368,0.032-1.786,0.739
		c-0.083,0.139-0.158,0.282-0.239,0.423c-0.341,0.586-0.724,1.142-1.194,1.632c-0.741,0.772-1.61,1.283-2.713,1.242
		c-0.702-0.025-1.397-0.13-2.09-0.256c-0.701-0.13-1.357-0.348-1.926-0.795c-0.201-0.158-0.432-0.274-0.662-0.39
		c-0.406-0.205-0.795-0.219-1.193,0.024c-0.334,0.203-0.674,0.399-1.021,0.58c-1.019,0.528-2.043,1.046-3.062,1.575
		c-0.69,0.357-1.031,0.948-1.025,1.71c0.003,0.394-0.014,0.784-0.059,1.171c-0.116,0.993-0.459,1.904-1.185,2.606
		c-1.118,1.083-2.466,1.687-4.037,1.731c-0.458,0.013-0.917-0.031-1.376-0.051c-0.683-0.028-1.16,0.299-1.487,0.872
		c-0.223,0.392-0.342,0.82-0.432,1.259c-0.201,0.986-0.203,1.988-0.225,2.986c-0.033,1.473,0.006,2.946,0.051,4.419
		c0.038,1.242,0.062,2.484,0.134,3.726C208.396,152.194,208.022,154.598,206.664,156.783z"/>
	<path fill-rule="evenodd" clip-rule="evenodd" fill="#FFFFFF" d="M172.648,99.242c-0.128,0.485-0.255,0.965-0.383,1.445
		c-0.583,2.179-1.165,4.358-1.752,6.537c-0.476,1.765-1.883,2.845-3.714,2.861c-0.108,0.001-0.216,0-0.324,0
		c-7.748,0-15.496,0.027-23.243-0.019c-2.156-0.012-4.164,1.709-4.65,3.56c-1.058,4.023-2.149,8.038-3.227,12.056
		c-1.588,5.924-3.175,11.846-4.763,17.77c-0.108,0.405-0.202,0.81-0.131,1.238c0.091,0.555,0.409,0.896,0.938,1.054
		c0.289,0.086,0.585,0.092,0.884,0.091c5.882-0.001,11.764-0.001,17.646,0c0.16,0.001,0.323-0.02,0.476,0.024
		c0.058,0.136-0.004,0.248-0.036,0.362c-0.701,2.609-1.395,5.221-2.105,7.826c-0.438,1.606-1.808,2.677-3.469,2.746
		c-0.136,0.006-0.271,0.008-0.405,0.008c-4.639,0-9.276-0.002-13.914,0c-1.679,0.001-3.319-0.236-4.87-0.896
		c-3.736-1.588-5.907-4.421-6.582-8.409c-0.335-1.981-0.09-3.929,0.427-5.854c2.52-9.394,5.054-18.782,7.541-28.184
		c0.835-3.156,2.307-5.937,4.554-8.293c2.808-2.944,6.167-4.933,10.192-5.716c0.877-0.17,1.766-0.259,2.659-0.259
		c9.249-0.002,18.498-0.001,27.746,0.001C172.301,99.192,172.464,99.158,172.648,99.242z"/>
	<path fill-rule="evenodd" clip-rule="evenodd" fill="#FFFFFF" d="M95.871,99.233c-0.027,0.332-0.146,0.649-0.233,0.972
		c-3.005,11.222-6.013,22.442-9.021,33.664c-0.843,3.145-1.686,6.29-2.529,9.434c-0.078,0.289-0.139,0.578-0.148,0.877
		c-0.031,0.976,0.53,1.589,1.505,1.64c0.121,0.006,0.243,0.002,0.365,0.002c7.546,0,15.092-0.001,22.637,0
		c0.351,0,0.701-0.001,1.048,0.079c1.491,0.347,2.482,1.811,2.18,3.311c-0.185,0.912-0.448,1.81-0.684,2.711
		c-0.394,1.502-0.794,3.003-1.193,4.504c-0.099,0.372-0.101,0.374-0.483,0.374c-2.407,0.002-4.814,0.002-7.221,0.002
		c-6.044,0-12.089-0.002-18.134,0c-1.695,0-3.344-0.266-4.902-0.945c-3.608-1.571-5.755-4.334-6.509-8.174
		c-0.421-2.147-0.217-4.273,0.348-6.38c2.73-10.162,5.45-20.328,8.173-30.493c0.783-2.923,1.564-5.847,2.353-8.768
		c0.375-1.39,1.254-2.303,2.635-2.723c0.285-0.087,0.579-0.13,0.878-0.13c2.854,0.001,5.707,0.001,8.56,0.002
		C95.617,99.191,95.74,99.167,95.871,99.233z"/>
	<path fill-rule="evenodd" clip-rule="evenodd" fill="#901926" d="M206.664,156.783c1.358-2.186,1.732-4.589,1.586-7.114
		c-0.072-1.241-0.096-2.483-0.134-3.726c-0.044-1.473-0.084-2.946-0.051-4.419c0.022-0.998,0.024-2,0.225-2.986
		c0.09-0.438,0.209-0.867,0.432-1.259c0.327-0.573,0.804-0.9,1.487-0.872c0.459,0.02,0.918,0.063,1.376,0.051
		c1.57-0.045,2.918-0.648,4.037-1.731c0.726-0.702,1.069-1.613,1.185-2.606c0.045-0.387,0.062-0.777,0.059-1.171
		c-0.005-0.762,0.335-1.353,1.025-1.71c1.019-0.529,2.043-1.047,3.062-1.575c0.347-0.181,0.687-0.377,1.021-0.58
		c0.397-0.243,0.787-0.229,1.193-0.024c0.23,0.115,0.461,0.231,0.662,0.39c0.569,0.447,1.225,0.665,1.926,0.795
		c0.692,0.126,1.388,0.23,2.09,0.256c1.103,0.041,1.973-0.47,2.713-1.242c0.471-0.49,0.854-1.046,1.194-1.632
		c0.082-0.141,0.156-0.284,0.239-0.423c0.418-0.707,0.987-0.958,1.786-0.739c0.771,0.212,1.499,0.542,2.182,0.959
		c1.998,1.217,3.916,2.555,5.829,3.898c1.206,0.849,2.399,1.712,3.563,2.617c0.106,0.082,0.22,0.155,0.331,0.233
		c-0.291,1.109-0.578,2.218-0.874,3.326c-0.653,2.451-1.301,4.905-1.969,7.353c-0.713,2.612-2.011,4.916-3.775,6.957
		c-2.434,2.816-5.379,4.904-8.911,6.123c-1.697,0.586-3.442,0.883-5.246,0.877c-5.906-0.017-11.812-0.006-17.718-0.006
		C207.014,156.802,206.839,156.789,206.664,156.783z"/>
	<path fill-rule="evenodd" clip-rule="evenodd" fill="#005795" d="M209.177,99.208c-1.023,0.341-2.05,0.673-3.071,1.023
		c-1,0.343-1.966,0.759-2.806,1.422c-0.887,0.7-1.597,1.534-1.948,2.63c-0.22,0.685-0.249,1.373-0.06,2.075
		c0.212,0.792,0.7,1.326,1.438,1.645c0.615,0.268,1.268,0.371,1.931,0.426c0.835,0.069,1.673,0.068,2.51,0.078
		c0.462,0.006,0.919,0.047,1.364,0.169c0.628,0.174,1.069,0.56,1.294,1.179c0.147,0.402,0.075,0.592-0.312,0.786
		c-0.762,0.384-1.561,0.676-2.367,0.948c-2.163,0.73-4.366,1.322-6.589,1.838c-0.482,0.111-0.931,0.059-1.423-0.078
		c-1.129-0.313-2.288-0.488-3.326,0.327c-0.148,0.116-0.316,0.21-0.466,0.323c-1.715,1.306-3.298,2.757-4.743,4.354
		c-0.931,1.03-1.018,2.208-0.294,3.393c0.099,0.162,0.205,0.318,0.311,0.475c0.116,0.173,0.126,0.325-0.071,0.445
		c-0.703,0.431-0.807,1.078-0.719,1.833c0.312,2.676,0.917,5.294,1.539,7.908c0.816,3.429,1.79,6.814,2.822,10.184
		c0.032,0.103,0.05,0.209,0.074,0.314c-0.071,0.038-0.148,0.069-0.213,0.116c-1.124,0.814-2.247,1.632-3.37,2.449
		c-1.09,0.793-2.18,1.587-3.271,2.379c-1.189,0.864-2.379,1.727-3.569,2.59c-1.299,0.941-2.598,1.884-3.897,2.826
		c-1.157,0.839-2.312,1.68-3.473,2.514c-0.447,0.321-0.862,0.69-1.363,0.934c0.144-0.742,0.37-1.464,0.565-2.194
		c2.017-7.525,4.038-15.051,6.058-22.576c1.981-7.383,3.961-14.765,5.942-22.147c0.697-2.596,1.391-5.191,2.095-7.785
		c0.468-1.723,1.885-2.793,3.672-2.796c4.204-0.008,8.408-0.017,12.612-0.021C207.096,99.19,208.136,99.202,209.177,99.208z"/>
	<path fill-rule="evenodd" clip-rule="evenodd" fill="#FFFFFF" d="M159.755,133.058c-0.192-0.068-0.355-0.043-0.516-0.043
		c-3.908-0.002-7.815-0.001-11.724-0.001c-1.045,0-1.856-0.428-2.386-1.338c-0.364-0.627-0.427-1.308-0.244-2.001
		c0.548-2.076,1.107-4.15,1.664-6.225c0.087-0.32,0.092-0.322,0.443-0.323c7.302,0,14.604-0.005,21.906,0.004
		c1.768,0.001,2.999,1.57,2.563,3.288c-0.511,2.017-1.075,4.019-1.617,6.028c-2.142,7.941-4.284,15.885-6.43,23.825
		c-0.163,0.604-0.034,0.527-0.692,0.527c-1.974,0.004-3.948,0.008-5.922-0.002c-1.21-0.006-2.211-0.783-2.517-1.921
		c-0.145-0.538-0.095-1.065,0.048-1.599c1.017-3.769,2.027-7.539,3.041-11.309c0.764-2.845,1.53-5.687,2.294-8.531
		C159.697,133.322,159.721,133.204,159.755,133.058z"/>
	<path fill-rule="evenodd" clip-rule="evenodd" fill="#901926" d="M249.176,119.127c-0.741-0.979-1.473-1.966-2.222-2.938
		c-2.698-3.501-5.585-6.841-8.557-10.109c-0.791-0.869-1.555-1.762-2.367-2.61c-0.873-0.912-1.867-1.677-3.008-2.236
		c-0.316-0.155-0.646-0.287-0.996-0.325c-0.234-0.025-0.407-0.125-0.555-0.293c-0.241-0.273-0.48-0.548-0.72-0.822
		c-0.177-0.203-0.345-0.414-0.551-0.589c0.148-0.006,0.297-0.017,0.445-0.017c7.799-0.001,15.599-0.001,23.398,0.001
		c0.146,0,0.297-0.03,0.457,0.039c-0.047,0.428-0.195,0.834-0.305,1.246c-1.637,6.116-3.279,12.231-4.92,18.346
		C249.248,118.924,249.209,119.024,249.176,119.127z"/>
	<path fill-rule="evenodd" clip-rule="evenodd" fill="#11426D" d="M175.111,156.712c0.501-0.243,0.916-0.612,1.363-0.934
		c1.161-0.834,2.316-1.675,3.473-2.514c1.299-0.942,2.599-1.885,3.897-2.826c1.189-0.863,2.38-1.726,3.569-2.59
		c1.091-0.792,2.18-1.586,3.271-2.379c1.124-0.817,2.246-1.635,3.37-2.449c0.065-0.047,0.142-0.078,0.213-0.116
		c0.293,0.893,0.59,1.786,0.879,2.682c0.795,2.461,1.624,4.91,2.53,7.333c0.494,1.321,1.192,2.535,2.076,3.638
		c0.059,0.073,0.112,0.151,0.167,0.227c-0.162,0.006-0.324,0.017-0.485,0.017c-7.946,0.002-15.892,0.002-23.838-0.004
		C175.434,156.796,175.246,156.884,175.111,156.712z"/>
	<path fill-rule="evenodd" clip-rule="evenodd" fill="#005795" d="M225.617,99.208c-1.097,0.287-2.194,0.571-3.288,0.863
		c-0.538,0.144-1.052,0.349-1.517,0.661c-0.568,0.384-0.969,0.87-1.104,1.578c-0.128,0.675-0.45,1.243-1.014,1.698
		c-2.178,1.758-4.375,3.492-6.574,5.223c-0.33,0.26-0.504,0.234-0.678-0.106c-0.5-0.981-1.336-1.534-2.354-1.843
		c-0.923-0.278-1.881-0.371-2.834-0.468c-0.739-0.075-1.481-0.117-2.222-0.175c-0.748-0.06-1.242-0.556-1.336-1.339
		c-0.071-0.58,0.116-1.093,0.418-1.572c0.293-0.464,0.695-0.827,1.131-1.151c1.193-0.887,2.522-1.515,3.916-2.008
		c1.133-0.399,2.278-0.765,3.417-1.148c0.192-0.063,0.379-0.142,0.567-0.214c0.122-0.005,0.243-0.016,0.363-0.016
		c4.235-0.001,8.47-0.001,12.705,0C225.348,99.191,225.482,99.202,225.617,99.208z"/>
	<path fill-rule="evenodd" clip-rule="evenodd" fill="#FFFFFF" d="M251.749,156.802c-1.405,0.064-2.881-1.106-2.875-2.821
		c0.005-1.58,1.264-2.804,2.896-2.804c1.63,0,2.875,1.231,2.867,2.823C254.626,155.695,253.219,156.869,251.749,156.802z
		 M253.892,153.986c0-1.265-0.921-2.229-2.128-2.229c-1.202,0.001-2.162,0.977-2.156,2.214c0.005,1.128,0.771,2.209,2.186,2.23
		C252.976,156.218,253.893,155.227,253.892,153.986z"/>
	<polygon fill-rule="evenodd" clip-rule="evenodd" fill="#00FF00" points="54.552,122.269 54.571,122.259 54.569,122.28 	"/>
	<path fill-rule="evenodd" clip-rule="evenodd" fill="#FFFFFF" d="M252.521,154.069c0.439,0.296,0.407,0.81,0.554,1.246
		c0.02,0.06-0.015,0.101-0.072,0.124c-0.33,0.136-0.636-0.02-0.731-0.372c-0.035-0.131-0.059-0.265-0.099-0.393
		c-0.057-0.183-0.18-0.293-0.375-0.326c-0.378-0.064-0.452-0.006-0.457,0.375c-0.001,0.163-0.005,0.324,0,0.486
		c0.006,0.169-0.062,0.255-0.236,0.243c-0.067-0.003-0.135-0.002-0.203,0c-0.163,0.006-0.247-0.053-0.245-0.233
		c0.006-0.784,0.008-1.566-0.001-2.351c-0.002-0.197,0.092-0.265,0.263-0.279c0.444-0.037,0.89-0.062,1.333-0.004
		c0.131,0.018,0.265,0.064,0.382,0.127c0.421,0.221,0.491,0.811,0.143,1.134C252.7,153.918,252.584,153.945,252.521,154.069z
		 M251.364,153.451c0,0.395,0.007,0.405,0.269,0.402c0.393-0.004,0.64-0.165,0.637-0.415c-0.002-0.26-0.215-0.399-0.596-0.395
		C251.364,153.047,251.364,153.047,251.364,153.451z"/>
</g>
</svg>
