<?xml version="1.0" encoding="utf-8"?>
<!-- Generator: Adobe Illustrator 16.0.0, SVG Export Plug-In . SVG Version: 6.00 Build 0)  -->
<!DOCTYPE svg PUBLIC "-//W3C//DTD SVG 1.1//EN" "http://www.w3.org/Graphics/SVG/1.1/DTD/svg11.dtd">
<svg version="1.1" id="Layer_1" xmlns="http://www.w3.org/2000/svg" xmlns:xlink="http://www.w3.org/1999/xlink" x="0px" y="0px"
	 width="256px" height="256px" viewBox="0 0 256 256" enable-background="new 0 0 256 256" xml:space="preserve">
<g>
	<path fill-rule="evenodd" clip-rule="evenodd" fill="#2E2E2E" d="M127.901,15.916c63.771,0,115.467,51.697,115.467,115.468
		s-51.696,115.468-115.467,115.468c-63.772,0-115.469-51.697-115.469-115.468S64.129,15.916,127.901,15.916z"/>
	<g>
		<linearGradient id="SVGID_1_" gradientUnits="userSpaceOnUse" x1="127.9004" y1="13.3345" x2="127.9004" y2="249.4331">
			<stop  offset="0" style="stop-color:#32B2E6"/>
			<stop  offset="1" style="stop-color:#2CA1DA"/>
		</linearGradient>
		<path fill-rule="evenodd" clip-rule="evenodd" fill="url(#SVGID_1_)" d="M127.901,249.433c-65.197,0-118.05-52.853-118.05-118.049
			S62.704,13.334,127.901,13.334c65.195,0,118.049,52.853,118.049,118.049S193.097,249.433,127.901,249.433z M127.801,20.285
			c-61.413,0-111.198,49.785-111.198,111.199c0,61.413,49.785,111.199,111.198,111.199c61.414,0,111.199-49.786,111.199-111.199
			C239,70.07,189.215,20.285,127.801,20.285z"/>
		<linearGradient id="SVGID_2_" gradientUnits="userSpaceOnUse" x1="9.8516" y1="131.3838" x2="245.9502" y2="131.3838">
			<stop  offset="0" style="stop-color:#1B9BD7"/>
			<stop  offset="1" style="stop-color:#2CA1DA"/>
		</linearGradient>
		<path fill="url(#SVGID_2_)" d="M127.901,14.129c31.319,0,60.765,12.196,82.911,34.343c22.146,22.146,34.344,51.592,34.344,82.912
			s-12.197,60.765-34.344,82.912c-22.146,22.147-51.592,34.343-82.911,34.343c-31.32,0-60.766-12.196-82.912-34.343
			c-22.146-22.146-34.344-51.592-34.344-82.912s12.197-60.765,34.344-82.912C67.136,26.325,96.581,14.129,127.901,14.129
			 M127.801,243.477c61.754,0,111.993-50.24,111.993-111.993S189.555,19.49,127.801,19.49c-61.753,0-111.992,50.24-111.992,111.993
			S66.048,243.477,127.801,243.477 M127.901,13.334c-65.197,0-118.05,52.853-118.05,118.049s52.853,118.049,118.05,118.049
			c65.195,0,118.049-52.853,118.049-118.049S193.097,13.334,127.901,13.334L127.901,13.334z M127.801,242.682
			c-61.413,0-111.198-49.786-111.198-111.199c0-61.414,49.785-111.199,111.198-111.199C189.215,20.285,239,70.07,239,131.483
			C239,192.896,189.215,242.682,127.801,242.682L127.801,242.682z"/>
	</g>
	<linearGradient id="SVGID_3_" gradientUnits="userSpaceOnUse" x1="128" y1="26.6387" x2="128" y2="235.9302">
		<stop  offset="0" style="stop-color:#32B2E6"/>
		<stop  offset="1" style="stop-color:#2CA1DA"/>
	</linearGradient>
	<path fill-rule="evenodd" clip-rule="evenodd" fill="url(#SVGID_3_)" d="M128,235.93c-57.795,0-104.646-46.851-104.646-104.646
		S70.205,26.639,128,26.639c57.794,0,104.646,46.852,104.646,104.646S185.794,235.93,128,235.93z M127.916,37.471
		c-51.858,0-93.897,42.04-93.897,93.897c0,51.858,42.039,93.897,93.897,93.897s93.897-42.04,93.897-93.897
		C221.813,79.511,179.774,37.471,127.916,37.471z"/>
	<g>
		<linearGradient id="SVGID_4_" gradientUnits="userSpaceOnUse" x1="72.4111" y1="35.5454" x2="183.1914" y2="227.4225">
			<stop  offset="0.3153" style="stop-color:#2D2D2D"/>
			<stop  offset="0.6847" style="stop-color:#A6A8AB"/>
			<stop  offset="1" style="stop-color:#2D2D2D"/>
		</linearGradient>
		<path fill-rule="evenodd" clip-rule="evenodd" fill="url(#SVGID_4_)" d="M127.801,242.285C66.705,242.285,17,192.58,17,131.483
			S66.705,20.682,127.801,20.682c61.097,0,110.802,49.706,110.802,110.802S188.897,242.285,127.801,242.285z M128,26.242
			c-57.921,0-105.044,47.122-105.044,105.043S70.079,236.327,128,236.327s105.044-47.122,105.044-105.042S185.921,26.242,128,26.242
			z"/>
		<path fill="#2D2D2D" d="M127.801,21.079c29.49,0,57.216,11.484,78.068,32.336s32.337,48.578,32.337,78.068
			s-11.484,57.215-32.337,78.068c-20.853,20.853-48.578,32.336-78.068,32.336s-57.215-11.484-78.067-32.336
			c-20.853-20.853-32.337-48.578-32.337-78.068s11.484-57.215,32.337-78.068S98.311,21.079,127.801,21.079 M128,236.725
			c58.141,0,105.44-47.3,105.44-105.44c0-58.14-47.3-105.44-105.44-105.44s-105.44,47.3-105.44,105.44
			C22.56,189.424,69.859,236.725,128,236.725 M127.801,20.285c-61.413,0-111.198,49.785-111.198,111.199
			c0,61.413,49.785,111.199,111.198,111.199c61.414,0,111.199-49.786,111.199-111.199C239,70.07,189.215,20.285,127.801,20.285
			L127.801,20.285z M128,235.93c-57.795,0-104.646-46.851-104.646-104.646S70.205,26.639,128,26.639
			c57.794,0,104.646,46.852,104.646,104.646S185.794,235.93,128,235.93L128,235.93z"/>
	</g>
	<path fill-rule="evenodd" clip-rule="evenodd" fill="#49494A" d="M128,215.875c-9.749,0-19.112-1.646-27.834-4.668l112.815-80.781
		c0.001,0.154,0.006,0.308,0.006,0.461C212.987,177.825,174.937,215.875,128,215.875z M60.449,182.458
		c-5.527-7.23-9.925-15.371-12.919-24.162L127.963,45.9c0.013,0,0.024,0,0.037,0c18.92,0,36.393,6.185,50.515,16.64L60.449,182.458z
		 M88.643,206.226c-7.759-4.062-14.813-9.284-20.931-15.441L187.991,70.691c12.049,12.008,20.515,27.61,23.652,45.063
		L88.643,206.226z"/>
	<path fill-rule="evenodd" clip-rule="evenodd" fill="#2E2E2E" d="M6.381,168.616c-3.298-11.024-5.067-22.685-5.067-34.75
		c0-12.354,1.855-24.286,5.307-35.543h242.759c3.452,11.258,5.308,23.189,5.308,35.543c0,12.065-1.771,23.726-5.069,34.75H6.381z"/>
	<g>
		<linearGradient id="SVGID_5_" gradientUnits="userSpaceOnUse" x1="127.9004" y1="197.292" x2="127.9004" y2="179.4873">
			<stop  offset="0" style="stop-color:#DFE0E1"/>
			<stop  offset="1" style="stop-color:#AEAEAF"/>
		</linearGradient>
		<path fill-rule="evenodd" clip-rule="evenodd" fill="url(#SVGID_5_)" d="M166.125,193.429l-5.398,3.863l2.007-6.328l-5.343-3.94
			l6.638-0.047l2.097-6.298l2.097,6.298l6.638,0.047l-5.343,3.94l2.007,6.328L166.125,193.429z M86.284,189.773l-5.342-3.94
			l6.638-0.047l2.097-6.299l2.096,6.299l6.638,0.047l-5.343,3.94l2.007,6.328l-5.397-3.863l-5.399,3.863L86.284,189.773z"/>
		<path fill="#DBDBDA" d="M89.677,180.431l1.745,5.247l0.135,0.405l0.427,0.003l5.53,0.039l-4.451,3.282l-0.343,0.253l0.129,0.407
			l1.671,5.271l-4.496-3.218l-0.347-0.248l-0.347,0.248l-4.499,3.219l1.673-5.272l0.128-0.407l-0.343-0.253l-4.45-3.282l5.53-0.039
			l0.427-0.003l0.135-0.405L89.677,180.431 M166.125,181.622l1.746,5.247l0.135,0.405l0.427,0.003l5.529,0.04l-4.45,3.282
			l-0.343,0.253l0.128,0.406l1.672,5.271l-4.497-3.218l-0.347-0.248l-0.347,0.248l-4.497,3.218l1.671-5.271l0.129-0.407
			l-0.343-0.253l-4.451-3.282l5.53-0.04l0.427-0.003l0.135-0.405L166.125,181.622 M89.677,178.544l-2.312,6.946l-7.32,0.052
			l5.891,4.345l-2.213,6.978l5.954-4.26l5.952,4.26l-2.213-6.978l5.892-4.345l-7.32-0.052L89.677,178.544L89.677,178.544z
			 M166.125,179.736l-2.312,6.945l-7.32,0.052l5.892,4.345l-2.213,6.978l5.953-4.26l5.953,4.26l-2.213-6.978l5.891-4.345
			l-7.319-0.052L166.125,179.736L166.125,179.736z"/>
	</g>
	<g>
		<g>
			<linearGradient id="SVGID_6_" gradientUnits="userSpaceOnUse" x1="127.8018" y1="195.77" x2="127.8018" y2="212.3833">
				<stop  offset="0" style="stop-color:#DFE0E1"/>
				<stop  offset="1" style="stop-color:#AEAEAF"/>
			</linearGradient>
			<polygon fill="url(#SVGID_6_)" points="127.801,208.52 122.403,212.383 124.41,206.056 119.067,202.116 125.704,202.068 
				127.801,195.77 129.897,202.068 136.536,202.116 131.193,206.056 133.198,212.383 			"/>
		</g>
		<g>
			<path fill="#DBDBDA" d="M127.801,196.713l1.746,5.247l0.135,0.405l0.427,0.003l5.53,0.04l-4.45,3.282l-0.343,0.253l0.129,0.406
				l1.67,5.272l-4.497-3.219l-0.347-0.248l-0.347,0.248l-4.496,3.218l1.671-5.271l0.129-0.407l-0.343-0.253l-4.451-3.282l5.529-0.04
				l0.427-0.003l0.135-0.405L127.801,196.713 M127.801,194.827l-2.312,6.945l-7.319,0.053l5.892,4.344l-2.213,6.978l5.952-4.26
				l5.952,4.26l-2.211-6.978l5.891-4.344l-7.32-0.053L127.801,194.827L127.801,194.827z"/>
		</g>
	</g>
	<linearGradient id="SVGID_7_" gradientUnits="userSpaceOnUse" x1="128" y1="62.5796" x2="128" y2="166.0342">
		<stop  offset="0" style="stop-color:#32B2E6"/>
		<stop  offset="1" style="stop-color:#2CA1DA"/>
	</linearGradient>
	<path fill-rule="evenodd" clip-rule="evenodd" fill="url(#SVGID_7_)" d="M251.708,131.285c0,12.065-1.729,23.725-4.949,34.75H9.241
		c-3.221-11.024-4.949-22.685-4.949-34.75c0-12.355,1.812-24.286,5.183-35.544h65.731c-1.58-1.175-2.806-3.013-2.806-5.56
		c0-4.865,0-12.212,0-16.481c0-4.269,4.07-10.921,10.921-10.921c6.852,0,29.389,0,29.389,0v2.185c0,0,2.284-2.383,5.162-2.383
		c2.88,0,18.07,0,21.843,0s5.957,1.986,5.957,1.986V62.58h19.063v20.254h18.466v12.907h63.323
		C249.896,106.999,251.708,118.93,251.708,131.285z"/>
	<g>
		<path fill-rule="evenodd" clip-rule="evenodd" fill="#2D2D2D" d="M120.454,95.939c-6.302,0-8.538-3.316-8.538-6.155v-3.971h9.159
			l-0.026,0.423c-0.001,0.014-0.083,1.44,0.589,2.156c0.252,0.269,0.579,0.399,1,0.399h13.702c0.973,0,1.191-1.324,1.191-1.788
			c0-0.662-0.601-1.986-1.39-1.986h-11.716c-7.817,0-11.728-1.62-12.306-5.098c-0.325-1.942-0.185-4.054-0.004-5.863l0.022-0.24
			c0.175-1.937,0.583-6.472,9.309-6.472h13.503c7.45,0,10.921,2.019,10.921,6.354v3.177h-9.177l0.045-0.438
			c0.001-0.012,0.112-1.175-0.497-1.85c-0.299-0.331-0.722-0.492-1.292-0.492h-12.113c-1.092,0-1.787,1.043-1.787,1.589
			c0,0.982,0.212,1.986,1.787,1.986c0.766,0,2.051,0.026,3.681,0.061c2.809,0.058,6.656,0.138,10.616,0.138
			c5.805,0,9.168,1.901,9.725,5.5c0.306,1.968,0.307,3.9,0.001,6.267c-0.598,4.652-4.864,6.303-8.336,6.303H120.454z
			 M157.785,95.542c-4.058,0-7.148-4.367-7.148-6.553V67.345h8.937v20.453h18.665v7.744H157.785z M83.72,95.343
			c-3.468,0-6.554-3.775-6.554-6.751V73.898c0-2.861,3.467-6.553,7.148-6.553h23.432v7.148H86.697v3.575h20.057v6.552H86.499v3.575
			h21.843v7.148H83.72z"/>
		<path fill="#2D2D2D" d="M159.176,67.742v20.453h18.665v6.95c0,0-16.184,0-20.056,0s-6.751-4.269-6.751-6.156
			c0-1.588,0-21.247,0-21.247H159.176 M134.95,67.742c8.936,0,10.523,2.979,10.523,5.957c0,2.284,0,2.78,0,2.78h-8.34
			c0,0,0.298-2.78-2.184-2.78c-0.895,0-10.823,0-12.113,0c-1.291,0-2.185,1.192-2.185,1.986c0,0.794,0.1,2.383,2.185,2.383
			c2.086,0,8.043,0.199,14.297,0.199c3.001,0,8.613,0.521,9.332,5.163c0.299,1.92,0.299,3.839,0,6.155
			c-0.519,4.037-4.169,5.957-7.942,5.957c-3.772,0-10.126,0-18.069,0c-6.652,0-8.141-3.673-8.141-5.758s0-3.574,0-3.574h8.339
			c0,0-0.198,2.979,1.985,2.979c1.391,0,12.511,0,13.702,0c1.19,0,1.589-1.39,1.589-2.185c0-0.794-0.695-2.383-1.787-2.383
			c-1.093,0-2.482,0-11.716,0c-9.234,0-11.507-2.317-11.914-4.766c-0.299-1.787-0.198-3.773,0-5.759
			c0.178-1.778,0.198-6.354,8.936-6.354S126.014,67.742,134.95,67.742 M107.349,67.742v6.354H86.3v4.369h20.057v5.758H86.102v4.369
			h21.843v6.354c0,0-20.254,0-24.225,0c-3.277,0-6.156-3.673-6.156-6.354c0-1.787,0-11.915,0-14.694c0-2.78,3.375-6.156,6.751-6.156
			S107.349,67.742,107.349,67.742 M159.97,66.948h-0.794h-8.142h-0.794v0.794v21.247c0,2.318,3.262,6.95,7.545,6.95h20.056h0.794
			v-0.794v-6.95V87.4h-0.794H159.97V67.742V66.948L159.97,66.948z M134.95,66.948h-13.503c-9.088,0-9.52,4.789-9.704,6.833
			l-0.021,0.236c-0.184,1.835-0.326,3.98,0.007,5.969c0.616,3.704,4.65,5.429,12.697,5.429h11.716c0.467,0,0.993,1.036,0.993,1.588
			c0,0.276-0.142,1.39-0.795,1.39h-13.702c-0.407,0-0.601-0.157-0.712-0.274c-0.461-0.493-0.503-1.532-0.48-1.857l0.056-0.847
			h-0.849h-8.339h-0.794v0.794v3.574c0,3.023,2.34,6.553,8.935,6.553h18.069c3.92,0,8.141-2.057,8.73-6.65
			c0.31-2.404,0.309-4.372-0.003-6.378c-0.591-3.817-4.09-5.835-10.117-5.835c-3.956,0-7.801-0.08-10.608-0.138
			c-1.63-0.034-2.917-0.061-3.688-0.061c-1.039,0-1.391-0.401-1.391-1.588c0-0.354,0.54-1.191,1.391-1.191h12.113
			c0.45,0,0.776,0.117,0.995,0.359c0.406,0.447,0.426,1.268,0.398,1.546l-0.084,0.871l0.874,0.004h8.34h0.794v-0.794v-2.78
			C146.268,69.093,142.672,66.948,134.95,66.948L134.95,66.948z M108.143,66.948h-0.794H84.314c-3.667,0-7.545,3.573-7.545,6.95
			v14.694c0,3.151,3.272,7.148,6.95,7.148h24.225h0.794v-0.794v-6.354v-0.794h-0.794H86.896v-2.78h19.461h0.794v-0.794v-5.758
			v-0.794h-0.794H87.094v-2.78h20.255h0.794v-0.794v-6.354V66.948L108.143,66.948z"/>
	</g>
	<g>
		<linearGradient id="SVGID_8_" gradientUnits="userSpaceOnUse" x1="127.7021" y1="95.542" x2="127.7021" y2="67.7422">
			<stop  offset="0" style="stop-color:#FFFFFF"/>
			<stop  offset="1" style="stop-color:#B9B8B9"/>
		</linearGradient>
		<path fill-rule="evenodd" clip-rule="evenodd" fill="url(#SVGID_8_)" d="M157.785,95.145c-3.872,0-6.751-4.269-6.751-6.156
			c0-1.588,0-21.247,0-21.247h8.142v20.453h18.665v6.95C177.841,95.145,161.657,95.145,157.785,95.145z M138.523,95.542
			c-3.772,0-10.126,0-18.069,0c-6.652,0-8.141-3.673-8.141-5.758s0-3.574,0-3.574h8.339c0,0-0.198,2.979,1.985,2.979
			c1.391,0,12.511,0,13.702,0c1.19,0,1.589-1.39,1.589-2.185c0-0.794-0.695-2.383-1.787-2.383c-1.093,0-2.482,0-11.716,0
			c-9.234,0-11.507-2.317-11.914-4.766c-0.299-1.787-0.198-3.773,0-5.759c0.178-1.778,0.198-6.354,8.936-6.354s4.566,0,13.503,0
			c8.936,0,10.523,2.979,10.523,5.957c0,2.284,0,2.78,0,2.78h-8.34c0,0,0.497-2.78-2.184-2.78c-0.895,0-10.823,0-12.113,0
			c-1.291,0-2.185,1.192-2.185,1.986c0,0.794,0.1,2.185,2.185,2.185c2.086,0,8.638-0.1,14.893,0.198
			c2.998,0.143,8.018,0.719,8.736,5.362c0.299,1.92,0.299,3.839,0,6.155C145.947,93.622,142.297,95.542,138.523,95.542z
			 M77.563,88.592c0-1.787,0.198-11.915,0.198-14.694c0-2.78,3.177-6.156,6.553-6.156s23.034,0,23.034,0v6.354H86.3v4.369h20.057
			v5.758H86.102v4.369h21.843v6.354c0,0-20.254,0-24.225,0C80.442,94.946,77.563,91.273,77.563,88.592z"/>
		<linearGradient id="SVGID_9_" gradientUnits="userSpaceOnUse" x1="127.7021" y1="67.7422" x2="127.7021" y2="95.542">
			<stop  offset="0" style="stop-color:#D9DBDC"/>
			<stop  offset="1" style="stop-color:#6D6E70"/>
		</linearGradient>
		<path fill="url(#SVGID_9_)" d="M158.778,68.139v20.056v0.397h0.397h18.268v6.156h-19.658c-3.604,0-6.354-4.089-6.354-5.759v-20.85
			H158.778 M134.95,68.139c8.976,0,10.126,2.972,10.126,5.56v2.383h-7.511c0.013-0.509-0.063-1.333-0.588-1.959
			c-0.455-0.545-1.138-0.821-2.027-0.821h-12.113c-1.552,0-2.582,1.434-2.582,2.383c0,0.639,0,2.582,2.582,2.582
			c0.331,0,0.773-0.002,1.309-0.005c0.819-0.004,1.856-0.01,3.045-0.01c4.058,0,7.499,0.07,10.521,0.213
			c3.28,0.157,7.716,0.848,8.362,5.026c0.294,1.891,0.294,3.755-0.001,6.043c-0.532,4.141-4.399,5.611-7.549,5.611h-18.069
			c-7.37,0-7.743-4.466-7.743-5.361v-3.177h7.544c0.022,0.584,0.159,1.64,0.802,2.327c0.404,0.433,0.937,0.652,1.581,0.652h13.702
			c1.447,0,1.986-1.583,1.986-2.582c0-0.98-0.83-2.78-2.185-2.78h-11.716c-9.667,0-11.206-2.53-11.522-4.434
			c-0.31-1.851-0.172-3.897,0.004-5.654l0.022-0.248c0.168-1.866,0.519-5.749,8.518-5.749H134.95 M106.951,68.139v5.56H86.3h-0.397
			v0.397v4.369v0.397H86.3h19.659v4.964H86.102h-0.397v0.397v4.369v0.397h0.397h21.445v5.56H83.72c-2.966,0-5.759-3.356-5.759-5.957
			c0-0.792,0.04-3.298,0.082-5.952c0.055-3.374,0.116-7.197,0.116-8.743c0-2.515,2.984-5.759,6.155-5.759H106.951 M159.176,67.742
			h-8.142c0,0,0,19.659,0,21.247c0,1.887,2.879,6.156,6.751,6.156s20.056,0,20.056,0v-6.95h-18.665V67.742L159.176,67.742z
			 M134.95,67.742c-8.937,0-4.766,0-13.503,0s-8.758,4.576-8.936,6.354c-0.198,1.986-0.299,3.972,0,5.759
			c0.407,2.448,2.68,4.766,11.914,4.766c9.233,0,10.623,0,11.716,0c1.092,0,1.787,1.589,1.787,2.383
			c0,0.794-0.398,2.185-1.589,2.185c-1.191,0-12.312,0-13.702,0c-2.184,0-1.985-2.979-1.985-2.979h-8.339c0,0,0,1.489,0,3.574
			s1.488,5.758,8.141,5.758c7.943,0,14.297,0,18.069,0c3.773,0,7.424-1.92,7.942-5.957c0.299-2.316,0.299-4.235,0-6.155
			c-0.719-4.643-5.738-5.219-8.736-5.362c-3.748-0.178-7.603-0.214-10.539-0.214c-1.964,0-3.518,0.016-4.354,0.016
			c-2.085,0-2.185-1.39-2.185-2.185c0-0.794,0.894-1.986,2.185-1.986c1.29,0,11.219,0,12.113,0c2.681,0,2.184,2.78,2.184,2.78h8.34
			c0,0,0-0.496,0-2.78C145.474,70.721,143.886,67.742,134.95,67.742L134.95,67.742z M107.349,67.742c0,0-19.658,0-23.034,0
			s-6.553,3.375-6.553,6.156c0,2.78-0.198,12.907-0.198,14.694c0,2.681,2.879,6.354,6.156,6.354c3.971,0,24.225,0,24.225,0v-6.354
			H86.102v-4.369h20.255v-5.758H86.3v-4.369h21.049V67.742L107.349,67.742z"/>
	</g>
	<path fill-rule="evenodd" clip-rule="evenodd" fill="#807F7F" d="M241.979,145.079v12.616c0,0-40.243,0-48.134,0
		c-6.511,0-12.231-7.294-12.231-12.616c0-3.548,0-23.654,0-29.174c0-5.519,6.708-12.221,13.414-12.221c6.708,0,45.767,0,45.767,0
		v12.616h-41.82v8.673h39.849v11.433h-40.243v8.673H241.979z M114.894,118.774v38.523H98.215v-53.614h25.615l30.977,39.118v-39.118
		h16.48v53.812h-25.218L114.894,118.774z M87.095,146.376c-1.629,5.273-6.966,10.854-13.7,11.318
		c-7.118,0.491-35.005,0.567-42.495,0c-6.512-0.493-13.731-5.834-15.29-10.921c-0.89-2.909-1.142-9.767-1.142-16.084
		c0-6.021,0.297-12.794,1.188-15.687c1.624-5.273,7.047-10.051,13.654-11.318c5.884-1.129,36.596-0.987,45.276,0
		c6.511,0.74,11.542,6.628,13.104,11.715c0.894,2.909,0.596,8.973,0.596,15.29C88.286,136.71,87.988,143.483,87.095,146.376z
		 M70.922,122.954c-0.694-2.507-2.929-5.409-5.818-5.773c-3.855-0.486-24.917-0.557-27.384,0c-2.771,0.625-5.046,2.979-5.727,5.577
		c-0.373,1.425-0.498,4.763-0.498,7.731c0,3.113,0.105,6.493,0.479,7.926c0.654,2.507,3.682,5.139,6.412,5.382
		c3.142,0.279,23.027,0.241,26.188,0c2.99-0.229,5.359-2.979,6.083-5.578c0.397-1.425,0.529-4.763,0.529-7.73
		C71.187,127.375,71.318,124.387,70.922,122.954z"/>
	<g>
		<path fill-rule="evenodd" clip-rule="evenodd" fill="#2E2E2E" d="M51.34,158.687c-9.527,0-17.186-0.149-20.485-0.398
			c-6.612-0.501-14.149-5.906-15.814-11.341c-0.966-3.155-1.168-10.583-1.168-16.259c0-3.584,0.118-12.304,1.214-15.862
			c1.738-5.645,7.541-10.468,14.111-11.728c2.627-0.504,10.384-0.805,20.749-0.805c10.579,0,20.508,0.321,24.707,0.798
			c6.721,0.764,11.933,6.681,13.606,12.132c0.737,2.399,0.695,6.678,0.646,11.632c-0.012,1.25-0.024,2.536-0.024,3.833
			c0,3.584-0.119,12.305-1.218,15.863c-1.688,5.461-7.116,11.247-14.229,11.737C69.978,158.527,61.098,158.687,51.34,158.687z
			 M50.281,117.385c-6.536,0-11.416,0.148-12.431,0.377c-2.461,0.555-4.633,2.671-5.281,5.147c-0.3,1.145-0.479,3.979-0.479,7.58
			c0,3.876,0.163,6.638,0.459,7.776c0.606,2.323,3.468,4.723,5.889,4.939c1.34,0.119,6.093,0.193,12.405,0.193
			c6.563,0,12.19-0.08,13.686-0.193c2.735-0.21,4.903-2.807,5.554-5.144c0.318-1.14,0.508-3.97,0.508-7.571
			c0-0.641,0.006-1.276,0.011-1.894c0.021-2.275,0.039-4.423-0.254-5.482c-0.649-2.346-2.734-5.015-5.318-5.341
			C63.223,117.544,57.158,117.385,50.281,117.385z M193.845,158.29c-6.788,0-12.827-7.388-12.827-13.211v-29.174
			c0-5.596,6.794-12.816,14.01-12.816h46.362v13.807h-41.82v7.482h39.849v12.624h-40.243v7.482h43.399v13.807H193.845z
			 M145.784,158.091l-30.295-37.627v37.429h-17.87v-54.805h26.499l30.093,38.002v-38.002h17.672v55.003H145.784z"/>
		<path fill="#2D2D2D" d="M49.946,102.889c9.787,0,20.153,0.285,24.64,0.794c6.511,0.74,11.542,6.628,13.104,11.715
			c0.894,2.909,0.596,8.973,0.596,15.29c0,6.022-0.298,12.795-1.191,15.688c-1.629,5.273-6.966,10.854-13.7,11.318
			c-3.687,0.254-12.946,0.397-22.055,0.397c-8.48,0-16.829-0.124-20.44-0.397c-6.512-0.493-13.731-5.834-15.29-10.921
			c-0.89-2.909-1.142-9.767-1.142-16.084c0-6.021,0.297-12.794,1.188-15.687c1.624-5.273,7.047-10.051,13.654-11.318
			C32.152,103.138,40.796,102.889,49.946,102.889 M50.844,143.993c5.964,0,12.092-0.07,13.73-0.195
			c2.99-0.229,5.359-2.979,6.083-5.578c0.397-1.425,0.529-4.763,0.529-7.73c0-3.113,0.132-6.102-0.265-7.535
			c-0.694-2.507-2.929-5.409-5.818-5.773c-1.992-0.251-8.58-0.392-14.822-0.392c-5.836,0-11.369,0.123-12.562,0.392
			c-2.771,0.625-5.046,2.979-5.727,5.577c-0.373,1.425-0.498,4.763-0.498,7.731c0,3.113,0.105,6.493,0.479,7.926
			c0.654,2.507,3.682,5.139,6.412,5.382C39.899,143.932,45.3,143.993,50.844,143.993 M240.794,103.684v12.616h-41.82v8.673h39.849
			v11.433h-40.243v8.673h43.399v12.616c0,0-40.243,0-48.134,0c-6.511,0-12.231-7.294-12.231-12.616c0-3.548,0-23.654,0-29.174
			c0-5.519,6.708-12.221,13.414-12.221C201.735,103.684,240.794,103.684,240.794,103.684 M171.287,103.684v53.812h-25.218
			l-31.176-38.721v38.523H98.215v-53.614h25.615l30.977,39.118v-39.118H171.287 M49.95,101.698v1.191V101.698
			c-3.9,0-16.921,0.059-20.865,0.816c-6.777,1.3-12.768,6.291-14.568,12.138c-1.079,3.504-1.24,11.552-1.24,16.037
			c0,5.716,0.207,13.207,1.193,16.433c1.728,5.639,9.516,11.244,16.34,11.761c3.313,0.251,10.988,0.4,20.53,0.4
			c9.771,0,18.666-0.161,22.137-0.4c7.38-0.509,13.01-6.5,14.757-12.155c1.083-3.505,1.244-11.554,1.244-16.039
			c0-1.294,0.013-2.579,0.024-3.827c0.049-5.004,0.092-9.325-0.673-11.813c-1.73-5.636-7.133-11.756-14.108-12.549
			C69.848,101.946,58.769,101.698,49.95,101.698L49.95,101.698z M50.844,142.801c-6.2,0-11.049-0.075-12.353-0.19
			c-2.165-0.193-4.823-2.42-5.364-4.497c-0.284-1.09-0.44-3.798-0.44-7.625c0-3.553,0.172-6.331,0.459-7.429
			c0.595-2.27,2.583-4.209,4.836-4.717c0.8-0.18,4.913-0.362,12.3-0.362c6.747,0,12.918,0.161,14.673,0.382
			c2.329,0.293,4.222,2.748,4.819,4.909c0.271,0.978,0.252,3.086,0.232,5.318c-0.005,0.62-0.011,1.257-0.011,1.899
			c0,3.55-0.182,6.32-0.485,7.411c-0.597,2.143-2.561,4.521-5.026,4.71C63.002,142.723,57.394,142.801,50.844,142.801
			L50.844,142.801z M241.985,102.492h-1.191h-45.767c-7.098,0-14.605,6.894-14.605,13.412v29.174c0,6.086,6.32,13.807,13.423,13.807
			h48.134h1.191v-1.191v-12.616v-1.191h-1.191h-42.208v-6.291h39.052h1.191v-1.191v-11.433v-1.191h-1.191h-38.657v-6.291h40.629
			h1.191v-1.191v-12.616V102.492L241.985,102.492z M172.479,102.492h-1.191h-16.48h-1.191v1.191v35.694l-28.852-36.434l-0.357-0.452
			h-0.576H98.215h-1.191v1.191v53.614v1.191h1.191h16.679h1.191v-1.191v-35.144l29.057,36.089l0.357,0.444h0.57h25.218h1.191v-1.191
			v-53.812V102.492L172.479,102.492z"/>
	</g>
	<path fill-rule="evenodd" clip-rule="evenodd" fill="#2E2E2E" d="M127.901,6.567c14.319,0,25.928,11.609,25.928,25.929
		c0,14.32-11.608,25.93-25.928,25.93c-14.321,0-25.93-11.609-25.93-25.93C101.972,18.176,113.58,6.567,127.901,6.567z"/>
	<g>
		<linearGradient id="SVGID_10_" gradientUnits="userSpaceOnUse" x1="127.9229" y1="55.9731" x2="127.9229" y2="8.9746">
			<stop  offset="0.0591" style="stop-color:#FFFFFF"/>
			<stop  offset="1" style="stop-color:#808081"/>
		</linearGradient>
		<path fill-rule="evenodd" clip-rule="evenodd" fill="url(#SVGID_10_)" d="M127.923,55.973c-12.979,0-23.499-10.521-23.499-23.499
			c0-12.979,10.521-23.5,23.499-23.5s23.499,10.521,23.499,23.5C151.422,45.452,140.901,55.973,127.923,55.973z M127.903,11.408
			c-11.645,0-21.085,9.44-21.085,21.085c0,11.646,9.44,21.085,21.085,21.085c11.646,0,21.086-9.44,21.086-21.085
			C148.989,20.848,139.55,11.408,127.903,11.408z M127.923,51.469c-2.189,0-4.292-0.369-6.251-1.048l25.335-18.14
			c0,0.035,0,0.069,0,0.104C147.007,42.925,138.464,51.469,127.923,51.469z M109.854,38.54l18.061-25.24c0.003,0,0.006,0,0.009,0
			c4.248,0,8.173,1.389,11.344,3.736l-26.513,26.929C111.512,42.342,110.525,40.514,109.854,38.54z"/>
		<linearGradient id="SVGID_11_" gradientUnits="userSpaceOnUse" x1="127.9229" y1="8.9746" x2="127.9229" y2="55.9731">
			<stop  offset="0" style="stop-color:#D9DBDC"/>
			<stop  offset="1" style="stop-color:#6D6E70"/>
		</linearGradient>
		<path fill="url(#SVGID_11_)" d="M127.923,9.372c12.738,0,23.102,10.364,23.102,23.103c0,12.738-10.363,23.102-23.102,23.102
			s-23.102-10.364-23.102-23.102C104.821,19.735,115.185,9.372,127.923,9.372 M127.903,53.975c11.846,0,21.483-9.637,21.483-21.482
			c0-11.845-9.638-21.482-21.483-21.482s-21.482,9.637-21.482,21.482C106.421,44.338,116.058,53.975,127.903,53.975 M128.117,13.698
			c3.81,0.039,7.441,1.207,10.542,3.39l-25.863,26.27c-1.063-1.46-1.901-3.057-2.5-4.753L128.117,13.698 M146.598,33.063
			c-0.358,9.992-8.598,18.01-18.675,18.01c-1.834,0-3.641-0.265-5.38-0.787L146.598,33.063 M127.923,8.975
			c-12.979,0-23.499,10.521-23.499,23.5c0,12.978,10.521,23.499,23.499,23.499s23.499-10.521,23.499-23.499
			C151.422,19.496,140.901,8.975,127.923,8.975L127.923,8.975z M127.903,53.578c-11.645,0-21.085-9.44-21.085-21.085
			c0-11.645,9.44-21.085,21.085-21.085c11.646,0,21.086,9.44,21.086,21.085C148.989,44.138,139.55,53.578,127.903,53.578
			L127.903,53.578z M127.923,13.3c-0.003,0-0.006,0-0.009,0l-18.061,25.24c0.672,1.974,1.658,3.802,2.9,5.426l26.513-26.929
			C136.096,14.689,132.171,13.3,127.923,13.3L127.923,13.3z M147.007,32.281l-25.335,18.14c1.959,0.679,4.062,1.048,6.251,1.048
			c10.541,0,19.084-8.544,19.084-19.084C147.007,32.351,147.007,32.316,147.007,32.281L147.007,32.281z"/>
	</g>
	<g>
		<linearGradient id="SVGID_12_" gradientUnits="userSpaceOnUse" x1="130.5449" y1="18.8672" x2="130.5449" y2="49.3027">
			<stop  offset="0" style="stop-color:#32B2E6"/>
			<stop  offset="1" style="stop-color:#2CA1DA"/>
		</linearGradient>
		<path fill-rule="evenodd" clip-rule="evenodd" fill="url(#SVGID_12_)" d="M119.085,49.303c-1.743-0.912-3.327-2.085-4.7-3.467
			l27.01-26.968c2.706,2.697,4.606,6.2,5.312,10.119L119.085,49.303z"/>
		<linearGradient id="SVGID_13_" gradientUnits="userSpaceOnUse" x1="130.5449" y1="49.3027" x2="130.5449" y2="18.8672">
			<stop  offset="0" style="stop-color:#32B2E6"/>
			<stop  offset="1" style="stop-color:#2CA1DA"/>
		</linearGradient>
		<path fill="url(#SVGID_13_)" d="M141.392,19.431c2.513,2.609,4.193,5.841,4.878,9.383l-27.219,20.021
			c-1.498-0.81-2.875-1.817-4.103-3.001L141.392,19.431 M141.395,18.867l-27.01,26.968c1.373,1.382,2.957,2.555,4.7,3.467
			l27.621-20.316C146.001,25.067,144.101,21.564,141.395,18.867L141.395,18.867z"/>
	</g>
	<g>
		<g>
			<g>
				<linearGradient id="SVGID_14_" gradientUnits="userSpaceOnUse" x1="128.2227" y1="158.0913" x2="128.2227" y2="102.8892">
					<stop  offset="0.4138" style="stop-color:#FFFFFF"/>
					<stop  offset="1" style="stop-color:#808081"/>
				</linearGradient>
				<path fill="url(#SVGID_14_)" d="M74.586,103.684c-8.681-0.987-39.393-1.129-45.276,0c-6.607,1.268-12.03,6.045-13.654,11.318
					c-0.891,2.892-1.188,9.665-1.188,15.687c0,6.317,0.252,13.176,1.142,16.084c1.559,5.087,8.778,10.428,15.29,10.921
					c7.49,0.567,35.377,0.491,42.495,0c6.734-0.464,12.071-6.045,13.7-11.318c0.894-2.893,1.191-9.666,1.191-15.688
					c0-6.317,0.298-12.381-0.596-15.29C86.128,110.312,81.097,104.423,74.586,103.684z M71.187,130.489
					c0,2.967-0.132,6.305-0.529,7.73c-0.724,2.599-3.093,5.349-6.083,5.578c-3.161,0.241-23.047,0.279-26.188,0
					c-2.73-0.243-5.758-2.875-6.412-5.382c-0.373-1.434-0.479-4.813-0.479-7.926c0-2.968,0.125-6.306,0.498-7.731
					c0.681-2.598,2.955-4.953,5.727-5.577c2.467-0.557,23.528-0.486,27.384,0c2.89,0.364,5.124,3.266,5.818,5.773
					C71.318,124.387,71.187,127.375,71.187,130.489z M198.579,145.079v-8.673h40.243v-11.433h-39.849v-8.673h41.82v-12.616
					c0,0-39.059,0-45.767,0c-6.706,0-13.414,6.702-13.414,12.221c0,5.52,0,25.626,0,29.174c0,5.322,5.721,12.616,12.231,12.616
					c7.891,0,48.134,0,48.134,0v-12.616H198.579z M154.807,142.802l-30.977-39.118H98.215v53.614h16.679v-38.523l31.176,38.721
					h25.218v-53.812h-16.48V142.802z"/>
			</g>
		</g>
		<g>
			<g>
				<linearGradient id="SVGID_15_" gradientUnits="userSpaceOnUse" x1="128.3027" y1="158.0913" x2="128.3027" y2="99.9082">
					<stop  offset="0.1429" style="stop-color:#FFFFFF"/>
					<stop  offset="0.5" style="stop-color:#BABABB"/>
					<stop  offset="1" style="stop-color:#B9B8B9"/>
				</linearGradient>
				<path fill="url(#SVGID_15_)" d="M71.187,130.489c0,2.967-0.132,6.305-0.529,7.73c-0.724,2.599-3.093,5.349-6.083,5.578
					c-3.161,0.241-23.047,0.279-26.188,0c-2.73-0.243-5.758-2.875-6.412-5.382c-0.202-0.779-0.326-2.135-0.397-3.71
					c-6.056,1.178-11.724,2.457-16.95,3.824c0.161,3.498,0.464,6.545,0.983,8.244c1.559,5.087,8.778,10.428,15.29,10.921
					c7.49,0.567,35.377,0.491,42.495,0c6.734-0.464,12.071-6.045,13.7-11.318c0.894-2.893,1.191-9.666,1.191-15.688
					c0-1.05,0.008-2.094,0.018-3.117c-5.854,0.414-11.563,0.903-17.109,1.459C71.189,129.511,71.187,129.998,71.187,130.489z
					 M98.215,157.297h16.679v-31.055c-5.657,0.17-11.223,0.407-16.679,0.707V157.297z M198.579,145.079v-8.673h40.243v-2.099
					c-16.595-3.12-35.992-5.498-57.209-6.91v17.683c0,5.322,5.721,12.616,12.231,12.616c7.891,0,48.134,0,48.134,0v-12.616H198.579z
					 M154.807,142.802l-13.351-16.859c-1.732-0.012-3.47-0.019-5.216-0.019c-5.214,0-10.368,0.057-15.456,0.167l25.285,31.406
					h25.218v-30.703c-5.396-0.272-10.895-0.483-16.48-0.629V142.802z"/>
			</g>
		</g>
		<g>
			<g>
				<linearGradient id="SVGID_16_" gradientUnits="userSpaceOnUse" x1="128.2227" y1="102.4922" x2="128.2227" y2="158.4888">
					<stop  offset="0" style="stop-color:#FFFFFF"/>
					<stop  offset="1" style="stop-color:#6D6E70"/>
				</linearGradient>
				<path fill="none" stroke="url(#SVGID_16_)" stroke-width="0.7943" stroke-miterlimit="10" d="M74.586,103.684
					c-8.681-0.987-39.393-1.129-45.276,0c-6.607,1.268-12.03,6.045-13.654,11.318c-0.891,2.892-1.188,9.665-1.188,15.687
					c0,6.317,0.252,13.176,1.142,16.084c1.559,5.087,8.778,10.428,15.29,10.921c7.49,0.567,35.377,0.491,42.495,0
					c6.734-0.464,12.071-6.045,13.7-11.318c0.894-2.893,1.191-9.666,1.191-15.688c0-6.317,0.298-12.381-0.596-15.29
					C86.128,110.312,81.097,104.423,74.586,103.684z M71.187,130.489c0,2.967-0.132,6.305-0.529,7.73
					c-0.724,2.599-3.093,5.349-6.083,5.578c-3.161,0.241-23.047,0.279-26.188,0c-2.73-0.243-5.758-2.875-6.412-5.382
					c-0.373-1.434-0.479-4.813-0.479-7.926c0-2.968,0.125-6.306,0.498-7.731c0.681-2.598,2.955-4.953,5.727-5.577
					c2.467-0.557,23.528-0.486,27.384,0c2.89,0.364,5.124,3.266,5.818,5.773C71.318,124.387,71.187,127.375,71.187,130.489z
					 M154.807,142.802l-30.977-39.118H98.215v53.614h16.679v-38.523l31.176,38.721h25.218v-53.812h-16.48V142.802z M198.579,145.079
					v-8.673h40.243v-11.433h-39.849v-8.673h41.82v-12.616c0,0-39.059,0-45.767,0c-6.706,0-13.414,6.702-13.414,12.221v29.174
					c0,5.322,5.721,12.616,12.231,12.616c7.891,0,48.134,0,48.134,0v-12.616H198.579z"/>
			</g>
		</g>
	</g>
</g>
</svg>
