<?xml version="1.0" encoding="utf-8"?>
<!-- Generator: Adobe Illustrator 23.0.3, SVG Export Plug-In . SVG Version: 6.00 Build 0)  -->
<svg version="1.1" id="Layer_1" xmlns="http://www.w3.org/2000/svg" xmlns:xlink="http://www.w3.org/1999/xlink" x="0px" y="0px"
	 width="256px" height="256px" viewBox="0 0 256 256" enable-background="new 0 0 256 256" xml:space="preserve">
<g>
	<path fill="#F4F2F2" d="M213.337,142.085c-0.915-1.045-1.799-2.054-2.711-3.094c0.614-2.464,1.224-4.899,1.827-7.335
		c1.029-4.157,2.071-8.311,3.062-12.474c0.159-0.666,0.487-1.115,1.087-1.51c1.228-0.807,2.405-1.675,3.589-2.508
		c5.158,0,10.275,0,15.527,0c-0.577,2.283-1.13,4.476-1.702,6.74c-3.779,0-7.465,0-11.272,0c-0.351,1.169-0.685,2.278-1.065,3.544
		c3.905,0,7.626,0,11.513,0c-0.601,2.344-1.164,4.537-1.748,6.813c-3.777,0-7.461,0-11.243,0c-0.153,0.606-0.296,1.128-0.414,1.655
		c-0.111,0.495-0.194,0.996-0.319,1.645c3.741-0.157,7.408-0.343,11.183-0.194c-0.603,2.282-1.181,4.471-1.775,6.718
		C223.685,142.085,218.566,142.085,213.337,142.085z"/>
	<path fill="#F4F2F2" d="M21.293,129.539c-0.747,3.047-1.44,5.948-2.188,8.837c-0.099,0.383-0.4,0.792-0.74,1.045
		c-1.27,0.945-2.595,1.831-3.86,2.711c-3.914,0-7.738,0-11.73,0C1.92,141.18,0.998,140.155,0,139.046
		c0.5-1.976,1.006-3.977,1.52-6.006c2.616,0,5.076,0,7.673,0c-0.111,0.712-0.215,1.38-0.336,2.151c1.159,0,2.214,0,3.432,0
		c0.395-1.226,0.802-2.489,1.223-3.794c-0.883-0.393-1.755-0.155-2.593-0.196c-0.867-0.043-1.739-0.01-2.609-0.01
		c-0.867,0-1.735,0-2.653,0c-0.928-1.049-1.842-2.083-2.856-3.229c0.768-3.115,1.546-6.273,2.339-9.492
		c1.491-1.036,3.001-2.084,4.479-3.111c3.807,0,7.544,0,11.465,0c1.011,0.965,2.106,2.01,3.284,3.134
		c-0.594,1.953-1.195,3.932-1.802,5.929c-2.556,0-5.017,0-7.677,0c0.332-0.852,0.622-1.598,0.946-2.431c-1.312,0-2.474,0-3.744,0
		c-0.392,1.265-0.784,2.531-1.227,3.962c1.343,0.167,2.586,0.064,3.817,0.082c1.214,0.018,2.429,0.004,3.72,0.004
		C19.361,127.202,20.315,128.355,21.293,129.539z"/>
	<path fill="#F4F2F2" d="M31.222,121.929c-2.035,0-3.887,0-5.886,0c0.611-2.322,1.187-4.508,1.754-6.663
		c1.206-0.243,18.16-0.231,19.215,0.013c-0.559,2.158-1.118,4.317-1.711,6.605c-1.82,0.13-3.677-0.009-5.631,0.081
		c-1.705,6.711-3.404,13.393-5.112,20.114c-2.576,0-5.068,0-7.705,0C27.839,135.362,29.504,128.751,31.222,121.929z"/>
	<path fill="#F4F2F2" d="M135.216,135.261c0.858-3.445,1.693-6.748,2.5-10.056c0.813-3.335,1.815-6.634,2.522-10.109
		c-3.732,0-7.291,0.008-10.85-0.002c-3.593-0.011-7.187,0.048-10.878-0.04c-0.333-6.074-0.659-12.02-0.985-17.966
		c-0.09-0.027-0.179-0.053-0.269-0.08c-4.077,6.014-8.047,12.088-12.148,18.129c-12.038,0-23.99,0-36.021,0
		c-2.214,9.02-4.411,17.969-6.636,27.035c2.67,0.016,5.171,0.037,7.717-0.01c0.965-3.408,1.894-6.691,2.845-10.053
		c1.175,0.053,2.236-0.124,3.443,0.153c-0.826,3.307-1.638,6.555-2.481,9.931c2.592-0.027,5.007,0.028,7.45-0.038
		c0.879-3.484,1.721-6.824,2.543-10.082c-1.033-1.18-1.967-2.248-2.963-3.386c0.348-0.298,0.609-0.545,0.897-0.764
		c0.964-0.732,1.92-1.472,2.914-2.17c0.474-0.333,0.766-0.719,0.883-1.247c0.254-1.15,0.534-2.296,0.808-3.442
		c0.253-1.058,0.511-2.114,0.819-3.382c3.485,2.813,6.795,5.486,10.154,8.198c-4.135,6.287-8.202,12.472-12.27,18.658
		c0.074,0.064,0.147,0.128,0.221,0.192c6.999-3.883,13.998-7.766,21.033-11.67c4.484,3.594,8.888,7.124,13.292,10.654
		c0.093-0.039,0.186-0.078,0.278-0.116c-0.315-5.751-0.63-11.501-0.946-17.255c4.034-2.19,7.956-4.318,11.879-6.447
		c0.076,0.054,0.151,0.108,0.227,0.162c-1.506,6.248-3.011,12.495-4.514,18.731c0.955,1.155,1.86,2.248,2.749,3.323
		c5.266,0,10.339,0,15.525,0c0.477-2.287,1.289-4.455,1.68-6.85C142.77,135.261,139.091,135.261,135.216,135.261z M78.054,125.141
		c-1.153,0-2.249,0-3.509,0c0.257-1.168,0.495-2.251,0.741-3.367c1.248,0,2.434,0,3.77,0
		C78.687,123.013,78.378,124.053,78.054,125.141z"/>
	<path fill="#CF2327" d="M115.561,110.577c0.121,2.05,0.288,4.098,0.5,6.142c0.024,0.233,0.022,0.468,0.231,0.696
		c0.388,0.267,0.881,0.13,1.339,0.132c3.853,0.012,7.706,0.035,11.559,0.043c0.426,0.001,0.621,0.026,1.088,0
		c0.888-0.001,0.44-0.016,1.037,0c-0.425,0.313-1.222,0.74-1.556,0.908c-2.566,1.285-4.879,2.499-7.43,3.807
		c-1.896,0.973-3.739,2.031-5.706,3.107c0.068,4.522,0.527,9.015,0.598,13.572c-3.579-2.583-6.86-5.391-10.166-8.185
		c-2.425,1.343-4.731,2.655-7.075,3.908c-2.327,1.244-4.5,2.734-7.239,3.793c0.152-0.39,0.194-0.594,0.304-0.764
		c1.236-1.919,2.476-3.837,3.729-5.748c1.318-2.01,2.652-4.012,4.012-6.068c-3.32-2.707-6.576-5.363-10.058-8.202
		c5.277,0,10.207,0,15.154,0c0.23-0.218,0.481-0.385,0.63-0.607c2.275-3.403,3.947-5.911,6.202-9.325
		c0.436-0.66,1.5-2.164,2.472-3.447"/>
	<path fill="#F4F2F2" d="M211.272,115.142c-5.208,0-10.284,0-15.498,0c-2.298,9.027-4.569,17.945-6.863,26.954
		c5.341,0,10.541,0,15.819,0c1.433-0.999,2.906-2.025,4.419-3.079c1.713-6.939,3.423-13.867,5.124-20.758
		C213.2,117.144,212.21,116.116,211.272,115.142z M202.216,135.227c-1.315,0-2.431,0-3.736,0c1.088-4.565,2.307-9.007,3.516-13.451
		c1.279,0,2.475,0,3.777,0C204.576,126.303,203.402,130.74,202.216,135.227z"/>
	<path fill="#F4F2F2" d="M190.298,115.16c-5.185,0-10.302,0-15.518,0c-2.277,8.947-4.543,17.852-6.854,26.933
		c5.384,0,10.586,0,15.822,0c1.429-0.996,2.871-2,4.406-3.069c1.699-6.862,3.414-13.791,5.14-20.759
		C192.266,117.198,191.274,116.171,190.298,115.16z M181.262,135.219c-1.285,0-2.439,0-3.592,0
		c-0.063-0.951,2.699-11.771,3.448-13.473c1.191,0,2.31,0,3.606,0C183.717,126.308,182.33,130.711,181.262,135.219z"/>
	<path fill="#F4F2F2" d="M255.815,118.255c-0.947-1.132-1.805-2.156-2.594-3.099c-5.24,0-10.316,0-15.475,0
		c-2.283,8.969-4.555,17.897-6.853,26.926c2.626,0,5.123,0,7.719,0c1.025-3.258,2.048-6.509,3.055-9.712c1.202,0,2.263,0,3.48,0
		c-0.836,3.394-1.645,6.676-2.493,10.119c2.619-0.044,5.027,0.066,7.406-0.067c0.896-3.476,1.756-6.815,2.606-10.115
		c-1.009-1.144-1.949-2.208-3.027-3.43c1.572-1.196,3.024-2.301,4.595-3.497C254.706,123.04,255.643,120.68,255.815,118.255z
		 M246.466,125.128c-1.167,0-2.264,0-3.5,0c0.275-1.186,0.526-2.272,0.778-3.361c1.257,0,2.411,0,3.754,0
		C247.139,122.94,246.81,124.01,246.466,125.128z"/>
	<path fill="#F4F2F2" d="M169.01,115.134c-3.84,0-7.617,0-11.45,0c-1.339,0.871-2.706,1.77-4.085,2.653
		c-0.493,0.315-0.73,0.728-0.858,1.255c-1.34,5.491-2.7,10.978-4.055,16.466c-0.534,2.161-1.069,4.322-1.646,6.65
		c2.556-0.001,5.001,0.018,7.491-0.01c0.613-2.37,1.188-4.593,1.755-6.784c1.344,0,2.502,0,3.786,0
		c-0.59,2.271-1.158,4.454-1.749,6.727c2.618,0,5.115,0,7.732,0c1.96-7.985,3.913-15.939,5.85-23.832
		C170.789,117.139,169.898,116.134,169.01,115.134z M161.756,128.848c-1.263,0-2.418,0-3.754,0c0.438-2.336,1.222-4.512,1.746-6.862
		c1.178,0,2.247,0,3.493,0C162.803,124.319,162.24,126.565,161.756,128.848z"/>
	<path fill="#F4F2F2" d="M63.204,115.231c-3.84,0-7.617,0-11.45,0c-1.339,0.871-2.706,1.77-4.085,2.653
		c-0.493,0.315-0.73,0.728-0.858,1.255c-1.34,5.491-2.7,10.978-4.055,16.466c-0.534,2.161-1.069,4.322-1.646,6.65
		c2.556-0.001,5.001,0.018,7.491-0.01c0.613-2.37,1.188-4.593,1.755-6.784c1.344,0,2.502,0,3.786,0
		c-0.59,2.271-1.158,4.454-1.749,6.727c2.618,0,5.115,0,7.732,0c1.96-7.985,3.913-15.939,5.85-23.832
		C64.983,117.236,64.092,116.232,63.204,115.231z M55.95,128.946c-1.263,0-2.418,0-3.754,0c0.438-2.336,1.222-4.512,1.746-6.862
		c1.178,0,2.247,0,3.493,0C56.997,124.417,56.434,126.663,55.95,128.946z"/>
</g>
</svg>
