<?xml version="1.0" encoding="utf-8"?>
<!-- Generator: Adobe Illustrator 16.0.3, SVG Export Plug-In . SVG Version: 6.00 Build 0)  -->
<!DOCTYPE svg PUBLIC "-//W3C//DTD SVG 1.1//EN" "http://www.w3.org/Graphics/SVG/1.1/DTD/svg11.dtd">
<svg version="1.1" id="Layer_1" xmlns="http://www.w3.org/2000/svg" xmlns:xlink="http://www.w3.org/1999/xlink" x="0px" y="0px"
	 width="256px" height="256px" viewBox="0 0 256 256" enable-background="new 0 0 256 256" xml:space="preserve">
<g>
	<g>
		<polygon fill="#261F1F" points="48.578,59.966 60.467,40.463 50.754,25.09 39.231,44.872 		"/>
		<polygon fill="#261F1F" points="33.775,54.237 22.942,72.835 31.906,87.31 42.993,69.125 		"/>
		<polygon fill="#261F1F" points="17.486,82.199 4.375,104.708 7.887,110.992 12.715,118.79 26.323,96.469 		"/>
	</g>
	<polyline fill="#261F1F" points="1,119.354 13.938,119.354 26.716,140.729 12.653,140.729 	"/>
	<polygon fill="#FE7008" points="31.4,141.007 15.998,115.361 60.387,40.277 56.61,34.372 9.254,115.496 9.424,115.597 
		24.686,141.007 	"/>
</g>
<polygon fill="#D76C0A" points="73.958,24.425 180.109,24.425 233.292,115.736 215.088,146.941 251.164,146.941 229.613,186.032 
	192.673,186.032 180.217,207.696 73.958,207.696 61.501,185.926 25.533,185.926 2.902,146.945 39.625,146.945 21.854,115.953 "/>
<radialGradient id="SVGID_1_" cx="127.2129" cy="116.085" r="107.9235" gradientTransform="matrix(1 0 0 0.6 0 46.434)" gradientUnits="userSpaceOnUse">
	<stop  offset="0" style="stop-color:#212121"/>
	<stop  offset="0.403" style="stop-color:#1A1A1A"/>
	<stop  offset="1" style="stop-color:#050505"/>
</radialGradient>
<polygon fill="url(#SVGID_1_)" points="74.71,25.438 179.716,25.438 232.325,115.764 213.682,147.586 250.005,147.586 
	229.004,185.303 192.145,185.303 179.823,206.732 74.71,206.732 62.389,185.196 26.172,185.196 4.421,147.908 41.066,147.908 
	22.851,115.978 "/>
<polygon fill="#D76C0A" points="80.959,35.456 87.328,47.104 165.981,47.136 172.626,35.458 219.019,115.495 200.279,148.068 
	53.144,148.068 34.724,115.924 "/>
<radialGradient id="SVGID_2_" cx="126.6582" cy="92.0293" r="75.4156" gradientTransform="matrix(1 0 0 0.7 0 27.6088)" gradientUnits="userSpaceOnUse">
	<stop  offset="0.4816" style="stop-color:#141414"/>
	<stop  offset="1" style="stop-color:#000000"/>
</radialGradient>
<polygon fill="url(#SVGID_2_)" points="80.853,36.795 86.746,47.831 166.356,47.831 172.464,36.902 217.895,115.335 
	199.572,147.265 53.637,147.265 35.422,115.978 "/>
<g>
	<polygon fill="#D76C0A" points="74.729,185.463 81.185,197.005 174.116,197.005 180.135,185.343 	"/>
	<polygon fill="#0A0A09" points="75.894,186.107 81.893,196.5 173.398,196.5 178.969,186 	"/>
</g>
<linearGradient id="SVGID_3_" gradientUnits="userSpaceOnUse" x1="77.3164" y1="94.3887" x2="175.999" y2="94.3887">
	<stop  offset="0" style="stop-color:#F16522"/>
	<stop  offset="0.4025" style="stop-color:#F16522"/>
	<stop  offset="0.4688" style="stop-color:#F16522"/>
	<stop  offset="0.478" style="stop-color:#F26822"/>
	<stop  offset="0.4852" style="stop-color:#F37220"/>
	<stop  offset="0.4917" style="stop-color:#F6831D"/>
	<stop  offset="0.4978" style="stop-color:#FA9A1A"/>
	<stop  offset="0.5036" style="stop-color:#FFB815"/>
	<stop  offset="0.5037" style="stop-color:#FFB815"/>
	<stop  offset="0.5186" style="stop-color:#F8AC16"/>
	<stop  offset="0.5629" style="stop-color:#E78E1A"/>
	<stop  offset="0.6119" style="stop-color:#D9751D"/>
	<stop  offset="0.6668" style="stop-color:#CE621F"/>
	<stop  offset="0.7307" style="stop-color:#C65521"/>
	<stop  offset="0.8119" style="stop-color:#C14D22"/>
	<stop  offset="0.9688" style="stop-color:#C04B22"/>
	<stop  offset="0.9861" style="stop-color:#C06122"/>
	<stop  offset="1" style="stop-color:#C07622"/>
</linearGradient>
<polygon fill="url(#SVGID_3_)" points="77.423,73.655 97.567,107.728 126.604,57.797 155.428,107.835 175.999,73.655 
	175.893,130.98 77.316,130.871 "/>
<g>
	<g>
		<polygon fill="#261F1F" points="207.256,59.966 195.367,40.463 205.08,25.09 216.603,44.872 		"/>
		<polygon fill="#261F1F" points="222.059,54.237 232.892,72.835 223.928,87.31 212.841,69.125 		"/>
		<polygon fill="#261F1F" points="238.348,82.199 251.458,104.708 247.947,110.992 243.12,118.79 229.511,96.469 		"/>
	</g>
	<polyline fill="#261F1F" points="254.834,119.354 241.896,119.354 229.118,140.729 243.181,140.729 	"/>
	<polygon fill="#FE7008" points="224.434,141.006 239.836,115.361 195.446,40.277 199.224,34.372 246.58,115.496 246.41,115.597 
		231.148,141.006 	"/>
</g>
<path fill-rule="evenodd" clip-rule="evenodd" fill="#FE7008" d="M146.477,34.948c-0.903-0.871-2.168-0.788-3.233-1.237
	c-0.398-0.779,0.097-0.922,0.702-0.983c1.387,0.072,2.934,0.862,3.917-0.876c0.54-0.114,0.65-0.607,0.88-0.995
	c0.309-0.004,0.776-0.072,0.792,0.296c0.058,1.398,0.093,2.809-0.021,4.2c-0.04,0.479-0.71,0.251-1.105,0.293
	C147.763,35.412,147.121,35.18,146.477,34.948z"/>
<path fill-rule="evenodd" clip-rule="evenodd" fill="#F2F2F3" d="M159.611,34.298c-0.87,1.257-0.365,2.67-0.351,3.988
	c0.015,1.418-0.542,1.62-1.781,1.642c-1.283,0.021-1.624-0.379-1.635-1.622c-0.012-1.33,0.451-2.727-0.317-4.003
	c-0.687-0.445-1.451-0.075-2.171-0.202c-0.378-0.067-0.786-0.103-0.801-0.589c-0.018-0.562,0.378-0.692,0.856-0.693
	c2.766,0,5.532-0.006,8.298-0.004c0.439,0,0.899,0.023,0.917,0.622c0.022,0.737-0.554,0.608-1.012,0.67
	C160.949,34.197,160.243,33.874,159.611,34.298z"/>
<path fill-rule="evenodd" clip-rule="evenodd" fill="#F3F4F5" d="M110.181,33.129c2.584-0.605,2.723-0.532,4.78,2.558
	c0.545,1.086,1.075,2.181,1.642,3.255c0.344,0.65,0.273,1.014-0.547,0.949c-1.169-0.091-2.259-0.05-3.463-0.639
	c-1.082-0.529-2.772-0.76-4.021,0.334c-0.507,0.445-1.107,0.369-1.653,0.251c-0.563-0.125-0.132-0.617-0.189-0.937
	C108.151,37.139,108.593,34.791,110.181,33.129z M110.912,37.754c0.426-0.015,1.016,0.129,0.9-0.525
	c-0.104-0.576-0.382-1.434-0.923-1.434c-0.605-0.002-0.912,0.866-0.984,1.444C109.807,38.016,110.552,37.642,110.912,37.754z"/>
<path fill-rule="evenodd" clip-rule="evenodd" fill="#F3F3F5" d="M140.656,39.183c-0.84,0.875-6.997,1.031-7.722,0.198
	c-0.309-0.355-0.297-0.784-0.3-1.214c-0.007-1.123,0.069-2.254-0.037-3.368c-0.12-1.258,0.506-1.857,1.604-1.913
	c1.868-0.097,3.743-0.045,5.615-0.063c0.46-0.004,0.711,0.203,0.703,0.662c-0.009,0.493-0.356,0.607-0.767,0.609
	c-0.911,0.007-1.82,0.006-2.729,0.007c-0.611,0.001-1.046,0.174-1.018,0.911c0.025,0.684,0.473,0.742,0.992,0.739
	c0.802-0.003,1.605-0.02,2.407,0.001c0.451,0.013,1.091-0.15,1.111,0.566c0.022,0.834-0.683,0.646-1.181,0.659
	c-0.749,0.022-1.499,0.011-2.249,0c-0.592-0.006-1.11,0.104-1.091,0.842c0.02,0.749,0.595,0.749,1.15,0.789
	c1.158,0.082,2.352-0.28,3.474,0.27C140.568,38.988,140.581,39.089,140.656,39.183z"/>
<path fill-rule="evenodd" clip-rule="evenodd" fill="#F0F0F3" d="M120.462,34.088c2.246-1.428,4.753-1.367,7.267-1.284
	c0.459,0.016,0.897,0.09,0.896,0.662c-0.001,0.586-0.477,0.611-0.912,0.654c-1.154,0.111-2.336-0.234-3.469,0.212
	c-1.456,0.734-1.104,2.017-0.888,3.185c0.209,1.125,1.157,1.06,2.038,1.041c0.856-0.016,1.711,0.009,2.566,0.026
	c0.355,0.009,0.632,0.172,0.665,0.552c0.039,0.452-0.227,0.753-0.653,0.735c-2.064-0.082-4.173,0.385-6.174-0.508
	C119.116,38.172,118.662,36.407,120.462,34.088z"/>
<path fill-rule="evenodd" clip-rule="evenodd" fill="#F3F3F5" d="M99.439,34.32c-0.575,0.97-0.361,1.475,0.829,1.444
	c0.85-0.021,1.701-0.016,2.551,0.002c0.427,0.008,0.935,0.028,0.899,0.632c-0.035,0.569-0.533,0.545-0.959,0.594
	c-1.069,0.123-2.187-0.34-3.219,0.255c-0.317,0.302-0.248,0.691-0.198,1.046c0.184,1.276-0.371,1.561-1.604,1.628
	c-1.616,0.087-2.233-0.376-2.02-2.015c0.122-0.938,0.109-1.914-0.003-2.854c-0.134-1.126,0.306-1.804,1.294-2.22
	c1.917-0.004,3.834-0.005,5.75-0.013c0.447,0,0.916,0.01,0.966,0.575c0.067,0.734-0.522,0.648-0.99,0.695
	C101.639,34.197,100.511,33.844,99.439,34.32z"/>
<path fill-rule="evenodd" clip-rule="evenodd" fill="#DEDEDE" d="M148.056,36.638c0.373,0.517,1.285,0.421,1.424,1.155
	c0.115,0.615,0.267,1.468-0.206,1.817c-0.788,0.584-1.844,0.312-2.763,0.185c-0.683-0.097-0.517-0.822-0.544-1.326
	c-0.125-2.396-0.119-2.396,2.098-1.826L148.056,36.638z"/>
<g>
	<linearGradient id="SVGID_4_" gradientUnits="userSpaceOnUse" x1="53.1797" y1="179.6758" x2="53.1797" y2="152.918">
		<stop  offset="0" style="stop-color:#F16522"/>
		<stop  offset="0" style="stop-color:#EF6421"/>
		<stop  offset="0" style="stop-color:#E8601F"/>
		<stop  offset="0" style="stop-color:#DD591A"/>
		<stop  offset="0" style="stop-color:#CC5014"/>
		<stop  offset="0" style="stop-color:#B6430B"/>
		<stop  offset="0" style="stop-color:#9B3401"/>
		<stop  offset="0" style="stop-color:#993300"/>
		<stop  offset="0.0094" style="stop-color:#B5400D"/>
		<stop  offset="0.0205" style="stop-color:#CF4B19"/>
		<stop  offset="0.0319" style="stop-color:#E15321"/>
		<stop  offset="0.0438" style="stop-color:#EC5826"/>
		<stop  offset="0.057" style="stop-color:#F05A28"/>
		<stop  offset="0.284" style="stop-color:#E86727"/>
		<stop  offset="0.6992" style="stop-color:#D48825"/>
		<stop  offset="0.9706" style="stop-color:#C5A123"/>
		<stop  offset="1" style="stop-color:#F9EC31"/>
	</linearGradient>
	<path fill="url(#SVGID_4_)" d="M36.103,152.918v26.437c0,0,6.429,0.082,6.429,0c0-0.08,0-14.945,0-14.945l7.313,15.107l6.269,0.159
		l7.715-15.748v15.748h6.429v-26.758l-6.913,0.079L53.22,172.445l-9.805-19.367L36.103,152.918z"/>
	<linearGradient id="SVGID_5_" gradientUnits="userSpaceOnUse" x1="92.5166" y1="179.6357" x2="92.5166" y2="153.0781">
		<stop  offset="0" style="stop-color:#F16522"/>
		<stop  offset="0" style="stop-color:#EF6421"/>
		<stop  offset="0" style="stop-color:#E8601F"/>
		<stop  offset="0" style="stop-color:#DD591A"/>
		<stop  offset="0" style="stop-color:#CC5014"/>
		<stop  offset="0" style="stop-color:#B6430B"/>
		<stop  offset="0" style="stop-color:#9B3401"/>
		<stop  offset="0" style="stop-color:#993300"/>
		<stop  offset="0.0094" style="stop-color:#B5400D"/>
		<stop  offset="0.0205" style="stop-color:#CF4B19"/>
		<stop  offset="0.0319" style="stop-color:#E15321"/>
		<stop  offset="0.0438" style="stop-color:#EC5826"/>
		<stop  offset="0.057" style="stop-color:#F05A28"/>
		<stop  offset="0.284" style="stop-color:#E86727"/>
		<stop  offset="0.6992" style="stop-color:#D48825"/>
		<stop  offset="0.9706" style="stop-color:#C5A123"/>
		<stop  offset="1" style="stop-color:#F9EC31"/>
	</linearGradient>
	<path fill="url(#SVGID_5_)" d="M100.111,153.078h-15.51l-9.563,26.398h6.669l1.528-3.536l18.361-0.161l1.327,3.856h7.071
		L100.111,153.078z M85.364,170.718l4.3-11.612h5.264l4.742,11.612H85.364z"/>
	<linearGradient id="SVGID_6_" gradientUnits="userSpaceOnUse" x1="127.583" y1="179.4365" x2="127.583" y2="152.6758">
		<stop  offset="0" style="stop-color:#F16522"/>
		<stop  offset="0" style="stop-color:#EF6421"/>
		<stop  offset="0" style="stop-color:#E8601F"/>
		<stop  offset="0" style="stop-color:#DD591A"/>
		<stop  offset="0" style="stop-color:#CC5014"/>
		<stop  offset="0" style="stop-color:#B6430B"/>
		<stop  offset="0" style="stop-color:#9B3401"/>
		<stop  offset="0" style="stop-color:#993300"/>
		<stop  offset="0.0094" style="stop-color:#B5400D"/>
		<stop  offset="0.0205" style="stop-color:#CF4B19"/>
		<stop  offset="0.0319" style="stop-color:#E15321"/>
		<stop  offset="0.0438" style="stop-color:#EC5826"/>
		<stop  offset="0.057" style="stop-color:#F05A28"/>
		<stop  offset="0.284" style="stop-color:#E86727"/>
		<stop  offset="0.6992" style="stop-color:#D48825"/>
		<stop  offset="0.9706" style="stop-color:#C5A123"/>
		<stop  offset="1" style="stop-color:#F9EC31"/>
	</linearGradient>
	<path fill="url(#SVGID_6_)" d="M127.192,152.676v5.063h7.514v16.393H120.12v-3.454h-6.63v7.553c0,0,0.24,1.206,1.446,1.206
		s25.314,0,25.314,0s1.165-0.122,1.206-1.166c0.04-1.044,0.22-25.495,0.22-25.495L127.192,152.676z"/>
	<linearGradient id="SVGID_7_" gradientUnits="userSpaceOnUse" x1="164.4565" y1="179.5869" x2="164.4565" y2="152.9307">
		<stop  offset="0" style="stop-color:#F16522"/>
		<stop  offset="0" style="stop-color:#EF6421"/>
		<stop  offset="0" style="stop-color:#E8601F"/>
		<stop  offset="0" style="stop-color:#DD591A"/>
		<stop  offset="0" style="stop-color:#CC5014"/>
		<stop  offset="0" style="stop-color:#B6430B"/>
		<stop  offset="0" style="stop-color:#9B3401"/>
		<stop  offset="0" style="stop-color:#993300"/>
		<stop  offset="0.0094" style="stop-color:#B5400D"/>
		<stop  offset="0.0205" style="stop-color:#CF4B19"/>
		<stop  offset="0.0319" style="stop-color:#E15321"/>
		<stop  offset="0.0438" style="stop-color:#EC5826"/>
		<stop  offset="0.057" style="stop-color:#F05A28"/>
		<stop  offset="0.284" style="stop-color:#E86727"/>
		<stop  offset="0.6992" style="stop-color:#D48825"/>
		<stop  offset="0.9706" style="stop-color:#C5A123"/>
		<stop  offset="1" style="stop-color:#F9EC31"/>
	</linearGradient>
	<path fill="url(#SVGID_7_)" d="M178.771,152.931c-1.112,0-28.314,0.228-28.314,0.228s-1.547,0.081-1.547,1.546
		c0,1.469,0,23.566,0,23.566s-0.081,1.316,1.316,1.316c1.396,0,28.8,0,28.8,0s0.979-0.16,0.979-0.979c0-0.819,0-24.446,0-24.446
		S179.884,152.931,178.771,152.931z M175.851,175.9l-23.425-9.482l17.398-0.04l6.229-9.844L175.851,175.9z"/>
	<linearGradient id="SVGID_8_" gradientUnits="userSpaceOnUse" x1="202.9727" y1="179.2686" x2="202.9727" y2="152.8105">
		<stop  offset="0" style="stop-color:#F16522"/>
		<stop  offset="0" style="stop-color:#EF6421"/>
		<stop  offset="0" style="stop-color:#E8601F"/>
		<stop  offset="0" style="stop-color:#DD591A"/>
		<stop  offset="0" style="stop-color:#CC5014"/>
		<stop  offset="0" style="stop-color:#B6430B"/>
		<stop  offset="0" style="stop-color:#9B3401"/>
		<stop  offset="0" style="stop-color:#993300"/>
		<stop  offset="0.0094" style="stop-color:#B5400D"/>
		<stop  offset="0.0205" style="stop-color:#CF4B19"/>
		<stop  offset="0.0319" style="stop-color:#E15321"/>
		<stop  offset="0.0438" style="stop-color:#EC5826"/>
		<stop  offset="0.057" style="stop-color:#F05A28"/>
		<stop  offset="0.284" style="stop-color:#E86727"/>
		<stop  offset="0.6992" style="stop-color:#D48825"/>
		<stop  offset="0.9706" style="stop-color:#C5A123"/>
		<stop  offset="1" style="stop-color:#F9EC31"/>
	</linearGradient>
	<path fill="url(#SVGID_8_)" d="M187.624,152.932l26.078-0.121c0,0,2.732,0.241,3.053,2.813c0.323,2.571,0,11.893,0,11.893
		s0.243,2.961-2.853,2.973c-2.592,0.01-3.536,0-3.536,0l7.996,8.598h-7.875l-11.183-11.731l11.083-0.041l0.583-0.611l0.013-7.906
		l-0.576-0.602l-15.993,0.026l0.101,21.047l-6.932-0.02L187.624,152.932z"/>
</g>
<g>
	<polygon fill="#261F1F" points="54.781,188.304 41.468,188.304 55.451,214.151 69.916,214.151 62.924,225.886 84.782,225.886 
		92.417,213.107 104.792,231.108 149.393,231.108 160.081,212.705 162.813,212.705 169.242,226.045 191.421,226.045 
		182.903,212.893 184.189,213.616 197.931,213.696 212.958,188.276 196.404,188.598 191.904,198.081 185.636,206.678 
		182.983,211.365 118.534,211.259 69.354,210.776 57.138,188.999 	"/>
	<polygon fill="#FE7008" points="54.781,188.304 58.959,188.304 71.817,210.161 181.966,210.161 194.501,188.625 198.895,188.625 
		184.322,213.804 69.354,213.804 	"/>
</g>
</svg>
