<?xml version="1.0" encoding="utf-8"?>
<!-- Generator: Adobe Illustrator 16.0.0, SVG Export Plug-In . SVG Version: 6.00 Build 0)  -->
<!DOCTYPE svg PUBLIC "-//W3C//DTD SVG 1.1//EN" "http://www.w3.org/Graphics/SVG/1.1/DTD/svg11.dtd">
<svg version="1.1" id="Layer_1" xmlns="http://www.w3.org/2000/svg" xmlns:xlink="http://www.w3.org/1999/xlink" x="0px" y="0px"
	 width="256px" height="256px" viewBox="0 0 256 256" enable-background="new 0 0 256 256" xml:space="preserve">
<g>
	<linearGradient id="SVGID_1_" gradientUnits="userSpaceOnUse" x1="71.7227" y1="54.3242" x2="210.6387" y2="54.3242">
		<stop  offset="0" style="stop-color:#CFD1D2"/>
		<stop  offset="1" style="stop-color:#626365"/>
	</linearGradient>
	<path fill-rule="evenodd" clip-rule="evenodd" fill="url(#SVGID_1_)" d="M210.639,6.413c-3.084,10.796-6.17,21.592-9.27,32.435
		c-41.906,21.1-83.779,42.183-125.896,63.388c0-7.911,0-15.604,0-23.314c-1.33-0.913-2.539-1.744-3.75-2.575
		c0.465-0.306,0.904-0.66,1.396-0.91c9.729-4.921,19.465-9.828,29.199-14.741c35.541-17.938,71.08-35.876,106.627-53.8
		C209.459,6.636,210.072,6.569,210.639,6.413z"/>
	<linearGradient id="SVGID_2_" gradientUnits="userSpaceOnUse" x1="44.2051" y1="119.5244" x2="172.7891" y2="119.5244">
		<stop  offset="0" style="stop-color:#CFD1D2"/>
		<stop  offset="1" style="stop-color:#626365"/>
	</linearGradient>
	<path fill-rule="evenodd" clip-rule="evenodd" fill="url(#SVGID_2_)" d="M172.789,73.242c-3.07,10.799-6.139,21.597-9.248,32.535
		c-39.688,19.964-79.412,39.946-119.336,60.029c0-9.534,0-18.781,0-28.027c0.313-0.137,0.631-0.258,0.936-0.411
		c37.615-18.946,75.227-37.9,112.846-56.837C162.898,78.057,167.854,75.67,172.789,73.242z"/>
	<linearGradient id="SVGID_3_" gradientUnits="userSpaceOnUse" x1="83.4922" y1="148.1689" x2="210.6094" y2="148.1689">
		<stop  offset="0" style="stop-color:#CFD1D2"/>
		<stop  offset="1" style="stop-color:#626365"/>
	</linearGradient>
	<path fill-rule="evenodd" clip-rule="evenodd" fill="url(#SVGID_3_)" d="M210.609,102.242c-3.094,10.846-6.188,21.693-9.291,32.571
		c-39.172,19.71-78.301,39.396-117.826,59.282c1.07-3.438,2.031-6.524,2.992-9.612c0.09-0.605-0.004-0.809,0-1.416
		c0.027-3.067,0-6.312,0-9.379c0-2.901,0-6.015,0-9.096c0.807-0.42,1.727-0.858,2.385-1.19
		c37.617-18.98,75.232-37.964,112.855-56.929C204.652,104.996,207.646,103.649,210.609,102.242z"/>
	<path fill-rule="evenodd" clip-rule="evenodd" fill="#FFFFFF" d="M250.471,223.078c0,2.266,0,4.356,0,6.658
		c-6.314,0-12.582,0-18.945,0c0,1.88,0,3.549,0,5.396c4.877,0,9.682,0,14.848,0c-1.117,2.406-2.105,4.533-3.164,6.807
		c-3.857,0-7.701,0-11.662,0c0,1.747,0,3.31,0,5.103c6.256,0,12.527,0,18.885,0c0,2.304,0,4.383,0,6.588c-8.854,0-17.676,0-26.6,0
		c0-10.198,0-20.337,0-30.551C232.727,223.078,241.512,223.078,250.471,223.078z"/>
	<path fill-rule="evenodd" clip-rule="evenodd" fill="#FFFFFF" d="M111.076,223.108c0,2.18,0,4.313,0,6.617
		c-6.332,0-12.609,0-19.01,0c0,1.837,0,3.508,0,5.366c4.818,0,9.621,0,14.846,0c-1.119,2.423-2.1,4.541-3.152,6.814
		c-3.846,0-7.691,0-11.674,0c0,1.741,0,3.3,0,5.057c6.229,0,12.508,0,18.939,0c0,2.306,0,4.423,0,6.666c-8.83,0-17.658,0-26.621,0
		c0-10.155,0-20.288,0-30.521C93.295,223.108,102.133,223.108,111.076,223.108z"/>
	<path fill-rule="evenodd" clip-rule="evenodd" fill="#FFFFFF" d="M151.43,253.797c-3.117,0-5.93,0-8.887,0
		c-0.896-1.904-1.811-3.844-2.766-5.873c-4.623,0-9.264,0-14.109,0c-0.889,1.885-1.824,3.87-2.775,5.89c-2.895,0-5.719,0-8.891,0
		c5.203-10.337,10.332-20.528,15.473-30.743c2.158,0,4.248,0,6.527,0C141.076,233.176,146.184,243.348,151.43,253.797z
		 M128.77,241.202c2.756,0,5.252,0,7.953,0c-1.348-2.981-2.605-5.762-3.986-8.818C131.33,235.51,130.084,238.279,128.77,241.202z"/>
	<path fill-rule="evenodd" clip-rule="evenodd" fill="#F1F1F1" d="M210.639,6.413c-0.566,0.156-1.18,0.223-1.693,0.481
		c-35.547,17.924-71.086,35.862-106.627,53.8c-9.734,4.913-19.471,9.82-29.199,14.741c-0.492,0.25-0.932,0.604-1.396,0.91
		c-1.045-0.62-2.088-1.241-3.549-2.108c48.064-24.238,95.707-48.266,143.35-72.291c0.154,0.094,0.311,0.188,0.467,0.281
		C211.541,3.623,211.09,5.019,210.639,6.413z"/>
	<path fill-rule="evenodd" clip-rule="evenodd" fill="#F1F1F1" d="M172.789,73.242c-4.936,2.428-9.891,4.814-14.803,7.289
		c-37.619,18.937-75.23,37.891-112.846,56.837c-0.305,0.153-0.623,0.274-0.936,0.411c0-1.126,0-2.252,0-3.584
		c43.166-21.801,86.311-43.591,129.457-65.381c0.164,0.096,0.33,0.191,0.492,0.287C173.699,70.481,173.244,71.862,172.789,73.242z"
		/>
	<path fill-rule="evenodd" clip-rule="evenodd" fill="#F1F1F1" d="M210.609,102.242c-2.963,1.407-5.957,2.754-8.885,4.231
		c-37.623,18.965-75.238,37.948-112.855,56.929c-0.658,0.332-1.578,0.771-2.385,1.19c0-1.288,0-1.933,0-3.627
		c41.703-21.046,83.377-42.077,125.051-63.108c0.129,0.1,0.258,0.197,0.387,0.297C211.484,99.517,211.047,100.88,210.609,102.242z"
		/>
	<path fill-rule="evenodd" clip-rule="evenodd" fill="#FFFFFF" d="M77.436,253.701c-7.479,0-14.795,0-22.26,0
		c0-10.188,0-20.356,0-30.61c2.467,0,4.879,0,7.467,0c0,7.934,0,15.799,0,23.92c5.965,0,11.766,0,17.916,0
		C79.428,249.438,78.455,251.521,77.436,253.701z"/>
	<linearGradient id="SVGID_4_" gradientUnits="userSpaceOnUse" x1="5.5293" y1="238.6172" x2="39.4297" y2="238.6172">
		<stop  offset="0" style="stop-color:#B4B6B7"/>
		<stop  offset="1" style="stop-color:#6F7072"/>
	</linearGradient>
	<path fill-rule="evenodd" clip-rule="evenodd" fill="url(#SVGID_4_)" d="M39.43,235.36c-1.084,2.347-2.023,4.38-3.01,6.513
		c-10.223,0-20.342,0-30.891,0c1.102-2.339,2.07-4.399,3.066-6.513C18.832,235.36,28.91,235.36,39.43,235.36z"/>
	<linearGradient id="SVGID_5_" gradientUnits="userSpaceOnUse" x1="17.2695" y1="226.3984" x2="49.793" y2="226.3984">
		<stop  offset="0" style="stop-color:#B4B6B7"/>
		<stop  offset="1" style="stop-color:#6F7072"/>
	</linearGradient>
	<path fill-rule="evenodd" clip-rule="evenodd" fill="url(#SVGID_5_)" d="M17.27,229.635c0.609-1.454,1.127-2.685,1.678-3.994
		c-0.34-0.752-0.684-1.516-1.119-2.479c10.592,0,21.031,0,31.965,0c-1.051,2.29-1.996,4.351-2.969,6.474
		C36.975,229.635,27.256,229.635,17.27,229.635z"/>
	<linearGradient id="SVGID_6_" gradientUnits="userSpaceOnUse" x1="8.4863" y1="250.4277" x2="43.5801" y2="250.4277">
		<stop  offset="0" style="stop-color:#B4B6B7"/>
		<stop  offset="1" style="stop-color:#6F7072"/>
	</linearGradient>
	<path fill-rule="evenodd" clip-rule="evenodd" fill="url(#SVGID_6_)" d="M8.486,253.584c1.459-2.026,2.914-4.053,4.541-6.313
		c9.857,0,20.039,0,30.553,0c-1.029,2.207-1.973,4.23-2.943,6.313C29.75,253.584,18.998,253.584,8.486,253.584z"/>
	<path fill-rule="evenodd" clip-rule="evenodd" fill="#FFFFFF" d="M166.916,242.249c1.158-2.462,2.145-4.56,3.123-6.644
		c4.523,0,8.943,0,13.613,0c-0.191,4.473,0.459,8.9-0.486,13.261c-0.664,3.077-3.453,5.066-7.021,5.118
		c-5.283,0.077-10.57,0.096-15.854-0.007c-4.324-0.084-7.191-2.854-7.314-7.17c-0.15-5.337-0.127-10.683-0.033-16.021
		c0.08-4.563,2.303-7.211,6.844-7.597c5.6-0.476,11.256-0.481,16.854,0.001c4.771,0.41,6.58,2.858,6.789,8.207
		c-2.43,0-4.859,0-7.479,0c-0.346-1.366-1.494-1.616-2.83-1.606c-3.295,0.021-6.592-0.017-9.889,0.016
		c-2.197,0.021-2.676,0.525-2.689,2.76c-0.021,3.978-0.023,7.955-0.006,11.934c0.008,2.238,0.469,2.725,2.689,2.749
		c3.238,0.036,6.477,0.025,9.717,0c2.617-0.021,2.904-0.336,2.924-2.981c0.006-0.611,0.002-1.222,0.002-2.019
		C172.891,242.249,170.078,242.249,166.916,242.249z"/>
	<path fill-rule="evenodd" clip-rule="evenodd" fill="#FFFFFF" d="M211.336,223.064c2.672,0,5.096,0,7.494,0
		c0.439,0.547,0.262,1.137,0.262,1.683c0.014,6.702,0.023,13.403-0.01,20.105c-0.006,1.186-0.115,2.389-0.342,3.551
		c-0.635,3.278-3.326,5.502-7.006,5.571c-5.338,0.102-10.68,0.108-16.016-0.001c-4.186-0.086-7.145-2.776-7.232-6.874
		c-0.166-7.944-0.047-15.895-0.047-23.974c2.467,0,4.922,0,7.383,0c0.316,0.688,0.18,1.376,0.18,2.04
		c0.012,6.362,0.002,12.723,0.004,19.084c0.002,2.541,0.422,2.986,2.957,3.005c3.293,0.024,6.588,0.03,9.883-0.017
		c2.121-0.029,2.479-0.407,2.482-2.538c0.02-6.532,0.008-13.063,0.008-19.595C211.336,224.489,211.336,223.873,211.336,223.064z"/>
</g>
</svg>
