<?xml version="1.0" encoding="utf-8"?>
<!-- Generator: Adobe Illustrator 16.0.0, SVG Export Plug-In . SVG Version: 6.00 Build 0)  -->
<!DOCTYPE svg PUBLIC "-//W3C//DTD SVG 1.1//EN" "http://www.w3.org/Graphics/SVG/1.1/DTD/svg11.dtd">
<svg version="1.1" id="Layer_1" xmlns="http://www.w3.org/2000/svg" xmlns:xlink="http://www.w3.org/1999/xlink" x="0px" y="0px"
	 width="256px" height="256px" viewBox="0 0 256 256" enable-background="new 0 0 256 256" xml:space="preserve">
<g>
	<path fill-rule="evenodd" clip-rule="evenodd" fill="#FFFFFF" d="M173.392,105.166c5.153,0,9.304-0.081,13.448,0.027
		c2.98,0.078,5.934,0.479,8.754,1.594c3.377,1.334,5.195,3.834,5.597,7.368c0.193,1.701,0.166,3.425,0.259,5.137
		c0.025,0.456-0.165,0.556-0.582,0.555c-4.188-0.012-8.374-0.013-12.562,0.001c-0.449,0.001-0.654-0.111-0.608-0.591
		c0.029-0.288,0.019-0.591-0.037-0.875c-0.394-2.028-1.107-2.714-3.239-2.985c-1.138-0.144-2.29-0.235-3.437-0.242
		c-5.223-0.024-10.447-0.029-15.67,0.008c-0.844,0.007-1.71,0.18-2.521,0.421c-1.549,0.459-2.435,1.708-2.305,3.198
		c0.152,1.751,0.691,2.849,2.593,3.294c1.129,0.265,2.308,0.428,3.466,0.443c6.002,0.081,12.006,0.049,18.006,0.159
		c3.484,0.063,6.979,0.237,10.384,1.067c1.857,0.452,3.706,0.996,5.134,2.409c1.53,1.514,2.299,3.409,2.777,5.455
		c0.584,2.499,0.568,5.046,0.441,7.576c-0.11,2.181-0.506,4.332-1.522,6.324c-0.911,1.786-2.235,3.084-4.14,3.759
		c-2.088,0.74-4.253,1.101-6.449,1.337c-7.484,0.803-14.992,0.342-22.489,0.458c-2.132,0.033-4.267,0.05-6.397-0.006
		c-3.002-0.081-5.994-0.319-8.891-1.195c-3.453-1.044-5.522-3.369-6.313-6.876c-0.496-2.2-0.331-4.43-0.338-6.652
		c0-0.137,0.249-0.291,0.405-0.404c0.063-0.046,0.19-0.008,0.288-0.008c4.108,0,8.217,0.007,12.325-0.009
		c0.506-0.002,0.671,0.105,0.731,0.664c0.095,0.877,0.314,1.76,0.614,2.591c0.34,0.942,1.146,1.436,2.111,1.558
		c1.292,0.164,2.593,0.336,3.892,0.345c5.342,0.039,10.682,0.05,16.023-0.007c1.404-0.015,2.84-0.02,4.186-0.649
		c1.671-0.783,2.111-2.352,1.85-3.853c-0.313-1.783-1.389-2.744-3.355-2.966c-1.662-0.188-3.338-0.305-5.009-0.361
		c-2.519-0.085-5.04-0.093-7.56-0.131c-2.755-0.042-5.512-0.014-8.264-0.132c-3.753-0.161-7.512-0.339-11.18-1.273
		c-1.598-0.407-3.118-0.944-4.361-2.133c-1.403-1.343-2.154-2.998-2.334-4.86c-0.226-2.364-0.367-4.747-0.34-7.12
		c0.018-1.601,0.255-3.23,0.637-4.788c0.708-2.879,2.648-4.753,5.343-5.886c2.089-0.878,4.286-1.288,6.526-1.513
		C164.312,104.894,169.359,105.32,173.392,105.166z"/>
	<path fill-rule="evenodd" clip-rule="evenodd" fill="#FFFFFF" d="M119.294,150.599c-6.104,0-12.208-0.042-18.312,0.02
		c-2.756,0.028-5.117-0.896-7.269-2.507c-2.616-1.958-3.901-4.656-4.263-7.838c-0.1-0.869-0.119-1.751-0.121-2.627
		c-0.009-6.75-0.027-13.499,0.006-20.248c0.016-3.03,0.968-5.729,3.069-7.992c1.856-1.999,4.081-3.291,6.776-3.74
		c0.556-0.093,1.125-0.143,1.688-0.143c12.344-0.009,24.689-0.002,37.033-0.021c0.607-0.001,0.75,0.174,0.744,0.759
		c-0.029,2.993-0.032,5.986,0.002,8.98c0.007,0.617-0.191,0.737-0.766,0.736c-11.211-0.016-22.42-0.012-33.63-0.01
		c-1.082,0-0.954-0.112-0.957,0.986c-0.005,1.839-0.001,3.678-0.001,5.517c0,0.774,0.001,0.775,0.76,0.775
		c10.642,0,21.284,0,31.927,0c0.888,0,0.888,0,0.888,0.881c0,2.563-0.017,5.126,0.014,7.688c0.006,0.571-0.164,0.718-0.725,0.717
		c-10.682-0.016-21.363-0.012-32.045-0.012c-0.818,0-0.818,0-0.818,0.833c0,1.917,0,3.834,0,5.751c0,0.807,0,0.808,0.785,0.808
		c8.627,0,17.255,0,25.883,0c2.934,0,5.869,0.012,8.803-0.011c0.526-0.004,0.706,0.126,0.701,0.682
		c-0.026,3.11-0.024,6.222-0.001,9.332c0.003,0.534-0.14,0.697-0.687,0.695C132.284,150.592,125.789,150.599,119.294,150.599z"/>
	<path fill-rule="evenodd" clip-rule="evenodd" fill="#FFFFFF" d="M224.452,122.305c0,5.36,0.009,10.721-0.013,16.081
		c-0.003,0.571,0.161,0.719,0.724,0.718c9.781-0.017,19.563-0.013,29.345-0.012c0.819,0,0.819,0,0.819,0.832
		c0,3.326-0.009,6.651,0.01,9.977c0.003,0.51-0.097,0.711-0.669,0.71c-10.604-0.018-21.208,0.019-31.811-0.032
		c-3.054-0.015-5.879-0.834-8.203-3.002c-2.102-1.96-3.518-4.26-3.816-7.152c-0.138-1.336-0.227-2.682-0.229-4.024
		c-0.018-10.036-0.01-20.072-0.01-30.108c0-0.774,0.002-0.776,0.76-0.776c4.127,0,8.255,0.011,12.383-0.012
		c0.564-0.003,0.725,0.152,0.722,0.72C224.443,111.584,224.452,116.945,224.452,122.305z"/>
	<path fill-rule="evenodd" clip-rule="evenodd" fill="#FFFFFF" d="M37.667,165.04c-20.071,0.281-37.431-16.622-36.996-37.829
		c0.403-19.601,16.54-36.588,37.817-36.25c19.618,0.313,36.521,16.539,36.318,37.554C74.616,148.352,58.149,165.331,37.667,165.04z
		 M37.758,94.824C19.566,94.75,4.723,109.594,4.52,127.651c-0.205,18.116,14.343,33.58,33.168,33.608
		c18.375,0.027,33.282-14.704,33.278-33.232C70.963,109.151,55.564,94.756,37.758,94.824z"/>
	<path fill-rule="evenodd" clip-rule="evenodd" fill="#FFFFFF" d="M55.582,103.845c-13.989,14.275-27.935,28.505-41.899,42.755
		c-1.958-2.505-3.458-5.208-4.524-8.148c-0.066-0.185,0.021-0.494,0.146-0.668c3.376-4.748,6.764-9.488,10.153-14.226
		c5.975-8.347,11.956-16.688,17.915-25.047c0.359-0.504,0.71-0.691,1.335-0.663c6.084,0.274,11.593,2.181,16.533,5.737
		C55.334,103.654,55.426,103.727,55.582,103.845z"/>
	<path fill-rule="evenodd" clip-rule="evenodd" fill="#FFFFFF" d="M27.918,156.701c13.404-9.598,26.668-19.096,40.056-28.682
		c-0.186,8.748-3.227,16.188-9.6,22.028C49.617,158.072,39.393,159.991,27.918,156.701z"/>
	<linearGradient id="SVGID_1_" gradientUnits="userSpaceOnUse" x1="18.6406" y1="152.0947" x2="64.8396" y2="113.3292">
		<stop  offset="0" style="stop-color:#1E9AD2"/>
		<stop  offset="1" style="stop-color:#42B7E9"/>
	</linearGradient>
	<path fill-rule="evenodd" clip-rule="evenodd" fill="url(#SVGID_1_)" d="M67.426,122.353c-0.988-5.114-3.166-9.661-6.482-13.666
		c-0.58-0.7-1.221-1.349-1.949-2.15c-0.188,0.266-0.289,0.464-0.439,0.615c-3.054,3.06-6.111,6.116-9.171,9.17
		c-4.818,4.81-9.64,9.618-14.458,14.428c-0.15,0.151-0.285,0.318-0.428,0.478c-0.145,0.129-0.299,0.251-0.436,0.389
		c-2.293,2.299-4.581,4.604-6.876,6.901c-3.457,3.46-6.919,6.917-10.377,10.376c-0.147,0.147-0.285,0.303-0.452,0.481
		c2.171,2.17,4.558,3.95,7.23,5.339c0.121,0.063,0.373-0.005,0.503-0.097c0.862-0.608,1.71-1.239,2.561-1.865
		c4.015-2.958,8.028-5.918,12.044-8.875c1.262-0.928,2.529-1.847,3.795-2.77c1.588-1.139,3.187-2.26,4.759-3.419
		c4.704-3.468,9.392-6.957,14.097-10.424c1.918-1.414,3.859-2.797,5.803-4.179C67.433,122.882,67.492,122.692,67.426,122.353z"/>
</g>
</svg>
