<?xml version="1.0" encoding="utf-8"?>
<!-- Generator: Adobe Illustrator 16.0.3, SVG Export Plug-In . SVG Version: 6.00 Build 0)  -->
<!DOCTYPE svg PUBLIC "-//W3C//DTD SVG 1.1//EN" "http://www.w3.org/Graphics/SVG/1.1/DTD/svg11.dtd">
<svg version="1.1" id="Layer_1" xmlns="http://www.w3.org/2000/svg" xmlns:xlink="http://www.w3.org/1999/xlink" x="0px" y="0px"
	 width="124.5px" height="108.5px" viewBox="0 0 124.5 108.5" style="enable-background:new 0 0 124.5 108.5;" xml:space="preserve"
	>
<path style="fill:#434343;" d="M125.836,35.19V-0.768L94.047-19.121L62.774-1.064L31.788-18.955L0-0.602v36.227l-31,17.899v36.703
	L0.787,108.58l31.381-18.118l30.878,17.827L94.173,90.32l31.124,17.969l31.789-18.352V53.232L125.836,35.19z M124.578-0.042V35.21
	L94.099,52.807L63.575,35.184V-0.075l30.472-17.594L124.578-0.042z M1.258,0.124l30.53-17.627L62.26,0.09v35.243L31.723,52.965
	L1.258,35.375V0.124z M-29.742,89.5V54.249L0.787,36.622L31.26,54.215v35.319L0.787,107.128L-29.742,89.5z M32.575,89.244V54
	l30.485-17.602l30.449,17.58V89.25l-30.463,17.588L32.575,89.244z M155.828,89.211l-30.531,17.627L94.836,89.25V53.92l30.461-17.588
	l30.531,17.627V89.211z"/>
</svg>
