<?xml version="1.0" encoding="utf-8"?>
<!-- Generator: Adobe Illustrator 23.0.3, SVG Export Plug-In . SVG Version: 6.00 Build 0)  -->
<svg version="1.1" id="Layer_1" xmlns="http://www.w3.org/2000/svg" xmlns:xlink="http://www.w3.org/1999/xlink" x="0px" y="0px"
	 width="256px" height="6px" viewBox="0 0 256 6" enable-background="new 0 0 256 6" xml:space="preserve">
<rect y="3.01" fill="#FFFFFF" width="256" height="0.996"/>
<rect x="253.764" y="1.285" transform="matrix(6.123234e-17 -1 1 6.123234e-17 253.7148 257.285)" fill="#FFFFFF" width="3.471" height="1"/>
<rect x="47.803" y="1.285" transform="matrix(6.123234e-17 -1 1 6.123234e-17 47.7533 51.3235)" fill="#FFFFFF" width="3.471" height="1"/>
<rect x="57.611" y="1.285" transform="matrix(6.123234e-17 -1 1 6.123234e-17 57.561 61.1311)" fill="#FFFFFF" width="3.471" height="1"/>
<rect x="67.418" y="1.285" transform="matrix(6.123234e-17 -1 1 6.123234e-17 67.3687 70.9388)" fill="#FFFFFF" width="3.471" height="1"/>
<rect x="77.226" y="1.285" transform="matrix(6.123234e-17 -1 1 6.123234e-17 77.1764 80.7465)" fill="#FFFFFF" width="3.471" height="1"/>
<rect x="96.841" y="1.285" transform="matrix(6.123234e-17 -1 1 6.123234e-17 96.7918 100.3619)" fill="#FFFFFF" width="3.471" height="1"/>
<rect x="116.457" y="1.285" transform="matrix(6.123234e-17 -1 1 6.123234e-17 116.4071 119.9773)" fill="#FFFFFF" width="3.471" height="1"/>
<rect x="136.072" y="1.285" transform="matrix(6.123234e-17 -1 1 6.123234e-17 136.0225 139.5927)" fill="#FFFFFF" width="3.471" height="1"/>
<rect x="155.687" y="1.285" transform="matrix(6.123234e-17 -1 1 6.123234e-17 155.6379 159.2081)" fill="#FFFFFF" width="3.471" height="1"/>
<rect x="175.303" y="1.285" transform="matrix(6.123234e-17 -1 1 6.123234e-17 175.2533 178.8235)" fill="#FFFFFF" width="3.471" height="1"/>
<rect x="194.918" y="1.285" transform="matrix(6.123234e-17 -1 1 6.123234e-17 194.8687 198.4388)" fill="#FFFFFF" width="3.471" height="1"/>
<rect x="204.726" y="1.285" transform="matrix(6.123234e-17 -1 1 6.123234e-17 204.6764 208.2465)" fill="#FFFFFF" width="3.471" height="1"/>
<rect x="214.534" y="1.394" transform="matrix(6.123234e-17 -1 1 6.123234e-17 214.4841 218.0542)" fill="#FFFFFF" width="3.471" height="0.783"/>
<rect x="224.341" y="1.394" transform="matrix(6.123234e-17 -1 1 6.123234e-17 224.2918 227.8619)" fill="#FFFFFF" width="3.471" height="0.783"/>
<rect x="234.149" y="1.285" transform="matrix(6.123234e-17 -1 1 6.123234e-17 234.0995 237.6696)" fill="#FFFFFF" width="3.471" height="1"/>
<rect x="243.957" y="1.285" transform="matrix(6.123234e-17 -1 1 6.123234e-17 243.9072 247.4773)" fill="#FFFFFF" width="3.471" height="1"/>
<rect y="4.849" fill="#FFFFFF" width="256" height="1"/>
<rect x="87.034" y="1.285" transform="matrix(6.123234e-17 -1 1 6.123234e-17 86.9841 90.5542)" fill="#FFFFFF" width="3.471" height="1"/>
<rect x="106.649" y="1.285" transform="matrix(6.123234e-17 -1 1 6.123234e-17 106.5994 110.1696)" fill="#FFFFFF" width="3.471" height="1"/>
<rect x="126.264" y="1.285" transform="matrix(6.123234e-17 -1 1 6.123234e-17 126.2148 129.785)" fill="#FFFFFF" width="3.471" height="1"/>
<rect x="145.88" y="1.394" transform="matrix(6.123234e-17 -1 1 6.123234e-17 145.8302 149.4004)" fill="#FFFFFF" width="3.471" height="0.783"/>
<rect x="165.495" y="1.394" transform="matrix(6.123234e-17 -1 1 6.123234e-17 165.4456 169.0158)" fill="#FFFFFF" width="3.471" height="0.783"/>
<rect x="185.111" y="1.285" transform="matrix(6.123234e-17 -1 1 6.123234e-17 185.061 188.6311)" fill="#FFFFFF" width="3.471" height="1"/>
<rect x="-1.236" y="1.285" transform="matrix(6.123234e-17 -1 1 6.123234e-17 -1.2851 2.2851)" fill="#FFFFFF" width="3.471" height="1"/>
<rect x="8.572" y="1.285" transform="matrix(6.123234e-17 -1 1 6.123234e-17 8.5226 12.0928)" fill="#FFFFFF" width="3.471" height="1"/>
<rect x="18.38" y="1.285" transform="matrix(6.123234e-17 -1 1 6.123234e-17 18.3303 21.9005)" fill="#FFFFFF" width="3.471" height="1"/>
<rect x="28.188" y="1.285" transform="matrix(6.123234e-17 -1 1 6.123234e-17 28.138 31.7082)" fill="#FFFFFF" width="3.471" height="1"/>
<rect x="37.995" y="1.285" transform="matrix(6.123234e-17 -1 1 6.123234e-17 37.9457 41.5159)" fill="#FFFFFF" width="3.471" height="1"/>
</svg>
